<?xml version="1.0" encoding="utf-8"?>
<!-- Generator: Adobe Illustrator 24.0.0, SVG Export Plug-In . SVG Version: 6.00 Build 0)  -->
<svg version="1.1" xmlns="http://www.w3.org/2000/svg" xmlns:xlink="http://www.w3.org/1999/xlink" x="0px" y="0px"
	 viewBox="0 0 821 621" style="enable-background:new 0 0 821 621;" xml:space="preserve">
<style type="text/css">
	.st0{opacity:0.35;}
	.st1{opacity:0.35;fill:#BDBDBD;enable-background:new    ;}
	.st2{opacity:0.35;fill:#A4A4A4;enable-background:new    ;}
	.st3{fill:#D2D2D2;}
	.st4{fill:#AEAEAE;}
	.st5{fill:#9B9B9B;}
	.st6{opacity:0.45;}
	.st7{opacity:0.45;fill:#AFAFAF;enable-background:new    ;}
	.st8{fill:#AFAFAF;}
	.st9{fill:#BEBEBE;}
	.st10{opacity:0.35;fill:#8F8F8F;enable-background:new    ;}
	.st11{fill:#545454;}
	.st12{fill:#CDCDCD;}
	.st13{fill:#787878;}
	.st14{opacity:0.35;fill:#515151;enable-background:new    ;}
	.st15{fill:#555555;}
	.st16{fill:#909090;}
	.st17{fill:#CACACA;}
	.st18{fill:#C1C1C1;}
	.st19{fill:#ADADAD;}
	.st20{fill:none;stroke:#D02E1B;stroke-width:3.0907;stroke-linecap:round;stroke-linejoin:round;stroke-miterlimit:10;}
	.st21{fill:#D02E1B;}
	.st22{opacity:0.45;fill:#FFFFFF;enable-background:new    ;}
	.st23{fill:#FFFFFF;}
	.st24{fill:#EAEAEA;}
	.st25{fill:#A9A9A9;}
	.st26{fill:#4E4E4E;}
	.st27{fill:#B6B6B6;}
	.st28{fill:#686868;}
	.st29{fill:#B8B8B8;}
	.st30{fill:#808080;}
	.st31{fill:#6E6E6E;}
	.st32{fill:#181818;}
	.st33{fill:#CECECE;}
	.st34{fill:#3A3A3A;}
	.st35{fill:#DFDFDF;}
</style>
<g id="Layer_3">
	<g class="st0">
		<path class="st1" d="M648.9,355.1v-78c-11.5,15.3-23,28.9-34.5,44.2c-5,6.5-24.8,28.4-11.3,37.1c3.5,2.3,9.5,2.3,12.3,2.3
			c10.8,0.8,21.3-2.3,31.8-5.3C647.6,355.6,648.4,355.3,648.9,355.1z"/>
	</g>
	<path class="st2" d="M648.9,371.9l-6.5,0.5v-0.3l-5,0.5l-1.5-4.3c-0.8-2.5-3.8-4.3-6.3-4c-2.8,0.3-4,2.3-3.3,4.8
		c0.3,0.8,1,2.8,1.5,4.3l-5.3,0.5v0.3l-10.8,0.8c-1.8,0-4.3,2.3-3.8,3.8v0.3c0,0.3,0,0.3,0,0.5l38.6,105.5l2.4-113H648.9z
		 M631.9,371.1c-1.5,0-3-1-3.5-2.3c-0.5-1.3,0.3-2.5,1.8-2.8c1.5,0,3,1,3.5,2.3C634.4,369.9,633.4,370.9,631.9,371.1z"/>
	<path class="st2" d="M241.6,325.7c-2.5,2.8-5.3,8.5-6.5,10.8c-1.3,2.5-2.5,3.8-6,5.5c-4.8,2.3-10,4.3-14.8,6.3v12.8
		c10-6,19-11.5,19.3-11.8c7.8,3,14-3.5,16-8c1-2-0.5-3-0.5-3.8c0-0.5,0.5-3.5,0.5-3.8c-0.5-2.8-7.8-0.3-7.3-1.5c0.3-1,1.3-3.3,3-4.5
		c3.5-2.5,6.3-5,6.3-6C251.6,319.4,242.3,324.7,241.6,325.7z"/>
</g>
<g id="Layer_1">
	<path class="st3" d="M222.7,582.6c0,6.3-32,11.3-71.8,11.3c-39.6,0-71.8-5-71.8-11.3s32-11.3,71.8-11.3
		C190.6,571.1,222.7,576.4,222.7,582.6z"/>
	<path class="st3" d="M700.6,593.9c66.5,0,120.4-4,120.4-9s-53.9-9-120.4-9s-120.4,4-120.4,9C580.2,589.9,634.1,593.9,700.6,593.9z"
		/>
	<path class="st4" d="M781,587.1H646.8c-9.5,0-17.3-7.8-17.3-17.3V408.7c0-9.5,7.8-17.3,17.3-17.3H781c9.5,0,17.3,7.8,17.3,17.3
		v161.1C798.2,579.4,790.5,587.1,781,587.1z"/>
	<path class="st5" d="M783.4,452.1H649.5c-2.5,0-4.5-2-4.5-4.5v-31.4c0-2.5,2-4.5,4.5-4.5h133.9c2.5,0,4.5,2,4.5,4.5v31.4
		C788,450.1,786,452.1,783.4,452.1z"/>
	<path class="st5" d="M677.3,491.8h-27.8c-2.5,0-4.5-2-4.5-4.5v-16.6c0-2.5,2-4.5,4.5-4.5h27.8c2.5,0,4.5,2,4.5,4.5v16.6
		C681.6,489.8,679.6,491.8,677.3,491.8z"/>
	<path class="st5" d="M730.4,491.8h-27.8c-2.5,0-4.5-2-4.5-4.5v-16.6c0-2.5,2-4.5,4.5-4.5h27.8c2.5,0,4.5,2,4.5,4.5v16.6
		C734.6,489.8,732.6,491.8,730.4,491.8z"/>
	<path class="st5" d="M783.4,491.8h-27.8c-2.5,0-4.5-2-4.5-4.5v-16.6c0-2.5,2-4.5,4.5-4.5h27.8c2.5,0,4.5,2,4.5,4.5v16.6
		C788,489.8,786,491.8,783.4,491.8z"/>
	<path class="st5" d="M677.3,532.9h-27.8c-2.5,0-4.5-2-4.5-4.5v-16.6c0-2.5,2-4.5,4.5-4.5h27.8c2.5,0,4.5,2,4.5,4.5v16.6
		C681.6,530.9,679.6,532.9,677.3,532.9z"/>
	<path class="st5" d="M730.4,532.9h-27.8c-2.5,0-4.5-2-4.5-4.5v-16.6c0-2.5,2-4.5,4.5-4.5h27.8c2.5,0,4.5,2,4.5,4.5v16.6
		C734.6,530.9,732.6,532.9,730.4,532.9z"/>
	<path class="st5" d="M677.3,574.1h-27.8c-2.5,0-4.5-2-4.5-4.5V553c0-2.5,2-4.5,4.5-4.5h27.8c2.5,0,4.5,2,4.5,4.5v16.6
		C681.6,572.1,679.6,574.1,677.3,574.1z"/>
	<path class="st5" d="M730.4,574.1h-27.8c-2.5,0-4.5-2-4.5-4.5V553c0-2.5,2-4.5,4.5-4.5h27.8c2.5,0,4.5,2,4.5,4.5v16.6
		C734.6,572.1,732.6,574.1,730.4,574.1z"/>
	<path class="st5" d="M783.4,574.1h-27.8c-2.5,0-4.5-2-4.5-4.5v-57.7c0-2.5,2-4.5,4.5-4.5h27.8c2.5,0,4.5,2,4.5,4.5v57.7
		C788,572.1,786,574.1,783.4,574.1z"/>
	<g class="st6">
		<path class="st7" d="M642.2,413.7c0-2.5,2-4.5,4.5-4.5h133.9c2.5,0,4.5,2,4.5,4.5v31.4c0,2.5-2,4.5-4.5,4.5H646.8"/>
		<path class="st7" d="M674.5,489.3h-27.8c-2.5,0-4.5-2-4.5-4.5v-16.6c0-2.5,2-4.5,4.5-4.5h27.8c2.5,0,4.5,2,4.5,4.5v16.6
			C679,487.3,677,489.3,674.5,489.3z"/>
		<path class="st7" d="M727.6,489.3h-27.8c-2.5,0-4.5-2-4.5-4.5v-16.6c0-2.5,2-4.5,4.5-4.5h27.8c2.5,0,4.5,2,4.5,4.5v16.6
			C732.1,487.3,730.1,489.3,727.6,489.3z"/>
		<path class="st7" d="M780.7,489.3h-27.8c-2.5,0-4.5-2-4.5-4.5v-16.6c0-2.5,2-4.5,4.5-4.5h27.8c2.5,0,4.5,2,4.5,4.5v16.6
			C785.2,487.3,783.2,489.3,780.7,489.3z"/>
		<path class="st7" d="M674.5,530.4h-27.8c-2.5,0-4.5-2-4.5-4.5v-16.6c0-2.5,2-4.5,4.5-4.5h27.8c2.5,0,4.5,2,4.5,4.5v16.6
			C679,528.4,677,530.4,674.5,530.4z"/>
		<path class="st7" d="M727.6,530.4h-27.8c-2.5,0-4.5-2-4.5-4.5v-16.6c0-2.5,2-4.5,4.5-4.5h27.8c2.5,0,4.5,2,4.5,4.5v16.6
			C732.1,528.4,730.1,530.4,727.6,530.4z"/>
		<path class="st7" d="M674.5,571.3h-27.8c-2.5,0-4.5-2-4.5-4.5v-16.6c0-2.5,2-4.5,4.5-4.5h27.8c2.5,0,4.5,2,4.5,4.5v16.6
			C679,569.3,677,571.3,674.5,571.3z"/>
		<path class="st7" d="M727.6,571.3h-27.8c-2.5,0-4.5-2-4.5-4.5v-16.6c0-2.5,2-4.5,4.5-4.5h27.8c2.5,0,4.5,2,4.5,4.5v16.6
			C732.1,569.3,730.1,571.3,727.6,571.3z"/>
	</g>
	<path class="st8" d="M780.7,571.3h-27.8c-2.5,0-4.5-2-4.5-4.5v-57.7c0-2.5,2-4.5,4.5-4.5h27.8c2.5,0,4.5,2,4.5,4.5v57.7
		C785.2,569.3,783.2,571.3,780.7,571.3z"/>
	<path class="st9" d="M751.2,569.6v-57.7c0-2.5,2-4.5,4.5-4.5h27.8c0.5,0,1,0,1.5,0.3c-0.8-1.8-2.3-3-4.3-3h-27.8
		c-2.5,0-4.5,2-4.5,4.5v57.7c0,2,1.3,3.5,3,4.3C751.2,570.6,751.2,570.1,751.2,569.6z"/>
	<path class="st10" d="M629.2,437.6l4.5,12h19c0,0-1.3,51.7-1.5,61.2c0,9.8,8,76.5,8,76.5h11l-1.3-84.1l15.5-43.2
		c0,0,11.8,57.7,16.5,67.5c4.8,9.8,31,60,31,60h10L716.4,477l-11-38.4l-56.1-26.9l-20,2"/>
	<path class="st11" d="M165.6,273.7c3.3,5.8,0.5,13.8,3.8,19.6c1.3,2.3,3.8,4.3,4.3,6.8c0.5,2.3-0.3,4.8-2,6
		c-1.8,1.5-4.3,1.5-6.3,0.5c-0.5-0.3-0.8-0.5-1.3-0.8c-1.8-0.5-3.3,1-4.8,2c-1.8,1.3-4,1.8-6,1c-2.5-0.8-4.3-3.5-5-6
		c-2.5-7.3-0.8-15.3,1.5-22.6c1-3.8,2.8-7.8,6.3-9"/>
	<path class="st12" d="M243.5,335.7c0,0.8,1.3,1.5,0.5,3.3c-1.8,3.8-7.5,9-14.3,6.5c-0.3,0-37.6,21.6-40.3,21.6
		c-2.8,0-22.5-18.6-28.8-41.4c-1.5-5.5-1-11.8,4.3-14.6c0,0,4.3,1,7,6.3c4.3,8,17,34.6,19.8,35.6c3.5-2.3,20.5-7.5,34.3-13.3
		c3-1.3,4.3-2.5,5.3-4.5s3.5-6.8,5.8-9c0.8-0.8,9-5.3,9-3.8c0,0.8-2.5,3-5.5,5c-1.5,1-2.3,3-2.8,3.8c-0.5,1,5.8-1,6.5,1.3
		C244.2,332.7,243.5,335.2,243.5,335.7z"/>
	<path class="st13" d="M163.1,310.3c4.8,1.3,8.8,4.3,11,8.5c0.5,1,1,2.3,1.5,3.5c2,5,4.8,9.5,6.8,14.8c-2.8,2.3-6,3.3-8.8,4.3
		c-2.5,1-5.5,1.3-8.3,1c-0.5,0-1,0-1.3-0.3c-0.5-0.3-1-0.8-1.5-1.3c-0.8-1-1.8-2-2.5-3c-0.8-0.8-1.3-1.8-1.8-2.8
		c-0.5-1.5,0-3,0.5-4.5"/>
	<g class="st0">
		<path class="st14" d="M168.1,324.1c-0.3-0.3-0.3-0.5-0.8-0.5c-0.5-0.3-1,0.3-1.3,0.5c-0.3,0.5-0.3,1-0.3,1.5c0,2,0.3,4,1,6
			l-0.8,10.8c2.5,0.3,5.3-0.3,7.5-1c1.3-0.5,2.5-0.8,3.8-1.5C176.1,333.9,172.1,328.9,168.1,324.1z"/>
	</g>
	<path class="st12" d="M151.6,299.8c0,0-0.3,6.8,1,7c2,0.8,4.3,1.3,4.3,1.3v13.8l-18.3-2.8l-12.8-7c0,0,13.3-4.3,13.3-5.8
		c0-1.3-0.8-8.8-0.8-8.8"/>
	<path class="st12" d="M123.3,499.8c-5,23.8-2.8,56.7-3.8,74.8c0.3,0,6.8,1,6.8,1s15.5-75.8,18.3-90.4c0.3-1,0.3-2,0.3-2.8
		c0.8-11-9.3-11.5-14.8-2.5c-1,1.5-1.8,3-2.5,4.8c-0.3,0.8-0.5,1.5-1,2.3c-1,2.3-1.8,5-2.5,7.5v0.3c-0.3,0.8-0.5,1.5-0.5,2.3v0.3
		C123.8,498.1,123.5,498.8,123.3,499.8z"/>
	<path class="st12" d="M152.8,414c-0.3,2-1.3,11.3-2.5,22.6c-1,9.3-2.3,19.8-3.3,28.1c-0.8,6.3-1.3,11.3-1.5,13.6
		c0,1.5-0.3,2.8-0.5,4c-2.3,11-10,11.5-14.5,9c-0.8-0.3-1.3-0.8-1.8-1.3c-1-1-1.8-2-2-3.3c-0.3-2.3-0.5-5.3-0.8-9
		c-0.5-7-1-16.3-1.5-25.1c-0.5-11-0.8-21.3-1-27.4c0-0.3,0-0.8,0-1c0-18.3,16.5-29.9,27-24.1c0.3,0,0.3,0,0.3,0.3
		c0.3,0,0.3,0.3,0.5,0.3c1.3,0.8,1.5,3.5,1.5,6.5C153.1,409.5,152.8,411.7,152.8,414z"/>
	<path class="st12" d="M127.3,482.5l-1.3-4.8c0,1,0.3,8.8-1.5,16.6v0.3c-0.3,0.8-0.3,1.5-0.5,2.3v0.3c-0.3,1.3-0.5,2-0.5,2.5
		c0,2.3,4.5-7.5,5.5-9.8c0.3-0.3,0.3-0.5,0.3-0.5l-1.3-5L127.3,482.5z"/>
	<path class="st12" d="M163.3,504.3c-0.5,25.1,7.3,54.5,9.3,72.8c0.3,0,6.3-0.8,6.3-0.8s1.3-76.8,1.3-91.9c0-1,0-2-0.3-3
		c-1.3-11-10.3-9-13.5,1.3c-0.5,1.8-1,3.5-1.5,5.5c-0.3,0.8-0.3,1.5-0.5,2.5c-0.5,2.5-0.8,5.3-1,8.3v0.3c0,0.8,0,1.8-0.3,2.5v0.3
		C163.3,502.6,163.3,503.3,163.3,504.3z"/>
	<path class="st12" d="M168.6,494c-0.8-0.3-1.3-0.5-1.8-0.8c-1.3-0.8-2-1.8-2.3-2.8c-0.8-2.3-1.5-5.3-2.3-8.8
		c-1.8-7-3.8-15.8-5.5-24.6c-2.3-10.8-4.3-21.1-5.5-27.1c0-0.3-1-4.5-1-5c-3.3-18.3,11-30.1,21.3-26.6c0.3,0,0.3,0,0.5,0.3
		c2,0.8,2.8,8.3,3,13c0.5,5,4,56.2,4.8,65.5c0.3,1.5,0.3,2.8,0.3,4.3C179.9,493,173.1,495.5,168.6,494z"/>
	<path class="st12" d="M164.1,486.3l-2-4.5c0.3,1,1.5,8.8,1.5,17.1v0.3c0,0.8,0,1.8-0.3,2.5v0.3c0,1.3,0,2.3,0,2.5
		c0.3,2.3,2.8-8.5,3.5-11c0-0.3,0-0.5,0-0.5l-2-4.8L164.1,486.3z"/>
	<path class="st15" d="M132.3,378.8c0,0-13.3,17.1-12,34.1c0.5,7,1.5,13.3,2.3,20.6c0,1,1.8,16.1,1.3,16.1c0,0,27.5,8.5,54.3-2.8
		c0-1.8,2.3-36.9-12.3-70.3C148.6,379.1,132.3,378.8,132.3,378.8z"/>
	<path class="st13" d="M174.4,339.4c0,4.8-2.8,7.8-6.5,12c-0.5,0.8-1.5,11.5-2,18.8c-0.3,3.8,1.5,6,0,6.5c-5.3,4.8-24.5,8.5-33.5,2
		c1-7.8-2.5-25.1-5-34.1c-0.3-1.3-0.8-2.5-1-3.3c-2.3-6.8-6.3-28.1-3.3-29.1c0.5-0.3,1.5-0.5,2.5-0.8c4.5-1.5,11.5-3.8,11.5-3.8
		s4,11.8,14.5,13.3c5.8-2.3,5.3-9.5,5-12.8c1.8,0.5,2.8,1,8.5,2.8c1.5,2.3,0.3,7.3,2.8,14.6C168.6,327.1,174.4,333.4,174.4,339.4z"
		/>
	<path class="st12" d="M164.9,272.4c0,0,1,12.8-1.3,19.6c-1.8,5-8.3,9.8-14,9.5c-15.3,0-18-20.8-18-21.8s22.8-9.8,22.8-9.8
		L164.9,272.4z"/>
	<path class="st11" d="M194.2,584.1c-5.5,1-11.3-0.5-13.8-0.3c-2,0.3-7,1.8-9,0s-1.5-7.8,0.5-8.5c0,0,0.5,0.3,1.5,0.3
		c1.3,0.3,3.8,0.3,6.5-0.5c4.3,1.8,4.3,2.5,9,3.5c2,0.5,4.5,1,6,1.8C197.2,581.4,197.2,583.6,194.2,584.1z"/>
	<path class="st11" d="M135.1,586.6c-5.5-1-9-4-11.3-4.3c-2-0.3-7-1.3-7.5-3.3c-0.5-1.5,1-7.8,3.5-7.8c0,0,0.5,0.3,1.3,0.8
		c1.3,0.8,3.3,1.5,6.3,1.8c3.3,3,3.3,3.8,7.3,6.3c1.8,1,3.8,2.5,5,3.8C141.3,585.1,138.1,587.1,135.1,586.6z"/>
	<path class="st12" d="M55.2,330.1l5-6L91,351.7c0,0,15-20.1,19-26.4c4.5-6.8,8.5-12.8,15.3-13.8c1.5,1-0.5,25.6-1.3,26.4
		c-9.3,7-27.3,29.4-33,30.6C84.3,369.8,55.2,330.1,55.2,330.1z"/>
	<path class="st13" d="M127.6,310.6c0,0-6.3,0-9,2.3c-2.8,2.3-15.5,22.8-15.5,22.8s-0.3,3.8,3.5,7c4,3.5,9.3,4,9.3,4s6.5-6.5,10-9.3
		c2.3-1.8,2.5,2.8,2.5,2.8l11.5-11.3L127.6,310.6z"/>
	<path class="st11" d="M123.8,310.8c-0.3-0.3-0.8-0.5-1-0.5c-1.8-1-3.5-2.3-4-4.3c-1-3-1.5-7.3,0-10c1-2,3-3.3,4.3-4.8
		c1.8-2.3,2.3-5.5,2.5-8.5c0.3-3,0-6,0.5-8.8c1-5,2.5-9.8,6.3-12.8c6-5,18.5-8.3,25-2.5c1.3,1,1.5,1.8,3,2c2.3,0.3,3.5,0.5,5.5,1.8
		c2.3,1.3,4.8,3,4.5,6c-0.3,2-2.5,5.3-4.3,6c-0.8,0.5-1.5,0.5-2.3,0.5c-2.5,0-4.8-1.8-7.3-1.3c-1.3,0.3-2.5,0.8-3.3,1.8
		c-1,1.3-0.8,2.8-1.8,3.8c-1.8,1.8-4.5,1.5-6.5,2.8c-0.3,0.3-0.8,0.5-1,0.8c-0.3,0.3-0.3,0.8-0.3,1c0,1,0,2.3,0,3.3
		c-1-0.5-1-2-2-2.5c-0.8-0.8-2-0.5-3,0.3c-0.8,0.8-1.3,1.8-1.5,2.8c-0.3,1.3,0.3,2.5,0.5,3.8c0.8,2.3,2.5,4.3,4,2.8
		c1,1.5,0,4.3-0.3,6.3c0,1.5,0,4.3,1.3,5.3s3.3,0.3,3.3,2.5c0,2-2,3.8-4,4c-2,0.3-4-0.5-6-1s-4.3-1-6-0.3c-1.3,0.5-2.3,1.3-3.5,1.5
		C126.1,311.6,124.8,311.3,123.8,310.8z"/>
	<path class="st12" d="M68,331.1c0,0-7.3-5.8-7.8-7.3s-0.5-3.3-1.3-4.8c-0.8-2.3-2.8-4-5-5c-1.8-0.8-1-1.3-2.8-1
		c-3,0.5-4.3,3.5-5.5,5.8c-5,9.5,8.8,11.3,9.3,11.5c1,0,6,5.8,6,5.8"/>
	<path class="st16" d="M45.2,326.6l5,3.3c0.8,0.5,1.5,0.3,2-0.5L63,311.1l-6.5-3.5l-11.8,17.1C44.4,325.4,44.4,326.1,45.2,326.6z"/>
	<path class="st17" d="M27.4,287.7l1.8,1.3l7-10l-1.8-1.3c-2.5-1.8-6-0.8-7.8,2C24.7,282.5,24.9,286.2,27.4,287.7z"/>
	<path class="st17" d="M21.2,300l31.5,4.8l7.3-10.5l-15.8-27.6L21.2,300z"/>
	<path class="st18" d="M23.2,300.5l29.5,4.3l3-4l-25-11.3L23.2,300.5z"/>
	<path class="st17" d="M65.7,312.6c1.8,1.3,4.3,0.5,5.5-1.5l1.3-1.8c1.3-2,1-4.5-0.8-5.5c-1.8-1.3-4.3-0.5-5.5,1.5l-1.3,1.8
		C64,308.8,64.2,311.3,65.7,312.6z"/>
	<path class="st18" d="M66.5,305.1l-1.3,1.8c-1.3,2-1,4.5,0.8,5.5c1.8,1.3,4.3,0.5,5.5-1.5l1.3-1.8c0-0.3,0.3-0.3,0.3-0.5
		c-1.3,1.5-3.5,2-5.3,1s-2-3.3-1-5.3C66.7,304.8,66.5,305.1,66.5,305.1z"/>
	<path class="st19" d="M20.2,301c1,0.8,2.5,0.3,3.3-0.8l21.8-31.6c0.8-1.3,0.5-2.5-0.5-3.3s-2.5-0.3-3.3,0.8l-21.8,31.6
		C18.9,299,19.2,300.5,20.2,301z"/>
	<path class="st16" d="M45.2,265.9l-18,26.4c-0.8,1.3-2.3,1.5-3.3,0.8c-0.3-0.3-0.5-0.3-0.5-0.5l-3.8,5.3c-0.8,1.3-0.5,2.5,0.5,3.3
		s2.5,0.3,3.3-0.8l21.8-31.6C45.7,267.6,45.7,266.6,45.2,265.9z"/>
	<path class="st19" d="M55.7,310.6l2,1.5c3,2,7.5,1,9.8-2.5l2-3c2.3-3.5,1.8-8-1.3-10l-2-1.5c-3-2-7.5-1-9.8,2.5l-2,3
		C52,303.8,52.7,308.3,55.7,310.6z"/>
	<path class="st16" d="M54.5,300.3l-3,4.5c-0.8,1-0.5,2.5,0.3,3.3l9.5,6.5c1,0.8,2.3,0.3,3-0.8l3-4.5c-0.8,1-2.3,1.5-3,0.8l-9.5-6.5
		C54,302.8,53.7,301.3,54.5,300.3z"/>
	<path class="st12" d="M46.2,321.9c-0.5-2.8,0.3-5.5,1.8-7.5c0.5-0.8,1.3-1.3,1.8-2c0.3-0.3,0.5-0.5,1-0.8c0.8-0.3,1.5,0,2.3,0.5
		s1.5,1,2,2c0.5,1.3-0.3,2.3-1.5,3l-0.3,0.3c0,0.3,0,0.5,0.3,0.5c0.5,0.8,0.8,1.8,0.8,2.5c0,0.8-0.8,1.5-1.8,1.3c-0.3,0-0.8-0.3-1,0
		v0.3c0,0.8,0,1.5-0.5,2c0,0.3-0.3,0.3-0.5,0.3c-0.3,0-0.3,0-0.5,0c-0.5-0.3-1.3-0.5-1.8-0.8"/>
	<path class="st12" d="M60.2,324.1c-0.3-1-0.5-2.8-0.5-4c0-3-1.8-5.8-4.3-7.3c-0.3,0-0.5-0.3-0.8-0.3s-0.5,0.3-0.5,0.8
		c0,0.3,0,0.5,0.3,1c0.3,1,1.5,2.8,1.3,3.5c-0.5,1.5-1,3-1,4.5c0,1.3,0.8,3.5,2.3,3.8"/>
	<path class="st20" d="M23.4,251.3l6.5,15.1"/>
	<path class="st20" d="M10.2,264.6l13,9.8"/>
	<path class="st20" d="M1.6,283l16.3,1.5"/>
	<path class="st21" d="M799.5,227h-128l15.3-11.3v-55.5c0-4.5,3.8-8.3,8.3-8.3h104.1c4.5,0,8.3,3.8,8.3,8.3v58.5
		C807.7,223.2,804.2,227,799.5,227z"/>
	<path class="st22" d="M797,162.7h-58.6v5.5H797V162.7z"/>
	<path class="st22" d="M797,171h-58.6v5.5H797V171z"/>
	<path class="st22" d="M797,179.3h-58.6v5.5H797V179.3z"/>
	<path class="st22" d="M797,187.6h-58.6v5.5H797V187.6z"/>
	<path class="st22" d="M779.2,197.4h-40.8v5.5h40.8V197.4z"/>
	<path class="st23" d="M725.1,205.7h-19.8c-4.8,0-8.5-3.8-8.5-8.5V171c0-4.8,3.8-8.5,8.5-8.5h19.8c4.8,0,8.5,3.8,8.5,8.5v26.1
		C733.6,201.9,729.9,205.7,725.1,205.7z"/>
	<path class="st22" d="M733.6,211.2h-36.8v4.5h36.8V211.2z"/>
	<path class="st8" d="M718.9,190.6h-13.3c-0.8,0-1.5-0.5-1.5-1.3l-2.5-9.5c-0.3-1,0.5-2,1.5-2h18.5c1,0,2,1,1.5,2l-2.5,9.5
		C720.4,190.1,719.6,190.6,718.9,190.6z"/>
	<path class="st8" d="M721.4,192.6h-16c-0.3,0-0.3-0.3-0.3-0.3c0-0.3,0.3-0.3,0.3-0.3h15.8l5.5-19.6c0-0.3,0.3-0.3,0.3-0.3h3.5
		c0.3,0,0.3,0.3,0.3,0.3c0,0.3-0.3,0.3-0.3,0.3h-3.3l-5.5,19.6C721.6,192.6,721.4,192.6,721.4,192.6z"/>
	<path class="st8" d="M707.6,195.4c0,1-0.8,2-2,2c-1,0-2-0.8-2-2c0-1,0.8-2,2-2S707.6,194.4,707.6,195.4z"/>
	<path class="st8" d="M719.9,197.4c1.1,0,2-0.9,2-2s-0.9-2-2-2s-2,0.9-2,2S718.8,197.4,719.9,197.4z"/>
	<path class="st21" d="M324.3,149.7h163l-19.5-14.6V45.8C467.8,40,463,35,457,35H324.1c-5.8,0-10.8,4.8-10.8,10.8v93.1
		C313.6,144.9,318.3,149.7,324.3,149.7z"/>
	<path class="st22" d="M327.6,58.8h74.6v-7h-74.6V58.8z"/>
	<path class="st22" d="M327.6,69.4h74.6v-7h-74.6V69.4z"/>
	<path class="st22" d="M327.6,80.2h74.6v-7h-74.6V80.2z"/>
	<path class="st22" d="M327.6,90.4h74.6v-7h-74.6V90.4z"/>
	<path class="st22" d="M327.6,100.9h74.6v-7h-74.6V100.9z"/>
	<path class="st22" d="M327.6,119.9h74.6v-7h-74.6V119.9z"/>
	<path class="st22" d="M327.7,131.1h127.2v-7H327.7V131.1z"/>
	<path class="st23" d="M418.9,106.5h25.3c6,0,10.8-4.8,10.8-10.8V62.6c0-6-4.8-10.8-10.8-10.8h-25.3c-6,0-10.8,4.8-10.8,10.8v33.1
		C408.2,101.5,412.9,106.5,418.9,106.5z"/>
	<path class="st22" d="M408,119.2h46.8v-5.8H408V119.2z"/>
	<path class="st8" d="M427,87.2h17c1,0,1.8-0.8,2-1.5l3.3-12c0.3-1.3-0.8-2.8-2-2.8h-23.5c-1.5,0-2.5,1.3-2,2.8l3.3,12
		C425.2,86.4,425.9,87.2,427,87.2z"/>
	<path class="st8" d="M423.9,90h20.5c0.3,0,0.5-0.3,0.5-0.5s-0.3-0.5-0.5-0.5h-20l-7-24.8c0-0.3-0.3-0.3-0.5-0.3h-4.5
		c-0.3,0-0.5,0.3-0.5,0.5s0.3,0.5,0.5,0.5h4.3l7,24.9C423.4,89.7,423.7,90,423.9,90z"/>
	<path class="st8" d="M441.2,93.2c0,1.3,1,2.5,2.5,2.5c1.3,0,2.5-1,2.5-2.5s-1-2.5-2.5-2.5S441.2,92,441.2,93.2z"/>
	<path class="st8" d="M423.2,93.2c0,1.3,1,2.5,2.5,2.5c1.3,0,2.5-1,2.5-2.5s-1-2.5-2.5-2.5C424.4,90.7,423.2,92,423.2,93.2z"/>
	<path class="st24" d="M701.3,620c39.7,0,71.8-3.4,71.8-7.5c0-4.2-32.2-7.5-71.8-7.5c-39.7,0-71.8,3.4-71.8,7.5
		C629.5,616.7,661.7,620,701.3,620z"/>
	<path class="st25" d="M662.8,601.7c-0.5,1.3-3.5,4-7.5,5.8s-12.5,2.5-7.8,4.3c4.8,1.5,10.3,0.5,13,0.3c2.8-0.5,5.5-0.5,8.8-0.5
		c4.3,0,4.3-0.3,3.8-5.3C672,599.4,664.5,597.9,662.8,601.7z"/>
	<path class="st25" d="M741.1,599.4c-0.3,1.3,1.8,5.5-1.8,8.5c-3.5,3-11.3,6.3-6,6.3s10.3-1,12.8-2.5c2.8-1.3,0.5-3.3,3.8-4.3
		c4.3-1.3,3.5-4.5,1.3-6.5C748.2,594.4,741.9,594.9,741.1,599.4z"/>
	<path class="st26" d="M724.6,462.2c0,0,10.3-30.4-19-55.5c0,0-15.8,6.3-28.3,7c-10,0.5-15-0.3-15-0.3s-0.8,27.1-0.8,41.7
		L724.6,462.2z"/>
	<path class="st26" d="M659.3,512.9c-0.5-13.6,14-11.8,19.5-1.8c11.3,21.1-4.3,69.3-6.3,92.4c-2,0.8-5.8,1.5-7.8,0.5
		c-1.5-0.8-2.3-2.5-2.3-2.5C663,573.3,659.8,527.4,659.3,512.9z"/>
	<path class="st26" d="M678.3,514.9c-1.8,5.5-20.5,11.3-19-8.8c0.8-9,2.5-58.5,2.8-63.2c0.3-4.8,1.3-11.8,3.5-12.5
		c11.5-4.3,31.8,10.8,28.8,28.6C692.3,470.7,681.8,503.3,678.3,514.9z"/>
	<path class="st26" d="M707.8,522.6c-4.5-12.8,10.3-15.1,18.5-7.3c19.5,18.6,20.3,62,25,84.6c-2.8,1.8-7,2.5-8.5,2.5
		s-2.3-1.3-2.3-1.3C732.6,574.3,712.6,536.2,707.8,522.6z"/>
	<path class="st26" d="M727.1,518.4c0.5,5.8-15,17.8-21.3-1.5c-2.8-8.5-14.5-59.2-15.8-63.7c-1.5-4.5-1-14.1,0.8-15.6
		c9-8.3,29.3-1,33.3,16.8C726.6,466.2,726.1,506.3,727.1,518.4z"/>
	<path class="st27" d="M646.8,297c0.5-0.5,1-1,1.5-1.8c3.8-4.8,4.3-9,7.8-14.6c0.5-0.8,1.3-3,2.5-4.8c1.3-2,4.8-4,5.5-4.5
		c1.5-0.8,0.3,2.8,0.3,2.8s1.3-2,2.8-1.8c0.5,0,0.5,3,0.5,3.5c0,4.3-1,8.3-2.8,12c-0.5,0.8-1,1.8-1,2.8c1.3,0,2.3-0.8,3.3-1.5
		c1-0.8,2.3-1.5,3.5-1c-0.3,0.5-0.5,1-0.8,1.5c-1.5,2.8-3,5.8-6,7c-1.8,0.8-3.5,1-5.3,1.8c-3,1.5-4.5,5.3-7.5,6.8"/>
	<path class="st28" d="M664.3,298l-8.8-3.8c-0.8-0.3-1.3-1.3-0.8-2l7.8-18.8c0.3-0.8,1.3-1.3,2-0.8l8.8,3.8c0.8,0.3,1.3,1.3,0.8,2
		l-7.8,18.8C666,298,665,298.3,664.3,298z"/>
	<path class="st29" d="M673.7,277.9l-9.9-4.2l-8.1,19.4l9.9,4.2L673.7,277.9z"/>
	<path class="st30" d="M673.8,316.1c0,0-7.5,0.5-14.3,2.5c-10.3,3-13.8,7.8-17.3,9.8c6.8-8.8,14.5-27.1,14.5-27.1s-9.3-7.5-10.3-5.8
		c-1,1.8-39.6,46.9-38.6,54.5c0.5,3,5,6,9,5.8c11-0.3,23.5-4.3,37.1-8.8c5.8-2,7.8,2.3,7.8,2.3"/>
	<path class="st31" d="M642.3,328.4c0,0-4.8,9.8-6.3,10.5c-1.5,0.8,3.5-2,6.3-4.8s6.5-10.3,6.5-10.3
		C647.3,324.4,642.3,328.4,642.3,328.4z"/>
	<path class="st27" d="M657.5,280.7c0.5,0.3,0.5,1,0.8,1.5c0.3,2.3,0.8,4.5-0.3,6.5c-0.5,1.3-1.5,2.5-2.5,3.3c-1.3,1-2.5,2-4,2.8"/>
	<path class="st32" d="M674.1,264.4c-2.5,0.8-4,4-4.8,6.3c-1,2.8-1.5,5.8-2,8.5c-0.3,2-0.5,4.3,0.5,6c0.5,1,1,1.8,1.8,2.5
		c0.3,0.5,0.8,1,1.3,1.3s1,0.5,1.8,0.3c0.8-0.3,1-1.3,1.3-2c1.5-5.5,3-10.8,6.3-15.6"/>
	<path class="st27" d="M671,281.7c0-1.8-1.8-2.8-3.5-1c-1.3,1.5-1.8,4.3-1.8,6.3c0,2.5,1.8,3,3.5,3.3"/>
	<path class="st30" d="M653.8,325.1c3.3-3.8,13.3-9.8,26.8-9.3c9.3,0.3,34.5,1.8,37.6,8c1.5,3.3,3,35.9,1,47.2
		c-1.5,8.5-5.8,29.4-5.8,34.4s2.8,7.3,1.5,8.8c-2.8,3.3-22.3,4.8-31.3,4.8c-8,0-21.8-2.3-22.5-4.8c-1-3.8,1.5-3.8,2-7.8
		c0.3-4,1.3-30.4,0-34.6c-2.8-7.8-4-20.3-6-26.1C655,341.2,650.8,328.6,653.8,325.1z"/>
	<path class="st31" d="M711.8,351.5c1,2,7.5,12.5,7.5,12.5l0.3,1.3c-0.3,2.3-0.5,4-0.8,5.5c-1.5,8.5-5.8,29.4-5.8,34.4
		s2.5,7,1.5,8.8c-2.3,3-38.8,9.8-37.1,1.5c0.3-0.8,30.5-24.1,30.8-24.8c1.5-6.8,2.8-11.5,3.3-16.3
		C713.3,362.5,710.8,349.5,711.8,351.5z"/>
	<path class="st33" d="M673.3,304c0,0,0,10.5-0.5,11s-2.5,1.5-2.5,1.5s1.5,9.3,3.8,8.5s17.5-8.3,17.5-8.3s-2.3-1-2.3-1.8
		s2-17.6,2-17.6"/>
	<path class="st33" d="M683.8,265.6c-2.3,0.5-8-0.5-9.8,1.8c-1.5,2.5-3,8.3-3.8,9.8c-1.3,3.3-2,6.8-2.8,10c-1.3,4.3-3,12.3,1.3,15.8
		c1.3,1,1.8,1.5,3.3,1.8c2,0.3,4,0.8,6,1.3c3,0.5,6.5,1.3,9.5,0.3c4-1.3,6.3-7,7.5-10.8l6-22.1L683.8,265.6z"/>
	<path class="st34" d="M673.1,329.4c0,0-1,41.4-2.5,66.5l6,8.3l4.3-10.5c0,0,1.8-30.4-4-64.3L673.1,329.4L673.1,329.4z"/>
	<path class="st34" d="M671.5,325.6l0.3,0.5c0.3,1,0.8,2,1.3,3l3.8,0.3c0,0,2.5-1.3,2.8-2.8s-4.3-3.8-4.3-3.8l-0.5,0.3
		C673.5,323.9,672.5,324.6,671.5,325.6z"/>
	<path class="st23" d="M689.8,312.3c0,0,2.5,1.5,4.3,4.3c-2,4.5-6.3,12.3-11,15.8c-2.3-6-7.5-9.5-7.5-9.5S688.3,320.6,689.8,312.3z"
		/>
	<path class="st23" d="M675.3,323.1c0,0-4.8,1.8-7.5,7c0,0-1-7,1-13c0,0,3-4,4-4C672.5,318.1,675.3,323.1,675.3,323.1z"/>
	<path class="st27" d="M676,415.5c-4.5,0.8-6.3,2.5-9,5c-0.3,0.3-0.5,0.5-0.5,0.8s0.5,0.5,0.8,0.5c2.3,0.3,2.5-1,4.5-1.8
		c1.3-0.5,2.8-1.3,4-1.8"/>
	<path class="st24" d="M660.3,381.8l16.3,52.7c0.5,1.5-0.3,2.5-1.8,2.8l-34,3c-1.3,0-2.5-1-2.8-2.3l-17.5-51.7
		c-0.5-1.5,1.5-3.5,3-3.5l34-3C658.5,379.6,659.8,380.6,660.3,381.8z"/>
	<path class="st35" d="M659,383.1l16,51.7c0.5,1.5-0.3,2.5-1.8,2.8l-34,3c-1.3,0-2.5-1-2.8-2.3l-16-51.7c-0.5-1.5,0.3-2.5,1.8-2.8
		l34-3C657.5,380.8,658.8,381.8,659,383.1z"/>
	<path class="st23" d="M631.7,381.6l1.3,4.5l16-1.5l-1.3-4.5L631.7,381.6z"/>
	<path class="st23" d="M635,377.3c0.3,1,1.5,5,1.5,5l7.5-0.8l-1.5-5c-0.8-2.3-3-3.8-5-3.8C635.2,373.1,634.2,375.1,635,377.3z
		 M636.5,377.1c-0.5-1.3,0.3-2.3,1.5-2.5c1.3,0,2.5,0.8,2.8,2c0.5,1.3-0.3,2.3-1.5,2.5C638.3,379.3,637,378.3,636.5,377.1z"/>
	<path class="st33" d="M689.1,412c-3.5,0.8-13,3.5-14,4c-1.3,0.5-5.3,3.5-6,4.5c-3.5,3.5-1.8,5.3-3.3,10.3c0,0.3,0,0.5,0,0.8
		c0,0.5,0.8,1,1.5,0.5c0.3,0.8,1.5,0.3,2-0.5c0,0.5,0.8,0.8,1.8,0.3c0.5-0.3,0.5-0.3,1.8-1.5c1-0.8,2-1.5,4-2.3
		c1.3-0.5,2.8-1,3.8-1.8c1.5-1,4-1.3,5.3-5.3c0.3-1,1.3-1.5,2-2c2-1.3,4-2.5,5.8-3.8"/>
	<path class="st30" d="M710.9,344.5c1.5,5.5,7.8,43.2,7.8,43.2l-35.5,25.9l3,7.8c0,0,42.6-14.3,46.1-24.1c3.3-9.8,3.3-54-8.5-69.5
		c-3.8-5-11.3-7.5-11.3-7.5"/>
	<path class="st27" d="M674.6,425.5c0,0-0.3,0.3-1,0.8c-0.5,0.5-1.3,1-1.8,1.8s-1.3,1.5-1.8,2s-1,0.8-1,0.8s0.8-1.8,2.3-3.3
		c0.5-0.8,1.5-1.3,2-1.8C674.1,425.5,674.6,425.5,674.6,425.5z"/>
	<path class="st27" d="M672.5,423c0,0-0.5,0.5-1,1.3c-0.3,0.3-0.5,0.8-1,1.3c-0.3,0.3-0.3,0.5-0.5,0.8s-0.3,0.5-0.5,0.8
		c-1,2.3-2.5,4.3-2.5,4.3s0.3-0.5,0.5-1.5c0.3-0.8,1-2,1.5-3c0.5-1.3,1.5-2,2-2.8C672,423.3,672.5,423,672.5,423z"/>
	<path class="st27" d="M670.3,421.2c0,0-0.3,0.5-0.8,1.3c-0.3,0.3-0.5,0.8-1,1.3c-0.3,0.5-0.5,1-0.8,1.5c-0.5,1-0.8,2.3-1.3,3
		c-0.3,0.8-0.5,1.5-0.5,1.5s0-0.5,0.3-1.5s0.5-2,1-3c0.3-0.5,0.5-1,0.8-1.5s0.8-0.8,1-1C669.8,421.5,670.3,421.2,670.3,421.2z"/>
	<path class="st34" d="M697.3,291.5c-1.5-0.8-2.5-1.8-3.3-0.3c-0.5,0.8-0.8,1.8-1.5,2c-0.8,0.3-1.8-0.5-1.8-1.3
		c-0.3-0.8,0-1.8,0.3-2.5c0.5-1.8,1-3.5,1.8-5.5c0.5-1.8,1-3.8,0.5-5.5c-0.3-0.8-1-1.5-1.8-2.3c-2.3-2-5.3-3-8.3-3.5s-6-1-9-1.8
		c-1.3-0.5-2.5-1-3.5-1.8c-1.5-1.3-2.5-3.5-2.5-5.5s0.8-4,1.8-5.8c0.3,0.8,0.5,1.5,1,2c0.3-1,1-1.8,1.8-2.5c0.8,4.8,21.3,3.3,26,5.3
		c3.3,1.5,6,2.5,6,7.8c0,0.3,0.5,0.5,0.8,0.8c3,2.8,4.3,6,4.5,10.8c0.5,6-3,12.3-6.5,17.3c-0.8,1.3-1.3,2-2.5,3s-3.3,1.3-4.8,1
		s-4.3-0.3-4.5-1.8c0-1,2.3-3,3-3.8"/>
	<path class="st33" d="M692.1,297c0,0-0.3,1,0.5,1.8c0.5,0.8,1.8,0.5,2.5,0.3c2.3-0.8,3.8-2.8,4-5c0.5-2.5-1-5.3-3.3-4.5
		c-1.3,0.5-2.3,2-2.3,3.5"/>
	<path class="st27" d="M673.3,305.1l6.5,1.3c0,0-2.3,2.5-6.5,2.5"/>
</g>
</svg>
