<?xml version="1.0" encoding="utf-8"?>
<!-- Generator: Adobe Illustrator 24.0.0, SVG Export Plug-In . SVG Version: 6.00 Build 0)  -->
<svg version="1.1" id="Layer_2" xmlns="http://www.w3.org/2000/svg" xmlns:xlink="http://www.w3.org/1999/xlink" x="0px" y="0px"
	 viewBox="0 0 821 588" style="enable-background:new 0 0 821 588;" xml:space="preserve">
<style type="text/css">
	.st0{opacity:0.3;}
	.st1{opacity:0.3;fill:#ADADAD;enable-background:new    ;}
	.st2{opacity:0.3;fill:#5F5F5F;enable-background:new    ;}
	.st3{opacity:0.3;enable-background:new    ;}
	.st4{fill:#FFFFFF;}
	.st5{fill:#FEFEFE;}
</style>
<g class="st0">
	<g class="st0">
		<path class="st1" d="M168.3,160.2l8.8,4.5l-4.3-10.8"/>
	</g>
	<path class="st1" d="M141.3,146.4c0,9.8,8.3,17.6,18.5,17.6c10.3,0,18.5-7.8,18.5-17.6c0-9.8-8.3-17.6-18.5-17.6
		C149.5,128.8,141.3,136.6,141.3,146.4z"/>
</g>
<path class="st2" d="M155.1,140.6v12.5c0,1,1,1.8,2,1.3l10.8-6.3c0.8-0.5,0.8-1.8,0-2.3l-10.8-6.3
	C156.3,139.1,155.1,139.6,155.1,140.6z"/>
<g class="st0">
	<g class="st0">
		<path d="M801.9,279.7c0,9.8-8.3,17.6-18.5,17.6c-10.3,0-18.5-7.8-18.5-17.6c0-9.8,8.3-17.6,18.5-17.6
			C793.7,262.1,801.9,269.9,801.9,279.7z"/>
	</g>
</g>
<g class="st0">
	<path class="st3" d="M556.8,48.5c2.8-3.5,4.3-7.8,4.3-12.3c0-11-8.8-19.8-19.8-19.8c-11,0-19.8,8.8-19.8,19.8
		c0,11,8.8,19.8,19.8,19.8c4,0,7.8-1.3,11-3.3l7.8,4L556.8,48.5z"/>
</g>
<path class="st4" d="M533.1,30.7c2-1.8,5-1.8,6.8,0l1.3,1.3l1.3-1.3c2-2,5-1.8,6.8,0c1.8,2,1.8,5,0,6.8l-4.8,4.8
	c-0.8,0.8-1.8,1.3-2.8,1.3c-1.5,0.3-3-0.3-4.3-1.5l-4.5-4.8C531.1,35.5,531.1,32.4,533.1,30.7z"/>
<path class="st5" d="M780.2,288.2c4,0,8,0,11.8-0.3c1.3,0,2.3-1.8,0.8-2.5c0.5-0.3,1.3-0.5,1.5-1.3c0.3-0.5,0-1.5-0.8-1.5
	c1.5,0.3,2-1.8,0.8-2.5c0.5-0.5,1-1,1.3-1.8c0-0.8-0.3-1.5-0.8-1.8c-0.5-0.3-1-0.3-1.5-0.3c-1.8,0-3.3,0-5,0
	c0.5-2.5,0.5-5.3-0.8-7.3c-0.5-0.8-1.5-1.5-2.3-1c-0.8,0.5-0.5,1.8-0.5,2.5c0.3,3-1.8,6.3-4.5,7.8
	C779.9,278.1,780.2,284.7,780.2,288.2z"/>
<path class="st5" d="M778.4,278.2h-6v10h6V278.2z"/>
</svg>
