<?xml version="1.0" encoding="utf-8"?>
<!-- Generator: Adobe Illustrator 24.0.0, SVG Export Plug-In . SVG Version: 6.00 Build 0)  -->
<svg version="1.1" id="Layer_4" xmlns="http://www.w3.org/2000/svg" xmlns:xlink="http://www.w3.org/1999/xlink" x="0px" y="0px"
	 viewBox="0 0 821 621" style="enable-background:new 0 0 821 621;" xml:space="preserve">
<style type="text/css">
	.st0{fill:#D2D2D2;}
	.st1{fill:#DBDBDB;}
	.st2{fill:#EAEAEA;}
	.st3{fill:#C9C9C9;}
	.st4{fill:#919191;}
	.st5{fill:#A9A9A9;}
	.st6{fill:none;stroke:#A9A9A9;stroke-width:6.1813;stroke-miterlimit:10;}
	.st7{fill:#4E4E4E;}
	.st8{fill:#5F5F5F;}
	.st9{fill:#CACACA;}
	.st10{opacity:0.5;fill:#FFFFFF;enable-background:new    ;}
	.st11{opacity:0.25;}
	.st12{opacity:0.25;fill:#FCA70C;enable-background:new    ;}
	.st13{opacity:0.25;fill:#B1AFFD;enable-background:new    ;}
	.st14{opacity:0.15;}
	.st15{opacity:0.26;enable-background:new    ;}
	.st16{opacity:0.62;}
	.st17{opacity:0.25;fill:#D5DBDA;enable-background:new    ;}
	.st18{opacity:0.25;fill:#EFEFEF;enable-background:new    ;}
	.st19{fill:#AFAFAF;}
	.st20{opacity:0.25;fill:#CFCFFF;enable-background:new    ;}
	.st21{opacity:0.55;fill:#F9F9F9;enable-background:new    ;}
	.st22{fill:#FFFFFF;}
	.st23{fill:#D02E1B;}
	.st24{opacity:0.26;fill:#D02E1B;enable-background:new    ;}
	.st25{opacity:0.26;fill:#AFAFAF;enable-background:new    ;}
	.st26{fill:#D5DBDA;}
	.st27{fill:#EFEFEF;}
	.st28{fill:#ADADAD;}
	.st29{fill:#D4D4D4;}
	.st30{opacity:0.35;fill:#A4A4A4;enable-background:new    ;}
	.st31{fill:#CDCDCD;}
	.st32{fill:#B1B1B1;}
	.st33{fill:#363636;}
	.st34{fill:#404040;}
	.st35{fill:#A0A0A0;}
	.st36{fill:#808080;}
	.st37{fill:#7B7B7B;}
	.st38{opacity:0.45;fill:none;stroke:#959595;stroke-width:4.1209;stroke-miterlimit:10;enable-background:new    ;}
	.st39{fill:#494949;}
</style>
<g>
	<path class="st0" d="M50.3,527.1c0,10,126.7,18.1,282.9,18.1s282.9-8,282.9-18.1c0-10-126.7-18.1-282.9-18.1S50.3,517,50.3,527.1z"
		/>
	<path class="st1" d="M78.6,402.6l-4.8,65h61.8l-4.3-65H78.6z"/>
	<path class="st2" d="M90.8,408.4c0-1,1-1.8,2-1.8c1.3,0,2,0.8,2,1.8s-1,1.8-2,1.8C91.6,410.1,90.8,409.4,90.8,408.4z M92.8,407.4
		c-0.8,0-1.5,0.5-1.5,1s0.8,1,1.5,1c0.8,0,1.5-0.5,1.5-1S93.6,407.4,92.8,407.4z"/>
	<path class="st2" d="M111.9,408.4h0.3H111.9c0-0.5,0.3-0.8,0.5-1.3c0.5-0.5,1-0.8,1.5-0.8c1.3,0,2,0.8,2,1.8c0,0.5-0.3,1-0.8,1.3
		s-1,0.5-1.5,0.5C112.9,410.1,111.9,409.4,111.9,408.4z M113.9,407.1c-0.5,0-0.8,0.3-1.3,0.5c-0.3,0.3-0.3,0.3-0.3,0.8s0.8,1,1.5,1
		c0.5,0,0.8-0.3,1-0.3c0.3-0.3,0.5-0.5,0.5-0.8C115.4,407.6,114.6,407.1,113.9,407.1z"/>
	<path class="st2" d="M102.8,421.4c0.3,0,0.5,0,0.5,0c3.8-0.3,6.8-1.3,8.8-3.8c3.3-3.8,2.5-9.3,2.5-9.5s-0.5-0.8-0.8-0.5
		c-0.3,0-0.8,0.5-0.5,0.8c0,0,0.8,5-2.3,8.5c-1.8,2-4.3,3-7.8,3.3c-3.3,0-5.8-0.8-7.5-2.5c-3-3.3-2.3-8.8-2.3-9s-0.3-0.8-0.5-0.8
		c-0.3,0-0.8,0.3-0.8,0.5s-0.8,6.3,2.5,10C96.6,420.4,99.3,421.4,102.8,421.4z"/>
	<path class="st3" d="M107.6,420.9l-7.5,48.2h67.1l-6.8-48.4L107.6,420.9z"/>
	<path class="st4" d="M82.8,502.5c-7.5,0-13.5,6-13.5,13.6s6,13.6,13.5,13.6s13.5-6,13.5-13.6S90.4,502.5,82.8,502.5z M82.8,522.3
		c-3.5,0-6.3-2.8-6.3-6.3s2.8-6.3,6.3-6.3s6.3,2.8,6.3,6.3S86.4,522.3,82.8,522.3z"/>
	<path class="st5" d="M80.6,502.5c-7.5,0-13.5,6-13.5,13.6s6,13.6,13.5,13.6s13.5-6,13.5-13.6S88.1,502.5,80.6,502.5z M80.6,522.3
		c-3.5,0-6.3-2.8-6.3-6.3s2.8-6.3,6.3-6.3s6.3,2.8,6.3,6.3C86.9,519.5,84.1,522.3,80.6,522.3z"/>
	<path class="st4" d="M159.7,502.5c-7.5,0-13.5,6-13.5,13.6s6,13.6,13.5,13.6s13.5-6,13.5-13.6S167.2,502.5,159.7,502.5z
		 M159.7,522.3c-3.5,0-6.3-2.8-6.3-6.3s2.8-6.3,6.3-6.3s6.3,2.8,6.3,6.3S163.2,522.3,159.7,522.3z"/>
	<path class="st5" d="M157.4,502.5c-7.5,0-13.5,6-13.5,13.6s6,13.6,13.5,13.6s13.5-6,13.5-13.6S165,502.5,157.4,502.5z M157.4,522.3
		c-3.5,0-6.3-2.8-6.3-6.3s2.8-6.3,6.3-6.3s6.3,2.8,6.3,6.3S160.9,522.3,157.4,522.3z"/>
	<path class="st6" d="M262.4,349.1h-40.8c-4.3,0-8.3,2.3-10.5,5.8l-24.8,39.9"/>
	<path class="st6" d="M76.3,468.1h91.4c4.8,0,9-3.5,9.8-8.3l9.5-59.2c1-6-3.8-11.5-9.8-11.5H66.8c-6,0-10.8,5.5-9.8,11.5l9.5,59.2
		C67.3,464.6,71.3,468.1,76.3,468.1z"/>
	<path class="st6" d="M121.9,389v79.1"/>
	<path class="st6" d="M182.5,428.4H61.6"/>
	<path class="st6" d="M158.2,389l-8,79.1"/>
	<path class="st6" d="M87.6,389l7.3,79.1"/>
	<path class="st6" d="M175.2,464.6l14.8,22.1c4,6-0.3,14.1-7.5,14.1H61.3"/>
	<path class="st7" d="M493.7,474.9H368.2v33.9h125.4v-33.9H493.7z"/>
	<path class="st8" d="M625.3,485.9H237.8c-13,0-23.5-10.5-23.5-23.6V196c0-13.1,10.5-23.6,23.5-23.6h387.8c13,0,23.5,10.5,23.5,23.6
		v266.3C648.9,475.4,638.3,485.9,625.3,485.9z"/>
	<path class="st9" d="M621.1,455.8H240.8c-8,0-14.5-6.5-14.5-14.6V198.3c0-8,6.5-14.6,14.5-14.6h380.3c8,0,14.5,6.5,14.5,14.6v243.2
		C635.6,449.5,629.1,455.8,621.1,455.8z"/>
	<path class="st8" d="M547.5,527.1H314.4v-2.8c0-10,8.3-18.3,18.3-18.3h196.5c10,0,18.3,8.3,18.3,18.3V527.1L547.5,527.1z"/>
	<path class="st10" d="M597.8,395.5H336.7c-7,0-12.5-5.5-12.5-12.5V215.3c0-7,5.5-12.5,12.5-12.5h261.1c7,0,12.5,5.5,12.5,12.5V383
		C610.3,390,604.8,395.5,597.8,395.5z"/>
	<g class="st11">
		<g class="st11">
			<g class="st11">
				<g class="st11">
					<g class="st11">
						<path class="st12" d="M363.7,343.6h-12.5V375h12.5V343.6z"/>
					</g>
				</g>
			</g>
			<g class="st11">
				<g class="st11">
					<g class="st11">
						<path class="st13" d="M392,316h-12.5v59H392V316z"/>
					</g>
				</g>
			</g>
			<g class="st11">
				<g class="st11">
					<g class="st11">
						<path class="st12" d="M420.1,322h-12.5v53h12.5V322z"/>
					</g>
				</g>
			</g>
			<g class="st11">
				<g class="st11">
					<g class="st11">
						<path class="st13" d="M448.1,292.4h-12.5V375h12.5V292.4z"/>
					</g>
				</g>
			</g>
			<g class="st14">
				<g class="st14">
					<g class="st14">
						<path class="st15" d="M385.3,316h-5.8v59h5.8V316z"/>
					</g>
				</g>
			</g>
			<g class="st14">
				<g class="st14">
					<g class="st14">
						<path class="st15" d="M357,343.6h-5.8V375h5.8V343.6z"/>
					</g>
				</g>
			</g>
			<g class="st16">
				<g class="st16">
					<g class="st16">
						<path class="st15" d="M441.3,292.4h-5.8V375h5.8V292.4z"/>
					</g>
				</g>
			</g>
			<g class="st14">
				<g class="st14">
					<g class="st14">
						<path class="st15" d="M413.3,322h-5.8v53h5.8V322z"/>
					</g>
				</g>
			</g>
			<g class="st11">
				<g class="st11">
					<g class="st11">
						<path class="st17" d="M454.6,383.5H343v-119h1.8V382h109.9L454.6,383.5L454.6,383.5z"/>
					</g>
				</g>
			</g>
			<g class="st11">
				<g class="st11">
					<g class="st11">
						<path class="st17" d="M354.5,328.8l-1-1.3l29-26.1l27,5.8l29.3-32.6l1.3,1l-29.8,33.6l-27.3-6L354.5,328.8z"/>
					</g>
				</g>
			</g>
			<g class="st11">
				<g class="st11">
					<g class="st11">
						<path class="st17" d="M442.3,280.6l-8.3-8l10.8-2.8L442.3,280.6z"/>
					</g>
				</g>
			</g>
			<g class="st11">
				<g class="st11">
					<g class="st11">
						<g class="st11">
							<path class="st13" d="M473.6,341.3h-8.5v8.5h8.5V341.3z"/>
						</g>
					</g>
				</g>
				<g class="st11">
					<g class="st11">
						<g class="st11">
							<path class="st12" d="M473.6,356.4h-8.5v8.5h8.5V356.4z"/>
						</g>
					</g>
				</g>
				<g class="st11">
					<g class="st11">
						<g class="st11">
							<path class="st18" d="M503.2,360.2h-27v4.8h27V360.2z"/>
						</g>
					</g>
				</g>
				<g class="st11">
					<g class="st11">
						<g class="st11">
							<path class="st18" d="M503.2,345.1h-27v4.8h27V345.1z"/>
						</g>
					</g>
				</g>
			</g>
			<g class="st11">
				<g class="st11">
					<g class="st11">
						<g class="st11">
							<path class="st13" d="M524.2,341.3h-8.5v8.5h8.5V341.3z"/>
						</g>
					</g>
				</g>
				<g class="st11">
					<g class="st11">
						<g class="st11">
							<path class="st12" d="M524.2,356.4h-8.5v8.5h8.5V356.4z"/>
						</g>
					</g>
				</g>
				<g class="st11">
					<g class="st11">
						<g class="st11">
							<path class="st18" d="M553.5,360.2h-27v4.8h27V360.2z"/>
						</g>
					</g>
				</g>
				<g class="st11">
					<g class="st11">
						<g class="st11">
							<path class="st18" d="M553.5,345.1h-27v4.8h27V345.1z"/>
						</g>
					</g>
				</g>
			</g>
			<g class="st11">
				<g class="st11">
					<g class="st11">
						<g class="st11">
							<path class="st13" d="M569.5,341.3H561v8.5h8.5V341.3z"/>
						</g>
					</g>
				</g>
				<g class="st11">
					<g class="st11">
						<g class="st11">
							<path class="st12" d="M569.5,356.4H561v8.5h8.5V356.4z"/>
						</g>
					</g>
				</g>
				<g class="st11">
					<g class="st11">
						<g class="st11">
							<path class="st18" d="M589.5,360.2h-17.8v4.8h17.8V360.2z"/>
						</g>
					</g>
				</g>
				<g class="st11">
					<g class="st11">
						<g class="st11">
							<path class="st18" d="M589.5,345.1h-17.8v4.8h17.8V345.1z"/>
						</g>
					</g>
				</g>
			</g>
			<g class="st11">
				<g class="st11">
					<g class="st11">
						<g class="st11">
							<path class="st18" d="M589.8,259.3H466.9v2.3h122.9L589.8,259.3L589.8,259.3z"/>
						</g>
					</g>
				</g>
				<g class="st11">
					<g class="st11">
						<g class="st11">
							<path class="st18" d="M589.6,231.9H343v5h246.6V231.9z"/>
						</g>
					</g>
				</g>
				<g class="st11">
					<g class="st11">
						<g class="st11">
							<path class="st18" d="M589.6,266.3H466.4v2.3h123.2V266.3z"/>
						</g>
					</g>
				</g>
				<g class="st11">
					<g class="st11">
						<g class="st11">
							<path class="st18" d="M589.6,252.5H466.4v2.3h123.2V252.5z"/>
						</g>
					</g>
				</g>
				<g class="st11">
					<g class="st11">
						<g class="st11">
							<path class="st18" d="M589.6,273.3H466.4v2.3h123.2V273.3z"/>
						</g>
					</g>
				</g>
				<g class="st11">
					<g class="st11">
						<g class="st11">
							<path class="st18" d="M589.6,280.4H466.4v2.3h123.2V280.4z"/>
						</g>
					</g>
				</g>
				<g class="st11">
					<g class="st11">
						<g class="st11">
							<path class="st18" d="M589.6,287.1H466.4v2.3h123.2V287.1z"/>
						</g>
					</g>
				</g>
				<g class="st11">
					<g class="st11">
						<g class="st11">
							<path class="st18" d="M589.6,294.2H466.4v2.3h123.2V294.2z"/>
						</g>
					</g>
				</g>
				<g class="st11">
					<g class="st11">
						<g class="st11">
							<path class="st18" d="M589.6,301.2H466.4v2.3h123.2V301.2z"/>
						</g>
					</g>
				</g>
				<g class="st11">
					<g class="st11">
						<g class="st11">
							<path class="st18" d="M589.6,308.2H466.4v2.3h123.2V308.2z"/>
						</g>
					</g>
				</g>
				<g class="st11">
					<g class="st11">
						<g class="st11">
							<path class="st18" d="M589.8,315H481.6v2.3h108.1L589.8,315L589.8,315z"/>
						</g>
					</g>
				</g>
			</g>
		</g>
		<path class="st19" d="M597.8,202.8H336.7c-7,0-12.5,5.5-12.5,12.6v11h286.1v-11C610.3,208.3,604.8,202.8,597.8,202.8z"/>
		<path class="st20" d="M573.5,214.8c0,2-1.5,3.5-3.5,3.5s-3.5-1.5-3.5-3.5s1.5-3.5,3.5-3.5S573.5,212.8,573.5,214.8z"/>
		<path class="st20" d="M584.5,218.4c1.9,0,3.5-1.6,3.5-3.5s-1.6-3.5-3.5-3.5s-3.5,1.6-3.5,3.5C581,216.8,582.6,218.4,584.5,218.4z"
			/>
		<path class="st20" d="M599.3,218.4c1.9,0,3.5-1.6,3.5-3.5s-1.6-3.5-3.5-3.5s-3.5,1.6-3.5,3.5C595.8,216.8,597.4,218.4,599.3,218.4
			z"/>
	</g>
	<path class="st21" d="M521.7,438.2H260.6c-7,0-12.5-5.5-12.5-12.5V258c0-7,5.5-12.5,12.5-12.5h261.1c7,0,12.5,5.5,12.5,12.5v167.7
		C534.2,432.7,528.7,438.2,521.7,438.2z"/>
	<path class="st22" d="M527.5,430.7H266.3c-7,0-12.5-5.5-12.5-12.5V250.5c0-7,5.5-12.5,12.5-12.5h261.1c7,0,12.5,5.5,12.5,12.5
		v167.7C540.2,425.2,534.5,430.7,527.5,430.7z"/>
	<path class="st19" d="M293.6,378.7h-12.5v31.4h12.5V378.7z"/>
	<path class="st23" d="M321.7,351.1h-12.5v59h12.5V351.1z"/>
	<path class="st19" d="M349.7,357.4h-12.5v53h12.5V357.4z"/>
	<path class="st23" d="M377.8,327.5h-12.5v82.6h12.5V327.5z"/>
	<g class="st14">
		<g class="st14">
			<g class="st14">
				<path class="st24" d="M314.9,351.1h-5.7v59h5.8L314.9,351.1L314.9,351.1z"/>
			</g>
		</g>
	</g>
	<g class="st14">
		<g class="st14">
			<g class="st14">
				<path class="st25" d="M286.9,378.7h-5.8v31.4h5.8V378.7z"/>
			</g>
		</g>
	</g>
	<g class="st16">
		<g class="st16">
			<g class="st16">
				<path class="st15" d="M371,327.5h-5.8v82.6h5.8V327.5z"/>
			</g>
		</g>
	</g>
	<g class="st14">
		<g class="st14">
			<g class="st14">
				<path d="M343,357.4h-5.8v53h5.8V357.4z"/>
			</g>
		</g>
	</g>
	<path class="st26" d="M384.5,418.9H272.9V310.2h1.8v106.9h109.9v1.8H384.5z"/>
	<path class="st23" d="M284.4,363.9l-1.3-1.3l29.3-26.1l27,5.8l29.3-32.6l1.3,1.3l-30,33.4l-27-6L284.4,363.9z"/>
	<path class="st23" d="M372.3,315.7l-8.3-8l10.8-2.8L372.3,315.7z"/>
	<path class="st23" d="M403.6,376.5h-8.5v8.5h8.5V376.5z"/>
	<path class="st19" d="M403.6,391.5h-8.5v8.5h8.5V391.5z"/>
	<path class="st27" d="M432.9,395.3h-27v4.8h27V395.3z"/>
	<path class="st27" d="M432.9,380.2h-27v4.8h27V380.2z"/>
	<path class="st23" d="M453.9,376.5h-8.5v8.5h8.5V376.5z"/>
	<path class="st19" d="M453.9,391.5h-8.5v8.5h8.5V391.5z"/>
	<path class="st27" d="M483.4,395.3h-27v4.8h27V395.3z"/>
	<path class="st27" d="M483.4,380.2h-27v4.8h27V380.2z"/>
	<path class="st23" d="M499.2,376.5h-8.5v8.5h8.5V376.5z"/>
	<path class="st19" d="M499.2,391.5h-8.5v8.5h8.5V391.5z"/>
	<path class="st27" d="M519.5,395.3h-17.8v4.8h17.8V395.3z"/>
	<path class="st27" d="M519.5,380.2h-17.8v4.8h17.8V380.2z"/>
	<path class="st27" d="M519.5,294.4h-123v2.3h122.9L519.5,294.4L519.5,294.4z"/>
	<path class="st27" d="M519.4,267H272.9v5h246.6v-5H519.4z"/>
	<path class="st27" d="M519.5,301.4H396.3v2.3h123.2V301.4z"/>
	<path class="st27" d="M519.5,287.6H396.3v2.3h123.2V287.6z"/>
	<path class="st27" d="M519.5,308.5H396.3v2.3h123.2V308.5z"/>
	<path class="st27" d="M519.5,315.5H396.3v2.3h123.2V315.5z"/>
	<path class="st27" d="M519.5,322.3H396.3v2.3h123.2V322.3z"/>
	<path class="st27" d="M519.5,329.3H396.3v2.3h123.2V329.3z"/>
	<path class="st27" d="M519.5,336.3H396.3v2.3h123.2V336.3z"/>
	<path class="st27" d="M519.5,343.3H396.3v2.3h123.2V343.3z"/>
	<path class="st27" d="M519.5,350.1H411.3v2.3h108.1L519.5,350.1L519.5,350.1z"/>
	<path class="st28" d="M527.5,237.9H266.3c-7,0-12.5,5.5-12.5,12.5v11h286.1v-11C540.2,243.5,534.5,237.9,527.5,237.9z"/>
	<path class="st29" d="M503.2,250c0,2-1.5,3.5-3.5,3.5s-3.5-1.5-3.5-3.5s1.5-3.5,3.5-3.5S503.2,248,503.2,250z"/>
	<path class="st29" d="M518,250c0,2-1.5,3.5-3.5,3.5S511,252,511,250s1.5-3.5,3.5-3.5C516.4,246.5,518,248,518,250z"/>
	<path class="st29" d="M532.7,250c0,2-1.5,3.5-3.5,3.5s-3.5-1.5-3.5-3.5s1.5-3.5,3.5-3.5S532.7,248,532.7,250z"/>
	<path class="st30" d="M624.1,172.7H557c0.5,21.8,0.8,43.7,1,65.3c0,3.3,0,6.8-1.3,9.8c-1,0-0.5,0.3-0.8,1.8c-2.8,4.5-8,6.8-13.3,8
		c0,0.3,0,0.5,0,0.8c-0.5,0.5-0.8,1.3-0.5,2c0.3,0.8,4.3,1.8,9.5,1.3c1.5-0.3,4.5-1,5.8-1.5c0.8-0.5,1.5-1,2.3-1.5
		c0.8,0,1.3-0.3,2-0.5l0.3,0.3l6-2.5c0,0-0.8-3.8-1.3-5.8c0-0.5-0.3-0.8-0.5-1c5-13.6,9-27.6,11.8-41.9c-1,17.8-7.5,53.7-8,55
		c-0.8,2-3.5,5-7.5,5.3c-1.5,0-8.5-0.3-7.8,3c0.3,0.8,3.8,2.5,9,2.8c1.5,0,4.5-0.3,6-0.5c2-0.5,3.8-2,3.8-2l0.8,1l6.3-1.5
		c0,0,0-1.8,0-3.8s-1.3-3.8-1.3-3.8v-3.5l3.5-0.5c0,0,7-22.8,10.5-30.9c1.5-3.3,3-6.3,3.8-9.8c1-4,1.3-8,1.5-12.3
		c0.5-7.5,2-14.8,4-22.1c0.3-0.5,0.3-1,0.5-1.3c0.5-0.5,1.5-0.8,2.3-0.8c9-0.8,13,0.8,18.8-1c7.5-2.3,8.3-5.8,8.5-5.8
		C630.6,173.4,627.3,172.7,624.1,172.7z"/>
	<path class="st19" d="M251.1,447.5l-9,91.6H329l-8.5-91.9L251.1,447.5z"/>
	<path class="st8" d="M266.1,455.8c0-1.5,1.5-2.8,3.3-2.8s3.3,1.3,3.3,2.8s-1.5,2.8-3.3,2.8C267.6,458.5,266.1,457.3,266.1,455.8z
		 M269.3,454c-1.3,0-2.3,0.8-2.3,1.8s1,1.8,2.3,1.8s2.3-0.8,2.3-1.8S270.6,454,269.3,454z"/>
	<path class="st8" d="M298.4,455.8h0.5H298.4c0-0.8,0.3-1.3,0.8-1.8s1.5-1,2.5-1c1.8,0,3.3,1.3,3.3,2.8c0,0.8-0.3,1.5-1,2
		c-0.5,0.5-1.5,0.8-2.3,0.8C299.9,458.5,298.4,457.3,298.4,455.8z M301.6,454c-0.8,0-1.3,0.3-1.8,0.8c-0.3,0.3-0.5,0.5-0.5,1
		c0,1,1,1.8,2.3,1.8c0.5,0,1.3-0.3,1.5-0.5c0.5-0.3,0.5-0.8,0.5-1.3C303.9,454.8,302.9,454,301.6,454z"/>
	<path class="st8" d="M284.6,475.9c0.3,0,0.5,0,1,0c6-0.3,10.5-2,13.5-5.8c5-6,3.8-14.3,3.8-14.5c0-0.5-0.5-1-1.3-1
		c-0.5,0-1,0.5-1,1.3c0,0,1,7.8-3.3,12.8c-2.5,3-6.5,4.8-12,5c-5.3,0.3-9-1.3-11.5-4c-4.8-5.3-3.5-13.5-3.5-13.8c0-0.5-0.3-1-1-1.3
		c-0.5,0-1,0.3-1.3,1c0,0.5-1.3,9.5,4,15.6C275.1,474.3,279.4,475.9,284.6,475.9z"/>
	<path class="st31" d="M522.2,91.4c0,0-5.8-4-6-5.8c-0.3-1.8-4.3-8.8-5.5-10c-1.3-1.5-8.3-3.8-9.5-4c-1.5-0.3-9.8,0.5-8.8,1.8
		s6.5,0.8,7.5,1.3s1,0.5,1,0.5s-1,1.5-0.5,2.3s-1.8,2.3-1,3.5c0.8,1.5-0.3,1.3,0.5,3c1.3,2.5,4.5,4,5.3,3.3c0.5,1.5,3,4.5,5.3,4.3
		c2.3-0.3,7.8,5,7.8,5"/>
	<path class="st31" d="M611,62c0.3,4,0,10.8,1,11.8s4.8,0.8,4.8,0.8s-13,16.3-14,15.6c-1.3-1-16.5-13.3-13-14.1
		c3.5-0.8,6.8-0.5,6.8-2.3s-0.3-3.5-0.3-5.3"/>
	<path class="st19" d="M625.8,149.6c0,0-25.3,2.8-31,3c-5.8,0-5.5-3-5.5-3c-0.3-6.5-1.5-21.6-2.5-26.6c-1-4.8-1.5-6.5-2.5-11
		c-2.3-10-2-12-4.3-24.6l15-12c0,0,1.5,4.8,7.8,4.8c8.5,0,11-5.8,11-5.8l20.5,13.8l2,33.4l-2.5,27.4"/>
	<path class="st31" d="M611.3,58.5c-0.5,2-1,4-1.8,5.8c-1.3,3.5-3.3,4.8-7,4.8c-2.5,0-5.3,0-7.8,0.3c-2,0-4.5,0-6-1.3
		s-1.5-3.8-2-5.5c-0.5-2.5-0.8-5-1-7.3c-0.5-4.8-0.8-9.8-0.8-14.6c0-0.8,0-1.3,0.3-2c0-0.3,0.3-0.5,0.3-0.8c0.3-0.3,0.5-0.3,1-0.3
		c4.8-0.8,9.8-1,14.5-1c3.5,0,7,0.5,9.8,2.5s4,5.5,5.3,8.8c0.3,0.5,0.3,1.3-0.3,1.5"/>
	<path class="st32" d="M554.7,239.9c0,0,0.8,5,1.5,6.8c0.8,1.8,6.3,0.3,6.8-1c0.3-1-1.8-9.3-1.8-9.3"/>
	<path class="st33" d="M564.7,247.2c0.5,1.8,1,5.5,1,5.5l-5.5,2.5l-1-0.8c0,0-1.5,1.8-3,2.5c-1.3,0.5-4,1.3-5.5,1.5
		c-5,0.5-8.5-0.5-8.8-1c-1.3-2.8,5.3-3.5,6.5-4c3.8-1,5.8-4.3,6.3-6.3c0.3-1.5,0-1.8,0.8-1.8c0,0,0.8,0,1.5,0.8c1,1,2.5,1.5,4,1
		c0.8-0.3,1.5-1,2-1.8C563,245.2,564.2,245.2,564.7,247.2z"/>
	<path class="st34" d="M579.5,174.2c-8.8,1.8-19.8,1.8-28.8,0.8c1.3,3.5,4.3,8,5.5,13.3c3.8,16.6,5.3,38.9,6.3,52.7
		c0,0-1.8,3.5-7.8,0.8c-8.8-21.8-24.3-66-24-75.8c0.3-12.3,30.5-15.1,52.8-18.1"/>
	<path class="st33" d="M618.3,149.6c7,5-38.8,24.3-38.8,24.3c-5,1-10,1.5-15,1.5c-0.5-1-1-1.8-1-2.8c-0.3-1.3-0.3-2.8-0.3-4
		c-0.5-2.5-2.3-4.8-4.5-6.3c-2.3-1.3-5-2-7.5-2.5c-6.3-1-17-0.3-17-0.3c13.8-10.3,42.1-11.5,55.1-12.3
		C591.5,151.6,617.3,148.8,618.3,149.6z"/>
	<path class="st32" d="M569.3,251.5c0,0,0,5,0.3,7c0.3,1.8,6.3,1.3,6.8,0.3s-0.3-9.5-0.3-9.5"/>
	<path class="st33" d="M578,260.5c0.3,2,0.3,5.5,0.3,5.5l-6,1.5l-0.8-1c0,0-1.8,1.5-3.5,2c-1.3,0.3-4.3,0.8-5.5,0.5
		c-5-0.3-8.3-1.8-8.5-2.5c-0.8-3,5.8-2.8,7.3-2.8c3.8-0.3,6.5-3,7.3-5c0.5-1.5,0.3-1.8,1-1.5c0,0,0.8,0,1.3,1c0.8,1.3,2.3,2,3.8,1.5
		c0.8-0.3,1.8-0.5,2.3-1.3C576.5,258,577.8,258.5,578,260.5z"/>
	<path class="st34" d="M633.8,148.6c0,0-14,1.5-31,1c-4,0-34,5.8-36.8,10.8c-4.8,8.3,3,57.5,2.3,92.6c0,0,3.5,3,10,0.3
		c1.5-17.3,11.8-58,4.8-76.8c16.5,2.3,29.8,4.3,45.1-0.5c3.5-1.3,6.3-3.8,7.8-8.3C637.1,162.9,636.4,152.9,633.8,148.6z"/>
	<path class="st19" d="M594.8,75.3c0,0-3.5,0.3-4.3,0.3c-3,0.3-6,0.8-9,1.8c-4,1.5-7,5.3-10.3,8.3c-3.3,2.8-19.8,18.8-23,19.3
		c-3,0.5-30.3-18.1-30.3-18.1l-6.8,6.8c0,0,29.5,27.4,38.3,27.4c4.3,0,27.8-12.3,35.3-17.3L594.8,75.3z"/>
	<path class="st35" d="M549.7,115.7c-6,0.3-33.8-20.8-37.1-23.3l-1.3,1.3c0,0,29.5,27.4,38.3,27.4c3.5,0,20.5-8.5,30.5-14.3l2.5-1.5
		l-1.5-9.3C581,95.9,556.2,115.2,549.7,115.7z"/>
	<path class="st28" d="M521.4,154.1H589l-12-39.7c-0.8-2.3-2.8-3.8-5-3.8h-59.1c-2.3,0-4,2.3-3.3,4.3L521.4,154.1z"/>
	<path class="st36" d="M520.4,154.1H587l-12-39.7c-0.8-2.3-2.8-3.8-5-3.8h-59.1c-2.3,0-4,2.3-3.3,4.3l11.5,37.9
		C519.4,153.9,519.9,154.1,520.4,154.1z"/>
	<g class="st11">
		<path class="st37" d="M624.3,94.4c-3.3,15.3-4,27.1-5,38.1c-11.8,4.5-16.5,11.5-28.3,16.6c0,0-9-1.5-10,2
			c-0.5,2,10.8,3.5,10.8,3.5c10.8,0,39.1-7.8,40.8-8.3c2-0.5,7.5-36.6,7.8-56c0-2.8,0-5.8-1.8-8c-1-1.3-2.3-2-3.5-2.5
			c-7.5-3.8-13-5-21.5-5.5"/>
	</g>
	<path class="st31" d="M593,151.4c-1.3-1.5-3.5-1.8-5.5-1.8c-1.5,0-3,0.3-4.5,0.3c-0.8,0-1.5,0.3-1.5,1c0,0.8,3.3,0,5,0.5
		c-3.5,0.3-7,0.5-10.5,0.3c-0.5,0-0.8,0-1.3,0c-0.5,0.3-0.8,0.5-0.8,1c0,0.3,0.3,0.5,0.5,0.8c1,0.8,2.3,1.3,3.5,1.5
		c5.3,1,11,0.8,15.8-1.5"/>
	<path class="st19" d="M623.8,94.1c-0.3,16.3-1.5,23.8-1,40.2c-8.3,1.8-19.5,11-31,16.1c0,0-0.8,2.3,0.5,4.3c1,0.3,39.1-9,42.1-11.8
		c2.8-2.5,6.3-33.1,6.5-52.7c0-2.8,0-5.8-1.8-8c-1-1.3-2.3-2-3.5-2.5c-7.5-3.8-13-5-21.5-5.5"/>
	<path class="st38" d="M555,133.3c0.3,3.5-3.8,6.3-9.3,6.3s-9.8-2.8-10-6.3c-0.3-3.5,3.8-6.3,9.3-6.3S554.7,129.8,555,133.3z"/>
	<path class="st28" d="M551.4,133.6c0.1-1.9-2.6-3.6-5.9-3.7c-3.3-0.1-6.1,1.3-6.1,3.3c-0.1,1.9,2.6,3.6,5.9,3.7
		C548.5,137,551.3,135.5,551.4,133.6z"/>
	<path class="st39" d="M599.3,47.9c-0.3-0.5-1.5-0.8-2.8-0.5s-5,0.5-5.8,1.3c-0.8,0.5-0.8,1-1,1c-0.5,0-0.5-0.3-1.3-0.8s-3,0-4.3,0
		c-1.3,0.3-2.8,0.5-2.5,1c0,0.5,0.3,1.8,0.5,1.8c0.3,0.3,0.3,0.3,1.3,2.5c0.5,1.3,1.5,2.3,3.3,1.8c2.3-0.5,2.3-3,2.5-4
		c0.3-1,0.3-1.3,0.8-1.3c0.3,0,0.5,0,1,1s0.8,3.3,3,3.5c3,0.3,4.3-0.8,4.8-2.8c0.5-2.5,0.5-2.5,0.8-2.8l2.3,0.3v-0.8
		C601.5,49.2,599.5,48.2,599.3,47.9z M588.5,53.2c0,1.3-0.8,2.5-2.3,2.8c-1.3,0.3-2-0.5-2.8-2.3c-0.8-1.5-0.8-2.8-0.5-3.3
		s1-0.5,2.8-0.5s2.3-0.3,2.5,0.5C588.5,51,588.5,52,588.5,53.2z M598.3,52c-0.3,2-1,2.8-2.8,3c-2.8,0.3-3.3-0.8-3.5-2
		c-0.5-1.3-0.5-2.3-0.5-2.5c0-0.8,0.8-1,2.3-1.3c1.8-0.3,4-0.8,4.3-0.3C598.3,48.9,598.5,50.2,598.3,52z"/>
	<path class="st39" d="M617.6,43.9c-0.3-1.5-0.5-2.8-0.8-4c-1-3.5-3-6.5-6.3-8.3c-4-2.3-9.8-2.8-14-1.5c-2.5,0.8-3.5,2-4.8,2
		c-1,0-2.3-0.8-3.5-1.3c-10-3.8-8.5,6.3-7.3,9c0.5,1.3,2.8,2,3,2.5c0.3,0.5,0.3,3,0.5,4c0.3,1,1.3,1.5,1.3,1.5s0-3.3,0-3.5
		c0.3-1.3,0.5-2.3,1.5-3c1-0.8,2.5-0.8,3.8-1c1.3-0.3,7,1,7.5,1.3c2,1.5,2.3,5.3,3,7.5c0.3,1,0.5,1.8,1,1.8c0.3-3,1.3-3,3.3-2
		c1,0.5,1.5,2.5,1.5,4c0,2-1,4-3,4.5c-0.8,0.3,1.5,4.3,2.5,5.3c0.3,0.3,0.8,0.8,1,1c0.3,0.3,0.8,0.3,1.3,0.5c0.5,0.3,1,0.3,1.5,0.5
		c0.8,0.3,1.3,0.3,2,0.3c1-0.3,1.8-1.5,2-2.5c0.8-1.8,1.8-3.3,2.3-5C617.6,53.2,618.1,48.5,617.6,43.9z"/>
</g>
</svg>
