<?xml version="1.0" encoding="utf-8"?>
<!-- Generator: Adobe Illustrator 24.0.0, SVG Export Plug-In . SVG Version: 6.00 Build 0)  -->
<svg version="1.1" id="Layer_1" xmlns="http://www.w3.org/2000/svg" xmlns:xlink="http://www.w3.org/1999/xlink" x="0px" y="0px"
	 viewBox="0 0 713 578" style="enable-background:new 0 0 713 578;" xml:space="preserve">
<style type="text/css">
	.st0{opacity:0.2;fill:#E2E2E2;enable-background:new    ;}
	.st1{display:none;}
	.st2{display:inline;fill:#7E7E7E;}
	.st3{display:inline;fill:#6D6D6D;}
	.st4{display:inline;fill:#575757;}
	.st5{display:inline;fill:#4A4A4A;}
	.st6{display:inline;fill:#9B9B9B;}
	.st7{display:inline;fill:#818181;}
	.st8{display:inline;fill:#636363;}
	.st9{fill:#565656;}
	.st10{display:none;fill:#6EA0FD;}
	.st11{fill:#C9C9C9;}
	.st12{fill:#FEFEFE;}
	.st13{opacity:0.5;}
	.st14{opacity:0.5;fill:#9C9B9B;enable-background:new    ;}
	.st15{fill:#9B9B9B;}
	.st16{opacity:0.6;fill:#FEFEFE;enable-background:new    ;}
	.st17{fill:#7A7A7A;}
	.st18{opacity:0.3;}
	.st19{opacity:0.3;fill:#EFEFEF;enable-background:new    ;}
	.st20{fill:#D02E1B;}
	.st21{fill:#6A6A6A;}
	.st22{fill:#4F4F4F;}
	.st23{fill:#F4F4F4;}
	.st24{fill:#DBDBDB;}
	.st25{fill:#D3D3D3;}
	.st26{opacity:0.3;fill:#FFFFFF;enable-background:new    ;}
	.st27{opacity:0.1;enable-background:new    ;}
	.st28{display:inline;fill:none;stroke:#434343;stroke-linecap:round;stroke-linejoin:round;}
	.st29{display:inline;fill:none;stroke:#434343;stroke-linecap:round;stroke-linejoin:round;stroke-dasharray:6.23,6.23;}
	.st30{display:inline;}
	.st31{fill:#575757;}
	.st32{fill:#ADADAD;}
	.st33{fill:#8A8A8A;}
	.st34{fill:#CDCDCD;}
	.st35{opacity:0.5;fill:#A5A5A5;enable-background:new    ;}
	.st36{fill:#434343;}
	.st37{fill:#EFEFEF;}
	.st38{fill:#D9D9D9;}
	.st39{fill:#FFFFFF;}
	.st40{fill:#E2E2E2;}
	.st41{fill:#F2F2F2;}
	.st42{fill:#B4B4B4;}
	.st43{fill:#E8E8E8;}
	.st44{fill:#FEFFFF;}
	.st45{fill:#E3E3E3;}
	.st46{fill:#EEEEEE;}
	.st47{fill:none;stroke:#434343;stroke-linecap:round;stroke-linejoin:round;stroke-dasharray:6.23,6.23;}
	.st48{fill:#FFCCA2;}
	.st49{fill:#ABABAB;}
	.st50{fill:#C2C2C2;}
	.st51{fill:#1A1A1A;}
	.st52{fill:#454545;}
	.st53{fill:#FEFFF1;}
	.st54{fill:#464646;}
	.st55{fill:#C3C3C3;}
	.st56{fill:#878787;}
	.st57{fill:#E5E5E5;}
	.st58{fill:#474747;}
	.st59{fill:#6C6C6C;}
	.st60{fill:#3E3E3E;}
	.st61{fill:#555555;}
	.st62{fill:#B5B5B5;}
</style>
<path class="st0" d="M392.6,570c174.7,0,316.3-15.8,316.3-35.2s-141.6-35.2-316.3-35.2S76.2,515.3,76.2,534.8S217.8,570,392.6,570z"
	/>
<g class="st1">
	<path class="st2" d="M568.3,414.5c0,0,6,6.2,11.2,13c10.4,2.7,22.2,3.5,35.7,1c-1-4.8-2.3-9.9-3.9-12.8c0,0,5.2,5.6,10.2,12
		c6.2-0.8,16.4-1.9,27.8-2.5c-1.5-4.3-3.3-8.3-5-10.8c0,0,6.2,4.8,12,10.5c14.5-0.6,29.7,0,40.2,3.3c0,0-6.8-23.6-26.1-45.1
		c-13.1,1.5-27.8,1-27.8,1c5.2-1.5,12.7-5.6,19.3-9.7c-7.7-6.8-17-13.2-28-17.6c-11.8,3.7-23.9,5.8-23.9,5.8
		c3.7-1.9,8.3-5.6,12.7-9.7c-10.8-3.1-23.2-4.5-37.1-3.7c-8.7,7-17.4,12.6-17.4,12.6c2.3-2.7,4.8-7,7-11.6
		c-16.8,2.1-35.5,7.6-56.8,17.2c0,0,15.1,42.8,52.9,57.7C570.6,420.9,569.7,417,568.3,414.5z"/>
	<path class="st3" d="M685.2,417.6c-11.6-3.9-23.4-7.6-35.2-11c-11.8-3.7-23.6-7.2-35.3-10.6c-23.6-7-47.1-13.6-70.9-19.7
		c-11.8-3.1-23.8-6-35.7-8.9c-12-2.7-23.9-5.4-35.9-7.7c-6-1.2-12-2.3-18-3.3c-6-1-12-1.9-18.2-2.7c-6-0.8-12.2-1.4-18.2-1.5
		c-3.1-0.2-6-0.2-9.1-0.2c-2.9,0.2-6,0.4-8.7,0.8c-1.7,0.2-3.5-1-3.9-2.7c-0.2-1.7,1-3.5,2.7-3.9c3.3-0.4,6.4-0.6,9.7-0.6
		c3.1,0,6.4,0,9.5,0.4c6.2,0.4,12.4,1.2,18.5,1.9c6.2,1,12.2,1.9,18.3,3.1c6,1.2,12.2,2.3,18.2,3.7c12,2.7,23.9,5.6,35.9,8.5
		c12,3.1,23.8,6.4,35.5,9.7c23.6,6.8,47.1,13.7,70.7,21.3c11.8,3.7,23.4,7.6,35.2,11.4c11.6,3.9,23.4,7.7,35,11.8
		c0.2,0,0.2,0.2,0.2,0.4C685.3,417.6,685.2,417.6,685.2,417.6z"/>
	<path class="st4" d="M535.5,401.6c0,0-3.1,12.2-5,24.2c5.4,7.9,12.7,15.1,23,20.3c0.4-8.3,1.2-16.5,3.3-19.7c0,0,0.6,10.8,1.9,22.1
		c3.3,1.4,6.8,2.5,10.4,3.5c0,0,5.2,1.5,12.9,4.1c-1-4.5-1.4-8.1-1-10.5c0,0,2.1,5.2,5,11.8c14.9,5.2,35.5,13.7,45.6,23
		c0,0,2.9-17.8-2.5-39.3c-12.4-6.4-25.3-11.4-25.3-11.4c4.2-1.7,13.3-0.2,22.4,2.3c-2.9-7.7-7-15.9-12.7-23.4
		c-11-2.5-26.8-3.3-26.8-3.3c3.1-2.7,12.6-3.5,20.7-3.7c-8.5-8.7-19.7-16.5-34.8-22.1c-11.6,1.5-22.6,4.1-22.6,4.1
		c2.3-2.3,7.7-4.6,14.1-6.8c-13.1-3.9-29-6.2-47.5-6.4c0,0-2.5,26.1,10,49.4C529.5,411.6,532.6,404.3,535.5,401.6z"/>
	<path class="st5" d="M615.6,460.6c-7.5-7.2-15.3-14.1-23-21.1s-15.5-13.9-23.4-20.9c-15.6-13.7-31.5-27.3-47.5-40.7
		c-8.1-6.6-16-13.2-24.3-19.6c-8.1-6.4-16.4-12.8-24.7-19c-4.2-3.1-8.5-6-12.7-9.1c-4.2-2.9-8.5-5.8-12.9-8.5
		c-4.4-2.7-8.9-5.4-13.3-7.7c-2.3-1.2-4.6-2.3-7-3.3c-2.3-1-4.6-1.9-7-2.5c-1.5-0.4-2.3-1.9-1.9-3.5c0.4-1.5,1.9-2.3,3.5-1.9
		c2.7,0.8,5.2,1.9,7.5,2.9c2.5,1.2,4.8,2.3,7.1,3.7c4.6,2.5,9.1,5.4,13.5,8.1c4.4,2.9,8.7,5.8,12.9,8.9c4.2,3.1,8.5,6.2,12.6,9.3
		c8.3,6.4,16.4,12.8,24.5,19.6c8.1,6.6,16,13.4,23.9,20.1c15.8,13.6,31.3,27.5,46.5,41.6c7.7,7,15.3,14.1,22.8,21.3
		c7.5,7.2,15.1,14.3,22.6,21.7v0.2C615.8,460.8,615.8,460.8,615.6,460.6z"/>
	<path class="st6" d="M599.6,327.6c0,0,9.7-4.3,19.7-7.6c7.5-10.8,13.1-24.4,15.6-41c-6-0.8-12.2-1.4-16.4-1c0,0,8.5-3.9,18-7
		c1.5-7.6,4.4-19.9,8.3-33.3c-5.4,0-11,0.4-14.7,1.5c0,0,8.1-5.2,17-9.7c5.4-17,12.2-34.5,20.3-45.3c0,0-30.1-1.9-62.8,11.8
		c-3.7,15.9-10.2,32.7-10.2,32.7c0.4-6.8-1.2-17-3.3-26.3c-11,6.2-22,14.3-31.9,25.2c-0.6,15.1-3.1,30-3.1,30c-0.8-5-3.1-12-6-18.8
		c-7.9,11.4-14.7,25-19.5,41.6c4.4,13,7.3,25.2,7.3,25.2c-2.3-3.9-6.2-8.3-10.4-12.8c-4.2,20.3-5.8,44.3-3.3,72.8
		c0,0,55.4,0,88.3-37.8C608.1,327.4,603.1,327.2,599.6,327.6z"/>
	<path class="st7" d="M651,193.4c-9.1,12-18.2,24-27,36.2c-8.9,12.2-17.8,24.4-26.7,36.6c-17.6,24.6-35,49.2-51.8,74.2
		c-8.5,12.6-16.6,25.2-24.7,37.8c-8.1,12.8-16,25.6-23.8,38.5c-3.9,6.4-7.5,13-11.2,19.6c-3.7,6.6-7.1,13.2-10.4,19.9
		c-3.3,6.8-6.4,13.6-9.3,20.3c-1.4,3.5-2.7,7-3.9,10.5c-1.2,3.5-2.1,7-2.7,10.5c-0.4,2.1-2.5,3.7-4.8,3.3c-2.1-0.4-3.7-2.5-3.3-4.8
		c0.8-3.9,1.9-7.7,3.1-11.4c1.4-3.7,2.7-7.4,4.2-10.8c3.1-7.2,6.4-13.9,9.9-20.7c3.5-6.8,7.1-13.4,11-19.9c3.9-6.6,7.7-13,11.6-19.6
		c7.9-13,16.2-25.6,24.5-38.1c8.5-12.6,17-25,25.7-37.4c17.4-24.8,35.2-49,53.3-73.2c9.1-12,18.2-24,27.4-36
		c9.3-12,18.5-23.8,27.8-35.6c0.2-0.2,0.2-0.2,0.4,0C651,193,651,193.2,651,193.4z"/>
	<path class="st2" d="M132.2,414.5c0,0-6,6.2-11.2,13c-10.4,2.7-22.2,3.5-35.7,1c1-4.8,2.3-9.9,3.9-12.8c0,0-5.2,5.6-10.2,12
		c-6.2-0.8-16.4-1.9-27.8-2.5c1.5-4.3,3.3-8.3,5-10.8c0,0-6.2,4.8-12,10.5c-14.5-0.6-29.7,0-40.2,3.3c0,0,6.8-23.6,26.1-45.1
		c13.1,1.5,27.8,1,27.8,1c-5.2-1.5-12.7-5.6-19.3-9.7c7.7-6.8,17-13.2,28-17.6c11.8,3.7,23.9,5.8,23.9,5.8
		c-3.7-1.9-8.3-5.6-12.7-9.7c10.8-3.1,23.2-4.5,37.1-3.7c8.7,7,17.4,12.6,17.4,12.6c-2.3-2.7-4.8-7-7-11.6
		c16.8,2.1,35.5,7.6,56.8,17.2c0,0-15.1,42.8-52.9,57.7C129.7,420.9,130.9,417,132.2,414.5z"/>
	<path class="st8" d="M15.4,417.6c11.6-3.9,23.4-7.6,35.2-11c11.8-3.7,23.6-7.2,35.3-10.6c23.6-7,47.1-13.6,70.9-19.7
		c11.8-3.1,23.8-6,35.7-8.9c12-2.7,23.9-5.4,35.9-7.7c6-1.2,12-2.3,18-3.3s12-1.9,18.2-2.7c6-0.8,12.2-1.4,18.2-1.5
		c3.1-0.2,6-0.2,9.1-0.2c2.9,0.2,6,0.4,8.7,0.8c1.7,0.2,3.5-1,3.9-2.7c0.2-1.7-1-3.5-2.7-3.9c-3.3-0.4-6.4-0.6-9.7-0.6
		c-3.1,0-6.4,0-9.5,0.4c-6.2,0.4-12.4,1.2-18.5,1.9c-6.2,1-12.2,1.9-18.3,3.1c-6,1.2-12.2,2.3-18.2,3.7c-12,2.7-23.9,5.6-35.9,8.5
		c-12,3.1-23.8,6.4-35.5,9.7c-23.6,6.8-47.1,13.7-70.7,21.3c-11.8,3.7-23.4,7.6-35.2,11.4c-11.6,3.9-23.4,7.7-35,11.8
		c-0.2,0-0.2,0.2-0.2,0.4C15.2,417.6,15.2,417.6,15.4,417.6z"/>
	<path class="st4" d="M165.1,401.6c0,0,3.1,12.2,5,24.2c-5.4,7.9-12.7,15.1-23,20.3c-0.4-8.3-1.2-16.5-3.3-19.7
		c0,0-0.6,10.8-1.9,22.1c-3.3,1.4-6.8,2.5-10.4,3.5c0,0-5.2,1.5-12.9,4.1c1-4.5,1.4-8.1,1-10.5c0,0-2.1,5.2-5,11.8
		c-14.9,5.2-35.5,13.7-45.6,23c0,0-2.9-17.8,2.5-39.3c12.4-6.4,25.3-11.4,25.3-11.4c-4.2-1.7-13.3-0.2-22.4,2.3
		c2.9-7.7,7-15.9,12.7-23.4c11-2.5,26.8-3.3,26.8-3.3c-3.1-2.7-12.6-3.5-20.7-3.7c8.5-8.7,19.7-16.5,34.8-22.1
		c11.6,1.5,22.6,4.1,22.6,4.1c-2.3-2.3-7.7-4.6-14.1-6.8c13.1-3.9,29-6.2,47.5-6.4c0,0,2.5,26.1-10,49.4
		C171,411.6,168,404.3,165.1,401.6z"/>
	<path class="st5" d="M84.9,460.6c7.5-7.2,15.3-14.1,23-21.1c7.7-7,15.4-13.9,23.4-20.9c15.6-13.7,31.5-27.3,47.5-40.7
		c8.1-6.6,16-13.2,24.3-19.6c8.1-6.4,16.4-12.8,24.7-19c4.2-3.1,8.5-6,12.7-9.1c4.2-2.9,8.5-5.8,12.9-8.5c4.4-2.7,8.9-5.4,13.3-7.7
		c2.3-1.2,4.6-2.3,7-3.3c2.3-1,4.6-1.9,7-2.5c1.5-0.4,2.3-1.9,1.9-3.5c-0.4-1.5-1.9-2.3-3.5-1.9c-2.7,0.8-5.2,1.9-7.5,2.9
		c-2.5,1.2-4.8,2.3-7.1,3.7c-4.6,2.5-9.1,5.4-13.5,8.1c-4.4,2.9-8.7,5.8-12.9,8.9c-4.2,3.1-8.5,6.2-12.6,9.3
		c-8.3,6.4-16.4,12.8-24.5,19.6c-8.1,6.6-16,13.4-23.9,20.1c-15.8,13.6-31.3,27.5-46.5,41.6c-7.7,7-15.3,14.1-22.8,21.3
		c-7.5,7.2-15.1,14.3-22.6,21.7v0.2C84.7,460.8,84.7,460.8,84.9,460.6z"/>
	<path class="st6" d="M100.8,327.6c0,0-9.7-4.3-19.7-7.6c-7.5-10.8-13.1-24.4-15.6-41c6-0.8,12.2-1.4,16.4-1c0,0-8.5-3.9-18-7
		c-1.5-7.6-4.4-19.9-8.3-33.3c5.4,0,11,0.4,14.7,1.5c0,0-8.1-5.2-17-9.7c-5.4-17-12.2-34.5-20.3-45.3c0,0,30.1-1.9,62.8,11.8
		c3.7,15.9,10.2,32.7,10.2,32.7c-0.4-6.8,1.2-17,3.3-26.3c11,6.2,22,14.3,31.9,25.2c0.6,15.1,3.1,30,3.1,30c0.8-5,3.1-12,6-18.8
		c7.9,11.4,14.7,25,19.5,41.6c-4.4,13-7.3,25.2-7.3,25.2c2.3-3.9,6.2-8.3,10.4-12.8c4.2,20.3,5.8,44.3,3.3,72.8
		c0,0-55.4,0-88.3-37.8C92.5,327.4,97.3,327.2,100.8,327.6z"/>
	<path class="st7" d="M49.6,193.4c9.1,12,18.2,24,27,36.2c8.9,12.2,17.8,24.4,26.7,36.6c17.6,24.6,35,49.2,51.8,74.2
		c8.5,12.6,16.6,25.2,24.7,37.8c8.1,12.8,16,25.6,23.8,38.5c3.9,6.4,7.5,13,11.2,19.6c3.7,6.6,7.1,13.2,10.4,19.9
		c3.3,6.8,6.4,13.6,9.3,20.3c1.4,3.5,2.7,7,3.9,10.5c1.2,3.5,2.1,7,2.7,10.5c0.4,2.1,2.5,3.7,4.8,3.3c2.1-0.4,3.7-2.5,3.3-4.8
		c-0.8-3.9-1.9-7.7-3.1-11.4c-1.4-3.7-2.7-7.4-4.2-10.8c-3.1-7.2-6.4-13.9-9.8-20.7c-3.5-6.8-7.1-13.4-11-19.9
		c-3.9-6.6-7.7-13-11.6-19.6c-7.9-13-16.2-25.6-24.5-38.1c-8.5-12.6-17-25-25.7-37.4c-17.4-24.8-35.2-49-53.3-73.2
		c-9.1-12-18.2-24-27.4-36S59.8,204.8,50.5,193c-0.2-0.2-0.2-0.2-0.4,0C49.6,193,49.6,193.2,49.6,193.4z"/>
</g>
<path class="st9" d="M525.2,461.6H172.6V240.5c0-4.3,3.3-7.6,7.3-7.6h337.8c4.1,0,7.3,3.3,7.3,7.6v221.1H525.2z"/>
<path class="st10" d="M512.3,248.8H185.5v195h326.8V248.8z"/>
<path class="st11" d="M116.6,527.2c-3.3,4.3,2.9,17,12.7,17c149.1,0,298,0,447.1,0c9.7,0,15.8-12.8,12.2-17H116.6z"/>
<path class="st12" d="M587,524.9c3.7,4.3-1.2,7.7-10.8,7.7c-149.1,0-298,0-447.1,0c-9.7,0-14.9-3.5-11.8-7.7
	c15.3-19.9,30.5-40.1,45.8-60c3.3-4.3,11.8-7.7,18.9-7.7c110.9,0,221.7,0,332.6,0c7.1,0,16,3.5,19.9,7.7
	C552.1,485,569.5,504.9,587,524.9z"/>
<g class="st13">
	<path class="st14" d="M216.8,477.4c-6,0-9.1,0-15.1,0c2.1-3.1,3.3-4.8,5.4-7.9c5.8,0,8.7,0,14.5,0
		C219.5,472.8,218.6,474.4,216.8,477.4z"/>
	<path class="st14" d="M236.3,477.4c-6,0-9.1,0-15.1,0c1.7-3.1,2.7-4.8,4.6-7.9c5.8,0,8.7,0,14.5,0
		C238.6,472.8,237.9,474.4,236.3,477.4z"/>
	<path class="st14" d="M229.9,468.2c-8.9,0-13.1,0-22,0c0.8-1.2,1.2-1.7,1.9-2.9c8.7,0,12.9,0,21.6,0
		C231.1,466.2,230.7,467,229.9,468.2z"/>
	<path class="st14" d="M255.8,468.2c-8.9,0-13.1,0-22,0c0.6-1.2,1-1.7,1.5-2.9c8.7,0,12.9,0,21.6,0
		C256.6,466.2,256.4,467,255.8,468.2z"/>
	<path class="st14" d="M281.7,468.2c-8.9,0-13.3,0-22,0c0.4-1.2,0.8-1.7,1.2-2.9c8.7,0,12.9,0,21.6,0
		C282.3,466.2,282.1,467,281.7,468.2z"/>
	<path class="st14" d="M307.6,468.2c-8.9,0-13.1,0-22,0c0.4-1.2,0.4-1.7,0.8-2.9c8.7,0,12.9,0,21.6,0
		C307.8,466.2,307.8,467,307.6,468.2z"/>
	<path class="st14" d="M333.5,468.2c-8.9,0-13.1,0-22,0c0.2-1.2,0.2-1.7,0.4-2.9c8.7,0,12.9,0,21.6,0
		C333.5,466.2,333.5,467,333.5,468.2z"/>
	<path class="st14" d="M359.2,468.2c-8.9,0-13.1,0-22,0c0-1.2,0-1.7,0-2.9c8.7,0,12.9,0,21.6,0C359,466.2,359.2,467,359.2,468.2z"/>
	<path class="st14" d="M385,468.2c-8.9,0-13.1,0-22,0c-0.2-1.2-0.2-1.7-0.4-2.9c8.7,0,12.9,0,21.6,0
		C384.6,466.2,384.8,467,385,468.2z"/>
	<path class="st14" d="M410.9,468.2c-8.9,0-13.3,0-22,0c-0.4-1.2-0.4-1.7-0.8-2.9c8.7,0,12.9,0,21.6,0
		C410.1,466.2,410.3,467,410.9,468.2z"/>
	<path class="st14" d="M436.8,468.2c-8.9,0-13.1,0-22,0c-0.4-1.2-0.8-1.7-1.2-2.9c8.7,0,12.9,0,21.6,0
		C435.8,466.2,436,467,436.8,468.2z"/>
	<path class="st14" d="M462.5,468.2c-8.9,0-13.1,0-22,0c-0.6-1.2-1-1.7-1.5-2.9c8.7,0,12.9,0,21.6,0
		C461.3,466.2,461.7,467,462.5,468.2z"/>
	<path class="st14" d="M491.4,468.2c-10,0-15.1,0-25.1,0c-0.8-1.2-1.2-1.7-1.9-2.9c9.9,0,14.9,0,24.7,0
		C489.9,466.2,490.5,467,491.4,468.2z"/>
	<path class="st14" d="M255.8,477.4c-6,0-9.1,0-15.1,0c1.5-3.1,2.3-4.8,3.9-7.9c5.8,0,8.7,0,14.5,0
		C257.8,472.8,257.2,474.4,255.8,477.4z"/>
	<path class="st14" d="M275.3,477.4c-6,0-9.1,0-15.1,0c1.2-3.1,1.7-4.8,3.1-7.9c5.8,0,8.7,0,14.5,0
		C276.9,472.8,276.3,474.4,275.3,477.4z"/>
	<path class="st14" d="M295,477.4c-6,0-9.1,0-15.1,0c1-3.1,1.4-4.8,2.3-7.9c5.8,0,8.7,0,14.5,0C296,472.8,295.6,474.4,295,477.4z"/>
	<path class="st14" d="M314.5,477.4c-6,0-9.1,0-15.1,0c0.6-3.1,1-4.8,1.5-7.9c5.8,0,8.7,0,14.5,0
		C315.1,472.8,314.9,474.4,314.5,477.4z"/>
	<path class="st14" d="M334,477.4c-6,0-9.1,0-15.1,0c0.2-3.1,0.4-4.8,0.8-7.9c5.8,0,8.7,0,14.5,0C334.2,472.8,334.2,474.4,334,477.4
		z"/>
	<path class="st14" d="M353.7,477.4c-6,0-9.1,0-15.1,0c0-3.1,0-4.8,0-7.9c5.8,0,8.7,0,14.5,0C353.3,472.8,353.3,474.4,353.7,477.4z"
		/>
	<path class="st14" d="M373.2,477.4c-6,0-9.1,0-15.1,0c-0.4-3.1-0.6-4.8-0.8-7.9c5.8,0,8.7,0,14.5,0
		C372.3,472.8,372.7,474.4,373.2,477.4z"/>
	<path class="st14" d="M392.7,477.4c-6,0-9.1,0-15.1,0c-0.6-3.1-1-4.8-1.5-7.9c5.8,0,8.7,0,14.5,0
		C391.4,472.8,392,474.4,392.7,477.4z"/>
	<path class="st14" d="M210.4,488.1c-6.4,0-9.5,0-15.8,0c2.1-3.1,3.3-4.8,5.4-7.9c6.2,0,9.3,0,15.3,0
		C213.3,483.3,212.4,485,210.4,488.1z"/>
	<path class="st14" d="M230.9,488.1c-6.4,0-9.5,0-15.8,0c1.7-3.1,2.7-4.8,4.6-7.9c6.2,0,9.3,0,15.3,0
		C233.4,483.3,232.6,485,230.9,488.1z"/>
	<path class="st14" d="M251.6,488.1c-6.4,0-9.5,0-15.8,0c1.5-3.1,2.3-4.8,3.9-7.9c6.2,0,9.3,0,15.3,0
		C253.5,483.3,252.9,485,251.6,488.1z"/>
	<path class="st14" d="M272.2,488.1c-6.4,0-9.5,0-15.8,0c1.2-3.1,1.7-4.8,3.1-7.9c6.2,0,9.3,0,15.3,0
		C273.6,483.3,273.2,485,272.2,488.1z"/>
	<path class="st14" d="M292.7,488.1c-6.4,0-9.5,0-15.8,0c1-3.1,1.4-4.8,2.3-7.9c6.2,0,9.3,0,15.3,0
		C293.7,483.3,293.5,485,292.7,488.1z"/>
	<path class="st14" d="M313.4,488.1c-6.4,0-9.5,0-15.8,0c0.6-3.1,1-4.8,1.5-7.9c6.2,0,9.3,0,15.3,0
		C313.9,483.3,313.8,485,313.4,488.1z"/>
	<path class="st14" d="M333.9,488.1c-6.4,0-9.5,0-15.8,0c0.2-3.1,0.4-4.8,0.8-7.9c6.2,0,9.1,0,15.3,0C334,483.3,334,485,333.9,488.1
		z"/>
	<path class="st14" d="M354.5,488.1c-6.4,0-9.5,0-15.8,0c0-3.1,0-4.8,0-7.9c6.2,0,9.1,0,15.3,0C354.1,483.3,354.3,485,354.5,488.1z"
		/>
	<path class="st14" d="M375.2,488.1c-6.4,0-9.5,0-15.8,0c-0.4-3.1-0.6-4.8-0.8-7.9c6.2,0,9.1,0,15.3,0
		C374.2,483.3,374.6,485,375.2,488.1z"/>
	<path class="st14" d="M395.6,488.1c-6.4,0-9.5,0-15.8,0c-0.6-3.1-1-4.8-1.5-7.9c6.2,0,9.3,0,15.3,0
		C394.5,483.3,394.9,485,395.6,488.1z"/>
	<path class="st14" d="M204.1,498.8c-6.8,0-10,0-16.6,0c2.1-3.1,3.3-4.8,5.4-7.9c6.4,0,9.7,0,16,0C207,493.9,206,495.5,204.1,498.8z
		"/>
	<path class="st14" d="M225.7,498.8c-6.8,0-10,0-16.6,0c1.7-3.1,2.7-4.8,4.6-7.9c6.4,0,9.7,0,16,0
		C228,493.9,227.2,495.5,225.7,498.8z"/>
	<path class="st14" d="M247.3,498.8c-6.8,0-10,0-16.6,0c1.5-3.1,2.3-4.8,3.9-7.9c6.4,0,9.7,0,16,0
		C249.3,493.9,248.7,495.5,247.3,498.8z"/>
	<path class="st14" d="M269,498.8c-6.8,0-10,0-16.6,0c1.2-3.1,1.7-4.8,3.1-7.9c6.4,0,9.7,0,16,0C270.3,493.9,269.9,495.5,269,498.8z
		"/>
	<path class="st14" d="M290.6,498.8c-6.8,0-10,0-16.6,0c1-3.1,1.4-4.8,2.3-7.9c6.4,0,9.7,0,16,0
		C291.6,493.9,291.2,495.5,290.6,498.8z"/>
	<path class="st14" d="M312.2,498.8c-6.8,0-10,0-16.6,0c0.6-3.1,1-4.8,1.5-7.9c6.4,0,9.7,0,16,0
		C312.8,493.9,312.6,495.5,312.2,498.8z"/>
	<path class="st14" d="M333.8,498.8c-6.8,0-10,0-16.6,0c0.2-3.1,0.4-4.8,0.8-7.9c6.4,0,9.7,0,16,0
		C333.8,493.9,333.8,495.5,333.8,498.8z"/>
	<path class="st14" d="M355.5,498.8c-6.8,0-10,0-16.6,0c0-3.1,0-4.8,0-7.9c6.4,0,9.7,0,16,0C355.1,493.9,355.1,495.5,355.5,498.8z"
		/>
	<path class="st14" d="M377.1,498.8c-6.8,0-10,0-16.6,0c-0.4-3.1-0.6-4.8-0.8-7.9c6.4,0,9.7,0,16,0
		C376.1,493.9,376.5,495.5,377.1,498.8z"/>
	<path class="st14" d="M398.7,498.8c-6.8,0-10,0-16.6,0c-0.6-3.1-1-4.8-1.5-7.9c6.4,0,9.7,0,16,0
		C397.4,493.9,397.8,495.5,398.7,498.8z"/>
	<path class="st14" d="M197.7,509.2c-7,0-10.4,0-17.4,0c2.1-3.1,3.3-4.8,5.4-7.9c6.8,0,10,0,16.8,0
		C200.6,504.6,199.6,506.1,197.7,509.2z"/>
	<path class="st14" d="M220.5,509.2c-7,0-10.4,0-17.4,0c1.7-3.1,2.7-4.8,4.6-7.9c6.8,0,10,0,16.8,0
		C222.8,504.6,222,506.1,220.5,509.2z"/>
	<path class="st14" d="M243.1,509.2c-7,0-10.4,0-17.4,0c1.5-3.1,2.3-4.8,3.9-7.9c6.8,0,10,0,16.8,0
		C245,504.6,244.4,506.1,243.1,509.2z"/>
	<path class="st14" d="M265.7,509.6c-7,0-10.4,0-17.6,0c1.2-3.3,1.9-4.8,3.1-8.1c6.8,0,10,0,16.8,0
		C267.2,504.6,266.6,506.3,265.7,509.6z"/>
	<path class="st14" d="M401.6,509.2c-43.6,0-87.1,0-130.8,0c1-3.1,1.4-4.8,2.3-7.9c42.1,0,84.2,0,126.3,0
		C400.3,504.6,400.7,506.1,401.6,509.2z"/>
	<path class="st14" d="M304.9,526.6c33,0,66.1,0,99.1,0l-8.3-13.6c-31.9,0-51,0-82.9,0L304.9,526.6z"/>
	<path class="st14" d="M410.5,477.4c-6,0-9.1,0-15.1,0c-1-3.1-1.4-4.8-2.3-7.9c5.8,0,8.7,0,14.5,0
		C408.8,472.8,409.4,474.4,410.5,477.4z"/>
	<path class="st14" d="M414.4,488.1c-6.4,0-9.5,0-15.8,0c-1-3.1-1.4-4.8-2.3-7.9c6.2,0,9.3,0,15.3,0
		C412.7,483.3,413.2,485,414.4,488.1z"/>
	<path class="st14" d="M418.3,498.8c-6.8,0-10,0-16.6,0c-1-3.1-1.4-4.8-2.3-7.9c6.4,0,9.7,0,16,0
		C416.5,493.9,417.1,495.5,418.3,498.8z"/>
	<path class="st14" d="M422.1,509.2c-7,0-10.4,0-17.4,0c-1-3.1-1.4-4.8-2.3-7.9c6.8,0,10,0,16.8,0
		C420.4,504.6,420.9,506.1,422.1,509.2z"/>
	<path class="st14" d="M428.1,477.4c-6,0-9.1,0-15.1,0c-1.2-3.1-1.7-4.8-3.1-7.9c5.8,0,8.7,0,14.5,0
		C426,472.8,426.7,474.4,428.1,477.4z"/>
	<path class="st14" d="M432.9,488.1c-6.4,0-9.5,0-15.8,0c-1.2-3.1-1.7-4.8-3.1-7.9c6.2,0,9.1,0,15.3,0
		C430.8,483.3,431.6,485,432.9,488.1z"/>
	<path class="st14" d="M437.8,498.8c-6.8,0-10,0-16.6,0c-1.2-3.1-1.7-4.8-3.1-7.9c6.4,0,9.7,0,16,0
		C435.6,493.9,436.4,495.5,437.8,498.8z"/>
	<path class="st14" d="M442.6,509.2c-7,0-10.4,0-17.4,0c-1.2-3.1-1.7-4.8-2.9-7.9c6.8,0,10,0,16.8,0
		C440.5,504.6,441,506.1,442.6,509.2z"/>
	<path class="st14" d="M445.9,477.4c-6,0-9.1,0-15.1,0c-1.5-3.1-2.1-4.8-3.7-7.9c5.8,0,8.7,0,14.5,0
		C443.4,472.8,444.1,474.4,445.9,477.4z"/>
	<path class="st14" d="M451.6,488.1c-6.4,0-9.5,0-15.8,0c-1.5-3.1-2.1-4.8-3.7-7.9c6.2,0,9.3,0,15.3,0
		C448.9,483.3,449.9,485,451.6,488.1z"/>
	<path class="st14" d="M457.3,498.8c-6.8,0-10,0-16.6,0c-1.5-3.1-2.1-4.8-3.7-7.9c6.4,0,9.7,0,16,0
		C454.7,493.9,455.5,495.5,457.3,498.8z"/>
	<path class="st14" d="M463.1,509.2c-7,0-10.4,0-17.4,0c-1.5-3.1-2.1-4.8-3.7-7.9c6.8,0,10,0,16.8,0
		C460.5,504.6,461.3,506.1,463.1,509.2z"/>
	<path class="st14" d="M463.6,477.4c-6,0-9.1,0-15.1,0c-1.7-3.1-2.7-4.8-4.4-7.9c5.8,0,8.7,0,14.5,0
		C460.6,472.8,461.5,474.4,463.6,477.4z"/>
	<path class="st14" d="M470.2,488.1c-6.4,0-9.5,0-15.8,0c-1.7-3.1-2.7-4.8-4.4-7.9c6.2,0,9.3,0,15.3,0
		C467.3,483.3,468.3,485,470.2,488.1z"/>
	<path class="st14" d="M477,498.8c-6.8,0-10,0-16.6,0c-1.7-3.1-2.7-4.8-4.4-7.9c6.4,0,9.7,0,16,0C473.9,493.9,474.8,495.5,477,498.8
		z"/>
	<path class="st14" d="M483.5,509.2c-7,0-10.4,0-17.4,0c-1.7-3.1-2.7-4.8-4.4-7.9c6.8,0,10,0,16.8,0
		C480.4,504.6,481.6,506.1,483.5,509.2z"/>
	<path class="st14" d="M481.2,477.4c-6,0-9.1,0-15.1,0c-2.1-3.1-3.1-4.8-5-7.9c5.8,0,8.7,0,14.5,0
		C477.9,472.8,479.1,474.4,481.2,477.4z"/>
	<path class="st14" d="M488.9,488.1c-6.4,0-9.5,0-15.8,0c-2.1-3.1-3.1-4.8-5-7.9c6.2,0,9.3,0,15.3,0
		C485.4,483.3,486.6,485,488.9,488.1z"/>
	<path class="st14" d="M496.5,498.8c-6.8,0-10,0-16.6,0c-2.1-3.1-3.1-4.8-5-7.9c6.4,0,9.7,0,16,0C493,493.9,494.1,495.5,496.5,498.8
		z"/>
	<path class="st14" d="M504,509.2c-7,0-10.4,0-17.4,0c-2.1-3.1-3.1-4.8-5-7.9c6.8,0,10,0,16.8,0C500.5,504.6,501.7,506.1,504,509.2z
		"/>
	<path class="st14" d="M499,477.4c-6,0-9.1,0-15.1,0c-2.3-3.1-3.5-4.8-5.8-7.9c5.8,0,8.7,0,14.5,0
		C495.1,472.8,496.5,474.4,499,477.4z"/>
	<path class="st14" d="M507.5,488.1c-6.4,0-9.5,0-15.8,0c-2.3-3.1-3.5-4.8-5.8-7.9c6.2,0,9.1,0,15.3,0
		C503.6,483.3,505,485,507.5,488.1z"/>
	<path class="st14" d="M516,498.8c-6.8,0-10,0-16.6,0c-2.3-3.1-3.5-4.8-5.8-7.9c6.4,0,9.7,0,16,0C512.1,493.9,513.5,495.5,516,498.8
		z"/>
	<path class="st14" d="M524.5,509.2c-7,0-10.4,0-17.4,0c-2.3-3.1-3.5-4.8-5.8-7.9c6.8,0,10,0,16.8,0
		C520.6,504.6,522,506.1,524.5,509.2z"/>
</g>
<path class="st15" d="M512.3,248.8H185.5v195h326.8V248.8z"/>
<path class="st12" d="M244.3,378.9c0,12.4-3.9,23.8-10.2,33.3c-5.6,8.1-12.9,14.7-21.6,19.2c-7.9,4.1-17,6.4-26.7,6.4V320.2
	c29,0,53.1,21.1,57.7,48.8C243.9,372.1,244.3,375.4,244.3,378.9z"/>
<path class="st12" d="M238.3,442c20.3,0,36.7-16.5,36.7-36.8c0-20.3-16.4-36.8-36.7-36.8s-36.7,16.5-36.7,36.8
	C201.6,425.5,218,442,238.3,442z"/>
<path class="st12" d="M308,442.2c0,0.6,0,1.2,0,1.7h-73.4c0-0.6,0-1.2,0-1.7V442c0-7.4,2.3-14.3,6.2-20.1
	c6.6-9.9,17.8-16.5,30.7-16.5c1.4,0,2.5,0,3.9,0.2C293.7,407.4,308,423,308,442.2z"/>
<path class="st12" d="M244.3,437.6c0,1.4,0,2.7-0.2,4.1c0,0.8-0.2,1.4-0.4,2.1h-58.1v-35.8c4.6-3.5,10.2-5.8,16.2-6.8
	c1.9-0.4,3.7-0.4,5.6-0.4c10.4,0,19.9,4.3,26.5,11.4c2.7,2.9,5,6.2,6.8,9.7C242.9,426.5,244.3,432,244.3,437.6z"/>
<path class="st12" d="M453.6,378.9c0,12.4,3.9,23.8,10.2,33.3c5.6,8.1,12.9,14.7,21.6,19.2c7.9,4.1,17,6.4,26.7,6.4V320.2
	c-29,0-53.1,21.1-57.7,48.8C454,372.1,453.6,375.4,453.6,378.9z"/>
<path class="st12" d="M459.6,442c20.3,0,36.7-16.5,36.7-36.8c0-20.3-16.4-36.8-36.7-36.8c-20.3,0-36.7,16.5-36.7,36.8
	C422.9,425.5,439.3,442,459.6,442z"/>
<path class="st12" d="M389.7,442.2c0,0.6,0,1.2,0,1.7h73.4c0-0.6,0-1.2,0-1.7V442c0-7.4-2.3-14.3-6.2-20.1
	c-6.6-9.9-17.8-16.5-30.7-16.5c-1.4,0-2.5,0-3.9,0.2C404.2,407.4,389.7,423,389.7,442.2z"/>
<path class="st12" d="M453.6,437.6c0,1.4,0,2.7,0.2,4.1c0,0.8,0.2,1.4,0.4,2.1h58.1v-35.8c-4.6-3.5-10.2-5.8-16.2-6.8
	c-1.9-0.4-3.7-0.4-5.6-0.4c-10.4,0-19.9,4.3-26.5,11.4c-2.7,2.9-5,6.2-6.8,9.7C455,426.5,453.6,432,453.6,437.6z"/>
<path class="st16" d="M337,329l-14.9,114.8h55.4L361.7,329H337z"/>
<path class="st16" d="M341.6,329l-9.3,114.8h35.1l-10-114.8H341.6z"/>
<path class="st17" d="M416.5,356.4l-11,21.1l-30.7-70.1l-1-1.9c-1.5,5-3.1,9.7-4.4,13.6c-3.9,11.4-6.8,17.8-6.8,17.8h-7.1l-1.5,40.9
	h-6.4l-1.5-40.9h-8.3c-2.5-6-4.8-11.8-7-17.8c-1.7-4.6-3.3-9.3-4.8-13.9l-1.2,2.3l-30.7,70.1l-11-21.1l3.1-59.6l25.9-40.1l0.8-1
	l0.2-0.2c-0.4-2.1-0.8-4.5-1.2-6.6h75.9c-0.4,2.1-0.8,4.1-1.2,6.2l0.4,0.6l0.8,1l25.9,40.1L416.5,356.4z"/>
<g class="st18">
	<path class="st19" d="M490.7,442.2c0,0.6,0,1.2,0,1.7h-82.5c0-0.6,0-1.2,0-1.7c0-21.1,15.6-38.3,35.9-41c1.7-0.2,3.5-0.4,5.4-0.4
		c6.2,0,12.2,1.4,17.4,3.9c13.1,6,22.4,18.8,23.8,33.7C490.7,439.5,490.7,440.9,490.7,442.2z"/>
	<path class="st19" d="M512.3,377.2v66.6h-61c-6-7.7-9.7-17.6-9.7-28.3c0-5,0.8-9.9,2.3-14.5c5.2-15.9,18.9-27.9,35.7-30.6
		c2.5-0.4,5-0.6,7.7-0.6C496.7,369.8,505.2,372.5,512.3,377.2z"/>
	<path class="st19" d="M512.3,359.5v82.3c-1.5,0.2-2.9,0.2-4.4,0.2c-6.2,0-12.2-1.4-17.4-3.9c-13.1-6-22.4-18.8-23.8-33.7
		c-0.2-1.2-0.2-2.5-0.2-3.9c0-12,5-22.8,13.1-30.4c7.3-6.8,17.2-11,28.2-11C509.4,359.3,511,359.3,512.3,359.5z"/>
</g>
<g class="st18">
	<path class="st19" d="M207.2,442.2c0,0.6,0,1.2,0,1.7h82.5c0-0.6,0-1.2,0-1.7c0-21.1-15.6-38.3-35.9-41c-1.7-0.2-3.5-0.4-5.4-0.4
		c-6.2,0-12.2,1.4-17.4,3.9c-13.1,6-22.4,18.8-23.8,33.7C207.2,439.5,207.2,440.9,207.2,442.2z"/>
	<path class="st19" d="M185.5,377.2v66.6h61c6-7.7,9.7-17.6,9.7-28.3c0-5-0.8-9.9-2.3-14.5c-5.2-15.9-18.9-27.9-35.7-30.6
		c-2.5-0.4-5-0.6-7.7-0.6C201.2,369.8,192.7,372.5,185.5,377.2z"/>
	<path class="st19" d="M185.5,359.5v82.3c1.5,0.2,2.9,0.2,4.4,0.2c6.2,0,12.2-1.4,17.4-3.9c13.1-6,22.4-18.8,23.8-33.7
		c0.2-1.2,0.2-2.5,0.2-3.9c0-12-5-22.8-13.1-30.4c-7.3-6.8-17.2-11-28.2-11C188.4,359.3,186.9,359.3,185.5,359.5z"/>
</g>
<path class="st20" d="M381.8,241.2l30.7,47.8l3.1,59.6l-10.8,21.1l-32.3-73.6L381.8,241.2z"/>
<path class="st21" d="M386.6,249c0,0-1.4,17-12.7,50.7l-4.2-7.9l14.3-46.9L386.6,249z"/>
<path class="st20" d="M316.1,241.2l-30.7,47.8l-3.1,59.6l10.8,21.1l32.3-73.6L316.1,241.2z"/>
<path class="st21" d="M311.1,249c0,0,1.4,17,12.7,50.7l4.2-7.9l-14.3-46.9L311.1,249z"/>
<path class="st12" d="M368.4,311.1c-3.9,11.4-6.8,17.8-6.8,17.8H337c-2.5-6-4.8-11.8-7-17.8c-27.6-75.5-29.2-141.9-21.4-193.8
	C319.4,44.3,348.4,0,348.4,0c25.1,37.6,37.9,78.4,43.1,118.1C401.8,200,380,277.4,368.4,311.1z"/>
<path class="st20" d="M391.2,118.1c-34.8,3.3-63.2,1.7-82.7-0.8C319.4,44.3,348.4,0,348.4,0C373.3,37.6,386,78.2,391.2,118.1z"/>
<path class="st22" d="M309.5,111.1c-0.4,1.9-0.6,4.1-1,6.2c19.7,2.5,47.9,4.1,82.7,0.8c-0.2-2.1-0.6-4.1-0.8-6.2
	C356.5,115,328.9,113.5,309.5,111.1z"/>
<path class="st22" d="M368.5,311.1c-3.9,11.4-6.8,17.8-6.8,17.8H337c-2.5-6-4.8-11.8-7-17.8H368.5z"/>
<path class="st23" d="M349.9,212.2c17.6,0,31.9-14.3,31.9-31.9c0-17.6-14.3-31.9-31.9-31.9c-17.6,0-31.9,14.3-31.9,31.9
	C318,197.9,332.3,212.2,349.9,212.2z"/>
<path class="st24" d="M381.4,182.5c2.7-17.4-9.3-33.7-26.7-36.4c-17.4-2.7-33.7,9.3-36.3,26.7c-2.7,17.4,9.3,33.7,26.7,36.4
	C362.4,211.9,378.7,199.9,381.4,182.5z"/>
<path class="st25" d="M377.5,177.7c0,13.9-10.2,25.6-23.8,27.5c-1.4,0.2-2.7,0.4-4.1,0.4c-1.5,0-3.1-0.2-4.4-0.4
	c-0.8-0.2-1.5-0.2-2.3-0.4c-5.6-1.4-10.6-4.6-14.3-8.9c-4.1-4.8-6.6-11.2-6.6-18c0-13.2,9.1-24.2,21.4-27.1c1.9-0.4,4.1-0.8,6.2-0.8
	c3.7,0,7.3,0.8,10.4,2.1c0.8,0.4,1.4,0.6,2.1,1c2.5,1.4,4.8,3.1,7,5C374.4,163,377.5,170,377.5,177.7z"/>
<path class="st26" d="M360.3,152l-17.2,52.7c-5.6-1.4-10.6-4.6-14.3-8.9l14.9-45.1c1.9-0.4,4.1-0.8,6.2-0.8
	C353.6,149.9,357,150.6,360.3,152z"/>
<path class="st26" d="M369.4,158L354,205.2c-1.4,0.2-2.7,0.4-4.1,0.4c-1.5,0-3.1-0.2-4.4-0.4l17.2-52.3
	C365,154.3,367.3,155.9,369.4,158z"/>
<path class="st27" d="M391.2,118.1C386,78.4,373.5,37.6,348.2,0c0,0-1.9,2.9-5,8.5c21.4,35,32.8,72.8,37.5,109.4
	c10.6,82.1-11.2,159.3-22.8,193.2c-3.9,11.4-6.8,17.8-6.8,17.8h10.4c0,0,2.7-6.4,6.8-17.8C380,277.4,401.9,200,391.2,118.1z"/>
<path class="st20" d="M353,369.8h-6.4l-2.1-58.7l0.8-66.2h9.3l0.6,66.2L353,369.8z"/>
<g class="st18">
	<path class="st26" d="M320.2,102.6C320.2,102.6,320,102.6,320.2,102.6c-1.9,0-3.3-1.5-3.3-3.3c0.6-23.6,18-67,18.5-68.9
		c0.6-1.7,2.5-2.5,4.2-1.7c1.7,0.6,2.5,2.5,1.7,4.3c-0.2,0.4-17.8,43.9-18.2,66.6C323.2,101.3,321.9,102.6,320.2,102.6z"/>
</g>
<path class="st12" d="M229.6,327c4.8,0,8.7-3.9,8.7-8.7c0-4.8-3.9-8.7-8.7-8.7s-8.7,3.9-8.7,8.7C220.9,323.1,224.8,327,229.6,327z"
	/>
<path class="st12" d="M196.9,330.7c4.8,0,8.7-3.9,8.7-8.7c0-4.8-3.9-8.7-8.7-8.7c-4.8,0-8.7,3.9-8.7,8.7
	C188.2,326.8,192.1,330.7,196.9,330.7z"/>
<path class="st12" d="M242.7,346.4c0,7.2-5.8,13-12.9,13c-7.1,0-12.9-5.8-12.9-13c0-7.2,5.8-13,12.9-13
	C237.1,333.6,242.7,339.2,242.7,346.4z"/>
<path class="st12" d="M254.3,381.8c4.8,0,8.7-3.9,8.7-8.7c0-4.8-3.9-8.7-8.7-8.7c-4.8,0-8.7,3.9-8.7,8.7
	C245.6,377.9,249.5,381.8,254.3,381.8z"/>
<path class="st12" d="M295,427.3c4.8,0,8.7-3.9,8.7-8.7c0-4.8-3.9-8.7-8.7-8.7c-4.8,0-8.7,3.9-8.7,8.7
	C286.3,423.4,290.2,427.3,295,427.3z"/>
<path class="st12" d="M395.1,437.6c7.1,0,12.9-5.8,12.9-13c0-7.2-5.8-13-12.9-13c-7.1,0-12.9,5.8-12.9,13
	C382.1,431.8,387.9,437.6,395.1,437.6z"/>
<path class="st12" d="M433.5,395.7c7.1,0,12.9-5.8,12.9-13c0-7.2-5.8-13-12.9-13c-7.1,0-12.9,5.8-12.9,13
	C420.6,389.9,426.4,395.7,433.5,395.7z"/>
<path class="st12" d="M463.3,368.4c7.1,0,12.9-5.8,12.9-13s-5.8-13-12.9-13c-7.1,0-12.9,5.8-12.9,13S456.1,368.4,463.3,368.4z"/>
<path class="st12" d="M470,356.8c7.1,0,12.9-5.8,12.9-13s-5.8-13-12.9-13c-7.1,0-12.9,5.8-12.9,13S462.9,356.8,470,356.8z"/>
<path class="st12" d="M484.7,348.7c7.1,0,12.9-5.8,12.9-13c0-7.2-5.8-13-12.9-13c-7.1,0-12.9,5.8-12.9,13
	C471.8,342.9,477.6,348.7,484.7,348.7z"/>
<path class="st12" d="M441.6,381c4.4,0,7.9-3.6,7.9-7.9c0-4.4-3.5-7.9-7.9-7.9c-4.4,0-7.9,3.6-7.9,7.9
	C433.7,377.5,437.3,381,441.6,381z"/>
<path class="st12" d="M408.8,414.1c0,4.1-3.3,7.4-7.3,7.4s-7.3-3.3-7.3-7.4c0-4.1,3.3-7.4,7.3-7.4S408.8,410.1,408.8,414.1z"/>
<path class="st12" d="M276.9,395.2c1.4,0,2.5-1.1,2.5-2.5c0-1.4-1.1-2.5-2.5-2.5c-1.4,0-2.5,1.1-2.5,2.5
	C274.4,394,275.5,395.2,276.9,395.2z"/>
<path class="st12" d="M436,364.2c0,1.4-1.2,2.5-2.5,2.5c-1.4,0-2.5-1.2-2.5-2.5c0-1.4,1.2-2.5,2.5-2.5
	C434.9,361.7,436,362.8,436,364.2z"/>
<path class="st12" d="M463.3,326.4c1.4,0,2.5-1.1,2.5-2.5c0-1.4-1.1-2.5-2.5-2.5c-1.4,0-2.5,1.1-2.5,2.5
	C460.7,325.3,461.9,326.4,463.3,326.4z"/>
<path class="st12" d="M292.5,401.6c0,1-0.8,1.7-1.7,1.7c-1,0-1.7-0.8-1.7-1.7c0-1,0.8-1.7,1.7-1.7
	C291.8,399.8,292.5,400.6,292.5,401.6z"/>
<path class="st12" d="M391.6,401.6c0,1-0.8,1.7-1.7,1.7c-1,0-1.7-0.8-1.7-1.7c0-1,0.8-1.7,1.7-1.7
	C390.8,399.8,391.6,400.6,391.6,401.6z"/>
<path class="st12" d="M425.6,364.2c0,1-0.8,1.7-1.7,1.7c-1,0-1.7-0.8-1.7-1.7c0-1,0.8-1.7,1.7-1.7
	C424.8,362.4,425.6,363.2,425.6,364.2z"/>
<path class="st12" d="M452.1,324.3c4.1,0,7.3-3.3,7.3-7.4c0-4.1-3.3-7.4-7.3-7.4c-4.1,0-7.3,3.3-7.3,7.4
	C444.7,321,448,324.3,452.1,324.3z"/>
<g class="st1">
	<path class="st28" d="M615.6,128.9c0,1.4,0.2,2.5,0.2,3.9"/>
	<path class="st29" d="M616.4,138.2c1.4,8.3,3.9,16.7,6.2,25"/>
	<g class="st30">
		<path class="st31" d="M259.7,180.6l20.7-3.7l-4.2-24.2l-21.2,3.7c-1-1.9-2.1-3.7-3.3-5.4l13.5-16.1l-18.7-15.9l-13.7,16.7
			c-1.9-0.8-3.9-1.5-6-1.9v-21.1h-24.5v21.7c-1.9,0.6-3.9,1.4-5.8,2.3l-13.5-16.1l-18.7,15.9l13.9,16.7c-1.2,1.7-2.1,3.7-3.1,5.4
			l-20.7-3.7l-4.2,24.2l21.2,3.7c0.2,2.1,0.6,4.1,1.2,6.2l-18.2,10.5l12.4,21.3l18.7-10.8c1.5,1.4,3.1,2.7,4.8,3.9l-7.1,19.7
			l23.2,8.5l7.3-20.3c0.8,0,1.4,0,2.1,0c1.4,0,2.7,0,4.1-0.2l7.1,19.7l23.2-8.5l-7.3-20.3c1.7-1.4,3.3-2.7,4.6-4.1l18.2,10.5
			l12.4-21.3l-18.7-10.8C259.3,184.7,259.7,182.8,259.7,180.6z M215.1,209.9c-18,0-32.4-14.5-32.4-32.5c0-18,14.5-32.5,32.4-32.5
			c18,0,32.4,14.5,32.4,32.5C247.7,195.4,233,209.9,215.1,209.9z"/>
		<path class="st32" d="M570.1,63.9L618.5,96l-3.5,24.2L570.1,63.9z"/>
		<path class="st33" d="M607.5,101.8l6.4,17l-15.6-17.6L607.5,101.8z"/>
		<path class="st34" d="M570.1,63.9l71.3,28.7L618.5,96L570.1,63.9z"/>
		<path class="st34" d="M570.1,63.9l37.5,37.9l-27.4,8.9L570.1,63.9z"/>
		<path class="st35" d="M482.9,257.1c32.3,0,58.5-26.3,58.5-58.7s-26.2-58.7-58.5-58.7s-58.5,26.3-58.5,58.7
			S450.6,257.1,482.9,257.1z"/>
		<path class="st31" d="M482.9,253.6c30.4,0,55-24.7,55-55.2c0-30.5-24.6-55.2-55-55.2s-55,24.7-55,55.2
			C427.9,228.9,452.5,253.6,482.9,253.6z"/>
		<path class="st36" d="M514.4,175.8l-11.6-10.5h-32.4v7h-14.3v65.1h44.2v-7h14.1V175.8z"/>
		<path class="st37" d="M468,162.4v65.1h44v-54.6l-11.6-10.5H468z"/>
		<path class="st11" d="M512.1,172.9l-11.6-10.5v10.5H512.1z"/>
		<path class="st38" d="M509.6,178.7h-38.6v1.9h38.6V178.7z"/>
		<path class="st38" d="M509.6,185.1h-38.6v1.9h38.6V185.1z"/>
		<path class="st38" d="M509.6,191.5h-38.6v1.9h38.6V191.5z"/>
		<path class="st38" d="M509.6,197.9h-38.6v1.9h38.6V197.9z"/>
		<path class="st38" d="M504.4,204.3h-33.4v1.9h33.4V204.3z"/>
		<path class="st38" d="M504.4,210.7h-33.4v1.9h33.4V210.7z"/>
		<path class="st38" d="M504.4,217h-33.4v1.9h33.4V217z"/>
		<path class="st39" d="M453.8,169.4v65.1h44v-54.6l-11.6-10.5H453.8z"/>
		<path class="st40" d="M497.8,179.9l-11.6-10.5v10.5H497.8z"/>
		<path class="st41" d="M495.3,185.7h-38.6v1.9h38.6V185.7z"/>
		<path class="st41" d="M495.3,192.1h-38.6v1.9h38.6V192.1z"/>
		<path class="st41" d="M495.3,198.5h-38.6v1.9h38.6V198.5z"/>
		<path class="st41" d="M495.3,204.8h-38.6v1.9h38.6V204.8z"/>
		<path class="st41" d="M490.1,211.2h-33.4v1.9h33.4V211.2z"/>
		<path class="st41" d="M490.1,217.6h-33.4v1.9h33.4V217.6z"/>
		<path class="st41" d="M490.1,224h-33.4v1.9h33.4V224z"/>
		<path class="st42" d="M488.2,82.1h-69.5V122h69.5V82.1z"/>
		<path class="st43" d="M488.2,82.1l-34.8-32.9l-34.8,32.9H488.2z"/>
		<path class="st44" d="M480.1,53.4h-53.3v62.1h53.3V53.4z"/>
		<path class="st45" d="M418.6,122l35-19.9l-35-19.9V122z"/>
		<path class="st45" d="M488.2,122L453,102l35.1-19.9V122z"/>
		<path class="st39" d="M488.2,122l-34.8-23.6L418.6,122H488.2z"/>
		<path class="st41" d="M476.2,63.9h-45v1.7h45V63.9z"/>
		<path class="st41" d="M476.2,69.5h-45v1.7h45V69.5z"/>
		<path class="st41" d="M476.2,74.9h-45v1.7h45V74.9z"/>
		<path class="st41" d="M476.2,80.3h-45v1.7h45V80.3z"/>
		<path class="st41" d="M476.2,85.8h-45v1.7h45V85.8z"/>
		<path class="st46" d="M453.4,98.4l34.8,20.7v2.9L453.4,98.4z"/>
		<path class="st46" d="M453.4,98.4l-34.8,20.7v2.9L453.4,98.4z"/>
		<path class="st47" d="M623.8,166.9c3.1,11,5.6,22.5,4.1,33.9c-1.5,12.2-8.5,24.2-19.7,28.8c-9.7,3.9-21.4,1.4-28.8-6
			c-9.5-9.7-10-24.6-8.7-37.9c0.8-6.4,2.9-13.7,8.9-15.5c5.6-1.5,10.8,2.9,14.5,7.4c12.9,15.5,19.3,36.4,17.2,56.3
			c-2.1,20.1-12.6,39.1-28.4,51.7c-22.2,17.6-52.9,21.7-76.5,37.4"/>
	</g>
	<path class="st28" d="M503.4,325.5c-1,0.8-2.1,1.6-3.1,2.3"/>
</g>
<path class="st48" d="M557.7,288.9c6-5.8,3.9-9.3,5.6-8.9c1.7,0.4,5.2,4.5,6.2,4.6c0.8,0.2,0.4,5,0.6,5.8c0,0.8-1,3.3-1,3.3
	c-0.2,0-5.4,0.6-5.6,0.8c-0.2,0-2.3-0.8-2.5-1c-0.2,0-1.9-1.6-2.3-1.7C558.2,291.2,557.7,288.9,557.7,288.9z"/>
<path class="st49" d="M557.7,288.9c6-5.8,3.9-9.3,5.6-8.9c1.7,0.4,5.2,4.5,6.2,4.6c0.8,0.2,0.4,5,0.6,5.8c0,0.8-1,3.3-1,3.3
	c-0.2,0-5.4,0.6-5.6,0.8c-0.2,0-2.3-0.8-2.5-1c-0.2,0-1.9-1.6-2.3-1.7C558.2,291.2,557.7,288.9,557.7,288.9z"/>
<path class="st50" d="M575,291.8c0.4-1,0.2-2.9-0.8-4.8c-1-1.7-1.7-3.1-2.1-5.8c-0.6-3.9-1-4.5-1.9-3.9c-0.8,0.4-1.7,2.5-1.4,5
	c0.2,1.2,0.2,1.4,0.2,2.3c0,0.6-1,2.1-0.4,5c0.6,2.7,0.4,2.1-0.6,2.3c-2.9,0.4-4.4,2.7-6.6,1.4c-3.1-1.7-3.7-3.9-3.7-3.9
	s-1.2-1.7-1.2-0.4c0,2.1,5.8,6.4,7.3,7.2c2.9,1.5,3.9,1.9,5.2,1.5c1.2-0.2,13.1,11.2,14.5,12.6c1.4,1.4,7.9-4.8,6-6.2
	C587.6,302.6,574.9,292.4,575,291.8z"/>
<path class="st51" d="M571,277.1c0.4,0.2,0.6,1,1,2.7C571.2,279.2,570.8,277.6,571,277.1z"/>
<path class="st20" d="M558.6,294.5c3.3,2.3,9.1-4.5,11.4-6.8c1.2-1.2,2.9-2.1,4.4-2.9c1.4-0.6,2.3-1,2.3-1l-8.7-4.5
	c-0.2,0.6-0.6,1.2-1,1.9c-2.5,3.5-8.5,6.8-10.4,8.1C554.4,291.2,555.3,292.4,558.6,294.5z"/>
<path class="st52" d="M567.1,281.3c0.2,0.2,0.4,0.2,0.6,0.4c1,0.4,1.9,0.8,2.7,1.4c1.4,0.6,2.7,1.2,3.9,1.9c1.4-0.6,2.3-1,2.3-1
	l-8.7-4.5C567.9,280.2,567.5,280.7,567.1,281.3z"/>
<path class="st20" d="M551.7,276.7c7.1-1.2,15.8,3.1,20.9,6.2c2.7,1.7,4.4,3.1,4.4,3.1s4.1,2.7,6.4-1l0.2-0.2
	c2.1-3.7-0.2-6.4-0.2-6.4c-1.7-1.5-3.5-2.9-4.8-4.5c-9.3-9.9-11-19.6-11-19.6l-13.7,19.4L551.7,276.7z"/>
<path class="st53" d="M551.7,276.7c7.1-1.2,15.8,3.1,20.9,6.2c1.7-2.9,4.1-6.4,6-9.1c-9.3-9.9-11-19.6-11-19.6L551.7,276.7z"/>
<path class="st27" d="M551.7,276.7c7.1-1.2,15.8,3.1,20.9,6.2c2.7,1.7,4.4,3.1,4.4,3.1s4.1,2.7,6.4-1l0.2-0.2
	c-0.6-0.2-1.4-0.2-1.9-0.2c-1.7-0.2-3.3-0.6-4.8-1.4c-2.5-1.2-4.4-3.1-6.8-4.6c-4.1-2.7-8.5-4.6-13.3-5c-1,0-2.1-0.2-3.1,0
	L551.7,276.7z"/>
<path class="st22" d="M553.8,261.4c-5.2,7.6-7.3,15.1-4.6,17c2.7,1.9,9.3-2.5,14.7-10.1c5.2-7.6,7.3-15.1,4.6-17
	C565.6,249.4,559.2,253.8,553.8,261.4z"/>
<path class="st53" d="M549.4,277.4c1,0.6,2.3,0.4,4.1-0.8c2.7-1.5,6-4.8,9.1-9.1c3.3-4.6,5.4-9.1,5.8-12.2c0.2-1.5,0-2.9-0.8-3.3
	c-2.3-1.5-8.1,2.9-13.1,9.9C549.4,268.9,547,275.9,549.4,277.4z"/>
<path class="st27" d="M554.6,272.4c-0.6,1.4-1,2.9-1.2,4.3c1.9-1.2,4.2-3.3,6.6-6c0.8-1,1.5-1.9,2.3-3.1c1-1.2,1.7-2.5,2.3-3.7
	c1.9-3.3,3.1-6.4,3.5-8.5c-3.5,1.4-6,4.3-8.3,7.2c-1.2,1.5-2.1,3.3-3.1,5v0.2C555.9,269.3,555.2,270.9,554.6,272.4z"/>
<path class="st20" d="M556.7,267.8l3.3,3.1c0.8-1,1.5-1.9,2.3-3.1c1-1.2,1.7-2.5,2.3-3.7l-3.7-2.5L556.7,267.8z"/>
<path class="st54" d="M557.8,263.9c-1.2,1.7-1.5,3.3-1,3.9c0.6,0.4,2.1-0.6,3.3-2.1c1.2-1.7,1.5-3.3,1-3.9
	C560.4,261.2,559,262.2,557.8,263.9z"/>
<path class="st20" d="M557.8,263.9c-1,1.4-1.4,2.9-0.8,3.1c0.6,0.4,1.7-0.4,2.7-1.9c1-1.4,1.4-2.9,0.8-3.1
	C560,261.8,558.8,262.5,557.8,263.9z"/>
<path class="st50" d="M561.7,286.4c1.9,1.5,3.9,2.7,4.8,1.5c0.8-1.2-0.8-2.3-2.7-3.9c-1.9-1.5-3.3-3.1-4.4-1.5
	C558.3,284.2,559.8,285,561.7,286.4z"/>
<path class="st50" d="M560.2,288.9c1.9,1.5,3.9,2.7,4.8,1.5c0.8-1.2-0.8-2.3-2.7-3.9c-1.9-1.5-3.3-3.1-4.4-1.5
	C556.7,286.6,558.3,287.3,560.2,288.9z"/>
<path class="st50" d="M559.2,291c1.7,1.4,3.5,2.7,4.2,1.7c0.8-1-0.8-2.1-2.5-3.5c-1.7-1.4-2.9-2.7-4.1-1.4
	C555.7,289.3,557.3,289.6,559.2,291z"/>
<path class="st50" d="M563.6,284c1.9,1.5,3.7,2.9,4.6,1.9c1-1-0.6-2.3-2.5-3.9c-1.9-1.5-3.1-3.3-4.2-1.7
	C560.4,281.7,561.9,282.5,563.6,284z"/>
<path class="st55" d="M640,521.8h-7.5v10.8h7.5V521.8z"/>
<path class="st55" d="M674.7,521.8h-7.5v10.8h7.5V521.8z"/>
<path class="st56" d="M643.6,538.8c0,1,0,1.6,0,1.6h-29.5c0-0.4,0-0.6,0-1c0-0.2,0-0.4,0.2-0.6c0.8-2.7,3.9-3.3,7.7-3.5
	c0.2,0,0.4,0,0.6,0c4.6-0.2,8.7-6.2,8.7-6.2c5,3.9,9.7,0,9.7,0C643.4,530.1,643.6,536.1,643.6,538.8z"/>
<path class="st57" d="M614.1,538.8h29.4c0,1,0,1.6,0,1.6h-29.5C614.1,539.8,614.1,539.2,614.1,538.8z"/>
<path class="st57" d="M621.8,535.3c0,0.2-0.2,0.6-0.2,0.8c-0.6,1.2-1.5,2.1-2.7,2.7c-1.2,0.8-2.1,1.4-3.5,1c-0.4-0.2-1-0.4-1.4-0.6
	c0-0.2,0-0.4,0.2-0.6C614.9,536.1,618.1,535.5,621.8,535.3z"/>
<path class="st56" d="M679.5,540.6h-18.7c0,0,0-0.8,0.2-1.7c0-0.2,0-0.2,0-0.4c0.2-1,0.4-1.9,0.6-2.3c0.6-1,3.1-1.7,3.7-4.1
	c0.8-2.7,4.8-3.3,4.8-3.3c2.1,0.2,5.2,1,5,3.1c0,1,1.5,3.3,2.7,3.9c0.6,0.2,1.2,1.7,1.4,2.9c0,0,0,0,0,0.2
	C679.3,539.6,679.5,540.2,679.5,540.6z"/>
<path class="st57" d="M679.5,540.6h-18.7c0,0,0-0.8,0.2-1.7h18.3C679.3,539.8,679.5,540.6,679.5,540.6z"/>
<path class="st57" d="M679.5,540.2c0,0.2,0,0.2,0,0.4c0,0,0,0,0,0.2h-18.7c0,0,0-0.8,0.2-1.7c0-0.2,0-0.2,0-0.4
	c1.2-2.1,4.8-3.9,9.1-3.9c4.4,0,8.1,1.7,9.3,4.1C679.3,539.2,679.5,539.6,679.5,540.2z"/>
<path class="st31" d="M682.4,391.7l-0.8,13l-6,118.5H666L657.1,417l-0.6,3.5l-16,104.2l-2.1,0.2h-6.6l3.7-120l0.4-13.2H682.4z"/>
<path class="st58" d="M656.6,420.5l-16,104.2l-2.1,0.2L651.5,424l-3.1-6.4L656.6,420.5z"/>
<path class="st39" d="M678,415.7c-1.7,21.5-3.7,43.6-3.1,65.1c0,2.3,0,7.9-0.2,14.3c-0.2,10.3-0.4,22.8,0,26.5c0,0.6,0.2,1,0.2,1.5
	h-0.2c0-0.4-0.2-1-0.2-1.4c-0.4-3.7-0.2-16.5,0-26.7c0.2-6.4,0.2-12,0.2-14.3c-0.6-21.5,1.2-43.8,3.1-65.2c0.4-5.4,1-11.2,1.4-16.6
	h0.2C678.9,404.7,678.4,410.3,678,415.7z"/>
<path class="st58" d="M682.4,391.7l-0.6,13c-16.4,4.8-31.9,5.6-46.4,0.2l0.4-13.2H682.4z"/>
<path class="st59" d="M684,398.7c0,1.2-0.6,2.1-1.7,2.5c-16,5-31.5,5.8-45.6,0.2c-1-0.4-1.5-1.4-1.5-2.3l3.9-67.8
	c0.6-6.2,5.2-10.8,10.8-11.4c0.4,0,0.8,0,1.2,0h18.2c0.8,0,1.4,0.2,2.1,0.2c20.7,2.9,9.3,5.6,9.7,11.6l0.2,4.1l2.7,62.7L684,398.7z"
	/>
<path class="st59" d="M655.8,321.6c4.1,2.9,1.5,9.7-2.7,12c-4.8,2.5-13.9,4.3-29.9-0.6l-9.5-3.3c0,0-29.2-15.3-36.7-25.6l5.2-6
	c0,0,28.8,17,39.8,19.6C621.8,317.7,645.4,314.2,655.8,321.6z"/>
<path class="st60" d="M677.4,402.1l2.7-43.2c-5.4-5.6-7.1-19.2-7.1-19.2l8.1-4.5l2.7,62.7L677.4,402.1z"/>
<path class="st50" d="M680.7,428.3c-1.2-0.2-0.2-3.7-0.2-5.6c0.2-1.9,0-2.3-0.4-2.1c-0.2,0.2-1.2,4.1-1.5,5.6
	c-0.4,1.7-0.8,4.5-1.9,4.3c-1.2-0.2-0.6-2.9-0.2-5.4c0.4-2.3,1.2-4.5,0.6-4.6c-0.6-0.2-2.9,8.3-3.1,8.9c-0.2,0.6-0.8,2.7-1.7,2.5
	c-1-0.2-0.8-2.1-0.6-3.1c0.2-1,0.8-3.7,1.5-5.8c0.6-2.1,1-2.9,0.6-3.1c-0.4-0.2-2.5,4.6-3.3,6.4c-0.8,1.7-1.9,3.3-2.9,2.3
	c-1-0.8,0.8-4.1,1.7-6c1-1.9,2.5-5.2,2.7-6.6c0.4-1.4,0.8-2.7,0.2-2.7c-0.2,0-0.4,0-0.4,0c-0.6-0.2-1.7,0.6-2.7,1.2
	c-0.8,0.6-2.3,0.6-3.3,0.4c-1-0.2-1.4-1,0.8-1.7c2.1-0.8,4.6-2.9,5.6-4.5c1-1.4,1.5-2.5,3.5-2.5c0.6,0,3.5-13.6,3.9-15.5
	c0.4-1.9,8.3,0.8,7.9,2.3c-0.4,1.5-5.4,14.9-4.8,15.9c0.6,0.8,0.8,1.7,0.8,4.6c0,1.4-0.4,4.3-0.6,6.4c0,0-0.6,4.3-0.8,6
	C681.8,427.7,681.8,428.5,680.7,428.3z"/>
<path class="st59" d="M672,325.3c1.2-4.8,8.3-5,12.2-1.7c4.2,3.5,9.1,11.4,10.4,28.3l0.4,10.1c0,0-3.7,31.8-10.6,42.4l-7-2.1
	c0,0,5-32.5,3.5-43.6C680.7,358.4,668.9,337.7,672,325.3z"/>
<path class="st61" d="M676.3,298.2c3.3-4.5,4.6-10.3,3.3-15.7c-0.2-1-0.8-2.1-1.7-2.5c-1.5-0.8-3.5,0.8-5.2,0.2
	c-1.9-0.6-1.9-3.3-3.1-5c-1.7-2.3-5.2-2.3-7.9-3.3c-4.4-1.9-6.6-7.6-11.2-8.9c-2.9-1-6.2,0.2-8.3,2.3c-2.1,2.1-3.5,5-4.1,7.9
	c-0.6,3.1-0.4,6.6,1.4,9.3c1.9,2.9,5.6,4.3,7.9,6.8c4.6,4.8,4.1,15.9,11,18.4C664.5,310,673,302.6,676.3,298.2z"/>
<path class="st55" d="M671.6,299.9c0.4,7.2-5.2,13.4-12.2,13.7c-6.8,0.4-12.7-4.6-13.5-11.4c0-0.2,0-0.6-0.2-1l-0.6-11.6
	c0-0.2,0-0.4,0-0.8c0-6.8,5.4-12.6,12.4-13c7.1-0.4,13.3,5.2,13.7,12.2l0.4,8.5V299.9z"/>
<path class="st61" d="M677.8,294.7c0,0-12.2,6.6-18.2-10.8C653.5,266.2,677,281.1,677.8,294.7z"/>
<path class="st55" d="M654,301.5v22.5c0,3.5,3.1,6.2,7.1,6.2c3.9,0,7.1-2.7,7.1-6.2v-22.5"/>
<path class="st61" d="M644,285.2c0,0,12.9,4.8,22,2.9c0,0-0.4-13.7-10-15.9C646.5,270.1,644,285.2,644,285.2z"/>
<path class="st62" d="M654,313.1c0,0,7.7,1.7,14.3-2.9v4.3C668.1,314.6,658.7,318.1,654,313.1z"/>
<path class="st61" d="M671.6,299.9c0.4,7.2-5.2,13.4-12.2,13.7c-6.8,0.4-12.7-4.6-13.5-11.4c1-1,3.3-1,4.4-0.6
	c1.2,0.4,1.9,1.2,3.1,1.5c2.5,1.4,5.6,1.4,8.5,1.4c0.4,0,0.8,0,1.2-0.2c0.6-0.4,0.8-1.2,0.8-1.9c0.4-3.1,0.2-6.2-0.2-9.3
	c-0.2-0.8-0.4-2.9-0.2-3.5c0.4-0.6,1.5,0.4,1.9,1c0.2,0.2,1,0.4,1.2,0.6c0.2,1.5-0.6,3.7,0.6,4.6c1.2,1,2.7,0.6,4.2,1h0.2V299.9z"/>
<path class="st55" d="M666.2,293.7c0.2,1.9,1.7,3.5,3.9,3.5c1.9-0.2,3.5-1.7,3.5-3.9c-0.2-1.9-1.7-3.5-3.9-3.5
	C667.6,290,666,291.8,666.2,293.7z"/>
<path class="st62" d="M671.2,293.9c-0.2,0.8-1,1.4-1.9,1.2c-0.8-0.2-1.4-1-1.2-1.9c0.2-0.8,1-1.4,1.9-1.2
	C670.9,292.4,671.4,293.1,671.2,293.9z"/>
</svg>
