<?xml version="1.0" encoding="utf-8"?>
<!-- Generator: Adobe Illustrator 24.0.0, SVG Export Plug-In . SVG Version: 6.00 Build 0)  -->
<svg version="1.1" id="Layer_1" xmlns="http://www.w3.org/2000/svg" xmlns:xlink="http://www.w3.org/1999/xlink" x="0px" y="0px"
	 viewBox="0 0 713 578" style="enable-background:new 0 0 713 578;" xml:space="preserve">
<style type="text/css">
	.st0{display:none;}
	.st1{display:inline;fill:#7E7E7E;}
	.st2{display:inline;fill:#6D6D6D;}
	.st3{display:inline;fill:#575757;}
	.st4{display:inline;fill:#4A4A4A;}
	.st5{display:inline;fill:#9B9B9B;}
	.st6{display:inline;fill:#818181;}
	.st7{display:inline;fill:#636363;}
	.st8{display:none;fill:#6EA0FD;}
	.st9{fill:none;stroke:#434343;stroke-linecap:round;stroke-linejoin:round;}
	.st10{fill:none;stroke:#434343;stroke-linecap:round;stroke-linejoin:round;stroke-dasharray:6.23,6.23;}
	.st11{fill:#575757;}
	.st12{fill:#ADADAD;}
	.st13{fill:#8A8A8A;}
	.st14{fill:#CDCDCD;}
	.st15{opacity:0.5;fill:#A5A5A5;enable-background:new    ;}
	.st16{fill:#434343;}
	.st17{fill:#EFEFEF;}
	.st18{fill:#C9C9C9;}
	.st19{fill:#D9D9D9;}
	.st20{fill:#FFFFFF;}
	.st21{fill:#E2E2E2;}
	.st22{fill:#F2F2F2;}
	.st23{fill:#B4B4B4;}
	.st24{fill:#E8E8E8;}
	.st25{fill:#FEFFFF;}
	.st26{fill:#E3E3E3;}
	.st27{fill:#EEEEEE;}
</style>
<g class="st0">
	<path class="st1" d="M568.3,414.5c0,0,6,6.2,11.2,13c10.4,2.7,22.2,3.5,35.7,1c-1-4.8-2.3-9.9-3.9-12.8c0,0,5.2,5.6,10.2,12
		c6.2-0.8,16.4-1.9,27.8-2.5c-1.5-4.3-3.3-8.3-5-10.8c0,0,6.2,4.8,12,10.5c14.5-0.6,29.7,0,40.2,3.3c0,0-6.8-23.6-26.1-45.1
		c-13.1,1.5-27.8,1-27.8,1c5.2-1.5,12.7-5.6,19.3-9.7c-7.7-6.8-17-13.2-28-17.6c-11.8,3.7-23.9,5.8-23.9,5.8
		c3.7-1.9,8.3-5.6,12.7-9.7c-10.8-3.1-23.2-4.5-37.1-3.7c-8.7,7-17.4,12.6-17.4,12.6c2.3-2.7,4.8-7,7-11.6
		c-16.8,2.1-35.5,7.6-56.8,17.2c0,0,15.1,42.8,52.9,57.7C570.6,420.9,569.7,417,568.3,414.5z"/>
	<path class="st2" d="M685.2,417.6c-11.6-3.9-23.4-7.6-35.2-11c-11.8-3.7-23.6-7.2-35.3-10.6c-23.6-7-47.1-13.6-70.9-19.7
		c-11.8-3.1-23.8-6-35.7-8.9c-12-2.7-23.9-5.4-35.9-7.7c-6-1.2-12-2.3-18-3.3c-6-1-12-1.9-18.2-2.7c-6-0.8-12.2-1.4-18.2-1.5
		c-3.1-0.2-6-0.2-9.1-0.2c-2.9,0.2-6,0.4-8.7,0.8c-1.7,0.2-3.5-1-3.9-2.7c-0.2-1.7,1-3.5,2.7-3.9c3.3-0.4,6.4-0.6,9.7-0.6
		c3.1,0,6.4,0,9.5,0.4c6.2,0.4,12.4,1.2,18.5,1.9c6.2,1,12.2,1.9,18.3,3.1c6,1.2,12.2,2.3,18.2,3.7c12,2.7,23.9,5.6,35.9,8.5
		c12,3.1,23.8,6.4,35.5,9.7c23.6,6.8,47.1,13.7,70.7,21.3c11.8,3.7,23.4,7.6,35.2,11.4c11.6,3.9,23.4,7.7,35,11.8
		c0.2,0,0.2,0.2,0.2,0.4C685.3,417.6,685.2,417.6,685.2,417.6z"/>
	<path class="st3" d="M535.5,401.6c0,0-3.1,12.2-5,24.2c5.4,7.9,12.7,15.1,23,20.3c0.4-8.3,1.2-16.5,3.3-19.7c0,0,0.6,10.8,1.9,22.1
		c3.3,1.4,6.8,2.5,10.4,3.5c0,0,5.2,1.5,12.9,4.1c-1-4.5-1.4-8.1-1-10.5c0,0,2.1,5.2,5,11.8c14.9,5.2,35.5,13.7,45.6,23
		c0,0,2.9-17.8-2.5-39.3c-12.4-6.4-25.3-11.4-25.3-11.4c4.2-1.7,13.3-0.2,22.4,2.3c-2.9-7.7-7-15.9-12.7-23.4
		c-11-2.5-26.8-3.3-26.8-3.3c3.1-2.7,12.6-3.5,20.7-3.7c-8.5-8.7-19.7-16.5-34.8-22.1c-11.6,1.5-22.6,4.1-22.6,4.1
		c2.3-2.3,7.7-4.6,14.1-6.8c-13.1-3.9-29-6.2-47.5-6.4c0,0-2.5,26.1,10,49.4C529.5,411.6,532.6,404.3,535.5,401.6z"/>
	<path class="st4" d="M615.6,460.6c-7.5-7.2-15.3-14.1-23-21.1s-15.5-13.9-23.4-20.9c-15.6-13.7-31.5-27.3-47.5-40.7
		c-8.1-6.6-16-13.2-24.3-19.6c-8.1-6.4-16.4-12.8-24.7-19c-4.2-3.1-8.5-6-12.7-9.1c-4.2-2.9-8.5-5.8-12.9-8.5
		c-4.4-2.7-8.9-5.4-13.3-7.7c-2.3-1.2-4.6-2.3-7-3.3c-2.3-1-4.6-1.9-7-2.5c-1.5-0.4-2.3-1.9-1.9-3.5c0.4-1.5,1.9-2.3,3.5-1.9
		c2.7,0.8,5.2,1.9,7.5,2.9c2.5,1.2,4.8,2.3,7.1,3.7c4.6,2.5,9.1,5.4,13.5,8.1c4.4,2.9,8.7,5.8,12.9,8.9c4.2,3.1,8.5,6.2,12.6,9.3
		c8.3,6.4,16.4,12.8,24.5,19.6c8.1,6.6,16,13.4,23.9,20.1c15.8,13.6,31.3,27.5,46.5,41.6c7.7,7,15.3,14.1,22.8,21.3
		c7.5,7.2,15.1,14.3,22.6,21.7v0.2C615.8,460.8,615.8,460.8,615.6,460.6z"/>
	<path class="st5" d="M599.6,327.6c0,0,9.7-4.3,19.7-7.6c7.5-10.8,13.1-24.4,15.6-41c-6-0.8-12.2-1.4-16.4-1c0,0,8.5-3.9,18-7
		c1.5-7.6,4.4-19.9,8.3-33.3c-5.4,0-11,0.4-14.7,1.5c0,0,8.1-5.2,17-9.7c5.4-17,12.2-34.5,20.3-45.3c0,0-30.1-1.9-62.8,11.8
		c-3.7,15.9-10.2,32.7-10.2,32.7c0.4-6.8-1.2-17-3.3-26.3c-11,6.2-22,14.3-31.9,25.2c-0.6,15.1-3.1,30-3.1,30c-0.8-5-3.1-12-6-18.8
		c-7.9,11.4-14.7,25-19.5,41.6c4.4,13,7.3,25.2,7.3,25.2c-2.3-3.9-6.2-8.3-10.4-12.8c-4.2,20.3-5.8,44.3-3.3,72.8
		c0,0,55.4,0,88.3-37.8C608.1,327.4,603.1,327.2,599.6,327.6z"/>
	<path class="st6" d="M651,193.4c-9.1,12-18.2,24-27,36.2c-8.9,12.2-17.8,24.4-26.7,36.6c-17.6,24.6-35,49.2-51.8,74.2
		c-8.5,12.6-16.6,25.2-24.7,37.8c-8.1,12.8-16,25.6-23.8,38.5c-3.9,6.4-7.5,13-11.2,19.6c-3.7,6.6-7.1,13.2-10.4,19.9
		c-3.3,6.8-6.4,13.6-9.3,20.3c-1.4,3.5-2.7,7-3.9,10.5c-1.2,3.5-2.1,7-2.7,10.5c-0.4,2.1-2.5,3.7-4.8,3.3c-2.1-0.4-3.7-2.5-3.3-4.8
		c0.8-3.9,1.9-7.7,3.1-11.4c1.4-3.7,2.7-7.4,4.2-10.8c3.1-7.2,6.4-13.9,9.9-20.7c3.5-6.8,7.1-13.4,11-19.9c3.9-6.6,7.7-13,11.6-19.6
		c7.9-13,16.2-25.6,24.5-38.1c8.5-12.6,17-25,25.7-37.4c17.4-24.8,35.2-49,53.3-73.2c9.1-12,18.2-24,27.4-36
		c9.3-12,18.5-23.8,27.8-35.6c0.2-0.2,0.2-0.2,0.4,0C651,193,651,193.2,651,193.4z"/>
	<path class="st1" d="M132.2,414.5c0,0-6,6.2-11.2,13c-10.4,2.7-22.2,3.5-35.7,1c1-4.8,2.3-9.9,3.9-12.8c0,0-5.2,5.6-10.2,12
		c-6.2-0.8-16.4-1.9-27.8-2.5c1.5-4.3,3.3-8.3,5-10.8c0,0-6.2,4.8-12,10.5c-14.5-0.6-29.7,0-40.2,3.3c0,0,6.8-23.6,26.1-45.1
		c13.1,1.5,27.8,1,27.8,1c-5.2-1.5-12.7-5.6-19.3-9.7c7.7-6.8,17-13.2,28-17.6c11.8,3.7,23.9,5.8,23.9,5.8
		c-3.7-1.9-8.3-5.6-12.7-9.7c10.8-3.1,23.2-4.5,37.1-3.7c8.7,7,17.4,12.6,17.4,12.6c-2.3-2.7-4.8-7-7-11.6
		c16.8,2.1,35.5,7.6,56.8,17.2c0,0-15.1,42.8-52.9,57.7C129.7,420.9,130.9,417,132.2,414.5z"/>
	<path class="st7" d="M15.4,417.6c11.6-3.9,23.4-7.6,35.2-11c11.8-3.7,23.6-7.2,35.3-10.6c23.6-7,47.1-13.6,70.9-19.7
		c11.8-3.1,23.8-6,35.7-8.9c12-2.7,23.9-5.4,35.9-7.7c6-1.2,12-2.3,18-3.3s12-1.9,18.2-2.7c6-0.8,12.2-1.4,18.2-1.5
		c3.1-0.2,6-0.2,9.1-0.2c2.9,0.2,6,0.4,8.7,0.8c1.7,0.2,3.5-1,3.9-2.7c0.2-1.7-1-3.5-2.7-3.9c-3.3-0.4-6.4-0.6-9.7-0.6
		c-3.1,0-6.4,0-9.5,0.4c-6.2,0.4-12.4,1.2-18.5,1.9c-6.2,1-12.2,1.9-18.3,3.1c-6,1.2-12.2,2.3-18.2,3.7c-12,2.7-23.9,5.6-35.9,8.5
		c-12,3.1-23.8,6.4-35.5,9.7c-23.6,6.8-47.1,13.7-70.7,21.3c-11.8,3.7-23.4,7.6-35.2,11.4c-11.6,3.9-23.4,7.7-35,11.8
		c-0.2,0-0.2,0.2-0.2,0.4C15.2,417.6,15.2,417.6,15.4,417.6z"/>
	<path class="st3" d="M165.1,401.6c0,0,3.1,12.2,5,24.2c-5.4,7.9-12.7,15.1-23,20.3c-0.4-8.3-1.2-16.5-3.3-19.7
		c0,0-0.6,10.8-1.9,22.1c-3.3,1.4-6.8,2.5-10.4,3.5c0,0-5.2,1.5-12.9,4.1c1-4.5,1.4-8.1,1-10.5c0,0-2.1,5.2-5,11.8
		c-14.9,5.2-35.5,13.7-45.6,23c0,0-2.9-17.8,2.5-39.3c12.4-6.4,25.3-11.4,25.3-11.4c-4.2-1.7-13.3-0.2-22.4,2.3
		c2.9-7.7,7-15.9,12.7-23.4c11-2.5,26.8-3.3,26.8-3.3c-3.1-2.7-12.6-3.5-20.7-3.7c8.5-8.7,19.7-16.5,34.8-22.1
		c11.6,1.5,22.6,4.1,22.6,4.1c-2.3-2.3-7.7-4.6-14.1-6.8c13.1-3.9,29-6.2,47.5-6.4c0,0,2.5,26.1-10,49.4
		C171,411.6,168,404.3,165.1,401.6z"/>
	<path class="st4" d="M84.9,460.6c7.5-7.2,15.3-14.1,23-21.1c7.7-7,15.4-13.9,23.4-20.9c15.6-13.7,31.5-27.3,47.5-40.7
		c8.1-6.6,16-13.2,24.3-19.6c8.1-6.4,16.4-12.8,24.7-19c4.2-3.1,8.5-6,12.7-9.1c4.2-2.9,8.5-5.8,12.9-8.5c4.4-2.7,8.9-5.4,13.3-7.7
		c2.3-1.2,4.6-2.3,7-3.3c2.3-1,4.6-1.9,7-2.5c1.5-0.4,2.3-1.9,1.9-3.5c-0.4-1.5-1.9-2.3-3.5-1.9c-2.7,0.8-5.2,1.9-7.5,2.9
		c-2.5,1.2-4.8,2.3-7.1,3.7c-4.6,2.5-9.1,5.4-13.5,8.1c-4.4,2.9-8.7,5.8-12.9,8.9c-4.2,3.1-8.5,6.2-12.6,9.3
		c-8.3,6.4-16.4,12.8-24.5,19.6c-8.1,6.6-16,13.4-23.9,20.1c-15.8,13.6-31.3,27.5-46.5,41.6c-7.7,7-15.3,14.1-22.8,21.3
		c-7.5,7.2-15.1,14.3-22.6,21.7v0.2C84.7,460.8,84.7,460.8,84.9,460.6z"/>
	<path class="st5" d="M100.8,327.6c0,0-9.7-4.3-19.7-7.6c-7.5-10.8-13.1-24.4-15.6-41c6-0.8,12.2-1.4,16.4-1c0,0-8.5-3.9-18-7
		c-1.5-7.6-4.4-19.9-8.3-33.3c5.4,0,11,0.4,14.7,1.5c0,0-8.1-5.2-17-9.7c-5.4-17-12.2-34.5-20.3-45.3c0,0,30.1-1.9,62.8,11.8
		c3.7,15.9,10.2,32.7,10.2,32.7c-0.4-6.8,1.2-17,3.3-26.3c11,6.2,22,14.3,31.9,25.2c0.6,15.1,3.1,30,3.1,30c0.8-5,3.1-12,6-18.8
		c7.9,11.4,14.7,25,19.5,41.6c-4.4,13-7.3,25.2-7.3,25.2c2.3-3.9,6.2-8.3,10.4-12.8c4.2,20.3,5.8,44.3,3.3,72.8
		c0,0-55.4,0-88.3-37.8C92.5,327.4,97.3,327.2,100.8,327.6z"/>
	<path class="st6" d="M49.6,193.4c9.1,12,18.2,24,27,36.2c8.9,12.2,17.8,24.4,26.7,36.6c17.6,24.6,35,49.2,51.8,74.2
		c8.5,12.6,16.6,25.2,24.7,37.8c8.1,12.8,16,25.6,23.8,38.5c3.9,6.4,7.5,13,11.2,19.6c3.7,6.6,7.1,13.2,10.4,19.9
		c3.3,6.8,6.4,13.6,9.3,20.3c1.4,3.5,2.7,7,3.9,10.5c1.2,3.5,2.1,7,2.7,10.5c0.4,2.1,2.5,3.7,4.8,3.3c2.1-0.4,3.7-2.5,3.3-4.8
		c-0.8-3.9-1.9-7.7-3.1-11.4c-1.4-3.7-2.7-7.4-4.2-10.8c-3.1-7.2-6.4-13.9-9.8-20.7c-3.5-6.8-7.1-13.4-11-19.9
		c-3.9-6.6-7.7-13-11.6-19.6c-7.9-13-16.2-25.6-24.5-38.1c-8.5-12.6-17-25-25.7-37.4c-17.4-24.8-35.2-49-53.3-73.2
		c-9.1-12-18.2-24-27.4-36S59.8,204.8,50.5,193c-0.2-0.2-0.2-0.2-0.4,0C49.6,193,49.6,193.2,49.6,193.4z"/>
</g>
<path class="st8" d="M512.3,248.8H185.5v195h326.8V248.8z"/>
<g>
	<path class="st9" d="M615.6,128.9c0,1.4,0.2,2.5,0.2,3.9"/>
	<path class="st10" d="M616.4,138.2c1.4,8.3,3.9,16.7,6.2,25"/>
	<g>
		<path class="st11" d="M259.7,180.6l20.7-3.7l-4.2-24.2l-21.2,3.7c-1-1.9-2.1-3.7-3.3-5.4l13.5-16.1l-18.7-15.9l-13.7,16.7
			c-1.9-0.8-3.9-1.5-6-1.9v-21.1h-24.5v21.7c-1.9,0.6-3.9,1.4-5.8,2.3l-13.5-16.1l-18.7,15.9l13.9,16.7c-1.2,1.7-2.1,3.7-3.1,5.4
			l-20.7-3.7l-4.2,24.2l21.2,3.7c0.2,2.1,0.6,4.1,1.2,6.2l-18.2,10.5l12.4,21.3l18.7-10.8c1.5,1.4,3.1,2.7,4.8,3.9l-7.1,19.7
			l23.2,8.5l7.3-20.3c0.8,0,1.4,0,2.1,0c1.4,0,2.7,0,4.1-0.2l7.1,19.7l23.2-8.5l-7.3-20.3c1.7-1.4,3.3-2.7,4.6-4.1l18.2,10.5
			l12.4-21.3l-18.7-10.8C259.3,184.7,259.7,182.8,259.7,180.6z M215.1,209.9c-18,0-32.4-14.5-32.4-32.5c0-18,14.5-32.5,32.4-32.5
			c18,0,32.4,14.5,32.4,32.5C247.7,195.4,233,209.9,215.1,209.9z"/>
		<path class="st12" d="M570.1,63.9L618.5,96l-3.5,24.2L570.1,63.9z"/>
		<path class="st13" d="M607.5,101.8l6.4,17l-15.6-17.6L607.5,101.8z"/>
		<path class="st14" d="M570.1,63.9l71.3,28.7L618.5,96L570.1,63.9z"/>
		<path class="st14" d="M570.1,63.9l37.5,37.9l-27.4,8.9L570.1,63.9z"/>
		<path class="st15" d="M482.9,257.1c32.3,0,58.5-26.3,58.5-58.7s-26.2-58.7-58.5-58.7s-58.5,26.3-58.5,58.7
			S450.6,257.1,482.9,257.1z"/>
		<path class="st11" d="M482.9,253.6c30.4,0,55-24.7,55-55.2c0-30.5-24.6-55.2-55-55.2s-55,24.7-55,55.2
			C427.9,228.9,452.5,253.6,482.9,253.6z"/>
		<path class="st16" d="M514.4,175.8l-11.6-10.5h-32.4v7h-14.3v65.1h44.2v-7h14.1V175.8z"/>
		<path class="st17" d="M468,162.4v65.1h44v-54.6l-11.6-10.5H468z"/>
		<path class="st18" d="M512.1,172.9l-11.6-10.5v10.5H512.1z"/>
		<path class="st19" d="M509.6,178.7h-38.6v1.9h38.6V178.7z"/>
		<path class="st19" d="M509.6,185.1h-38.6v1.9h38.6V185.1z"/>
		<path class="st19" d="M509.6,191.5h-38.6v1.9h38.6V191.5z"/>
		<path class="st19" d="M509.6,197.9h-38.6v1.9h38.6V197.9z"/>
		<path class="st19" d="M504.4,204.3h-33.4v1.9h33.4V204.3z"/>
		<path class="st19" d="M504.4,210.7h-33.4v1.9h33.4V210.7z"/>
		<path class="st19" d="M504.4,217h-33.4v1.9h33.4V217z"/>
		<path class="st20" d="M453.8,169.4v65.1h44v-54.6l-11.6-10.5H453.8z"/>
		<path class="st21" d="M497.8,179.9l-11.6-10.5v10.5H497.8z"/>
		<path class="st22" d="M495.3,185.7h-38.6v1.9h38.6V185.7z"/>
		<path class="st22" d="M495.3,192.1h-38.6v1.9h38.6V192.1z"/>
		<path class="st22" d="M495.3,198.5h-38.6v1.9h38.6V198.5z"/>
		<path class="st22" d="M495.3,204.8h-38.6v1.9h38.6V204.8z"/>
		<path class="st22" d="M490.1,211.2h-33.4v1.9h33.4V211.2z"/>
		<path class="st22" d="M490.1,217.6h-33.4v1.9h33.4V217.6z"/>
		<path class="st22" d="M490.1,224h-33.4v1.9h33.4V224z"/>
		<path class="st23" d="M488.2,82.1h-69.5V122h69.5V82.1z"/>
		<path class="st24" d="M488.2,82.1l-34.8-32.9l-34.8,32.9H488.2z"/>
		<path class="st25" d="M480.1,53.4h-53.3v62.1h53.3V53.4z"/>
		<path class="st26" d="M418.6,122l35-19.9l-35-19.9V122z"/>
		<path class="st26" d="M488.2,122L453,102l35.1-19.9V122z"/>
		<path class="st20" d="M488.2,122l-34.8-23.6L418.6,122H488.2z"/>
		<path class="st22" d="M476.2,63.9h-45v1.7h45V63.9z"/>
		<path class="st22" d="M476.2,69.5h-45v1.7h45V69.5z"/>
		<path class="st22" d="M476.2,74.9h-45v1.7h45V74.9z"/>
		<path class="st22" d="M476.2,80.3h-45v1.7h45V80.3z"/>
		<path class="st22" d="M476.2,85.8h-45v1.7h45V85.8z"/>
		<path class="st27" d="M453.4,98.4l34.8,20.7v2.9L453.4,98.4z"/>
		<path class="st27" d="M453.4,98.4l-34.8,20.7v2.9L453.4,98.4z"/>
		<path class="st10" d="M623.8,166.9c3.1,11,5.6,22.5,4.1,33.9c-1.5,12.2-8.5,24.2-19.7,28.8c-9.7,3.9-21.4,1.4-28.8-6
			c-9.5-9.7-10-24.6-8.7-37.9c0.8-6.4,2.9-13.7,8.9-15.5c5.6-1.5,10.8,2.9,14.5,7.4c12.9,15.5,19.3,36.4,17.2,56.3
			c-2.1,20.1-12.6,39.1-28.4,51.7c-22.2,17.6-52.9,21.7-76.5,37.4"/>
	</g>
	<path class="st9" d="M503.4,325.5c-1,0.8-2.1,1.6-3.1,2.3"/>
</g>
</svg>
