<?xml version="1.0" encoding="utf-8"?>
<!-- Generator: Adobe Illustrator 24.0.0, SVG Export Plug-In . SVG Version: 6.00 Build 0)  -->
<svg version="1.1" id="Layer_1" xmlns="http://www.w3.org/2000/svg" xmlns:xlink="http://www.w3.org/1999/xlink" x="0px" y="0px"
	 viewBox="0 0 699 530" style="enable-background:new 0 0 699 530;" xml:space="preserve">
<style type="text/css">
	.st0{opacity:0.6;fill:#E3E3E3;enable-background:new    ;}
	.st1{opacity:0.5;fill:#FFFFFF;enable-background:new    ;}
	.st2{display:none;}
	.st3{display:inline;opacity:0.6;fill:#E3E3E3;enable-background:new    ;}
	.st4{fill:#616161;}
	.st5{fill:#FFFFFF;}
	.st6{fill:#D02E1B;}
	.st7{fill:#353535;}
	.st8{fill:#565656;}
	.st9{opacity:0.6;fill:#D02E1B;enable-background:new    ;}
	.st10{fill:#B2B2B2;}
	.st11{opacity:0.6;fill:#F1F1F1;enable-background:new    ;}
	.st12{opacity:0.6;fill:#E7E7E7;enable-background:new    ;}
	.st13{fill:#3D3D3D;}
	.st14{fill:#252525;}
	.st15{fill:#828282;}
	.st16{opacity:0.6;fill:#F7F7F7;enable-background:new    ;}
	.st17{fill:#E3E3E3;}
	.st18{fill:#BFBFBF;}
	.st19{fill:#A8A8A8;}
	.st20{fill:#262626;}
	.st21{fill:#555555;}
	.st22{fill:#EDEDED;}
	.st23{fill:#0F0F0F;}
	.st24{fill:#7E7E7E;}
	.st25{fill:#9C9C9C;}
	.st26{fill:#CFCFCF;}
	.st27{opacity:0.3;fill:#FFFFFF;enable-background:new    ;}
	.st28{fill:#FA8A00;}
	.st29{opacity:0.2;fill:#FFFFFF;enable-background:new    ;}
	.st30{fill:#FFCE4F;}
	.st31{display:inline;fill:#D7D7D7;}
	.st32{display:inline;fill:#616161;}
	.st33{display:inline;fill:#B2B2B2;}
	.st34{display:inline;fill:#FFFFFF;}
</style>
<path class="st0" d="M661.5,322.7c-4.8,24.9-14.1,48.2-26.9,68.5c-35.6,56.7-98.6,93.2-168.8,93.2H331.1
	c-54.7,0-106.7-22.4-144.4-61.9c-1.7-1.7-3.3-3.5-4.8-5.2c-20.9-23.7-36-51.7-44.1-82c-2.7-10.2-4.6-20.4-5.6-30.9
	c0-0.2,0-0.4,0-0.8c-1.9-19.1-2.5-37.4-1.5-54.6c2.1-38.4,11.8-71.9,30.5-96.8c21.8-29.1,55.7-46.5,104.4-46.9c2.1,0,4.1,0,6.2,0
	c134,2.1,129.7,63.3,239.5,90.3c25.1,6.2,56.1,10.6,96.3,11.8c0.8,0,1.9,0,2.7,0.2C666.7,211.4,672.7,264.2,661.5,322.7z"/>
<path class="st1" d="M610.3,207.7c-37.9,19.9-97.4,41.1-168.8,33.4c-108.6-11.8-245.3-34.5-310.7,8.1c2.1-38.4,11.8-71.9,30.5-96.8
	c23-5.4,52-5.6,88.9,3.9c79.8,20.6,183.3,43.2,261.2,39.3c25.1,6.2,56.1,10.6,96.3,11.8C608.5,207.7,609.5,207.7,610.3,207.7z"/>
<path class="st1" d="M661.5,322.7c-4.8,24.9-14.1,48.2-26.9,68.5c-27.6,8.3-64,11.4-111.5,1c-115.6-25.3-242.6-24.9-336.4,30.1
	c-1.7-1.7-3.3-3.5-4.8-5.2c-20.9-23.7-36-51.7-44.1-82c32.7-15.6,114.8-45.7,220.6-21.6C470.1,339.4,597.9,359.7,661.5,322.7z"/>
<g class="st2">
	<path class="st3" d="M0,54c0,2.7,1,5,2.7,6.6c1.7,1.7,4.1,2.7,6.6,2.7h203.2c5.2,0,9.5-4.4,9.5-9.6c0-2.7-1-5-2.9-6.6
		c-1.7-1.7-4.1-2.9-6.6-2.9h-9.3c-3.7-8.9-12.6-15-22.8-15c-6.8,0-13.1,2.7-17.6,7.3c-6-10.2-17-17-29.6-17c-3.5,0-6.8,0.6-9.9,1.5
		C116.6,8.5,103.6,0,88.5,0c-18,0-33.4,12.3-37.9,28.9c-3.3-1.7-7-2.7-11.2-2.7c-11.2,0-20.7,7.5-23.8,17.9H9.3
		C4.4,44.4,0,48.8,0,54z"/>
	<path class="st3" d="M437.5,44.9c0,1.7-0.6,3.3-1.9,4.4c-1,1-2.7,1.9-4.3,1.9H299.6c-3.3,0-6.2-2.7-6.2-6.2c0-1.7,0.6-3.3,1.9-4.4
		c1-1,2.7-1.9,4.4-1.9h6.2c2.5-5.8,8.1-9.8,14.7-9.8c4.4,0,8.5,1.9,11.4,4.8c3.9-6.6,11-11,19.3-11c2.3,0,4.3,0.4,6.4,1
		c4.3-8.1,12.8-13.5,22.6-13.5c11.8,0,21.5,7.9,24.7,18.7c2.1-1,4.6-1.7,7.3-1.7c7.3,0,13.5,5,15.3,11.6h3.9
		C434.8,38.6,437.5,41.3,437.5,44.9z"/>
	<path class="st3" d="M486.2,51.5c0,2.5,1,4.8,2.7,6.4c1.7,1.7,3.9,2.7,6.4,2.7h194.1c5,0,9.1-4.2,9.1-9.1c0-2.5-1-4.8-2.7-6.4
		c-1.7-1.7-3.9-2.7-6.4-2.7h-9.1c-3.5-8.5-12-14.3-21.8-14.3c-6.6,0-12.4,2.7-16.8,7.1c-5.8-9.8-16.4-16.2-28.4-16.2
		c-3.3,0-6.4,0.4-9.5,1.5C597.7,8.5,585,0.4,570.7,0.4c-17.2,0-31.9,11.6-36.3,27.6c-3.1-1.7-6.8-2.5-10.6-2.5
		c-10.8,0-19.9,7.3-22.8,17h-5.8C490.4,42.6,486.2,46.5,486.2,51.5z"/>
</g>
<path class="st0" d="M358,530c185.8,0,336.4-8.2,336.4-18.3c0-10.1-150.6-18.3-336.4-18.3s-336.4,8.2-336.4,18.3
	C21.5,521.8,172.2,530,358,530z"/>
<path class="st4" d="M591.3,170.9c23.7-43.1,8-97.3-35-121c-43-23.7-97-8-120.7,35.1c-23.7,43.1-8,97.3,35,121
	C513.5,229.7,567.6,214,591.3,170.9z"/>
<path class="st5" d="M535.3,194.8c36.9-12.1,56.9-51.9,44.9-88.8c-12.1-37-51.7-57.1-88.6-45c-36.9,12.1-56.9,51.9-44.9,88.8
	C458.7,186.8,498.4,206.9,535.3,194.8z"/>
<path class="st4" d="M522.7,178.8c28-5.2,46.5-32.2,41.4-60.2C558.9,90.4,532,71.9,504,77.1c-28,5.2-46.5,32.2-41.4,60.2
	C467.8,165.4,494.7,184,522.7,178.8z"/>
<path class="st5" d="M515.2,160.9c18.2-1,32-16.6,31-34.8c-1-18.2-16.6-32.1-34.8-31.1c-18.2,1-32,16.6-31,34.8
	C481.5,148,497.1,161.9,515.2,160.9z"/>
<path class="st6" d="M517.3,141.6c-7.7,2.1-15.5-2.3-17.6-10c-2.1-7.7,2.3-15.6,9.9-17.7c7.7-2.1,15.5,2.3,17.6,10
	C529.3,131.7,524.9,139.6,517.3,141.6z"/>
<path class="st7" d="M612.8,73.1l-21.5-3.3l3.3-21.6c0.2-1.2-0.6-2.5-1.9-2.7c-1.2-0.2-2.5,0.6-2.7,1.9l-3.5,23.3l-8.3,6l2.9-18.7
	c0.2-1.2-0.6-2.5-1.9-2.5c-1.2-0.2-2.5,0.6-2.7,1.9L573,80.6l-10.4,7.7l2.9-18.7c0.2-1.2-0.6-2.5-1.9-2.7c-1.2-0.2-2.5,0.6-2.7,1.9
	L557.5,92l-43.9,32.4c-1,2.5-0.6,4.2,0,5.6l47-34.7l22.4,3.3c1.2,0.2,2.5-0.6,2.7-1.9c0.2-1.2-0.6-2.5-1.9-2.7L566,91.4l10.4-7.7
	l22.4,3.3c1.2,0.2,2.5-0.6,2.7-1.9c0.2-1.2-0.6-2.5-1.9-2.5L581.7,80l8.3-6l22.4,3.3c1.2,0.2,2.5-0.6,2.7-1.9
	C614.9,74.4,614,73.3,612.8,73.1z"/>
<path class="st8" d="M454.9,362.8H151.9c-8.3,0-14.9-6.6-14.9-15V181.5c0-8.3,6.6-15,14.9-15h302.9c8.3,0,14.9,6.6,14.9,15v166.4
	C469.6,356.2,463,362.8,454.9,362.8z"/>
<path class="st5" d="M145.6,339.4V190c0-8.3,6.6-15,14.9-15h285.9c8.3,0,14.9,6.6,14.9,15v149.3c0,8.3-6.6,15-14.9,15H160.6
	C152.3,354.3,145.6,347.7,145.6,339.4z"/>
<path class="st4" d="M384.3,269.2c0,30.7-24.9,55.7-55.5,55.7s-55.5-24.9-55.5-55.7c0-7.7,1.5-15,4.4-21.6l51.4,21.6l-2.7-55.7
	c0.8,0,1.7,0,2.7,0C359.4,213.3,384.3,238.4,384.3,269.2z"/>
<path class="st6" d="M321.1,204.8c-16.6,0.8-31.3,8.9-41,21.2c-3.1,3.9-5.8,8.3-7.7,13.1l51.4,21.6L321.1,204.8z"/>
<path class="st6" d="M411.2,230.7h-7.7v7.7h7.7V230.7z"/>
<path class="st9" d="M443.3,235.5H417c-0.2,0-0.6-0.2-0.6-0.6v-0.8c0-0.2,0.2-0.6,0.6-0.6h26.3c0.2,0,0.6,0.2,0.6,0.6v0.8
	C444,235.3,443.5,235.5,443.3,235.5z"/>
<path class="st10" d="M411.2,244.4h-7.7v7.7h7.7V244.4z"/>
<path class="st11" d="M443.3,249.2H417c-0.2,0-0.6-0.2-0.6-0.6v-0.8c0-0.2,0.2-0.6,0.6-0.6h26.3c0.2,0,0.6,0.2,0.6,0.6v0.8
	C444,249,443.5,249.2,443.3,249.2z"/>
<path class="st12" d="M442.9,276h-38.3c-0.6,0-1-0.4-1-1c0-0.6,0.4-1,1-1h38.3c0.6,0,1,0.4,1,1C444,275.6,443.5,276,442.9,276z"/>
<path class="st12" d="M442.9,283.9h-38.3c-0.6,0-1-0.4-1-1c0-0.6,0.4-1,1-1h38.3c0.6,0,1,0.4,1,1C444,283.5,443.5,283.9,442.9,283.9
	z"/>
<path class="st12" d="M442.9,291.8h-38.3c-0.6,0-1-0.4-1-1c0-0.6,0.4-1,1-1h38.3c0.6,0,1,0.4,1,1C444,291.4,443.5,291.8,442.9,291.8
	z"/>
<path class="st12" d="M442.9,299.7h-38.3c-0.6,0-1-0.4-1-1c0-0.6,0.4-1,1-1h38.3c0.6,0,1,0.4,1,1C444,299.3,443.5,299.7,442.9,299.7
	z"/>
<path class="st12" d="M442.9,307.6h-38.3c-0.6,0-1-0.4-1-1c0-0.6,0.4-1,1-1h38.3c0.6,0,1,0.4,1,1C444,307.2,443.5,307.6,442.9,307.6
	z"/>
<path class="st12" d="M442.9,315.5h-38.3c-0.6,0-1-0.4-1-1s0.4-1,1-1h38.3c0.6,0,1,0.4,1,1S443.5,315.5,442.9,315.5z"/>
<path class="st12" d="M442.9,323.4h-38.3c-0.6,0-1-0.4-1-1c0-0.6,0.4-1,1-1h38.3c0.6,0,1,0.4,1,1C444,322.7,443.5,323.4,442.9,323.4
	z"/>
<path class="st4" d="M182.7,290.8h-14.5v35.1h14.5V290.8z"/>
<path class="st6" d="M204.1,265.8h-14.5v60h14.5V265.8z"/>
<path class="st4" d="M227.7,247.3h-14.5v78.3h14.5V247.3z"/>
<path class="st6" d="M250.9,226h-14.5v99.9h14.5V226z"/>
<path class="st6" d="M224.2,210.6l10.2,3.7l-1.2-11.8L224.2,210.6z"/>
<path class="st6" d="M164.3,273.7c-0.4,0-0.8-0.2-1-0.6c-0.2-0.6,0-1.2,0.6-1.5c0.4-0.2,43.9-16.8,65.3-61.9
	c0.2-0.6,0.8-0.8,1.5-0.4c0.6,0.2,0.8,0.8,0.4,1.5c-21.5,45.7-65.9,62.7-66.5,62.9C164.5,273.7,164.5,273.7,164.3,273.7z"/>
<path class="st8" d="M648.8,224.7v276.2c0,8.7-7,15.6-15.5,15.6H496.2c-4.3,0-8.3-1.9-11.2-4.6c-2.9-2.9-4.6-6.6-4.6-11V224.7
	c0-8.7,7-15.6,15.5-15.6h137.1c2.5,0,5,0.6,7,1.7C645.5,213.5,648.8,218.7,648.8,224.7z"/>
<path class="st13" d="M648.8,224.7v276.2c0,8.7-7,15.6-15.5,15.6H496.2c-4.4,0-8.3-1.9-11.2-4.6l155.4-301.1
	C645.5,213.5,648.8,218.7,648.8,224.7z"/>
<path class="st14" d="M480.4,287.6h-1.9c-1.5,0-2.7-1.2-2.7-2.7v-23.5c0-1.5,1.2-2.7,2.7-2.7h1.9V287.6z"/>
<path class="st14" d="M648.8,287.6h1.9c1.5,0,2.7-1.2,2.7-2.7v-23.5c0-1.5-1.2-2.7-2.7-2.7h-1.9V287.6z"/>
<path class="st14" d="M480.4,326.5h-1.9c-1.5,0-2.7-1.2-2.7-2.7v-23.5c0-1.5,1.2-2.7,2.7-2.7h1.9V326.5z"/>
<path class="st5" d="M488.3,496.4V229.3c0-6.9,5.6-12.5,12.4-12.5h128c6.8,0,12.4,5.6,12.4,12.5v267.1c0,6.9-5.6,12.5-12.4,12.5
	h-128C493.9,508.8,488.3,503.2,488.3,496.4z"/>
<path class="st6" d="M620.2,276l-1.9,21l-6-4.8l-32.7,41.1l-12-9.6L543,354.7l-5.8-4.8l-6-4.8l-26.1,32.6c-1.2,1.5-3.5,1.9-5,0.6
	c-1.7-1.2-2.1-3.7-0.8-5.4l30.7-38.8l12,9.6l15.5-19.5l9.1-11.4l6,4.8l6,4.8l28-35.1l-6-4.8L620.2,276z"/>
<path class="st15" d="M581.7,371.1h-34.2v122.5h34.2V371.1z"/>
<path class="st4" d="M547.5,459c10.2-0.2,22.2-0.2,34.2-1v35.7h-34.2V459z"/>
<path class="st6" d="M629.6,336.6h-34.2v156.8h34.2V336.6z"/>
<path class="st13" d="M629.6,445.9v47.8h-34.2v-37C608.2,455,620.2,451.9,629.6,445.9z"/>
<path class="st6" d="M533.9,400.4h-34.2v93h34.2V400.4z"/>
<path class="st13" d="M533.9,459.8v33.6h-34.2v-14.3C503.2,474.1,513.1,462.9,533.9,459.8z"/>
<path class="st6" d="M513.6,254.2h-7.7v7.7h7.7V254.2z"/>
<path class="st9" d="M545.5,259h-26.3c-0.2,0-0.6-0.2-0.6-0.6v-0.8c0-0.2,0.2-0.6,0.6-0.6h26.3c0.2,0,0.6,0.2,0.6,0.6v0.8
	C546.1,258.6,545.9,259,545.5,259z"/>
<path class="st10" d="M513.6,267.7h-7.7v7.7h7.7V267.7z"/>
<path class="st16" d="M545.5,272.5h-26.3c-0.2,0-0.6-0.2-0.6-0.6V271c0-0.2,0.2-0.6,0.6-0.6h26.3c0.2,0,0.6,0.2,0.6,0.6v0.8
	C546.1,272.3,545.9,272.5,545.5,272.5z"/>
<path class="st11" d="M545,291.8h-38.3c-0.6,0-1-0.4-1-1c0-0.6,0.4-1,1-1H545c0.6,0,1,0.4,1,1C546.1,291.4,545.7,291.8,545,291.8z"
	/>
<path class="st11" d="M545,299.7h-38.3c-0.6,0-1-0.4-1-1c0-0.6,0.4-1,1-1H545c0.6,0,1,0.4,1,1C546.1,299.3,545.7,299.7,545,299.7z"
	/>
<path class="st11" d="M545,307.6h-38.3c-0.6,0-1-0.4-1-1c0-0.6,0.4-1,1-1H545c0.6,0,1,0.4,1,1C546.1,307.2,545.7,307.6,545,307.6z"
	/>
<path class="st11" d="M545,315.5h-38.3c-0.6,0-1-0.4-1-1c0-0.6,0.4-1,1-1H545c0.6,0,1,0.4,1,1C546.1,315.1,545.7,315.5,545,315.5z"
	/>
<path class="st8" d="M607.2,230.7h-85.1c-2.5,0-4.6-2.1-4.6-4.8v-6.6c0-2.5,2.1-4.6,4.6-4.6h85.1c2.5,0,4.8,2.1,4.8,4.6v6.6
	C612,228.7,609.9,230.7,607.2,230.7z"/>
<path class="st14" d="M587.9,223.7h-54.5c-0.6,0-1.2-0.4-1.2-1.2v-1.7c0-0.6,0.4-1.2,1.2-1.2h54.5c0.6,0,1.2,0.4,1.2,1.2v1.7
	C589.2,223.3,588.6,223.7,587.9,223.7z"/>
<path class="st17" d="M602.8,221.6c0,1.2-1,2.3-2.3,2.3c-1.2,0-2.3-1-2.3-2.3s1-2.3,2.3-2.3C601.8,219.3,602.8,220.4,602.8,221.6z"
	/>
<path class="st18" d="M203.6,230.5c-1.9-0.6-9.9,3.7-10.4,3.7c-0.4,0-1.9-0.4-3.5-0.6c-1.7-0.2-2.5,0.2-3.9,2.5
	c-1.2,2.1-2.5,5.8-2.5,5.8c-0.8,0.2-1.7,0.6-2.5,1c1.2,2.5,2.5,4.8,3.7,7.3c1.5-0.8,2.7-1.5,3.7-2.1c0.8,0.2,1.7,0.4,2.3,0.2
	c1.9-0.4,3.5-1,4.6-1.2c0.6-0.2,0.8-0.4,0.8-0.4c0.2,0,1,0.4,2.9,0c2.1-0.6,3.3-2.1,3.3-2.9c0-1-1-1.7-1-1.7s0.8-0.6,0.8-1.7
	c0-1-1.9-2.1-1.9-2.1s0.8-1,0.2-2.1c-0.6-1-3.1-0.2-3.3,0C197.6,235.9,205.5,230.9,203.6,230.5z"/>
<path class="st19" d="M188.5,239.9h-0.2c-0.2-0.2-0.2-0.4-0.2-0.6l1-1.9c0-0.2,0.2-0.2,0.2-0.2c0.2,0,0.2,0,0.4,0
	c0,0,2.1,1.2,3.9,0.8c0.6-0.2,1-0.4,1-0.6c0.2-0.4,0-0.6,0-0.6c0-0.2,0-0.4,0.2-0.6c0.2,0,0.4,0,0.6,0.2c0,0,0.2,0.8,0,1.5
	c-0.2,0.6-0.8,1-1.7,1.2c-1.7,0.4-3.3-0.4-4.1-0.6l-0.8,1.5C188.7,239.7,188.5,239.9,188.5,239.9z"/>
<path class="st19" d="M196.4,246.5c0,0-0.4,0-1,0.2c-0.8-0.8-0.8-2.1-0.8-2.9c0-0.8,0-1.5-0.4-2.1c-0.4-0.4-0.6-1-0.6-1.7
	s0-1,0.2-1.5c0-0.2,0-0.2,0.2-0.4c0.2-0.4,0.2-0.6,0.2-0.6c0.2-0.2,0.4-0.2,0.6-0.2c0.2,0.2,0.2,0.4,0.2,0.6
	c-0.2,0.2-0.4,0.8-0.4,1.7c0,0.4,0.2,0.8,0.4,1.2c0.6,0.6,0.6,1.7,0.6,2.5C195.6,244.9,195.6,245.9,196.4,246.5z"/>
<path class="st19" d="M190.2,243.4c-0.2,0-0.4,0-0.4-0.2c0-0.2,0-0.4,0.2-0.6c0,0,2.7-1.2,2.9-3.7c0-0.2,0.2-0.4,0.4-0.4
	s0.4,0.2,0.4,0.4C193.5,241.7,190.6,243.2,190.2,243.4C190.4,243.4,190.4,243.4,190.2,243.4z"/>
<path class="st4" d="M181.3,242.8c-16.6,5.6-29,9.3-41.8,12.5c-23,5.6-35.2,2.3-35.2,2.3l8.7,16l1.4,2.9c2.5,0.6,5.6,0.8,8.5,0.4
	c8.7-0.8,17.6-4.6,17.6-4.6c23.6-9.3,39.2-16.6,45.6-21.2L181.3,242.8z"/>
<path class="st13" d="M180.6,241.5l-3.9,1.9l5.6,10.4l3.9-2.3L180.6,241.5z"/>
<path class="st13" d="M122.6,276.6c-3.1,0.2-6,0.2-8.5-0.4l-1.5-2.9c0.4-1.5,1.2-2.5,2.7-3.1C115.4,270.2,117.5,274.3,122.6,276.6z"
	/>
<path class="st18" d="M55.3,476l-6.8,9.1c0,0,1.2,4.2,6.2,7.3l8.1-10.4L55.3,476z"/>
<path class="st10" d="M53.6,489.3c0,0,3.1-0.6,4.1,0.4c1,1,3.7,16,6.4,19.3c2.5,3.3,0,5-1.7,5.6c-1.7,0.6-24-21.8-24-21.8
	s5.6-7.7,8.3-9.1C49.5,482.2,50.7,487.8,53.6,489.3z"/>
<path class="st18" d="M96.7,491.6l1,11.2c0,0,3.5,2.3,9.3,1.2l-1-13.1L96.7,491.6z"/>
<path class="st10" d="M105.2,502.4c0,0,2.1-2.7,3.5-2.7c1.7,0,14.1,9.8,18.4,10.6c4.1,0.8,3.5,3.9,2.7,5.4
	c-0.8,1.7-33.6,0.6-33.6,0.6s-1.2-10.6-0.2-13.7C96.9,499.7,101.9,503.2,105.2,502.4z"/>
<path class="st20" d="M90.5,369.3L83.7,426c0,0-6.2,8.3-12,18.9c-5,8.9-18,32.2-18,32.2l7.9,6l43.3-44.9l11.6-69.4L90.5,369.3z"/>
<path class="st7" d="M63.6,482.9c-0.6,1.9-2.1,2.9-3.5,3.9l-9.1-7.7c0.8-1.7,1.9-3.1,3.1-4.2L63.6,482.9z"/>
<path class="st7" d="M55.5,371.5c0,0,12.2,30.1,28,53.4c0,0,2.3,22.8,6.4,34.9c1.9,5.4,5.2,30.5,5.2,30.5l12-0.6l-3.1-70L91.3,369
	L55.5,371.5z"/>
<path class="st21" d="M108.3,489.3c0.8,2.1,0.6,4.2,0,6.2l-13.9,0.4c-0.6-2.1-0.8-3.9-0.6-6L108.3,489.3z"/>
<path class="st4" d="M118.3,367.6c0,2.5,0,4.4,0,5.8c-5.8,1.7-11.6,2.7-17.4,3.3c-0.2,0-0.2,0-0.4,0c-0.2,0-0.4,0-0.8,0h-0.2
	c-1,0.2-2.1,0.2-3.1,0.2c-5,0.4-9.9,0.4-14.9,0.2c-0.4,0-0.8,0-1.2,0c-0.4,0-0.8,0-1.2,0c-0.2,0-0.4,0-0.6,0c-0.4,0-0.6,0-1,0
	c-7.3-0.6-14.7-1.9-22-3.9c0-2.9,0-8.7,0-16.4c0-0.4,0-0.8,0-1.2c0-8.3,0-18.7,0.2-29.3c0-0.8,0-1.7,0-2.5c0-1,0-1.9,0-2.9
	c0-0.2,0-0.4,0-0.4c0-0.2,0-0.4,0-0.6c0-0.4,0-0.8,0-1.5c0-0.6,0-1.2,0-2.1c0-0.4,0-1,0-1.5c0-1,0-2.1,0-3.1
	c0.4-21.2,1-40.5,2.5-45.5c0.2-0.4,0.2-0.8,0.4-1c0.2-0.2,0.4-0.4,0.6-0.6c0.2-0.2,0.6-0.6,0.8-0.8c2.3-2.1,6.2-4.6,10.2-6.9
	c0.4-0.2,0.8-0.6,1.5-0.8l10.8-3.7l11.2,0.8c1.2,0.8,12,4.4,13.3,5.2c0.4,0.2,0.8,0.4,1,0.6c3.1,1.9,5.6,3.9,6.8,5.6
	c1.7,2.5,2.7,23.9,3.1,47.4c0,0.6,0,1,0,1.7c0,2.5,0.2,5,0.2,7.5c0,2.5,0,5,0.2,7.3c0,3.9,0.2,7.9,0.2,11.6c0,0.4,0,0.8,0,1.2
	c0,3.7,0,7.3,0.2,10.6c0,0.4,0,0.8,0,1.2c0,5,0,9.3,0,12.9C118.3,366.8,118.3,367.2,118.3,367.6z"/>
<path class="st13" d="M97.6,286l12.8-0.8c0,0,0.4,15.6-6.4,15.2C97.4,299.9,97.6,286,97.6,286z"/>
<path class="st13" d="M66.3,293.9c0-0.6-0.6-0.8-1-0.4c-4.6,6-7.3,12.5-8.9,17.4c-0.4,1.2-0.8,2.5-1,3.7c0,0.4,0,1,0,1.5
	c0,0.6,0,1.2,0,2.1c0,0.4,0,0.8,0,1.5c0,0.2,0,0.4,0,0.6c0,0.2,0,0.4,0,0.4c0.4-2.5,1-5.8,2.3-9.6C59.2,306.1,61.7,299.7,66.3,293.9
	C66.3,293.9,66.3,294.1,66.3,293.9z"/>
<path class="st13" d="M68.6,354.9c12,0,22.4-5.6,29-10.2c7-5,11.4-10,11.4-10.2c0.2-0.2,0.2-0.6,0-0.8c-0.2-0.2-0.6-0.2-0.8,0
	c0,0-4.1,5-11.2,10c-6.4,4.6-16.4,10-28.2,10c-0.4,0-0.6,0.2-0.6,0.6C67.9,354.7,68.3,354.9,68.6,354.9z"/>
<path class="st13" d="M81.2,359.1c10.6,0,20.9-6,21.3-6.2c0.2-0.2,0.4-0.4,0.2-0.8c-0.2-0.2-0.4-0.4-0.8-0.2c-0.2,0-12.4,7.1-23.4,6
	c-0.4,0-0.6,0.2-0.6,0.6c0,0.4,0.2,0.6,0.6,0.6C79.3,359.1,80.4,359.1,81.2,359.1z"/>
<path class="st5" d="M98.2,340l-5.4,17l-7.7-15.2l1.7-66.7l0.2-2.5l2.9-0.4l0.4,3.3L98.2,340z"/>
<path class="st22" d="M90.3,275.6l-1.5,1.9l-2.1-2.3l0.2-2.5l2.9-0.4L90.3,275.6z"/>
<path class="st5" d="M83.1,269.2l6,5.8l3.7-7.1l-3.7-6.6L83.1,269.2z"/>
<path class="st13" d="M80.4,251.9l-1.7,1.2c-0.4,0.4-0.8,0.6-1.2,1c-1.2,1-1.7,1.9-1.5,3.9c0,0.2,0.2,0.6,0.2,0.8l3.1,15.4l9.7-12.9
	C89.1,261.3,82,258.8,80.4,251.9z"/>
<path class="st13" d="M93,252.5c0,0,4.6,4.2,3.3,9.3l-2.1,8.5l-5.2-8.9C89.1,261.3,92.6,259,93,252.5z"/>
<path class="st18" d="M35,385.9c-0.2,2.9,3.3,1.5,2.3-4.8c-1-6,1.9-11.6,3.1-11.4c1.2,0.2-1,6.6,0,8.9c1,2.3,2.5-2.3,3.9-5
	c1.5-2.9,1.5-9.1,0.8-13.5c-0.6-4.4,7.3-31.4,7.5-39l1-3.3l3.5-12l5.6-18.9c0,0-3.3-14.3-8.9-13.1c0,0-2.9,10-6.2,21.2
	c-0.6,1.9-1,3.9-1.7,5.8c-2.3,8.1-4.4,16.2-5.4,21c-2.7,12.7-2.9,38.8-2.9,38.8s-4.6,9.6-4.8,13.9C32.9,379.2,35.4,382.8,35,385.9z"
	/>
<path class="st4" d="M58.8,265.2c0,0.2-0.4-0.4-0.6,0c-0.6,1.5-3.5,5.2-5,8.9c-0.2,0.4-0.4,1-0.6,1.5c-2.1,5.4-13.5,40.3-15.7,70.2
	l11.2,2.1c3.5-19.5,5.8-25.5,7.9-35.1c1-3.7,2.3-7.3,3.3-10.6c0.4-1.2,0.8-2.7,1.2-3.7c0.2-0.4,0.2-0.8,0.4-1.2
	c1.7-5,2.9-8.9,3.3-11C65.2,279.5,62.5,267.5,58.8,265.2z"/>
<path class="st13" d="M36.2,343.5l-0.8,4.6l13.3,2.1l0.8-4.6L36.2,343.5z"/>
<path class="st23" d="M37.1,350.6c0,0,7.3-0.6,10.4,1.7l-0.6,4.4c0,0-8.5-1-10.6-0.8C36.4,355.8,36.2,351.6,37.1,350.6z"/>
<path class="st7" d="M40.8,353.5c0,1.9-1.2,3.5-2.9,3.5s-2.9-1.7-2.9-3.5c0-1.9,1.2-3.5,2.9-3.5S40.8,351.6,40.8,353.5z"/>
<path class="st21" d="M39.5,353.5c0,1.5-1,2.5-2.1,2.5c-1,0-2.1-1.2-2.1-2.5c0-1.5,1-2.5,2.1-2.5C38.5,351,39.5,352,39.5,353.5z"/>
<path class="st7" d="M69,224.5c0,10.2,6.2,17.2,16.6,17.2c10.4,0,17.4-7.7,17.4-17.9s-6-18.1-16.4-18.1
	C74.4,205.8,69,214.1,69,224.5z"/>
<path class="st19" d="M71.5,228.9c0,0-2.9-3.7-5-0.6c-2.1,3.1,0.8,12.5,6,10.2L71.5,228.9z"/>
<path class="st24" d="M71.3,235.5c-0.2,0-0.4-0.2-0.4-0.4c-0.8-2.9-3.7-3.9-3.7-3.9c-0.2,0-0.4-0.4-0.2-0.6c0-0.2,0.4-0.4,0.6-0.2
	c0.2,0,3.3,1.2,4.4,4.6C71.9,235.1,71.7,235.3,71.3,235.5C71.5,235.5,71.5,235.5,71.3,235.5z"/>
<path class="st24" d="M68.4,234.1h-0.2c-0.2-0.2-0.2-0.4-0.2-0.6c0,0,0.6-0.8,1.7-1.2c0.2,0,0.4,0,0.6,0.2c0,0.2,0,0.4-0.2,0.6
	c-0.8,0.4-1.2,1-1.2,1C68.6,233.8,68.6,234.1,68.4,234.1z"/>
<path class="st19" d="M100.7,228.9c0,0,2.9-3.7,5-0.6c2.1,3.1-0.8,12.5-6,10.2L100.7,228.9z"/>
<path class="st24" d="M100.7,235.5c0.2,0,0.4-0.2,0.4-0.4c0.8-2.9,3.7-3.9,3.7-3.9c0.2,0,0.4-0.4,0.2-0.6c-0.2-0.2-0.4-0.4-0.6-0.2
	c-0.2,0-3.3,1.2-4.3,4.6C100.3,235.1,100.3,235.3,100.7,235.5z"/>
<path class="st24" d="M103.6,234.1h0.2c0.2-0.2,0.2-0.4,0.2-0.6c0,0-0.6-0.8-1.7-1.2c-0.2,0-0.4,0-0.6,0.2c0,0.2,0,0.4,0.2,0.6
	c0.8,0.4,1.2,1,1.2,1C103.4,233.8,103.6,234.1,103.6,234.1z"/>
<path class="st18" d="M93,246.1v9.8c0,0-1,5-4.1,5.4c-4.4,0.4-9.3-6.9-9.3-6.9v-7.7L93,246.1z"/>
<path class="st19" d="M93,246.1v4.2c-2.5,2.7-6.8,3.5-13.5,2.5v-6L93,246.1z"/>
<path class="st18" d="M69.8,228.7c0,0.6,0,1,0.2,1.7c0.2,1.5,0.4,2.7,0.6,4.2c0,0,0,0,0,0.2c1.2,6.9,3.9,13.5,9.9,15.6
	c13.5,4.8,18.4-6.9,20.3-13.5c0.2-0.8,0.4-1.7,0.6-2.5c0,0,0,0,0-0.2c0.2-1,0.4-2.1,0.4-3.1c0-0.8,0.2-1.7,0.2-2.5
	c0.2-2.1,0.4-4.2,0.4-5.8c0.2-4.2-2.3-7.9-6.2-9.3c-5.6-2.1-14.1-3.7-22,0.6c-2.9,1.7-4.8,4.8-5,8.1
	C69.6,223.9,69.6,226.2,69.8,228.7z"/>
<path class="st7" d="M69.8,228.7c0,0.6,0,1,0.2,1.7c0.2,1.5,0.4,2.7,0.6,4.2c0,0,0,0,0,0.2c1.2,6.9,3.9,13.5,9.9,15.6
	c13.5,4.8,18.4-6.9,20.3-13.5c0.2-0.8,0.4-1.7,0.6-2.5c0,0,0,0,0-0.2c0.2-1,0.4-2.1,0.4-3.1c0-0.8,0.2-1.7,0.2-2.5l-2.1,0.6
	c-0.6,3.1-1.5,7.5-2.5,9.6c-1.9-4.4-11.6-0.8-11.6-0.8s-8.9-3.1-11.8,0c-1.5-3.5-2.7-8.9-2.7-8.9L69.8,228.7z M85.8,239.5
	c7-1,8.9,0.8,9.1,2.9c-1.9,2.1-4.1,3.1-6,3.7c-2.5,0.6-7.5,0.4-11-2.3C77.5,241.9,77.1,237.2,85.8,239.5z"/>
<path class="st7" d="M96.5,223.3c0,0-3.5-1.5-6.2-0.2l0.2,1.5c0,0,3.9-0.4,6,0.4C96.7,224.5,96.7,223.9,96.5,223.3z"/>
<path class="st7" d="M75.8,223.3c0,0,3.5-1.5,6.2-0.2l-0.2,1.5c0,0-3.9-0.4-6,0.4C75.6,224.5,75.6,223.9,75.8,223.3z"/>
<path class="st19" d="M86.4,237.2c-0.8,0-1.5-0.2-1.7-0.2c-0.2,0-0.4-0.2-0.2-0.6c0-0.2,0.2-0.4,0.6-0.2c0.4,0.2,1.5,0.2,1.7,0
	c0,0,0.2-0.2,0.2-0.4c0-1.5-1-6.6-1-6.6c0-0.2,0-0.4,0.4-0.4c0.2,0,0.4,0,0.4,0.4c0,0.2,1,5.2,1,6.9c0,0.6-0.2,1-0.4,1
	C87,237,86.8,237,86.4,237.2z"/>
<path class="st5" d="M80.4,239.7c0.4,1.9,1.5,5.2,5.6,5.2c3.9,0,5.2-3.1,5.6-5.2H80.4z"/>
<path class="st7" d="M102.1,228.9h-2.1c0.2-2.1-0.4-4.4-1-6c-1.5-3.7,1.5-5.2-0.8-7.1c-2.3-1.9-8.1-1-12.2-1.2
	c-4.1-0.2-10.6,0-12.2,0.2c-1.7,0.4-0.6,2.9-0.2,5c0.6,2.1-1.9,4.4-2.3,6.4c-0.2,0.6,0,1.5,0,2.5h-1.7c-0.2-2.5-0.2-5-0.2-6.9
	c0-3.3,1.9-6.4,5-8.1c8.1-4.6,16.4-2.9,22-0.6c3.9,1.5,6.4,5.2,6.2,9.3C102.5,224.5,102.5,226.8,102.1,228.9z"/>
<path class="st5" d="M88.3,230.3c0-2.9,2.3-5.2,5.2-5.2s5.2,2.3,5.2,5.2c0,2.9-2.3,5.2-5.2,5.2S88.3,233.2,88.3,230.3z M88.9,230.3
	c0,2.5,2.1,4.4,4.4,4.4c2.5,0,4.4-2.1,4.4-4.4c0-2.5-2.1-4.4-4.4-4.4C90.9,225.7,88.9,227.8,88.9,230.3z"/>
<path class="st5" d="M74,230.3c0-2.9,2.3-5.2,5.2-5.2c2.9,0,5.2,2.3,5.2,5.2c0,2.9-2.3,5.2-5.2,5.2C76.2,235.5,74,233.2,74,230.3z
	 M74.8,230.3c0,2.5,2.1,4.4,4.4,4.4c2.3,0,4.4-2.1,4.4-4.4c0-2.5-2.1-4.4-4.4-4.4C76.9,226,74.8,227.8,74.8,230.3z"/>
<path class="st5" d="M97.8,228.7c0,0,0.2,0,0.2-0.2c0,0,2.5-2.3,5.4-1.7c0.2,0,0.4,0,0.4-0.2c0-0.2,0-0.4-0.2-0.4
	c-3.5-0.8-6.2,1.7-6.2,1.9c-0.2,0.2-0.2,0.4,0,0.6C97.6,228.5,97.6,228.7,97.8,228.7z"/>
<path class="st5" d="M74.8,228.7c0.2,0,0.2,0,0.4-0.2c0.2-0.2,0-0.4-0.2-0.6c-0.2,0-3.9-2.5-7-1.9c-0.2,0-0.4,0.2-0.4,0.4
	c0,0.2,0.2,0.4,0.4,0.4c2.9-0.4,6.4,1.9,6.4,1.9C74.6,228.7,74.6,228.7,74.8,228.7z"/>
<path class="st5" d="M84.1,229.1c0,0,1-1.2,2.3-1.2c1.2,0,2.1,1.2,2.1,1.2l0.6-0.4c0,0-1-1.7-2.9-1.7c-1.7,0-2.9,1.7-2.9,1.7
	L84.1,229.1z"/>
<path class="st10" d="M326.3,500.1C326.3,500.1,326.3,500.3,326.3,500.1c0,2.5-1.2,4.8-3.5,7.1c-0.6,0.6-1.2,1-1.9,1.5
	c-1.9,1.5-4.4,2.7-7.3,3.9c-0.6,0.2-1.2,0.6-1.9,0.8c-2.3,0.8-4.6,1.7-7.3,2.5c-0.6,0.2-1.2,0.4-1.9,0.6c-2.3,0.6-4.8,1.2-7.3,1.7
	c-0.6,0.2-1.2,0.2-1.9,0.4c-2.3,0.4-4.8,0.8-7.3,1.2c-0.6,0-1.2,0.2-1.9,0.2c-2.3,0.2-4.8,0.6-7.3,0.8c-0.6,0-1.2,0.2-1.9,0.2
	c-2.3,0.2-4.8,0.4-7.3,0.4c-0.6,0-1.2,0-1.9,0c-2.3,0-4.8,0.2-7.3,0.2c-0.4,0-0.8,0-1.2,0c-0.2,0-0.4,0-0.6,0c-2.5,0-4.8,0-7.3-0.2
	c-0.6,0-1.2,0-1.9,0c-1.9,0-3.5-0.2-5.4-0.2c-0.6,0-1.2,0-1.9-0.2c-0.6,0-1.2,0-1.9-0.2c-2.5-0.2-4.8-0.4-7.3-0.8
	c-0.6,0-1.2-0.2-1.9-0.2c-1.5-0.2-2.9-0.4-4.4-0.6c-1-0.2-1.9-0.4-2.9-0.4c-0.6-0.2-1.2-0.2-1.9-0.4c-2.5-0.4-5-1-7.3-1.7
	c-0.4-0.2-0.8-0.2-1.2-0.4c-0.2,0-0.4-0.2-0.6-0.2c-1-0.2-2.1-0.6-2.9-0.8c-1.4-0.4-2.9-1-4.1-1.5c-0.6-0.2-1.2-0.4-1.9-0.8
	c-2.5-1-4.6-2.1-6.4-3.3c-0.2-0.2-0.6-0.4-0.8-0.6c-0.4-0.2-0.6-0.4-1-0.6c-0.4-0.2-0.6-0.4-1-0.8c-2.7-2.3-4.1-4.8-4.1-7.3
	c0-0.2,0-0.4,0-0.6v-14.5h4.1h1.9h7.3h1.9h5.6h1.7h1.9h7.3h1.9h7.3h1.9h7.3h1.9h7.3h1.9h7.3h1.9h7.3h1.9h7.3h1.9h7.3h1.9h7.3h1.9
	h7.3h1.9h0.4h6.6h1.9h7.3h1.9h3.5L326.3,500.1z"/>
<path class="st25" d="M195.7,485.1V509c-0.4-0.2-0.6-0.4-1-0.6c-0.4-0.2-0.6-0.4-1-0.8v-22.6L195.7,485.1z"/>
<path class="st25" d="M204.6,485.1v28.5c-0.6-0.2-1.2-0.4-1.9-0.8v-27.8L204.6,485.1z"/>
<path class="st25" d="M213.8,485.1v31.4c-0.4-0.2-0.8-0.2-1.2-0.4c-0.2,0-0.4-0.2-0.6-0.2v-30.9L213.8,485.1z"/>
<path class="st25" d="M222.9,485.1v33.4c-0.6-0.2-1.2-0.2-1.9-0.4v-33H222.9z"/>
<path class="st25" d="M232,485.1V520c-0.6,0-1.2-0.2-1.9-0.2v-34.7H232z"/>
<path class="st25" d="M241.1,485.1v35.7c-0.6,0-1.2,0-1.9-0.2v-35.7L241.1,485.1z"/>
<path class="st25" d="M250.2,484.9v36.3c-0.6,0-1.2,0-1.9,0v-36.3H250.2z"/>
<path class="st25" d="M259.1,484.9v36.6c-0.4,0-0.8,0-1.2,0c-0.2,0-0.4,0-0.6,0v-36.6H259.1z"/>
<path class="st25" d="M268.3,484.9v36.3c-0.6,0-1.2,0-1.9,0v-36.3H268.3z"/>
<path class="st25" d="M277.3,484.9v35.7c-0.6,0-1.2,0.2-1.9,0.2v-35.7L277.3,484.9z"/>
<path class="st25" d="M286.5,484.9v34.7c-0.6,0-1.2,0.2-1.9,0.2v-34.9H286.5z"/>
<path class="st25" d="M295.6,484.9v33c-0.6,0.2-1.2,0.2-1.9,0.4v-33.4H295.6z"/>
<path class="st25" d="M304.5,484.9v31c-0.6,0.2-1.2,0.4-1.9,0.6v-31.4L304.5,484.9z"/>
<path class="st25" d="M313.6,484.9v27.6c-0.6,0.2-1.2,0.6-1.9,0.8v-28.5H313.6z"/>
<path class="st25" d="M322.7,484.9v22.2c-0.6,0.6-1.2,1-1.9,1.5v-23.7H322.7z"/>
<path class="st26" d="M326.3,485.1c0,10.8-30.7,19.5-68.4,19.5c-5.2,0-10.2-0.2-15.1-0.4c-6-0.4-11.8-1-17.2-1.9
	c-4.8-0.8-9.1-1.7-13.3-2.7c-1.2-0.2-2.5-0.6-3.5-1c-5-1.5-9.3-3.1-12.4-5c-0.6-0.4-1.2-0.8-1.7-1c-3.3-2.3-5.2-4.8-5.2-7.5
	c0-0.2,0-0.4,0-0.6c1.2-10.4,31.5-18.7,68.4-18.7c9.1,0,17.8,0.4,25.7,1.5c1.5,0.2,3.1,0.4,4.6,0.6c6.4,0.8,12.2,2.1,17.4,3.5
	c1,0.2,2.3,0.6,3.3,1c3.7,1.2,7,2.5,9.5,3.9c2.7,1.5,4.8,3.1,6.2,4.6c1,1.2,1.7,2.5,1.7,3.7C326.3,484.5,326.3,484.9,326.3,485.1z"
	/>
<path class="st27" d="M324.6,480.6L243,504c-6-0.4-11.8-1-17.2-1.9l92.6-26.4C321.1,477.5,323.2,478.9,324.6,480.6z"/>
<path class="st27" d="M288.2,467.7l-91.6,26c-0.6-0.4-1.2-0.8-1.7-1l88.9-25.5C285.3,467.3,286.7,467.5,288.2,467.7z"/>
<path class="st27" d="M308.9,472.1l-96.3,27.6c-1.2-0.2-2.5-0.6-3.5-1l96.5-27.6C306.6,471.4,307.8,471.9,308.9,472.1z"/>
<path class="st28" d="M312.6,485.1c0,0.2,0,0.4,0,0.6c-1.2,8.3-25.3,14.8-54.7,14.8c-29.2,0-53.2-6.6-54.7-14.8c0-0.2,0-0.4,0-0.6
	c0-8.5,24.4-15.6,54.7-15.6C288.2,469.6,312.6,476.4,312.6,485.1z"/>
<path class="st10" d="M312.6,485.8c-1.2,8.3-25.3,14.7-54.7,14.7c-0.6,0-1.2,0-1.9,0c-6.6,0-12.8-0.4-18.6-1
	c-5.8-0.6-11-1.7-15.5-2.7c-1.2-0.2-2.3-0.6-3.3-0.8c-5-1.5-8.9-3.1-11.4-5.2c-0.6-0.4-1.2-0.8-1.7-1.5c-1-1-1.9-2.3-2.1-3.5
	c1.2-8.3,25.3-15,54.7-15c3.7,0,7.3,0.2,10.8,0.2c1.9,0,3.5,0.2,5.2,0.4c7,0.6,13.5,1.7,19.1,2.9c1.2,0.2,2.3,0.6,3.5,0.8
	c4.4,1.2,7.9,2.7,10.6,4.2c2.7,1.5,4.4,3.1,5.2,5C312.4,484.9,312.6,485.4,312.6,485.8z"/>
<path class="st29" d="M312.2,484.7l-56.1,16c-6.6,0-12.8-0.4-18.6-1l69.6-19.7C309.7,481.2,311.6,482.9,312.2,484.7z"/>
<path class="st29" d="M274.1,471.6L207,490.8c-0.6-0.4-1.2-0.8-1.7-1.5l63.4-18.1C270.6,471.4,272.4,471.4,274.1,471.6z"/>
<path class="st29" d="M296.4,475.6l-74.6,21.2c-1.2-0.2-2.3-0.6-3.3-0.8l74.6-21.2C294.2,475,295.4,475.2,296.4,475.6z"/>
<path class="st28" d="M265.6,493.9v2.5H254v-2.5c-8.1-0.2-16.2-0.8-20.9-1.7l6.2-3.9c5.4,0.8,12.6,1.5,18.9,1.5
	c5.4,0,7.5-0.4,7.5-0.8c0-2.1-31.7-0.4-31.7-6.4c0-2.7,6.6-4.8,20.1-5.4v-2.5h11.6v2.5c6,0.2,12,0.6,16.6,1.5l-5.8,3.9
	c-5.6-0.8-11-1.2-16-1.2c-5.6,0-7.5,0.4-7.5,1c0,1.9,31.7,0.4,31.7,6.4C284.6,491.2,278.2,493.2,265.6,493.9z"/>
<path class="st30" d="M265.2,493v2.5h-11.6V493c-8.1-0.2-16.2-0.8-20.9-1.7l6.2-3.9c5.4,0.8,12.6,1.5,18.9,1.5
	c5.4,0,7.5-0.4,7.5-0.8c0-2.1-31.7-0.4-31.7-6.4c0-2.7,6.6-4.8,20.1-5.4v-2.5h11.6v2.5c6,0.2,12,0.6,16.6,1.5l-5.8,3.9
	c-5.6-0.8-11-1.2-16-1.2c-5.6,0-7.5,0.4-7.5,1c0,1.9,31.7,0.4,31.7,6.4C284.2,490.3,278,492.4,265.2,493z"/>
<path class="st10" d="M326.3,478.7C326.3,478.9,326.3,478.9,326.3,478.7c0,2.5-1.2,4.8-3.5,7.1c-0.6,0.6-1.2,1-1.9,1.5
	c-1.9,1.5-4.4,2.7-7.3,3.9c-0.6,0.2-1.2,0.6-1.9,0.8c-2.3,0.8-4.6,1.7-7.3,2.5c-0.6,0.2-1.2,0.4-1.9,0.6c-2.3,0.6-4.8,1.2-7.3,1.7
	c-0.6,0.2-1.2,0.2-1.9,0.4c-2.3,0.4-4.8,0.8-7.3,1.2c-0.6,0-1.2,0.2-1.9,0.2c-2.3,0.2-4.8,0.6-7.3,0.8c-0.6,0-1.2,0.2-1.9,0.2
	c-2.3,0.2-4.8,0.4-7.3,0.4c-0.6,0-1.2,0-1.9,0c-2.3,0-4.8,0.2-7.3,0.2c-0.4,0-0.8,0-1.2,0c-0.2,0-0.4,0-0.6,0c-2.5,0-4.8,0-7.3-0.2
	c-0.6,0-1.2,0-1.9,0c-1.9,0-3.5-0.2-5.4-0.2c-0.6,0-1.2,0-1.9-0.2c-0.6,0-1.2,0-1.9-0.2c-2.5-0.2-4.8-0.4-7.3-0.8
	c-0.6,0-1.2-0.2-1.9-0.2c-1.5-0.2-2.9-0.4-4.4-0.6c-1-0.2-1.9-0.4-2.9-0.4c-0.6-0.2-1.2-0.2-1.9-0.4c-2.5-0.4-5-1-7.3-1.7
	c-0.4-0.2-0.8-0.2-1.2-0.4c-0.2,0-0.4-0.2-0.6-0.2c-1-0.2-2.1-0.6-2.9-0.8c-1.4-0.4-2.9-1-4.1-1.5c-0.6-0.2-1.2-0.4-1.9-0.8
	c-2.5-1-4.6-2.1-6.4-3.3c-0.2-0.2-0.6-0.4-0.8-0.6c-0.4-0.2-0.6-0.4-1-0.6c-0.4-0.2-0.6-0.4-1-0.8c-2.7-2.3-4.1-4.8-4.1-7.3
	c0-0.2,0-0.4,0-0.6v-14.5h4.1h1.9h7.3h1.9h5.6h1.7h1.9h7.3h1.9h7.3h1.9h7.3h1.9h7.3h1.9h7.3h1.9h7.3h1.9h7.3h1.9h7.3h1.9h7.3h1.9
	h7.3h1.9h0.4h6.6h1.9h7.3h1.9h3.5L326.3,478.7z"/>
<path class="st25" d="M195.7,463.8v23.9c-0.4-0.2-0.6-0.4-1-0.6c-0.4-0.2-0.6-0.4-1-0.8v-22.6L195.7,463.8z"/>
<path class="st25" d="M204.6,463.7v28.5c-0.6-0.2-1.2-0.4-1.9-0.8v-27.8L204.6,463.7z"/>
<path class="st25" d="M213.8,463.8v31.4c-0.4-0.2-0.8-0.2-1.2-0.4c-0.2,0-0.4-0.2-0.6-0.2v-30.9L213.8,463.8z"/>
<path class="st25" d="M222.9,463.8v33.4c-0.6-0.2-1.2-0.2-1.9-0.4v-33H222.9z"/>
<path class="st25" d="M232,463.8v34.9c-0.6,0-1.2-0.2-1.9-0.2v-34.7H232z"/>
<path class="st25" d="M241.1,463.8v35.7c-0.6,0-1.2,0-1.9-0.2v-35.7L241.1,463.8z"/>
<path class="st25" d="M250.2,463.8v36.3c-0.6,0-1.2,0-1.9,0v-36.3H250.2z"/>
<path class="st25" d="M259.1,463.8v36.6c-0.4,0-0.8,0-1.2,0c-0.2,0-0.4,0-0.6,0v-36.6H259.1z"/>
<path class="st25" d="M268.3,463.8v36.3c-0.6,0-1.2,0-1.9,0v-36.3H268.3z"/>
<path class="st25" d="M277.4,463.5v35.7c-0.6,0-1.2,0.2-1.9,0.2v-35.9H277.4z"/>
<path class="st25" d="M286.5,463.5v34.7c-0.6,0-1.2,0.2-1.9,0.2v-34.9H286.5z"/>
<path class="st25" d="M295.6,463.5v33c-0.6,0.2-1.2,0.2-1.9,0.4v-33.4H295.6z"/>
<path class="st25" d="M304.5,463.5v30.9c-0.6,0.2-1.2,0.4-1.9,0.6v-31.6H304.5z"/>
<path class="st25" d="M313.6,463.5v27.6c-0.6,0.2-1.2,0.6-1.9,0.8v-28.5H313.6z"/>
<path class="st25" d="M322.7,463.5v22.2c-0.6,0.6-1.2,1-1.9,1.5v-23.7H322.7z"/>
<path class="st26" d="M326.3,463.7c0,10.8-30.7,19.5-68.4,19.5c-5.2,0-10.2-0.2-15.1-0.4c-6-0.4-11.8-1-17.2-1.9
	c-4.8-0.6-9.1-1.7-13.3-2.7c-1.2-0.2-2.5-0.6-3.5-1c-5-1.5-9.3-3.1-12.4-5c-0.6-0.4-1.2-0.8-1.7-1c-3.3-2.3-5.2-4.8-5.2-7.5
	c0-0.2,0-0.4,0-0.6c1.2-10.4,31.5-18.7,68.4-18.7c9.1,0,17.8,0.4,25.7,1.5c1.5,0.2,3.1,0.4,4.6,0.6c6.4,0.8,12.2,2.1,17.4,3.5
	c1,0.2,2.3,0.6,3.3,1c3.7,1.2,7,2.5,9.5,3.9c2.7,1.5,4.8,3.1,6.2,4.6c1,1.2,1.7,2.5,1.7,3.7C326.3,463.3,326.3,463.5,326.3,463.7z"
	/>
<path class="st27" d="M324.6,459.4L243,482.9c-6-0.4-11.8-1-17.2-1.9l92.6-26.4C321.1,456.1,323.2,457.7,324.6,459.4z"/>
<path class="st27" d="M288.2,446.3l-91.6,26c-0.6-0.4-1.2-0.8-1.7-1l88.9-25.5C285.3,445.9,286.7,446.1,288.2,446.3z"/>
<path class="st27" d="M308.9,450.7l-96.3,27.6c-1.2-0.2-2.5-0.6-3.5-1l96.5-27.6C306.6,450,307.8,450.5,308.9,450.7z"/>
<path class="st28" d="M312.6,463.7c0,0.2,0,0.4,0,0.6c-1.2,8.3-25.3,14.7-54.7,14.7c-29.2,0-53.2-6.6-54.7-14.7c0-0.2,0-0.4,0-0.6
	c0-8.5,24.4-15.6,54.7-15.6C288.2,448.2,312.6,455.2,312.6,463.7z"/>
<path class="st10" d="M312.6,464.4c-1.2,8.3-25.3,14.7-54.7,14.7c-0.6,0-1.2,0-1.9,0c-6.6,0-12.8-0.4-18.6-1
	c-5.8-0.6-11-1.7-15.5-2.7c-1.2-0.2-2.3-0.6-3.3-0.8c-5-1.5-8.9-3.1-11.4-5.2c-0.6-0.4-1.2-0.8-1.7-1.5c-1-1-1.9-2.3-2.1-3.5
	c1.2-8.3,25.3-15,54.7-15c3.7,0,7.3,0.2,10.8,0.2c1.9,0,3.5,0.2,5.2,0.4c7,0.6,13.5,1.7,19.1,2.9c1.2,0.2,2.3,0.6,3.5,0.8
	c4.4,1.2,7.9,2.7,10.6,4.2s4.4,3.1,5.2,5C312.4,463.8,312.6,464.2,312.6,464.4z"/>
<path class="st29" d="M312.2,463.3l-56.1,16c-6.6,0-12.8-0.4-18.6-1l69.6-19.7C309.7,459.8,311.6,461.5,312.2,463.3z"/>
<path class="st29" d="M274.1,450.3L207,469.4c-0.6-0.4-1.2-0.8-1.7-1.5l63.4-18.1C270.6,450,272.4,450.3,274.1,450.3z"/>
<path class="st29" d="M296.4,454.2l-74.6,21.2c-1.2-0.2-2.3-0.6-3.3-0.8l74.6-21.2C294.2,453.6,295.4,453.8,296.4,454.2z"/>
<path class="st28" d="M265.6,472.7v2.5H254v-2.5c-8.1-0.2-16.2-0.8-20.9-1.7l6.2-3.9c5.4,0.8,12.6,1.5,18.9,1.5
	c5.4,0,7.5-0.4,7.5-0.8c0-2.1-31.7-0.4-31.7-6.4c0-2.7,6.6-4.8,20.1-5.4v-2.5h11.6v2.5c6,0.2,12,0.6,16.6,1.5l-5.8,3.9
	c-5.6-0.8-11-1.2-16-1.2c-5.6,0-7.5,0.4-7.5,1c0,1.9,31.7,0.4,31.7,6.4C284.6,469.8,278.2,471.8,265.6,472.7z"/>
<path class="st30" d="M265.2,471.6v2.5h-11.6v-2.3c-8.1-0.2-16.2-0.8-20.9-1.7l6.2-3.9c5.4,0.8,12.6,1.5,18.9,1.5
	c5.4,0,7.5-0.4,7.5-0.8c0-2.1-31.7-0.4-31.7-6.4c0-2.7,6.6-4.8,20.1-5.4v-2.5h11.6v2.5c6,0.2,12,0.6,16.6,1.5l-5.8,3.9
	c-5.6-0.8-11-1.2-16-1.2c-5.6,0-7.5,0.4-7.5,1c0,1.9,31.7,0.4,31.7,6.4C284.2,468.9,278,471,265.2,471.6z"/>
<path class="st10" d="M327.7,455.2C327.7,455.2,327.7,455.4,327.7,455.2c0,2.5-1.2,4.8-3.5,7.1c-0.6,0.6-1.2,1-1.9,1.5
	c-1.9,1.5-4.4,2.7-7.3,3.9c-0.6,0.2-1.2,0.6-1.9,0.8c-2.3,0.8-4.6,1.7-7.3,2.5c-0.6,0.2-1.2,0.4-1.9,0.6c-2.3,0.6-4.8,1.2-7.3,1.7
	c-0.6,0.2-1.2,0.2-1.9,0.4c-2.3,0.4-4.8,0.8-7.3,1.2c-0.6,0-1.2,0.2-1.9,0.2c-2.3,0.2-4.8,0.6-7.3,0.8c-0.6,0-1.2,0.2-1.9,0.2
	c-2.3,0.2-4.8,0.4-7.3,0.4c-0.6,0-1.2,0-1.9,0c-2.3,0-4.8,0.2-7.3,0.2c-0.4,0-0.8,0-1.2,0c-0.2,0-0.4,0-0.6,0c-2.5,0-4.8,0-7.2-0.2
	c-0.6,0-1.2,0-1.9,0c-1.9,0-3.5-0.2-5.4-0.2c-0.6,0-1.2,0-1.9-0.2c-0.6,0-1.2,0-1.9-0.2c-2.5-0.2-4.8-0.4-7.3-0.8
	c-0.6,0-1.2-0.2-1.9-0.2c-1.5-0.2-2.9-0.4-4.4-0.6c-1-0.2-1.9-0.4-2.9-0.4c-0.6-0.2-1.2-0.2-1.9-0.4c-2.5-0.4-5-1-7.3-1.7
	c-0.4-0.2-0.8-0.2-1.2-0.4c-0.2,0-0.4-0.2-0.6-0.2c-1-0.2-2.1-0.6-2.9-0.8c-1.4-0.4-2.9-1-4.1-1.5c-0.6-0.2-1.2-0.4-1.9-0.8
	c-2.5-1-4.6-2.1-6.4-3.3c-0.2-0.2-0.6-0.4-0.8-0.6c-0.4-0.2-0.6-0.4-1-0.6c-0.4-0.2-0.6-0.4-1-0.8c-2.7-2.3-4.1-4.8-4.1-7.3
	c0-0.2,0-0.4,0-0.6v-14.5h4.1h1.9h7.3h1.9h5.6h1.7h1.9h7.3h1.9h7.3h1.9h7.3h1.9h7.3h1.9h7.2h1.9h7.3h1.9h7.3h1.9h7.3h1.9h7.3h1.9
	h7.3h1.9h0.4h6.6h1.9h7.3h1.9h3.5L327.7,455.2z"/>
<path class="st25" d="M197,440.3v23.9c-0.4-0.2-0.6-0.4-1-0.6c-0.4-0.2-0.6-0.4-1-0.8v-22.6L197,440.3z"/>
<path class="st25" d="M206.1,440.3v28.4c-0.6-0.2-1.2-0.4-1.9-0.8v-27.8L206.1,440.3z"/>
<path class="st25" d="M215.2,440.3v31.4c-0.4-0.2-0.8-0.2-1.2-0.4c-0.2,0-0.4-0.2-0.6-0.2v-30.9L215.2,440.3z"/>
<path class="st25" d="M224.4,440.3v33.4c-0.6-0.2-1.2-0.2-1.9-0.4v-33H224.4z"/>
<path class="st25" d="M233.3,440.1V475c-0.6,0-1.2-0.2-1.9-0.2v-34.7H233.3z"/>
<path class="st25" d="M242.4,440.1V476c-0.6,0-1.2,0-1.9-0.2v-35.7H242.4z"/>
<path class="st25" d="M251.5,440.1v36.3c-0.6,0-1.2,0-1.9,0v-36.3H251.5z"/>
<path class="st25" d="M260.6,440.1v36.6c-0.4,0-0.8,0-1.2,0c-0.2,0-0.4,0-0.6,0v-36.6H260.6z"/>
<path class="st25" d="M269.7,440.1v36.3c-0.6,0-1.2,0-1.9,0v-36.3H269.7z"/>
<path class="st25" d="M278.6,440.1v35.7c-0.6,0-1.2,0.2-1.9,0.2v-35.7L278.6,440.1z"/>
<path class="st25" d="M287.8,440.1v34.7c-0.6,0-1.2,0.2-1.9,0.2v-34.9H287.8z"/>
<path class="st25" d="M296.9,440.1v33c-0.6,0.2-1.2,0.2-1.9,0.4v-33.4H296.9z"/>
<path class="st25" d="M306,440.1V471c-0.6,0.2-1.2,0.4-1.9,0.6v-31.4L306,440.1z"/>
<path class="st25" d="M315.1,440.1v27.6c-0.6,0.2-1.2,0.6-1.9,0.8v-28.4H315.1z"/>
<path class="st25" d="M324.2,440.1v22.2c-0.6,0.6-1.2,1-1.9,1.5v-23.7H324.2z"/>
<path class="st26" d="M327.7,440.3c0,10.8-30.7,19.5-68.4,19.5c-5.2,0-10.2-0.2-15.1-0.4c-6-0.4-11.8-1-17.2-1.9
	c-4.8-0.8-9.1-1.7-13.3-2.7c-1.2-0.2-2.5-0.6-3.5-1c-5-1.5-9.3-3.1-12.4-5c-0.6-0.4-1.2-0.8-1.7-1c-3.3-2.3-5.2-4.8-5.2-7.5
	c0-0.2,0-0.4,0-0.6c1.2-10.4,31.5-18.7,68.4-18.7c9.1,0,17.8,0.4,25.7,1.5c1.5,0.2,3.1,0.4,4.6,0.6c6.4,0.8,12.2,2.1,17.4,3.5
	c1,0.2,2.3,0.6,3.3,1c3.7,1.2,7,2.5,9.5,3.9c2.7,1.5,4.8,3.1,6.2,4.6c1,1.2,1.7,2.5,1.7,3.7C327.7,439.7,327.7,440.1,327.7,440.3z"
	/>
<path class="st27" d="M325.9,435.7l-81.6,23.5c-6-0.4-11.8-1-17.2-1.9l92.6-26.4C322.5,432.6,324.6,434,325.9,435.7z"/>
<path class="st27" d="M289.4,422.8l-91.6,26c-0.6-0.4-1.2-0.8-1.7-1l88.9-25.5C286.5,422.4,287.9,422.6,289.4,422.8z"/>
<path class="st27" d="M310.1,427.2l-96.3,27.6c-1.2-0.2-2.5-0.6-3.5-1l96.5-27.6C308,426.6,309.1,426.8,310.1,427.2z"/>
<path class="st28" d="M314,440.3c0,0.2,0,0.4,0,0.6c-1.2,8.3-25.3,14.7-54.7,14.7s-53.2-6.6-54.7-14.7c0-0.2,0-0.4,0-0.6
	c0-8.5,24.4-15.6,54.7-15.6C289.4,424.7,314,431.6,314,440.3z"/>
<path class="st10" d="M313.8,440.9c-1.2,8.3-25.3,14.7-54.7,14.7c-0.6,0-1.2,0-1.9,0c-6.6,0-12.8-0.4-18.6-1
	c-5.8-0.6-11-1.7-15.5-2.7c-1.2-0.2-2.3-0.6-3.3-0.8c-5-1.5-8.9-3.1-11.4-5.2c-0.6-0.4-1.2-0.8-1.7-1.5c-1-1-1.9-2.3-2.1-3.5
	c1.2-8.3,25.3-15,54.7-15c3.7,0,7.3,0.2,10.8,0.2c1.9,0,3.5,0.2,5.2,0.4c7,0.6,13.5,1.7,19.1,2.9c1.2,0.2,2.3,0.6,3.5,0.8
	c4.4,1.2,7.9,2.7,10.6,4.2c2.7,1.5,4.4,3.1,5.2,5C313.6,440.1,313.8,440.5,313.8,440.9z"/>
<path class="st29" d="M313.6,439.7l-56.1,16c-6.6,0-12.8-0.4-18.6-1l69.6-19.7C311,436.3,312.8,438,313.6,439.7z"/>
<path class="st29" d="M275.3,426.8l-67.1,19.1c-0.6-0.4-1.2-0.8-1.7-1.5l63.4-18.1C272,426.6,273.7,426.6,275.3,426.8z"/>
<path class="st29" d="M297.9,430.5l-74.6,21.2c-1.2-0.2-2.3-0.6-3.3-0.8l74.6-21.2C295.6,430.1,296.6,430.3,297.9,430.5z"/>
<path class="st28" d="M266.8,449v2.5h-11.6V449c-8.1-0.2-16.2-0.8-20.9-1.7l6.2-3.9c5.4,0.8,12.6,1.5,18.9,1.5
	c5.4,0,7.5-0.4,7.5-0.8c0-2.1-31.7-0.4-31.7-6.4c0-2.7,6.6-4.8,20.1-5.4v-2.5h11.6v2.5c6,0.2,12,0.6,16.6,1.5l-5.8,3.9
	c-5.6-0.8-11-1.2-16-1.2c-5.6,0-7.5,0.4-7.5,1c0,1.9,31.7,0.4,31.7,6.4C285.9,446.3,279.7,448.4,266.8,449z"/>
<path class="st30" d="M266.6,448.2v2.5H255v-2.5c-8.1-0.2-16.2-0.8-20.9-1.7l6.2-3.9c5.4,0.8,12.6,1.5,18.9,1.5
	c5.4,0,7.5-0.4,7.5-0.8c0-2.1-31.7-0.4-31.7-6.4c0-2.7,6.6-4.8,20.1-5.4v-2.5h11.6v2.5c6,0.2,12,0.6,16.6,1.5l-5.8,3.9
	c-5.6-0.8-11-1.2-16-1.2c-5.6,0-7.5,0.4-7.5,1c0,1.9,31.7,0.4,31.7,6.4C285.7,445.3,279.3,447.6,266.6,448.2z"/>
<path class="st10" d="M325.2,432.4C325.2,432.6,325.2,432.6,325.2,432.4c0,2.5-1.2,4.8-3.5,7.1c-0.6,0.6-1.2,1-1.9,1.5
	c-1.9,1.5-4.3,2.7-7.3,3.9c-0.6,0.2-1.2,0.6-1.9,0.8c-2.3,0.8-4.6,1.7-7.3,2.5c-0.6,0.2-1.2,0.4-1.9,0.6c-2.3,0.6-4.8,1.2-7.3,1.7
	c-0.6,0.2-1.2,0.2-1.9,0.4c-2.3,0.4-4.8,0.8-7.3,1.2c-0.6,0-1.2,0.2-1.9,0.2c-2.3,0.2-4.8,0.6-7.3,0.8c-0.6,0-1.2,0.2-1.9,0.2
	c-2.3,0.2-4.8,0.4-7.3,0.4c-0.6,0-1.2,0-1.9,0c-2.3,0-4.8,0.2-7.3,0.2c-0.4,0-0.8,0-1.2,0c-0.2,0-0.4,0-0.6,0c-2.5,0-4.8,0-7.3-0.2
	c-0.6,0-1.2,0-1.9,0c-1.9,0-3.5-0.2-5.4-0.2c-0.6,0-1.2,0-1.9-0.2c-0.6,0-1.2,0-1.9-0.2c-2.5-0.2-4.8-0.4-7.3-0.8
	c-0.6,0-1.2-0.2-1.9-0.2c-1.5-0.2-2.9-0.4-4.4-0.6c-1-0.2-1.9-0.4-2.9-0.4c-0.6-0.2-1.2-0.2-1.9-0.4c-2.5-0.4-5-1-7.3-1.7
	c-0.4-0.2-0.8-0.2-1.2-0.4c-0.2,0-0.4-0.2-0.6-0.2c-1-0.2-2.1-0.6-2.9-0.8c-1.4-0.4-2.9-1-4.1-1.5c-0.6-0.2-1.2-0.4-1.9-0.8
	c-2.5-1-4.6-2.1-6.4-3.3c-0.2-0.2-0.6-0.4-0.8-0.6c-0.4-0.2-0.6-0.4-1-0.6c-0.4-0.2-0.6-0.4-1-0.8c-2.7-2.3-4.1-4.8-4.1-7.3
	c0-0.2,0-0.4,0-0.6v-14.5h4.1h1.9h7.3h1.9h5.6h1.7h1.9h7.3h1.9h7.3h1.9h7.3h1.9h7.3h1.9h7.3h1.9h7.3h1.9h7.3h1.9h7.3h1.9h7.3h1.9
	h7.3h1.9h0.4h6.6h1.9h7.3h1.9h3.5L325.2,432.4z"/>
<path class="st25" d="M194.5,417.4v23.9c-0.4-0.2-0.6-0.4-1-0.6c-0.4-0.2-0.6-0.4-1-0.8v-22.6L194.5,417.4z"/>
<path class="st25" d="M203.6,417.4v28.5c-0.6-0.2-1.2-0.4-1.9-0.8v-27.8L203.6,417.4z"/>
<path class="st25" d="M212.7,417.4v31.4c-0.4-0.2-0.8-0.2-1.2-0.4c-0.2,0-0.4-0.2-0.6-0.2v-30.9L212.7,417.4z"/>
<path class="st25" d="M221.7,417.4v33.4c-0.6-0.2-1.2-0.2-1.9-0.4v-33H221.7z"/>
<path class="st25" d="M230.8,417.4v34.9c-0.6,0-1.2-0.2-1.9-0.2v-34.7H230.8z"/>
<path class="st25" d="M239.9,417.4v35.7c-0.6,0-1.2,0-1.9-0.2v-35.7L239.9,417.4z"/>
<path class="st25" d="M249,417.4v36.3c-0.6,0-1.2,0-1.9,0v-36.3H249z"/>
<path class="st25" d="M258.1,417.4V454c-0.4,0-0.8,0-1.2,0c-0.2,0-0.4,0-0.6,0v-36.6H258.1z"/>
<path class="st25" d="M267.2,417.4v36.3c-0.6,0-1.2,0-1.9,0v-36.3H267.2z"/>
<path class="st25" d="M276.1,417.2v35.7c-0.6,0-1.2,0.2-1.9,0.2v-35.7L276.1,417.2z"/>
<path class="st25" d="M285.3,417.2v34.7c-0.6,0-1.2,0.2-1.9,0.2v-34.9H285.3z"/>
<path class="st25" d="M294.4,417.2v33c-0.6,0.2-1.2,0.2-1.9,0.4v-33.4H294.4z"/>
<path class="st25" d="M303.5,417.2v30.9c-0.6,0.2-1.2,0.4-1.9,0.6v-31.4L303.5,417.2z"/>
<path class="st25" d="M312.6,417.2v27.6c-0.6,0.2-1.2,0.6-1.9,0.8v-28.5H312.6z"/>
<path class="st25" d="M321.5,417.2v22.2c-0.6,0.6-1.2,1-1.9,1.5v-23.7H321.5z"/>
<path class="st26" d="M325.2,417.4c0,10.8-30.7,19.5-68.4,19.5c-5.2,0-10.2-0.2-15.1-0.4c-6-0.4-11.8-1-17.2-1.9
	c-4.8-0.8-9.1-1.7-13.3-2.7c-1.2-0.2-2.5-0.6-3.5-1c-5-1.5-9.3-3.1-12.4-5c-0.6-0.4-1.2-0.8-1.7-1c-3.3-2.3-5.2-4.8-5.2-7.5
	c0-0.2,0-0.4,0-0.6c1.2-10.4,31.5-18.7,68.4-18.7c9.1,0,17.8,0.4,25.7,1.5c1.5,0.2,3.1,0.4,4.6,0.6c6.4,0.8,12.2,2.1,17.4,3.5
	c1,0.2,2.3,0.6,3.3,1c3.7,1.2,7,2.5,9.5,3.9c2.7,1.5,4.8,3.1,6.2,4.6c1,1.2,1.7,2.5,1.7,3.7C325.2,417,325.2,417.2,325.2,417.4z"/>
<path class="st27" d="M323.4,413.1l-81.6,23.5c-6-0.4-11.8-1-17.2-1.9l92.6-26.4C319.8,409.8,322.1,411.4,323.4,413.1z"/>
<path class="st27" d="M286.9,400l-91.6,26c-0.6-0.4-1.2-0.8-1.7-1l88.9-25.5C284,399.6,285.5,399.8,286.9,400z"/>
<path class="st27" d="M307.6,404.4L211.3,432c-1.2-0.2-2.5-0.6-3.5-1l96.5-27.6C305.5,403.7,306.6,404.1,307.6,404.4z"/>
<path class="st28" d="M311.3,417.4c0,0.2,0,0.4,0,0.6c-1.2,8.3-25.3,14.7-54.7,14.7c-29.2,0-53.2-6.6-54.7-14.7c0-0.2,0-0.4,0-0.6
	c0-8.5,24.4-15.6,54.7-15.6C286.9,401.9,311.3,408.9,311.3,417.4z"/>
<path class="st10" d="M311.3,418.1c-1.2,8.3-25.3,14.7-54.7,14.7c-0.6,0-1.2,0-1.9,0c-6.6,0-12.8-0.4-18.6-1
	c-5.8-0.6-11-1.7-15.5-2.7c-1.2-0.2-2.3-0.6-3.3-0.8c-5-1.5-8.9-3.1-11.4-5.2c-0.6-0.4-1.2-0.8-1.7-1.5c-1-1-1.9-2.3-2.1-3.5
	c1.2-8.3,25.3-15,54.7-15c3.7,0,7.3,0.2,10.8,0.2c1.9,0,3.5,0.2,5.2,0.4c7,0.6,13.5,1.7,19.1,2.9c1.2,0.2,2.3,0.6,3.5,0.8
	c4.4,1.2,7.9,2.7,10.6,4.2s4.4,3.1,5.2,5C311.1,417.4,311.3,417.9,311.3,418.1z"/>
<path class="st29" d="M311.1,417L255,433c-6.6,0-12.8-0.4-18.6-1l69.6-19.7C308.5,413.5,310.3,415.2,311.1,417z"/>
<path class="st29" d="M272.8,403.9L205.7,423c-0.6-0.4-1.2-0.8-1.7-1.5l63.4-18.1C269.5,403.7,271.2,403.9,272.8,403.9z"/>
<path class="st29" d="M295.4,407.9l-74.6,21.2c-1.2-0.2-2.3-0.6-3.3-0.8l74.6-21.2C293.1,407.3,294.1,407.5,295.4,407.9z"/>
<path class="st28" d="M264.4,426.4v2.5H253v-2.5c-8.1-0.2-16.2-0.8-20.9-1.7l6.2-3.9c5.4,0.8,12.6,1.5,18.9,1.5
	c5.4,0,7.5-0.4,7.5-0.8c0-2.1-31.7-0.4-31.7-6.4c0-2.7,6.6-4.8,20.1-5.4v-2.5h11.6v2.5c6,0.2,12,0.6,16.6,1.5l-5.8,3.9
	c-5.6-0.8-11-1.2-16-1.2c-5.6,0-7.5,0.4-7.5,1c0,1.9,31.7,0.4,31.7,6.4C283.4,423.5,277.2,425.7,264.4,426.4z"/>
<path class="st30" d="M264.1,425.3v2.5h-11.6v-2.5c-8.1-0.2-16.2-0.8-20.9-1.7l6.2-3.9c5.4,0.8,12.6,1.5,18.9,1.5
	c5.4,0,7.5-0.4,7.5-0.8c0-2.1-31.7-0.4-31.7-6.4c0-2.7,6.6-4.8,20.1-5.4V406h11.6v2.5c6,0.2,12,0.6,16.6,1.5l-5.8,3.9
	c-5.6-0.8-11-1.2-16-1.2c-5.6,0-7.5,0.4-7.5,1c0,1.9,31.7,0.4,31.7,6.4C283.2,422.6,276.8,424.7,264.1,425.3z"/>
<path class="st10" d="M327.9,410.4c0,2.5-1.2,4.8-3.5,7.1c-0.6,0.6-1.2,1-1.9,1.5c-1.9,1.5-4.4,2.7-7.3,3.9
	c-0.6,0.2-1.2,0.6-1.9,0.8c-2.3,0.8-4.6,1.7-7.3,2.5c-0.6,0.2-1.2,0.4-1.9,0.6c-2.3,0.6-4.8,1.2-7.3,1.7c-0.6,0.2-1.2,0.2-1.9,0.4
	c-2.3,0.4-4.8,0.8-7.3,1.2c-0.6,0-1.2,0.2-1.9,0.2c-2.3,0.2-4.8,0.6-7.3,0.8c-0.6,0-1.2,0.2-1.9,0.2c-2.3,0.2-4.8,0.4-7.3,0.4
	c-0.6,0-1.2,0-1.9,0c-2.3,0-4.8,0.2-7.3,0.2c-0.4,0-0.8,0-1.2,0c-0.2,0-0.4,0-0.6,0c-2.5,0-4.8,0-7.3-0.2c-0.6,0-1.2,0-1.9,0
	c-1.9,0-3.5-0.2-5.4-0.2c-0.6,0-1.2,0-1.9-0.2c-0.6,0-1.2,0-1.9-0.2c-2.5-0.2-4.8-0.4-7.3-0.8c-0.6,0-1.2-0.2-1.9-0.2
	c-1.5-0.2-2.9-0.4-4.4-0.6c-1-0.2-1.9-0.4-2.9-0.4c-0.6-0.2-1.2-0.2-1.9-0.4c-2.5-0.4-5-1-7.3-1.7c-0.4-0.2-0.8-0.2-1.2-0.4
	c-0.2,0-0.4-0.2-0.6-0.2c-1-0.2-2.1-0.6-2.9-0.8c-1.4-0.4-2.9-1-4.1-1.5c-0.6-0.2-1.2-0.4-1.9-0.8c-2.5-1-4.6-2.1-6.4-3.3
	c-0.2-0.2-0.6-0.4-0.8-0.6c-0.4-0.2-0.6-0.4-1-0.6c-0.4-0.2-0.6-0.4-1-0.8c-2.7-2.3-4.1-4.8-4.1-7.3c0-0.2,0-0.4,0-0.6v-14.5h4.1
	h1.9h7.3h1.9h5.6h1.7h1.9h7.3h1.9h7.3h1.9h7.3h1.9h7.3h1.9h7.3h1.9h7.3h1.9h7.3h1.9h7.3h1.9h7.3h1.9h7.3h1.9h0.4h6.6h1.9h7.3h1.9
	h3.5L327.9,410.4z"/>
<path class="st25" d="M197.2,395.4v23.9c-0.4-0.2-0.6-0.4-1-0.6c-0.4-0.2-0.6-0.4-1-0.8v-22.6L197.2,395.4z"/>
<path class="st25" d="M206.3,395.2v28.5c-0.6-0.2-1.2-0.4-1.9-0.8V395L206.3,395.2z"/>
<path class="st25" d="M215.5,395.2v31.4c-0.4-0.2-0.8-0.2-1.2-0.4c-0.2,0-0.4-0.2-0.6-0.2V395L215.5,395.2z"/>
<path class="st25" d="M224.6,395.2v33.4c-0.6-0.2-1.2-0.2-1.9-0.4v-33H224.6z"/>
<path class="st25" d="M233.7,395.2v34.9c-0.6,0-1.2-0.2-1.9-0.2v-34.7H233.7z"/>
<path class="st25" d="M242.8,395.2v35.7c-0.6,0-1.2,0-1.9-0.2V395L242.8,395.2z"/>
<path class="st25" d="M251.7,395.2v36.3c-0.6,0-1.2,0-1.9,0v-36.3H251.7z"/>
<path class="st25" d="M260.8,395.2v36.6c-0.4,0-0.8,0-1.2,0c-0.2,0-0.4,0-0.6,0v-36.6H260.8z"/>
<path class="st25" d="M269.9,395.2v36.3c-0.6,0-1.2,0-1.9,0v-36.3H269.9z"/>
<path class="st25" d="M279.1,395.2v35.7c-0.6,0-1.2,0.2-1.9,0.2v-35.7L279.1,395.2z"/>
<path class="st25" d="M288.2,395.2v34.7c-0.6,0-1.2,0.2-1.9,0.2v-34.9H288.2z"/>
<path class="st25" d="M297.1,395.2v33c-0.6,0.2-1.2,0.2-1.9,0.4v-33.4H297.1z"/>
<path class="st25" d="M306.2,395.2v30.9c-0.6,0.2-1.2,0.4-1.9,0.6v-31.4L306.2,395.2z"/>
<path class="st25" d="M315.3,395.2v27.6c-0.6,0.2-1.2,0.6-1.9,0.8v-28.5H315.3z"/>
<path class="st25" d="M324.4,395.2v22.2c-0.6,0.6-1.2,1-1.9,1.5v-23.7H324.4z"/>
<path class="st26" d="M327.9,395.2c0,10.8-30.7,19.5-68.4,19.5c-5.2,0-10.2-0.2-15.1-0.4c-6-0.4-11.8-1-17.2-1.9
	c-4.8-0.8-9.1-1.7-13.3-2.7c-1.2-0.2-2.5-0.6-3.5-1c-5-1.5-9.3-3.1-12.4-5c-0.6-0.4-1.2-0.8-1.7-1c-3.3-2.3-5.2-4.8-5.2-7.5
	c0-0.2,0-0.4,0-0.6c1.2-10.4,31.5-18.7,68.4-18.7c9.1,0,17.8,0.4,25.7,1.5c1.5,0.2,3.1,0.4,4.6,0.6c6.4,0.8,12.2,2.1,17.4,3.5
	c1,0.2,2.3,0.6,3.3,1c3.7,1.2,7,2.5,9.5,3.9c2.7,1.5,4.8,3.1,6.2,4.6c1,1.2,1.7,2.5,1.7,3.7C327.9,394.8,327.9,395,327.9,395.2z"/>
<path class="st27" d="M326.1,390.9l-81.4,23.5c-6-0.4-11.8-1-17.2-1.9l92.6-26.4C322.8,387.7,324.8,389.2,326.1,390.9z"/>
<path class="st27" d="M289.8,377.8l-91.6,26c-0.6-0.4-1.2-0.8-1.7-1l88.9-25.5C286.7,377.4,288.4,377.6,289.8,377.8z"/>
<path class="st27" d="M310.5,382.3L214.2,410c-1.2-0.2-2.5-0.6-3.5-1l96.5-27.6C308.2,381.7,309.3,381.9,310.5,382.3z"/>
<path class="st25" d="M314.3,395.2c0,0.2,0,0.4,0,0.6c-1.2,8.3-25.3,14.7-54.7,14.7c-29.2,0-53.2-6.6-54.7-14.7c0-0.2,0-0.4,0-0.6
	c0-8.5,24.4-15.6,54.7-15.6C289.8,379.8,314.3,386.7,314.3,395.2z"/>
<path class="st10" d="M314.3,396c-1.2,8.3-25.3,14.7-54.7,14.7c-0.6,0-1.2,0-1.9,0c-6.6,0-12.8-0.4-18.6-1c-5.8-0.6-11-1.7-15.5-2.7
	c-1.2-0.2-2.3-0.6-3.3-0.8c-5-1.5-8.9-3.1-11.4-5.2c-0.6-0.4-1.2-0.8-1.7-1.5c-1-1-1.9-2.3-2.1-3.5c1.2-8.3,25.3-15,54.7-15
	c3.7,0,7.3,0.2,10.8,0.2c1.9,0,3.5,0.2,5.2,0.4c7,0.6,13.5,1.7,19.1,2.9c1.2,0.2,2.3,0.6,3.5,0.8c4.4,1.2,7.9,2.7,10.6,4.2
	c2.7,1.5,4.4,3.1,5.2,5C314.1,395.2,314.1,395.6,314.3,396z"/>
<path class="st29" d="M313.9,394.8l-56.1,16c-6.6,0-12.8-0.4-18.6-1l69.6-19.7C311.4,391.5,313,393.1,313.9,394.8z"/>
<path class="st29" d="M275.7,381.9L208.6,401c-0.6-0.4-1.2-0.8-1.7-1.5l63.4-18.1C272.2,381.5,273.9,381.7,275.7,381.9z"/>
<path class="st29" d="M298.1,385.7l-74.6,21.2c-1.2-0.2-2.3-0.6-3.3-0.8l74.6-21.2C295.8,385,297.1,385.5,298.1,385.7z"/>
<path class="st25" d="M267.2,404.1v2.5h-11.6v-2.5c-8.1-0.2-16.2-0.8-20.9-1.7l6.2-3.9c5.4,0.8,12.6,1.5,18.9,1.5
	c5.4,0,7.5-0.4,7.5-0.8c0-2.1-31.7-0.4-31.7-6.4c0-2.7,6.6-4.8,20.1-5.4v-2.5h11.6v2.5c6,0.2,12,0.6,16.6,1.5l-5.8,3.9
	c-5.6-0.8-11-1.2-16-1.2c-5.6,0-7.5,0.4-7.5,1c0,1.9,31.7,0.4,31.7,6.4C286.3,401.2,279.9,403.5,267.2,404.1z"/>
<path class="st26" d="M266.8,403.3v2.5h-11.6v-2.5c-8.1-0.2-16.2-0.8-20.9-1.7l6.2-3.9c5.4,0.8,12.6,1.5,18.9,1.5
	c5.4,0,7.5-0.4,7.5-0.8c0-2.1-31.7-0.4-31.7-6.4c0-2.7,6.6-4.8,20.1-5.4V384h11.6v2.5c6,0.2,12,0.6,16.6,1.5l-5.8,3.9
	c-5.6-0.8-11-1.2-16-1.2c-5.6,0-7.5,0.4-7.5,1c0,1.9,31.7,0.4,31.7,6.4C285.9,400.4,279.5,402.7,266.8,403.3z"/>
<path class="st10" d="M440,503c0,2.5-1.2,4.8-3.5,7.1c-0.6,0.6-1.2,1-1.9,1.5c-1.9,1.5-4.4,2.7-7.3,3.9c-0.6,0.2-1.2,0.6-1.9,0.8
	c-2.3,0.8-4.6,1.7-7.3,2.5c-0.6,0.2-1.2,0.4-1.9,0.6c-2.3,0.6-4.8,1.2-7.3,1.7c-0.6,0.2-1.2,0.2-1.9,0.4c-2.3,0.4-4.8,0.8-7.3,1.2
	c-0.6,0-1.2,0.2-1.9,0.2c-2.3,0.2-4.8,0.6-7.3,0.8c-0.6,0-1.2,0.2-1.9,0.2c-2.3,0.2-4.8,0.4-7.3,0.4c-0.6,0-1.2,0-1.9,0
	c-2.3,0-4.8,0.2-7.3,0.2c-0.4,0-0.8,0-1.2,0c-0.2,0-0.4,0-0.6,0c-2.5,0-4.8,0-7.3-0.2c-0.6,0-1.2,0-1.9,0c-1.9,0-3.5-0.2-5.4-0.2
	c-0.6,0-1.2,0-1.9-0.2c-0.6,0-1.2,0-1.9-0.2c-2.5-0.2-4.8-0.4-7.3-0.8c-0.6,0-1.2-0.2-1.9-0.2c-1.5-0.2-2.9-0.4-4.4-0.6
	c-1-0.2-1.9-0.4-2.9-0.4c-0.6-0.2-1.2-0.2-1.9-0.4c-2.5-0.4-5-1-7.3-1.7c-0.4-0.2-0.8-0.2-1.2-0.4c-0.2,0-0.4-0.2-0.6-0.2
	c-1-0.2-2.1-0.6-2.9-0.8c-1.4-0.4-2.9-1-4.1-1.5c-0.6-0.2-1.2-0.4-1.9-0.8c-2.5-1-4.6-2.1-6.4-3.3c-0.2-0.2-0.6-0.4-0.8-0.6
	c-0.4-0.2-0.6-0.4-1-0.6c-0.4-0.2-0.6-0.4-1-0.8c-2.7-2.3-4.1-4.8-4.1-7.3c0-0.2,0-0.4,0-0.6V488h4.1h1.9h7.3h1.9h5.6h1.7h1.9h7.3
	h1.9h7.3h1.9h7.3h1.9h7.3h1.9h7.3h1.9h7.3h1.9h7.3h1.9h7.3h1.9h7.3h1.9h7.3h1.9h0.4h6.6h1.9h7.3h1.9h3.5L440,503z"/>
<path class="st25" d="M309.3,487.8v23.9c-0.4-0.2-0.6-0.4-1-0.6c-0.4-0.2-0.6-0.4-1-0.8v-22.6L309.3,487.8z"/>
<path class="st25" d="M318.4,487.8v28.5c-0.6-0.2-1.2-0.4-1.9-0.8v-27.8L318.4,487.8z"/>
<path class="st25" d="M327.5,487.8v31.4c-0.4-0.2-0.8-0.2-1.2-0.4c-0.2,0-0.4-0.2-0.6-0.2v-30.9L327.5,487.8z"/>
<path class="st25" d="M336.6,487.8v33.4c-0.6-0.2-1.2-0.2-1.9-0.4v-33H336.6z"/>
<path class="st25" d="M345.8,487.8v34.9c-0.6,0-1.2-0.2-1.9-0.2v-34.7H345.8z"/>
<path class="st25" d="M354.9,487.8v35.7c-0.6,0-1.2,0-1.9-0.2v-35.7L354.9,487.8z"/>
<path class="st25" d="M363.8,487.8v36.3c-0.6,0-1.2,0-1.9,0v-36.3H363.8z"/>
<path class="st25" d="M372.9,487.8v36.6c-0.4,0-0.8,0-1.2,0c-0.2,0-0.4,0-0.6,0v-36.6H372.9z"/>
<path class="st25" d="M382,487.8v36.3c-0.6,0-1.2,0-1.9,0v-36.3H382z"/>
<path class="st25" d="M391.1,487.8v35.7c-0.6,0-1.2,0.2-1.9,0.2V488L391.1,487.8z"/>
<path class="st25" d="M400.2,487.8v34.7c-0.6,0-1.2,0.2-1.9,0.2v-34.9H400.2z"/>
<path class="st25" d="M409.2,487.8v33c-0.6,0.2-1.2,0.2-1.9,0.4v-33.4H409.2z"/>
<path class="st25" d="M418.3,487.8v30.9c-0.6,0.2-1.2,0.4-1.9,0.6V488L418.3,487.8z"/>
<path class="st25" d="M427.4,487.8v27.6c-0.6,0.2-1.2,0.6-1.9,0.8v-28.5H427.4z"/>
<path class="st25" d="M436.5,487.8v22.2c-0.6,0.6-1.2,1-1.9,1.5v-23.7H436.5z"/>
<path class="st26" d="M440,487.8c0,10.8-30.7,19.5-68.4,19.5c-5.2,0-10.2-0.2-15.1-0.4c-6-0.4-11.8-1-17.2-1.9
	c-4.8-0.8-9.1-1.7-13.3-2.7c-1.2-0.2-2.5-0.6-3.5-1c-5-1.5-9.3-3.1-12.4-5c-0.6-0.4-1.2-0.8-1.7-1c-3.3-2.3-5.2-4.8-5.2-7.5
	c0-0.2,0-0.4,0-0.6c1.2-10.4,31.5-18.7,68.4-18.7c9.1,0,17.8,0.4,25.7,1.5c1.4,0.2,3.1,0.4,4.6,0.6c6.4,0.8,12.2,2.1,17.4,3.5
	c1,0.2,2.3,0.6,3.3,1c3.7,1.2,7,2.5,9.5,3.9c2.7,1.5,4.8,3.1,6.2,4.6c1,1.2,1.7,2.5,1.7,3.7C440,487.4,440,487.6,440,487.8z"/>
<path class="st27" d="M438.4,483.5l-81.6,23.5c-6-0.4-11.8-1-17.2-1.9l92.6-26.4C434.8,480.2,436.9,481.8,438.4,483.5z"/>
<path class="st27" d="M401.9,470.4l-91.6,26c-0.6-0.4-1.2-0.8-1.7-1l88.9-25.5C398.8,470,400.4,470.2,401.9,470.4z"/>
<path class="st27" d="M422.6,475l-96.3,27.6c-1.2-0.2-2.5-0.6-3.5-1l96.5-27.6C420.3,474.3,421.6,474.5,422.6,475z"/>
<path class="st28" d="M426.3,487.8c0,0.2,0,0.4,0,0.6c-1.2,8.3-25.3,14.7-54.7,14.7c-29.4,0-53.2-6.6-54.7-14.7c0-0.2,0-0.4,0-0.6
	c0-8.5,24.4-15.6,54.7-15.6C401.9,472.3,426.3,479.3,426.3,487.8z"/>
<path class="st10" d="M426.3,488.7c-1.2,8.3-25.3,14.7-54.7,14.7c-0.6,0-1.2,0-1.9,0c-6.6,0-12.8-0.4-18.6-1
	c-5.8-0.6-11-1.7-15.5-2.7c-1.2-0.2-2.3-0.6-3.3-0.8c-5-1.5-8.9-3.1-11.4-5.2c-0.6-0.4-1.2-0.8-1.7-1.5c-1-1-1.9-2.3-2.1-3.5
	c1.2-8.3,25.3-15,54.7-15c3.7,0,7.3,0.2,10.8,0.2c1.9,0,3.5,0.2,5.2,0.4c7,0.6,13.5,1.7,19.1,2.9c1.2,0.2,2.3,0.6,3.5,0.8
	c4.4,1.2,7.9,2.7,10.6,4.2c2.7,1.5,4.4,3.1,5.2,5C426.1,487.8,426.1,488.3,426.3,488.7z"/>
<path class="st29" d="M425.9,487.4l-56.1,16c-6.6,0-12.8-0.4-18.6-1l69.6-19.7C423.5,484.1,425.1,485.8,425.9,487.4z"/>
<path class="st29" d="M387.8,474.5l-67.1,19.1c-0.6-0.4-1.2-0.8-1.7-1.5l63.4-18.1C384.3,474.1,386.2,474.3,387.8,474.5z"/>
<path class="st29" d="M410.2,478.3l-74.6,21.2c-1.2-0.2-2.3-0.6-3.3-0.8l74.6-21.2C407.9,477.7,409.1,478.1,410.2,478.3z"/>
<path class="st28" d="M379.3,496.8v2.5h-11.6v-2.5c-8.1-0.2-16.2-0.8-20.9-1.7l6.2-3.9c5.4,0.8,12.6,1.5,18.9,1.5
	c5.4,0,7.5-0.4,7.5-0.8c0-2.1-31.7-0.4-31.7-6.4c0-2.7,6.6-4.8,20.1-5.4v-2.5h11.6v2.5c6,0.2,12,0.6,16.6,1.5l-5.8,3.9
	c-5.6-0.8-11-1.2-16-1.2c-5.6,0-7.5,0.4-7.5,1c0,1.9,31.7,0.4,31.7,6.4C398.4,493.9,392,496.1,379.3,496.8z"/>
<path class="st30" d="M378.9,495.9v2.5h-11.6v-2.5c-8.1-0.2-16.2-0.8-20.9-1.7l6.2-3.9c5.4,0.8,12.6,1.5,18.9,1.5
	c5.4,0,7.5-0.4,7.5-0.8c0-2.1-31.7-0.4-31.7-6.4c0-2.7,6.6-4.8,20.1-5.4v-2.5h11.6v2.5c6,0.2,12,0.6,16.6,1.5l-5.8,3.7
	c-5.6-0.8-11-1.2-16-1.2c-5.6,0-7.5,0.4-7.5,1c0,1.9,31.7,0.4,31.7,6.4C398,493,391.5,495.3,378.9,495.9z"/>
<path class="st10" d="M435.9,481.6c0,2.5-1.2,4.8-3.5,7.1c-0.6,0.6-1.2,1-1.9,1.5c-1.9,1.5-4.3,2.7-7.3,3.9
	c-0.6,0.2-1.2,0.6-1.9,0.8c-2.3,0.8-4.6,1.7-7.3,2.5c-0.6,0.2-1.2,0.4-1.9,0.6c-2.3,0.6-4.8,1.2-7.3,1.7c-0.6,0.2-1.2,0.2-1.9,0.4
	c-2.3,0.4-4.8,0.8-7.3,1.2c-0.6,0-1.2,0.2-1.9,0.2c-2.3,0.2-4.8,0.6-7.3,0.8c-0.6,0-1.2,0.2-1.9,0.2c-2.3,0.2-4.8,0.4-7.3,0.4
	c-0.6,0-1.2,0-1.9,0c-2.3,0-4.8,0.2-7.3,0.2c-0.4,0-0.8,0-1.2,0c-0.2,0-0.4,0-0.6,0c-2.5,0-4.8,0-7.3-0.2c-0.6,0-1.2,0-1.9,0
	c-1.9,0-3.5-0.2-5.4-0.2c-0.6,0-1.2,0-1.9-0.2c-0.6,0-1.2,0-1.9-0.2c-2.5-0.2-4.8-0.4-7.3-0.8c-0.6,0-1.2-0.2-1.9-0.2
	c-1.4-0.2-2.9-0.4-4.4-0.6c-1-0.2-1.9-0.4-2.9-0.4c-0.6-0.2-1.2-0.2-1.9-0.4c-2.5-0.4-5-1-7.3-1.7c-0.4-0.2-0.8-0.2-1.2-0.4
	c-0.2,0-0.4-0.2-0.6-0.2c-1-0.2-2.1-0.6-2.9-0.8c-1.5-0.4-2.9-1-4.1-1.5c-0.6-0.2-1.2-0.4-1.9-0.8c-2.5-1-4.6-2.1-6.4-3.3
	c-0.2-0.2-0.6-0.4-0.8-0.6c-0.4-0.2-0.6-0.4-1-0.6s-0.6-0.4-1-0.8c-2.7-2.3-4.1-4.8-4.1-7.3c0-0.2,0-0.4,0-0.6v-14.5h4.1h1.9h7.3
	h1.9h5.6h1.7h1.9h7.3h1.9h7.3h1.9h7.3h1.9h7.3h1.9h7.3h1.9h7.3h1.9h7.3h1.9h7.3h1.9h7.3h1.9h7.3h1.9h0.4h6.6h1.9h7.3h1.9h3.5
	L435.9,481.6z"/>
<path class="st25" d="M305.2,466.7v23.9c-0.4-0.2-0.6-0.4-1-0.6c-0.4-0.2-0.6-0.4-1-0.8v-22.6L305.2,466.7z"/>
<path class="st25" d="M314.3,466.7v28.5c-0.6-0.2-1.2-0.4-1.9-0.8v-27.8L314.3,466.7z"/>
<path class="st25" d="M323.4,466.4v31.4c-0.4-0.2-0.8-0.2-1.2-0.4c-0.2,0-0.4-0.2-0.6-0.2v-30.9L323.4,466.4z"/>
<path class="st25" d="M332.3,466.4v33.4c-0.6-0.2-1.2-0.2-1.9-0.4v-33H332.3z"/>
<path class="st25" d="M341.4,466.4v34.9c-0.6,0-1.2-0.2-1.9-0.2v-34.7H341.4z"/>
<path class="st25" d="M350.5,466.4v35.7c-0.6,0-1.2,0-1.9-0.2v-35.7L350.5,466.4z"/>
<path class="st25" d="M359.6,466.4v36.3c-0.6,0-1.2,0-1.9,0v-36.3H359.6z"/>
<path class="st25" d="M368.7,466.4V503c-0.4,0-0.8,0-1.2,0c-0.2,0-0.4,0-0.6,0v-36.6H368.7z"/>
<path class="st25" d="M377.9,466.4v36.3c-0.6,0-1.2,0-1.9,0v-36.3H377.9z"/>
<path class="st25" d="M386.8,466.4v35.7c-0.6,0-1.2,0.2-1.9,0.2v-35.7L386.8,466.4z"/>
<path class="st25" d="M395.9,466.4v34.7c-0.6,0-1.2,0.2-1.9,0.2v-34.9H395.9z"/>
<path class="st25" d="M405,466.4v33c-0.6,0.2-1.2,0.2-1.9,0.4v-33.4H405z"/>
<path class="st25" d="M414.1,466.4v30.9c-0.6,0.2-1.2,0.4-1.9,0.6v-31.4L414.1,466.4z"/>
<path class="st25" d="M423.2,466.4v27.6c-0.6,0.2-1.2,0.6-1.9,0.8v-28.5H423.2z"/>
<path class="st25" d="M432.1,466.4v22c-0.6,0.6-1.2,1-1.9,1.5v-23.7L432.1,466.4z"/>
<path class="st26" d="M435.9,466.7c0,10.8-30.7,19.5-68.4,19.5c-5.2,0-10.2-0.2-15.1-0.4c-6-0.4-11.8-1-17.2-1.9
	c-4.8-0.8-9.1-1.7-13.3-2.7c-1.2-0.2-2.5-0.6-3.5-1c-5-1.5-9.3-3.1-12.4-5c-0.6-0.4-1.2-0.8-1.7-1c-3.3-2.3-5.2-4.8-5.2-7.5
	c0-0.2,0-0.4,0-0.6c1.2-10.4,31.5-18.7,68.4-18.7c9.1,0,17.8,0.4,25.7,1.5c1.5,0.2,3.1,0.4,4.6,0.6c6.4,0.8,12.2,2.1,17.4,3.5
	c1,0.2,2.3,0.6,3.3,1c3.7,1.2,7,2.5,9.5,3.9c2.7,1.5,4.8,3.1,6.2,4.6c1,1.2,1.7,2.5,1.7,3.7C435.9,466,435.9,466.2,435.9,466.7z"/>
<path class="st27" d="M434,462.1l-81.6,23.5c-6-0.4-11.8-1-17.2-1.9l92.6-26.4C430.5,459,432.8,460.4,434,462.1z"/>
<path class="st27" d="M397.5,449L306,475c-0.6-0.4-1.2-0.8-1.7-1l88.9-25.5C394.6,448.8,396.1,448.8,397.5,449z"/>
<path class="st27" d="M418.3,453.6l-96.3,27.6c-1.2-0.2-2.5-0.6-3.5-1l96.5-27.6C416.2,453,417.2,453.2,418.3,453.6z"/>
<path class="st28" d="M422,466.7c0,0.2,0,0.4,0,0.6c-1.2,8.3-25.3,14.7-54.7,14.7s-53.2-6.6-54.7-14.7c0-0.2,0-0.4,0-0.6
	c0-8.5,24.4-15.6,54.7-15.6C397.5,451.1,422,457.9,422,466.7z"/>
<path class="st10" d="M422,467.3c-1.2,8.3-25.3,14.7-54.7,14.7c-0.6,0-1.2,0-1.9,0c-6.6,0-12.8-0.4-18.6-1c-5.8-0.6-11-1.7-15.5-2.7
	c-1.2-0.2-2.3-0.6-3.3-0.8c-5-1.5-8.9-3.1-11.4-5.2c-0.6-0.4-1.2-0.8-1.7-1.5c-1-1-1.9-2.3-2.1-3.5c1.2-8.3,25.3-15,54.7-15
	c3.7,0,7.3,0.2,10.8,0.2c1.9,0,3.5,0.2,5.2,0.4c7,0.6,13.5,1.7,19.1,2.9c1.2,0.2,2.3,0.6,3.5,0.8c4.4,1.2,7.9,2.7,10.6,4.2
	c2.7,1.5,4.4,3.1,5.2,5C421.8,466.5,422,466.9,422,467.3z"/>
<path class="st29" d="M421.8,466l-56.1,16c-6.6,0-12.8-0.4-18.6-1l69.6-19.7C419.1,462.7,421,464.4,421.8,466z"/>
<path class="st29" d="M383.5,453.2l-67.1,19.1c-0.6-0.4-1.2-0.8-1.7-1.5l63.4-18.1C380.1,452.7,381.8,453,383.5,453.2z"/>
<path class="st29" d="M406,456.9l-74.6,21.2c-1.2-0.2-2.3-0.6-3.3-0.8l74.6-21.2C403.7,456.3,404.8,456.7,406,456.9z"/>
<path class="st28" d="M375,475.4v2.5h-11.6v-2.5c-8.1-0.2-16.2-0.8-20.9-1.7l6.2-3.9c5.4,0.8,12.6,1.5,18.9,1.5
	c5.4,0,7.5-0.4,7.5-0.8c0-2.1-31.7-0.4-31.7-6.4c0-2.7,6.6-4.8,20.1-5.4v-2.5H375v2.5c6,0.2,12,0.6,16.6,1.5l-5.8,3.9
	c-5.6-0.8-11-1.2-16-1.2c-5.6,0-7.5,0.4-7.5,1c0,1.9,31.7,0.4,31.7,6.4C394,472.7,387.8,474.8,375,475.4z"/>
<path class="st30" d="M374.8,474.5v2.5h-11.6v-2.5c-8.1-0.2-16.2-0.8-20.9-1.7l6.2-3.9c5.4,0.8,12.6,1.5,18.9,1.5
	c5.4,0,7.5-0.4,7.5-0.8c0-2.1-31.7-0.4-31.7-6.4c0-2.7,6.6-4.8,20.1-5.4v-2.5h11.6v2.5c6,0.2,12,0.6,16.6,1.5l-5.8,3.9
	c-5.6-0.8-11-1.2-16-1.2c-5.6,0-7.5,0.4-7.5,1c0,1.9,31.7,0.4,31.7,6.4C393.8,471.6,387.4,473.9,374.8,474.5z"/>
<path class="st10" d="M437.1,458.1c0,2.5-1.2,4.8-3.5,7.1c-0.6,0.6-1.2,1-1.9,1.5c-1.9,1.5-4.4,2.7-7.3,3.9
	c-0.6,0.2-1.2,0.6-1.9,0.8c-2.3,0.8-4.6,1.7-7.3,2.5c-0.6,0.2-1.2,0.4-1.9,0.6c-2.3,0.6-4.8,1.2-7.3,1.7c-0.6,0.2-1.2,0.2-1.9,0.4
	c-2.3,0.4-4.8,0.8-7.3,1.2c-0.6,0-1.2,0.2-1.9,0.2c-2.3,0.2-4.8,0.6-7.3,0.8c-0.6,0-1.2,0.2-1.9,0.2c-2.3,0.2-4.8,0.4-7.3,0.4
	c-0.6,0-1.2,0-1.9,0c-2.3,0-4.8,0.2-7.3,0.2c-0.4,0-0.8,0-1.2,0c-0.2,0-0.4,0-0.6,0c-2.5,0-4.8,0-7.3-0.2c-0.6,0-1.2,0-1.9,0
	c-1.9,0-3.5-0.2-5.4-0.2c-0.6,0-1.2,0-1.9-0.2c-0.6,0-1.2,0-1.9-0.2c-2.5-0.2-4.8-0.4-7.3-0.8c-0.6,0-1.2-0.2-1.9-0.2
	c-1.4-0.2-2.9-0.4-4.4-0.6c-1-0.2-1.9-0.4-2.9-0.4c-0.6-0.2-1.2-0.2-1.9-0.4c-2.5-0.4-5-1-7.3-1.7c-0.4-0.2-0.8-0.2-1.2-0.4
	c-0.2,0-0.4-0.2-0.6-0.2c-1-0.2-2.1-0.6-2.9-0.8c-1.5-0.4-2.9-1-4.1-1.5c-0.6-0.2-1.2-0.4-1.9-0.8c-2.5-1-4.6-2.1-6.4-3.3
	c-0.2-0.2-0.6-0.4-0.8-0.6c-0.4-0.2-0.6-0.4-1-0.6s-0.6-0.4-1-0.8c-2.7-2.3-4.1-4.8-4.1-7.3c0-0.2,0-0.4,0-0.6v-14.5h4.1h1.9h7.3
	h1.9h5.6h1.7h1.9h7.3h1.9h7.3h1.9h7.3h1.9h7.3h1.9h7.3h1.9h7.3h1.9h7.3h1.9h7.3h1.9h7.3h1.9h7.3h1.9h0.4h6.6h1.9h7.3h1.9h3.5
	L437.1,458.1z"/>
<path class="st25" d="M306.4,443v23.9c-0.4-0.2-0.6-0.4-1-0.6c-0.4-0.2-0.6-0.4-1-0.8v-22.6L306.4,443z"/>
<path class="st25" d="M315.5,443v28.5c-0.6-0.2-1.2-0.4-1.9-0.8v-27.8L315.5,443z"/>
<path class="st25" d="M324.6,443v31.4c-0.4-0.2-0.8-0.2-1.2-0.4c-0.2,0-0.4-0.2-0.6-0.2v-30.9L324.6,443z"/>
<path class="st25" d="M333.7,443v33.4c-0.6-0.2-1.2-0.2-1.9-0.4v-33H333.7z"/>
<path class="st25" d="M342.9,443v34.9c-0.6,0-1.2-0.2-1.9-0.2V443H342.9z"/>
<path class="st25" d="M352,443v35.7c-0.6,0-1.2,0-1.9-0.2v-35.7L352,443z"/>
<path class="st25" d="M360.9,443v36.3c-0.6,0-1.2,0-1.9,0V443H360.9z"/>
<path class="st25" d="M370,443v36.6c-0.4,0-0.8,0-1.2,0c-0.2,0-0.4,0-0.6,0V443H370z"/>
<path class="st25" d="M379.1,443v36.3c-0.6,0-1.2,0-1.9,0V443H379.1z"/>
<path class="st25" d="M388.2,443v35.7c-0.6,0-1.2,0.2-1.9,0.2v-35.7L388.2,443z"/>
<path class="st25" d="M397.3,443v34.7c-0.6,0-1.2,0.2-1.9,0.2V443H397.3z"/>
<path class="st25" d="M406.2,443v33c-0.6,0.2-1.2,0.2-1.9,0.4V443H406.2z"/>
<path class="st25" d="M415.4,442.8v30.9c-0.6,0.2-1.2,0.4-1.9,0.6V443L415.4,442.8z"/>
<path class="st25" d="M424.5,442.8v27.6c-0.6,0.2-1.2,0.6-1.9,0.8v-28.5H424.5z"/>
<path class="st25" d="M433.6,442.8V465c-0.6,0.6-1.2,1-1.9,1.5v-23.7H433.6z"/>
<path class="st26" d="M437.1,443c0,10.8-30.7,19.5-68.4,19.5c-5.2,0-10.2-0.2-15.1-0.4c-6-0.4-11.8-1-17.2-1.9
	c-4.8-0.8-9.1-1.7-13.3-2.7c-1.2-0.2-2.5-0.6-3.5-1c-5-1.5-9.3-3.1-12.4-5c-0.6-0.4-1.2-0.8-1.7-1c-3.3-2.3-5.2-4.8-5.2-7.5
	c0-0.2,0-0.4,0-0.6c1.2-10.4,31.5-18.7,68.4-18.7c9.1,0,17.8,0.4,25.7,1.5c1.4,0.2,3.1,0.4,4.6,0.6c6.4,0.8,12.2,2.1,17.4,3.5
	c1,0.2,2.3,0.6,3.3,1c3.7,1.2,7,2.5,9.5,3.9c2.7,1.5,4.8,3.1,6.2,4.6c1,1.2,1.7,2.5,1.7,3.7C437.1,442.6,437.1,442.8,437.1,443z"/>
<path class="st27" d="M435.4,438.6l-81.6,23.5c-6-0.4-11.8-1-17.2-1.9l92.6-26.4C431.9,435.3,434,437,435.4,438.6z"/>
<path class="st27" d="M399,425.5l-91.6,26c-0.6-0.4-1.2-0.8-1.7-1l88.9-25.5C395.9,425.1,397.5,425.3,399,425.5z"/>
<path class="st27" d="M419.7,430.1l-96.3,27.4c-1.2-0.2-2.5-0.6-3.5-1l96.5-27.6C417.4,429.3,418.7,429.7,419.7,430.1z"/>
<path class="st25" d="M423.4,443c0,0.2,0,0.4,0,0.6c-1.2,8.3-25.3,14.7-54.7,14.7c-29.2,0-53.2-6.6-54.7-14.7c0-0.2,0-0.4,0-0.6
	c0-8.5,24.4-15.6,54.7-15.6C399,427.4,423.4,434.5,423.4,443z"/>
<path class="st10" d="M423.4,443.8c-1.2,8.3-25.3,14.7-54.7,14.7c-0.6,0-1.2,0-1.9,0c-6.6,0-12.8-0.4-18.6-1
	c-5.8-0.6-11-1.7-15.5-2.7c-1.2-0.2-2.3-0.6-3.3-0.8c-5-1.5-8.9-3.1-11.4-5.2c-0.6-0.4-1.2-0.8-1.7-1.5c-1-1-1.9-2.3-2.1-3.5
	c1.2-8.3,25.3-15,54.7-15c3.7,0,7.3,0.2,10.8,0.2c1.9,0,3.5,0.2,5.2,0.4c7,0.6,13.5,1.7,19.1,2.9c1.2,0.2,2.3,0.6,3.5,0.8
	c4.3,1.2,7.9,2.7,10.6,4.2c2.7,1.5,4.4,3.1,5.2,5C423.2,443,423.2,443.4,423.4,443.8z"/>
<path class="st29" d="M423,442.6l-56.1,16c-6.6,0-12.8-0.4-18.6-1l69.6-19.7C420.5,439.2,422.2,440.9,423,442.6z"/>
<path class="st29" d="M384.9,429.7l-67.1,19.1c-0.6-0.4-1.2-0.8-1.7-1.5l63.4-18.1C381.4,429.3,383.3,429.5,384.9,429.7z"/>
<path class="st29" d="M407.3,433.4l-74.6,21.2c-1.2-0.2-2.3-0.6-3.3-0.8l74.6-21.2C405,432.8,406.2,433.2,407.3,433.4z"/>
<path class="st25" d="M376.4,451.9v2.5h-11.6v-2.5c-8.1-0.2-16.2-0.8-20.9-1.7l6.2-3.9c5.4,0.8,12.6,1.5,18.9,1.5
	c5.4,0,7.5-0.4,7.5-0.8c0-2.1-31.7-0.4-31.7-6.4c0-2.7,6.6-4.8,20.1-5.4v-2.5h11.6v2.5c6,0.2,12,0.6,16.6,1.5l-5.8,3.9
	c-5.6-0.8-11-1.2-16-1.2c-5.6,0-7.5,0.4-7.5,1c0,1.9,31.7,0.4,31.7,6.4C395.5,449,389,451.3,376.4,451.9z"/>
<path class="st26" d="M376,451.1v2.5h-11.6v-2.5c-8.1-0.2-16.2-0.8-20.9-1.7l6.2-3.9c5.4,0.8,12.6,1.5,18.9,1.5
	c5.4,0,7.5-0.4,7.5-0.8c0-2.1-31.7-0.4-31.7-6.4c0-2.7,6.6-4.8,20.1-5.4v-2.5H376v2.5c6,0.2,12,0.6,16.6,1.5l-5.8,3.9
	c-5.6-0.8-11-1.2-16-1.2c-5.6,0-7.5,0.4-7.5,1c0,1.9,31.7,0.4,31.7,6.4C395.1,448.2,388.6,450.5,376,451.1z"/>
<g class="st2">
	<path class="st31" d="M133.6,158.7l1.7-8.5l-8.1-1.7c0-2.1-0.4-4.2-1-6.2l6.6-4.4l-4.8-7.3l-6.2,4.2c-1.9-1.9-4.1-3.3-6.4-4.4
		l1.7-8.1l-8.5-1.7l-1.7,8.3c-1.7,0-3.5,0.4-5.2,1l-4.4-6.6l-7.3,4.8l4.1,6.2c-1.9,1.9-3.3,4.2-4.4,6.4l-7-1.5l-1.7,8.5l7.3,1.5
		c0.2,2.3,0.6,4.6,1.5,6.6l-6.4,4.2l4.8,7.3l6.6-4.4c1.9,1.7,4.1,2.9,6.4,3.7l-1.7,8.1l8.5,1.7l1.7-8.7c1.9-0.2,3.7-0.6,5.6-1.5
		l4.1,6.4l7.3-4.8l-4.4-6.6c1.2-1.5,2.1-2.9,2.9-4.4L133.6,158.7z M112.3,155.1c-3.7,2.5-8.7,1.5-11-2.3c-2.5-3.7-1.5-8.7,2.3-11
		c3.7-2.5,8.7-1.5,11,2.3C116.8,147.7,115.8,152.6,112.3,155.1z"/>
	<path class="st31" d="M158.1,109.2l0.8-4.8l-4.4-0.8c0-1.2-0.2-2.3-0.6-3.5l3.5-2.5l-2.7-3.9l-3.5,2.3c-1-1-2.3-1.9-3.5-2.5
		l0.8-4.4l-4.8-0.8l-0.8,4.6c-1,0-1.9,0.2-2.9,0.6l-2.5-3.5l-3.9,2.7l2.3,3.5c-1,1-1.9,2.3-2.5,3.5l-3.7-0.8l-0.8,4.8l3.9,0.8
		c0,1.2,0.4,2.5,0.8,3.5l-3.5,2.3l2.7,3.9l3.5-2.5c1,0.8,2.3,1.7,3.5,2.1l-0.8,4.4l4.8,0.8l1-4.8c1-0.2,2.1-0.4,3.1-0.8l2.3,3.5
		l3.9-2.7l-2.5-3.5c0.6-0.8,1.2-1.7,1.7-2.5L158.1,109.2z M146.3,107.4c-2.1,1.2-4.8,0.8-6-1.2c-1.2-2.1-0.8-4.8,1.2-6
		c2.1-1.2,4.8-0.8,6,1.2C148.9,103.4,148.3,106.1,146.3,107.4z"/>
	<path class="st31" d="M686.7,420.8l-0.4-8.7l-8.1,0.4c-0.4-2.1-1.5-3.9-2.5-5.8l5.4-5.8l-6.4-5.8l-5.2,5.6
		c-2.3-1.5-4.8-2.3-7.3-2.7l-0.4-8.1l-8.7,0.4l0.4,8.5c-1.7,0.4-3.3,1.2-4.8,2.3l-5.8-5.4l-5.8,6.4l5.6,5.2
		c-1.5,2.3-2.3,4.8-2.7,7.3l-7,0.4l0.4,8.7l7.5-0.4c0.6,2.1,1.7,4.2,3.1,6l-5.2,5.6l6.4,5.8l5.4-5.8c2.3,1.2,4.6,1.9,7,2.1l0.4,8.3
		l8.7-0.4l-0.4-8.9c1.9-0.6,3.5-1.7,5-2.7l5.6,5.2l5.8-6.4l-5.8-5.4c0.8-1.7,1.4-3.3,1.7-5L686.7,420.8z M665,422.6
		c-2.9,3.3-8.1,3.5-11.2,0.6c-3.3-2.9-3.5-8.1-0.6-11.2c2.9-3.3,8.1-3.5,11.2-0.6C667.7,414.3,667.9,419.3,665,422.6z"/>
	<path class="st31" d="M698.5,367l-0.2-4.8l-4.6,0.2c-0.2-1-0.8-2.3-1.4-3.1l2.9-3.3l-3.5-3.1L689,356c-1.2-0.8-2.7-1.2-3.9-1.5
		l-0.2-4.6l-4.8,0.2l0.2,4.6c-0.8,0.2-1.9,0.6-2.7,1.2l-3.3-2.9l-3.1,3.5l3.1,2.7c-0.8,1.2-1.2,2.7-1.5,3.9l-3.9,0.2l0.2,4.8
		l3.9-0.2c0.4,1.2,0.8,2.3,1.7,3.3l-2.7,3.1l3.5,3.1l2.9-3.3c1.2,0.6,2.5,1,3.9,1l0.2,4.6l4.8-0.2l-0.2-4.8c1-0.4,1.9-0.8,2.7-1.5
		l3.1,2.7l3.1-3.5l-3.3-2.9c0.4-0.8,0.8-1.9,1-2.7H698.5z M686.7,368c-1.7,1.9-4.4,1.9-6.2,0.2c-1.9-1.7-1.9-4.4-0.2-6.2
		c1.7-1.9,4.3-1.9,6.2-0.2C688.2,363.4,688.4,366.3,686.7,368z"/>
	<path class="st32" d="M649.2,117.3c0-4.4,3.5-8.1,8.1-8.1c4.3,0,8.1,3.5,8.1,8.1c0,4.4-3.5,8.1-8.1,8.1
		C653,125.4,649.2,121.7,649.2,117.3z M651.9,117.3c0,3.1,2.5,5.6,5.6,5.6c3.1,0,5.6-2.5,5.6-5.6c0-3.1-2.5-5.6-5.6-5.6
		C654.4,111.7,651.9,114.2,651.9,117.3z"/>
	<path class="st33" d="M620.4,145.6c0-4.4,3.5-8.1,8.1-8.1c4.3,0,8.1,3.5,8.1,8.1c0,4.6-3.5,8.1-8.1,8.1
		C624,153.7,620.4,149.9,620.4,145.6z M622.9,145.6c0,3.1,2.5,5.6,5.6,5.6c3.1,0,5.6-2.5,5.6-5.6c0-3.1-2.5-5.6-5.6-5.6
		C625.4,140,622.9,142.5,622.9,145.6z"/>
	<path class="st32" d="M618.4,179.9c0.6,0,1.2-0.6,1.2-1.2V173c0-0.6-0.6-1.2-1.2-1.2c-0.6,0-1.2,0.6-1.2,1.2v5.6
		C617.1,179.2,617.7,179.9,618.4,179.9z"/>
	<path class="st32" d="M618.4,189.6c0.6,0,1.2-0.6,1.2-1.2v-5.6c0-0.6-0.6-1.2-1.2-1.2c-0.6,0-1.2,0.6-1.2,1.2v5.6
		C617.1,189.2,617.7,189.6,618.4,189.6z"/>
	<path class="st32" d="M610.7,181.9h5c0.6,0,1.2-0.6,1.2-1.2s-0.6-1.2-1.2-1.2h-5c-0.6,0-1.2,0.6-1.2,1.2S609.9,181.9,610.7,181.9z"
		/>
	<path class="st32" d="M621.3,181.9h5c0.6,0,1.2-0.6,1.2-1.2s-0.6-1.2-1.2-1.2h-5c-0.6,0-1.2,0.6-1.2,1.2S620.6,181.9,621.3,181.9z"
		/>
	<path class="st33" d="M662.9,148.7c0.6,0,1.2-0.6,1.2-1.2v-5.6c0-0.6-0.6-1.2-1.2-1.2c-0.6,0-1.2,0.6-1.2,1.2v5.6
		C661.7,148.1,662.3,148.7,662.9,148.7z"/>
	<path class="st33" d="M662.9,158.5c0.6,0,1.2-0.6,1.2-1.2v-5.6c0-0.6-0.6-1.2-1.2-1.2c-0.6,0-1.2,0.6-1.2,1.2v5.6
		C661.7,157.8,662.3,158.5,662.9,158.5z"/>
	<path class="st33" d="M655,150.8h5c0.6,0,1.2-0.6,1.2-1.2c0-0.6-0.6-1.2-1.2-1.2h-5c-0.6,0-1.2,0.6-1.2,1.2
		C653.8,150.2,654.4,150.8,655,150.8z"/>
	<path class="st33" d="M665.8,150.8h5c0.6,0,1.2-0.6,1.2-1.2c0-0.6-0.6-1.2-1.2-1.2h-5c-0.6,0-1.2,0.6-1.2,1.2
		C664.5,150.2,664.9,150.8,665.8,150.8z"/>
	<path class="st32" d="M228.5,101.3c-4.3,0-8.1-3.5-8.1-8.1c0-4.4,3.5-8.1,8.1-8.1c4.4,0,8.1,3.5,8.1,8.1S232.8,101.3,228.5,101.3z
		 M228.5,98.9c3.1,0,5.6-2.5,5.6-5.6s-2.5-5.6-5.6-5.6c-3.1,0-5.6,2.5-5.6,5.6S225.4,98.9,228.5,98.9z"/>
	<path class="st33" d="M257.7,127.9c-4.3,0-8.1-3.5-8.1-8.1c0-4.4,3.5-8.1,8.1-8.1c4.4,0,8.1,3.5,8.1,8.1
		C265.8,124.4,262.3,127.9,257.7,127.9z M257.7,125.4c3.1,0,5.6-2.5,5.6-5.6s-2.5-5.6-5.6-5.6c-3.1,0-5.6,2.5-5.6,5.6
		C252.3,122.9,254.8,125.4,257.7,125.4z"/>
	<path class="st32" d="M268.5,81.8c0-0.6-0.6-1.2-1.2-1.2h-5.6c-0.6,0-1.2,0.6-1.2,1.2s0.6,1.2,1.2,1.2h5.6
		C267.8,83.1,268.5,82.7,268.5,81.8z"/>
	<path class="st32" d="M278.2,81.8c0-0.6-0.6-1.2-1.2-1.2h-5.6c-0.6,0-1.2,0.6-1.2,1.2c0,0.6,0.6,1.2,1.2,1.2h5.6
		C277.6,83.1,278.2,82.7,278.2,81.8z"/>
	<path class="st32" d="M270.5,89.7v-5c0-0.6-0.6-1.2-1.2-1.2c-0.6,0-1.2,0.6-1.2,1.2v5c0,0.6,0.6,1.2,1.2,1.2
		C269.9,91,270.5,90.3,270.5,89.7z"/>
	<path class="st32" d="M270.5,79.1v-5c0-0.6-0.6-1.2-1.2-1.2c-0.6,0-1.2,0.6-1.2,1.2v5c0,0.6,0.6,1.2,1.2,1.2
		C269.9,80.4,270.5,79.8,270.5,79.1z"/>
	<path class="st33" d="M209.4,125.4c0-0.6-0.6-1.2-1.2-1.2h-5.6c-0.6,0-1.2,0.6-1.2,1.2s0.6,1.3,1.2,1.3h5.6
		C208.8,126.7,209.4,126.3,209.4,125.4z"/>
	<path class="st33" d="M219.2,125.4c0-0.6-0.6-1.2-1.2-1.2h-5.6c-0.6,0-1.2,0.6-1.2,1.2c0,0.6,0.6,1.2,1.2,1.2h5.6
		C218.5,126.7,219.2,126.3,219.2,125.4z"/>
	<path class="st33" d="M211.5,133.3v-5c0-0.6-0.6-1.2-1.2-1.2c-0.6,0-1.2,0.6-1.2,1.2v5c0,0.6,0.6,1.2,1.2,1.2
		C210.9,134.6,211.5,134,211.5,133.3z"/>
	<path class="st33" d="M211.5,122.7v-5c0-0.6-0.6-1.2-1.2-1.2c-0.6,0-1.2,0.6-1.2,1.2v5c0,0.6,0.6,1.2,1.2,1.2
		C210.9,124,211.5,123.4,211.5,122.7z"/>
	<path class="st33" d="M361.9,134.6h-19.1c-7.5,0-13.5-6-13.5-13.5V102c0-7.5,6-13.5,13.5-13.5h19.1c7.5,0,13.5,6,13.5,13.5v19.1
		C375.4,128.6,369.4,134.6,361.9,134.6z"/>
	<path class="st34" d="M337.7,106.1c0-4.2,2.7-6.4,6.2-6.4s6.2,2.3,6.2,6.4s-2.7,6.4-6.2,6.4S337.7,110.3,337.7,106.1z M357.6,99.9
		h5.6l-16,23.5h-5.6L357.6,99.9z M345.3,106.1c0-2.3-0.8-2.9-1.5-2.9c-0.8,0-1.4,0.6-1.4,2.9c0,2.3,0.8,2.9,1.4,2.9
		C344.5,109,345.3,108.2,345.3,106.1z M354.7,117.1c0-4.2,2.7-6.4,6.2-6.4s6.2,2.3,6.2,6.4c0,4.2-2.7,6.4-6.2,6.4
		S354.7,121.3,354.7,117.1z M362.3,117.1c0-2.3-0.8-2.9-1.5-2.9c-0.8,0-1.4,0.6-1.4,2.9c0,2.3,0.8,2.9,1.4,2.9
		C361.7,120,362.3,119.2,362.3,117.1z"/>
</g>
</svg>
