<svg width="214" height="170" viewBox="0 0 214 170" fill="none" xmlns="http://www.w3.org/2000/svg">
<path opacity="0.6" d="M203.651 105.661C202.169 113.397 199.268 120.618 195.271 126.935C184.182 144.535 164.584 155.881 142.73 155.881H100.826C83.8068 155.881 67.6255 148.919 55.8925 136.67C55.3767 136.154 54.861 135.574 54.4097 135.058C47.8986 127.709 43.1924 119.006 40.6782 109.594C39.8401 106.435 39.2599 103.276 38.9376 99.9881C38.9376 99.9236 38.9376 99.8592 38.9376 99.7302C38.3574 93.7993 38.164 88.1261 38.4863 82.7754C39.131 70.8489 42.161 60.4697 47.963 52.7337C54.7321 43.7082 65.3047 38.293 80.4545 38.1641C81.0992 38.1641 81.7438 38.1641 82.3885 38.1641C124.099 38.8087 122.745 57.8266 156.913 66.2073C164.713 68.1413 174.383 69.4951 186.89 69.8819C187.148 69.8819 187.47 69.8819 187.728 69.9464C205.263 71.1068 207.133 87.4815 203.651 105.661Z" fill="#E1E1E1"/>
<path opacity="0.5" d="M187.727 69.9466C175.929 76.1354 157.427 82.7111 135.186 80.3258C101.405 76.6512 58.857 69.6242 38.4854 82.84C39.13 70.9136 42.16 60.5344 47.962 52.7983C55.1179 51.1222 64.1433 51.0577 75.6185 54.0232C100.438 60.4054 132.672 67.4324 156.912 66.2075C164.712 68.1415 174.382 69.4953 186.889 69.8821C187.147 69.9466 187.469 69.9466 187.727 69.9466Z" fill="white"/>
<path opacity="0.5" d="M203.651 105.662C202.168 113.398 199.267 120.618 195.27 126.936C186.696 129.514 175.35 130.481 160.587 127.258C124.614 119.393 85.0956 119.522 55.892 136.606C55.3763 136.09 54.8605 135.51 54.4093 134.994C47.8981 127.645 43.192 118.942 40.6777 109.53C50.8636 104.695 76.3926 95.3468 109.335 102.825C144.083 110.819 183.859 117.137 203.651 105.662Z" fill="white"/>
<path opacity="0.6" d="M0 16.7615C0 17.5995 0.322348 18.3087 0.838085 18.8244C1.35382 19.3402 2.12742 19.6625 2.90102 19.6625H66.1433C67.755 19.6625 69.1088 18.3087 69.1088 16.697C69.1088 15.8589 68.7865 15.1498 68.2063 14.6341C67.6906 14.1183 66.917 13.7315 66.1433 13.7315H63.1779C62.0174 10.9594 59.2454 9.08987 56.0865 9.08987C53.959 9.08987 52.025 9.92794 50.6068 11.3462C48.7372 8.18733 45.3204 6.05991 41.3879 6.05991C40.292 6.05991 39.2605 6.25332 38.2935 6.51119C36.2306 2.64315 32.1691 0 27.463 0C21.8544 0 17.0838 3.80356 15.6655 8.96094C14.6341 8.4452 13.4737 8.12286 12.1843 8.12286C8.70309 8.12286 5.7376 10.4437 4.77059 13.667H2.83657C1.35383 13.796 0 15.1498 0 16.7615Z" fill="#E1E1E1"/>
<path opacity="0.6" d="M134.479 30.557C134.479 31.0728 134.285 31.5885 133.898 31.9108C133.576 32.2332 133.06 32.4911 132.545 32.4911H91.5434C90.5119 32.4911 89.6094 31.653 89.6094 30.557C89.6094 30.0413 89.8028 29.5256 90.1896 29.2032C90.5119 28.8809 91.0277 28.623 91.5434 28.623H93.4774C94.251 26.8179 95.9916 25.5931 98.0546 25.5931C99.4084 25.5931 100.698 26.1733 101.6 27.0758C102.825 25.0129 105.017 23.659 107.596 23.659C108.305 23.659 108.95 23.788 109.594 23.9814C110.948 21.4672 113.591 19.791 116.621 19.791C120.296 19.791 123.326 22.2408 124.293 25.5931C124.937 25.2707 125.711 25.0773 126.549 25.0773C128.805 25.0773 130.739 26.6245 131.32 28.6875H132.545C133.64 28.623 134.479 29.5256 134.479 30.557Z" fill="#E1E1E1"/>
<path d="M181.282 52.2828L181.798 49.6397L179.283 49.124C179.283 48.4793 179.154 47.8346 178.961 47.1899L181.024 45.8361L179.541 43.5798L177.607 44.8691C177.027 44.2889 176.318 43.8376 175.609 43.5153L176.124 41.0011L173.481 40.4854L172.966 43.064C172.45 43.064 171.87 43.193 171.354 43.3864L170 41.3234L167.744 42.8062L169.033 44.7402C168.453 45.3204 168.002 46.0295 167.679 46.7387L165.487 46.2874L164.972 48.9305L167.228 49.3818C167.292 50.091 167.421 50.8001 167.679 51.4448L165.681 52.7341L167.164 54.9905L169.226 53.6367C169.807 54.1524 170.516 54.5392 171.225 54.7971L170.709 57.3113L173.352 57.827L173.868 55.1194C174.448 55.0549 175.029 54.926 175.609 54.6681L176.898 56.6666L179.154 55.1839L177.801 53.1209C178.187 52.6696 178.445 52.2184 178.703 51.7671L181.282 52.2828ZM174.577 51.1869C173.417 51.9605 171.87 51.6382 171.096 50.4778C170.322 49.3174 170.645 47.7701 171.805 47.061C172.966 46.2874 174.513 46.6097 175.222 47.7701C176.06 48.8661 175.738 50.4133 174.577 51.1869Z" fill="#E1E1E1"/>
<path d="M40.2272 55.5065L40.7429 52.8633L38.2287 52.3476C38.2287 51.7029 38.0998 51.0582 37.9064 50.4136L39.9693 49.0598L38.4866 46.8034L36.5526 48.0927C35.9724 47.5125 35.2632 47.0613 34.5541 46.7389L35.0698 44.2247L32.4267 43.709L31.9109 46.2877C31.3952 46.2877 30.815 46.4166 30.2992 46.61L28.9454 44.547L26.6891 46.0298L27.9784 47.9638C27.3982 48.544 26.947 49.2532 26.6246 49.9623L24.4327 49.511L23.917 52.1542L26.1733 52.6054C26.2378 53.3146 26.3668 54.0237 26.6246 54.6684L24.6261 55.9578L26.1089 58.2141L28.1718 56.8603C28.752 57.376 29.4612 57.7628 30.1703 58.0207L29.6546 60.5349L32.2977 61.0507L32.8135 58.343C33.3937 58.2786 33.9739 58.1496 34.5541 57.8918L35.8434 59.8902L38.0998 58.4075L36.746 56.3445C37.1328 55.8933 37.3906 55.442 37.6485 54.9907L40.2272 55.5065ZM33.5226 54.4105C32.3622 55.1841 30.815 54.8618 30.0414 53.7014C29.2678 52.541 29.5901 50.9938 30.7505 50.2202C31.9109 49.4466 33.4581 49.7689 34.2317 50.9293C34.9409 52.0897 34.683 53.6369 33.5226 54.4105Z" fill="#E1E1E1"/>
<path d="M195.594 55.4419L195.852 53.9591L194.498 53.7012C194.498 53.3144 194.433 52.9921 194.304 52.6053L195.4 51.8317L194.562 50.6068L193.466 51.3159C193.144 50.9936 192.757 50.7357 192.37 50.5423L192.628 49.1885L191.146 48.9307L190.888 50.3489C190.565 50.3489 190.307 50.4134 189.985 50.5423L189.34 49.4464L188.116 50.2845L188.825 51.3804C188.502 51.7028 188.245 52.0896 188.051 52.4764L186.891 52.2185L186.633 53.7012L187.858 53.9591C187.858 54.3459 187.987 54.7327 188.116 55.055L187.02 55.7642L187.858 56.9891L188.954 56.2155C189.276 56.4733 189.663 56.7312 190.05 56.8601L189.792 58.2139L191.274 58.4718L191.597 56.9891C191.919 56.9246 192.241 56.8601 192.564 56.7312L193.273 57.8271L194.498 56.9891L193.724 55.8931C193.918 55.6353 194.111 55.3774 194.24 55.1195L195.594 55.4419ZM191.919 54.8616C191.274 55.2484 190.436 55.1195 190.05 54.4748C189.663 53.8302 189.792 52.9921 190.436 52.6053C191.081 52.2185 191.919 52.3474 192.306 52.9921C192.693 53.5723 192.564 54.4104 191.919 54.8616Z" fill="#E1E1E1"/>
<path opacity="0.6" d="M147.888 21.6607C147.888 22.4343 148.21 23.1434 148.726 23.6592C149.241 24.1749 149.951 24.4972 150.724 24.4972H211.13C212.677 24.4972 213.967 23.2079 213.967 21.6607C213.967 20.8871 213.644 20.1779 213.129 19.6622C212.613 19.1465 211.904 18.8241 211.13 18.8241H208.293C207.198 16.181 204.554 14.3759 201.524 14.3759C199.461 14.3759 197.656 15.214 196.303 16.5678C194.497 13.5378 191.21 11.5393 187.471 11.5393C186.439 11.5393 185.472 11.6683 184.505 11.9906C182.571 8.31597 178.639 5.80176 174.19 5.80176C168.84 5.80176 164.262 9.41192 162.909 14.3759C161.942 13.8602 160.781 13.6023 159.621 13.6023C156.268 13.6023 153.432 15.8586 152.529 18.8886H150.724C149.113 18.8241 147.888 20.1135 147.888 21.6607Z" fill="#E1E1E1"/>
<path opacity="0.6" d="M213.966 164.327C213.966 167.422 169.484 170.001 114.558 170.001C59.6963 170.001 15.1494 167.486 15.1494 164.327C15.1494 161.233 59.6318 158.654 114.558 158.654C169.419 158.654 213.966 161.233 213.966 164.327Z" fill="#E1E1E1"/>
<path d="M48.6728 164.263H50.4134L44.0312 147.695C44.3535 146.148 44.9981 144.085 46.4164 141.635C49.0596 137.058 51.0581 131.643 47.6413 132.029C44.7403 132.352 42.6773 138.541 42.8063 144.601L40.4855 138.67C40.0987 136.736 39.5184 133.899 39.7118 130.74C40.1631 123.391 39.1961 116.428 35.6504 118.298C32.1047 120.232 33.9743 132.223 39.2606 139.959L40.421 143.053C36.6174 137.316 29.4616 132.739 26.6895 134.737C23.9174 136.736 29.0103 139.379 34.0387 141.055C37.9068 142.28 40.0987 144.02 41.1301 144.987L46.6743 159.428C40.6789 150.403 29.2682 143.118 24.8844 146.277C20.5006 149.436 28.559 153.626 36.553 156.269C42.6129 158.268 46.1586 160.911 47.7702 162.458L48.6728 164.263Z" fill="#484848"/>
<path d="M179.284 164.263C179.606 162.781 179.478 161.04 178.768 159.493C176.899 155.431 179.284 154.078 182.314 152.015C185.344 149.952 184.893 145.89 181.798 143.054C178.704 140.217 182.379 136.671 179.735 132.03C177.092 127.388 172.386 131.836 172.193 136.736C172.064 140.217 167.551 140.411 166.906 145.052C166.326 149.049 171.741 151.499 166.713 154.4C165.101 155.302 164.457 156.85 164.263 158.526C164.07 160.653 164.715 162.716 166.004 164.263H179.284Z" fill="#484848"/>
<path d="M172.258 164.264L176.771 138.412C176.835 138.154 176.642 137.961 176.448 137.961C176.19 137.896 175.997 138.09 175.997 138.283L171.42 164.328H172.258V164.264Z" fill="#484848"/>
<path d="M191.918 164.263C191.983 163.876 191.983 163.554 191.983 163.167C191.918 157.494 195.335 157.107 199.912 156.269C204.489 155.431 206.037 150.402 203.909 145.567C201.717 140.732 207.842 138.411 207.133 131.642C206.423 124.873 198.623 127.71 195.98 133.319C194.046 137.316 188.695 135.317 185.536 140.346C182.828 144.729 187.857 150.338 180.572 151.112C178.251 151.369 176.704 152.788 175.673 154.657C173.932 157.687 173.996 161.297 175.544 164.263H191.918Z" fill="#5A5A5A"/>
<path d="M182.764 164.263L200.428 137.509C200.557 137.251 200.492 136.928 200.299 136.799C200.041 136.671 199.719 136.735 199.59 136.928L181.539 164.263H182.764Z" fill="#484848"/>
<path d="M64.5312 156.076C62.9195 143.505 60.5342 130.418 57.8911 121.973C54.4743 110.885 50.2195 103.6 45.191 100.183C44.8687 99.9896 44.4174 100.054 44.1596 100.376C43.9662 100.699 44.0306 101.15 44.353 101.408C53.1205 107.339 59.5672 126.615 63.1129 157.108L64.5312 156.076Z" fill="#484848"/>
<path d="M54.0874 112.302C54.0874 112.302 60.0184 111.142 57.5687 100.763C57.5687 100.763 48.9301 105.146 54.0874 112.302Z" fill="#5A5A5A"/>
<path d="M55.6343 117.589C55.6343 117.589 54.7962 111.593 44.2881 113.463C44.2881 113.463 48.1561 122.295 55.6343 117.589Z" fill="#5A5A5A"/>
<path d="M48.1563 103.793C48.1563 103.793 49.3812 97.8617 38.8086 96.1211C38.8731 96.1211 39.5822 105.791 48.1563 103.793Z" fill="#5A5A5A"/>
<path d="M59.0505 128.162C59.0505 128.162 65.046 129.064 66.2709 118.492C66.2709 118.427 56.6653 119.652 59.0505 128.162Z" fill="#5A5A5A"/>
<path d="M59.8255 133.77C59.8255 133.77 60.0189 127.71 49.3818 127.775C49.3818 127.775 51.6382 137.123 59.8255 133.77Z" fill="#5A5A5A"/>
<path d="M61.6304 141.377C61.6304 141.377 67.6258 142.409 68.9796 131.836C68.9796 131.836 59.374 132.867 61.6304 141.377Z" fill="#5A5A5A"/>
<path d="M203.651 103.341V103.406L190.693 127.968L185.794 119.007L124.743 152.465L114.88 134.543L60.0183 164.714H38.8086L118.941 120.747L128.74 138.669L180.894 110.046L175.93 101.085L203.651 103.341Z" fill="#F43E29"/>
<path d="M203.651 103.405L190.693 127.967L185.794 119.006L124.743 152.465L114.88 134.543L60.0183 164.714H47.8984L116.363 127.129L126.226 145.051L203.651 103.405Z" fill="#D02E1B"/>
<path d="M90.0608 122.229L86.5151 124.679C86.5151 124.679 86.4506 126.291 87.8689 128.032L92.0593 125.259L90.0608 122.229Z" fill="#BFBFBF"/>
<path d="M88.3853 126.742C88.901 127.387 89.1589 127.838 88.6431 128.676C88.3208 129.192 87.3538 134.865 87.6761 136.605C87.934 138.282 86.6447 138.41 85.9355 138.346C85.2264 138.281 81.4873 125.517 81.4873 125.517C81.4873 125.517 85.033 123.841 86.3223 123.776C87.6117 123.776 87.6761 125.581 88.3853 126.742Z" fill="#5A5A5A"/>
<path d="M117.266 87.2243C117.266 87.2243 116.879 108.047 114.687 112.109C112.495 116.235 91.2856 126.098 91.2856 126.098C91.2856 126.098 89.8028 124.422 89.3516 122.037C89.3516 122.037 95.347 116.815 97.6678 114.429C101.214 110.884 106.435 107.789 106.435 107.789L105.92 84.1299L117.266 87.2243Z" fill="#181818"/>
<path d="M90.1264 120.94C90.1264 120.94 88.5792 121.907 88.1279 122.359C88.1279 122.359 89.3528 126.356 91.3513 126.807L92.8985 125.84C92.8985 125.904 90.7066 123.197 90.1264 120.94Z" fill="#2F2F2F"/>
<path d="M151.69 114.751L153.882 118.426C153.882 118.426 155.494 118.555 157.299 117.266L154.785 112.946L151.69 114.751Z" fill="#BFBFBF"/>
<path d="M156.203 116.556C156.719 115.912 157.17 115.654 158.072 116.04C158.653 116.298 164.39 116.363 166.066 115.847C167.743 115.331 168.71 116.943 168.065 117.265C164.713 119.135 156.074 123.583 156.074 123.583C156.074 123.583 153.818 120.295 153.624 119.07C153.431 117.781 155.171 117.394 156.203 116.556Z" fill="#5A5A5A"/>
<path d="M116.234 75.4268C116.234 75.4268 139.571 84.4522 142.601 87.9979C145.631 91.5436 155.817 113.656 155.817 113.656C155.817 113.656 154.076 116.75 151.691 116.17C151.691 116.17 146.469 108.498 144.664 105.597C142.73 102.503 138.217 98.8283 136.026 92.1882C136.026 92.1882 123.583 91.737 114.042 90.1898C107.66 89.1583 103.212 84.5811 104.759 78.2633C104.759 78.2633 104.759 78.2633 104.759 78.1988C104.888 77.812 105.21 77.5542 105.597 77.4897L116.234 75.4268Z" fill="#2F2F2F"/>
<path d="M150.466 115.009C150.466 115.009 151.239 116.363 151.755 116.814C151.755 116.814 154.785 115.976 156.268 113.656L155.494 112.108C155.494 112.173 152.851 114.107 150.466 115.009Z" fill="#434343"/>
<path d="M163.94 32.9427C163.231 32.7493 160.137 34.6189 160.008 34.6834C159.879 34.7478 159.234 34.5544 158.654 34.49C158.009 34.4255 157.687 34.6834 157.236 35.5214C156.784 36.3595 156.398 37.8422 156.398 37.8422C156.075 37.9712 155.753 38.1001 155.431 38.2935C155.946 39.1961 156.527 40.1631 157.107 41.0011C157.623 40.6788 158.074 40.3565 158.525 40.0986C158.847 40.2275 159.17 40.2275 159.428 40.1631C160.201 39.9697 160.846 39.7118 161.168 39.5184C161.362 39.4539 161.491 39.3895 161.491 39.3895C161.555 39.3895 161.942 39.5184 162.587 39.325C163.36 39.0671 163.876 38.4869 163.811 38.1001C163.811 37.7133 163.36 37.5199 163.36 37.5199C163.36 37.5199 163.682 37.1976 163.618 36.8108C163.553 36.424 162.844 36.0372 162.844 36.0372C162.844 36.0372 163.167 35.5859 162.844 35.1991C162.522 34.8123 161.62 35.2636 161.555 35.2636C161.748 35.1991 164.714 33.1361 163.94 32.9427Z" fill="#BFBFBF"/>
<path d="M158.267 37.0036H158.203C158.138 36.9391 158.074 36.8747 158.138 36.7458L158.46 36.0366C158.46 35.9721 158.525 35.9721 158.589 35.9721C158.654 35.9721 158.654 35.9721 158.718 35.9721C158.718 35.9721 159.556 36.4234 160.265 36.23C160.459 36.1655 160.652 36.0366 160.652 35.9077C160.717 35.7787 160.652 35.6498 160.652 35.6498C160.588 35.5853 160.652 35.4564 160.717 35.3919C160.781 35.3275 160.91 35.3919 160.975 35.4564C160.975 35.4564 161.104 35.7143 160.975 36.0366C160.91 36.23 160.652 36.4234 160.33 36.5523C159.685 36.7457 158.976 36.4879 158.718 36.3589L158.46 36.9392C158.396 36.9392 158.331 37.0036 158.267 37.0036Z" fill="#A8A8A8"/>
<path d="M161.556 39.4532C161.556 39.4532 161.427 39.5177 161.169 39.5822C160.847 39.2598 160.782 38.8086 160.782 38.4862C160.718 38.1639 160.718 37.906 160.524 37.7126C160.331 37.5192 160.267 37.3258 160.202 37.0679C160.202 36.8745 160.202 36.6811 160.267 36.4877C160.267 36.4233 160.267 36.3588 160.331 36.2943C160.396 36.1654 160.396 36.1009 160.396 36.1009C160.46 36.0365 160.524 35.972 160.653 36.0365C160.718 36.1009 160.782 36.1654 160.718 36.2943C160.718 36.2943 160.718 36.2943 160.718 36.3588C160.653 36.4877 160.589 36.7456 160.589 37.0035C160.589 37.1969 160.653 37.3258 160.782 37.5192C161.04 37.7771 161.105 38.1639 161.105 38.4862C161.169 38.8086 161.169 39.1954 161.556 39.4532Z" fill="#A8A8A8"/>
<path d="M159.041 38.2934C158.977 38.2934 158.912 38.2934 158.848 38.229C158.784 38.1645 158.848 38.0355 158.912 37.9711C158.912 37.9711 159.879 37.3909 159.944 36.4239C159.944 36.3594 160.008 36.2305 160.137 36.2305C160.202 36.2305 160.331 36.2949 160.331 36.4239C160.266 37.5843 159.17 38.229 159.106 38.229C159.106 38.2934 159.106 38.2934 159.041 38.2934Z" fill="#A8A8A8"/>
<path d="M157.558 41.0008C157.558 41.0008 147.953 47.1252 145.181 47.6409C142.409 48.1566 133.963 46.8673 133.963 46.8673C132.996 46.8028 132.158 46.6739 131.385 46.545C128.806 46.0937 127.323 45.1912 126.421 44.0952C124.938 42.2257 125.84 39.5825 126.679 37.3906C126.679 37.3906 128.032 38.4221 134.737 39.8404C134.737 39.8404 144.278 41.7099 144.794 41.7744C144.794 41.7744 152.014 39.4536 155.947 37.6485C156.011 37.7774 156.849 40.485 157.558 41.0008Z" fill="#5A5A5A"/>
<path d="M156.011 37.4551L154.786 38.0353L156.656 41.9033L157.881 41.2586L156.011 37.4551Z" fill="#484848"/>
<path d="M131.385 46.5457C128.806 46.0944 127.323 45.1919 126.421 44.0959C125.841 41.7107 125.518 39.132 126.421 38.4873C126.485 38.4873 129.193 43.6447 131.385 46.5457Z" fill="#484848"/>
<path d="M100.568 81.0353L91.3489 101.085C90.9621 101.858 90.0596 102.245 89.286 101.858L56.6656 86.9019C55.892 86.5151 55.5052 85.6125 55.892 84.8389L65.1108 64.7896C65.4976 64.016 66.4001 63.6292 67.1737 64.016L99.7941 78.9724C100.568 79.3592 100.89 80.2617 100.568 81.0353Z" fill="#181818"/>
<path d="M95.539 91.9303L100.503 81.0353C100.89 80.2617 100.503 79.2947 99.7294 78.9724L67.109 64.016C66.3353 63.6292 65.3683 64.016 65.046 64.7896L60.082 75.6846L95.539 91.9303Z" fill="#2F2F2F"/>
<path d="M89.9293 70.5912L88.4465 73.7501L86.8349 73.0409L88.2531 69.9465L86.7059 69.2374L86.6415 69.1729L85.6745 68.7216L85.5455 68.6572L81.4196 66.7876L80.0013 69.882L78.3896 69.1729L79.8724 66.014C80.2592 65.1759 81.2262 64.7891 82.0643 65.1759L85.9323 66.981L86.2547 67.1099L86.7704 67.3678L86.8993 67.4323L89.0912 68.4637C89.9937 68.7861 90.3161 69.7531 89.9293 70.5912Z" fill="#B2B2B2"/>
<path d="M86.6409 69.2368L85.6739 68.7856L85.5449 68.7211C85.6094 68.0764 85.8028 67.4318 85.9317 66.916L86.2541 67.0449L86.7698 67.3028C86.6409 68.0764 86.6409 68.7211 86.6409 69.2368Z" fill="#9C9C9C"/>
<path d="M78.9481 68.0333L78.4102 69.2051L80.0506 69.9582L80.5885 68.7864L78.9481 68.0333Z" fill="#9C9C9C"/>
<path d="M87.4149 71.8605L86.877 73.0322L88.5174 73.7853L89.0553 72.6136L87.4149 71.8605Z" fill="#9C9C9C"/>
<path d="M69.7525 78.1338L68.2698 81.2927C68.2053 81.4861 68.0119 81.5506 67.8185 81.4861L66.2068 80.7125C66.0134 80.648 65.949 80.4546 66.0134 80.2612L67.4962 77.1023C67.5606 76.9089 67.754 76.8445 67.9475 76.9089L69.5591 77.6825C69.7525 77.747 69.817 78.0049 69.7525 78.1338Z" fill="#9C9C9C"/>
<path d="M69.7536 78.1338L69.0444 79.7455L66.7881 78.714L67.4972 77.1023C67.5617 76.9089 67.7551 76.8445 67.9485 76.9089L69.5602 77.6825C69.7536 77.747 69.818 78.0049 69.7536 78.1338Z" fill="#B2B2B2"/>
<path d="M89.609 87.2881L88.1262 90.447C88.0618 90.6404 87.8684 90.7049 87.675 90.6404L86.0633 89.8668C85.8699 89.8023 85.8054 89.6089 85.8699 89.4155L87.3526 86.2566C87.4171 86.0632 87.6105 85.9988 87.8039 86.0632L89.4156 86.8368C89.609 86.9013 89.6734 87.0947 89.609 87.2881Z" fill="#9C9C9C"/>
<path d="M89.609 87.2881L88.8999 88.8998L86.6436 87.8683L87.3527 86.2566C87.4171 86.0632 87.6106 85.9988 87.804 86.0632L89.4156 86.8368C89.609 86.9013 89.6735 87.0947 89.609 87.2881Z" fill="#B2B2B2"/>
<path d="M88.3185 68.0126C87.9961 67.8836 87.5449 67.6902 87.287 67.5613C87.287 67.4968 87.287 67.3679 87.2225 67.1745C87.0291 66.8522 86.5779 66.9811 86.5134 67.1745C86.2555 67.4968 85.9977 68.206 85.9332 68.8506L86.3844 69.1085C86.3844 69.1085 85.9332 69.6242 85.6109 69.5598C85.0951 69.4308 85.1596 68.9151 85.1596 68.9151C85.1596 68.9151 84.9017 69.3664 84.5149 69.2374C84.1281 69.1085 84.1281 68.5928 84.1281 68.5928C83.4834 68.9151 83.2256 68.2704 83.2256 68.2704C83.2256 68.2704 82.5809 68.5283 82.452 67.9481C82.323 67.3679 83.1611 65.6917 83.1611 65.6917C83.8058 64.1445 84.7728 62.4039 85.6753 61.308C85.8687 60.7922 86.191 60.212 86.4489 59.6318C87.0936 60.0831 87.8027 60.5344 88.4474 60.9856C88.8342 61.2435 89.221 61.5014 89.6078 61.8237C89.0276 62.5973 88.5119 63.242 88.1895 63.6933C88.1895 64.1445 88.254 64.6603 88.1895 65.0471C88.1251 65.6917 88.6408 67.1745 88.3185 68.0126Z" fill="#BFBFBF"/>
<path d="M105.016 49.6397L113.526 46.1585C113.526 46.1585 117.071 40.0341 114.944 35.9727C114.944 35.9727 106.176 40.0341 101.664 42.5483C101.664 42.5483 94.9591 46.1585 92.7027 48.6727L85.7402 60.5347C85.7402 60.5347 87.8677 62.9199 89.2859 62.791C91.8646 59.2453 95.4748 54.2169 96.1839 52.5407L105.016 49.6397Z" fill="#5A5A5A"/>
<path d="M86.0627 59.6963C85.6114 60.0186 85.2246 60.5344 85.0957 61.179L88.9637 63.6933C89.3505 63.3065 89.7373 62.8552 89.9952 62.275L86.0627 59.6963Z" fill="#484848"/>
<path d="M126.291 73.75C125.84 76.3931 126.291 79.681 126.291 79.681C122.81 78.3272 117.588 75.684 112.624 77.8759C108.627 79.6165 104.695 78.6495 104.695 78.6495C104.695 78.6495 104.308 74.1368 105.468 69.4952C106.629 64.918 107.789 59.1159 108.176 56.8596C108.498 54.9256 108.821 53.1205 109.143 51.4443C109.336 50.4129 109.53 49.3814 109.723 48.4144C110.819 42.9347 111.335 38.293 112.173 37.5194C114.623 35.5209 120.231 33.5225 120.231 33.5225L124.035 34.5539C124.035 34.5539 128.096 37.7128 128.032 39.9692C127.645 60.0829 127.129 60.2119 126.742 66.3363C126.742 68.2058 126.807 70.9779 126.291 73.75Z" fill="#5A5A5A"/>
<path d="M108.885 70.1405C108.82 70.1405 108.756 70.1405 108.756 70.1405C108.627 70.1405 108.498 70.0115 108.498 69.8826C108.498 69.7537 108.627 69.6247 108.756 69.6247C108.756 69.6247 108.756 69.6247 108.82 69.6247C109.401 69.6892 114.171 69.9471 117.523 68.6577C121.843 67.046 124.421 63.6937 124.421 63.6293C124.486 63.5003 124.679 63.5003 124.808 63.5648C124.937 63.6293 124.937 63.8227 124.873 63.9516C124.744 64.0805 122.165 67.4973 117.717 69.1735C114.3 70.4628 109.658 70.2049 108.885 70.1405Z" fill="#484848"/>
<path d="M120.747 70.3976C120.747 70.2042 120.554 70.0753 120.361 70.2042C118.298 71.3647 114.494 72.9763 110.368 72.3317C110.239 72.3317 110.11 72.3961 110.046 72.5251C110.046 72.654 110.11 72.7829 110.239 72.8474C110.755 72.9119 111.271 72.9763 111.787 72.9763C115.397 73.1053 118.684 71.687 120.554 70.6555C120.683 70.591 120.747 70.5266 120.747 70.3976Z" fill="#484848"/>
<path d="M116.556 45.3848C116.556 45.3848 113.784 48.4792 109.271 50.7355C109.465 49.7041 109.723 48.6081 109.916 47.6411L110.303 47.5122L116.556 45.3848Z" fill="#484848"/>
<path d="M125.904 63.629L123.584 70.4625L120.747 63.9514L122.81 41.7102L122.874 40.8076L123.906 40.7432L124.035 41.9036L125.904 63.629Z" fill="white"/>
<path d="M124.034 41.9036L123.519 42.4838L122.81 41.7102L122.874 40.8076L123.906 40.7432L124.034 41.9036Z" fill="#EDEDED"/>
<path d="M124.744 39.1314L123.519 41.839L121.521 38.938L123.519 36.6172L124.744 39.1314Z" fill="white"/>
<path d="M118.813 36.8749C118.62 36.1013 118.555 35.2633 118.749 34.4897C118.813 34.2963 118.878 34.1029 118.942 33.9739C119.393 33.2003 120.489 33.5227 120.489 33.5227C121.005 35.779 123.455 36.6171 123.455 36.6171L121.134 40.3562C121.134 40.3562 119.587 39.8404 118.813 36.8749Z" fill="#484848"/>
<path d="M124.938 34.5537C124.938 34.5537 126.421 35.9075 125.969 37.5837L125.325 40.3558L123.52 36.6167C123.52 36.6167 124.487 35.5852 124.938 34.5537Z" fill="#484848"/>
<path d="M126.032 31.7825L125.259 34.1678L124.743 35.715C124.679 35.9728 124.227 36.6175 123.97 36.6175C122.229 36.553 121.069 35.5216 120.359 34.619L120.875 30.8799C120.875 30.8799 121.842 30.6865 123.003 30.6865L126.032 31.7825Z" fill="#BFBFBF"/>
<path d="M126.033 31.7825L125.259 34.1678C123.39 33.0718 122.81 31.2023 122.681 30.6865C122.81 30.6865 122.874 30.6865 123.003 30.6865L126.033 31.7825Z" fill="#A8A8A8"/>
<path d="M129.837 23.0145C130.03 24.2394 130.159 25.851 130.159 27.0759C130.159 27.3982 130.159 27.6561 130.095 27.9785C130.095 28.1074 130.095 28.3008 130.03 28.4942C129.966 28.8165 129.966 29.1389 129.966 29.5257V29.5901C129.901 30.1059 129.901 30.6861 129.772 31.2018C129.708 31.4597 129.643 31.6531 129.579 31.911C129.514 32.0399 129.514 32.1688 129.45 32.2977C128.805 33.9094 128.29 35.1343 124.293 32.4912C122.423 31.2663 120.36 31.6531 119.522 29.3967C119.522 29.3967 119.522 29.3967 119.522 29.3323C118.942 27.7851 118.555 26.1734 118.362 25.0774C118.168 23.917 118.619 22.6921 119.522 21.9185C121.972 19.8556 125.002 19.8556 127.065 20.2424C128.547 20.4358 129.643 21.5317 129.837 23.0145Z" fill="#BFBFBF"/>
<path d="M122.553 28.4943C122.553 28.4943 123.326 28.3009 123.713 27.6562C123.713 27.6562 123.584 29.4613 122.102 29.4613L122.553 28.4943Z" fill="#A8A8A8"/>
<path d="M130.546 20.4361C131.706 19.1467 131.706 17.0838 129.901 16.7615C126.807 16.2457 125.066 15.6655 123.261 15.601C121.391 15.5366 120.489 17.664 118.555 18.1797C116.621 18.6955 115.46 22.0478 116.04 23.9173C116.105 24.1752 116.234 24.4331 116.298 24.6909C117.136 27.1407 118.426 29.397 119.973 31.46C120.037 31.5244 120.102 31.5889 120.166 31.7178C120.295 31.8468 121.198 32.1046 122.165 30.5574C122.938 29.2681 122.874 28.3011 122.874 28.3011C121.069 28.0432 119.651 25.7869 120.489 24.6265C120.489 24.6265 120.876 24.1752 121.327 24.1752C122.423 24.0462 123.261 24.6909 123.519 25.4001C123.712 26.1092 123.906 26.5605 123.906 26.5605L124.937 26.6249C124.937 26.6249 124.421 24.8843 124.421 24.2396C124.421 23.595 125.324 23.8528 125.195 22.628C125.001 21.4031 123.97 21.2742 124.421 20.8229C124.873 20.3716 127.902 20.7584 128.805 21.2097C129.708 21.7899 130.546 20.4361 130.546 20.4361Z" fill="#303030"/>
<path d="M122.94 26.8187C122.875 26.8187 122.811 26.8187 122.746 26.7542C122.295 25.8517 121.199 25.5938 121.199 25.5938C121.135 25.5938 121.07 25.5294 121.07 25.4004C121.07 25.3359 121.135 25.2715 121.264 25.2715C121.328 25.2715 122.553 25.5294 123.069 26.5608C123.069 26.6898 123.069 26.7542 122.94 26.8187Z" fill="#A8A8A8"/>
<path d="M121.779 26.4956H121.714C121.65 26.4956 121.585 26.3667 121.65 26.3022C121.65 26.3022 121.779 25.9799 122.101 25.722C122.165 25.6575 122.294 25.722 122.294 25.7865C122.359 25.851 122.294 25.9799 122.23 25.9799C121.972 26.1733 121.843 26.4312 121.843 26.4312C121.908 26.4312 121.843 26.4956 121.779 26.4956Z" fill="#A8A8A8"/>
<path d="M129.064 25.1422C129.128 25.4645 128.999 25.7869 128.806 25.8513C128.613 25.9158 128.355 25.658 128.29 25.3356C128.226 25.0133 128.355 24.6909 128.548 24.6265C128.806 24.562 128.999 24.7554 129.064 25.1422Z" fill="#303030"/>
<path d="M126.55 23.6597C126.55 23.6597 128.032 22.6927 129.386 23.015V23.7241C129.386 23.7241 127.517 23.9175 126.679 24.4977C126.55 24.2399 126.485 23.982 126.55 23.6597Z" fill="#303030"/>
<path d="M130.03 24.9492C130.03 24.9492 131.126 26.9477 131.191 27.8502C131.255 28.366 129.837 28.7528 129.837 28.7528L130.03 24.9492Z" fill="#BFBFBF"/>
<path d="M130.031 29.4619C130.031 29.5264 130.031 29.5264 130.031 29.4619C129.966 30.0421 129.966 30.6223 129.837 31.1381C129.773 31.1381 129.773 31.1381 129.708 31.1381C128.419 31.2025 127.968 30.1066 127.839 29.5264L130.031 29.4619Z" fill="white"/>
<path d="M158.394 62.7267C157.04 62.7267 155.88 61.6307 155.88 60.2125C155.88 58.7942 156.976 57.6982 158.394 57.6982C159.748 57.6982 160.908 58.7942 160.908 60.2125C160.908 61.6307 159.748 62.7267 158.394 62.7267ZM158.394 58.5363C157.427 58.5363 156.653 59.3099 156.653 60.2769C156.653 61.2439 157.427 62.0175 158.394 62.0175C159.361 62.0175 160.135 61.2439 160.135 60.2769C160.135 59.3099 159.361 58.5363 158.394 58.5363Z" fill="#5A5A5A"/>
<path d="M167.42 71.5587C166.066 71.5587 164.905 70.4628 164.905 69.0445C164.905 67.6907 166.001 66.5303 167.42 66.5303C168.773 66.5303 169.934 67.6262 169.934 69.0445C169.934 70.3983 168.773 71.5587 167.42 71.5587ZM167.42 67.3039C166.453 67.3039 165.679 68.0775 165.679 69.0445C165.679 70.0115 166.453 70.7851 167.42 70.7851C168.387 70.7851 169.16 70.0115 169.16 69.0445C169.16 68.0775 168.387 67.3039 167.42 67.3039Z" fill="#B2B2B2"/>
<path d="M170.515 79.6812C170.321 79.6812 170.128 79.4878 170.128 79.2944V77.5538C170.128 77.3604 170.321 77.167 170.515 77.167C170.708 77.167 170.902 77.3604 170.902 77.5538V79.2944C170.902 79.4878 170.708 79.6812 170.515 79.6812Z" fill="#5A5A5A"/>
<path d="M170.515 82.7115C170.321 82.7115 170.128 82.5181 170.128 82.3247V80.5841C170.128 80.3907 170.321 80.1973 170.515 80.1973C170.708 80.1973 170.902 80.3907 170.902 80.5841V82.3247C170.902 82.5181 170.708 82.7115 170.515 82.7115Z" fill="#5A5A5A"/>
<path d="M172.962 80.3263H171.415C171.222 80.3263 171.028 80.1329 171.028 79.9395C171.028 79.7461 171.222 79.5527 171.415 79.5527H172.962C173.156 79.5527 173.349 79.7461 173.349 79.9395C173.349 80.1329 173.156 80.3263 172.962 80.3263Z" fill="#5A5A5A"/>
<path d="M169.612 80.3263H168.065C167.871 80.3263 167.678 80.1329 167.678 79.9395C167.678 79.7461 167.871 79.5527 168.065 79.5527H169.612C169.805 79.5527 169.999 79.7461 169.999 79.9395C169.999 80.1329 169.87 80.3263 169.612 80.3263Z" fill="#5A5A5A"/>
<path d="M156.653 69.9468C156.46 69.9468 156.267 69.7534 156.267 69.56V67.8194C156.267 67.626 156.46 67.4326 156.653 67.4326C156.847 67.4326 157.04 67.626 157.04 67.8194V69.56C157.04 69.8179 156.911 69.9468 156.653 69.9468Z" fill="#B2B2B2"/>
<path d="M156.653 72.9771C156.46 72.9771 156.267 72.7837 156.267 72.5903V70.8497C156.267 70.6563 156.46 70.4629 156.653 70.4629C156.847 70.4629 157.04 70.6563 157.04 70.8497V72.5903C157.04 72.8482 156.911 72.9771 156.653 72.9771Z" fill="#B2B2B2"/>
<path d="M159.103 70.591H157.556C157.362 70.591 157.169 70.3976 157.169 70.2042C157.169 70.0108 157.362 69.8174 157.556 69.8174H159.103C159.296 69.8174 159.49 70.0108 159.49 70.2042C159.49 70.462 159.296 70.591 159.103 70.591Z" fill="#B2B2B2"/>
<path d="M155.816 70.591H154.269C154.075 70.591 153.882 70.3976 153.882 70.2042C153.882 70.0108 154.075 69.8174 154.269 69.8174H155.816C156.009 69.8174 156.203 70.0108 156.203 70.2042C156.203 70.462 156.009 70.591 155.816 70.591Z" fill="#B2B2B2"/>
<path d="M65.7545 27.2052C64.4006 27.2052 63.2402 26.1093 63.2402 24.691C63.2402 23.2727 64.3362 22.1768 65.7545 22.1768C67.1727 22.1768 68.2687 23.2727 68.2687 24.691C68.2687 26.1093 67.1083 27.2052 65.7545 27.2052ZM65.7545 26.4316C66.7215 26.4316 67.4951 25.658 67.4951 24.691C67.4951 23.724 66.7215 22.9504 65.7545 22.9504C64.7874 22.9504 64.0138 23.724 64.0138 24.691C64.0138 25.658 64.7874 26.4316 65.7545 26.4316Z" fill="#5A5A5A"/>
<path d="M74.8453 35.4572C73.4915 35.4572 72.3311 34.3612 72.3311 32.9429C72.3311 31.5246 73.427 30.4287 74.8453 30.4287C76.1991 30.4287 77.3595 31.5246 77.3595 32.9429C77.3595 34.3612 76.2635 35.4572 74.8453 35.4572ZM74.8453 34.6835C75.8123 34.6835 76.5859 33.9099 76.5859 32.9429C76.5859 31.9759 75.8123 31.2023 74.8453 31.2023C73.8783 31.2023 73.1047 31.9759 73.1047 32.9429C73.1691 33.9099 73.9427 34.6835 74.8453 34.6835Z" fill="#B2B2B2"/>
<path d="M78.1968 21.1456C78.1968 20.9522 78.0034 20.7588 77.81 20.7588H76.0694C75.876 20.7588 75.6826 20.9522 75.6826 21.1456C75.6826 21.339 75.876 21.5324 76.0694 21.5324H77.81C78.0034 21.5324 78.1968 21.339 78.1968 21.1456Z" fill="#5A5A5A"/>
<path d="M81.2261 21.1456C81.2261 20.9522 81.0327 20.7588 80.8393 20.7588H79.0987C78.9053 20.7588 78.7119 20.9522 78.7119 21.1456C78.7119 21.339 78.9053 21.5324 79.0987 21.5324H80.8393C81.0327 21.5324 81.2261 21.339 81.2261 21.1456Z" fill="#5A5A5A"/>
<path d="M78.841 23.5951V22.0479C78.841 21.8545 78.6476 21.6611 78.4542 21.6611C78.2608 21.6611 78.0674 21.8545 78.0674 22.0479V23.5951C78.0674 23.7886 78.2608 23.982 78.4542 23.982C78.6476 23.982 78.841 23.7886 78.841 23.5951Z" fill="#5A5A5A"/>
<path d="M78.841 20.2426V18.6954C78.841 18.502 78.6476 18.3086 78.4542 18.3086C78.2608 18.3086 78.0674 18.502 78.0674 18.6954V20.2426C78.0674 20.436 78.2608 20.6294 78.4542 20.6294C78.6476 20.6294 78.841 20.5005 78.841 20.2426Z" fill="#5A5A5A"/>
<path d="M59.8238 34.6827C59.8238 34.4893 59.6304 34.2959 59.437 34.2959H57.6964C57.503 34.2959 57.3096 34.4893 57.3096 34.6827C57.3096 34.8761 57.503 35.0695 57.6964 35.0695H59.437C59.6304 35.0695 59.8238 34.8761 59.8238 34.6827Z" fill="#B2B2B2"/>
<path d="M62.8531 34.6827C62.8531 34.4893 62.6597 34.2959 62.4663 34.2959H60.7257C60.5323 34.2959 60.3389 34.4893 60.3389 34.6827C60.3389 34.8761 60.5323 35.0695 60.7257 35.0695H62.4663C62.6597 35.0695 62.8531 34.8761 62.8531 34.6827Z" fill="#B2B2B2"/>
<path d="M60.468 37.1332V35.586C60.468 35.3926 60.2745 35.1992 60.0811 35.1992C59.8877 35.1992 59.6943 35.3926 59.6943 35.586V37.1332C59.6943 37.3266 59.8877 37.52 60.0811 37.52C60.2745 37.52 60.468 37.3266 60.468 37.1332Z" fill="#B2B2B2"/>
<path d="M60.468 33.7807V32.2335C60.468 32.0401 60.2745 31.8467 60.0811 31.8467C59.8877 31.8467 59.6943 32.0401 59.6943 32.2335V33.7807C59.6943 33.9741 59.8877 34.1675 60.0811 34.1675C60.2745 34.1675 60.468 34.0386 60.468 33.7807Z" fill="#B2B2B2"/>
<path d="M153.496 22.2414H148.403C145.889 22.2414 143.762 20.1785 143.762 17.5998V12.5069C143.762 9.99265 145.825 7.86523 148.403 7.86523H153.496C156.011 7.86523 158.138 9.92818 158.138 12.5069V17.5998C158.138 20.1785 156.075 22.2414 153.496 22.2414Z" fill="#D02E1B"/>
<path d="M146.341 13.4096C146.341 12.1203 147.179 11.4111 148.275 11.4111C149.371 11.4111 150.209 12.1203 150.209 13.4096C150.209 14.699 149.371 15.4081 148.275 15.4081C147.179 15.4081 146.341 14.699 146.341 13.4096ZM152.53 11.4756H154.27L149.306 18.7604H147.566L152.53 11.4756ZM148.726 13.4096C148.726 12.7005 148.468 12.5071 148.275 12.5071C148.081 12.5071 147.824 12.7005 147.824 13.4096C147.824 14.1188 148.081 14.3122 148.275 14.3122C148.468 14.3122 148.726 14.0543 148.726 13.4096ZM151.692 16.8264C151.692 15.537 152.53 14.8279 153.626 14.8279C154.722 14.8279 155.56 15.537 155.56 16.8264C155.56 18.1157 154.722 18.8249 153.626 18.8249C152.53 18.8249 151.692 18.1157 151.692 16.8264ZM154.077 16.8264C154.077 16.1172 153.819 15.9238 153.626 15.9238C153.368 15.9238 153.174 16.1172 153.174 16.8264C153.174 17.5355 153.432 17.7289 153.626 17.7289C153.819 17.7289 154.077 17.5355 154.077 16.8264Z" fill="white"/>
<path d="M45.3195 81.3576H40.2266C37.7124 81.3576 35.585 79.2947 35.585 76.716V71.6231C35.585 69.1089 37.6479 66.9814 40.2266 66.9814H45.3195C47.8337 66.9814 49.9611 69.0444 49.9611 71.6231V76.716C49.9611 79.2947 47.8982 81.3576 45.3195 81.3576Z" fill="#D02E1B"/>
<path d="M43.578 77.7469V78.8429H42.1597V77.8114C41.1927 77.7469 40.2257 77.4891 39.5811 77.1023L40.3546 75.3616C40.9993 75.7484 41.9019 76.0063 42.6755 76.0063C43.3201 76.0063 43.578 75.8774 43.578 75.6195C43.578 74.717 39.71 75.4261 39.71 72.8474C39.71 71.7515 40.5481 70.7845 42.1597 70.5266V69.4307H43.578V70.4621C44.2871 70.5266 44.9963 70.72 45.5765 71.0423L44.8674 72.7185C44.1582 72.3962 43.5135 72.2028 42.9333 72.2028C42.2242 72.2028 42.0308 72.3962 42.0308 72.654C42.0308 73.4921 45.8988 72.783 45.8988 75.3616C45.8988 76.5221 45.1252 77.4891 43.578 77.7469Z" fill="white"/>
</svg>
