<?xml version="1.0" encoding="utf-8"?>
<!-- Generator: Adobe Illustrator 24.0.0, SVG Export Plug-In . SVG Version: 6.00 Build 0)  -->
<svg version="1.1" id="Layer_1" xmlns="http://www.w3.org/2000/svg" xmlns:xlink="http://www.w3.org/1999/xlink" x="0px" y="0px"
	 viewBox="0 0 699 530" style="enable-background:new 0 0 699 530;" xml:space="preserve">
<style type="text/css">
	.st0{opacity:0.6;fill:#E3E3E3;enable-background:new    ;}
	.st1{display:none;}
	.st2{display:inline;fill:#D7D7D7;}
	.st3{display:inline;fill:#616161;}
	.st4{display:inline;fill:#B2B2B2;}
	.st5{display:inline;fill:#FFFFFF;}
</style>
<g>
	<path class="st0" d="M0,54c0,2.7,1,5,2.7,6.6c1.7,1.7,4.1,2.7,6.6,2.7h203.2c5.2,0,9.5-4.4,9.5-9.6c0-2.7-1-5-2.9-6.6
		c-1.7-1.7-4.1-2.9-6.6-2.9h-9.3c-3.7-8.9-12.6-15-22.8-15c-6.8,0-13.1,2.7-17.6,7.3c-6-10.2-17-17-29.6-17c-3.5,0-6.8,0.6-9.9,1.5
		C116.6,8.5,103.6,0,88.5,0c-18,0-33.4,12.3-37.9,28.9c-3.3-1.7-7-2.7-11.2-2.7c-11.2,0-20.7,7.5-23.8,17.9H9.3
		C4.4,44.4,0,48.8,0,54z"/>
	<path class="st0" d="M437.5,44.9c0,1.7-0.6,3.3-1.9,4.4c-1,1-2.7,1.9-4.3,1.9H299.6c-3.3,0-6.2-2.7-6.2-6.2c0-1.7,0.6-3.3,1.9-4.4
		c1-1,2.7-1.9,4.4-1.9h6.2c2.5-5.8,8.1-9.8,14.7-9.8c4.4,0,8.5,1.9,11.4,4.8c3.9-6.6,11-11,19.3-11c2.3,0,4.3,0.4,6.4,1
		c4.3-8.1,12.8-13.5,22.6-13.5c11.8,0,21.5,7.9,24.7,18.7c2.1-1,4.6-1.7,7.3-1.7c7.3,0,13.5,5,15.3,11.6h3.9
		C434.8,38.6,437.5,41.3,437.5,44.9z"/>
	<path class="st0" d="M486.2,51.5c0,2.5,1,4.8,2.7,6.4c1.7,1.7,3.9,2.7,6.4,2.7h194.1c5,0,9.1-4.2,9.1-9.1c0-2.5-1-4.8-2.7-6.4
		c-1.7-1.7-3.9-2.7-6.4-2.7h-9.1c-3.5-8.5-12-14.3-21.8-14.3c-6.6,0-12.4,2.7-16.8,7.1c-5.8-9.8-16.4-16.2-28.4-16.2
		c-3.3,0-6.4,0.4-9.5,1.5C597.7,8.5,585,0.4,570.7,0.4c-17.2,0-31.9,11.6-36.3,27.6c-3.1-1.7-6.8-2.5-10.6-2.5
		c-10.8,0-19.9,7.3-22.8,17h-5.8C490.4,42.6,486.2,46.5,486.2,51.5z"/>
</g>
<g class="st1">
	<path class="st2" d="M133.6,158.7l1.7-8.5l-8.1-1.7c0-2.1-0.4-4.2-1-6.2l6.6-4.4l-4.8-7.3l-6.2,4.2c-1.9-1.9-4.1-3.3-6.4-4.4
		l1.7-8.1l-8.5-1.7l-1.7,8.3c-1.7,0-3.5,0.4-5.2,1l-4.4-6.6l-7.3,4.8l4.1,6.2c-1.9,1.9-3.3,4.2-4.4,6.4l-7-1.5l-1.7,8.5l7.3,1.5
		c0.2,2.3,0.6,4.6,1.5,6.6l-6.4,4.2l4.8,7.3l6.6-4.4c1.9,1.7,4.1,2.9,6.4,3.7l-1.7,8.1l8.5,1.7l1.7-8.7c1.9-0.2,3.7-0.6,5.6-1.5
		l4.1,6.4l7.3-4.8l-4.4-6.6c1.2-1.5,2.1-2.9,2.9-4.4L133.6,158.7z M112.3,155.1c-3.7,2.5-8.7,1.5-11-2.3c-2.5-3.7-1.5-8.7,2.3-11
		c3.7-2.5,8.7-1.5,11,2.3C116.8,147.7,115.8,152.6,112.3,155.1z"/>
	<path class="st2" d="M158.1,109.2l0.8-4.8l-4.4-0.8c0-1.2-0.2-2.3-0.6-3.5l3.5-2.5l-2.7-3.9l-3.5,2.3c-1-1-2.3-1.9-3.5-2.5l0.8-4.4
		l-4.8-0.8l-0.8,4.6c-1,0-1.9,0.2-2.9,0.6l-2.5-3.5l-3.9,2.7l2.3,3.5c-1,1-1.9,2.3-2.5,3.5l-3.7-0.8l-0.8,4.8l3.9,0.8
		c0,1.2,0.4,2.5,0.8,3.5l-3.5,2.3l2.7,3.9l3.5-2.5c1,0.8,2.3,1.7,3.5,2.1l-0.8,4.4l4.8,0.8l1-4.8c1-0.2,2.1-0.4,3.1-0.8l2.3,3.5
		l3.9-2.7l-2.5-3.5c0.6-0.8,1.2-1.7,1.7-2.5L158.1,109.2z M146.3,107.4c-2.1,1.2-4.8,0.8-6-1.2c-1.2-2.1-0.8-4.8,1.2-6
		c2.1-1.2,4.8-0.8,6,1.2C148.9,103.4,148.3,106.1,146.3,107.4z"/>
	<path class="st2" d="M686.7,420.8l-0.4-8.7l-8.1,0.4c-0.4-2.1-1.5-3.9-2.5-5.8l5.4-5.8l-6.4-5.8l-5.2,5.6c-2.3-1.5-4.8-2.3-7.3-2.7
		l-0.4-8.1l-8.7,0.4l0.4,8.5c-1.7,0.4-3.3,1.2-4.8,2.3l-5.8-5.4l-5.8,6.4l5.6,5.2c-1.5,2.3-2.3,4.8-2.7,7.3l-7,0.4l0.4,8.7l7.5-0.4
		c0.6,2.1,1.7,4.2,3.1,6l-5.2,5.6l6.4,5.8l5.4-5.8c2.3,1.2,4.6,1.9,7,2.1l0.4,8.3l8.7-0.4l-0.4-8.9c1.9-0.6,3.5-1.7,5-2.7l5.6,5.2
		l5.8-6.4l-5.8-5.4c0.8-1.7,1.4-3.3,1.7-5L686.7,420.8z M665,422.6c-2.9,3.3-8.1,3.5-11.2,0.6c-3.3-2.9-3.5-8.1-0.6-11.2
		c2.9-3.3,8.1-3.5,11.2-0.6C667.7,414.3,667.9,419.3,665,422.6z"/>
	<path class="st2" d="M698.5,367l-0.2-4.8l-4.6,0.2c-0.2-1-0.8-2.3-1.4-3.1l2.9-3.3l-3.5-3.1L689,356c-1.2-0.8-2.7-1.2-3.9-1.5
		l-0.2-4.6l-4.8,0.2l0.2,4.6c-0.8,0.2-1.9,0.6-2.7,1.2l-3.3-2.9l-3.1,3.5l3.1,2.7c-0.8,1.2-1.2,2.7-1.5,3.9l-3.9,0.2l0.2,4.8
		l3.9-0.2c0.4,1.2,0.8,2.3,1.7,3.3l-2.7,3.1l3.5,3.1l2.9-3.3c1.2,0.6,2.5,1,3.9,1l0.2,4.6l4.8-0.2l-0.2-4.8c1-0.4,1.9-0.8,2.7-1.5
		l3.1,2.7l3.1-3.5l-3.3-2.9c0.4-0.8,0.8-1.9,1-2.7H698.5z M686.7,368c-1.7,1.9-4.4,1.9-6.2,0.2c-1.9-1.7-1.9-4.4-0.2-6.2
		c1.7-1.9,4.3-1.9,6.2-0.2C688.2,363.4,688.4,366.3,686.7,368z"/>
	<path class="st3" d="M649.2,117.3c0-4.4,3.5-8.1,8.1-8.1c4.3,0,8.1,3.5,8.1,8.1c0,4.4-3.5,8.1-8.1,8.1
		C653,125.4,649.2,121.7,649.2,117.3z M651.9,117.3c0,3.1,2.5,5.6,5.6,5.6c3.1,0,5.6-2.5,5.6-5.6c0-3.1-2.5-5.6-5.6-5.6
		C654.4,111.7,651.9,114.2,651.9,117.3z"/>
	<path class="st4" d="M620.4,145.6c0-4.4,3.5-8.1,8.1-8.1c4.3,0,8.1,3.5,8.1,8.1c0,4.6-3.5,8.1-8.1,8.1
		C624,153.7,620.4,149.9,620.4,145.6z M622.9,145.6c0,3.1,2.5,5.6,5.6,5.6c3.1,0,5.6-2.5,5.6-5.6c0-3.1-2.5-5.6-5.6-5.6
		C625.4,140,622.9,142.5,622.9,145.6z"/>
	<path class="st3" d="M618.4,179.9c0.6,0,1.2-0.6,1.2-1.2V173c0-0.6-0.6-1.2-1.2-1.2c-0.6,0-1.2,0.6-1.2,1.2v5.6
		C617.1,179.2,617.7,179.9,618.4,179.9z"/>
	<path class="st3" d="M618.4,189.6c0.6,0,1.2-0.6,1.2-1.2v-5.6c0-0.6-0.6-1.2-1.2-1.2c-0.6,0-1.2,0.6-1.2,1.2v5.6
		C617.1,189.2,617.7,189.6,618.4,189.6z"/>
	<path class="st3" d="M610.7,181.9h5c0.6,0,1.2-0.6,1.2-1.2s-0.6-1.2-1.2-1.2h-5c-0.6,0-1.2,0.6-1.2,1.2S609.9,181.9,610.7,181.9z"
		/>
	<path class="st3" d="M621.3,181.9h5c0.6,0,1.2-0.6,1.2-1.2s-0.6-1.2-1.2-1.2h-5c-0.6,0-1.2,0.6-1.2,1.2S620.6,181.9,621.3,181.9z"
		/>
	<path class="st4" d="M662.9,148.7c0.6,0,1.2-0.6,1.2-1.2v-5.6c0-0.6-0.6-1.2-1.2-1.2c-0.6,0-1.2,0.6-1.2,1.2v5.6
		C661.7,148.1,662.3,148.7,662.9,148.7z"/>
	<path class="st4" d="M662.9,158.5c0.6,0,1.2-0.6,1.2-1.2v-5.6c0-0.6-0.6-1.2-1.2-1.2c-0.6,0-1.2,0.6-1.2,1.2v5.6
		C661.7,157.8,662.3,158.5,662.9,158.5z"/>
	<path class="st4" d="M655,150.8h5c0.6,0,1.2-0.6,1.2-1.2c0-0.6-0.6-1.2-1.2-1.2h-5c-0.6,0-1.2,0.6-1.2,1.2
		C653.8,150.2,654.4,150.8,655,150.8z"/>
	<path class="st4" d="M665.8,150.8h5c0.6,0,1.2-0.6,1.2-1.2c0-0.6-0.6-1.2-1.2-1.2h-5c-0.6,0-1.2,0.6-1.2,1.2
		C664.5,150.2,664.9,150.8,665.8,150.8z"/>
	<path class="st3" d="M228.5,101.3c-4.3,0-8.1-3.5-8.1-8.1c0-4.4,3.5-8.1,8.1-8.1c4.4,0,8.1,3.5,8.1,8.1S232.8,101.3,228.5,101.3z
		 M228.5,98.9c3.1,0,5.6-2.5,5.6-5.6s-2.5-5.6-5.6-5.6c-3.1,0-5.6,2.5-5.6,5.6S225.4,98.9,228.5,98.9z"/>
	<path class="st4" d="M257.7,127.9c-4.3,0-8.1-3.5-8.1-8.1c0-4.4,3.5-8.1,8.1-8.1c4.4,0,8.1,3.5,8.1,8.1
		C265.8,124.4,262.3,127.9,257.7,127.9z M257.7,125.4c3.1,0,5.6-2.5,5.6-5.6s-2.5-5.6-5.6-5.6c-3.1,0-5.6,2.5-5.6,5.6
		C252.3,122.9,254.8,125.4,257.7,125.4z"/>
	<path class="st3" d="M268.5,81.8c0-0.6-0.6-1.2-1.2-1.2h-5.6c-0.6,0-1.2,0.6-1.2,1.2s0.6,1.2,1.2,1.2h5.6
		C267.8,83.1,268.5,82.7,268.5,81.8z"/>
	<path class="st3" d="M278.2,81.8c0-0.6-0.6-1.2-1.2-1.2h-5.6c-0.6,0-1.2,0.6-1.2,1.2c0,0.6,0.6,1.2,1.2,1.2h5.6
		C277.6,83.1,278.2,82.7,278.2,81.8z"/>
	<path class="st3" d="M270.5,89.7v-5c0-0.6-0.6-1.2-1.2-1.2c-0.6,0-1.2,0.6-1.2,1.2v5c0,0.6,0.6,1.2,1.2,1.2
		C269.9,91,270.5,90.3,270.5,89.7z"/>
	<path class="st3" d="M270.5,79.1v-5c0-0.6-0.6-1.2-1.2-1.2c-0.6,0-1.2,0.6-1.2,1.2v5c0,0.6,0.6,1.2,1.2,1.2
		C269.9,80.4,270.5,79.8,270.5,79.1z"/>
	<path class="st4" d="M209.4,125.4c0-0.6-0.6-1.2-1.2-1.2h-5.6c-0.6,0-1.2,0.6-1.2,1.2s0.6,1.3,1.2,1.3h5.6
		C208.8,126.7,209.4,126.3,209.4,125.4z"/>
	<path class="st4" d="M219.2,125.4c0-0.6-0.6-1.2-1.2-1.2h-5.6c-0.6,0-1.2,0.6-1.2,1.2c0,0.6,0.6,1.2,1.2,1.2h5.6
		C218.5,126.7,219.2,126.3,219.2,125.4z"/>
	<path class="st4" d="M211.5,133.3v-5c0-0.6-0.6-1.2-1.2-1.2c-0.6,0-1.2,0.6-1.2,1.2v5c0,0.6,0.6,1.2,1.2,1.2
		C210.9,134.6,211.5,134,211.5,133.3z"/>
	<path class="st4" d="M211.5,122.7v-5c0-0.6-0.6-1.2-1.2-1.2c-0.6,0-1.2,0.6-1.2,1.2v5c0,0.6,0.6,1.2,1.2,1.2
		C210.9,124,211.5,123.4,211.5,122.7z"/>
	<path class="st4" d="M361.9,134.6h-19.1c-7.5,0-13.5-6-13.5-13.5V102c0-7.5,6-13.5,13.5-13.5h19.1c7.5,0,13.5,6,13.5,13.5v19.1
		C375.4,128.6,369.4,134.6,361.9,134.6z"/>
	<path class="st5" d="M337.7,106.1c0-4.2,2.7-6.4,6.2-6.4s6.2,2.3,6.2,6.4s-2.7,6.4-6.2,6.4S337.7,110.3,337.7,106.1z M357.6,99.9
		h5.6l-16,23.5h-5.6L357.6,99.9z M345.3,106.1c0-2.3-0.8-2.9-1.5-2.9c-0.8,0-1.4,0.6-1.4,2.9c0,2.3,0.8,2.9,1.4,2.9
		C344.5,109,345.3,108.2,345.3,106.1z M354.7,117.1c0-4.2,2.7-6.4,6.2-6.4s6.2,2.3,6.2,6.4c0,4.2-2.7,6.4-6.2,6.4
		S354.7,121.3,354.7,117.1z M362.3,117.1c0-2.3-0.8-2.9-1.5-2.9c-0.8,0-1.4,0.6-1.4,2.9c0,2.3,0.8,2.9,1.4,2.9
		C361.7,120,362.3,119.2,362.3,117.1z"/>
</g>
</svg>
