<?xml version="1.0" encoding="utf-8"?>
<!-- Generator: Adobe Illustrator 24.0.0, SVG Export Plug-In . SVG Version: 6.00 Build 0)  -->
<svg version="1.1" id="Layer_1" xmlns="http://www.w3.org/2000/svg" xmlns:xlink="http://www.w3.org/1999/xlink" x="0px" y="0px"
	 viewBox="0 0 669 585" style="enable-background:new 0 0 669 585;" xml:space="preserve">
<style type="text/css">
	.st0{fill:#F5F5F5;}
	.st1{fill:#BBBBBB;}
	.st2{fill:#DEDEDE;}
	.st3{fill:#FFFFFF;}
	.st4{fill:url(#SVGID_1_);}
	.st5{fill:#949494;}
	.st6{fill:#E3E3E3;}
	.st7{fill:#F7F7F7;}
	.st8{display:none;}
	.st9{display:inline;fill:#7E7E7E;}
	.st10{display:inline;fill:#FFFFFF;}
	.st11{display:inline;fill:url(#SVGID_2_);}
	.st12{display:inline;fill:url(#SVGID_3_);}
	.st13{display:inline;fill:#BFBFBF;}
	.st14{fill:#E0E0E0;}
	.st15{fill:#D02E1B;}
	.st16{fill:#ABABAB;}
	.st17{fill:#383838;}
	.st18{fill:#EAD8CF;}
	.st19{fill:#DA9B5B;}
	.st20{fill:#4A4A4A;}
	.st21{fill:#2E2E2E;}
	.st22{fill:#E2D2CA;}
	.st23{fill:#444444;}
	.st24{fill:#9D9D9D;}
	.st25{fill:#818181;}
	.st26{fill:#2D3038;}
	.st27{fill:#B9B9B9;}
	.st28{fill:#353535;}
	.st29{fill:#212121;}
	.st30{fill:#2A2A2A;}
	.st31{fill:#D6D6D6;}
	.st32{fill:#737373;}
	.st33{opacity:0.1;fill:#B8B8B8;enable-background:new    ;}
	.st34{opacity:0.3;fill:#D8D8D8;enable-background:new    ;}
	.st35{fill:#16202E;}
	.st36{fill:#BABABA;}
	.st37{fill:#4C4C4C;}
	.st38{fill:#434343;}
	.st39{fill:#1F1F1F;}
	.st40{fill:#7E7E7E;}
</style>
<path class="st0" d="M0,569c0,8.9,144.2,16,322,16s322-7.1,322-16s-144.2-16-322-16S0,560.1,0,569z"/>
<path class="st1" d="M310.7,553.1h52.9V392.5h-52.9V553.1z"/>
<path class="st2" d="M132.1,469.8h410.2c12.8,0,23.2-10.4,23.2-23.2V171c0-12.8-10.4-23.2-23.2-23.2H132.1
	c-12.8,0-23.2,10.4-23.2,23.2v275.7C108.9,459.4,119.3,469.8,132.1,469.8z"/>
<path class="st3" d="M126.8,419.3h420.9V113.5H126.8V419.3z"/>
<linearGradient id="SVGID_1_" gradientUnits="userSpaceOnUse" x1="616.035" y1="454.0465" x2="91.4573" y2="454.0465" gradientTransform="matrix(1 0 0 -1 0 586)">
	<stop  offset="0" style="stop-color:#B8B8B8"/>
	<stop  offset="1" style="stop-color:#CFCFCF"/>
</linearGradient>
<path class="st4" d="M126.8,150.4h420.9v-36.9H126.8V150.4z"/>
<path class="st5" d="M322.5,442.5c0,8.2,6.6,14.7,14.7,14.7c8.2,0,14.7-6.6,14.7-14.7c0-8.2-6.6-14.7-14.7-14.7
	C329.2,427.7,322.5,434.3,322.5,442.5z"/>
<path class="st6" d="M456.3,547H218.3v12.2h237.9V547z"/>
<path class="st7" d="M199.4,138.9h-50c-2.8,0-5.1-2.2-5.1-5.1v-3.9c0-2.8,2.2-5.1,5.1-5.1h50c2.8,0,5.1,2.2,5.1,5.1v3.9
	C204.4,136.7,202.2,138.9,199.4,138.9z"/>
<g class="st8">
	<path class="st9" d="M578,284.2c-19.6,16.1-39.2,27.5-50.5,22.4c-0.6-0.3-1.3-0.6-1.9-1.1c-6.6-4.4-9.8-15.8-7.3-37.1
		c6.6-56.5,40.7-68.2,72.2-87.6c30.9-19.1,15.8-53.2,15.3-54.2C656.8,202.1,611.1,256.8,578,284.2z"/>
	<path class="st10" d="M527.5,306.6c-0.6-0.3-1.3-0.6-1.9-1.1c3.2-11.2,10.6-32.8,22.1-45.2c5.4-5.8,11.8-11.2,18.6-16.9
		c12.8-10.7,26-21.9,34.3-37.4l1.9,0.9c-8.5,15.9-21.9,27.2-34.9,38c-6.8,5.7-13.1,11.1-18.3,16.7
		C538,273.9,530.6,295.8,527.5,306.6z"/>
	<path class="st9" d="M157.5,205.2c-20.5,26.7-0.3,108.3,2.8,120.3c0.3,0.9,0.5,1.4,0.5,1.4s-1.6-0.9-4.3-2.7
		c-17.7-11.2-84.2-57.5-69.3-110.2c17.1-60.8-18-48.9-42.8-106.1C19.7,50.6,76.1,15.6,76.1,15.6C141.3,65.2,179.6,176.3,157.5,205.2
		z"/>
	<path class="st10" d="M160.7,326.8c0,0-1.6-0.9-4.3-2.7c-0.6-1.1-1.4-2.2-2.1-3.3c-13.6-21.5-30.2-50.8-31.7-68.4
		c-0.9-10.6-0.5-22.7,0-34.4c1.1-24.5,2.1-49.9-9.9-63.9c-18.5-21.5-19.1-57.6-19.1-59.2h2.7c0,0.3,0.6,36.8,18.5,57.5
		c12.8,14.8,11.7,40.7,10.6,65.8c-0.5,11.7-0.9,23.7,0,33.9c1.6,17.2,18.9,48,35.1,72.9C160.5,326.3,160.7,326.8,160.7,326.8z"/>
	<path class="st9" d="M162.3,272c-7.4,29,8.2,46.7,13.4,51.5c0.9,0.9,1.6,1.3,1.6,1.3c-1.3,0-2.8,0-4.6-0.3
		c-22.1-3.2-78.9-29-85.6-66.2c-7.3-40.1-39.9-17.8-67.1-51.3c-36.8-45.3,10.4-82.3,10.4-82.3c-10.1,19.1,20.7,66.2,59.7,75.5
		C128.8,209.6,171,237.4,162.3,272z"/>
	<path class="st10" d="M123.8,269.5c4.6,14.1,8.8,27.3,20.5,33.2c10.3,5.1,21.5,12.9,31.4,20.7c0.9,0.9,1.6,1.3,1.6,1.3
		c-1.3,0-2.8,0-4.6-0.3c-9.5-7.3-19.9-14.5-29.5-19.4c-12.8-6.3-17.2-20.2-21.8-34.7c-5.4-16.6-10.9-33.8-29.1-41.4
		c-34.7-14.7-52.6-34.7-52.7-34.9l2.1-1.7c0.2,0.2,17.7,19.9,51.8,34.3C112.5,234.6,118.2,252.3,123.8,269.5z"/>
	
		<linearGradient id="SVGID_2_" gradientUnits="userSpaceOnUse" x1="25.0782" y1="269.7955" x2="89.574" y2="269.7955" gradientTransform="matrix(1 0 0 -1 0 586)">
		<stop  offset="0" style="stop-color:#C5C5C5"/>
		<stop  offset="1" style="stop-color:#D1D1D1"/>
	</linearGradient>
	<path class="st11" d="M89.3,292.4c-24.6,0-32.1-8.1-32.1-8.1s-7.4,8.1-32.1,8.1c0,0-5.4,36.6,32.1,55.7
		C94.7,329,89.3,292.4,89.3,292.4z M57.3,344.1c-32.7-16.7-27.9-48.8-27.9-48.8c21.5,0,27.9-6.9,27.9-6.9s6.5,6.9,27.9,6.9
		C85.2,295.4,90.1,327.4,57.3,344.1z"/>
	
		<linearGradient id="SVGID_3_" gradientUnits="userSpaceOnUse" x1="34.0869" y1="269.8745" x2="55.384" y2="269.8745" gradientTransform="matrix(1 0 0 -1 0 586)">
		<stop  offset="0" style="stop-color:#C5C5C5"/>
		<stop  offset="1" style="stop-color:#D1D1D1"/>
	</linearGradient>
	<path class="st12" d="M55.4,295v42.2c-24.8-12.6-21.2-36.9-21.2-36.9C50.5,300.4,55.4,295,55.4,295z"/>
	<path class="st13" d="M663.9,303.9h-39.6v-8.4c0-10.9,8.8-19.7,19.7-19.7s19.7,8.8,19.7,19.7v8.4H663.9z M628,300.3h32.2v-4.7
		c0-8.8-7.3-16.1-16.1-16.1c-8.8,0-16.1,7.3-16.1,16.1V300.3z"/>
	<path class="st13" d="M661.8,300.1h-35.4c-3.8,0-6.8,3-6.8,6.8v35.4c0,3.8,3,6.8,6.8,6.8h35.4c3.8,0,6.8-3,6.8-6.8v-35.4
		C668.6,303.1,665.6,300.1,661.8,300.1z M646,325.5v11.7h-3.8v-11.7c-3-0.8-5.2-3.6-5.2-6.8c0-3.9,3.2-7.1,7.1-7.1
		c3.9,0,7.1,3.2,7.1,7.1C651.2,322,649,324.7,646,325.5z"/>
</g>
<path class="st14" d="M154.9,325.4H140v80.5h14.8V325.4z"/>
<path class="st14" d="M187.5,302h-14.8v104h14.8V302z"/>
<path class="st14" d="M220.2,341.9h-14.8V406h14.8V341.9z"/>
<path class="st14" d="M252.7,310.8h-14.8V406h14.8V310.8z"/>
<path class="st14" d="M285.4,288.9h-14.8V406h14.8V288.9z"/>
<path class="st14" d="M318.1,330.4h-14.8V406h14.8V330.4z"/>
<path class="st5" d="M154.9,347.6H140v58.3h14.8V347.6z"/>
<path class="st15" d="M187.5,330.7h-14.8V406h14.8V330.7z"/>
<path class="st5" d="M220.2,359.6h-14.8V406h14.8V359.6z"/>
<path class="st15" d="M252.7,337h-14.8v69h14.8V337z"/>
<path class="st5" d="M285.4,321.3h-14.8V406h14.8V321.3z"/>
<path class="st15" d="M318.1,351.3h-14.8V406h14.8V351.3z"/>
<path class="st1" d="M76.7,450.6c0,0,0.8,1.4,0.9,2.5c0.2,0.9,0.8,2.2,1.1,3c0.3,0.8,1.4,4.1,1.4,5.1c0,0.3-0.8,2.7-0.6,3.3
	c0.2,0.8,0.5,2.2-0.2,2.2c-0.6,0.2-1.4-1.1-1.4-1.1s0,0.6-0.5,0.9c-1.1,0.5-1.6,0-1.6,0s-0.5,0.8-0.9,0.8c-1.1,0.2-1.6-0.2-1.6-0.2
	s-0.5,0.5-1.3,0.5c-0.9,0-1.4-0.8-1.4-0.8s-1.3,0.3-1.6-0.3c-0.3-0.6-0.3-1.1-0.5-1.7c-0.2-0.5,0-5.2,1.6-8.5
	c1.6-3.3-0.5-6.6-0.5-6.6L76.7,450.6z"/>
<path class="st16" d="M78.1,465.1c0,0,0.2-4.3-0.9-5.1c-1.1-0.9-1.3,0.6-1.3,0.6s0.2-1.6-1.1-1.7c-1.3-0.2-1.3,1.6-1.3,1.6
	s-0.2-1.1-1.4-0.9c-1.3,0.3-0.9,1.7-0.9,1.7s-1.3-1.4-2.1,0c-1.3,2.4,0,5.1,0,5.1s0.3,0.6,1.6,0.3c0,0,0.8,1.6,2.7,0.5
	c0,0,1.9,0.9,2.5-0.6C75.9,466.5,78,467.6,78.1,465.1z"/>
<path class="st17" d="M90.9,389.9c0,0-7.3,24-9.6,32.8c-0.8,2.8-2.7,29.2-3,30.3c-0.3,1.1-9.5,2.5-9.5,2.5s1.1-33.2,1.3-34.9
	c0.2-1.7,10.1-38.8,12.9-40.1c2.2-0.9,3.3-0.2,6,1.9C93,385.2,90.9,389.9,90.9,389.9z"/>
<path class="st18" d="M129.3,396.4l1.9-0.6c0,0-2.4-5.4-3.3-5.4c-1.1,0.2-2.7,0.5-2.7,0.5L129.3,396.4z"/>
<path class="st19" d="M129.8,397.4c-0.3-0.2-3.9-7.3-3.9-7.3l-7.9,1.1l4.3,8.4L129.8,397.4z"/>
<path class="st20" d="M85.1,553.7c0,0-0.6,4.6-0.8,5.2c-0.2,0.6-7.3-0.5-7.3-0.5l-0.6-5.4C76.4,553,84.1,553,85.1,553.7z"/>
<path class="st21" d="M84.4,558.4c0,0,2.2,2.7,4.4,3.9c2.2,1.3,5.7,1.7,6.9,2.8c0.9,0.9,3.5,4.7-5.7,4.7s-13.6,0.5-14.5-0.9
	c-0.9-1.4,1.4-10.9,1.4-10.9S79.1,558.9,84.4,558.4z"/>
<path class="st20" d="M136.7,553.7c0,0-0.6,4.6-0.8,5.2c-0.2,0.6-7.3-0.5-7.3-0.5L128,553C128.2,553,135.9,553,136.7,553.7z"/>
<path class="st21" d="M136.1,558.4c0,0,2.2,2.7,4.4,3.9c2.2,1.3,10.4,2.2,11.7,3.5c0.9,0.9,2.5,4.4-10.4,4.1
	c-9.2-0.3-13.6,0.5-14.5-0.9c-0.9-1.4,1.4-10.9,1.4-10.9S130.7,558.9,136.1,558.4z"/>
<path class="st21" d="M91.1,436.7c0,0-6.8,10.7-6.3,20.5c0.5,9.8-2.5,20.4-3.5,30.5c-1.1,11.4-5.8,38.2-6,44.2
	c-0.2,6,0.8,25.4,0.8,25.4l9.3,0.2c0,0,7.7-46.9,9.8-51.8c2.1-4.7,12-39,12.3-42.8C108,459.4,91.1,436.7,91.1,436.7z"/>
<path class="st21" d="M126.8,438.1c0,0,5.1,26.7,5.8,32.7c0.6,6,1.1,28.9,1.4,32.5c0.3,3.8,3.2,48.6,4.1,54.3h-11.8
	c0,0-9.2-32.7-9.2-48.2c0-15.5-7.1-33.6-11.5-43.9c-4.4-10.3-15-10.4-17.8-29.4C87.6,436.2,123,432.1,126.8,438.1z"/>
<path class="st1" d="M102.3,346.2c0,0,9.2-3.5,13.3,3.5c4.3,6.9,3.8,20.8-0.8,22.6c-4.6,1.7-11.5,0.8-13.9-3.5
	c-2.4-4.3-4.4-10.6-4.4-14.8C96.8,349.7,99.9,347.3,102.3,346.2z"/>
<path class="st1" d="M113.8,372.4c0,0-0.3,2.5,0.3,3.6c0.6,1.3-11.8,1.3-11.8,1.3s-0.9-6.6-2.8-12.2
	C97.5,359.6,113.8,372.4,113.8,372.4z"/>
<path class="st17" d="M99.5,365.3c0,0,0.8,1.4,4.4,0.8c3.5-0.5,7.7-5.2,9.2-5.7c1.4-0.5,1.4-1.4,1.4-1.4l0.9,1.3l1.6,0.2
	c0,0-1.4-4.1,0.8-5.8c2.2-1.7-2.2-13.4-13.4-9.5c0,0-8.7,2.4-8.4,7.3C96.3,357.3,97.4,362.8,99.5,365.3z"/>
<path class="st22" d="M114.9,376c0,0,0-2.4-1.1-2.5c-1.1-0.2-11.5-1.3-12.8-0.8v2.7C100.9,375.4,103.4,377,114.9,376z"/>
<path class="st1" d="M114.3,357.3c-0.2-0.8-2.2-3.2-3.2-0.6c-0.8,2.5,1.3,5.8,2.4,5.7C114.6,362,114.8,359.3,114.3,357.3z"/>
<path class="st17" d="M99.8,347c0,0-11.5,0.9-0.3,18.3L99.8,347z"/>
<path class="st1" d="M178.9,350.5c-0.3-1.1-1.6-1.6-1.6-1.6c-0.5-0.8-1.9-1.3-1.9-1.3v-0.2c0.8-0.9,3.2-2.5,3.3-2.8
	c0.2-0.3,0.2-0.5-0.3-0.6c-0.3-0.2-4.3,2.4-5.5,3.2c-0.3,0.2-0.6,0.3-0.6,0.5c-0.3,0.3-1.1,0.5-1.7,1.1l-0.2,0.2
	c-0.6,0.8-2.2,7.4-2.2,7.4l2.7,1.3l2.7,2.2c0,0,3-2.5,3.8-3.3c0.8-0.8,1.1-1.7,1.4-2.1c0-0.2,0.2-0.2,0.3-0.3
	c0.3-0.5,0.9-1.1,0.9-1.1c0.3-0.3,0.5-1.3,0.5-1.3C180.1,350.9,178.9,350.5,178.9,350.5z"/>
<path class="st17" d="M132.3,379.5c-7.3-0.9-17.4-3.5-17.4-3.5l-13.9-0.6c0,0-12.8,2.8-17.8,5.1c-0.5,0.2-0.5,11.4-1.7,14.4l4.1,8.8
	c0,0,2.4,17.5,2.8,25.3c0.2,3.6-5.1,33.5-5.1,33.5s5.5,1.6,15.2,2.7c9.5,1.1,33.3-0.3,33.5-1.6c0.2-1.1-4.6-41.8-4.7-43.9
	c-0.3-3.2,1.1-20.4,1.1-20.4c2.2-1.7,21.5-10.7,26.7-15.3c1.4-1.3,7.4-7.1,9-9c6-7.1,10.9-13.1,11.5-14.5c0.6-0.8-6.5-4.6-7.1-4.9
	c-0.6-0.2-8.7,10.3-11.8,13.7c-1.4,1.6-7.1,5.7-7.1,5.7S136.7,379.8,132.3,379.5z"/>
<path class="st14" d="M254.6,268.8h-113c-0.8,0-1.6,0.6-1.6,1.6v5.5c0,0.8,0.6,1.6,1.6,1.6h113c0.8,0,1.6-0.6,1.6-1.6v-5.5
	C256.2,269.6,255.6,268.8,254.6,268.8z"/>
<path class="st14" d="M212.6,250.7h-71c-0.8,0-1.6,0.6-1.6,1.6v5.5c0,0.8,0.6,1.6,1.6,1.6h71c0.8,0,1.6-0.6,1.6-1.6v-5.5
	C214.1,251.3,213.4,250.7,212.6,250.7z"/>
<path class="st14" d="M231.1,233.6h-89.5c-0.8,0-1.6,0.6-1.6,1.6v5.5c0,0.8,0.6,1.6,1.6,1.6h89.5c0.8,0,1.6-0.6,1.6-1.6v-5.5
	C232.5,234.3,231.9,233.6,231.1,233.6z"/>
<path class="st14" d="M274.5,216.1H141.6c-0.8,0-1.6,0.6-1.6,1.6v5.5c0,0.8,0.6,1.6,1.6,1.6h132.9c0.8,0,1.6-0.6,1.6-1.6v-5.5
	C276.1,216.9,275.3,216.1,274.5,216.1z"/>
<path class="st14" d="M188,199.5h-46.4c-0.8,0-1.6,0.6-1.6,1.6v5.5c0,0.8,0.6,1.6,1.6,1.6H188c0.8,0,1.6-0.6,1.6-1.6v-5.5
	C189.6,200.3,188.8,199.5,188,199.5z"/>
<path class="st5" d="M493,264.7c21-7.6,33.9-27.6,33.3-48.9c-0.2-5.2-1.1-10.3-3-15.5c-5.5-15.5-17.8-26.5-32.4-31.1
	c-10.1-3.2-21.2-3.2-31.9,0.6c-1.1,0.3-2.1,0.8-3.2,1.3c-4.6,2.1-8.8,4.7-12.5,7.7c-15.5,13.1-21.9,35.1-14.8,55.3
	C438.1,260.5,466.8,274,493,264.7z M440.5,230c-5.4-15.2-0.5-31.6,11.1-41.5c2.8-2.4,5.8-4.3,9.3-5.8c0.8-0.3,1.6-0.6,2.4-0.9
	c8.1-2.8,16.4-2.8,24-0.5c10.9,3.5,20.2,11.7,24.3,23.4c1.4,3.8,2.1,7.7,2.2,11.5c0.5,15.9-9.2,30.9-24.9,36.6
	C469.2,259.8,447.6,249.6,440.5,230z"/>
<path class="st15" d="M487.4,181.2l3.8-12c14.5,4.6,26.8,15.6,32.4,31.1c1.9,5.1,2.8,10.3,3,15.5l-12.6,0.3
	c-0.2-3.8-0.8-7.7-2.2-11.5C507.4,193.1,498.3,184.7,487.4,181.2z"/>
<path class="st23" d="M461,182.6l-5.1-11.5c0.9-0.5,2.1-0.8,3.2-1.3c10.7-3.8,21.8-3.8,31.9-0.6l-3.8,12c-7.6-2.4-15.9-2.4-24,0.5
	C462.6,182,461.8,182.3,461,182.6z"/>
<path class="st24" d="M443.5,179c3.6-3.2,7.9-5.8,12.5-7.7l5.1,11.5c-3.5,1.6-6.6,3.5-9.3,5.8L443.5,179z"/>
<path class="st5" d="M401.2,207.4h-28.6c-1.4,0-2.7-1.3-2.7-2.7v-1.9c0-1.4,1.3-2.7,2.7-2.7h28.6c1.4,0,2.7,1.3,2.7,2.7v1.9
	C403.8,206.3,402.6,207.4,401.2,207.4z"/>
<path class="st15" d="M368,241.5h-28.6c-1.4,0-2.7-1.3-2.7-2.7v-1.9c0-1.4,1.3-2.7,2.7-2.7H368c1.4,0,2.7,1.3,2.7,2.7v1.9
	C370.7,240.3,369.4,241.5,368,241.5z"/>
<path class="st23" d="M404.6,276.7h-28.6c-1.4,0-2.7-1.3-2.7-2.7v-1.9c0-1.4,1.3-2.7,2.7-2.7h28.6c1.4,0,2.7,1.3,2.7,2.7v1.9
	C407.3,275.6,406.1,276.7,404.6,276.7z"/>
<path class="st15" d="M462.3,300.7h-28.6c-1.4,0-2.7-1.3-2.7-2.7v-1.9c0-1.4,1.3-2.7,2.7-2.7h28.6c1.4,0,2.7,1.3,2.7,2.7v1.9
	C464.9,299.5,463.7,300.7,462.3,300.7z"/>
<path class="st15" d="M350.2,398.6l-1.4-1.6l37.9-35.7l38.4,8.2l36.6-41.7l31.9,1.7l24.8-34.3l1.7,1.3l-25.6,35.2l-32-1.7
	l-36.6,41.8l-38.5-8.4L350.2,398.6z"/>
<path class="st3" d="M430.8,369.6c0.6,3-1.3,6.2-4.4,6.8c-3,0.6-6.2-1.3-6.8-4.4c-0.6-3,1.3-6.2,4.4-6.8
	C427.2,364.5,430.2,366.6,430.8,369.6z"/>
<path class="st15" d="M426.7,377.3c-3.6,0.8-7.3-1.6-8.1-5.2c-0.8-3.6,1.6-7.3,5.2-8.1c3.6-0.8,7.3,1.6,8.1,5.2
	C432.7,373,430.4,376.5,426.7,377.3z M424.4,366.3c-2.5,0.5-4.1,3-3.5,5.5c0.5,2.5,3,4.1,5.5,3.5c2.5-0.5,4.1-3,3.5-5.5
	C429.3,367.4,426.9,365.8,424.4,366.3z"/>
<path class="st3" d="M467.6,328c0.6,3-1.3,6.2-4.4,6.8c-3,0.6-6.2-1.3-6.8-4.4c-0.6-3,1.3-6.2,4.4-6.8
	C463.8,323.2,466.8,325,467.6,328z"/>
<path class="st15" d="M463.4,335.9c-3.6,0.8-7.3-1.6-8.1-5.2c-0.8-3.6,1.6-7.3,5.2-8.1c3.6-0.8,7.3,1.6,8.1,5.2
	C469.4,331.5,467,335.2,463.4,335.9z M461,324.7c-2.5,0.5-4.1,3-3.5,5.5c0.5,2.5,3,4.1,5.5,3.5c2.5-0.5,4.1-3,3.5-5.5
	C466,325.8,463.5,324.3,461,324.7z"/>
<path class="st3" d="M499.2,329.3c0.6,3-1.3,6.2-4.4,6.8c-3,0.6-6.2-1.3-6.8-4.4c-0.6-3,1.3-6.2,4.4-6.8
	C495.6,324.4,498.6,326.3,499.2,329.3z"/>
<path class="st15" d="M495.1,337.2c-3.6,0.8-7.3-1.6-8.1-5.2c-0.8-3.6,1.6-7.3,5.2-8.1c3.6-0.8,7.3,1.6,8.1,5.2
	C501.1,332.8,498.7,336.4,495.1,337.2z M492.7,326c-2.5,0.5-4.1,3-3.5,5.5c0.5,2.5,3,4.1,5.5,3.5c2.5-0.5,4.1-3,3.5-5.5
	C497.6,327.1,495.2,325.5,492.7,326z"/>
<path class="st3" d="M392.5,361.8c0.6,3-1.3,6.2-4.4,6.8c-3,0.6-6.2-1.3-6.8-4.4c-0.6-3,1.3-6.2,4.4-6.8
	C388.8,356.8,391.8,358.7,392.5,361.8z"/>
<path class="st15" d="M388.4,369.6c-3.6,0.8-7.3-1.6-8.1-5.2c-0.8-3.6,1.6-7.3,5.2-8.1c3.6-0.8,7.3,1.6,8.1,5.2
	C394.4,365.1,392,368.8,388.4,369.6z M386,358.5c-2.5,0.5-4.1,3-3.5,5.5c0.5,2.5,3,4.1,5.5,3.5c2.5-0.5,4.1-3,3.5-5.5
	C390.9,359.5,388.4,357.9,386,358.5z"/>
<path class="st14" d="M404.6,384.1h-23.4v4.4h23.4V384.1z"/>
<path class="st14" d="M420.7,338.1h-23.4v4.4h23.4V338.1z"/>
<path class="st14" d="M469,370.2h-23.4v4.4H469V370.2z"/>
<path class="st14" d="M490,307.2h-23.4v4.4H490V307.2z"/>
<path class="st14" d="M523.7,344.8h-23.2v4.4h23.2V344.8z"/>
<path class="st23" d="M586.3,403.5c0,0-8.7-19.6,1.4-18c0,0,3.5,2.8,6.9,8.5c2.7,4.4,8.2,15.8,7.9,19.7c-0.2,3.9-3,6.8-6,13.1
	c0,0-6.2,11.5-6.5,12.9l-6.6-3.5c0,0,5.5-11.1,9.5-20.8L586.3,403.5z"/>
<path class="st25" d="M636.9,462.2l-132.1-22.6l3.8-22.4l132.3,22.4L636.9,462.2z"/>
<path class="st26" d="M508,419.8l-7-1.2l-2.9,17.1l7,1.2L508,419.8z"/>
<path class="st27" d="M536.5,569.1h-1.6c0,0,0.5-6.2-0.9-6.2c-1.6,0-5.2,5.1-7.4,5.8c-2.2,0.8-13.7,1.4-13.7-0.6
	c0-2.1,4.4-3,5.8-3.6c1.4-0.6,8.2-7.1,9.3-7.9c1.3-0.8,3.3-6.2,3.3-6.2l6.3-0.3c0,0,0.3,5.1,0.8,7.7c0.2,0.9,0.3,1.9,0.3,2.5
	C538.5,562.7,536.5,569.1,536.5,569.1z"/>
<path class="st27" d="M577.7,567.9h-1.4v-5.7c-1.1,0.2-4.9,3.6-6.2,4.7c-1.1,1.1-2.8,0.9-7.7,1.3c-4.9,0.3-5.4-2.7-4.6-3.6
	c0.8-0.9,3.3-1.4,4.6-2.1c1.3-0.6,6.5-6.5,7.9-7.9c1.4-1.4,2.2-5.4,2.2-5.4l5.8,0.5c0,0,0,3.6,0.6,6.6c0,0.3,0.2,0.5,0.2,0.8
	C580,560.5,577.7,567.9,577.7,567.9z"/>
<path class="st28" d="M556.2,438.2c0,0-2.2,5.2-2.4,6.5c-0.2,1.3-5.4,13.7-6.8,21.9c-0.9,5.1-3.3,20.7-3.5,22.6
	c-0.3,3.5-1.9,10.9-2.2,14.4c-0.2,1.9-9.6,31.7-12,47.4c0,0,5.5,0.8,9.6-0.3c0,0,8.4-16.1,13.1-38.8c2.8-13.7,5.4-21,7.4-26.7
	c2.2-5.7,14.5-21.6,15.8-23.5c1.3-1.7,9.3-11.7,1.7-22.6C569.3,428.3,556.2,438.2,556.2,438.2z"/>
<path class="st28" d="M583.8,484c-0.6,4.6,0,10.7,1.4,27.8c1.4,16.9-2.5,37.6-2.5,37.6c-5.1,1.7-10.9,0-10.9,0c0.2-1.3,0-41.4,0-45
	c0-3.6-1.1-7.6-1.3-11.7c-0.2-2.8-1.4-7.9-3-13.3c-0.5-1.6-0.9-3.2-1.3-4.7c-0.3-0.8-0.5-1.7-0.8-2.5c-2.1-7.1-4.9-34.7-4.9-34.7
	s15.3-12.5,22.9-0.8c7.4,11.7,3.6,20.2,3.3,21.6C586.8,459.7,584.5,479.5,583.8,484z"/>
<path class="st29" d="M577.3,459.1c-0.2,0.3-7.7,17.2-9.8,20.2c-0.5-1.6-0.9-3.2-1.3-4.7C566.3,474.6,577.2,459.4,577.3,459.1z"/>
<path class="st30" d="M577.7,567.9h-1.4v-5.7c-1.1,0.2-4.9,3.6-6.2,4.7c-1.1,1.1-2.8,0.9-7.7,1.3c-4.9,0.3-5.4-2.7-4.6-3.6
	c0.8-0.9,3.3-1.4,4.6-2.1c5.4,0.3,11.7-7.1,14.8-7.1c1.6,0,1.6,0.9,1.7,1.1c0,0.3,0.2,0.5,0.2,0.8
	C580,560.5,577.7,567.9,577.7,567.9z"/>
<path class="st30" d="M536.5,569.1h-1.6c0,0,0.5-6.2-0.9-6.2c-1.6,0-5.2,5.1-7.4,5.8c-2.2,0.8-13.7,1.4-13.7-0.6
	c0-2.1,4.4-3,5.8-3.6c4.7,0,12.5-5.2,14.8-6.3c2.4-1.1,4.9-0.5,4.9-0.5c0.2,0.9,0.3,1.9,0.3,2.5
	C538.5,562.7,536.5,569.1,536.5,569.1z"/>
<path class="st27" d="M569.8,373.4c0,0,2.5,6.5,0.5,11.5c0,0,9-0.6,9.3-1.6c0.3-1.1-0.3-10.7,0.9-13.7
	C581.8,366.7,569.8,373.4,569.8,373.4z"/>
<path class="st23" d="M569,382.7c0,0-5.4,1.9-7.7,2.4c-2.4,0.5-7.4,2.8-6.9,11.8c0.5,9,1.9,16.7,2.5,20.5c0.5,3.8,0.2,13.7-0.6,18.5
	c0,0,12.8,3.2,27.8,0c0,0-2.7-8.1-2.5-10.3c0-2.1,8.8-19.4,9.3-22.1c0.5-2.7,2.2-14.8-1.9-17.5c-3.9-2.7-7.3-2.4-9-3.5
	C577.8,381.4,571.5,381.7,569,382.7z"/>
<path class="st23" d="M589.5,450.1c-21.8,5.8-39.2,0-39.2,0c1.6-3.3,2.7-6.5,3.6-9.6c0.6-2.2,1.1-4.4,1.3-6.5
	c1.7-11.8-0.5-21-0.5-21c2.5-20.7,33.8-26.8,36.3-20.4c2.5,6.6-4.9,34.7-5.2,37.1C585.6,432.2,589.5,450.1,589.5,450.1z"/>
<path class="st27" d="M577.7,347.3c-3.6-1.3-13.4-2.5-15.9,12.5s3,15.3,8.5,14.8c5.7-0.5,14.4-10.6,15-13.6
	C586,357.9,588.1,350.8,577.7,347.3z"/>
<path class="st31" d="M563.8,353c0,0,3,6.3,6.9,8.7c0,0,2.5,6.8,7.7,9.5c0,0,14.1-9.3,6-20.5C576.2,339.6,564.7,348.4,563.8,353z"/>
<path class="st27" d="M570.4,359.5c0.3-0.8,2.4-2.1,3.3,0.2c0.9,2.2-2.5,5.8-3.3,5.7C569.5,365,569.1,362.5,570.4,359.5z"/>
<path class="st31" d="M584,352.5c0.3-0.5,9.6-4.7,11.5,4.3c1.9,9-7.6,19.6-9.2,24c-1.7,4.6,0.8,15.2,0.8,15.2s-5.7-5.4-7.4-11.1
	C577.8,378.7,577.2,363.1,584,352.5z"/>
<path class="st32" d="M584.5,352.2c0,0-2.8,2.2-3.2,5.8c0,0-0.5-2.8,0.6-4.4C582.9,351.7,584.5,352.2,584.5,352.2z"/>
<path class="st28" d="M554,440.5c0.6-2.2,1.1-4.4,1.3-6.5c0,0,1.4-3,1.9-4.6c0.5-1.4,4.1-19.4,4.1-19.4S565.2,426.9,554,440.5z"/>
<path class="st27" d="M537.9,441.6c0,0-2.8,2.8-3.8,3c-0.9,0.3-2.7-1.3-9.2-1.7c-0.6,0-1.6,0.5-1.3,1.3c0.2,0.8,3,2.8,4.3,3.2
	c1.3,0.3,6.9,2.5,9.6,1.4c2.8-1.1,4.6-4.6,4.6-4.6L537.9,441.6z"/>
<path class="st23" d="M559.7,385.5c0,0-7.4,3-7.9,13.3c-0.5,10.4-0.8,15.8-1.3,17.4c-0.5,1.6-1.1,8.1-3,11.8
	c-1.9,3.8-13.7,15.6-13.7,15.6l5.8,5.4c0,0,16.7-16.7,17.7-19.7c0.9-3,5.2-24.3,5.5-27.9C563,398.6,566.8,385.8,559.7,385.5z"/>
<path class="st33" d="M427.5,482.4c40.3-4,69.8-39.9,65.8-80.3c-4-40.3-39.9-69.8-80.3-65.8c-40.3,4-69.8,39.9-65.8,80.3
	C351.2,456.9,387.1,486.4,427.5,482.4z"/>
<path class="st34" d="M466.8,358c0,0-90-11.2-107.8,83.8c-5.2-9.6-8.1-20.8-8.1-32.5c0-38.4,31.1-69.3,69.3-69.3
	C438.1,340,454.5,346.8,466.8,358z"/>
<path class="st23" d="M420.3,326.5c-45.8,0-82.9,37.1-82.9,82.9s37.1,82.9,82.9,82.9c45.8,0,82.9-37.1,82.9-82.9
	S466,326.5,420.3,326.5z M420.3,478.8c-38.4,0-69.5-31.1-69.5-69.5s31.1-69.5,69.5-69.5s69.5,31.1,69.5,69.5
	C489.6,447.7,458.5,478.8,420.3,478.8z"/>
<path class="st14" d="M190.1,163.2h-48.2v4.9h48.2V163.2z"/>
<path class="st14" d="M233.5,163.2h-34.1v4.9h34.1V163.2z"/>
<path class="st14" d="M231.3,181.7h-31.9v4.9h31.9V181.7z"/>
<path class="st5" d="M404.5,163.2h-34.1v4.9h34.1V163.2z"/>
<path class="st5" d="M286.2,163.2h-43.6v4.9h43.6V163.2z"/>
<path class="st15" d="M361.8,163.2h-43.6v4.9h43.6V163.2z"/>
<path class="st14" d="M310.2,163.2h-15.9v4.9h15.9V163.2z"/>
<path class="st5" d="M166.9,181.7h-24.9v4.9h24.9V181.7z"/>
<path class="st15" d="M180.9,181.7h-8.1v4.9h8.1V181.7z"/>
<path class="st14" d="M404.5,181.7H338v4.9h66.5V181.7z"/>
<path class="st5" d="M195.1,181.7h-8.2v4.9h8.2V181.7z"/>
<path class="st23" d="M332,181.7h-21.8v4.9H332V181.7z"/>
<path class="st5" d="M304.4,181.7h-46.3v4.9h46.3V181.7z"/>
<path class="st14" d="M251.5,181.7h-15.9v4.9h15.9V181.7z"/>
<path class="st35" d="M425,1.7c0,0-7.6,3.6-5.7,13.7c1.9,10.1,2.7,11.4,0.6,15.3c-2.1,3.9-4.6,20.7-2.7,23.8
	c1.9,3.2,23.2-13.9,26.2-28.3c3-14.4-1.9-20.7-3.6-23.1C438.1,0.8,431.6-1.8,425,1.7z"/>
<path class="st36" d="M426.6,166.7l1.3,1.4l4.7-4.4l-1.1-1.4L426.6,166.7z"/>
<path class="st23" d="M427.9,168.1c0,0-1.3,7.6-2.2,8.5c-0.9,0.9-6,6.2-4.9,7.6c1.1,1.4,12-6.3,13.6-9c1.6-2.7,4.7-3.2,5.2-6
	c0.5-2.8-6.9-5.5-6.9-5.5L427.9,168.1z"/>
<path class="st14" d="M423.6,95.8c0,0-30.5,30.8-30.6,34.7c-0.2,3.9,33,36.2,33.5,37.4l5.8-5.5c0,0-14.8-21-19.3-25.4
	c-4.3-4.3-6.9-6.5-6.9-6.5s36.2-13.6,38.8-17.2c2.7-3.6,5.5-10.1,2.5-15.9C444.3,91.2,423.6,95.8,423.6,95.8z"/>
<path class="st14" d="M421.7,115.5h-39.9c0,0,1.7,5.5,2.5,11.4c0.8,5.8,3,36.9,3,36.9l-7.9,2.2c0.9-3.5-10.7-50.8-11.4-53
	c-1.4-6.2,6.6-7.3,15.2-11.7c8.8-4.6,30.6-9.9,30.6-9.9C445.1,91.4,421.7,115.5,421.7,115.5z"/>
<path class="st36" d="M380.5,165.9v1.9l6.3-1.9l-0.3-1.7L380.5,165.9z"/>
<path class="st23" d="M380.5,167.8c0,0-4.6,6.2-5.8,6.6s-8.1,2.8-7.7,4.6c0.3,1.7,13.6-0.2,16.3-1.9c2.7-1.7,5.7-0.8,7.4-3
	c1.7-2.2-3.8-8.1-3.8-8.1L380.5,167.8z"/>
<path class="st36" d="M426.1,36.7c0,0-6.5,1.9-8.7,9.5c-1.1,3.6-6,20.8-7.3,22.1c-1.4,1.4-18.8,11.8-18.8,11.8l2.1,3.6
	c0,0,21.6-9.9,22.4-11.1c0.8-0.9,8.7-19.3,9.3-21.9C425.6,48.3,431.8,33.3,426.1,36.7z"/>
<path class="st36" d="M426.1,2.8c0,0-10.9,3.5-5.1,22.3c6,18.9,20.8-2.2,19.3-13.7C438.9-0.2,426.1,2.8,426.1,2.8z"/>
<path class="st37" d="M437.8,34.7c0,0,11.5,4.7,14.4,10.7c2.8,5.8-3,16.6-4.3,20.2c-1.3,3.6-3.6,12-3,16.3
	c0.5,4.3,2.1,12.6,2.2,15.3c0,0-24.2,2.1-33.5-5.5c0,0,6.3-4.7,6.8-10.4c0.5-5.7-0.9-12.3-1.4-13.1c-0.3-0.8-5.7-5.4-4.3-9.8
	c1.3-4.4,3.3-15.3,6.5-18.3c3-2.8,6.9-4.4,6.9-4.4L437.8,34.7z"/>
<path class="st36" d="M444.7,42c-1.1,1.1-4.3,3.9-0.5,12.2c3.6,8.2,10.6,18.9,10.9,20.5c0.2,1.6,10.4,32.1,10.7,32.7
	c0.3,0.6,4.4,0.2,4.4,0.2s-6.2-30.3-6.8-33.9C463.5,73.7,453.1,33.9,444.7,42z"/>
<path class="st36" d="M470,107.5c0,0,3.9,3,4.7,3.2c0.8,0.2,8.2,1.7,9,1.6c0.6-0.3,1.6,1.6-0.8,1.4c-2.4-0.2-11.1,0-13.4-0.3
	c-2.4-0.2-4.9,3.8-5.8,3.8c-0.9,0-0.8-1.3,0.5-3.5s2.5-3.5,1.4-6.2C464.8,104.6,470,107.5,470,107.5z"/>
<path class="st36" d="M391.2,80.2c0,0-2.7,0.5-3.9-0.5c-1.3-0.9-4.9-2.4-4.9-2.4l5.4,9.5c0,0,5.1-1.9,5.5-2.8
	C393.9,82.9,391.2,80.2,391.2,80.2z"/>
<path class="st38" d="M379.4,71.6l-1.4,0.8l9,15.6l1.4-0.8L379.4,71.6z"/>
<path class="st36" d="M382.1,79.5c0,0-1.1,6.3,4.3,7.4L382.1,79.5z"/>
<path class="st36" d="M437.8,34.7c0.2,4.3-4.9,11.2-9,9.6c-4.1-1.6-0.6-8.8-0.6-8.8l1.3-0.5c0-0.3-0.2-0.6-0.2-0.9
	c-0.3-0.8-0.8-1.4-0.8-1.4s10.6-14.1,9.3-9C436.4,28.7,437.8,34.7,437.8,34.7z"/>
<path class="st39" d="M420,13.7c0,0,5.4,5.4,14.5,6c0,0,3.2,3.6,3.3,5.2c0,0,8.5-13.4-1.4-21.6C426.4-4.9,416.3,10.4,420,13.7z"/>
<path class="st36" d="M434.5,19.2c0-1.4,0.9-4.6,3-3.6c2.1,0.9-0.2,7.3-1.4,6.8C436,22.5,434.3,22.5,434.5,19.2z"/>
<path class="st40" d="M435.3,27.6c0,0-1.6,5.2-6,6.3c-0.3-0.8-0.8-1.4-0.8-1.4S431.5,32.5,435.3,27.6z"/>
<path class="st27" d="M418.4,101l-13.7,14.5h-5.1L418.4,101z"/>
</svg>
