<?xml version="1.0" encoding="utf-8"?>
<!-- Generator: Adobe Illustrator 24.0.0, SVG Export Plug-In . SVG Version: 6.00 Build 0)  -->
<svg version="1.1" id="Layer_1" xmlns="http://www.w3.org/2000/svg" xmlns:xlink="http://www.w3.org/1999/xlink" x="0px" y="0px"
	 viewBox="0 0 669 585" style="enable-background:new 0 0 669 585;" xml:space="preserve">
<style type="text/css">
	.st0{fill:url(#SVGID_1_);}
	.st1{fill:url(#SVGID_2_);}
	.st2{fill:#BFBFBF;}
</style>
<g>
	<g>
		
			<linearGradient id="SVGID_1_" gradientUnits="userSpaceOnUse" x1="24.793" y1="269.1018" x2="89.2887" y2="269.1018" gradientTransform="matrix(1 0 0 -1 0 586)">
			<stop  offset="0" style="stop-color:#C5C5C5"/>
			<stop  offset="1" style="stop-color:#D1D1D1"/>
		</linearGradient>
		<path class="st0" d="M89.1,293.1C64.4,293.1,57,285,57,285s-7.4,8.1-32.1,8.1c0,0-5.4,36.6,32.1,55.7
			C94.4,329.7,89.1,293.1,89.1,293.1z M57,344.8c-32.7-16.7-27.9-48.8-27.9-48.8c21.5,0,27.9-6.9,27.9-6.9s6.5,6.9,27.9,6.9
			C84.9,296.1,89.8,328.1,57,344.8z"/>
		
			<linearGradient id="SVGID_2_" gradientUnits="userSpaceOnUse" x1="33.8017" y1="269.1808" x2="55.0988" y2="269.1808" gradientTransform="matrix(1 0 0 -1 0 586)">
			<stop  offset="0" style="stop-color:#C5C5C5"/>
			<stop  offset="1" style="stop-color:#D1D1D1"/>
		</linearGradient>
		<path class="st1" d="M55.1,295.7v42.2C30.3,325.3,34,301,34,301C50.2,301.1,55.1,295.7,55.1,295.7z"/>
		<path class="st2" d="M663.6,304.6H624v-8.4c0-10.9,8.8-19.7,19.7-19.7s19.7,8.8,19.7,19.7v8.4H663.6z M627.7,301H660v-4.7
			c0-8.8-7.3-16.1-16.1-16.1c-8.8,0-16.1,7.3-16.1,16.1V301z"/>
		<path class="st2" d="M661.5,300.8h-35.4c-3.8,0-6.8,3-6.8,6.8v35.4c0,3.8,3,6.8,6.8,6.8h35.4c3.8,0,6.8-3,6.8-6.8v-35.4
			C668.3,303.8,665.3,300.8,661.5,300.8z M645.8,326.2v11.7H642v-11.7c-3-0.8-5.2-3.6-5.2-6.8c0-3.9,3.2-7.1,7.1-7.1
			c3.9,0,7.1,3.2,7.1,7.1C651,322.7,648.8,325.4,645.8,326.2z"/>
	</g>
</g>
</svg>
