<?xml version="1.0" encoding="utf-8"?>
<!-- Generator: Adobe Illustrator 24.0.0, SVG Export Plug-In . SVG Version: 6.00 Build 0)  -->
<svg version="1.1" id="Layer_1" xmlns="http://www.w3.org/2000/svg" xmlns:xlink="http://www.w3.org/1999/xlink" x="0px" y="0px"
	 viewBox="0 0 669 585" style="enable-background:new 0 0 669 585;" xml:space="preserve">
<style type="text/css">
	.st0{fill:#7E7E7E;}
	.st1{fill:#FFFFFF;}
	.st2{display:none;}
	.st3{display:inline;fill:url(#SVGID_1_);}
	.st4{display:inline;fill:url(#SVGID_2_);}
	.st5{display:inline;fill:#BFBFBF;}
</style>
<g>
	<path class="st0" d="M578,284.2c-19.6,16.1-39.2,27.5-50.5,22.4c-0.6-0.3-1.3-0.6-1.9-1.1c-6.6-4.4-9.8-15.8-7.3-37.1
		c6.6-56.5,40.7-68.2,72.2-87.6c30.9-19.1,15.8-53.2,15.3-54.2C656.8,202.1,611.1,256.8,578,284.2z"/>
	<path class="st1" d="M527.5,306.6c-0.6-0.3-1.3-0.6-1.9-1.1c3.2-11.2,10.6-32.8,22.1-45.2c5.4-5.8,11.8-11.2,18.6-16.9
		c12.8-10.7,26-21.9,34.3-37.4l1.9,0.9c-8.5,15.9-21.9,27.2-34.9,38c-6.8,5.7-13.1,11.1-18.3,16.7
		C538,273.9,530.6,295.8,527.5,306.6z"/>
	<path class="st0" d="M157.5,205.2c-20.5,26.7-0.3,108.3,2.8,120.3c0.3,0.9,0.5,1.4,0.5,1.4s-1.6-0.9-4.3-2.7
		c-17.7-11.2-84.2-57.5-69.3-110.2c17.1-60.8-18-48.9-42.8-106.1C19.7,50.6,76.1,15.6,76.1,15.6C141.3,65.2,179.6,176.3,157.5,205.2
		z"/>
	<path class="st1" d="M160.7,326.8c0,0-1.6-0.9-4.3-2.7c-0.6-1.1-1.4-2.2-2.1-3.3c-13.6-21.5-30.2-50.8-31.7-68.4
		c-0.9-10.6-0.5-22.7,0-34.4c1.1-24.5,2.1-49.9-9.9-63.9c-18.5-21.5-19.1-57.6-19.1-59.2h2.7c0,0.3,0.6,36.8,18.5,57.5
		c12.8,14.8,11.7,40.7,10.6,65.8c-0.5,11.7-0.9,23.7,0,33.9c1.6,17.2,18.9,48,35.1,72.9C160.5,326.3,160.7,326.8,160.7,326.8z"/>
	<path class="st0" d="M162.3,272c-7.4,29,8.2,46.7,13.4,51.5c0.9,0.9,1.6,1.3,1.6,1.3c-1.3,0-2.8,0-4.6-0.3
		c-22.1-3.2-78.9-29-85.6-66.2c-7.3-40.1-39.9-17.8-67.1-51.3c-36.8-45.3,10.4-82.3,10.4-82.3c-10.1,19.1,20.7,66.2,59.7,75.5
		C128.8,209.6,171,237.4,162.3,272z"/>
	<path class="st1" d="M123.8,269.5c4.6,14.1,8.8,27.3,20.5,33.2c10.3,5.1,21.5,12.9,31.4,20.7c0.9,0.9,1.6,1.3,1.6,1.3
		c-1.3,0-2.8,0-4.6-0.3c-9.5-7.3-19.9-14.5-29.5-19.4c-12.8-6.3-17.2-20.2-21.8-34.7c-5.4-16.6-10.9-33.8-29.1-41.4
		c-34.7-14.7-52.6-34.7-52.7-34.9l2.1-1.7c0.2,0.2,17.7,19.9,51.8,34.3C112.5,234.6,118.2,252.3,123.8,269.5z"/>
	<g class="st2">
		
			<linearGradient id="SVGID_1_" gradientUnits="userSpaceOnUse" x1="24.793" y1="269.1018" x2="89.2887" y2="269.1018" gradientTransform="matrix(1 0 0 -1 0 586)">
			<stop  offset="0" style="stop-color:#C5C5C5"/>
			<stop  offset="1" style="stop-color:#D1D1D1"/>
		</linearGradient>
		<path class="st3" d="M89.1,293.1C64.4,293.1,57,285,57,285s-7.4,8.1-32.1,8.1c0,0-5.4,36.6,32.1,55.7
			C94.4,329.7,89.1,293.1,89.1,293.1z M57,344.8c-32.7-16.7-27.9-48.8-27.9-48.8c21.5,0,27.9-6.9,27.9-6.9s6.5,6.9,27.9,6.9
			C84.9,296.1,89.8,328.1,57,344.8z"/>
		
			<linearGradient id="SVGID_2_" gradientUnits="userSpaceOnUse" x1="33.8017" y1="269.1808" x2="55.0988" y2="269.1808" gradientTransform="matrix(1 0 0 -1 0 586)">
			<stop  offset="0" style="stop-color:#C5C5C5"/>
			<stop  offset="1" style="stop-color:#D1D1D1"/>
		</linearGradient>
		<path class="st4" d="M55.1,295.7v42.2C30.3,325.3,34,301,34,301C50.2,301.1,55.1,295.7,55.1,295.7z"/>
		<path class="st5" d="M663.6,304.6H624v-8.4c0-10.9,8.8-19.7,19.7-19.7s19.7,8.8,19.7,19.7v8.4H663.6z M627.7,301H660v-4.7
			c0-8.8-7.3-16.1-16.1-16.1c-8.8,0-16.1,7.3-16.1,16.1V301z"/>
		<path class="st5" d="M661.5,300.8h-35.4c-3.8,0-6.8,3-6.8,6.8v35.4c0,3.8,3,6.8,6.8,6.8h35.4c3.8,0,6.8-3,6.8-6.8v-35.4
			C668.3,303.8,665.3,300.8,661.5,300.8z M645.8,326.2v11.7H642v-11.7c-3-0.8-5.2-3.6-5.2-6.8c0-3.9,3.2-7.1,7.1-7.1
			c3.9,0,7.1,3.2,7.1,7.1C651,322.7,648.8,325.4,645.8,326.2z"/>
	</g>
</g>
</svg>
