<svg width="209" height="261" viewBox="0 0 209 261" fill="none" xmlns="http://www.w3.org/2000/svg">
<path opacity="0.7" d="M102.641 245.239C159.147 245.239 204.954 243.387 204.954 241.102C204.954 238.817 159.147 236.965 102.641 236.965C46.1351 236.965 0.328125 238.817 0.328125 241.102C0.328125 243.387 46.1351 245.239 102.641 245.239Z" fill="#DCDCDC"/>
<path opacity="0.7" d="M112.034 261.001C134.447 261.001 152.617 258.031 152.617 254.368C152.617 250.705 134.447 247.735 112.034 247.735C89.6201 247.735 71.4502 250.705 71.4502 254.368C71.4502 258.031 89.6201 261.001 112.034 261.001Z" fill="#DCDCDC"/>
<path d="M3.48014 46.8511L18.6497 238.999C18.7154 240.05 19.6348 240.838 20.6855 240.772L206.333 226.062C207.383 225.997 208.171 225.077 208.106 224.027L192.936 31.8785C192.87 30.8278 191.951 30.0397 190.9 30.1054L5.18754 44.8153C4.13683 44.881 3.3488 45.8003 3.48014 46.8511ZM188.076 184.034L32.1776 196.38C31.1269 196.446 30.2075 195.658 30.1419 194.607L20.6855 75.6799C20.6198 74.6292 21.4079 73.7098 22.4586 73.6441L178.357 61.2983C179.408 61.2326 180.327 62.0207 180.393 63.0714L189.784 181.998C189.915 183.049 189.127 183.968 188.076 184.034Z" fill="#F0F0F0"/>
<path d="M48.6644 215.096C48.2703 212.6 46.3003 210.696 43.8705 210.893C42.0318 211.024 40.587 212.272 40.0617 213.979C39.2736 212.403 37.6976 211.418 35.9245 211.55C33.4947 211.747 31.9187 213.979 31.853 216.475C31.853 216.475 31.7874 217.132 32.1157 218.182C32.5754 219.693 33.5604 220.94 34.7425 221.86L40.587 226.391C40.8497 226.588 41.1781 226.588 41.4407 226.325L46.6286 220.94C47.6793 219.824 48.4017 218.445 48.6644 216.869C48.7957 215.687 48.6644 215.096 48.6644 215.096Z" fill="#D02E1B"/>
<path d="M52.6985 216.045C53.0016 216.021 53.2732 216.04 53.5135 216.101C53.7533 216.157 53.9609 216.245 54.1362 216.365C54.3115 216.485 54.4489 216.631 54.5482 216.806C54.6476 216.98 54.7055 217.17 54.7219 217.378C54.766 217.936 54.4917 218.493 53.8989 219.048L52.9204 219.968L54.8345 219.816C54.871 219.872 54.9061 219.944 54.9398 220.033C54.9789 220.121 55.0026 220.218 55.011 220.324C55.0261 220.515 54.9945 220.657 54.9162 220.749C54.8374 220.835 54.7289 220.884 54.5907 220.895L51.8233 221.114C51.7 221.043 51.599 220.95 51.5202 220.833C51.4463 220.71 51.4027 220.564 51.3892 220.394C51.3749 220.213 51.4001 220.058 51.4649 219.93C51.5293 219.797 51.6037 219.689 51.6882 219.608L52.7144 218.58C52.8433 218.452 52.9495 218.339 53.0327 218.241C53.1155 218.139 53.1806 218.048 53.2278 217.969C53.2804 217.89 53.3149 217.818 53.3311 217.752C53.3526 217.687 53.3611 217.624 53.3565 217.566C53.3447 217.417 53.269 217.305 53.1293 217.231C52.995 217.156 52.8321 217.126 52.6407 217.141C52.4281 217.158 52.2394 217.207 52.0747 217.29C51.9149 217.367 51.7822 217.447 51.6764 217.53C51.581 217.473 51.5002 217.4 51.4342 217.309C51.3681 217.217 51.3301 217.108 51.32 216.981C51.2981 216.704 51.4122 216.489 51.6622 216.336C51.9118 216.177 52.2572 216.08 52.6985 216.045ZM56.291 217.181L55.513 217.492C55.4291 217.445 55.3434 217.377 55.2561 217.287C55.1688 217.198 55.1184 217.068 55.105 216.898C55.0797 216.579 55.2561 216.34 55.6342 216.182L56.5034 215.808L56.7985 215.785C57.0271 215.767 57.2132 215.819 57.3566 215.941C57.5 216.064 57.5808 216.239 57.5989 216.468L57.9274 220.623C57.8697 220.638 57.7831 220.659 57.6674 220.684C57.5574 220.714 57.4439 220.734 57.3269 220.743C57.21 220.752 57.103 220.752 57.006 220.744C56.9144 220.735 56.8348 220.709 56.7672 220.667C56.6996 220.624 56.6441 220.564 56.6005 220.487C56.5619 220.405 56.5373 220.297 56.5268 220.164L56.291 217.181ZM59.7013 221.077C59.6202 221.201 59.5285 221.294 59.4264 221.355C59.3296 221.416 59.2067 221.453 59.0579 221.465C58.8239 221.483 58.6193 221.432 58.444 221.313C58.5349 220.974 58.6065 220.628 58.659 220.276C58.711 219.919 58.7524 219.598 58.7833 219.312C58.8699 219.257 58.9757 219.208 59.1008 219.166C59.2255 219.119 59.3516 219.09 59.4792 219.08C59.644 219.067 59.7905 219.093 59.9187 219.158C60.0522 219.222 60.1265 219.35 60.1416 219.541C60.1505 219.653 60.1444 219.779 60.1234 219.92C60.102 220.055 60.0702 220.194 60.028 220.337C59.9853 220.474 59.9345 220.609 59.8755 220.742C59.8217 220.875 59.7637 220.986 59.7013 221.077ZM61.8716 215.32C62.4831 215.271 62.9584 215.362 63.2976 215.592C63.6363 215.817 63.8225 216.142 63.8561 216.567C63.8763 216.822 63.8244 217.046 63.7005 217.238C63.5814 217.423 63.4325 217.569 63.2535 217.674C63.3685 217.708 63.4764 217.753 63.5772 217.809C63.6779 217.865 63.7693 217.938 63.8513 218.028C63.9333 218.118 64.0006 218.225 64.0532 218.349C64.1058 218.473 64.1389 218.621 64.1523 218.791C64.1704 219.019 64.1361 219.228 64.0494 219.417C63.9679 219.605 63.8446 219.77 63.6792 219.912C63.5138 220.053 63.3114 220.165 63.0719 220.248C62.8381 220.336 62.5776 220.392 62.2905 220.415C61.7376 220.458 61.3141 220.414 61.0201 220.282C60.7261 220.15 60.5697 219.965 60.5508 219.726C60.5394 219.582 60.5643 219.457 60.6254 219.35C60.6861 219.239 60.7647 219.15 60.8611 219.083C60.9733 219.149 61.1205 219.218 61.3027 219.289C61.4898 219.354 61.7269 219.376 62.014 219.353C62.2851 219.332 62.4807 219.268 62.6008 219.162C62.7261 219.056 62.7827 218.926 62.7705 218.772C62.7583 218.617 62.6959 218.505 62.5833 218.433C62.4759 218.362 62.2947 218.336 62.0395 218.356L61.2898 218.415C61.248 218.36 61.2104 218.29 61.1771 218.207C61.1438 218.124 61.1225 218.024 61.1132 217.908C61.1036 217.785 61.106 217.681 61.1205 217.594C61.14 217.501 61.1686 217.424 61.2066 217.362L61.9562 217.303C62.339 217.273 62.5189 217.112 62.4958 216.819C62.4848 216.681 62.4149 216.574 62.2858 216.499C62.1568 216.423 61.97 216.395 61.7255 216.415C61.5075 216.432 61.3182 216.474 61.1576 216.54C60.9965 216.601 60.8658 216.673 60.7653 216.755C60.6699 216.699 60.5894 216.627 60.5237 216.542C60.4577 216.451 60.4196 216.341 60.4095 216.214C60.3885 215.948 60.5114 215.743 60.7782 215.599C61.0446 215.449 61.4091 215.356 61.8716 215.32ZM68.6815 219.075C68.6746 219.327 68.6153 219.524 68.5036 219.667C68.3971 219.809 68.2296 219.889 68.0009 219.907C67.8308 219.92 67.6761 219.892 67.5369 219.823C67.3973 219.749 67.2426 219.619 67.0728 219.435L66.2051 218.508L66.3198 219.96C66.2622 219.975 66.1755 219.995 66.0598 220.02C65.9498 220.05 65.8364 220.07 65.7194 220.079C65.6024 220.089 65.4955 220.089 65.3985 220.081C65.3069 220.072 65.2272 220.046 65.1597 220.003C65.0921 219.96 65.0365 219.901 64.993 219.824C64.9544 219.741 64.9298 219.633 64.9193 219.501L64.5542 214.883C64.6114 214.862 64.6952 214.84 64.8056 214.815C64.9209 214.784 65.037 214.764 65.154 214.755C65.271 214.746 65.3753 214.746 65.4669 214.755C65.5639 214.763 65.6462 214.789 65.7138 214.831C65.7813 214.874 65.8344 214.937 65.8731 215.019C65.9166 215.096 65.9436 215.201 65.9541 215.334L66.1206 217.439L67.3813 215.927C67.6578 215.905 67.8833 215.949 68.0578 216.058C68.2376 216.167 68.3349 216.315 68.3496 216.501C68.3559 216.581 68.3485 216.656 68.3273 216.727C68.3058 216.793 68.2685 216.863 68.2155 216.937C68.1678 217.01 68.1019 217.09 68.0178 217.177C67.9387 217.258 67.8446 217.354 67.7356 217.464L67.3046 217.9L68.6815 219.075Z" fill="#CECECE"/>
<path d="M37.2011 65.1409C40.8731 60.8843 40.3992 54.4569 36.1425 50.7848C31.8859 47.1128 25.4585 47.5868 21.7864 51.8434C18.1144 56.1001 18.5884 62.5275 22.845 66.1995C27.1017 69.8715 33.5291 69.3976 37.2011 65.1409Z" fill="#D2D2D2"/>
<path d="M31.9833 55.2565C32.1146 56.7666 30.9984 58.0141 29.4883 58.1454C27.9782 58.2767 26.7307 57.1605 26.5994 55.6504C26.468 54.1403 27.5842 52.8928 29.0944 52.7615C30.5388 52.6302 31.852 53.7463 31.9833 55.2565Z" fill="white"/>
<path d="M34.8743 63.3336L35.0713 66.0261C33.7579 67.0768 32.0505 67.7991 30.2775 67.9305C28.4387 68.0618 26.7313 67.6678 25.2209 66.8141L25.0239 64.1216C24.8269 61.4292 26.8627 58.9994 29.5551 58.8024C30.9341 58.6711 32.1819 59.1308 33.1669 59.9845C34.0863 60.7725 34.743 61.9546 34.8743 63.3336Z" fill="white"/>
<path d="M128.911 42.7798L48.3353 49.1497C47.6786 49.2154 47.0876 48.69 47.0876 48.0333C47.0219 47.3766 47.5473 46.7856 48.204 46.7856L128.78 40.4157C129.437 40.35 130.028 40.8754 130.028 41.5321C130.028 42.1888 129.503 42.7798 128.911 42.7798Z" fill="#D2D2D2"/>
<path d="M129.373 48.7554L48.7972 55.1253C48.1405 55.191 47.5495 54.6656 47.5495 54.0089C47.4838 53.3522 48.0092 52.7612 48.6659 52.7612L129.242 46.3913C129.899 46.3256 130.49 46.851 130.49 47.5077C130.49 48.0987 130.03 48.6897 129.373 48.7554Z" fill="#D2D2D2"/>
<path d="M98.4405 57.1616L49.2542 61.0361C48.5975 61.1018 48.0065 60.5764 48.0065 59.9198C47.9409 59.2631 48.4662 58.672 49.1229 58.672L98.3092 54.7975C98.9659 54.7319 99.5569 55.2572 99.5569 55.9139C99.5569 56.5049 99.0972 57.096 98.4405 57.1616Z" fill="#D2D2D2"/>
<path d="M102.447 62.8091L49.6488 67.0119C48.9921 67.0776 48.4011 66.5523 48.4011 65.8956C48.3354 65.2389 48.8608 64.6478 49.5174 64.6478L102.316 60.445C102.972 60.3793 103.563 60.9047 103.563 61.5614C103.629 62.2181 103.104 62.7434 102.447 62.8091Z" fill="#D2D2D2"/>
<path d="M150.714 209.716L149.936 210.026C149.852 209.979 149.767 209.911 149.679 209.822C149.592 209.732 149.542 209.603 149.528 209.432C149.503 209.113 149.679 208.875 150.057 208.717L150.927 208.343L151.222 208.319C151.45 208.301 151.636 208.354 151.78 208.476C151.923 208.598 152.004 208.774 152.022 209.003L152.35 213.158C152.293 213.173 152.206 213.193 152.09 213.218C151.98 213.248 151.867 213.268 151.75 213.277C151.633 213.287 151.526 213.287 151.429 213.279C151.338 213.27 151.258 213.244 151.19 213.201C151.123 213.158 151.067 213.099 151.024 213.022C150.985 212.939 150.96 212.832 150.95 212.699L150.714 209.716ZM155.888 210.446C155.851 209.978 155.754 209.622 155.595 209.378C155.442 209.133 155.241 209.021 154.991 209.041C154.741 209.06 154.56 209.203 154.447 209.469C154.339 209.734 154.304 210.101 154.341 210.569C154.378 211.037 154.471 211.396 154.619 211.646C154.772 211.891 154.974 212.003 155.224 211.984C155.473 211.964 155.655 211.821 155.767 211.555C155.885 211.284 155.925 210.914 155.888 210.446ZM157.252 210.338C157.285 210.748 157.26 211.116 157.179 211.444C157.098 211.771 156.97 212.051 156.796 212.285C156.627 212.512 156.414 212.692 156.157 212.825C155.905 212.957 155.625 213.035 155.317 213.06C155.003 213.084 154.709 213.051 154.434 212.961C154.165 212.87 153.926 212.725 153.718 212.528C153.514 212.325 153.347 212.068 153.215 211.757C153.089 211.446 153.01 211.086 152.978 210.676C152.945 210.267 152.967 209.902 153.043 209.58C153.124 209.252 153.25 208.975 153.419 208.748C153.593 208.515 153.806 208.332 154.058 208.2C154.315 208.067 154.6 207.988 154.914 207.963C155.222 207.939 155.511 207.972 155.78 208.063C156.055 208.154 156.294 208.301 156.497 208.504C156.706 208.702 156.875 208.956 157.007 209.266C157.138 209.572 157.22 209.929 157.252 210.338ZM158.867 213.236C158.786 213.36 158.695 213.453 158.593 213.515C158.496 213.576 158.373 213.612 158.224 213.624C157.99 213.643 157.785 213.592 157.61 213.472C157.701 213.133 157.773 212.788 157.825 212.436C157.877 212.079 157.919 211.757 157.949 211.471C158.036 211.416 158.142 211.368 158.267 211.326C158.392 211.278 158.518 211.25 158.645 211.239C158.81 211.226 158.957 211.252 159.085 211.317C159.218 211.381 159.293 211.509 159.308 211.701C159.317 211.812 159.311 211.939 159.29 212.079C159.268 212.215 159.236 212.354 159.194 212.496C159.152 212.633 159.101 212.768 159.042 212.901C158.988 213.034 158.93 213.146 158.867 213.236ZM161.038 207.479C161.649 207.431 162.125 207.522 162.464 207.752C162.802 207.976 162.989 208.301 163.022 208.727C163.043 208.982 162.991 209.205 162.867 209.397C162.748 209.583 162.599 209.729 162.42 209.834C162.535 209.867 162.643 209.912 162.743 209.969C162.844 210.025 162.935 210.098 163.017 210.188C163.099 210.277 163.167 210.384 163.219 210.509C163.272 210.633 163.305 210.78 163.319 210.95C163.337 211.179 163.302 211.388 163.216 211.576C163.134 211.765 163.011 211.93 162.845 212.071C162.68 212.213 162.478 212.325 162.238 212.408C162.004 212.496 161.744 212.551 161.457 212.574C160.904 212.618 160.48 212.574 160.186 212.442C159.892 212.31 159.736 212.124 159.717 211.885C159.706 211.741 159.73 211.616 159.792 211.51C159.852 211.398 159.931 211.309 160.027 211.243C160.139 211.309 160.287 211.377 160.469 211.448C160.656 211.514 160.893 211.535 161.18 211.513C161.451 211.491 161.647 211.428 161.767 211.322C161.892 211.215 161.949 211.085 161.937 210.931C161.924 210.777 161.862 210.664 161.749 210.593C161.642 210.521 161.461 210.495 161.206 210.515L160.456 210.575C160.414 210.519 160.377 210.45 160.343 210.367C160.31 210.284 160.289 210.184 160.279 210.067C160.27 209.945 160.272 209.84 160.287 209.753C160.306 209.661 160.335 209.584 160.373 209.522L161.122 209.463C161.505 209.432 161.685 209.271 161.662 208.979C161.651 208.84 161.581 208.734 161.452 208.658C161.323 208.583 161.136 208.555 160.892 208.574C160.674 208.591 160.484 208.633 160.324 208.699C160.163 208.76 160.032 208.832 159.932 208.915C159.836 208.858 159.756 208.787 159.69 208.701C159.624 208.61 159.586 208.501 159.576 208.373C159.555 208.107 159.678 207.902 159.944 207.758C160.211 207.609 160.575 207.516 161.038 207.479ZM167.848 211.234C167.841 211.486 167.782 211.683 167.67 211.826C167.563 211.968 167.396 212.048 167.167 212.066C166.997 212.08 166.842 212.052 166.703 211.983C166.563 211.908 166.409 211.779 166.239 211.594L165.371 210.668L165.486 212.119C165.428 212.134 165.342 212.155 165.226 212.18C165.116 212.21 165.003 212.23 164.886 212.239C164.769 212.248 164.662 212.248 164.565 212.24C164.473 212.231 164.393 212.205 164.326 212.163C164.258 212.12 164.203 212.06 164.159 211.983C164.121 211.901 164.096 211.793 164.085 211.66L163.72 207.042C163.778 207.022 163.861 206.999 163.972 206.974C164.087 206.944 164.203 206.924 164.32 206.915C164.437 206.905 164.541 206.905 164.633 206.914C164.73 206.922 164.812 206.948 164.88 206.991C164.948 207.034 165.001 207.096 165.039 207.179C165.083 207.256 165.11 207.361 165.12 207.493L165.287 209.599L166.548 208.087C166.824 208.065 167.049 208.109 167.224 208.218C167.404 208.327 167.501 208.474 167.516 208.66C167.522 208.74 167.515 208.816 167.494 208.887C167.472 208.953 167.435 209.022 167.382 209.096C167.334 209.17 167.268 209.25 167.184 209.337C167.105 209.418 167.011 209.513 166.902 209.624L166.471 210.059L167.848 211.234Z" fill="#CECECE"/>
<path d="M144.934 202.686L130.881 203.802C130.224 203.868 129.765 204.393 129.83 205.05L130.618 214.638C130.684 215.294 131.21 215.754 131.866 215.688L140.141 215.032C140.732 214.966 141.388 215.163 141.848 215.623C143.424 217.002 145.131 218.447 145.46 218.25C145.722 218.118 145.263 216.739 144.737 215.294C144.606 214.966 144.803 214.638 145.197 214.638L145.985 214.572C146.642 214.506 147.101 213.981 147.036 213.324L146.248 203.737C146.116 203.08 145.525 202.62 144.934 202.686Z" fill="#C5C5C5"/>
<path d="M139.547 208.99C139.612 209.646 139.087 210.172 138.496 210.237C137.905 210.303 137.314 209.778 137.249 209.187C137.183 208.53 137.708 208.005 138.299 207.939C138.89 207.808 139.481 208.333 139.547 208.99Z" fill="white"/>
<path d="M135.148 209.318C135.214 209.974 134.689 210.499 134.098 210.565C133.441 210.631 132.916 210.105 132.85 209.514C132.785 208.858 133.31 208.333 133.901 208.267C134.492 208.201 135.083 208.661 135.148 209.318Z" fill="white"/>
<path d="M143.885 208.596C143.95 209.252 143.425 209.778 142.834 209.843C142.178 209.909 141.652 209.384 141.587 208.793C141.521 208.136 142.046 207.611 142.637 207.545C143.228 207.48 143.885 207.939 143.885 208.596Z" fill="white"/>
<path d="M97.8422 213.652C98.1706 213.127 98.2362 212.47 97.9079 211.945C97.5139 211.288 96.9885 211.025 96.2662 211.091C95.3468 211.157 94.4931 211.222 93.5737 211.288C93.5081 211.288 93.4424 211.354 93.3767 211.288C93.4424 211.157 93.5081 210.96 93.5737 210.828C93.7707 210.237 93.9021 209.712 93.9021 209.121C93.9021 208.792 93.9021 208.398 93.8364 208.07C93.5737 207.085 92.8514 206.494 91.8007 206.363C91.144 206.297 90.5529 206.757 90.4873 207.413C90.4873 207.742 90.4216 208.136 90.3559 208.464C90.1589 209.318 89.6992 209.974 89.1082 210.631C88.7142 211.025 88.2545 211.419 87.8605 211.748C87.4665 212.01 87.0068 212.339 86.6128 212.601C86.5471 212.667 86.4814 212.733 86.4814 212.864L87.1381 220.941C87.1381 221.073 87.2038 221.138 87.3351 221.204C87.7292 221.335 88.1889 221.401 88.5829 221.467C89.5679 221.598 90.5529 221.664 91.6037 221.598C93.0484 221.532 94.4931 221.401 95.9378 221.27C96.0692 221.27 96.2662 221.204 96.3975 221.204C97.4482 220.876 97.9079 219.694 97.3825 218.774C97.3169 218.709 97.3169 218.643 97.4482 218.577C98.0392 218.052 98.1706 217.264 97.7766 216.541C97.7109 216.476 97.7109 216.41 97.8422 216.344C98.5646 215.753 98.6303 214.703 97.9736 214.046C97.8422 213.783 97.8422 213.718 97.8422 213.652Z" fill="#C5C5C5"/>
<path d="M85.8265 212.732C85.8265 212.666 85.8265 212.666 85.8265 212.601C85.8265 212.469 85.8265 212.272 85.6952 212.141C85.6952 212.141 85.6952 212.141 85.6295 212.075C85.6295 212.075 85.6295 212.075 85.5638 212.01C85.5638 212.01 85.5638 212.01 85.4982 212.01C85.4982 212.01 85.4982 212.01 85.4325 212.01H85.3668C85.3012 212.01 85.2355 212.01 85.1698 212.01C84.4475 212.075 83.7251 212.141 82.9371 212.207C82.2147 212.272 81.4923 212.338 80.7043 212.404C80.6386 212.404 80.573 212.404 80.5073 212.469C80.5073 212.469 80.4416 212.469 80.4416 212.535C80.4416 212.535 80.4416 212.535 80.376 212.535C80.376 212.535 80.376 212.535 80.3103 212.601C80.3103 212.601 80.3103 212.601 80.2446 212.666C80.2446 212.666 80.2446 212.666 80.179 212.732C80.1133 212.863 80.1133 213.06 80.1133 213.192C80.1133 213.257 80.1133 213.257 80.1133 213.323C80.3103 215.556 80.4416 217.723 80.6386 219.956C80.7043 220.612 80.77 221.269 80.77 221.926C80.8356 222.32 81.0327 222.517 81.4267 222.517C81.8207 222.517 82.149 222.451 82.543 222.451C82.7401 222.451 82.9371 222.451 83.0684 222.386C83.2654 222.386 83.3967 222.385 83.5938 222.32C83.7908 222.32 83.9221 222.32 84.1191 222.254C84.3161 222.254 84.5131 222.254 84.6445 222.189C85.0385 222.189 85.3668 222.123 85.7608 222.123C86.1549 222.123 86.3519 221.86 86.3519 221.466C86.2862 220.809 86.2205 220.153 86.2205 219.496C86.1549 217.132 86.0235 214.965 85.8265 212.732Z" fill="#C5C5C5"/>
<path d="M101.962 213.569L101.184 213.88C101.1 213.833 101.015 213.765 100.927 213.675C100.84 213.586 100.79 213.456 100.776 213.286C100.751 212.967 100.927 212.728 101.305 212.57L102.175 212.196L102.47 212.173C102.698 212.155 102.884 212.207 103.028 212.33C103.171 212.452 103.252 212.627 103.27 212.856L103.599 217.011C103.541 217.026 103.454 217.047 103.339 217.072C103.229 217.102 103.115 217.122 102.998 217.131C102.881 217.14 102.774 217.141 102.677 217.132C102.586 217.123 102.506 217.098 102.438 217.055C102.371 217.012 102.315 216.952 102.272 216.875C102.233 216.793 102.208 216.685 102.198 216.552L101.962 213.569ZM106.142 216.946C105.897 216.966 105.673 216.965 105.468 216.944C105.268 216.922 105.093 216.88 104.944 216.816C104.795 216.753 104.676 216.672 104.588 216.572C104.499 216.466 104.449 216.342 104.438 216.198C104.426 216.05 104.459 215.921 104.536 215.814C104.613 215.706 104.702 215.618 104.804 215.552C104.962 215.651 105.129 215.737 105.306 215.809C105.482 215.875 105.701 215.898 105.961 215.877C106.211 215.858 106.385 215.788 106.482 215.668C106.58 215.548 106.622 215.408 106.61 215.248C106.597 215.094 106.539 214.97 106.436 214.877C106.337 214.783 106.174 214.745 105.945 214.763C105.802 214.775 105.683 214.8 105.59 214.839C105.497 214.879 105.392 214.933 105.274 215.001C105.013 215.011 104.8 214.958 104.635 214.843C104.476 214.721 104.386 214.525 104.364 214.254C104.363 214.238 104.362 214.22 104.36 214.198C104.358 214.172 104.356 214.121 104.356 214.046L104.356 212.826C104.354 212.597 104.411 212.41 104.528 212.267C104.645 212.124 104.818 212.044 105.047 212.025L107.344 211.844C107.38 211.9 107.418 211.974 107.458 212.068C107.497 212.161 107.521 212.26 107.529 212.367C107.545 212.569 107.512 212.716 107.428 212.808C107.344 212.9 107.233 212.952 107.095 212.963L105.564 213.084L105.567 213.838C105.666 213.804 105.765 213.772 105.865 213.742C105.969 213.713 106.101 213.692 106.261 213.679C106.537 213.657 106.78 213.681 106.989 213.75C107.197 213.814 107.371 213.912 107.51 214.046C107.654 214.179 107.763 214.339 107.836 214.525C107.915 214.712 107.963 214.914 107.981 215.132C107.998 215.35 107.977 215.563 107.919 215.771C107.86 215.979 107.758 216.166 107.61 216.333C107.462 216.494 107.267 216.63 107.025 216.74C106.787 216.85 106.493 216.919 106.142 216.946ZM109.539 217.135C109.458 217.259 109.366 217.352 109.264 217.414C109.167 217.475 109.045 217.511 108.896 217.523C108.662 217.542 108.457 217.491 108.282 217.371C108.373 217.032 108.444 216.687 108.497 216.335C108.549 215.978 108.59 215.656 108.621 215.37C108.708 215.315 108.814 215.267 108.939 215.225C109.063 215.177 109.19 215.149 109.317 215.139C109.482 215.126 109.628 215.151 109.757 215.216C109.89 215.281 109.964 215.408 109.98 215.6C109.988 215.711 109.982 215.838 109.961 215.978C109.94 216.114 109.908 216.253 109.866 216.395C109.823 216.532 109.772 216.667 109.713 216.801C109.66 216.933 109.602 217.045 109.539 217.135ZM110.958 212.858L110.18 213.168C110.096 213.122 110.01 213.053 109.923 212.964C109.835 212.875 109.785 212.745 109.772 212.575C109.746 212.256 109.923 212.017 110.301 211.859L111.17 211.485L111.465 211.462C111.694 211.444 111.88 211.496 112.023 211.618C112.167 211.741 112.247 211.916 112.265 212.145L112.594 216.3C112.536 216.315 112.45 216.335 112.334 216.361C112.224 216.391 112.111 216.41 111.994 216.42C111.877 216.429 111.77 216.429 111.673 216.421C111.581 216.412 111.501 216.386 111.434 216.343C111.366 216.301 111.311 216.241 111.267 216.164C111.229 216.082 111.204 215.974 111.193 215.841L110.958 212.858ZM117.281 215.231C117.274 215.483 117.215 215.68 117.103 215.823C116.997 215.965 116.829 216.045 116.6 216.063C116.43 216.077 116.276 216.049 116.136 215.98C115.997 215.905 115.842 215.776 115.672 215.591L114.805 214.665L114.919 216.116C114.862 216.131 114.775 216.152 114.659 216.177C114.549 216.207 114.436 216.227 114.319 216.236C114.202 216.245 114.095 216.245 113.998 216.237C113.906 216.228 113.827 216.202 113.759 216.16C113.692 216.117 113.636 216.057 113.593 215.98C113.554 215.898 113.529 215.79 113.519 215.657L113.154 211.039C113.211 211.019 113.295 210.996 113.405 210.971C113.52 210.941 113.637 210.921 113.754 210.912C113.871 210.902 113.975 210.902 114.066 210.911C114.163 210.919 114.246 210.945 114.313 210.988C114.381 211.031 114.434 211.093 114.473 211.176C114.516 211.253 114.543 211.358 114.554 211.49L114.72 213.596L115.981 212.084C116.257 212.062 116.483 212.106 116.657 212.215C116.837 212.324 116.934 212.471 116.949 212.657C116.955 212.737 116.948 212.813 116.927 212.884C116.905 212.95 116.868 213.019 116.815 213.093C116.767 213.167 116.701 213.247 116.617 213.334C116.538 213.415 116.444 213.51 116.335 213.621L115.904 214.056L117.281 215.231Z" fill="#CECECE"/>
<path d="M91.5416 67.5392C91.5416 67.5392 91.4103 67.5392 91.0819 67.7362C90.7536 67.8676 90.3596 68.1303 89.8342 68.5243C88.7835 69.3123 87.4701 70.6914 86.4194 72.7271C85.3687 74.7629 84.515 77.3896 84.0553 80.2791C83.8583 81.7238 83.6613 83.2342 83.4643 84.8102C83.2673 86.3206 83.136 87.8967 82.939 89.4728C82.7419 91.0488 82.5449 92.6249 81.7569 94.1353C81.3629 94.8577 80.8375 95.5143 80.1808 95.9084C79.5242 96.368 78.8018 96.6307 78.0794 96.8934C76.6347 97.3531 75.2556 97.6814 74.0079 98.1411C72.7602 98.6008 71.5782 99.0605 70.4618 99.5858C69.4111 100.111 68.4917 100.702 67.7693 101.293C67.047 101.884 66.456 102.541 66.062 103.066C65.6679 103.657 65.4709 104.117 65.3396 104.511C65.2082 104.839 65.1426 105.036 65.1426 105.036C65.1426 105.036 65.2083 104.839 65.2739 104.511C65.4053 104.183 65.6023 103.657 65.9963 103.066C66.3903 102.475 66.9157 101.819 67.638 101.228C68.3604 100.571 69.2797 99.9798 70.3305 99.4545C71.3812 98.8635 72.5632 98.4038 73.8109 97.8784C75.0586 97.3531 76.5034 97.0247 77.8167 96.4994C78.4734 96.2367 79.1958 95.974 79.7868 95.5143C80.3779 95.1203 80.9032 94.5293 81.1659 93.8726C81.8226 92.5592 81.9539 90.9175 82.1509 89.4071C82.3479 87.831 82.4136 86.255 82.6106 84.7446C82.7419 83.1685 82.8733 81.6581 83.0703 80.2134C83.4643 77.2583 84.2523 74.5002 85.3031 72.3331C85.8284 71.2167 86.4194 70.2973 87.0761 69.5093C87.7328 68.7213 88.3238 68.1303 88.9149 67.6706C89.5059 67.2109 89.9656 66.8825 90.3596 66.6855C90.6879 66.4885 90.9506 66.4229 90.9506 66.4229L91.5416 67.5392Z" fill="#002751"/>
<path d="M102.573 227.771L106.645 237.228C106.645 237.228 110.06 236.505 112.095 234.929L109.206 224.094" fill="#B8B8B8"/>
<path d="M110.847 230.267C110.847 230.267 111.109 230.661 113.211 231.908C115.312 233.156 115.772 233.878 115.509 235.586C115.246 237.228 112.488 239.132 111.241 240.905C110.058 242.678 108.942 245.896 107.629 247.406C106.315 248.917 104.214 250.887 102.244 250.361C100.274 249.836 100.865 248.391 101.259 247.669C101.718 247.012 102.901 243.597 103.492 241.43C104.148 239.198 104.28 236.243 104.674 234.798C105.002 233.55 105.396 233.484 106.972 234.732C107.891 235.454 108.811 235.126 109.599 234.469C110.19 233.944 109.861 232.04 110.255 231.186C110.649 230.332 110.847 230.267 110.847 230.267Z" fill="white"/>
<path d="M101.716 248.718C101.716 248.718 101.978 248.915 102.504 248.981C103.029 249.047 103.752 248.85 104.474 248.39C104.868 248.127 105.262 247.865 105.59 247.536C105.919 247.208 106.247 246.748 106.575 246.289C107.166 245.369 107.626 244.253 108.151 243.136C108.742 242.086 109.333 241.035 109.99 240.116C110.318 239.656 110.647 239.196 110.975 238.802C111.304 238.408 111.698 238.014 112.026 237.752C112.748 237.161 113.339 236.767 113.799 236.438C114.259 236.176 114.521 235.979 114.521 235.979C114.521 235.979 114.259 236.176 113.865 236.504C113.471 236.832 112.88 237.292 112.223 237.949C111.895 238.277 111.566 238.605 111.304 238.999C110.975 239.393 110.712 239.853 110.384 240.313C109.793 241.232 109.202 242.283 108.611 243.333C108.02 244.384 107.56 245.501 106.904 246.486C106.575 246.945 106.247 247.405 105.853 247.733C105.459 248.062 104.999 248.39 104.605 248.587C103.752 249.047 102.964 249.112 102.438 249.047C102.175 248.981 101.978 248.915 101.847 248.85C101.781 248.784 101.716 248.718 101.716 248.718Z" fill="#CACACA"/>
<path d="M103.62 240.248C103.62 240.248 103.817 240.183 104.146 240.183C104.474 240.183 104.868 240.183 105.196 240.248C105.59 240.314 105.918 240.511 106.181 240.642C106.312 240.708 106.378 240.774 106.444 240.839C106.509 240.905 106.575 240.905 106.575 240.905C106.575 240.905 106.509 240.905 106.444 240.839C106.378 240.774 106.247 240.774 106.115 240.708C105.853 240.642 105.524 240.511 105.13 240.511C104.802 240.511 104.408 240.577 104.211 240.642C103.949 240.708 103.817 240.774 103.817 240.774C103.686 240.839 103.423 240.839 103.358 240.642C103.292 240.511 103.292 240.248 103.489 240.183C103.555 240.248 103.62 240.248 103.62 240.248Z" fill="#CACACA"/>
<path d="M103.753 238.671C103.753 238.671 103.95 238.605 104.278 238.605C104.607 238.605 105.001 238.605 105.329 238.671C105.723 238.737 106.051 238.934 106.314 239.065C106.445 239.131 106.511 239.196 106.576 239.262C106.642 239.328 106.708 239.328 106.708 239.328C106.708 239.328 106.642 239.328 106.576 239.262C106.511 239.196 106.379 239.196 106.248 239.131C105.985 239.065 105.657 238.934 105.263 238.934C104.935 238.934 104.541 238.999 104.344 239.065C104.081 239.131 103.95 239.196 103.95 239.196C103.819 239.262 103.556 239.262 103.49 239.065C103.425 238.934 103.425 238.671 103.622 238.605C103.687 238.737 103.753 238.737 103.753 238.671Z" fill="#CACACA"/>
<path d="M104.015 237.096C104.015 237.096 104.212 237.03 104.54 237.03C104.868 237.03 105.262 237.03 105.591 237.096C105.985 237.162 106.313 237.359 106.575 237.49C106.707 237.556 106.772 237.621 106.838 237.687C106.904 237.753 106.969 237.752 106.969 237.752C106.969 237.752 106.904 237.753 106.838 237.687C106.772 237.621 106.641 237.621 106.51 237.556C106.247 237.49 105.919 237.359 105.525 237.359C105.197 237.359 104.803 237.424 104.606 237.49C104.343 237.556 104.212 237.621 104.212 237.621C104.08 237.687 103.818 237.687 103.752 237.49C103.687 237.359 103.686 237.096 103.883 237.03C103.949 237.096 104.015 237.096 104.015 237.096Z" fill="#CACACA"/>
<path d="M113.543 234.076L112.952 244.321C112.952 244.321 116.301 245.24 118.862 244.715L121.161 233.748" fill="#B8B8B8"/>
<path d="M116.169 240.314C116.169 240.314 118.007 240.577 119.124 242.285C120.24 243.992 120.24 244.78 120.109 247.604C119.977 250.428 121.16 252.463 120.634 255.09C120.043 257.717 117.876 258.833 114.921 259.49C111.966 260.081 107.566 258.242 107.894 255.615C108.157 252.989 109.47 252.004 110.915 248.786C112.36 245.634 111.637 243.204 112.885 241.956C114.133 240.643 114.724 240.38 116.169 240.314Z" fill="white"/>
<path d="M113.019 245.372C113.019 245.372 113.281 245.109 113.741 244.912C114.003 244.781 114.266 244.715 114.66 244.65C114.988 244.584 115.382 244.584 115.711 244.65C116.039 244.715 116.433 244.781 116.695 244.912C117.024 245.044 117.286 245.175 117.483 245.372C117.68 245.503 117.877 245.7 118.009 245.766C118.14 245.897 118.206 245.963 118.206 245.963C118.206 245.963 118.14 245.963 117.943 245.897C117.812 245.832 117.615 245.766 117.352 245.7C117.089 245.635 116.827 245.569 116.564 245.503C116.236 245.438 115.973 245.372 115.645 245.306C114.988 245.241 114.397 245.241 113.872 245.241C113.347 245.306 113.019 245.372 113.019 245.372Z" fill="#CACACA"/>
<path d="M112.69 246.882C112.69 246.882 112.953 246.619 113.413 246.422C113.675 246.291 113.938 246.225 114.332 246.16C114.66 246.094 115.054 246.094 115.382 246.16C115.711 246.225 116.105 246.291 116.367 246.422C116.696 246.554 116.958 246.685 117.155 246.882C117.352 247.013 117.549 247.21 117.68 247.276C117.812 247.407 117.877 247.473 117.877 247.473C117.877 247.473 117.812 247.473 117.615 247.407C117.483 247.341 117.286 247.276 117.024 247.21C116.761 247.144 116.499 247.079 116.236 247.013C115.908 246.947 115.645 246.882 115.317 246.816C114.66 246.751 114.069 246.751 113.544 246.751C113.019 246.816 112.69 246.882 112.69 246.882Z" fill="#CACACA"/>
<path d="M112.495 248.656C112.495 248.656 112.758 248.394 113.217 248.197C113.48 248.065 113.743 248 114.137 247.934C114.465 247.868 114.859 247.868 115.187 247.934C115.515 248 115.909 248.065 116.172 248.197C116.5 248.328 116.763 248.459 116.96 248.656C117.157 248.788 117.354 248.985 117.485 249.05C117.616 249.182 117.682 249.247 117.682 249.247C117.682 249.247 117.616 249.247 117.419 249.182C117.288 249.116 117.091 249.05 116.829 248.985C116.566 248.919 116.303 248.853 116.041 248.788C115.712 248.722 115.45 248.656 115.121 248.591C114.465 248.525 113.874 248.525 113.349 248.525C112.823 248.591 112.495 248.656 112.495 248.656Z" fill="#CACACA"/>
<path d="M108.814 255.549C108.814 255.549 108.946 255.878 109.34 256.272C109.668 256.732 110.325 257.257 111.179 257.651C111.638 257.848 112.098 257.979 112.689 258.045C113.214 258.111 113.805 258.111 114.396 258.045C115.578 257.914 116.826 257.52 117.811 256.797C118.337 256.403 118.796 256.009 119.059 255.484C119.322 254.958 119.387 254.302 119.453 253.711C119.519 252.529 119.453 251.347 119.453 250.362C119.453 249.377 119.519 248.589 119.584 247.997C119.65 247.406 119.65 247.078 119.65 247.078C119.65 247.078 119.716 248.392 119.781 250.362C119.781 251.347 119.978 252.463 119.913 253.711C119.847 254.302 119.781 254.958 119.519 255.615C119.19 256.272 118.665 256.731 118.139 257.126C117.023 257.914 115.71 258.308 114.462 258.373C113.805 258.439 113.214 258.373 112.689 258.308C112.164 258.242 111.573 258.045 111.179 257.848C110.259 257.388 109.734 256.732 109.405 256.272C108.946 255.878 108.814 255.549 108.814 255.549Z" fill="#CACACA"/>
<path d="M101.262 66.3566C101.262 66.3566 92.0683 63.4671 87.9968 68.3923C83.8597 73.3175 86.7491 89.9319 82.2179 95.1854C77.6867 100.439 68.2304 98.4689 63.3052 107.794C58.38 117.119 77.7524 136.36 97.3875 133.011C117.023 129.727 124.246 97.2212 121.948 82.7739C119.978 70.2968 113.542 64.1895 108.945 63.4671C103.298 62.6791 101.262 66.3566 101.262 66.3566Z" fill="#202020"/>
<path d="M123.588 91.6397L120.371 97.8126L116.496 105.233L120.962 105.168L124.77 105.102C124.77 105.102 124.705 103.985 125.033 103.197C125.164 102.869 125.361 102.672 125.69 102.541C130.287 101.096 143.946 98.6006 144.8 97.3529L138.889 88.4219L123.588 91.6397Z" fill="#B8B8B8"/>
<path d="M117.157 93.4776C117.157 93.4776 116.238 101.424 114.793 102.212C113.348 103 110.787 102.671 108.883 100.898C106.978 99.1909 107.175 96.0387 107.175 96.0387C107.438 94.9224 107.175 93.3463 106.781 91.7702C106.716 91.3762 106.584 90.9822 106.453 90.5882C105.796 88.1584 104.877 86.057 104.877 86.057L112.56 84.3496C112.954 85.7287 113.414 87.0421 113.874 88.2241C114.071 88.6838 114.268 89.1435 114.465 89.5375C114.465 89.6032 114.53 89.6688 114.53 89.6688C114.924 90.5225 115.318 91.3106 115.647 91.8359C116.106 92.6239 116.369 93.0836 116.369 93.0836L117.157 93.4776Z" fill="#B8B8B8"/>
<path d="M115.71 91.8358C112.23 92.7551 109.144 91.1791 109.144 91.1791L114.528 89.4717C114.528 89.5373 114.594 89.603 114.594 89.603C114.988 90.5224 115.382 91.2448 115.71 91.8358Z" fill="#AAAAAA"/>
<path d="M95.7451 79.6208C95.7451 79.6208 104.413 94.462 113.476 91.4412C122.538 88.4204 113.147 70.2957 113.147 70.2957C113.147 70.2957 97.5182 63.7288 95.7451 79.6208Z" fill="#B8B8B8"/>
<path d="M99.8852 83.8242C99.8852 83.8242 97.9155 84.4808 98.1125 85.9253C98.3095 87.3041 100.607 89.1425 101.592 89.3395C102.577 89.5364 103.562 88.2889 103.562 88.2889" fill="#B8B8B8"/>
<path d="M105.4 66.9473C105.4 66.9473 106.32 76.2723 96.141 82.5109L90.6904 73.6455L105.4 66.9473Z" fill="#202020"/>
<path d="M101.264 68.9828C101.264 68.9828 108.094 73.1857 114.661 71.0186L112.822 65.765L106.321 64.3203L102.249 66.3561L100.017 67.1441" fill="#202020"/>
<path d="M124.703 105.102L120.894 105.168C120.5 103.854 119.843 101.687 119.777 101.03C119.777 100.505 120.04 98.9946 120.237 97.8126C120.368 97.1559 120.5 96.5648 120.5 96.3022C120.565 95.6455 120.894 93.0844 120.894 93.0844L123.455 91.6396C123.455 91.6396 122.01 100.768 124.834 103.263C124.637 103.985 124.703 105.102 124.703 105.102Z" fill="#AAAAAA"/>
<path d="M95.9469 73.5145C96.0782 72.2011 95.8812 71.5444 95.8812 71.5444C95.2902 68.7863 92.9918 66.6192 90.2337 67.0132C88.1979 67.2759 86.5562 68.7863 86.0308 70.6907C85.0458 68.9833 83.2071 67.8669 81.1713 68.1296C78.4132 68.4579 76.7058 71.0847 76.8372 73.9085C76.8372 73.9085 76.7715 74.6308 77.2312 75.8129C77.8222 77.4546 79.0042 78.8993 80.449 79.8844L87.8696 85.1379L93.9112 78.2426C95.0275 76.9293 95.8156 75.2875 95.9469 73.5145Z" fill="#D02E1B"/>
<path d="M87.8696 85.1382L80.449 79.8847C79.0042 78.8996 77.8879 77.4549 77.2312 75.8132C76.7715 74.5654 76.8372 73.9088 76.8372 73.9088C76.7058 71.085 78.4132 68.4582 81.1713 68.1299C83.2071 67.8672 85.0458 68.9179 86.0308 70.691C86.0308 70.691 81.828 68.7866 80.1206 72.1357C77.8879 76.3385 83.2071 80.804 87.8696 85.1382Z" fill="#B91E0C"/>
<path d="M89.3789 69.1145C89.3789 69.1145 89.5102 68.9831 89.8386 68.8518C90.1669 68.7204 90.6266 68.5234 91.2833 68.5234C91.8743 68.5234 92.6624 68.7861 93.2534 69.3115C93.5161 69.5741 93.7787 69.9025 93.9758 70.2308C94.1728 70.5592 94.3698 71.0189 94.4354 71.4129C94.6324 72.2666 94.5011 73.1203 94.3041 73.8426C94.0414 74.565 93.7131 75.156 93.3847 75.6814C93.0564 76.1411 92.728 76.5351 92.4654 76.7321C92.2027 76.9948 92.0713 77.0604 92.0713 77.0604C92.0713 77.0604 92.2027 76.9291 92.334 76.6007C92.531 76.3381 92.728 75.8784 92.9907 75.4187C93.2534 74.8934 93.5161 74.3023 93.6474 73.6456C93.7787 72.9889 93.8444 72.2666 93.7131 71.5442C93.6474 71.2159 93.5161 70.8875 93.3191 70.5592C93.1221 70.2308 92.925 69.9682 92.728 69.7055C92.2683 69.2458 91.743 68.9175 91.2176 68.8518C90.6923 68.7861 90.2326 68.8518 89.9043 68.9174C89.5759 69.0488 89.3789 69.1145 89.3789 69.1145Z" fill="#B91E0C"/>
<path d="M105.729 105.233L104.744 112.982L104.481 113.113L99.4901 115.806C99.3588 115.477 99.0961 115.28 98.4394 115.477C98.0454 115.543 97.3887 115.806 96.4037 116.2C92.7262 117.579 85.3056 120.599 79.9207 121.716H79.855C76.5059 122.307 74.0761 122.307 74.0761 121.125C74.0105 119.417 74.6015 113.967 76.5716 107.597C79.1327 99.3226 83.2698 90.1289 83.2698 90.1289L87.8667 90.5886C87.8667 90.5886 87.0786 94.3974 86.4876 98.4032C85.9623 102.081 85.6996 105.89 85.2399 107.925C84.9772 108.976 83.8608 112.128 83.8608 112.128L100.475 100.57L102.971 102.737L105.729 105.233Z" fill="#B8B8B8"/>
<path d="M87.6008 90.786C87.6008 90.786 89.8335 87.8309 88.9798 86.3205C88.1261 84.8101 85.171 82.7087 84.8426 82.446C84.58 82.1177 85.6307 81.067 86.156 80.6729C86.6157 80.3446 86.747 80.8699 88.1261 80.9356C89.4395 81.0013 89.4395 80.0819 89.4395 79.9506C89.4395 79.8192 86.2874 78.2432 85.959 78.2432C85.6307 78.2432 82.6099 80.8043 82.4129 81.0013C82.2159 81.1983 79.9174 83.234 79.7861 83.8251C79.7204 84.4161 83.0696 87.8309 83.2666 88.4876C83.4636 89.0786 83.1352 90.3263 83.1352 90.3263" fill="#B8B8B8"/>
<path d="M79.8516 83.7587C79.8516 83.7587 79.9829 80.8036 80.0486 79.6872C80.3769 78.7678 82.6097 76.3381 82.6097 76.3381L86.8782 75.4844C86.8782 75.4844 87.2065 76.8634 85.9588 77.3888C84.7111 77.9141 83.4634 78.1111 83.4634 78.1111L82.2157 80.2126V82.0513" fill="#B8B8B8"/>
<path d="M79.8517 83.8904C79.8517 83.8904 78.7353 80.7383 78.4727 79.6876C78.5383 78.7025 80.0487 75.7474 80.0487 75.7474L83.9889 73.7773C83.9889 73.7773 84.6456 75.0251 83.5949 75.8788C82.4785 76.7325 81.3621 77.2578 81.3621 77.2578L80.7054 79.6219L81.1651 81.395" fill="#B8B8B8"/>
<path d="M104.481 113.179L99.4898 115.872C99.3584 115.543 99.0958 115.346 98.4391 115.543C98.0451 115.609 97.3884 115.872 96.4033 116.266C100.146 111.669 100.409 100.702 100.409 100.702L102.511 101.556L102.839 102.869L103.496 105.365C103.496 105.233 104.349 109.699 104.481 113.179Z" fill="#AAAAAA"/>
<path d="M93.1862 131.367C93.1862 131.367 90.5594 135.833 102.38 136.884L103.299 131.367L98.6367 128.872L93.1862 131.367Z" fill="#B91E0C"/>
<path d="M127.794 143.648C127.794 143.648 122.213 146.341 111.377 145.815C107.831 145.618 102.643 144.896 99.2939 143.648C99.2939 143.648 100.213 140.628 101.198 135.637C101.461 134.323 101.724 132.813 101.986 131.237L107.831 129.726L125.693 125.195C125.693 125.195 125.956 131.5 126.218 133.535C126.481 136.096 127.794 143.648 127.794 143.648Z" fill="#B8B8B8"/>
<path d="M126.482 132.418C121.885 135.373 112.56 138.591 107.175 136.884C104.417 136.03 102.447 135.702 101.134 135.57C101.396 134.257 101.659 132.747 101.922 131.171L107.766 129.66L126.482 132.418Z" fill="#CC2C1A"/>
<path d="M128.518 131.171C128.518 131.171 126.35 134.454 115.318 135.833C109.079 136.621 103.695 132.944 99.2291 131.171C96.5366 130.12 93.1875 131.368 93.1875 131.368C96.274 127.559 97.7187 121.714 98.3754 116.395C103.432 109.894 100.411 100.569 100.411 100.569C104.286 97.4825 107.175 95.9721 107.175 95.9721C107.175 95.9721 109.67 101.094 112.888 100.897C116.04 100.7 116.434 93.017 116.434 93.017C120.44 92.426 123.527 91.5723 123.527 91.5723C123.395 91.9006 120.769 100.044 123.658 103.458C124.052 103.918 124.512 104.246 125.037 104.509L128.518 131.171Z" fill="#D02E1B"/>
<path d="M127.792 143.647C128.58 149.623 129.04 157.241 129.04 157.241H95.3516C96.0739 152.381 99.2261 143.647 99.2261 143.647C99.2261 143.647 108.485 146.34 127.792 143.647Z" fill="#3E3E3E"/>
<path d="M129.304 51.5807C129.304 51.5807 129.633 52.3687 129.698 54.0761C129.83 55.8492 129.304 56.9656 130.158 57.9506C130.618 58.476 131.866 60.052 133.31 62.0221C134.689 63.8609 135.215 66.3563 135.215 66.3563L139.68 64.3205C139.68 64.3205 138.629 61.0371 138.761 59.855C138.958 58.673 138.958 56.7686 138.958 55.3895C138.958 54.0105 138.564 52.8284 138.432 52.4344C136.594 47.7719 135.543 46.3928 134.952 45.2764C134.361 44.1601 133.179 45.9988 133.31 46.5898C133.376 46.9182 133.442 48.5599 133.704 49.6106C133.967 50.5957 133.77 53.6821 132.719 54.7328C131.669 55.7835 131.209 53.3538 130.881 52.3031C130.421 50.727 129.042 50.6613 129.304 51.5807Z" fill="#B8B8B8"/>
<path d="M134.753 64.9118C134.753 64.9118 135.804 68.7862 136.198 72.201C136.46 74.3681 136.657 78.3083 136.657 82.7081C136.657 86.1229 137.248 89.2751 137.248 89.2751L144.669 97.418C148.543 93.7406 144.538 79.4247 141.648 70.3623C140.203 65.8311 139.35 63.4014 139.35 63.4014L134.753 64.9118Z" fill="#B8B8B8"/>
<path d="M128.517 46.1312L132.588 57.7547C132.72 58.083 133.048 58.2801 133.376 58.2801L136.857 57.9517C137.251 57.886 137.514 57.5577 137.382 57.1637L132.982 41.5344C132.917 41.206 132.523 41.1404 132.326 41.3374L128.714 44.9492C128.451 45.2119 128.385 45.6716 128.517 46.1312Z" fill="#2C2C2C"/>
<path d="M128.779 46.2625L132.719 57.5576C132.85 57.886 133.113 58.0173 133.441 58.0173L136.659 57.689C136.987 57.6233 137.25 57.295 137.119 56.9666L132.85 41.994C132.784 41.7313 132.456 41.6 132.259 41.797L128.976 45.0805C128.713 45.4088 128.647 45.8685 128.779 46.2625Z" fill="#454545"/>
<path d="M132.721 41.2061L133.574 41.3374C133.64 41.3374 133.771 41.4031 133.771 41.5344L137.909 56.8353C137.909 56.901 137.909 56.9667 137.843 57.0324L137.318 57.6234L132.721 41.2061Z" fill="#2C2C2C"/>
<path d="M136.459 50.1365C136.459 50.1365 135.605 47.7067 136.131 47.247C136.656 46.7874 137.05 48.0351 137.247 48.6261C137.444 49.2171 138.429 51.0559 138.495 51.3842C138.561 51.7126 138.889 54.8647 138.889 54.8647L136.722 50.6618" fill="#B8B8B8"/>
<path d="M129.764 51.0557C129.764 51.0557 130.683 51.3183 131.011 52.3032C131.339 53.288 131.208 54.3385 131.405 55.2578C131.668 56.177 130.223 54.6012 130.223 54.6012" fill="#B8B8B8"/>
<path d="M95.35 157.243C95.35 157.243 85.1056 189.224 86.419 193.821C87.7324 198.418 102.377 230.136 102.377 230.136C102.377 230.136 103.887 230.267 105.923 229.151C107.696 228.166 110.06 226.261 110.06 226.261C110.06 226.261 107.959 218.184 106.382 210.698C105.529 206.889 104.281 201.964 103.953 199.731C103.493 196.71 102.377 193.492 101.851 191.916C101.589 191.26 101.654 190.537 101.917 189.881L115.182 160.329L116.693 152.975L105.857 151.661L95.35 157.243Z" fill="#3E3E3E"/>
<path d="M130.881 156.192C130.159 150.347 129.239 148.706 128.517 146.407C127.926 144.503 127.729 143.715 127.729 143.715L112.428 154.616C112.428 154.616 112.362 180.03 113.479 192.179C113.61 193.82 113.676 195.462 113.61 197.17C113.15 207.742 112.362 236.374 112.362 236.374C112.362 236.374 114.004 237.097 116.696 237.294C117.879 237.359 121.293 237.162 121.293 237.162C121.884 234.798 122.869 229.807 123.001 227.837C123.198 225.801 123.395 222.387 123.395 222.387C126.547 200.716 131.669 162.365 130.881 156.192Z" fill="#3E3E3E"/>
<path d="M96.9316 127.757C96.9316 127.757 97.3913 127.56 98.3107 127.494C99.2301 127.428 100.543 127.428 101.988 127.888C102.711 128.085 103.499 128.413 104.287 128.873C105.075 129.333 105.797 129.858 106.585 130.383C107.373 130.909 108.227 131.434 109.08 131.894C109.934 132.354 110.919 132.748 111.839 133.076C112.758 133.404 113.809 133.667 114.728 133.864C115.713 134.061 116.698 134.061 117.617 133.995C119.522 133.864 121.295 133.404 122.74 132.945C124.184 132.485 125.366 131.959 126.154 131.565C126.548 131.368 126.877 131.237 127.074 131.106C127.271 130.974 127.402 130.909 127.402 130.909C127.402 130.909 127.271 130.974 127.074 131.106C126.877 131.237 126.548 131.434 126.154 131.631C125.366 132.025 124.184 132.616 122.74 133.142C121.295 133.667 119.522 134.127 117.617 134.324C116.632 134.389 115.647 134.389 114.597 134.258C113.612 134.061 112.561 133.798 111.576 133.47C109.606 132.813 107.833 131.762 106.191 130.646C105.403 130.121 104.615 129.53 103.893 129.07C103.17 128.61 102.382 128.216 101.66 128.019C100.215 127.56 98.9017 127.428 98.048 127.494C97.3913 127.625 96.9316 127.757 96.9316 127.757Z" fill="#B91E0C"/>
<path d="M107.697 98.4043C107.697 98.4043 107.829 98.5356 108.026 98.7983C108.223 99.0609 108.551 99.3893 108.945 99.7833C109.142 99.9803 109.405 100.177 109.667 100.374C109.93 100.571 110.193 100.768 110.521 100.965C110.652 101.031 110.849 101.097 110.981 101.228C111.178 101.294 111.309 101.359 111.506 101.425C111.834 101.491 112.228 101.556 112.557 101.556H112.819H112.885H112.951H113.082C113.279 101.491 113.476 101.491 113.607 101.425C113.936 101.294 114.264 101.097 114.527 100.9C114.79 100.703 114.987 100.44 115.184 100.177C115.381 99.9146 115.512 99.652 115.643 99.3893C115.906 98.8639 116.103 98.4699 116.169 98.1416C116.3 97.8132 116.3 97.6162 116.3 97.6162C116.3 97.6162 116.3 97.8132 116.234 98.1416C116.169 98.4699 116.037 98.9296 115.84 99.455C115.709 99.7176 115.578 99.9803 115.381 100.309C115.184 100.571 114.987 100.9 114.658 101.097C114.396 101.359 114.067 101.556 113.673 101.688C113.476 101.753 113.279 101.819 113.082 101.885L112.951 101.95C112.951 101.95 112.951 101.95 112.885 101.95H112.819H112.491C112.097 101.95 111.703 101.885 111.309 101.819C111.112 101.753 110.915 101.688 110.784 101.622C110.587 101.556 110.455 101.425 110.258 101.359C109.93 101.162 109.667 100.965 109.405 100.703C109.142 100.506 108.945 100.243 108.748 100.046C108.091 99.0609 107.697 98.4043 107.697 98.4043Z" fill="#B91E0C"/>
<path d="M129.041 157.243C129.041 157.243 129.106 158.36 129.172 160.395C129.172 161.38 129.238 162.628 129.172 164.007C129.172 165.386 129.106 166.962 128.844 168.67C128.712 169.523 128.581 170.377 128.384 171.296C128.253 172.216 128.121 173.135 127.99 174.12C127.727 176.025 127.596 178.126 127.399 180.227C127.202 182.329 127.07 184.562 126.742 186.794C126.414 189.027 126.085 191.26 125.757 193.493C125.166 198.024 124.641 202.489 124.181 206.758C123.918 208.859 123.721 210.895 123.459 212.865C123.262 214.769 123.13 216.608 122.999 218.316C122.736 221.73 122.539 224.554 122.342 226.524C122.145 228.494 121.948 229.611 121.948 229.611C121.948 229.611 122.145 228.494 122.211 226.524C122.342 224.554 122.474 221.73 122.671 218.316C122.802 216.608 122.868 214.769 123.065 212.799C123.262 210.829 123.524 208.794 123.721 206.692C124.181 202.489 124.706 197.958 125.232 193.427C125.494 191.194 125.823 188.896 126.217 186.729C126.545 184.496 126.742 182.329 126.873 180.227C127.07 178.126 127.267 176.025 127.53 174.12C127.661 173.135 127.793 172.216 127.99 171.296C128.187 170.377 128.318 169.523 128.449 168.67C128.712 166.962 128.778 165.452 128.844 164.073C128.909 162.694 128.909 161.512 128.909 160.461C129.106 158.36 129.041 157.243 129.041 157.243Z" fill="#292929"/>
<path d="M112.098 146.474C112.098 146.474 112.098 147.59 111.967 149.297C111.901 150.151 111.836 151.136 111.77 152.187C111.704 153.238 111.639 154.354 111.507 155.47C111.442 156.587 111.31 157.703 111.245 158.754C111.245 159.279 111.179 159.804 111.179 160.264C111.179 160.724 111.245 161.184 111.31 161.578C111.507 162.366 111.704 163.088 111.836 163.548C111.967 164.007 112.098 164.27 112.098 164.27C112.098 164.27 111.967 164.007 111.77 163.613C111.573 163.154 111.245 162.497 111.048 161.709C110.916 161.315 110.851 160.855 110.851 160.33C110.851 159.87 110.851 159.345 110.851 158.819C110.916 157.769 110.982 156.652 111.048 155.536C111.179 154.42 111.245 153.303 111.376 152.253C111.507 151.202 111.639 150.217 111.704 149.363C111.901 147.59 112.098 146.474 112.098 146.474Z" fill="#292929"/>
<path d="M111.312 161.972C111.312 161.972 110.984 162.957 110.327 164.73C109.67 166.503 108.817 168.998 107.635 171.953C107.044 173.464 106.453 175.04 105.73 176.747C105.402 177.601 104.942 178.455 104.482 179.308C104.023 180.162 103.563 181.016 103.103 181.869C102.184 183.643 101.199 185.481 100.28 187.32C100.083 187.78 99.8199 188.239 99.6229 188.765C99.5572 188.962 99.4259 189.224 99.2946 189.487C99.1632 189.75 99.0319 189.947 98.9662 190.209C98.5065 191.129 97.9812 192.114 98.2439 193.033C98.4409 194.018 98.8349 195.069 99.1632 196.054C99.4916 197.039 99.8199 198.09 100.148 199.075C100.805 201.045 101.396 203.081 101.724 205.051C102.184 206.955 102.775 208.794 103.3 210.567C103.891 212.34 104.417 213.982 104.876 215.492C106.847 221.534 108.226 225.605 108.226 225.605C108.226 225.605 107.832 224.62 107.175 222.847C106.518 221.074 105.599 218.579 104.548 215.558C104.023 214.047 103.432 212.406 102.841 210.698C102.25 208.991 101.593 207.152 101.133 205.182C100.739 203.212 100.148 201.242 99.4916 199.272C99.1632 198.287 98.8349 197.302 98.5065 196.251C98.1782 195.2 97.7842 194.281 97.5872 193.165C97.5215 193.033 97.5215 192.902 97.5215 192.771C97.5215 192.574 97.5215 192.442 97.5215 192.311C97.5872 192.048 97.6528 191.72 97.7185 191.457C97.9155 190.932 98.1782 190.406 98.3752 189.947C98.5065 189.684 98.6379 189.487 98.7035 189.224C98.8349 189.027 98.9005 188.765 99.0319 188.502C99.2289 187.977 99.4916 187.517 99.6886 187.057C100.608 185.153 101.593 183.38 102.512 181.607C102.972 180.753 103.432 179.834 103.957 179.046C104.482 178.192 104.876 177.404 105.205 176.55C105.927 174.909 106.65 173.267 107.241 171.822C109.736 165.912 111.312 161.972 111.312 161.972Z" fill="#292929"/>
<path d="M93.0546 191.063C93.0546 191.063 93.7112 190.866 94.6961 190.931C94.9587 190.931 95.2213 190.997 95.484 190.997C95.7466 191.063 96.0749 191.128 96.3375 191.194C96.6001 191.26 96.9284 191.391 97.2567 191.588C97.388 191.654 97.5193 191.719 97.7163 191.851L97.9133 191.982C97.9133 191.982 97.9133 191.982 97.9789 192.048C98.0446 192.113 98.1103 192.179 98.1103 192.31C98.1103 192.376 98.1103 192.441 98.0446 192.573C97.9789 192.638 97.9133 192.704 97.782 192.77H97.7163H97.6507C96.4032 192.704 95.1557 192.835 94.2365 193.032C94.0395 193.098 93.7769 193.164 93.6455 193.229C93.4486 193.295 93.3173 193.361 93.1859 193.426C92.9233 193.558 92.792 193.623 92.792 193.623C92.792 193.623 92.792 193.623 92.8577 193.558C92.9233 193.492 92.989 193.426 93.1203 193.295C93.3173 193.098 93.6455 192.835 94.1051 192.638C95.0244 192.245 96.3375 191.982 97.6507 192.048H97.7163H97.6507C97.585 192.048 97.4537 192.113 97.4537 192.179C97.388 192.245 97.388 192.31 97.388 192.376C97.388 192.442 97.4537 192.507 97.5193 192.573C97.585 192.573 97.5193 192.573 97.5193 192.573L97.3224 192.441C97.1911 192.376 97.0597 192.31 96.9284 192.179C96.6658 192.048 96.4032 191.916 96.1405 191.785C95.6153 191.588 95.09 191.391 94.6304 191.325C94.1708 191.194 93.7769 191.128 93.5142 191.128C93.2516 191.063 93.0546 191.063 93.0546 191.063Z" fill="#292929"/>
<path d="M99.5576 144.897C99.5576 144.897 99.9516 145.029 100.74 145.16C101.462 145.291 102.513 145.488 103.76 145.686C105.008 145.883 106.519 146.014 108.095 146.145C108.883 146.211 109.736 146.211 110.524 146.277C111.378 146.342 112.232 146.277 113.085 146.342C113.939 146.342 114.793 146.342 115.647 146.277C116.5 146.211 117.288 146.211 118.076 146.145C118.864 146.08 119.652 146.014 120.375 145.948C121.097 145.883 121.819 145.817 122.411 145.751C123.067 145.686 123.658 145.62 124.118 145.554C124.643 145.488 125.103 145.423 125.431 145.357C126.154 145.226 126.613 145.226 126.613 145.226C126.613 145.226 126.219 145.357 125.497 145.488C125.103 145.554 124.709 145.685 124.184 145.817C123.658 145.948 123.067 146.014 122.476 146.145C121.82 146.277 121.163 146.408 120.44 146.474C119.718 146.539 118.93 146.671 118.142 146.736C117.354 146.802 116.5 146.868 115.647 146.933C114.793 146.933 113.939 146.999 113.085 146.999C112.232 146.999 111.378 146.999 110.524 146.933C109.671 146.868 108.817 146.802 108.029 146.736C107.241 146.671 106.453 146.539 105.731 146.474C105.008 146.342 104.286 146.211 103.695 146.145C102.447 145.882 101.396 145.62 100.674 145.423C99.9516 145.029 99.5576 144.897 99.5576 144.897Z" fill="#292929"/>
<path d="M104.283 89.3408C104.283 89.3408 106.45 91.0479 107.172 93.6086L106.975 89.9974L104.283 89.3408Z" fill="#B8B8B8"/>
<path d="M105.466 80.8696C105.466 80.8696 106.188 82.0514 106.648 81.8544C107.107 81.6575 106.91 81.2635 106.516 80.6069C105.926 79.6221 105.138 80.3443 105.466 80.8696Z" fill="#261818"/>
<path d="M111.835 76.3383C111.835 76.3383 112.295 77.6514 112.82 77.5857C113.345 77.4544 113.148 77.0605 112.951 76.3383C112.557 75.2221 111.638 75.7473 111.835 76.3383Z" fill="#261818"/>
<path d="M103.1 80.475C103.297 80.1467 103.363 79.7527 104.085 79.3588C104.807 78.9648 105.989 78.6365 106.055 78.5709C106.186 78.4396 106.055 78.3083 105.398 78.3739C104.742 78.5052 103.822 78.5709 103.166 79.0961C102.509 79.6871 102.444 80.4093 102.509 80.6719C102.641 81.0659 103.035 80.6063 103.1 80.475Z" fill="#202020"/>
<path d="M111.834 74.367C111.571 74.4327 111.243 74.367 110.717 74.761C110.192 75.1549 109.667 76.0085 109.601 76.0085C109.47 76.0741 109.404 75.9428 109.667 75.4832C109.93 75.0236 110.258 74.4983 110.914 74.17C111.571 73.8417 112.096 73.8418 112.228 74.0387C112.359 74.17 111.965 74.367 111.834 74.367Z" fill="#202020"/>
<path opacity="0.3" d="M110.852 80.2125C110.852 80.2125 112.559 81.3943 112.887 82.2479C113.018 82.5105 112.427 83.758 112.23 83.6923C111.968 83.6923 112.756 82.4448 112.624 82.2479C112.165 81.46 110.261 79.9498 109.998 79.7529C109.604 79.4246 110.064 79.6216 110.852 80.2125Z" fill="#AAAAAA"/>
<path d="M114.854 84.0869C114.854 84.0869 114.328 85.4001 113.212 85.991C112.096 86.5819 110.323 86.5819 110.323 86.5819C110.323 86.5819 111.374 87.8951 113.343 87.3698C115.576 86.7132 114.854 84.0869 114.854 84.0869Z" fill="white"/>
<path d="M102.442 76.6016C102.442 76.6016 99.2241 80.9357 100.406 84.5475C101.588 88.1594 103.887 90.8518 103.887 90.8518L98.042 89.4071L94.8242 83.0372L95.7436 78.9L99.1584 77.1269L102.442 76.6016Z" fill="#202020"/>
<path d="M49.5141 76.1409L16.2198 84.2183C14.7094 84.6123 13.79 86.057 14.184 87.5674L19.7002 110.289C20.0943 111.799 21.539 112.719 23.0494 112.325L42.6845 107.531C44.1292 107.203 45.7053 107.4 47.0187 108.253C51.3528 111.011 56.0154 113.704 56.672 113.244C57.2631 112.784 55.687 109.632 53.8483 106.48C53.4542 105.758 53.7826 104.838 54.6363 104.641L56.475 104.182C57.9854 103.788 58.9048 102.343 58.5108 100.833L52.9946 78.111C52.5349 76.732 51.0245 75.8126 49.5141 76.1409Z" fill="#D02E1B"/>
<path d="M46.689 87.1076C45.5727 83.8242 42.4862 81.5258 39.2027 82.3138C36.7073 82.9048 34.9999 84.9406 34.6059 87.3703C33.1612 85.4002 30.7971 84.3495 28.3016 84.9406C24.9525 85.7286 23.2451 89.1434 23.7705 92.6239C23.7705 92.6239 23.8361 93.4776 24.5585 94.9223C25.5435 96.8924 27.1196 98.4028 29.024 99.4535L38.2834 104.51C38.546 104.641 38.9401 104.576 39.1371 104.313L45.1786 95.5133C46.3607 93.7402 47.083 91.6388 47.083 89.4717C47.083 87.9613 46.689 87.1076 46.689 87.1076Z" fill="white"/>
<path d="M163.977 49.0198L189.85 55.2584C191.032 55.5211 191.755 56.7031 191.426 57.8852L187.158 75.4845C186.895 76.6666 185.713 77.3889 184.531 77.0606L169.296 73.3831C168.179 73.1204 166.932 73.3174 165.947 73.9085C162.598 76.0099 158.986 78.177 158.46 77.7829C158.001 77.4546 159.248 74.9592 160.693 72.5294C161.021 72.004 160.693 71.2817 160.102 71.1504L158.657 70.822C157.475 70.5593 156.753 69.3773 157.081 68.1952L161.35 50.5959C161.613 49.4138 162.795 48.6915 163.977 49.0198Z" fill="#D02E1B"/>
<path d="M165.879 59.3952C165.879 61.1026 166.404 62.7443 167.324 64.1234L172.052 70.953C172.183 71.15 172.446 71.2157 172.709 71.0843L179.932 67.1442C181.377 66.3561 182.625 65.1084 183.413 63.6637C184.004 62.5473 184.004 61.8906 184.004 61.8906C184.398 59.1982 183.084 56.5714 180.523 55.9147C178.619 55.455 176.78 56.2431 175.664 57.8191C175.335 55.9147 174.022 54.3387 172.117 53.879C169.556 53.288 167.127 54.9953 166.273 57.5564C166.142 57.4908 165.879 58.1475 165.879 59.3952Z" fill="white"/>
<path d="M83.8617 10.1424L49.6481 8.23796C48.1377 8.17229 46.8243 9.35434 46.6929 10.8647L45.3796 34.1773C45.3139 35.6877 46.4959 37.0011 48.0063 37.1324L68.1668 38.2488C69.6772 38.3145 71.1219 39.0368 72.107 40.1532C75.4561 44.0277 79.1336 47.9679 79.9216 47.7052C80.644 47.4425 79.9873 43.962 79.1336 40.4159C78.9366 39.6279 79.5933 38.8398 80.3813 38.9055L82.22 39.0368C83.7304 39.1025 85.0438 37.9205 85.1751 36.4101L86.4885 13.0975C86.5542 11.5871 85.3721 10.2737 83.8617 10.1424Z" stroke="#D02E1B" stroke-miterlimit="10"/>
<path d="M171.266 89.3406L204.955 95.6448C206.465 95.9075 207.45 97.3522 207.187 98.8626L202.919 121.847C202.656 123.357 201.211 124.342 199.701 124.08L179.803 120.336C178.293 120.074 176.782 120.402 175.535 121.256C171.398 124.211 166.866 127.166 166.144 126.772C165.487 126.378 166.932 123.095 168.639 119.877C169.033 119.154 168.574 118.235 167.786 118.104L165.947 117.775C164.437 117.513 163.452 116.068 163.714 114.558L167.983 91.5733C168.245 90.0629 169.756 89.0122 171.266 89.3406Z" stroke="#D02E1B" stroke-miterlimit="10"/>
<path d="M66.977 163.411C67.5668 162.468 67.6847 161.288 67.095 160.345C66.3873 159.165 65.3258 158.811 64.1463 158.929C62.4951 159.047 60.9617 159.165 59.3105 159.401C59.1925 159.401 59.0746 159.519 58.9567 159.401C59.0746 159.165 59.1925 158.811 59.3105 158.576C59.6643 157.514 59.7823 156.57 59.7823 155.509C59.7823 154.919 59.7823 154.212 59.5464 153.622C59.0746 151.853 57.6592 150.791 55.89 150.555C54.7106 150.437 53.6491 151.263 53.6491 152.442C53.6491 153.032 53.5311 153.74 53.4132 154.329C53.0593 155.863 52.2337 157.16 51.2901 158.222C50.5825 158.929 49.8748 159.637 49.0491 160.227C48.3415 160.699 47.5158 161.288 46.8082 161.76C46.6902 161.878 46.5723 161.996 46.5723 162.232L47.8697 176.739C47.8697 176.975 47.9876 177.093 48.2235 177.211C48.9312 177.447 49.7568 177.565 50.5824 177.683C52.3516 177.919 54.1209 177.919 56.008 177.801C58.6028 177.565 61.1976 177.329 63.7925 177.093C64.0284 177.093 64.3822 176.975 64.6181 176.975C66.5052 176.385 67.3309 174.262 66.2694 172.611C66.1514 172.493 66.1514 172.375 66.3873 172.257C67.4488 171.314 67.6847 169.78 66.977 168.601C66.8591 168.483 66.8591 168.365 67.095 168.247C68.3924 167.068 68.3924 165.298 67.3309 164.001C66.8591 163.647 66.8591 163.529 66.977 163.411Z" fill="#C5C5C5"/>
<path d="M45.3932 161.996C45.3932 161.996 45.3932 161.878 45.3932 161.996C45.3932 161.878 45.3932 161.878 45.3932 161.76C45.3932 161.524 45.3932 161.17 45.1573 160.934C45.1573 160.934 45.1573 160.934 45.0394 160.816C45.0394 160.816 45.0394 160.816 44.9214 160.698C44.9214 160.698 44.9214 160.698 44.8035 160.698C44.8035 160.698 44.8035 160.698 44.6855 160.698H44.5676C44.4496 160.698 44.3317 160.698 44.2137 160.698C42.9163 160.816 41.6189 160.934 40.2035 161.052C38.9061 161.17 37.6087 161.288 36.1934 161.406C36.0754 161.406 35.9575 161.406 35.8395 161.524C35.8395 161.524 35.7216 161.524 35.7216 161.642C35.7216 161.642 35.7216 161.642 35.6036 161.642C35.6036 161.642 35.6036 161.642 35.4857 161.76C35.4857 161.76 35.4857 161.76 35.3677 161.878C35.3677 161.878 35.3677 161.878 35.2498 161.996C35.1318 162.232 35.1318 162.585 35.1318 162.821C35.1318 162.939 35.1318 162.939 35.1318 163.057C35.4857 167.067 35.8395 170.96 36.1934 174.97C36.3113 176.149 36.4293 177.329 36.5472 178.508C36.6652 179.216 37.019 179.57 37.7267 179.57C38.4344 179.452 39.0241 179.452 39.7318 179.334C40.0856 179.334 40.4395 179.216 40.6753 179.216C41.0292 179.216 41.2651 179.216 41.6189 179.098C41.9727 179.098 42.2086 179.098 42.5625 178.98C42.9163 178.98 43.2702 178.98 43.5061 178.862C44.2137 178.744 44.8035 178.744 45.5111 178.626C46.2188 178.508 46.5727 178.154 46.4547 177.447C46.3368 176.267 46.2188 175.088 46.1009 173.908C46.1009 169.898 45.7471 166.006 45.3932 161.996Z" fill="#C5C5C5"/>
<path d="M128.319 4.36434L154.587 0.0301705C155.769 -0.166837 156.885 0.621194 157.082 1.80324L160.037 19.6653C160.234 20.8473 159.446 21.9637 158.264 22.1607L142.766 24.7218C141.584 24.9188 140.599 25.5755 139.877 26.5606C137.644 29.844 135.148 33.1931 134.492 33.0618C133.901 32.9305 134.098 30.1724 134.492 27.3486C134.557 26.6919 134.032 26.1665 133.375 26.2979L131.931 26.5606C130.749 26.7576 129.632 25.9695 129.435 24.7875L126.48 6.92545C126.349 5.61206 127.137 4.56135 128.319 4.36434Z" fill="#F0F0F0"/>
<path d="M152.355 11.5227C152.617 10.9974 152.683 10.275 152.289 9.81532C151.829 9.2243 151.304 9.02729 150.582 9.09296C149.662 9.2243 148.809 9.35564 147.889 9.55265C147.823 9.55265 147.758 9.61832 147.692 9.55265C147.758 9.42131 147.823 9.2243 147.823 9.09296C147.955 8.50194 148.02 7.91091 147.955 7.31989C147.955 6.99155 147.889 6.59753 147.758 6.26918C147.429 5.28415 146.641 4.75879 145.591 4.75879C144.934 4.75879 144.409 5.21848 144.409 5.94084C144.409 6.26918 144.409 6.6632 144.343 6.99155C144.212 7.84525 143.818 8.56761 143.292 9.2243C142.964 9.68399 142.504 10.078 142.11 10.472C141.716 10.8004 141.322 11.1287 140.928 11.3914C140.863 11.4571 140.797 11.5884 140.797 11.6541L142.11 19.6657C142.11 19.797 142.242 19.8627 142.307 19.9284C142.767 19.9941 143.161 20.0597 143.621 20.1254C144.606 20.1911 145.656 20.1254 146.641 19.9941C148.086 19.797 149.531 19.5344 150.976 19.2717C151.107 19.2717 151.304 19.206 151.435 19.1404C152.486 18.7463 152.814 17.4986 152.223 16.6449C152.158 16.5793 152.158 16.5136 152.223 16.4479C152.814 15.8569 152.88 15.0689 152.42 14.3465C152.355 14.2808 152.355 14.2152 152.42 14.1495C153.077 13.4928 153.077 12.4421 152.355 11.7854C152.355 11.6541 152.355 11.5884 152.355 11.5227Z" fill="#9B9B9B"/>
<path d="M140.272 11.5886C140.272 11.5229 140.272 11.5229 140.272 11.4572C140.272 11.3259 140.207 11.1289 140.075 10.9975C140.075 10.9975 140.075 10.9975 140.01 10.9319C140.01 10.9319 140.01 10.9319 139.944 10.8662H139.878C139.878 10.8662 139.878 10.8662 139.813 10.8662H139.747C139.681 10.8662 139.616 10.8662 139.55 10.8662C138.828 10.9975 138.105 11.1289 137.383 11.1946C136.66 11.3259 135.938 11.4572 135.216 11.5229C135.15 11.5229 135.084 11.5886 135.019 11.5886C135.019 11.5886 134.953 11.5886 134.953 11.6542C134.953 11.6542 134.953 11.6542 134.887 11.7199C134.887 11.7199 134.887 11.7199 134.822 11.7856C134.822 11.7856 134.822 11.7856 134.822 11.8512C134.822 11.8512 134.822 11.8512 134.822 11.9169C134.756 12.0483 134.756 12.2453 134.822 12.3766C134.822 12.4423 134.822 12.4423 134.822 12.5079C135.15 14.675 135.544 16.9078 135.872 19.0749C136.004 19.7316 136.069 20.3883 136.201 21.0449C136.266 21.439 136.529 21.636 136.923 21.5703C137.317 21.5046 137.645 21.439 138.04 21.3733C138.237 21.3733 138.368 21.3076 138.565 21.3076C138.762 21.3076 138.893 21.242 139.09 21.242C139.287 21.242 139.419 21.1763 139.616 21.1763C139.813 21.1763 139.944 21.1106 140.141 21.1106C140.535 21.0449 140.863 20.9793 141.257 20.9136C141.651 20.8479 141.848 20.5853 141.783 20.1912C141.651 19.5346 141.586 18.8779 141.454 18.2212C140.995 15.9884 140.666 13.8213 140.272 11.5886Z" fill="#9B9B9B"/>
<path d="M76.44 22.0947C77.5564 27.8736 73.8133 33.4555 68.0344 34.5719C62.2555 35.6883 56.6736 31.9451 55.5572 26.1662C54.4408 20.3873 58.184 14.8054 63.9629 13.689C69.8074 12.5727 75.3893 16.3158 76.44 22.0947Z" fill="#C7C7C7"/>
<path d="M71.2545 16.9075C68.9561 14.0181 66.198 16.9075 67.2487 19.2059C68.0367 21.0447 70.6635 23.3431 70.6635 23.3431C70.9262 23.1461 73.6843 21.57 74.8007 19.9283C76.2454 17.8269 74.0783 14.4777 71.2545 16.9075Z" fill="#D02E1B"/>
<path d="M58.4552 19.403C59.5059 15.8569 63.1177 17.4986 63.052 20.0597C62.9863 22.0298 61.4103 25.1819 61.4103 25.1819C61.0819 25.1162 57.9955 24.6565 56.2881 23.5402C54.2523 22.0954 54.9747 18.1553 58.4552 19.403Z" fill="#D02E1B"/>
<path d="M62.6504 26.9546C62.3877 26.8889 62.1907 27.2173 62.3221 27.5456C63.1101 29.253 65.0802 30.2381 67.1816 29.8441C69.2173 29.45 70.7277 27.8083 70.7934 25.9039C70.7934 25.5756 70.5307 25.3786 70.2681 25.5099C69.2173 26.1009 67.9696 26.5606 66.5906 26.8233C65.1459 27.086 63.8325 27.1516 62.6504 26.9546Z" fill="#343434"/>
<path d="M66.7874 28.0056C65.8682 28.2026 65.2116 28.8592 65.0146 29.7127C65.6712 29.9097 66.3935 29.9097 67.1157 29.7784C67.8379 29.6471 68.4945 29.3188 69.0854 28.9248C68.5602 28.2683 67.7066 27.8743 66.7874 28.0056Z" fill="#D02E1B"/>
<path d="M194.773 105.56C195.036 111.405 190.505 116.396 184.66 116.724C178.815 116.987 173.825 112.456 173.496 106.611C173.234 100.767 177.765 95.7757 183.609 95.4474C189.454 95.1847 194.445 99.7159 194.773 105.56Z" fill="#C7C7C7"/>
<path d="M190.304 99.7164C188.4 96.4986 185.313 98.994 185.97 101.424C186.495 103.328 188.794 106.021 188.794 106.021C189.122 105.889 192.012 104.707 193.325 103.197C195.098 101.292 193.456 97.6807 190.304 99.7164Z" fill="#D02E1B"/>
<path d="M177.296 100.307C178.872 96.8926 182.221 99.1253 181.761 101.621C181.433 103.591 179.397 106.415 179.397 106.415C179.069 106.349 176.048 105.364 174.603 104.051C172.699 102.409 174.012 98.6656 177.296 100.307Z" fill="#D02E1B"/>
<path d="M180.324 108.451C180.062 108.385 179.799 108.648 179.93 108.976C180.456 110.749 182.295 112.063 184.396 111.931C186.497 111.8 188.205 110.421 188.533 108.582C188.599 108.254 188.336 107.991 188.073 108.122C186.957 108.582 185.644 108.845 184.199 108.91C182.886 108.91 181.506 108.779 180.324 108.451Z" fill="#343434"/>
<path d="M184.33 110.092C183.411 110.158 182.623 110.749 182.295 111.537C182.951 111.8 183.608 111.931 184.396 111.931C185.118 111.865 185.84 111.668 186.431 111.34C186.037 110.552 185.25 110.027 184.33 110.092Z" fill="#D02E1B"/>
<path d="M70.0049 77.3226C69.3482 76.1406 67.9691 75.4839 66.7214 76.0093C65.802 76.4033 65.2767 77.3226 65.2767 78.3077C64.5543 77.651 63.5693 77.3883 62.6499 77.7823C61.4022 78.3077 61.0082 79.7524 61.4679 81.0658C61.4679 81.0658 61.5335 81.3941 61.9276 81.9195C62.4529 82.5762 63.1753 83.1015 63.9633 83.3642L67.8378 84.6776C68.0348 84.7433 68.1661 84.6776 68.2975 84.4806L70.0049 80.7374C70.3332 79.9494 70.4646 79.0957 70.3332 78.242C70.2019 77.5853 70.0049 77.3226 70.0049 77.3226Z" fill="#D02E1B"/>
<path d="M152.353 69.9686C152.484 68.9835 151.959 67.9328 150.974 67.7358C150.251 67.6045 149.529 67.8672 149.135 68.4582C149.003 67.7358 148.544 67.1448 147.821 67.0135C146.836 66.8165 145.983 67.4731 145.654 68.4582C145.654 68.4582 145.523 68.7209 145.589 69.1806C145.589 69.8372 145.786 70.4283 146.18 70.9536L147.953 73.4491C148.018 73.5804 148.15 73.5804 148.281 73.5147L150.974 72.0043C151.499 71.676 151.959 71.2163 152.221 70.6253C152.287 70.2313 152.353 69.9686 152.353 69.9686Z" fill="#D02E1B"/>
</svg>
