<svg width="288" height="260" viewBox="0 0 288 260" fill="none" xmlns="http://www.w3.org/2000/svg">
<path opacity="0.79" d="M172.36 207.305C196.404 183.262 196.404 144.279 172.36 120.236C148.316 96.1922 109.334 96.1922 85.2906 120.236C61.247 144.279 61.247 183.262 85.2906 207.305C109.334 231.349 148.316 231.349 172.36 207.305Z" fill="#F5F5F5"/>
<path opacity="0.79" d="M27.6343 175.79C42.8963 175.79 55.2686 163.418 55.2686 148.156C55.2686 132.894 42.8963 120.521 27.6343 120.521C12.3723 120.521 0 132.894 0 148.156C0 163.418 12.3723 175.79 27.6343 175.79Z" fill="#F5F5F5"/>
<path opacity="0.79" d="M190.886 67.8674C209.627 67.8674 224.82 52.6748 224.82 33.9337C224.82 15.1926 209.627 0 190.886 0C172.145 0 156.952 15.1926 156.952 33.9337C156.952 52.6748 172.145 67.8674 190.886 67.8674Z" fill="#F5F5F5"/>
<path opacity="0.79" d="M78.4711 47.7026C81.4734 29.2033 68.9106 11.7727 50.4113 8.77042C31.912 5.7681 14.4815 18.3309 11.4792 36.8302C8.47683 55.3295 21.0396 72.76 39.5389 75.7624C58.0383 78.7647 75.4688 66.2019 78.4711 47.7026Z" fill="#F5F5F5"/>
<path opacity="0.79" d="M268.255 127.58C276.61 119.225 276.61 105.679 268.255 97.3242C259.9 88.9693 246.354 88.9693 237.999 97.3242C229.644 105.679 229.644 119.225 237.999 127.58C246.354 135.935 259.9 135.935 268.255 127.58Z" fill="#F5F5F5"/>
<path opacity="0.79" d="M56.6941 260C68.5098 260 78.0884 250.421 78.0884 238.605C78.0884 226.789 68.5098 217.211 56.6941 217.211C44.8784 217.211 35.2998 226.789 35.2998 238.605C35.2998 250.421 44.8784 260 56.6941 260Z" fill="#F5F5F5"/>
<path opacity="0.79" d="M258.545 234.528C260.099 227.948 256.024 221.354 249.444 219.8C242.864 218.247 236.27 222.321 234.717 228.901C233.163 235.481 237.237 242.075 243.818 243.629C250.398 245.182 256.991 241.108 258.545 234.528Z" fill="#F5F5F5"/>
<path opacity="0.27" d="M143.995 213.765C219.091 213.765 279.968 209.561 279.968 204.375C279.968 199.189 219.091 194.985 143.995 194.985C68.8995 194.985 8.02246 199.189 8.02246 204.375C8.02246 209.561 68.8995 213.765 143.995 213.765Z" fill="#43434C"/>
<path d="M243.956 191.48H44.6323C41.8392 191.48 39.5215 189.221 39.5215 186.369V54.9722C39.5215 52.179 41.7798 49.8613 44.6323 49.8613H243.896C246.689 49.8613 249.007 52.1196 249.007 54.9722V186.369C249.007 189.221 246.749 191.48 243.956 191.48Z" fill="#444444"/>
<path d="M261.606 202.83H26.9823C21.0394 202.83 16.2852 198.017 16.2852 192.133V185.299H272.363V192.133C272.303 198.017 267.549 202.83 261.606 202.83Z" fill="#363636"/>
<path d="M145.898 54.0811C145.898 54.9726 145.184 55.6857 144.293 55.6857C143.402 55.6857 142.688 54.9726 142.688 54.0811C142.688 53.1897 143.402 52.4766 144.293 52.4766C145.184 52.4766 145.898 53.1897 145.898 54.0811Z" fill="black"/>
<path d="M243.598 57.6465H44.9873V181.258H243.598V57.6465Z" fill="#F5F5F5"/>
<path d="M243.598 57.6465H44.9873V68.9973H243.598V57.6465Z" fill="#696969"/>
<path d="M83.3197 60.3799H78.0305C77.8523 60.3799 77.7334 60.4987 77.7334 60.677V65.9662C77.7334 66.1445 77.8523 66.2633 78.0305 66.2633H80.8831V63.9456H80.1105V63.0542H80.8831V62.4005C80.8831 61.6279 81.3585 61.2119 82.0123 61.2119C82.3094 61.2119 82.6065 61.2119 82.7254 61.2713V62.0439H82.25C81.8934 62.0439 81.834 62.2222 81.834 62.4599V63.0542H82.7254L82.6065 63.9456H81.834V66.2633H83.3197C83.498 66.2633 83.6168 66.1445 83.6168 65.9662V60.677C83.6168 60.5582 83.498 60.3799 83.3197 60.3799Z" fill="#F5F5F5"/>
<path d="M161.229 61.2119H90.5684V65.253H161.229V61.2119Z" fill="#F5F5F5"/>
<path d="M108.932 78.9219H77.7324V110.122H108.932V78.9219Z" fill="#C5C5C5"/>
<path d="M173.59 82.8438H114.875V88.3706H173.59V82.8438Z" fill="#C5C5C5"/>
<path d="M173.591 91.7588H114.876V97.2856H173.591V91.7588Z" fill="#C5C5C5"/>
<path d="M173.591 100.673H114.876V106.2H173.591V100.673Z" fill="#C5C5C5"/>
<path d="M108.932 120.521H77.7324V151.721H108.932V120.521Z" fill="#C5C5C5"/>
<path d="M173.59 124.443H114.875V129.97H173.59V124.443Z" fill="#C5C5C5"/>
<path d="M173.591 133.357H114.876V138.884H173.591V133.357Z" fill="#C5C5C5"/>
<path d="M173.591 142.271H114.876V147.798H173.591V142.271Z" fill="#C5C5C5"/>
<path d="M252.392 214.3H206.632C202.235 214.3 198.669 210.734 198.669 206.336V114.163C198.669 109.765 202.235 106.199 206.632 106.199H252.392C256.79 106.199 260.356 109.765 260.356 114.163V206.396C260.356 210.734 256.79 214.3 252.392 214.3Z" fill="#444444"/>
<mask id="mask0" mask-type="alpha" maskUnits="userSpaceOnUse" x="201" y="109" width="57" height="103">
<path d="M252.629 211.15H206.394C203.72 211.15 201.58 209.01 201.58 206.336V114.222C201.58 111.548 203.72 109.408 206.394 109.408H252.629C255.304 109.408 257.443 111.548 257.443 114.222V206.336C257.443 208.951 255.244 211.15 252.629 211.15Z" fill="#F5F5F5"/>
</mask>
<g mask="url(#mask0)">
<path d="M252.629 211.15H206.394C203.72 211.15 201.58 209.01 201.58 206.336V114.222C201.58 111.548 203.72 109.408 206.394 109.408H252.629C255.304 109.408 257.443 111.548 257.443 114.222V206.336C257.443 208.951 255.244 211.15 252.629 211.15Z" fill="#F5F5F5"/>
<path d="M265.584 103.703H194.448V120.581H265.584V103.703Z" fill="#696969"/>
</g>
<path d="M209.305 114.044H205.085C204.967 114.044 204.848 114.163 204.848 114.282V118.501C204.848 118.62 204.967 118.739 205.085 118.739H207.344V116.897H206.749V116.183H207.344V115.649C207.344 115.054 207.7 114.698 208.295 114.698C208.532 114.698 208.77 114.698 208.829 114.698V115.351H208.473C208.176 115.351 208.116 115.47 208.116 115.708V116.183H208.829L208.711 116.897H208.116V118.739H209.305C209.424 118.739 209.543 118.62 209.543 118.501V114.282C209.543 114.163 209.424 114.044 209.305 114.044Z" fill="#F5F5F5"/>
<path d="M255.125 114.697H215.13V117.966H255.125V114.697Z" fill="#F5F5F5"/>
<path d="M221.13 126.583H204.787V142.926H221.13V126.583Z" fill="#C5C5C5"/>
<path d="M255.066 128.604H224.282V131.516H255.066V128.604Z" fill="#C5C5C5"/>
<path d="M255.066 133.299H224.282V136.211H255.066V133.299Z" fill="#C5C5C5"/>
<path d="M255.066 137.993H224.282V140.905H255.066V137.993Z" fill="#C5C5C5"/>
<path d="M221.13 147.858H204.787V164.201H221.13V147.858Z" fill="#C5C5C5"/>
<path d="M255.066 149.879H224.282V152.791H255.066V149.879Z" fill="#C5C5C5"/>
<path d="M255.066 154.574H224.282V157.486H255.066V154.574Z" fill="#C5C5C5"/>
<path d="M255.066 159.209H224.282V162.121H255.066V159.209Z" fill="#C5C5C5"/>
<path d="M221.13 169.074H204.787V185.417H221.13V169.074Z" fill="#C5C5C5"/>
<path d="M255.066 171.154H224.282V174.066H255.066V171.154Z" fill="#C5C5C5"/>
<path d="M255.066 175.85H224.282V178.762H255.066V175.85Z" fill="#C5C5C5"/>
<path d="M255.066 180.484H224.282V183.396H255.066V180.484Z" fill="#C5C5C5"/>
<path d="M236.406 113.034H222.559C220.42 113.034 218.577 111.607 218.042 109.527L217.389 107.031H241.517L240.863 109.527C240.388 111.607 238.545 113.034 236.406 113.034Z" fill="#444444"/>
<path d="M224.045 109.408C224.045 110.062 223.511 110.538 222.916 110.538C222.263 110.538 221.787 110.003 221.787 109.408C221.787 108.755 222.322 108.279 222.916 108.279C223.511 108.279 224.045 108.814 224.045 109.408Z" fill="black"/>
<path d="M236.288 110.359H227.374C226.839 110.359 226.423 109.943 226.423 109.408C226.423 108.873 226.839 108.457 227.374 108.457H236.288C236.823 108.457 237.239 108.873 237.239 109.408C237.239 109.943 236.823 110.359 236.288 110.359Z" fill="black"/>
<path d="M274.738 78.4455L253.997 103.049L262.911 72.1461C263.981 68.5209 267.725 66.4409 271.35 67.4512C274.975 68.5209 277.055 72.2649 276.045 75.8901C275.807 76.8409 275.332 77.7323 274.738 78.4455Z" fill="white"/>
<path d="M283.949 73.9286C283.949 82.308 277.115 89.1423 268.735 89.1423C260.356 89.1423 253.521 82.308 253.521 73.9286C253.521 65.5491 260.356 58.7148 268.735 58.7148C277.174 58.7148 283.949 65.5491 283.949 73.9286Z" fill="white"/>
<path d="M278.116 83.2468C283.269 78.0946 283.269 69.7413 278.117 64.5891C272.964 59.4369 264.611 59.4369 259.459 64.5891C254.307 69.7413 254.307 78.0946 259.459 83.2468C264.611 88.399 272.964 88.399 278.116 83.2468Z" fill="#D02E1B"/>
<path d="M277.353 71.2546C277.353 70.7791 277.056 66.6191 273.075 66.6191C269.093 66.6191 268.736 69.7094 268.736 69.7094C268.736 69.7094 268.38 66.6191 264.398 66.6191C260.416 66.6191 260.119 70.7791 260.119 71.2546C260.119 75.89 265.765 80.05 268.736 81.714C271.767 80.1094 277.353 75.89 277.353 71.2546Z" fill="white"/>
<path d="M56.7555 32.924L56.5178 65.0749L43.6813 35.5983C42.1955 32.1515 43.7407 28.1103 47.247 26.6246C50.6938 25.1389 54.735 26.684 56.2207 30.1903C56.5773 31.0223 56.7555 32.0326 56.7555 32.924Z" fill="white"/>
<path d="M64.362 32.9247C64.362 41.3041 57.5277 48.1384 49.1483 48.1384C40.7689 48.1384 33.9346 41.3041 33.9346 32.9247C33.9346 24.5452 40.7689 17.7109 49.1483 17.7109C57.5277 17.7109 64.362 24.5452 64.362 32.9247Z" fill="white"/>
<path d="M61.9883 35.9808C63.6627 28.8897 59.2716 21.7839 52.1805 20.1095C45.0894 18.4351 37.9835 22.8262 36.3091 29.9173C34.6347 37.0084 39.0258 44.1142 46.1169 45.7886C53.208 47.463 60.3138 43.0719 61.9883 35.9808Z" fill="#D02E1B"/>
<path d="M57.7665 30.3093C57.7665 29.8338 57.4694 25.6738 53.4877 25.6738C49.5059 25.6738 49.1494 28.7641 49.1494 28.7641C49.1494 28.7641 48.7928 25.6738 44.8111 25.6738C40.8294 25.6738 40.5322 29.8338 40.5322 30.3093C40.5322 34.9447 46.1779 39.1047 49.1494 40.7687C52.1208 39.1047 57.7665 34.8853 57.7665 30.3093Z" fill="white"/>
<path d="M179.656 137.754L212.223 174.838L168.364 154.454C163.075 152.314 160.579 146.312 162.659 141.082C164.799 135.793 170.801 133.297 176.031 135.377C177.457 135.912 178.705 136.744 179.656 137.754Z" fill="white"/>
<path d="M193.86 143.994C193.86 156.593 183.638 166.874 170.98 166.874C158.381 166.874 148.1 156.653 148.1 143.994C148.1 131.395 158.321 121.114 170.98 121.114C183.638 121.114 193.86 131.336 193.86 143.994Z" fill="white"/>
<path d="M190.367 148.549C192.886 137.88 186.279 127.189 175.611 124.67C164.942 122.151 154.251 128.757 151.732 139.426C149.213 150.095 155.819 160.785 166.488 163.304C177.157 165.824 187.847 159.217 190.367 148.549Z" fill="#D02E1B"/>
<path d="M183.934 140.013C183.934 139.359 183.458 133.06 177.515 133.06C171.513 133.06 171.038 137.695 171.038 137.695C171.038 137.695 170.503 133.06 164.56 133.06C158.558 133.06 158.142 139.3 158.142 140.013C158.142 146.966 166.58 153.265 171.038 155.761C175.495 153.265 183.934 146.906 183.934 140.013Z" fill="white"/>
<path d="M125.274 51.7631L97.6396 84.5083L109.525 43.3243C110.892 38.5106 116.003 35.7174 120.817 37.0843C125.631 38.4511 128.424 43.562 127.057 48.3757C126.7 49.6237 126.047 50.8123 125.274 51.7631Z" fill="white"/>
<path d="M137.217 45.523C137.217 56.6955 128.124 65.7881 116.952 65.7881C105.779 65.7881 96.6865 56.6955 96.6865 45.523C96.6865 34.3504 105.779 25.2578 116.952 25.2578C128.184 25.2578 137.217 34.3504 137.217 45.523Z" fill="white"/>
<path d="M134.542 45.5225C134.542 55.2688 126.638 63.1134 116.951 63.1134C107.205 63.1134 99.3604 55.2094 99.3604 45.5225C99.3604 35.7762 107.264 27.9316 116.951 27.9316C126.697 27.9316 134.542 35.7762 134.542 45.5225Z" fill="#FFD876"/>
<path d="M134.542 45.5225C134.542 55.2688 126.638 63.1134 116.951 63.1134C107.205 63.1134 99.3604 55.2094 99.3604 45.5225C99.3604 35.7762 107.264 27.9316 116.951 27.9316C126.697 27.9316 134.542 35.7762 134.542 45.5225Z" fill="#D02E1B"/>
<path d="M127.707 45.9393C127.707 44.8696 127.35 44.5724 126.934 44.2753C127.172 43.9187 127.35 43.3838 127.35 42.7301C127.35 41.3633 126.34 40.5313 124.617 40.5313H120.278C120.397 39.8181 120.576 38.4513 120.576 37.7381C120.576 36.3118 120.219 34.5884 118.971 33.8753C118.614 33.697 118.258 33.5781 117.782 33.5781C117.01 33.5781 116.534 33.8753 116.356 34.0536C116.237 34.1724 116.178 34.3507 116.178 34.4696L116.297 37.3816C116.297 39.521 112.969 42.3736 112.969 44.513V51.585C112.969 52.7141 114.573 53.4867 116.832 53.4867H123.012C124.141 53.4867 124.914 53.1301 125.33 52.3576C125.686 51.6444 125.627 50.9907 125.508 50.5153C126.102 50.337 126.697 49.8616 126.875 48.9701C126.994 48.4353 126.875 47.9598 126.697 47.6033C127.232 47.425 127.707 47.009 127.707 45.9393Z" fill="white"/>
<path d="M110.652 43.1455H107.562C106.968 43.1455 106.492 43.6209 106.492 44.2152V53.8427C106.492 54.4369 106.968 54.9124 107.562 54.9124H110.652C111.246 54.9124 111.722 54.4369 111.722 53.8427V44.2152C111.722 43.6209 111.246 43.1455 110.652 43.1455Z" fill="white"/>
<path d="M33.8753 123.433L73.5142 138.885L31.0227 141.024C25.9713 141.262 21.6925 137.399 21.4547 132.407C21.217 127.356 25.0799 123.077 30.0719 122.839C31.4387 122.78 32.7462 123.017 33.8753 123.433Z" fill="white"/>
<path d="M52.3008 130.209C52.3008 141.381 43.2082 150.474 32.0357 150.474C20.8631 150.474 11.7705 141.441 11.7705 130.209C11.7705 119.036 20.8631 109.943 32.0357 109.943C43.2082 109.943 52.3008 119.036 52.3008 130.209Z" fill="white"/>
<path d="M49.626 130.208C49.626 139.954 41.7221 147.799 32.0352 147.799C22.2889 147.799 14.4443 139.895 14.4443 130.208C14.4443 120.521 22.3483 112.617 32.0352 112.617C41.7815 112.617 49.626 120.521 49.626 130.208Z" fill="#FFD876"/>
<path d="M49.626 130.208C49.626 139.954 41.7221 147.799 32.0352 147.799C22.2889 147.799 14.4443 139.895 14.4443 130.208C14.4443 120.521 22.3483 112.617 32.0352 112.617C41.7815 112.617 49.626 120.521 49.626 130.208Z" fill="#D02E1B"/>
<path d="M42.791 130.625C42.791 129.555 42.4344 129.258 42.0184 128.961C42.2562 128.604 42.4345 128.069 42.4345 127.416C42.4345 126.049 41.4242 125.217 39.7007 125.217H35.3625C35.4813 124.504 35.6596 123.137 35.6596 122.424C35.6596 120.997 35.303 119.274 34.055 118.561C33.6985 118.383 33.3419 118.264 32.8665 118.264C32.0939 118.264 31.6185 118.561 31.4402 118.739C31.3213 118.858 31.2619 119.036 31.2619 119.155L31.3807 122.067C31.3807 124.207 28.0527 127.059 28.0527 129.199V136.271C28.0527 137.4 29.6573 138.172 31.9156 138.172H38.0962C39.2253 138.172 39.9979 137.816 40.4139 137.043C40.7705 136.33 40.711 135.676 40.5922 135.201C41.1865 135.023 41.7807 134.547 41.959 133.656C42.0779 133.121 41.959 132.645 41.7807 132.289C42.3156 132.17 42.791 131.695 42.791 130.625Z" fill="white"/>
<path d="M25.7362 127.831H22.6459C22.0516 127.831 21.5762 128.306 21.5762 128.901V138.528C21.5762 139.122 22.0516 139.598 22.6459 139.598H25.7362C26.3305 139.598 26.8059 139.122 26.8059 138.528V128.901C26.8059 128.306 26.3305 127.831 25.7362 127.831Z" fill="white"/>
<path d="M204.258 32.6859L203.723 75.2367L186.786 36.1922C184.766 31.5567 186.905 26.2082 191.541 24.1876C196.176 22.167 201.525 24.3065 203.545 28.9419C204.021 30.1305 204.258 31.4379 204.258 32.6859Z" fill="white"/>
<path d="M214.953 33.9341C214.953 45.1067 205.861 54.1992 194.688 54.1992C183.515 54.1992 174.423 45.1067 174.423 33.9341C174.423 22.7615 183.515 13.6689 194.688 13.6689C205.861 13.6689 214.953 22.7615 214.953 33.9341Z" fill="white"/>
<path d="M212.279 33.9336C212.279 43.6799 204.375 51.5245 194.688 51.5245C185.002 51.5245 177.098 43.6205 177.098 33.9336C177.098 24.1873 185.002 16.3428 194.688 16.3428C204.375 16.3428 212.279 24.1873 212.279 33.9336Z" fill="#FFD876"/>
<path d="M212.279 33.9336C212.279 43.6799 204.375 51.5245 194.688 51.5245C185.002 51.5245 177.098 43.6205 177.098 33.9336C177.098 24.1873 185.002 16.3428 194.688 16.3428C204.375 16.3428 212.279 24.1873 212.279 33.9336Z" fill="#D02E1B"/>
<path d="M205.444 34.3494C205.444 33.2797 205.088 32.9826 204.672 32.6854C204.909 32.3289 205.088 31.794 205.088 31.1403C205.088 29.7734 204.077 28.9414 202.354 28.9414H198.016C198.135 28.2283 198.313 26.8614 198.313 26.1483C198.313 24.722 197.956 22.9986 196.708 22.2854C196.352 22.1071 195.995 21.9883 195.52 21.9883C194.747 21.9883 194.272 22.2854 194.093 22.4637C193.975 22.5826 193.915 22.7609 193.915 22.8797L194.034 25.7917C194.034 27.9311 190.706 30.7837 190.706 32.9231V39.9951C190.706 41.1243 192.37 41.8969 194.569 41.8969H200.749C201.879 41.8969 202.651 41.5403 203.067 40.7677C203.424 40.0546 203.364 39.4009 203.245 38.9254C203.84 38.7471 204.434 38.2717 204.612 37.3803C204.731 36.8454 204.612 36.37 204.434 36.0134C204.909 35.8351 205.444 35.4191 205.444 34.3494Z" fill="white"/>
<path d="M188.389 31.5566H185.299C184.705 31.5566 184.229 32.0321 184.229 32.6264V42.2538C184.229 42.8481 184.705 43.3235 185.299 43.3235H188.389C188.984 43.3235 189.459 42.8481 189.459 42.2538V32.6264C189.459 32.0321 188.924 31.5566 188.389 31.5566Z" fill="white"/>
<path d="M64.2418 213.884L89.3801 175.374L82.2487 220.777C81.4167 226.126 76.3652 229.811 71.0167 228.979C65.6681 228.147 61.9835 223.095 62.8155 217.747C62.9938 216.32 63.5287 214.953 64.2418 213.884Z" fill="white"/>
<path d="M94.6112 216.618C94.6112 228.741 84.8055 238.547 72.6821 238.547C60.5586 238.547 50.7529 228.741 50.7529 216.618C50.7529 204.494 60.5586 194.688 72.6821 194.688C84.8055 194.688 94.6112 204.494 94.6112 216.618Z" fill="white"/>
<path d="M91.7589 216.618C91.7589 227.137 83.2606 235.635 72.7418 235.635C62.2229 235.635 53.7246 227.137 53.7246 216.618C53.7246 206.099 62.2229 197.601 72.7418 197.601C83.2606 197.601 91.7589 206.099 91.7589 216.618Z" fill="#FFD876"/>
<path d="M91.7589 216.618C91.7589 227.137 83.2606 235.635 72.7418 235.635C62.2229 235.635 53.7246 227.137 53.7246 216.618C53.7246 206.099 62.2229 197.601 72.7418 197.601C83.2606 197.601 91.7589 206.099 91.7589 216.618Z" fill="#D02E1B"/>
<path d="M84.3292 217.034C84.3292 215.845 83.9132 215.548 83.4972 215.191C83.7349 214.775 83.9726 214.241 83.9726 213.527C83.9726 212.101 82.8435 211.21 81.0606 211.21H76.4252C76.544 210.437 76.7223 208.951 76.7223 208.238C76.7223 206.693 76.3658 204.791 74.9395 204.078C74.5235 203.841 74.1669 203.722 73.6321 203.722C72.8001 203.722 72.2652 204.078 72.0869 204.257C71.9681 204.375 71.9086 204.554 71.9086 204.732L72.0275 207.882C72.0275 210.199 68.4023 213.29 68.4023 215.607V223.274C68.4023 224.522 70.1852 225.354 72.5623 225.354H79.2183C80.4663 225.354 81.2389 224.938 81.7143 224.106C82.1303 223.333 82.0709 222.62 81.8926 222.145C82.5463 221.907 83.2001 221.431 83.3783 220.481C83.4972 219.886 83.3783 219.351 83.1406 218.995C83.7943 218.698 84.3292 218.222 84.3292 217.034Z" fill="white"/>
<path d="M65.8468 214.062H62.5188C61.8651 214.062 61.3896 214.596 61.3896 215.191V225.591C61.3896 226.244 61.9245 226.72 62.5188 226.72H65.8468C66.5005 226.72 66.9759 226.185 66.9759 225.591V215.191C67.0354 214.537 66.5005 214.062 65.8468 214.062Z" fill="white"/>
</svg>
