<?xml version="1.0" encoding="utf-8"?>
<!-- Generator: Adobe Illustrator 24.0.0, SVG Export Plug-In . SVG Version: 6.00 Build 0)  -->
<svg version="1.1" id="Layer_1" xmlns="http://www.w3.org/2000/svg" xmlns:xlink="http://www.w3.org/1999/xlink" x="0px" y="0px"
	 viewBox="0 0 762 570" style="enable-background:new 0 0 762 570;" xml:space="preserve">
<style type="text/css">
	.st0{fill:none;stroke:#C8DBFB;stroke-linecap:round;stroke-linejoin:round;}
	.st1{fill:none;stroke:#D9D9D9;stroke-linecap:round;stroke-linejoin:round;stroke-dasharray:3.99,3.99;}
	.st2{fill:#8A8A8A;}
	.st3{fill:none;stroke:#3D3D3D;stroke-linecap:round;stroke-linejoin:round;stroke-miterlimit:10;stroke-dasharray:4,4;}
	.st4{fill:none;stroke:#D9D9D9;stroke-linecap:round;stroke-linejoin:round;stroke-miterlimit:10;stroke-dasharray:4,4;}
	.st5{display:none;}
	.st6{display:inline;fill:#D9D9D9;}
	.st7{display:inline;opacity:0.2;fill:#707070;enable-background:new    ;}
	.st8{display:inline;fill:#FFFFFF;}
	.st9{display:inline;fill:#4D4D4D;}
	.st10{display:inline;fill:#D02E1B;}
	.st11{display:inline;fill:#1F1F1F;}
	.st12{display:inline;opacity:0.2;fill:#050505;enable-background:new    ;}
	.st13{display:inline;fill:#9A9A9A;}
	.st14{display:inline;fill:#CCCCCC;}
	.st15{display:inline;fill:#3D3D3D;}
	.st16{display:inline;fill:#595959;}
	.st17{display:inline;fill:#009790;}
	.st18{display:inline;opacity:0.2;fill:#5E5E5E;enable-background:new    ;}
	.st19{display:inline;fill:#696969;}
	.st20{display:inline;fill:#0056EC;}
	.st21{display:inline;fill:#575757;}
	.st22{display:inline;fill:#8A8A8A;}
	.st23{fill:#3D3D3D;}
	.st24{fill:#4D4D4D;}
</style>
<path class="st0" d="M734.5,132.4c-0.2-1.2-0.3-2.2-0.7-3.4"/>
<path class="st1" d="M732.3,122.4c-11.7-39.9-49.1-36-82.7-36c-36.3,0-598.3,1.2-598.3,1.2c-56.5,0.2-51.1,81.6-6.8,81.6
	c25.5,0,35.1,47.7-8.8,47.9c-26.3,0-27.2,33.4-9.5,40.2"/>
<path class="st0" d="M29.4,258.2c1,0.2,2.2,0.3,3.4,0.3"/>
<path class="st2" d="M39.6,256.8c0.7,4.4-2.2,8.7-6.6,9.3c-4.4,0.7-8.7-2.2-9.3-6.6c-0.7-4.4,2.2-8.7,6.6-9.3
	C34.7,249.5,38.9,252.4,39.6,256.8z"/>
<path class="st2" d="M742.5,136c-0.8,4.4-5.1,7.3-9.5,6.6c-4.4-0.8-7.3-5.1-6.6-9.5c0.8-4.4,5.1-7.3,9.5-6.6
	C740.4,127.3,743.3,131.6,742.5,136z"/>
<path class="st3" d="M595,226.9l137.3-0.3c16.1,0,29.2,13.1,29.2,29.2c0,16.1-13.1,29.2-29.2,29.2l-93.9,0.2"/>
<path class="st3" d="M179.4,327.8l-96.1,0.2c-9.2,0-16.5,7.5-16.5,16.5c0,9.2,7.5,16.5,16.5,16.5h28"/>
<path class="st4" d="M26.2,402.1c-32.9,0-33.6,49.1,8.3,49.1c41.9-0.2,590.9-1.2,616.8-1.2c26,0,28.7-40.4-3.4-40.4
	c-63.7,0.2-65.9-30.2-30.4-30.4"/>
<path class="st2" d="M34,400.8c0.7,4.4-2.2,8.7-6.6,9.3c-4.4,0.7-8.7-2.2-9.3-6.6c-0.7-4.4,2.2-8.7,6.6-9.3
	C28.9,393.5,33.1,396.4,34,400.8z"/>
<path class="st2" d="M633.2,379.4c0.7,4.4-2.2,8.7-6.6,9.3c-4.4,0.7-8.7-2.2-9.3-6.6c-0.7-4.4,2.2-8.7,6.6-9.3
	C628.3,372.1,632.5,375,633.2,379.4z"/>
<g class="st5">
	<path class="st6" d="M258.9,570c36.2,0,65.5-2.7,65.5-6.1s-29.3-6.1-65.5-6.1c-36.2,0-65.5,2.7-65.5,6.1S222.7,570,258.9,570z"/>
	<path class="st6" d="M596,570c36.2,0,65.5-2.7,65.5-6.1s-29.3-6.1-65.5-6.1c-36.2,0-65.5,2.7-65.5,6.1S559.8,570,596,570z"/>
	<path class="st7" d="M642.2,521.3l-510.8,1c-6.8,0-12.4-5.4-12.4-12.4l-0.7-338.3c0-6.8,5.4-12.4,12.4-12.4l510.8-1
		c6.8,0,12.4,5.4,12.4,12.4l0.7,338.3C654.4,515.7,649,521.3,642.2,521.3z"/>
	<path class="st8" d="M632.2,514.8l-510.8,1c-6.8,0-12.4-5.4-12.4-12.4l-0.7-338.3c0-6.8,5.4-12.4,12.4-12.4l510.8-1
		c6.8,0,12.4,5.4,12.4,12.4l0.7,338.3C644.4,509.2,638.9,514.8,632.2,514.8z"/>
	<path class="st9" d="M630.5,151.8l-508.6,1c-7.5,0-13.4,6.1-13.4,13.4v11.7l535.4-1.2V165C644,157.9,637.9,151.8,630.5,151.8z"/>
	<path class="st6" d="M122.6,515.9l76.9-0.2l-0.7-338l-90.3,0.2l0.7,324.6C109.2,509.9,115.1,515.9,122.6,515.9z"/>
	<path class="st9" d="M631.5,155.1c4.9,0,9,4.1,9,9l0.7,338.3c0,4.9-4.1,9-9,9l-510.8,1c-4.9,0-9-4.1-9-9l-0.7-338.3
		c0-2.4,0.8-4.6,2.5-6.3c1.7-1.7,3.9-2.5,6.3-2.7L631.5,155.1z M631.5,151.8l-510.8,1c-6.8,0-12.4,5.6-12.4,12.4l0.7,338.3
		c0,6.8,5.6,12.4,12.4,12.4l510.8-1c6.8,0,12.4-5.6,12.4-12.4l-0.7-338.3C643.9,157.4,638.3,151.8,631.5,151.8z"/>
	<path class="st8" d="M186.4,490l-59.2,0.2c-2.5,0-4.8-2-4.8-4.8V485c0-2.5,2-4.8,4.8-4.8l59.2-0.2c2.5,0,4.8,2,4.8,4.8v0.5
		C191.2,488,189.1,490,186.4,490z"/>
	<path class="st8" d="M179.3,260.7l-50.4,0.2c-4.8,0-8.7-3.9-8.7-8.7l-0.2-50.4c0-4.8,3.9-8.7,8.7-8.7l50.4-0.2
		c4.8,0,8.7,3.9,8.7,8.7l0.2,50.4C187.9,257,184.2,260.7,179.3,260.7z"/>
	<path class="st6" d="M395.2,411.8l-175.7,0.3c-3.4,0-6.1-2.7-6.1-6.1v-0.8c0-3.4,2.7-6.1,6.1-6.1l175.7-0.3c3.4,0,6.1,2.7,6.1,6.1
		v0.8C401.3,409.1,398.6,411.8,395.2,411.8z"/>
	<path class="st6" d="M385,211.7L246.2,212c-3.4,0-6.1-2.7-6.1-6.1v-0.8c0-3.4,2.7-6.1,6.1-6.1l138.9-0.3c3.4,0,6.1,2.7,6.1,6.1v0.8
		C391.1,209,388.4,211.7,385,211.7z"/>
	<path class="st6" d="M604.5,352l-185,0.3c-3.4,0-6.1-2.7-6.1-6.1v-0.8c0-3.4,2.7-6.1,6.1-6.1l185-0.3c3.4,0,6.1,2.7,6.1,6.1v0.8
		C610.6,349.3,607.9,352,604.5,352z"/>
	<path class="st6" d="M395.2,439l-175.7,0.3c-3.4,0-6.1-2.7-6.1-6.1v-0.8c0-3.4,2.7-6.1,6.1-6.1l175.7-0.3c3.4,0,6.1,2.7,6.1,6.1
		v0.8C401.5,436.2,398.6,439,395.2,439z"/>
	<path class="st6" d="M395.2,466.1l-175.7,0.3c-3.4,0-6.1-2.7-6.1-6.1v-0.8c0-3.4,2.7-6.1,6.1-6.1l175.7-0.3c3.4,0,6.1,2.7,6.1,6.1
		v0.8C401.5,463.2,398.8,466.1,395.2,466.1z"/>
	<path class="st10" d="M600.8,483.8l-177,0.3c-5.6,0-10.2-4.6-10.2-10.2l-0.2-76c0-5.6,4.6-10.2,10.2-10.2l177-0.3
		c5.6,0,10.2,4.6,10.2,10.2l0.2,76C610.9,479.2,606.4,483.8,600.8,483.8z"/>
	<path class="st10" d="M137.9,165.2c0,2.4-1.9,4.4-4.2,4.4c-2.4,0-4.4-1.9-4.4-4.2c0-2.4,1.9-4.4,4.2-4.4
		C135.8,160.9,137.9,162.8,137.9,165.2z"/>
	<path class="st6" d="M151.9,168.9c2.3,0,4.2-1.9,4.2-4.2c0-2.3-1.9-4.2-4.2-4.2c-2.3,0-4.2,1.9-4.2,4.2
		C147.7,167,149.6,168.9,151.9,168.9z"/>
	<path class="st6" d="M174.5,165.2c0,2.4-1.9,4.4-4.2,4.4c-2.4,0-4.4-1.9-4.4-4.2c0-2.4,1.9-4.4,4.2-4.4
		C172.7,160.7,174.5,162.6,174.5,165.2z"/>
	<path class="st6" d="M233.3,206.8c0.7-6.9-4.3-13.1-11.2-13.8c-6.9-0.7-13.1,4.3-13.8,11.2s4.3,13.1,11.2,13.8
		C226.5,218.8,232.6,213.7,233.3,206.8z"/>
	<path class="st8" d="M182.8,271.4l-55.3,0.2c-1.4,0-2.4-1-2.4-2.4v-0.3c0-1.4,1-2.4,2.4-2.4l55.3-0.2c1.4,0,2.4,1,2.4,2.4v0.3
		C185.2,270.4,184.2,271.4,182.8,271.4z"/>
	<path class="st8" d="M182.8,281.9l-55.3,0.2c-1.4,0-2.4-1-2.4-2.4v-0.3c0-1.4,1-2.4,2.4-2.4l55.3-0.2c1.4,0,2.4,1,2.4,2.4v0.3
		C185.2,280.9,184.2,281.9,182.8,281.9z"/>
	<path class="st10" d="M246.3,304.4l-15.6,0.2l0.2,65.7h-13.6c-4.8,0-8.7-3.9-8.7-8.7l-0.3-121.4c0-4.8,3.9-8.7,8.7-8.8h29
		L246.3,304.4z"/>
	<path class="st10" d="M348,231.2v1.7c4.8,0,8.5,3.7,8.5,8.5l0.2,118.3c0,4.8-3.7,8.5-8.5,8.5l-129.5,0.3c-4.8,0-8.5-3.7-8.5-8.5
		L210,241.7c0-4.8,3.7-8.5,8.5-8.5l129.5-0.3V231.2z M348,231.2l-129.5,0.3c-5.6,0-10.2,4.6-10.2,10.2l0.2,118.3
		c0,5.6,4.6,10.2,10.2,10.2l129.5-0.3c5.6,0,10.2-4.6,10.2-10.2l-0.2-118.3C358.2,235.6,353.6,231.2,348,231.2z"/>
	<path class="st10" d="M564.1,328.6l-172.6-39c-5.4-1.2-9-6.8-7.6-12.2l19.4-85.9c1.2-5.4,6.8-9,12.2-7.6l172.6,39
		c5.4,1.2,9,6.8,7.6,12.2L576.3,321C575.1,326.4,569.7,329.8,564.1,328.6z"/>
	<path class="st9" d="M230,562.4h-24.3l-5.9-30.7l36-0.2L230,562.4z"/>
	<path class="st10" d="M206.6,531.5c0,2.5-0.5,6.8,1.2,6.8c1.7,0,1-4.1,2.9-3.9c1.2,0-0.5,13.4,4.1,13.8c3.2,0.2,2.5-6.5,2.9-10.7
		c0.2-2.9,3.9-2.4,3.9-0.3c0,2-0.2,3.6,0,5.9c0.2,4.1,6.3,2.9,6.1-2.4c-0.2-5.3,0-9,0-9L206.6,531.5z"/>
	<path class="st11" d="M200.8,550.1c-0.5,0-1,0-1.4-0.2c-1.7-0.3-3.1-1.4-3.7-2.7c-2.5-5.3,4.1-14.9,4.2-15.4l0.3,1.7
		c0,0.2-5.8,8.5-3.6,13.2c0.5,1.2,1.5,1.9,2.9,2c0.3,0,0.8,0.2,1.2,0.2c8.7,0,23.6-16.3,23.8-16.5c0.7-0.7,1.7,0,1.4,0.5
		C225.3,533.8,210.2,550.1,200.8,550.1z"/>
	<path class="st12" d="M454.6,129.2c-34.3-1.4-81.6,24.1-64.8,86.2c-0.3,5.3,2.7,9,6.1,8c3.4-1,0.3-11,0.3-11
		c5.8-46.2,16.5-54.1,34.6-54l42.6-0.2c10.5,1.5,29.7,9,32.6,45.8l10.5,2C517.4,179.4,511,131.4,454.6,129.2z"/>
	<path class="st13" d="M454.6,123.7c-34.3-1.4-81.6,24.1-64.8,86.2l6.5-3.1c5.8-46.2,16.5-54.1,34.6-54l42.6-0.2
		c10.5,1.5,30.2,10.9,33.1,47.9h10C517.4,174,511,125.9,454.6,123.7z"/>
	<path class="st14" d="M473.9,115.4c-5.8,10.4-8.3,13.4-16,14.9c-9.8,2-20.9-4.6-15.8-21c4.2-13.4,10.5-11.4,16.8-10.9
		C465.1,99.1,480.2,104.4,473.9,115.4z"/>
	<path class="st11" d="M450.7,107.3c-1.5-0.8-3.6-0.2-4.8,1.2c-1.2,1.4-1.9,3.2-1.4,4.9c-2.4,0-4.4,2.4-4.2,4.8
		c-1.7-3.7-0.7-7.8-1-11.5c-0.3-3.9,0.2-8.1,2.5-11c1-1.2,2.4-2.2,3.7-2.9c5.4-2.9,12.1-2.9,17.5-0.2c1.2,0.5,3.9,2.4,7.8,1.4
		c7.5-1.9,11.9,3.2,7.3,8c1.5,0.5,3.1,1.2,3.7,2.5c0.2,0.3,0.2,0.8,0,1.2c-0.2,0.2-0.5,0.3-0.7,0.5c-1.2,0.5-2.7,0.5-3.9,0.3
		c0.5,0.5,3.2,0.7,4.1,2.2c2.2,4.2-6.6,2.2-8,1.7c1.5,0.3,5.6,3.6,4.2,5.8c-0.3,0.5-5.8,3.6-11.5-3.1c-1.4-1.5-3.1-3.1-4.9-3.6
		c-1.5-0.3-3.2,0.2-4.8,0.7c-1,0.3-3.9,2-4.8,1C451.4,110,452.6,108.3,450.7,107.3z"/>
	<path class="st14" d="M507.6,200.8c-1.5,5.3-3.1,5.8-1.2,6.6c1.9,0.8,3.4-2,3.4-2l8.5,1.7c0,0-1.9-5.6-3.2-6.3
		C513.7,200.1,507.6,200.8,507.6,200.8z"/>
	<path class="st14" d="M396.4,206.9c1.2,2.7,1.4,2.7,2.9,6.1c2.9,6.3-3.9,16.5-8.3,5.4c-1.2-3.1-1.2-8.5-1.2-8.5L396.4,206.9z"/>
	<path class="st11" d="M462.9,93.2c5.8,0.3,13.1-3.7,17.5,1.5c0.3,0.5,1.2-0.2,0.8-0.7c-4.4-6.3-12.4-1.5-18.5-1.7
		C462.2,92.3,462.2,93.2,462.9,93.2z"/>
	<path class="st11" d="M465.3,90c-3.9,0.7-7.8-1.2-11.9-0.5c-3.2,0.5-6.1,2.2-8.7,4.2c-0.7,0.5,0.2,1.7,0.8,1.2
		c3.4-2.2,6.8-4.2,11-3.9c3.1,0.2,5.8,1.2,8.8,0.2C466.3,91,466,90,465.3,90z"/>
	<path class="st11" d="M442.5,95.4c-2.9,1.7-4.4,4.1-4.8,7.5c-0.2,2.4-0.3,8,2,9.3c0.5,0.3,1.2-0.5,0.7-0.8
		c-1.5-1.5-1.7-5.8-1.5-7.8c0.2-3.1,1.5-5.4,3.9-7.3C443.4,95.9,443.1,95.2,442.5,95.4z"/>
	<path class="st11" d="M485.7,105.1c-1.4-2.5-5.1-4.8-8-3.1c-0.5,0.2-0.2,0.8,0.2,1c1.2,0,2.4-0.2,3.6,0.2c1.4,0.3,2.5,1.2,3.4,2.4
		C485.2,105.9,486,105.6,485.7,105.1z"/>
	<path class="st15" d="M296.7,363.9c18,6.6,33.6,27.3,30,42.3c-4.1,17-15.8,24.3-15.8,24.3l-3.7-6.8c0,0,9.3-14.6,8.5-21.6
		c-1.4-11-15.3-18.5-15.3-18.5L296.7,363.9z"/>
	<path class="st11" d="M252.4,555.2c0,0-11,4.4-13.7,7h21.9v-7H252.4z"/>
	<path class="st11" d="M300.8,554.9c0,0,3.1,3.6,3.7,7.3h-14.9c0.3-2.5,1.4-4.9,2.7-7.3H300.8z"/>
	<path class="st16" d="M301.8,555.2h-10.2c0.2-12.1-2.2-53-4.8-83.7c-1.4-18-2.7-32.4-3.6-35.3l5.4-1.2l20.5-4.6
		C312.9,446.6,304.7,520.8,301.8,555.2z"/>
	<path class="st17" d="M264.3,435.7c-8,12.6-10,103-13.4,119.8l9.7,0.5c0,0,11-57,34.8-121.4L264.3,435.7z"/>
	<path class="st18" d="M299.5,434.7c-4.8,12.7-8.8,25.1-12.6,36.8c-1.4-18-2.7-32.4-3.6-35.3l5.4-1.2L299.5,434.7z"/>
	<path class="st19" d="M264.3,435.7c-8,12.6-10,103-13.4,119.8l9.7,0.5c0,0,11-57,34.8-121.4L264.3,435.7z"/>
	<path class="st14" d="M270.3,334.6c0,0-6.1,23.6,9.3,23.6l-0.8,6.1l11.7,1.4l-2.5-8.5c0,0,2.4-14.8,2.5-17.5
		C290.6,334.6,276.7,325.7,270.3,334.6z"/>
	<path class="st11" d="M232,308.1l-4.6,0l0,19.2l4.6,0L232,308.1z"/>
	<path class="st9" d="M242.9,308.1h-26.1c-1.9,0-3.4-1.5-3.4-3.2v-0.7c0-1.9,1.5-3.4,3.4-3.4h26.1c1.9,0,3.4,1.5,3.4,3.2v0.7
		C246.2,306.6,244.6,308.1,242.9,308.1z"/>
	<path class="st14" d="M226.3,332.4c-0.2-4.4-3.7-3.2-1.7-10.4c1.2-4.4,10.4,0.7,9.2,3.7c-1.2,3.1-2.4,7.8-2.4,7.8L226.3,332.4z"/>
	<path class="st20" d="M279.8,362.7c-23.1,1.5-24.6,9.3-35,8.1c-15.3-1.9-12.6-30.2-10.7-40.4h-9.2c0,0-16.5,64.8,35.6,52.8
		c-2,11.4,11,29.9-1.5,52.4c19.9,5.4,38.2,6.6,54-0.2c-2.7-3.7,5.6-41.4-10.9-68.6C298.8,361.7,281.5,362.6,279.8,362.7z"/>
	<path class="st9" d="M279.8,362.7c-23.1,1.5-24.6,9.3-35,8.1c-15.3-1.9-12.6-30.2-10.7-40.4h-9.2c0,0-16.5,64.8,35.6,52.8
		c-2,11.4,11,29.9-1.5,52.4c19.9,5.4,38.2,6.6,54-0.2c-2.7-3.7,5.6-41.4-10.9-68.6C298.8,361.7,281.5,362.6,279.8,362.7z"/>
	<path class="st13" d="M276.5,339.1c1.5,0.3,3.2,0.7,4.1,2c0.5,0.8,0.5,1.9,0.5,2.9c0.3-1,1.4-1.7,2.5-1.7c1,0.2,2,1,2,2.2
		c0,0.5-0.2,1-0.3,1.4c-0.5,1.2-1,2.2-1.7,3.2c1.9,0.7,3.4,6.3,4.4,8c3.2-0.8,10.2-3.6,10.9-14.8c0.3-5.3-1.4-11.5-7-14.9
		c-4.1-2.5-10.7-2.5-15.3-1.4c-3.7,1-9.7,4.8-7,9C270.9,337.1,274,338.5,276.5,339.1z"/>
	<path class="st13" d="M296.4,331.8c2.2-0.7,4.9-0.3,6.1,1.5c1,1.4,0.8,3.2,1.2,4.9c0.2,0.8,0.5,1.7,1,2.2c0.7,0.7,1.9,0.8,2.9,0.8
		c2.5,0.2,5.1-0.2,7.5,0.2c2.4,0.3,4.9,1.9,5.6,4.1c0.3,1.2,0.2,2.7,0.7,3.9c0.7,1.9,2.7,2.9,4.4,4.1c3.7,2.4,6.8,5.4,9.2,9
		c1.4,2.2,2.5,4.8,2.7,7.5c0.2,2.7,2,6.1,1.5,8.8c-0.5,2.9-3.4,6.6-8.8,8.5c-9.5,3.1-12.6,4.4-21.6-1c-1-0.7-3.2-2.9-4.2-3.7
		c-0.8-0.7-1.4-1.5-1.5-2.5c-0.7-2.5,0.2-5.4,1.5-7.8c1.4-2.4,3.2-4.4,4.6-6.8c0.8-1.4,1.5-3.1,1.4-4.6c0-0.7-0.2-1.2-0.7-1.7
		c-0.3-0.3-1-0.5-1.5-0.7c-2-0.3-4.2,0-5.9-0.8c-1.7-0.8-2.7-3.1-2.2-4.8c0.3-1.2,1.4-2.2,1.5-3.6c0.3-1.9-0.7-3.6-2.4-4.8
		c-1.7-1.2-3.6-1.5-5.4-1.7c-0.8-0.2-1.9-0.3-2.7-0.8c-0.8-0.7-1.4-1.9-1.4-2.9C290.1,335.6,293,333,296.4,331.8z"/>
	<path class="st13" d="M294.7,341.4c11.4,2.5-3.1,13.2,3.1,18.5c1.7,1.5,3.7,1,5.8,1.4c7.8,1,3.6,6.3,3.1,10.5c0,0.7,1,0.7,1,0.2
		c0.7-2.9,3.2-6.3,1.9-9.3c-1.2-2.7-4.1-2.4-6.6-2.4c-3.1-0.2-6.4,0-5.3-6.1c0.2-1.4,1.4-2.7,1.9-3.9c0.7-1.5,1-2.9,0.7-4.4
		c-0.5-2.7-2.9-4.2-5.4-4.8C294.4,340.7,294.2,341.4,294.7,341.4z"/>
	<path class="st13" d="M271.1,327.4c8.8-4.4,17.7-3.6,25.1,3.1c0.5,0.5,1.2-0.2,0.7-0.7c-6.6-7.3-18.2-8.7-26.1-2.7
		C270.6,327.1,270.8,327.6,271.1,327.4z"/>
	<path class="st14" d="M567.5,355.1l-3.7,7.6l9.3,3.9l1-9L567.5,355.1z"/>
	<path class="st14" d="M573.3,330c-21.2,9.2-12.6,31.6,0.3,29c6.3-1.4,9.5-21.6,9.5-21.6L573.3,330z"/>
	<path class="st21" d="M580.2,326.9c-0.7-1.4-1.4-2.7-2.5-3.6c-1.2-0.8-2.9-1.2-4.1-0.2c-1.4,1.4-0.5,3.7,0.8,5.1
		c-1.2,0.2-2.7-0.7-3.6,0.2c-0.7,0.7-0.5,1.9,0,2.7c1,2,2.5,3.7,4.4,4.9c-1,0.7-2.4,1.9-1.7,2.9c0.2,0.3,0.5,0.5,0.7,0.8
		c0.3,0.7,0,1.5-0.3,2.2c-0.7,1.2-1.4,2.2-2.2,3.2c0.7-1,2.5-0.5,3.1,0.5c0.5,1.2,0,2.5-0.7,3.4c-0.5,0.5-1,1-1.7,1
		c-0.5,0.2-3.2,8.1-1.2,9.7c2.5,1.9,10.9,0.2,12.1-1.9c1.2,1.4,3.1,2.4,4.8,2c1.7-0.3,3.1-2.5,2.2-4.1c1.9,0.7,4.2,0,5.6-1.5
		c1.4-1.5,1.5-3.9,0.5-5.8c1-0.3,1.2-1.7,1-2.7c-0.5-2.2-2.2-3.9-4.4-4.6c1,0,1.9-1,2-2.2c0-1-0.5-2-1.2-2.9c-2-2.4-4.4-3.1-7.3-3.6
		C583.1,332.4,581.6,329.3,580.2,326.9z"/>
	<path class="st11" d="M560.4,553.9c0,0-12.4,5.9-14.1,7.8c0,0,24.4,1,26.3,0c1.9-1.2-3.9-7.8-3.9-7.8H560.4z"/>
	<path class="st11" d="M606.5,547.1c0,0-10.9,8.3-12.2,10.5c0,0,25.8-3.9,25.8-5.4c0-1.7-5.4-6.8-5.4-6.8L606.5,547.1z"/>
	<path class="st22" d="M572.4,438.8c-0.5,2.5-17.5,69.6,31.2,109.8l14.1-3.2c0,0-16.5-15.4-24.1-42.9c-7.3-26.1-1.5-28.7,2.9-43.1
		c4.9-16,1.2-27.5,1.2-27.5L572.4,438.8z"/>
	<path class="st13" d="M549.1,438.6c-7.6,18.3-20.9,81.1,8,116.4h14.4c0,0-11.4-12.4-12.6-41.2c-1.2-28.9,6.1-41.4,11.2-51.1
		c5.1-9.5,10-25.6,10-25.6L549.1,438.6z"/>
	<path class="st15" d="M539,324.4c-3.9,13.4-5.1,38.4,14.1,48.4l12.9-3.1c0,0-23.1-12.1-18.2-42.8L539,324.4z"/>
	<path class="st9" d="M503.7,317.6l10-1.2c0,0-1.2,41.8,47,45.3c36.8,2.7,39.7,71.8,39.7,71.8c-11.9,8-31.7,10.4-57.4,8.7
		c0,0,1.7-49.4-2.4-62.8C540.7,379.2,500.4,366.6,503.7,317.6z"/>
	<path class="st14" d="M491.4,310c-1.7,2,5.4,4.4,12.2,7.6l8.7-1c0,0,0.2-1.7,0-3.6c-0.2-1.9-1-2.9-2-1.4c-1,1.5-5.4,2-7.5,0.7
		C500.8,310.8,493.1,308.1,491.4,310z"/>
	<path class="st14" d="M539,324.4c-3.2-3.2-2.4-2.9-2.4-2.9l9.8,2.2c0,0,2.2-4.8,3.9-4.9c1.9-0.2-1.4,3.2-0.7,4.6
		c0.7,1.2-2,3.7-2,3.7L539,324.4z"/>
	<path class="st21" d="M585.6,331.5c2,0.5,4.1,0.7,5.8,2c1.7,1.4,2.4,3.7,1.2,5.6c-0.5,0.8,0.8,1.5,1.4,0.8c1.5-2,1.2-4.8-0.3-6.6
		c-1.7-2.2-5.1-3.1-7.8-2.7C585.3,330.7,585.1,331.3,585.6,331.5z"/>
	<path class="st21" d="M594.5,349.5c1.4,0.8,2.4,2,1.9,3.7c-0.5,1.5-2,2.4-3.2,3.2c-0.7,0.3,0,1.4,0.5,1c1.9-1,3.7-2.4,4.1-4.6
		c0.2-1.9-1-3.4-2.7-4.2C594.5,348.3,594,349.2,594.5,349.5z"/>
	<path class="st21" d="M572.2,359.7c4.6,2.7,10.9,2.4,14.6-1.5c0.5-0.5-0.2-1.4-0.7-1c-4.1,3.1-8.7,3.9-13.4,1.9
		C572.2,358.8,571.9,359.3,572.2,359.7z"/>
	<path class="st21" d="M595.2,334.4c2.5,2.4,0,5.8-1.7,8c-0.3,0.5,0.2,1,0.7,0.7c1.5-1.4,2.9-2.9,3.2-5.1c0.2-1.5-0.5-3.1-1.9-3.9
		C595.2,334.1,595,334.2,595.2,334.4z"/>
</g>
<path class="st23" d="M307.9,24.3l-3.9-9.7L342.4,0L307.9,24.3z"/>
<path class="st2" d="M310,18.3L342.4,0l-22.6,22.9L310,18.3z"/>
<path class="st2" d="M295.2,10.7L342.4,0L304,14.6L295.2,10.7z"/>
<path class="st24" d="M310,18.3l-2,5.9l5.9-4.1L310,18.3z"/>
<path class="st4" d="M303.5,23.1c-10-1.7-23.6,8.5-17.8,19c2,3.6,12.2,2,11.5-1.9c-0.3-1.9-2.7-2.7-4.6-2.5
	c-11.2,1.4-11.7,10.7-11.2,13.1c2.5,12.4,21.6,8.1,27.8,6.5"/>
</svg>
