<?xml version="1.0" encoding="utf-8"?>
<!-- Generator: Adobe Illustrator 24.0.0, SVG Export Plug-In . SVG Version: 6.00 Build 0)  -->
<svg version="1.1" id="Layer_1" xmlns="http://www.w3.org/2000/svg" xmlns:xlink="http://www.w3.org/1999/xlink" x="0px" y="0px"
	 viewBox="0 0 762 570" style="enable-background:new 0 0 762 570;" xml:space="preserve">
<style type="text/css">
	.st0{fill:none;stroke:#C8DBFB;stroke-linecap:round;stroke-linejoin:round;}
	.st1{fill:#8A8A8A;}
	.st2{fill:none;stroke:#3D3D3D;stroke-linecap:round;stroke-linejoin:round;stroke-miterlimit:10;}
	.st3{fill:#787878;}
	.st4{fill:none;stroke:#D5D5D5;stroke-linecap:round;stroke-linejoin:round;stroke-miterlimit:10;}
	.st5{fill:#4D4D4D;}
	.st6{fill:#A9A9A9;}
	.st7{fill:none;stroke:#909090;stroke-linecap:round;stroke-linejoin:round;stroke-miterlimit:10;}
	.st8{opacity:0.2;fill:#515151;enable-background:new    ;}
	.st9{opacity:0.2;fill:#414141;enable-background:new    ;}
	.st10{fill:#C6C6C6;}
	.st11{fill:none;stroke:#787878;stroke-linecap:round;stroke-linejoin:round;stroke-miterlimit:10;}
	.st12{opacity:0.2;fill:#535353;enable-background:new    ;}
	.st13{opacity:0.2;fill:#5C5C5C;enable-background:new    ;}
	.st14{fill:none;stroke:#595959;stroke-linecap:round;stroke-linejoin:round;stroke-miterlimit:10;}
	.st15{fill:none;stroke:#AFAFAF;stroke-linecap:round;stroke-linejoin:round;stroke-miterlimit:10;}
	.st16{opacity:0.2;fill:#232323;enable-background:new    ;}
	.st17{fill:#575757;}
	.st18{fill:none;stroke:#474747;stroke-linecap:round;stroke-linejoin:round;stroke-miterlimit:10;}
	.st19{opacity:0.2;fill:#4B4B4B;enable-background:new    ;}
	.st20{fill:#CCCCCC;}
	.st21{display:none;}
	.st22{display:inline;fill:#D9D9D9;}
	.st23{display:inline;opacity:0.2;fill:#707070;enable-background:new    ;}
	.st24{display:inline;fill:#FFFFFF;}
	.st25{display:inline;fill:#4D4D4D;}
	.st26{display:inline;fill:#D02E1B;}
	.st27{display:inline;fill:#1F1F1F;}
	.st28{display:inline;opacity:0.2;fill:#050505;enable-background:new    ;}
	.st29{display:inline;fill:#9A9A9A;}
	.st30{display:inline;fill:#CCCCCC;}
	.st31{display:inline;fill:#3D3D3D;}
	.st32{display:inline;fill:#595959;}
	.st33{display:inline;fill:#009790;}
	.st34{display:inline;opacity:0.2;fill:#5E5E5E;enable-background:new    ;}
	.st35{display:inline;fill:#696969;}
	.st36{display:inline;fill:#0056EC;}
	.st37{display:inline;fill:#575757;}
	.st38{display:inline;fill:#8A8A8A;}
</style>
<path class="st0" d="M734.5,132.4c-0.2-1.2-0.3-2.2-0.7-3.4"/>
<path class="st0" d="M29.4,258.2c1,0.2,2.2,0.3,3.4,0.3"/>
<path class="st1" d="M122.4,197.4c-1.2,6.6-2.9,13.1-4.9,19.4c-4.4,13.8-10.7,27-17,40.1c-3.2,6.8-16.6,22.6-23.8,25.6
	c0.8-17.8,0.8-38.5-1.2-56.5c-2-17.3,4.2-30.4-2.5-46.5c-0.8-2-1.7-4.1-2.7-6.1c-3.4-7.6-6.8-15.3-7.8-23.6
	c-1.4-10.4,1.9-22.4,10.9-27.8c6.5-3.9,14.9-3.7,21.9-0.7c7,3.1,12.6,8.7,16.8,14.9C124.1,154,126.1,176.7,122.4,197.4z"/>
<path class="st2" d="M90.8,139.9c13.2,18.8,14.4,40.6,15.6,63.7c1.2,22.9-4.4,46.2-15.8,66.2"/>
<path class="st3" d="M90.3,486c-9.3-8.1-18.7-16.6-25.6-27c-5.9-9-9.8-19.2-15.1-28.7c-3.4-6.1-7.3-12.1-9.3-18.8
	c-2-6.8-1.5-14.8,3.2-19.9c4.9-5.3,13.6-6.1,20.4-3.4c6.8,2.7,11.9,8.5,16,14.6c5.3,8.1,8.8,17.5,10.2,27c1.4,8.7,1,17.7,2.4,26.3
	c1.2,8.1,3.9,16,7.5,23.3c3.1,6.8,11,18.7,13.1,25.6C107.3,508,94.4,489.5,90.3,486z"/>
<path class="st4" d="M57.7,400.8c8.8,3.9,12.4,14.4,14.3,23.9c2,10.9,1.7,22.6,6.6,32.3c9.3,18.5,21.6,39.6,30.6,45.8"/>
<path class="st5" d="M44.5,460.7c-7.8-3.1-18-4.2-23.1,2.4c-4.1,5.6-2,13.6,0.8,19.9c2.4,5.4,5.4,10.9,10.5,13.7
	c3.6,2,7.6,2.5,11.5,3.1c11,1.4,22.2,2,33.4,1.9c12.9,0,28.7,5.3,39.4,13.4C103.7,489.4,70.5,471,44.5,460.7z"/>
<path class="st2" d="M30.9,477.3c9.8,0.3,19.7,1.2,29.2,3.9c9.7,2.9,46.8,19.9,52.6,27.2"/>
<path class="st6" d="M128.9,408.2c-10-15.8-27.3-26.8-45.8-29.2c-13.7-1.9-27.8,0.7-41.2-2.2c-14.3-3.1-27-12.1-34.5-24.6
	c-7.5-12.4-9.3-28-5.1-41.9c3.2-10.5,10.4-20.5,20.9-23.9c5.8-1.9,12.1-1.5,17.8-0.2c5.4,1.4,10.4,3.6,14.9,6.5
	c10.5,6.6,19,17,25.5,27.8c5.8,10,20.2,25.5,30,35.5c5.8,5.9,9.8,9.8,9.8,9.8C128,374.3,125,398.2,128.9,408.2z"/>
<path class="st7" d="M20.1,316.9c32.9,14.8,68.7,34.3,92,61.8"/>
<path class="st8" d="M115.3,375c0,0-49.1-39.7-59.2-82.3c10.5,6.6,19,17,25.5,27.8c5.8,10,20.2,25.5,30,35.5
	C112.6,361.4,113.9,367.5,115.3,375z"/>
<path class="st9" d="M117.5,216.9c-4.4,13.7-10.7,27-17,40.1c-3.2,6.8-16.6,22.6-23.8,25.6c0.8-17.8,0.8-38.5-1.2-56.5
	c-2-17.3,4.2-30.4-2.5-46.5c-0.8-2-1.7-4.1-2.7-6.1c0.7,0.2,1.2,0.5,1.9,0.7c11.2,4.8,16.3,16.6,17.3,28c0.8,9.5-0.8,19-2.2,28.3
	c-0.5,4.4-1,8.8-0.2,13.1v0.2c1.2,5.1,8.7,4.8,9.5-0.3l3.1-15.8c0.8-4.8,1.9-9.7,5.8-12.9c1.5-1.4,3.6-2.2,5.4-2
	C114.3,212.7,116.1,214.6,117.5,216.9z"/>
<path class="st10" d="M115.3,364.9c-7.8-40.4-11.9-46.7-8.5-56.7c4.4-12.9,1.9-26,5.9-38.9c4.1-13.1,7-27,3.6-40.2
	c-1-4.2-3.2-8.7-8.1-8.8c-2,0-3.9,0.7-5.4,2c-3.9,3.2-4.9,8.3-5.8,12.9l-2.9,15.8c-1,5.1-8.3,5.4-9.5,0.3v-0.2
	c-1-4.2-0.5-8.7,0.2-13.1c1.2-9.5,3.1-18.8,2.2-28.3c-1-11.5-6.1-23.3-17.3-28c-3.9-1.7-8.5-2-12.6-1c-11.7,3.1-14.8,14.4-12.9,24.1
	c1.2,6.8,4.4,13.1,7.3,19.5c7.1,15.4,1.9,29.5,2.9,46.5C56.9,317.8,115.3,364.9,115.3,364.9z"/>
<path class="st11" d="M63.2,193c5.8,28.7,11.5,57.7,22.7,84.9c3.2,8,4.9,18.3,23.8,40.1"/>
<path class="st1" d="M287.7,200.3c-5.9-6.8-11.5-13.7-17.3-20.4c-3.7-4.2-7.6-8.5-11.9-12.6c-2-2-4.2-3.9-6.4-5.8
	c-13.4-11-28.5-20.4-44.5-27.2c-9.7-4.1-19.9-7.5-28.2-14.1c-8.1-6.6-14.1-17.5-11.4-27.7c2-7.3,8.1-13.1,15.4-15.6
	c7.1-2.5,15.1-2.4,22.4-0.8c20.7,4.4,38,19.4,49.7,37c0.2,0.3,0.5,0.7,0.7,1c8.7,13.2,14.6,27.8,19.9,42.6c1.7,4.8,3.2,9.7,4.9,14.4
	C283.5,178.4,290.8,193.2,287.7,200.3z"/>
<path class="st2" d="M193,93.5c22.6,4.2,38.5,19.4,55.3,35c16.8,15.6,28.9,36.3,34.6,58.6"/>
<path class="st12" d="M270.4,179.9c-0.2,2.4-0.2,4.8,0.3,7.1c-5.6-1.4-9.5-10-12.2-19.7c-2.5-9.3-3.7-19.4-4.2-23.9
	c-0.7-9.8-0.2-19.7,1.9-29.4c8.7,13.2,14.6,27.8,19.9,42.6c-1.9,5.4-3.4,10.7-4.6,16.3C271.1,175.3,270.6,177.6,270.4,179.9z"/>
<path class="st6" d="M309.6,98.5c-1.9,8.5-7,15.8-11.5,23.3c-2.4,3.9-4.6,8-6.6,12.1c-6.6,13.1-11.7,26.8-15.1,41.1
	c-1,4.8-1.7,9.2-0.8,13.9c-11.2-2.5-15.6-34.1-16.3-43.6c-1.4-17,1.5-34.3,8.5-49.9c3.1-6.8,7-13.6,13.1-17.8c6.1-4.4,14.6-5.9,21-2
	c3.9,2.2,6.3,6.1,7.5,10.4C310.5,89.8,310.7,94.2,309.6,98.5z"/>
<path class="st11" d="M271.3,179.4c-7-17.3-2.7-54.1,8.3-77.4c3.4-7,8.1-13.6,14.8-17.5"/>
<path class="st13" d="M309.6,98.5c-1.9,8.5-7,15.8-11.5,23.3c-2.4,3.9-4.6,8-6.6,12.1c-3.1-5.1-5.1-10.9-5.8-16.6
	c-1-9.8,2.9-20.4,10.9-26.3c3.7-2.7,8.1-4.2,12.7-4.9C310.5,89.8,310.7,94.2,309.6,98.5z"/>
<path class="st3" d="M374,172.1c-0.5,3.2-1.5,6.3-2.9,9.3c-4.9,10.7-15.3,19.9-30.9,27.3c0,0-0.8-17-1-21.4
	c-0.7-19.4-21.7-30-35.1-44.3c-6.8-7.1-11.9-16.3-12.9-26.1c-1-9.8,2.9-20.4,10.9-26.3c6.8-4.9,15.4-5.9,23.8-5.3
	c13.4,1,26.8,6.6,35.1,17.1c0.3,0.3,0.7,0.8,1,1.2c5.1,7,7.6,15.4,9.7,23.8C374.8,142.1,376.3,157.4,374,172.1z"/>
<path class="st14" d="M307.8,101.2c14.6,7.5,29.2,16.6,37.7,30.7c11.9,19.5,9.2,45,0.2,66"/>
<path class="st6" d="M617.6,297.1c9.3-15.3,4.6-35,7.8-52.4c2.5-13.6,10-26,20.7-34.6c6.8-5.4,16.3-9.2,23.9-5.1
	c1.7,0.8,3.6,2,5.3,1.2c1-0.5,1.4-1.7,1.5-2.9c1.9-9.5-2.5-19.9,1-28.9c2-4.8,6.1-8.5,10.5-11.2c8.5-5.4,18.3-8.5,28.5-9
	c2.7-0.2,5.4,0,7.8,1.2c4.2,2.2,6.3,7.5,5.8,12.4c-0.5,4.8-3.2,9-6.1,12.9c-9.7,12.7-24.1,23.8-26,39.7c-0.2,2-0.2,4.1,0.7,5.9
	c0.8,1.7,2.5,3.1,3.6,4.8c3.1,5.4-2.7,11.7-8.5,14.4c-5.1,2.5-10.9,4.1-16.5,4.6c-3.9,0.3-8.3,0.5-11,3.4
	c-4.9,5.4,0.7,13.9-0.3,21.2c-0.7,4.6-3.9,8.1-7.1,11.2c-6.1,5.8-12.7,11-19.9,15.6c-5.8,3.7-11.9,7-17,11.5
	c-5.1,4.6-9.2,10.7-9.5,17.5"/>
<path class="st11" d="M629.8,282.3c1.5-7.5,4.9-14.3,8.3-21c5.3-10.5,10.7-21.2,18.8-29.9c6.1-6.6,13.6-11.7,19.9-18.2
	c4.4-4.6,8.1-9.8,11.2-15.4c1.5-3.1,3.1-6.3,5.1-9c2.5-3.2,6.1-5.4,9.2-8.3c4.1-3.7,7.5-8.3,9.7-13.4"/>
<path class="st1" d="M750.8,307.7c-2,8-5.3,16-10.5,22.4c-3.7,4.4-8.3,7.8-13.2,10.7c-2.5,1.5-5.3,2.7-8,3.9
	c-10.7,4.4-22.1,7-33.6,7.5c-16.8,0.7-33.9-3.1-50.1,1.7c-7.5,2.2-14.3,6.1-19.7,11.5c-3.6,3.2-6.5,7.1-8.8,11.2l2.2-13.9
	c4.1-14.9,8.1-30.2,16.5-43.3c5.3-8.5,12.2-16,19.7-22.7c11.9-10.9,25-20.5,39.4-27.5c11.7-5.6,24.6-9.7,37.5-8.1
	c12.9,1.5,25.5,9.7,29.5,22.1C754,290.9,752.8,299.6,750.8,307.7z"/>
<path class="st2" d="M619.8,352c12.4-18.2,30.7-32.3,51.6-39.2c13.1-4.4,26.8-5.9,39.9-9.8c13.2-3.7,26.3-10.2,34.1-21.6"/>
<path class="st6" d="M627.9,485.6c0.7-18.7,10.4-36,22.2-50.6c9.8-12.2,21.6-23.3,36.2-28.9c4.6-1.7,9.7-2.9,14.4-1.7
	c4.8,1.2,9,5.3,9.2,10.2c0,4.1-2.7,7.8-5.6,10.7c-9.7,9.7-22.1,15.8-33.6,22.7c-20,12.1-39,28.2-47,50.2"/>
<path class="st11" d="M635.2,469.3c12.2-27.3,43.8-51.6,64.7-54.7"/>
<path class="st3" d="M620.3,500.6c-0.2-3.1,10-11.4,12.4-13.4c12.7-11.5,28-20,44-25.1c6.5-2,13.4-3.6,19.9-1.9
	c6.5,1.5,12.4,7,13.1,13.9c0.7,6.8-3.9,13.4-9.7,16.8c-5.8,3.2-12.6,3.7-19.2,3.4c-10-0.5-19.9-3.1-29.9-3.1
	C640.8,491.2,626.5,492.3,620.3,500.6z"/>
<path class="st15" d="M630.6,491.1c20.5-11.2,51.6-18.3,74.2-15.6"/>
<path class="st16" d="M374,172.1c-0.5,3.2-1.5,6.3-2.9,9.3c-7.1-15.3-13.6-35.3-15.1-59.8c-0.3-6.6,1.4-13.4,4.9-19.2
	c0.3,0.3,0.7,0.8,1,1.2c5.1,7,7.6,15.4,9.7,23.8C374.8,142.1,376.4,157.4,374,172.1z"/>
<path class="st10" d="M445.1,171.3c15.3-5.4,31.2-9.8,45.3-18.2c4.2-2.5,8.3-5.4,11.2-9.3c3.1-3.9,4.8-8.8,4.2-13.7
	c-0.7-4.9-3.9-9.7-2.7-14.6c0.7-3.2,3.1-5.8,4.9-8.5c4.4-6.5,5.8-14.9,3.4-22.6c-2.4-8.1-8.5-14.6-11.9-22.2
	c-2.9-6.3-3.9-13.4-2.9-20.2c-12.9,0.2-24.6,7.1-37.3,9.5c-9.7,1.9-19.7,0.8-29.4,3.1c-17.5,4.1-31.7,19.4-34.5,37.2
	c-8.1-1.4-16.8,1.5-22.6,7.5c-5.9,6.5-9.3,15.4-8.8,24.3c3.9,63.5,40.4,96.8,40.4,96.8S439.2,173.3,445.1,171.3z"/>
<path class="st11" d="M410.6,170.8c-1.5-15.6,3.9-31.2,10.2-45.7c6.1-14.1,13.2-27.8,22.6-39.9c9.5-12.1,21.6-22.4,35.6-28.3"/>
<path class="st11" d="M424.4,66.5c-1.5,13.9-0.5,30.7,3.2,44.5"/>
<path class="st11" d="M430.2,105.9c16-10.2,40.6-16.5,59.4-15.4"/>
<path class="st11" d="M391.1,108.5c19.2,8.1,20,36.3,20.5,44.3"/>
<path class="st11" d="M416.9,134.9c14.8-10.5,36-13.7,51.6-9.8"/>
<path class="st11" d="M457,59.2c-4.4,5.4-5.6,11.9-5.1,16.5"/>
<path class="st11" d="M456.1,71.8c6.8-3.4,15.8-4.2,25.5-1.9"/>
<path class="st17" d="M78.1,102.5c1.9-0.2,14.1-9.2,18.8-12.2c1.4-0.8,2.7-1.7,3.6-3.1c0.8-1.4,1.4-3.1,0.7-4.4
	c-0.8-1.9-2.2-3.6-5.8-3.6c-6.1,0-8.3,2-11.2,5.1C74.4,94.4,78.1,102.5,78.1,102.5z"/>
<path class="st17" d="M133.3,139.2c5.4,2.4,11,4.8,17,4.1c2.2-0.3,4.8-1.4,5.4-3.4c0.7-1.9-0.2-3.9-1.7-5.3
	c-1.5-1.4-3.4-1.9-5.3-2.4c-7.1-1.7-17.1-0.8-24.3,1.2C124.4,133.4,130,137.8,133.3,139.2z"/>
<path class="st17" d="M168.6,60.1c-2.4-1.5-5.1-3.6-5.1-6.3c0-2.9,2.9-4.9,5.8-5.1c2.9,0,5.4,1.5,7.6,3.4c9,8,8,17,8,17
	S171.3,61.8,168.6,60.1z"/>
<path class="st17" d="M175.7,35.8c-2-0.8-4.2-2-5.4-3.9c-0.7-1-1-2.2-0.5-3.2c0.7-1.7,1.7-3.4,6.1-2.5c13.9,2.5,17,12.1,17,12.1
	S179.4,37.5,175.7,35.8z"/>
<path class="st17" d="M216.8,57c5.6-0.5,11.4-3.2,14.9-7.6c1.4-1.7,2.5-3.6,3.1-5.6c0.5-2,0-4.4-1.7-5.9c-2-1.7-5.1-1.4-7.3,0
	c-2.2,1.4-3.6,3.7-4.8,6.1C219.7,47.2,216.8,57,216.8,57z"/>
<path class="st18" d="M116.5,261.9c-13.6-12.1-27.2-23.9-40.7-36c-7.3-6.4-14.6-12.9-19.2-21.4c-9.8-18.3-4.2-42.1,9.2-57.9
	c13.4-16,32.9-25.3,52.5-32.3c19.7-6.8,40.1-11.7,58.7-20.7c11.7-5.6,23.6-14.1,26.6-26.8c1.9-7.6,0.3-16-4.2-22.4
	c-4.6-6.3-12.2-10.4-20-10.9"/>
<path class="st18" d="M226.3,44.1c-3.7,11.4-18.2,18.3-24.8,28.2"/>
<path class="st18" d="M174.4,57.2c2.9,3.1,6.3,5.4,8.8,8.8c5.3,7,5.8,18.3-2,25.5"/>
<path class="st18" d="M101,121c12.1,9.2,27.8,15.4,42.9,16"/>
<path class="st18" d="M73.5,137.8C67.9,121.5,74,102,87.8,91.7"/>
<path class="st17" d="M512.1,69.1c-0.7-2-0.7-4.4,0.8-5.9c1.2-1.2,3.2-1.7,4.8-1c11.9,5.3,10.7,23.9,10.7,23.9
	S517.1,84.2,512.1,69.1z"/>
<path class="st17" d="M512,103.9c-7.6,13.9,19.7,12.9,29.5,4.8C541.5,108.6,518.6,92,512,103.9z"/>
<path class="st17" d="M546.6,70.1c-1.9-2.5-2.5-6.3-0.5-8.8c1.5-1.9,4.1-2.4,6.5-1.9c2.4,0.5,5.8,2.5,7.3,4.4
	c9,11.2,4.8,22.2,4.8,22.2S549.7,74.3,546.6,70.1z"/>
<path class="st17" d="M655.6,104.7c-0.7-2.2-0.5-4.8,1.2-6.3c1-1,2.5-1.4,4.1-1.2c1.4,0.2,2.7,0.7,4.1,1.2c2.7,1.4,4.9,3.6,6.3,6.3
	c3.4,7,1,15.6,1,15.6S657.3,110.2,655.6,104.7z"/>
<path class="st17" d="M621.3,130.2c-4.9-4.2-12.2-5.6-18.2-2.9c-1.5,0.7-2.9,1.5-3.9,2.9c-2.2,3.1-1.4,7.3,0.8,10.4
	c2.2,2.9,5.6,4.8,9,6.3c6.1,2.7,15.6,3.4,22.1,4.9C631.1,151.8,631.1,138.9,621.3,130.2z"/>
<path class="st2" d="M520.8,72.1c4.1,13.2,15.4,23.3,28.2,28.5c12.7,5.4,26.7,6.8,40.6,7.6c13.7,0.8,27.7,1.4,41.1,4.9
	c13.1,3.6,26,10.9,31.6,23.1c6.8,14.9,0.8,32.8-8.8,46c-9.5,13.4-22.4,24.1-31.6,37.7c-4.2,6.3-7.8,13.6-7,21
	c1.2,10,9.5,17.3,17.3,23.6"/>
<path class="st2" d="M552.5,67.2c9.2,10.2,16.5,26,18.2,39.4"/>
<path class="st2" d="M521.8,106.3c5.3,1.4,10.5,2.7,16,2.7c5.4,0,11.7-3.1,15.6-6.8"/>
<path class="st2" d="M664.6,105.4c4.9,4.8,7.8,11.4,8.1,18.2c0.2,6.8-3.6,15.1-8,20.2"/>
<path class="st2" d="M613.3,136.3c9.8,9,18.3,16.3,29.2,23.9c4.9,3.6,14.8,8,19.2,6.8"/>
<path class="st19" d="M726.9,340.8c-2.5,1.5-5.3,2.7-8,3.9c-10.7,4.4-22.1,7-33.6,7.5c-16.8,0.7-33.9-3.1-50.1,1.7
	c-7.5,2.2-14.3,6.1-19.7,11.5c-0.5,0.3-1.2,0.5-1.7,0.8c-1.4-11.4,27-26.1,35.6-30c15.4-7,32.9-10,49.9-8.7c7.5,0.7,15.1,2,21.2,6.3
	C723,335.6,725.3,338,726.9,340.8z"/>
<path class="st6" d="M699.2,334.2c7.5,0.5,15.1,2,21.2,6.3c6.1,4.2,10.5,11.7,9,19.2c-1.7,8.5-10.5,14.1-19,15.1
	c-8.5,1-17.3-1.4-25.8-3.1c-18.8-3.9-38.2-4.8-57.4-2.5c-4.8,0.5-9.3,1.5-13.4,3.9c-1.4-11.4,27-26.1,35.6-30
	C664.9,336.1,682.2,332.9,699.2,334.2z"/>
<path class="st11" d="M621.1,365.8c14.1-12.4,50.1-20.7,75.7-18c7.6,0.8,15.4,3.1,21.4,8.1"/>
<path class="st20" d="M447.6,124.8l-5.1,11.2c0,0,0.7,6.3,6.8,6.1c6.1-0.2,7-3.1,7-3.1l0.8-12.9L447.6,124.8z"/>
<g class="st21">
	<path class="st22" d="M258.9,570c36.2,0,65.5-2.7,65.5-6.1s-29.3-6.1-65.5-6.1c-36.2,0-65.5,2.7-65.5,6.1S222.7,570,258.9,570z"/>
	<path class="st22" d="M596,570c36.2,0,65.5-2.7,65.5-6.1s-29.3-6.1-65.5-6.1c-36.2,0-65.5,2.7-65.5,6.1S559.8,570,596,570z"/>
	<path class="st23" d="M642.2,521.3l-510.8,1c-6.8,0-12.4-5.4-12.4-12.4l-0.7-338.3c0-6.8,5.4-12.4,12.4-12.4l510.8-1
		c6.8,0,12.4,5.4,12.4,12.4l0.7,338.3C654.4,515.7,649,521.3,642.2,521.3z"/>
	<path class="st24" d="M632.2,514.8l-510.8,1c-6.8,0-12.4-5.4-12.4-12.4l-0.7-338.3c0-6.8,5.4-12.4,12.4-12.4l510.8-1
		c6.8,0,12.4,5.4,12.4,12.4l0.7,338.3C644.4,509.2,638.9,514.8,632.2,514.8z"/>
	<path class="st25" d="M630.5,151.8l-508.6,1c-7.5,0-13.4,6.1-13.4,13.4v11.7l535.4-1.2V165C644,157.9,637.9,151.8,630.5,151.8z"/>
	<path class="st22" d="M122.6,515.9l76.9-0.2l-0.7-338l-90.3,0.2l0.7,324.6C109.2,509.9,115.1,515.9,122.6,515.9z"/>
	<path class="st25" d="M631.5,155.1c4.9,0,9,4.1,9,9l0.7,338.3c0,4.9-4.1,9-9,9l-510.8,1c-4.9,0-9-4.1-9-9l-0.7-338.3
		c0-2.4,0.8-4.6,2.5-6.3c1.7-1.7,3.9-2.5,6.3-2.7L631.5,155.1z M631.5,151.8l-510.8,1c-6.8,0-12.4,5.6-12.4,12.4l0.7,338.3
		c0,6.8,5.6,12.4,12.4,12.4l510.8-1c6.8,0,12.4-5.6,12.4-12.4l-0.7-338.3C643.9,157.4,638.3,151.8,631.5,151.8z"/>
	<path class="st24" d="M186.4,490l-59.2,0.2c-2.5,0-4.8-2-4.8-4.8V485c0-2.5,2-4.8,4.8-4.8l59.2-0.2c2.5,0,4.8,2,4.8,4.8v0.5
		C191.2,488,189.1,490,186.4,490z"/>
	<path class="st24" d="M179.3,260.7l-50.4,0.2c-4.8,0-8.7-3.9-8.7-8.7l-0.2-50.4c0-4.8,3.9-8.7,8.7-8.7l50.4-0.2
		c4.8,0,8.7,3.9,8.7,8.7l0.2,50.4C187.9,257,184.2,260.7,179.3,260.7z"/>
	<path class="st22" d="M395.2,411.8l-175.7,0.3c-3.4,0-6.1-2.7-6.1-6.1v-0.8c0-3.4,2.7-6.1,6.1-6.1l175.7-0.3c3.4,0,6.1,2.7,6.1,6.1
		v0.8C401.3,409.1,398.6,411.8,395.2,411.8z"/>
	<path class="st22" d="M385,211.7L246.2,212c-3.4,0-6.1-2.7-6.1-6.1v-0.8c0-3.4,2.7-6.1,6.1-6.1l138.9-0.3c3.4,0,6.1,2.7,6.1,6.1
		v0.8C391.1,209,388.4,211.7,385,211.7z"/>
	<path class="st22" d="M604.5,352l-185,0.3c-3.4,0-6.1-2.7-6.1-6.1v-0.8c0-3.4,2.7-6.1,6.1-6.1l185-0.3c3.4,0,6.1,2.7,6.1,6.1v0.8
		C610.6,349.3,607.9,352,604.5,352z"/>
	<path class="st22" d="M395.2,439l-175.7,0.3c-3.4,0-6.1-2.7-6.1-6.1v-0.8c0-3.4,2.7-6.1,6.1-6.1l175.7-0.3c3.4,0,6.1,2.7,6.1,6.1
		v0.8C401.5,436.2,398.6,439,395.2,439z"/>
	<path class="st22" d="M395.2,466.1l-175.7,0.3c-3.4,0-6.1-2.7-6.1-6.1v-0.8c0-3.4,2.7-6.1,6.1-6.1l175.7-0.3c3.4,0,6.1,2.7,6.1,6.1
		v0.8C401.5,463.2,398.8,466.1,395.2,466.1z"/>
	<path class="st26" d="M600.8,483.8l-177,0.3c-5.6,0-10.2-4.6-10.2-10.2l-0.2-76c0-5.6,4.6-10.2,10.2-10.2l177-0.3
		c5.6,0,10.2,4.6,10.2,10.2l0.2,76C610.9,479.2,606.4,483.8,600.8,483.8z"/>
	<path class="st26" d="M137.9,165.2c0,2.4-1.9,4.4-4.2,4.4c-2.4,0-4.4-1.9-4.4-4.2c0-2.4,1.9-4.4,4.2-4.4
		C135.8,160.9,137.9,162.8,137.9,165.2z"/>
	<path class="st22" d="M151.9,168.9c2.3,0,4.2-1.9,4.2-4.2c0-2.3-1.9-4.2-4.2-4.2c-2.3,0-4.2,1.9-4.2,4.2
		C147.7,167,149.6,168.9,151.9,168.9z"/>
	<path class="st22" d="M174.5,165.2c0,2.4-1.9,4.4-4.2,4.4c-2.4,0-4.4-1.9-4.4-4.2c0-2.4,1.9-4.4,4.2-4.4
		C172.7,160.7,174.5,162.6,174.5,165.2z"/>
	<path class="st22" d="M233.3,206.8c0.7-6.9-4.3-13.1-11.2-13.8c-6.9-0.7-13.1,4.3-13.8,11.2s4.3,13.1,11.2,13.8
		C226.5,218.8,232.6,213.7,233.3,206.8z"/>
	<path class="st24" d="M182.8,271.4l-55.3,0.2c-1.4,0-2.4-1-2.4-2.4v-0.3c0-1.4,1-2.4,2.4-2.4l55.3-0.2c1.4,0,2.4,1,2.4,2.4v0.3
		C185.2,270.4,184.2,271.4,182.8,271.4z"/>
	<path class="st24" d="M182.8,281.9l-55.3,0.2c-1.4,0-2.4-1-2.4-2.4v-0.3c0-1.4,1-2.4,2.4-2.4l55.3-0.2c1.4,0,2.4,1,2.4,2.4v0.3
		C185.2,280.9,184.2,281.9,182.8,281.9z"/>
	<path class="st26" d="M246.3,304.4l-15.6,0.2l0.2,65.7h-13.6c-4.8,0-8.7-3.9-8.7-8.7l-0.3-121.4c0-4.8,3.9-8.7,8.7-8.8h29
		L246.3,304.4z"/>
	<path class="st26" d="M348,231.2v1.7c4.8,0,8.5,3.7,8.5,8.5l0.2,118.3c0,4.8-3.7,8.5-8.5,8.5l-129.5,0.3c-4.8,0-8.5-3.7-8.5-8.5
		L210,241.7c0-4.8,3.7-8.5,8.5-8.5l129.5-0.3V231.2z M348,231.2l-129.5,0.3c-5.6,0-10.2,4.6-10.2,10.2l0.2,118.3
		c0,5.6,4.6,10.2,10.2,10.2l129.5-0.3c5.6,0,10.2-4.6,10.2-10.2l-0.2-118.3C358.2,235.6,353.6,231.2,348,231.2z"/>
	<path class="st26" d="M564.1,328.6l-172.6-39c-5.4-1.2-9-6.8-7.6-12.2l19.4-85.9c1.2-5.4,6.8-9,12.2-7.6l172.6,39
		c5.4,1.2,9,6.8,7.6,12.2L576.3,321C575.1,326.4,569.7,329.8,564.1,328.6z"/>
	<path class="st25" d="M230,562.4h-24.3l-5.9-30.7l36-0.2L230,562.4z"/>
	<path class="st26" d="M206.6,531.5c0,2.5-0.5,6.8,1.2,6.8c1.7,0,1-4.1,2.9-3.9c1.2,0-0.5,13.4,4.1,13.8c3.2,0.2,2.5-6.5,2.9-10.7
		c0.2-2.9,3.9-2.4,3.9-0.3c0,2-0.2,3.6,0,5.9c0.2,4.1,6.3,2.9,6.1-2.4c-0.2-5.3,0-9,0-9L206.6,531.5z"/>
	<path class="st27" d="M200.8,550.1c-0.5,0-1,0-1.4-0.2c-1.7-0.3-3.1-1.4-3.7-2.7c-2.5-5.3,4.1-14.9,4.2-15.4l0.3,1.7
		c0,0.2-5.8,8.5-3.6,13.2c0.5,1.2,1.5,1.9,2.9,2c0.3,0,0.8,0.2,1.2,0.2c8.7,0,23.6-16.3,23.8-16.5c0.7-0.7,1.7,0,1.4,0.5
		C225.3,533.8,210.2,550.1,200.8,550.1z"/>
	<path class="st28" d="M454.6,129.2c-34.3-1.4-81.6,24.1-64.8,86.2c-0.3,5.3,2.7,9,6.1,8c3.4-1,0.3-11,0.3-11
		c5.8-46.2,16.5-54.1,34.6-54l42.6-0.2c10.5,1.5,29.7,9,32.6,45.8l10.5,2C517.4,179.4,511,131.4,454.6,129.2z"/>
	<path class="st29" d="M454.6,123.7c-34.3-1.4-81.6,24.1-64.8,86.2l6.5-3.1c5.8-46.2,16.5-54.1,34.6-54l42.6-0.2
		c10.5,1.5,30.2,10.9,33.1,47.9h10C517.4,174,511,125.9,454.6,123.7z"/>
	<path class="st30" d="M473.9,115.4c-5.8,10.4-8.3,13.4-16,14.9c-9.8,2-20.9-4.6-15.8-21c4.2-13.4,10.5-11.4,16.8-10.9
		C465.1,99.1,480.2,104.4,473.9,115.4z"/>
	<path class="st27" d="M450.7,107.3c-1.5-0.8-3.6-0.2-4.8,1.2c-1.2,1.4-1.9,3.2-1.4,4.9c-2.4,0-4.4,2.4-4.2,4.8
		c-1.7-3.7-0.7-7.8-1-11.5c-0.3-3.9,0.2-8.1,2.5-11c1-1.2,2.4-2.2,3.7-2.9c5.4-2.9,12.1-2.9,17.5-0.2c1.2,0.5,3.9,2.4,7.8,1.4
		c7.5-1.9,11.9,3.2,7.3,8c1.5,0.5,3.1,1.2,3.7,2.5c0.2,0.3,0.2,0.8,0,1.2c-0.2,0.2-0.5,0.3-0.7,0.5c-1.2,0.5-2.7,0.5-3.9,0.3
		c0.5,0.5,3.2,0.7,4.1,2.2c2.2,4.2-6.6,2.2-8,1.7c1.5,0.3,5.6,3.6,4.2,5.8c-0.3,0.5-5.8,3.6-11.5-3.1c-1.4-1.5-3.1-3.1-4.9-3.6
		c-1.5-0.3-3.2,0.2-4.8,0.7c-1,0.3-3.9,2-4.8,1C451.4,110,452.6,108.3,450.7,107.3z"/>
	<path class="st30" d="M507.6,200.8c-1.5,5.3-3.1,5.8-1.2,6.6c1.9,0.8,3.4-2,3.4-2l8.5,1.7c0,0-1.9-5.6-3.2-6.3
		C513.7,200.1,507.6,200.8,507.6,200.8z"/>
	<path class="st30" d="M396.4,206.9c1.2,2.7,1.4,2.7,2.9,6.1c2.9,6.3-3.9,16.5-8.3,5.4c-1.2-3.1-1.2-8.5-1.2-8.5L396.4,206.9z"/>
	<path class="st27" d="M462.9,93.2c5.8,0.3,13.1-3.7,17.5,1.5c0.3,0.5,1.2-0.2,0.8-0.7c-4.4-6.3-12.4-1.5-18.5-1.7
		C462.2,92.3,462.2,93.2,462.9,93.2z"/>
	<path class="st27" d="M465.3,90c-3.9,0.7-7.8-1.2-11.9-0.5c-3.2,0.5-6.1,2.2-8.7,4.2c-0.7,0.5,0.2,1.7,0.8,1.2
		c3.4-2.2,6.8-4.2,11-3.9c3.1,0.2,5.8,1.2,8.8,0.2C466.3,91,466,90,465.3,90z"/>
	<path class="st27" d="M442.5,95.4c-2.9,1.7-4.4,4.1-4.8,7.5c-0.2,2.4-0.3,8,2,9.3c0.5,0.3,1.2-0.5,0.7-0.8
		c-1.5-1.5-1.7-5.8-1.5-7.8c0.2-3.1,1.5-5.4,3.9-7.3C443.4,95.9,443.1,95.2,442.5,95.4z"/>
	<path class="st27" d="M485.7,105.1c-1.4-2.5-5.1-4.8-8-3.1c-0.5,0.2-0.2,0.8,0.2,1c1.2,0,2.4-0.2,3.6,0.2c1.4,0.3,2.5,1.2,3.4,2.4
		C485.2,105.9,486,105.6,485.7,105.1z"/>
	<path class="st31" d="M296.7,363.9c18,6.6,33.6,27.3,30,42.3c-4.1,17-15.8,24.3-15.8,24.3l-3.7-6.8c0,0,9.3-14.6,8.5-21.6
		c-1.4-11-15.3-18.5-15.3-18.5L296.7,363.9z"/>
	<path class="st27" d="M252.4,555.2c0,0-11,4.4-13.7,7h21.9v-7H252.4z"/>
	<path class="st27" d="M300.8,554.9c0,0,3.1,3.6,3.7,7.3h-14.9c0.3-2.5,1.4-4.9,2.7-7.3H300.8z"/>
	<path class="st32" d="M301.8,555.2h-10.2c0.2-12.1-2.2-53-4.8-83.7c-1.4-18-2.7-32.4-3.6-35.3l5.4-1.2l20.5-4.6
		C312.9,446.6,304.7,520.8,301.8,555.2z"/>
	<path class="st33" d="M264.3,435.7c-8,12.6-10,103-13.4,119.8l9.7,0.5c0,0,11-57,34.8-121.4L264.3,435.7z"/>
	<path class="st34" d="M299.5,434.7c-4.8,12.7-8.8,25.1-12.6,36.8c-1.4-18-2.7-32.4-3.6-35.3l5.4-1.2L299.5,434.7z"/>
	<path class="st35" d="M264.3,435.7c-8,12.6-10,103-13.4,119.8l9.7,0.5c0,0,11-57,34.8-121.4L264.3,435.7z"/>
	<path class="st30" d="M270.3,334.6c0,0-6.1,23.6,9.3,23.6l-0.8,6.1l11.7,1.4l-2.5-8.5c0,0,2.4-14.8,2.5-17.5
		C290.6,334.6,276.7,325.7,270.3,334.6z"/>
	<path class="st27" d="M232,308.1l-4.6,0l0,19.2l4.6,0L232,308.1z"/>
	<path class="st25" d="M242.9,308.1h-26.1c-1.9,0-3.4-1.5-3.4-3.2v-0.7c0-1.9,1.5-3.4,3.4-3.4h26.1c1.9,0,3.4,1.5,3.4,3.2v0.7
		C246.2,306.6,244.6,308.1,242.9,308.1z"/>
	<path class="st30" d="M226.3,332.4c-0.2-4.4-3.7-3.2-1.7-10.4c1.2-4.4,10.4,0.7,9.2,3.7c-1.2,3.1-2.4,7.8-2.4,7.8L226.3,332.4z"/>
	<path class="st36" d="M279.8,362.7c-23.1,1.5-24.6,9.3-35,8.1c-15.3-1.9-12.6-30.2-10.7-40.4h-9.2c0,0-16.5,64.8,35.6,52.8
		c-2,11.4,11,29.9-1.5,52.4c19.9,5.4,38.2,6.6,54-0.2c-2.7-3.7,5.6-41.4-10.9-68.6C298.8,361.7,281.5,362.6,279.8,362.7z"/>
	<path class="st25" d="M279.8,362.7c-23.1,1.5-24.6,9.3-35,8.1c-15.3-1.9-12.6-30.2-10.7-40.4h-9.2c0,0-16.5,64.8,35.6,52.8
		c-2,11.4,11,29.9-1.5,52.4c19.9,5.4,38.2,6.6,54-0.2c-2.7-3.7,5.6-41.4-10.9-68.6C298.8,361.7,281.5,362.6,279.8,362.7z"/>
	<path class="st29" d="M276.5,339.1c1.5,0.3,3.2,0.7,4.1,2c0.5,0.8,0.5,1.9,0.5,2.9c0.3-1,1.4-1.7,2.5-1.7c1,0.2,2,1,2,2.2
		c0,0.5-0.2,1-0.3,1.4c-0.5,1.2-1,2.2-1.7,3.2c1.9,0.7,3.4,6.3,4.4,8c3.2-0.8,10.2-3.6,10.9-14.8c0.3-5.3-1.4-11.5-7-14.9
		c-4.1-2.5-10.7-2.5-15.3-1.4c-3.7,1-9.7,4.8-7,9C270.9,337.1,274,338.5,276.5,339.1z"/>
	<path class="st29" d="M296.4,331.8c2.2-0.7,4.9-0.3,6.1,1.5c1,1.4,0.8,3.2,1.2,4.9c0.2,0.8,0.5,1.7,1,2.2c0.7,0.7,1.9,0.8,2.9,0.8
		c2.5,0.2,5.1-0.2,7.5,0.2c2.4,0.3,4.9,1.9,5.6,4.1c0.3,1.2,0.2,2.7,0.7,3.9c0.7,1.9,2.7,2.9,4.4,4.1c3.7,2.4,6.8,5.4,9.2,9
		c1.4,2.2,2.5,4.8,2.7,7.5c0.2,2.7,2,6.1,1.5,8.8c-0.5,2.9-3.4,6.6-8.8,8.5c-9.5,3.1-12.6,4.4-21.6-1c-1-0.7-3.2-2.9-4.2-3.7
		c-0.8-0.7-1.4-1.5-1.5-2.5c-0.7-2.5,0.2-5.4,1.5-7.8c1.4-2.4,3.2-4.4,4.6-6.8c0.8-1.4,1.5-3.1,1.4-4.6c0-0.7-0.2-1.2-0.7-1.7
		c-0.3-0.3-1-0.5-1.5-0.7c-2-0.3-4.2,0-5.9-0.8c-1.7-0.8-2.7-3.1-2.2-4.8c0.3-1.2,1.4-2.2,1.5-3.6c0.3-1.9-0.7-3.6-2.4-4.8
		c-1.7-1.2-3.6-1.5-5.4-1.7c-0.8-0.2-1.9-0.3-2.7-0.8c-0.8-0.7-1.4-1.9-1.4-2.9C290.1,335.6,293,333,296.4,331.8z"/>
	<path class="st29" d="M294.7,341.4c11.4,2.5-3.1,13.2,3.1,18.5c1.7,1.5,3.7,1,5.8,1.4c7.8,1,3.6,6.3,3.1,10.5c0,0.7,1,0.7,1,0.2
		c0.7-2.9,3.2-6.3,1.9-9.3c-1.2-2.7-4.1-2.4-6.6-2.4c-3.1-0.2-6.4,0-5.3-6.1c0.2-1.4,1.4-2.7,1.9-3.9c0.7-1.5,1-2.9,0.7-4.4
		c-0.5-2.7-2.9-4.2-5.4-4.8C294.4,340.7,294.2,341.4,294.7,341.4z"/>
	<path class="st29" d="M271.1,327.4c8.8-4.4,17.7-3.6,25.1,3.1c0.5,0.5,1.2-0.2,0.7-0.7c-6.6-7.3-18.2-8.7-26.1-2.7
		C270.6,327.1,270.8,327.6,271.1,327.4z"/>
	<path class="st30" d="M567.5,355.1l-3.7,7.6l9.3,3.9l1-9L567.5,355.1z"/>
	<path class="st30" d="M573.3,330c-21.2,9.2-12.6,31.6,0.3,29c6.3-1.4,9.5-21.6,9.5-21.6L573.3,330z"/>
	<path class="st37" d="M580.2,326.9c-0.7-1.4-1.4-2.7-2.5-3.6c-1.2-0.8-2.9-1.2-4.1-0.2c-1.4,1.4-0.5,3.7,0.8,5.1
		c-1.2,0.2-2.7-0.7-3.6,0.2c-0.7,0.7-0.5,1.9,0,2.7c1,2,2.5,3.7,4.4,4.9c-1,0.7-2.4,1.9-1.7,2.9c0.2,0.3,0.5,0.5,0.7,0.8
		c0.3,0.7,0,1.5-0.3,2.2c-0.7,1.2-1.4,2.2-2.2,3.2c0.7-1,2.5-0.5,3.1,0.5c0.5,1.2,0,2.5-0.7,3.4c-0.5,0.5-1,1-1.7,1
		c-0.5,0.2-3.2,8.1-1.2,9.7c2.5,1.9,10.9,0.2,12.1-1.9c1.2,1.4,3.1,2.4,4.8,2c1.7-0.3,3.1-2.5,2.2-4.1c1.9,0.7,4.2,0,5.6-1.5
		c1.4-1.5,1.5-3.9,0.5-5.8c1-0.3,1.2-1.7,1-2.7c-0.5-2.2-2.2-3.9-4.4-4.6c1,0,1.9-1,2-2.2c0-1-0.5-2-1.2-2.9c-2-2.4-4.4-3.1-7.3-3.6
		C583.1,332.4,581.6,329.3,580.2,326.9z"/>
	<path class="st27" d="M560.4,553.9c0,0-12.4,5.9-14.1,7.8c0,0,24.4,1,26.3,0c1.9-1.2-3.9-7.8-3.9-7.8H560.4z"/>
	<path class="st27" d="M606.5,547.1c0,0-10.9,8.3-12.2,10.5c0,0,25.8-3.9,25.8-5.4c0-1.7-5.4-6.8-5.4-6.8L606.5,547.1z"/>
	<path class="st38" d="M572.4,438.8c-0.5,2.5-17.5,69.6,31.2,109.8l14.1-3.2c0,0-16.5-15.4-24.1-42.9c-7.3-26.1-1.5-28.7,2.9-43.1
		c4.9-16,1.2-27.5,1.2-27.5L572.4,438.8z"/>
	<path class="st29" d="M549.1,438.6c-7.6,18.3-20.9,81.1,8,116.4h14.4c0,0-11.4-12.4-12.6-41.2c-1.2-28.9,6.1-41.4,11.2-51.1
		c5.1-9.5,10-25.6,10-25.6L549.1,438.6z"/>
	<path class="st31" d="M539,324.4c-3.9,13.4-5.1,38.4,14.1,48.4l12.9-3.1c0,0-23.1-12.1-18.2-42.8L539,324.4z"/>
	<path class="st25" d="M503.7,317.6l10-1.2c0,0-1.2,41.8,47,45.3c36.8,2.7,39.7,71.8,39.7,71.8c-11.9,8-31.7,10.4-57.4,8.7
		c0,0,1.7-49.4-2.4-62.8C540.7,379.2,500.4,366.6,503.7,317.6z"/>
	<path class="st30" d="M491.4,310c-1.7,2,5.4,4.4,12.2,7.6l8.7-1c0,0,0.2-1.7,0-3.6c-0.2-1.9-1-2.9-2-1.4c-1,1.5-5.4,2-7.5,0.7
		C500.8,310.8,493.1,308.1,491.4,310z"/>
	<path class="st30" d="M539,324.4c-3.2-3.2-2.4-2.9-2.4-2.9l9.8,2.2c0,0,2.2-4.8,3.9-4.9c1.9-0.2-1.4,3.2-0.7,4.6
		c0.7,1.2-2,3.7-2,3.7L539,324.4z"/>
	<path class="st37" d="M585.6,331.5c2,0.5,4.1,0.7,5.8,2c1.7,1.4,2.4,3.7,1.2,5.6c-0.5,0.8,0.8,1.5,1.4,0.8c1.5-2,1.2-4.8-0.3-6.6
		c-1.7-2.2-5.1-3.1-7.8-2.7C585.3,330.7,585.1,331.3,585.6,331.5z"/>
	<path class="st37" d="M594.5,349.5c1.4,0.8,2.4,2,1.9,3.7c-0.5,1.5-2,2.4-3.2,3.2c-0.7,0.3,0,1.4,0.5,1c1.9-1,3.7-2.4,4.1-4.6
		c0.2-1.9-1-3.4-2.7-4.2C594.5,348.3,594,349.2,594.5,349.5z"/>
	<path class="st37" d="M572.2,359.7c4.6,2.7,10.9,2.4,14.6-1.5c0.5-0.5-0.2-1.4-0.7-1c-4.1,3.1-8.7,3.9-13.4,1.9
		C572.2,358.8,571.9,359.3,572.2,359.7z"/>
	<path class="st37" d="M595.2,334.4c2.5,2.4,0,5.8-1.7,8c-0.3,0.5,0.2,1,0.7,0.7c1.5-1.4,2.9-2.9,3.2-5.1c0.2-1.5-0.5-3.1-1.9-3.9
		C595.2,334.1,595,334.2,595.2,334.4z"/>
</g>
</svg>
