<svg width="1074" height="614" viewBox="0 0 1074 614" fill="none" xmlns="http://www.w3.org/2000/svg">
<path d="M16.7637 466.271H1023.77C1023.77 466.271 1103.07 462.479 1062.08 501.916C1021.09 541.354 863.266 531.949 765.514 588.375C667.762 644.801 683.371 561.679 555.032 556.977C426.692 552.275 34.5799 544.387 31.1112 509.955C27.4849 475.523 -25.9634 467.029 16.7637 466.271Z" fill="url(#paint0_linear)"/>
<path d="M211.322 211.444C219.678 207.652 228.034 233.286 228.034 233.286C242.382 251.488 262.247 227.219 260.355 254.37C256.887 301.847 317.115 269.235 289.366 318.835C261.617 368.435 313.961 346.896 296.618 386.789C279.433 426.681 301.663 474.31 275.806 454.743C275.806 454.743 252.945 406.508 229.295 391.643C205.646 376.778 243.485 359.031 236.075 338.706C225.354 309.279 199.497 310.493 218.101 278.791C236.863 247.241 182.784 224.488 211.322 211.444Z" fill="url(#paint1_linear)"/>
<path d="M284.004 436.692C272.809 429.108 259.566 376.019 258.777 344.469C258.304 328.239 253.417 321.565 249.002 315.65C244.745 309.886 241.119 305.032 243.326 293.807C247.425 272.268 236.704 263.016 236.704 262.864L237.965 261.499C238.438 261.954 249.475 271.51 245.218 294.111C243.168 304.577 246.479 309.127 250.579 314.588C254.836 320.504 260.196 327.784 260.669 344.469C261.457 378.446 275.017 428.502 285.107 435.327L284.004 436.692Z" fill="white"/>
<path d="M288.264 440.636C286.845 440.636 285.268 440.485 283.534 440.181C279.119 439.271 276.281 437.147 275.02 433.659C272.024 425.316 278.962 411.817 284.795 405.142C284.953 404.991 294.413 393.766 293.467 378.295C293.309 375.716 292.994 373.289 292.836 371.166C292.048 364.947 291.575 360.548 294.413 357.514C296.778 354.936 301.508 353.722 310.022 353.722C325 353.722 330.991 347.655 335.721 342.953C337.771 340.981 339.663 339.009 342.028 337.795C349.438 333.852 357.321 333.245 360.79 336.43C362.366 337.947 363.785 340.829 361.105 346.29C358.582 351.295 355.429 354.329 352.906 356.907C349.438 360.244 347.231 362.52 348.334 367.07C348.649 368.132 348.965 369.194 349.28 370.255C351.645 377.84 354.168 386.486 340.766 392.249C337.928 393.463 335.248 394.525 333.041 395.283C323.581 398.772 317.905 401.047 311.441 414.092C310.179 416.67 309.076 418.946 307.972 421.372C302.611 432.294 298.67 440.636 288.264 440.636ZM342.658 339.312C340.609 340.374 338.874 342.194 336.825 344.166C331.779 349.172 325.63 355.542 309.864 355.542C301.981 355.542 297.566 356.604 295.674 358.728C293.467 361.155 293.94 365.25 294.57 370.862C294.886 372.986 295.043 375.413 295.359 378.143C296.462 394.373 286.687 405.901 286.372 406.356C280.696 412.878 274.389 425.771 277.07 433.052C278.173 435.934 280.538 437.754 284.165 438.361C296.935 440.788 300.404 433.204 306.238 420.462C307.341 418.187 308.445 415.76 309.706 413.182C316.486 399.53 322.792 397.103 332.252 393.463C334.617 392.553 337.14 391.643 339.978 390.429C351.96 385.272 349.911 378.143 347.546 370.559C347.231 369.497 346.915 368.435 346.6 367.374C345.181 361.913 348.019 359.183 351.645 355.542C354.325 352.964 357.163 350.082 359.528 345.38C360.79 342.953 361.736 339.616 359.686 337.644C356.375 335.065 349.28 335.824 342.658 339.312Z" fill="url(#paint2_linear)"/>
<path d="M283.69 450.951L281.798 450.799C281.956 449.131 284.163 409.541 300.718 397.862C318.849 385.12 324.525 371.469 327.363 362.368C330.516 351.599 346.913 348.717 347.544 348.565L347.859 350.385C347.702 350.385 331.935 353.267 329.097 362.975C326.259 372.379 320.426 386.486 301.821 399.53C286.055 410.603 283.69 450.496 283.69 450.951Z" fill="url(#paint3_linear)"/>
<path d="M321.531 251.336C309.706 247.392 312.229 269.235 307.184 285.313C302.296 301.392 252.001 292.291 273.128 332.638C294.255 372.986 246.483 346.138 260.673 381.328C275.02 416.519 261.934 454.136 277.385 444.58C292.836 435.024 286.057 390.581 302.296 385.424C318.378 380.115 321.058 374.048 305.134 359.638C289.21 345.379 346.915 331.121 332.726 302.15C318.378 273.482 335.09 255.887 321.531 251.336Z" fill="url(#paint4_linear)"/>
<path d="M284.637 443.063C283.218 436.996 270.604 383.907 282.272 377.536C292.677 371.924 292.362 349.93 290.785 329.15C289.366 310.796 313.962 302.15 314.908 301.847L315.539 303.515C315.223 303.667 291.258 312.009 292.677 328.998C294.412 350.385 294.569 372.986 283.218 379.053C274.231 383.907 282.429 426.53 286.371 442.608L284.637 443.063Z" fill="white"/>
<path d="M311.283 424.255L294.571 485.383H257.046L240.334 424.255H311.283Z" fill="url(#paint5_linear)"/>
<path d="M311.283 424.255C311.283 424.255 274.39 430.929 274.39 485.534H257.046L240.334 424.255H311.283Z" fill="url(#paint6_linear)"/>
<path d="M1057.19 336.43C1057.19 432.445 1054.36 451.254 1029.29 472.793C1019.51 481.287 1001.38 498.731 949.351 507.528C933.742 510.107 914.98 511.927 892.592 512.534C883.447 512.685 874.933 512.382 867.365 511.624C860.901 511.017 854.91 509.955 849.549 508.59C792.317 494.787 788.06 447.614 812.971 407.873C819.593 397.407 827.161 387.699 835.202 378.598C847.5 364.643 860.586 352.357 872.568 340.829C883.605 330.211 893.538 320.2 900.633 310.493C903.628 306.397 906.309 302.302 908.201 298.055C908.674 297.144 909.147 296.083 909.62 295.173C911.196 291.987 912.773 289.105 914.349 286.223C917.345 280.763 920.498 275.909 923.336 271.51C925.701 268.021 927.909 264.836 930.116 261.954C937.369 252.246 942.887 246.786 942.887 246.786C942.887 246.786 943.518 246.482 944.779 246.027C945.41 245.724 946.198 245.421 947.301 245.117C947.617 244.966 948.09 244.814 948.563 244.662C949.036 244.511 949.509 244.359 949.982 244.207C950.455 244.056 950.928 243.904 951.401 243.752C952.031 243.6 952.504 243.449 953.135 243.145C953.45 242.994 953.923 242.994 954.239 242.842C954.396 242.842 954.712 242.69 954.869 242.69C955.027 242.69 955.027 242.69 955.185 242.69C962.595 240.567 972.843 238.14 983.88 237.837C1016.36 236.471 1057.19 252.095 1057.19 336.43Z" fill="#787878"/>
<path d="M923.966 481.136C923.966 481.136 924.754 487.506 925.858 490.388C926.962 493.27 932.795 499.793 930.43 506.012C927.75 512.837 915.925 506.315 911.037 504.191C906.15 502.068 907.253 498.276 906.78 493.725C906.307 489.023 903.942 489.023 904.731 485.686C905.519 482.501 910.88 476.13 910.88 476.13L923.966 481.136Z" fill="white"/>
<path d="M913.086 472.945C913.086 472.945 910.091 477.04 910.091 477.192C910.248 477.344 923.019 484.776 923.965 482.349C924.754 480.377 924.911 477.647 924.911 477.647L913.086 472.945Z" fill="#B9B9B9"/>
<path d="M869.574 485.686C869.574 485.686 865.632 489.023 862.163 494.028C858.695 499.186 849.235 499.337 848.92 506.315C848.447 513.292 861.69 513.444 868.47 511.169C875.407 508.893 876.353 502.068 880.61 500.399C884.71 498.731 886.917 497.366 886.602 494.028C886.286 490.691 883.921 485.383 883.921 485.383C883.921 485.383 881.399 486.141 879.822 486.293C878.245 486.596 873.2 486.596 869.574 485.686Z" fill="white"/>
<path d="M916.714 297.6C916.714 297.6 914.033 312.768 911.984 322.627C911.195 326.723 910.407 329.908 909.934 330.818C909.303 332.032 904.416 337.189 898.267 343.256C887.546 353.722 873.513 367.07 873.513 367.07L867.995 357.059C867.995 357.059 880.451 342.953 888.965 333.549C892.906 329.15 895.902 325.813 896.532 325.358C898.267 323.841 900.316 308.824 903.312 296.386C906.15 283.948 911.984 277.123 911.984 277.123L916.714 297.6Z" fill="#E8E8E8"/>
<path d="M898.267 343.256C887.546 353.722 873.513 367.07 873.513 367.07L867.995 357.059C867.995 357.059 880.451 342.953 888.965 333.548C891.645 334.762 896.375 337.795 898.267 343.256Z" fill="#B9B9B9"/>
<path d="M870.201 480.984L869.57 485.686C869.57 485.686 876.35 487.961 883.918 485.534L884.076 481.439L870.201 480.984Z" fill="#B9B9B9"/>
<path d="M967.166 365.099C967.639 366.464 894.798 365.099 894.798 365.099C894.798 365.099 914.979 350.992 916.24 347.2C917.502 343.408 911.037 320.807 910.249 313.526C909.618 307.611 907.884 281.37 911.983 277.274C916.24 273.027 931.376 268.628 931.376 268.628L953.449 269.387C953.449 269.387 957.076 270.145 959.756 271.359C962.436 272.572 977.257 277.578 979.779 284.858C982.144 291.988 964.959 315.043 964.959 315.043C964.959 315.043 964.959 316.105 964.801 317.774C964.801 320.049 964.643 323.538 964.486 327.178C964.328 332.032 964.328 337.341 964.328 341.284C964.17 350.385 966.693 363.733 967.166 365.099Z" fill="#E8E8E8"/>
<path d="M967.165 365.098C967.165 365.098 977.098 379.053 977.255 388.609C977.413 398.165 959.754 430.17 957.074 434.721C949.033 448.524 926.96 478.102 926.96 478.102C926.96 478.102 923.176 477.95 911.351 473.551C911.351 473.551 926.014 434.417 927.906 430.322C935.789 413.03 940.204 400.895 937.524 397.862C934.843 394.828 927.591 391.946 925.541 390.126C923.491 388.306 886.913 396.8 883.129 397.71C873.196 400.137 877.769 416.822 879.976 424.254C883.602 436.692 886.913 481.591 886.913 481.591C886.913 481.591 879.818 484.472 867.993 482.046C867.993 482.046 844.817 400.895 844.028 392.856C843.24 384.817 842.925 371.469 900.157 361.306L967.165 365.098Z" fill="#3A3A3A"/>
<path d="M937.367 222.517C937.367 222.517 918.132 218.422 922.547 241.629C926.962 264.836 931.534 266.657 943.201 261.954C954.711 257.101 953.765 242.236 954.395 234.955C954.868 227.523 943.516 222.82 937.367 222.517Z" fill="#B9B9B9"/>
<path d="M932.323 274.696C932.323 274.696 940.837 283.342 954.239 275.454C954.239 275.454 951.243 256.646 952.82 247.545C954.396 238.444 935.319 261.651 935.319 261.651C935.634 261.803 935.792 262.713 935.792 263.926C935.792 264.988 935.792 266.353 935.634 267.718C935.161 270.752 934.215 273.937 932.323 274.696Z" fill="#B9B9B9"/>
<path d="M953.29 246.786C953.29 246.786 952.817 239.505 949.979 239.202C947.141 238.898 946.826 241.932 946.826 241.932L943.988 242.387C943.988 242.387 944.934 236.016 942.096 234.803C939.258 233.741 924.122 238.292 921.915 236.471C919.707 234.651 920.811 221.606 924.753 219.786C928.852 217.966 939.889 214.022 948.087 219.331C948.087 219.331 954.394 218.573 955.34 223.578C956.286 228.584 955.024 243.145 953.29 246.786Z" fill="#3A3F47"/>
<path d="M935.477 267.718C949.351 263.623 950.455 255.584 950.455 255.432C945.882 263.016 935.792 263.926 935.792 263.926C935.792 264.988 935.634 266.353 935.477 267.718Z" fill="#838383"/>
<path d="M959.914 271.51C959.914 271.51 949.824 290.926 933.427 289.712C917.029 288.499 930.589 268.932 931.377 268.78C932.165 268.477 948.089 264.685 959.914 271.51Z" fill="#B9B9B9"/>
<path d="M886.442 364.037C886.442 364.037 936.737 369.953 967.167 365.099L908.988 358.121C908.988 358.121 908.673 359.486 886.442 364.037Z" fill="#E8E8E8"/>
<path d="M923.966 355.845L920.182 357.666C920.182 357.666 920.97 363.43 923.02 365.098L927.277 364.036C927.434 364.188 926.488 357.817 923.966 355.845Z" fill="#B9B9B9"/>
<path d="M982.145 344.166C981.357 344.925 971.582 348.869 960.387 352.964C945.094 358.576 927.908 363.885 927.908 363.885L923.967 355.846C923.967 355.846 941.941 346.442 954.081 339.768C959.757 336.582 964.329 334.155 964.96 333.549C966.852 331.728 967.482 328.846 966.063 323.841C964.644 318.835 961.333 295.78 960.86 293.049C960.545 290.319 961.806 283.19 968.744 282.887C975.681 282.583 979.307 284.403 979.307 284.403C979.307 284.403 981.042 285.162 982.303 301.392C983.722 317.925 983.879 342.195 982.145 344.166Z" fill="#E8E8E8"/>
<path d="M964.645 317.773C964.645 320.049 964.488 323.537 964.33 327.178C957.55 311.099 961.492 298.206 961.492 298.055C960.861 302.453 964.645 317.622 964.645 317.773Z" fill="#B0B0B0"/>
<path d="M911.984 322.627C911.196 326.723 910.407 329.908 909.934 330.818C907.569 320.049 909.777 306.094 909.777 306.094C909.934 312.768 911.984 322.627 911.984 322.627Z" fill="#B0B0B0"/>
<path d="M960.388 352.964C945.094 358.576 927.436 364.188 927.436 364.188L924.125 355.997C924.125 355.997 942.099 346.593 954.239 339.919C954.239 339.919 958.653 341.891 960.388 352.964Z" fill="#B9B9B9"/>
<path d="M923.019 364.644L851.597 363.582L887.544 381.177L923.019 364.644Z" fill="#525252"/>
<path d="M887.545 381.177L923.02 367.98V364.643L884.865 377.84L887.545 381.177Z" fill="#3A3A3A"/>
<path d="M921.128 357.818C921.128 357.818 916.713 357.211 913.56 356.453C911.195 355.846 905.204 356.604 903.785 358.121C902.208 359.638 897.478 369.801 896.532 370.407C895.586 371.014 897.005 372.531 898.582 371.773C898.582 371.773 900.001 376.323 903.627 374.655C907.253 372.986 909.776 369.346 911.668 368.587C913.56 367.98 924.596 364.643 924.596 364.643C924.596 364.643 923.966 356.756 921.128 357.818Z" fill="#B9B9B9"/>
<path d="M904.89 357.514C904.89 357.514 902.053 358.88 901.264 359.486C900.476 360.093 897.48 362.217 896.692 362.823C895.904 363.278 897.796 364.795 903.156 362.52C908.517 360.245 904.89 357.514 904.89 357.514Z" fill="#B9B9B9"/>
<path d="M887.545 381.177L866.418 325.357L797.834 326.419L818.173 377.84L887.545 381.177Z" fill="#3A3A3A"/>
<path d="M844.503 350.082C846.552 354.026 845.922 358.425 843.084 359.79C840.246 361.155 836.147 359.031 834.097 354.936C832.047 350.992 832.678 346.593 835.516 345.228C838.354 344.015 842.296 346.138 844.503 350.082Z" fill="#858585"/>
<path d="M946.826 238.747C947.141 236.623 951.24 236.016 951.556 239.05C951.871 242.084 949.664 247.544 948.087 246.937C946.668 246.482 946.511 241.629 946.826 238.747Z" fill="#B9B9B9"/>
<path d="M524.603 461.113C524.13 464.45 503.792 478.102 499.692 480.832C496.539 483.107 493.701 484.017 488.813 485.838C477.777 488.568 408.247 508.59 408.247 508.59C408.089 507.983 407.931 507.377 407.616 506.618C405.093 507.68 402.413 508.287 400.679 508.742C398.156 509.5 377.502 510.107 373.403 510.865C369.146 511.624 360.79 512.837 357.321 509.803C353.852 506.618 359.371 499.944 364.101 498.276C368.83 496.607 385.858 496.152 389.012 495.849C392.007 495.545 396.106 494.484 397.998 495.09C398.629 495.242 401.309 494.484 404.778 493.422C404.62 492.208 404.62 491.45 404.62 491.45L422.91 486.444L419.599 455.349C419.599 455.349 427.482 426.53 459.172 448.524C459.172 448.524 466.267 450.496 468.632 451.102C468.79 451.102 469.105 451.102 469.421 451.102C474.308 450.799 495.12 444.732 502.53 444.732C510.571 444.732 513.251 444.277 516.089 445.642C519.085 446.855 525.076 457.776 524.603 461.113Z" fill="#B2B2B2"/>
<path d="M492.122 509.803C488.654 512.989 480.297 511.624 476.04 510.865C471.783 510.107 451.287 509.5 448.764 508.742C446.242 507.983 441.354 506.921 437.885 504.646C437.57 504.494 436.94 504.191 435.994 503.888L430.791 507.376L359.368 485.534C355.111 484.472 351.643 482.652 349.436 480.832C345.652 477.647 324.997 464.299 324.524 461.113C324.052 457.776 330.043 447.007 332.881 445.49C335.719 444.125 338.399 444.58 346.44 444.58C354.481 444.58 377.973 451.557 380.338 450.95C381.441 450.647 383.649 449.585 385.856 448.372C388.379 447.007 390.901 445.642 390.901 445.642C425.588 430.777 429.529 455.198 429.529 455.198L427.48 485.382C427.48 485.382 430.318 486.748 434.102 488.416L451.287 493.118L449.08 494.635C450.026 494.938 450.814 495.09 450.972 494.938C452.864 494.332 456.963 495.393 459.959 495.697C462.954 496 480.14 496.455 484.87 498.124C490.073 499.944 495.591 506.618 492.122 509.803Z" fill="#B2B2B2"/>
<path d="M386.329 448.372C388.694 448.524 404.933 457.473 408.717 459.748C402.884 456.866 380.811 450.95 380.811 450.95C381.914 450.647 384.122 449.585 386.329 448.372Z" fill="#747474"/>
<path d="M469.576 450.951C469.576 450.951 441.669 457.473 436.624 460.203C436.782 460.052 451.287 449.434 458.855 448.069C458.855 448.069 466.265 450.344 468.788 450.951C468.945 450.951 469.103 450.951 469.576 450.951Z" fill="#747474"/>
<path d="M492.121 509.803C488.652 512.988 480.296 511.623 476.039 510.865C471.782 510.106 451.286 509.5 448.763 508.741C447.975 508.59 447.029 508.286 446.083 507.983C443.56 507.224 440.407 506.314 437.884 504.646C437.569 504.494 436.938 504.191 435.992 503.887L448.921 494.938L449.236 494.635C450.182 494.938 450.97 495.09 451.128 494.938C453.02 494.331 457.119 495.393 460.115 495.697C463.111 496 480.296 496.455 485.026 498.123C490.071 499.944 495.589 506.618 492.121 509.803Z" fill="#CDCDCD"/>
<path d="M492.122 509.803C488.653 512.988 480.297 511.623 476.04 510.865C471.783 510.106 451.287 509.5 448.764 508.741C447.976 508.59 447.03 508.286 446.084 507.983C446.084 507.983 451.76 502.674 449.08 494.938L449.395 494.635C450.341 494.938 451.129 495.09 451.287 494.938C453.179 494.331 457.278 495.393 460.274 495.697C463.269 496 480.455 496.455 485.185 498.123C490.072 499.944 495.591 506.618 492.122 509.803Z" fill="white"/>
<path d="M393.422 455.349C393.422 455.501 393.422 455.501 393.422 455.501C393.108 455.652 393.108 455.652 393.422 455.349Z" fill="#E55353"/>
<path d="M486.917 418.945C486.602 418.49 471.939 396.193 467.998 386.03C464.056 375.867 454.439 371.165 449.866 369.8C448.29 369.345 445.452 368.435 442.298 367.373C436.78 365.704 430.789 363.884 430.789 363.884H411.869C411.869 363.884 405.405 366.008 398.467 368.283C392.003 370.407 385.381 372.834 383.016 373.895C378.286 376.171 370.245 392.401 368.669 394.372C367.092 396.193 354.637 418.338 352.902 426.984C351.483 433.658 392.319 452.922 393.422 455.501C394.684 454.135 400.675 448.675 400.675 448.675C400.675 448.675 398.783 447.461 396.103 445.793C406.981 446.248 433.784 445.338 437.568 445.49C438.357 445.49 439.145 445.49 440.091 445.49C441.352 446.248 448.92 452.77 448.92 452.77C448.92 452.77 467.84 445.186 476.512 436.844C488.652 424.709 488.179 421.524 486.917 418.945ZM379.548 433.658C375.448 428.956 369.93 426.226 371.349 424.102C372.768 421.979 384.593 402.26 384.593 402.26C384.593 402.26 390.742 415.153 392.476 421.979C394.211 428.653 394.053 431.838 393.265 433.962C392.634 435.782 392.161 437.147 391.53 442.759C386.8 439.574 381.44 435.782 379.548 433.658ZM462.952 431.383C461.376 433.052 455.069 436.995 449.393 440.181C448.92 436.389 448.29 430.473 448.29 428.349C448.132 425.164 449.551 415.911 451.285 412.423C453.02 408.934 454.123 399.226 454.123 399.226C454.123 399.226 468.471 417.883 470.678 419.855C473.043 421.827 468.313 425.619 462.952 431.383Z" fill="#797979"/>
<path d="M423.538 313.829C423.538 313.829 438.358 316.105 435.993 338.25C433.786 360.396 420.7 358.576 419.911 358.576C418.965 358.576 406.825 359.031 405.879 331.88C405.879 332.031 405.564 311.857 423.538 313.829Z" fill="#B9B9B9"/>
<path d="M436.308 332.031C436.308 332.031 437.884 330.363 438.515 332.031C439.146 333.7 436.308 341.132 436.15 341.587C436.15 341.587 435.835 342.194 435.52 341.89C435.204 341.587 436.308 332.031 436.308 332.031Z" fill="#B9B9B9"/>
<path d="M406.352 331.728C406.352 331.728 404.776 330.059 404.145 331.728C403.514 333.396 406.195 340.981 406.195 341.284C406.195 341.284 406.51 341.891 406.825 341.587C407.298 341.284 406.352 331.728 406.352 331.728Z" fill="#B9B9B9"/>
<path d="M436.311 335.52L434.261 338.25C434.261 338.25 434.261 332.335 433.946 331.424C433.631 330.514 433.158 327.632 432.842 327.026C432.527 326.419 420.229 323.082 409.193 327.936C409.193 327.936 409.666 332.183 408.562 332.638C407.458 333.093 408.089 339.615 408.089 339.615L406.355 337.795C406.355 337.795 403.674 320.655 404.305 318.986C404.936 317.166 406.985 306.548 429.531 312.919C429.531 312.919 436.469 311.554 437.888 316.104C439.307 320.352 436.311 335.52 436.311 335.52Z" fill="#434343"/>
<path d="M401.936 477.495C401.936 477.495 379.39 464.45 369.457 462.478C360.155 460.506 356.687 457.169 356.687 457.169C356.687 457.169 371.507 457.169 381.44 463.843C388.062 468.394 401.936 477.495 401.936 477.495Z" fill="#808080"/>
<path d="M421.962 486.444C421.962 486.444 461.22 466.574 477.302 462.326C486.447 459.9 490.073 457.018 490.073 457.018C490.073 457.018 465.793 459.293 450.972 467.787C443.877 472.034 421.962 486.444 421.962 486.444Z" fill="#808080"/>
<path d="M407.616 506.466C405.093 507.528 402.413 508.135 400.679 508.59C398.156 509.348 377.502 509.955 373.403 510.714C369.146 511.472 360.79 512.685 357.321 509.652C353.852 506.466 359.371 499.792 364.101 498.124C368.83 496.455 385.858 496 389.012 495.697C392.007 495.394 396.107 494.332 397.998 494.938C398.629 495.09 401.309 494.332 404.778 493.27C404.936 495.242 407.616 506.466 407.616 506.466Z" fill="#CDCDCD"/>
<path d="M421.962 504.646L460.59 493.725L453.022 491.45C452.864 491.45 422.12 502.219 421.962 504.646Z" fill="#B2B2B2"/>
<path d="M421.962 504.646L440.093 499.337L427.48 506.315L421.962 504.646Z" fill="#808080"/>
<path d="M409.505 460.203C409.505 460.203 409.189 460.052 408.716 459.748C409.031 459.9 409.347 460.052 409.505 460.203Z" fill="#525252"/>
<path d="M400.679 508.742C398.156 509.5 377.502 510.107 373.403 510.865C369.146 511.624 360.79 512.837 357.321 509.803C353.852 506.618 359.371 499.944 364.101 498.275C368.83 496.607 385.858 496.152 389.012 495.849C392.007 495.545 396.107 494.483 397.998 495.09C397.998 494.938 392.953 502.674 400.679 508.742Z" fill="white"/>
<path d="M387.905 457.018L381.914 424.406L458.855 422.738L453.967 454.743C453.967 454.743 429.371 463.388 421.015 468.394C421.015 468.546 399.888 460.203 387.905 457.018Z" fill="#525252"/>
<path d="M425.587 444.125C425.587 446.855 423.695 448.979 421.33 448.979C418.965 448.979 417.073 446.855 417.073 444.125C417.073 441.395 418.965 439.271 421.33 439.271C423.695 439.271 425.587 441.395 425.587 444.125Z" fill="#CDCDCD"/>
<path d="M430.949 363.885C430.949 363.733 430.949 363.733 430.949 363.885C430.003 361.913 430.476 352.205 430.476 352.205C430.476 352.205 411.713 347.655 412.186 351.143C412.659 354.632 410.61 364.34 410.61 364.34L400.992 367.525C400.992 367.525 411.24 394.07 423.065 390.581C434.89 387.092 439.305 366.463 439.305 366.463L430.949 363.885Z" fill="#B9B9B9"/>
<path d="M412.658 355.087C412.658 355.087 415.654 358.728 420.857 358.728C424.325 358.728 426.69 357.969 430.159 354.632C430.159 354.632 428.74 360.699 420.857 361.155C420.857 361.306 415.181 362.065 412.658 355.087Z" fill="#838383"/>
<path d="M736.034 154.866C736.034 154.866 746.913 153.804 750.855 163.967C754.796 174.13 758.423 177.467 758.896 182.776C760.788 204.314 771.193 199.461 768.356 211.899C765.36 224.337 763.31 226.157 763.31 226.157L738.242 221.455L712.857 221.606C712.857 221.606 722.79 216.904 720.583 206.741C718.376 196.579 712.857 180.045 716.011 168.669C719.322 157.141 729.57 155.776 736.034 154.866Z" fill="#464240"/>
<path d="M729.252 487.961C729.252 487.961 721.368 498.276 722.472 499.944C723.576 501.613 732.09 501.916 737.293 499.944C742.496 497.972 742.653 485.686 745.018 480.377C745.964 478.102 743.914 471.58 740.919 471.124C737.923 470.669 734.455 472.186 734.455 472.186C734.455 472.186 737.608 479.77 729.252 487.961Z" fill="#787878"/>
<path d="M734.455 472.187C734.455 472.187 733.824 477.04 732.878 480.529C731.932 484.018 726.571 491.905 726.729 492.815C727.044 493.726 733.666 494.636 736.347 492.209C739.027 489.782 741.234 482.653 741.392 478.254C741.707 474.007 740.761 471.125 740.761 471.125C740.761 471.125 737.135 469.608 734.455 472.187Z" fill="#CDCDCD"/>
<path d="M745.021 480.377V491.45H743.602V482.956L745.021 480.377Z" fill="#787878"/>
<path d="M749.75 487.961C749.75 487.961 741.867 498.276 742.97 499.944C744.074 501.613 752.588 501.916 757.791 499.944C762.994 497.972 763.151 485.686 765.516 480.377C766.462 478.102 764.413 471.58 761.417 471.124C758.421 470.669 754.953 472.186 754.953 472.186C754.953 472.186 758.106 479.77 749.75 487.961Z" fill="#787878"/>
<path d="M754.952 472.187C754.952 472.187 754.321 477.04 753.375 480.529C752.429 484.018 747.068 491.905 747.226 492.815C747.541 493.726 754.163 494.636 756.844 492.209C759.524 489.782 761.731 482.653 761.889 478.254C762.204 474.007 761.258 471.125 761.258 471.125C761.258 471.125 757.632 469.608 754.952 472.187Z" fill="#CDCDCD"/>
<path d="M765.518 480.377V491.45H764.099V482.956L765.518 480.377Z" fill="#787878"/>
<path d="M714.75 300.481C714.75 300.481 708.758 331.88 707.182 339.767C705.605 347.655 701.033 385.727 700.56 392.249C700.087 398.772 715.223 429.867 716.169 431.99C731.935 467.939 733.827 476.13 733.827 476.13C733.827 476.13 739.03 479.315 741.395 475.523C742.183 474.31 731.62 433.204 729.885 421.676C728.309 411.058 724.052 394.525 725.313 390.884C726.417 387.092 736.665 335.672 738.557 333.548C740.449 331.425 743.445 334.762 744.548 339.615C745.652 344.469 748.017 385.727 749.593 391.036C751.012 396.345 749.909 414.092 750.697 422.889C751.485 431.838 754.796 473.551 754.796 473.551C754.796 473.551 761.261 474.613 761.891 473.703C762.522 472.641 768.198 427.288 768.356 416.67C768.513 406.052 768.671 391.339 768.986 386.789C771.982 342.649 777.5 336.885 767.725 305.183C743.76 227.37 714.75 300.481 714.75 300.481Z" fill="#CDCDCD"/>
<path d="M714.748 300.481C714.748 300.481 708.757 331.88 707.18 339.767C705.603 347.655 701.031 385.727 700.558 392.249C700.085 398.772 714.59 429.867 715.063 432.142C715.379 434.417 727.361 467.636 727.361 467.636C727.361 467.636 739.501 467.484 742.812 464.45C743.443 463.843 731.618 433.204 729.884 421.827C728.307 411.21 724.05 394.676 725.312 391.036C726.415 387.244 736.663 335.823 738.555 333.7C740.447 331.576 743.443 334.913 744.547 339.767C745.65 344.621 748.015 385.879 749.592 391.188C751.011 396.496 749.907 414.243 750.696 423.041C751.484 431.99 749.75 463.843 749.75 463.843C749.75 463.843 765.674 464.602 766.304 463.692C766.935 462.63 768.196 427.591 768.354 416.974C768.512 406.356 768.669 391.643 768.985 387.092C771.98 342.952 777.499 337.189 767.723 305.487C743.758 227.37 714.748 300.481 714.748 300.481Z" fill="#B2B2B2"/>
<path d="M770.088 310.947C771.034 310.644 763.624 286.981 762.048 279.852C760.786 273.482 756.214 267.718 760.629 256.797C763.151 250.578 762.994 243.297 762.994 243.297C762.994 243.297 769.773 257.707 770.404 261.347C771.034 264.987 747.069 258.313 746.754 258.768C746.123 259.679 745.493 266.049 745.493 268.173C745.493 269.993 780.337 277.88 784.436 270.903C785.54 268.931 777.972 230.859 773.084 225.702C765.043 217.359 744.074 210.23 744.074 210.23C744.074 210.23 738.24 207.196 728.15 210.382C718.059 213.415 703.712 222.971 701.347 225.398C698.824 227.825 689.049 264.987 688.26 269.841C687.472 274.392 687.787 283.948 698.509 282.734L727.519 276.364L725.785 267.869L704.027 269.538C699.612 270.296 701.662 266.504 702.293 264.381C702.923 262.409 708.284 243.448 708.284 243.448C707.969 248.757 712.068 265.898 714.275 271.813C716.482 277.729 711.753 309.734 711.437 313.222C711.122 313.374 728.623 327.177 770.088 310.947Z" fill="#787878"/>
<path d="M748.804 212.202C748.804 212.202 741.709 226.46 735.718 230.556C735.718 230.556 724.996 215.084 725.469 211.444C725.469 211.444 737.452 206.287 748.804 212.202Z" fill="#B9B9B9"/>
<path d="M749.12 260.134C749.12 260.134 745.809 258.92 744.863 257.707C743.917 256.493 741.079 255.886 738.872 256.493C736.665 257.1 737.926 266.049 737.926 266.049L749.436 267.414L749.12 260.134Z" fill="#B9B9B9"/>
<path d="M728.308 266.96C728.308 266.96 729.411 261.196 729.096 260.134C728.781 259.072 730.988 258.011 731.303 260.589C731.619 263.168 731.776 264.988 731.776 264.988L728.308 266.96Z" fill="#B9B9B9"/>
<path d="M733.037 270.903L741.393 270.6C742.497 270.6 743.285 269.69 743.285 268.628L743.442 251.033C743.442 249.971 742.497 249.061 741.393 249.061L731.46 249.364C730.356 249.364 729.41 250.426 729.568 251.488L730.987 269.083C730.987 270.296 731.933 271.055 733.037 270.903Z" fill="#5B5B5B"/>
<path d="M728.148 267.415C728.148 267.415 727.991 265.746 731.302 264.229C735.716 262.257 741.55 260.134 742.496 260.74C743.915 261.499 743.127 262.561 740.446 263.471C737.608 264.381 736.82 264.684 736.82 264.684C736.82 264.684 742.181 264.229 743.442 264.836C744.703 265.443 744.703 266.959 743.915 267.111C742.969 267.415 740.919 267.415 740.919 267.415C740.919 267.415 743.284 267.566 743.442 268.325C743.6 268.931 743.757 269.993 741.55 270.296C741.55 270.296 742.969 271.813 740.762 272.875C738.554 273.937 734.613 274.847 732.563 275.15C728.464 275.757 719.004 275.302 719.004 275.302L722.946 268.931C722.946 268.931 725.153 269.083 726.572 268.628C728.306 268.021 728.148 267.415 728.148 267.415Z" fill="#B9B9B9"/>
<path d="M725.627 267.869L727.519 276.515L708.915 280.459L708.284 269.235L725.627 267.869Z" fill="#787878"/>
<path d="M746.756 258.92C746.756 258.92 745.179 262.106 745.495 268.325C745.495 268.325 757.004 272.42 765.834 273.33V262.409L746.756 258.92Z" fill="#787878"/>
<path d="M727.519 276.516L714.591 283.493C714.748 281.976 714.748 280.611 714.748 279.398L727.519 276.516Z" fill="#5B5B5B"/>
<path d="M761.574 277.425C751.168 273.482 747.069 269.841 745.808 268.779C745.492 268.476 745.492 268.476 745.492 268.476L760.313 272.572C760.628 274.088 761.101 275.757 761.574 277.425Z" fill="#5B5B5B"/>
<path d="M737.606 160.782C737.606 160.782 752.111 162.754 749.904 183.383C747.854 203.86 735.083 202.343 734.137 202.343C733.349 202.343 721.367 202.798 720.263 177.77C720.263 177.619 719.79 159.113 737.606 160.782Z" fill="#B9B9B9"/>
<path d="M743.919 198.55C743.919 198.55 742.973 209.168 745.18 212.505C747.387 215.691 743.288 220.089 735.247 218.573C727.049 217.056 727.522 212.657 727.522 212.657C727.522 212.657 729.887 206.135 729.098 200.826C728.468 195.517 743.919 198.55 743.919 198.55Z" fill="#B9B9B9"/>
<path d="M735.874 168.214C735.874 168.214 742.654 175.04 745.807 178.528C748.961 182.017 749.276 188.691 749.276 188.691C749.276 188.691 754.636 182.472 752.429 175.191C750.222 167.911 745.019 153.956 731.775 158.203C718.531 162.602 718.058 181.562 719.635 190.966C719.477 191.118 725.469 170.186 735.874 168.214Z" fill="#464240"/>
<path d="M730.201 201.281C730.201 201.281 736.35 204.011 742.341 199.916C742.341 199.916 740.607 203.253 736.192 203.708C731.935 204.163 730.201 201.281 730.201 201.281Z" fill="#838383"/>
<path d="M728.15 205.073C728.15 205.073 708.284 222.061 713.487 232.679C717.902 241.78 733.51 236.168 730.988 226.612C728.307 217.207 728.15 205.073 728.15 205.073Z" fill="#464240"/>
<path d="M733.509 252.853C733.509 253.46 732.878 254.066 732.248 254.066C731.617 254.066 730.986 253.46 730.986 252.853C730.986 252.246 731.617 251.639 732.248 251.639C732.878 251.639 733.509 252.246 733.509 252.853Z" fill="#48484D"/>
<path d="M195.398 489.478L180.893 396.497L183.731 396.042L198.236 489.023L195.398 489.478Z" fill="#535353"/>
<path d="M177.738 489.478L163.232 396.497L166.07 396.042L180.576 489.023L177.738 489.478Z" fill="#535353"/>
<path d="M90.3907 489.478L87.5527 489.023L102.058 396.042L104.896 396.497L90.3907 489.478Z" fill="#535353"/>
<path d="M185.465 397.407L196.817 282.28C196.817 282.28 176.951 279.853 164.968 280.459L146.837 397.407H185.465Z" fill="#C1C1C1"/>
<path d="M185.465 391.643H146.837V397.558H185.465V391.643Z" fill="#C1C1C1"/>
<path d="M121.611 392.856L115.62 283.19C115.62 283.19 165.915 277.881 196.818 282.431L121.611 392.856Z" fill="#C1C1C1"/>
<path d="M161.815 247.544C161.815 247.544 169.54 225.55 154.72 218.876C139.899 212.051 127.286 221.91 124.921 227.219C122.556 232.528 123.187 242.235 125.237 248.909C127.286 255.583 126.971 265.898 122.556 269.387C118.142 272.875 112.623 278.488 112.939 290.167C113.096 297.296 142.422 271.814 142.422 271.814L161.815 247.544Z" fill="#D6D6D6"/>
<path d="M142.106 483.563C142.106 483.563 141.633 499.034 143.998 499.944C146.362 500.854 155.034 495.546 158.818 490.085C162.602 484.776 153.93 472.338 152.511 465.512C151.881 462.63 145.101 457.473 141.79 458.99C138.479 460.507 136.114 464.299 136.114 464.299C136.114 464.299 144.471 469.911 142.106 483.563Z" fill="#C7C7C7"/>
<path d="M136.114 464.299C136.114 464.299 138.952 469.608 140.371 473.703C141.79 477.799 142.106 489.175 143.052 489.933C143.997 490.692 151.25 487.203 152.196 482.956C153.142 478.709 150.146 470.214 147.466 465.816C144.628 461.417 141.79 459.142 141.79 459.142C141.79 459.142 136.903 460.052 136.114 464.299Z" fill="#A8A8A8"/>
<path d="M152.513 465.664L160.396 476.585L158.819 477.647L152.828 469.153L152.513 465.664Z" fill="#C7C7C7"/>
<path d="M124.29 343.863C124.29 343.863 128.074 350.082 124.29 354.632C120.506 359.183 94.6487 371.621 94.8064 378.75C94.964 385.879 99.694 397.255 101.428 399.985C103.163 402.867 109.312 414.699 112.623 421.676C115.933 428.653 134.696 461.872 138.322 469.304C141.948 476.737 139.741 439.423 139.741 439.423L120.979 386.334L164.967 345.228C164.967 345.228 159.607 333.852 124.29 343.863Z" fill="#A8A8A8"/>
<path d="M141.003 273.634C141.003 273.634 128.863 276.212 123.975 278.943C119.087 281.673 108.366 294.111 108.366 299.571C108.366 304.88 155.35 310.038 155.35 310.038L164.18 341.284C164.18 341.284 187.987 335.672 190.825 331.121C193.663 326.571 181.523 293.656 179.788 286.678C178.054 279.701 169.225 274.999 159.292 273.785C149.359 272.269 141.003 273.634 141.003 273.634Z" fill="#424242"/>
<path d="M169.856 344.925C169.856 344.925 169.068 350.233 171.275 352.509C173.482 354.784 183.888 367.98 178.37 381.025C173.324 393.008 163.549 392.705 163.549 392.705H148.413C148.413 392.705 152.828 414.244 151.409 428.35C149.99 442.456 143.211 474.765 143.211 476.433C143.053 478.102 136.746 483.107 135.012 480.529C135.012 480.529 134.854 461.113 133.908 453.681C132.962 446.4 128.705 416.974 127.444 412.575C126.183 408.176 118.615 394.98 118.615 393.615C118.615 392.25 111.362 371.014 127.286 365.553C142.895 360.245 148.571 345.076 169.856 344.925Z" fill="#B9B9B9"/>
<path d="M127.129 495.545C127.129 495.545 116.565 507.377 117.826 509.5C118.93 511.624 129.336 512.686 135.8 510.865C142.264 509.045 143.683 494.18 146.994 487.961C148.413 485.383 146.521 477.343 143.053 476.433C139.584 475.523 135.169 477.04 135.169 477.04C135.169 477.04 138.007 486.444 127.129 495.545Z" fill="#D8D8D8"/>
<path d="M135.168 477.04C135.168 477.04 133.907 482.804 132.331 486.899C130.754 490.995 123.501 499.944 123.817 501.157C123.974 502.371 132.015 504.039 135.484 501.309C138.952 498.579 142.263 490.236 143.052 485.079C143.84 479.922 143.052 476.433 143.052 476.433C143.052 476.433 138.479 474.158 135.168 477.04Z" fill="#B9B9B9"/>
<path d="M146.992 487.961L145.889 501.309L144.154 501.158L144.943 490.843L146.992 487.961Z" fill="#D8D8D8"/>
<path d="M178.37 381.025C173.64 393.16 163.549 392.705 163.549 392.705H148.414C148.414 392.705 142.107 382.997 126.498 381.328C123.029 381.025 119.088 381.025 114.831 381.632H114.673C94.0191 384.514 97.9607 391.794 98.1184 392.098C96.3841 388.002 94.6498 381.632 94.9651 378.143C97.0148 362.368 120.507 359.183 124.448 354.632C128.232 350.082 124.448 343.863 124.448 343.863C159.765 333.852 165.126 345.228 165.126 345.228C166.703 345.076 170.644 342.801 172.379 342.801C172.379 342.801 174.113 346.593 175.374 349.93C176.32 352.964 183.573 367.98 178.37 381.025Z" fill="#424242"/>
<path d="M163.705 294.566L168.908 341.284H100.009L94.8057 294.566H163.705Z" fill="#C1C1C1"/>
<path d="M174.428 337.037H162.919V341.284H174.428V337.037Z" fill="#C1C1C1"/>
<path d="M242.382 341.284H52.7109V347.655H242.382V341.284Z" fill="#909090"/>
<path d="M148.571 222.668C148.571 222.668 164.022 227.067 161.815 247.696C159.608 268.324 149.517 267.263 148.571 267.414C147.625 267.566 135.643 268.324 131.859 243.297C128.075 218.269 148.571 222.668 148.571 222.668Z" fill="#B9B9B9"/>
<path d="M155.981 263.471C155.981 263.471 155.193 270.297 156.454 274.544C157.873 278.791 138.48 278.943 138.48 275.454C138.48 271.51 140.53 268.173 138.638 261.348C136.746 254.522 155.981 263.471 155.981 263.471Z" fill="#B9B9B9"/>
<path d="M144.63 231.769C144.63 231.769 152.987 244.662 161.816 247.544C161.816 247.544 166.704 226.005 146.68 221.455C126.814 216.904 129.968 243.145 131.387 250.123C131.387 250.275 135.644 239.96 144.63 231.769Z" fill="#D6D6D6"/>
<path d="M141.003 264.381C141.003 264.381 147.152 270.448 154.877 264.988C154.877 264.988 154.247 268.931 148.571 269.386C143.053 269.841 141.003 264.381 141.003 264.381Z" fill="#838383"/>
<path d="M133.437 229.797C133.437 229.797 137.851 221.606 145.261 221.151C152.672 220.848 157.086 227.067 157.086 227.067C157.086 227.067 154.248 220.089 145.261 220.089C136.274 220.089 133.437 229.797 133.437 229.797Z" fill="#23344A"/>
<path d="M158.503 273.634C158.503 273.634 158.187 287.892 146.52 288.347C134.695 288.802 137.218 274.695 137.218 274.695C137.218 274.695 145.732 271.207 158.503 273.634Z" fill="#B9B9B9"/>
<path d="M242.223 347.655H237.335V493.877H242.223V347.655Z" fill="#747474"/>
<path d="M57.5985 347.655H52.7109V493.877H57.5985V347.655Z" fill="#747474"/>
<path d="M627.718 218.421C627.718 218.421 642.854 222.668 641.908 242.387C640.962 262.106 627.718 218.421 627.718 218.421Z" fill="#B9B9B9"/>
<path d="M626.297 218.421C626.297 218.421 627.401 219.938 625.982 229.797C624.563 239.656 627.243 243.752 627.559 247.847C627.874 251.943 632.919 278.336 633.077 279.549C633.234 280.762 633.865 294.717 635.757 298.509C637.649 302.301 651.997 323.385 652.154 324.447C652.312 325.509 659.092 320.807 659.092 320.807C659.092 320.807 646.321 295.172 645.375 292.594C644.271 289.408 641.118 281.673 640.96 277.577C640.487 267.566 641.433 244.51 641.118 239.505C640.645 229.797 632.919 219.938 626.297 218.421Z" fill="#B9B9B9"/>
<path d="M645.534 302.605C645.534 302.605 647.741 307.307 649.16 307.611C650.421 307.914 651.998 309.431 653.259 310.037C654.363 310.492 657.989 310.796 658.935 311.706C659.251 312.009 660.827 315.195 661.773 315.953C662.719 316.56 664.611 317.773 663.981 318.532C663.35 319.29 661.3 318.683 661.3 318.683C661.3 318.683 662.089 319.29 661.773 320.048C661.143 321.565 660.039 321.717 660.039 321.717C660.039 321.717 660.354 322.93 659.881 323.385C658.935 324.599 657.832 324.751 657.832 324.751C657.832 324.751 657.674 325.661 656.886 326.267C655.782 327.178 654.521 326.723 654.521 326.723C654.521 326.723 653.417 328.088 652.471 327.936C651.525 327.633 650.894 327.026 650.264 326.571C649.633 326.116 644.588 320.807 642.853 315.65C641.119 310.644 637.966 306.397 637.966 306.397L645.534 302.605Z" fill="#ABABAB"/>
<path d="M686.925 296.292L660.11 264.482L605.004 307.478L631.819 339.287L686.925 296.292Z" fill="#3C3C3C"/>
<path d="M660.983 317.925C660.983 317.925 656.726 313.374 654.519 313.374C652.311 313.526 653.888 315.194 653.888 315.194C653.888 315.194 652.469 313.526 650.893 314.436C649.316 315.346 651.208 317.318 651.208 317.318C651.208 317.318 649.789 316.256 648.685 317.773C647.582 319.29 649.474 320.503 649.474 320.503C649.474 320.503 646.636 320.048 647.266 322.324C648.212 326.116 652.469 327.936 652.469 327.936C652.469 327.936 653.573 328.239 654.676 326.722C654.676 326.722 657.357 327.632 657.987 324.75C657.987 324.75 661.141 323.992 660.037 321.717C660.037 321.717 663.348 320.503 660.983 317.925Z" fill="#ABABAB"/>
<path d="M614 160.782C614 160.782 592.242 158.961 592.715 181.107C593.346 203.253 596.972 206.438 592.715 222.061C588.458 237.685 614 213.264 614 213.264V160.782Z" fill="#D6D6D6"/>
<path d="M590.192 297.144C590.192 297.144 582.151 307.004 579.313 313.526C576.475 320.048 571.745 334.306 572.376 345.379C573.007 356.452 576.791 377.233 575.687 381.935C574.583 386.637 573.48 396.345 572.376 399.682C571.115 403.019 566.543 412.726 566.07 422.737C565.597 432.748 572.691 476.736 572.376 480.832C572.061 484.927 580.417 482.5 580.417 482.5C580.417 482.5 583.255 442.76 584.832 435.934C586.408 429.108 588.3 405.901 589.719 404.232C591.138 402.564 595.08 385.272 594.449 382.542C593.819 379.811 609.9 338.857 610.846 330.666C611.792 322.475 635.442 297.144 635.442 297.144C635.442 297.144 614.63 289.56 590.192 297.144Z" fill="#BABABA"/>
<path d="M628.505 297.144C628.505 297.144 628.978 301.24 629.451 302.757C629.924 304.273 640.803 342.952 641.907 357.817C643.01 372.682 645.848 385.272 646.321 388.457C646.794 391.643 645.848 402.26 644.902 404.991C643.957 407.721 649.632 472.186 650.105 473.703C650.578 475.22 646.321 475.675 643.326 475.22C640.33 474.765 625.194 427.895 626.14 420.007C627.086 412.12 628.032 395.283 625.352 388.457C622.672 381.632 598.549 332.183 598.391 329.149C598.234 326.116 587.985 273.937 628.505 297.144Z" fill="#BABABA"/>
<path d="M580.103 477.646C580.103 477.646 580.891 482.804 581.679 484.32C582.468 485.686 584.832 492.966 585.936 494.331C587.04 495.697 589.405 505.859 585.936 507.073C582.468 508.286 574.584 510.41 571.904 506.314C569.224 502.219 568.908 498.124 569.224 495.09C569.697 491.905 572.85 477.646 572.85 476.13C572.85 474.764 580.103 477.646 580.103 477.646Z" fill="#BABABA"/>
<path d="M584.673 491.449C584.673 491.449 584.988 499.337 578.839 499.337C572.69 499.337 569.852 492.056 569.852 492.056C569.852 492.056 567.803 495.545 569.852 503.129C571.902 510.713 580.731 509.045 582.781 508.893C584.673 508.741 594.133 506.314 584.673 491.449Z" fill="white"/>
<path d="M649.317 470.518C649.317 470.518 653.732 478.102 656.255 479.619C659.566 481.59 665.872 487.658 668.079 487.961C670.287 488.264 678.17 489.63 676.751 493.877C675.49 497.365 656.57 496.91 654.52 495.09C652.313 493.27 646.006 487.051 643.484 487.051C640.961 487.203 641.907 496.152 641.907 496.152H639.069C639.069 496.152 638.123 487.354 637.965 485.837C637.65 481.439 640.961 478.102 641.119 475.523C641.276 472.944 641.434 471.124 641.434 471.124L649.317 470.518Z" fill="white"/>
<path d="M667.448 487.658C667.448 487.658 661.141 489.781 656.411 487.051C651.681 484.472 642.379 480.377 639.226 480.377C639.226 480.377 640.96 475.219 640.96 474.613C640.96 474.006 641.118 471.276 641.118 471.276L649.158 470.062C649.158 470.062 654.361 477.495 656.726 479.163C659.091 480.832 665.083 485.231 667.448 487.658Z" fill="#BABABA"/>
<path d="M635.442 296.538C635.442 296.538 637.649 305.487 638.438 308.065C639.226 310.644 644.587 351.295 645.848 376.626C645.848 376.626 614 388.154 570.327 386.334C570.327 386.334 569.223 339.767 573.322 326.571C577.264 313.374 584.674 301.088 590.035 297.296C595.08 293.807 635.442 296.538 635.442 296.538Z" fill="#797979"/>
<path d="M640.96 243.449C640.645 248.757 638.28 252.246 637.807 254.218C637.334 256.19 637.807 260.589 637.176 264.987C636.545 269.386 634.811 290.622 635.442 296.537C636.072 302.605 592.399 299.874 589.088 298.054C589.088 298.054 596.498 285.465 596.656 280.156C596.656 278.336 597.917 272.723 594.764 268.628C593.187 266.504 590.192 259.527 587.196 254.521C587.196 254.521 587.827 253.46 587.196 254.521C586.092 252.549 584.831 250.578 583.885 249.212C582.782 247.392 582.151 245.117 582.151 245.117C582.151 245.117 580.259 221.91 585.462 219.331C590.822 216.752 593.66 216.297 598.863 215.994C604.066 215.691 607.535 214.781 607.535 214.781L619.675 215.994C619.675 215.994 623.932 217.966 627.085 218.118C630.081 218.269 633.865 224.792 635.757 229.342C637.334 233.286 641.275 238.14 640.96 243.449Z" fill="#E8E8E8"/>
<path d="M592.242 216.904C592.242 216.904 582.625 217.662 578.998 226.157C575.372 234.651 575.687 243.297 574.899 246.482C574.111 249.667 573.007 267.869 572.061 270.6C571.273 273.33 568.435 285.768 567.804 295.931C567.174 306.093 568.75 327.329 568.75 327.329L574.111 324.902C574.111 324.902 578.841 293.352 580.89 286.678C582.625 280.914 582.625 271.206 583.571 267.718C584.517 264.229 590.666 243.145 591.612 241.021C593.188 237.533 600.441 216.752 592.242 216.904Z" fill="#B9B9B9"/>
<path d="M611.792 162.904C617.153 161.994 629.608 163.359 633.077 177.011C633.077 177.011 633.077 180.803 632.446 183.837C631.815 186.87 635.599 195.213 634.969 195.668C634.338 196.123 631.342 197.033 631.342 197.033C631.342 197.033 629.293 206.892 625.824 207.196C622.356 207.499 608.954 206.286 601.386 195.213C593.976 184.292 590.034 166.393 611.792 162.904Z" fill="#B9B9B9"/>
<path d="M620.779 203.556C620.779 203.556 620.464 204.921 620.306 206.893C620.148 207.955 619.991 209.168 619.991 210.382C619.833 213.87 619.833 217.966 621.094 220.544C621.094 220.544 614.315 224.488 607.062 214.78C607.062 214.78 607.851 202.798 603.594 196.275C599.494 189.905 620.779 203.556 620.779 203.556Z" fill="#B9B9B9"/>
<path d="M633.076 177.012C633.076 177.012 624.878 183.837 616.364 185.961C607.692 188.085 603.12 197.337 603.12 197.337C603.12 197.337 587.827 182.624 597.129 168.517C606.273 154.411 633.076 160.782 633.076 177.012Z" fill="#D6D6D6"/>
<path d="M620.307 206.893C620.15 207.955 619.992 209.168 619.992 210.382C612.424 206.893 608.167 202.039 608.167 202.039C612.582 205.073 620.307 206.893 620.307 206.893Z" fill="#838383"/>
<path d="M614.788 186.416C614.788 186.416 605.959 209.168 607.063 214.781C607.063 214.781 602.333 214.022 594.134 216.449C593.977 216.449 598.076 175.798 614.788 186.416Z" fill="#D6D6D6"/>
<path d="M604.067 215.539C604.067 215.539 606.905 232.679 617.784 230.707C628.505 228.735 620.307 216.297 620.307 216.297C620.307 216.297 615.577 212.354 604.067 215.539Z" fill="#B9B9B9"/>
<path d="M574.109 323.841C574.109 323.841 574.898 326.571 576.317 329.301C576.947 330.666 577.893 339.616 577.893 340.829C577.893 341.739 577.263 341.284 576.79 340.677C576.632 340.374 575.686 337.189 575.055 335.672C574.425 334.307 573.952 333.852 573.794 334.307C573.636 334.762 573.636 340.526 574.267 342.953C575.055 345.38 574.898 351.143 573.479 350.385C572.06 349.627 568.118 339.616 568.118 335.672C568.118 331.728 568.749 327.026 568.749 327.026L574.109 323.841Z" fill="#B9B9B9"/>
<defs>
<linearGradient id="paint0_linear" x1="539.439" y1="530.28" x2="536.423" y2="455.054" gradientUnits="userSpaceOnUse">
<stop stop-color="#F0F0F0"/>
<stop offset="1" stop-color="#E1E1E1"/>
</linearGradient>
<linearGradient id="paint1_linear" x1="202.87" y1="335.207" x2="300.241" y2="335.207" gradientUnits="userSpaceOnUse">
<stop stop-color="#A5A5A5"/>
<stop offset="1" stop-color="#808080"/>
</linearGradient>
<linearGradient id="paint2_linear" x1="274.303" y1="387.48" x2="362.356" y2="387.48" gradientUnits="userSpaceOnUse">
<stop stop-color="#9B9B9B"/>
<stop offset="1" stop-color="#838383"/>
</linearGradient>
<linearGradient id="paint3_linear" x1="281.827" y1="399.798" x2="347.918" y2="399.798" gradientUnits="userSpaceOnUse">
<stop stop-color="#A5A5A5"/>
<stop offset="1" stop-color="#7C7C7C"/>
</linearGradient>
<linearGradient id="paint4_linear" x1="257.963" y1="348.633" x2="334.93" y2="348.633" gradientUnits="userSpaceOnUse">
<stop stop-color="#A3A3A3"/>
<stop offset="1" stop-color="#7C7C7C"/>
</linearGradient>
<linearGradient id="paint5_linear" x1="240.3" y1="454.846" x2="311.325" y2="454.846" gradientUnits="userSpaceOnUse">
<stop stop-color="#BDBDBD"/>
<stop offset="1" stop-color="#C8C8C8"/>
</linearGradient>
<linearGradient id="paint6_linear" x1="240.3" y1="454.846" x2="311.325" y2="454.846" gradientUnits="userSpaceOnUse">
<stop stop-color="#888888"/>
<stop offset="1" stop-color="#C6C6C6"/>
</linearGradient>
</defs>
</svg>
