<svg width="1105" height="268" viewBox="0 0 1105 268" fill="none" xmlns="http://www.w3.org/2000/svg">
<path d="M541.995 50.3394L621.616 50.6427L621.3 106.159V117.838L609.16 106.159L541.68 105.855L541.995 50.3394Z" fill="#D02E1B"/>
<path d="M575.581 80.524C575.581 83.7093 578.261 86.4396 581.572 86.4396C584.883 86.4396 587.721 83.861 587.721 80.6756C587.721 77.4903 585.041 74.76 581.73 74.76C578.261 74.6083 575.581 77.187 575.581 80.524Z" fill="white"/>
<path d="M555.559 80.3721C555.559 83.5574 558.239 86.2877 561.55 86.2877C564.861 86.2877 567.699 83.7091 567.699 80.5238C567.699 77.3384 565.018 74.6082 561.708 74.6082C558.397 74.6082 555.716 77.1867 555.559 80.3721Z" fill="white"/>
<path d="M595.129 80.5239C595.129 83.7092 597.809 86.4395 601.12 86.4395C604.431 86.4395 607.269 83.8609 607.269 80.6756C607.269 77.4902 604.589 74.7599 601.278 74.7599C597.809 74.6083 595.129 77.3386 595.129 80.5239Z" fill="white"/>
<path d="M922.046 47L809 47.455L809.315 126.33L809.473 143.015L826.658 126.33L922.519 125.875L922.046 47Z" fill="#CDCDCD"/>
<path d="M874.274 89.7747C874.274 94.3252 870.49 98.1172 865.602 98.1172C860.872 98.1172 856.931 94.4768 856.931 89.7747C856.931 85.2242 860.715 81.4321 865.602 81.4321C870.49 81.4321 874.274 85.2242 874.274 89.7747Z" fill="white"/>
<path d="M902.654 89.6228C902.654 94.1733 898.87 97.9654 893.982 97.9654C889.252 97.9654 885.311 94.325 885.311 89.6228C885.311 85.0723 889.094 81.2803 893.982 81.2803C898.87 81.432 902.654 85.0723 902.654 89.6228Z" fill="white"/>
<path d="M846.683 89.9258C846.683 94.4763 842.899 98.2683 838.011 98.2683C833.281 98.2683 829.34 94.628 829.34 89.9258C829.34 85.3753 833.124 81.5833 838.011 81.5833C842.741 81.5833 846.683 85.2236 846.683 89.9258Z" fill="white"/>
<path d="M430.371 207.786C432.736 201.415 429.425 194.437 422.803 192.162C416.181 189.887 408.928 193.072 406.563 199.443C406.563 199.443 406.248 199.898 406.09 201.112C405.933 201.567 405.933 201.87 405.933 202.325C405.46 206.117 405.46 213.853 408.928 228.718C421.699 219.617 426.902 213.55 429.109 210.516C429.425 210.212 429.582 209.757 429.74 209.454C430.371 208.392 430.371 207.786 430.371 207.786ZM415.708 210.668C411.609 209.151 409.559 204.904 410.978 200.96C412.555 197.016 416.969 195.044 421.068 196.409C425.168 197.926 427.217 202.173 425.798 206.117C424.379 210.061 419.807 212.184 415.708 210.668Z" fill="#CDCDCD"/>
<path d="M974.786 38.0532L960.439 31.9859C959.335 31.5308 958.704 30.1657 959.177 29.1039C959.65 28.0421 961.069 27.4354 962.173 27.8904L972.264 32.1375L979.516 16.5142C979.989 15.4525 981.408 14.8457 982.512 15.4525C983.615 15.9075 984.246 17.2726 983.615 18.3344L974.786 38.0532Z" fill="#787878"/>
<path d="M991.026 51.2495C977.783 60.1988 959.493 57.1651 950.191 44.4238C940.889 31.6825 944.042 14.0873 957.286 5.13799C970.53 -3.81129 988.819 -0.777637 998.121 11.9637C1007.58 24.7051 1004.27 42.3002 991.026 51.2495ZM959.809 8.47501C948.457 16.2108 945.777 31.2274 953.66 42.1486C961.543 53.0697 977.31 55.6483 988.661 48.0642C1000.01 40.3284 1002.69 25.3118 994.81 14.3906C986.769 3.46948 971.161 0.739196 959.809 8.47501Z" fill="#787878"/>
<path d="M387.869 140.515L349.712 133.021L344.378 158.138L382.535 165.631L387.869 140.515Z" fill="#CBCBCB"/>
<path d="M344.445 158.186L366.518 147.872L382.6 165.618L344.445 158.186Z" fill="#C5C5C5"/>
<path d="M387.801 140.439L365.413 152.422L349.646 133.006L387.801 140.439Z" fill="#B8B8B8"/>
</svg>
