<?xml version="1.0" encoding="utf-8"?>
<!-- Generator: Adobe Illustrator 24.0.1, SVG Export Plug-In . SVG Version: 6.00 Build 0)  -->
<svg version="1.1" id="Layer_1" xmlns="http://www.w3.org/2000/svg" xmlns:xlink="http://www.w3.org/1999/xlink" x="0px" y="0px"
	 viewBox="0 0 1105 268" style="enable-background:new 0 0 1105 268;" xml:space="preserve">
<style type="text/css">
	.st0{fill:#CDCDCD;}
	.st1{fill:#FFFFFF;}
	.st2{fill:#D02E1B;}
	.st3{fill:#D2D2D2;}
</style>
<path class="st0" d="M564,163l-79.6,0.3l0.3,55.5v11.7l12.1-11.7l67.5-0.3L564,163z"/>
<path class="st1" d="M530.4,193c0,3.2-2.7,5.9-6,5.9s-6.1-2.6-6.1-5.8c0-3.2,2.7-5.9,6-5.9C527.8,187.2,530.4,189.8,530.4,193z"/>
<path class="st1" d="M550.5,193c0,3.2-2.7,5.9-6,5.9c-3.3,0-6.1-2.6-6.1-5.8c0-3.2,2.7-5.9,6-5.9C547.6,187.2,550.5,189.8,550.5,193
	z"/>
<path class="st1" d="M510.9,193.2c0,3.2-2.7,5.9-6,5.9s-6.1-2.6-6.1-5.8c0-3.2,2.7-5.9,6-5.9C508.2,187.2,510.9,190,510.9,193.2z"/>
<path class="st2" d="M1103.2,66.2l-99.5,0.3l0.3,69.5l0.2,14.6l15.1-14.6l84.2-0.5L1103.2,66.2z"/>
<path class="st1" d="M1061.2,103.8c0,4.1-3.3,7.3-7.6,7.3s-7.6-3.2-7.6-7.3c0-4.1,3.3-7.3,7.6-7.3
	C1057.7,96.5,1061.2,99.7,1061.2,103.8z"/>
<path class="st1" d="M1086.1,103.7c0,4.1-3.3,7.3-7.6,7.3c-4.3,0-7.6-3.2-7.6-7.3c0-4.1,3.3-7.3,7.6-7.3
	C1082.8,96.4,1086.1,99.7,1086.1,103.7z"/>
<path class="st1" d="M1036.8,103.8c0,4.1-3.3,7.3-7.6,7.3s-7.6-3.2-7.6-7.3c0-4.1,3.3-7.3,7.6-7.3S1036.8,99.9,1036.8,103.8z"/>
<path class="st2" d="M1,54.1l119.4,0.5l-0.3,83.3l-0.2,17.6l-18.1-17.6L0.5,137.3L1,54.1z"/>
<path class="st1" d="M51.3,99.3c0,4.9,4.1,8.8,9.1,8.8s9.1-3.9,9.1-8.8s-4.1-8.8-9.1-8.8S51.3,94.4,51.3,99.3z"/>
<path class="st1" d="M21.3,99.1c0,4.9,4.1,8.8,9.1,8.8s9.1-3.9,9.1-8.8c0-4.9-4.1-8.8-9.1-8.8C25.4,90.5,21.3,94.3,21.3,99.1z"/>
<path class="st1" d="M80.6,99.3c0,4.9,4.1,8.8,9.1,8.8c5,0,9.1-3.9,9.1-8.8s-4.1-8.8-9.1-8.8C84.7,90.6,80.6,94.6,80.6,99.3z"/>
<path class="st3" d="M233.9,107.3c-1.9,0.6-3.8,0.6-5.5,0c-1.9-0.6-3.5-2-4.1-3.6c-1.7-3.2-4.3-6.2-6.1-8.3
	c-5.7-1.5-10.1-5.8-11.8-11.1c-3-8.9,2-18.5,11.4-21.4c9.3-2.9,19.2,2,22.2,10.9c1.6,4.9,0.9,10.2-1.9,14.4c0.2,3.6,0.6,6.8,1.6,9.6
	c1.4,3.5-0.8,7.6-5,9.3C234.2,107.2,234,107.2,233.9,107.3z M218.1,64.2c-8.5,2.6-13.2,11.5-10.4,19.7c1.7,5,5.8,8.8,11,10.3h0.2
	l0.2,0.2c2.1,2.1,4.7,5.3,6.5,8.8c0.5,1.4,1.7,2.3,3.3,2.9c1.6,0.5,3.5,0.5,5-0.2c3.5-1.4,5.4-4.7,4.3-7.4
	c-0.9-2.9-1.4-6.2-1.6-10.2v-0.2l0.2-0.2c2.7-3.9,3.5-8.8,1.9-13.3C235.8,66,226.6,61.5,218.1,64.2z"/>
<path class="st3" d="M228.5,103.1l-9.5-16.2l5,1.5l1.3-3.5l2.8,1.5l2.4-4.1l5.2,18.1l-1.4,0.3l-4.3-14.6l-1.3,2.3l-2.7-1.5l-1.3,3.2
	l-2.8-0.9l7.7,13.3L228.5,103.1z"/>
<path class="st3" d="M239.7,103.2l-11.7,4.5l1.9,4.5l11.7-4.5L239.7,103.2z"/>
<path class="st3" d="M239.5,98l-15.4,5.9l3.1,7.3l15.4-5.9L239.5,98z"/>
</svg>
