<svg width="187" height="150" viewBox="0 0 187 150" fill="none" xmlns="http://www.w3.org/2000/svg">
<path opacity="0.2" d="M102.797 150C148.775 150 186.047 145.849 186.047 140.727C186.047 135.606 148.775 131.454 102.797 131.454C56.8192 131.454 19.5469 135.606 19.5469 140.727C19.5469 145.849 56.8192 150 102.797 150Z" fill="#E2E2E2"/>
<path d="M67.8369 47.5367L73.2751 46.5686L72.1569 40.1995L66.5663 41.1676C66.3122 40.6581 66.0072 40.1995 65.7023 39.7409L69.26 35.5119L64.33 31.3338L60.7215 35.7157C60.2133 35.5119 59.705 35.3081 59.1459 35.2062V29.6523H52.6913V35.359C52.183 35.5119 51.6748 35.7157 51.1666 35.9705L47.6089 31.7414L42.6789 35.9195L46.3383 40.3014C46.0333 40.76 45.7792 41.2695 45.5251 41.7281L40.0869 40.76L38.9688 47.1291L44.5594 48.0972C44.6102 48.6577 44.7119 49.1672 44.8644 49.7277L40.0869 52.4791L43.3396 58.0839L48.2696 55.2305C48.6762 55.5872 49.0828 55.9439 49.5402 56.2496L47.6597 61.4467L53.7586 63.6887L55.6899 58.3386C55.8932 58.3386 56.0457 58.3386 56.249 58.3386C56.6047 58.3386 56.9605 58.3386 57.3163 58.2877L59.1968 63.4848L65.2957 61.2429L63.3644 55.8929C63.8218 55.5363 64.2284 55.1796 64.5841 54.8229L69.3616 57.5743L72.6143 51.9696L67.6844 49.1162C67.7352 48.6067 67.8369 48.0972 67.8369 47.5367ZM56.0965 55.2305C51.3698 55.2305 47.558 51.4091 47.558 46.6705C47.558 41.9319 51.3698 38.1105 56.0965 38.1105C60.8231 38.1105 64.635 41.9319 64.635 46.6705C64.6858 51.4091 60.8231 55.2305 56.0965 55.2305Z" fill="#575757"/>
<path d="M149.513 16.8125L162.27 25.2707L161.355 31.6399L149.513 16.8125Z" fill="#ADADAD"/>
<path d="M159.376 26.8004L161.053 31.2854L156.937 26.6475L159.376 26.8004Z" fill="#8A8A8A"/>
<path d="M149.513 16.8125L168.267 24.3533L162.27 25.2705L149.513 16.8125Z" fill="#CDCDCD"/>
<path d="M149.513 16.8125L159.373 26.7991L152.156 29.1429L149.513 16.8125Z" fill="#CDCDCD"/>
<path d="M149.056 109.082C149.056 109.082 150.632 110.713 152.004 112.496C154.748 113.209 157.849 113.413 161.406 112.751C161.152 111.477 160.796 110.152 160.39 109.388C160.39 109.388 161.762 110.866 163.083 112.547C164.71 112.343 167.404 112.037 170.402 111.885C169.996 110.764 169.538 109.694 169.081 109.031C169.081 109.031 170.707 110.305 172.232 111.783C176.044 111.63 180.059 111.783 182.803 112.649C182.803 112.649 181.024 106.433 175.942 100.777C172.486 101.185 168.623 101.032 168.623 101.032C169.996 100.624 171.978 99.5545 173.706 98.4845C171.673 96.7012 169.233 95.0199 166.336 93.848C163.236 94.8161 160.034 95.3765 160.034 95.3765C161 94.867 162.219 93.8989 163.388 92.829C160.542 92.0137 157.29 91.6571 153.63 91.8609C151.343 93.6951 149.056 95.1727 149.056 95.1727C149.666 94.4594 150.327 93.3385 150.886 92.1157C146.464 92.6761 141.534 94.1027 135.943 96.6503C135.943 96.6503 139.908 107.91 149.869 111.834C149.666 110.764 149.412 109.745 149.056 109.082Z" fill="#7E7E7E"/>
<path d="M179.804 109.899C176.755 108.88 173.654 107.912 170.554 106.995C167.454 106.027 164.354 105.11 161.253 104.193C155.053 102.359 148.852 100.626 142.601 98.9958C139.501 98.1806 136.349 97.4163 133.198 96.6521C130.047 95.9387 126.896 95.2254 123.745 94.614C122.17 94.3083 120.594 94.0026 119.018 93.7478C117.443 93.4931 115.867 93.2383 114.241 93.0345C112.665 92.8307 111.039 92.6778 109.463 92.6269C108.65 92.5759 107.888 92.5759 107.075 92.5759C106.312 92.6269 105.499 92.6778 104.788 92.7797C104.33 92.8307 103.873 92.525 103.771 92.0664C103.72 91.6079 104.025 91.1493 104.483 91.0474C105.347 90.9455 106.16 90.8945 107.024 90.8945C107.837 90.8945 108.701 90.8945 109.514 90.9964C111.141 91.0983 112.767 91.3022 114.393 91.506C116.02 91.7607 117.595 92.0155 119.222 92.3212C120.797 92.6269 122.424 92.9326 123.999 93.2893C127.15 94.0026 130.301 94.7669 133.452 95.5311C136.604 96.3464 139.704 97.2125 142.804 98.0787C149.005 99.862 155.205 101.696 161.406 103.683C164.506 104.651 167.556 105.67 170.656 106.69C173.705 107.709 176.806 108.728 179.855 109.798C179.906 109.798 179.906 109.849 179.906 109.899C179.855 109.899 179.804 109.899 179.804 109.899Z" fill="#6D6D6D"/>
<path d="M140.414 105.672C140.414 105.672 139.6 108.882 139.092 112.041C140.515 114.13 142.447 116.015 145.14 117.391C145.242 115.2 145.445 113.06 146.004 112.194C146.004 112.194 146.157 115.047 146.513 118.002C147.377 118.359 148.291 118.665 149.257 118.92C149.257 118.92 150.629 119.327 152.662 119.99C152.408 118.818 152.306 117.85 152.408 117.238C152.408 117.238 152.967 118.614 153.73 120.346C157.643 121.722 163.081 123.964 165.724 126.41C165.724 126.41 166.486 121.722 165.063 116.066C161.811 114.385 158.405 113.06 158.405 113.06C159.524 112.602 161.912 113.009 164.301 113.672C163.539 111.633 162.471 109.493 160.947 107.506C158.05 106.844 153.882 106.64 153.882 106.64C154.695 105.927 157.186 105.723 159.32 105.672C157.084 103.379 154.136 101.341 150.172 99.8635C147.122 100.271 144.225 100.933 144.225 100.933C144.835 100.322 146.258 99.7106 147.936 99.1502C144.48 98.1311 140.312 97.5197 135.433 97.4688C135.433 97.4688 134.772 104.347 138.076 110.462C138.838 108.322 139.651 106.385 140.414 105.672Z" fill="#575757"/>
<path d="M161.507 121.211C159.525 119.326 157.492 117.492 155.459 115.658C153.426 113.823 151.393 111.989 149.31 110.155C145.193 106.537 141.025 102.971 136.807 99.4552C134.672 97.7228 132.588 95.9905 130.403 94.3091C128.268 92.6277 126.083 90.9463 123.897 89.3159C122.779 88.5007 121.661 87.7364 120.543 86.9212C119.425 86.1569 118.307 85.3927 117.138 84.6793C115.969 83.966 114.8 83.2527 113.631 82.6413C113.021 82.3356 112.411 82.0299 111.801 81.7751C111.191 81.5204 110.582 81.2656 109.972 81.1128C109.565 81.0109 109.362 80.6032 109.463 80.1956C109.565 79.788 109.972 79.5842 110.378 79.6861C111.09 79.8899 111.75 80.1956 112.36 80.4504C113.021 80.7561 113.631 81.0618 114.241 81.4185C115.461 82.0808 116.63 82.8451 117.799 83.5584C118.968 84.3227 120.086 85.087 121.204 85.9022C122.322 86.7174 123.44 87.5326 124.507 88.3478C126.693 90.0292 128.827 91.7106 130.962 93.4939C133.097 95.2262 135.18 97.0095 137.264 98.7928C141.432 102.359 145.498 106.028 149.513 109.747C151.546 111.582 153.528 113.467 155.51 115.352C157.492 117.237 159.474 119.122 161.457 121.058V121.109C161.558 121.262 161.558 121.262 161.507 121.211Z" fill="#4A4A4A"/>
<path d="M157.291 86.2072C157.291 86.2072 159.832 85.0863 162.475 84.2201C164.457 81.3668 165.931 77.8002 166.592 73.4184C165.016 73.2146 163.39 73.0618 162.272 73.1637C162.272 73.1637 164.508 72.1446 166.999 71.3294C167.405 69.3423 168.167 66.0814 169.184 62.5657C167.761 62.5657 166.287 62.6676 165.321 62.9734C165.321 62.9734 167.456 61.5977 169.794 60.4258C171.217 55.942 172.996 51.3564 175.13 48.5031C175.13 48.5031 167.202 47.9936 158.613 51.6112C157.647 55.7892 155.919 60.222 155.919 60.222C156.02 58.4387 155.614 55.7382 155.055 53.2926C152.158 54.923 149.261 57.063 146.669 59.9163C146.516 63.8905 145.856 67.8137 145.856 67.8137C145.652 66.489 145.042 64.6548 144.28 62.8714C142.196 65.8776 140.417 69.4442 139.147 73.826C140.316 77.2398 141.078 80.4497 141.078 80.4497C140.468 79.4307 139.452 78.2588 138.334 77.0869C137.215 82.4368 136.809 88.7548 137.47 96.2447C137.47 96.2447 152.056 96.2447 160.696 86.3091C159.527 86.1563 158.206 86.1053 157.291 86.2072Z" fill="#9B9B9B"/>
<path d="M170.809 50.8979C168.42 54.0569 166.032 57.2159 163.694 60.4258C161.356 63.6357 159.018 66.8457 156.68 70.0556C152.055 76.5264 147.481 82.9972 143.059 89.5699C140.823 92.8817 138.688 96.1936 136.554 99.5054C134.419 102.868 132.335 106.231 130.302 109.645C129.286 111.326 128.32 113.058 127.354 114.791C126.389 116.523 125.474 118.255 124.61 120.039C123.746 121.822 122.933 123.605 122.17 125.389C121.814 126.306 121.459 127.223 121.154 128.14C120.849 129.057 120.595 129.974 120.442 130.891C120.341 131.452 119.782 131.859 119.172 131.758C118.613 131.656 118.206 131.095 118.308 130.484C118.511 129.465 118.816 128.446 119.121 127.478C119.477 126.51 119.832 125.541 120.239 124.624C121.052 122.739 121.916 120.956 122.831 119.173C123.746 117.389 124.711 115.657 125.728 113.925C126.744 112.192 127.761 110.511 128.777 108.779C130.861 105.365 133.047 102.053 135.232 98.7411C137.468 95.4293 139.705 92.1684 141.992 88.9075C146.566 82.3858 151.242 76.0169 156.019 69.648C158.408 66.489 160.797 63.33 163.236 60.1711C165.676 57.0121 168.115 53.9041 170.555 50.796C170.606 50.7451 170.606 50.7451 170.657 50.796C170.809 50.796 170.809 50.847 170.809 50.8979Z" fill="#818181"/>
<path d="M34.2941 109.087C34.2941 109.087 32.7186 110.717 31.3463 112.5C28.6018 113.214 25.5016 113.417 21.9439 112.755C22.198 111.481 22.5538 110.157 22.9603 109.392C22.9603 109.392 21.5881 110.87 20.2667 112.551C18.6403 112.347 15.9466 112.042 12.948 111.889C13.3546 110.768 13.812 109.698 14.2694 109.036C14.2694 109.036 12.643 110.309 11.1183 111.787C7.30649 111.634 3.29138 111.787 0.546875 112.653C0.546875 112.653 2.32572 106.437 7.40814 100.781C10.8642 101.189 14.7268 101.036 14.7268 101.036C13.3546 100.629 11.3724 99.5585 9.64441 98.4886C11.6774 96.7052 14.1169 95.0238 17.0139 93.8519C20.1142 94.82 23.3161 95.3805 23.3161 95.3805C22.3505 94.871 21.1307 93.9029 19.9617 92.8329C22.8079 92.0177 26.0606 91.661 29.72 91.8648C32.0071 93.6991 34.2941 95.1767 34.2941 95.1767C33.6843 94.4634 33.0235 93.3424 32.4645 92.1196C36.8862 92.68 41.8161 94.1067 47.4068 96.6543C47.4068 96.6543 43.4425 107.915 33.481 111.838C33.6334 110.768 33.9384 109.749 34.2941 109.087Z" fill="#7E7E7E"/>
<path d="M3.54501 109.9C6.59446 108.881 9.69474 107.913 12.795 106.996C15.8953 106.028 18.9956 105.111 22.0958 104.194C28.2964 102.36 34.497 100.627 40.7483 98.9968C43.8486 98.1816 46.9997 97.4173 50.1508 96.653C53.3019 95.9397 56.453 95.2264 59.6041 94.615C61.1797 94.3093 62.7552 94.0036 64.3308 93.7488C65.9063 93.494 67.4819 93.2393 69.1083 93.0355C70.6838 92.8317 72.3102 92.6788 73.8857 92.6279C74.6989 92.5769 75.4613 92.5769 76.2745 92.5769C77.0368 92.6279 77.85 92.6788 78.5616 92.7807C79.019 92.8317 79.4764 92.526 79.5781 92.0674C79.6289 91.6088 79.3239 91.1503 78.8665 91.0484C78.0025 90.9465 77.1893 90.8955 76.3253 90.8955C75.5121 90.8955 74.6481 90.8955 73.8349 90.9974C72.2085 91.0993 70.5822 91.3031 68.9558 91.5069C67.3294 91.7617 65.7539 92.0165 64.1275 92.3222C62.5519 92.6279 60.9256 92.9336 59.35 93.2902C56.1989 94.0036 53.0478 94.7678 49.8967 95.5321C46.7456 96.3473 43.6453 97.2135 40.545 98.0797C34.3445 99.863 28.1439 101.697 21.9434 103.684C18.8431 104.652 15.7936 105.671 12.6934 106.691C9.64391 107.71 6.54363 108.729 3.49418 109.799C3.44335 109.799 3.44336 109.85 3.44336 109.9C3.49418 109.9 3.49418 109.9 3.54501 109.9Z" fill="#636363"/>
<path d="M42.9314 105.672C42.9314 105.672 43.7446 108.882 44.2529 112.041C42.8298 114.13 40.8985 116.015 38.2048 117.391C38.1031 115.2 37.8998 113.06 37.3408 112.194C37.3408 112.194 37.1883 115.047 36.8325 118.002C35.9685 118.359 35.0537 118.665 34.088 118.92C34.088 118.92 32.7158 119.327 30.6828 119.99C30.9369 118.818 31.0386 117.85 30.9369 117.238C30.9369 117.238 30.3778 118.614 29.6155 120.346C25.702 121.722 20.2638 123.964 17.621 126.41C17.621 126.41 16.8586 121.722 18.2817 116.066C21.5344 114.385 24.9396 113.06 24.9396 113.06C23.8215 112.602 21.4328 113.009 19.044 113.672C19.8064 111.633 20.8737 109.493 22.3984 107.506C25.2954 106.844 29.463 106.64 29.463 106.64C28.6498 105.927 26.1594 105.723 24.0248 105.672C26.2611 103.379 29.2089 101.341 33.1732 99.8635C36.2226 100.271 39.1196 100.933 39.1196 100.933C38.5097 100.322 37.0866 99.7106 35.4094 99.1502C38.8655 98.1311 43.0331 97.5197 47.9122 97.4688C47.9122 97.4688 48.5729 104.347 45.2693 110.462C44.507 108.322 43.6938 106.385 42.9314 105.672Z" fill="#575757"/>
<path d="M21.841 121.212C23.8231 119.327 25.8561 117.493 27.8891 115.659C29.922 113.824 31.955 111.99 34.0388 110.156C38.1556 106.538 42.3232 102.972 46.5416 99.4562C48.6762 97.7238 50.76 95.9915 52.9454 94.3101C55.08 92.6287 57.2655 90.9473 59.4509 89.3169C60.5691 88.5017 61.6872 87.7374 62.8053 86.9222C63.9235 86.1579 65.0416 85.3936 66.2105 84.6803C67.3795 83.967 68.5485 83.2537 69.7174 82.6423C70.3273 82.3366 70.9372 82.0309 71.5471 81.7761C72.157 81.5213 72.7669 81.2666 73.3768 81.1137C73.7833 81.0118 73.9866 80.6042 73.885 80.1966C73.7833 79.789 73.3768 79.5852 72.9702 79.6871C72.2586 79.8909 71.5979 80.1966 70.988 80.4514C70.3273 80.7571 69.7174 81.0628 69.1075 81.4195C67.8877 82.0818 66.7188 82.8461 65.5498 83.5594C64.3809 84.3237 63.2627 85.0879 62.1446 85.9032C61.0265 86.7184 59.9083 87.5336 58.841 88.3488C56.6556 90.0302 54.521 91.7116 52.3864 93.4949C50.2517 95.2272 48.1679 97.0105 46.0842 98.7938C41.9166 102.36 37.8506 106.029 33.8355 109.748C31.8026 111.583 29.8204 113.468 27.8383 115.353C25.8561 117.238 23.874 119.123 21.8918 121.059V121.11C21.7902 121.263 21.7902 121.263 21.841 121.212Z" fill="#4A4A4A"/>
<path d="M26.0121 86.2072C26.0121 86.2072 23.4709 85.0863 20.8281 84.2201C18.8459 81.3668 17.372 77.8002 16.7113 73.4184C18.2869 73.2146 19.9132 73.0618 21.0314 73.1637C21.0314 73.1637 18.7951 72.1446 16.3047 71.3294C15.8981 69.3423 15.1358 66.0814 14.1193 62.5657C15.5424 62.5657 17.0163 62.6676 17.9819 62.9734C17.9819 62.9734 15.8473 61.5977 13.5094 60.4258C12.0863 55.942 10.3075 51.3564 8.17285 48.5031C8.17285 48.5031 16.1014 47.9936 24.6907 51.6112C25.6564 55.7892 27.3844 60.222 27.3844 60.222C27.2827 58.4387 27.6893 55.7382 28.2484 53.2926C31.1454 54.923 34.0424 57.063 36.6344 59.9163C36.7869 63.8905 37.4476 67.8137 37.4476 67.8137C37.6509 66.489 38.2608 64.6548 39.0231 62.8714C41.1069 65.8776 42.8858 69.4442 44.1564 73.826C42.9874 77.2398 42.2251 80.4497 42.2251 80.4497C42.8349 79.4307 43.8514 78.2588 44.9696 77.0869C46.0877 82.4368 46.4943 88.7548 45.8336 96.2447C45.8336 96.2447 31.247 96.2447 22.6069 86.3091C23.8267 86.1563 25.0973 86.1053 26.0121 86.2072Z" fill="#9B9B9B"/>
<path d="M12.5391 50.8979C14.9278 54.0569 17.3165 57.2159 19.6545 60.4258C21.9924 63.6357 24.3303 66.8457 26.6682 70.0556C31.2932 76.5264 35.8674 82.9972 40.2891 89.5699C42.5254 92.8817 44.66 96.1936 46.7946 99.5054C48.9292 102.868 51.013 106.231 53.046 109.645C54.0624 111.326 55.0281 113.058 55.9938 114.791C56.9594 116.523 57.8743 118.255 58.7383 120.039C59.6023 121.822 60.4155 123.605 61.1778 125.389C61.5336 126.306 61.8894 127.223 62.1943 128.14C62.4993 129.057 62.7534 129.974 62.9059 130.891C63.0075 131.452 63.5666 131.859 64.1765 131.758C64.7355 131.656 65.1421 131.095 65.0405 130.484C64.8372 129.465 64.5322 128.446 64.2273 127.478C63.8715 126.51 63.5158 125.541 63.1092 124.624C62.296 122.739 61.432 120.956 60.5171 119.173C59.6023 117.389 58.6366 115.657 57.6201 113.925C56.6037 112.192 55.5872 110.511 54.5707 108.779C52.4869 105.365 50.3015 102.053 48.116 98.7411C45.8798 95.4293 43.6435 92.1684 41.3564 88.9075C36.7822 82.3858 32.1064 76.0169 27.3289 69.648C24.9402 66.489 22.5514 63.33 20.1119 60.1711C17.6723 57.0121 15.2327 53.9041 12.7932 50.796C12.7424 50.7451 12.7424 50.7451 12.6915 50.796C12.5391 50.796 12.5391 50.847 12.5391 50.8979Z" fill="#818181"/>
<path d="M137.717 121.466H44.9121V63.2801C44.9121 62.1591 45.7761 61.293 46.8434 61.293H135.735C136.802 61.293 137.666 62.1591 137.666 63.2801V121.466H137.717Z" fill="#565656"/>
<path d="M134.309 65.4707H48.3145V116.779H134.309V65.4707Z" fill="#6EA0FD"/>
<path d="M30.1729 138.739C29.3089 139.86 30.9353 143.222 33.5273 143.222C72.7637 143.222 111.949 143.222 151.185 143.222C153.727 143.222 155.353 139.86 154.387 138.739H30.1729Z" fill="#C9C9C9"/>
<path d="M153.98 138.126C154.946 139.247 153.675 140.164 151.134 140.164C111.898 140.164 72.7121 140.164 33.4758 140.164C30.9346 140.164 29.5624 139.247 30.3755 138.126C34.3907 132.878 38.4058 127.579 42.4209 122.331C43.2849 121.21 45.5212 120.293 47.4017 120.293C76.5747 120.293 105.748 120.293 134.921 120.293C136.801 120.293 139.139 121.21 140.156 122.331C144.781 127.63 149.355 132.878 153.98 138.126Z" fill="#FEFEFE"/>
<g opacity="0.5">
<path opacity="0.5" d="M56.5531 125.643C54.9776 125.643 54.1644 125.643 52.5889 125.643C53.1479 124.828 53.4529 124.37 54.0119 123.555C55.5367 123.555 56.299 123.555 57.8238 123.555C57.2647 124.421 57.0106 124.828 56.5531 125.643Z" fill="#9C9B9B"/>
<path opacity="0.5" d="M61.6859 125.643C60.1104 125.643 59.2972 125.643 57.7217 125.643C58.1791 124.828 58.4332 124.37 58.9415 123.555C60.4662 123.555 61.2285 123.555 62.7532 123.555C62.2958 124.421 62.0925 124.828 61.6859 125.643Z" fill="#9C9B9B"/>
<path opacity="0.5" d="M60.0078 123.2C57.6699 123.2 56.5518 123.2 54.2139 123.2C54.4172 122.894 54.5188 122.741 54.7221 122.436C57.0092 122.436 58.1273 122.436 60.4144 122.436C60.3128 122.69 60.2111 122.894 60.0078 123.2Z" fill="#9C9B9B"/>
<path opacity="0.5" d="M66.8194 123.2C64.4814 123.2 63.3633 123.2 61.0254 123.2C61.1779 122.894 61.2795 122.741 61.432 122.436C63.7191 122.436 64.8372 122.436 67.1243 122.436C67.0227 122.69 66.9718 122.894 66.8194 123.2Z" fill="#9C9B9B"/>
<path opacity="0.5" d="M73.6289 123.2C71.291 123.2 70.122 123.2 67.835 123.2C67.9366 122.894 68.0383 122.741 68.1399 122.436C70.427 122.436 71.5451 122.436 73.8322 122.436C73.7814 122.69 73.7305 122.894 73.6289 123.2Z" fill="#9C9B9B"/>
<path opacity="0.5" d="M80.4375 123.2C78.0996 123.2 76.9815 123.2 74.6436 123.2C74.7452 122.894 74.7452 122.741 74.8468 122.436C77.134 122.436 78.2521 122.436 80.5392 122.436C80.4884 122.69 80.4884 122.894 80.4375 123.2Z" fill="#9C9B9B"/>
<path opacity="0.5" d="M87.249 123.2C84.9111 123.2 83.793 123.2 81.4551 123.2C81.5059 122.894 81.5059 122.741 81.5567 122.436C83.8438 122.436 84.962 122.436 87.249 122.436C87.249 122.69 87.249 122.894 87.249 123.2Z" fill="#9C9B9B"/>
<path opacity="0.5" d="M94.0117 123.2C91.6738 123.2 90.5557 123.2 88.2178 123.2C88.2178 122.894 88.2178 122.741 88.2178 122.436C90.5049 122.436 91.623 122.436 93.9101 122.436C93.9609 122.69 94.0117 122.894 94.0117 123.2Z" fill="#9C9B9B"/>
<path opacity="0.5" d="M100.818 123.2C98.4806 123.2 97.3624 123.2 95.0245 123.2C94.9737 122.894 94.9737 122.741 94.9229 122.436C97.21 122.436 98.3281 122.436 100.615 122.436C100.717 122.69 100.768 122.894 100.818 123.2Z" fill="#9C9B9B"/>
<path opacity="0.5" d="M107.632 123.2C105.294 123.2 104.125 123.2 101.838 123.2C101.736 122.894 101.736 122.741 101.635 122.436C103.922 122.436 105.04 122.436 107.327 122.436C107.429 122.69 107.48 122.894 107.632 123.2Z" fill="#9C9B9B"/>
<path opacity="0.5" d="M114.443 123.2C112.105 123.2 110.987 123.2 108.649 123.2C108.547 122.894 108.445 122.741 108.344 122.436C110.631 122.436 111.749 122.436 114.036 122.436C114.189 122.69 114.239 122.894 114.443 123.2Z" fill="#9C9B9B"/>
<path opacity="0.5" d="M121.2 123.2C118.862 123.2 117.744 123.2 115.406 123.2C115.253 122.894 115.151 122.741 114.999 122.436C117.286 122.436 118.404 122.436 120.691 122.436C120.895 122.69 120.996 122.894 121.2 123.2Z" fill="#9C9B9B"/>
<path opacity="0.5" d="M128.825 123.2C126.182 123.2 124.861 123.2 122.218 123.2C122.015 122.894 121.913 122.741 121.71 122.436C124.302 122.436 125.623 122.436 128.215 122.436C128.419 122.69 128.571 122.894 128.825 123.2Z" fill="#9C9B9B"/>
<path opacity="0.5" d="M66.8188 125.643C65.2432 125.643 64.4301 125.643 62.8545 125.643C63.2611 124.828 63.4644 124.37 63.871 123.555C65.3957 123.555 66.1581 123.555 67.6828 123.555C67.3271 124.421 67.1746 124.828 66.8188 125.643Z" fill="#9C9B9B"/>
<path opacity="0.5" d="M71.9497 125.643C70.3741 125.643 69.5609 125.643 67.9854 125.643C68.2903 124.828 68.4428 124.37 68.7985 123.555C70.3233 123.555 71.0856 123.555 72.6104 123.555C72.3562 124.421 72.2038 124.828 71.9497 125.643Z" fill="#9C9B9B"/>
<path opacity="0.5" d="M77.1372 125.643C75.5616 125.643 74.7484 125.643 73.1729 125.643C73.427 124.828 73.5286 124.37 73.7828 123.555C75.3075 123.555 76.0699 123.555 77.5946 123.555C77.3913 124.421 77.2896 124.828 77.1372 125.643Z" fill="#9C9B9B"/>
<path opacity="0.5" d="M82.2709 125.643C80.6954 125.643 79.8822 125.643 78.3066 125.643C78.4591 124.828 78.5608 124.37 78.7132 123.555C80.238 123.555 81.0003 123.555 82.5251 123.555C82.4234 124.421 82.3726 124.828 82.2709 125.643Z" fill="#9C9B9B"/>
<path opacity="0.5" d="M87.4037 125.643C85.8282 125.643 85.015 125.643 83.4395 125.643C83.4903 124.828 83.5411 124.37 83.6427 123.555C85.1675 123.555 85.9298 123.555 87.4546 123.555C87.4546 124.421 87.4546 124.828 87.4037 125.643Z" fill="#9C9B9B"/>
<path opacity="0.5" d="M92.5874 125.643C91.0118 125.643 90.1986 125.643 88.623 125.643C88.623 124.828 88.623 124.37 88.623 123.555C90.1478 123.555 90.9101 123.555 92.4349 123.555C92.4857 124.421 92.4857 124.828 92.5874 125.643Z" fill="#9C9B9B"/>
<path opacity="0.5" d="M97.7184 125.643C96.1428 125.643 95.3296 125.643 93.7541 125.643C93.6524 124.828 93.6016 124.37 93.5508 123.555C95.0755 123.555 95.8379 123.555 97.3626 123.555C97.4643 124.421 97.5659 124.828 97.7184 125.643Z" fill="#9C9B9B"/>
<path opacity="0.5" d="M102.85 125.643C101.275 125.643 100.462 125.643 98.8861 125.643C98.7336 124.828 98.632 124.37 98.4795 123.555C100.004 123.555 100.767 123.555 102.291 123.555C102.495 124.421 102.647 124.828 102.85 125.643Z" fill="#9C9B9B"/>
<path opacity="0.5" d="M54.8756 128.449C53.1984 128.449 52.3852 128.449 50.708 128.449C51.2671 127.633 51.572 127.175 52.1311 126.359C53.7575 126.359 54.5707 126.359 56.1462 126.359C55.638 127.175 55.3839 127.633 54.8756 128.449Z" fill="#9C9B9B"/>
<path opacity="0.5" d="M60.2613 128.449C58.5841 128.449 57.7709 128.449 56.0938 128.449C56.5512 127.633 56.8053 127.175 57.3135 126.359C58.9399 126.359 59.7531 126.359 61.3286 126.359C60.922 127.175 60.7187 127.633 60.2613 128.449Z" fill="#9C9B9B"/>
<path opacity="0.5" d="M65.6998 128.449C64.0226 128.449 63.2094 128.449 61.5322 128.449C61.9388 127.633 62.1421 127.175 62.5487 126.359C64.1751 126.359 64.9883 126.359 66.5638 126.359C66.2081 127.175 66.0556 127.633 65.6998 128.449Z" fill="#9C9B9B"/>
<path opacity="0.5" d="M71.1383 128.449C69.4611 128.449 68.6479 128.449 66.9707 128.449C67.2756 127.633 67.4281 127.175 67.7839 126.359C69.4103 126.359 70.2234 126.359 71.799 126.359C71.494 127.175 71.3924 127.633 71.1383 128.449Z" fill="#9C9B9B"/>
<path opacity="0.5" d="M76.528 128.449C74.8508 128.449 74.0376 128.449 72.3604 128.449C72.6145 127.633 72.7161 127.175 72.9703 126.359C74.5966 126.359 75.4098 126.359 76.9854 126.359C76.7821 127.175 76.7313 127.633 76.528 128.449Z" fill="#9C9B9B"/>
<path opacity="0.5" d="M81.9664 128.449C80.2892 128.449 79.476 128.449 77.7988 128.449C77.9513 127.633 78.0529 127.175 78.2054 126.359C79.8318 126.359 80.645 126.359 82.2205 126.359C82.1189 127.175 82.0681 127.633 81.9664 128.449Z" fill="#9C9B9B"/>
<path opacity="0.5" d="M87.3502 128.449C85.673 128.449 84.8598 128.449 83.1826 128.449C83.2334 127.633 83.2843 127.175 83.3859 126.359C85.0123 126.359 85.7746 126.359 87.401 126.359C87.401 127.175 87.401 127.633 87.3502 128.449Z" fill="#9C9B9B"/>
<path opacity="0.5" d="M92.7906 128.449C91.1134 128.449 90.3002 128.449 88.623 128.449C88.623 127.633 88.623 127.175 88.623 126.359C90.2494 126.359 91.0118 126.359 92.6381 126.359C92.689 127.175 92.7398 127.633 92.7906 128.449Z" fill="#9C9B9B"/>
<path opacity="0.5" d="M98.2322 128.449C96.555 128.449 95.7418 128.449 94.0646 128.449C93.963 127.633 93.9122 127.175 93.8613 126.359C95.4877 126.359 96.2501 126.359 97.8764 126.359C97.9781 127.175 98.0797 127.633 98.2322 128.449Z" fill="#9C9B9B"/>
<path opacity="0.5" d="M103.614 128.449C101.937 128.449 101.124 128.449 99.4466 128.449C99.2942 127.633 99.1925 127.175 99.04 126.359C100.666 126.359 101.48 126.359 103.055 126.359C103.309 127.175 103.411 127.633 103.614 128.449Z" fill="#9C9B9B"/>
<path opacity="0.5" d="M53.199 131.251C51.4202 131.251 50.5561 131.251 48.8281 131.251C49.3872 130.436 49.6921 129.977 50.2512 129.162C51.9284 129.162 52.7924 129.162 54.4696 129.162C53.9614 129.977 53.7072 130.385 53.199 131.251Z" fill="#9C9B9B"/>
<path opacity="0.5" d="M58.8885 131.251C57.1096 131.251 56.2456 131.251 54.5176 131.251C54.975 130.436 55.2291 129.977 55.7374 129.162C57.4146 129.162 58.2786 129.162 59.9558 129.162C59.4984 129.977 59.2951 130.385 58.8885 131.251Z" fill="#9C9B9B"/>
<path opacity="0.5" d="M64.5838 131.251C62.8049 131.251 61.9409 131.251 60.2129 131.251C60.6195 130.436 60.8228 129.977 61.2294 129.162C62.9066 129.162 63.7706 129.162 65.4478 129.162C65.092 129.977 64.9395 130.385 64.5838 131.251Z" fill="#9C9B9B"/>
<path opacity="0.5" d="M70.2742 131.251C68.4954 131.251 67.6314 131.251 65.9033 131.251C66.2083 130.436 66.3607 129.977 66.7165 129.162C68.3937 129.162 69.2577 129.162 70.9349 129.162C70.63 129.977 70.5283 130.385 70.2742 131.251Z" fill="#9C9B9B"/>
<path opacity="0.5" d="M75.9676 131.251C74.1887 131.251 73.3247 131.251 71.5967 131.251C71.8508 130.436 71.9525 129.977 72.2066 129.162C73.8838 129.162 74.7478 129.162 76.425 129.162C76.2217 129.977 76.1201 130.385 75.9676 131.251Z" fill="#9C9B9B"/>
<path opacity="0.5" d="M81.6589 131.251C79.8801 131.251 79.0161 131.251 77.2881 131.251C77.4406 130.436 77.5422 129.977 77.6947 129.162C79.3719 129.162 80.2359 129.162 81.9131 129.162C81.8114 129.977 81.7606 130.385 81.6589 131.251Z" fill="#9C9B9B"/>
<path opacity="0.5" d="M87.3513 131.251C85.5725 131.251 84.7085 131.251 82.9805 131.251C83.0313 130.436 83.0821 129.977 83.1838 129.162C84.861 129.162 85.725 129.162 87.4022 129.162C87.3513 129.977 87.3513 130.385 87.3513 131.251Z" fill="#9C9B9B"/>
<path opacity="0.5" d="M93.0428 131.251C91.2639 131.251 90.3999 131.251 88.6719 131.251C88.6719 130.436 88.6719 129.977 88.6719 129.162C90.3491 129.162 91.2131 129.162 92.8903 129.162C92.9411 129.977 92.9411 130.385 93.0428 131.251Z" fill="#9C9B9B"/>
<path opacity="0.5" d="M98.7373 131.251C96.9584 131.251 96.0944 131.251 94.3664 131.251C94.2647 130.436 94.2139 129.977 94.1631 129.162C95.8403 129.162 96.7043 129.162 98.3815 129.162C98.4832 129.977 98.5848 130.385 98.7373 131.251Z" fill="#9C9B9B"/>
<path opacity="0.5" d="M104.428 131.251C102.649 131.251 101.785 131.251 100.057 131.251C99.9045 130.436 99.8029 129.977 99.6504 129.162C101.328 129.162 102.192 129.162 103.869 129.162C104.072 129.977 104.174 130.385 104.428 131.251Z" fill="#9C9B9B"/>
<path opacity="0.5" d="M51.5205 134.003C49.6908 134.003 48.776 134.003 46.9463 134.003C47.5054 133.187 47.8103 132.729 48.3694 131.913C50.1482 131.913 51.0122 131.913 52.7911 131.913C52.2828 132.78 52.0287 133.187 51.5205 134.003Z" fill="#9C9B9B"/>
<path opacity="0.5" d="M57.5214 134.003C55.6918 134.003 54.7769 134.003 52.9473 134.003C53.4047 133.187 53.6588 132.729 54.167 131.913C55.9459 131.913 56.8099 131.913 58.5887 131.913C58.1313 132.78 57.928 133.187 57.5214 134.003Z" fill="#9C9B9B"/>
<path opacity="0.5" d="M63.4687 134.003C61.639 134.003 60.7242 134.003 58.8945 134.003C59.3011 133.187 59.5044 132.729 59.911 131.913C61.6899 131.913 62.5539 131.913 64.3327 131.913C63.977 132.78 63.8245 133.187 63.4687 134.003Z" fill="#9C9B9B"/>
<path opacity="0.5" d="M69.4102 134.103C67.5805 134.103 66.6657 134.103 64.7852 134.103C65.0901 133.237 65.2934 132.829 65.5983 131.963C67.3772 131.963 68.2412 131.963 70.02 131.963C69.8167 132.778 69.6643 133.237 69.4102 134.103Z" fill="#9C9B9B"/>
<path opacity="0.5" d="M105.192 134.003C93.7059 134.003 82.2704 134.003 70.7842 134.003C71.0383 133.187 71.14 132.729 71.3941 131.913C82.4737 131.913 93.5534 131.913 104.633 131.913C104.836 132.78 104.938 133.187 105.192 134.003Z" fill="#9C9B9B"/>
<path opacity="0.5" d="M79.7275 138.588C88.4185 138.588 97.1094 138.588 105.8 138.588L103.615 135.021C95.2289 135.021 90.1973 135.021 81.8113 135.021L79.7275 138.588Z" fill="#9C9B9B"/>
<path opacity="0.5" d="M107.529 125.643C105.954 125.643 105.141 125.643 103.565 125.643C103.311 124.828 103.209 124.37 102.955 123.555C104.48 123.555 105.242 123.555 106.767 123.555C107.072 124.421 107.224 124.828 107.529 125.643Z" fill="#9C9B9B"/>
<path opacity="0.5" d="M108.547 128.449C106.87 128.449 106.057 128.449 104.379 128.449C104.125 127.633 104.024 127.175 103.77 126.359C105.396 126.359 106.209 126.359 107.785 126.359C108.09 127.175 108.242 127.633 108.547 128.449Z" fill="#9C9B9B"/>
<path opacity="0.5" d="M109.563 131.251C107.784 131.251 106.92 131.251 105.192 131.251C104.938 130.436 104.836 129.977 104.582 129.162C106.259 129.162 107.123 129.162 108.8 129.162C109.105 129.977 109.258 130.385 109.563 131.251Z" fill="#9C9B9B"/>
<path opacity="0.5" d="M110.577 134.003C108.747 134.003 107.832 134.003 106.002 134.003C105.748 133.187 105.647 132.729 105.393 131.913C107.171 131.913 108.035 131.913 109.814 131.913C110.119 132.78 110.272 133.187 110.577 134.003Z" fill="#9C9B9B"/>
<path opacity="0.5" d="M112.152 125.643C110.577 125.643 109.764 125.643 108.188 125.643C107.883 124.828 107.731 124.37 107.375 123.555C108.9 123.555 109.662 123.555 111.187 123.555C111.593 124.421 111.797 124.828 112.152 125.643Z" fill="#9C9B9B"/>
<path opacity="0.5" d="M113.425 128.449C111.748 128.449 110.935 128.449 109.258 128.449C108.953 127.633 108.8 127.175 108.444 126.359C110.071 126.359 110.833 126.359 112.459 126.359C112.866 127.175 113.069 127.633 113.425 128.449Z" fill="#9C9B9B"/>
<path opacity="0.5" d="M114.696 131.251C112.917 131.251 112.053 131.251 110.325 131.251C110.02 130.436 109.867 129.977 109.512 129.162C111.189 129.162 112.053 129.162 113.73 129.162C114.137 129.977 114.34 130.385 114.696 131.251Z" fill="#9C9B9B"/>
<path opacity="0.5" d="M115.968 134.003C114.139 134.003 113.224 134.003 111.394 134.003C111.089 133.187 110.937 132.729 110.632 131.913C112.411 131.913 113.275 131.913 115.054 131.913C115.409 132.78 115.562 133.187 115.968 134.003Z" fill="#9C9B9B"/>
<path opacity="0.5" d="M116.828 125.643C115.253 125.643 114.44 125.643 112.864 125.643C112.457 124.828 112.305 124.37 111.898 123.555C113.423 123.555 114.186 123.555 115.71 123.555C116.168 124.421 116.371 124.828 116.828 125.643Z" fill="#9C9B9B"/>
<path opacity="0.5" d="M118.354 128.449C116.677 128.449 115.864 128.449 114.186 128.449C113.78 127.633 113.627 127.175 113.221 126.359C114.847 126.359 115.66 126.359 117.236 126.359C117.642 127.175 117.897 127.633 118.354 128.449Z" fill="#9C9B9B"/>
<path opacity="0.5" d="M119.826 131.251C118.047 131.251 117.183 131.251 115.455 131.251C115.048 130.436 114.896 129.977 114.489 129.162C116.166 129.162 117.03 129.162 118.708 129.162C119.165 129.977 119.368 130.385 119.826 131.251Z" fill="#9C9B9B"/>
<path opacity="0.5" d="M121.355 134.003C119.526 134.003 118.611 134.003 116.781 134.003C116.374 133.187 116.222 132.729 115.815 131.913C117.594 131.913 118.458 131.913 120.237 131.913C120.695 132.78 120.898 133.187 121.355 134.003Z" fill="#9C9B9B"/>
<path opacity="0.5" d="M121.509 125.643C119.934 125.643 119.12 125.643 117.545 125.643C117.088 124.828 116.833 124.37 116.376 123.555C117.901 123.555 118.663 123.555 120.188 123.555C120.696 124.421 120.95 124.828 121.509 125.643Z" fill="#9C9B9B"/>
<path opacity="0.5" d="M123.234 128.449C121.557 128.449 120.744 128.449 119.066 128.449C118.609 127.633 118.355 127.175 117.897 126.359C119.524 126.359 120.337 126.359 121.913 126.359C122.472 127.175 122.726 127.633 123.234 128.449Z" fill="#9C9B9B"/>
<path opacity="0.5" d="M125.012 131.251C123.233 131.251 122.369 131.251 120.641 131.251C120.183 130.436 119.929 129.977 119.472 129.162C121.149 129.162 122.013 129.162 123.69 129.162C124.198 129.977 124.452 130.385 125.012 131.251Z" fill="#9C9B9B"/>
<path opacity="0.5" d="M126.74 134.003C124.911 134.003 123.996 134.003 122.166 134.003C121.709 133.187 121.454 132.729 120.997 131.913C122.776 131.913 123.64 131.913 125.419 131.913C125.927 132.78 126.232 133.187 126.74 134.003Z" fill="#9C9B9B"/>
<path opacity="0.5" d="M126.13 125.643C124.555 125.643 123.742 125.643 122.166 125.643C121.607 124.828 121.353 124.37 120.845 123.555C122.369 123.555 123.132 123.555 124.657 123.555C125.266 124.421 125.571 124.828 126.13 125.643Z" fill="#9C9B9B"/>
<path opacity="0.5" d="M128.161 128.449C126.484 128.449 125.671 128.449 123.993 128.449C123.434 127.633 123.18 127.175 122.672 126.359C124.298 126.359 125.111 126.359 126.687 126.359C127.246 127.175 127.551 127.633 128.161 128.449Z" fill="#9C9B9B"/>
<path opacity="0.5" d="M130.146 131.251C128.368 131.251 127.504 131.251 125.776 131.251C125.216 130.436 124.962 129.977 124.454 129.162C126.131 129.162 126.995 129.162 128.673 129.162C129.232 129.977 129.537 130.385 130.146 131.251Z" fill="#9C9B9B"/>
<path opacity="0.5" d="M132.126 134.003C130.296 134.003 129.382 134.003 127.552 134.003C126.993 133.187 126.739 132.729 126.23 131.913C128.009 131.913 128.873 131.913 130.652 131.913C131.211 132.78 131.516 133.187 132.126 134.003Z" fill="#9C9B9B"/>
<path opacity="0.5" d="M130.808 125.643C129.233 125.643 128.42 125.643 126.844 125.643C126.234 124.828 125.929 124.37 125.319 123.555C126.844 123.555 127.606 123.555 129.131 123.555C129.792 124.421 130.148 124.828 130.808 125.643Z" fill="#9C9B9B"/>
<path opacity="0.5" d="M133.043 128.449C131.366 128.449 130.553 128.449 128.875 128.449C128.265 127.633 127.96 127.175 127.351 126.359C128.977 126.359 129.739 126.359 131.366 126.359C132.026 127.175 132.382 127.633 133.043 128.449Z" fill="#9C9B9B"/>
<path opacity="0.5" d="M135.277 131.251C133.498 131.251 132.634 131.251 130.906 131.251C130.296 130.436 129.991 129.977 129.381 129.162C131.058 129.162 131.922 129.162 133.599 129.162C134.26 129.977 134.616 130.385 135.277 131.251Z" fill="#9C9B9B"/>
<path opacity="0.5" d="M137.513 134.003C135.683 134.003 134.768 134.003 132.939 134.003C132.329 133.187 132.024 132.729 131.414 131.913C133.193 131.913 134.057 131.913 135.836 131.913C136.496 132.78 136.852 133.187 137.513 134.003Z" fill="#9C9B9B"/>
</g>
<path d="M134.311 65.4736H48.3164V116.781H134.311V65.4736Z" fill="#9B9B9B"/>
<path d="M63.7718 99.7117C63.7718 102.973 62.7553 105.979 61.0781 108.475C59.6042 110.615 57.6729 112.348 55.3858 113.519C53.302 114.589 50.9133 115.201 48.3721 115.201V84.2734C55.9957 84.2734 62.3487 89.8271 63.5685 97.1132C63.6701 97.9284 63.7718 98.7945 63.7718 99.7117Z" fill="#FEFEFE"/>
<path d="M62.1957 116.321C67.5289 116.321 71.8523 111.986 71.8523 106.64C71.8523 101.293 67.5289 96.959 62.1957 96.959C56.8625 96.959 52.5391 101.293 52.5391 106.64C52.5391 111.986 56.8625 116.321 62.1957 116.321Z" fill="#FEFEFE"/>
<path d="M80.5417 116.372C80.5417 116.525 80.5417 116.678 80.5417 116.83H61.2285C61.2285 116.678 61.2285 116.525 61.2285 116.372V116.321C61.2285 114.385 61.8384 112.551 62.8549 111.022C64.5829 108.424 67.5307 106.691 70.936 106.691C71.2917 106.691 71.5967 106.691 71.9524 106.742C76.7807 107.201 80.5417 111.328 80.5417 116.372Z" fill="#FEFEFE"/>
<path d="M63.7689 115.149C63.7689 115.505 63.7689 115.862 63.7181 116.219C63.7181 116.422 63.6673 116.575 63.6164 116.779H48.3184V107.353C49.5381 106.436 51.012 105.824 52.5876 105.57C53.0958 105.468 53.5532 105.468 54.0615 105.468C56.806 105.468 59.2964 106.589 61.0244 108.474C61.7359 109.238 62.3458 110.104 62.8032 111.022C63.4131 112.244 63.7689 113.671 63.7689 115.149Z" fill="#FEFEFE"/>
<path d="M118.865 99.7107C118.865 102.972 119.882 105.978 121.559 108.474C123.033 110.614 124.964 112.347 127.251 113.518C129.335 114.588 131.724 115.2 134.265 115.2V84.2725C126.641 84.2725 120.288 89.8262 119.069 97.1122C118.967 97.9274 118.865 98.7936 118.865 99.7107Z" fill="#FEFEFE"/>
<path d="M120.438 116.32C125.771 116.32 130.094 111.985 130.094 106.639C130.094 101.292 125.771 96.958 120.438 96.958C115.105 96.958 110.781 101.292 110.781 106.639C110.781 111.985 115.105 116.32 120.438 116.32Z" fill="#FEFEFE"/>
<path d="M102.039 116.372C102.039 116.525 102.039 116.678 102.039 116.83H121.352C121.352 116.678 121.352 116.525 121.352 116.372V116.321C121.352 114.385 120.742 112.551 119.726 111.022C117.998 108.424 115.05 106.691 111.645 106.691C111.289 106.691 110.984 106.691 110.628 106.742C105.851 107.201 102.039 111.328 102.039 116.372Z" fill="#FEFEFE"/>
<path d="M118.865 115.149C118.865 115.505 118.865 115.862 118.916 116.219C118.916 116.422 118.967 116.575 119.018 116.779H134.316V107.353C133.096 106.436 131.622 105.824 130.047 105.57C129.538 105.468 129.081 105.468 128.573 105.468C125.828 105.468 123.338 106.589 121.61 108.474C120.898 109.238 120.288 110.104 119.831 111.022C119.221 112.244 118.865 113.671 118.865 115.149Z" fill="#FEFEFE"/>
<path opacity="0.6" d="M88.1644 86.5674L84.251 116.781H98.8375L94.6699 86.5674H88.1644Z" fill="#FEFEFE"/>
<path opacity="0.6" d="M89.3839 86.5674L86.9443 116.781H96.1944L93.5515 86.5674H89.3839Z" fill="#FEFEFE"/>
<path d="M109.101 93.8015L106.204 99.3552L98.123 80.9108L97.8688 80.4013C97.4622 81.726 97.0556 82.9488 96.6999 83.9679C95.6834 86.974 94.921 88.6554 94.921 88.6554H93.0405L92.6339 99.4062H90.9567L90.5502 88.6554H88.3647C87.704 87.0759 87.0941 85.5474 86.535 83.9679C86.0776 82.745 85.671 81.5222 85.2644 80.2994L84.9595 80.9108L76.8784 99.3552L73.9814 93.8015L74.7946 78.1085L81.6051 67.5615L81.8084 67.3067L81.8592 67.2558C81.7576 66.6953 81.6559 66.0839 81.5543 65.5234H101.528C101.427 66.0839 101.325 66.5934 101.223 67.1539L101.325 67.3067L101.528 67.5615L108.339 78.1085L109.101 93.8015Z" fill="#7A7A7A"/>
<g opacity="0.3">
<path opacity="0.3" d="M128.615 116.371C128.615 116.524 128.615 116.677 128.615 116.829H106.913C106.913 116.677 106.913 116.524 106.913 116.371C106.913 110.817 111.03 106.283 116.366 105.57C116.824 105.519 117.281 105.468 117.789 105.468C119.416 105.468 120.991 105.824 122.364 106.487C125.82 108.066 128.259 111.429 128.615 115.352C128.615 115.658 128.615 116.014 128.615 116.371Z" fill="#EFEFEF"/>
<path opacity="0.3" d="M134.31 99.2526V116.78H118.249C116.674 114.742 115.708 112.143 115.708 109.341C115.708 108.016 115.911 106.743 116.318 105.52C117.69 101.342 121.299 98.1826 125.72 97.4693C126.381 97.3674 127.042 97.3164 127.753 97.3164C130.193 97.3164 132.429 98.0297 134.31 99.2526Z" fill="#EFEFEF"/>
<path opacity="0.3" d="M134.31 94.6156V116.27C133.903 116.321 133.548 116.321 133.141 116.321C131.515 116.321 129.939 115.964 128.567 115.302C125.111 113.723 122.671 110.36 122.315 106.436C122.265 106.131 122.265 105.774 122.265 105.417C122.265 102.258 123.586 99.4051 125.721 97.4179C127.652 95.6346 130.244 94.5137 133.141 94.5137C133.548 94.5646 133.954 94.5646 134.31 94.6156Z" fill="#EFEFEF"/>
</g>
<g opacity="0.3">
<path opacity="0.3" d="M54.0059 116.373C54.0059 116.526 54.0059 116.678 54.0059 116.831H75.7078C75.7078 116.678 75.7078 116.526 75.7078 116.373C75.7078 110.819 71.591 106.284 66.2545 105.571C65.7971 105.52 65.3397 105.469 64.8314 105.469C63.205 105.469 61.6295 105.825 60.2572 106.488C56.8012 108.067 54.3616 111.43 54.0059 115.354C54.0059 115.659 54.0059 116.016 54.0059 116.373Z" fill="#EFEFEF"/>
<path opacity="0.3" d="M48.3184 99.2535V116.781H64.3788C65.9544 114.743 66.92 112.144 66.92 109.342C66.92 108.017 66.7167 106.743 66.3101 105.521C64.9379 101.343 61.3294 98.1836 56.9076 97.4702C56.2469 97.3683 55.5862 97.3174 54.8747 97.3174C52.4351 97.3174 50.1989 98.0307 48.3184 99.2535Z" fill="#EFEFEF"/>
<path opacity="0.3" d="M48.3193 94.6166V116.271C48.7259 116.322 49.0817 116.322 49.4883 116.322C51.1147 116.322 52.6902 115.965 54.0625 115.303C57.5185 113.724 59.9581 110.361 60.3138 106.437C60.3647 106.132 60.3646 105.775 60.3646 105.418C60.3646 102.259 59.0432 99.4061 56.9086 97.4189C54.9773 95.6356 52.3853 94.5146 49.4883 94.5146C49.0817 94.5656 48.6751 94.5656 48.3193 94.6166Z" fill="#EFEFEF"/>
</g>
<path d="M99.9503 63.4863L108.031 76.0709L108.845 91.7635L105.998 97.317L97.5107 77.9561L99.9503 63.4863Z" fill="#D02E1B"/>
<path d="M101.224 65.5241C101.224 65.5241 100.868 70.0079 97.8691 78.8735L96.751 76.7845L100.512 64.4541L101.224 65.5241Z" fill="#6A6A6A"/>
<path d="M82.6735 63.4854L74.5925 76.0701L73.7793 91.7629L76.6254 97.3165L85.1131 77.9553L82.6735 63.4854Z" fill="#D02E1B"/>
<path d="M81.3486 65.5251C81.3486 65.5251 81.7044 70.0088 84.703 78.8745L85.8211 76.7854L82.0602 64.4551L81.3486 65.5251Z" fill="#6A6A6A"/>
<path d="M96.4477 81.8785C95.4312 84.8846 94.6688 86.566 94.6688 86.566H88.1633C87.5026 84.9865 86.8927 83.458 86.3337 81.8785C79.0658 62.0075 78.6592 44.5313 80.6922 30.8764C83.5383 11.6678 91.162 0 91.162 0C97.7691 9.88452 101.124 20.6352 102.496 31.0802C105.24 52.6325 99.4971 73.013 96.4477 81.8785Z" fill="#FEFEFE"/>
<path d="M102.445 31.0798C93.2968 31.9459 85.8256 31.5383 80.6924 30.876C83.5385 11.6677 91.1622 0 91.1622 0C97.7185 9.88439 101.073 20.584 102.445 31.0798Z" fill="#D02E1B"/>
<path d="M80.9465 29.2461C80.8449 29.7554 80.794 30.3157 80.6924 30.8759C85.8765 31.5381 93.2968 31.9455 102.445 31.0797C102.394 30.5194 102.293 30.0101 102.242 29.4498C93.2968 30.2648 86.0289 29.8573 80.9465 29.2461Z" fill="#4F4F4F"/>
<path d="M96.4509 81.8789C95.4344 84.8843 94.672 86.5652 94.672 86.5652H88.1666C87.5059 84.9861 86.896 83.458 86.3369 81.8789H96.4509Z" fill="#4F4F4F"/>
<path d="M91.5715 55.8425C96.203 55.8425 99.9575 52.0787 99.9575 47.4359C99.9575 42.7931 96.203 39.0293 91.5715 39.0293C86.9401 39.0293 83.1855 42.7931 83.1855 47.4359C83.1855 52.0787 86.9401 55.8425 91.5715 55.8425Z" fill="#F4F4F4"/>
<path d="M99.8534 48.0222C100.556 43.4331 97.4154 39.1415 92.8376 38.4367C88.2599 37.7319 83.979 40.8807 83.2759 45.4699C82.5729 50.0591 85.7139 54.3507 90.2917 55.0555C94.8694 55.7603 99.1503 52.6114 99.8534 48.0222Z" fill="#DBDBDB"/>
<path d="M98.8336 46.7741C98.8336 50.4425 96.14 53.4995 92.5823 54.0089C92.2265 54.0599 91.8707 54.1109 91.5149 54.1109C91.1084 54.1109 90.7017 54.0599 90.346 54.0089C90.1427 53.958 89.9394 53.958 89.7361 53.9071C88.2622 53.5504 86.9408 52.6843 85.9751 51.5634C84.9078 50.2896 84.2471 48.6083 84.2471 46.825C84.2471 43.3605 86.6358 40.4563 89.8886 39.6921C90.3968 39.5902 90.9559 39.4883 91.5149 39.4883C92.4806 39.4883 93.4463 39.6921 94.2595 40.0487C94.4627 40.1506 94.6152 40.2016 94.8185 40.3035C95.4792 40.6601 96.0891 41.1187 96.6482 41.6282C98.0205 42.9019 98.8336 44.7361 98.8336 46.7741Z" fill="#D3D3D3"/>
<path opacity="0.3" d="M94.3127 39.998L89.7893 53.8569C88.3154 53.5002 86.994 52.6341 86.0283 51.5131L89.9418 39.6413C90.45 39.5394 91.0091 39.4375 91.5682 39.4375C92.5338 39.4375 93.4487 39.6413 94.3127 39.998Z" fill="white"/>
<path opacity="0.3" d="M96.7016 41.5776L92.6357 54.0089C92.2799 54.0598 91.9241 54.1108 91.5684 54.1108C91.1618 54.1108 90.7552 54.0598 90.3994 54.0089L94.9228 40.2529C95.5326 40.6096 96.1425 41.0172 96.7016 41.5776Z" fill="white"/>
<path opacity="0.1" d="M102.448 31.0802C101.076 20.6352 97.7723 9.88452 91.1144 0C91.1144 0 90.6062 0.764268 89.793 2.24185C95.4344 11.464 98.4331 21.3995 99.6528 31.0292C102.448 52.6325 96.705 72.962 93.6556 81.8785C92.6391 84.8846 91.8767 86.566 91.8767 86.566H94.6213C94.6213 86.566 95.3328 84.8846 96.4001 81.8785C99.5004 73.013 105.243 52.6325 102.448 31.0802Z" fill="black"/>
<path d="M92.3798 97.3173H90.7026L90.1436 81.8792L90.3469 64.4541H92.7865L92.9389 81.8792L92.3798 97.3173Z" fill="#D02E1B"/>
<g opacity="0.3">
<path opacity="0.3" d="M83.74 27.006C83.74 27.006 83.6892 27.006 83.74 27.006C83.2317 27.006 82.876 26.5984 82.876 26.1398C83.0284 19.9239 87.6027 8.51093 87.7551 8.00143C87.9076 7.54287 88.4158 7.33906 88.8733 7.54287C89.3307 7.69572 89.534 8.20522 89.3307 8.66378C89.2798 8.76568 84.6548 20.2296 84.5532 26.1908C84.5532 26.6494 84.1974 27.006 83.74 27.006Z" fill="white"/>
</g>
<path d="M59.9043 86.0554C61.1674 86.0554 62.1914 85.0291 62.1914 83.7631C62.1914 82.497 61.1674 81.4707 59.9043 81.4707C58.6412 81.4707 57.6172 82.497 57.6172 83.7631C57.6172 85.0291 58.6412 86.0554 59.9043 86.0554Z" fill="#FEFEFE"/>
<path d="M51.3125 87.0238C52.5756 87.0238 53.5996 85.9976 53.5996 84.7316C53.5996 83.4657 52.5756 82.4395 51.3125 82.4395C50.0494 82.4395 49.0254 83.4657 49.0254 84.7316C49.0254 85.9976 50.0494 87.0238 51.3125 87.0238Z" fill="#FEFEFE"/>
<path d="M63.3603 91.1523C63.3603 93.0377 61.8355 94.5664 59.955 94.5664C58.0745 94.5664 56.5498 93.0377 56.5498 91.1523C56.5498 89.267 58.0745 87.7383 59.955 87.7383C61.8864 87.7892 63.3603 89.267 63.3603 91.1523Z" fill="#FEFEFE"/>
<path d="M66.4101 100.477C67.6733 100.477 68.6972 99.4506 68.6972 98.1844C68.6972 96.9181 67.6733 95.8916 66.4101 95.8916C65.147 95.8916 64.123 96.9181 64.123 98.1844C64.123 99.4506 65.147 100.477 66.4101 100.477Z" fill="#FEFEFE"/>
<path d="M77.1318 112.45C78.3949 112.45 79.4189 111.424 79.4189 110.158C79.4189 108.892 78.3949 107.865 77.1318 107.865C75.8687 107.865 74.8447 108.892 74.8447 110.158C74.8447 111.424 75.8687 112.45 77.1318 112.45Z" fill="#FEFEFE"/>
<path d="M103.459 115.15C105.34 115.15 106.864 113.622 106.864 111.736C106.864 109.851 105.34 108.322 103.459 108.322C101.578 108.322 100.054 109.851 100.054 111.736C100.054 113.622 101.578 115.15 103.459 115.15Z" fill="#FEFEFE"/>
<path d="M113.574 104.145C115.455 104.145 116.979 102.617 116.979 100.731C116.979 98.8458 115.455 97.3174 113.574 97.3174C111.694 97.3174 110.169 98.8458 110.169 100.731C110.169 102.617 111.694 104.145 113.574 104.145Z" fill="#FEFEFE"/>
<path d="M121.401 96.9601C123.282 96.9601 124.807 95.4318 124.807 93.5465C124.807 91.6612 123.282 90.1328 121.401 90.1328C119.521 90.1328 117.996 91.6612 117.996 93.5465C117.996 95.4318 119.521 96.9601 121.401 96.9601Z" fill="#FEFEFE"/>
<path d="M123.184 93.9041C125.064 93.9041 126.589 92.3758 126.589 90.4906C126.589 88.6054 125.064 87.0771 123.184 87.0771C121.303 87.0771 119.778 88.6054 119.778 90.4906C119.778 92.3758 121.303 93.9041 123.184 93.9041Z" fill="#FEFEFE"/>
<path d="M127.044 91.7633C128.925 91.7633 130.449 90.2348 130.449 88.3494C130.449 86.464 128.925 84.9355 127.044 84.9355C125.163 84.9355 123.639 86.464 123.639 88.3494C123.639 90.2348 125.163 91.7633 127.044 91.7633Z" fill="#FEFEFE"/>
<path d="M115.707 100.273C116.858 100.273 117.791 99.3371 117.791 98.1832C117.791 97.0292 116.858 96.0938 115.707 96.0938C114.556 96.0938 113.623 97.0292 113.623 98.1832C113.623 99.3371 114.556 100.273 115.707 100.273Z" fill="#FEFEFE"/>
<path d="M107.065 108.984C107.065 110.054 106.201 110.921 105.133 110.921C104.066 110.921 103.202 110.054 103.202 108.984C103.202 107.914 104.066 107.048 105.133 107.048C106.201 107.048 107.065 107.914 107.065 108.984Z" fill="#FEFEFE"/>
<path d="M72.357 103.992C72.7219 103.992 73.0178 103.695 73.0178 103.329C73.0178 102.964 72.7219 102.667 72.357 102.667C71.9921 102.667 71.6963 102.964 71.6963 103.329C71.6963 103.695 71.9921 103.992 72.357 103.992Z" fill="#FEFEFE"/>
<path d="M114.235 95.8393C114.235 96.1961 113.931 96.5018 113.575 96.5018C113.219 96.5018 112.914 96.1961 112.914 95.8393C112.914 95.4825 113.219 95.1768 113.575 95.1768C113.931 95.1768 114.235 95.4825 114.235 95.8393Z" fill="#FEFEFE"/>
<path d="M121.403 85.9054C121.768 85.9054 122.064 85.6085 122.064 85.2423C122.064 84.876 121.768 84.5791 121.403 84.5791C121.038 84.5791 120.742 84.876 120.742 85.2423C120.742 85.6085 121.038 85.9054 121.403 85.9054Z" fill="#FEFEFE"/>
<path d="M76.4763 105.674C76.4763 105.929 76.2731 106.133 76.0189 106.133C75.7648 106.133 75.5615 105.929 75.5615 105.674C75.5615 105.419 75.7648 105.215 76.0189 105.215C76.2731 105.215 76.4763 105.419 76.4763 105.674Z" fill="#FEFEFE"/>
<path d="M102.543 105.674C102.543 105.929 102.339 106.133 102.085 106.133C101.831 106.133 101.628 105.929 101.628 105.674C101.628 105.419 101.831 105.215 102.085 105.215C102.339 105.215 102.543 105.419 102.543 105.674Z" fill="#FEFEFE"/>
<path d="M111.489 95.8396C111.489 96.0945 111.286 96.2984 111.032 96.2984C110.778 96.2984 110.574 96.0945 110.574 95.8396C110.574 95.5848 110.778 95.3809 111.032 95.3809C111.286 95.3809 111.489 95.5848 111.489 95.8396Z" fill="#FEFEFE"/>
<path d="M118.455 85.3423C119.521 85.3423 120.386 84.4756 120.386 83.4065C120.386 82.3374 119.521 81.4707 118.455 81.4707C117.388 81.4707 116.523 82.3374 116.523 83.4065C116.523 84.4756 117.388 85.3423 118.455 85.3423Z" fill="#FEFEFE"/>
<path opacity="0.5" d="M126.588 67.6618C135.093 67.6618 141.988 60.7498 141.988 52.2235C141.988 43.6971 135.093 36.7852 126.588 36.7852C118.083 36.7852 111.188 43.6971 111.188 52.2235C111.188 60.7498 118.083 67.6618 126.588 67.6618Z" fill="#A5A5A5"/>
<path d="M126.584 66.7459C134.583 66.7459 141.068 60.2445 141.068 52.2245C141.068 44.2046 134.583 37.7031 126.584 37.7031C118.584 37.7031 112.099 44.2046 112.099 52.2245C112.099 60.2445 118.584 66.7459 126.584 66.7459Z" fill="#575757"/>
<path d="M134.871 46.2612L131.822 43.5098H123.283V45.344H119.522V62.4639H131.161V60.6297H134.871V46.2612Z" fill="#434343"/>
<path d="M122.672 42.748V59.8672H134.26V45.4993L131.21 42.748H122.672Z" fill="#EFEFEF"/>
<path d="M134.259 45.4999L131.21 42.749V45.4999H134.259Z" fill="#C9C9C9"/>
<path d="M133.596 47.0273H123.431V47.5377H133.596V47.0273Z" fill="#D9D9D9"/>
<path d="M133.596 48.707H123.431V49.2178H133.596V48.707Z" fill="#D9D9D9"/>
<path d="M133.596 50.3887H123.431V50.8982H133.596V50.3887Z" fill="#D9D9D9"/>
<path d="M133.596 52.0713H123.431V52.5817H133.596V52.0713Z" fill="#D9D9D9"/>
<path d="M132.223 53.752H123.431V54.2627H132.223V53.752Z" fill="#D9D9D9"/>
<path d="M132.223 55.4336H123.431V55.9436H132.223V55.4336Z" fill="#D9D9D9"/>
<path d="M132.223 57.1143H123.431V57.6242H132.223V57.1143Z" fill="#D9D9D9"/>
<path d="M118.908 44.584V61.7039H130.496V47.3354L127.447 44.584H118.908Z" fill="white"/>
<path d="M130.499 47.3352L127.449 44.583V47.3352H130.499Z" fill="#E2E2E2"/>
<path d="M129.84 48.8643H119.675V49.3746H129.84V48.8643Z" fill="#F2F2F2"/>
<path d="M129.84 50.5449H119.675V51.0557H129.84V50.5449Z" fill="#F2F2F2"/>
<path d="M129.84 52.2266H119.675V52.7361H129.84V52.2266Z" fill="#F2F2F2"/>
<path d="M129.84 53.9062H119.675V54.4162H129.84V53.9062Z" fill="#F2F2F2"/>
<path d="M128.467 55.5879H119.675V56.0983H128.467V55.5879Z" fill="#F2F2F2"/>
<path d="M128.467 57.2686H119.675V57.7793H128.467V57.2686Z" fill="#F2F2F2"/>
<path d="M128.467 58.9502H119.675V59.4602H128.467V58.9502Z" fill="#F2F2F2"/>
<path d="M127.959 21.6025H109.662V32.0987H127.959V21.6025Z" fill="#B4B4B4"/>
<path d="M127.96 21.602L118.811 12.9404L109.663 21.602H127.96Z" fill="#E8E8E8"/>
<path d="M125.83 14.0625H111.803V30.4177H125.83V14.0625Z" fill="#FEFFFF"/>
<path d="M109.662 32.0987L118.861 26.8506L109.662 21.6025V32.0987Z" fill="#E3E3E3"/>
<path d="M127.966 32.0987L118.716 26.8506L127.966 21.6025V32.0987Z" fill="#E3E3E3"/>
<path d="M127.959 32.0962L118.81 25.8809L109.662 32.0962H127.959Z" fill="white"/>
<path d="M124.808 16.8115H112.966V17.2699H124.808V16.8115Z" fill="#F2F2F2"/>
<path d="M124.808 18.29H112.966V18.7496H124.808V18.29Z" fill="#F2F2F2"/>
<path d="M124.808 19.7168H112.966V20.1756H124.808V19.7168Z" fill="#F2F2F2"/>
<path d="M124.808 21.1426H112.966V21.6013H124.808V21.1426Z" fill="#F2F2F2"/>
<path d="M124.808 22.5684H112.966V23.0279H124.808V22.5684Z" fill="#F2F2F2"/>
<path d="M118.813 25.8809L127.962 31.3321V32.0962L118.813 25.8809Z" fill="#EEEEEE"/>
<path d="M118.81 25.8809L109.662 31.3321V32.0962L118.81 25.8809Z" fill="#EEEEEE"/>
<path d="M161.505 33.9336C161.505 34.2904 161.556 34.5963 161.556 34.9531" stroke="#434343" stroke-linecap="round" stroke-linejoin="round"/>
<path d="M161.71 36.3789C162.066 38.57 162.726 40.7612 163.336 42.9523" stroke="#434343" stroke-linecap="round" stroke-linejoin="round" stroke-dasharray="6.23 6.23"/>
<path d="M163.64 43.9189C164.454 46.8232 165.114 49.8293 164.708 52.8354C164.301 56.0454 162.471 59.2044 159.524 60.4272C156.982 61.4462 153.882 60.7838 151.951 58.8477C149.46 56.3001 149.308 52.3769 149.664 48.8612C149.867 47.1798 150.426 45.2437 152.002 44.7851C153.476 44.3775 154.848 45.5494 155.813 46.7213C159.219 50.7974 160.896 56.3001 160.337 61.5481C159.778 66.8471 157.033 71.8403 152.866 75.1521C147.021 79.7887 138.94 80.8587 132.739 84.9858" stroke="#434343" stroke-linecap="round" stroke-linejoin="round" stroke-dasharray="6.23 6.23"/>
<path d="M131.976 85.6504C131.722 85.8544 131.417 86.0584 131.163 86.2623" stroke="#434343" stroke-linecap="round" stroke-linejoin="round"/>
<path d="M146.247 76.0182C147.823 74.4892 147.264 73.5718 147.721 73.6737C148.178 73.7756 149.093 74.8459 149.347 74.8969C149.551 74.9479 149.449 76.222 149.5 76.4259C149.5 76.6298 149.246 77.2923 149.246 77.2923C149.195 77.2923 147.823 77.4452 147.772 77.4962C147.721 77.4962 147.162 77.2923 147.111 77.2414C147.06 77.2414 146.603 76.8336 146.501 76.7827C146.4 76.6298 146.247 76.0182 146.247 76.0182Z" fill="#FFCCA2"/>
<path d="M146.247 76.0182C147.823 74.4892 147.264 73.5718 147.721 73.6737C148.178 73.7756 149.093 74.8459 149.347 74.8969C149.551 74.9479 149.449 76.222 149.5 76.4259C149.5 76.6298 149.246 77.2923 149.246 77.2923C149.195 77.2923 147.823 77.4452 147.772 77.4962C147.721 77.4962 147.162 77.2923 147.111 77.2414C147.06 77.2414 146.603 76.8336 146.501 76.7827C146.4 76.6298 146.247 76.0182 146.247 76.0182Z" fill="#ABABAB"/>
<path d="M150.82 76.7821C150.922 76.5274 150.871 76.0179 150.617 75.5084C150.363 75.0498 150.16 74.6931 150.058 73.9798C149.906 72.9608 149.804 72.808 149.55 72.9608C149.347 73.0627 149.092 73.6232 149.194 74.2855C149.245 74.5912 149.245 74.6422 149.245 74.8969C149.245 75.0498 148.991 75.4574 149.143 76.2217C149.296 76.935 149.245 76.7821 148.991 76.8331C148.228 76.935 147.822 77.5464 147.263 77.1897C146.45 76.7312 146.297 76.1707 146.297 76.1707C146.297 76.1707 145.992 75.7122 145.992 76.0688C145.992 76.6293 147.517 77.7502 147.924 77.954C148.686 78.3616 148.94 78.4635 149.296 78.3616C149.601 78.3107 152.752 81.3168 153.108 81.6734C153.463 82.0301 155.191 80.3996 154.683 80.043C154.124 79.6354 150.77 76.935 150.82 76.7821Z" fill="#C2C2C2"/>
<path d="M149.752 72.9092C149.854 72.9603 149.905 73.1646 150.006 73.6243C149.803 73.4711 149.701 73.0624 149.752 72.9092Z" fill="#1A1A1A"/>
<path d="M146.499 77.497C147.363 78.1085 148.887 76.325 149.497 75.7136C149.802 75.4078 150.26 75.153 150.666 74.9492C151.022 74.7964 151.276 74.6944 151.276 74.6944L148.989 73.5225C148.938 73.6753 148.836 73.8282 148.735 74.032C148.074 74.9492 146.499 75.8155 145.99 76.1722C145.38 76.6308 145.635 76.9365 146.499 77.497Z" fill="#D02E1B"/>
<path d="M148.736 74.0318C148.787 74.0828 148.838 74.0828 148.889 74.1337C149.143 74.2356 149.397 74.3375 149.6 74.4904C149.956 74.6432 150.312 74.7961 150.617 74.9999C150.973 74.847 151.227 74.7451 151.227 74.7451L148.94 73.5732C148.94 73.7261 148.838 73.879 148.736 74.0318Z" fill="#454545"/>
<path d="M144.671 72.8094C146.551 72.5037 148.838 73.6246 150.16 74.4398C150.871 74.8983 151.329 75.255 151.329 75.255C151.329 75.255 152.396 75.9683 153.006 75.0002L153.057 74.9493C153.616 73.9812 153.006 73.2679 153.006 73.2679C152.549 72.8604 152.091 72.5037 151.735 72.0961C149.296 69.4977 148.838 66.9502 148.838 66.9502L145.23 72.0451L144.671 72.8094Z" fill="#D02E1B"/>
<path d="M144.671 72.8105C146.551 72.5048 148.838 73.6257 150.16 74.4409C150.617 73.6766 151.227 72.7595 151.735 72.0462C149.296 69.4478 148.838 66.9004 148.838 66.9004L144.671 72.8105Z" fill="#FEFFF1"/>
<path opacity="0.1" d="M144.671 72.8086C146.551 72.5029 148.838 73.6238 150.16 74.4391C150.871 74.8976 151.329 75.2543 151.329 75.2543C151.329 75.2543 152.396 75.9677 153.006 74.9996L153.057 74.9486C152.904 74.8976 152.701 74.8976 152.549 74.8976C152.091 74.8467 151.685 74.7448 151.278 74.541C150.617 74.2353 150.109 73.7257 149.499 73.3181C148.432 72.6048 147.263 72.0953 145.992 71.9933C145.738 71.9933 145.433 71.9424 145.179 71.9933L144.671 72.8086Z" fill="black"/>
<path d="M145.23 68.7834C143.857 70.7706 143.298 72.7579 144.01 73.2675C144.721 73.777 146.45 72.605 147.873 70.6178C149.245 68.6305 149.804 66.6432 149.092 66.1337C148.33 65.6241 146.653 66.7961 145.23 68.7834Z" fill="#4F4F4F"/>
<path d="M144.064 73.0129C144.318 73.1658 144.673 73.1148 145.131 72.8091C145.842 72.4014 146.706 71.5352 147.52 70.4142C148.384 69.1913 148.943 68.0193 149.044 67.2041C149.095 66.7964 149.044 66.4397 148.841 66.3378C148.231 65.9302 146.706 67.1021 145.385 68.9365C144.064 70.7709 143.454 72.6053 144.064 73.0129Z" fill="#FEFFF1"/>
<path opacity="0.1" d="M145.434 71.6849C145.281 72.0415 145.18 72.449 145.129 72.8056C145.637 72.4999 146.247 71.9396 146.857 71.2264C147.06 70.9717 147.263 70.717 147.467 70.4114C147.721 70.1058 147.924 69.7492 148.077 69.4435C148.585 68.5775 148.89 67.7625 148.991 67.2021C148.077 67.5587 147.416 68.3228 146.806 69.0869C146.501 69.4945 146.247 69.9529 145.993 70.4114V70.4623C145.79 70.8699 145.586 71.2774 145.434 71.6849Z" fill="black"/>
<path d="M145.988 70.4662L146.852 71.2813C147.056 71.0266 147.259 70.7719 147.462 70.4662C147.716 70.1605 147.92 69.8039 148.072 69.4982L147.106 68.8359L145.988 70.4662Z" fill="#D02E1B"/>
<path d="M146.293 69.447C145.988 69.9058 145.886 70.3137 146.039 70.4666C146.191 70.5686 146.598 70.3137 146.903 69.9058C147.208 69.447 147.309 69.0392 147.157 68.8863C146.954 68.7333 146.598 68.9882 146.293 69.447Z" fill="#464646"/>
<path d="M146.293 69.4469C146.038 69.8036 145.937 70.2112 146.089 70.2621C146.242 70.364 146.547 70.1602 146.801 69.7526C147.055 69.396 147.157 68.9884 147.004 68.9374C146.852 68.8865 146.547 69.0903 146.293 69.4469Z" fill="#D02E1B"/>
<path d="M147.316 75.3568C147.825 75.7644 148.333 76.0701 148.587 75.7644C148.79 75.4587 148.384 75.153 147.876 74.7454C147.367 74.3378 147.012 73.9302 146.707 74.3378C146.402 74.7963 146.808 75.0001 147.316 75.3568Z" fill="#C2C2C2"/>
<path d="M146.911 76.0195C147.419 76.4273 147.928 76.7331 148.182 76.4273C148.385 76.1214 147.979 75.8156 147.47 75.4078C146.962 75 146.606 74.5922 146.301 75C145.996 75.4078 146.403 75.6117 146.911 76.0195Z" fill="#C2C2C2"/>
<path d="M146.652 76.5803C147.11 76.9374 147.567 77.2945 147.771 77.0394C147.974 76.7844 147.567 76.4783 147.11 76.1212C146.652 75.7641 146.347 75.407 146.043 75.7641C145.738 76.1212 146.144 76.2232 146.652 76.5803Z" fill="#C2C2C2"/>
<path d="M147.823 74.7449C148.331 75.1524 148.789 75.509 149.043 75.2543C149.297 74.9996 148.89 74.643 148.382 74.2354C147.874 73.8279 147.569 73.3694 147.264 73.777C146.959 74.1336 147.366 74.3373 147.823 74.7449Z" fill="#C2C2C2"/>
<path d="M167.903 137.313H165.921V140.167H167.903V137.313Z" fill="#C3C3C3"/>
<path d="M177.05 137.313H175.067V140.167H177.05V137.313Z" fill="#C3C3C3"/>
<path d="M168.865 141.798C168.865 142.053 168.865 142.206 168.865 142.206H161.089C161.089 142.104 161.089 142.053 161.089 141.951C161.089 141.9 161.089 141.849 161.14 141.798C161.343 141.085 162.156 140.932 163.173 140.881C163.223 140.881 163.274 140.881 163.325 140.881C164.545 140.83 165.612 139.25 165.612 139.25C166.934 140.269 168.153 139.25 168.153 139.25C168.814 139.505 168.865 141.085 168.865 141.798Z" fill="#878787"/>
<path d="M161.091 141.798H168.816C168.816 142.053 168.816 142.207 168.816 142.207H161.04C161.091 142.053 161.091 141.9 161.091 141.798Z" fill="#E5E5E5"/>
<path d="M163.129 140.88C163.129 140.931 163.078 141.033 163.078 141.084C162.925 141.39 162.671 141.644 162.366 141.797C162.061 142.001 161.807 142.154 161.451 142.052C161.35 142.001 161.197 141.95 161.096 141.899C161.096 141.848 161.096 141.797 161.147 141.746C161.299 141.084 162.163 140.931 163.129 140.88Z" fill="#E5E5E5"/>
<path d="M178.317 142.256H173.387C173.387 142.256 173.387 142.052 173.438 141.797C173.438 141.746 173.438 141.746 173.438 141.695C173.488 141.441 173.539 141.186 173.59 141.084C173.742 140.829 174.403 140.625 174.556 140.014C174.759 139.3 175.826 139.147 175.826 139.147C176.385 139.198 177.198 139.402 177.148 139.963C177.148 140.218 177.554 140.829 177.859 140.982C178.012 141.033 178.164 141.441 178.215 141.746C178.215 141.746 178.215 141.746 178.215 141.797C178.266 142.001 178.317 142.154 178.317 142.256Z" fill="#878787"/>
<path d="M178.318 142.257H173.388C173.388 142.257 173.388 142.053 173.439 141.798H178.267C178.267 142.053 178.318 142.257 178.318 142.257Z" fill="#E5E5E5"/>
<path d="M178.32 142.154C178.32 142.204 178.32 142.204 178.32 142.255C178.32 142.255 178.32 142.255 178.32 142.306H173.39C173.39 142.306 173.39 142.103 173.44 141.848C173.44 141.797 173.44 141.797 173.44 141.746C173.745 141.185 174.711 140.727 175.829 140.727C176.998 140.727 177.964 141.185 178.269 141.797C178.269 141.899 178.32 142.001 178.32 142.154Z" fill="#E5E5E5"/>
<path d="M179.084 103.072L178.881 106.486L177.306 137.668H174.764L172.426 109.747L172.274 110.664L168.056 138.076L167.497 138.127H165.769L166.734 106.537L166.836 103.072H179.084Z" fill="#575757"/>
<path d="M172.274 110.667L168.055 138.078L167.496 138.129L170.952 111.584L170.139 109.902L172.274 110.667Z" fill="#474747"/>
<path d="M177.911 109.392C177.454 115.047 176.945 120.856 177.098 126.511C177.098 127.123 177.098 128.6 177.047 130.282C176.996 132.982 176.945 136.294 177.047 137.262C177.047 137.415 177.098 137.517 177.098 137.669H177.047C177.047 137.567 176.996 137.415 176.996 137.313C176.895 136.345 176.945 132.982 176.996 130.282C177.047 128.6 177.047 127.123 177.047 126.511C176.895 120.856 177.352 114.996 177.86 109.341C177.962 107.914 178.114 106.386 178.216 104.959H178.267C178.165 106.488 178.013 107.965 177.911 109.392Z" fill="white"/>
<path d="M179.081 103.072L178.928 106.486C174.608 107.76 170.542 107.964 166.73 106.537L166.832 103.072H179.081Z" fill="#474747"/>
<path d="M179.488 104.907C179.488 105.213 179.336 105.468 179.031 105.57C174.813 106.895 170.747 107.098 167.036 105.621C166.782 105.519 166.63 105.264 166.63 105.009L167.646 87.1761C167.799 85.5456 169.019 84.3228 170.493 84.1699C170.594 84.1699 170.696 84.1699 170.797 84.1699H175.575C175.778 84.1699 175.931 84.2209 176.134 84.2209C181.572 84.9852 178.574 85.6985 178.675 87.278L178.726 88.348L179.438 104.856L179.488 104.907Z" fill="#6C6C6C"/>
<path d="M172.067 84.6299C173.135 85.3942 172.474 87.1775 171.356 87.7889C170.085 88.4513 167.696 88.9098 163.478 87.636L160.988 86.7699C160.988 86.7699 153.313 82.7447 151.331 80.0443L152.703 78.4648C152.703 78.4648 160.276 82.9485 163.173 83.6109C163.122 83.6109 169.323 82.6938 172.067 84.6299Z" fill="#6C6C6C"/>
<path d="M177.764 105.827L178.475 94.4648C177.052 92.9873 176.595 89.4208 176.595 89.4208L178.729 88.249L179.441 104.757L177.764 105.827Z" fill="#3E3E3E"/>
<path d="M178.621 112.704C178.316 112.653 178.57 111.736 178.57 111.227C178.621 110.717 178.57 110.615 178.468 110.666C178.418 110.717 178.163 111.736 178.062 112.144C177.96 112.602 177.859 113.316 177.554 113.265C177.249 113.214 177.401 112.501 177.503 111.838C177.604 111.227 177.808 110.666 177.655 110.615C177.503 110.564 176.893 112.806 176.842 112.959C176.791 113.112 176.639 113.672 176.385 113.621C176.131 113.571 176.181 113.061 176.232 112.806C176.283 112.551 176.435 111.838 176.639 111.278C176.791 110.717 176.893 110.513 176.791 110.462C176.69 110.411 176.131 111.685 175.927 112.144C175.724 112.602 175.419 113.01 175.165 112.755C174.911 112.551 175.368 111.685 175.622 111.176C175.876 110.666 176.283 109.8 176.334 109.443C176.435 109.087 176.537 108.73 176.385 108.73C176.334 108.73 176.283 108.73 176.283 108.73C176.13 108.679 175.826 108.883 175.571 109.036C175.368 109.189 174.962 109.189 174.707 109.138C174.453 109.087 174.352 108.883 174.911 108.679C175.47 108.475 176.131 107.915 176.385 107.507C176.639 107.151 176.791 106.845 177.299 106.845C177.452 106.845 178.214 103.278 178.316 102.769C178.418 102.259 180.501 102.972 180.4 103.38C180.298 103.788 178.977 107.303 179.129 107.558C179.282 107.762 179.332 108.017 179.332 108.781C179.332 109.138 179.231 109.902 179.18 110.462C179.18 110.462 179.027 111.583 178.977 112.042C178.926 112.551 178.926 112.755 178.621 112.704Z" fill="#C2C2C2"/>
<path d="M176.339 85.5988C176.644 84.3251 178.524 84.2741 179.541 85.1403C180.659 86.0574 181.93 88.1463 182.285 92.5789L182.387 95.2283C182.387 95.2283 181.421 103.584 179.592 106.386L177.762 105.826C177.762 105.826 179.084 97.2663 178.677 94.3622C178.626 94.3112 175.526 88.8596 176.339 85.5988Z" fill="#6C6C6C"/>
<path d="M177.454 78.4637C178.318 77.2918 178.674 75.7632 178.318 74.3366C178.267 74.0818 178.115 73.7761 177.861 73.6742C177.454 73.4704 176.946 73.878 176.488 73.7252C175.98 73.5723 175.98 72.859 175.675 72.4004C175.218 71.789 174.303 71.789 173.591 71.5342C172.422 71.0247 171.863 69.5471 170.644 69.1904C169.881 68.9357 169.017 69.2414 168.458 69.8018C167.899 70.3623 167.543 71.1266 167.391 71.8909C167.238 72.7061 167.289 73.6232 167.747 74.3366C168.255 75.1009 169.22 75.4575 169.83 76.1199C171.05 77.3937 170.898 80.298 172.727 80.9603C174.354 81.5718 176.59 79.6356 177.454 78.4637Z" fill="#555555"/>
<path d="M176.237 78.9226C176.339 80.8078 174.865 82.4382 173.035 82.5401C171.257 82.642 169.681 81.3173 169.478 79.534C169.478 79.483 169.478 79.3811 169.427 79.2792L169.274 76.2221C169.274 76.1712 169.274 76.1202 169.274 76.0183C169.274 74.235 170.698 72.7065 172.527 72.6046C174.408 72.5027 176.034 73.9803 176.136 75.8145L176.237 78.0564V78.9226Z" fill="#C3C3C3"/>
<path d="M177.862 77.5483C177.862 77.5483 174.66 79.2805 173.084 74.6953C171.458 70.0591 177.658 73.982 177.862 77.5483Z" fill="#555555"/>
<path d="M171.614 79.332V85.2421C171.614 86.1592 172.427 86.8725 173.495 86.8725C174.511 86.8725 175.375 86.1592 175.375 85.2421V79.332" fill="#C3C3C3"/>
<path d="M168.967 75.0495C168.967 75.0495 172.372 76.3231 174.761 75.8137C174.761 75.8137 174.659 72.1966 172.118 71.6362C169.628 71.0758 168.967 75.0495 168.967 75.0495Z" fill="#555555"/>
<path d="M171.614 82.3894C171.614 82.3894 173.647 82.8486 175.375 81.624V82.7465C175.324 82.7976 172.834 83.716 171.614 82.3894Z" fill="#B5B5B5"/>
<path d="M176.237 78.9228C176.339 80.8076 174.865 82.4378 173.035 82.5397C171.256 82.6416 169.681 81.3171 169.478 79.5341C169.732 79.2794 170.342 79.2794 170.646 79.3813C170.951 79.4832 171.155 79.6869 171.46 79.7888C172.12 80.1454 172.934 80.1454 173.696 80.1454C173.798 80.1454 173.899 80.1454 174.001 80.0945C174.153 79.9926 174.204 79.7888 174.204 79.5851C174.306 78.77 174.255 77.9549 174.153 77.1398C174.103 76.9361 174.052 76.3757 174.103 76.2229C174.204 76.0701 174.509 76.3248 174.611 76.4776C174.662 76.5286 174.865 76.5795 174.916 76.6304C174.967 77.038 174.763 77.5983 175.068 77.853C175.373 78.1078 175.78 78.0059 176.186 78.1078H176.237V78.9228Z" fill="#555555"/>
<path d="M174.813 77.2922C174.864 77.802 175.27 78.2099 175.829 78.2099C176.338 78.1589 176.744 77.751 176.744 77.1902C176.693 76.6803 176.287 76.2725 175.728 76.2725C175.169 76.3234 174.762 76.7823 174.813 77.2922Z" fill="#C3C3C3"/>
<path d="M176.137 77.3446C176.086 77.5484 175.882 77.7013 175.628 77.6503C175.425 77.5994 175.273 77.3956 175.323 77.1408C175.374 76.937 175.577 76.7841 175.832 76.8351C176.035 76.937 176.187 77.1408 176.137 77.3446Z" fill="#B5B5B5"/>
</svg>
