<svg width="230" height="137" viewBox="0 0 230 137" fill="none" xmlns="http://www.w3.org/2000/svg">
<path d="M213.358 58.9124H172.388C172.762 58.9124 173.136 58.8783 173.511 58.8783C167.964 58.4019 163.642 54.3866 163.642 49.5546C163.642 44.6885 167.964 40.7072 173.511 40.2308C173.136 40.1968 172.762 40.1968 172.388 40.1968C178.479 40.1968 183.379 36.0113 183.379 30.8049C183.379 25.6326 178.445 21.4131 172.388 21.4131H31.2381C25.147 21.4131 20.2469 25.5986 20.2469 30.8049C20.2469 35.9772 25.181 40.1968 31.2381 40.1968H28.4137C34.5048 40.1968 39.4049 44.3822 39.4049 49.5886C39.4049 54.7609 34.4707 58.9804 28.4137 58.9804H16.5718C7.41819 58.9804 0 65.3097 0 73.1022C0 80.8947 7.41819 87.224 16.5718 87.224H28.4477C34.5388 87.224 39.4389 91.4435 39.4389 96.6158C39.4389 101.788 34.5048 106.008 28.4477 106.008H31.2721C25.181 106.008 20.2809 110.193 20.2809 115.399C20.2809 120.572 25.215 124.791 31.2721 124.791H172.422C178.513 124.791 183.413 120.606 183.413 115.399C183.413 110.227 178.479 106.008 172.422 106.008C172.796 106.008 173.17 105.974 173.545 105.974C167.998 105.497 163.676 101.482 163.676 96.6498C163.676 91.7838 167.998 87.8025 173.545 87.3261C173.17 87.292 172.796 87.292 172.422 87.292H213.392C222.546 87.292 229.964 80.9628 229.964 73.1703C229.93 65.2416 222.512 58.9124 213.358 58.9124Z" fill="#DFDFDF"/>
<path d="M204.159 134.375C204.159 135.677 196.077 136.75 186.08 136.75C176.121 136.75 168 135.677 168 134.375C168 133.073 176.082 132 186.08 132C196.077 132 204.159 133.034 204.159 134.375Z" fill="#EDEDED"/>
<path d="M88.1593 132.375C88.1593 133.677 80.0771 134.75 70.0797 134.75C60.1205 134.75 52 133.677 52 132.375C52 131.073 60.0822 130 70.0797 130C80.0771 130 88.1593 131.034 88.1593 132.375Z" fill="#EDEDED"/>
<path d="M166 135.5C166 136.323 161.083 137 155 137C148.941 137 144 136.323 144 135.5C144 134.677 148.917 134 155 134C161.083 134 166 134.653 166 135.5Z" fill="#EDEDED"/>
<path d="M59.0734 126.153C59.0734 126.153 54.7859 132.415 48.4566 127.855C42.1273 123.295 42.944 124.622 35.0834 124.724C27.2229 124.826 28.7201 116.591 30.4896 114.448C32.2591 112.304 31.3743 108.118 26.3041 109.275C21.2339 110.432 15.8234 110.296 17.831 104.205C19.8387 98.1481 14.4282 96.6168 12.3865 91.6827C10.3448 86.7486 10.4809 81.2019 13.6455 80.5554C16.8102 79.9088 19.8387 84.843 22.4929 84.7409C25.1471 84.6048 26.4062 79.9429 29.5708 80.5214C32.7355 81.0998 32.7695 82.9714 35.0154 88.0416C37.2953 93.1119 39.8134 92.7375 42.978 91.5806C46.1426 90.4576 49.1712 91.9549 50.8045 96.3786C52.4379 100.802 53.0504 106.383 54.3775 106.859C55.8067 107.37 62.6124 118.735 59.0734 126.153Z" fill="#9F9F9F"/>
<path d="M22.0508 89.6738C22.0508 89.6738 50.0902 104.068 59.0737 126.152" stroke="#353535" stroke-miterlimit="10" stroke-linecap="round" stroke-linejoin="round"/>
<path d="M34.6427 100.835C36.106 102.434 36.6844 104.306 35.9358 104.952C35.1872 105.633 33.4177 104.884 31.9545 103.285C30.4913 101.686 29.9128 99.814 30.6614 99.1675C31.41 98.4869 33.1795 99.2356 34.6427 100.835Z" fill="#858585"/>
<path d="M30.4202 89.4009C31.1688 90.1495 31.373 91.1363 30.8626 91.6467C30.3521 92.1572 29.3653 91.953 28.6167 91.2044C27.8681 90.4557 27.6639 89.4689 28.1743 88.9585C28.6507 88.4481 29.6716 88.6522 30.4202 89.4009Z" fill="#858585"/>
<path d="M46.6887 99.0648C48.22 100.596 48.8325 102.502 48.0158 103.318C47.1992 104.135 45.3276 103.522 43.7623 101.991C42.231 100.46 41.6185 98.5543 42.4352 97.7377C43.2519 96.921 45.1234 97.4995 46.6887 99.0648Z" fill="#858585"/>
<path d="M48.8219 122.212C50.4504 120.878 50.1489 117.817 48.1485 115.374C46.148 112.931 43.2061 112.032 41.5776 113.366C39.9491 114.699 40.2506 117.761 42.251 120.203C44.2515 122.646 47.1934 123.545 48.8219 122.212Z" fill="#858585"/>
<path d="M58.3241 125.778C58.3241 125.778 49.851 106.961 41.6161 94.234C33.3813 81.5074 34.4021 68.3725 44.6447 67.1134C54.8872 65.8544 63.7686 88.4832 58.3241 125.778Z" fill="#616161"/>
<path d="M47.0947 75.8252C47.0947 75.8252 59.2088 98.0798 58.3241 125.779" stroke="#2D2D2D" stroke-miterlimit="10" stroke-linecap="round" stroke-linejoin="round"/>
<path d="M45.4279 79.9089C46.2105 82.0527 45.9383 84.1284 44.8494 84.5027C43.7605 84.9111 42.2292 83.4819 41.4465 81.3381C40.6639 79.1943 40.9361 77.1186 42.025 76.7442C43.1139 76.3699 44.6452 77.7651 45.4279 79.9089Z" fill="#555555"/>
<path d="M49.6812 90.2184C50.1576 91.5796 49.9874 92.8727 49.3069 93.1109C48.6263 93.3491 47.6735 92.4643 47.1631 91.1372C46.6867 89.7761 46.8568 88.483 47.5374 88.2448C48.252 88.0066 49.2048 88.8913 49.6812 90.2184Z" fill="#555555"/>
<path d="M55.8427 88.1398C56.7441 87.8141 56.8534 85.8305 56.0869 83.7095C55.3204 81.5885 53.9682 80.1332 53.0668 80.4589C52.1653 80.7847 52.056 82.7683 52.8225 84.8893C53.5891 87.0103 54.9412 88.4656 55.8427 88.1398Z" fill="#555555"/>
<path d="M52.5046 100.053C52.8108 100.734 52.7087 101.448 52.3004 101.618C51.8921 101.788 51.3136 101.38 51.0414 100.7C50.7351 100.019 50.8372 99.3044 51.2455 99.1343C51.6198 98.9641 52.1983 99.3725 52.5046 100.053Z" fill="#555555"/>
<path d="M42.2963 129.896C42.2963 129.896 40.8671 127.991 43.2491 125.575C43.2491 125.575 41.8539 117.442 50.1569 116.353C50.1569 116.353 51.7222 110.875 56.4181 110.262C61.114 109.65 64.8571 112.61 65.946 116.659C65.946 116.659 69.553 115.4 72.8198 117.612C76.0865 119.79 75.7802 124.35 75.7802 124.35C75.7802 124.35 79.3873 125.643 77.9581 129.93H42.2963V129.896Z" fill="#A9A9A9"/>
<path d="M57.9827 120.981C57.9827 120.981 55.3285 120.981 54.8181 116.387C54.5459 114.005 55.5667 111.827 56.6216 110.262C56.5535 110.262 56.4855 110.262 56.4514 110.262C51.7555 110.874 50.1902 116.353 50.1902 116.353C41.9213 117.442 43.2825 125.574 43.2825 125.574C40.8664 127.991 42.3297 129.896 42.3297 129.896H57.4383C53.1507 125.438 57.9827 120.981 57.9827 120.981Z" fill="#929292"/>
<path d="M170.483 126.153C170.483 126.153 174.771 132.415 181.1 127.855C187.429 123.295 186.612 124.622 194.473 124.724C202.334 124.826 200.836 116.591 199.067 114.448C197.297 112.304 198.182 108.118 203.252 109.275C208.323 110.398 213.733 110.296 211.725 104.205C209.718 98.1481 215.128 96.6168 217.17 91.6827C219.178 86.7486 219.076 81.2019 215.911 80.5554C212.746 79.9088 209.718 84.843 207.064 84.7409C204.409 84.6048 203.15 79.9429 199.986 80.5214C196.821 81.0998 196.787 82.9714 194.541 88.0416C192.261 93.1119 189.743 92.7375 186.578 91.5806C183.414 90.4576 180.385 91.9549 178.752 96.3786C177.119 100.802 176.506 106.383 175.179 106.859C173.75 107.37 166.978 118.735 170.483 126.153Z" fill="#9F9F9F"/>
<path d="M207.541 89.6738C207.541 89.6738 179.502 104.068 170.519 126.152" stroke="#2D2D2D" stroke-miterlimit="10" stroke-linecap="round" stroke-linejoin="round"/>
<path d="M197.675 103.28C199.126 101.679 199.692 99.8276 198.94 99.1464C198.188 98.4651 196.402 99.2114 194.951 100.813C193.5 102.415 192.934 104.266 193.686 104.947C194.438 105.629 196.224 104.882 197.675 103.28Z" fill="#818181"/>
<path d="M199.169 89.4009C198.421 90.1495 198.217 91.1363 198.727 91.6467C199.237 92.1572 200.224 91.953 200.973 91.2044C201.722 90.4557 201.926 89.4689 201.415 88.9585C200.905 88.4481 199.918 88.6522 199.169 89.4009Z" fill="#818181"/>
<path d="M182.905 99.0657C181.374 100.597 180.761 102.503 181.578 103.319C182.394 104.136 184.266 103.523 185.831 101.992C187.363 100.461 187.975 98.5553 187.158 97.7386C186.342 96.922 184.436 97.5004 182.905 99.0657Z" fill="#818181"/>
<path d="M181.443 115.365C179.435 117.815 179.129 120.877 180.762 122.205C182.395 123.532 185.322 122.613 187.329 120.197C189.337 117.747 189.643 114.684 188.01 113.357C186.377 112.03 183.45 112.915 181.443 115.365Z" fill="#818181"/>
<path d="M171.265 125.778C171.265 125.778 179.738 106.961 187.973 94.234C196.208 81.5074 195.187 68.3725 184.944 67.1134C174.668 65.8544 165.82 88.4832 171.265 125.778Z" fill="#616161"/>
<path d="M182.491 75.8252C182.491 75.8252 170.377 98.0798 171.262 125.779" stroke="#2D2D2D" stroke-miterlimit="10" stroke-linecap="round" stroke-linejoin="round"/>
<path d="M184.16 79.9089C183.378 82.0527 183.65 84.1284 184.739 84.5027C185.828 84.9111 187.359 83.4819 188.142 81.3381C188.924 79.1943 188.652 77.1186 187.563 76.7442C186.44 76.3699 184.943 77.7651 184.16 79.9089Z" fill="#555555"/>
<path d="M179.906 90.2184C179.43 91.5796 179.6 92.8727 180.281 93.1109C180.961 93.3491 181.914 92.4643 182.424 91.1372C182.901 89.7761 182.731 88.483 182.05 88.2448C181.335 88.0066 180.383 88.8913 179.906 90.2184Z" fill="#555555"/>
<path d="M173.509 83.6851C172.76 85.7949 172.862 87.7685 173.747 88.1088C174.632 88.4151 175.993 86.9859 176.742 84.8761C177.49 82.7664 177.388 80.7927 176.503 80.4524C175.619 80.1462 174.291 81.5754 173.509 83.6851Z" fill="#555555"/>
<path d="M177.08 100.053C176.774 100.734 176.876 101.448 177.285 101.618C177.693 101.788 178.271 101.38 178.544 100.7C178.85 100.019 178.748 99.3044 178.339 99.1343C177.931 98.9641 177.387 99.3725 177.08 100.053Z" fill="#555555"/>
<path d="M187.292 129.896C187.292 129.896 188.721 127.991 186.339 125.575C186.339 125.575 187.734 117.442 179.431 116.353C179.431 116.353 177.866 110.875 173.17 110.262C168.474 109.65 164.731 112.61 163.642 116.659C163.642 116.659 160.035 115.4 156.768 117.612C153.501 119.79 153.808 124.35 153.808 124.35C153.808 124.35 150.201 125.643 151.63 129.93H187.292V129.896Z" fill="#A9A9A9"/>
<path d="M171.604 120.981C171.604 120.981 174.258 120.981 174.768 116.387C175.04 114.005 174.02 111.827 172.965 110.262C173.033 110.262 173.101 110.262 173.135 110.262C177.831 110.874 179.396 116.353 179.396 116.353C187.665 117.442 186.304 125.574 186.304 125.574C188.72 127.991 187.257 129.896 187.257 129.896H172.148C176.436 125.438 171.604 120.981 171.604 120.981Z" fill="#929292"/>
<path d="M168.712 114.447H61.2506C58.154 114.447 55.6699 111.928 55.6699 108.866V40.3668C55.6699 37.2702 58.188 34.7861 61.2506 34.7861H168.712C171.809 34.7861 174.293 37.3042 174.293 40.3668V108.866C174.293 111.963 171.775 114.447 168.712 114.447Z" fill="#292929"/>
<path d="M166.596 112.315H63.4769C60.3593 112.315 57.8584 109.82 57.8584 106.785V42.2872C57.8584 39.2191 60.3936 36.7578 63.4769 36.7578H166.596C169.714 36.7578 172.215 39.2528 172.215 42.2872V106.785C172.215 109.853 169.68 112.315 166.596 112.315Z" fill="white"/>
<path d="M168.202 41.5928H60.1963V45.1317H168.202V41.5928Z" fill="#DBDBDB"/>
<path d="M146.22 94.2002H82.2129V95.7315H146.22V94.2002Z" fill="#DBDBDB"/>
<path d="M146.22 98.1475H82.2129V99.6787H146.22V98.1475Z" fill="#DBDBDB"/>
<path d="M146.22 102.061H82.2129V103.592H146.22V102.061Z" fill="#DBDBDB"/>
<path d="M124.748 114.446H103.685V123.294H124.748V114.446Z" fill="#EEEEEE"/>
<path d="M127.81 126.152H100.621V125.812C100.621 124.451 101.744 123.328 103.105 123.328H125.326C126.687 123.328 127.81 124.451 127.81 125.812V126.152Z" fill="#9C9C9C"/>
<path d="M3.40413 31.5872C3.40413 31.5872 7.18128 22.7058 9.86952 22.7058C12.5578 22.7058 13.7828 25.1559 15.1439 24.7135C16.5391 24.3052 19.2954 12.4633 23.4809 12.9056C27.6664 13.348 27.0539 23.2843 31.2393 24.0329C35.4248 24.8156 37.8749 18.0439 42.5368 19.1669C47.1987 20.2898 48.1855 28.8309 49.4105 30.9067C50.6355 33.0164 52.5751 34.4796 50.023 34.4796C47.4709 34.5137 -2.34667 34.4116 3.40413 31.5872Z" fill="#9C9C9C"/>
<path d="M152.617 23.3871C152.617 23.3871 156.7 20.4606 160.579 12.4299C164.424 4.39925 168.848 4.90967 170.345 5.35204C171.843 5.82844 174.088 11.1369 175.96 15.9349C177.866 20.7329 180.248 18.8273 181.609 14.6078C182.97 10.3882 185.998 13.0765 186.407 14.7439C186.815 16.4113 187.53 19.5078 190.388 18.521C193.212 17.5342 194.199 18.2148 194.505 19.746C194.812 21.2773 196.513 22.128 202.706 22.6044C208.899 23.0808 211.52 25.633 207.198 26.3816C202.808 27.1642 138.631 26.7899 152.617 23.3871Z" fill="#9C9C9C"/>
<path d="M157.382 75.7557V87.8018C157.382 88.108 157.62 88.3122 157.892 88.3122C158.199 88.3122 158.403 88.074 158.403 87.8018V81.9489C158.403 81.4044 158.845 80.9961 159.355 80.9961C159.9 80.9961 160.308 81.4384 160.308 81.9489V89.9796C160.308 90.6261 160.853 91.1706 161.499 91.1706C162.146 91.1706 162.69 90.6261 162.69 89.9796V82.4253C162.69 81.8128 163.201 81.3023 163.813 81.3023C164.426 81.3023 164.936 81.8128 164.936 82.4253C164.936 83.0037 165.378 83.4461 165.957 83.4461H166.365C167.148 83.4461 167.795 82.7996 167.795 82.0169V75.7217H157.382V75.7557Z" fill="#D02E1B"/>
<path d="M167.69 75.7559H157.754C157.414 75.7559 157.142 75.4836 157.142 75.1433V73.9524C157.142 73.6121 157.414 73.3398 157.754 73.3398H167.69C168.031 73.3398 168.303 73.6121 168.303 73.9524V75.1433C168.303 75.4836 168.031 75.7559 167.69 75.7559Z" fill="#F5351F"/>
<path d="M187.021 82.4258C187.021 82.4258 186.306 85.2161 185.966 86.8495C185.626 88.4828 188.552 89.1634 188.552 89.1634L188.314 90.5926C188.314 90.5926 189.913 90.5245 190.424 91.3072L191.24 88.0745C191.24 88.0745 192.091 87.1898 191.921 86.1009C191.751 85.0119 190.628 85.1481 190.22 86.1009C190.22 86.1009 188.961 84.7397 188.961 82.9362C188.926 82.9022 188.076 83.3786 187.021 82.4258Z" fill="#A8A8A8"/>
<path d="M193.485 82.8682C193.485 82.8682 193.859 81.7793 193.111 80.9626C192.362 80.1459 190.865 80.1119 189.742 80.282C189.538 80.3161 188.687 80.248 187.564 79.8737C186.441 79.4994 185.216 79.8737 184.944 81.0647C184.706 82.2557 186.679 83.821 186.679 83.821C186.883 83.0043 187.02 82.3918 187.02 82.3918C188.074 83.3446 188.925 82.9022 188.925 82.9022C188.925 84.7057 190.184 86.0669 190.184 86.0669C190.558 85.1141 191.715 84.978 191.886 86.0669C192.056 87.1558 191.205 88.0405 191.205 88.0405C191.205 88.0405 193.315 86.9516 193.825 85.4203C194.336 83.8891 193.485 82.8682 193.485 82.8682Z" fill="#373737"/>
<path d="M188.279 90.5929C188.279 90.5929 185.932 90.3887 184.094 90.0144C182.256 89.6401 173.477 85.999 173.477 85.999C173.477 85.999 172.729 86.8157 172.729 87.7685C172.729 87.7685 178.377 91.6137 180.521 92.4644C182.665 93.3151 185.081 94.8124 185.081 94.8124C185.081 94.8124 184.911 101.346 185.081 103.66C185.251 105.974 185.251 106.79 185.251 106.79C185.251 106.79 189.3 107.165 192.465 106.144C192.465 106.144 192.125 98.1812 191.886 95.9693C191.648 93.7575 190.389 91.2734 190.389 91.2734C190.389 91.2734 189.641 90.2866 188.279 90.5929Z" fill="#C7C7C7"/>
<path d="M185.013 98.1812C185.047 96.3436 185.081 94.8123 185.081 94.8123C185.081 94.8123 184.775 94.6422 184.298 94.3359C184.298 94.3359 181.338 96.9221 181.1 96.9561C180.895 96.9902 178.139 94.3359 178.139 94.3359C177.561 94.5401 176.71 95.2547 176.71 95.2547C176.71 95.2547 179.773 99.9506 180.725 100.155C181.678 100.359 185.013 98.1812 185.013 98.1812Z" fill="#9A9A9A"/>
<path d="M177.423 91.9868C177.423 91.9868 177.9 93.7903 178.172 94.3348C178.172 94.3348 177.253 94.7431 176.743 95.2536C176.743 95.2536 175.79 94.7091 175.177 93.6202C174.565 92.5313 174.395 92.191 175.654 91.5445C176.913 90.8979 177.151 91.0681 177.423 91.9868Z" fill="#A8A8A8"/>
<path d="M185.08 94.8115L186.305 95.5261L185.08 96.2748V94.8115Z" fill="#9A9A9A"/>
<path d="M180.691 128.432L181.542 131.596C181.542 131.596 182.223 132.481 183.584 131.834L182.937 128.466H180.691V128.432Z" fill="#A8A8A8"/>
<path d="M178.002 133.946C178.002 133.946 178.206 133.435 179.261 133.231C180.35 132.993 181.541 131.598 181.541 131.598C181.541 131.598 182.221 132.516 183.583 131.836C183.583 131.836 184.059 133.095 183.957 133.98C183.957 133.946 178.206 134.728 178.002 133.946Z" fill="#616161"/>
<path d="M192.533 128.092L193.384 131.257C193.384 131.257 194.064 132.141 195.426 131.495L194.881 127.684L192.533 128.092Z" fill="#A8A8A8"/>
<path d="M189.844 133.639C189.844 133.639 190.048 133.129 191.103 132.924C192.192 132.686 193.383 131.291 193.383 131.291C193.383 131.291 194.063 132.21 195.424 131.529C195.424 131.529 195.901 132.788 195.799 133.673C195.833 133.639 190.082 134.388 189.844 133.639Z" fill="#616161"/>
<path d="M192.567 128.433C192.567 128.433 193.929 128.195 194.881 127.685C194.881 127.685 193.214 117.952 192.567 115.298C191.921 112.644 191.172 108.799 191.172 108.799L186.442 114.448C186.442 114.448 191.581 124.758 192.567 128.433Z" fill="#1C1C1C"/>
<path d="M192.465 106.145C189.3 107.165 185.251 106.791 185.251 106.791C185.251 106.791 179.466 117.884 179.092 119.586C178.718 121.287 180.657 128.433 180.657 128.433C180.657 128.433 181.848 129.182 182.869 128.671C182.869 128.671 182.665 121.525 182.937 120.13C183.175 118.735 188.314 113.563 190.764 110.977C193.248 108.39 192.465 106.145 192.465 106.145Z" fill="#292929"/>
<path d="M162.689 75.7559L176.029 93.0423L176.845 92.3617L164.323 75.7559H162.689Z" fill="#F5F5F5"/>
<path d="M173.476 85.999C173.476 85.999 172.149 85.0803 171.571 84.74C170.992 84.3997 170.21 83.583 170.21 83.583C170.21 83.583 170.108 84.2296 169.835 84.3316C169.563 84.4677 168.678 84.74 168.576 85.0122C168.474 85.2504 168.747 85.7608 168.815 86.0331C168.917 86.2713 168.678 86.6456 168.883 86.8838C169.087 87.122 168.985 87.5643 169.291 87.5984C169.597 87.6324 171.401 87.5643 171.843 87.5984C172.285 87.6324 172.728 87.8025 172.728 87.8025C172.728 87.8025 172.694 86.9178 173.476 85.999Z" fill="#A8A8A8"/>
<path d="M176.742 94.4717C176.742 94.4717 175.959 93.5189 176.742 92.9064C176.742 92.9064 175.449 92.9744 175.755 92.5321C176.061 92.0897 176.742 91.6813 177.286 91.6133L177.967 93.8592L176.742 94.4717Z" fill="#A8A8A8"/>
<path d="M149.778 59.6665L81.0674 45.1279L72.826 84.0772L141.537 98.6157L149.778 59.6665Z" fill="#D2D2D2"/>
<path d="M99.251 51.8224L83.9043 48.5752L76.7759 82.2646L92.1226 85.5119L99.251 51.8224Z" fill="#929292"/>
<path d="M145.538 62.7966L103.06 53.8086L102.25 57.6369L144.728 66.6249L145.538 62.7966Z" fill="#929292"/>
<path d="M144.105 69.6384L101.627 60.6504L100.817 64.4787L143.295 73.4667L144.105 69.6384Z" fill="#929292"/>
<path d="M142.642 76.6169L100.164 67.6289L99.354 71.4573L141.832 80.4452L142.642 76.6169Z" fill="#929292"/>
<path d="M141.042 84.0622L98.5645 75.0742L97.7544 78.9026L140.232 87.8905L141.042 84.0622Z" fill="#929292"/>
<path d="M83.2347 18.7924C83.2347 18.7924 81.159 18.6223 80.5124 18.4521C80.5124 18.4521 80.2742 19.5411 79.7979 20.2216C79.7979 20.2216 80.5805 21.1744 81.9076 21.6168C83.2347 22.0592 83.609 22.1953 84.0854 20.664C84.5618 19.1327 84.3236 18.8945 83.2347 18.7924Z" fill="#A8A8A8"/>
<path d="M83.8129 3.37813C83.8129 3.37813 83.2344 0.757945 80.7843 0.145434C78.3003 -0.501105 74.0127 0.996144 74.0127 4.87538C74.0127 8.75461 74.7273 13.995 74.7273 13.995C74.7273 13.995 78.6746 14.7776 81.1587 13.995C83.6427 13.2123 83.6427 13.2123 83.6427 13.2123C83.6427 13.2123 82.5198 10.5921 82.792 8.82267C83.0302 7.0532 84.8337 5.35178 83.8129 3.37813Z" fill="#414141"/>
<path d="M82.8948 4.29706C82.8948 4.29706 79.3559 5.55611 77.5183 4.29706C77.5183 4.29706 77.9267 3.24217 77.0079 2.79981C76.0891 2.39147 74.762 3.9908 75.0343 5.69222L72.8564 7.12141C72.8564 7.12141 74.3537 7.42767 74.8301 9.06103L76.4634 8.21032C76.4634 8.21032 76.7357 9.70757 78.2329 9.60548C79.7302 9.60548 81.908 6.84918 82.8948 4.29706Z" fill="#A8A8A8"/>
<path d="M62.4092 13.553C62.4092 13.553 69.6913 6.84944 72.8559 7.15569C72.8559 7.15569 74.5574 7.39389 74.8296 9.09531L75.4761 15.935L79.0491 20.733C79.0491 20.733 78.7769 21.9921 77.8581 22.2303C77.8581 22.2303 73.1282 18.351 72.8559 17.4323C72.5837 16.5135 72.3455 14.3017 72.3455 14.3017C72.3455 14.3017 70.6441 14.8801 69.9295 16.0711C69.2149 17.2621 69.0788 18.9635 69.0788 18.9635C69.0788 18.9635 61.8648 17.7725 62.4092 13.553Z" fill="#D02E1B"/>
<path d="M69.112 18.997C69.112 18.997 72.8551 22.3999 74.2503 23.6589C75.6454 24.918 75.9517 32.9827 75.9517 32.9827C75.9517 32.9827 75.3732 33.6292 73.978 33.323C73.978 33.323 72.719 29.784 72.5148 26.8236L66.4918 23.3527L66.1855 18.1123L69.112 18.997Z" fill="#878787"/>
<path d="M66.1864 18.1466C64.2468 17.3639 62.103 15.9347 62.4092 13.5527C62.4092 13.5527 59.9932 15.5264 60.3675 18.9292C60.7078 22.3321 64.1106 25.837 64.1106 25.837C62.7155 28.253 61.4224 34.31 61.4224 34.31C61.4905 35.501 63.0558 35.1608 63.0558 35.1608C63.0558 35.1608 68.126 27.2662 67.8538 25.837C67.5815 24.4078 66.1864 18.1466 66.1864 18.1466Z" fill="#616161"/>
<path d="M72.381 14.3016V11.4092L71.0879 14.9822C71.0879 14.9822 71.6664 14.6078 72.381 14.3016Z" fill="#BA2A1A"/>
<path d="M75.4756 15.9346L78.5722 20.086L79.6271 20.3923C80.5118 19.2694 80.5458 18.1124 80.5458 18.1124L75.4756 15.9346Z" fill="#BA2A1A"/>
<path d="M61.4241 34.3105C61.4241 34.3105 60.7095 35.2293 60.9136 36.8627C60.9136 36.8627 64.4526 37.3731 65.9498 37.1009C65.9498 37.1009 64.6908 35.9779 63.0574 35.1613C63.0574 35.1613 61.7303 35.6036 61.4241 34.3105Z" fill="#A9A9A9"/>
<path d="M74.0127 33.3226V35.1941C74.0127 35.1941 76.8711 35.7045 79.2871 35.1941C79.2871 35.1941 78.4364 34.3094 77.3134 33.9351C76.1905 33.5608 75.9863 32.9482 75.9863 32.9482C75.9863 32.9482 75.2717 33.5267 74.0127 33.3226Z" fill="#A9A9A9"/>
<path d="M77.8926 22.2295C77.8926 22.2295 78.6072 23.2163 79.2877 23.2504C79.9683 23.2844 79.8662 23.7268 80.3766 23.7608C80.8871 23.7948 81.2274 23.7948 81.6357 23.1823C82.044 22.5698 81.7718 23.2163 82.044 22.5698C82.3163 21.9233 79.0495 20.6982 79.0495 20.6982C79.0495 20.6982 78.8113 21.651 77.8926 22.2295Z" fill="#A8A8A8"/>
<path d="M82.1113 46.9692V18.9639" stroke="#D2D2D2" stroke-miterlimit="10"/>
<path d="M80.6816 20.0521C80.6816 20.0521 81.9067 20.6986 82.3831 19.7458C82.3831 19.7458 82.5872 21.2091 82.9956 20.7667C83.4039 20.3243 83.7102 19.5076 83.7102 18.8951L81.09 18.5889L80.6816 20.0521Z" fill="#A8A8A8"/>
<path d="M159.489 123.805H151.458V135H159.489V123.805Z" fill="#A4A4A4"/>
<path d="M151.458 134.966H159.489L151.458 123.805V134.966Z" fill="#D4D4D4"/>
<path d="M151.528 123.294H159.355C159.627 123.294 159.865 123.532 159.865 123.804V127.275C159.865 127.275 159.797 128.364 159.014 127.922C158.198 127.479 158.572 126.016 158.095 125.676C157.483 125.234 156.326 126.765 156.836 128.092C157.143 128.943 156.666 129.623 155.782 129.487C154.454 129.283 155.067 126.527 154.454 125.88C153.91 125.268 152.821 125.438 152.617 127.207C152.413 128.977 151.426 129.317 151.052 128.977C150.745 128.704 150.949 125.097 151.018 123.77C151.018 123.532 151.256 123.294 151.528 123.294Z" fill="#D02E1B"/>
<path d="M58.5983 132.482C58.5643 132.482 58.5643 132.482 58.5303 132.482C58.224 132.448 57.9858 132.175 58.0198 131.835L65.7783 56.1221C65.8123 55.8158 66.0846 55.5776 66.4249 55.6116C66.7311 55.6457 66.9693 55.9179 66.9353 56.2582L59.1768 131.971C59.1428 132.278 58.9046 132.482 58.5983 132.482Z" fill="#2D2D2D"/>
<path d="M82.2152 132.482C81.9089 132.482 81.6707 132.244 81.6367 131.971L73.8782 56.2582C73.8442 55.9519 74.0824 55.6457 74.3887 55.6116C74.6949 55.5776 75.0012 55.8158 75.0352 56.1221L82.7937 131.835C82.8277 132.141 82.5895 132.448 82.2832 132.482C82.2492 132.482 82.2492 132.482 82.2152 132.482Z" fill="#2D2D2D"/>
<path d="M75.2735 65.0027H65.5414C65.2351 65.0027 64.9629 64.7304 64.9629 64.4242C64.9629 64.1179 65.2351 63.8457 65.5414 63.8457H75.2735C75.5797 63.8457 75.852 64.1179 75.852 64.4242C75.852 64.7304 75.5797 65.0027 75.2735 65.0027Z" fill="#2D2D2D"/>
<path d="M76.3277 74.9402H64.5199C64.2136 74.9402 63.9414 74.6679 63.9414 74.3617C63.9414 74.0554 64.2136 73.7832 64.5199 73.7832H76.3277C76.634 73.7832 76.9062 74.0554 76.9062 74.3617C76.9062 74.6679 76.634 74.9402 76.3277 74.9402Z" fill="#2D2D2D"/>
<path d="M77.6522 87.3943H63.2582C62.9519 87.3943 62.6797 87.122 62.6797 86.8158C62.6797 86.5095 62.9519 86.2373 63.2582 86.2373H77.6522C77.9584 86.2373 78.2307 86.5095 78.2307 86.8158C78.2307 87.122 77.9584 87.3943 77.6522 87.3943Z" fill="#2D2D2D"/>
<path d="M79.0175 101.448H61.7992C61.4929 101.448 61.2207 101.176 61.2207 100.87C61.2207 100.563 61.4929 100.291 61.7992 100.291H79.0175C79.3238 100.291 79.596 100.563 79.596 100.87C79.596 101.176 79.3238 101.448 79.0175 101.448Z" fill="#2D2D2D"/>
<path d="M81.0599 121.355H59.7582C59.4519 121.355 59.1797 121.083 59.1797 120.777C59.1797 120.47 59.4519 120.198 59.7582 120.198H81.0599C81.3662 120.198 81.6384 120.47 81.6384 120.777C81.6384 121.083 81.3662 121.355 81.0599 121.355Z" fill="#2D2D2D"/>
<path d="M24.185 52.2026C26.531 51.2872 27.6908 48.6433 26.7754 46.2972C25.86 43.9511 23.216 42.7914 20.87 43.7068C18.5239 44.6222 17.3642 47.2661 18.2796 49.6122C19.195 51.9582 21.8389 53.118 24.185 52.2026Z" fill="#DBDBDB"/>
<path d="M187.594 48.3184C188.106 46.1607 186.772 43.9964 184.614 43.4844C182.456 42.9723 180.292 44.3064 179.78 46.4641C179.268 48.6219 180.602 50.7862 182.759 51.2982C184.917 51.8103 187.082 50.4762 187.594 48.3184Z" fill="#DBDBDB"/>
<path d="M221.05 100.836C222.46 100.836 223.602 99.6931 223.602 98.2836C223.602 96.8741 222.46 95.7314 221.05 95.7314C219.641 95.7314 218.498 96.8741 218.498 98.2836C218.498 99.6931 219.641 100.836 221.05 100.836Z" fill="#DBDBDB"/>
<path d="M7.72464 105.157C9.90467 105.157 11.6719 103.39 11.6719 101.21C11.6719 99.03 9.90467 97.2627 7.72464 97.2627C5.54461 97.2627 3.77734 99.03 3.77734 101.21C3.77734 103.39 5.54461 105.157 7.72464 105.157Z" fill="#DBDBDB"/>
</svg>
