<svg width="192" height="150" viewBox="0 0 192 150" fill="none" xmlns="http://www.w3.org/2000/svg">
<path d="M95.5404 150C148.306 150 191.081 136.353 191.081 119.519C191.081 102.685 148.306 89.0381 95.5404 89.0381C42.7749 89.0381 0 102.685 0 119.519C0 136.353 42.7749 150 95.5404 150Z" fill="#F6F6F6"/>
<path d="M167.517 81.2812C169.676 80.9153 171.871 80.9885 174.03 80.9153C177.945 80.7689 181.861 80.0371 185.593 78.793C184.788 81.6471 183.983 84.4647 183.215 87.3188C182.593 89.5143 181.971 91.7464 180.946 93.7589C179.958 95.6982 178.641 97.4912 177.067 98.9549C173.737 102.029 169.09 103.822 164.626 103.017C160.747 102.321 157.088 99.5769 155.954 95.6982C153.759 88.3433 160.894 82.4521 167.517 81.2812Z" fill="#CCCCCC"/>
<path d="M183.067 81.1715C180.067 82.5254 177.03 83.8793 174.139 85.3796C174.615 84.355 175.2 83.4036 175.895 82.5254C176.151 82.1961 175.676 81.7204 175.383 82.0863C174.505 83.2573 173.773 84.4648 173.188 85.8187C173.188 85.8553 173.188 85.8553 173.188 85.8918C171.87 86.5871 170.59 87.3189 169.345 88.1239C167.552 89.2583 165.686 90.5024 164.076 91.966C164.735 89.4412 165.54 86.9164 166.491 84.4648C166.638 84.0623 166.052 83.733 165.906 84.1355C164.845 86.9896 163.93 89.8803 163.161 92.8076C161.625 94.3445 160.344 96.1009 159.539 98.15C159.393 98.5525 159.978 98.8818 160.124 98.4793C160.49 97.5645 160.929 96.7229 161.442 95.9545C161.442 95.9545 161.442 95.9545 161.478 95.9545C165.211 95.9911 169.126 95.735 172.822 96.357C173.261 96.4302 173.407 95.7716 172.968 95.6984C169.345 95.1129 165.577 95.3325 161.917 95.2959C164.003 92.4783 167.04 90.356 170.004 88.5264C173.48 88.7094 177.066 88.6362 180.469 89.368C180.908 89.4778 181.018 88.8192 180.616 88.7094C177.505 88.0142 174.212 88.0142 171.029 87.8678C174.944 85.5259 179.152 83.6598 183.323 81.7936C183.653 81.6472 183.47 81.0252 183.067 81.1715Z" fill="#646464"/>
<path d="M151.162 69.9744C153.321 66.7543 156.724 64.3759 160.493 63.4245C163.017 62.8025 165.725 62.7293 168.03 61.4852C170.372 60.1679 171.873 57.7894 173.812 55.9233C175.605 54.2035 177.947 52.9228 180.398 52.8496C182.887 52.7764 185.485 54.0937 186.473 56.3624C187.753 59.3263 185.924 62.8756 183.179 64.5589C181.789 65.4005 180.069 66.0225 179.337 67.4496C178.935 68.218 178.898 69.0962 178.825 69.9378C178.642 72.609 178.496 75.3167 177.8 77.9147C176.886 81.3909 174.983 84.6476 172.202 86.9528C169.421 89.2581 165.798 90.5754 162.212 90.2827C160.346 90.1363 158.553 89.5874 156.797 88.9288C148.308 85.8185 146.112 77.4756 151.162 69.9744Z" fill="#797979"/>
<path d="M184.348 58.1186C182.811 58.4479 181.238 58.7041 179.664 58.8504C180.689 58.0088 181.677 57.1672 182.738 56.3622C183.067 56.1061 182.628 55.667 182.299 55.8865C181.128 56.7647 180.03 57.6795 178.896 58.6309C178.933 57.7161 179.042 56.8379 179.225 55.9231C179.298 55.5206 178.713 55.3376 178.64 55.7401C178.384 56.8745 178.274 58.0088 178.237 59.1797C176.042 61.0825 173.919 63.0584 171.87 65.1442C171.98 63.9 172.053 62.6925 172.053 61.4484C172.053 61.0459 171.431 61.0093 171.431 61.4118C171.431 62.9121 171.322 64.3757 171.175 65.8394C167.699 69.3888 164.442 73.1211 161.259 76.9266C161.625 73.0479 162.064 69.2058 162.576 65.3637C162.613 64.9612 161.991 64.9246 161.954 65.3271C161.405 69.462 160.93 73.5968 160.527 77.7682C159.063 79.5246 157.6 81.3176 156.173 83.074C156.026 82.891 155.916 82.6349 155.843 82.269C155.624 81.281 155.441 80.293 155.294 79.3051C154.929 77.0364 154.709 74.7677 154.599 72.499C154.563 72.0965 153.941 72.0599 153.977 72.4625C154.16 76.3046 154.672 80.1101 155.551 83.8424C155.221 84.2815 154.855 84.684 154.526 85.1231C154.27 85.4524 154.819 85.7818 155.038 85.4524C155.404 85.0133 155.77 84.5376 156.136 84.0985C160.527 83.7692 164.735 82.0494 169.163 82.086C169.565 82.086 169.602 81.464 169.199 81.464C165.467 81.4274 161.954 82.6715 158.295 83.2569C157.636 83.3667 157.087 83.5131 156.685 83.4399C158.149 81.6469 159.612 79.8539 161.112 78.0609L174.359 75.1702C174.761 75.097 174.615 74.475 174.212 74.5482C170.077 75.463 165.906 76.3777 161.771 77.2559C164.918 73.5236 168.138 69.8279 171.578 66.3517C173.517 66.3151 175.42 66.1687 177.323 65.8394C177.725 65.7662 177.579 65.1442 177.176 65.2173C175.53 65.5101 173.883 65.6564 172.2 65.693C174.322 63.5707 176.517 61.485 178.786 59.5457C180.689 59.3627 182.592 59.1066 184.458 58.7041C184.897 58.6309 184.751 58.0088 184.348 58.1186Z" fill="#666666"/>
<path d="M183.142 47.5802C178.129 47.7997 172.933 48.8975 169.347 52.3005C170.884 49.2634 172.384 46.1897 173.848 43.116C174.36 43.3356 174.909 43.4087 175.458 43.3356C177.983 43.0062 178.824 40.7742 178.971 38.5421C179.08 37.3346 179.007 36.1636 178.971 34.9561C178.934 34.1145 179.52 29.9797 177.544 31.297C176.592 31.919 175.824 32.7972 175.019 33.5656C173.775 34.7366 172.75 36.1636 172.348 37.7371C172.018 38.908 172.055 40.1521 172.531 41.4694C172.714 41.9451 172.933 42.4574 173.336 42.7867L173.372 42.8233C171.689 46.4093 169.896 49.9586 168.103 53.508C168.103 53.4714 168.103 53.4714 168.103 53.4348C168.359 51.9346 168.469 50.4343 168.213 48.9341C167.774 46.3727 166.31 44.1772 164.188 42.7135C164.041 42.6037 163.785 42.6403 163.749 42.8599C163.749 42.9331 162.175 49.1902 163.236 52.0077C163.639 53.0689 164.261 54.0935 165.102 54.8985C165.505 55.301 166.2 55.923 166.822 55.8864C164.92 59.5822 163.053 63.2779 161.187 66.9737C161.26 66.2784 161.187 65.51 161.151 64.9977C160.931 62.8388 159.943 60.7531 158.296 59.326C157.638 58.7406 156.869 58.2649 156.028 58.0453C155.113 59.6188 154.967 61.5215 155.113 63.3145C155.186 64.3025 155.369 65.327 155.845 66.1686C156.321 66.9737 157.016 67.5957 157.857 67.9982C158.479 68.291 159.65 68.8032 160.382 68.5471C158.15 73.0844 156.028 77.6584 154.088 82.3055C153.832 81.1346 153.064 80.11 152.113 79.3416C151.198 78.5732 150.063 78.0243 148.966 77.5852C148.234 77.2925 147.429 76.9631 146.953 76.3045C147.282 77.1827 147.282 78.1341 147.392 79.0489C147.575 80.293 148.014 81.5005 148.746 82.525C149.222 83.2203 149.807 83.8057 150.576 84.1717C151.454 84.5742 152.478 84.7205 153.21 84.4278C152.515 86.1476 151.856 87.8674 151.271 89.6238C149.551 94.4905 148.161 99.4669 147.136 104.553C147.063 104.882 147.612 105.029 147.685 104.663C149.149 97.1616 151.527 89.9531 154.418 82.9641C154.454 83.8789 154.93 84.7571 156.028 85.306C156.503 85.5621 157.052 85.6719 157.601 85.7451C159.284 85.8915 161.004 85.4158 162.322 84.3912C163.639 83.3666 164.554 81.8298 164.81 80.1832C164.846 80.0002 164.846 79.7807 164.663 79.6709C164.554 79.5977 164.407 79.6343 164.297 79.6709C163.09 79.9636 161.846 79.8173 160.638 79.7075C159.431 79.5977 158.15 79.4879 156.979 79.8173C156.321 80.0002 155.772 80.3295 155.333 80.7686C157.052 76.7436 158.919 72.7551 160.858 68.8032C161.114 69.3521 161.882 69.718 162.358 69.9376C164.737 71.0353 167.554 71.0719 169.969 70.0473C172.384 69.0228 174.36 67.0103 175.238 64.5586C172.75 63.5707 169.933 63.3511 167.371 64.0098C165.651 64.4488 164.041 65.2539 162.614 66.3516C162.395 66.5346 162.029 66.7907 161.699 67.0468C163.639 63.1681 165.615 59.3626 167.554 55.5205C169.237 58.9601 174.543 58.4478 177.617 57.1671C181.349 55.5937 184.093 51.9346 183.288 47.7265C183.398 47.6534 183.252 47.5802 183.142 47.5802Z" fill="#D5D5D5"/>
<path d="M18.7353 72.6087C16.5764 72.2794 14.3809 72.4257 12.222 72.4257C8.27015 72.3891 4.35486 71.7305 0.585938 70.5596C1.46413 73.3771 2.30574 76.1947 3.18393 79.0122C3.84258 81.2077 4.53782 83.4032 5.59897 85.4157C6.62353 87.3551 7.97742 89.0749 9.62403 90.5385C13.027 93.539 17.7108 95.2222 22.1749 94.3074C26.0536 93.5024 29.6396 90.6849 30.6641 86.8062C32.6401 79.3415 25.395 73.5967 18.7353 72.6087Z" fill="#828282"/>
<path d="M3.18216 72.8658C6.21925 74.1465 9.25634 75.4272 12.2203 76.8543C11.708 75.8663 11.1225 74.915 10.3907 74.0368C10.1345 73.7074 10.6102 73.2317 10.8664 73.5611C11.7812 74.6954 12.5496 75.9029 13.135 77.2568C13.135 77.2934 13.135 77.2934 13.135 77.33C14.4523 77.9886 15.7696 78.6839 17.0137 79.4523C18.8433 80.55 20.7095 81.7576 22.3927 83.1846C21.6609 80.6598 20.8193 78.1716 19.7947 75.7566C19.6483 75.3541 20.2338 75.0247 20.3802 75.4272C21.5145 78.2448 22.5025 81.0989 23.3075 84.0628C24.8809 85.5631 26.2348 87.2829 27.0764 89.2954C27.2594 89.6979 26.6373 90.0272 26.4909 89.6247C26.125 88.7465 25.6493 87.9049 25.1005 87.1365C25.1005 87.1365 25.1005 87.1365 25.0639 87.1365C21.3315 87.2829 17.4162 87.0999 13.7205 87.7952C13.2814 87.8683 13.135 87.2097 13.5741 87.1365C17.1601 86.4779 20.9656 86.5876 24.6248 86.4779C22.4659 83.7335 19.3922 81.6478 16.3917 79.8914C12.9155 80.1475 9.32953 80.1475 5.92652 80.9891C5.52401 81.0989 5.34105 80.4403 5.78015 80.3305C8.89043 79.5621 12.1471 79.4889 15.3305 79.2693C11.3421 77.0373 7.13404 75.2443 2.92602 73.4879C2.59669 73.3415 2.77965 72.6829 3.18216 72.8658Z" fill="#676767"/>
<path d="M49.8042 67.4127C47.1696 63.4974 43.0714 60.5701 38.4974 59.3991C35.4237 58.6307 32.1305 58.5575 29.3861 57.0207C26.532 55.4473 24.739 52.5199 22.3606 50.2513C20.2017 48.1656 17.3841 46.5921 14.347 46.5189C11.3465 46.4092 8.19966 48.0192 6.99214 50.7636C5.4553 54.3495 7.6142 58.6673 10.944 60.7164C12.6272 61.741 14.7129 62.4728 15.5911 64.2658C16.0668 65.1806 16.14 66.2418 16.1766 67.2663C16.3596 70.523 16.5425 73.7796 17.3841 76.9265C18.4819 81.1711 20.7871 85.123 24.1535 87.9405C27.52 90.758 31.9109 92.3681 36.3019 92.0388C38.5706 91.8558 40.7661 91.1972 42.8884 90.4287C53.1706 86.6598 55.8784 76.524 49.8042 67.4127Z" fill="#CCCCCC"/>
<path d="M9.51875 52.8866C11.3849 53.2891 13.2877 53.5819 15.1904 53.8014C13.9829 52.7769 12.7388 51.7523 11.4581 50.8009C11.0556 50.5082 11.6045 49.9593 11.9704 50.252C13.3609 51.3132 14.7513 52.4475 16.0686 53.5819C16.032 52.4841 15.8857 51.3864 15.6661 50.2886C15.5563 49.8129 16.2882 49.5934 16.3979 50.0691C16.6907 51.4596 16.837 52.8134 16.8736 54.2405C19.5448 56.5458 22.1062 58.9608 24.5944 61.4856C24.4481 59.9854 24.3749 58.4851 24.3749 56.9849C24.3749 56.5092 25.1433 56.4726 25.1433 56.9483C25.1433 58.7413 25.2531 60.5342 25.4726 62.3272C29.6807 66.645 33.6325 71.1824 37.4746 75.7929C37.0355 71.1092 36.5233 66.4255 35.9012 61.7418C35.828 61.2661 36.5965 61.2295 36.6696 61.7052C37.3283 66.7182 37.9137 71.7678 38.3528 76.7809C40.1458 78.9398 41.8656 81.0987 43.622 83.2576C43.805 83.038 43.9147 82.7087 44.0245 82.2696C44.2807 81.0621 44.5002 79.8911 44.6832 78.6836C45.1223 75.9393 45.415 73.1949 45.5614 70.4139C45.598 69.9383 46.3298 69.9017 46.3298 70.3773C46.0736 75.0245 45.4516 79.635 44.3904 84.1723C44.7929 84.6846 45.232 85.2335 45.6345 85.7458C45.9273 86.1117 45.3052 86.5508 44.9759 86.1483C44.5368 85.5994 44.0977 85.0505 43.622 84.5017C38.2797 84.0992 33.1934 82.0134 27.8145 82.0134C27.3388 82.0134 27.3022 81.245 27.7779 81.245C32.3152 81.245 36.5599 82.7087 40.9874 83.4405C41.7924 83.5869 42.4511 83.7332 42.9268 83.6601C41.1704 81.4646 39.3774 79.2691 37.5844 77.1102L21.5208 73.5608C21.0451 73.451 21.228 72.7192 21.7037 72.829C26.7167 73.9267 31.7664 75.0611 36.7794 76.1588C32.9739 71.5849 29.0586 67.1207 24.9238 62.8761C22.5819 62.8395 20.2766 62.62 17.9714 62.254C17.4957 62.1809 17.6787 61.449 18.1543 61.5222C20.1669 61.8515 22.1428 62.0711 24.1919 62.1077C21.6305 59.5097 18.9594 57.0215 16.215 54.6064C13.9097 54.3869 11.6045 54.0576 9.33579 53.5819C8.8601 53.5453 9.04306 52.7769 9.51875 52.8866Z" fill="#828282"/>
<path d="M19.1023 50.1417C23.4567 50.7272 27.9208 52.081 30.775 55.3377C29.6772 52.5567 28.5795 49.7758 27.5549 46.9582C27.1158 47.1046 26.6035 47.1412 26.1278 47.0314C23.9689 46.5557 23.4201 44.5432 23.4201 42.5672C23.4201 41.5061 23.5664 40.4815 23.7128 39.457C23.786 38.7251 23.603 35.066 25.2496 36.3467C26.0181 36.9687 26.6401 37.8104 27.2988 38.5422C28.3233 39.6765 29.0552 40.9938 29.3113 42.3843C29.4943 43.4454 29.3845 44.5432 28.8722 45.6409C28.6892 46.0434 28.4331 46.4459 28.0672 46.7387L28.0306 46.7753C29.2381 50.0319 30.5188 53.2886 31.7995 56.5086V56.472C31.6897 55.1547 31.7263 53.8008 32.0557 52.5201C32.6411 50.3246 34.0682 48.5317 36.0441 47.3973C36.1905 47.3241 36.41 47.3607 36.41 47.5437C36.41 47.6169 37.2882 53.1788 36.1173 55.5938C35.6782 56.5086 35.0562 57.3502 34.2511 57.9723C33.8486 58.265 33.2266 58.7773 32.6777 58.7041C34.0316 62.0705 35.4221 65.4369 36.7394 68.8033C36.7394 68.1813 36.8491 67.5226 36.9589 67.0835C37.3248 65.2174 38.3494 63.4976 39.8862 62.3632C40.5083 61.9241 41.2035 61.5582 41.972 61.4119C42.6306 62.8389 42.6306 64.5221 42.3379 66.0956C42.1915 66.9738 41.9719 67.8154 41.4597 68.5472C40.984 69.2058 40.3253 69.6815 39.5569 69.9743C39.008 70.1938 37.9103 70.5231 37.2882 70.267C38.8983 74.4018 40.3985 78.5367 41.7158 82.7447C42.0451 81.7567 42.777 80.9151 43.6552 80.3297C44.5334 79.7442 45.5213 79.3417 46.5459 79.049C47.2045 78.8294 47.9364 78.6099 48.3755 78.0976C48.0095 78.8294 47.973 79.671 47.79 80.476C47.5339 81.5372 47.0582 82.5617 46.3263 83.4033C45.8506 83.9522 45.3018 84.4645 44.6065 84.7206C43.8381 85.0134 42.9233 85.05 42.3013 84.7572C42.777 86.2941 43.2161 87.8675 43.6186 89.4409C44.7529 93.8319 45.5945 98.2961 46.0702 102.797C46.1068 103.09 45.6311 103.163 45.5945 102.87C44.8993 96.2104 43.3624 89.7337 41.3865 83.4033C41.3133 84.1718 40.801 84.9036 39.8131 85.3427C39.374 85.5256 38.8983 85.5988 38.386 85.5988C36.9223 85.5988 35.4587 85.05 34.3975 84.062C33.3364 83.074 32.6411 81.647 32.5313 80.1833C32.5313 80.0369 32.5313 79.8174 32.6777 79.7442C32.7875 79.7076 32.8973 79.7442 33.007 79.7808C34.0316 80.1101 35.1293 80.1101 36.1905 80.1101C37.2516 80.1101 38.3494 80.1101 39.374 80.476C39.9228 80.6956 40.3985 81.0249 40.7278 81.4274C39.5569 77.7683 38.203 74.1457 36.8126 70.5597C36.5564 70.9988 35.8612 71.255 35.4221 71.4379C33.2632 72.2064 30.775 72.0234 28.7624 70.9622C26.7499 69.9011 25.1765 67.9617 24.591 65.7663C26.8231 65.071 29.3113 65.1442 31.5068 65.9126C32.9704 66.4249 34.3243 67.2665 35.4587 68.3277C35.6416 68.5106 35.9344 68.7302 36.1905 69.0229C34.8 65.5101 33.373 61.9973 31.9825 58.5211C30.2261 61.4119 25.6521 60.5337 23.0541 59.1798C19.9073 57.4966 17.8216 54.0936 18.8461 50.5076C18.8827 50.1783 18.9925 50.1417 19.1023 50.1417Z" fill="#A0A0A0"/>
<path d="M106.807 16.551C108.965 16.2949 111.161 16.5144 113.32 16.551C117.272 16.6242 121.187 16.1119 124.993 15.0508C124.041 17.8317 123.09 20.6493 122.138 23.4302C121.407 25.5891 120.675 27.7846 119.54 29.7606C118.479 31.6633 117.052 33.3465 115.369 34.7736C111.893 37.6643 107.136 39.2012 102.745 38.1766C98.9028 37.2618 95.39 34.3711 94.4752 30.4192C92.7188 22.8814 100.147 17.3195 106.807 16.551Z" fill="#828282"/>
<path d="M122.358 17.2457C119.284 18.4167 116.211 19.6242 113.21 20.9781C113.759 19.9901 114.381 19.0753 115.113 18.2337C115.406 17.9044 114.93 17.4287 114.637 17.758C113.686 18.8557 112.881 20.0633 112.259 21.3806C112.259 21.4172 112.259 21.4172 112.222 21.4537C110.868 22.0758 109.551 22.7344 108.27 23.4663C106.404 24.4908 104.501 25.6618 102.818 27.0157C103.623 24.5274 104.538 22.0392 105.599 19.6608C105.782 19.2583 105.197 18.9289 105.014 19.3314C103.769 22.1124 102.708 24.9665 101.83 27.8573C100.22 29.3209 98.8296 30.9675 97.9149 32.9801C97.7319 33.3826 98.3174 33.7119 98.5003 33.3094C98.9028 32.4312 99.3785 31.6262 99.964 30.8578C99.964 30.8578 99.964 30.8578 100.001 30.8578C103.733 31.1139 107.648 31.0407 111.307 31.8457C111.746 31.9189 111.893 31.2969 111.49 31.1871C107.904 30.4187 104.135 30.4187 100.476 30.1991C102.708 27.4913 105.855 25.552 108.892 23.8688C112.332 24.2347 115.954 24.3445 119.321 25.2593C119.723 25.369 119.906 24.7104 119.504 24.6006C116.43 23.759 113.174 23.5761 109.99 23.2833C114.052 21.161 118.296 19.5144 122.578 17.8678C122.907 17.758 122.76 17.0994 122.358 17.2457Z" fill="#676767"/>
<path d="M115.993 5.90267C115.993 5.82948 115.92 5.7563 115.847 5.7563C112.481 5.28061 108.858 5.35379 106.041 7.18337C107.797 4.9147 109.517 2.64603 111.163 0.304171C111.31 0.121214 111.017 -0.134928 110.871 0.0846213C109.004 2.71921 107.029 5.28061 105.053 7.84202V7.80543C105.419 6.85405 105.675 5.82948 105.711 4.80492C105.748 3.04853 105.053 1.40191 103.808 0.157805C103.735 0.0480301 103.552 0.0480295 103.479 0.194395C103.479 0.230987 101.613 4.21946 101.979 6.26858C102.125 7.037 102.418 7.80542 102.857 8.42748C103.077 8.7568 103.443 9.26908 103.882 9.30568C102.162 11.5378 100.442 13.7698 98.7223 16.0019C98.8687 15.5628 98.9052 15.0505 98.9418 14.6846C99.0516 13.221 98.6491 11.7207 97.7709 10.5498C97.405 10.0741 96.9659 9.67159 96.417 9.41545C95.612 10.3302 95.2827 11.6109 95.1363 12.8185C95.0631 13.4771 95.0265 14.1723 95.2827 14.831C95.5022 15.4165 95.9047 15.9287 96.3804 16.2946C96.7463 16.5874 97.4782 17.0631 97.9905 16.9899C95.9413 19.7342 93.9288 22.5152 92.0626 25.3693C92.026 24.5643 91.6601 23.7959 91.1112 23.1373C90.599 22.5152 89.9037 22.0029 89.2451 21.5638C88.806 21.2711 88.2937 20.9418 88.0742 20.4661C88.1839 21.0881 88.0376 21.7102 88.0376 22.3688C88.001 23.2104 88.1473 24.0886 88.5133 24.8571C88.7328 25.3693 89.0621 25.845 89.5378 26.1743C90.0501 26.5403 90.7453 26.7598 91.2576 26.6866C90.599 27.7478 89.9403 28.8089 89.2817 29.9067C87.5253 32.9438 85.9519 36.0906 84.6346 39.3473C84.5614 39.5668 84.8907 39.7132 84.9639 39.4936C86.9032 34.6636 89.3914 30.1628 92.209 25.845C92.0992 26.4305 92.3188 27.0891 92.9774 27.638C93.2701 27.8576 93.6361 28.0039 93.9654 28.1137C95.0631 28.443 96.2706 28.2967 97.2952 27.7844C98.3198 27.2721 99.1248 26.3573 99.4907 25.2962C99.5273 25.1864 99.5639 25.0034 99.4541 24.9302C99.3809 24.8571 99.3077 24.8936 99.198 24.8936C98.3564 24.9302 97.5513 24.7107 96.7463 24.4545C95.9413 24.235 95.1363 23.9789 94.2947 24.052C93.8556 24.0886 93.4165 24.235 93.0872 24.4911C94.7338 22.0029 96.4902 19.5879 98.2832 17.2094C98.393 17.6119 98.832 17.9413 99.1248 18.1608C100.588 19.1854 102.455 19.5513 104.211 19.1854C105.967 18.8195 107.504 17.6851 108.419 16.1849C106.882 15.1969 105.053 14.7212 103.223 14.831C102.016 14.9042 100.845 15.2335 99.7468 15.7824C99.5639 15.8555 99.3077 16.0019 99.0516 16.1483C100.808 13.8064 102.638 11.5012 104.394 9.1959C105.089 11.7207 108.675 12.05 110.907 11.5743C113.725 10.8791 115.993 8.7934 115.993 5.90267Z" fill="#373737"/>
<path d="M42.5176 81.5377V35.0665C42.5176 29.7973 46.7622 25.5527 52.0314 25.5527H142.961C147.389 25.5527 151.011 29.1387 151.011 33.6029V81.5011C151.011 86.7703 146.767 91.0149 141.498 91.0149H52.0314C46.7988 91.0515 42.5176 86.7703 42.5176 81.5377Z" fill="#939393"/>
<path d="M142.486 88.4532H51.044C47.7141 88.4532 45.043 85.7454 45.043 82.4522V34.1514C45.043 30.8216 47.7507 28.1504 51.044 28.1504H142.449C145.779 28.1504 148.45 30.8582 148.45 34.1514V82.4156C148.487 85.7454 145.816 88.4532 142.486 88.4532Z" fill="#F3F3F3"/>
<path d="M119.579 102.578H73.9495C73.4738 102.578 73.0713 102.175 73.0713 101.699C73.0713 101.224 73.4738 100.821 73.9495 100.821H119.579C120.055 100.821 120.457 101.224 120.457 101.699C120.457 102.175 120.055 102.578 119.579 102.578Z" fill="#939393"/>
<path d="M119.835 100.821H73.6934L77.6452 91.0508H115.883L119.835 100.821Z" fill="#656565"/>
<path d="M143.95 39.4209H49.6172V84.6114H143.95V39.4209Z" fill="#E0E0E0"/>
<path d="M143.949 32.7969H49.6162V39.4931H143.949V32.7969Z" fill="#E4E4E4"/>
<path d="M52.6557 37.4081C53.363 37.4081 53.9364 36.8347 53.9364 36.1274C53.9364 35.4201 53.363 34.8467 52.6557 34.8467C51.9484 34.8467 51.375 35.4201 51.375 36.1274C51.375 36.8347 51.9484 37.4081 52.6557 37.4081Z" fill="#D02E1B"/>
<path d="M58.7323 36.1274C58.7323 35.3956 58.1468 34.8467 57.4516 34.8467C56.7198 34.8467 56.1709 35.4321 56.1709 36.1274C56.1709 36.8592 56.7564 37.4081 57.4516 37.4081C58.1468 37.4447 58.7323 36.8592 58.7323 36.1274Z" fill="#D5D5D5"/>
<path d="M62.2065 37.4081C62.9138 37.4081 63.4872 36.8347 63.4872 36.1274C63.4872 35.4201 62.9138 34.8467 62.2065 34.8467C61.4992 34.8467 60.9258 35.4201 60.9258 36.1274C60.9258 36.8347 61.4992 37.4081 62.2065 37.4081Z" fill="#828282"/>
<path d="M82.3945 60.1688C82.9408 60.3715 83.3638 60.6667 83.6635 61.0545C83.9631 61.4422 84.1129 61.9093 84.1129 62.4556C84.1129 63.2664 83.778 63.8964 83.1083 64.3459C82.4385 64.7865 81.4692 65.0068 80.2002 65.0068H74.9922V55.7539H79.9359C81.1696 55.7539 82.0993 55.9742 82.7249 56.4148C83.3594 56.8554 83.6767 57.4415 83.6767 58.1729C83.6767 58.6047 83.5665 58.9924 83.3462 59.3361C83.1347 59.6798 82.8175 59.9574 82.3945 60.1688ZM78.0589 57.9349V59.3097H79.5129C80.1914 59.3097 80.5307 59.0805 80.5307 58.6223C80.5307 58.1641 80.1914 57.9349 79.5129 57.9349H78.0589ZM79.9359 62.8257C80.6232 62.8257 80.9669 62.5834 80.9669 62.0987C80.9669 61.6141 80.6232 61.3717 79.9359 61.3717H78.0589V62.8257H79.9359Z" fill="#D02E1B"/>
<path d="M89.1813 62.6803H88.3353V65.0068H85.2158V55.7539H89.6704C90.5252 55.7539 91.2698 55.8949 91.9043 56.1769C92.5388 56.4589 93.0279 56.8643 93.3715 57.393C93.7152 57.9217 93.8871 58.5386 93.8871 59.2436C93.8871 59.9045 93.7372 60.4817 93.4376 60.9752C93.138 61.4687 92.7062 61.8608 92.1422 62.1516L94.0853 65.0068H90.7543L89.1813 62.6803ZM90.7411 59.2436C90.7411 58.8999 90.6353 58.6355 90.4238 58.4505C90.2123 58.2566 89.8951 58.1597 89.4721 58.1597H88.3353V60.3275H89.4721C89.8951 60.3275 90.2123 60.2349 90.4238 60.0499C90.6353 59.856 90.7411 59.5872 90.7411 59.2436Z" fill="#D02E1B"/>
<path d="M101.37 63.3941H97.8541L97.2329 65.0068H94.0604L98.1053 55.7539H101.172L105.217 65.0068H101.991L101.37 63.3941ZM100.511 61.147L99.6122 58.8206L98.7133 61.147H100.511Z" fill="#D02E1B"/>
<path d="M114.835 55.7539V65.0068H112.271L108.755 60.8033V65.0068H105.715V55.7539H108.279L111.795 59.9574V55.7539H114.835Z" fill="#D02E1B"/>
<path d="M116.338 55.7539H120.899C121.93 55.7539 122.837 55.9434 123.622 56.3223C124.415 56.6924 125.027 57.2256 125.459 57.9217C125.9 58.6179 126.12 59.4374 126.12 60.3803C126.12 61.3233 125.9 62.1428 125.459 62.839C125.027 63.5351 124.415 64.0727 123.622 64.4516C122.837 64.8217 121.93 65.0068 120.899 65.0068H116.338V55.7539ZM120.767 62.5746C121.436 62.5746 121.969 62.3851 122.366 62.0062C122.771 61.6185 122.974 61.0765 122.974 60.3803C122.974 59.6842 122.771 59.1466 122.366 58.7677C121.969 58.38 121.436 58.1861 120.767 58.1861H119.458V62.5746H120.767Z" fill="#D02E1B"/>
<path d="M65.1682 44.4697H54.0078V77.3655H65.1682V44.4697Z" fill="#828282"/>
<path d="M59.1318 45.5312H54.9238V49.7393H59.1318V45.5312Z" fill="#CCCCCC"/>
<path d="M64.2539 45.5312H60.0459V49.7393H64.2539V45.5312Z" fill="#CCCCCC"/>
<path d="M59.1318 50.9473H54.9238V55.1553H59.1318V50.9473Z" fill="#CCCCCC"/>
<path d="M64.2539 50.9463H60.0459V55.1543H64.2539V50.9463Z" fill="#CCCCCC"/>
<path d="M59.1318 56.3623H54.9238V60.5703H59.1318V56.3623Z" fill="#CCCCCC"/>
<path d="M64.2539 56.3623H60.0459V60.5703H64.2539V56.3623Z" fill="#CCCCCC"/>
<path d="M59.1318 61.7773H54.9238V65.9854H59.1318V61.7773Z" fill="#CCCCCC"/>
<path d="M64.2539 61.7773H60.0459V65.9854H64.2539V61.7773Z" fill="#CCCCCC"/>
<path d="M59.1318 67.1934H54.9238V71.4014H59.1318V67.1934Z" fill="#CCCCCC"/>
<path d="M64.2539 67.1934H60.0459V71.4014H64.2539V67.1934Z" fill="#CCCCCC"/>
<path d="M132.024 71.876V72.4248H131.476" stroke="#5C5C5C" stroke-width="0.519599" stroke-linecap="round" stroke-linejoin="round"/>
<path d="M130.012 72.4248H70.002" stroke="#5C5C5C" stroke-width="0.519599" stroke-linecap="round" stroke-linejoin="round" stroke-dasharray="1.54 1.54"/>
<path d="M69.2686 72.4248H68.7197V71.876" stroke="#5C5C5C" stroke-width="0.519599" stroke-linecap="round" stroke-linejoin="round"/>
<path d="M68.7197 70.4491V51.5312" stroke="#5C5C5C" stroke-width="0.519599" stroke-linecap="round" stroke-linejoin="round" stroke-dasharray="1.49 1.49"/>
<path d="M68.7197 50.836V50.2871H69.2686" stroke="#5C5C5C" stroke-width="0.519599" stroke-linecap="round" stroke-linejoin="round"/>
<path d="M70.6953 50.2871H130.742" stroke="#5C5C5C" stroke-width="0.519599" stroke-linecap="round" stroke-linejoin="round" stroke-dasharray="1.54 1.54"/>
<path d="M131.476 50.2871H132.024V50.836" stroke="#5C5C5C" stroke-width="0.519599" stroke-linecap="round" stroke-linejoin="round"/>
<path d="M132.023 52.2266V71.1444" stroke="#5C5C5C" stroke-width="0.519599" stroke-linecap="round" stroke-linejoin="round" stroke-dasharray="1.49 1.49"/>
<path d="M70.4381 48.5312H66.9619V52.0074H70.4381V48.5312Z" fill="#3D3D3D"/>
<path d="M133.742 48.5312H130.266V52.0074H133.742V48.5312Z" fill="#3D3D3D"/>
<path d="M70.4381 70.668H66.9619V74.1442H70.4381V70.668Z" fill="#3D3D3D"/>
<path d="M133.742 70.668H130.266V74.1442H133.742V70.668Z" fill="#3D3D3D"/>
<path d="M132.02 44.4697H69.083V46.0066H132.02V44.4697Z" fill="#828282"/>
<path d="M132.02 76.6338H69.083V78.1706H132.02V76.6338Z" fill="#828282"/>
<g opacity="0.4">
<path opacity="0.4" d="M148.335 31.8095C147.603 29.6872 145.554 28.1504 143.176 28.1504H142.407L82.1045 88.4532H91.6915L148.335 31.8095Z" fill="white"/>
<path opacity="0.4" d="M104.355 28.1504L46.248 86.2211C47.236 87.575 48.846 88.4532 50.639 88.4532H76.8751L137.214 28.1504H104.355Z" fill="white"/>
<path opacity="0.4" d="M45.1865 62.8757V79.4151L96.4512 28.1504H79.9118L45.1865 62.8757Z" fill="white"/>
</g>
<path d="M56.5717 67.3769C57.4499 67.7062 58.3647 67.9257 59.2429 68.1087C60.8529 68.4746 62.4263 68.8405 64.0364 69.2064C64.4755 69.3162 64.9146 69.3894 65.3171 69.2796C65.9391 69.1332 66.5978 68.8405 67.11 68.4746C67.6589 68.0355 67.8785 65.9498 68.2444 65.3277C68.4639 64.9618 68.9396 64.8155 68.903 65.035C68.8299 65.3643 69.0494 68.5844 68.9762 68.8771C68.7933 69.5723 68.2444 70.1212 67.5857 70.414C66.9637 70.7067 66.2684 70.8165 65.5732 70.8896C63.6705 71.0726 61.7311 71.1092 59.8283 70.9994C58.1085 70.8896 56.3521 70.9628 54.6689 70.5603C53.0223 70.1944 51.4855 69.8651 49.9852 69.0967C49.3998 68.8039 48.8509 68.0721 48.4118 67.5598C47.1677 66.1693 48.8509 63.6445 50.6073 64.0104C51.5953 64.1934 52.5832 65.1814 53.3882 65.6937C54.4494 66.3523 55.474 66.9744 56.5717 67.3769Z" fill="#A1A1A1"/>
<path d="M43.3963 129.326C43.3963 129.765 43.0304 130.168 42.6279 130.314C42.2254 130.497 41.7497 130.497 41.3106 130.497C37.9076 130.534 34.468 130.57 31.065 130.607C29.894 130.607 28.7231 130.643 27.6253 130.241C27.5156 129.729 27.5522 129.216 27.6985 128.704C27.9181 127.826 28.3572 126.948 28.5035 126.033C28.6865 125.008 28.5035 123.984 28.5767 122.959C28.5767 122.886 28.5767 122.776 28.6499 122.703C28.6865 122.666 28.7597 122.666 28.8329 122.666C29.894 122.63 30.9552 122.593 32.0529 122.557C32.3822 122.557 34.3948 122.557 34.468 122.813C34.7607 123.801 35.4925 124.606 36.2609 125.264C37.066 125.923 37.9076 126.472 38.676 127.167C39.0053 127.46 39.298 127.826 39.7371 128.009C40.3958 128.302 41.1642 128.119 41.8594 128.155C42.3351 128.155 42.884 128.375 43.1767 128.704C43.2865 128.887 43.3963 129.107 43.3963 129.326Z" fill="#717171"/>
<path d="M43.3973 129.326C43.3973 129.765 43.0313 130.167 42.6288 130.314C42.2263 130.497 41.7506 130.497 41.3115 130.497C37.9085 130.533 34.4689 130.57 31.0659 130.606C29.895 130.606 28.7241 130.643 27.6263 130.24C27.5166 129.728 27.5531 129.216 27.6995 128.704C27.8093 128.667 27.9191 128.63 28.0654 128.594C29.1266 128.521 30.4439 128.923 31.505 128.996C32.6394 129.106 33.8103 129.216 34.9812 129.216C37.7256 129.362 40.5797 129.509 43.1777 128.667C43.2875 128.887 43.3973 129.106 43.3973 129.326Z" fill="#3B3B3B"/>
<path d="M36.0428 100.638C36.7746 101.589 37.543 102.76 37.2137 103.895C37.0673 104.407 36.7014 104.809 36.3721 105.249C32.7495 109.749 31.4322 115.677 30.2247 121.312C30.1881 121.568 30.1149 121.861 30.2979 122.044C30.4077 122.19 30.5906 122.227 30.7736 122.264C31.7981 122.52 32.8227 122.776 33.8839 123.032C34.0668 123.069 34.2498 123.142 34.4693 123.069C35.0182 122.959 35.128 122.227 35.2377 121.678C35.3841 120.873 35.75 120.141 36.0794 119.446C37.4698 116.555 38.8603 113.701 40.2508 110.81C41.2022 108.871 42.1535 106.895 43.7636 105.432C44.1295 105.066 44.5686 104.736 44.7515 104.261C44.9711 103.748 44.8613 103.163 44.7149 102.614C44.1661 100.272 43.2879 98.04 42.4097 95.8079C40.5435 91.0145 38.6408 86.1844 36.7746 81.3909C36.6282 81.025 36.4819 80.6591 36.1525 80.4029C35.5305 79.9272 34.6523 80.22 33.957 80.5859C31.6152 81.7934 29.5661 83.5132 27.956 85.5989C27.151 86.6235 26.5656 87.7944 27.4072 88.9287C28.2854 90.0997 29.2367 91.2706 30.0783 92.4781C32.0543 95.2591 34.0302 97.9668 36.0428 100.638Z" fill="#4C4C4C"/>
<path d="M14.3848 118.898C14.5678 119.52 14.3848 120.142 14.3116 120.801C14.0921 122.191 14.2384 123.619 14.4214 125.009C14.4946 125.777 14.6044 126.582 14.8971 127.314C15.1166 127.827 15.446 128.339 15.6289 128.851C15.7387 129.144 15.8119 129.437 15.8119 129.766C15.8119 130.022 15.7753 130.278 15.6289 130.498C15.3362 131.047 14.7141 131.339 14.0921 131.339C13.47 131.339 12.8846 131.083 12.3723 130.754C10.6891 129.693 9.62791 127.9 8.8229 126.07C8.01789 124.241 7.39583 122.338 6.33468 120.655C6.07854 120.289 5.8224 119.886 5.74922 119.447C5.67604 119.008 5.89558 118.459 6.33468 118.349C6.55423 118.313 6.77378 118.24 6.95673 118.166C8.34721 117.691 9.40837 116.886 10.6891 116.154C11.9698 115.385 13.0309 116.995 13.7628 117.91C14.0555 118.24 14.275 118.532 14.3848 118.898Z" fill="#717171"/>
<path d="M15.3001 129.948C15.4464 129.912 15.6294 129.839 15.7757 129.766C15.7757 130.022 15.7392 130.278 15.5928 130.497C15.3001 131.046 14.678 131.339 14.0559 131.339C13.4339 131.339 12.8484 131.083 12.3361 130.753C10.6529 129.692 9.59178 127.899 8.78677 126.07C7.98176 124.24 7.35971 122.337 6.29855 120.654C6.04241 120.288 5.78627 119.886 5.71309 119.447C5.6399 119.008 5.85946 118.459 6.29855 118.349C6.5181 118.312 6.73765 118.239 6.92061 118.166C7.06697 118.495 7.10357 118.898 7.21334 119.227C7.65244 121.13 8.53063 122.886 9.40883 124.57C10.2504 126.18 11.1286 127.826 12.4825 129.034C13.3241 129.729 14.3487 130.241 15.3001 129.948Z" fill="#3B3B3B"/>
<path d="M34.7296 76.4149C34.9857 76.8174 34.8027 77.3663 34.6198 77.8054C33.0098 81.3182 30.2288 84.5382 30.2288 88.3804C30.2288 89.3317 30.4118 90.2465 30.6313 91.1613C30.6679 91.3443 30.7045 91.5272 30.7411 91.7102C31.8754 96.7232 33.0098 101.846 32.3511 106.932C32.2779 107.445 32.2047 107.92 31.9486 108.359C31.6925 108.835 31.2534 109.164 30.8143 109.457C27.1917 111.945 22.508 112.604 19.0318 115.275C17.4218 116.519 16.1411 118.129 14.4579 119.227C13.1772 118.312 12.116 117.178 11.2744 115.861C14.1651 114.251 15.8849 111.177 18.4829 109.091C19.9832 107.884 21.7762 107.042 23.5326 106.164C23.9351 105.981 24.3742 105.725 24.5205 105.322C24.6303 105.066 24.5937 104.737 24.5571 104.481C24.0814 100.821 22.6544 97.4184 21.3005 93.9788C20.9712 93.1738 20.6784 92.3688 20.3491 91.5272C19.3977 88.8926 18.5927 86.1849 18.4829 83.3673C18.4098 81.7207 18.6293 80.0741 19.105 78.5372C19.5441 77.1468 20.2027 75.7929 21.1907 74.6951C22.1787 73.5608 22.9105 73.5974 24.3376 73.7438C27.6308 74.0731 30.8509 74.8049 33.9611 75.9027C34.2539 76.0124 34.5466 76.1588 34.7296 76.4149Z" fill="#696969"/>
<path d="M47.6816 73.6705C48.45 74.1462 49.2185 74.5853 50.0966 74.8414C51.9994 75.3903 54.0119 74.9512 55.9147 74.5487C58.6591 73.9632 61.4034 73.451 64.1844 73.0119C65.026 72.8655 65.9042 72.7557 66.7458 72.9021C67.3678 73.0119 68.1363 73.268 68.5388 72.7923C68.7217 72.5728 68.9047 72.4264 68.9413 72.1703C69.1242 70.5602 69.1608 66.6815 68.9413 65.0715C68.5753 65.2179 68.2094 67.7427 68.1363 68.1452C68.0631 68.5477 68.0631 68.9502 67.8069 69.2795C67.6972 69.4259 67.5142 69.5357 67.3678 69.6454C67.1483 69.865 67.0385 70.1211 66.819 70.3407C66.5262 70.6334 66.0505 70.7798 65.6114 70.853C63.6355 71.2189 61.623 71.0359 59.6104 70.8164C57.5613 70.5968 55.5122 70.3407 53.4631 69.9748C52.3287 69.7552 51.1212 69.4991 50.243 68.8038C49.2184 67.9988 48.7062 66.7181 48.0109 65.6204C47.8646 65.4008 47.7182 65.1813 47.4621 65.0715C47.2059 64.9251 46.8766 64.9251 46.5473 64.9617C45.4861 65.0715 44.3884 65.3642 43.5102 66.0229C42.8881 66.462 42.0465 67.3036 42.1197 68.1086C42.1563 68.8404 43.4004 68.9136 43.8395 69.4259C45.1202 70.853 46.0716 72.6459 47.6816 73.6705Z" fill="#B7B7B7"/>
<path d="M35.8266 59.6193C35.168 60.4975 34.4727 61.4123 33.8141 62.2905C33.0457 63.315 32.2773 64.3396 31.4357 65.3276C28.8011 68.4744 25.6176 71.1456 22.0682 73.1947C21.7023 73.4143 21.2998 73.6338 21.19 74.0363C21.0803 74.4388 21.2632 74.8414 21.4828 75.2073C23.8612 79.5251 27.5935 82.9647 31.6918 85.709C32.0211 85.9286 32.387 86.1481 32.7895 86.1481C33.192 86.1115 33.5214 85.8554 33.8141 85.5993C36.8146 83.0744 39.4492 80.1471 41.6447 76.8905C42.5961 75.5 43.4743 73.9632 44.9013 73.0118C45.377 72.6825 45.9625 72.2434 45.8161 71.7311C45.7795 71.5847 45.6697 71.4749 45.56 71.3286C44.7184 70.2674 43.8036 69.2429 42.8888 68.2549C44.2061 67.9256 44.8647 66.3155 46.1454 65.8398C47.0602 65.5105 48.158 65.8764 48.7068 66.6815C49.1459 65.7301 49.9144 64.9251 50.8657 64.486C50.3169 63.5346 49.768 62.5832 49.1093 61.6684C48.3409 60.5707 47.5359 59.5095 46.5113 58.6313C44.755 57.1311 42.4131 56.2895 40.1078 55.9967C37.9123 55.8138 36.961 58.0825 35.8266 59.6193Z" fill="#898989"/>
<path d="M44.8628 54.8257C44.3506 55.5576 43.7285 56.1796 43.1064 56.7651C43.6919 57.0212 44.2774 57.3139 44.6799 57.8262C45.5947 58.9606 45.1922 60.7901 46.1801 61.8513C46.107 61.4488 46.3997 61.0829 46.6558 60.7901C47.1681 60.2413 47.6804 59.6558 48.1927 59.1069C48.522 58.741 48.8513 58.3751 49.327 58.2287C49.7295 58.0824 50.2052 58.1556 50.6443 58.1921C49.7661 56.4723 48.8513 54.7525 47.4974 53.3987C47.1315 53.0327 46.3265 52.2277 45.8142 52.74C45.5947 52.9596 45.5581 53.4718 45.4483 53.7646C45.3019 54.1671 45.119 54.4964 44.8628 54.8257Z" fill="#A1A1A1"/>
<path d="M52.5838 46.2262C52.9863 46.8848 53.7913 48.5315 53.7913 49.0803C53.7913 49.6658 53.645 49.739 53.645 50.3244C53.645 51.3124 54.5597 51.5685 54.8525 52.6297C54.8525 52.8858 54.3768 52.9224 54.0841 52.959C53.9743 52.959 53.8645 52.9956 53.7913 53.0322C53.5352 53.2518 53.8279 53.6909 53.7181 54.0202C53.5718 54.4227 52.8765 54.3129 52.657 54.7154C52.5106 54.9716 52.657 55.2643 52.8034 55.5204C52.9497 55.74 53.1693 55.9961 53.1327 56.2888C53.0961 56.6548 52.6204 56.9109 52.657 57.3134C52.6936 57.533 52.7668 57.7891 52.6936 57.9721C52.5472 58.2648 52.3277 58.3746 51.9983 58.4843C51.4129 58.6673 49.9492 58.2282 49.4735 57.8257C47.5708 56.2523 46.5096 54.8618 46.5828 54.5325C46.656 54.2763 46.9487 54.0934 46.8755 53.8372C46.8024 53.5445 46.3998 53.5445 46.1437 53.3981C45.9242 53.2518 45.8144 52.959 45.7412 52.7029C45.668 52.4102 45.5582 52.154 45.4851 51.8613C45.3753 51.532 45.2655 51.166 45.3021 50.8001C45.3387 50.4342 45.5217 50.0683 45.8876 49.9585C46.1437 49.8488 46.473 49.9585 46.6926 50.1049C46.9121 50.2513 47.0951 50.5074 47.278 50.7269C47.644 50.2878 48.0099 49.8488 48.3758 49.4097C48.449 49.3365 48.4856 49.2267 48.5222 49.1535C48.5587 49.0437 48.5221 48.8974 48.4856 48.7876C48.3392 48.3119 48.266 47.8362 48.1928 47.3605C48.1562 46.9946 48.1196 46.6287 48.266 46.2994C48.5222 45.5675 49.4003 45.2016 50.2054 45.2748C50.9738 45.348 51.669 45.7505 52.3643 46.153C52.4374 46.1164 52.5838 46.2262 52.5838 46.2262Z" fill="#B7B7B7"/>
<path d="M46.4349 50.7639C46.874 50.4712 47.2765 50.7274 47.5327 51.0567C47.6059 51.1665 47.7156 51.2762 47.8254 51.2762C47.9352 51.2762 48.0084 51.1665 48.0816 51.0933C48.4109 50.581 48.1547 50.3248 48.4841 49.8126C48.5938 49.6662 49.1793 49.1539 49.3623 49.1173C52.6555 48.0562 53.0214 47.1048 53.0214 47.0316C53.0214 46.7023 52.6921 45.202 51.0455 44.2873C50.0575 43.7384 48.6304 43.0797 46.2886 43.2261C45.447 43.2993 44.5322 43.8116 43.7272 44.1043C43.2881 43.6286 42.8124 43.1529 42.1903 43.1163C41.7512 43.0797 41.3121 43.2993 40.9462 43.5188C40.068 44.0311 39.2264 44.7263 38.8605 45.6777C38.275 47.2512 39.1898 49.0076 39.0069 50.6908C38.9337 51.2396 38.7507 51.8251 38.9703 52.3008C39.1532 52.7399 39.5923 52.996 39.7753 53.4351C40.068 53.984 39.9217 54.606 40.0314 55.1915C40.1778 55.8502 40.6169 56.4356 41.239 56.7284C41.8976 57.0211 42.7392 57.0577 43.1417 57.6066C43.471 58.0822 43.3979 58.7043 43.5076 59.2532C43.6174 59.802 43.9833 60.3143 44.459 60.6071C44.642 60.7168 44.8249 60.79 44.9713 60.9364C45.3006 61.2291 45.3738 61.7414 45.4836 62.1805C45.5933 62.6196 45.8129 63.0953 46.252 63.2416C46.6545 63.3514 47.0936 63.0587 47.2766 62.6562C47.4229 62.2537 47.24 60.3143 47.24 60.0216C47.2034 59.1434 45.9227 56.4722 45.8495 55.7038C45.8129 55.2281 45.5202 54.7158 45.7031 54.2767C45.7763 54.167 45.8495 54.0572 45.9227 53.9108C46.1056 53.5449 45.9593 53.1058 45.8861 52.6667C45.7397 51.8617 46.4349 50.7639 46.4349 50.7639Z" fill="#383838"/>
<path d="M143.516 83.1831C141.649 88.8548 141.247 94.8558 140.881 100.82C140.808 102.064 140.735 103.308 140.662 104.553C140.625 105.065 140.588 105.577 140.698 106.089C140.808 106.602 141.027 107.077 141.174 107.553C141.796 109.309 141.759 111.249 141.723 113.115C141.649 116.774 141.54 120.47 141.027 124.092C140.881 125.154 140.662 126.215 140.442 127.276C140.369 127.569 140.332 127.898 140.479 128.154C140.625 128.41 140.954 128.52 141.247 128.63C142.162 128.922 143.113 129.215 144.028 129.471C144.87 129.727 145.967 129.91 146.48 129.215C147.285 128.081 145.528 126.471 146.15 125.227C146.297 124.971 146.516 124.751 146.663 124.495C146.809 124.239 146.845 123.946 146.882 123.653C147.175 121.202 147.431 118.75 147.724 116.298C147.943 114.432 148.163 112.566 148.016 110.7C147.943 109.602 147.724 108.504 147.687 107.407C147.65 104.26 149.151 101.332 150.614 98.5149C151.31 97.1976 151.968 95.8804 152.261 94.4167C152.554 92.8433 152.371 91.1966 152.188 89.6232C151.932 87.3911 151.676 85.1956 151.383 82.9636C151.31 82.2317 151.2 81.4633 150.834 80.8047C149.992 79.341 147.87 78.8653 146.297 78.9751C144.321 79.158 144.065 81.5731 143.516 83.1831Z" fill="#757575"/>
<path d="M147.212 85.3785C147.798 87.3179 148.822 89.1474 149.591 91.0136C151.054 94.5264 151.75 98.3319 152.555 102.064C152.884 103.601 153.213 105.101 153.799 106.565C154.311 107.919 155.043 109.236 155.482 110.627C156.031 112.383 156.141 114.286 156.141 116.115C156.141 120.287 155.701 124.458 154.787 128.52C156.58 128.959 158.373 129.398 160.166 129.837C159.617 127.898 160.056 125.849 160.349 123.836C160.971 119.811 161.08 115.713 161.227 111.615C161.263 110.81 161.263 109.968 161.154 109.163C160.897 107.773 160.202 106.528 159.873 105.138C159.507 103.674 159.617 102.137 159.69 100.637C159.836 98.149 159.983 95.6973 160.129 93.2091C160.166 92.3675 160.239 91.5259 160.458 90.7209C160.678 89.9525 161.044 89.2206 161.3 88.4522C161.959 86.586 161.885 84.5369 161.702 82.561C161.666 82.0853 161.593 81.573 161.3 81.1705C160.934 80.6948 160.349 80.5119 159.763 80.3655C156.58 79.4873 153.25 78.5725 149.883 78.8652C148.42 79.0116 147.432 79.0116 146.956 80.4387C146.407 82.0121 146.773 83.9149 147.212 85.3785Z" fill="#8F8F8F"/>
<path d="M146.736 132.398C146.699 132.764 146.37 133.094 146.041 133.203C145.675 133.35 145.309 133.35 144.906 133.35C144.357 133.35 143.809 133.35 143.26 133.35C141.833 133.35 140.442 133.35 139.015 133.423C136.49 133.606 133.892 134.045 131.55 133.167C131.441 133.13 131.331 133.094 131.258 133.02C131.111 132.874 131.038 132.655 131.075 132.472C131.111 132.289 131.221 132.106 131.331 131.959C131.404 131.886 131.477 131.813 131.587 131.74C131.843 131.557 132.136 131.484 132.465 131.41C133.234 131.191 134.002 131.008 134.807 130.898C134.953 130.862 135.1 130.862 135.21 130.788C135.393 130.715 135.502 130.532 135.649 130.422C135.941 130.13 136.344 129.983 136.673 129.764C137.698 129.178 138.539 128.337 139.418 127.532C139.71 127.276 140.369 126.763 140.552 127.349C140.625 127.568 140.552 127.751 140.735 127.971C140.918 128.19 141.247 128.337 141.503 128.447C142.528 128.886 143.589 129.288 144.687 129.398C145.272 129.435 145.821 129.398 146.407 129.361C146.37 130.13 146.333 130.898 146.553 131.63C146.59 131.74 146.626 131.886 146.663 131.996C146.699 132.106 146.736 132.252 146.736 132.398Z" fill="#F5F5F5"/>
<path d="M146.736 132.398C146.699 132.764 146.37 133.093 146.041 133.203C145.675 133.349 145.309 133.349 144.906 133.349C144.357 133.349 143.809 133.349 143.26 133.349C141.833 133.349 140.442 133.349 139.015 133.423C136.49 133.606 133.892 134.045 131.55 133.166C131.441 133.13 131.331 133.093 131.258 133.02C131.111 132.874 131.038 132.654 131.075 132.471C131.111 132.288 131.221 132.105 131.331 131.959C131.367 132.179 131.258 132.435 131.587 132.618C131.843 132.764 132.172 132.764 132.465 132.764C136.344 132.727 140.223 132.691 144.101 132.654C144.614 132.654 145.126 132.654 145.638 132.508C146.004 132.398 146.37 132.252 146.663 131.996C146.663 131.996 146.699 131.996 146.699 131.959C146.699 132.105 146.736 132.252 146.736 132.398Z" fill="#828282"/>
<path d="M160.275 132.838C160.275 133.021 160.238 133.204 160.128 133.313C160.055 133.387 159.945 133.46 159.836 133.533C159.323 133.826 158.811 134.082 158.299 134.375C157.787 134.631 157.274 134.924 156.725 135.106C156.359 135.216 155.957 135.289 155.554 135.326C154.749 135.436 153.944 135.582 153.139 135.546C152.298 135.546 151.456 135.399 150.651 135.106C150.505 135.07 150.358 134.997 150.285 134.85C150.249 134.741 150.249 134.631 150.285 134.484C150.322 134.338 150.358 134.192 150.432 134.082C150.615 133.643 150.907 133.277 151.237 132.948C151.566 132.655 151.968 132.435 152.225 132.069C152.371 131.886 152.444 131.667 152.591 131.447C152.7 131.301 152.883 131.155 153.03 131.008C153.578 130.496 153.944 129.874 154.127 129.142C154.31 128.483 154.786 128.008 155.518 127.935C155.811 127.898 156.103 127.971 156.396 128.044C156.908 128.191 157.457 128.41 157.823 128.776C157.969 128.923 158.079 129.069 158.226 129.179C158.518 129.398 158.921 129.435 159.287 129.471C159.397 129.471 159.47 129.508 159.543 129.545C159.616 129.618 159.653 129.691 159.653 129.801C159.799 130.423 159.945 131.045 160.128 131.667C160.165 131.85 160.238 132.033 160.238 132.252C160.275 132.472 160.275 132.655 160.275 132.838Z" fill="#F5F5F5"/>
<path d="M160.275 132.837C160.275 133.02 160.238 133.203 160.128 133.313C160.055 133.386 159.945 133.46 159.836 133.533C159.323 133.825 158.811 134.082 158.299 134.374C157.787 134.63 157.274 134.923 156.725 135.106C156.359 135.216 155.957 135.289 155.554 135.326C154.749 135.435 153.944 135.582 153.139 135.545C152.298 135.545 151.456 135.399 150.651 135.106C150.505 135.07 150.358 134.996 150.285 134.85C150.249 134.74 150.249 134.63 150.285 134.484C150.322 134.338 150.358 134.191 150.432 134.082C150.505 134.118 150.541 134.118 150.615 134.155C151.054 134.301 151.493 134.447 151.968 134.484C153.066 134.594 154.201 134.704 155.298 134.63C156.396 134.557 157.53 134.265 158.445 133.606C159.067 133.167 159.616 132.618 160.275 132.325C160.275 132.472 160.275 132.655 160.275 132.837Z" fill="#828282"/>
<path d="M140.622 61.2666C139.817 61.6691 139.012 62.0716 138.243 62.5107C136.011 63.828 133.999 65.6941 131.474 66.2064C130.742 66.3528 129.937 66.3528 129.242 66.0234C128.803 65.8039 128.4 65.438 127.888 65.3282C126.607 65.1087 127.266 66.2796 127.083 66.7919C126.827 67.5969 125.912 67.853 125.583 68.5849C125.18 69.463 125.839 70.4876 126.534 71.0731C127.083 71.5122 127.851 71.7317 128.51 71.5854C129.9 71.256 131.071 70.1217 132.498 69.6826C134.035 69.2435 135.609 69.0605 137.146 68.6946C139.744 68.0726 142.378 67.4505 144.94 66.6089C145.964 66.2796 146.989 65.8771 147.867 65.255C148.416 64.8525 148.891 64.3402 149.367 63.828C149.843 63.3157 150.318 62.8034 150.794 62.3277C150.867 62.2545 150.977 62.1447 150.977 61.9984C150.977 61.852 150.867 61.7422 150.758 61.6691C149.733 60.7543 148.635 59.9127 147.501 59.1077C146.293 58.2661 145.598 58.0099 144.427 58.8515C143.256 59.7297 141.939 60.5347 140.622 61.2666Z" fill="#A1A1A1"/>
<path d="M136.598 48.386C135.866 47.1053 134.842 45.8611 133.415 45.4586C133.012 45.3489 132.427 45.3855 132.28 45.788C132.171 46.1173 132.39 46.4466 132.646 46.6296C132.902 46.8491 133.232 46.9955 133.415 47.2516C133.451 47.2882 133.488 47.3614 133.488 47.398C133.488 47.5078 133.415 47.5809 133.305 47.6541C132.829 48.0932 132.317 48.5323 132.097 49.1178C131.695 50.2521 132.463 51.4231 133.159 52.3744C133.488 52.8135 133.817 53.2526 134.33 53.4722C134.732 53.6551 135.208 53.6185 135.61 53.8015C136.013 53.9845 136.306 54.3138 136.562 54.6797C137.33 55.7408 137.879 56.9118 138.574 58.0095C139.562 59.5098 140.879 60.7905 142.27 61.9248C144.612 63.8642 147.32 65.5108 150.357 65.6205C153.138 65.7303 155.772 64.4862 158.26 63.3153C158.48 63.2055 158.699 63.0957 158.882 62.9128C158.992 62.7664 159.065 62.62 159.102 62.4371C159.505 61.1564 159.614 59.8025 159.248 58.5218C158.846 57.2411 157.858 56.1434 156.614 55.7774C154.857 55.3017 153.064 56.2897 151.345 56.8752C150.027 57.3143 148.637 57.4972 147.283 57.3509C145.417 57.1313 143.697 56.2897 142.16 55.192C140.733 54.1674 139.013 52.8867 138.135 51.3499C137.55 50.4351 137.147 49.3739 136.598 48.386Z" fill="#B7B7B7"/>
<path d="M145.453 56.9116C146.624 57.3141 147.722 57.863 148.746 58.5217C148.929 58.6314 149.112 58.7778 149.332 58.7778C149.588 58.8144 149.844 58.668 150.063 58.5583C151.527 57.8264 152.991 57.058 154.454 56.3262C154.71 56.1798 154.967 56.07 155.259 56.07C155.479 56.07 155.698 56.1798 155.881 56.2896C157.857 57.4239 159.065 59.7292 158.919 61.9613C158.919 62.2174 158.882 62.4735 158.736 62.6565C158.516 62.9858 158.113 63.0956 157.784 63.2054C155.808 63.7542 153.832 64.3031 151.856 64.852C151.234 65.035 150.576 65.1813 149.954 65.0715C149.332 64.9618 148.746 64.5959 148.087 64.669C147.612 65.9863 147.173 67.3036 146.843 68.6575C146.734 69.06 146.624 69.4625 146.66 69.865C146.66 70.2675 146.77 70.7066 146.807 71.1091C147.063 74.1462 143.513 76.4149 143.55 79.452C148.124 80.1838 152.808 80.0009 157.382 80.6961C159.101 80.9522 160.821 81.3548 162.212 82.3793C161.736 81.0254 161.919 79.5252 162.139 78.0981C162.687 74.1096 163.273 70.1578 164.517 66.3157C165.212 64.1933 166.054 62.1808 166.603 60.0219C167.152 57.863 167.298 55.5578 166.603 53.472C165.907 51.3863 164.188 49.5202 161.992 49.1177C159.321 48.642 157.089 50.252 154.674 50.9838C153.393 51.3863 152.112 51.5693 151.015 52.3377C150.063 52.9964 149.295 53.8745 148.49 54.6796C148.014 55.1918 146.221 57.1678 145.453 56.9116Z" fill="#EDEDED"/>
<path d="M155.625 51.5323C155.479 51.9713 155.259 52.4104 155.113 52.8495C155.04 53.0691 155.04 53.3252 155.259 53.3984C155.406 53.435 155.516 53.3252 155.625 53.2521C157.894 51.4225 160.675 50.4345 163.419 49.4831C162.688 49.1172 162.395 48.239 162.212 47.434C162.029 46.7388 161.846 46.0435 161.809 45.3483C161.809 45.019 161.809 44.7262 161.736 44.3969C161.7 44.1042 161.553 43.8115 161.443 43.5187C161.407 43.4089 161.334 43.2626 161.224 43.1894C161.151 43.1162 161.004 43.1162 160.895 43.1162C160.346 43.1162 159.833 43.3724 159.358 43.6651C158.553 44.1774 157.748 44.7262 157.016 45.3483C156.247 46.0069 155.442 46.8485 155.662 47.9097C155.991 49.1538 156.028 50.3613 155.625 51.5323Z" fill="#B7B7B7"/>
<path d="M150.577 43.2989C150.467 43.9576 149.991 44.5796 150.174 45.2383C150.394 45.2383 150.613 45.2383 150.869 45.2383C151.126 45.6408 151.345 46.0799 151.601 46.4824C151.821 46.8849 152.296 47.324 152.626 46.9946C152.296 47.5435 152.699 48.3119 153.284 48.5681C153.87 48.8242 154.529 48.7876 155.187 48.751C155.407 48.751 155.626 48.7144 155.809 48.5681C155.956 48.4217 156.029 48.2388 156.102 48.0558C156.907 46.0067 158.627 44.3601 160.712 43.7014C160.859 43.6648 161.005 43.5916 161.042 43.4819C161.078 43.3721 161.042 43.2989 161.005 43.1891C160.786 42.6769 160.566 42.128 160.347 41.6157C160.09 40.9936 159.688 40.2618 159.029 40.1886C159.212 39.6032 158.737 39.0177 158.188 38.725C157.639 38.4322 157.017 38.3591 156.468 38.1029C155.773 37.7736 155.26 37.1881 154.711 36.6758C153.175 35.322 151.162 35.7611 150.357 37.7004C150.101 38.3225 150.138 39.0909 150.138 39.7495C150.064 40.9936 150.723 42.2012 150.577 43.2989Z" fill="#CFCFCF"/>
<path d="M147.906 36.8957C147.942 37.7007 148.564 38.4691 149.369 38.5789C150.504 38.7252 151.418 37.5909 152.553 37.408C152.736 37.3714 152.919 37.3714 153.065 37.4811C153.211 37.5543 153.284 37.7007 153.358 37.8471C153.724 38.6155 153.541 39.6034 154.016 40.3353C154.236 40.6646 154.565 40.8841 154.748 41.2501C154.931 41.5794 154.931 42.0185 155.114 42.3478C155.297 42.6771 155.809 42.8967 156.029 42.6039C155.919 42.0551 155.846 41.5062 155.956 40.9939C156.065 40.4451 156.395 39.9328 156.87 39.7132C157.346 39.4937 158.041 39.6034 158.334 40.0425C158.663 40.5548 158.48 41.2867 158.81 41.8355C159.029 42.1648 159.395 42.3478 159.615 42.6405C159.834 42.9333 159.944 43.2992 160.164 43.5919C160.493 44.031 161.152 44.1774 161.627 43.9578C161.591 43.2626 161.518 42.5674 161.591 41.8721C161.664 40.8476 161.993 39.8596 162.176 38.8716C162.359 37.8471 162.432 36.7859 162.03 35.8345C161.481 34.5172 160.017 33.6756 158.627 33.822C158.627 33.4195 158.371 33.0536 158.005 32.8706C157.675 32.6511 157.273 32.5779 156.87 32.5413C155.004 32.2851 153.065 32.6145 151.345 33.4195C149.918 33.9684 147.759 35.1027 147.906 36.8957Z" fill="#383838"/>
<path d="M123.312 72.1423V123.663H132.276V72.1423H123.312Z" fill="#A0A0A0"/>
<path d="M132.281 72.1695V71.3279C132.281 68.8397 130.268 66.8271 127.78 66.8271C125.292 66.8271 123.279 68.8397 123.279 71.3279V72.1329H132.281V72.1695Z" fill="#353535"/>
<path d="M123.339 72.1657V123.687H126.339V72.1657H123.339Z" fill="#898989"/>
<path d="M126.313 72.1423V123.663H129.241V72.1423H126.313Z" fill="#AEAEAE"/>
<path d="M132.283 123.689H123.318L128.002 131.227L132.283 123.689Z" fill="#505050"/>
<path d="M123.312 72.1446V73.3887H132.276V72.1446H123.312Z" fill="#D5D5D5"/>
<path d="M114.018 124.679C114.604 124.752 115.189 124.679 115.774 124.606C116.433 124.533 117.055 124.459 117.714 124.386C118.043 124.35 118.336 124.313 118.665 124.423C118.958 124.533 119.251 124.752 119.251 125.082C119.287 125.521 118.848 125.813 118.482 125.996C116.945 126.801 115.152 127.35 113.433 127.094C112.664 126.984 111.859 126.655 111.42 125.996C111.091 125.484 111.018 124.313 111.713 124.02C112.079 123.874 112.371 124.167 112.701 124.313C113.14 124.496 113.579 124.642 114.018 124.679Z" fill="#090909"/>
<path d="M115.59 125.923C116.725 125.96 117.896 125.96 118.993 125.667C119.469 125.557 119.908 125.375 120.384 125.338C120.86 125.301 121.372 125.411 121.701 125.777C122.03 126.18 122.03 126.765 121.811 127.241C121.591 127.716 121.225 128.082 120.823 128.412C118.701 130.241 116.103 131.632 113.322 131.778C112.553 131.815 111.785 131.741 111.053 131.998C110.211 132.254 109.443 132.912 108.601 132.729C108.309 132.656 108.053 132.51 107.796 132.327C107.65 132.217 107.467 132.107 107.394 131.924C107.357 131.705 107.467 131.522 107.577 131.339C108.199 130.351 108.565 129.217 108.894 128.119C109.114 127.46 109.297 126.802 109.663 126.216C109.919 125.777 110.321 125.375 110.797 125.155C111.346 124.935 111.639 125.301 112.151 125.484C113.249 125.85 114.456 125.887 115.59 125.923Z" fill="#1A1A1A"/>
<path d="M102.821 119.227C103.589 119.666 104.358 120.069 105.163 120.435C107.505 121.496 110.103 122.008 112.152 123.508C111.822 124.167 111.53 124.789 111.2 125.448C110.981 125.887 110.725 126.363 110.286 126.472C109.92 126.582 109.517 126.436 109.151 126.289C106.626 125.265 104.102 124.277 101.577 123.252C96.3808 121.167 91.1482 119.081 86.0986 116.666C85.3668 116.337 84.6349 115.971 84.0861 115.422C83.5372 114.873 83.1713 114.031 83.3542 113.263C83.647 112.165 84.8545 111.616 85.9156 111.25C86.5011 111.031 86.9402 110.775 87.5257 110.921C88.1111 111.067 88.6966 111.397 89.2089 111.653C90.3432 112.165 91.4775 112.751 92.5753 113.336C94.8074 114.544 96.9663 115.824 99.1617 117.142C100.406 117.837 101.613 118.532 102.821 119.227Z" fill="#3A3A3A"/>
<path d="M107.871 131.852C107.505 132.437 105.821 130.827 105.199 130.608C103.443 129.949 101.65 129.071 99.7472 128.302C95.9417 126.729 92.1728 125.192 88.3673 123.619C87.3061 123.179 86.2084 122.74 85.074 122.777C83.7933 122.814 82.6224 123.509 81.5247 124.131C78.1217 126.107 74.7186 128.083 71.3522 130.095C69.7056 131.047 68.059 131.998 66.266 132.547C64.9853 132.913 63.6314 133.059 62.3141 133.206C61.0334 133.315 59.6796 133.425 58.4354 133.023C57.0084 132.547 55.874 131.449 54.8129 130.425C54.5567 130.168 54.264 129.876 54.264 129.51C54.2274 129.254 54.3372 128.998 54.447 128.778C55.1422 127.278 55.9472 125.851 56.8986 124.497C57.2645 123.948 57.6304 123.436 58.1427 123.033C58.7648 122.521 59.4966 122.192 60.2284 121.899C62.7898 120.801 65.0219 119.154 67.6565 118.276C71.7913 116.922 76.5116 116.63 80.2806 114.434C81.6344 113.666 83.0249 112.678 84.5618 112.751C85.6229 112.788 86.5743 113.336 87.4891 113.849C90.8921 115.788 94.2951 117.691 97.6981 119.63C99.7838 120.801 101.906 122.009 104.285 122.411C105.858 122.667 108.346 123.802 110.322 124.46C112.079 124.972 108.785 130.388 107.871 131.852Z" fill="#414141"/>
<path d="M66.3043 112.348C66.3409 112.714 66.3775 113.08 66.597 113.41C66.8898 113.849 67.4752 113.995 67.9875 114.032C68.9023 114.105 69.8537 113.958 70.7684 113.812C70.5489 114.434 70.0366 114.873 69.5243 115.239C68.7925 115.751 67.9875 116.19 67.0727 116.41C66.3775 116.593 65.5725 116.556 65.0236 116.081C64.7309 115.825 64.5845 115.495 64.4381 115.129C63.4136 112.787 62.8281 110.153 63.2306 107.628C63.3404 106.86 63.5965 106.091 64.1454 105.542C64.6943 105.03 66.3409 104.591 66.3775 105.725C66.4141 106.384 66.2677 107.079 66.2311 107.774C66.1945 108.47 66.1945 109.201 66.1945 109.897C66.2311 110.738 66.2677 111.543 66.3043 112.348Z" fill="#B8B8B8"/>
<path d="M74.4311 112.677C74.8337 112.385 75.2728 112.165 75.7484 112.129C76.3705 112.055 77.0291 112.348 77.6512 112.165C77.8708 112.092 78.0537 112.019 78.2733 111.982C78.6392 111.946 78.9685 112.092 79.2978 112.238C79.371 112.275 79.4442 112.312 79.4808 112.385C79.5174 112.531 79.4076 112.641 79.2612 112.714C77.761 113.629 76.1509 114.324 74.4677 114.8C73.9555 114.946 73.2602 114.69 73.2236 114.068C73.2236 113.446 74.0286 112.97 74.4311 112.677Z" fill="#B8B8B8"/>
<path d="M58.5504 122.704C57.7088 124.057 56.8672 125.411 55.8792 126.655C55.4035 127.241 54.9279 127.79 54.6351 128.485C54.4522 128.961 54.2692 129.51 53.7935 129.656C53.5374 129.729 53.2446 129.619 52.9885 129.51C52.3664 129.217 51.781 128.778 51.3419 128.265C51.0126 127.9 50.7564 127.497 50.4271 127.131C50.0978 126.729 49.6953 126.363 49.4025 125.96C49.0732 125.521 48.8903 124.972 48.7439 124.46C48.0852 122.411 47.8291 120.288 47.9755 118.13C47.9755 118.02 48.0121 117.91 48.0852 117.837C48.1584 117.8 48.2316 117.764 48.3414 117.764C48.7805 117.764 49.183 117.8 49.6221 117.873C51.4151 118.166 53.208 118.715 54.8547 119.52C55.8426 119.996 56.7574 120.545 57.7088 121.093C58.0381 121.313 58.5504 121.496 58.8431 121.752C59.0993 122.118 58.8065 122.301 58.5504 122.704Z" fill="#A8A8A8"/>
<path d="M47.5715 118.715C47.7544 120.105 48.0472 121.679 49.1449 122.52C50.0597 123.216 51.3404 123.252 52.5113 123.289C53.7554 123.289 54.9996 123.325 56.2071 123.106C57.378 122.923 58.5123 122.557 59.6101 122.118C63.0863 120.727 66.2697 118.751 69.6727 117.215C71.8682 116.227 74.2101 115.385 76.2226 114.068C76.4788 113.885 76.369 113.482 76.0763 113.446L73.8808 113.226C73.5148 113.19 73.1124 113.153 72.7464 113.19C72.161 113.226 71.5755 113.446 71.0266 113.665C70.2582 113.958 69.4898 114.251 68.758 114.617C68.0993 114.946 67.4773 115.385 66.7454 115.605C66.1966 115.788 65.6477 115.824 65.0988 115.861C62.391 116.117 59.6833 116.263 56.9755 116.3C56.573 116.3 56.1339 116.3 55.768 116.153C54.8532 115.788 54.5239 114.653 54.4873 113.665C54.4141 112.494 54.5239 111.323 54.4141 110.189C54.3043 109.018 53.9018 107.847 52.987 107.115C52.2186 106.493 51.194 106.274 50.2061 106.384C49.0717 106.493 47.791 106.749 47.0226 107.701C46.2908 108.579 46.7299 108.908 46.6933 110.152C46.6933 111.47 46.9494 113.043 47.0592 114.361C47.2056 115.788 47.3885 117.251 47.5715 118.715Z" fill="#CBCBCB"/>
<path d="M63.3798 97.2723C63.9287 97.5285 64.4775 97.8212 64.9166 98.2603C65.5021 98.8458 65.7582 99.6508 65.9778 100.419C66.4535 102.102 66.7096 103.822 66.7462 105.579C66.1973 105.688 65.6484 105.762 65.0996 105.871C64.9898 105.908 64.88 105.908 64.8068 106.018C64.7337 106.091 64.7337 106.201 64.7337 106.31C64.5873 108.506 64.7703 110.701 65.3191 112.824C65.5387 113.629 65.7582 114.434 65.7948 115.239C65.7948 115.385 65.7948 115.495 65.7216 115.605C65.5753 115.897 65.1728 115.897 64.8434 115.897C63.2334 115.897 61.6966 116.556 60.0865 116.922C58.4033 117.288 56.6835 117.324 55.0003 116.995C54.7076 116.922 54.4149 116.885 54.1953 116.666C53.9026 116.41 53.8294 115.971 53.7562 115.568C53.4269 113.19 53.2073 110.811 53.061 108.396C53.061 108.25 53.0244 108.103 52.9512 107.994C52.8414 107.884 52.6951 107.847 52.5121 107.847C51.451 107.737 50.3898 107.664 49.3652 107.884C48.3407 108.103 47.3161 108.689 46.877 109.64C46.8038 109.823 46.6209 110.079 46.4379 109.97C46.3281 109.896 46.2916 109.75 46.2916 109.64C46.255 108.689 46.255 107.701 46.2184 106.75C46.1818 105.908 46.1818 105.066 46.255 104.225C46.4745 101.919 47.5357 99.724 49.1823 98.1505C49.8775 97.4919 50.6459 96.943 51.3046 96.2478C51.8535 95.6989 52.3657 95.0037 53.0976 94.7841C53.6099 94.6377 54.1953 94.7109 54.7442 94.8207C56.3542 95.1134 58.0008 95.5525 59.6109 95.8087C61.0379 95.9916 62.1357 96.6503 63.3798 97.2723Z" fill="#A8A8A8"/>
<path d="M61.1049 82.1972C61.2147 82.3801 61.2513 82.5631 61.3611 82.746C61.544 83.1485 61.8733 83.4413 62.2758 83.6608C62.532 83.8072 62.8247 83.8804 63.0443 84.0633C63.2638 84.2463 63.4468 84.5756 63.337 84.8317C63.2272 85.1611 62.7515 85.3806 62.8979 85.7099C62.9345 85.8197 63.0077 85.8929 63.1174 85.9661C63.4834 86.2954 63.7029 86.7711 63.7029 87.2834C63.7029 87.5029 63.6663 87.7225 63.7761 87.8688C63.8493 87.942 63.9225 88.0152 63.9956 88.0884C64.4347 88.4909 64.4347 89.2959 63.9591 89.6984C63.6663 89.9545 63.3004 90.0277 62.9345 90.0643C61.4708 90.2839 59.9706 90.357 58.5801 90.9059C58.2142 91.0523 57.8117 91.2352 57.4458 91.1621C56.6408 90.9791 56.3114 89.8082 55.4698 89.8448C55.1771 89.8448 54.9575 90.0277 54.6648 90.0643C54.2257 90.1375 53.7866 89.9545 53.4573 89.6618C53.128 89.3691 52.9084 88.9666 52.7621 88.5641C52.5059 88.0152 52.323 87.4297 52.3961 86.8077C52.4693 86.2222 52.7987 85.6002 53.3475 85.3806C53.6037 85.2708 53.8598 85.2708 54.1159 85.1976C55.1771 84.9415 55.8723 83.9535 56.4944 83.0753C57.0433 82.2703 57.7751 81.1726 58.7997 80.9896C59.5681 80.8067 60.739 81.5019 61.1049 82.1972Z" fill="#CBCBCB"/>
<path d="M61.5416 91.2355C61.1391 91.8942 60.9195 92.626 60.7366 93.3578C60.4439 94.4556 60.1511 95.5533 60.0413 96.6511C60.0048 96.9438 60.0048 97.2731 59.8218 97.5292C59.5657 97.822 59.1266 97.8586 58.7606 97.7488C58.3947 97.6024 58.102 97.3463 57.8093 97.1267C56.3822 96.0656 54.5892 95.5899 52.906 94.9678C52.7596 94.9312 52.6133 94.8215 52.6133 94.6751C53.4183 94.4556 54.2965 94.1628 54.5892 93.3944C54.699 93.0651 54.6624 92.6992 54.6624 92.3698C54.5892 91.5282 54.516 90.65 54.4794 89.8084C54.4794 89.6987 54.4794 89.5523 54.516 89.4425C54.5892 89.223 54.8454 89.1498 55.0649 89.1132C56.2358 88.9302 57.4068 89.2596 58.5777 89.3328C59.9316 89.4059 61.3221 89.1498 62.6393 89.4425C62.7857 89.4791 63.298 89.5889 63.3346 89.7718C63.3346 89.9914 62.8955 90.0646 62.7491 90.1378C62.1637 90.3939 61.7977 90.7964 61.5416 91.2355Z" fill="#B8B8B8"/>
<path d="M58.6891 78.0253C59.4942 77.8423 60.4089 78.3546 60.7017 79.1596C60.7749 79.4158 60.8115 79.6353 60.8481 79.8915C60.8846 80.294 60.9212 80.6965 60.8115 81.099C60.7017 81.5015 60.4455 81.8674 60.0796 82.0138C59.8235 82.087 59.5308 82.087 59.3478 82.2699C59.1283 82.4529 59.0917 82.7456 59.0185 83.0017C58.8355 83.5872 58.2866 84.0263 57.6646 84.0995C57.4816 84.1361 57.2621 84.1361 57.1523 84.2824C57.0791 84.3922 57.0791 84.502 57.0425 84.6484C56.9693 85.0875 56.64 85.4534 56.2375 85.5997C56.018 85.6729 55.7984 85.6729 55.5789 85.7827C55.3593 85.8559 55.1764 86.0388 55.1398 86.2584C55.1032 86.5511 55.3959 86.7707 55.6155 86.9536C55.835 87.1732 55.9814 87.5391 55.7618 87.722C55.5789 87.8684 55.3227 87.7952 55.1398 87.6489C54.9568 87.5391 54.7739 87.3561 54.5543 87.3561C54.2982 87.3561 54.1152 87.5757 54.0054 87.7952C53.7859 88.2709 53.8591 88.8564 54.1518 89.2589C54.2616 89.4053 54.3714 89.515 54.4445 89.6614C54.5909 90.0273 54.4079 90.503 54.6641 90.8323C54.7739 90.9421 54.9568 91.0153 55.03 91.1617C55.1032 91.3446 54.9934 91.5641 55.0666 91.7471C55.1032 91.8935 55.2496 92.0032 55.3593 92.113C55.7618 92.5887 55.6521 93.4303 55.1032 93.7596C54.9934 93.8328 54.8836 93.8694 54.8105 93.9426C54.7373 94.0158 54.6641 94.1256 54.5909 94.2353C54.2616 94.6378 53.6395 94.9306 53.1272 94.8208C52.5052 95.5526 51.2245 95.1867 50.6024 94.4183C50.4927 94.3085 50.4195 94.1622 50.3097 94.089C50.2365 94.0524 50.1267 94.0158 50.017 93.9792C49.1022 93.723 48.5533 92.6253 48.846 91.7471C47.9313 91.4178 47.3092 90.5396 47.0897 89.6248C47.0165 89.2589 46.9799 88.8564 47.0897 88.5271C47.1262 88.4539 47.1628 88.3441 47.1628 88.2709C47.1628 88.1611 47.0896 88.0514 47.0165 87.9416C46.5408 87.2829 46.248 86.4413 46.248 85.6363C46.248 85.2704 46.2846 84.9045 46.4676 84.6118C46.6505 84.319 46.9799 84.0629 47.3458 84.0995C47.3824 83.4774 47.1262 82.8188 47.2726 82.1967C47.4556 81.3185 48.4801 80.7697 49.3217 81.099C49.1388 80.5501 49.3217 79.8915 49.7242 79.4524C50.1267 79.0133 50.7854 78.8669 51.3343 79.0133C51.2977 78.6474 51.627 78.318 51.9563 78.2083C52.2856 78.0985 52.6881 78.0985 53.0175 78.1351C53.0541 77.6228 53.3834 77.1105 53.8591 76.891C54.3348 76.6714 54.9202 76.708 55.3593 77.0373C55.3227 77.0007 56.1643 76.708 56.2741 76.708C56.5668 76.708 56.9328 76.7446 57.2255 76.8178C57.9573 76.891 58.3598 77.3667 58.6891 78.0253Z" fill="#8F8F8F"/>
<path d="M94.4434 95.6621L86.7226 96.833L79.4043 112.092L87.674 109.786L94.4434 95.6621Z" fill="#282828"/>
<path d="M87.6731 109.786L87.7463 111.03L67.7307 119.959L66.8525 118.605L79.3668 112.567L79.4034 112.091L87.6731 109.786Z" fill="#696969"/>
</svg>
