<svg width="232" height="141" viewBox="0 0 232 141" fill="none" xmlns="http://www.w3.org/2000/svg">
<path fill-rule="evenodd" clip-rule="evenodd" d="M65.9072 39.6934L65.9072 39.6937L10.0005 51.6923L0.00134277 71.8645L6.6964 140.293H6.69506L0 71.8645L9.99912 51.6923L65.9072 39.6934Z" fill="#EAEDFD"/>
<path d="M89.3508 42.0221C89.3508 42.0221 74.0282 57.7296 40.5155 62.4895C-10.56 69.7086 -9.48467 125.796 45.8023 137.219C101.089 148.643 86.3938 130.08 164.62 134.839C242.846 139.599 223.849 87.8755 195.444 71.9299C166.054 55.429 193.652 25.9972 149.924 19.6507C115.605 14.7322 89.3508 42.0221 89.3508 42.0221Z" fill="#EEEEEE"/>
<path d="M23.8234 118.121C23.4756 118.121 15.5632 117.425 14.9546 110.034C14.346 102.644 19.389 100.644 17.737 92.4707C16.0849 84.2975 12.52 82.0368 20.1715 75.7765C20.1715 75.7765 23.5625 73.2549 23.6495 69.8639C23.7364 65.7773 30.6054 60.8213 35.3876 63.4297C40.1698 65.9512 39.2133 70.2117 35.3876 77.0807C31.5618 83.9497 35.4745 85.08 36.344 87.2537C37.2135 89.4275 39.0394 91.6881 35.1267 96.992C31.214 102.383 36.344 108.556 32.953 113.686C32.953 113.686 29.9968 117.512 23.8234 118.121Z" fill="#A7A7A7"/>
<path d="M25.3903 129.424C25.5642 129.337 25.6511 129.163 25.6511 128.989C20.6081 106.556 28.3465 75.4287 28.3465 75.1678C28.4335 74.9939 28.2596 74.82 28.0857 74.7331C27.9118 74.6461 27.7379 74.8201 27.6509 74.9939C27.564 75.3417 19.8255 106.556 24.8686 129.163C25.0425 129.337 25.2164 129.424 25.3903 129.424Z" fill="#6B6B6B"/>
<path d="M25.4769 88.9925C25.7378 88.9056 25.7378 88.7317 25.6508 88.5578C25.6508 88.5578 23.7379 84.5581 22.8684 81.1671C22.7815 80.9932 22.6076 80.9062 22.4337 80.9062C22.2598 80.9932 22.1729 81.1671 22.1729 81.341C23.0423 84.819 24.9552 88.8186 24.9552 88.8186C25.1291 88.9925 25.303 88.9925 25.4769 88.9925Z" fill="#6B6B6B"/>
<path d="M24.3454 98.2094C24.4323 98.2094 24.4324 98.2095 24.4324 98.1225C26.0844 96.6444 30.2579 93.862 30.2579 93.862C30.4318 93.775 30.4318 93.5142 30.3449 93.4273C30.2579 93.2534 29.9971 93.2534 29.9101 93.3403C29.7362 93.4273 25.6496 96.1227 23.9976 97.6878C23.8237 97.7747 23.8237 98.0356 23.9976 98.1225C24.1715 98.2095 24.2585 98.2094 24.3454 98.2094Z" fill="#6B6B6B"/>
<path d="M37.3857 14.0432C37.3857 14.0432 39.6464 11.4348 41.0376 10.2175C43.5591 8.04378 46.4284 4.30497 55.5581 7.08733C56.2536 7.34818 56.9492 7.60902 57.6448 7.86987C58.4274 8.21766 60.9489 8.21767 63.5574 6.21784C67.644 3.00073 69.209 0.56616 74.8607 0.479212C81.3819 0.392263 82.4253 8.47852 87.4683 10.5653C90.6854 11.8695 99.2064 13.1738 100.945 13.7824L37.3857 14.0432Z" fill="#EAEAEA"/>
<path d="M230.938 50.1272C230.938 50.1272 229.807 48.8229 229.112 48.2143C227.808 47.084 226.33 45.1711 221.634 46.5623C221.286 46.6492 220.939 46.8231 220.591 46.997C220.156 47.1709 218.939 47.1709 217.548 46.1275C215.461 44.4755 214.678 43.2582 211.809 43.1713C208.505 43.0843 207.983 47.2579 205.375 48.3012C203.723 48.9968 199.375 49.6055 198.506 49.9533L230.938 50.1272Z" fill="#EAEAEA"/>
<path d="M203.982 99.3393L203.635 98.3828L203.287 99.3393C203.026 100.122 202.33 100.817 201.461 101.252C202.33 101.687 203.026 102.296 203.287 103.165L203.635 104.121L203.982 103.165C204.243 102.382 204.939 101.687 205.808 101.252C204.939 100.817 204.33 100.122 203.982 99.3393Z" fill="white"/>
<path d="M44.8643 78.1244L44.5165 77.168L44.1687 78.1244C43.9079 78.907 43.2123 79.6025 42.3428 80.0373C43.2123 80.472 43.9079 81.0807 44.1687 81.9502L44.5165 82.9066L44.8643 81.9502C45.1251 81.1676 45.8207 80.472 46.6902 80.0373C45.7338 79.6025 45.1251 78.907 44.8643 78.1244Z" fill="white"/>
<path d="M154.94 29.693L154.418 28.1279L153.897 29.693C153.462 30.9972 152.332 32.1276 150.767 32.8232C152.245 33.5188 153.375 34.6491 153.897 35.9533L154.418 37.5184L154.94 35.9533C155.375 34.6491 156.505 33.5188 158.07 32.8232C156.505 32.1276 155.462 30.9972 154.94 29.693Z" fill="white"/>
<path d="M132.513 129.077H60.867C58.5194 129.077 56.5195 127.164 56.5195 124.729V32.5633C56.5195 30.2156 58.4324 28.2158 60.867 28.2158H132.6C134.947 28.2158 136.947 30.1287 136.947 32.5633V124.729C136.86 127.164 134.947 129.077 132.513 129.077Z" fill="#AAAAAA"/>
<path d="M130.253 118.382H62.7808C60.7809 118.382 59.1289 116.692 59.1289 114.648V35.1666C59.1289 33.1218 60.7809 31.4326 62.7808 31.4326H130.253C132.253 31.4326 133.905 33.1218 133.905 35.1666V114.648C133.905 116.692 132.253 118.382 130.253 118.382Z" fill="white"/>
<path d="M96.6888 126.99C98.4656 126.99 99.9059 125.55 99.9059 123.773C99.9059 121.996 98.4656 120.556 96.6888 120.556C94.912 120.556 93.4717 121.996 93.4717 123.773C93.4717 125.55 94.912 126.99 96.6888 126.99Z" stroke="white" stroke-width="0.9959" stroke-miterlimit="10"/>
<path d="M157.644 79.3416C158.514 80.2981 159.992 80.472 160.948 79.6025C161.905 78.733 162.078 77.2549 161.209 76.2984C160.339 75.342 158.861 75.1681 157.905 76.0376C156.948 76.9071 156.775 78.3852 157.644 79.3416Z" fill="#FFC09C"/>
<path d="M138.688 79.429L148.166 84.9937L158.687 78.8203" stroke="#CFCFCF" stroke-width="3.6867" stroke-miterlimit="10" stroke-linejoin="round"/>
<path d="M145.035 79.8632L141.992 84.7323L137.818 81.7761C136.688 80.9935 136.514 79.4285 137.297 78.2981C137.992 77.4286 139.296 77.0808 140.253 77.6025L145.035 79.8632Z" fill="#F1321C"/>
<path d="M188.07 129.251H155.725C153.378 129.251 151.465 127.338 151.465 124.991V52.6492C151.465 50.3015 153.378 48.3887 155.725 48.3887H188.07C190.418 48.3887 192.331 50.3015 192.331 52.6492V124.991C192.331 127.338 190.418 129.251 188.07 129.251Z" fill="#AAAAAA"/>
<path d="M186.642 118.383H156.802C154.696 118.383 153.028 116.722 153.028 114.625V54.3206C153.028 52.223 154.696 50.5625 156.802 50.5625H186.642C188.749 50.5625 190.416 52.223 190.416 54.3206V114.625C190.416 116.722 188.749 118.383 186.642 118.383Z" fill="white"/>
<path d="M178.507 53.5182H165.03C163.378 53.5182 161.986 52.127 161.986 50.475V49.6055H181.55V50.475C181.55 52.2139 180.159 53.5182 178.507 53.5182Z" fill="#AAAAAA"/>
<path d="M175.115 123.947C175.115 125.686 173.724 127.164 171.898 127.164C170.159 127.164 168.681 125.773 168.681 123.947C168.681 122.208 170.072 120.729 171.898 120.729C173.637 120.729 175.115 122.208 175.115 123.947Z" stroke="white" stroke-width="0.9959" stroke-miterlimit="10"/>
<path d="M44.6024 119.686C44.2546 119.947 41.4722 114.817 40.8636 108.383C40.8636 108.383 40.5158 105.166 43.559 106.818C43.559 106.818 40.4289 92.9061 48.776 93.9494C50.1671 94.1233 51.0366 94.4711 51.8192 95.3406C52.9495 96.5579 53.5581 98.5577 52.2539 101.34C49.6454 106.992 47.2978 109.252 48.4282 112.209C49.4715 115.339 49.1237 116.208 44.6024 119.686Z" fill="#535353"/>
<path d="M45.3842 128.729C45.5581 128.729 45.6451 128.555 45.6451 128.381C43.7322 119.078 46.5145 103.34 46.8623 102.644C46.9493 102.47 46.9493 102.296 46.7754 102.209C46.6015 102.123 46.4276 102.123 46.3407 102.296C45.732 103.079 43.2105 119.425 45.0364 128.468C45.0364 128.642 45.2103 128.729 45.3842 128.729Z" fill="#A7A7A7"/>
<path d="M3.2168 129.251H230.936" stroke="#001C34" stroke-width="0.5281" stroke-miterlimit="10" stroke-linecap="round" stroke-linejoin="round"/>
<path d="M125.469 82.646H67.822C66.7786 82.646 65.9961 81.7765 65.9961 80.8201V46.5622C65.9961 45.5189 66.8656 44.7363 67.822 44.7363H125.556C126.599 44.7363 127.382 45.6058 127.382 46.5622V80.8201C127.295 81.7765 126.513 82.646 125.469 82.646Z" fill="#EFEFEF"/>
<path d="M81.9078 107.339H67.822C66.7786 107.339 65.9961 106.47 65.9961 105.513V91.4275C65.9961 90.3841 66.8656 89.6016 67.822 89.6016H81.9078C82.9511 89.6016 83.7337 90.4711 83.7337 91.4275V105.513C83.7337 106.47 82.8642 107.339 81.9078 107.339Z" fill="#D0D0D0"/>
<path d="M103.646 107.339H89.5603C88.5169 107.339 87.7344 106.47 87.7344 105.513V91.4275C87.7344 90.3841 88.6039 89.6016 89.5603 89.6016H103.646C104.689 89.6016 105.472 90.4711 105.472 91.4275V105.513C105.559 106.47 104.689 107.339 103.646 107.339Z" fill="#D0D0D0"/>
<path d="M125.469 107.339H111.384C110.34 107.339 109.558 106.47 109.558 105.513V91.4275C109.558 90.3841 110.427 89.6016 111.384 89.6016H125.469C126.513 89.6016 127.295 90.4711 127.295 91.4275V105.513C127.295 106.47 126.513 107.339 125.469 107.339Z" fill="#A9A9A9"/>
<path d="M69.6494 96.7324H80.0833" stroke="white" stroke-width="1.324" stroke-miterlimit="10" stroke-linecap="round" stroke-linejoin="round"/>
<path d="M69.6494 100.646H74.8663" stroke="white" stroke-width="1.324" stroke-miterlimit="10" stroke-linecap="round" stroke-linejoin="round"/>
<path d="M91.3838 96.7324H102.252" stroke="white" stroke-width="1.324" stroke-miterlimit="10" stroke-linecap="round" stroke-linejoin="round"/>
<path d="M91.3838 100.646H96.6007" stroke="white" stroke-width="1.324" stroke-miterlimit="10" stroke-linecap="round" stroke-linejoin="round"/>
<path d="M113.21 96.7324H123.644" stroke="white" stroke-width="1.324" stroke-miterlimit="10" stroke-linecap="round" stroke-linejoin="round"/>
<path d="M113.21 100.646H118.427" stroke="white" stroke-width="1.324" stroke-miterlimit="10" stroke-linecap="round" stroke-linejoin="round"/>
<path d="M185.025 107.687H158.766C157.81 107.687 157.114 106.905 157.114 106.035V85.2546C157.114 84.2981 157.897 83.6025 158.766 83.6025H185.025C185.981 83.6025 186.677 84.3851 186.677 85.2546V106.035C186.677 106.992 185.981 107.687 185.025 107.687Z" fill="#EFEFEF"/>
<path d="M185.025 79.6891H158.766C157.81 79.6891 157.114 78.9066 157.114 78.0371V74.9069C157.114 73.9505 157.897 73.2549 158.766 73.2549H185.025C185.981 73.2549 186.677 74.0374 186.677 74.9069V77.9501C186.677 78.9066 185.981 79.6891 185.025 79.6891Z" fill="#A9A9A9"/>
<path d="M185.025 69.2565H158.766C157.81 69.2565 157.114 68.4739 157.114 67.6045V64.4743C157.114 63.5179 157.897 62.8223 158.766 62.8223H185.025C185.981 62.8223 186.677 63.6048 186.677 64.4743V67.5175C186.677 68.4739 185.981 69.2565 185.025 69.2565Z" fill="#D0D0D0"/>
<path d="M141.561 100.559L142.605 104.819L129.91 105.341L130.258 100.124L141.561 100.559Z" fill="#3D3D3D"/>
<path d="M135.819 103.342L144.079 114.993L143.21 133.774L147.297 132.469L149.296 114.732L141.819 101.689L135.819 103.342Z" fill="#3D3D3D"/>
<path opacity="0.44" d="M137.038 105.081L139.82 104.82L138.516 107.255L137.038 105.081Z" fill="#3D3D3D"/>
<path d="M129.994 104.646L129.472 116.036L125.56 135.513L129.994 136.382L134.689 116.558L135.82 103.342L129.994 104.646Z" fill="#3D3D3D"/>
<path d="M146.776 133.253L144.08 133.079L143.732 136.992L151.471 137.514C151.471 136.905 151.036 136.383 150.514 136.209L146.689 134.992L146.776 133.253Z" fill="#242424"/>
<path d="M143.622 137.518L151.43 138.051L151.471 137.444L143.664 136.911L143.622 137.518Z" fill="#D0D0D0"/>
<path d="M129.207 135.425L126.512 134.903L125.643 138.729L133.294 140.294C133.381 139.686 133.033 139.077 132.512 138.816L128.947 137.164L129.207 135.425Z" fill="#242424"/>
<path d="M125.53 139.333L133.192 140.922L133.316 140.326L125.653 138.737L125.53 139.333Z" fill="#D0D0D0"/>
<path d="M142.557 131.718L142.446 133.715L148.089 134.029L148.201 132.032L142.557 131.718Z" fill="#585858"/>
<path d="M125.32 133.579L124.936 135.541L130.482 136.628L130.866 134.666L125.32 133.579Z" fill="#585858"/>
<path d="M133.119 77.6885C131.206 79.0797 130.25 82.6446 129.902 86.3834L128.858 100.73C135.727 103.165 142.162 100.208 142.162 100.208V82.3838C142.162 80.7318 140.944 76.9929 138.597 77.0799C138.51 76.9929 135.814 75.6887 133.119 77.6885Z" fill="#D02E1B"/>
<path d="M134.593 78.298H138.158V70.6465H134.68L134.593 78.298Z" fill="#CFCFCF"/>
<path d="M139.029 76.124C141.464 76.124 143.376 74.2112 143.463 71.7766L143.55 66.3858L134.855 66.2988L134.768 71.6896C134.682 74.1242 136.594 76.124 139.029 76.124Z" fill="#CFCFCF"/>
<path d="M134.767 70.2987H135.985C136.332 70.2987 136.593 70.0379 136.506 69.6901C136.332 68.8206 136.159 67.2555 136.767 67.0816C137.637 66.8208 141.984 68.0381 143.549 66.9947C145.723 65.4296 144.245 62.8211 142.332 62.6472C140.419 62.4733 140.68 64.734 138.419 64.6471C136.159 64.5601 132.768 63.6037 134.159 69.6032L134.767 70.2987Z" fill="#222222"/>
<path d="M143.55 71.8634C143.55 71.8634 143.202 71.8634 142.419 71.1678C141.637 70.4722 139.724 70.3853 138.506 71.5156C137.289 72.559 136.42 69.168 136.42 69.168L135.811 70.2114C135.811 70.2114 136.072 71.8634 134.594 71.8634C134.594 71.8634 134.942 76.8195 139.811 76.2108C139.724 76.2978 143.289 75.6891 143.55 71.8634Z" fill="#222222"/>
<path d="M133.203 70.4732C133.203 71.2557 133.812 71.8644 134.594 71.8644C135.377 71.8644 135.985 71.2557 135.985 70.4732C135.985 69.6907 135.377 69.082 134.594 69.082C133.812 69.082 133.203 69.6907 133.203 70.4732Z" fill="#CFCFCF"/>
<path d="M134.6 76.8193L137.556 78.9931L138.165 76.8193H134.6Z" fill="#CFCFCF"/>
<path d="M137.556 78.9931L134.6 80.0364V76.8193L137.556 78.9931Z" fill="#F1321C"/>
<path d="M137.555 78.9931L138.946 79.6886L138.163 76.8193L137.555 78.9931Z" fill="#F1321C"/>
<path d="M154.335 82.5575C155.205 83.6009 156.77 83.7748 157.9 82.8183C158.944 81.9488 159.118 80.3838 158.161 79.2534C157.292 78.21 155.727 78.0362 154.596 78.9926C153.64 79.949 153.466 81.5141 154.335 82.5575Z" fill="#CFCFCF"/>
<path d="M134.073 82.6448L144.246 88.5573L155.463 81.9492" stroke="#CFCFCF" stroke-width="3.9451" stroke-miterlimit="10" stroke-linejoin="round"/>
<path d="M140.943 83.0783L137.726 88.2083L133.292 84.9912C132.074 84.1217 131.901 82.4697 132.77 81.3393C133.553 80.3829 134.857 80.0351 135.987 80.5568L140.943 83.0783Z" fill="#F1321C"/>
<path d="M71.4707 55.2569V73.5161C71.4707 74.9073 72.601 76.0376 73.9922 76.0376H99.5552C100.946 76.0376 102.077 74.9073 102.077 73.5161V55.2569C102.077 53.8657 100.946 52.7354 99.5552 52.7354H73.9922C72.601 52.7354 71.4707 53.8657 71.4707 55.2569Z" fill="#A9A9A9"/>
<path d="M80.6868 67.5163C83.8562 67.5163 86.4255 64.947 86.4255 61.7777C86.4255 58.6083 83.8562 56.0391 80.6868 56.0391C77.5175 56.0391 74.9482 58.6083 74.9482 61.7777C74.9482 64.947 77.5175 67.5163 80.6868 67.5163Z" fill="#5C5C5C"/>
<path d="M71.4707 71.6902V73.5161C71.4707 74.9073 72.601 76.0376 73.9922 76.0376H99.5552C100.946 76.0376 102.077 74.9073 102.077 73.5161V71.6902L92.9471 62.5605L86.7737 68.7339L80.6003 62.5605L71.4707 71.6902Z" fill="white"/>
<path d="M161.728 89.6891V101.688C161.728 102.645 162.51 103.34 163.38 103.34H180.161C181.117 103.34 181.813 102.558 181.813 101.688V89.6891C181.813 88.7327 181.03 88.0371 180.161 88.0371H163.38C162.423 88.0371 161.728 88.7327 161.728 89.6891Z" fill="#A9A9A9"/>
<path d="M163.903 93.9498C163.903 96.0365 165.642 97.7755 167.729 97.7755C169.816 97.7755 171.555 96.0365 171.555 93.9498C171.555 91.863 169.816 90.124 167.729 90.124C165.642 90.124 163.903 91.863 163.903 93.9498Z" fill="#5C5C5C"/>
<path d="M161.729 100.471V101.688C161.729 102.645 162.511 103.34 163.381 103.34H180.162C181.118 103.34 181.814 102.558 181.814 101.688V100.471L175.814 94.4717L171.728 98.5583L167.641 94.4717L161.729 100.471Z" fill="white"/>
<path d="M106.508 58.126H116.072" stroke="white" stroke-width="1.908" stroke-miterlimit="10" stroke-linecap="round" stroke-linejoin="round"/>
<path d="M106.508 64.8213H122.419" stroke="white" stroke-width="1.908" stroke-miterlimit="10" stroke-linecap="round" stroke-linejoin="round"/>
<path d="M106.508 71.2549H122.419" stroke="white" stroke-width="1.908" stroke-miterlimit="10" stroke-linecap="round" stroke-linejoin="round"/>
</svg>
