<svg width="203" height="141" viewBox="0 0 203 141" fill="none" xmlns="http://www.w3.org/2000/svg">
<path d="M178.393 131.198L63.4714 130.962C59.1511 130.962 55.6162 127.427 55.6162 123.028L186.327 123.264C186.327 127.741 182.792 131.198 178.393 131.198Z" fill="#585858"/>
<path d="M178.393 128.526L63.4714 128.29C60.0937 128.29 57.1872 126.09 56.0875 123.105H55.6162C55.6162 127.426 59.1511 130.961 63.4714 131.039L178.393 131.196C182.713 131.196 186.248 127.661 186.327 123.341H185.855C184.756 126.326 181.849 128.526 178.393 128.526Z" fill="#5A5A5A"/>
<path d="M128.357 125.856H113.511C112.018 125.856 110.84 124.678 110.84 123.186H130.949C131.028 124.678 129.849 125.856 128.357 125.856Z" fill="#484848"/>
<path d="M179.572 123.343L62.2939 123.107L62.451 52.3321C62.451 48.2474 65.7502 44.9482 69.8349 45.0268L172.345 45.1839C176.43 45.1839 179.729 48.483 179.651 52.5677L179.572 123.343Z" fill="#393939"/>
<path d="M173.523 51.2314H68.499V117.137H173.523V51.2314Z" fill="#EBEBEB"/>
<path d="M104.082 89.8008C96.2267 89.8008 89.3141 94.1997 85.8578 100.72C84.2082 99.7769 82.323 99.3056 80.3592 99.3056C75.6461 99.3056 71.5614 102.212 69.8332 106.297C69.2048 106.14 68.5764 106.14 67.948 106.14C62.9206 106.14 58.8359 110.224 58.8359 115.252C58.8359 120.279 62.9206 124.364 67.948 124.364C70.8544 124.364 73.5252 122.95 75.1748 120.829C76.7458 121.614 78.474 122.086 80.3592 122.086C82.4016 122.086 84.3653 121.536 86.0149 120.593C89.5498 126.956 96.3052 131.276 104.16 131.276C115.55 131.276 124.82 122.007 124.82 110.617C124.82 99.0699 115.55 89.8008 104.082 89.8008Z" fill="#C1C1C1"/>
<path d="M137.703 89.8008C145.558 89.8008 152.47 94.1997 155.927 100.72C157.576 99.7769 159.461 99.3056 161.425 99.3056C166.138 99.3056 170.223 102.212 171.951 106.297C172.58 106.14 173.208 106.14 173.836 106.14C178.864 106.14 182.949 110.224 182.949 115.252C182.949 120.279 178.864 124.364 173.836 124.364C170.93 124.364 168.259 122.95 166.61 120.829C165.039 121.614 163.311 122.086 161.425 122.086C159.383 122.086 157.419 121.536 155.77 120.593C152.235 126.956 145.479 131.276 137.624 131.276C126.234 131.276 116.965 122.007 116.965 110.617C117.043 99.0699 126.313 89.8008 137.703 89.8008Z" fill="#C1C1C1"/>
<path fill-rule="evenodd" clip-rule="evenodd" d="M75.9623 66.7981C75.3058 66.7981 74.719 67.3234 74.719 68.0414V83.8304C74.719 84.4869 75.2443 85.0737 75.9623 85.0737H130.32C130.968 85.0737 131.564 84.4783 131.564 83.8304V68.0414C131.564 67.3849 131.038 66.7981 130.32 66.7981H75.9623ZM74.2207 68.0414C74.2207 67.0313 75.0478 66.2998 75.9623 66.2998H130.32C131.33 66.2998 132.062 67.1269 132.062 68.0414V83.8304C132.062 84.7535 131.243 85.572 130.32 85.572H75.9623C74.9522 85.572 74.2207 84.7449 74.2207 83.8304V68.0414Z" fill="#D02E1B"/>
<path fill-rule="evenodd" clip-rule="evenodd" d="M112.096 73.1487H79.7324V72.6729H112.096V73.1487Z" fill="white"/>
<path fill-rule="evenodd" clip-rule="evenodd" d="M97.5637 79.1194H79.7324V78.6436H97.5637V79.1194Z" fill="white"/>
<path fill-rule="evenodd" clip-rule="evenodd" d="M140.69 59.1672C140.028 59.1672 139.436 59.6972 139.436 60.4218V77.389C139.436 78.0514 139.966 78.6436 140.69 78.6436H162.999C163.659 78.6436 164.239 78.0435 164.176 77.4127L164.175 77.4009V60.4218C164.175 59.7594 163.645 59.1672 162.921 59.1672H140.69ZM138.96 60.4218C138.96 59.4182 139.782 58.6914 140.69 58.6914H162.921C163.924 58.6914 164.651 59.5131 164.651 60.4218V77.3777C164.736 78.3127 163.906 79.1194 162.999 79.1194H140.69C139.687 79.1194 138.96 78.2977 138.96 77.389V60.4218Z" fill="white"/>
<path d="M78.0034 57.9089C78.0034 58.773 77.2964 59.48 76.4324 59.48C75.5683 59.48 74.8613 58.773 74.8613 57.9089C74.8613 57.0449 75.5683 56.3379 76.4324 56.3379C77.2964 56.3379 78.0034 57.0449 78.0034 57.9089Z" fill="#585858"/>
<path d="M83.1089 57.9089C83.1089 58.773 82.4019 59.48 81.5378 59.48C80.6738 59.48 79.9668 58.773 79.9668 57.9089C79.9668 57.0449 80.6738 56.3379 81.5378 56.3379C82.4019 56.3379 83.1089 57.0449 83.1089 57.9089Z" fill="#969696"/>
<path fill-rule="evenodd" clip-rule="evenodd" d="M86.7206 56.5872C85.9905 56.5872 85.3987 57.179 85.3987 57.9091C85.3987 58.6391 85.9905 59.2309 86.7206 59.2309C87.4506 59.2309 88.0425 58.6391 88.0425 57.9091C88.0425 57.179 87.4506 56.5872 86.7206 56.5872ZM84.9004 57.9091C84.9004 56.9038 85.7153 56.0889 86.7206 56.0889C87.7258 56.0889 88.5408 56.9038 88.5408 57.9091C88.5408 58.9143 87.7258 59.7292 86.7206 59.7292C85.7153 59.7292 84.9004 58.9143 84.9004 57.9091Z" fill="#C0C0C0"/>
<path d="M125.369 61.6003L120.734 55.002L116.1 61.6003C116.1 61.6003 118.535 81.7096 113.9 105.825H120.734H127.568C122.934 81.7882 125.369 61.6003 125.369 61.6003Z" fill="#C1C1C1"/>
<path d="M108.637 41.5703L98.9755 52.4105C98.0329 53.4317 97.7187 54.8456 98.0329 56.181L102.118 73.1482C102.275 73.8552 102.982 74.2479 103.61 74.0908C104.16 74.0123 104.553 73.541 104.631 72.9911C105.024 69.6919 106.831 58.1448 113.036 54.8456L108.637 41.5703Z" fill="#D02E1B"/>
<path d="M133.068 41.5703L142.73 52.4105C143.672 53.4317 143.987 54.8456 143.672 56.181L139.588 73.1482C139.431 73.8552 138.724 74.2479 138.095 74.0908C137.545 74.0123 137.153 73.541 137.074 72.9911C136.681 69.6919 134.875 58.1448 128.669 54.8456L133.068 41.5703Z" fill="#D02E1B"/>
<path d="M107.224 35.5221C107.224 37.2503 107.538 48.7189 111.78 57.5953C112.094 58.3022 112.801 58.7735 113.586 58.7735H120.42H120.735H127.569C128.354 58.7735 129.061 58.3022 129.375 57.5953C133.539 48.7974 133.853 37.486 133.931 35.6007C133.931 35.4436 133.931 35.2865 133.931 35.0508C133.46 26.96 132.046 20.3616 130.239 15.0986H110.916C109.187 20.3616 107.695 26.96 107.224 35.0508C107.224 35.2079 107.224 35.365 107.224 35.5221Z" fill="#E1E1E1"/>
<path d="M117.906 1.43022C115.942 4.02243 113.114 8.49989 110.915 15.0983H130.239C128.039 8.49989 125.211 4.02243 123.248 1.43022C121.912 -0.376479 119.242 -0.376479 117.906 1.43022Z" fill="#D02E1B"/>
<path d="M120.578 37.1715C124.526 37.1715 127.726 33.9711 127.726 30.0232C127.726 26.0754 124.526 22.875 120.578 22.875C116.63 22.875 113.43 26.0754 113.43 30.0232C113.43 33.9711 116.63 37.1715 120.578 37.1715Z" fill="#D02E1B"/>
<path d="M120.422 35.3647C123.372 35.3647 125.763 32.9732 125.763 30.0232C125.763 27.0731 123.372 24.6816 120.422 24.6816C117.472 24.6816 115.08 27.0731 115.08 30.0232C115.08 32.9732 117.472 35.3647 120.422 35.3647Z" fill="#C1C1C1"/>
<path d="M115.316 31.5949C115.316 31.5949 118.38 32.0662 120.186 29.0027C121.443 26.9603 120.422 24.6038 120.422 24.6038C120.422 24.6038 117.201 24.4467 115.552 27.6673C115.63 27.7459 114.609 29.3954 115.316 31.5949Z" fill="white"/>
<path d="M125.683 61.915H115.472C114.058 61.915 112.958 60.8152 112.958 59.4013V58.6943H128.197V59.4013C128.197 60.8152 127.097 61.915 125.683 61.915Z" fill="#F5442F"/>
<path d="M121.914 75.6618H119.322L118.379 43.9268H122.778L121.914 75.6618Z" fill="#D02E1B"/>
<path fill-rule="evenodd" clip-rule="evenodd" d="M143.199 140.206H38.0967V139.943H143.199V140.206Z" fill="#231B22"/>
<path fill-rule="evenodd" clip-rule="evenodd" d="M202.193 131.252H0V130.986H202.193V131.252Z" fill="#231B22"/>
<path d="M18.1445 124.912L14.374 123.027L19.0086 115.722L22.7791 117.528L18.1445 124.912Z" fill="#BBBBBB"/>
<path d="M14.689 122.477L19.4807 124.833L22.7013 128.447C23.3297 129.232 23.4083 130.332 22.937 131.196L12.2539 126.011L14.689 122.477Z" fill="#1E1E1E"/>
<path d="M19.7928 125.148L19.4001 123.184C19.4001 123.184 17.829 122.084 17.1221 123.97L19.7928 125.148Z" fill="#1E1E1E"/>
<path d="M38.333 74.6391L36.3692 96.3195L22.3869 121.456L15.1602 117.686L28.1212 91.135L33.3057 74.5605L38.333 74.6391Z" fill="#020202"/>
<path d="M31.734 127.505H27.4922L28.1206 121.692H32.2839L31.734 127.505Z" fill="#BBBBBB"/>
<path d="M27.4921 126.876H32.8337L37.3111 128.761C38.1752 129.233 38.7251 130.097 38.7251 131.118H26.7852L27.4921 126.876Z" fill="#1E1E1E"/>
<path d="M33.3044 127.033L32.1261 125.384C32.1261 125.384 30.2409 125.069 30.398 127.112L33.3044 127.033Z" fill="#1E1E1E"/>
<path d="M36.6043 75.8179L36.4472 96.32C36.4472 97.1055 36.3686 97.8125 36.2115 98.598L33.3051 123.106H25.8426V97.1055L25.6855 72.126L36.6043 75.8179Z" fill="#1E1E1E"/>
<path d="M37.1553 34.3434C37.1553 34.3434 39.9832 32.8509 42.5754 35.1289C44.4606 36.7785 44.0679 38.9779 43.9107 39.9991C43.8322 40.3919 43.6751 40.7061 43.4394 41.0203L41.0043 44.0053L40.6901 37.1713L37.548 35.7573L37.1553 34.3434Z" fill="#1E1E1E"/>
<path d="M31.1062 52.0168C29.6923 51.2313 29.1424 49.4246 29.9279 48.0107L33.6984 41.0195L38.8829 43.8474L35.1124 50.8385C34.2483 52.2525 32.5202 52.8023 31.1062 52.0168Z" fill="#BCBCBC"/>
<path d="M36.6035 47.8544C34.6397 46.8332 33.9327 44.3195 35.0324 42.3557L38.5673 35.8359L42.0235 37.2499C43.2018 37.8783 43.6731 40.9418 43.0447 42.1986L40.6096 46.6761C39.7455 48.09 38.0174 48.6399 36.6035 47.8544Z" fill="#BCBCBC"/>
<path d="M42.2596 43.4561L42.181 45.577C42.181 45.8126 41.9454 46.0483 41.7097 45.8912L40.1387 45.0271L42.2596 43.4561Z" fill="#BCBCBC"/>
<path d="M42.9683 37.8781C40.926 35.5215 39.7477 34.736 39.7477 34.736C39.1193 34.029 38.648 34.4218 37.7839 34.3432C37.7839 34.3432 35.7416 33.2435 34.092 34.4218C31.4212 36.3071 32.4424 40.3132 32.4424 40.3132L31.1855 43.3767C34.4847 44.3979 35.5059 42.3555 35.5059 42.3555L37.3911 40.2346L38.3338 38.2708L39.7477 37.1711L41.2402 37.6424C41.1616 37.721 45.0107 40.3132 42.9683 37.8781Z" fill="#1E1E1E"/>
<path d="M36.7618 41.8052C36.369 42.5122 35.505 42.8264 34.7194 42.4337C34.0125 42.0409 33.6983 41.1768 34.091 40.3913C34.4838 39.6843 35.3478 39.3701 36.1334 39.7629C36.8403 40.1557 37.1545 41.0983 36.7618 41.8052Z" fill="#BCBCBC"/>
<path d="M40.9259 46.0486C39.5905 45.1846 38.0195 45.7344 38.0195 45.7344C37.4696 44.7132 37.3911 43.2208 37.5482 42.5138C37.5482 42.4352 37.6267 40.7071 38.6479 38.4291L37.1554 37.6436L36.3699 42.4352L34.8774 43.7706C34.3275 44.399 34.249 45.3417 34.4846 46.1272C34.6417 46.8341 34.9559 47.4626 35.3487 48.0124C35.9771 48.955 36.7626 49.1907 37.8624 49.3478C40.2189 49.662 40.9259 46.0486 40.9259 46.0486Z" fill="#1E1E1E"/>
<path d="M40.9239 43.5334C40.8453 43.6905 40.6097 43.769 40.4526 43.6905C40.2955 43.6119 40.2169 43.3763 40.2955 43.2192C40.374 43.0621 40.6097 42.9835 40.7668 43.0621C40.9239 43.1406 41.0024 43.2977 40.9239 43.5334Z" fill="#1E1E1E"/>
<path d="M40.1395 41.8838L41.7106 42.6694C41.8677 42.7479 42.1033 42.6694 42.1819 42.5123C42.2604 42.3552 42.1819 42.1195 42.0248 42.0409L40.4537 41.2554C40.2966 41.1769 40.061 41.2554 39.9824 41.4125C39.9824 41.5696 39.9824 41.7267 40.1395 41.8838Z" fill="#1E1E1E"/>
<path d="M37.3906 38.1927C37.3906 38.1927 38.8046 40.5492 39.8257 40.3921C39.8257 40.3921 40.2185 40.3921 40.3756 39.8423C40.3756 39.8423 42.1823 43.1415 44.1461 41.8846C44.1461 41.8846 44.6174 41.5704 43.6748 41.0991C43.6748 41.0991 45.7957 41.5704 46.8954 39.9208C47.9951 38.2712 46.267 36.9359 45.4029 36.7788C44.5389 36.6217 44.5389 36.8573 43.2035 36.0718C41.8681 35.2863 39.8257 32.3013 37.3906 35.0506V38.1927Z" fill="#1E1E1E"/>
<path d="M41.8707 59.7926C40.771 60.8923 40.771 62.699 41.8707 63.7987C42.9704 64.8984 44.7771 64.8984 45.8769 63.7987C46.9766 62.699 46.9766 60.8923 45.8769 59.7926C44.6986 58.6928 42.8919 58.6928 41.8707 59.7926Z" fill="#BCBCBC"/>
<path d="M45.8783 59.9492L48.4705 61.5203C48.7062 61.5988 48.7847 61.913 48.7062 62.1487C48.6276 62.3843 48.392 62.4629 48.1563 62.3843L45.0928 61.206L45.8783 59.9492Z" fill="#BCBCBC"/>
<path d="M42.7346 59.2422L38.0215 60.8918L38.3357 64.5837L43.1274 62.0701L42.7346 59.2422Z" fill="#BCBCBC"/>
<path d="M39.0415 59.3994L40.3769 64.9766L31.7362 68.8257L30.3223 63.1699L39.0415 59.3994Z" fill="#8A8A8A"/>
<path d="M35.8991 53.1169C35.8991 53.1169 35.1136 50.3676 34.3281 49.6606C33.7782 49.1893 31.7359 48.011 30.7147 47.6968C30.4005 47.6183 30.0863 47.6968 29.8506 47.8539C28.7509 48.718 25.6874 51.4673 24.5877 56.4947C23.4879 61.3649 23.8807 78.8034 23.8807 78.8034C28.5938 81.2385 39.1983 77.7037 39.1983 77.7037C38.02 69.3772 37.7058 60.7365 35.8991 53.1169Z" fill="#A6A6A6"/>
<path d="M29.7715 47.9322C29.7715 47.9322 31.8924 52.5667 35.2701 52.6453C35.5058 52.6453 35.6629 52.4096 35.5843 52.2525C35.4272 51.5455 34.9559 50.2102 33.8562 49.0319C32.4422 47.3823 31.1069 46.7539 29.7715 47.9322Z" fill="#BCBCBC"/>
<path d="M42.2633 67.8848L46.7408 68.0419L47.8405 70.7126L41.792 70.9483L42.2633 67.8848Z" fill="#BCBCBC"/>
<path d="M52.0818 67.8841C51.7676 69.2981 49.3324 70.712 47.84 70.712C46.3475 70.6335 45.4834 69.5337 45.4834 68.0412C45.562 66.5488 46.8188 65.3705 48.2327 65.449C49.8038 65.449 52.6316 65.6061 52.0818 67.8841Z" fill="#BCBCBC"/>
<path d="M38.6485 71.8109L26.9442 65.4482L26.7871 71.104C26.8657 72.675 28.1225 73.8533 29.6935 73.8533L38.8056 73.3034L38.6485 71.8109Z" fill="#8A8A8A"/>
<path d="M33.3067 53.5869V54.7652L33.3853 66.2338L44.5397 66.7836L44.4611 71.5753L30.1647 72.0466C29.5362 71.9681 28.9864 71.811 28.4365 71.4182C27.7296 70.9469 27.3368 70.1614 27.2582 69.3759L25.9229 56.3362L33.3067 53.5869Z" fill="#A6A6A6"/>
<path d="M32.5215 54.2939L33.4641 65.7625H32.6L32.5215 54.2939Z" fill="#E9B023"/>
<path d="M32.5215 54.2939L33.4641 65.7625H32.6L32.5215 54.2939Z" fill="#8A8A8A"/>
<path d="M52.0795 66.7838L36.5262 67.4122C36.0549 67.4122 35.6621 67.0195 35.6621 66.5481C35.6621 66.0768 36.0549 65.6841 36.5262 65.6841L52.0795 65.0557C52.5508 65.0557 52.9435 65.4484 52.9435 65.9197C52.9435 66.391 52.6293 66.7838 52.0795 66.7838Z" fill="black"/>
<path d="M51.8425 65.9979C51.9211 65.9979 51.9996 65.9193 52.0782 65.8408L58.9122 53.6652C58.9907 53.5081 58.9122 53.2725 58.7551 53.1939C58.598 53.1154 58.3623 53.1939 58.2838 53.351L51.4498 65.5266C51.3712 65.6837 51.4498 65.9193 51.6069 65.9979C51.6854 65.9979 51.764 65.9979 51.8425 65.9979Z" fill="black"/>
<path fill-rule="evenodd" clip-rule="evenodd" d="M72.8398 24.21C72.8398 23.7143 73.2353 23.2129 73.8369 23.2129H82.3205C82.8937 23.2129 83.3176 23.6073 83.3176 24.1314V29.0016C83.3176 29.2668 83.1872 29.5143 83.0102 29.6913C82.8341 29.8673 82.5883 29.9973 82.3248 29.9987L80.4112 30.0696V33.558L77.1992 29.9987H73.8369C73.5532 29.9987 73.3003 29.9032 73.1178 29.7207C72.9353 29.5382 72.8398 29.2854 72.8398 29.0016V24.21ZM73.8369 23.636C73.4959 23.636 73.2629 23.9201 73.2629 24.21V29.0016C73.2629 29.1892 73.3245 29.3291 73.417 29.4215C73.5095 29.514 73.6493 29.5756 73.8369 29.5756H77.3872L79.9881 32.4576V29.6618L82.3205 29.5754C82.4481 29.5754 82.5934 29.5097 82.711 29.3921C82.8286 29.2745 82.8945 29.1292 82.8945 29.0016V24.1314C82.8945 23.87 82.6901 23.636 82.3205 23.636H73.8369Z" fill="#D02E1B"/>
<path fill-rule="evenodd" clip-rule="evenodd" d="M200.064 60.8136C198.944 60.8179 197.948 61.8062 197.948 63.0148C197.948 64.2311 198.875 65.2159 200.071 65.2159C201.194 65.2159 202.194 64.2259 202.194 63.0148C202.194 61.8186 201.208 60.8888 200.064 60.8136ZM197.48 63.0148C197.48 61.5551 198.68 60.3457 200.071 60.3457H200.078L200.086 60.3462C201.452 60.4316 202.661 61.5427 202.661 63.0148C202.661 64.4744 201.462 65.6838 200.071 65.6838C198.596 65.6838 197.48 64.4692 197.48 63.0148Z" fill="#D02E1B"/>
<path fill-rule="evenodd" clip-rule="evenodd" d="M9.18964 90.1124C8.37623 90.1124 7.69544 90.7932 7.69544 91.6066C7.69544 92.42 8.37622 93.1008 9.18964 93.1008C10.0031 93.1008 10.6838 92.42 10.6838 91.6066C10.6838 90.7932 10.0031 90.1124 9.18964 90.1124ZM7.22754 91.6066C7.22754 90.5348 8.11781 89.6445 9.18964 89.6445C10.2615 89.6445 11.1517 90.5348 11.1517 91.6066C11.1517 92.6785 10.2615 93.5687 9.18964 93.5687C8.11782 93.5687 7.22754 92.6785 7.22754 91.6066Z" fill="#D02E1B"/>
<path fill-rule="evenodd" clip-rule="evenodd" d="M148.228 7.55859H152.309V11.6399H148.228V7.55859ZM148.695 8.02649V11.172H151.841V8.02649H148.695Z" fill="#D02E1B"/>
<path d="M11.4682 33.6362H24.5078V20.518C24.5078 19.811 23.8794 19.1826 23.1724 19.1826H11.4682C10.7612 19.1826 10.1328 19.811 10.1328 20.518V32.3008C10.1328 33.0863 10.7612 33.6362 11.4682 33.6362Z" fill="#8C8C8C"/>
<path d="M24.5088 31.3594V36.3867L20.1885 31.3594H24.5088Z" fill="#8C8C8C"/>
<path d="M20.4239 24.4462C19.7169 23.7393 18.5386 23.7393 17.8317 24.4462L17.3604 24.9175L16.889 24.4462C16.1821 23.7393 15.0038 23.7393 14.2968 24.4462C13.5899 25.1532 13.5899 26.3315 14.2968 27.0384L16.1035 28.8451C16.4177 29.1594 16.7319 29.3165 17.1247 29.3165C17.6746 29.395 18.303 29.2379 18.6957 28.7666L20.5024 26.9599C21.1308 26.3315 21.1308 25.1532 20.4239 24.4462Z" fill="white"/>
<path d="M180.04 36.9354C185.637 36.9354 190.174 32.3986 190.174 26.8022C190.174 21.2057 185.637 16.6689 180.04 16.6689C174.444 16.6689 169.907 21.2057 169.907 26.8022C169.907 32.3986 174.444 36.9354 180.04 36.9354Z" fill="#C1C1C1"/>
<path d="M178.393 30.3374C180.121 30.3374 181.928 30.416 183.499 30.2589C183.97 30.2589 184.442 29.3948 183.813 29.1592C184.049 29.0021 184.363 28.9235 184.442 28.6093C184.52 28.2951 184.442 27.9809 184.127 27.9023C184.756 28.0594 184.991 27.1168 184.52 26.8026C184.756 26.5669 184.991 26.3313 185.07 26.0171C185.148 25.7029 184.991 25.3101 184.677 25.153C184.52 25.0744 184.284 25.0744 184.049 25.0744C183.342 25.0744 182.556 25.0744 181.849 25.0744C182.085 23.9747 182.085 22.7179 181.535 21.6967C181.378 21.3825 180.907 21.0683 180.514 21.304C180.2 21.5396 180.278 22.0895 180.278 22.4037C180.357 23.8176 179.571 25.2316 178.314 25.9385C178.314 25.7814 178.393 28.8449 178.393 30.3374Z" fill="#FCFCFC"/>
<path d="M177.765 25.7812H175.094V30.3373H177.765V25.7812Z" fill="#FCFCFC"/>
<path d="M193.082 98.8349H146.658C145.872 98.8349 145.165 98.1279 145.165 97.3424V85.2454C145.165 84.4599 145.872 83.7529 146.658 83.7529H193.082C193.867 83.7529 194.574 84.4599 194.574 85.2454V97.3424C194.574 98.1279 193.867 98.8349 193.082 98.8349Z" fill="#8C8C8C"/>
<path fill-rule="evenodd" clip-rule="evenodd" d="M181.848 89.7932H150.898V89.1807H181.848V89.7932Z" fill="white"/>
<path fill-rule="evenodd" clip-rule="evenodd" d="M158.36 93.4055H150.897V92.793H158.36V93.4055Z" fill="white"/>
<path d="M150.899 97.1064V104.098L158.283 97.1064H150.899Z" fill="#8C8C8C"/>
</svg>
