<svg width="201" height="150" viewBox="0 0 201 150" fill="none" xmlns="http://www.w3.org/2000/svg">
<path d="M68.1262 149.999C77.6489 149.999 85.3686 149.279 85.3686 148.391C85.3686 147.503 77.6489 146.783 68.1262 146.783C58.6035 146.783 50.8838 147.503 50.8838 148.391C50.8838 149.279 58.6035 149.999 68.1262 149.999Z" fill="#D9D9D9"/>
<path d="M156.842 149.999C166.365 149.999 174.084 149.279 174.084 148.391C174.084 147.503 166.365 146.783 156.842 146.783C147.319 146.783 139.6 147.503 139.6 148.391C139.6 149.279 147.319 149.999 156.842 149.999Z" fill="#D9D9D9"/>
<path d="M193.29 34.8426C193.245 34.5299 193.201 34.2619 193.111 33.9492" stroke="#C8DBFB" stroke-linecap="round" stroke-linejoin="round"/>
<path d="M192.71 32.2064C189.628 21.7091 179.801 22.7365 170.956 22.7365C161.397 22.7365 13.4963 23.0492 13.4963 23.0492C-1.37862 23.0939 0.0508001 44.5352 11.7095 44.5352C18.4099 44.5352 20.9561 57.0873 9.38671 57.132C2.46295 57.132 2.2396 65.9319 6.88522 67.7186" stroke="#D9D9D9" stroke-linecap="round" stroke-linejoin="round" stroke-dasharray="3.99 3.99"/>
<path d="M7.73438 67.9424C8.00239 67.9871 8.31508 68.0317 8.62776 68.0317" stroke="#C8DBFB" stroke-linecap="round" stroke-linejoin="round"/>
<path d="M10.4134 67.5845C10.5921 68.7459 9.83271 69.8627 8.6713 70.0413C7.5099 70.22 6.39316 69.4606 6.21449 68.2992C6.03581 67.1378 6.79519 66.0211 7.95659 65.8424C9.118 65.6637 10.2347 66.4231 10.4134 67.5845Z" fill="#8A8A8A"/>
<path d="M195.389 35.7804C195.165 36.9418 194.049 37.7012 192.887 37.5225C191.726 37.2992 190.966 36.1824 191.145 35.021C191.368 33.8596 192.485 33.1003 193.647 33.2789C194.853 33.5023 195.612 34.619 195.389 35.7804Z" fill="#8A8A8A"/>
<path d="M32.211 51.9509C31.8983 53.693 31.4516 55.3904 30.9156 57.0432C29.7542 60.6614 28.1014 64.1456 26.4486 67.5852C25.5999 69.3719 22.071 73.5262 20.1949 74.3302C20.4183 69.6399 20.4183 64.1903 19.8822 59.4553C19.3462 54.899 20.999 51.4595 19.2122 47.2159C18.9888 46.6799 18.7655 46.1438 18.4975 45.6078C17.6041 43.5977 16.7107 41.5875 16.4427 39.3987C16.0853 36.6739 16.934 33.5024 19.3015 32.073C20.999 31.0456 23.2324 31.0902 25.0639 31.8943C26.8953 32.6983 28.3694 34.1724 29.4862 35.8252C32.6577 40.5155 33.1937 46.5012 32.211 51.9509Z" fill="#8A8A8A"/>
<path d="M23.9021 36.8076C27.3863 41.7659 27.699 47.4836 28.0117 53.5587C28.3244 59.589 26.8503 65.7087 23.8574 70.9797" stroke="#3D3D3D" stroke-miterlimit="10" stroke-linecap="round" stroke-linejoin="round"/>
<path d="M23.771 127.889C21.3141 125.745 18.8573 123.512 17.0259 120.787C15.4624 118.419 14.435 115.739 13.0503 113.238C12.1569 111.629 11.1295 110.066 10.5935 108.279C10.0574 106.492 10.1915 104.393 11.4422 103.053C12.7376 101.668 15.0158 101.445 16.8025 102.16C18.5893 102.874 19.9294 104.393 21.0015 106.001C22.3862 108.145 23.3243 110.602 23.6816 113.104C24.039 115.382 23.9496 117.749 24.307 120.027C24.6197 122.171 25.3344 124.226 26.2725 126.147C27.0765 127.934 29.176 131.061 29.712 132.892C28.2379 133.696 24.843 128.827 23.771 127.889Z" fill="#787878"/>
<path d="M15.1953 105.465C17.5181 106.492 18.4562 109.262 18.9475 111.763C19.4836 114.622 19.3942 117.704 20.6897 120.25C23.1465 125.119 26.3627 130.658 28.7302 132.311" stroke="#D5D5D5" stroke-miterlimit="10" stroke-linecap="round" stroke-linejoin="round"/>
<path d="M11.7125 121.232C9.65768 120.428 6.97752 120.115 5.63743 121.857C4.56537 123.331 5.1014 125.431 5.86078 127.083C6.48615 128.513 7.2902 129.942 8.63028 130.702C9.56834 131.238 10.6404 131.372 11.6678 131.506C14.5713 131.863 17.5195 132.042 20.4677 131.997C23.8626 131.997 28.0168 133.382 30.831 135.526C27.3021 128.781 18.5469 123.957 11.7125 121.232Z" fill="#4D4D4D"/>
<path d="M8.13867 125.608C10.7295 125.698 13.3203 125.921 15.8218 126.636C18.368 127.395 28.1506 131.862 29.6693 133.783" stroke="#3D3D3D" stroke-miterlimit="10" stroke-linecap="round" stroke-linejoin="round"/>
<path d="M33.9108 107.43C31.2753 103.276 26.719 100.372 21.85 99.7469C18.2318 99.2556 14.5242 99.9256 10.9953 99.1662C7.24312 98.3622 3.89291 95.9947 1.92745 92.6892C-0.0380042 89.4283 -0.529367 85.3187 0.587369 81.6558C1.43609 78.8863 3.31221 76.2508 6.08171 75.3574C7.60047 74.8661 9.25324 74.9554 10.772 75.3128C12.2014 75.6701 13.4968 76.2508 14.7029 77.0102C17.4724 78.7523 19.7059 81.4771 21.4033 84.336C22.9221 86.9715 26.719 91.0364 29.3098 93.6719C30.8286 95.2353 31.9006 96.2627 31.9006 96.2627C33.6874 98.4962 32.8834 104.795 33.9108 107.43Z" fill="#A9A9A9"/>
<path d="M5.27832 83.3975C13.9442 87.2837 23.3694 92.4207 29.4892 99.6571" stroke="#909090" stroke-miterlimit="10" stroke-linecap="round" stroke-linejoin="round"/>
<path opacity="0.2" d="M30.3357 98.6735C30.3357 98.6735 17.4263 88.2208 14.7461 77.0088C17.5156 78.7509 19.7491 81.4757 21.4465 84.3346C22.9653 86.9701 26.7622 91.035 29.353 93.6705C29.621 95.0999 29.9784 96.708 30.3357 98.6735Z" fill="#515151"/>
<path opacity="0.2" d="M30.9171 57.0867C29.7557 60.705 28.103 64.1892 26.4502 67.6287C25.6015 69.4155 22.0726 73.5698 20.1965 74.3738C20.4198 69.6835 20.4198 64.2339 19.8838 59.4989C19.3477 54.9426 21.0005 51.5031 19.2137 47.2595C18.9904 46.7234 18.767 46.1874 18.499 45.6514C18.6777 45.696 18.8117 45.7854 18.9904 45.83C21.9386 47.0808 23.2787 50.2077 23.5467 53.2005C23.77 55.702 23.3233 58.2035 22.966 60.6603C22.832 61.8217 22.698 62.9831 22.9213 64.0998V64.1445C23.234 65.4846 25.1994 65.3953 25.4228 64.0552L26.2268 59.9009C26.4502 58.6502 26.7182 57.3548 27.7456 56.506C28.1476 56.1487 28.6837 55.9253 29.175 55.97C30.0684 55.97 30.5598 56.4614 30.9171 57.0867Z" fill="#414141"/>
<path d="M30.3356 96.039C28.2808 85.4076 27.2087 83.7549 28.1021 81.1194C29.2635 77.7245 28.5935 74.285 29.6655 70.8901C30.7376 67.4505 31.497 63.7876 30.6036 60.3034C30.3356 59.1867 29.7549 58.0253 28.4594 57.9806C27.9234 57.9806 27.432 58.1593 27.03 58.5166C26.0026 59.3654 25.7346 60.7055 25.5113 61.9115L24.7519 66.0658C24.4839 67.4059 22.5631 67.4952 22.2504 66.1551V66.1105C21.9824 64.9937 22.1164 63.8323 22.2951 62.6709C22.6077 60.1694 23.0991 57.7126 22.8758 55.2111C22.6077 52.1736 21.2677 49.0914 18.3195 47.8407C17.2921 47.394 16.086 47.3046 15.0139 47.5726C11.9318 48.3767 11.1277 51.3695 11.6191 53.9157C11.9318 55.7025 12.7805 57.3552 13.5399 59.0527C15.416 63.1176 14.0312 66.8252 14.2992 71.2921C14.9693 83.6209 30.3356 96.039 30.3356 96.039Z" fill="#C6C6C6"/>
<path d="M16.6211 50.7881C18.1399 58.3372 19.6586 65.9757 22.6068 73.1228C23.4555 75.2223 23.9022 77.9471 28.8605 83.6648" stroke="#787878" stroke-miterlimit="10" stroke-linecap="round" stroke-linejoin="round"/>
<path d="M75.7201 52.7092C74.1566 50.9224 72.6825 49.091 71.1638 47.3489C70.1811 46.2322 69.1537 45.1154 68.0369 44.0434C67.5009 43.5073 66.9202 43.016 66.3395 42.5246C62.8106 39.6211 58.835 37.1643 54.6361 35.3775C52.0899 34.3054 49.4098 33.412 47.221 31.6699C45.0768 29.9278 43.5134 27.069 44.2281 24.3888C44.7641 22.468 46.3722 20.9493 48.293 20.2792C50.1691 19.6092 52.2686 19.6538 54.1894 20.0559C59.6391 21.2173 64.1953 25.1482 67.2775 29.7938C67.3222 29.8831 67.4115 29.9725 67.4562 30.0618C69.7344 33.546 71.2978 37.3876 72.6825 41.2738C73.1292 42.5246 73.5313 43.82 73.978 45.0707C74.6033 46.9469 76.5241 50.8331 75.7201 52.7092Z" fill="#8A8A8A"/>
<path d="M50.7959 24.6123C56.7369 25.729 60.9359 29.7046 65.3581 33.8142C69.7804 37.9238 72.9519 43.3735 74.4707 49.2252" stroke="#3D3D3D" stroke-miterlimit="10" stroke-linecap="round" stroke-linejoin="round"/>
<path opacity="0.2" d="M71.1678 47.3503C71.1231 47.9757 71.1231 48.601 71.2572 49.2264C69.7831 48.8691 68.7557 46.5909 68.041 44.0448C67.3709 41.5879 67.0582 38.9524 66.9242 37.7464C66.7455 35.1555 66.8795 32.5647 67.4156 30.0186C69.6937 33.5028 71.2572 37.3443 72.6419 41.2306C72.1505 42.66 71.7485 44.0448 71.4358 45.5188C71.3465 46.1442 71.2125 46.7249 71.1678 47.3503Z" fill="#535353"/>
<path d="M81.4866 25.9089C80.9952 28.1423 79.6551 30.0631 78.449 32.0286C77.8237 33.056 77.243 34.1281 76.7069 35.2001C74.9648 38.6397 73.6247 42.2579 72.7314 46.0101C72.4633 47.2609 72.2847 48.4223 72.508 49.673C69.5598 49.003 68.3984 40.6945 68.2197 38.193C67.8624 33.726 68.6218 29.1697 70.4532 25.0602C71.2573 23.2734 72.2847 21.4866 73.8928 20.3699C75.5009 19.2085 77.7343 18.8064 79.4318 19.8338C80.4592 20.4145 81.0845 21.4419 81.3972 22.5587C81.7099 23.6307 81.7546 24.7921 81.4866 25.9089Z" fill="#A9A9A9"/>
<path d="M71.3917 47.2163C69.5603 42.66 70.677 32.9668 73.5805 26.847C74.4739 25.0156 75.7247 23.2735 77.4668 22.2461" stroke="#787878" stroke-miterlimit="10" stroke-linecap="round" stroke-linejoin="round"/>
<path opacity="0.2" d="M81.4838 25.9081C80.9924 28.1415 79.6523 30.0623 78.4463 32.0278C77.8209 33.0552 77.2402 34.1273 76.7042 35.1993C75.9001 33.8592 75.3641 32.3405 75.1854 30.8217C74.9174 28.2309 75.9448 25.4614 78.0442 23.898C79.027 23.1832 80.1884 22.7812 81.3944 22.6025C81.7071 23.6299 81.7518 24.7913 81.4838 25.9081Z" fill="#5C5C5C"/>
<path d="M98.4128 45.2947C98.2788 46.1434 98.0108 46.9475 97.6534 47.7515C96.358 50.5657 93.6332 52.9779 89.5236 54.9433C89.5236 54.9433 89.3002 50.4764 89.2556 49.315C89.0769 44.2226 83.5379 41.4085 80.009 37.6562C78.2222 35.7801 76.8821 33.368 76.6141 30.7771C76.3461 28.1863 77.3735 25.4168 79.4729 23.8534C81.2597 22.558 83.5379 22.2899 85.7267 22.4686C89.2556 22.7366 92.7844 24.2107 94.9732 26.9802C95.0626 27.0696 95.1519 27.2036 95.2413 27.2929C96.5813 29.1244 97.2514 31.3578 97.7874 33.5466C98.6361 37.3882 99.0382 41.4085 98.4128 45.2947Z" fill="#787878"/>
<path d="M80.9912 26.623C84.8328 28.5885 88.6744 31.0006 90.9078 34.7082C94.0347 39.8452 93.32 46.5456 90.9525 52.0846" stroke="#595959" stroke-miterlimit="10" stroke-linecap="round" stroke-linejoin="round"/>
<path d="M162.516 78.1713C164.973 74.151 163.722 68.9694 164.571 64.3684C165.241 60.7948 167.207 57.534 170.021 55.2558C171.808 53.8264 174.309 52.8437 176.319 53.9158C176.766 54.1391 177.257 54.4518 177.704 54.2284C177.972 54.0944 178.061 53.7817 178.106 53.4691C178.597 50.9676 177.436 48.2427 178.374 45.8753C178.91 44.6245 179.982 43.6418 181.144 42.9271C183.377 41.4977 185.968 40.6936 188.648 40.5596C189.363 40.5149 190.077 40.5596 190.703 40.8723C191.82 41.453 192.356 42.8377 192.222 44.1331C192.088 45.3839 191.373 46.5006 190.613 47.528C188.067 50.8782 184.27 53.7817 183.779 57.9807C183.734 58.5167 183.734 59.0527 183.958 59.5441C184.181 59.9908 184.628 60.3482 184.896 60.7948C185.7 62.2243 184.181 63.877 182.662 64.5918C181.322 65.2618 179.803 65.6638 178.329 65.7978C177.302 65.8872 176.141 65.9318 175.426 66.6912C174.13 68.1206 175.605 70.3541 175.336 72.2749C175.158 73.481 174.309 74.419 173.46 75.2231C171.852 76.7418 170.11 78.1266 168.234 79.3327C166.715 80.3154 165.107 81.1641 163.767 82.3702C162.427 83.5763 161.355 85.1844 161.266 86.9711" fill="#A9A9A9"/>
<path d="M165.732 74.2856C166.134 72.3202 167.028 70.5334 167.921 68.7466C169.306 65.9771 170.735 63.1629 172.88 60.8848C174.488 59.1427 176.453 57.8026 178.106 56.1052C179.267 54.8991 180.25 53.5143 181.054 52.0402C181.456 51.2362 181.858 50.3875 182.394 49.6728C183.064 48.824 184.002 48.2433 184.806 47.484C185.878 46.5012 186.772 45.2952 187.352 43.9551" stroke="#787878" stroke-miterlimit="10" stroke-linecap="round" stroke-linejoin="round"/>
<path d="M197.579 80.9855C197.043 83.0849 196.194 85.1844 194.809 86.8818C193.827 88.0433 192.621 88.9366 191.325 89.696C190.655 90.098 189.94 90.4107 189.226 90.7234C186.412 91.8848 183.419 92.5549 180.381 92.6889C175.959 92.8676 171.447 91.8848 167.204 93.1356C165.238 93.7163 163.451 94.7437 162.022 96.1731C161.084 97.0218 160.325 98.0492 159.699 99.1213L160.28 95.4584C161.352 91.5275 162.424 87.5072 164.613 84.0677C165.998 81.8342 167.829 79.8687 169.795 78.082C172.921 75.2231 176.361 72.677 180.158 70.8455C183.24 69.3714 186.635 68.2994 190.03 68.7014C193.425 69.1034 196.73 71.2475 197.802 74.5084C198.428 76.5632 198.115 78.8413 197.579 80.9855Z" fill="#8A8A8A"/>
<path d="M163.096 92.644C166.357 87.8644 171.181 84.1568 176.675 82.3254C180.115 81.164 183.733 80.7619 187.173 79.7345C190.657 78.7518 194.096 77.0544 196.151 74.0615" stroke="#3D3D3D" stroke-miterlimit="10" stroke-linecap="round" stroke-linejoin="round"/>
<path d="M165.238 127.799C165.417 122.885 167.963 118.329 171.09 114.487C173.68 111.271 176.763 108.367 180.604 106.893C181.81 106.447 183.15 106.134 184.401 106.447C185.652 106.759 186.768 107.831 186.813 109.127C186.813 110.199 186.098 111.182 185.339 111.941C182.793 114.487 179.532 116.095 176.495 117.927C171.224 121.098 166.221 125.342 164.121 131.149" fill="#A9A9A9"/>
<path d="M167.159 123.511C170.375 116.32 178.684 109.932 184.178 109.128" stroke="#787878" stroke-miterlimit="10" stroke-linecap="round" stroke-linejoin="round"/>
<path d="M163.227 131.73C163.182 130.926 165.863 128.737 166.488 128.201C169.838 125.163 173.858 122.93 178.057 121.59C179.755 121.054 181.586 120.652 183.284 121.098C184.981 121.5 186.545 122.93 186.723 124.761C186.902 126.548 185.696 128.29 184.177 129.184C182.658 130.032 180.872 130.166 179.129 130.077C176.494 129.943 173.903 129.273 171.268 129.273C168.632 129.273 164.88 129.541 163.227 131.73Z" fill="#787878"/>
<path d="M165.951 129.228C171.356 126.28 179.531 124.404 185.472 125.119" stroke="#AFAFAF" stroke-miterlimit="10" stroke-linecap="round" stroke-linejoin="round"/>
<path opacity="0.2" d="M98.4161 45.2949C98.2821 46.1437 98.014 46.9477 97.6567 47.7518C95.7806 43.7315 94.0831 38.4605 93.6811 32.0281C93.5918 30.286 94.0385 28.4992 94.9765 26.9805C95.0659 27.0698 95.1552 27.2038 95.2445 27.2932C96.5846 29.1246 97.2547 31.3581 97.7907 33.5469C98.6394 37.3885 99.0415 41.4087 98.4161 45.2949Z" fill="#232323"/>
<path d="M117.134 45.0713C121.154 43.6419 125.353 42.4805 129.061 40.2917C130.177 39.6216 131.25 38.8623 132.009 37.8349C132.813 36.8075 133.26 35.5121 133.126 34.2166C132.947 32.9212 132.098 31.6705 132.411 30.3751C132.59 29.5264 133.215 28.8563 133.706 28.1416C134.868 26.4442 135.225 24.2107 134.6 22.2006C133.974 20.0564 132.366 18.359 131.473 16.3489C130.714 14.6961 130.445 12.82 130.714 11.0332C127.319 11.0779 124.236 12.9093 120.886 13.5347C118.34 14.0261 115.705 13.758 113.158 14.3387C108.557 15.4108 104.805 19.4311 104.091 24.1214C101.946 23.764 99.6683 24.5234 98.1495 26.0868C96.5861 27.7842 95.6927 30.1517 95.8267 32.4745C96.8541 49.1809 106.458 57.9361 106.458 57.9361C106.458 57.9361 115.571 45.6073 117.134 45.0713Z" fill="#C6C6C6"/>
<path d="M108.066 44.9371C107.664 40.8275 109.093 36.7179 110.746 32.921C112.354 29.2134 114.23 25.5952 116.687 22.4237C119.188 19.2521 122.36 16.5273 126.067 14.9639" stroke="#787878" stroke-miterlimit="10" stroke-linecap="round" stroke-linejoin="round"/>
<path d="M111.686 17.5098C111.284 21.1727 111.552 25.5949 112.534 29.2132" stroke="#787878" stroke-miterlimit="10" stroke-linecap="round" stroke-linejoin="round"/>
<path d="M113.203 27.8735C117.402 25.1934 123.879 23.5406 128.837 23.8086" stroke="#787878" stroke-miterlimit="10" stroke-linecap="round" stroke-linejoin="round"/>
<path d="M102.929 28.5439C107.976 30.6881 108.2 38.1032 108.334 40.2027" stroke="#787878" stroke-miterlimit="10" stroke-linecap="round" stroke-linejoin="round"/>
<path d="M109.719 35.5119C113.605 32.7424 119.189 31.8937 123.298 32.9211" stroke="#787878" stroke-miterlimit="10" stroke-linecap="round" stroke-linejoin="round"/>
<path d="M120.26 15.5889C119.098 17.0183 118.786 18.7157 118.92 19.9218" stroke="#787878" stroke-miterlimit="10" stroke-linecap="round" stroke-linejoin="round"/>
<path d="M120.038 18.8953C121.825 18.0019 124.192 17.7786 126.739 18.4039" stroke="#787878" stroke-miterlimit="10" stroke-linecap="round" stroke-linejoin="round"/>
<path d="M20.554 26.9801C21.0453 26.9354 24.2615 24.5679 25.5123 23.7639C25.8696 23.5405 26.227 23.3172 26.4503 22.9598C26.6737 22.6025 26.8077 22.1558 26.629 21.7984C26.4057 21.307 26.0483 20.8604 25.1102 20.8604C23.5021 20.8604 22.9214 21.3964 22.1621 22.2004C19.5712 24.8359 20.554 26.9801 20.554 26.9801Z" fill="#575757"/>
<path d="M35.0709 36.6288C36.5003 37.2542 37.9744 37.8795 39.5378 37.7009C40.1185 37.6115 40.7885 37.3435 40.9672 36.8075C41.1459 36.3161 40.9226 35.7801 40.5205 35.4227C40.1185 35.0654 39.6271 34.9313 39.1358 34.7973C37.2597 34.3506 34.6242 34.574 32.748 35.11C32.748 35.11 34.2221 36.2714 35.0709 36.6288Z" fill="#575757"/>
<path d="M44.3625 15.8122C43.7372 15.4102 43.0225 14.8741 43.0225 14.1594C43.0225 13.4 43.7818 12.864 44.5412 12.8193C45.3006 12.8193 45.9706 13.2214 46.5513 13.7127C48.9188 15.8122 48.6508 18.1797 48.6508 18.1797C48.6508 18.1797 45.0773 16.2589 44.3625 15.8122Z" fill="#575757"/>
<path d="M46.2383 9.4249C45.7023 9.20155 45.1216 8.88887 44.8089 8.3975C44.6302 8.12949 44.5409 7.8168 44.6749 7.54878C44.8536 7.10209 45.1216 6.6554 46.283 6.87874C49.9459 7.54878 50.7499 10.0503 50.7499 10.0503C50.7499 10.0503 47.221 9.87159 46.2383 9.4249Z" fill="#575757"/>
<path d="M57.0488 15.0083C58.5229 14.8743 60.0417 14.1596 60.9797 12.9982C61.3371 12.5515 61.6498 12.0601 61.7838 11.5241C61.9178 10.988 61.7838 10.3627 61.3371 9.96065C60.8011 9.51395 59.997 9.60329 59.4163 9.96065C58.8356 10.318 58.4783 10.9434 58.1656 11.5687C57.8082 12.4175 57.0488 15.0083 57.0488 15.0083Z" fill="#575757"/>
<path d="M30.6484 68.9241C27.0749 65.7526 23.5013 62.6258 19.9277 59.4542C18.007 57.7568 16.0862 56.0593 14.8801 53.8259C12.2893 49.0016 13.7634 42.7478 17.2922 38.5936C20.8211 34.3947 25.9581 31.9378 31.0951 30.1064C36.2768 28.3196 41.6371 27.0242 46.5507 24.6567C49.6329 23.1826 52.7598 20.9492 53.5638 17.599C54.0552 15.5888 53.6532 13.4 52.4471 11.7026C51.241 10.0498 49.2309 8.97776 47.1761 8.84375" stroke="#474747" stroke-miterlimit="10" stroke-linecap="round" stroke-linejoin="round"/>
<path d="M59.5501 11.6143C58.5673 14.6071 54.7704 16.4386 53.0283 19.0294" stroke="#474747" stroke-miterlimit="10" stroke-linecap="round" stroke-linejoin="round"/>
<path d="M45.8818 15.0537C46.6412 15.8578 47.5346 16.4831 48.2046 17.3765C49.5894 19.208 49.7234 22.2008 47.6686 24.0769" stroke="#474747" stroke-miterlimit="10" stroke-linecap="round" stroke-linejoin="round"/>
<path d="M26.584 31.8486C29.7555 34.2608 33.9098 35.9135 37.8853 36.0476" stroke="#474747" stroke-miterlimit="10" stroke-linecap="round" stroke-linejoin="round"/>
<path d="M19.3471 36.2712C17.8731 31.9829 19.4812 26.8459 23.0994 24.1211" stroke="#474747" stroke-miterlimit="10" stroke-linecap="round" stroke-linejoin="round"/>
<path d="M134.777 18.181C134.599 17.645 134.599 17.0196 135.001 16.6176C135.313 16.3049 135.85 16.1709 136.252 16.3496C139.378 17.7343 139.066 22.648 139.066 22.648C139.066 22.648 136.073 22.1566 134.777 18.181Z" fill="#575757"/>
<path d="M134.732 27.3379C132.722 31.0008 139.913 30.7328 142.504 28.5887C142.504 28.5887 136.474 24.2111 134.732 27.3379Z" fill="#575757"/>
<path d="M143.844 18.4491C143.352 17.779 143.174 16.7963 143.71 16.1262C144.112 15.6349 144.782 15.5009 145.407 15.6349C146.033 15.7689 146.926 16.3049 147.328 16.7963C149.696 19.7445 148.579 22.648 148.579 22.648C148.579 22.648 144.648 19.5658 143.844 18.4491Z" fill="#575757"/>
<path d="M172.523 27.5614C172.344 26.9807 172.389 26.3106 172.835 25.9086C173.103 25.6406 173.505 25.5513 173.907 25.5959C174.265 25.6406 174.622 25.7746 174.979 25.9086C175.694 26.266 176.275 26.8467 176.632 27.5614C177.526 29.3928 176.9 31.671 176.9 31.671C176.9 31.671 172.969 28.9908 172.523 27.5614Z" fill="#575757"/>
<path d="M163.497 34.2621C162.202 33.1453 160.281 32.788 158.718 33.5027C158.316 33.6814 157.958 33.9047 157.69 34.2621C157.109 35.0661 157.333 36.1829 157.914 36.9869C158.494 37.7463 159.388 38.2376 160.281 38.6397C161.889 39.3544 164.391 39.5331 166.088 39.9351C166.088 39.9351 166.088 36.5402 163.497 34.2621Z" fill="#575757"/>
<path d="M137.055 18.9854C138.127 22.4696 141.12 25.1051 144.47 26.4898C147.82 27.9192 151.483 28.2766 155.146 28.4999C158.764 28.7233 162.427 28.8573 165.956 29.7954C169.395 30.7334 172.79 32.6542 174.264 35.8704C176.051 39.8013 174.488 44.4916 171.942 47.9758C169.44 51.5047 166.045 54.3189 163.633 57.8924C162.516 59.5452 161.578 61.466 161.802 63.4314C162.114 66.0669 164.303 67.9877 166.358 69.6405" stroke="#3D3D3D" stroke-miterlimit="10" stroke-linecap="round" stroke-linejoin="round"/>
<path d="M145.409 17.6895C147.821 20.3696 149.742 24.5239 150.189 28.0528" stroke="#3D3D3D" stroke-miterlimit="10" stroke-linecap="round" stroke-linejoin="round"/>
<path d="M137.323 27.9637C138.708 28.321 140.093 28.6784 141.522 28.6784C142.952 28.6784 144.604 27.8743 145.632 26.8916" stroke="#3D3D3D" stroke-miterlimit="10" stroke-linecap="round" stroke-linejoin="round"/>
<path d="M174.891 27.7402C176.186 28.991 176.945 30.7331 177.035 32.5199C177.079 34.3066 176.097 36.4954 174.935 37.8355" stroke="#3D3D3D" stroke-miterlimit="10" stroke-linecap="round" stroke-linejoin="round"/>
<path d="M161.4 35.8701C163.991 38.2376 166.225 40.1584 169.084 42.1685C170.379 43.1066 172.97 44.268 174.131 43.9553" stroke="#3D3D3D" stroke-miterlimit="10" stroke-linecap="round" stroke-linejoin="round"/>
<path opacity="0.2" d="M191.279 89.6961C190.609 90.0981 189.894 90.4108 189.179 90.7235C186.365 91.8849 183.372 92.5549 180.335 92.6889C175.913 92.8676 171.401 91.8849 167.157 93.1356C165.192 93.7163 163.405 94.7437 161.976 96.1731C161.842 96.2625 161.663 96.3072 161.529 96.3965C161.172 93.4036 168.631 89.5174 170.91 88.49C174.975 86.6586 179.575 85.8545 184.042 86.2119C186.008 86.3905 188.018 86.7479 189.626 87.8646C190.251 88.3113 190.877 88.9367 191.279 89.6961Z" fill="#4B4B4B"/>
<path d="M183.998 87.9542C185.963 88.0882 187.973 88.4902 189.581 89.607C191.19 90.7237 192.351 92.6891 191.949 94.6546C191.502 96.8881 189.179 98.3622 186.946 98.6302C184.712 98.8982 182.39 98.2728 180.156 97.8261C175.198 96.7987 170.106 96.5754 165.058 97.1561C163.807 97.2901 162.601 97.5581 161.529 98.1835C161.172 95.1906 168.631 91.3044 170.91 90.277C174.975 88.4455 179.531 87.5968 183.998 87.9542Z" fill="#A9A9A9"/>
<path d="M163.45 96.2621C167.158 93.0013 176.628 90.8125 183.373 91.5272C185.383 91.7505 187.438 92.3312 189.001 93.6713" stroke="#787878" stroke-miterlimit="10" stroke-linecap="round" stroke-linejoin="round"/>
<path d="M156.574 59.7231L192.712 59.6338C196.955 59.6338 200.395 63.0733 200.395 67.3169C200.395 71.5605 196.955 75.0001 192.712 75.0001L168.01 75.0447" stroke="#3D3D3D" stroke-miterlimit="10" stroke-linecap="round" stroke-linejoin="round" stroke-dasharray="4 4"/>
<path d="M47.2213 86.2568L21.9384 86.3015C19.5263 86.3015 17.6055 88.267 17.6055 90.6344C17.6055 93.0466 19.5709 94.9674 21.9384 94.9674H29.3089" stroke="#3D3D3D" stroke-miterlimit="10" stroke-linecap="round" stroke-linejoin="round" stroke-dasharray="4 4"/>
<path d="M6.88728 105.821C-1.77859 105.821 -1.95727 118.731 9.07608 118.731C20.1094 118.686 164.57 118.418 171.405 118.418C178.239 118.418 178.954 107.787 170.511 107.787C153.76 107.832 153.18 99.8357 162.516 99.791" stroke="#D9D9D9" stroke-miterlimit="10" stroke-linecap="round" stroke-linejoin="round" stroke-dasharray="4 4"/>
<path d="M8.94271 105.463C9.12139 106.625 8.36201 107.742 7.2006 107.92C6.0392 108.099 4.92246 107.34 4.74378 106.178C4.5651 105.017 5.32448 103.9 6.48589 103.721C7.60263 103.543 8.71936 104.302 8.94271 105.463Z" fill="#8A8A8A"/>
<path d="M166.624 99.8355C166.803 100.997 166.044 102.114 164.882 102.292C163.721 102.471 162.604 101.712 162.425 100.55C162.247 99.3888 163.006 98.2721 164.168 98.0934C165.329 97.9147 166.446 98.6741 166.624 99.8355Z" fill="#0B43A4"/>
<path opacity="0.2" d="M168.989 137.179L34.5782 137.447C32.7914 137.447 31.3174 136.017 31.3174 134.186L31.1387 45.1597C31.1387 43.373 32.5681 41.8989 34.3995 41.8989L168.81 41.6309C170.597 41.6309 172.071 43.0603 172.071 44.8917L172.249 133.918C172.205 135.705 170.775 137.179 168.989 137.179Z" fill="#707070"/>
<path d="M166.352 135.482L31.9415 135.75C30.1547 135.75 28.6806 134.32 28.6806 132.489L28.502 43.4625C28.502 41.6757 29.9314 40.2016 31.7628 40.2016L166.173 39.9336C167.96 39.9336 169.434 41.363 169.434 43.1945L169.613 132.221C169.568 134.007 168.139 135.482 166.352 135.482Z" fill="white"/>
<path d="M165.905 39.9336L32.0758 40.2016C30.1103 40.2016 28.5469 41.8097 28.5469 43.7305V46.8127L169.434 46.5V43.4178C169.479 41.5417 167.871 39.9336 165.905 39.9336Z" fill="#4D4D4D"/>
<path d="M32.2544 135.75L52.4897 135.705L52.311 46.7686L28.5469 46.8132L28.7256 132.221C28.7256 134.187 30.289 135.75 32.2544 135.75Z" fill="#D9D9D9"/>
<path d="M166.171 40.827C167.467 40.827 168.539 41.8991 168.539 43.1945L168.717 132.221C168.717 133.516 167.645 134.588 166.35 134.588L31.9395 134.856C30.6441 134.856 29.5721 133.784 29.5721 132.489L29.3934 43.4625C29.3934 42.8371 29.6167 42.2564 30.0634 41.8097C30.5101 41.363 31.0908 41.1397 31.7162 41.095L166.171 40.827ZM166.171 39.9336L31.7609 40.2016C29.9741 40.2016 28.5 41.6757 28.5 43.4625L28.6787 132.489C28.6787 134.275 30.1528 135.75 31.9395 135.75L166.35 135.482C168.137 135.482 169.611 134.007 169.611 132.221L169.432 43.1945C169.432 41.4077 167.958 39.9336 166.171 39.9336Z" fill="#4D4D4D"/>
<path d="M49.0513 128.96L33.4617 129.004C32.7916 129.004 32.2109 128.468 32.2109 127.754V127.62C32.2109 126.95 32.747 126.369 33.4617 126.369L49.0513 126.324C49.7214 126.324 50.3021 126.86 50.3021 127.575V127.709C50.3021 128.424 49.766 128.96 49.0513 128.96Z" fill="white"/>
<path d="M47.1746 68.6112L33.9078 68.6559C32.657 68.6559 31.6296 67.6285 31.6296 66.3777L31.585 53.1109C31.585 51.8602 32.6124 50.8328 33.8631 50.8328L47.1299 50.7881C48.3807 50.7881 49.4081 51.8155 49.4081 53.0662L49.4527 66.3331C49.4527 67.6285 48.47 68.6112 47.1746 68.6112Z" fill="white"/>
<path d="M103.992 108.367L57.7595 108.457C56.8661 108.457 56.1514 107.742 56.1514 106.849V106.625C56.1514 105.732 56.8661 105.017 57.7595 105.017L103.992 104.928C104.886 104.928 105.6 105.642 105.6 106.536V106.759C105.6 107.653 104.886 108.367 103.992 108.367Z" fill="#D9D9D9"/>
<path d="M101.315 55.7022L64.7751 55.7916C63.8817 55.7916 63.167 55.0769 63.167 54.1835V53.9601C63.167 53.0667 63.8817 52.352 64.7751 52.352L101.315 52.2627C102.208 52.2627 102.923 52.9774 102.923 53.8708V54.0941C102.923 54.9875 102.208 55.7022 101.315 55.7022Z" fill="#D9D9D9"/>
<path d="M159.071 92.6436L110.382 92.733C109.488 92.733 108.773 92.0183 108.773 91.1249V90.9015C108.773 90.0081 109.488 89.2934 110.382 89.2934L159.071 89.2041C159.965 89.2041 160.679 89.9188 160.679 90.8122V91.0355C160.679 91.9289 159.965 92.6436 159.071 92.6436Z" fill="#D9D9D9"/>
<path d="M103.992 115.515L57.7595 115.604C56.8661 115.604 56.1514 114.889 56.1514 113.996V113.773C56.1514 112.879 56.8661 112.165 57.7595 112.165L103.992 112.075C104.886 112.075 105.6 112.79 105.6 113.683V113.907C105.645 114.8 104.886 115.515 103.992 115.515Z" fill="#D9D9D9"/>
<path d="M103.992 122.661L57.7595 122.751C56.8661 122.751 56.1514 122.036 56.1514 121.142V120.919C56.1514 120.026 56.8661 119.311 57.7595 119.311L103.992 119.222C104.886 119.222 105.6 119.936 105.6 120.83V121.053C105.645 121.902 104.93 122.661 103.992 122.661Z" fill="#D9D9D9"/>
<path d="M158.089 127.307L111.498 127.396C110.024 127.396 108.818 126.19 108.818 124.716L108.773 104.704C108.773 103.23 109.98 102.024 111.454 102.024L158.044 101.935C159.518 101.935 160.724 103.141 160.724 104.615L160.769 124.627C160.769 126.101 159.563 127.307 158.089 127.307Z" fill="#D02E1B"/>
<path d="M36.2742 43.4624C36.2742 44.0878 35.7829 44.6238 35.1575 44.6238C34.5321 44.6238 33.9961 44.1325 33.9961 43.5071C33.9961 42.8817 34.4875 42.3457 35.1128 42.3457C35.7382 42.3457 36.2742 42.8371 36.2742 43.4624Z" fill="#D02E1B"/>
<path d="M39.9742 44.4454C40.5909 44.4454 41.0909 43.9454 41.0909 43.3286C41.0909 42.7119 40.5909 42.2119 39.9742 42.2119C39.3574 42.2119 38.8574 42.7119 38.8574 43.3286C38.8574 43.9454 39.3574 44.4454 39.9742 44.4454Z" fill="#D9D9D9"/>
<path d="M45.9217 43.4623C45.9217 44.0877 45.4303 44.6237 44.805 44.6237C44.1796 44.6237 43.6436 44.1324 43.6436 43.507C43.6436 42.8816 44.1349 42.3456 44.7603 42.3456C45.4303 42.3009 45.9217 42.7923 45.9217 43.4623Z" fill="#D9D9D9"/>
<path d="M61.3977 54.4275C61.5796 52.611 60.2546 50.991 58.4381 50.809C56.6217 50.6271 55.0016 51.9521 54.8197 53.7686C54.6377 55.5851 55.9628 57.2051 57.7792 57.3871C59.5957 57.569 61.2158 56.2439 61.3977 54.4275Z" fill="#D9D9D9"/>
<path d="M48.1114 71.426L33.5492 71.4707C33.1918 71.4707 32.9238 71.2027 32.9238 70.8453V70.756C32.9238 70.3986 33.1918 70.1306 33.5492 70.1306L48.1114 70.0859C48.4688 70.0859 48.7368 70.354 48.7368 70.7113V70.8007C48.7368 71.158 48.4688 71.426 48.1114 71.426Z" fill="white"/>
<path d="M48.1114 74.1946L33.5492 74.2392C33.1918 74.2392 32.9238 73.9712 32.9238 73.6139V73.5245C32.9238 73.1672 33.1918 72.8992 33.5492 72.8992L48.1114 72.8545C48.4688 72.8545 48.7368 73.1225 48.7368 73.4799V73.5692C48.7368 73.9266 48.4688 74.1946 48.1114 74.1946Z" fill="white"/>
<path d="M64.8185 80.0916L60.7089 80.1363L60.7535 97.4234H57.18C55.9292 97.4234 54.9018 96.396 54.9018 95.1452L54.8125 63.2066C54.8125 61.9559 55.8399 60.9285 57.0906 60.8838H64.7291L64.8185 80.0916Z" fill="#D02E1B"/>
<path d="M91.5715 60.8389V61.2856C92.8223 61.2856 93.805 62.2683 93.805 63.519L93.8497 94.6536C93.8497 95.9044 92.867 96.8871 91.6162 96.8871L57.5334 96.9764C56.2827 96.9764 55.3 95.9937 55.3 94.743L55.2553 63.6084C55.2553 62.3576 56.238 61.3749 57.4888 61.3749L91.5715 61.2856V60.8389ZM91.5715 60.8389L57.4888 60.9282C56.0147 60.9282 54.8086 62.1343 54.8086 63.6084L54.8533 94.743C54.8533 96.2171 56.0593 97.4231 57.5334 97.4231L91.6162 97.3338C93.0903 97.3338 94.2964 96.1277 94.2964 94.6536L94.2517 63.519C94.2517 62.0003 93.0456 60.8389 91.5715 60.8389Z" fill="#D02E1B"/>
<path d="M148.441 86.479L103.012 76.2051C101.583 75.8924 100.645 74.4183 101.002 72.9889L106.094 50.3861C106.407 48.9567 107.881 48.0186 109.31 48.376L154.739 58.65C156.169 58.9627 157.107 60.4367 156.749 61.8662L151.657 84.4689C151.344 85.8983 149.915 86.7917 148.441 86.479Z" fill="#D02E1B"/>
<path d="M60.5293 147.988H54.1416L52.5781 139.903L62.048 139.858L60.5293 147.988Z" fill="#4D4D4D"/>
<path d="M54.3645 139.858C54.3645 140.528 54.2305 141.645 54.6772 141.645C55.1239 141.645 54.9452 140.573 55.4366 140.618C55.7493 140.618 55.3026 144.147 56.5087 144.236C57.3574 144.281 57.1787 142.539 57.2681 141.422C57.3127 140.662 58.2955 140.796 58.2955 141.332C58.2955 141.869 58.2508 142.271 58.2955 142.896C58.3401 143.968 59.9482 143.655 59.9036 142.271C59.8589 140.886 59.9036 139.903 59.9036 139.903L54.3645 139.858Z" fill="#D02E1B"/>
<path d="M52.8458 144.773C52.7118 144.773 52.5778 144.773 52.4885 144.728C52.0418 144.639 51.6844 144.371 51.5057 144.013C50.8357 142.628 52.5778 140.082 52.6225 139.948L52.7118 140.395C52.7118 140.44 51.1931 142.628 51.7738 143.879C51.9078 144.192 52.1758 144.371 52.5331 144.415C52.6225 144.415 52.7565 144.46 52.8458 144.46C55.124 144.46 59.0549 140.172 59.0995 140.127C59.2782 139.948 59.5462 140.127 59.4569 140.261C59.2782 140.484 55.3026 144.773 52.8458 144.773Z" fill="#1F1F1F"/>
<path opacity="0.2" d="M119.627 33.992C110.604 33.6347 98.141 40.3351 102.563 56.6841C102.474 58.0689 103.278 59.0516 104.171 58.7836C105.065 58.5156 104.261 55.8801 104.261 55.8801C105.78 43.73 108.594 41.6305 113.373 41.6752L124.585 41.6305C127.355 42.0325 132.403 43.998 133.162 53.6913L135.931 54.2273C136.155 47.2142 134.457 34.5727 119.627 33.992Z" fill="#050505"/>
<path d="M119.627 32.5633C110.604 32.206 98.141 38.9064 102.563 55.2554L104.261 54.4514C105.78 42.3013 108.594 40.2018 113.373 40.2465L124.585 40.2018C127.355 40.6038 132.537 43.0607 133.296 52.7986H135.931C136.155 45.7855 134.457 33.144 119.627 32.5633Z" fill="#9A9A9A"/>
<path d="M117.795 32.8311L116.455 35.7792C116.455 35.7792 116.634 37.432 118.242 37.3873C119.85 37.3427 120.073 36.5833 120.073 36.5833L120.297 33.1884L117.795 32.8311Z" fill="#CCCCCC"/>
<path d="M124.719 30.3749C123.2 33.0997 122.53 33.9038 120.52 34.3058C117.929 34.8419 115.025 33.0997 116.365 28.7668C117.482 25.2379 119.135 25.774 120.788 25.908C122.396 26.0866 126.371 27.4714 124.719 30.3749Z" fill="#CCCCCC"/>
<path d="M118.601 28.2303C118.199 28.0069 117.663 28.1856 117.35 28.543C117.037 28.9003 116.859 29.3917 116.993 29.8384C116.367 29.8384 115.831 30.4638 115.876 31.0891C115.429 30.1064 115.697 29.0343 115.608 28.0516C115.519 27.0242 115.653 25.9075 116.278 25.1481C116.546 24.8354 116.903 24.5674 117.261 24.3887C118.69 23.6293 120.432 23.6293 121.862 24.3441C122.174 24.4781 122.889 24.9694 123.916 24.7014C125.882 24.21 127.043 25.5501 125.837 26.8009C126.239 26.9349 126.641 27.1136 126.82 27.4709C126.865 27.5603 126.865 27.6943 126.82 27.7836C126.775 27.8283 126.686 27.8729 126.641 27.9176C126.329 28.0516 125.927 28.0516 125.614 28.0069C125.748 28.141 126.463 28.1856 126.686 28.5876C127.267 29.7044 124.944 29.1684 124.587 29.0343C124.989 29.1237 126.061 29.9724 125.703 30.5531C125.614 30.6871 124.185 31.4912 122.666 29.7491C122.308 29.347 121.862 28.945 121.37 28.811C120.968 28.7217 120.522 28.8557 120.12 28.9897C119.852 29.079 119.092 29.5257 118.869 29.2577C118.78 28.945 119.092 28.4983 118.601 28.2303Z" fill="#1F1F1F"/>
<path d="M133.564 52.8431C133.162 54.2278 132.76 54.3618 133.251 54.5852C133.742 54.8085 134.144 54.0492 134.144 54.0492L136.378 54.4959C136.378 54.4959 135.887 53.0218 135.529 52.8431C135.172 52.6644 133.564 52.8431 133.564 52.8431Z" fill="#CCCCCC"/>
<path d="M104.307 54.4512C104.619 55.1659 104.664 55.1659 105.066 56.0593C105.825 57.712 104.039 60.3922 102.877 57.4887C102.564 56.6846 102.564 55.2552 102.564 55.2552L104.307 54.4512Z" fill="#CCCCCC"/>
<path d="M121.817 24.5217C123.336 24.6111 125.256 23.539 126.418 24.9238C126.507 25.0578 126.731 24.8791 126.641 24.7451C125.48 23.0923 123.38 24.3431 121.772 24.2984C121.638 24.2984 121.638 24.5217 121.817 24.5217Z" fill="#1F1F1F"/>
<path d="M122.441 23.6728C121.414 23.8515 120.387 23.3601 119.315 23.5388C118.466 23.6728 117.706 24.1195 117.036 24.6556C116.858 24.7896 117.081 25.1023 117.26 24.9682C118.153 24.3875 119.047 23.8515 120.163 23.9409C120.967 23.9855 121.682 24.2535 122.486 23.9855C122.709 23.9408 122.62 23.6728 122.441 23.6728Z" fill="#1F1F1F"/>
<path d="M116.455 25.1018C115.696 25.5485 115.294 26.1738 115.205 27.0672C115.16 27.6926 115.115 29.1667 115.741 29.5241C115.875 29.6134 116.053 29.39 115.919 29.3007C115.517 28.8987 115.473 27.7819 115.517 27.2459C115.562 26.4419 115.919 25.8165 116.545 25.3251C116.679 25.2358 116.589 25.0571 116.455 25.1018Z" fill="#1F1F1F"/>
<path d="M127.802 27.6487C127.444 26.9786 126.462 26.3979 125.702 26.8446C125.568 26.8893 125.657 27.068 125.747 27.1126C126.059 27.1126 126.372 27.068 126.685 27.1573C127.042 27.2466 127.355 27.47 127.578 27.7827C127.668 27.872 127.891 27.7827 127.802 27.6487Z" fill="#1F1F1F"/>
<path d="M78.0869 95.7695C82.8219 97.5116 86.9315 102.961 85.9934 106.892C84.9213 111.359 81.8391 113.28 81.8391 113.28L80.8564 111.493C80.8564 111.493 83.3132 107.652 83.0899 105.82C82.7325 102.917 79.0696 100.951 79.0696 100.951L78.0869 95.7695Z" fill="#3D3D3D"/>
<path d="M66.4258 146.112C66.4258 146.112 63.5223 147.274 62.8076 147.944H68.57V146.112H66.4258Z" fill="#1F1F1F"/>
<path d="M79.1581 146.023C79.1581 146.023 79.9622 146.962 80.1409 147.944H76.21C76.2993 147.274 76.5673 146.649 76.9247 146.023H79.1581Z" fill="#1F1F1F"/>
<path d="M79.4246 146.112H76.7445C76.7891 142.941 76.1638 132.175 75.4937 124.09C75.1364 119.355 74.779 115.558 74.5557 114.799L75.9851 114.486L81.3901 113.28C82.3281 117.524 80.184 137.044 79.4246 146.112Z" fill="#595959"/>
<path d="M69.5543 114.665C67.4548 117.971 66.9188 141.78 66.0254 146.202L68.5715 146.336C68.5715 146.336 71.4751 131.327 77.7288 114.397L69.5543 114.665Z" fill="#009790"/>
<path opacity="0.2" d="M78.7993 114.397C77.5485 117.748 76.4765 121.009 75.4937 124.091C75.1364 119.356 74.779 115.559 74.5557 114.799L75.9851 114.487L78.7993 114.397Z" fill="#5E5E5E"/>
<path d="M69.5543 114.665C67.4548 117.971 66.9188 141.78 66.0254 146.202L68.5715 146.336C68.5715 146.336 71.4751 131.327 77.7288 114.397L69.5543 114.665Z" fill="#696969"/>
<path d="M71.1165 88.0423C71.1165 88.0423 69.5084 94.2514 73.5733 94.2514L73.35 95.8595L76.4322 96.2168L75.7621 93.9834C75.7621 93.9834 76.3875 90.0971 76.4322 89.3824C76.4768 88.0423 72.8139 85.7195 71.1165 88.0423Z" fill="#CCCCCC"/>
<path d="M61.0615 81.0728L59.8555 81.0752L59.8654 86.1228L61.0715 86.1205L61.0615 81.0728Z" fill="#1F1F1F"/>
<path d="M63.9258 81.0741H57.0467C56.5553 81.0741 56.1533 80.6721 56.1533 80.2254V80.0467C56.1533 79.5553 56.5553 79.1533 57.0467 79.1533H63.9258C64.4172 79.1533 64.8192 79.5553 64.8192 80.002V80.1807C64.7745 80.6721 64.3725 81.0741 63.9258 81.0741Z" fill="#4D4D4D"/>
<path d="M59.5472 87.4619C59.5025 86.3005 58.5645 86.6132 59.1005 84.7371C59.4132 83.5757 61.8253 84.9158 61.5126 85.7198C61.2 86.5239 60.8873 87.7746 60.8873 87.7746L59.5472 87.4619Z" fill="#CCCCCC"/>
<path d="M73.617 95.4569C67.5419 95.8589 67.1399 97.9137 64.4151 97.601C60.3948 97.1097 61.1095 89.6499 61.6009 86.9697H59.1888C59.1888 86.9697 54.8558 104.033 68.5693 100.862C68.0333 103.855 71.4728 108.724 68.1673 114.665C73.3936 116.094 78.2179 116.407 82.3722 114.62C81.6575 113.637 83.8463 103.721 79.5134 96.5737C78.62 95.1889 74.0637 95.4123 73.617 95.4569Z" fill="#0056EC"/>
<path d="M73.617 95.4569C67.5419 95.8589 67.1399 97.9137 64.4151 97.601C60.3948 97.1097 61.1095 89.6499 61.6009 86.9697H59.1888C59.1888 86.9697 54.8558 104.033 68.5693 100.862C68.0333 103.855 71.4728 108.724 68.1673 114.665C73.3936 116.094 78.2179 116.407 82.3722 114.62C81.6575 113.637 83.8463 103.721 79.5134 96.5737C78.62 95.1889 74.0637 95.4123 73.617 95.4569Z" fill="#4D4D4D"/>
<path d="M72.7688 89.2483C73.1708 89.3376 73.6175 89.427 73.8409 89.7843C73.9749 90.0077 73.9749 90.2757 73.9749 90.5437C74.0642 90.2757 74.3322 90.097 74.6449 90.097C74.9129 90.1417 75.181 90.365 75.181 90.6777C75.181 90.8117 75.1363 90.9457 75.0916 91.0351C74.9576 91.3478 74.8236 91.6158 74.6449 91.8838C75.1363 92.0625 75.5383 93.5366 75.8063 93.9833C76.6551 93.7599 78.4865 93.0452 78.6652 90.097C78.7545 88.7123 78.3078 87.0595 76.8337 86.1661C75.7617 85.4961 74.0196 85.4961 72.8135 85.8088C71.8308 86.0768 70.2673 87.0595 70.982 88.1762C71.2947 88.7123 72.0988 89.0696 72.7688 89.2483Z" fill="#9A9A9A"/>
<path d="M77.997 87.3271C78.5777 87.1484 79.2924 87.2378 79.6051 87.7291C79.8731 88.0865 79.8284 88.5778 79.9178 89.0245C79.9624 89.2479 80.0518 89.4712 80.1858 89.6052C80.3645 89.7839 80.6772 89.8286 80.9452 89.8286C81.6152 89.8733 82.2853 89.7839 82.9106 89.8733C83.536 89.9626 84.206 90.3646 84.3847 90.9453C84.4741 91.258 84.4294 91.66 84.5634 91.9727C84.7421 92.4641 85.2781 92.7321 85.7248 93.0448C86.7075 93.6702 87.5116 94.4742 88.137 95.4123C88.4943 95.993 88.807 96.663 88.8517 97.3777C88.8963 98.0924 89.3877 98.9858 89.2537 99.7005C89.1197 100.46 88.3603 101.443 86.9309 101.934C84.4294 102.738 83.6253 103.095 81.2579 101.666C80.9898 101.487 80.4091 100.907 80.1411 100.683C79.9178 100.505 79.7838 100.281 79.7391 100.013C79.5604 99.3432 79.7838 98.5838 80.1411 97.9584C80.4985 97.333 80.9898 96.797 81.3472 96.1716C81.5705 95.8143 81.7492 95.3676 81.7046 94.9656C81.7046 94.7869 81.6599 94.6529 81.5259 94.5189C81.4365 94.4295 81.2579 94.3849 81.1238 94.3402C80.5878 94.2509 80.0071 94.3402 79.5604 94.1169C79.1137 93.8935 78.8457 93.3128 78.9797 92.8661C79.0691 92.5534 79.3371 92.2854 79.3817 91.928C79.4711 91.4367 79.2031 90.99 78.7564 90.6773C78.3097 90.3646 77.8183 90.2753 77.3269 90.2306C77.1036 90.1859 76.8356 90.1413 76.6122 90.0073C76.3889 89.8286 76.2549 89.5159 76.2549 89.2479C76.3442 88.3098 77.1036 87.6398 77.997 87.3271Z" fill="#9A9A9A"/>
<path d="M77.5484 89.8282C80.5413 90.4983 76.7444 93.3124 78.3525 94.6972C78.7992 95.0992 79.3352 94.9652 79.8713 95.0545C81.9261 95.3226 80.8093 96.7073 80.6753 97.8241C80.6753 98.0027 80.9433 98.0027 80.9433 97.8687C81.122 97.1093 81.792 96.216 81.4347 95.4119C81.122 94.6972 80.3626 94.7865 79.6926 94.7865C78.8885 94.7419 77.9951 94.7865 78.3078 93.1784C78.3525 92.8211 78.6652 92.4637 78.7992 92.151C78.9779 91.749 79.0672 91.3917 78.9779 90.9896C78.8439 90.2749 78.2185 89.8729 77.5484 89.7389C77.4591 89.6495 77.4144 89.8282 77.5484 89.8282Z" fill="#9A9A9A"/>
<path d="M71.3373 86.167C73.6601 85.0056 75.983 85.2289 77.9484 86.971C78.0824 87.105 78.2611 86.9264 78.1271 86.7924C76.385 84.8716 73.3475 84.5142 71.248 86.0777C71.2033 86.0777 71.248 86.2117 71.3373 86.167Z" fill="#9A9A9A"/>
<path d="M149.336 93.4482L148.354 95.4584L150.81 96.4858L151.078 94.1183L149.336 93.4482Z" fill="#CCCCCC"/>
<path d="M150.854 86.8369C145.27 89.2491 147.548 95.1454 150.943 94.4754C152.596 94.118 153.444 88.8024 153.444 88.8024L150.854 86.8369Z" fill="#CCCCCC"/>
<path d="M152.686 86.0328C152.507 85.6754 152.329 85.3181 152.016 85.0947C151.703 84.8714 151.257 84.782 150.944 85.05C150.587 85.4074 150.81 86.0328 151.167 86.3901C150.855 86.4348 150.453 86.2115 150.229 86.4348C150.05 86.6135 150.095 86.9262 150.229 87.1495C150.497 87.6856 150.899 88.1322 151.391 88.4449C151.123 88.6236 150.765 88.9363 150.944 89.2043C150.989 89.2937 151.078 89.3383 151.123 89.4277C151.212 89.6063 151.123 89.8297 151.033 90.0084C150.855 90.321 150.676 90.5891 150.453 90.8571C150.631 90.5891 151.123 90.7231 151.257 90.9911C151.391 91.3038 151.257 91.6611 151.078 91.8845C150.944 92.0185 150.81 92.1525 150.631 92.1525C150.497 92.1972 149.782 94.2966 150.319 94.6987C150.989 95.19 153.177 94.7433 153.49 94.2073C153.803 94.5646 154.294 94.8327 154.741 94.7433C155.187 94.654 155.545 94.0733 155.321 93.6713C155.813 93.8499 156.438 93.6712 156.796 93.2692C157.153 92.8672 157.198 92.2418 156.93 91.7505C157.198 91.6611 157.242 91.3038 157.198 91.0358C157.064 90.455 156.617 90.0084 156.036 89.8297C156.304 89.8297 156.528 89.5617 156.572 89.249C156.572 88.981 156.438 88.7129 156.26 88.4896C155.724 87.8642 155.098 87.6855 154.339 87.5515C153.445 87.4622 153.043 86.6582 152.686 86.0328Z" fill="#575757"/>
<path d="M147.46 145.756C147.46 145.756 144.199 147.319 143.752 147.811C143.752 147.811 150.184 148.079 150.676 147.811C151.167 147.498 149.648 145.756 149.648 145.756H147.46Z" fill="#1F1F1F"/>
<path d="M159.609 143.969C159.609 143.969 156.75 146.158 156.393 146.739C156.393 146.739 163.182 145.711 163.182 145.309C163.182 144.863 161.753 143.522 161.753 143.522L159.609 143.969Z" fill="#1F1F1F"/>
<path d="M150.63 115.47C150.496 116.14 146.029 133.785 158.849 144.371L162.557 143.523C162.557 143.523 158.224 139.458 156.214 132.221C154.293 125.342 155.812 124.672 156.973 120.875C158.268 116.676 157.286 113.639 157.286 113.639L150.63 115.47Z" fill="#8A8A8A"/>
<path d="M144.51 115.425C142.5 120.25 139.016 136.777 146.61 146.069H150.407C150.407 146.069 147.414 142.808 147.101 135.214C146.788 127.62 148.709 124.315 150.049 121.769C151.389 119.267 152.685 115.023 152.685 115.023L144.51 115.425Z" fill="#9A9A9A"/>
<path d="M141.829 85.3633C140.802 88.8922 140.489 95.4586 145.537 98.0941L148.932 97.29C148.932 97.29 142.857 94.1185 144.152 86.0333L141.829 85.3633Z" fill="#3D3D3D"/>
<path d="M132.54 83.5754L135.175 83.2627C135.175 83.2627 134.862 94.2514 147.549 95.1894C157.242 95.9042 158.001 114.085 158.001 114.085C154.874 116.184 149.648 116.809 142.903 116.363C142.903 116.363 143.35 103.364 142.278 99.8351C142.278 99.7904 131.691 96.4849 132.54 83.5754Z" fill="#4D4D4D"/>
<path d="M129.324 81.5658C128.877 82.1018 130.753 82.7272 132.54 83.5759L134.818 83.3079C134.818 83.3079 134.863 82.8612 134.818 82.3698C134.773 81.8785 134.55 81.6105 134.282 82.0125C134.014 82.4145 132.852 82.5485 132.316 82.1912C131.78 81.7891 129.77 81.0744 129.324 81.5658Z" fill="#CCCCCC"/>
<path d="M141.831 85.3624C140.982 84.5137 141.205 84.603 141.205 84.603L143.796 85.1838C143.796 85.1838 144.377 83.933 144.823 83.8883C145.315 83.8437 144.466 84.7371 144.645 85.0944C144.823 85.4071 144.109 86.0771 144.109 86.0771L141.831 85.3624Z" fill="#CCCCCC"/>
<path d="M154.117 87.2385C154.653 87.3725 155.189 87.4171 155.636 87.7745C156.083 88.1319 156.261 88.7572 155.948 89.2486C155.814 89.4719 156.172 89.6506 156.306 89.4719C156.708 88.9359 156.619 88.2212 156.217 87.7298C155.77 87.1491 154.876 86.9258 154.162 87.0151C154.028 87.0151 153.983 87.1938 154.117 87.2385Z" fill="#575757"/>
<path d="M156.433 91.9735C156.79 92.1969 157.058 92.5096 156.924 92.9563C156.79 93.3583 156.388 93.5816 156.075 93.805C155.897 93.8943 156.075 94.1623 156.209 94.073C156.701 93.805 157.192 93.4476 157.281 92.8669C157.326 92.3756 157.013 91.9735 156.567 91.7502C156.433 91.6609 156.299 91.8842 156.433 91.9735Z" fill="#575757"/>
<path d="M150.589 94.6525C151.795 95.3672 153.448 95.2778 154.43 94.2504C154.564 94.1164 154.386 93.8931 154.252 93.9824C153.18 94.7865 151.973 95.0098 150.723 94.4738C150.589 94.4291 150.499 94.5631 150.589 94.6525Z" fill="#575757"/>
<path d="M156.614 87.9975C157.284 88.6229 156.614 89.5163 156.168 90.097C156.078 90.231 156.212 90.365 156.346 90.2757C156.748 89.9183 157.106 89.5163 157.195 88.9356C157.24 88.5336 157.061 88.1316 156.704 87.9082C156.614 87.9082 156.57 87.9529 156.614 87.9975Z" fill="#575757"/>
<path d="M81.0381 6.38773L80.0107 3.84157L90.106 0L81.0381 6.38773Z" fill="#3D3D3D"/>
<path d="M81.5742 4.8243L90.1061 0L84.165 6.03037L81.5742 4.8243Z" fill="#8A8A8A"/>
<path d="M77.6895 2.81418L90.1076 0L80.0123 3.84157L77.6895 2.81418Z" fill="#8A8A8A"/>
<path d="M81.577 4.82422L81.041 6.38765L82.6044 5.31558L81.577 4.82422Z" fill="#4D4D4D"/>
<path d="M79.8758 6.0754C77.2403 5.6287 73.6668 8.30887 75.1855 11.0784C75.7216 12.0164 78.4017 11.6144 78.223 10.587C78.1337 10.0956 77.5083 9.8723 77.017 9.91697C74.0688 10.2743 73.9348 12.7311 74.0688 13.3565C74.7388 16.6174 79.7418 15.5006 81.3946 15.054" stroke="#D9D9D9" stroke-miterlimit="10" stroke-linecap="round" stroke-linejoin="round" stroke-dasharray="4 4"/>
</svg>
