<svg width="180" height="135" viewBox="0 0 180 135" fill="none" xmlns="http://www.w3.org/2000/svg">
<path d="M179.31 99.3038L0 114.916V114.502L179.31 98.8896V99.3038Z" fill="black"/>
<path d="M94.0016 135C111.155 135 125.06 132.868 125.06 130.238C125.06 127.608 111.155 125.476 94.0016 125.476C76.8486 125.476 62.9434 127.608 62.9434 130.238C62.9434 132.868 76.8486 135 94.0016 135Z" fill="#EFEFEF"/>
<path opacity="0.3" d="M29.1958 130.03C36.1714 130.03 41.8262 129.27 41.8262 128.333C41.8262 127.395 36.1714 126.635 29.1958 126.635C22.2202 126.635 16.5654 127.395 16.5654 128.333C16.5654 129.27 22.2202 130.03 29.1958 130.03Z" fill="#EFEFEF"/>
<path d="M148.667 132.929C165.82 132.929 179.725 130.797 179.725 128.167C179.725 125.536 165.82 123.404 148.667 123.404C131.514 123.404 117.608 125.536 117.608 128.167C117.608 130.797 131.514 132.929 148.667 132.929Z" fill="#EFEFEF"/>
<path d="M98.6388 13.6299V95.2814L24.1465 101.329V7.58228L98.6388 13.6299Z" fill="white" stroke="#606060"/>
<path opacity="0.3" d="M47.2093 30.8096C47.5406 33.7084 49.9424 36.0688 50.0667 39.009C50.2323 42.4875 47.2093 45.1378 44.5176 47.374C41.8673 49.5688 39.2584 51.9293 37.8504 55.0765C36.4424 58.1823 36.5667 62.2406 38.9685 64.6839C41.8673 67.5826 46.7538 67.2099 49.9838 69.6532C52.4685 71.5167 53.5452 74.6639 55.2016 77.3142C58.763 82.9461 65.5544 86.3832 72.2216 85.8863C74.0437 85.7621 76.0728 85.2237 77.0667 83.6915C78.309 81.828 77.6464 79.302 76.5283 77.3971C75.4102 75.4921 73.878 73.7115 73.4225 71.5581C72.3872 66.9615 76.3627 62.8204 80.2139 60.0872C84.0651 57.3955 88.6203 54.5382 89.49 49.9001C90.4424 44.9722 86.7569 40.3342 82.74 37.3112C80.3381 35.5305 77.6464 33.874 76.3213 31.1823C75.2446 28.9875 75.3274 26.3786 74.4578 24.0596C73.2983 20.871 70.2753 18.4277 66.921 17.9308C60.7507 17.0197 59.6326 22.0305 55.2016 24.1839C51.9716 25.7161 46.5053 24.8464 47.2093 30.8096Z" fill="#A9A9A9"/>
<path d="M110.735 125.723C110.694 126.593 110.611 127.546 110.031 128.208C109.369 128.995 108.25 129.202 107.215 129.368C105.724 129.575 104.234 129.823 102.743 130.03C102.66 130.237 102.908 130.444 103.157 130.527C104.275 130.9 105.476 130.734 106.635 130.61C107.961 130.486 109.327 130.403 110.694 130.362C111.315 130.362 112.019 130.32 112.309 129.782C112.516 129.409 112.433 128.912 112.392 128.457C112.226 127.09 112.599 125.723 112.433 124.357C112.392 124.191 112.35 124.026 112.226 123.984C112.143 123.943 112.06 123.984 111.977 123.984C110.777 124.233 110.818 124.688 110.735 125.723Z" fill="#DBDBDB"/>
<path d="M111.146 129.244C110.028 129.907 108.91 130.114 107.626 129.948C107.544 129.948 107.129 129.824 107.047 129.824C107.005 129.576 107.005 129.327 106.84 129.327C105.887 129.369 104.976 129.451 104.024 129.576C103.734 129.617 102.616 129.659 102.491 129.866C102.367 130.073 102.45 130.321 102.616 130.487C102.781 130.652 102.988 130.777 103.195 130.859C104.272 131.274 105.432 131.232 106.55 131.149C107.958 131.066 109.324 131.025 110.732 130.942C111.188 130.901 111.726 130.901 112.099 130.611C112.679 130.238 112.886 129.451 112.886 128.747C112.886 127.547 111.56 128.996 111.146 129.244Z" fill="#575757"/>
<path d="M104.478 64.8499C104.478 64.8499 109.531 64.56 109.531 64.4358C109.406 62.945 108.081 60.7916 108.785 59.4665C109.489 58.1413 109.986 57.4373 110.69 56.1122C110.773 55.9051 110.897 55.6567 110.731 55.491C110.607 55.3668 110.4 55.4082 110.235 55.4496C109.323 55.7395 108.412 56.0294 107.501 56.4021C105.969 57.0232 104.561 56.9818 104.478 58.5969C104.437 60.3775 104.478 64.8499 104.478 64.8499Z" fill="#DBDBDB"/>
<path d="M88.9079 128.084C88.7423 128.954 88.5352 129.865 87.9141 130.486C87.1687 131.19 86.0091 131.231 84.9739 131.273C83.4831 131.314 81.9509 131.314 80.4601 131.355C80.3358 131.562 80.5843 131.77 80.7914 131.894C81.8266 132.391 83.069 132.391 84.2285 132.432C85.595 132.474 86.9202 132.556 88.2453 132.722C88.8251 132.805 89.5705 132.846 89.9432 132.349C90.2331 131.977 90.1917 131.521 90.1917 131.066C90.1917 129.699 90.7714 128.374 90.7714 127.007C90.7714 126.842 90.73 126.676 90.6058 126.593C90.5229 126.552 90.4401 126.552 90.3573 126.552C89.1564 126.593 89.115 127.049 88.9079 128.084Z" fill="#DBDBDB"/>
<path d="M113.757 86.5908C113.757 86.5908 112.763 94.0448 112.349 99.7181C111.976 105.391 113.881 117.649 113.757 120.921C113.632 124.192 112.887 126.097 112.887 126.097H109.988C109.988 126.097 106.468 110.816 106.344 107.545C106.22 104.273 104.066 87.4605 104.066 87.4605L113.757 86.5908Z" fill="#959595"/>
<path d="M75.0377 59.3012C75.0791 59.6325 74.5822 59.7153 74.4993 59.4254C73.2984 55.0358 70.4825 43.9377 70.5239 42.4055C70.5653 41.453 71.2279 40.749 71.2279 40.749H72.0975C72.0975 40.749 72.8015 41.453 72.8843 42.4055C72.9671 43.0266 74.5822 54.9116 75.0377 59.3012Z" fill="#D02E1B"/>
<path d="M105.019 48.1609C104.44 49.2376 103.736 50.4385 102.576 50.6042C102.369 50.6456 102.162 50.6456 101.996 50.7284C101.706 50.8941 101.665 51.3496 101.665 51.6809C101.706 53.0474 101.748 54.414 101.831 55.7806C101.872 57.0229 102.038 58.4723 103.114 59.1349C103.86 59.5904 104.854 59.4662 105.723 59.3005C106.427 59.1763 107.131 59.0106 107.794 58.7208C109.864 57.8511 111.231 55.822 111.852 53.6686C112.349 51.9708 112.432 50.1073 111.728 48.5336C110.237 45.4692 106.634 45.1794 105.019 48.1609Z" fill="#DBDBDB"/>
<path d="M112.349 86.26C111.77 86.3428 111.231 86.4256 110.651 86.5498C110.569 86.467 110.403 86.4256 110.279 86.4256C106.386 85.6802 102.328 85.8873 98.6423 87.2952C96.7374 93.1342 91.6024 114.254 90.5257 117.07C89.242 120.424 88.4552 123.944 87.627 127.464C88.8693 127.754 89.9874 127.961 91.2711 128.002C95.7435 117.401 97.6898 117.939 98.3524 110.858C98.4766 109.409 100.382 107.007 101.21 105.847C105.144 100.257 111.852 92.4716 112.888 90.8152C113.84 89.3244 115.704 85.763 112.349 86.26Z" fill="#A9A9A9"/>
<path d="M112.35 86.26C111.77 86.3428 111.232 86.4256 110.652 86.5498C110.569 86.467 110.404 86.4256 110.28 86.4256C106.387 85.6802 102.329 85.8873 98.6431 87.2952C98.3946 88.0406 98.1047 88.9931 97.7734 90.1112C99.0572 90.898 101.128 91.602 104.523 91.8091C108.085 92.0161 111.273 90.691 113.717 89.2002C114.462 87.6679 114.752 85.9287 112.35 86.26Z" fill="#959595"/>
<path d="M75.2835 49.6937C75.2007 49.4452 75.1179 49.1553 74.9108 48.9897C74.6209 48.7826 74.2482 48.824 73.9584 48.9483C73.6271 49.0725 73.3786 49.2795 73.0473 49.3624C72.4675 49.528 71.7636 49.321 71.2666 49.6522C70.9768 49.8593 70.8525 50.2734 70.9353 50.6047C70.9768 50.7703 71.101 50.936 71.1424 51.1016C71.3909 51.6814 71.3495 52.3854 71.7222 52.8823C72.012 53.255 72.4676 53.4621 72.9231 53.6277C73.9998 54.0418 75.0764 54.4973 76.1117 54.9114C76.1945 54.9529 76.2774 54.9529 76.3188 54.9529C76.3602 54.9114 76.4016 54.87 76.443 54.7872C76.8985 53.6691 76.6915 53.1308 76.1531 52.2197C75.6562 51.5157 75.532 50.5633 75.2835 49.6937Z" fill="#DBDBDB"/>
<path d="M104.191 50.1074C103.735 51.5567 103.031 52.6334 102.617 52.5092C102.203 52.385 102.203 51.1012 102.659 49.6518C103.114 48.2024 103.818 47.1258 104.232 47.25C104.688 47.3742 104.646 48.658 104.191 50.1074Z" fill="white"/>
<path d="M102.7 52.6335C102.659 52.6335 102.617 52.6335 102.576 52.6335C102.327 52.5507 102.203 52.178 102.203 51.5982C102.203 51.0599 102.327 50.3559 102.534 49.6519C102.741 48.9479 103.031 48.2854 103.363 47.8298C103.694 47.3329 104.025 47.1259 104.274 47.1673C104.522 47.2501 104.646 47.6228 104.646 48.2025C104.646 48.7409 104.522 49.4449 104.315 50.1489C104.108 50.8528 103.818 51.5154 103.487 51.9709C103.197 52.3851 102.949 52.6335 102.7 52.6335ZM104.149 47.3329C104.025 47.3329 103.818 47.4986 103.528 47.9127C103.238 48.3682 102.949 48.9894 102.741 49.6933C102.534 50.3973 102.41 51.0599 102.41 51.5982C102.41 52.178 102.534 52.3851 102.659 52.4265C102.783 52.4679 103.031 52.3436 103.321 51.8881C103.611 51.4326 103.901 50.8114 104.108 50.1074C104.315 49.4035 104.439 48.7409 104.439 48.2025C104.439 47.6228 104.315 47.4157 104.191 47.3743C104.191 47.3329 104.191 47.3329 104.149 47.3329Z" fill="#D02E1B"/>
<path d="M88.8674 131.605C87.6665 132.143 86.5484 132.184 85.2647 131.853C85.1818 131.853 84.7677 131.687 84.6849 131.646C84.6849 131.397 84.7263 131.149 84.5193 131.149C83.6082 131.066 82.6558 131.025 81.7033 131.025C81.4134 131.025 80.2953 130.901 80.1297 131.108C80.0055 131.315 80.0469 131.563 80.1711 131.77C80.2953 131.977 80.5024 132.101 80.7095 132.226C81.7033 132.764 82.8628 132.888 84.0223 132.971C85.4303 133.095 86.7969 133.22 88.2049 133.344C88.6604 133.385 89.1987 133.427 89.6128 133.22C90.234 132.93 90.5653 132.184 90.6481 131.48C90.8137 130.155 89.2815 131.439 88.8674 131.605Z" fill="#575757"/>
<path d="M115.369 65.223C113.879 63.8978 112.222 62.5313 110.234 62.5313C109.572 62.5313 99.509 60.2951 98.3495 60.1708C90.5228 59.5497 84.1455 53.338 76.4016 52.3027C75.6148 52.5512 75.3664 53.5865 75.6976 54.3319C76.0289 55.0773 76.6915 55.5742 77.3955 56.0297C84.394 60.792 91.1854 65.3886 98.7636 69.1156C97.0243 73.6294 101.248 76.0313 100.958 77.1494C100.627 78.3503 97.7697 86.2598 98.101 87.4607C100.917 88.3303 103.195 88.4546 106.135 88.703C109.075 88.9515 112.264 88.4132 114.748 86.8396C114.458 85.3902 113.175 84.0236 114.169 83.4853C117.026 81.6632 119.842 80.2552 121.747 77.4392C122.119 76.9009 122.451 76.3211 122.534 75.6586C122.741 73.9193 117.44 67.1279 115.369 65.223ZM113.672 80.338C114.044 78.6816 115.908 73.7537 115.908 73.7537C116.777 74.2092 117.73 75.8656 117.73 75.8656C117.73 75.8656 114.5 79.7583 113.672 80.338Z" fill="#606060"/>
<path d="M72.22 40.6662C71.6817 40.956 70.9363 40.8318 70.5222 40.3763C70.2737 40.1278 70.1081 39.7551 70.2737 39.2996C70.6464 38.3057 71.3504 37.1462 71.0605 36.5251C70.7292 35.8625 70.7292 35.9039 70.7292 35.8625C70.7292 35.8211 72.5513 36.8978 72.7998 37.7674C73.3381 39.5895 72.7998 40.3763 72.22 40.6662Z" fill="white"/>
<path d="M74.581 46.8359C74.4982 46.6289 74.374 46.4218 74.2083 46.339C73.9599 46.2562 73.7114 46.4632 73.5872 46.6703C73.5043 46.9188 73.5043 47.1672 73.5458 47.4157C73.6286 48.1197 73.67 48.8237 73.7528 49.5277C73.7942 49.9418 73.877 50.3973 74.2497 50.5629C74.5396 50.6872 74.8709 50.5629 75.078 50.3145C75.4507 49.859 75.2022 49.3206 75.1194 48.8237C74.9951 48.2025 74.8295 47.4985 74.581 46.8359Z" fill="#DBDBDB"/>
<path d="M72.9667 38.6361C72.9253 38.3876 72.8839 38.0977 72.8011 37.8078C72.5526 36.8968 70.7305 35.8201 70.7305 35.9029V35.9444C70.7305 35.9444 70.7305 35.9443 70.7305 35.9858C70.7719 36.0686 70.8547 36.1928 71.0204 36.5655C71.3517 37.1867 70.6891 38.2634 70.3164 39.2158C70.4406 39.2572 70.5649 39.2986 70.6891 39.2572C70.9376 39.133 71.1032 38.7603 71.3931 38.8017C71.8072 38.8431 71.6416 39.6299 72.0143 39.7956C72.2627 39.8784 72.4698 39.6713 72.594 39.4229C72.6768 39.1744 72.7182 38.9259 72.9253 38.7603C72.9253 38.6361 72.9667 38.6361 72.9667 38.6361Z" fill="#D02E1B"/>
<path d="M103.933 50.3177L103.829 50.4971L105.802 51.6347L105.906 51.4554L103.933 50.3177Z" fill="#D02E1B"/>
<path d="M115.456 48.2851C114.421 47.2498 113.054 46.5458 111.688 46.0075C110.611 45.5933 109.493 45.1792 108.375 45.2206C107.215 45.2621 106.015 45.7176 105.435 46.7114C104.979 47.4568 104.896 48.4093 105.062 49.2375C105.186 49.8173 105.393 51.0182 105.849 51.4323C106.222 51.7636 106.801 51.5565 107.091 52.0535C107.298 52.4262 107.298 52.8403 107.174 53.2544C107.05 53.6685 106.843 54.0826 106.512 54.3311C106.429 54.4139 106.304 54.4553 106.18 54.4967C105.6 54.6624 105.269 55.2007 105.311 55.7805C105.435 56.6915 105.766 57.5611 106.304 58.3065C106.429 58.4722 106.553 58.6378 106.719 58.8035C106.677 59.0519 106.594 59.3418 106.594 59.5903C106.47 60.3771 106.801 61.2881 107.588 61.4952C107.34 61.2053 107.05 60.8326 107.05 60.4599C107.05 60.0458 107.381 59.6317 107.795 59.7145C108.085 59.7973 108.251 60.1286 108.292 60.4599C108.416 61.2053 108.168 61.9507 107.712 62.5305C108.209 62.2406 108.748 61.9507 109.079 61.4952C109.452 60.9983 109.576 60.3357 109.949 59.8387C110.031 59.7145 110.114 59.6317 110.238 59.5489C110.28 59.5903 110.321 59.6731 110.363 59.7145C110.653 60.17 110.694 60.4599 110.446 61.1639C110.404 61.2881 110.156 61.7022 110.156 61.7022C110.197 61.6608 111.481 60.7084 110.611 59.259C110.818 59.2176 111.025 59.1762 111.232 59.0933C112.806 58.5964 113.924 57.2713 115.001 56.0289C115.912 54.9108 116.906 53.7099 117.071 52.2605C117.196 50.8111 116.492 49.3203 115.456 48.2851Z" fill="#959595"/>
<path d="M115.371 65.2223C114.502 64.4355 113.549 63.6487 112.514 63.1104C112.928 63.8972 113.591 64.6426 113.798 65.5122C113.963 66.2576 114.005 67.0444 114.005 67.8312C114.046 69.4876 114.088 71.1855 114.129 72.8419C114.17 73.96 114.17 75.161 113.674 76.1548C113.094 77.2729 111.976 78.0183 110.899 78.5981C110.651 78.7223 110.402 78.888 110.278 79.095C109.988 79.5919 110.319 80.2131 110.775 80.5858C111.23 80.9171 111.769 81.1656 112.141 81.6211C112.141 83.7331 112.183 85.8864 112.183 87.9984C113.094 87.7085 113.963 87.2944 114.75 86.7975C114.46 85.3481 113.177 83.9815 114.17 83.4432C117.028 81.6211 119.844 80.2131 121.749 77.3972C122.121 76.8588 122.453 76.2791 122.535 75.6165C122.743 73.9186 117.442 67.1272 115.371 65.2223ZM113.674 80.3373C114.046 78.6809 115.91 73.753 115.91 73.753C116.779 74.2085 117.732 75.865 117.732 75.865C117.732 75.865 114.502 79.7576 113.674 80.3373Z" fill="#414141"/>
<path d="M116.447 70.1504C116.612 70.316 115.826 73.2562 115.784 73.6703C115.784 73.7946 115.784 73.9602 115.743 74.0844C115.826 73.8774 115.867 73.7532 115.867 73.7532C116.737 74.2087 117.689 75.8651 117.689 75.8651C117.689 75.8651 114.5 79.7578 113.672 80.3375V80.2961C113.589 80.4617 113.465 80.6274 113.382 80.8344C113.217 81.1657 113.134 81.7041 113.506 81.7455C113.631 81.7455 113.755 81.6627 113.838 81.5798C114.625 80.9587 115.411 80.3375 116.198 79.7163C116.612 79.3851 117.026 79.0538 117.399 78.6397C117.896 78.1013 118.269 77.4801 118.641 76.8176C118.931 76.3206 119.263 75.7823 119.553 75.2854C119.677 75.0369 119.842 74.7884 119.801 74.4985C119.801 74.2915 119.677 74.1259 119.553 73.9188C118.641 72.5522 117.606 71.2685 116.447 70.1504Z" fill="#606060"/>
<path d="M102.658 66.7127C102.12 66.4642 101.499 66.5056 100.919 66.5056C98.0617 66.5056 95.2458 65.7602 92.8025 64.3108C91.2703 63.3998 89.8623 62.2403 88.2059 61.5777C86.8807 61.0394 85.3899 60.7909 84.1062 60.1283C83.0295 59.5486 82.1185 58.7203 81.166 57.9335C80.5448 57.4366 77.6461 55.1176 76.1553 55.0762C76.4866 55.4489 76.9421 55.7802 77.3562 56.07C84.3547 60.8323 91.1461 65.4289 98.7243 69.1559C98.6001 69.4458 98.5172 69.6943 98.4758 69.9841C98.6001 69.9841 98.6829 69.9841 98.8071 69.9427C99.6353 69.7771 100.339 69.3216 101.168 69.1559C102.079 68.9903 103.28 68.9489 103.528 68.0792C103.652 67.5409 103.197 66.9611 102.658 66.7127Z" fill="#414141"/>
<path d="M114.584 47.54C112.927 47.5815 111.519 48.4925 111.644 50.7701C111.685 51.3499 111.851 51.9296 111.933 52.5508C112.182 54.9526 110.318 56.9403 109.2 59.0937C108.828 59.7977 108.579 60.7087 109.076 61.2885C109.076 61.2885 109.076 61.2885 109.118 61.3299C109.407 60.833 109.532 60.2946 109.904 59.8391C109.987 59.7149 110.07 59.6321 110.194 59.5492C110.236 59.5907 110.277 59.6735 110.318 59.7149C110.608 60.1704 110.65 60.4603 110.401 61.1643C110.36 61.2885 110.111 61.7026 110.111 61.7026C110.153 61.6612 111.437 60.7088 110.567 59.2594C110.774 59.218 110.981 59.1765 111.188 59.0937C112.762 58.5968 113.88 57.2716 114.957 56.0293C115.868 54.9112 116.861 53.7103 117.027 52.2609C117.234 50.7701 116.53 49.3207 115.453 48.244C115.164 47.9956 114.874 47.7885 114.584 47.54Z" fill="#7A7A7A"/>
<path d="M120.192 51.1317C120.668 48.918 119.258 46.7382 117.045 46.2629C114.831 45.7877 112.651 47.197 112.176 49.4107C111.701 51.6244 113.11 53.8042 115.324 54.2795C117.537 54.7547 119.717 53.3454 120.192 51.1317Z" fill="#959595"/>
<path d="M142.79 58.7627C142.79 58.7627 140.264 59.2182 133.638 67.5004C130.78 73.5879 130.656 76.321 130.656 76.321C130.656 76.321 130.78 77.6461 132.644 76.7765C134.507 75.9069 140.802 67.1691 140.802 67.1691L142.79 58.7627Z" fill="#999999"/>
<path d="M139.931 60.2534C138.523 61.9098 137.488 75.1613 138.648 75.7411C141.174 77.0248 144.155 76.942 147.013 76.9006C147.799 76.9006 148.586 76.8592 149.29 76.5693C150.16 76.238 150.822 75.4926 151.278 74.7058C152.148 73.215 152.313 71.4343 151.982 69.7365C151.651 68.0386 150.864 66.5064 149.829 65.1398C148.835 63.8147 147.634 62.6552 146.971 61.1644C146.309 59.6736 146.35 57.6859 144.362 57.8515C142.582 57.9343 141.008 58.9282 139.931 60.2534Z" fill="#A9A9A9"/>
<path d="M132.685 125.6L131.318 128.374L123.533 124.192C123.533 124.192 123.533 123.156 125.107 123.612C126.68 124.067 130.532 126.221 130.532 126.221L131.443 124.523L132.685 125.6Z" fill="#575757"/>
<path d="M154.052 126.387L154.135 129.534L151.112 132.267C150.201 133.095 148.917 133.51 147.674 133.261C147.219 133.178 146.929 133.013 147.053 132.723C147.467 131.895 151.898 129.368 151.898 129.368L152.105 125.352L154.052 126.387Z" fill="#575757"/>
<path d="M139.353 79.3438C136.91 87.9158 134.964 96.6122 133.514 105.391C132.437 111.976 131.982 118.726 129.58 124.979C130.657 125.393 131.485 125.6 132.686 125.807C134.052 123.529 135.212 121.707 136.33 119.305C137.034 117.815 137.655 116.241 137.945 114.626C138.401 112.058 137.987 109.325 138.898 106.841C141.838 98.6827 145.482 91.1873 147.884 82.8637C147.967 82.5324 148.049 82.2011 147.925 81.9112C147.76 81.4971 147.221 81.3315 146.807 81.2487C144.24 80.6275 141.962 79.5922 139.353 79.3438Z" fill="#888888"/>
<path d="M152.644 76.4032C153.265 93.2989 153.886 110.195 154.507 127.049C153.307 127.049 151.733 127.049 150.573 127.049C149.497 123.363 148.834 119.678 148.586 115.868C147.923 104.231 145.894 92.6777 142.581 81.4967C143.989 80.0059 145.19 78.8878 146.888 77.6869C148.627 76.5274 150.615 76.0305 152.644 76.4032Z" fill="#9A9A9A"/>
<path d="M129.456 70.3579C128.959 71.7245 128.214 73.0082 128.462 74.4576C128.711 75.907 129.995 77.2735 131.444 77.0251C132.645 76.818 133.183 73.9607 133.183 73.9607L136.041 61.5788L133.639 61.2061C133.68 61.2475 130.285 68.2045 129.456 70.3579Z" fill="#A9A9A9"/>
<path d="M138.691 79.1368C138.691 79.1368 138.525 80.6276 138.815 81.2901C139.353 82.6567 142.418 83.4021 142.418 83.4021C142.418 83.4021 153.185 83.0708 153.35 82.077C153.681 80.1306 153.143 78.2671 153.143 76.2794C153.143 76.0724 153.143 75.8239 153.019 75.6582C152.895 75.534 152.729 75.4512 152.563 75.4098C149.789 74.4573 146.807 74.2089 143.908 74.5816C142.79 74.7472 140.72 74.9128 139.767 75.6168C138.649 76.4865 138.691 79.1368 138.691 79.1368Z" fill="#A9A9A9"/>
<path d="M130.532 72.9658C130.449 72.9244 130.325 72.883 130.2 72.9244C130.118 72.9658 130.118 73.0486 130.076 73.09C129.621 73.8354 128.295 73.5455 127.881 74.2909C127.716 74.5808 127.798 74.9949 127.964 75.2848C128.13 75.5747 128.42 75.7817 128.71 75.9888C129.455 76.5271 131.236 76.5271 131.236 76.5271L133.513 76.8998V75.9474L132.354 75.2434C132.354 75.2434 132.561 74.6222 132.478 74.5394C131.815 73.8354 130.987 73.2143 130.532 72.9658Z" fill="#DBDBDB"/>
<path d="M138.772 77.7698C138.731 78.1011 138.689 78.3909 138.689 78.6394C139.6 79.4676 141.423 80.8342 144.073 80.9584C146.309 81.0827 149.829 81.9109 152.438 82.532C152.935 82.4078 153.266 82.2836 153.266 82.1179C153.597 80.1716 153.059 78.3081 153.059 76.3204C153.059 76.1962 153.059 76.0719 153.018 75.9477C151.154 75.8235 149.374 75.6992 149.374 75.6992L138.772 77.7698Z" fill="#999999"/>
<path d="M130.616 72.9243C130.534 72.8414 130.409 72.7586 130.285 72.7172C130.12 72.6758 129.954 72.6758 129.83 72.6758C129.623 72.6758 129.374 72.6758 129.167 72.7172C129.043 72.7172 128.919 72.7586 128.877 72.8414C128.836 72.9242 128.919 73.0485 129.001 73.1313C129.291 73.3384 129.623 73.4212 129.913 73.6282C130.202 73.8353 130.368 74.1666 130.658 74.3322C130.741 74.3736 130.824 74.4151 130.948 74.4151C131.031 74.4151 131.155 74.3736 131.238 74.3322C131.61 74.1252 131.61 74.0009 131.32 73.6696C131.155 73.4212 130.906 73.1727 130.616 72.9243Z" fill="#DBDBDB"/>
<path d="M142.334 58.7208L148.38 57.6855L151.734 58.3067C154.343 58.8036 156.29 61.0812 156.331 63.7316C156.414 68.1211 156.248 74.4984 154.799 77.6871C154.136 79.1365 151.859 78.888 150.285 78.888C145.647 78.888 136.495 78.7638 132.188 76.9831C132.271 76.3205 132.188 75.7408 132.478 75.1196C136.578 74.457 145.233 73.1319 149.291 73.8358C146.02 70.1503 143.659 65.5122 142.748 60.6671C142.665 60.0046 142.334 58.7208 142.334 58.7208Z" fill="#A9A9A9"/>
<path d="M143.908 58.8444C143.825 59.0101 143.784 59.2171 143.784 59.3828C143.701 60.3766 143.825 61.4119 144.115 62.4058C144.157 62.53 144.198 62.6543 144.281 62.7785C144.529 63.1098 145.068 63.0684 145.482 62.9441C146.103 62.7371 146.641 62.3644 147.221 62.0331C148.256 61.3705 149.333 60.6251 149.871 59.507C149.954 59.3414 150.037 59.1343 149.996 58.9687C149.954 58.5546 149.457 58.3061 149.043 58.1819C147.966 57.892 144.571 57.6021 143.908 58.8444Z" fill="white"/>
<path d="M148.504 59.135C147.096 60.2117 145.15 61.2055 145.15 61.2055L144.032 55.9878C144.032 55.9878 142.003 56.2776 141.464 56.1948C139.352 55.9049 137.323 54.497 136.868 52.4264C136.619 51.1427 136.992 49.8175 137.364 48.5752C138.151 46.0077 138.938 43.3574 140.553 41.204C141.091 40.5 141.92 40.2102 142.831 40.1687C144.032 40.1273 145.274 40.2516 146.434 40.6243C147.593 41.0384 148.628 41.7424 149.249 42.7776C149.953 43.9786 150.036 45.5108 149.829 46.8773C149.622 48.2853 149.167 49.6519 148.96 51.0184C148.877 51.474 148.214 52.5092 148.131 53.5031C147.966 55.6979 148.338 58.224 148.504 59.135Z" fill="#DBDBDB"/>
<path d="M146.766 50.8944C147.014 51.9711 147.925 53.379 148.215 53.5447C148.215 53.1306 148.919 51.5155 148.96 51.1014C149.167 49.6935 149.623 48.3683 149.83 46.9603C150.037 45.5524 149.996 44.0616 149.25 42.8606C148.629 41.8254 147.552 41.08 146.434 40.7073C145.275 40.2932 144.074 40.2103 142.832 40.2517C142.459 40.2517 142.086 40.3346 141.755 40.4174C142.832 41.7425 146.393 42.7364 146.807 42.0738C144.985 45.014 146.02 47.4573 146.766 50.8944Z" fill="#606060"/>
<path d="M147.593 46.8773C148.339 46.7531 149.208 46.9187 149.664 47.5399C150.202 48.2439 149.995 49.2377 149.54 49.9831C149.208 50.5629 148.711 51.1012 148.09 51.4325C147.262 51.8466 146.185 51.7638 145.44 51.2255C142.914 49.4862 145.481 47.1672 147.593 46.8773Z" fill="#DBDBDB"/>
<path d="M134.923 54.9524C135.13 56.6916 136.082 58.0996 137.822 58.4309C139.147 58.6794 140.762 58.845 142.004 58.3895C146.476 56.733 144.572 52.5919 144.986 51.4738C145.524 50.0659 146.021 48.6579 146.269 47.2085C145.441 47.0014 144.737 47.7882 144.199 48.4922C143.702 49.1962 142.46 50.8941 141.631 50.687C141.01 49.4033 139.892 48.1609 138.484 47.9539C137.946 47.8711 137.159 47.7054 136.91 48.1609C135.461 51.0597 134.716 53.4616 134.923 54.9524Z" fill="#606060"/>
<path d="M135.833 61.6195C135.874 61.6609 135.915 61.7023 135.957 61.7437C136.537 60.7084 137.075 59.6317 137.53 58.5136C137.655 58.2238 137.779 57.9339 137.737 57.6026C137.696 57.2299 137.406 56.8986 137.158 56.6087C136.868 56.2774 136.537 55.8219 136.247 55.4906C136.537 54.9937 136.785 54.4968 137.075 53.9998C137.199 53.7928 137.282 53.5857 137.323 53.3787C137.365 53.1716 137.282 52.8817 137.116 52.7575C136.909 52.6333 136.702 52.6333 136.578 52.7989C135.915 53.6685 133.679 60.1287 133.762 60.9983C133.803 61.4952 133.886 62.075 134.3 62.3649C134.839 62.6962 135.501 62.1164 135.833 61.6195Z" fill="#DBDBDB"/>
<path d="M142.657 43.3206C143.826 43.7027 144.422 45.1945 143.936 46.6829C143.45 48.1713 142.087 49.0231 140.918 48.641C139.749 48.2589 139.153 46.7671 139.639 45.2787C140.125 43.7903 141.488 42.9385 142.657 43.3206Z" fill="white" stroke="#606060" stroke-width="0.2"/>
<path d="M151.402 64.6016L149.331 71.1031C149.331 71.1031 145.977 74.0847 144.113 74.2089C144.238 74.3332 150.408 74.0433 150.408 74.0433L151.402 64.6016Z" fill="#999999"/>
<mask id="path-51-inside-1" fill="white">
<path fill-rule="evenodd" clip-rule="evenodd" d="M137.758 47.6928C138.295 47.4438 138.889 46.6547 139.229 45.6351C139.684 44.2271 139.519 42.9433 138.856 42.7363C138.235 42.5292 137.324 43.4817 136.868 44.8483C136.413 46.2558 136.578 47.5392 137.24 47.7469L137.24 47.7474C137.398 47.8 137.575 47.7777 137.758 47.6928Z"/>
</mask>
<path fill-rule="evenodd" clip-rule="evenodd" d="M137.758 47.6928C138.295 47.4438 138.889 46.6547 139.229 45.6351C139.684 44.2271 139.519 42.9433 138.856 42.7363C138.235 42.5292 137.324 43.4817 136.868 44.8483C136.413 46.2558 136.578 47.5392 137.24 47.7469L137.24 47.7474C137.398 47.8 137.575 47.7777 137.758 47.6928Z" fill="white"/>
<path d="M139.229 45.6351L139.419 45.6983L139.419 45.6966L139.229 45.6351ZM137.758 47.6928L137.674 47.5113L137.674 47.5113L137.758 47.6928ZM138.856 42.7363L138.793 42.9261L138.796 42.9272L138.856 42.7363ZM136.868 44.8483L136.679 44.785L136.678 44.7867L136.868 44.8483ZM137.24 47.7469L137.424 47.827L137.513 47.6227L137.3 47.556L137.24 47.7469ZM137.24 47.7474L137.057 47.6673L136.969 47.8679L137.177 47.9371L137.24 47.7474ZM139.039 45.5718C138.875 46.064 138.651 46.4976 138.406 46.8355C138.158 47.1766 137.9 47.4066 137.674 47.5113L137.842 47.8742C138.154 47.73 138.461 47.441 138.729 47.0704C139 46.6966 139.243 46.2258 139.419 45.6983L139.039 45.5718ZM138.796 42.9272C139.01 42.994 139.199 43.258 139.263 43.7609C139.326 44.2478 139.259 44.8905 139.038 45.5735L139.419 45.6966C139.654 44.9716 139.732 44.2685 139.66 43.7098C139.59 43.167 139.364 42.6856 138.916 42.5454L138.796 42.9272ZM137.058 44.9115C137.278 44.2505 137.607 43.6977 137.945 43.3396C138.115 43.1604 138.281 43.0366 138.43 42.9689C138.579 42.9016 138.699 42.8946 138.793 42.926L138.919 42.5466C138.703 42.4744 138.476 42.5088 138.265 42.6046C138.054 42.7 137.848 42.8609 137.655 43.0647C137.269 43.4728 136.914 44.0795 136.679 44.785L137.058 44.9115ZM137.3 47.556C137.087 47.489 136.898 47.2248 136.834 46.722C136.771 46.2351 136.838 45.5926 137.059 44.9098L136.678 44.7867C136.444 45.5115 136.365 46.2145 136.437 46.773C136.507 47.3157 136.732 47.7971 137.181 47.9377L137.3 47.556ZM137.057 47.6667L137.057 47.6673L137.423 47.8276L137.424 47.827L137.057 47.6667ZM137.177 47.9371C137.397 48.0105 137.628 47.9737 137.842 47.8742L137.674 47.5113C137.522 47.5818 137.399 47.5896 137.303 47.5577L137.177 47.9371Z" fill="#606060" mask="url(#path-51-inside-1)"/>
<path d="M153.636 20.1659C153.636 16.0662 150.199 12.7533 146.057 12.9604C142.372 13.1674 139.39 16.1904 139.266 19.876C139.183 21.8638 139.929 23.7272 141.212 25.0524C142.248 26.1705 143.117 27.4128 143.697 28.8208L144.07 29.7318V31.0984H145.933H146.886H148.749V29.7318L148.998 29.1107C149.66 27.5785 150.613 26.1705 151.731 24.9282C152.932 23.6858 153.636 21.988 153.636 20.1659Z" fill="#EFEFEF"/>
<path d="M148.998 29.7734H143.904V33.3348H148.998V29.7734Z" fill="#D02E1B"/>
<path d="M147.303 31.3889H145.854L143.245 19.2141L143.825 19.0899L146.351 30.8092H146.848L149.043 18.8828L149.622 18.9656L147.303 31.3889Z" fill="#D02E1B"/>
<path d="M146.429 34.536C147.046 34.536 147.547 34.0354 147.547 33.4179C147.547 32.8004 147.046 32.2998 146.429 32.2998C145.811 32.2998 145.311 32.8004 145.311 33.4179C145.311 34.0354 145.811 34.536 146.429 34.536Z" fill="#D02E1B"/>
<path d="M146.674 4.3877H146.26V10.2681H146.674V4.3877Z" fill="#E7E7E7"/>
<path d="M160.924 18.6348H155.044V19.0489H160.924V18.6348Z" fill="#E7E7E7"/>
<path d="M137.898 18.6338H132.018V19.0479H137.898V18.6338Z" fill="#E7E7E7"/>
<path d="M135.742 9.1756L135.47 9.4873L139.896 13.3589L140.169 13.0472L135.742 9.1756Z" fill="#E7E7E7"/>
<path d="M155.842 7.83381L151.969 12.2588L152.28 12.5315L156.153 8.10654L155.842 7.83381Z" fill="#E7E7E7"/>
<path d="M107.668 20.9126L94.8301 20.2914V0L107.668 1.03528V20.9126Z" fill="#D02E1B"/>
<path d="M28.0755 54.4558L19.0479 54.0003V39.7549L28.0755 40.5003V54.4558Z" fill="#D02E1B"/>
<path d="M30.4364 62.3236L23.1895 61.9923V50.5215L30.4364 51.1012V62.3236Z" fill="#606060"/>
<path d="M90.5259 20.0008L79.2207 20.4149V6.21094L90.5259 6.62505V20.0008Z" fill="#C2C2C2"/>
<path d="M56.1953 105.681L44.8486 106.095V91.8496L56.1953 92.2637V105.681Z" fill="#C2C2C2"/>
<path d="M27.8268 99.0136C27.5369 97.647 27.2884 96.2804 27.4127 94.8725C27.6197 93.0918 28.5722 91.4767 29.6075 90.0274C30.2286 89.1577 31.2639 88.2053 32.2578 88.6608C32.6305 88.8264 32.9203 89.1991 33.1274 89.5718C34.6182 92.2221 34.2041 95.4522 34.0384 98.4752C33.9142 100.546 33.9142 102.658 33.2102 104.645C32.9618 105.308 32.6719 105.929 32.1335 106.426C31.6366 106.882 30.8912 107.172 30.2286 107.006C28.6964 106.633 28.3237 104.563 28.2823 103.237C28.2409 101.747 28.1167 100.463 27.8268 99.0136Z" fill="#A6A6A6"/>
<path d="M32.296 114.004C33.1242 114.253 33.9938 114.584 34.3665 115.288C33.8696 116.033 33.2484 116.737 32.5859 117.4C31.592 118.352 30.3082 119.222 28.9003 119.056C27.4923 118.932 26.4156 117.814 25.3803 116.944C24.4693 116.158 23.1027 115.661 22.2745 114.874C21.115 113.756 22.6472 113.549 23.7239 113.424C26.5813 113.01 29.5628 113.217 32.296 114.004Z" fill="#414141"/>
<path d="M28.2391 116.861C26.9553 115.246 20.2467 112.679 18.7559 111.23C16.147 108.704 14.6562 105.101 14.6562 101.457C14.6562 97.067 16.7682 92.9259 16.8096 88.5363C16.851 86.5072 16.4369 84.5195 16.5197 82.5317C16.6026 80.544 17.348 78.3906 19.0458 77.3139C21.4891 75.7817 24.9676 77.3139 26.417 79.7986C27.9078 82.2833 27.9078 85.3477 27.6179 88.2465C27.328 91.1452 26.8725 94.0854 27.5765 96.9014C28.6946 101.457 32.6701 104.852 33.9124 109.366C34.4093 111.105 29.8541 114.75 29.8127 116.53C29.7713 118.559 29.647 121.251 28.7774 123.073C27.5351 125.641 30.7651 126.717 28.3219 123.819C26.6655 121.955 30.1026 119.181 28.2391 116.861Z" fill="#AFAFAF"/>
<path d="M28.695 119.222L28.4879 119.181C29.3162 114.419 28.3637 109.284 25.8376 105.143C25.5478 104.687 25.2579 104.232 24.968 103.776C24.1398 102.534 23.2701 101.209 22.856 99.7592C22.2349 97.5644 22.649 95.2454 23.1045 93.0092C23.2287 92.4294 23.3116 91.8082 23.4358 91.2285C24.1398 86.7147 23.3944 82.6564 21.3652 79.799L21.5309 79.6748C23.6014 82.5322 24.3468 86.6733 23.6014 91.2285C23.5186 91.8082 23.3944 92.4294 23.2701 93.0092C22.856 95.204 22.4419 97.4816 23.0217 99.6349C23.4358 101.084 24.264 102.368 25.0922 103.61C25.3821 104.066 25.7134 104.521 25.9619 104.977C28.6122 109.242 29.5646 114.377 28.695 119.222Z" fill="#606060"/>
<path d="M23.5577 90.1932C22.2739 88.661 21.073 87.5015 19.665 86.3834L19.7893 86.2178C21.1972 87.3359 22.3982 88.4954 23.6819 90.0276L23.5577 90.1932Z" fill="#606060"/>
<path d="M23.9733 101.788L23.8076 101.664C24.1389 101.125 24.5116 100.463 24.9257 99.8416C25.2984 99.179 25.7125 98.5165 26.0438 98.0195L26.2095 98.1438C25.8782 98.6821 25.5055 99.3447 25.0914 99.9658C24.6772 100.628 24.3046 101.291 23.9733 101.788Z" fill="#606060"/>
<path d="M28.24 111.105C27.6602 110.153 26.4593 109.904 25.3412 109.615L25.0513 109.532C23.3535 109.118 21.7384 108.414 20.2891 107.503L20.4133 107.337C21.8627 108.248 23.4777 108.911 25.1342 109.325L25.424 109.407C26.5421 109.697 27.8259 109.987 28.447 110.981L28.24 111.105Z" fill="#606060"/>
<path d="M22.6906 95.5348C21.5311 94.4581 20.4544 93.2572 19.502 92.0149L19.6676 91.8906C20.6615 93.133 21.7381 94.2925 22.8562 95.3691L22.6906 95.5348Z" fill="#606060"/>
<path d="M25.1261 82.3169L23.4971 85.6689L23.6833 85.7594L25.3124 82.4074L25.1261 82.3169Z" fill="#606060"/>
<path d="M26.9541 106.674L26.7471 106.592C27.2026 105.432 27.7409 104.314 28.3207 103.237L28.4863 103.32C27.948 104.397 27.4096 105.515 26.9541 106.674Z" fill="#606060"/>
<path d="M34.4499 115.33C30.3088 116.531 25.7536 116.116 21.9023 114.253L24.1385 128.126H31.0128L34.4499 115.33Z" fill="#606060"/>
<path d="M32.3806 122.907L32.6705 121.831C32.5048 121.872 32.3392 121.955 32.1321 121.996C31.0968 122.245 29.9787 122.286 28.9021 122.245C27.1628 122.203 25.4235 121.913 23.7671 121.334C23.4772 121.209 23.1873 121.085 22.8975 120.961L23.0631 122.12C23.1873 122.162 23.2702 122.203 23.3944 122.245C26.2932 123.363 29.5232 123.984 32.3806 122.907Z" fill="white"/>
<path d="M138.645 32.3421L137.817 32.2179C137.734 31.928 137.61 31.6796 137.486 31.4311L137.982 30.7685C138.19 30.4786 138.148 30.0645 137.9 29.8161L137.154 29.0707C137.03 28.9464 136.823 28.8636 136.657 28.8636C136.492 28.8636 136.367 28.905 136.243 28.9878L135.539 29.4848C135.291 29.3605 135.001 29.2363 134.711 29.1535L134.587 28.3253C134.545 27.994 134.214 27.7041 133.883 27.7041H132.847C132.475 27.7041 132.185 27.9526 132.144 28.3253L132.019 29.1535C131.729 29.2363 131.481 29.3605 131.232 29.4848L130.57 28.9878C130.446 28.905 130.28 28.8636 130.156 28.8636C129.949 28.8636 129.783 28.9464 129.659 29.0707L128.913 29.8161C128.665 30.0645 128.624 30.4786 128.831 30.7685L129.328 31.4725C129.203 31.721 129.079 32.0109 128.996 32.2593L128.168 32.3836C127.837 32.425 127.547 32.7562 127.547 33.0875V34.1228C127.547 34.4955 127.795 34.7854 128.168 34.8268L128.996 34.951C129.079 35.2409 129.203 35.4894 129.328 35.7378L128.831 36.4004C128.624 36.6903 128.665 37.1044 128.913 37.3529L129.659 38.0983C129.783 38.2225 129.99 38.3053 130.156 38.3053C130.321 38.3053 130.446 38.2639 130.57 38.1811L131.274 37.6842C131.522 37.8084 131.771 37.9326 132.061 38.0155L132.185 38.8437C132.226 39.175 132.558 39.4648 132.889 39.4648H133.924C134.297 39.4648 134.587 39.2164 134.628 38.8437L134.752 38.0155C135.042 37.9326 135.291 37.8084 135.539 37.6842L136.202 38.1811C136.326 38.2639 136.492 38.3053 136.616 38.3053C136.823 38.3053 136.989 38.2225 137.113 38.0983L137.858 37.3529C138.107 37.1044 138.148 36.6903 137.941 36.4004L137.444 35.6964C137.568 35.448 137.693 35.1581 137.775 34.9096L138.604 34.7854C138.935 34.744 139.225 34.4127 139.225 34.0814V33.0461C139.225 32.6734 138.976 32.3836 138.645 32.3421ZM133.344 36.0277C131.978 36.0277 130.901 34.9096 130.901 33.5845C130.901 32.2179 132.019 31.1412 133.344 31.1412C134.711 31.1412 135.788 32.2593 135.788 33.5845C135.788 34.9096 134.711 36.0277 133.344 36.0277Z" fill="#DBDBDB"/>
<path opacity="0.7" d="M130.154 17.8485L129.491 17.7243C129.409 17.5172 129.326 17.2687 129.202 17.0617L129.616 16.5233C129.781 16.2749 129.74 15.9436 129.533 15.7365L128.953 15.1568C128.829 15.0325 128.705 14.9911 128.539 14.9911C128.415 14.9911 128.29 15.0325 128.208 15.1154L127.628 15.5295C127.421 15.4052 127.172 15.3224 126.965 15.2396L126.841 14.577C126.8 14.2871 126.551 14.0801 126.261 14.0801H125.433C125.143 14.0801 124.895 14.2871 124.853 14.577L124.729 15.281C124.522 15.3638 124.274 15.4466 124.067 15.5709L123.528 15.1568C123.445 15.0739 123.321 15.0325 123.197 15.0325C123.031 15.0325 122.907 15.1154 122.783 15.1982L122.162 15.7779C121.955 15.985 121.913 16.3163 122.079 16.5647L122.493 17.1445C122.369 17.3515 122.286 17.5586 122.244 17.8071L121.582 17.9313C121.292 17.9727 121.085 18.2212 121.085 18.5111V19.3393C121.085 19.6292 121.292 19.8776 121.582 19.919L122.286 20.0433C122.369 20.2503 122.452 20.4988 122.576 20.7058L122.162 21.2442C121.996 21.4927 122.037 21.8239 122.244 22.031L122.824 22.6108C122.948 22.735 123.073 22.7764 123.238 22.7764C123.363 22.7764 123.487 22.735 123.57 22.6522L124.149 22.2381C124.356 22.3623 124.563 22.4451 124.771 22.4865L124.895 23.1491C124.936 23.439 125.185 23.646 125.475 23.646H126.344C126.634 23.646 126.883 23.439 126.924 23.1491L127.048 22.4865C127.255 22.4037 127.504 22.3209 127.711 22.1966L128.249 22.6108C128.332 22.6936 128.456 22.735 128.58 22.735C128.746 22.735 128.87 22.6522 128.994 22.5693L129.574 21.9896C129.781 21.7825 129.823 21.4512 129.657 21.2028L129.243 20.623C129.367 20.416 129.45 20.2089 129.533 19.9604L130.195 19.8362C130.485 19.7948 130.692 19.5463 130.692 19.2565V18.4282C130.651 18.1798 130.444 17.9313 130.154 17.8485ZM125.847 20.9129C124.729 20.9129 123.818 20.0019 123.818 18.8838C123.818 17.7657 124.729 16.8546 125.847 16.8546C126.965 16.8546 127.876 17.7657 127.876 18.8838C127.835 20.0019 126.965 20.9129 125.847 20.9129Z" fill="#DBDBDB"/>
<path d="M125.062 27.3311H106.924V40.0028H116.573L115.537 43.2329L119.761 40.0028H125.062V27.3311Z" fill="#EFEFEF"/>
<path d="M113.013 33.8739C113.013 34.2466 112.682 34.5779 112.309 34.5779C111.937 34.5779 111.605 34.2466 111.605 33.8739C111.605 33.5012 111.937 33.1699 112.309 33.1699C112.682 33.1699 113.013 33.5012 113.013 33.8739Z" fill="#D02E1B"/>
<path d="M116.533 33.8739C116.533 34.2466 116.202 34.5779 115.829 34.5779C115.456 34.5779 115.125 34.2466 115.125 33.8739C115.125 33.5012 115.456 33.1699 115.829 33.1699C116.202 33.1699 116.533 33.5012 116.533 33.8739Z" fill="#D02E1B"/>
<path d="M120.052 33.8739C120.052 34.2466 119.72 34.5779 119.348 34.5779C118.975 34.5779 118.644 34.2466 118.644 33.8739C118.644 33.5012 118.975 33.1699 119.348 33.1699C119.762 33.1699 120.052 33.5012 120.052 33.8739Z" fill="#D02E1B"/>
</svg>
