<svg width="172" height="150" viewBox="0 0 172 150" fill="none" xmlns="http://www.w3.org/2000/svg">
<path d="M84.7675 133.951C131.583 133.951 169.535 131.55 169.535 128.588C169.535 125.627 131.583 123.226 84.7675 123.226C37.9517 123.226 0 125.627 0 128.588C0 131.55 37.9517 133.951 84.7675 133.951Z" fill="#D2D2D2"/>
<path d="M157.509 12.6787C157.509 13.1384 157.317 13.5597 157.011 13.8662C156.705 14.1726 156.283 14.3641 155.824 14.3641H120.124C119.205 14.3641 118.438 13.598 118.438 12.6787C118.438 12.2191 118.63 11.7977 118.936 11.4913C119.243 11.1849 119.664 10.9933 120.124 10.9933H121.809C122.46 9.46116 124.031 8.35034 125.793 8.35034C126.98 8.35034 128.091 8.84829 128.896 9.65268C129.93 7.85238 131.883 6.66495 134.105 6.66495C134.718 6.66495 135.292 6.74155 135.867 6.93308C137.016 4.74973 139.314 3.25586 141.957 3.25586C145.137 3.25586 147.818 5.4009 148.622 8.31203C149.197 8.0056 149.886 7.85238 150.576 7.85238C152.568 7.85238 154.215 9.19303 154.751 10.9933H155.824C156.743 11.0316 157.509 11.7594 157.509 12.6787Z" fill="#D2D2D2"/>
<path d="M47.0753 11.7979C47.0753 12.2575 46.8838 12.6789 46.5774 12.9853C46.2709 13.2917 45.8496 13.4833 45.3899 13.4833H9.69027C8.77097 13.4833 8.00488 12.7172 8.00488 11.7979C8.00488 11.3382 8.19641 10.9169 8.50284 10.6104C8.80928 10.304 9.23062 10.1125 9.69027 10.1125H11.3757C12.0268 8.58031 13.5973 7.46948 15.3593 7.46948C16.5468 7.46948 17.6576 7.96744 18.462 8.77183C19.4962 6.97152 21.4497 5.78409 23.6714 5.78409C24.2842 5.78409 24.8588 5.8607 25.4334 6.05222C26.5825 3.86887 28.8807 2.375 31.5237 2.375C34.703 2.375 37.3843 4.52005 38.1887 7.43118C38.7633 7.12474 39.4527 6.97152 40.1422 6.97152C42.1341 6.97152 43.7811 8.31218 44.3174 10.1125H45.3899C46.3475 10.1125 47.0753 10.8786 47.0753 11.7979Z" fill="#D2D2D2"/>
<path d="M89.7842 17.9649C89.7842 18.348 89.631 18.731 89.3629 18.9991C89.0947 19.2673 88.75 19.4205 88.3287 19.4205H57.1489C56.3445 19.4205 55.6934 18.7693 55.6934 17.9649C55.6934 17.5819 55.8466 17.1988 56.1147 16.9307C56.3828 16.6626 56.7276 16.5094 57.1489 16.5094H58.6045C59.1791 15.1687 60.5197 14.2111 62.0902 14.2111C63.1627 14.2111 64.082 14.6324 64.7715 15.3219C65.6908 13.7514 67.3762 12.7172 69.3297 12.7172C69.866 12.7172 70.3639 12.7938 70.8619 12.9471C71.8578 11.0318 73.8879 9.72949 76.1862 9.72949C78.9824 9.72949 81.2807 11.6064 82.0084 14.1728C82.5064 13.9047 83.081 13.7514 83.6938 13.7514C85.4175 13.7514 86.8731 14.9006 87.3327 16.5094H88.2903C89.133 16.5094 89.7842 17.1605 89.7842 17.9649Z" fill="#D2D2D2"/>
<path d="M145.75 55.81L146.631 55.9632L147.091 56.0398L148.393 56.2697C148.393 56.2697 165.132 38.4581 159.042 30.0695C157.165 27.4648 152.721 28.2692 151.496 37.9602C150.347 46.9617 145.75 55.81 145.75 55.81Z" fill="#BCBCBC"/>
<path d="M146.629 55.9639L147.089 56.0405C150.306 51.5589 152.604 46.4261 153.945 42.7872C155.592 38.4588 156.32 35.2412 156.358 35.2029C156.397 35.088 156.32 34.9731 156.205 34.9348C156.09 34.8965 155.975 34.9731 155.937 35.088C155.937 35.1263 155.171 38.3439 153.562 42.5956C152.183 46.3495 149.885 51.4822 146.629 55.9639Z" fill="#A2A2A2"/>
<path d="M137.898 64.6586L138.933 65.4247L139.507 65.8078L141.078 66.9569C141.078 66.9569 174.019 54.0866 171.338 39.3395C170.495 34.7812 164.175 33.0575 156.553 44.9319C149.428 55.9252 137.898 64.6586 137.898 64.6586Z" fill="#D2D2D2"/>
<path d="M138.934 65.4251L139.508 65.8081C146.518 61.9394 152.685 56.6917 156.745 52.7847C161.571 48.1498 164.559 44.396 164.598 44.396C164.712 44.2811 164.674 44.0513 164.559 43.9747C164.444 43.8597 164.214 43.898 164.138 44.013C164.1 44.0513 161.112 47.7668 156.324 52.3633C152.187 56.2704 146.02 61.5564 138.934 65.4251Z" fill="#C7C7C7"/>
<path d="M26.0084 88.7524L25.1274 88.9056L24.6678 88.9822L23.3654 89.212C23.3654 89.212 6.62643 71.4005 12.7168 63.0119C14.5937 60.4072 19.037 61.2116 20.2628 70.9026C21.4119 79.9041 26.0084 88.7524 26.0084 88.7524Z" fill="#BCBCBC"/>
<path d="M25.126 88.9062L24.6663 88.9828C21.4488 84.5012 19.1505 79.3685 17.8099 75.7295C16.1628 71.4012 15.435 68.1836 15.3967 68.1453C15.3584 68.0304 15.435 67.9155 15.5499 67.8772C15.6648 67.8388 15.7797 67.9155 15.818 68.0304C15.818 68.0687 16.5841 71.2862 18.1929 75.538C19.5719 79.2919 21.8701 84.4246 25.126 88.9062Z" fill="#A2A2A2"/>
<path d="M33.8615 97.601L32.8273 98.3671L32.2527 98.7501L30.6823 99.8993C30.6823 99.8993 -2.25947 87.029 0.421834 72.2818C1.26453 67.7236 7.58475 65.9999 15.2073 77.8743C22.3319 88.8676 33.8615 97.601 33.8615 97.601Z" fill="#D2D2D2"/>
<path d="M32.827 98.3675L32.2525 98.7505C25.2428 94.8818 19.0758 89.6341 15.0155 85.727C10.1892 81.0922 7.20144 77.3384 7.16313 77.3384C7.04822 77.2235 7.08652 76.9936 7.20144 76.917C7.31635 76.8021 7.54618 76.8404 7.62279 76.9553C7.66109 76.9937 10.6488 80.7092 15.4369 85.3057C19.5354 89.2127 25.7407 94.4987 32.827 98.3675Z" fill="#BCBCBC"/>
<path d="M60.3262 46.7324C54.389 41.9827 49.601 37.5777 46.077 33.594C41.4805 28.3846 39.0673 23.9413 38.9141 20.3024C38.9141 20.0726 39.1056 19.8428 39.3354 19.8428C39.5652 19.8428 39.7951 20.0343 39.7951 20.2641C40.1015 26.5843 47.9156 35.9306 62.4329 47.2687L60.3262 46.7324Z" fill="#BCBCBC"/>
<path d="M42.3632 28.6144C42.3632 28.6144 39.9117 31.2957 35.3535 26.7758C35.3535 26.8141 40.2948 23.7498 42.3632 28.6144Z" fill="#D2D2D2"/>
<path d="M44.5843 31.0658C44.5843 31.0658 41.7881 28.7675 46.0016 23.9795C46.0399 23.9795 49.334 28.7292 44.5843 31.0658Z" fill="#D2D2D2"/>
<path d="M39.8343 22.9451C39.8343 22.9451 36.4252 21.7194 38.8384 15.7822C38.8384 15.7822 43.5498 19.1913 39.8343 22.9451Z" fill="#D2D2D2"/>
<path d="M48.9121 36.1221C48.9121 36.1221 47.4949 39.4929 41.7109 36.7733C41.7109 36.7733 45.3115 32.2534 48.9121 36.1221Z" fill="#D2D2D2"/>
<path d="M51.5562 38.2669C51.5562 38.2669 48.3769 36.4666 51.7477 31.0273C51.7477 31.0273 55.8079 35.1642 51.5562 38.2669Z" fill="#D2D2D2"/>
<path d="M54.8877 41.561C54.8877 41.561 53.5471 44.9318 47.6865 42.3654C47.6865 42.3654 51.2105 37.7688 54.8877 41.561Z" fill="#D2D2D2"/>
<path d="M152.066 45.1989V115.487C152.066 118.398 149.729 120.735 146.818 120.735H27.0407C24.1295 120.735 21.793 118.398 21.793 115.487V45.1989C21.793 42.2877 24.1295 39.9512 27.0407 39.9512H146.818C149.729 39.9512 152.066 42.2877 152.066 45.1989Z" fill="#888888"/>
<path d="M146.281 48.7604V111.924C146.281 113.801 144.787 115.295 142.911 115.295H30.947C30.1809 115.295 29.4531 115.027 28.8785 114.567C28.7253 114.452 28.5721 114.299 28.4572 114.184C27.9209 113.571 27.5762 112.805 27.5762 111.924V48.7604C27.5762 46.8835 29.07 45.3896 30.947 45.3896H142.949C143.562 45.3896 144.136 45.5429 144.634 45.8493C145.094 46.1174 145.515 46.5005 145.783 46.9601C146.09 47.4964 146.281 48.1093 146.281 48.7604Z" fill="white"/>
<path d="M123.836 59.0645H51.9004V99.8586H123.836V59.0645Z" fill="#E6E6E6"/>
<path d="M123.836 59.0645H51.9004V62.5502H123.836V59.0645Z" fill="#353535"/>
<path d="M57.3784 60.8264C57.3784 61.2095 57.072 61.5542 56.6506 61.5542C56.2676 61.5542 55.9229 61.2478 55.9229 60.8264C55.9229 60.4434 56.2293 60.0986 56.6506 60.0986C57.072 60.0986 57.3784 60.4051 57.3784 60.8264Z" fill="#D02E1B"/>
<path d="M59.7163 60.8264C59.7163 61.2095 59.4099 61.5542 58.9885 61.5542C58.6055 61.5542 58.2607 61.2478 58.2607 60.8264C58.2607 60.4434 58.5672 60.0986 58.9885 60.0986C59.4099 60.0986 59.7163 60.4051 59.7163 60.8264Z" fill="white"/>
<path d="M61.9751 60.8264C61.9751 61.2095 61.6687 61.5542 61.2473 61.5542C60.8643 61.5542 60.5195 61.2478 60.5195 60.8264C60.5195 60.4434 60.826 60.0986 61.2473 60.0986C61.6687 60.0986 61.9751 60.4051 61.9751 60.8264Z" fill="white"/>
<path d="M59.9784 97.3302C59.9018 97.3302 59.8252 97.2536 59.8252 97.177V64.9247C59.8252 64.8481 59.9018 64.7715 59.9784 64.7715C60.055 64.7715 60.1316 64.8481 60.1316 64.9247V97.1387C60.1699 97.2536 60.0933 97.3302 59.9784 97.3302Z" fill="#2A3554"/>
<path d="M60.5159 65.0021C60.5159 65.3085 60.2861 65.5383 59.9796 65.5383C59.7115 65.5383 59.4434 65.3085 59.4434 65.0021C59.4434 64.6956 59.6732 64.4658 59.9796 64.4658C60.2861 64.5041 60.5159 64.7339 60.5159 65.0021Z" fill="#2A3554"/>
<path d="M60.5159 97.1769C60.5159 97.4833 60.2861 97.7132 59.9796 97.7132C59.7115 97.7132 59.4434 97.4833 59.4434 97.1769C59.4434 96.8705 59.6732 96.6406 59.9796 96.6406C60.2861 96.6406 60.5159 96.8705 60.5159 97.1769Z" fill="#2A3554"/>
<path d="M115.601 97.3302C115.525 97.3302 115.448 97.2536 115.448 97.177V64.9247C115.448 64.8481 115.525 64.7715 115.601 64.7715C115.678 64.7715 115.755 64.8481 115.755 64.9247V97.1387C115.793 97.2536 115.716 97.3302 115.601 97.3302Z" fill="#2A3554"/>
<path d="M116.138 65.0021C116.138 65.3085 115.908 65.5383 115.602 65.5383C115.295 65.5383 115.065 65.3085 115.065 65.0021C115.065 64.6956 115.295 64.4658 115.602 64.4658C115.908 64.5041 116.138 64.7339 116.138 65.0021Z" fill="#2A3554"/>
<path d="M116.137 97.1769C116.137 97.4833 115.907 97.7132 115.601 97.7132C115.294 97.7132 115.064 97.4833 115.064 97.1769C115.064 96.8705 115.294 96.6406 115.601 96.6406C115.907 96.6406 116.137 96.8705 116.137 97.1769Z" fill="#2A3554"/>
<path d="M82.813 82.0117H76.429L75.301 84.9396H69.541L76.885 68.1396H82.453L89.797 84.9396H83.941L82.813 82.0117ZM81.253 77.9316L79.621 73.7076L77.989 77.9316H81.253Z" fill="#D02E1B"/>
<path d="M96.413 71.5716C98.717 71.5716 100.477 72.0916 101.693 73.1316C102.909 74.1556 103.517 75.7396 103.517 77.8836V84.9396H98.477V83.2116C97.853 84.5236 96.613 85.1796 94.757 85.1796C93.717 85.1796 92.829 85.0036 92.093 84.6516C91.373 84.2836 90.821 83.7956 90.437 83.1876C90.069 82.5636 89.885 81.8676 89.885 81.0996C89.885 79.8036 90.381 78.8196 91.373 78.1476C92.365 77.4756 93.869 77.1396 95.885 77.1396H98.069C97.893 76.1156 97.069 75.6036 95.597 75.6036C95.005 75.6036 94.405 75.6996 93.797 75.8916C93.189 76.0676 92.669 76.3156 92.237 76.6356L90.509 73.0596C91.261 72.5956 92.165 72.2356 93.221 71.9796C94.293 71.7076 95.357 71.5716 96.413 71.5716ZM96.389 81.9156C96.773 81.9156 97.117 81.8116 97.421 81.6036C97.725 81.3956 97.949 81.0837 98.093 80.6677V79.7556H96.749C95.645 79.7556 95.093 80.1236 95.093 80.8596C95.093 81.1636 95.205 81.4196 95.429 81.6276C95.669 81.8196 95.989 81.9156 96.389 81.9156Z" fill="#D02E1B"/>
<path d="M44.3919 59.0654H35.4287V99.668H44.3919V59.0654Z" fill="#E6E6E6"/>
<path d="M44.3919 59.0654H35.4287V61.7467H44.3919V59.0654Z" fill="#353535"/>
<path d="M138.886 79.6729H129.923V99.6294H138.886V79.6729Z" fill="#E6E6E6"/>
<path d="M138.733 79.9316H129.77V82.8045H138.733V79.9316Z" fill="#353535"/>
<path d="M139.082 59.2178H130.119V70.8623H139.082V59.2178Z" fill="#E6E6E6"/>
<path d="M139.082 59.2178H130.119V62.0906H139.082V59.2178Z" fill="#353535"/>
<path d="M164.248 117.938V118.398C164.248 120.62 163.52 122.688 162.294 124.374C160.456 126.94 157.43 128.625 154.021 128.625H19.8405C16.4315 128.625 13.4054 126.94 11.5668 124.374C10.3411 122.688 9.61328 120.62 9.61328 118.398V117.938H164.248Z" fill="#888888"/>
<path d="M69.5996 117.938V118.053C69.5996 118.858 70.1359 119.509 70.8254 119.509H102.388C103.039 119.509 103.614 118.858 103.614 118.053V117.938H69.5996Z" fill="#525252"/>
<path d="M146.283 48.7614V52.4769H27.54V48.7614C27.54 48.0336 27.7699 47.3825 28.1529 46.8462C28.7658 45.9652 29.7617 45.3906 30.9108 45.3906H142.913C144.062 45.3906 145.058 45.9652 145.671 46.8462C146.054 47.3825 146.283 48.0336 146.283 48.7614Z" fill="#E6E6E6"/>
<path d="M37.5363 49.4517C37.5363 49.988 37.115 50.4094 36.5787 50.4094C36.0424 50.4094 35.6211 49.988 35.6211 49.4517C35.6211 48.9155 36.0424 48.4941 36.5787 48.4941C37.115 48.4941 37.5363 48.9155 37.5363 49.4517Z" fill="#D02E1B"/>
<path d="M40.675 49.4517C40.675 49.988 40.2536 50.4094 39.7174 50.4094C39.1811 50.4094 38.7598 49.988 38.7598 49.4517C38.7598 48.9155 39.1811 48.4941 39.7174 48.4941C40.2536 48.4941 40.675 48.9155 40.675 49.4517Z" fill="#A4A4A4"/>
<path d="M43.6662 49.4517C43.6662 49.988 43.2448 50.4094 42.7086 50.4094C42.1723 50.4094 41.751 49.988 41.751 49.4517C41.751 48.9155 42.1723 48.4941 42.7086 48.4941C43.2065 48.4941 43.6662 48.9155 43.6662 49.4517Z" fill="#A4A4A4"/>
<path d="M117.631 50.0646H54.6199C54.4667 50.0646 54.3135 49.9497 54.3135 49.7582V48.4558C54.3135 48.3026 54.4284 48.1494 54.6199 48.1494H117.592C117.745 48.1494 117.899 48.2643 117.899 48.4558V49.7582C117.899 49.9497 117.784 50.0646 117.631 50.0646Z" fill="white"/>
<path d="M134.285 49.1063V49.7958C134.285 49.9873 134.055 50.1023 133.902 50.0257L133.289 49.6809L132.676 49.3362C132.484 49.2213 132.484 48.9914 132.676 48.8765L133.289 48.5318L133.902 48.187C134.093 48.0721 134.285 48.2253 134.285 48.4169V49.1063Z" fill="#353535"/>
<path d="M137.426 49.1063V49.7958C137.426 49.9873 137.656 50.1023 137.809 50.0257L138.422 49.6809L139.035 49.3362C139.226 49.2213 139.226 48.9914 139.035 48.8765L138.422 48.5318L137.809 48.187C137.617 48.0721 137.426 48.2253 137.426 48.4169V49.1063Z" fill="#353535"/>
<path d="M145.671 46.8462H28.1914C28.8043 45.9652 29.8002 45.3906 30.9493 45.3906H142.951C144.062 45.3906 145.096 45.9652 145.671 46.8462Z" fill="#D2D2D2"/>
<path d="M121.997 109.895H50.2527C48.8354 109.895 47.7246 108.746 47.7246 107.367C47.7246 105.95 48.8737 104.839 50.2527 104.839H121.958C123.376 104.839 124.487 105.988 124.487 107.367C124.525 108.746 123.376 109.895 121.997 109.895Z" fill="#E6E6E6"/>
<path d="M155.402 147.625C155.402 148.927 147.32 150 137.323 150C127.364 150 119.243 148.927 119.243 147.625C119.243 146.323 127.325 145.25 137.323 145.25C147.32 145.25 155.402 146.284 155.402 147.625Z" fill="#D2D2D2"/>
<path d="M151.571 121.77H124.298C124.758 119.05 126.903 117.058 129.431 117.058L137.896 117.096L146.361 117.058C148.928 117.02 151.111 119.012 151.571 121.77Z" fill="#606060"/>
<path d="M127.938 121.349H126.444V146.783H127.938V121.349Z" fill="#606060"/>
<path d="M149.427 121.349H147.934V146.783H149.427V121.349Z" fill="#606060"/>
<path d="M147.931 128.473H127.937V129.89H147.931V128.473Z" fill="#4B4B4B"/>
<path d="M131.269 87.5244C131.269 87.5244 126.711 93.6148 126.098 98.9008C125.677 102.655 131.269 108.247 131.269 108.247L133.184 107.289L131.269 102.961C130.579 100.854 129.737 100.012 130.35 97.9049L131.729 94.9171C131.92 92.6189 131.69 90.1291 131.269 87.5244Z" fill="#8E8E8E"/>
<path d="M145.596 87.4482C145.596 87.4482 150.077 93.9217 150.46 99.246C150.767 103.843 145.289 108.248 145.289 108.248L143.719 107.443L145.902 103.076C146.592 100.97 146.898 99.7056 145.979 97.4074L144.791 94.8793L145.596 87.4482Z" fill="#8E8E8E"/>
<path d="M146.244 111.542C142.26 112.614 129.198 110.967 129.198 110.967L132.224 101.353L131.841 95.6453L131.803 94.8792L131.305 87.5248C134.484 86.2224 136.399 85.6861 139.502 85.916C141.609 86.0692 143.677 86.6055 145.669 87.4098L144.252 101.046L146.244 111.542Z" fill="#8E8E8E"/>
<path d="M135.443 90.436C138.315 90.0912 140.997 88.0994 141.112 88.0228C141.188 87.9845 141.188 87.8696 141.15 87.793C141.112 87.7163 140.997 87.7163 140.92 87.7547C140.882 87.793 137.741 90.0912 134.715 90.1295C134.638 90.1295 134.562 90.2061 134.562 90.2827C134.562 90.3593 134.638 90.436 134.715 90.436C134.983 90.4743 135.213 90.436 135.443 90.436Z" fill="#606060"/>
<path d="M137.012 100.28C139.732 99.3223 141.915 96.7942 142.03 96.6793C142.107 96.6027 142.068 96.5261 142.03 96.4495C141.953 96.3729 141.877 96.4112 141.8 96.4495C141.762 96.4878 139.234 99.4372 136.284 100.165C136.208 100.203 136.131 100.28 136.169 100.357C136.208 100.433 136.284 100.51 136.361 100.471C136.552 100.433 136.782 100.357 137.012 100.28Z" fill="#606060"/>
<path d="M137.78 141.879L138.01 143.986L140.27 144.024L140.462 142.262L137.78 141.879Z" fill="#BFBFBF"/>
<path d="M137.436 108.248C137.436 108.248 131.614 107.941 129.622 109.55C127.63 111.159 128.052 115.794 130.043 117.096C132.074 118.36 135.483 120.85 135.483 120.85L137.666 142.569L140.539 142.684C140.539 142.684 143.182 120.85 141.841 116.637C140.539 112.385 137.436 108.248 137.436 108.248Z" fill="#1B1B1B"/>
<path d="M140.845 141.573C140.998 142.071 140.922 142.569 140.768 143.067L137.436 142.991C137.321 142.493 137.283 142.033 137.359 141.535L140.845 141.573Z" fill="#353535"/>
<path d="M145.672 108.094H130.35L128.933 99.8204C128.818 99.0926 129.354 98.4414 130.082 98.4414H145.94C146.667 98.4414 147.204 99.0926 147.089 99.8204L145.672 108.094Z" fill="white"/>
<path d="M144.332 109.894H131.769C131.003 109.894 130.39 109.281 130.39 108.515V108.094H145.711V108.515C145.711 109.281 145.099 109.894 144.332 109.894Z" fill="#D2D2D2"/>
<path d="M139.388 103.612C139.388 104.34 138.775 104.953 138.048 104.953C137.32 104.953 136.707 104.34 136.707 103.612C136.707 102.884 137.32 102.271 138.048 102.271C138.775 102.271 139.388 102.884 139.388 103.612Z" fill="#D2D2D2"/>
<path d="M128.206 135.903L127.708 138.01L129.738 138.393L130.543 136.516L128.206 135.903Z" fill="#BFBFBF"/>
<path d="M140.386 107.903C140.386 107.903 136.479 106.562 134.18 109.397C131.882 112.231 128.052 136.133 128.052 136.133L130.695 137.206L139.16 115.985C139.16 115.985 146.055 119.93 146.897 114.338C147.51 109.895 140.386 107.903 140.386 107.903Z" fill="#353535"/>
<path d="M131.27 136.095C131.27 136.631 131.041 137.091 130.734 137.512L127.517 136.363C127.555 135.865 127.708 135.367 127.938 134.907L131.27 136.095Z" fill="#525252"/>
<path d="M129.239 137.665C129.239 137.665 128.013 137.052 127.669 136.976C127.324 136.899 124.336 139.006 123.493 139.006C121.961 138.967 121.463 141.227 122.344 141.534C124.872 142.415 129.507 142.3 129.507 142.3C129.507 142.3 130.541 139.504 130.58 138.546C130.58 137.589 129.89 138.086 129.239 137.665Z" fill="#8E8E8E"/>
<path d="M126.555 139.657C126.594 139.696 126.67 139.696 126.708 139.657C126.785 139.619 126.862 139.504 126.823 139.428C126.823 139.389 126.517 138.662 126.019 138.317C125.368 137.857 124.755 138.164 124.717 138.202C124.64 138.24 124.602 138.355 124.64 138.432C124.678 138.508 124.793 138.547 124.87 138.508C124.87 138.508 125.291 138.278 125.789 138.623C126.211 138.891 126.479 139.543 126.479 139.543C126.479 139.619 126.517 139.619 126.555 139.657Z" fill="white"/>
<path d="M127.169 139.237C127.207 139.275 127.283 139.275 127.322 139.237C127.398 139.198 127.475 139.083 127.437 139.007C127.437 138.968 127.13 138.241 126.632 137.896C125.981 137.436 125.368 137.743 125.33 137.781C125.253 137.819 125.215 137.934 125.253 138.011C125.292 138.087 125.407 138.126 125.521 138.087C125.521 138.087 125.943 137.858 126.441 138.202C126.862 138.47 127.13 139.122 127.13 139.122C127.092 139.198 127.13 139.198 127.169 139.237Z" fill="white"/>
<path d="M125.79 139.964C125.828 140.002 125.866 140.002 125.943 139.964C126.019 139.926 126.096 139.811 126.058 139.734C126.058 139.696 125.751 138.968 125.253 138.623C124.602 138.164 123.989 138.47 123.951 138.509C123.874 138.547 123.836 138.662 123.874 138.738C123.913 138.815 124.028 138.853 124.143 138.815C124.143 138.815 124.564 138.585 125.062 138.93C125.483 139.198 125.751 139.849 125.751 139.849C125.713 139.887 125.713 139.926 125.79 139.964Z" fill="white"/>
<path d="M138.891 143.909C138.891 143.909 140.155 143.526 140.5 143.526C140.845 143.526 143.296 146.016 144.101 146.131C145.556 146.361 145.633 148.544 144.752 148.697C142.224 149.119 137.895 148.238 137.895 148.238C137.895 148.238 137.397 145.442 137.512 144.561C137.627 143.603 138.202 144.178 138.891 143.909Z" fill="#8E8E8E"/>
<path d="M141.073 146.208C141.035 146.208 140.997 146.208 140.92 146.17C140.843 146.132 140.805 146.017 140.882 145.94C140.882 145.902 141.303 145.289 141.839 145.059C142.529 144.753 143.065 145.136 143.065 145.174C143.142 145.251 143.142 145.327 143.103 145.404C143.027 145.481 142.95 145.481 142.873 145.442C142.873 145.442 142.49 145.174 141.992 145.404C141.571 145.596 141.188 146.17 141.188 146.17C141.15 146.17 141.111 146.208 141.073 146.208Z" fill="white"/>
<path d="M140.577 145.71C140.539 145.71 140.5 145.71 140.424 145.672C140.347 145.634 140.309 145.519 140.386 145.442C140.386 145.404 140.807 144.791 141.343 144.561C142.033 144.255 142.569 144.638 142.569 144.676C142.645 144.753 142.645 144.829 142.607 144.906C142.531 144.983 142.454 144.983 142.377 144.944C142.377 144.944 141.994 144.676 141.496 144.906C141.075 145.098 140.692 145.672 140.692 145.672C140.654 145.672 140.615 145.71 140.577 145.71Z" fill="white"/>
<path d="M141.765 146.629C141.726 146.629 141.688 146.629 141.611 146.591C141.535 146.553 141.496 146.438 141.573 146.361C141.573 146.323 141.994 145.71 142.531 145.48C143.22 145.174 143.756 145.557 143.756 145.595C143.833 145.672 143.833 145.748 143.795 145.825C143.718 145.902 143.641 145.902 143.565 145.863C143.565 145.863 143.182 145.595 142.684 145.825C142.262 146.017 141.879 146.591 141.879 146.591C141.841 146.591 141.803 146.629 141.765 146.629Z" fill="white"/>
<path d="M142.301 73.8506C142.301 73.8506 144.177 76.7234 143.948 79.7112C143.756 82.6989 144.216 86.1846 141.534 86.0314C138.853 85.8782 134.065 87.1039 132.533 84.7673C131.039 82.4308 142.301 73.8506 142.301 73.8506Z" fill="#353535"/>
<path d="M142.99 79.1359C142.99 79.1359 143.488 83.4643 141.42 84.6901C139.351 85.8775 137.857 84.5368 137.857 84.5368C137.857 84.5368 142.186 78.4848 142.99 79.1359Z" fill="#1B1B1B"/>
<path d="M134.409 79.0982C134.409 79.0982 133.681 78.1023 133.106 78.945C132.57 79.7494 133.336 82.1626 134.677 81.588L134.409 79.0982Z" fill="#FA8465"/>
<path d="M134.408 80.8211C134.37 80.8211 134.332 80.7828 134.293 80.7445C134.102 80.0167 133.297 79.7103 133.297 79.7103C133.221 79.672 133.221 79.6337 133.221 79.5571C133.259 79.4805 133.297 79.4805 133.374 79.4805C133.412 79.4805 134.255 79.8252 134.485 80.6679C134.523 80.7445 134.485 80.8211 134.408 80.8211Z" fill="#FA664D"/>
<path d="M133.643 80.4386C133.604 80.4386 133.604 80.4386 133.566 80.4386C133.528 80.4003 133.489 80.3237 133.528 80.2854C133.528 80.2854 133.681 80.0556 133.949 79.9407C133.987 79.9024 134.064 79.9407 134.102 79.979C134.14 80.0173 134.102 80.0939 134.064 80.1322C133.834 80.2471 133.719 80.4003 133.719 80.4003C133.681 80.4386 133.643 80.4386 133.643 80.4386Z" fill="#FA664D"/>
<path d="M142.034 79.0982C142.034 79.0982 142.762 78.1023 143.336 78.945C143.872 79.7494 143.106 82.1626 141.766 81.588L142.034 79.0982Z" fill="#A4A4A4"/>
<path d="M142.073 80.8211C142.112 80.8211 142.15 80.7828 142.188 80.7445C142.38 80.0167 143.184 79.7103 143.184 79.7103C143.261 79.672 143.261 79.6337 143.261 79.5571C143.223 79.4805 143.184 79.4805 143.108 79.4805C143.069 79.4805 142.227 79.8252 141.997 80.6679C141.92 80.7445 141.959 80.8211 142.073 80.8211C142.035 80.8211 142.035 80.8211 142.073 80.8211Z" fill="#909090"/>
<path d="M142.838 80.4386C142.876 80.4386 142.876 80.4386 142.914 80.4386C142.953 80.4003 142.991 80.3237 142.953 80.2854C142.953 80.2854 142.8 80.0556 142.531 79.9407C142.493 79.9024 142.416 79.9407 142.378 79.979C142.34 80.0173 142.378 80.0939 142.416 80.1322C142.646 80.2471 142.761 80.4003 142.761 80.4003C142.761 80.4386 142.8 80.4386 142.838 80.4386Z" fill="#909090"/>
<path d="M140.04 83.6182V86.0313C140.04 86.0313 139.312 87.2571 138.354 87.3337C137.397 87.4103 136.516 86.2995 136.516 86.2995V83.8097L140.04 83.6182Z" fill="#BFBFBF"/>
<path d="M140.04 83.6182V84.6907C139.388 85.4185 138.239 85.6483 136.516 85.4185V83.8097L140.04 83.6182Z" fill="#A4A4A4"/>
<path d="M142.568 77.4515C142.529 78.3708 142.453 79.5582 142.261 80.4775C142.223 80.7073 142.185 80.9371 142.108 81.1287C141.61 82.8907 140.346 85.9167 136.822 84.6527C135.252 84.0781 134.524 82.3544 134.217 80.5924C133.988 79.405 133.949 78.1792 133.988 77.2982C133.988 76.4172 134.486 75.6128 135.252 75.1532C137.32 73.9658 139.542 74.4254 140.997 74.9617C141.993 75.383 142.644 76.3789 142.568 77.4515Z" fill="#BFBFBF"/>
<path d="M135.79 77.9493C136.02 77.8727 136.518 77.7578 137.054 77.7578C137.207 77.7578 137.284 77.8727 137.284 78.0259C137.245 78.1409 137.169 78.2175 137.054 78.2175C136.709 78.2175 135.751 78.2558 135.33 78.4473C135.33 78.3707 135.368 78.2941 135.445 78.2175C135.522 78.0643 135.637 77.9876 135.79 77.9493Z" fill="#353535"/>
<path d="M140.538 77.9493C140.308 77.8727 139.81 77.7578 139.274 77.7578C139.121 77.7578 139.044 77.8727 139.044 78.0259C139.082 78.1409 139.159 78.2175 139.274 78.2175C139.619 78.2175 140.576 78.2558 140.997 78.4473C140.997 78.3707 140.959 78.2941 140.883 78.2175C140.844 78.0643 140.691 77.9876 140.538 77.9493Z" fill="#353535"/>
<path d="M138.279 81.3586C138.202 81.3586 138.087 81.3586 138.049 81.282C137.972 81.2437 137.896 81.1671 137.896 81.0138C137.857 80.5925 137.972 79.2901 137.972 79.2135C137.972 79.1369 138.049 79.0986 138.087 79.0986C138.164 79.0986 138.202 79.1752 138.202 79.2135C138.202 79.2135 138.087 80.5542 138.125 80.9755C138.125 81.0522 138.164 81.0522 138.164 81.0905C138.279 81.1671 138.508 81.0905 138.623 81.0522C138.7 81.0139 138.738 81.0521 138.777 81.1288C138.815 81.2054 138.777 81.2437 138.7 81.282C138.662 81.282 138.47 81.3586 138.279 81.3586Z" fill="#A4A4A4"/>
<path d="M136.825 82.0869C136.902 82.5083 137.208 83.3127 138.166 83.3127C139.123 83.3127 139.392 82.5849 139.506 82.0869H136.825Z" fill="white"/>
<path d="M138.128 83.9632C137.859 83.9632 137.591 83.8099 137.591 83.8099C137.553 83.7716 137.515 83.695 137.553 83.6567C137.591 83.6184 137.668 83.5801 137.706 83.6184C137.706 83.6184 137.898 83.7333 138.128 83.7333C138.357 83.7333 138.549 83.6184 138.549 83.6184C138.587 83.5801 138.664 83.6184 138.702 83.6567C138.74 83.695 138.702 83.7716 138.664 83.8099C138.702 83.8099 138.434 83.9632 138.128 83.9632Z" fill="#A4A4A4"/>
<path d="M143.029 77.2593C142.99 77.3742 142.875 77.4125 142.761 77.4508C142.761 77.7189 142.761 77.9871 142.722 78.2935C142.569 79.9406 142.148 80.247 142.071 79.8257C141.994 79.5575 141.994 77.9871 142.033 77.4891C141.726 77.4508 141.42 77.4125 141.42 77.4125L141.037 75.8037L140.922 77.3742C140.347 77.5657 139.007 77.2593 139.007 77.2593L138.547 75.6888L138.279 77.221C137.436 77.6423 136.364 77.3742 136.364 77.3742L136.134 75.7271L135.559 77.3742C135.559 77.3742 133.721 78.0254 133.721 77.3742C133.721 76.9912 133.989 75.9186 134.219 75.0759C134.487 74.1566 135.061 73.3905 135.866 72.9692C138.126 71.7435 140.539 72.3946 141.382 72.8926C143.105 73.9651 143.029 77.2593 143.029 77.2593Z" fill="#353535"/>
<path d="M134.717 73.9648C134.717 73.9648 133.223 75.7652 132.725 78.9827C132.227 82.2003 131.538 84.5751 133.491 85.6094C135.598 86.7585 135.406 84.4219 135.368 83.7708C135.33 83.1196 133.568 81.3959 134.755 76.4546C135.1 74.8458 134.717 73.9648 134.717 73.9648Z" fill="#353535"/>
<path d="M134.332 80.5918C134.332 80.6301 134.332 80.745 134.332 80.9365C134.332 81.0514 134.332 81.2047 134.37 81.3962C134.447 82.4687 134.638 84.3456 135.251 84.9968C135.481 85.2649 135.979 85.3798 136.515 85.4181V84.5754C135.941 84.3073 135.481 83.8477 135.136 83.2731C134.907 82.8134 134.562 82.0474 134.37 80.8982L134.332 80.5918Z" fill="#1B1B1B"/>
<path d="M142.608 81.6256C142.608 81.7788 142.493 81.8937 142.339 81.8937C142.186 81.8937 142.071 81.7788 142.071 81.6256C142.071 81.4723 142.186 81.3574 142.339 81.3574C142.493 81.3574 142.608 81.4723 142.608 81.6256Z" fill="white"/>
<path d="M132.497 94.0376C132.497 94.0376 132.153 94.6888 131.808 95.6847L131.77 94.9186C131.999 94.344 132.191 93.961 132.229 93.9227C132.267 93.8461 132.382 93.8078 132.459 93.8461C132.497 93.8461 132.536 93.961 132.497 94.0376Z" fill="#606060"/>
<path d="M144.066 94.0368C144.066 94.0368 144.411 94.7263 144.794 95.6839L144.87 94.9561C144.64 94.3816 144.411 93.9219 144.372 93.8836C144.334 93.807 144.219 93.7687 144.142 93.807C144.028 93.8453 144.028 93.9602 144.066 94.0368Z" fill="#606060"/>
<path d="M63.8154 98.021C64.3517 99.017 64.8496 99.898 65.3476 100.626C68.9865 106.103 71.6678 104.954 73.1234 103.23C73.6213 102.618 74.0044 102.005 74.2725 101.43C74.6939 100.473 74.8471 99.6298 74.9237 99.2851L74.2342 99.4383C73.4298 99.8214 72.1275 100.319 71.1316 100.166C71.0166 100.128 70.9017 100.128 70.7868 100.089C69.9058 99.7447 68.7184 98.021 67.914 96.7187C67.3777 95.8377 67.033 95.1865 67.033 95.1865L63.8154 98.021Z" fill="#BFBFBF"/>
<path d="M63.8145 98.0213C64.3507 99.0172 64.8487 99.8982 65.3466 100.626C66.3808 99.5151 67.3001 97.8297 67.8747 96.6806C67.3384 95.7996 66.9937 95.1484 66.9937 95.1484L63.8145 98.0213Z" fill="#FA8465"/>
<path d="M70.3271 100.32C70.3271 100.32 71.0549 102.58 74.2725 101.392C74.6938 100.435 74.8471 99.5918 74.9237 99.2471L74.2342 99.4003C73.4298 99.7833 72.1274 100.281 71.1315 100.128L70.3271 100.32Z" fill="#A4A4A4"/>
<path d="M45.1983 102.617C45.1983 103.23 45.1983 103.881 45.1217 104.494V104.532C45.1217 104.647 45.0834 104.8 45.0834 104.915C44.5854 108.056 41.3679 110.776 40.6784 106.715C40.6018 106.179 40.5635 105.566 40.5635 104.953C40.5635 104.8 40.5635 104.685 40.5635 104.532C40.5635 104.149 40.6018 103.766 40.6401 103.345C40.6401 103.191 40.6784 103 40.6784 102.847C40.7167 102.655 40.7167 102.464 40.755 102.272C40.8316 101.812 40.9082 101.314 40.9848 100.855C41.253 99.3226 41.636 97.8671 41.9424 96.7563C42.2872 95.5688 42.5553 94.8027 42.5553 94.8027L44.8153 97.5607C44.8153 97.5607 45.0068 98.5566 45.1217 100.012C45.1217 100.127 45.1217 100.242 45.16 100.357C45.1983 100.931 45.2366 101.544 45.2366 102.195C45.2366 102.234 45.2366 102.272 45.2366 102.31C45.1983 102.425 45.1983 102.502 45.1983 102.617Z" fill="#BFBFBF"/>
<path d="M41.9424 96.7946C42.5936 98.0203 43.7044 99.6291 45.1216 100.357C45.1216 100.242 45.1216 100.127 45.0833 100.012C44.9684 98.5566 44.7769 97.5607 44.7769 97.5607L42.5169 94.8027C42.5169 94.841 42.2488 95.6071 41.9424 96.7946Z" fill="#FA8465"/>
<path d="M45.1975 102.618C45.1975 103.231 45.1975 103.882 45.1209 104.495C43.742 104.609 41.7502 104.686 40.5244 104.533C40.5244 104.15 40.5627 103.767 40.601 103.345C40.601 103.192 40.6393 103.001 40.6393 102.847L45.1592 102.196C45.1592 102.235 45.1592 102.273 45.1592 102.311C45.1975 102.426 45.1975 102.503 45.1975 102.618Z" fill="#A4A4A4"/>
<path d="M64.3898 88.1768C64.3898 88.1768 67.6457 93.9224 68.1819 95.8759C68.1819 95.8759 65.9603 99.5914 63.9301 100.013L63.1641 97.4847C63.2024 97.4464 63.1258 89.5174 64.3898 88.1768Z" fill="#8E8E8E"/>
<path d="M57.2263 85.2274L64.3892 88.1769L61.21 112.653C61.21 112.653 51.3657 114.032 46.3096 112.653V88.1769L53.2427 85.0742L57.2263 85.2274Z" fill="#8E8E8E"/>
<path d="M58.6792 98.5575C57.4918 99.8216 55.8064 100.971 53.4698 101.66C53.3932 101.699 53.2783 101.622 53.2783 101.545C53.2783 101.469 53.3166 101.392 53.3932 101.392C55.6915 100.741 57.3003 99.5918 58.4877 98.366C58.5643 98.2894 58.7175 98.3277 58.7558 98.4426C58.7558 98.4809 58.7175 98.5192 58.6792 98.5575Z" fill="#5F46F1"/>
<path d="M58.6433 96.2216C58.6433 96.2599 58.6433 96.2598 58.6433 96.2982C58.5666 96.4514 58.49 96.5663 58.3751 96.7195C57.8006 97.5239 56.728 98.5964 54.8511 99.0944H54.8128C54.7362 99.0944 54.6979 99.0561 54.6596 98.9795C54.6213 98.9028 54.6979 98.8262 54.7745 98.8262C56.8046 98.29 57.8772 97.0642 58.3751 96.1449C58.4517 96.03 58.6433 96.0683 58.6433 96.2216Z" fill="#5F46F1"/>
<path d="M58.3739 89.8621C58.3739 89.9387 58.2973 90.0153 58.2207 89.977C56.5353 89.6323 55.1946 88.9045 54.2753 88.2533C53.0496 87.3723 52.3984 86.4913 52.3601 86.453C52.3218 86.3764 52.3218 86.2998 52.3984 86.2615C52.475 86.2232 52.5516 86.2232 52.5899 86.2998C52.6283 86.3381 54.6584 89.0194 58.259 89.7472C58.3356 89.7472 58.3739 89.7855 58.3739 89.8621Z" fill="#606060"/>
<path d="M69.3637 128.243L68.5977 124.298H71.2024L71.8535 128.013C71.8535 128.013 70.781 128.703 69.3637 128.243Z" fill="#BFBFBF"/>
<path d="M71.1644 128.205C71.1644 128.205 71.739 127.439 72.1986 127.477C72.6583 127.515 76.144 130.35 77.3314 130.58C78.5189 130.809 78.289 131.69 78.0592 132.15C77.8294 132.61 68.4831 131.882 68.4831 131.882C68.4831 131.882 68.2533 129.086 68.5597 128.243C68.8662 127.362 70.2068 128.396 71.1644 128.205Z" fill="#8E8E8E"/>
<path d="M73.0757 130.159C73.0374 130.159 72.9991 130.159 72.9608 130.159C72.8842 130.12 72.8459 130.006 72.8842 129.929C72.8842 129.891 73.2672 129.278 73.7652 129.01C74.4163 128.703 74.9526 129.048 74.9526 129.086C75.0292 129.125 75.0292 129.239 74.9909 129.316C74.9526 129.393 74.8377 129.393 74.7611 129.354C74.7611 129.354 74.378 129.086 73.9184 129.316C73.497 129.508 73.1906 130.082 73.1906 130.082C73.1523 130.12 73.114 130.159 73.0757 130.159Z" fill="white"/>
<path d="M72.5845 129.661C72.5462 129.661 72.5079 129.661 72.4696 129.661C72.393 129.622 72.3547 129.507 72.393 129.431C72.393 129.393 72.776 128.78 73.274 128.512C73.9251 128.205 74.4614 128.55 74.4614 128.588C74.538 128.626 74.538 128.741 74.4997 128.818C74.4614 128.895 74.3465 128.895 74.2699 128.856C74.2699 128.856 73.8868 128.588 73.4272 128.818C73.0058 129.01 72.6994 129.584 72.6994 129.584C72.6611 129.622 72.6228 129.661 72.5845 129.661Z" fill="white"/>
<path d="M73.729 130.543C73.6907 130.543 73.6524 130.543 73.6141 130.543C73.5375 130.504 73.4992 130.389 73.5375 130.313C73.5375 130.274 73.9205 129.662 74.4185 129.393C75.0697 129.087 75.6059 129.432 75.6059 129.47C75.6825 129.508 75.6825 129.623 75.6442 129.7C75.6059 129.776 75.491 129.776 75.4144 129.738C75.4144 129.738 75.0314 129.47 74.5717 129.7C74.1504 129.891 73.8439 130.466 73.8439 130.466C73.8056 130.504 73.7673 130.543 73.729 130.543Z" fill="white"/>
<path d="M57.4897 110.202C57.4897 110.202 61.9713 99.0933 64.7675 99.5146C69.0959 100.204 71.9687 113.419 71.624 125.791L68.6745 125.945C68.6745 125.945 65.3803 114.3 64.7675 111.274C64.7675 111.274 62.4692 119.203 57.3364 118.092C53.506 117.25 55.9575 113.381 57.4897 110.202Z" fill="#1B1B1B"/>
<path d="M68.9811 125.447L69.3642 125.37C69.3642 125.332 68.5598 121.003 67.6022 116.637C65.6487 107.712 64.9209 107.29 64.6911 107.137C64.4995 107.022 64.308 107.061 64.2314 107.099C63.7334 107.329 63.5036 108.363 63.1206 109.933C62.5077 112.5 61.7033 115.985 59.4434 117.441L59.6349 117.747C62.0098 116.215 62.8524 112.615 63.4653 110.01C63.7717 108.746 64.0399 107.558 64.3463 107.444C64.3463 107.444 64.3846 107.405 64.4995 107.482C65.4955 108.056 67.7171 118.514 68.9811 125.447Z" fill="#353535"/>
<path d="M71.8933 124.873L68.2543 125.179H68.1777L68.3693 126.405L71.9316 126.137L71.8933 124.873Z" fill="#161616"/>
<path d="M58.6413 118.131C58.6413 118.131 53.4319 119.126 46.5371 117.901C47.1117 115.028 48.414 112.806 50.5208 110.814L59.8287 111.504C60.365 113.687 59.9436 115.909 58.6413 118.131Z" fill="#353535"/>
<path d="M60.0988 127.362C60.0988 127.362 61.3245 127.094 61.6692 127.094C62.014 127.132 64.159 129.737 64.9251 129.928C66.3041 130.273 66.1892 132.418 65.3465 132.495C62.895 132.686 58.7964 131.499 58.7964 131.499C58.7964 131.499 58.5283 128.703 58.7581 127.86C58.9496 126.979 59.4093 127.553 60.0988 127.362Z" fill="#8E8E8E"/>
<path d="M59.3695 127.515L58.4502 123.991H61.0549L61.6295 127.4C61.6678 127.4 60.8251 128.013 59.3695 127.515Z" fill="#BFBFBF"/>
<path d="M62.0163 129.814C61.978 129.814 61.9397 129.814 61.9014 129.775C61.8247 129.737 61.8247 129.622 61.8631 129.546C61.8631 129.507 62.3227 128.933 62.859 128.741C63.5484 128.473 64.0081 128.933 64.0464 128.933C64.123 129.009 64.123 129.086 64.0464 129.163C63.9698 129.239 63.8932 129.239 63.8166 129.163C63.8166 129.163 63.4718 128.856 62.9739 129.048C62.5525 129.201 62.1695 129.737 62.1695 129.737C62.0929 129.775 62.0546 129.775 62.0163 129.814Z" fill="white"/>
<path d="M61.5944 129.278C61.5561 129.278 61.5178 129.278 61.4795 129.239C61.4029 129.201 61.4029 129.086 61.4412 129.009C61.4412 128.971 61.9008 128.397 62.4371 128.205C63.1266 127.937 63.5862 128.397 63.6245 128.397C63.7011 128.473 63.7011 128.55 63.6245 128.626C63.5479 128.703 63.4713 128.703 63.3947 128.626C63.3947 128.626 63.05 128.32 62.552 128.512C62.1307 128.665 61.7476 129.201 61.7476 129.201C61.671 129.239 61.6327 129.278 61.5944 129.278Z" fill="white"/>
<path d="M62.6647 130.274C62.6264 130.274 62.5881 130.274 62.5498 130.235C62.4732 130.197 62.4732 130.082 62.5115 130.006C62.5115 129.967 62.9711 129.393 63.5074 129.201C64.1969 128.933 64.6565 129.393 64.6948 129.393C64.7714 129.469 64.7714 129.546 64.6948 129.623C64.6182 129.699 64.5416 129.699 64.465 129.623C64.465 129.623 64.1203 129.316 63.6223 129.508C63.201 129.661 62.8179 130.197 62.8179 130.197C62.7413 130.235 62.703 130.235 62.6647 130.274Z" fill="white"/>
<path d="M47.1479 118.092C47.7991 118.245 48.4119 118.245 48.9865 118.092C49.178 118.054 49.3695 118.016 49.5227 117.939C53.0084 116.713 54.5406 111.274 54.5406 111.274C55.1535 114.338 58.5626 125.945 58.5626 125.945L59.0988 125.868L59.4819 125.83L61.512 125.562C61.8951 113.611 58.869 100.204 54.5789 99.5146C51.7827 99.0933 47.3011 110.202 47.3011 110.202C45.8072 113.381 43.3558 117.25 47.1479 118.092Z" fill="#1B1B1B"/>
<path d="M48.9873 118.093C49.1788 118.054 49.3703 118.016 49.5236 117.939C50.7876 115.909 51.4388 113.036 51.975 110.738C52.3964 108.899 52.7794 107.176 53.3157 106.869C53.3923 106.831 53.4689 106.831 53.5838 106.831C54.0435 106.984 55.0777 108.44 57.1078 116.714C58.0654 120.659 58.8698 124.604 59.138 125.83C59.1763 126.098 59.2146 126.213 59.2146 126.213L59.5593 126.136C59.5593 126.136 59.521 125.983 59.4827 125.753C59.2529 124.528 58.4485 120.582 57.4526 116.599C55.0777 106.908 54.0435 106.563 53.6987 106.448C53.5072 106.371 53.3157 106.41 53.1625 106.486C52.5113 106.869 52.1283 108.44 51.6303 110.585C51.0557 113.075 50.3663 116.101 48.9873 118.093Z" fill="#353535"/>
<path d="M61.7798 124.719L58.1792 125.37H58.1025L58.4473 126.557L61.9713 125.944L61.7798 124.719Z" fill="#161616"/>
<path d="M46.3077 88.1768L41.6729 94.88C41.6729 94.88 43.7413 98.7487 45.7331 99.1701C45.7331 99.1701 47.8398 95.4929 48.0697 93.616C48.3378 91.7391 47.0355 88.33 46.3077 88.1768Z" fill="#8E8E8E"/>
<path d="M82.452 92.164L29.6436 97.627L30.3254 104.218L83.1339 98.7555L82.452 92.164Z" fill="#606060"/>
<path d="M82.576 93.2958L29.7676 98.7588L29.8149 99.216L82.6233 93.7531L82.576 93.2958Z" fill="#4B4B4B"/>
<path d="M82.7713 95.2499L29.9629 100.713L30.0102 101.17L82.8186 95.7072L82.7713 95.2499Z" fill="#4B4B4B"/>
<path d="M82.9588 97.1669L30.1504 102.63L30.1977 103.087L83.0061 97.6242L82.9588 97.1669Z" fill="#4B4B4B"/>
<path d="M32.3683 97.3627L29.625 97.6465L30.3069 104.238L33.0502 103.954L32.3683 97.3627Z" fill="#353535"/>
<path d="M29.65 97.6377L28.8456 97.7143C27.0453 97.9058 25.7046 99.5146 25.8962 101.353C26.0877 103.154 27.6965 104.494 29.5351 104.303L30.3395 104.226L29.65 97.6377Z" fill="#8E8E8E"/>
<path d="M83.1221 98.7485L82.4326 92.1602L87.0674 93.654L88.0251 93.9988L90.7064 94.8798L88.14 96.1821L87.1058 96.7184L83.1221 98.7485Z" fill="#BFBFBF"/>
<path d="M88.1394 96.1816C88.0245 95.9135 87.9096 95.5687 87.8713 95.1474C87.833 94.6494 87.9096 94.2664 88.0245 93.96L90.7441 94.841L88.1394 96.1816Z" fill="#D02E1B"/>
<path d="M75.0446 99.8596C75.0446 99.8596 74.8914 99.1318 74.5083 98.0593C74.3168 97.5231 73.6656 97.14 73.4741 97.7146C73.3209 98.1359 73.5507 98.5573 73.5507 98.9786C73.5507 98.9786 73.4358 98.7105 73.2443 97.9827C73.0528 97.3315 72.6314 97.2932 72.4782 97.7146C72.325 98.0976 72.4399 98.1359 72.4782 98.4424C72.5165 98.902 72.5931 99.4383 72.5931 99.4383C72.5931 99.4383 72.5548 98.8254 72.2101 98.021C72.0569 97.6763 71.9036 97.2549 71.444 97.6763C71.2142 97.8678 71.2908 98.5956 71.3291 99.3617C71.3291 99.3617 71.1759 98.3274 70.7162 97.9827C70.3715 97.7146 70.1416 97.8295 70.1799 98.4041C70.2182 99.1318 70.2949 99.3234 70.3715 99.783C70.4481 100.204 70.8311 100.894 71.2908 100.856C71.7504 100.817 71.9036 100.549 72.1718 100.587C72.4782 100.626 72.8996 100.741 73.1294 100.626C73.3592 100.472 73.5507 100.511 73.8955 100.549C74.2402 100.587 74.968 100.319 75.0446 99.8596Z" fill="#BFBFBF"/>
<path d="M45.2772 103.46C45.2772 103.46 45.2389 102.693 45.0091 101.621C44.8942 101.085 44.3962 100.587 44.1281 101.085C43.8983 101.468 43.9749 101.927 43.8983 102.349C43.8983 102.349 43.86 102.042 43.745 101.315C43.6684 100.663 43.2471 100.548 43.0173 100.931C42.8257 101.315 42.9406 101.315 42.9023 101.659C42.864 102.119 42.864 102.655 42.864 102.655C42.864 102.655 42.9406 102.042 42.7108 101.2C42.5959 100.817 42.5193 100.395 42.0213 100.74C41.7532 100.893 41.7532 101.621 41.6383 102.387C41.6383 102.387 41.7532 101.506 41.3702 101.085C41.0637 100.778 40.719 100.702 40.6807 101.238C40.6041 101.966 40.6424 102.157 40.6424 102.617C40.6424 103.038 40.9105 103.804 41.3702 103.804C41.8298 103.843 42.0213 103.575 42.2895 103.689C42.5576 103.766 42.979 103.958 43.2471 103.881C43.5152 103.766 43.7067 103.804 44.0132 103.919C44.3579 104.034 45.124 103.881 45.2772 103.46Z" fill="#BFBFBF"/>
<path d="M59.406 77.2979C59.406 77.4894 59.406 77.6809 59.3677 77.8725C59.3677 77.9491 59.3677 78.0257 59.3294 78.1023C58.9847 80.3239 57.2993 81.8561 54.9244 81.8561C52.5112 81.8561 50.9408 80.324 50.7109 78.0257C50.7109 77.9491 50.7109 77.8725 50.7109 77.7959C50.7109 77.681 50.7109 77.5277 50.7109 77.4128C50.7109 74.7698 52.0899 72.6631 55.2308 72.6631C57.8355 72.6631 59.406 74.6549 59.406 77.2979Z" fill="#353535"/>
<path d="M51.2843 78.5618C51.2843 78.5618 50.5565 77.6042 50.0202 78.4086C49.484 79.213 50.2501 81.5879 51.5907 81.0133L51.2843 78.5618Z" fill="#A4A4A4"/>
<path d="M51.2819 80.2469C51.2436 80.2469 51.2053 80.2086 51.167 80.1703C50.9755 79.4425 50.2094 79.1361 50.2094 79.1361C50.1328 79.0978 50.1328 79.0595 50.1328 78.9829C50.1711 78.9063 50.2094 78.9062 50.286 78.9062C50.3243 78.9062 51.167 79.251 51.3969 80.0937C51.3969 80.1703 51.3586 80.2469 51.2819 80.2469Z" fill="#909090"/>
<path d="M50.5185 79.8644C50.4802 79.8644 50.4802 79.8644 50.4419 79.8644C50.4036 79.8261 50.3653 79.7495 50.4036 79.7112C50.4036 79.7112 50.5568 79.4814 50.8249 79.3665C50.8632 79.3281 50.9398 79.3664 50.9781 79.4047C51.0164 79.4431 50.9781 79.5197 50.9398 79.558C50.71 79.6729 50.6334 79.8261 50.6334 79.8261C50.5951 79.8644 50.5568 79.8644 50.5185 79.8644Z" fill="#909090"/>
<path d="M58.7937 78.5618C58.7937 78.5618 59.5215 77.6042 60.0578 78.4086C60.594 79.213 59.828 81.5879 58.4873 81.0133L58.7937 78.5618Z" fill="#A4A4A4"/>
<path d="M58.8353 80.2469C58.8736 80.2469 58.9119 80.2086 58.9502 80.1703C59.1418 79.4425 59.9079 79.1361 59.9079 79.1361C59.9845 79.0978 59.9845 79.0595 59.9845 78.9829C59.9462 78.9063 59.9079 78.9062 59.8312 78.9062C59.7929 78.9062 58.9502 79.251 58.7204 80.0937C58.6821 80.1703 58.7204 80.2469 58.8353 80.2469C58.797 80.2469 58.797 80.2469 58.8353 80.2469Z" fill="#909090"/>
<path d="M59.6034 79.8644C59.6418 79.8644 59.6418 79.8644 59.6801 79.8644C59.7184 79.8261 59.7567 79.7495 59.7184 79.7112C59.7184 79.7112 59.5651 79.4814 59.297 79.3665C59.2587 79.3281 59.1821 79.3664 59.1438 79.4047C59.1055 79.4431 59.1438 79.5197 59.1821 79.558C59.4119 79.6729 59.4885 79.8261 59.4885 79.8261C59.5268 79.8644 59.5651 79.8644 59.6034 79.8644Z" fill="#909090"/>
<path d="M56.84 83.0049V85.3797C56.84 85.3797 56.1505 86.5672 55.1929 86.6821C54.2353 86.7587 53.3926 85.6479 53.3926 85.6479V83.1964L56.84 83.0049Z" fill="#BFBFBF"/>
<path d="M56.84 83.0049V84.0391C56.1888 84.7669 55.078 84.9201 53.3926 84.6903V83.1581L56.84 83.0049Z" fill="#A4A4A4"/>
<path d="M59.3305 76.915C59.2922 77.8343 59.2156 78.9834 59.0241 79.9027C58.9858 80.1326 58.9474 80.3624 58.8708 80.5539C58.3729 82.2776 57.1471 85.2653 53.6615 84.0396C52.1293 83.5033 51.4015 81.7796 51.0951 80.0559C50.8652 78.8685 50.8652 77.6811 50.8652 76.8384C50.8652 75.9574 51.3632 75.153 52.1293 74.7316C54.1977 73.5825 56.3428 74.0039 57.7983 74.5401C58.7559 74.8849 59.3688 75.8808 59.3305 76.915Z" fill="#BFBFBF"/>
<path d="M57.8744 77.1066C57.8744 77.1066 56.9551 76.7619 56.2656 77.0683L56.3422 77.4514C56.3422 77.4514 57.3764 77.3748 57.9127 77.5663C57.951 77.4131 57.951 77.2982 57.8744 77.1066Z" fill="#353535"/>
<path d="M52.55 77.1066C52.55 77.1066 53.4693 76.7619 54.1588 77.0683L54.0822 77.4514C54.0822 77.4514 53.048 77.3748 52.5117 77.5663C52.5117 77.4131 52.5117 77.2982 52.55 77.1066Z" fill="#353535"/>
<path d="M55.1581 80.6687C54.9666 80.707 54.7751 80.6304 54.7368 80.6304C54.6602 80.6304 54.6602 80.5538 54.6602 80.4772C54.6602 80.4006 54.7368 80.4006 54.8134 80.4006C54.9283 80.4389 55.1581 80.4772 55.273 80.4006C55.273 80.4006 55.3113 80.3623 55.3113 80.2857C55.3113 79.9026 55.0432 78.6003 55.0432 78.6003C55.0432 78.5237 55.0815 78.4854 55.1198 78.4854C55.1964 78.4854 55.2347 78.5237 55.2347 78.562C55.2347 78.6003 55.5029 79.9026 55.5029 80.2857C55.5029 80.4389 55.4262 80.5155 55.3879 80.5921C55.3496 80.6304 55.2347 80.6687 55.1581 80.6687Z" fill="#A4A4A4"/>
<path d="M53.6211 81.3584C53.6977 81.8181 54.0041 82.6607 55.0384 82.6607C56.0726 82.6607 56.3407 81.8947 56.4556 81.3584H53.6211Z" fill="white"/>
<path d="M54.9625 83.3499C55.2689 83.3499 55.4988 83.1966 55.4988 83.1966C55.5371 83.1583 55.5754 83.0817 55.5371 83.0434C55.4988 83.0051 55.4222 82.9668 55.3839 83.0051C55.3839 83.0051 55.1923 83.12 54.9625 83.12C54.771 83.12 54.5412 83.0051 54.5412 83.0051C54.5029 82.9668 54.4262 83.0051 54.3879 83.0434C54.3496 83.0817 54.3879 83.1583 54.4262 83.1966C54.4645 83.1966 54.6944 83.3499 54.9625 83.3499Z" fill="#A4A4A4"/>
<path d="M59.2139 78.5621H58.7159C58.7542 78.0641 58.601 77.4513 58.4478 77.0299C58.103 76.1106 58.8308 75.6892 58.2563 75.2296C57.6434 74.7699 56.1878 74.9615 55.1153 74.9232C54.0811 74.8849 52.3957 74.9232 51.9743 74.9998C51.553 75.0764 51.7828 75.7659 51.936 76.3021C52.0893 76.8384 51.4381 77.4129 51.3232 77.9492C51.2849 78.1024 51.2849 78.3323 51.3232 78.6004H50.9018C50.8635 77.9492 50.8252 77.3363 50.8635 76.8384C50.8635 75.9574 51.3615 75.153 52.1276 74.7316C54.196 73.5825 56.341 74.0039 57.7966 74.5401C58.7925 74.9232 59.4054 75.8808 59.3671 76.9533C59.2905 77.4512 59.2905 78.0258 59.2139 78.5621Z" fill="#353535"/>
<path d="M55.8418 79.0215C55.8418 78.2554 56.4547 77.6426 57.2208 77.6426C57.9868 77.6426 58.5997 78.2554 58.5997 79.0215C58.5997 79.7876 57.9868 80.4005 57.2208 80.4005C56.493 80.4005 55.8418 79.7876 55.8418 79.0215ZM56.0716 79.0215C56.0716 79.6727 56.6079 80.209 57.2591 80.209C57.9102 80.209 58.4465 79.6727 58.4465 79.0215C58.4465 78.3704 57.9102 77.8341 57.2591 77.8341C56.6079 77.8341 56.0716 78.3704 56.0716 79.0215Z" fill="white"/>
<path d="M52.0488 79.0215C52.0488 78.2554 52.6617 77.6426 53.4278 77.6426C54.1939 77.6426 54.8067 78.2554 54.8067 79.0215C54.8067 79.7876 54.1939 80.4005 53.4278 80.4005C52.6617 80.4005 52.0488 79.7876 52.0488 79.0215ZM52.2403 79.0215C52.2403 79.6727 52.7766 80.209 53.4278 80.209C54.079 80.209 54.6152 79.6727 54.6152 79.0215C54.6152 78.3704 54.079 77.8341 53.4278 77.8341C52.7766 77.8341 52.2403 78.3704 52.2403 79.0215Z" fill="white"/>
<path d="M59.3637 77.8721C59.4403 77.9104 59.402 78.0636 59.3254 78.1019C58.8275 78.2168 58.4827 78.5232 58.4827 78.5232C58.4444 78.5616 58.4444 78.5616 58.4061 78.5616C58.3678 78.5616 58.3678 78.5616 58.3295 78.5232C58.2912 78.4849 58.2912 78.4083 58.3295 78.37C58.3295 78.37 58.7509 77.9487 59.3637 77.8721Z" fill="white"/>
<path d="M52.3547 78.5235C52.3164 78.5618 52.3164 78.5618 52.2781 78.5618C52.2398 78.5618 52.2398 78.5618 52.2015 78.5618C52.2015 78.5618 51.4354 78.0638 50.7459 78.0638C50.6693 77.9872 50.6693 77.9106 50.7459 77.834C51.512 77.834 52.3164 78.3702 52.3547 78.3702C52.3547 78.4085 52.3547 78.4852 52.3547 78.5235Z" fill="white"/>
<path d="M54.7704 78.7152C54.7704 78.7152 55.0385 78.3705 55.3833 78.3705C55.728 78.3705 55.9578 78.7152 55.9578 78.7152L56.1494 78.6003C56.1494 78.6003 55.8429 78.1406 55.3833 78.1406C54.9236 78.1406 54.6172 78.562 54.6172 78.6003L54.7704 78.7152Z" fill="white"/>
<path d="M105.912 17.6198C105.912 20.799 105.069 23.8251 103.575 26.3915C100.932 30.988 98.404 35.6611 96.0674 40.4109L94.7651 43.0922H81.8565L79.9413 39.1851C77.8346 34.8567 75.5363 30.605 73.0848 26.4681C71.5527 23.8634 70.71 20.8373 70.71 17.6198C70.71 8.082 78.3708 0.267912 87.8703 0.0380859C88.0235 0.0380859 88.215 0.0380859 88.3683 0.0380859C98.0593 0.0763903 105.912 7.92878 105.912 17.6198Z" fill="#BFBFBF"/>
<g opacity="0.5">
<path opacity="0.35" d="M74.2345 19.0376C73.545 19.0376 72.9704 18.5013 72.8938 17.8119C72.8938 17.6203 72.5491 12.7174 76.1114 7.66121C79.7503 2.49012 85.9173 1.99216 86.1471 1.99216C86.8749 1.95386 87.5261 2.49012 87.5644 3.2179C87.6027 3.94569 87.0664 4.59686 86.3387 4.63516C86.3004 4.63516 81.1676 5.09482 78.2947 9.19338C75.307 13.4069 75.5751 17.5437 75.5751 17.6203C75.6134 18.3481 75.0772 18.9993 74.3494 19.0376C74.3111 19.0376 74.2728 19.0376 74.2345 19.0376Z" fill="white"/>
</g>
<g opacity="0.4">
<path d="M94.2679 25.6646C94.153 25.6646 94.0764 25.6263 94.0381 25.5114L93.4636 24.4005L92.889 25.5114C92.8507 25.588 92.7358 25.6646 92.6592 25.6646C92.5442 25.6646 92.4676 25.6263 92.4293 25.5114L91.8548 24.4005L91.2802 25.5114C91.2419 25.588 91.127 25.6646 91.0504 25.6646C90.9355 25.6646 90.8588 25.6263 90.8205 25.5114L90.246 24.4005L89.6714 25.5114C89.6331 25.588 89.5182 25.6646 89.4416 25.6646C89.3267 25.6646 89.2501 25.6263 89.2118 25.5114L88.6372 24.4005L88.0626 25.5114C88.0243 25.588 87.9094 25.6646 87.8328 25.6646C87.7179 25.6646 87.6413 25.6263 87.603 25.5114L87.0284 24.4005L86.4538 25.5114C86.4155 25.588 86.3006 25.6646 86.224 25.6646C86.1091 25.6646 86.0325 25.6263 85.9942 25.5114L85.4196 24.4005L84.8451 25.5114C84.8068 25.588 84.6919 25.6646 84.6152 25.6646C84.5003 25.6646 84.4237 25.6263 84.3854 25.5114L83.8109 24.4005L83.2363 25.5114C83.198 25.588 83.0831 25.6646 83.0065 25.6646C82.8915 25.6646 82.8149 25.6263 82.7766 25.5114L81.9722 23.9409C81.8956 23.826 81.9722 23.6344 82.0872 23.5578C82.2021 23.4812 82.3936 23.5578 82.4702 23.6728L83.0448 24.7836L83.6193 23.6728C83.6576 23.5961 83.7726 23.5195 83.8492 23.5195C83.9641 23.5195 84.0407 23.5578 84.079 23.6728L84.6535 24.7836L85.2281 23.6728C85.2664 23.5961 85.3813 23.5195 85.4579 23.5195C85.5729 23.5195 85.6495 23.5578 85.6878 23.6728L86.2623 24.7836L86.8369 23.6728C86.8752 23.5961 86.9901 23.5195 87.0667 23.5195C87.1816 23.5195 87.2582 23.5578 87.2965 23.6728L87.8711 24.7836L88.4457 23.6728C88.484 23.5961 88.5989 23.5195 88.6755 23.5195C88.7904 23.5195 88.867 23.5578 88.9053 23.6728L89.4799 24.7836L90.0545 23.6728C90.0928 23.5961 90.2077 23.5195 90.2843 23.5195C90.3992 23.5195 90.4758 23.5578 90.5141 23.6728L91.0887 24.7836L91.6632 23.6728C91.7015 23.5961 91.8165 23.5195 91.8931 23.5195C92.008 23.5195 92.0846 23.5578 92.1229 23.6728L92.6975 24.7836L93.272 23.6728C93.3103 23.5961 93.4252 23.5195 93.5018 23.5195C93.6168 23.5195 93.6934 23.5578 93.7317 23.6728L94.3062 24.7836L94.8808 23.6728C94.9574 23.5578 95.1106 23.4812 95.2638 23.5578C95.3788 23.6344 95.4554 23.7877 95.3788 23.9409L94.5744 25.5114C94.4595 25.588 94.3828 25.6646 94.2679 25.6646Z" fill="white"/>
</g>
<path d="M84.8423 43.1314L81.165 24.4772L81.7013 24.3623L85.3785 43.1314H84.8423Z" fill="white"/>
<path d="M82.6249 24.4003C82.6249 25.0515 82.0886 25.5878 81.4374 25.5878C80.7863 25.5878 80.25 25.0515 80.25 24.4003C80.25 23.7491 80.7863 23.2129 81.4374 23.2129C82.0886 23.2129 82.6249 23.7491 82.6249 24.4003Z" fill="white"/>
<path d="M92.3929 43.1314L96.0318 24.4772L95.4956 24.3623L91.8184 43.1314H92.3929Z" fill="white"/>
<path d="M94.5762 24.4003C94.5762 25.0515 95.1124 25.5878 95.7636 25.5878C96.4148 25.5878 96.951 25.0515 96.951 24.4003C96.951 23.7491 96.4148 23.2129 95.7636 23.2129C95.1124 23.2129 94.5762 23.7491 94.5762 24.4003Z" fill="white"/>
<path opacity="0.25" d="M105.91 17.62C105.91 20.7993 105.068 23.8253 103.574 26.3917C100.931 30.9882 98.4026 35.6613 96.066 40.4111L94.7637 43.0924H83.1191C90.6268 42.3263 99.0154 28.7283 97.828 15.7431C96.6023 2.41317 88.4434 0.114913 87.8689 0C88.0221 0 88.2136 0 88.3668 0C98.0578 0.0766087 105.91 7.929 105.91 17.62Z" fill="white"/>
<path d="M95.3759 44.0119V45.9271C95.3759 46.425 94.9928 46.8081 94.4948 46.8081H81.8927C81.3948 46.8081 81.0117 46.425 81.0117 45.9271V44.0119C81.0117 43.5139 81.3948 43.1309 81.8927 43.1309H94.4948C94.9928 43.1309 95.3759 43.5139 95.3759 44.0119Z" fill="#353535"/>
<path d="M95.3759 44.7773V45.8882C95.3759 46.3861 94.9928 46.7692 94.4948 46.7692H81.8927C81.3948 46.7692 81.0117 46.3861 81.0117 45.8882V44.7773H95.3759Z" fill="#1B1B1B"/>
<path d="M95.3759 47.6896V49.6048C95.3759 50.0262 95.0694 50.4092 94.6481 50.4858C94.6098 50.4858 94.5331 50.4858 94.4948 50.4858H81.8927C81.8544 50.4858 81.7778 50.4858 81.7395 50.4858C81.3182 50.4092 81.0117 50.0645 81.0117 49.6048V47.6896C81.0117 47.1916 81.3948 46.8086 81.8927 46.8086H94.4948C94.9928 46.8086 95.3759 47.1916 95.3759 47.6896Z" fill="#353535"/>
<path d="M95.3759 48.4551V49.6042C95.3759 50.0256 95.0694 50.4086 94.6481 50.4852H81.7395C81.3182 50.4086 81.0117 50.0639 81.0117 49.6042V48.4551H95.3759Z" fill="#1B1B1B"/>
<path d="M95.3759 51.3658V53.2811C95.3759 53.7024 95.0694 54.0854 94.6481 54.1621C94.6098 54.1621 94.5715 54.1621 94.4948 54.1621H81.8927C81.8544 54.1621 81.7778 54.1621 81.7395 54.1621C81.3182 54.0854 81.0117 53.7407 81.0117 53.2811V51.3658C81.0117 50.8679 81.3948 50.4848 81.8927 50.4848H94.4948C94.9928 50.4465 95.3759 50.8679 95.3759 51.3658Z" fill="#353535"/>
<path d="M95.3759 52.1328V53.2819C95.3759 53.7033 95.0694 54.0863 94.6481 54.1629H81.7395C81.3182 54.0863 81.0117 53.7416 81.0117 53.2819V52.1328H95.3759Z" fill="#1B1B1B"/>
<path d="M84.7646 54.124C84.7646 56.0775 86.3351 57.6097 88.2886 57.6097C90.2422 57.6097 91.8126 56.0392 91.8126 54.124H84.7646Z" fill="#1B1B1B"/>
<path d="M160.308 104.263C160.308 105.374 159.427 106.255 158.316 106.255C157.205 106.255 156.324 105.374 156.324 104.263C156.324 103.152 157.205 102.271 158.316 102.271C159.427 102.271 160.308 103.191 160.308 104.263ZM156.937 104.263C156.937 105.029 157.55 105.642 158.316 105.642C159.082 105.642 159.695 105.029 159.695 104.263C159.695 103.497 159.082 102.884 158.316 102.884C157.55 102.884 156.937 103.536 156.937 104.263Z" fill="#8E8E8E"/>
<path d="M162.335 94.1129C162.335 95.2238 161.454 96.1047 160.343 96.1047C159.233 96.1047 158.352 95.2238 158.352 94.1129C158.352 93.0021 159.233 92.1211 160.343 92.1211C161.454 92.1211 162.335 93.0404 162.335 94.1129ZM159.003 94.1129C159.003 94.879 159.616 95.4919 160.382 95.4919C161.148 95.4919 161.761 94.879 161.761 94.1129C161.761 93.3468 161.148 92.734 160.382 92.734C159.616 92.7723 159.003 93.3851 159.003 94.1129Z" fill="#606060"/>
<path d="M166.44 89.325C166.44 89.5165 166.287 89.6314 166.134 89.6314H164.755C164.563 89.6314 164.448 89.4782 164.448 89.325C164.448 89.1335 164.601 89.0186 164.755 89.0186H166.134C166.287 89.0186 166.44 89.1335 166.44 89.325Z" fill="#606060"/>
<path d="M168.852 89.325C168.852 89.5165 168.699 89.6314 168.546 89.6314H167.167C166.975 89.6314 166.86 89.4782 166.86 89.325C166.86 89.1335 167.014 89.0186 167.167 89.0186H168.546C168.699 89.0186 168.852 89.1335 168.852 89.325Z" fill="#606060"/>
<path d="M166.933 87.3719V88.5976C166.933 88.7891 166.78 88.904 166.627 88.904C166.435 88.904 166.32 88.7508 166.32 88.5976V87.3719C166.32 87.1803 166.474 87.0654 166.627 87.0654C166.818 87.0654 166.933 87.2187 166.933 87.3719Z" fill="#606060"/>
<path d="M166.932 90.0144V91.2402C166.932 91.4317 166.779 91.5466 166.626 91.5466C166.434 91.5466 166.319 91.3934 166.319 91.2402V90.0144C166.319 89.8229 166.473 89.708 166.626 89.708C166.817 89.708 166.932 89.8612 166.932 90.0144Z" fill="#606060"/>
<path d="M164.18 99.9744C164.18 100.166 164.027 100.281 163.874 100.281H162.495C162.303 100.281 162.188 100.128 162.188 99.9744C162.188 99.7829 162.342 99.668 162.495 99.668H163.874C164.027 99.668 164.18 99.8212 164.18 99.9744Z" fill="#8E8E8E"/>
<path d="M166.593 99.9744C166.593 100.166 166.44 100.281 166.287 100.281H164.908C164.716 100.281 164.602 100.128 164.602 99.9744C164.602 99.7829 164.755 99.668 164.908 99.668H166.287C166.44 99.668 166.593 99.8212 166.593 99.9744Z" fill="#8E8E8E"/>
<path d="M164.716 98.0594V99.2851C164.716 99.4766 164.563 99.5915 164.41 99.5915C164.257 99.5915 164.104 99.4383 164.104 99.2851V98.0594C164.104 97.8678 164.257 97.7529 164.41 97.7529C164.563 97.7529 164.716 97.8678 164.716 98.0594Z" fill="#8E8E8E"/>
<path d="M164.717 100.665V101.891C164.717 102.082 164.564 102.197 164.411 102.197C164.258 102.197 164.104 102.044 164.104 101.891V100.665C164.104 100.473 164.258 100.358 164.411 100.358C164.564 100.358 164.717 100.512 164.717 100.665Z" fill="#8E8E8E"/>
<path d="M12.262 37.691C12.262 38.8019 11.381 39.6829 10.2701 39.6829C9.15932 39.6829 8.27832 38.8019 8.27832 37.691C8.27832 36.5802 9.15932 35.6992 10.2701 35.6992C11.381 35.6992 12.262 36.5802 12.262 37.691ZM11.6108 37.691C11.6108 36.925 10.9979 36.3121 10.2318 36.3121C9.46576 36.3121 8.85289 36.925 8.85289 37.691C8.85289 38.4571 9.46576 39.07 10.2318 39.07C10.9979 39.07 11.6108 38.4571 11.6108 37.691Z" fill="#606060"/>
<path d="M20.3792 34.9713C20.3792 36.0821 19.4982 36.9631 18.3873 36.9631C17.2765 36.9631 16.3955 36.0821 16.3955 34.9713C16.3955 33.8605 17.2765 32.9795 18.3873 32.9795C19.4982 32.9795 20.3792 33.8988 20.3792 34.9713ZM19.7663 34.9713C19.7663 34.2052 19.1534 33.5924 18.3873 33.5924C17.6212 33.5924 17.0084 34.2052 17.0084 34.9713C17.0084 35.7374 17.6212 36.3503 18.3873 36.3503C19.1534 36.3503 19.7663 35.7374 19.7663 34.9713Z" fill="#B1B1B1"/>
<path d="M20.6551 26.4287C20.4635 26.4287 20.3486 26.5819 20.3486 26.7351V28.1141C20.3486 28.3056 20.5018 28.4205 20.6551 28.4205C20.8083 28.4205 20.9615 28.2673 20.9615 28.1141V26.7351C20.9615 26.5436 20.8466 26.4287 20.6551 26.4287Z" fill="#4B4B4B"/>
<path d="M20.6551 24.0156C20.4635 24.0156 20.3486 24.1688 20.3486 24.3221V25.701C20.3486 25.8925 20.5018 26.0074 20.6551 26.0074C20.8083 26.0074 20.9615 25.8542 20.9615 25.701V24.3221C20.9615 24.1305 20.8466 24.0156 20.6551 24.0156Z" fill="#4B4B4B"/>
<path d="M22.6035 25.8926H21.3777C21.1862 25.8926 21.0713 26.0458 21.0713 26.199C21.0713 26.3905 21.2245 26.5054 21.3777 26.5054H22.6035C22.795 26.5054 22.9099 26.3522 22.9099 26.199C22.9099 26.0458 22.7567 25.8926 22.6035 25.8926Z" fill="#4B4B4B"/>
<path d="M19.9638 25.8926H18.7381C18.5466 25.8926 18.4316 26.0458 18.4316 26.199C18.4316 26.3905 18.5849 26.5054 18.7381 26.5054H19.9638C20.1553 26.5054 20.2702 26.3522 20.2702 26.199C20.2702 26.0458 20.117 25.8926 19.9638 25.8926Z" fill="#4B4B4B"/>
<path d="M12.1912 28.6504C11.9997 28.6504 11.8848 28.8036 11.8848 28.9568V30.3358C11.8848 30.5273 12.038 30.6422 12.1912 30.6422C12.3827 30.6422 12.4976 30.489 12.4976 30.3358V28.9568C12.4976 28.7653 12.3827 28.6504 12.1912 28.6504Z" fill="#4B4B4B"/>
<path d="M12.1912 26.1992C11.9997 26.1992 11.8848 26.3524 11.8848 26.5057V27.8846C11.8848 28.0761 12.038 28.191 12.1912 28.191C12.3827 28.191 12.4976 28.0378 12.4976 27.8846V26.5057C12.4976 26.3524 12.3827 26.1992 12.1912 26.1992Z" fill="#4B4B4B"/>
<path d="M14.1396 28.1143H12.9139C12.7223 28.1143 12.6074 28.2675 12.6074 28.4207C12.6074 28.6122 12.7606 28.7271 12.9139 28.7271H14.1396C14.3311 28.7271 14.446 28.5739 14.446 28.4207C14.446 28.2675 14.2928 28.1143 14.1396 28.1143Z" fill="#4B4B4B"/>
<path d="M11.497 28.1152H10.2713C10.0798 28.1152 9.96484 28.2685 9.96484 28.4217C9.96484 28.6132 10.1181 28.7281 10.2713 28.7281H11.497C11.6885 28.7281 11.8035 28.5749 11.8035 28.4217C11.8035 28.2685 11.6502 28.1152 11.497 28.1152Z" fill="#4B4B4B"/>
<path d="M117.525 23.7102C117.563 23.7102 117.602 23.7102 117.64 23.7102C118.023 23.557 118.253 23.4804 118.253 23.4804C118.368 23.4421 118.444 23.3271 118.406 23.1739C118.368 23.059 118.253 22.9824 118.1 23.0207C118.1 23.0207 117.87 23.0973 117.448 23.2888C117.334 23.3271 117.257 23.4804 117.334 23.5953C117.372 23.6719 117.448 23.7102 117.525 23.7102Z" fill="#CCCCFF"/>
<path d="M105.729 36.1201C105.575 36.5415 105.422 36.9628 105.307 37.4225C105.269 37.5374 105.154 37.614 105.077 37.5757H105.039C104.924 37.5374 104.848 37.4225 104.886 37.2692C105.039 36.8096 105.154 36.3882 105.346 35.9669C105.384 35.852 105.537 35.7754 105.652 35.8137C105.729 35.8903 105.767 36.0052 105.729 36.1201Z" fill="#D2D2D2"/>
<path d="M104.923 38.7251C104.808 39.1465 104.732 39.6061 104.655 40.0658C104.617 40.1807 104.54 40.2573 104.387 40.2573C104.272 40.219 104.195 40.1041 104.195 39.9892C104.272 39.5295 104.387 39.0699 104.502 38.6485C104.54 38.5336 104.655 38.457 104.77 38.4953C104.885 38.4953 104.961 38.6102 104.923 38.7251Z" fill="#D2D2D2"/>
<path d="M103.967 45.7341C103.852 45.7341 103.775 45.6192 103.775 45.5043C103.775 45.0446 103.775 44.585 103.775 44.1253C103.775 44.0104 103.89 43.8955 104.005 43.8955C104.12 43.8955 104.235 44.0104 104.235 44.1253C104.235 44.585 104.235 45.0446 104.235 45.5043C104.235 45.6192 104.12 45.7341 103.967 45.7341Z" fill="#D2D2D2"/>
<path d="M104.234 41.1377C104.349 41.1377 104.464 41.2526 104.426 41.4058C104.388 41.5974 104.388 41.8272 104.349 42.0187C104.311 42.2485 104.311 42.5167 104.273 42.7465C104.273 42.8614 104.158 42.9763 104.043 42.9763C103.928 42.9763 103.813 42.8614 103.851 42.7465C103.89 42.5167 103.89 42.2485 103.928 42.0187C103.966 41.7889 103.966 41.5973 104.004 41.3675C104.004 41.2143 104.119 41.1377 104.234 41.1377Z" fill="#D2D2D2"/>
<path d="M106.267 34.8942C106.228 34.9708 106.114 35.0474 106.037 35.0474C105.999 35.0474 105.999 35.0474 105.96 35.0474C105.845 35.0091 105.807 34.8559 105.845 34.741C106.037 34.3196 106.228 33.8983 106.458 33.4769C106.535 33.362 106.65 33.3237 106.765 33.362C106.88 33.4386 106.918 33.5535 106.88 33.6685C106.65 34.0515 106.42 34.4728 106.267 34.8942Z" fill="#D2D2D2"/>
<path d="M116.416 24.2842C116.033 24.4757 115.611 24.7056 115.228 24.9354C115.19 24.9737 115.152 24.9737 115.075 24.9737C114.999 24.9737 114.922 24.9354 114.884 24.8588C114.807 24.7439 114.845 24.5907 114.96 24.5523C115.343 24.3225 115.765 24.0927 116.186 23.8629C116.301 23.7863 116.454 23.8629 116.492 23.9778C116.569 24.0927 116.531 24.2076 116.416 24.2842Z" fill="#D2D2D2"/>
<path d="M112.968 26.4673C112.93 26.5056 112.853 26.5056 112.815 26.5056C112.738 26.5056 112.7 26.4673 112.662 26.429C112.585 26.3141 112.585 26.1992 112.7 26.1226C113.083 25.8544 113.428 25.5863 113.811 25.3182C113.926 25.2416 114.079 25.2799 114.117 25.3948C114.194 25.5097 114.156 25.6629 114.041 25.7012C113.696 25.931 113.313 26.1992 112.968 26.4673Z" fill="#D2D2D2"/>
<path d="M109.061 30.2599C109.023 30.3365 108.946 30.3365 108.87 30.3365C108.831 30.3365 108.793 30.2982 108.755 30.2982C108.64 30.2216 108.64 30.0683 108.716 29.9917C109.023 29.647 109.291 29.2639 109.636 28.9192C109.712 28.8426 109.866 28.8043 109.981 28.9192C110.057 28.9958 110.095 29.149 109.981 29.2639C109.674 29.5321 109.368 29.9151 109.061 30.2599Z" fill="#D2D2D2"/>
<path d="M110.901 28.2295C110.863 28.2678 110.786 28.3062 110.71 28.3062C110.671 28.3062 110.595 28.2678 110.556 28.2295C110.48 28.1529 110.48 27.9997 110.556 27.8848C110.901 27.5784 111.246 27.2336 111.591 26.9655C111.706 26.8889 111.821 26.8889 111.935 27.0038C112.012 27.1187 112.012 27.2336 111.897 27.3485C111.552 27.6167 111.246 27.9231 110.901 28.2295Z" fill="#D2D2D2"/>
<path d="M107.53 32.4814C107.491 32.558 107.376 32.5963 107.3 32.5963C107.261 32.5963 107.223 32.5963 107.185 32.558C107.07 32.4814 107.032 32.3665 107.108 32.2516C107.338 31.8685 107.606 31.4855 107.874 31.1024C107.951 30.9875 108.104 30.9875 108.181 31.0641C108.296 31.1407 108.296 31.294 108.219 31.3706C107.989 31.7153 107.759 32.0984 107.53 32.4814Z" fill="#D2D2D2"/>
<path d="M117.523 22.1396L116.527 18.3857L128.938 18.5007L117.523 22.1396Z" fill="#8E8E8E"/>
<path d="M128.936 18.5L118.134 23.0582H118.096L117.636 23.8243L117.521 22.1389L128.936 18.5Z" fill="#606060"/>
<path d="M117.637 23.8247L118.633 23.6715L118.096 23.0586L117.637 23.8247Z" fill="#4B4B4B"/>
<path d="M119.475 22.4836L118.096 23.0582L120.892 26.1992L128.936 18.5L119.475 22.4836Z" fill="#8E8E8E"/>
<path d="M170.3 68.1816H154.174V79.7112H170.3V68.1816Z" fill="#8E8E8E"/>
<path d="M170.298 76.6859L169.532 75.3452L166.927 70.9785L161.718 79.7502H170.298V76.6859Z" fill="#1B1B1B"/>
<path d="M160.647 79.7501H154.174L157.43 74.5024L160.647 69.293L163.903 74.5024L167.121 79.7501H160.647Z" fill="#353535"/>
<path d="M158.579 72.7021L160.648 74.2725L162.754 72.7021L160.648 69.293L158.579 72.7021Z" fill="white"/>
<path d="M165.168 73.9663L166.93 75.3452L168.692 73.9663L166.93 70.9785L165.168 73.9663Z" fill="white"/>
<path d="M16.9372 48.1867V55.9624C16.9372 56.4604 16.5158 56.8434 16.0562 56.8434H8.28041C7.93567 56.8434 7.62924 56.6519 7.47602 56.3838C7.47602 56.3455 7.43772 56.3072 7.43772 56.3072C7.43772 56.2689 7.39941 56.2306 7.39941 56.154C7.39941 56.154 7.39941 56.154 7.39941 56.1157C7.39941 56.0774 7.39941 56.0008 7.39941 55.9624V48.1867C7.39941 47.727 7.74415 47.344 8.2038 47.3057C8.24211 47.3057 8.28041 47.3057 8.28041 47.3057H16.0562C16.1328 47.3057 16.2477 47.3057 16.3243 47.344C16.6691 47.4206 16.9372 47.7653 16.9372 48.1867Z" fill="#8E8E8E"/>
<path d="M14.3681 52.4387C13.6786 51.1364 12.9125 49.9106 12.2997 48.4551V50.6001C12.4912 50.6767 12.6444 50.8299 12.6444 51.0598C12.6444 51.3279 12.4146 51.5577 12.1465 51.5577C11.8783 51.5577 11.6485 51.3279 11.6485 51.0598C11.6485 50.8299 11.8017 50.6384 11.9932 50.6001V48.4551C11.3804 49.9489 10.8441 50.5235 9.9248 52.4387L11.4187 53.9326H12.1465H12.8742L14.3681 52.4387Z" fill="white"/>
<path d="M12.8735 54.3926H11.418V55.197H12.8735V54.3926Z" fill="white"/>
<path d="M143.03 25.3571V32.6733C143.03 33.1329 142.647 33.5159 142.187 33.5159H134.871C134.564 33.5159 134.258 33.3244 134.143 33.0946C134.143 33.0563 134.105 33.018 134.105 33.018C134.105 32.9797 134.066 32.9414 134.066 32.9031C134.066 32.9031 134.066 32.9031 134.066 32.8648C134.066 32.8265 134.066 32.7499 134.066 32.7116V25.3954C134.066 24.9741 134.411 24.591 134.832 24.5527C134.871 24.5527 134.909 24.5527 134.909 24.5527H142.225C142.302 24.5527 142.378 24.5527 142.493 24.591C142.8 24.6676 143.03 24.9741 143.03 25.3571Z" fill="#606060"/>
<path d="M138.549 25.7393H138.51C137.514 25.7776 136.71 26.582 136.71 27.6162C136.71 27.9609 136.787 28.2673 136.978 28.5738C137.246 29.0334 137.476 29.4548 137.706 29.9144L137.897 30.3358H138.051H139.276L139.43 30.0676C139.659 29.5697 139.928 29.0717 140.234 28.5738C140.387 28.3057 140.464 27.9992 140.464 27.6545C140.387 26.582 139.583 25.7776 138.549 25.7393Z" fill="white"/>
<path d="M139.238 30.834H137.859V31.2936C137.859 31.6767 138.166 31.9831 138.549 31.9831C138.932 31.9831 139.238 31.6767 139.238 31.2936V30.834Z" fill="white"/>
<path d="M109.051 131.537H100.816C99.7051 131.537 98.7092 130.809 98.3644 129.737L94.8787 118.973C94.7255 118.552 95.0319 118.092 95.4916 118.054C101.85 117.556 108.17 117.556 114.414 118.054C114.874 118.092 115.18 118.552 115.027 118.973L111.541 129.737C111.196 130.809 110.2 131.537 109.051 131.537Z" fill="#8E8E8E"/>
<path d="M114.299 118.82C114.299 119.089 110.123 119.357 104.991 119.357C99.8578 119.357 95.6826 119.127 95.6826 118.82C95.6826 118.552 99.8578 118.284 104.991 118.284C110.123 118.322 114.299 118.552 114.299 118.82Z" fill="#1B1B1B"/>
<path d="M105.337 111.198C105.337 111.198 105.26 105.184 97.6758 104.265C97.6758 104.265 97.9439 112.768 105.337 111.198Z" fill="#4B4B4B"/>
<path d="M104.494 104.074C104.494 104.074 105.26 98.0981 112.883 98.0215C112.883 98.0215 111.695 106.448 104.494 104.074Z" fill="#4B4B4B"/>
<path d="M104.494 99.2085V118.744C104.801 118.82 105.107 118.82 105.375 118.744V99.2085C105.375 98.9786 105.184 98.7871 104.954 98.7871C104.724 98.7871 104.494 98.9786 104.494 99.2085Z" fill="#606060"/>
<path d="M104.838 104.457C104.838 104.457 109.281 108.67 114.376 100.473C114.376 100.435 105.566 98.6729 104.838 104.457Z" fill="#606060"/>
<path d="M105.147 111.084C105.147 111.084 110.126 114.684 114.072 105.874C114.072 105.874 105.108 105.3 105.147 111.084Z" fill="#606060"/>
<path d="M104.954 111.849C104.954 111.849 104.762 105.721 95.3779 107.942C95.3779 107.942 100.357 115.412 104.954 111.849Z" fill="#606060"/>
<path d="M105.414 104.112C105.414 104.112 105.375 97.9835 95.9524 99.9753C95.9141 99.9753 100.74 107.598 105.414 104.112Z" fill="#606060"/>
<path d="M5.13425 128.09L3.8319 127.783C2.75938 127.515 2.10821 126.443 2.33803 125.37L11.3013 88.0234L16.5106 89.2875L7.54743 126.634C7.3176 127.707 6.24508 128.358 5.13425 128.09Z" fill="#606060"/>
<path d="M18.406 81.482L13.1914 80.2314L11.3245 88.0161L16.5391 89.2667L18.406 81.482Z" fill="#8E8E8E"/>
<path d="M21.8362 75.153C21.4914 77.3364 20.4955 79.5197 18.3888 81.4733L13.1794 80.2475C13.1794 80.2475 11.8771 76.8001 13.1794 74.0805C13.4858 73.4676 13.754 73.008 14.0604 72.625C16.5119 69.484 19.04 72.3185 19.5762 64.9641C19.6145 64.9258 22.6406 69.9053 21.8362 75.153Z" fill="white"/>
<path d="M21.8334 75.153C20.3012 76.532 17.7348 74.2337 16.8921 73.0846C15.8962 71.7056 14.1342 72.5483 14.0576 72.5866C16.5091 69.4457 19.0372 72.2802 19.5734 64.9258C19.6117 64.9258 22.6378 69.9053 21.8334 75.153Z" fill="#D02E1B"/>
</svg>
