<?xml version="1.0" encoding="utf-8"?>
<!-- Generator: Adobe Illustrator 24.0.0, SVG Export Plug-In . SVG Version: 6.00 Build 0)  -->
<svg version="1.1" xmlns="http://www.w3.org/2000/svg" xmlns:xlink="http://www.w3.org/1999/xlink" x="0px" y="0px"
	 viewBox="0 0 654 560" style="enable-background:new 0 0 654 560;" xml:space="preserve">
<style type="text/css">
	.st0{display:none;}
	.st1{display:inline;fill:none;stroke:#FFFFFF;stroke-miterlimit:10;}
	.st2{display:inline;fill:#E1E1E1;}
	.st3{display:inline;fill:none;stroke:#2F2F2F;stroke-width:2;stroke-miterlimit:10;}
	.st4{display:inline;fill:#949494;}
	.st5{display:inline;fill:none;stroke:#A2A2A2;stroke-linecap:round;stroke-linejoin:round;}
	.st6{display:inline;fill:none;stroke:#A2A2A2;stroke-linecap:round;stroke-linejoin:round;stroke-dasharray:2.99,2.99;}
	.st7{display:inline;fill:none;stroke:#63BACE;stroke-linecap:round;stroke-linejoin:round;}
	.st8{display:inline;fill:none;stroke:#A2A2A2;stroke-linecap:round;stroke-linejoin:round;stroke-dasharray:2.91,2.91;}
	.st9{display:inline;fill:#D0D0D0;}
	.st10{display:inline;fill:#E6E6E6;}
	.st11{display:inline;fill:#BBBBBB;}
	.st12{display:inline;opacity:0.2;fill:#989898;enable-background:new    ;}
	.st13{display:inline;fill:#5F5F5F;}
	.st14{display:inline;fill:#ACACAC;}
	.st15{display:inline;fill:#9D9D9D;}
	.st16{display:inline;opacity:0.2;fill:#757575;enable-background:new    ;}
	.st17{display:inline;fill:#8B8B8B;}
	.st18{display:inline;fill:#838383;}
	.st19{display:inline;opacity:0.2;fill:#555555;enable-background:new    ;}
	.st20{display:inline;fill:#6C6C6C;}
	.st21{display:inline;fill:#6B6B6B;}
	.st22{display:inline;opacity:0.2;fill:#6A6A6A;enable-background:new    ;}
	.st23{display:inline;fill:#167F7F;}
	
		.st24{display:inline;fill:none;stroke:#A2A2A2;stroke-linecap:round;stroke-linejoin:round;stroke-miterlimit:10;stroke-dasharray:3,3;}
	.st25{display:inline;fill:#C7C7C7;}
	.st26{display:inline;fill:#FFFFFF;}
	.st27{display:inline;fill:#7A7A7A;}
	.st28{display:inline;fill:none;stroke:#7A7A7A;stroke-linecap:round;stroke-linejoin:round;stroke-miterlimit:10;}
	.st29{display:inline;opacity:0.2;}
	.st30{opacity:0.2;fill:#C2C2C2;enable-background:new    ;}
	.st31{display:inline;fill:#C2C2C2;}
	.st32{display:inline;fill:#777777;}
	.st33{display:inline;fill:#D6D6D6;}
	
		.st34{display:inline;fill:none;stroke:#7A7A7A;stroke-width:0.5;stroke-linecap:round;stroke-linejoin:round;stroke-miterlimit:10;}
	.st35{display:inline;opacity:0.55;}
	.st36{opacity:0.55;fill:#D6D6D6;enable-background:new    ;}
	.st37{display:inline;fill:none;stroke:#E5E5E5;stroke-width:16;stroke-linecap:round;stroke-linejoin:round;stroke-miterlimit:10;}
	.st38{display:inline;fill:#616161;}
	.st39{display:inline;fill:#DDDDDD;}
	.st40{display:inline;opacity:0.55;fill:#C3C3C3;enable-background:new    ;}
	.st41{display:inline;fill:none;stroke:#B7B7B7;stroke-width:0.5;stroke-linecap:round;stroke-linejoin:round;}
	
		.st42{display:inline;fill:none;stroke:#B7B7B7;stroke-width:0.5;stroke-linecap:round;stroke-linejoin:round;stroke-dasharray:1.81,1.81;}
	
		.st43{display:inline;fill:none;stroke:#B7B7B7;stroke-width:0.5;stroke-linecap:round;stroke-linejoin:round;stroke-dasharray:2.09,2.09;}
	
		.st44{display:inline;fill:none;stroke:#B7B7B7;stroke-width:0.5;stroke-linecap:round;stroke-linejoin:round;stroke-dasharray:1.79,1.79;}
	.st45{display:inline;fill:none;stroke:#DDDDDD;stroke-width:0.5;stroke-miterlimit:10;}
	.st46{display:inline;fill:none;stroke:#DDDDDD;stroke-width:0.25;stroke-miterlimit:10;}
	.st47{display:inline;fill:#B5B5B5;}
	.st48{display:inline;fill:none;stroke:#FFFFFF;stroke-width:0.25;stroke-miterlimit:10;}
	.st49{display:inline;fill:#B7B7B7;}
	.st50{display:inline;fill:#2F2F2F;}
	.st51{display:inline;fill:#062F44;}
	.st52{display:inline;fill:#252525;}
	.st53{display:inline;fill:#363636;}
	.st54{display:inline;fill:#2D2D2D;}
	.st55{display:inline;opacity:0.5;}
	.st56{opacity:0.5;}
	.st57{opacity:0.5;fill:#DAE4E5;enable-background:new    ;}
	.st58{display:inline;fill:#3A3A3A;}
	.st59{display:inline;fill:#EAEAEA;}
	.st60{display:inline;fill:#FFC25B;}
	.st61{display:inline;fill:#FFA92C;}
	.st62{display:inline;fill:#101010;}
	.st63{display:inline;opacity:0.2;fill:#9D9D9D;enable-background:new    ;}
	.st64{display:inline;fill:#A3A3A3;}
	.st65{display:inline;opacity:0.55;fill:#FFFFFF;enable-background:new    ;}
	.st66{display:inline;fill:#CACACA;}
	.st67{display:inline;fill:#CCCCCC;}
	.st68{opacity:0.5;fill:#FFFFFF;enable-background:new    ;}
	.st69{display:inline;fill:#9C9C9C;}
	.st70{display:inline;fill:#B1B1B1;}
	.st71{display:inline;fill:none;stroke:#C8C8C8;stroke-miterlimit:10;}
	.st72{display:inline;fill:#C8C8C8;}
	.st73{display:inline;fill:#BEBEBE;}
	
		.st74{display:inline;fill:none;stroke:#D02E1B;stroke-width:2.986;stroke-linecap:round;stroke-linejoin:round;stroke-miterlimit:10;}
	.st75{display:inline;}
	.st76{fill:#C2C2C2;}
	.st77{fill:#FFFFFF;}
	.st78{fill:#D02E1B;}
	.st79{fill:none;stroke:#FFFFFF;stroke-miterlimit:10;}
	.st80{opacity:0.75;fill:#D02E1B;enable-background:new    ;}
	.st81{fill:#F2F2F2;}
	.st82{fill:none;stroke:#D02E1B;stroke-width:2.986;stroke-linecap:round;stroke-linejoin:round;stroke-miterlimit:10;}
	.st83{fill:none;stroke:#C8C8C8;stroke-miterlimit:10;}
	.st84{fill:#C8C8C8;}
	.st85{fill:none;stroke:#C8C8C8;stroke-width:0.5;stroke-miterlimit:10;}
	.st86{opacity:0.75;fill:#E3E3E3;enable-background:new    ;}
	.st87{fill:#DDDDDD;}
</style>
<g id="Layer_1" class="st0">
	<path class="st1" d="M438.7,384.2l-22.9-26.8"/>
	<path class="st1" d="M422.2,357.1l17.1-17.4"/>
	<path class="st2" d="M312.8,463.1c103.5,0,187.4-10.8,187.4-24.1c0-13.3-83.9-24.1-187.4-24.1S125.4,425.7,125.4,439
		C125.4,452.3,209.3,463.1,312.8,463.1z"/>
	<path class="st2" d="M500.1,482.7c76,0,137.6-13.5,137.6-30c0-16.6-61.6-30-137.6-30c-76,0-137.6,13.5-137.6,30
		C362.5,469.3,424.1,482.7,500.1,482.7z"/>
	<path class="st2" d="M188.9,430.3c0,4.7-27.3,8.5-61.2,8.5c-33.7,0-61.2-3.8-61.2-8.5c0-4.7,27.3-8.5,61.2-8.5
		C161.5,421.8,188.9,425.6,188.9,430.3z"/>
	<path class="st3" d="M89.7,431.1l19.2-201.6"/>
	<path class="st3" d="M166.6,431.1l-19.4-201.6"/>
	<path class="st3" d="M107.5,245.5h41.3"/>
	<path class="st3" d="M105.1,269.7h46"/>
	<path class="st3" d="M102.8,293.9h50.6"/>
	<path class="st3" d="M100.5,318.1h55.3"/>
	<path class="st3" d="M98.2,342.2h59.7"/>
	<path class="st3" d="M95.8,366.4h64.5"/>
	<path class="st3" d="M93.5,390.6h69.1"/>
	<path class="st3" d="M91.3,414.8h72.9"/>
	<path class="st4" d="M149.8,230.6h-43.3c-1.4,0-2.6-1.1-2.6-2.6s1.1-2.6,2.6-2.6h43.3c1.4,0,2.6,1.1,2.6,2.6
		C152.2,229.4,151.1,230.6,149.8,230.6z"/>
	<path class="st5" d="M296.6,428.5v2.1"/>
	<path class="st6" d="M296.6,434.2v6.7c0,12.2-10,22.2-22.2,22.2h-37.9c-7.3,0-13.2-6-13.2-13.2v-15.1"/>
	<path class="st5" d="M223.1,432.9v-2.1"/>
	<path class="st7" d="M164,433.3v2.1"/>
	<path class="st6" d="M164,438.9V458c0,14.2,11.5,25.9,25.9,25.9h31.9H272c21.2,0,38.4-17.2,38.4-38.4V415"/>
	<path class="st7" d="M310.3,413.3v-2.1"/>
	<path class="st5" d="M184.1,433.3v2.1"/>
	<path class="st8" d="M184.1,438.9v19.2c0,14.2,11.5,25.9,25.9,25.9h29.5"/>
	<path class="st5" d="M241.2,483.9h2.1"/>
	<path class="st5" d="M203.5,433.3v2.1"/>
	<path class="st6" d="M203.5,438.9V458c0,14.2,11.5,25.9,25.9,25.9h32"/>
	<path class="st5" d="M263.1,483.9h2.1"/>
	<path class="st9" d="M171.1,355.2V443H157l-0.3-87.9H171.1z"/>
	<path class="st10" d="M163.7,336.1l1.4,2l6,17.1h-14.4l5.6-17.1L163.7,336.1z"/>
	<path class="st11" d="M163.7,336.1l1.4,2l-0.7,0.6l-0.7-0.6l-0.7,0.7l-0.7-0.7L163.7,336.1z"/>
	<path class="st10" d="M156.8,355.2l2,1.6l1.4-1.6H156.8z"/>
	<path class="st10" d="M160.2,355.2l2.1,1.6l1.4-1.6H160.2z"/>
	<path class="st10" d="M163.7,355.2l2.1,1.6l1.4-1.6H163.7z"/>
	<path class="st10" d="M167.3,355.2l2.1,1.6l1.7-1.6H167.3z"/>
	<path class="st12" d="M163.7,336.1l1.4,2l6,17.1V443h-4.6l-0.3-87.9l-4.6-15.1l0.6-2L163.7,336.1z"/>
	<path class="st13" d="M171.1,442H157v2.6h14.1V442z"/>
	<path class="st14" d="M190.9,355.2V443h-14.1l-0.3-87.9H190.9z"/>
	<path class="st10" d="M183.5,336.1l1.4,2l6,17.1h-14.4l5.6-17.1L183.5,336.1z"/>
	<path class="st15" d="M183.5,336.1l1.4,2l-0.7,0.6l-0.7-0.6l-0.7,0.7l-0.7-0.7L183.5,336.1z"/>
	<path class="st10" d="M176.6,355.2l2,1.6l1.6-1.6H176.6z"/>
	<path class="st10" d="M180.1,355.2l2,1.6l1.4-1.6H180.1z"/>
	<path class="st10" d="M183.5,355.2l2.1,1.6l1.4-1.6H183.5z"/>
	<path class="st10" d="M187.1,355.2l2.1,1.6l1.7-1.6H187.1z"/>
	<path class="st16" d="M183.5,336.1l1.4,2l6,17.1V443h-4.6l-0.3-87.9l-4.6-15.1l0.6-2L183.5,336.1z"/>
	<path class="st13" d="M190.9,442h-14.1v2.6h14.1V442z"/>
	<path class="st17" d="M210.7,355.2V443h-14.1l-0.3-87.9H210.7z"/>
	<path class="st10" d="M203.3,336.1l1.4,2l6,17.1h-14.4l5.7-17.1L203.3,336.1z"/>
	<path class="st18" d="M203.3,336.1l1.4,2l-0.7,0.6l-0.7-0.6l-0.7,0.7l-0.6-0.7L203.3,336.1z"/>
	<path class="st10" d="M196.4,355.2l2,1.6l1.6-1.6H196.4z"/>
	<path class="st10" d="M199.9,355.2l2,1.6l1.4-1.6H199.9z"/>
	<path class="st10" d="M203.3,355.2l2.1,1.6l1.4-1.6H203.3z"/>
	<path class="st10" d="M206.9,355.2l2.1,1.6l1.7-1.6H206.9z"/>
	<path class="st19" d="M203.3,336.1l1.4,2l6,17.1V443h-4.6l-0.3-87.9l-4.6-15.1l0.7-2L203.3,336.1z"/>
	<path class="st13" d="M210.7,442h-14.1v2.6h14.1V442z"/>
	<path class="st20" d="M230.5,355.2V443h-14.1l-0.3-87.9H230.5z"/>
	<path class="st10" d="M223.1,336.1l1.4,2l6,17.1h-14.4l5.7-17.1L223.1,336.1z"/>
	<path class="st21" d="M223.1,336.1l1.4,2l-0.7,0.6l-0.7-0.6l-0.7,0.7l-0.6-0.7L223.1,336.1z"/>
	<path class="st10" d="M216.1,355.2l2,1.6l1.6-1.6H216.1z"/>
	<path class="st10" d="M219.7,355.2l2,1.6l1.4-1.6H219.7z"/>
	<path class="st10" d="M223.1,355.2l2.1,1.6l1.4-1.6H223.1z"/>
	<path class="st10" d="M226.7,355.2l2.1,1.6l1.7-1.6H226.7z"/>
	<path class="st22" d="M223.1,336.1l1.4,2l6,17.1V443H226l-0.3-87.9l-4.6-15.1l0.7-2L223.1,336.1z"/>
	<path class="st23" d="M230.5,442h-14.1v2.6h14.1V442z"/>
	<path class="st24" d="M555.5,472.5h89.3c4.6,0,8.1,3.7,8.1,8.1c0,4.6-3.7,8.1-8.1,8.1H363.7c-14.8,0-26.8-12-26.8-26.8v-31.8"/>
	<path class="st24" d="M319.8,434.5v54c0,15-12.1,27.1-27.1,27.1h-9.5"/>
	<path class="st24" d="M355,418.7V441c0,9,7.3,16.2,16.2,16.2H469"/>
	<path class="st25" d="M427.9,133.7C404.7,105,370.2,84.6,332.5,84c-21.8-0.4-44.7,2.6-64.2,12.8c-16.9,9.1-31.9,21.9-44,36.9
		c-20.8,25.8-32.8,59.2-29.2,92.1c3,27.5,16.5,52.7,34.5,73.2c17.5,20.1,43,36.7,47.3,65.1c1.3,8.1-1.7,19.4,4.4,25.8
		c7.4,7.7,19.4,5,28.8,5c11.3-0.1,22.4-0.1,33.6-0.1c8,0,20.9,2.1,26.9-4.7c6.1-6.6,3.1-17.7,4.4-25.8c3.3-21.4,19.9-38.7,35.3-52.7
		c17.7-15.9,31.6-34.3,39.4-57.1C464.6,212.5,455.7,168,427.9,133.7z"/>
	<path class="st26" d="M319.2,419.5c-0.1-13.8-0.9-27.8-1.4-41.6c-0.9-22.9-1.9-45.9-4-68.6c-1.1-13.4-3-26.5-7.4-39.2
		c-3.1-8.8-8.4-20.4-18.4-23.2c-7.1-2-15.1,2.4-16.5,9.8c-2.1,10.5,8,20.2,16.9,23.6c10.4,3.8,25.2,2,34.3-4.3
		c10-6.8,15.7-18.7,17.5-30.3c1.3-9,1.4-19.2-8.3-23.4c-8.4-3.6-15.4,3.1-16.2,11.4c-0.9,8.7,1.6,18.1,4.8,25.9
		c3.3,7.8,8.8,16.4,17.7,18.5c12.5,2.8,26.5-4.3,35-13.1c6.1-6.4,16.4-20.1,8.1-28.6c-3.8-3.8-10-4.3-14.7-2.1
		c-6.3,2.7-10.5,8.8-14.1,14.4c-8,12.7-11.7,27.5-13,42.3c-1.4,17.2-1.7,34.6-2.3,51.7c-0.6,16.8-1,33.5-1.4,50.3
		c-0.3,8.5-0.3,17.2-0.4,25.8c0,1.4,2.1,1.4,2.1,0c1.4-28.9,2.1-58,3.1-87c0.6-14.4,0.7-28.9,2.1-43.3c1.4-13.7,5.1-27.2,12.7-38.7
		c3.4-5.3,8.3-12.2,15-13.4c7.1-1.3,11.5,4.4,9.8,11.1c-2.7,10.7-13.1,20.2-22.8,24.5c-5.7,2.6-13.1,4.4-19.2,2.7
		c-3.7-1-6.7-3.6-9.1-6.4c-5.4-6.5-8.4-15.2-9.8-23.5c-1.1-6.1-2.4-16.7,4.7-19.9c3.7-1.7,8.3,0.6,10.8,3.4c3,3.4,2.7,8.4,2.4,12.7
		c-0.7,11-5,22.5-13.4,29.9c-8.3,7.4-21.9,9.8-32.6,7.1c-8.5-2.1-20.5-12.2-16.7-22.2c2.8-7.4,11.4-7.7,16.9-3.6
		c9.4,7.3,12.8,21.2,15.4,32c2.3,9.8,3.1,20.1,4,30c2.8,34.2,3.8,68.5,6.3,102.8c0,0.7,0.1,1.6,0.1,2.3
		C317.8,420.4,319.2,420.5,319.2,419.5z"/>
	<path class="st27" d="M363.4,394.6h-75.9v7.5h75.9V394.6z"/>
	<path class="st4" d="M367.8,427.9c-1.3-1.6-1.3-4.1,0.1-5.7l0.4-0.6c1.4-1.4,1.4-4,0.1-5.6l-0.7-1c-1.3-1.7-1.1-4.3,0.3-5.7
		c1.4-1.4,1.7-4,0.4-5.7l-2-2.7c-0.7-1-1.9-1.6-3.1-1.6h-75.5c-1.3,0-2.4,0.6-3.1,1.6l-2,2.7c-1.3,1.7-1,4.3,0.4,5.7
		c1.6,1.4,1.7,4.1,0.3,5.7l-0.7,1c-1.3,1.6-1.1,4.1,0.1,5.6l0.4,0.6c1.4,1.4,1.4,4,0.1,5.7l-0.6,0.7c-1.3,1.6-1.3,4.3,0.3,5.7
		l0.3,0.3c1.6,1.6,3.7,2.6,5.7,2.6h72.9c2.1,0,4.1-0.9,5.7-2.6l0.3-0.3c1.4-1.4,1.6-4.1,0.3-5.7L367.8,427.9z"/>
	<path class="st28" d="M328.8,409.8H364"/>
	<path class="st28" d="M293.6,409.8h19.5"/>
	<path class="st28" d="M288.5,418.5h51"/>
	<path class="st28" d="M349,418.5h15.1"/>
	<path class="st28" d="M293.6,427.1H321"/>
	<path class="st28" d="M338.8,427.1h11"/>
	<path class="st28" d="M318,409.8h4"/>
	<g class="st29">
		<path class="st30" d="M427.9,133.7C404.7,105,370.2,84.6,332.5,84c-4.3-0.1-8.7,0-13,0.1c60.2,3.7,112.5,56.1,110.5,119
			c-1.7,53-27.5,90.7-81,113.9c-11.2,4.8-19.2,12.2-21.1,25.1c-1.7,11.8,2.1,23.9-0.4,35.7c-0.4,1.9-1,3.6-2.1,5
			c-1.1,1.3-2.8,1.9-4.4,2.4c-13.2,4.7-27.3,5.1-41.2,2.6c0.4,0.7,1,1.4,1.6,2.1c7.4,7.7,19.4,5,28.8,5c11.3-0.1,22.4-0.1,33.6-0.1
			c8,0,20.9,2.1,26.9-4.7c6.1-6.6,3.1-17.7,4.4-25.8c3.3-21.4,19.9-38.7,35.3-52.7c17.7-15.9,31.6-34.3,39.4-57.1
			C464.6,212.5,455.7,168,427.9,133.7z"/>
	</g>
	<path class="st4" d="M637.6,444.4c0,0-11.7-8.3-21.2-9.7c-18.7-2.7-29.2,4.7-39.3-1c-4.1-2.3,6.1-4,7.3-6.6c0.1-0.4,0-4,0-4
		s-2.1,1.1-4.8,0.1c-18.8-6.8-34.7-6.1-62.1-6.1c-61.1,0-111.5,11-119,25.2h-1v3.8c0.4,15.8,54,28.6,119.9,28.6
		c63.8,0,119.5-12.2,120.2-27.1L637.6,444.4z M558.8,446.3c-8.7,0-15.7-2.6-15.7-5.7s7-5.7,15.7-5.7c8.7,0,15.7,2.6,15.7,5.7
		S567.4,446.3,558.8,446.3z"/>
	<path class="st31" d="M637.5,443c-1.6-6.3-11.5-10.1-20.9-11.4c-18.7-2.7-29.2,4.7-39.3-1c-5.8-3.3,16.9-5.1,2.4-10.4
		c-18.8-6.8-34.7-6.1-62.1-6.1c-66.2,0-119.9,13-119.9,28.9s53.7,28.9,119.9,28.9C583.8,471.8,641.4,458.5,637.5,443z M558.8,442.9
		c-8.7,0-15.7-2.6-15.7-5.7c0-3.1,7-5.7,15.7-5.7c8.7,0,15.7,2.6,15.7,5.7C574.4,440.5,567.4,442.9,558.8,442.9z"/>
	<path class="st14" d="M463.8,446.1c-0.4-0.9-1.3-1.6-2-2.1c-1.9-1.4-3.8-2.6-6-3.3c0.6-0.1,0.7-1,0.4-1.4c-0.3-0.6-0.7-0.9-1.3-1
		c-2.3-1-4.8-0.9-7.4-0.7c-5,0.3-10,0.6-15,1.6c-2.3,0.4-4.8,1.3-5.8,3.6c-0.4,0.9-0.4,2-0.3,2.8c-0.6,0.4-1.3,0.3-1.9,0.6
		c-0.6,0.1-1.3,0.9-1,1.4c0,0.3,0.3,0.4,0.4,0.6c4.6,4.7,11.4,5.8,17.5,5.8c6.6,0,13.5-0.9,19.8-2.8c1-0.3,2.3-0.9,2.7-1.9
		C464.3,448.1,464.2,447,463.8,446.1z"/>
	<path class="st17" d="M509.9,430.2c-0.4-0.9-1.3-1.6-2-2.1c-1.9-1.4-3.8-2.6-6-3.3c0.6-0.1,0.7-1,0.4-1.4c-0.3-0.6-0.7-0.9-1.3-1
		c-2.3-1-4.8-0.9-7.4-0.7c-5,0.3-10,0.6-15,1.6c-2.3,0.4-4.8,1.3-5.8,3.6c-0.4,0.9-0.4,2-0.3,2.8c-0.6,0.4-1.3,0.3-1.9,0.6
		c-0.6,0.1-1.3,0.9-1,1.4c0,0.3,0.3,0.4,0.4,0.6c4.6,4.7,11.4,5.8,17.5,5.8c6.6,0,13.5-0.9,19.8-2.8c1-0.3,2.3-0.9,2.7-1.9
		C510.5,432.3,510.3,431.2,509.9,430.2z"/>
	<path class="st20" d="M593.2,453.7c-0.4-0.7-1-1.3-1.7-1.9c-1.6-1.3-3.3-2.1-5.1-2.8c0.4-0.1,0.6-0.9,0.3-1.3
		c-0.3-0.4-0.7-0.7-1.1-0.9c-2-0.9-4.3-0.7-6.4-0.6c-4.3,0.3-8.5,0.4-12.8,1.3c-2,0.4-4.1,1.1-5,3c-0.3,0.7-0.4,1.7-0.3,2.4
		c-0.4,0.3-1,0.3-1.6,0.4c-0.6,0.1-1,0.7-0.9,1.3c0,0.3,0.3,0.4,0.4,0.6c4,4,9.7,5,15,5c5.7,0,11.5-0.7,16.9-2.4
		c0.9-0.3,1.9-0.7,2.4-1.6C593.8,455.4,593.6,454.4,593.2,453.7z"/>
	<path class="st32" d="M529.1,453.8c-0.4-0.9-1.3-1.6-2-2.1c-1.9-1.4-3.8-2.6-6-3.3c0.6-0.1,0.7-1,0.4-1.4c-0.3-0.6-0.7-0.9-1.3-1
		c-2.3-1-4.8-0.9-7.4-0.7c-5,0.3-10,0.6-15,1.6c-2.3,0.4-4.8,1.3-5.8,3.6c-0.4,0.9-0.4,2-0.3,2.8c-0.6,0.4-1.3,0.3-1.9,0.6
		c-0.6,0.1-1.3,0.9-1,1.4c0,0.3,0.3,0.4,0.4,0.6c4.6,4.7,11.4,5.8,17.5,5.8c6.6,0,13.5-0.9,19.8-2.8c1-0.3,2.3-0.9,2.7-1.9
		C529.9,455.8,529.7,454.7,529.1,453.8z"/>
	<path class="st2" d="M163.9,523.8c0,3.1-21.8,5.7-48.8,5.7c-26.9,0-48.8-2.6-48.8-5.7c0-3.1,21.8-5.7,48.8-5.7
		C142,518.1,163.9,520.6,163.9,523.8z"/>
	<path class="st33" d="M62.6,503.4c-4.8-9.5-6.1-20.9-1.9-30.9c2.4-5.8,6-11.5,11-15.4c4.4-3.4,9.5-5.8,15-7.3
		c9.3-2.4,19.5-1.6,27.8,3.1c6.8,4,12,10.5,15.2,17.7c3.3,7,4.6,15.7,11.5,20.1c2,1.3,5.3,1.9,6.3,4.3c1.1,2.8-1,5.7-2.1,8.1
		c-1.3,3-2.7,5.8-4,8.8c-1,2.1-1.9,5.7-4.4,6.6c-2.4,0.9-5-1.3-7.3-1.9c-6-1.7-12.5,0.7-18.1,3.1c-6.3,2.7-12.8,4.3-19.7,3.7
		C79,522.3,68.3,514.8,62.6,503.4z"/>
	<path class="st1" d="M145.8,506.1c0,0-19.4-9.5-28.6-14.8c-2.4-1.4-5-2.7-8.4-5.8c-2.1-2-6.6-6.6-3.7-9.5c3.3-3.6,7.3,2.3,7.3,5.6
		c0,2.7-2.3,6.6-4.6,8.1c-3.8,2.7-9.8,2-13.5-0.3c-2.8-1.7-1.3-6,1.9-5.7c3,0.1,11.5,6.6,9.5,11.7c-1,2.7-3.3,4.8-5.8,6.1
		c-4.7,2.3-10.7-3.6-4.1-5.7c4.7-1.4,10.5,0.1,15,1.9c12,4.6,21.1,8.5,32.9,13.4"/>
	<path class="st27" d="M140.8,518.1l9-20l-1.9-0.9l-9,20L140.8,518.1z"/>
	<path class="st4" d="M147.1,522.2c-0.3-0.6-1-0.9-1.6-0.6h-0.1c-0.6,0.1-1.3-0.1-1.4-0.6l-0.1-0.3c-0.3-0.6-1-0.9-1.6-0.6
		c-0.6,0.3-1.3,0-1.6-0.6l-0.4-0.9c-0.1-0.3-0.1-0.7,0-1l8.8-19.9c0.1-0.3,0.4-0.6,0.9-0.7l1-0.3c0.6-0.1,1.3,0.3,1.4,0.7
		c0.1,0.6,0.9,0.9,1.4,0.7l0.3-0.1c0.6-0.1,1.3,0.1,1.4,0.7l0.1,0.1c0.3,0.6,0.9,0.9,1.4,0.7l0.3-0.1c0.6-0.1,1.3,0.1,1.4,0.7v0.1
		c0.3,0.6,0.3,1.3,0,1.9l-8.5,19.2c-0.3,0.6-0.7,1-1.3,1.3h-0.1c-0.6,0.1-1.3-0.1-1.6-0.6H147.1z"/>
	<path class="st34" d="M146.9,509.8l-4.1,9.3"/>
	<path class="st34" d="M151.1,500.5l-2.3,5.1"/>
	<path class="st34" d="M153.9,500.3l-6,13.4"/>
	<path class="st34" d="M146.8,516.2l-1.7,4"/>
	<path class="st34" d="M155.6,502.5l-3.1,7.3"/>
	<path class="st34" d="M150.4,514.5l-1.3,2.8"/>
	<path class="st34" d="M148.2,507l-0.4,1.1"/>
	<g class="st35">
		<path class="st36" d="M62.6,503.4c-4.8-9.5-6.1-20.9-1.9-30.9c0.4-1.1,1-2.3,1.6-3.4c-6.1,16.2,1.6,36.2,18.4,43.1
			c14.1,5.8,27.2,3.4,39.6-7.8c2.6-2.4,5.6-3.6,9.1-2.6c3.3,1,6,3.4,9.4,4.1c0.6,0.1,1,0.1,1.6,0c0.4-0.1,0.9-0.6,1.1-0.9
			c2.8-2.8,4.6-6.5,5.6-10.5c0.1,0.1,0.3,0.4,0.4,0.7c1.1,2.8-1,5.7-2.1,8.1c-1.3,3-2.7,5.8-4,8.8c-1,2.1-1.9,5.7-4.4,6.5
			c-2.4,0.9-5-1.3-7.3-1.9c-6-1.7-12.5,0.7-18.1,3.1c-6.3,2.7-12.8,4.3-19.7,3.7C79,522.3,68.3,514.8,62.6,503.4z"/>
	</g>
	<path class="st2" d="M524.9,512.4c0,2.4-17.1,4.6-38.3,4.6c-21.2,0-38.3-2-38.3-4.6c0-2.4,17.1-4.6,38.3-4.6
		C507.8,507.9,524.9,509.9,524.9,512.4z"/>
	<path class="st33" d="M525.7,499.1c3.7-7,4.8-15.5,1.9-22.9c-1.7-4.3-4.3-8.5-7.8-11.5c-3.1-2.6-7-4.4-11-5.6
		c-6.8-2-14.4-1.6-20.6,2c-5.1,2.8-9,7.7-11.5,13c-2.6,5.1-3.7,11.5-8.8,14.8c-1.4,0.9-4,1.3-4.7,3c-0.9,2.1,0.6,4.3,1.4,6.1
		c1,2.1,1.9,4.4,2.8,6.6c0.7,1.6,1.3,4.3,3.1,4.8c1.9,0.7,3.7-0.9,5.4-1.3c4.6-1.1,9.3,0.7,13.4,2.6c4.6,2.1,9.4,3.4,14.5,3
		C513.2,512.8,521.2,507.4,525.7,499.1z"/>
	<path class="st1" d="M463.9,499.7c0,0,14.5-6.8,21.5-10.5c1.9-1,3.8-2,6.4-4.1c4.3-3.6,3.8-6.4,2.1-7.4c-2.3-1.3-4.7,1.1-4.7,4.4
		c0,2,1.6,5,3.3,6.1c2.8,2.1,7.3,1.7,10.1,0c1.4-0.9,1.9-4.4-1.3-4.3c-2.3,0.1-8.5,4.7-7.3,8.5c0.7,2,2.3,3.6,4.3,4.6
		c1.4,0.7,4.1,1.3,5.7,0.7c3.3-1-0.3-4.3-2-4.7c-3.8-1.1-8-0.4-11.7,1c-8.8,3.3-15.8,6-24.6,9.4"/>
	<path class="st27" d="M468.9,508.2l-6.3-14.9l-1.4,0.6l6.3,14.9L468.9,508.2z"/>
	<path class="st4" d="M462.6,511.8c0.1-0.4,0.7-0.6,1.1-0.4h0.1c0.4,0.1,0.9,0,1.1-0.4l0.1-0.3c0.3-0.4,0.7-0.6,1.1-0.4
		c0.4,0.1,0.9,0,1.1-0.4l0.4-0.6c0.1-0.3,0.1-0.6,0-0.7l-6.3-14.8c-0.1-0.3-0.3-0.4-0.6-0.4l-0.7-0.1c-0.4-0.1-1,0.1-1.1,0.6
		c-0.1,0.4-0.7,0.7-1.1,0.6h-0.3c-0.4-0.1-0.9,0.1-1.1,0.6v0.1c-0.1,0.4-0.7,0.6-1.1,0.4h-0.1c-0.4-0.1-1,0.1-1.1,0.6v0.1
		c-0.1,0.4-0.1,1,0,1.3l6.1,14.4c0.1,0.4,0.6,0.7,1,0.9h0.1c0.4,0.1,1,0,1.1-0.4V511.8z"/>
	<path class="st34" d="M463.1,502.5l2.8,7"/>
	<path class="st34" d="M460.1,495.6l1.6,3.8"/>
	<path class="st34" d="M457.9,495.3l4.3,10.1"/>
	<path class="st34" d="M463.1,507.2l1.1,3"/>
	<path class="st34" d="M456.7,497.1l2.3,5.3"/>
	<path class="st34" d="M460.5,506l0.9,2.1"/>
	<path class="st34" d="M462.1,500.4l0.4,0.9"/>
	<g class="st35">
		<path class="st36" d="M525.7,499.1c3.7-7,4.8-15.5,1.9-22.9c-0.3-0.9-0.7-1.7-1.1-2.6c4.3,12.2-1.7,26.8-14.2,31.8
			c-10.5,4.1-20.2,2.1-29.2-6.4c-1.9-1.9-4-2.7-6.7-2c-2.4,0.7-4.6,2.4-7.1,2.8c-0.4,0.1-0.9,0.1-1.1,0c-0.3-0.1-0.6-0.4-0.9-0.7
			c-2-2.1-3.3-5-4-7.8c-0.1,0.1-0.1,0.3-0.3,0.4c-0.9,2.1,0.6,4.3,1.4,6.1c1,2.1,1.9,4.4,2.8,6.5c0.7,1.6,1.3,4.3,3.1,4.8
			c1.9,0.7,3.7-0.9,5.4-1.3c4.6-1.1,9.3,0.7,13.4,2.6c4.6,2.1,9.4,3.4,14.5,3C513.2,512.8,521.2,507.4,525.7,499.1z"/>
	</g>
	<path class="st37" d="M238.9,157.6c-11,14.8-21.5,33.2-21.2,66.9"/>
	<path class="st37" d="M269.3,126.6c0,0-2.7,1.6-5.6,5.1"/>
	<path class="st2" d="M294.5,550.5c0,5.1-22.8,9.3-50.8,9.3s-50.8-4.1-50.8-9.3c0-5.1,22.8-9.3,50.8-9.3
		C271.8,541.3,294.5,545.4,294.5,550.5z"/>
	<path class="st38" d="M277.2,529.2h-44.4l22.2-7.3h45l-0.1,0.4l-21.4,6.5C278.1,529,277.7,529.2,277.2,529.2z"/>
	<path class="st39" d="M276.7,528.5h-43.4L255,522h44l-21.2,6.3C277.5,528.3,277.1,528.5,276.7,528.5z"/>
	<path class="st40" d="M273.1,527.3h-28.8l14.4-4.3h29.2l-14.1,4.1C273.7,527.3,273.4,527.3,273.1,527.3z"/>
	<path class="st38" d="M300,521.9h-45l5.7-24.9c0.3-0.9,1.1-1.4,2-1.4h40.6c1.4,0,2.4,1.3,2,2.4L300,521.9z"/>
	<path class="st27" d="M299,521.9h-44l5.7-24.9c0.3-0.9,1.1-1.4,2-1.4h39.6c1.4,0,2.4,1.3,2,2.4L299,521.9z"/>
	<path class="st39" d="M297,520.3h-39.7l5.1-23.2h39.7L297,520.3z"/>
	<path class="st41" d="M292.9,515.9l-0.4,1.4H291"/>
	<path class="st42" d="M287.9,517.3h-21.6"/>
	<path class="st41" d="M264.7,517.3h-1.4l0.3-1.4"/>
	<path class="st43" d="M264.3,512.4l2.7-12.1H293"/>
	<path class="st41" d="M294.9,500.3h1.4l-0.3,1.4"/>
	<path class="st44" d="M295.3,504.8l-2.1,9.5"/>
	<path class="st45" d="M244.3,526.2h36"/>
	<path class="st46" d="M251,524.3h36"/>
	<path class="st47" d="M240.6,523.9c1.6-1.3,4.1-1.6,6.1-1.9c2-0.3,3.8-0.1,5.8-0.1c1.1,0,0.9,1.4-0.1,1.6c-1.1,0.1-2.3,0.1-3.4,0
		c-0.7,1-1.9,1.6-3,2c-1.1,0.3-2.4,0.4-3.6,0.3c-0.3,0-0.7-0.1-0.9-0.4"/>
	<path class="st48" d="M288.1,508.9l-8.3-8.3"/>
	<path class="st26" d="M287.9,508.8c0.1-0.1,0.4-0.1,0.6,0s0.1,0.4,0,0.6c-0.1,0.1-0.4,0.1-0.6,0
		C287.8,509.2,287.8,508.9,287.9,508.8z"/>
	<path class="st26" d="M284.8,511.6c0.1-0.1,0.4-0.1,0.6,0c0.1,0.1,0.1,0.4,0,0.6c-0.1,0.1-0.4,0.1-0.6,0
		C284.6,512.1,284.6,511.8,284.8,511.6z"/>
	<path class="st26" d="M276.2,503.1c0.1-0.1,0.4-0.1,0.6,0c0.1,0.1,0.1,0.4,0,0.6c-0.1,0.1-0.4,0.1-0.6,0
		C276.1,503.5,276.1,503.2,276.2,503.1z"/>
	<path class="st26" d="M279.5,500.4c0.1-0.1,0.4-0.1,0.6,0c0.1,0.1,0.1,0.4,0,0.6c-0.1,0.1-0.4,0.1-0.6,0
		C279.2,500.8,279.2,500.5,279.5,500.4z"/>
	<path class="st48" d="M276.5,503.4c0,0,4-1.9,7.3,1.3c3.3,3.3,1.3,7.3,1.3,7.3"/>
	<path class="st26" d="M278.4,505.5l5.3-0.9l-4.1,4.4c-0.4-0.4-1.3-0.4-1.7,0c-0.4,0.4-0.4,1.3,0,1.7c0.4,0.4,1.3,0.4,1.7,0
		c0.4-0.4,0.4-1.3,0-1.7l4.3-4.3c0,0-0.6,3.7-0.9,5.6c-1.3,0.6-5.4,3.1-6.4,4c-0.1,0.1-2.4-2.1-2.3-2.3
		C275.7,510.2,278.4,505.5,278.4,505.5z"/>
	<path class="st26" d="M272.7,511.8l0.9-0.9c0.1-0.1,0.4-0.1,0.6,0l3.6,3.6c0.1,0.1,0.1,0.4,0,0.6l-0.9,0.9c-0.1,0.1-0.4,0.1-0.6,0
		l-3.6-3.6C272.5,512.2,272.5,512.1,272.7,511.8z"/>
	<path class="st49" d="M268.5,500.3c0,0.7-0.6,1.3-1.3,1.3s-1.3-0.6-1.3-1.3s0.6-1.3,1.3-1.3S268.5,499.5,268.5,500.3z"/>
	<path class="st49" d="M264.6,517.3c0,0.7-0.6,1.3-1.3,1.3s-1.3-0.6-1.3-1.3c0-0.7,0.6-1.3,1.3-1.3
		C263.8,516.1,264.6,516.6,264.6,517.3z"/>
	<path class="st49" d="M292.3,518.6c0.7,0,1.3-0.6,1.3-1.3s-0.6-1.3-1.3-1.3c-0.7,0-1.3,0.6-1.3,1.3S291.6,518.6,292.3,518.6z"/>
	<path class="st49" d="M297.2,500.3c0,0.7-0.6,1.3-1.3,1.3s-1.3-0.6-1.3-1.3s0.6-1.3,1.3-1.3S297.2,499.5,297.2,500.3z"/>
	<path class="st50" d="M207.6,527c-0.9,3.1-0.7,5.7-1.3,8.8c-0.9,4.7-1.3,10.3,2,13.8c2.3,2.6,4.4,3.6,7.8,3.7c3,0,5.8-0.4,8.8-0.6
		c2,0,8,0.4,10,0.6c8.8,0.3,13.8-1.6,22.5-2.7c6-0.7,17.1-3,22.9-4.6c22.6-6.1,14.4-15.2,9.4-16.8c-1.1-0.3-6-2-6-2l-6.5,1.9h-23.1
		c0,0-9.7-0.4-13.8-1.4"/>
	<path class="st47" d="M273.5,514.5c0.6,0.3,0.9,0.6,1.4,1c1,0.7,2,1.1,3.1,1.6c1,0.4,2.1,0.9,3.1,1.3c0.3,0.1,0.4,0.1,0.6,0.3
		c0.3,0.3,0.3,0.6,0.4,1c0.7,3.3,1.3,6.7,0.4,10.3c-0.9-1.1-1.4-2.4-1.9-3.7c-0.1-0.7-0.4-1.3-0.9-1.9c-0.3-0.3-0.7-0.4-1-0.6
		c-1.1-0.7-2-1.7-2.8-2.7c-0.1-0.3-0.4-0.6-0.4-0.9c0-0.1,0-0.3,0-0.3c0-0.1-0.1-0.1-0.3-0.3c-1.3-0.9-2.6-1.7-3.8-2.6"/>
	<path class="st4" d="M211.4,527c-1.9-1.3-3.8-2.8-5.7-4.4c-4.3-3.6-8.1-7.5-8.5-10.4c-1-6.4-0.3-25.3,0.3-34.3c0-0.6,0-1,0.1-1.6
		c0.6-8.4,5.1-12.2,7.3-13.5c1.1,11,3.8,35.9,4,37.2C209.2,501.5,211.4,527,211.4,527z"/>
	<path class="st27" d="M211.4,527c-1.9-1.3-3.8-2.8-5.7-4.4c-0.1-7-2.7-5.4-5.7-17.7c-3.4-15.4-0.9-29.5-0.9-29.5l7,1
		c1.1,10.8,2.4,22.6,2.6,23.5C209.2,501.5,211.4,527,211.4,527z"/>
	<path class="st47" d="M215.7,457.8c0,0,1.6-5.1,0.9-8.8c-0.7-3.7-2.8-10.5-2-15.5c0.9-5,7.3-9.3,14-8.5c6.7,0.7,8.7,7.1,9.8,10.8
		c1.1,3.7,1,9.4,0.7,12.5c-0.3,3.1-2,5.6-3.1,6.1c-1.1,0.6-5.4-0.1-6.1,0.6c-0.7,0.9-1.3,5.6-1.3,5.6"/>
	<path class="st4" d="M212.6,461.8c0,0,0.4-3,1.6-4c1.1-1,8.5-1,10.8-0.7c2.3,0.3,7.8,2.8,8.5,3.4c0.7,0.6-0.7,3.4-0.7,3.4
		L212.6,461.8z"/>
	<path class="st50" d="M216,451.6c0,0,9.4,0.9,11.1,0c1.7-0.9,4.4-2.6,4.6-5.7c0.3-3.1-0.4-4.1,0.9-6c1.3-1.7,2.3-1.1,2.4,0.6
		c0.1,1.7,0.3,4.7,0.7,5c0.6,0.3,1.3-1.9,1.1-5.1c-0.1-2.8-0.6-5-1.4-6.8c-0.9-1.9-1.3-1.7-2-2.1c0.9-0.4,1.7-0.4,3.3-3
		c1.9-3,0.9-7.5-4.1-7.4c-8.7,0-17.8,1.7-18.1,8.1c0,0-3-0.4-3.1,5.4c-0.1,5.8,3.7,13,4,14.7C215.6,450.8,215.1,451.1,216,451.6z"/>
	<path class="st4" d="M242.1,520.2c0.3,3,2.8,7.4,1.1,8.1c-0.7,0.3-3.6,0.1-7.1-0.1h-0.1h-0.1c-3.1-0.3-6.7-0.6-9.7-0.9
		c-12-0.6-17.9,1.9-19.2,1.1c-0.6-0.3-0.6-1.4-0.4-2.4c0.4-2.6,0.6-5.3,0.1-7.8c-0.3-2.3-0.7-4.8-1.3-7.8c-2-10.4-5.8-26.3-6.4-35.9
		c-0.9-15,15.1-13.5,15.1-13.5c20.5-1.3,30,4.6,31.2,13.4c0.1,0.6,0.1,1.3,0.1,2c0.6,9.1-2.3,23.6-3.6,34.6
		C241.8,513.8,241.9,517.3,242.1,520.2z"/>
	<path class="st27" d="M242.1,520.2c0.3,3,2.8,7.4,1.1,8.1c-0.7,0.3-3.6,0.1-7.1-0.1c3.1,0.3,3.7-2.1,3-3.8c-0.7-1.6-2.1-5.3-2-9.7
		c0.1-4.4,1.9-14.2,2.7-23.5c0.9-8.7,0.1-15.4,0-16.2c0.4,1,1.9,2.4,5.8,3.3c0.1,9.1-2.4,22.5-3.6,32.6
		C241.8,513.8,241.9,517.3,242.1,520.2z"/>
	<path class="st4" d="M232,462.8c0,0,9.4-0.7,13.5,2.7c3.3,2.7,9.7,37.7,9.7,37.7l-8.7,3.6c0,0-9.5-23.9-12-23.5"/>
	<path class="st4" d="M246,506c3,9.4,27.2,13,27.2,13l1.4-4.3c0,0-14.8-11.1-20.2-12.5"/>
	<path class="st51" d="M277.4,529.5c2.1,0.1,4.3,0.4,6.5,0.4c0.1,0,0.3-0.3,0-0.3c-2.1-0.3-4.4-0.4-6.5-0.4
		C277.1,529.2,277.1,529.5,277.4,529.5z"/>
	<path class="st52" d="M271.7,547.7c-8.1-0.4-15.9,1.6-23.9,2.7s-16.4,1.6-23.8-1.7c-0.6-0.3-1.3-0.6-2-0.6c-0.7,0-1.4,0.6-2,1
		c-1.3,1-2.7,1.7-4.4,2.1c-2.3,0.4-2.8-0.1-5.1-0.4c-0.3,0-0.4,0-0.7,0c0,0,0,0.1-0.1,0.1c2.3,1.7,3.6,2.4,6.4,2.4
		c3,0,5.8-0.4,8.8-0.6c2,0,8,0.4,10,0.6c8.8,0.3,13.8-1.6,22.5-2.7c3.6-0.4,9-1.4,14.1-2.6C271.5,548,271.7,547.8,271.7,547.7z"/>
	<path class="st4" d="M498.8,227c-1.1-0.9-2.6-1.4-3.8-1.9c-2-0.6-1-2.1-3.1-1.7c-4,0.7-13.2,2.6-18.8,4h-0.1c-2.8,0.7-3.7,0-3.7,0
		l-1.1,1.3l0.1,0.4c-0.9,0.7-1.6,1.7-1.7,3.3c0,0.3-0.3,1.4-0.4,2.6c-0.1,1-0.1,2,0.3,2.4h0.1c1.9,0.7,4.6,0.7,5.1,0.7
		c3,0.1,9.8-0.7,16.2-1.6c4-0.6,7.7-1,10.1-1.3c1-0.1,1.9-0.6,2.4-1.1c0.6-0.6,1-1.3,1.1-2.1C502.2,230,500.7,228.3,498.8,227z"/>
	<path class="st4" d="M472.5,235.1c-0.1,0.4-0.4,0.9-0.6,1.1c-0.1,0.1-0.3,0.3-0.4,0.4c-4.1,4.1-9.4,0-12.4-2.4
		c-4.3-3.4-9.4-9.5-13.4-13.4c-0.1-0.1-1.6-1.4-1.4-1.6l3.7-4.8c0,0,10,9,15.8,11c2.6,0.9,5,1.7,6.8,2.7c0.3,0.1,0.4,0.3,0.6,0.4
		C471,228.6,473.6,231.5,472.5,235.1z"/>
	<path class="st27" d="M487.8,236.8c-6.4,0.9-13.4,1.7-16.2,1.6c-0.7,0-3.4,0-5.1-0.7h-0.1c-3.8-1.6-6.1-5.3-0.3-2.4
		c1.4,0.7,2.7,1.1,3.3,1.3c0.6,0.1,1.3,0.1,2.1,0.1c0.1,0,0.3,0,0.3,0C477.2,236.7,493,224.7,487.8,236.8z"/>
	<path class="st4" d="M513.8,259.6c-1.1,3.1-1.4,6.4-0.7,9.7c1.4,6.4-0.1,6.8-0.1,6.8s-8.7,5.6-15.8,7.7c-5.1,1.6-9.5,1.3-9.4-4.4
		v-0.1c0-0.3,0-0.7,0-1c0.3-12.8-2.4-13.5-3.1-27.8c-0.7-14.7-0.6-23.4,4.1-25.8c5.1-2.6,12.2-4.4,22.2-2c7.5,1.7,10,3.7,10,9.4
		c0,1.9-0.3,4.1-0.9,6.8C518.7,246.1,515.8,254.5,513.8,259.6z"/>
	<path class="st27" d="M513.8,259.6c-1.1,3.1-1.4,6.4-0.7,9.7c1.4,6.4-0.1,6.8-0.1,6.8s-8.7,5.6-15.8,7.7l-6.7-0.6l-2.7-2.1v-1.7
		c0-0.3,0-0.7,0-1c1.6,0.1,5,0.3,10.1-0.3c4-0.4,7.5-1.6,10-2.6c1.7-0.7,2.7-2.4,2.4-4.3c-0.4-2.6-1-6.1-1-9c0-2.8,1.3-7.5,2.4-11
		c0.9-2.7,1.1-5.4,0.9-8.1c-0.3-4.7,0-9.3,0-9.3l5.3-2.8l3,1.1c0,1.9-0.3,4.1-0.9,6.8C518.7,246.1,515.8,254.5,513.8,259.6z"/>
	<path class="st50" d="M491,201.2c0,0-3.4-3.7-2.8-9c0.3-3.1,1.3-6.1,5.8-7.3c2.6-0.6,6.1,1.3,8.7,4.1c8.1,0.7,10.7,6.3,11,12.5
		l-9.4-2.1L491,201.2z"/>
	<path class="st47" d="M512.1,205.2c-0.1,7.3-6.4,11.4-6.4,11.4l0.4,6.6l-4.1,2.7l-2.8,1.9l-1.7-3.4l-0.3-4.3c0-1-0.7-1.9-1.7-2
		c-1.1-0.3-2.6-0.9-4.1-2.4c-0.1-0.1-0.1-0.1-0.3-0.3c-2.7-3.7-3.7-17.9,5.6-21.9C506.2,189.1,512.2,197.9,512.1,205.2z"/>
	<path class="st53" d="M495.5,228.1c0,0-4.1,25.6-2.6,37.9l2.8,5.3l3.1-5.7c0,0-3-21.4-1.3-36.9L495.5,228.1z"/>
	<path class="st54" d="M495.1,226v0.3c0.1,0.6,0.3,1.3,0.6,1.9l2.1,0.4l1.9-1.4l-2.1-2.4l-0.3,0.1C496.4,225,495.7,225.4,495.1,226z
		"/>
	<path class="st27" d="M505.9,220.2c0,0,1,0.6,2,2.1c0,0-1.4,0.6-2.6,1.4c-1.1,0.7-6.4,4.4-6.4,4.4l-1.6-3.1
		C497.4,224.7,502.9,221,505.9,220.2z"/>
	<path class="st27" d="M497.4,224.7c0,0-1.9,0.6-2.4,2c0,0-1-1.9,0.3-5c0,0,1-1,1.9-1.3L497.4,224.7z"/>
	<g class="st55">
		<g class="st56">
			<path class="st57" d="M467.5,401.7c0,3,18.5,5.4,41.3,5.4s41.3-2.4,41.3-5.4c0-3-18.5-5.6-41.3-5.6S467.5,398.6,467.5,401.7z"/>
		</g>
	</g>
	<path class="st47" d="M489.1,394.5c0,0-0.7,1.9-0.7,3.1c0.1,1.3,4,1.3,4.6,0.7c0.4-0.7,0.7-6.3,0.7-6.3"/>
	<path class="st58" d="M494.1,399.3c0,1.3-0.4,3.4-0.4,3.4h-4.6l-0.3-0.7c0,0-1.4,0.7-2.6,0.7h-3.8c-2.8,0-4.4-0.4-4.4-0.9
		c-0.3-2,3-2,4-2c2.6,0,5.3-1.1,5.8-2.4c0.4-0.9,0.3-1.1,0.7-1c0,0,0.4,0.1,0.7,0.7c0.4,0.9,1.4,1.4,2.4,1.3
		c0.6-0.1,1.1-0.3,1.6-0.7C493.3,397.7,494.1,398,494.1,399.3z"/>
	<path class="st47" d="M533.4,390.2c0,0,0.9,3.3,1.4,4.4c0.6,1.1,4.3-0.3,4.4-1c0.1-0.7-1.7-6.1-1.7-6.1"/>
	<path class="st58" d="M540.5,394.2c0.4,1.1,1.1,3.6,1.1,3.6l-3.4,2l-0.7-0.6c0,0-0.7,1.3-1.9,1.9c-0.7,0.4-2.6,1.1-3.4,1.4
		c-3.1,0.7-5.6,0.4-5.8,0c-1-1.9,3.1-2.8,4-3.1c2.3-1,3.4-3.1,3.4-4.6c0-1-0.1-1.1,0.3-1.1c0,0,0.4-0.1,1,0.3
		c0.7,0.6,1.9,0.9,2.7,0.3c0.4-0.3,1-0.7,1.1-1.3C539.1,393,540.1,393,540.5,394.2z"/>
	<path class="st50" d="M517.5,301.6c0,0,6.1-14.8-4.6-25.5c0,0-9.1,4.1-16.5,4.6c-5.8,0.4-8.7-0.1-8.7-0.1s-1.3,10.8-0.6,27.6
		L517.5,301.6z"/>
	<path class="st50" d="M494.3,395.9c-0.1,0-0.4,0-0.6,0c-3.8,0-6-0.4-6-0.4v-1.1c0.1-16.9-1.9-44.6-2.3-53.3c0-0.6,0-1.1,0-1.7
		c0.7-6.4,7.3-5.6,10.1,0.3c0.7,1.4,1.1,2.8,1.6,4.6c0.4,2,0.9,4.1,1,6.4C499.5,365.3,495.4,385.1,494.3,395.9z"/>
	<path class="st50" d="M505.8,308.4c0,0.1,0,0.4-0.1,0.6c-1.4,7.7-6.3,28.5-8.4,35.3c-0.3,1-1.4,1.7-2.8,2.1c-3.3,0.9-8.3-0.3-8.7-7
		c0-0.7,0-1.6,0-2.4c0.4-5.4,1.6-35.2,1.9-38c0.3-2.8,0.7-7.1,2.3-7.5C497.2,288.8,507.8,297.6,505.8,308.4z"/>
	<path class="st52" d="M498.7,339.1c2.4-9,5.8-23.8,7-30l-1.6-7.1l-7.7-9.3l-4.3-0.6c0,0,0.7,14.1,5.7,25.2c0,0,0,15.8-2.1,22.6
		l-1.9,5.3c0,0,0.1,0.6,0.6,1.4c1,3.1,3.1,11.1,2,20.2c-1.6,12-2.4,29.2-2.4,29.2c0.1,0,0.4,0,0.6,0c1.1-10.5,4.8-29.3,4-43.7
		c0-0.3,0-0.7-0.1-1.6C497.4,344.9,498.7,339.1,498.7,339.1z"/>
	<path class="st50" d="M520.7,339.3c-5.1-4.8-12.2-2.6-9,5c3.6,8,14.5,30.2,20.5,46l0.4,1c0,0,2.4-0.4,6.3-2
		c-2.8-10.3-4.8-27.9-10.8-40.3C526.4,345,523.4,341.8,520.7,339.3z"/>
	<path class="st50" d="M492,291.9c-1-12,13.8-4,20.9,0c3,1.7,4.1,5,4.6,8.1s4.3,35.2,5,41c1.7,13.2-9.8,6-10.8,2.3
		C508.8,334.1,492.5,298.5,492,291.9z"/>
	<path class="st50" d="M521.3,332.8c0,0,0.4,6.3,5.8,14.1c0,0-8.7-4-9.1-4.6c-0.4-0.6-2-6.7-1.7-7.4
		C516.5,334.4,521.3,332.8,521.3,332.8z"/>
	<path class="st26" d="M419.9,186.4c6.7-4,8.5-8,8.5-8s0.1-1,0.1-2.6c0-3.1-1-8.4-6.4-10.4c-8.1-3-13.2,2.6-18.8-7.1c0,0,0,0,0,0.1
		C404.8,167.6,403.5,186.6,419.9,186.4z"/>
	<path class="st59" d="M419.9,186.4c6.7-4,8.5-8,8.5-8s0.1-1,0.1-2.6c-18.5,17.5-24.8-15-25.2-17.4
		C404.8,167.6,403.5,186.6,419.9,186.4z"/>
	<path class="st59" d="M403.4,158.6c0,0,0,0.1,0.1,0.4c0.1,0.3,0.3,0.6,0.4,1c0.4,0.9,1.1,2.1,2.3,3.3c1.1,1.3,2.6,2.6,4.3,3.6
		c0.9,0.6,1.9,0.9,2.8,1.1c1,0.3,2.1,0.4,3.3,0.6c1.1,0.1,2.3,0.3,3.3,0.6c1.1,0.3,2.1,0.7,3,1.4c1.9,1.3,2.8,3.1,3.3,4.8
		c0.3,0.9,0.3,1.6,0.3,2.3s-0.1,1.3-0.3,1.7c-0.1,0.4-0.3,0.9-0.3,1.1c-0.1,0.3-0.1,0.4-0.1,0.4s0-0.1,0.1-0.4
		c0-0.3,0.1-0.6,0.1-1.1c0.1-0.4,0.1-1,0.1-1.7s-0.1-1.4-0.4-2.1c-0.4-1.6-1.6-3.1-3.1-4.3c-0.9-0.6-1.7-1-2.8-1.3
		c-1-0.3-2.1-0.4-3.3-0.6c-1.1-0.1-2.3-0.3-3.3-0.7c-1.1-0.3-2.1-0.7-3-1.3c-1.9-1.1-3.3-2.6-4.3-3.8c-1-1.3-1.7-2.6-2-3.6
		c-0.1-0.4-0.3-0.9-0.4-1C403.5,158.8,403.4,158.6,403.4,158.6z"/>
	<path class="st59" d="M403.4,158.6c0,0,0.4,2,1.7,4.8c0.7,1.4,1.6,3,2.7,4.6c1.1,1.6,2.7,3,4.4,4.1c0.9,0.6,1.7,1,2.7,1.4
		s1.9,0.9,2.7,1.4c1.7,1,3.1,2.3,4.1,3.6c1,1.3,1.1,2.7,1.3,3.6c0,0.4,0,0.9,0,1c0,0.3,0,0.4,0,0.4s0-0.1,0-0.4c0-0.3-0.1-0.6-0.1-1
		c-0.1-0.9-0.6-2.1-1.6-3.3c-0.9-1.3-2.4-2.3-4-3.3c-0.9-0.4-1.7-0.9-2.7-1.3c-1-0.4-1.9-0.9-2.8-1.4c-1.9-1.1-3.3-2.7-4.4-4.3
		c-1.1-1.6-2-3.3-2.6-4.7C403.7,160.8,403.4,158.6,403.4,158.6z"/>
	<path class="st27" d="M527.3,305.3c-0.4,0-0.9-0.1-1.3-0.3c-4.8-1.9-6-12.7-6.1-13.8l-0.1-1.4l1.3,0.4c1.1,0.4,11.5,3.8,12.5,8.7
		c0.3,1.6-0.3,3.1-2,4.4C530.1,304.7,528.7,305.5,527.3,305.3z M521.9,292.5c0.6,3.6,2,9.8,4.8,10.8c1,0.4,2.3,0,3.7-1.3
		c1.1-1,1.6-1.9,1.3-2.7C531.3,296.5,525.4,293.8,521.9,292.5z"/>
	<path class="st60" d="M431.1,181.6l-8.7,7.7L517,296.1l8.7-7.7L431.1,181.6z"/>
	<path class="st61" d="M428.5,178.5l-8.7,7.7l2.7,3.1l8.7-7.7L428.5,178.5z"/>
	<path class="st14" d="M431.1,181.6l-8.7,7.7L517,296.1l8.7-7.7L431.1,181.6z"/>
	<path class="st62" d="M428.5,178.5l-8.7,7.7l2.7,3.1l8.7-7.7L428.5,178.5z"/>
	<path class="st63" d="M520.2,293.2l-3.3,2.8l-94.4-106.8l-2.7-3.1l3.3-2.8l2.7,3L520.2,293.2z"/>
	<path class="st27" d="M524.2,286.6l-8.7,7.7l1.5,1.7l8.7-7.7L524.2,286.6z"/>
	<path class="st47" d="M508.6,280.3l-3.1-2.6c0,0-1.1,1.6-1.7,1.7c-0.1,0-0.4-0.1-0.7-0.1c-0.9,0-1.4,0.3-2.4,0.7
		c-0.7,0.3-1.7,0.6-1.7,0.9s0.4,0.7,1,0.7c0,0,0.1,0,0.3,0c0,0.1,0,0.1,0,0.3c0.1,0.7,3.3,4.8,6.3,0.3
		C507.2,281.2,508.6,280.3,508.6,280.3z"/>
	<path class="st4" d="M511.5,239.7c1.4,4.3,2.8,10.8,5.6,16.5c0,0.1,0.1,0.3,0.1,0.3s0,0,0,0.1c0,0,0,0.3,0.1,0.6
		c0.6,1.1,1.9,3.6,4.8,3.4c0.1,0,0.6,0,1,0c0.6,0,1.3,0,2,0c0.9,0,1.6-0.3,1.9-0.7c0-0.1,0.1-0.3,0.1-0.4c0-0.1,0-0.1,0-0.3
		c0-0.1,0-0.1,0-0.3c0-0.3,0-0.4,0-0.7c0-0.1,0-0.3,0-0.3c0-1.6-0.3-3-0.3-3.4c-0.4-4.7-5.1-19.5-6.7-25.8c-0.3-0.9-0.7-1.7-1.4-2.3
		c-0.6-0.6-1.4-0.9-2.3-0.9c-0.1,0-0.3,0-0.3,0c-2.1,0-3.6,1.7-4.4,3.7c-0.6,1.3-1,2.7-1.3,4.1C510.6,235.4,510.8,237.7,511.5,239.7
		z"/>
	<path class="st4" d="M504.4,278.5l2.6,2.3l0.7,0.6c0,0,5.3-4.6,9.4-8.4c3.8-3.6,7.7-7.5,10-12.4c0.1-0.3,0.3-0.4,0.3-0.7
		c0-0.1,0.1-0.3,0.1-0.4c0-0.1,0-0.1,0-0.3c0-0.1,0-0.1,0-0.3c0-0.3,0-0.4,0-0.7c0-0.1,0-0.3,0-0.3c0-0.9-0.3-1.9-1-2.7
		c0-0.1-0.1-0.1-0.1-0.3c-0.3-0.3-0.6-0.6-1-0.7c-0.3-0.1-0.6-0.3-0.7-0.3c-3-1-5.8,0.9-5.8,0.9c-0.1,0.1-0.3,0.3-0.6,0.6
		c-0.3,0.4-0.7,0.9-1.1,1.3c-1,1.3-2,2.8-2.8,4.7C511.9,267,504.4,278.5,504.4,278.5z"/>
	<path class="st50" d="M489.8,196.4c0,0,6.3-1.3,11,1.3c2.4,1.3,5.4,1.4,7.8,0.3l1.9-0.9c0,0-1.7-2-2-2.3c-0.3-0.1-1.9-1.9-2.7-2.3
		c-0.9-0.4-4.8-1.7-5.3-1.7c-0.4-0.1-1.9-0.1-3.1,0c-1.3,0.3-1.9,0.6-2.4,0.9c-0.6,0.3-2.4,1.4-2.4,1.4L489.8,196.4z"/>
	<path class="st47" d="M445.1,218c0,0-4.4-3.8-4.7-6.6c-0.3-3,1.9-4.4,3.3-2.8c2.1,2.6,1.9,6.8,1.9,6.8l0.9,1L445.1,218z"/>
	<path class="st27" d="M506.9,280.8l0.7,0.6c0,0,5.3-4.6,9.4-8.4c3.8-3.6,7.7-7.5,10-12.4c0.1-0.3,0.3-0.4,0.3-0.7
		c0-0.1,0.1-0.3,0.1-0.4c0-0.1,0-0.1,0-0.3c0-0.1,0-0.1,0-0.3c0-0.3,0-0.4,0-0.7c0-0.1,0-0.3,0-0.3c0-1.6-0.3-3-0.3-3.4
		c-0.4-4.7-5.1-19.5-6.7-25.8c-0.3-0.9-0.7-1.7-1.4-2.3c-0.6-0.6-1.4-0.9-2.3-0.9c-0.1,0-0.3,0-0.3,0c1,1.6,2.4,4.8,4,11.3
		c2.1,8.5,3.6,13.8,4.1,17.1c0.3,1.6,0.4,2.7,0.3,3.6c-0.1,0.6-0.6,1.7-1.6,3.1C519.9,266.6,510.6,278.3,506.9,280.8z"/>
	<path class="st50" d="M505.6,216.6c0,0-0.6-2.3-0.7-5.4c0,0,3-2.1,3-4.4c0-3.1-3.4,0-3.4,0s-0.7-2.3-0.9-4.3c-0.3-3.4,5.6-6,5.6-6
		l3,2.1l1.4,2.8C513.8,201.6,513.8,213.7,505.6,216.6z"/>
	<path class="st64" d="M398.1,300.5L360.8,322c-0.6,0.3-1.1,0.1-1.4-0.4l-3-5.1c-0.3-0.6-0.1-1.1,0.4-1.4l37.3-21.5
		c0.4-0.3,1.1-0.1,1.4,0.4l3,5.1C398.8,299.5,398.7,300.2,398.1,300.5z"/>
	<path class="st65" d="M393.3,296.1c-0.1,0-0.1,0-0.3,0l-0.9-1.4l0.3-0.1l0.9,1.4C393.4,295.9,393.4,296.1,393.3,296.1z"/>
	<path class="st65" d="M392.2,295.5l-0.4-0.7l0.1-0.1L392.2,295.5C392.3,295.5,392.3,295.5,392.2,295.5z"/>
	<path class="st65" d="M392,296.8c-0.1,0-0.1,0-0.3,0l-0.9-1.4l0.3-0.1l0.9,1.4C392.2,296.6,392.2,296.8,392,296.8z"/>
	<path class="st65" d="M390.9,296.2C390.9,296.3,390.9,296.3,390.9,296.2l-0.4-0.7l0.1-0.1L390.9,296.2
		C391,296.2,391,296.2,390.9,296.2z"/>
	<path class="st65" d="M390.7,297.6c-0.1,0-0.1,0-0.3,0l-0.9-1.4l0.3-0.1l0.9,1.4C390.9,297.3,390.9,297.5,390.7,297.6z"/>
	<path class="st65" d="M389.6,297.1C389.6,297.1,389.4,297.1,389.6,297.1l-0.4-0.7l0.1-0.1L389.6,297.1
		C389.6,296.9,389.6,297.1,389.6,297.1z"/>
	<path class="st65" d="M389.4,298.3c-0.1,0-0.1,0-0.3,0l-0.9-1.4l0.3-0.1l0.9,1.4C389.6,298.2,389.4,298.2,389.4,298.3z"/>
	<path class="st65" d="M388.3,297.8C388.3,297.8,388.2,297.8,388.3,297.8l-0.4-0.7l0.1-0.1L388.3,297.8z"/>
	<path class="st65" d="M388.2,299c-0.1,0-0.1,0-0.3,0l-0.9-1.4l0.3-0.1l0.9,1.4V299z"/>
	<path class="st65" d="M387,298.5C386.9,298.6,386.9,298.5,387,298.5l-0.4-0.7l0.1-0.1L387,298.5z"/>
	<path class="st65" d="M386.7,299.8c-0.1,0-0.1,0-0.3,0l-0.9-1.4l0.3-0.1l0.9,1.4C386.9,299.6,386.9,299.8,386.7,299.8z"/>
	<path class="st65" d="M385.6,299.3l-0.4-0.7l0.1-0.1L385.6,299.3C385.7,299.2,385.7,299.3,385.6,299.3z"/>
	<path class="st65" d="M385.5,300.6c-0.1,0-0.1,0-0.3,0l-0.9-1.4l0.3-0.1l0.9,1.4C385.6,300.5,385.6,300.5,385.5,300.6z"/>
	<path class="st65" d="M384.3,300l-0.4-0.7l0.1-0.1L384.3,300C384.5,299.9,384.5,300,384.3,300z"/>
	<path class="st65" d="M384.2,301.3c-0.1,0-0.1,0-0.3,0l-0.9-1.4l0.3-0.1l0.9,1.4C384.3,301.2,384.3,301.3,384.2,301.3z"/>
	<path class="st65" d="M383,300.8C383,300.8,382.9,300.8,383,300.8l-0.4-0.7l0.1-0.1L383,300.8z"/>
	<path class="st65" d="M382.9,302c-0.1,0-0.1,0-0.3,0l-0.9-1.4l0.3-0.1l0.9,1.4C383,301.9,382.9,302,382.9,302z"/>
	<path class="st65" d="M381.8,301.6C381.8,301.6,381.6,301.6,381.8,301.6l-0.4-0.7l0.1-0.1L381.8,301.6
		C381.8,301.5,381.8,301.5,381.8,301.6z"/>
	<path class="st65" d="M381.6,302.9c-0.1,0-0.1,0-0.3,0l-0.9-1.4l0.3-0.1l0.9,1.4C381.6,302.7,381.6,302.7,381.6,302.9z"/>
	<path class="st65" d="M380.5,302.3C380.3,302.3,380.3,302.3,380.5,302.3l-0.4-0.7l0.1-0.1L380.5,302.3
		C380.5,302.2,380.5,302.3,380.5,302.3z"/>
	<path class="st65" d="M380.2,303.6c-0.1,0-0.1,0-0.3,0l-0.9-1.4l0.3-0.1l0.9,1.4C380.3,303.5,380.3,303.6,380.2,303.6z"/>
	<path class="st65" d="M379.1,303l-0.4-0.7l0.1-0.1L379.1,303C379.2,303,379.2,303,379.1,303z"/>
	<path class="st65" d="M378.9,304.3c-0.1,0-0.1,0-0.3,0l-0.9-1.4l0.3-0.1l0.9,1.4C379.1,304.2,379.1,304.3,378.9,304.3z"/>
	<path class="st65" d="M377.8,303.7C377.8,303.9,377.8,303.9,377.8,303.7l-0.4-0.6l0.1-0.1L377.8,303.7
		C377.9,303.7,377.9,303.7,377.8,303.7z"/>
	<path class="st65" d="M377.6,305.2c-0.1,0-0.1,0-0.3,0l-0.9-1.4l0.3-0.1l0.9,1.4C377.8,304.9,377.8,305,377.6,305.2z"/>
	<path class="st65" d="M376.5,304.6C376.5,304.6,376.3,304.6,376.5,304.6l-0.4-0.7l0.1-0.1L376.5,304.6
		C376.5,304.5,376.5,304.6,376.5,304.6z"/>
	<path class="st65" d="M376.3,305.9c-0.1,0-0.1,0-0.3,0l-0.9-1.4l0.3-0.1l0.9,1.4C376.5,305.7,376.3,305.9,376.3,305.9z"/>
	<path class="st65" d="M375.2,305.3C375.2,305.3,375.1,305.3,375.2,305.3l-0.4-0.7l0.1-0.1L375.2,305.3z"/>
	<path class="st65" d="M375.1,306.6c-0.1,0-0.1,0-0.3,0l-0.9-1.4l0.3-0.1l0.9,1.4V306.6z"/>
	<path class="st65" d="M373.9,306C373.8,306.2,373.8,306,373.9,306l-0.4-0.7l0.1-0.1L373.9,306z"/>
	<path class="st65" d="M373.6,307.3c-0.1,0-0.1,0-0.3,0l-0.9-1.4l0.3-0.1l0.9,1.4C373.8,307.2,373.8,307.3,373.6,307.3z"/>
	<path class="st65" d="M372.5,306.9l-0.4-0.7l0.1-0.1L372.5,306.9C372.6,306.7,372.6,306.9,372.5,306.9z"/>
	<path class="st65" d="M372.4,308.2c-0.1,0-0.1,0-0.3,0l-0.9-1.4l0.3-0.1l0.9,1.4C372.5,308,372.5,308,372.4,308.2z"/>
	<path class="st65" d="M371.2,307.6l-0.4-0.7l0.1-0.1L371.2,307.6C371.4,307.4,371.4,307.6,371.2,307.6z"/>
	<path class="st65" d="M371.1,308.9c-0.1,0-0.1,0-0.3,0l-0.9-1.4l0.3-0.1l0.9,1.4C371.2,308.7,371.2,308.9,371.1,308.9z"/>
	<path class="st65" d="M369.9,308.3C369.9,308.3,369.8,308.3,369.9,308.3l-0.4-0.7l0.1-0.1L369.9,308.3z"/>
	<path class="st65" d="M369.8,309.6c-0.1,0-0.1,0-0.3,0l-0.9-1.4l0.3-0.1l0.9,1.4C369.9,309.4,369.8,309.6,369.8,309.6z"/>
	<path class="st65" d="M368.7,309.2C368.7,309.2,368.5,309.2,368.7,309.2l-0.4-0.7l0.1-0.1L368.7,309.2
		C368.7,309,368.7,309,368.7,309.2z"/>
	<path class="st65" d="M368.5,310.4c-0.1,0-0.1,0-0.3,0l-0.9-1.4l0.3-0.1l0.9,1.4C368.5,310.3,368.5,310.3,368.5,310.4z"/>
	<path class="st65" d="M367.4,309.9C367.2,309.9,367.2,309.9,367.4,309.9l-0.4-0.7l0.1-0.1L367.4,309.9
		C367.4,309.7,367.4,309.9,367.4,309.9z"/>
	<path class="st65" d="M367.1,311.1c-0.1,0-0.1,0-0.3,0l-0.9-1.4l0.3-0.1l0.9,1.4C367.2,311,367.2,311.1,367.1,311.1z"/>
	<path class="st65" d="M366,310.6l-0.4-0.7l0.1-0.1L366,310.6C366.1,310.6,366.1,310.6,366,310.6z"/>
	<path class="st65" d="M365.8,311.9c-0.1,0-0.1,0-0.3,0l-0.9-1.4l0.3-0.1l0.9,1.4C366,311.7,366,311.9,365.8,311.9z"/>
	<path class="st65" d="M364.7,311.4l-0.4-0.7l0.1-0.1L364.7,311.4C364.8,311.3,364.7,311.3,364.7,311.4z"/>
	<path class="st65" d="M364.5,312.7c-0.1,0-0.1,0-0.3,0l-0.9-1.4l0.3-0.1l0.9,1.4C364.7,312.4,364.7,312.6,364.5,312.7z"/>
	<path class="st65" d="M363.4,312.1C363.4,312.1,363.2,312.1,363.4,312.1l-0.4-0.7l0.1-0.1L363.4,312.1
		C363.4,312,363.4,312.1,363.4,312.1z"/>
	<path class="st65" d="M363.2,313.4c-0.1,0-0.1,0-0.3,0l-0.9-1.4l0.3-0.1l0.9,1.4C363.4,313.3,363.2,313.4,363.2,313.4z"/>
	<path class="st65" d="M362.1,312.9C362,312.9,362,312.9,362.1,312.9l-0.4-0.7l0.1-0.1L362.1,312.9z"/>
	<path class="st65" d="M362,314.1c-0.1,0-0.1,0-0.3,0l-0.9-1.4l0.3-0.1l0.9,1.4V314.1z"/>
	<path class="st65" d="M360.8,313.6C360.7,313.7,360.7,313.6,360.8,313.6l-0.4-0.7l0.1-0.1L360.8,313.6z"/>
	<path class="st65" d="M360.5,314.9c-0.1,0-0.1,0-0.3,0l-0.9-1.4l0.3-0.1l0.9,1.4C360.7,314.7,360.7,314.9,360.5,314.9z"/>
	<path class="st65" d="M359.4,314.4l-0.4-0.7l0.1-0.1L359.4,314.4C359.5,314.3,359.5,314.4,359.4,314.4z"/>
	<path class="st2" d="M462.5,523.5c0,3-16.4,5.6-36.6,5.6c-20.2,0-36.6-2.4-36.6-5.6c0-3,16.4-5.6,36.6-5.6
		C446.1,517.9,462.5,520.3,462.5,523.5z"/>
	<path class="st47" d="M435.3,511.8c0,0,0.1,5,0.3,6.3c0.1,1.3,4.1,1.4,4.7,0.7c0.6-0.7,0.7-6.6,0.7-6.6"/>
	<path class="st58" d="M441.3,519.9c0,1.3-0.4,3.6-0.4,3.6h-4.7l-0.3-0.9c0,0-1.6,0.9-2.7,0.9h-4c-2.8,0-4.6-0.4-4.7-0.9
		c-0.3-2.1,3.1-2,4.1-2c2.6,0,5.4-1.3,6-2.6c0.4-1,0.3-1.1,0.9-1c0,0,0.4,0.1,0.9,0.7c0.4,0.9,1.4,1.6,2.4,1.3
		c0.6-0.1,1.1-0.3,1.6-0.7C440.4,518.2,441.3,518.6,441.3,519.9z"/>
	<path class="st47" d="M418.8,510.4c0,0,0.9,3.4,1.4,4.6c0.6,1.1,4.4-0.3,4.6-1c0.1-0.9-1.7-6.4-1.7-6.4"/>
	<path class="st58" d="M426.3,514.6c0.4,1.3,1.3,3.7,1.3,3.7l-3.6,2.1l-0.7-0.6c0,0-0.9,1.3-1.9,2c-0.9,0.6-2.6,1.3-3.6,1.4
		c-3.3,0.7-5.8,0.4-6,0c-1.1-1.9,3.3-2.8,4.1-3.3c2.4-1,3.6-3.3,3.6-4.7c0-1-0.1-1.1,0.3-1.3c0,0,0.4-0.1,1,0.3
		c0.9,0.7,1.9,0.9,2.7,0.3c0.6-0.3,1-0.7,1.1-1.3C424.8,513.4,425.8,513.4,426.3,514.6z"/>
	<path class="st39" d="M444,396.2c1.7-1.3,3.6-2.7,5.3-4.1c4-3.4,7.5-7,8-9.7c1-6,0.1-23.6-0.3-31.9c0-0.6,0-1-0.1-1.4
		c-0.4-7.8-4.7-11.4-6.8-12.7c-1.1,10.3-3.6,33.3-3.7,34.5C446.1,372.5,444,396.2,444,396.2z"/>
	<path class="st66" d="M444,396.2c1.7-1.3,3.6-2.7,5.3-4.1c0.1-6.5,2.1-15.5,4.8-26.9c3.3-14.4,1.1-16.9,1.1-16.9l-6.6,1
		c-1.1,10.1-2.3,21.1-2.4,21.9C446.1,372.5,444,396.2,444,396.2z"/>
	<path class="st50" d="M428.3,450c0.4,7.3,1,14.8,2,19.9c0.9,4.4,14.8,5.3,13,1.9c-2.6-5,2-20.5,4.1-47.1c0.3-4,2.1-4.4,3.3-12.7
		c1.1-8.3-3.4-15.4-3.4-15.4l-19.4-1.9l-0.3,24.1l-0.1,8.1C427.8,427.1,427.8,438.3,428.3,450z"/>
	<path class="st50" d="M441.7,468.8c0,0,3.8,4.7,3.3,13.1c-0.6,8.5-3.6,33.9-3.6,33.9s-4.4,0.7-6.7-0.1c0,0-4.8-47.1-4.8-52.4
		C429.9,457.8,441.7,468.8,441.7,468.8z"/>
	<path class="st52" d="M428.3,450c1.3-4,3.7-11.4,5.6-15.7c2.7-6,5.6-8.5,5.6-8.5c9.8-10.3,3.1-23.6,3.1-23.6s-8,6.7-8.5,7.3
		c-0.6,0.6-3.7,6.3-6.1,9.4l-0.1,8.1C427.8,427.1,427.8,438.3,428.3,450z"/>
	<path class="st50" d="M405.4,446.9c0,0-4.4,14.4-3.7,18.9c0.7,4.6,16.8,46.8,16.8,46.8s3,0,6.4-1.6c0,0-0.3-18.7-3.6-30.3
		c-3.1-11.7-6.8-18.8-10-19.8C408.2,460,406.2,449.3,405.4,446.9z"/>
	<path class="st50" d="M419.6,455.4c0,0-4.7,7.5-1.9,14.4c3,6.8-4.8,5.7-4.8,5.7s-4-11.4-3-12.8c0.9-1.4,4.1-6.4,5.1-6.7
		C415.9,455.7,419.6,455.4,419.6,455.4z"/>
	<path class="st50" d="M414.8,395.2c0,0-10.1,47.1-11.5,59.8c-0.6,5.4,5.1,14.2,10.3,9.4c6.3-5.8,16.4-32.5,19.5-37.2
		c3.1-4.7,14.8-9,6.8-32.9"/>
	<path class="st47" d="M439.9,331.9c0,0-1.4-4.7-0.9-8.3c0.6-3.4,2.7-9.7,1.9-14.4c-0.9-4.7-6.7-8.7-13-8c-6.3,0.6-8.1,6.5-9.1,10.1
		c-1,3.4-0.9,8.8-0.6,11.7s1.9,5.1,2.8,5.7c1,0.6,5-0.1,5.7,0.6s1.3,5.1,1.3,5.1"/>
	<path class="st39" d="M442.8,335.6c0,0-0.3-2.7-1.4-3.7c-1-1-8-1-10.1-0.7c-2.1,0.3-7.3,2.7-8,3.1c-0.7,0.6,0.7,3.1,0.7,3.1
		L442.8,335.6z"/>
	<path class="st47" d="M370.1,308.3c0-0.4,0.7-0.3,0.9,0.1c0,0,0,0.1,0.1,0.3c0-0.9-0.1-1.4-0.1-1.7c0-0.4,0.6-0.3,0.9,0
		c0-0.3,0-0.6,0-0.7c0-0.6,0.7-0.3,0.9,0.1c0,0.1,0.1,0.4,0.1,0.9c0-0.3,0-0.4,0-0.4c0-0.4,0.6-0.4,0.9,0c0,0.1,0.1,0.4,0.1,1
		c0.1,0.4,0.3,1,0.3,1.6c0.1,0.7,0.3,1.4,0.3,1.4c1.1,1.3,2.3,1.7,2.3,1.7l1.4-0.7c0,0,0.4,2.4,0.3,3.1c-0.1,0.7-0.6,1.7-0.6,2.1
		c0,0.4,0.6,1.6,0.6,1.6l-3.7,1.6c0,0-0.6-2.3-1-2.7c-0.6-0.6-2.3-2.7-2.6-3.1c-0.1-0.1-0.3-1-0.6-1.9l-0.3-1.4l-0.1-1.4
		C370.1,310,370.1,308.4,370.1,308.3z"/>
	<path class="st39" d="M373.9,319.6c0,0,1.3,7.3,2.6,13.2c1,4.6,2.3,9.3,4.4,13.5v0.1c1.3,2.7,3.6,6,5.1,6.3c1.6,0.3,7.1,0,7.1,0
		c3.4,0.1,12-1,19.2-1.9c0.1,0,0.3,0,0.3,0c3.4-0.4,6.6-0.9,8.7-1.1c1-0.1,2-0.6,2.6-1.1c0.6-0.6,1.1-1.3,1.3-2.3
		c0.4-2.4-1-4.3-3.1-5.7c-0.1-0.1-0.1-0.1-0.3-0.1c2.4-2.4,5-5.1,5-5.1s-7,0.3-11,0.6c-2.7,0.1-20.8,5-23.1,5.7
		c-0.1,0-0.3,0.1-0.4,0.1c0,0-0.3,0-0.7,0.1c-0.1,0-0.3,0.1-0.4,0.1c-0.6-1.6-1.4-3.3-2.7-5c-3.8-5.4-10.3-18.8-10.3-18.8l-3.6,1
		L373.9,319.6z"/>
	<path class="st50" d="M439.7,326c0,0-8.7,0.7-10.4,0c-1.7-0.7-4-2.4-4.3-5.3c-0.3-3,0.4-3.8-0.7-5.6c-1.1-1.7-2.1-1.1-2.3,0.4
		c-0.1,1.6-0.3,4.4-0.7,4.6c-0.6,0.3-1.3-1.7-1-4.7c0.1-2.6,0.4-4.7,1.3-6.4c0.9-1.7,1.1-1.7,1.9-2c-0.7-0.4-1.6-0.4-3.1-2.7
		c-1.7-2.7-0.9-7,3.8-7c8.1,0,16.7,1.6,16.8,7.5c0,0,2.8-0.4,2.8,5c0.1,5.4-3.4,12-3.7,13.7C440,325.4,440.6,325.5,439.7,326z"/>
	<path class="st39" d="M415.5,389.9c-0.3,2.7-2.7,7-1.1,7.5c0.7,0.3,3.3,0.1,6.6-0.1h0.1h0.1c2.8-0.3,6.3-0.6,9-0.7
		c11.1-0.4,16.7,1.7,17.8,1.1c0.6-0.3,0.6-1.3,0.4-2.3c-0.4-2.4-0.6-4.8-0.1-7.4c0.3-2,0.7-4.6,1.1-7.3c1.9-9.7,5.4-24.5,6-33.5
		c0.9-14-14.1-12.7-14.1-12.7c-19.1-1.1-27.9,4.3-29,12.5c-0.1,0.6-0.1,1.1-0.1,1.9c-0.4,8.4,2.1,22.1,3.3,32.2
		C415.6,383.9,415.6,387.2,415.5,389.9z"/>
	<path class="st66" d="M415.5,389.9c-0.3,2.7-2.7,7-1.1,7.5c0.7,0.3,3.3,0.1,6.6-0.1c-3,0.1-3.4-2-2.8-3.6c0.7-1.6,2-5,1.9-9
		c-0.1-4-1.7-13.2-2.6-21.8c-0.9-8-0.1-14.2,0-15.1c-0.4,0.9-1.7,2.1-5.4,3c-0.1,8.5,2.3,20.9,3.4,30.3
		C415.6,383.9,415.6,387.2,415.5,389.9z"/>
	<path class="st67" d="M181.4,214.2l21.2-50.7l-15.8,3.1h-0.3l-31.5,6.4l-0.6,0.1l-31.8,6.4l-0.6,0.1l-15.4,3.3L181.4,214.2z
		 M186.7,176.4l-10.1,24.1l-35.6-15L186.7,176.4z"/>
	<g class="st55">
		<path class="st68" d="M115.3,181.1h0.3l0.4,2.3c0,0.1,0,0.1-0.1,0.3c-0.1,0-0.1,0-0.1-0.1L115.3,181.1z"/>
	</g>
	<g class="st55">
		<path class="st68" d="M116.2,181h0.3l0.3,1.1c0,0,0,0.1-0.1,0.1c-0.1,0-0.1,0-0.1-0.1L116.2,181z"/>
	</g>
	<g class="st55">
		<path class="st68" d="M117,180.9h0.3l0.4,2.3c0,0.1,0,0.1-0.1,0.3c-0.1,0-0.1,0-0.1-0.1L117,180.9z"/>
	</g>
	<g class="st55">
		<path class="st68" d="M117.7,180.7h0.3l0.3,1.1c0,0,0,0.1-0.1,0.1c0,0-0.1,0-0.1-0.1L117.7,180.7z"/>
	</g>
	<g class="st55">
		<path class="st68" d="M118.6,180.6h0.3l0.4,2.3c0,0.1,0,0.1-0.1,0.3c-0.1,0-0.1,0-0.1-0.1L118.6,180.6z"/>
	</g>
	<g class="st55">
		<path class="st68" d="M119.5,180.3h0.3l0.3,1.1c0,0,0,0.1-0.1,0.1c0,0-0.1,0-0.1-0.1L119.5,180.3z"/>
	</g>
	<g class="st55">
		<path class="st68" d="M120.2,180.1h0.3l0.4,2.3c0,0.1,0,0.1-0.1,0.3c-0.1,0-0.1,0-0.1-0.1L120.2,180.1z"/>
	</g>
	<g class="st55">
		<path class="st68" d="M121,180h0.3l0.3,1.1c0,0,0,0.1-0.1,0.1c0,0-0.1,0-0.1-0.1L121,180z"/>
	</g>
	<g class="st55">
		<path class="st68" d="M121.9,179.9h0.3l0.4,2.3c0,0.1,0,0.1-0.1,0.3c-0.1,0-0.1,0-0.1-0.1L121.9,179.9z"/>
	</g>
	<g class="st55">
		<path class="st68" d="M122.6,179.7h0.3l0.3,1.1c0,0,0,0.1-0.1,0.1c0,0-0.1,0-0.1-0.1L122.6,179.7z"/>
	</g>
	<g class="st55">
		<path class="st68" d="M123.4,179.6h0.3l0.4,2.3c0,0.1,0,0.1-0.1,0.3c-0.1,0-0.1,0-0.1-0.1L123.4,179.6z"/>
	</g>
	<g class="st55">
		<path class="st68" d="M124.3,179.4h0.3l0.3,1.1c0,0,0,0.1-0.1,0.1c0,0-0.1,0-0.1-0.1L124.3,179.4z"/>
	</g>
	<g class="st55">
		<path class="st68" d="M125,179.3h0.3l0.4,2.3c0,0.1,0,0.1-0.1,0.3c-0.1,0-0.1,0-0.3-0.1L125,179.3z"/>
	</g>
	<g class="st55">
		<path class="st68" d="M125.9,179h0.3l0.3,1.1c0,0,0,0.1-0.1,0.1c0,0-0.1,0-0.1-0.1L125.9,179z"/>
	</g>
	<g class="st55">
		<path class="st68" d="M126.7,178.9h0.3l0.4,2.3c0,0.1,0,0.1-0.1,0.3c-0.1,0-0.1,0-0.3-0.1L126.7,178.9z"/>
	</g>
	<g class="st55">
		<path class="st68" d="M127.6,178.7h0.3l0.3,1.1c0,0,0,0.1-0.1,0.1c0,0-0.1,0-0.1-0.1L127.6,178.7z"/>
	</g>
	<g class="st55">
		<path class="st68" d="M128.3,178.6h0.3l0.4,2.3c0,0.1,0,0.1-0.1,0.3c-0.1,0-0.1,0-0.1-0.1L128.3,178.6z"/>
	</g>
	<g class="st55">
		<path class="st68" d="M129.1,178.4h0.3l0.3,1.1c0,0,0,0.1-0.1,0.1c0,0-0.1,0-0.1-0.1L129.1,178.4z"/>
	</g>
	<g class="st55">
		<path class="st68" d="M129.9,178.3h0.3l0.4,2.3c0,0.1,0,0.1-0.1,0.3c-0.1,0-0.1,0-0.1-0.1L129.9,178.3z"/>
	</g>
	<g class="st55">
		<path class="st68" d="M130.7,178h0.3l0.3,1.1c0,0,0,0.1-0.1,0.1c0,0-0.1,0-0.1-0.1L130.7,178z"/>
	</g>
	<g class="st55">
		<path class="st68" d="M131.6,177.9h0.3l0.4,2.3c0,0.1,0,0.1-0.1,0.3c-0.1,0-0.1,0-0.1-0.1L131.6,177.9z"/>
	</g>
	<g class="st55">
		<path class="st68" d="M132.4,177.7h0.3l0.3,1.1c0,0,0,0.1-0.1,0.1c0,0-0.1,0-0.1-0.1L132.4,177.7z"/>
	</g>
	<g class="st55">
		<path class="st68" d="M133.1,177.6h0.3l0.4,2.3c0,0.1,0,0.1-0.1,0.3c-0.1,0-0.1,0-0.1-0.1L133.1,177.6z"/>
	</g>
	<g class="st55">
		<path class="st68" d="M134,177.4h0.3l0.3,1.1c0,0,0,0.1-0.1,0.1c0,0-0.1,0-0.1-0.1L134,177.4z"/>
	</g>
	<g class="st55">
		<path class="st68" d="M134.7,177.3h0.3l0.4,2.3c0,0.1,0,0.1-0.1,0.3c-0.1,0-0.1,0-0.1-0.1L134.7,177.3z"/>
	</g>
	<g class="st55">
		<path class="st68" d="M135.5,177.2h0.3l0.3,1.1c0,0,0,0.1-0.1,0.1c0,0-0.1,0-0.1-0.1L135.5,177.2z"/>
	</g>
	<g class="st55">
		<path class="st68" d="M136.4,176.9l0.3-0.1l0.4,2.3c0,0.1,0,0.1-0.1,0.3c-0.1,0-0.1,0-0.1-0.1L136.4,176.9z"/>
	</g>
	<g class="st55">
		<path class="st68" d="M137.3,176.7h0.3l0.3,1.1c0,0,0,0.1-0.1,0.1c0,0-0.1,0-0.1-0.1L137.3,176.7z"/>
	</g>
	<g class="st55">
		<path class="st68" d="M138,176.6l0.3-0.1l0.4,2.3c0,0.1,0,0.1-0.1,0.3c-0.1,0-0.1,0-0.1-0.1L138,176.6z"/>
	</g>
	<g class="st55">
		<path class="st68" d="M138.8,176.4h0.3l0.3,1.1c0,0,0,0.1-0.1,0.1c0,0-0.1,0-0.1-0.1L138.8,176.4z"/>
	</g>
	<g class="st55">
		<path class="st68" d="M139.5,176.3l0.3-0.1l0.4,2.3c0,0.1,0,0.1-0.1,0.3c-0.1,0-0.1,0-0.3-0.1L139.5,176.3z"/>
	</g>
	<g class="st55">
		<path class="st68" d="M140.4,176.2h0.3l0.3,1.1c0,0,0,0.1-0.1,0.1c0,0-0.1,0-0.1-0.1L140.4,176.2z"/>
	</g>
	<g class="st55">
		<path class="st68" d="M141.2,176l0.3-0.1l0.4,2.3c0,0.1,0,0.1-0.1,0.3c-0.1,0-0.1,0-0.3-0.1L141.2,176z"/>
	</g>
	<g class="st55">
		<path class="st68" d="M142.1,175.7h0.3l0.3,1.1c0,0,0,0.1-0.1,0.1c0,0-0.1,0-0.1-0.1L142.1,175.7z"/>
	</g>
	<g class="st55">
		<path class="st68" d="M142.8,175.6h0.3l0.4,2.3c0,0.1,0,0.1-0.1,0.3c-0.1,0-0.1,0-0.1-0.1L142.8,175.6z"/>
	</g>
	<g class="st55">
		<path class="st68" d="M143.7,175.4h0.3l0.3,1.1c0,0,0,0.1-0.1,0.1c0,0-0.1,0-0.1-0.1L143.7,175.4z"/>
	</g>
	<g class="st55">
		<path class="st68" d="M144.4,175.3h0.3l0.4,2.3c0,0.1,0,0.1-0.1,0.3c-0.1,0-0.1,0-0.1-0.1L144.4,175.3z"/>
	</g>
	<g class="st55">
		<path class="st68" d="M145.2,175.2h0.3l0.3,1.1c0,0,0,0.1-0.1,0.1c0,0-0.1,0-0.1-0.1L145.2,175.2z"/>
	</g>
	<g class="st55">
		<path class="st68" d="M146.1,175h0.3l0.4,2.3c0,0.1,0,0.1-0.1,0.3c-0.1,0-0.1,0-0.1-0.1L146.1,175z"/>
	</g>
	<g class="st55">
		<path class="st68" d="M146.9,174.9h0.3l0.3,1.1c0,0,0,0.1-0.1,0.1c0,0-0.1,0-0.1-0.1L146.9,174.9z"/>
	</g>
	<g class="st55">
		<path class="st68" d="M147.6,174.6h0.3l0.4,2.3c0,0.1,0,0.1-0.1,0.3c-0.1,0-0.1,0-0.1-0.1L147.6,174.6z"/>
	</g>
	<g class="st55">
		<path class="st68" d="M148.5,174.4h0.3l0.3,1.1c0,0,0,0.1-0.1,0.1c0,0-0.1,0-0.1-0.1L148.5,174.4z"/>
	</g>
	<g class="st55">
		<path class="st68" d="M149.2,174.3h0.3l0.4,2.3c0,0.1,0,0.1-0.1,0.3c-0.1,0-0.1,0-0.1-0.1L149.2,174.3z"/>
	</g>
	<g class="st55">
		<path class="st68" d="M150.1,174.2h0.3l0.3,1.1c0,0,0,0.1-0.1,0.1c0,0-0.1,0-0.1-0.1L150.1,174.2z"/>
	</g>
	<g class="st55">
		<path class="st68" d="M150.9,174h0.3l0.4,2.3c0,0.1,0,0.1-0.1,0.3c-0.1,0-0.1,0-0.1-0.1L150.9,174z"/>
	</g>
	<g class="st55">
		<path class="st68" d="M151.8,173.9h0.3l0.3,1.1c0,0,0,0.1-0.1,0.1c0,0-0.1,0-0.1-0.1L151.8,173.9z"/>
	</g>
	<g class="st55">
		<path class="st68" d="M152.5,173.7h0.3l0.4,2.3c0,0.1,0,0.1-0.1,0.3c-0.1,0-0.1,0-0.1-0.1L152.5,173.7z"/>
	</g>
	<g class="st55">
		<path class="st68" d="M153.3,173.4h0.3l0.3,1.1c0,0,0,0.1-0.1,0.1c0,0-0.1,0-0.1-0.1L153.3,173.4z"/>
	</g>
	<g class="st55">
		<path class="st68" d="M154.1,173.3h0.3l0.4,2.3c0,0.1,0,0.1-0.1,0.3c-0.1,0-0.1,0-0.3-0.1L154.1,173.3z"/>
	</g>
	<g class="st55">
		<path class="st68" d="M154.9,173.2h0.3l0.3,1.1c0,0,0,0.1-0.1,0.1c0,0-0.1,0-0.1-0.1L154.9,173.2z"/>
	</g>
	<g class="st55">
		<path class="st68" d="M155.8,173l0.3-0.1l0.4,2.3c0,0.1,0,0.1-0.1,0.3c-0.1,0-0.1,0-0.3-0.1L155.8,173z"/>
	</g>
	<g class="st55">
		<path class="st68" d="M156.6,172.9h0.3l0.3,1.1c0,0,0,0.1-0.1,0.1c0,0-0.1,0-0.1-0.1L156.6,172.9z"/>
	</g>
	<g class="st55">
		<path class="st68" d="M157.3,172.7h0.3l0.4,2.3c0,0.1,0,0.1-0.1,0.3c-0.1,0-0.1,0-0.1-0.1L157.3,172.7z"/>
	</g>
	<g class="st55">
		<path class="st68" d="M158.2,172.6h0.3l0.3,1.1c0,0,0,0.1-0.1,0.1c0,0-0.1,0-0.1-0.1L158.2,172.6z"/>
	</g>
	<g class="st55">
		<path class="st68" d="M159,172.3h0.3l0.4,2.3c0,0.1,0,0.1-0.1,0.3c-0.1,0-0.1,0-0.1-0.1L159,172.3z"/>
	</g>
	<g class="st55">
		<path class="st68" d="M159.8,172.2h0.3l0.3,1.1c0,0,0,0.1-0.1,0.1c0,0-0.1,0-0.1-0.1L159.8,172.2z"/>
	</g>
	<g class="st55">
		<path class="st68" d="M160.6,172h0.3l0.4,2.3c0,0.1,0,0.1-0.1,0.3c-0.1,0-0.1,0-0.1-0.1L160.6,172z"/>
	</g>
	<g class="st55">
		<path class="st68" d="M161.5,171.9h0.3l0.3,1.1c0,0,0,0.1-0.1,0.1c0,0-0.1,0-0.1-0.1L161.5,171.9z"/>
	</g>
	<g class="st55">
		<path class="st68" d="M162.2,171.7h0.3l0.4,2.3c0,0.1,0,0.1-0.1,0.3c-0.1,0-0.1,0-0.1-0.1L162.2,171.7z"/>
	</g>
	<g class="st55">
		<path class="st68" d="M163,171.6h0.3l0.3,1.1c0,0,0,0.1-0.1,0.1c0,0-0.1,0-0.1-0.1L163,171.6z"/>
	</g>
	<g class="st55">
		<path class="st68" d="M163.9,171.5h0.3l0.4,2.3c0,0.1,0,0.1-0.1,0.3c-0.1,0.1-0.1,0-0.1-0.1L163.9,171.5z"/>
	</g>
	<g class="st55">
		<path class="st68" d="M164.6,171.2h0.3l0.3,1.1c0,0,0,0.1-0.1,0.1c0,0-0.1,0-0.1-0.1L164.6,171.2z"/>
	</g>
	<g class="st55">
		<path class="st68" d="M165.4,171l0.3-0.1l0.4,2.3c0,0.1,0,0.1-0.1,0.3c-0.1,0-0.1,0-0.1-0.1L165.4,171z"/>
	</g>
	<g class="st55">
		<path class="st68" d="M166.3,170.9h0.3l0.3,1.1c0,0,0,0.1-0.1,0.1c0,0-0.1,0-0.1-0.1L166.3,170.9z"/>
	</g>
	<g class="st55">
		<path class="st68" d="M167,170.7l0.3-0.1l0.4,2.3c0,0.1,0,0.1-0.1,0.3c-0.1,0-0.1,0-0.1-0.1L167,170.7z"/>
	</g>
	<g class="st55">
		<path class="st68" d="M167.9,170.6h0.3l0.3,1.1c0,0,0,0.1-0.1,0.1c0,0-0.1,0-0.1-0.1L167.9,170.6z"/>
	</g>
	<g class="st55">
		<path class="st68" d="M168.7,170.5h0.3l0.4,2.3c0,0.1,0,0.1-0.1,0.3c-0.1,0-0.1,0-0.3-0.1L168.7,170.5z"/>
	</g>
	<g class="st55">
		<path class="st68" d="M169.4,170.2h0.3l0.3,1.1c0,0,0,0.1-0.1,0.1c0,0-0.1,0-0.1-0.1L169.4,170.2z"/>
	</g>
	<g class="st55">
		<path class="st68" d="M170.3,170h0.3l0.4,2.3c0,0.1,0,0.1-0.1,0.3c-0.1,0-0.1,0-0.3-0.1L170.3,170z"/>
	</g>
	<g class="st55">
		<path class="st68" d="M171.1,169.9h0.3l0.3,1.1c0,0,0,0.1-0.1,0.1c0,0-0.1,0-0.1-0.1L171.1,169.9z"/>
	</g>
	<g class="st55">
		<path class="st68" d="M171.9,169.7h0.3l0.4,2.3c0,0.1,0,0.1-0.1,0.3c-0.1,0-0.1,0-0.1-0.1L171.9,169.7z"/>
	</g>
	<g class="st55">
		<path class="st68" d="M172.7,169.6h0.3l0.3,1.1c0,0,0,0.1-0.1,0.1c0,0-0.1,0-0.1-0.1L172.7,169.6z"/>
	</g>
	<g class="st55">
		<path class="st68" d="M173.6,169.5h0.3l0.4,2.3c0,0.1,0,0.1-0.1,0.3c-0.1,0-0.1,0-0.1-0.1L173.6,169.5z"/>
	</g>
	<g class="st55">
		<path class="st68" d="M174.3,169.3h0.3l0.3,1.1c0,0,0,0.1-0.1,0.1c0,0-0.1,0-0.1-0.1L174.3,169.3z"/>
	</g>
	<g class="st55">
		<path class="st68" d="M175.1,169h0.3l0.4,2.3c0,0.1,0,0.1-0.1,0.3c-0.1,0.1-0.1,0-0.1-0.1L175.1,169z"/>
	</g>
	<g class="st55">
		<path class="st68" d="M176,168.9h0.3l0.3,1.1c0,0,0,0.1-0.1,0.1c0,0-0.1,0-0.1-0.1L176,168.9z"/>
	</g>
	<g class="st55">
		<path class="st68" d="M176.7,168.8h0.3l0.4,2.3c0,0.1,0,0.1-0.1,0.3c-0.1,0-0.1,0-0.1-0.1L176.7,168.8z"/>
	</g>
	<g class="st55">
		<path class="st68" d="M177.6,168.6h0.3l0.3,1.1c0,0,0,0.1-0.1,0.1c0,0-0.1,0-0.1-0.1L177.6,168.6z"/>
	</g>
	<g class="st55">
		<path class="st68" d="M178.4,168.5h0.3l0.4,2.3c0,0.1,0,0.1-0.1,0.3c-0.1,0.1-0.1,0-0.1-0.1L178.4,168.5z"/>
	</g>
	<g class="st55">
		<path class="st68" d="M179.3,168.3h0.3l0.3,1.1c0,0,0,0.1-0.1,0.1c0,0-0.1,0-0.1-0.1L179.3,168.3z"/>
	</g>
	<g class="st55">
		<path class="st68" d="M180,168.2h0.3l0.4,2.3c0,0.1,0,0.1-0.1,0.3c-0.1,0.1-0.1,0-0.1-0.1L180,168.2z"/>
	</g>
	<g class="st55">
		<path class="st68" d="M180.8,167.9h0.3l0.3,1.1c0,0,0,0.1-0.1,0.1c0,0-0.1,0-0.1-0.1L180.8,167.9z"/>
	</g>
	<g class="st55">
		<path class="st68" d="M181.5,167.8h0.3l0.4,2.3c0,0.1,0,0.1-0.1,0.3c-0.1,0-0.1,0-0.1-0.1L181.5,167.8z"/>
	</g>
	<g class="st55">
		<path class="st68" d="M182.4,167.6h0.3l0.3,1.1c0,0,0,0.1-0.1,0.1c0,0-0.1,0-0.1-0.1L182.4,167.6z"/>
	</g>
	<g class="st55">
		<path class="st68" d="M183.3,167.5h0.3l0.4,2.3c0,0.1,0,0.1-0.1,0.3c-0.1,0-0.1,0-0.3-0.1L183.3,167.5z"/>
	</g>
	<g class="st55">
		<path class="st68" d="M184.1,167.3h0.3l0.3,1.1c0,0,0,0.1-0.1,0.1c0,0-0.1,0-0.1-0.1L184.1,167.3z"/>
	</g>
	<g class="st55">
		<path class="st68" d="M184.8,167.2h0.3l0.4,2.3c0,0.1,0,0.1-0.1,0.3c-0.1,0-0.1,0-0.3-0.1L184.8,167.2z"/>
	</g>
	<g class="st55">
		<path class="st68" d="M185.7,166.9h0.3l0.3,1.1c0,0,0,0.1-0.1,0.1c0,0-0.1,0-0.1-0.1L185.7,166.9z"/>
	</g>
	<g class="st55">
		<path class="st68" d="M186.4,166.8h0.3l0.4,2.3c0,0.1,0,0.1-0.1,0.3c-0.1,0-0.1,0-0.1-0.1L186.4,166.8z"/>
	</g>
	<g class="st55">
		<path class="st68" d="M187.2,166.6h0.3l0.3,1.1c0,0,0,0.1-0.1,0.1c0,0-0.1,0-0.1-0.1L187.2,166.6z"/>
	</g>
	<g class="st55">
		<path class="st68" d="M188.1,166.5h0.3l0.4,2.3c0,0.1,0,0.1-0.1,0.3c-0.1,0-0.1,0-0.1-0.1L188.1,166.5z"/>
	</g>
	<g class="st55">
		<path class="st68" d="M188.9,166.3h0.3l0.3,1.1c0,0,0,0.1-0.1,0.1c0,0-0.1,0-0.1-0.1L188.9,166.3z"/>
	</g>
	<g class="st55">
		<path class="st68" d="M189.7,166.2h0.3l0.4,2.3c0,0.1,0,0.1-0.1,0.3c-0.1,0.1-0.1,0-0.1-0.1L189.7,166.2z"/>
	</g>
	<g class="st55">
		<path class="st68" d="M190.5,166h0.3l0.3,1.1c0,0,0,0.1-0.1,0.1c0,0-0.1,0-0.1-0.1L190.5,166z"/>
	</g>
	<g class="st55">
		<path class="st68" d="M191.2,165.9h0.3l0.4,2.3c0,0.1,0,0.1-0.1,0.3c-0.1,0-0.1,0-0.1-0.1L191.2,165.9z"/>
	</g>
	<g class="st55">
		<path class="st68" d="M192.1,165.6h0.3l0.3,1.1c0,0,0,0.1-0.1,0.1c0,0-0.1,0-0.1-0.1L192.1,165.6z"/>
	</g>
	<g class="st55">
		<path class="st68" d="M192.9,165.5h0.3l0.4,2.3c0,0.1,0,0.1-0.1,0.3c-0.1,0-0.1,0-0.1-0.1L192.9,165.5z"/>
	</g>
	<g class="st55">
		<path class="st68" d="M193.8,165.3h0.3l0.3,1.1c0,0,0,0.1-0.1,0.1c0,0-0.1,0-0.1-0.1L193.8,165.3z"/>
	</g>
	<path class="st69" d="M113.8,178.7c-1.6,12.4,3.4,24.8,8.5,21.4c8-5.4,19.9-23.1,21.1-23.1c0.7,0,1.3,0.4,3.3,0.4
		c1,0,2.6-0.3,3.4-0.6c0.1,0,0.4-0.1,0.4-0.3c0-0.1-0.1-0.3-0.1-0.3c-0.4-0.3-0.9-0.3-1.4-0.4c-0.4,0-1,0-1-0.4c0-0.3,0-0.4,0.3-0.6
		c0.1-0.1,0.4-0.1,0.7-0.3c1.3-0.3,2.8-0.6,4.1-1c-0.7-0.3-1.9-0.4-2.7-0.7c-0.6-0.1-1.1-0.3-1.9-0.3c-0.9,0-2.8,0-3.7,0.1
		c-1.7,0.3-2.4,0.7-4,1.6c-1,0.4-1.9,1.1-2.7,1.9c-2.1,1.7-10.4,11.4-12.2,12.7"/>
	<path class="st69" d="M162.2,220.2c0,0-2.7,6.3-3.8,13.2c-0.9,6,2.4,15.7,2.1,22.6c-0.1,1.4-0.3,4.7-0.9,5.6
		c-0.7,1.1-2.1,2.6-2.3,4.1c-0.1,1,0.4,1.9,1.6,2.4c1.1,0.6,1.9-0.1,2.3,0c2.3,0.1,2.7,1.9,6.8,2.4c1.3,0.1,3.1-0.3,4.1-1.1
		c0.4-0.3,0.4-0.9,0.1-1.1c-0.3-0.3-3.3-1.3-4.6-2c-1.3-0.7-2.7-2.7-2.8-3.6c-0.3-0.9,0.3-4.7,0.6-6.4c1.7-11.3,3.8-27.2,5-33.7"/>
	<path class="st50" d="M172.7,269.6c0.3-0.4,0.3-1.3,0.1-1.4c-0.4-0.3-1.7-1-2.6-1.4c-0.7-0.3-2-0.6-1.6-0.4c0.4,0.1-0.3,1.1-1.1,1
		c-2.6,0-4.4-1.6-5.8-1.9c-2.1-0.4-2.6-2.7-2.7-3c-0.4,0.3-1.7,2.1-1.9,2.7c-0.1,0.6-0.4,1.6-0.3,2.1c0.1,0.4,0.4,1.1,0.3,2
		c0,0,0.4,0.3,1.4,0.4c0.7,0.1,1.6,0,1.6,0l0.1-1.3c0,0,0.6,0,1.3,0.1c0.7,0.1,1.6,0.6,2,1c0.3,0.3,0.6,0.7,1,1
		c1.1,0.4,2,0.6,3.3,0.7C170.6,271.3,172.1,270.4,172.7,269.6z"/>
	<path class="st69" d="M128,205.1l-18.2,10.4c0,0,1.1,6.8,9.4,8.5c4.8,1,12.2-0.3,14.2-0.3c2,0.1,33.3,1.3,33.3,1.3s3.1,0.7,3.7-1.7
		c0.9-3.8,0-5.1-2.6-6.8C163.6,213.7,146.9,208.2,128,205.1z"/>
	<path class="st70" d="M161.9,222.6c0,0-1,6.7,0,13.8c0.9,6,7,16.1,8.5,22.9c0.3,1.3,1,4.6,0.7,5.7c-0.3,1.3-1.3,3-1,4.6
		c0.1,0.9,1,1.7,2.1,1.9c1.3,0.1,1.7-0.6,2.1-0.7c2.3-0.4,3.1,1,7.1,0.4c1.3-0.1,2.8-1.1,3.7-2.3c0.3-0.4,0.1-0.9-0.1-1.1
		c-0.3-0.3-3.4-0.3-5-0.7c-1.4-0.4-3.4-1.9-3.8-2.7c-0.4-0.7-1-4.7-1.1-6.3c-1.4-11.2-4.3-30.3-5-37"/>
	<path class="st50" d="M186,269c0.1-0.6,0-1.3-0.3-1.3c-0.4-0.1-2-0.6-2.8-0.6c-0.9-0.1-2.1,0-1.6,0.1c0.4,0.1,0,1.1-0.7,1.3
		c-2.4,0.6-4.7-0.3-6.1-0.3c-2.1,0.1-3.3-1.9-3.4-2.1c-0.3,0.3-1,2.4-1,3.1c0,0.6,0,1.6,0.3,2.1c0.3,0.3,0.7,1,0.9,1.9
		c0,0,0.4,0.1,1.6,0c0.7-0.1,1.6-0.4,1.6-0.4l-0.1-1.3c0,0,0.6-0.1,1.3-0.3c0.7-0.1,1.7,0.1,2.1,0.4c0.4,0.1,0.9,0.6,1.3,0.6
		c1.1,0.1,2,0,3.3-0.3C184.4,271.1,185.7,270,186,269z"/>
	<path class="st70" d="M128.4,206.5l-18.2,10.4c0,0,0.7,6.6,9,8.4c4.8,1,12.7-0.1,14.7,0c2,0.1,33.3,1.3,33.3,1.3s3.1,0.7,3.3-1.9
		c0.1-3.4,0.4-5-2.1-6.7C163.9,215,147.2,209.5,128.4,206.5z"/>
	<path class="st50" d="M113.8,200.6c0,0-5.7,11.1-4.3,15.8c1.4,4.7,4.3,9.3,12.1,9.3s27.3,0,27.3,0s0.7-5.1,2.4-8.3
		c1.7-3.1,4.6-5.7,4.6-5.7s-19.8-6.1-21.2-7.4c-1.4-1.3-2.7-4.3-2.7-4.3"/>
	<path class="st39" d="M117,164.8c-2.3,4-3.7,9.5-4.1,15.7c0.1,0.1,5.4,1.1,7.8,1.1"/>
	<path class="st39" d="M132.1,160.6c1,0.3,0.7,2.8,1.7,3.1c0.7,0.3,2.3-0.1,3,0.3c3.7,2.1,2.7,6.3,3.1,11.4c1.6,4,2,7.5,0.7,9.7
		c-1.6,2.7-3.1,3.6-5.1,5.7c-1.4,1.7-1.9,5.1-2.1,8.8c0,0.7,0.4,1.7,0.3,2.4c-0.3,1.1-2.1,1.6-4.1,1.6c-4.7,0.1-11.8-1.6-13.8-1.6
		c-2,0.1-3.8-0.9-3.6-2c0.1-0.9,1-1.1,1.3-2.7c0.7-3.4,1.3-12.1,1.9-15c1.4-7.5,2.4-13.1,5.6-19.9"/>
	<path class="st66" d="M142.8,178.6c-1.1-2-2.7-3.8-4.3-5.6l-4,1.9c1.9,3.6,2.3,7.8,3.1,11.8c0.9,0.1,2.3-0.3,2.3-0.3
		c0.4-0.6,0.3-0.3,0.7-1.3C141.5,183.7,142.7,181.1,142.8,178.6z"/>
	<path class="st70" d="M145.5,150.5c0.4-1.7,0.7-3.6,0.7-5.1c-0.1-3-0.4-7.3-5.4-9c-5-1.7-10.4-0.7-12,2.8c-1.6,3.6-1.3,9-1.4,11.8
		c-0.3,2.8-2.3,6.3-2.3,6.3l10.7,4.6c0,0,1.7-3.8,2.4-4.3c0.7-0.4,1,1.3,3.3,1.1c1-0.1,2.1-1.9,2.8-4.1c0,0,0-0.1,0.1-0.3
		c0.6,0,1.1,0,1.3-0.1c0.7-0.3,0.7-0.6,0.6-1C145.8,152.4,145.7,151.2,145.5,150.5z"/>
	<path class="st70" d="M162.7,208.9c0.1,0.9,2.1,2.8,3.4,3c0.4,0,0.9,0,1.3-0.3c0.6,0.1,2.4,0,1.6-0.9c1.3,0.7,2.6,0.6,4,0.1
		c0.4-0.1,0.4-0.7-0.7-0.9c-1.6-0.1-2.7-1-3.8-2.3c0.1-0.1,0.4,0.1,1,0.1c0.7,0,1-0.4,1-0.7c0-0.3-0.9-0.3-1-0.4
		c-0.7-0.3-1.4-0.7-2.3-1c-0.9-0.4-1.3-0.6-2.3-0.4c-0.1,0-1.6,0.3-1.1,0.9"/>
	<path class="st70" d="M138,180.6c0,0,5.6,15.1,6.6,16.2c3.8,4.8,18.8,12.4,18.8,12.4s2.3-0.9,1.9-3.3c-4.6-2-13.1-11.4-15-12.5
		c-1.1-0.7-6.6-19.1-6.6-19.1"/>
	<path class="st39" d="M140.2,163.9c-4-1.6-7.8-1.6-11-4.7c-3.1,2.4,3.8,16.4,5.6,16.8s4,8.1,4.4,9.1c5.6-0.1,7.7-3.1,7.7-3.1
		C144.5,174.9,144.2,165.3,140.2,163.9z"/>
	<path class="st50" d="M137,164.3c-0.3-1-1.1-1.9-1.3-3c-0.1-1,0-2.3,0.6-3.1c0.3-0.6,0.9-0.9,1.4-1.3c2.3-1.7,3-3.1,2.3-5.8
		c-0.3-0.9-0.4-1.7-0.4-2.6c0.1-0.9,0.3-1.7,1.1-1.7c0.6,0,1,0.1,1.1,0.6c0.1,0.3-0.1,2.8,0.7,1.4s1.6-1.4,1.4-4.7
		c0-0.4-0.1-1.9,0.1-2.1c1.4,1.1,1.9,3,2.1,4.3c1.1-0.4,1.4-2.1,1.4-2.7c0-1.3-0.1-2.3-0.6-3.1c-2-4.1-4-4.8-5.7-5.7
		c-1.7-0.7-3.4-1.4-5.3-1.4s-4.1,0.6-4.6,2c-2.6-0.7-4,1.6-4.6,2.3c-0.9,1.1-1.6,2.4-2,3.7c-0.7,2-0.9,4.1-1.3,6.1
		c-0.4,1.7-1.1,3.4-2.4,4.6c-1.3,1.1-3,1.3-4.3,2.3c-1.7,1.3-2.7,3.4-2.6,5.6c0.1,2.1,1.1,4.4-0.1,6.4c-0.4,0.6-1,1.1-1.4,1.9
		c-1,1.4-0.9,3.6,0.1,5c0.9,1.6,2.7,3.3,4.3,3.7c1.7,0.4,3,0.7,4.7,0.7c3.1-0.1,5.7,0,8.8-2.7c1.9-1.6,0.7-2.4,2.4-4.1
		c1-1,2.4-1.4,3.1-2.7C137.1,166.8,137.3,165.5,137,164.3z"/>
	<path class="st71" d="M384.2,89l55,55"/>
	<path class="st39" d="M441.7,112.6l-28.5,4.4l21.9-23.6c2.6,2.4,6.5,2.4,9,0c2.6-2.6,2.6-6.6,0-9.1c-2.6-2.6-6.6-2.6-9.1,0
		c-2.6,2.6-2.6,6.6,0,9.1l-23.1,22.6c0,0,3.4-19.7,4.6-29.5c7.1-3.3,26.8-14.1,32.3-18.2c1.1-0.9,1.9-1.3,1.9-1.3s-4.3-3.7,11.4,12
		c-0.4,0.6-0.9,1.1-1.4,1.7C453.2,90,441.7,112.6,441.7,112.6z"/>
	<path class="st72" d="M472.5,78.8l-4.8,4.8c-0.9,0.9-2.3,0.9-3.3,0l-19.2-19.2c-0.9-0.9-0.9-2.3-0.1-3.1c0,0,0-0.1,0.1-0.1l4.8-4.8
		c0.9-0.9,2.3-0.9,3.3,0l19.2,19.2C473.3,76.5,473.3,77.9,472.5,78.8z"/>
	<path class="st73" d="M472.5,78.8l-4.8,4.8c-0.9,0.9-2.3,0.9-3.3,0l-19.2-19.2c-0.9-0.9-0.9-2.3-0.1-3.1
		c15,16.8,20.1,10.8,21.4,8.3l6,6C473.3,76.5,473.3,77.9,472.5,78.8z"/>
	<path class="st71" d="M457.9,113.9c-13.5,13.5-34,14.8-45.7,3c-11.8-11.8-10.4-32.3,3-45.7"/>
	<path class="st72" d="M386,90.9c-1,1-2.7,1-3.7,0c-1-1-1-2.7,0-3.7c1-1,2.7-1,3.7,0C387,88.2,387,89.9,386,90.9z"/>
	<path class="st72" d="M417.1,73.2c-1,1-2.7,1-3.7,0c-1-1-1-2.7,0-3.7c1-1,2.7-1,3.7,0C418.1,70.5,418.1,72.2,417.1,73.2z"/>
	<path class="st72" d="M459.4,115.6c-1,1-2.7,1-3.7,0c-1-1-1-2.7,0-3.7c1-1,2.7-1,3.7,0C460.4,113.1,460.4,114.6,459.4,115.6z"/>
	<path class="st72" d="M441,145.8c-1,1-2.7,1-3.7,0c-1-1-1-2.7,0-3.7c1-1,2.7-1,3.7,0C442,143.1,442,144.8,441,145.8z"/>
</g>
<g id="Layer_2">
	<g id="top-2" class="st0">
		<path class="st74" d="M397.8,18.7l-30.5,49.3"/>
		<g class="st75">
			<path class="st76" d="M550.4,361.3c-2.7,3.3-7.4,3.8-10.7,1.1l-16.2-13.1c-3.3-2.7-3.8-7.4-1.1-10.7l13.1-16.2
				c2.7-3.3,7.4-3.8,10.7-1.1l16.2,13.1c3.3,2.7,3.8,7.4,1.1,10.7L550.4,361.3z"/>
			<path class="st77" d="M539.3,326.8c2.6,1.6,5.1,3.3,7,5.7c1.7,2,1.9,4.6,0.6,6.7c-1.4,2.3-4,3.4-6.6,2.8
				c-1.7-0.4-3.1-1.3-4.4-2.3c-0.3-0.3-0.6-0.6-1-0.9c-1.4,1.7-2.8,3.4-4.3,5.3c-1.1-0.9-2.1-1.7-3.3-2.7
				C531.4,336.6,535.3,331.8,539.3,326.8z M537.3,336.2c0.9,0.9,1.7,1.6,2.8,1.9c1.3,0.3,2.4-0.1,3.3-1.4c0.6-1,0.6-2.3-0.4-3.1
				c-0.6-0.7-1.4-1.1-2.1-1.7C539.5,333.4,538.4,334.8,537.3,336.2z"/>
			<path class="st77" d="M554.2,346c-0.9,0.6-1.6,1.1-2.3,1.7c-0.6-0.7-1.1-1.4-1.7-2.1c-0.3-0.3-0.6-0.6-1-0.7
				c-0.3-0.1-0.9,0-1.1,0.1c-0.3,0.1-0.3,0.7-0.3,1.1c0.1,0.6,0.6,1.1,0.9,1.6c0.3,0.7,0.7,1.3,1,2c0.9,2.8-1.4,5.6-4.4,5.1
				c-1.9-0.1-3.3-1.1-4.6-2.4c-0.9-0.9-1.6-1.9-2.3-2.8c1-0.7,1.9-1.4,2.4-1.9c0.9,1,1.7,2.1,2.6,3c0.1,0.3,0.6,0.4,0.9,0.4
				c0.3,0,0.9,0,1-0.3c0.3-0.3,0.3-0.7,0.3-1.1c-0.1-0.4-0.4-0.9-0.6-1.3c-0.4-0.7-0.9-1.4-1.1-2.3c-0.9-2.7,1.1-5.3,4-5.1
				C550.4,341.5,553.2,343.6,554.2,346z"/>
			<path class="st78" d="M407.8,330.8c-24.8,1.4-43.3,29.5-43.3,29.5s21.5,25.9,46.3,24.5c24.8-1.4,43.3-29.5,43.3-29.5
				S432.6,329.4,407.8,330.8z"/>
			<path class="st79" d="M362.2,360.4l94.3-5.3"/>
			<path class="st79" d="M406,386.1L383,359.1"/>
			<path class="st79" d="M400.3,358.3l24.8-26.1"/>
			<path class="st78" d="M204.2,358.3c28.1,24.2,77.2,13.2,77.2,13.2s3.7-50.3-24.4-74.3C229,273,179.8,284,179.8,284
				S176.1,334.1,204.2,358.3z"/>
			<path class="st79" d="M283.8,373.9l-106.7-92.3"/>
			<path class="st79" d="M263.6,300.9l-3.3,52.7"/>
			<path class="st79" d="M226.4,268.9l-3.3,52.7"/>
			<path class="st79" d="M240.8,336.6l-53.7,2.3"/>
			<path class="st79" d="M216,315.1l-36.3,1"/>
			<path class="st80" d="M449,333.5c-25.3,22.9-70.1,15-70.1,15s-3.6-45.3,21.8-68.4c25.3-22.9,70.1-15,70.1-15
				S474.5,310.6,449,333.5z"/>
			<path class="st79" d="M376.6,350.7l96.7-87.6"/>
			<path class="st79" d="M394.7,283.8l3.1,47.6"/>
			<path class="st79" d="M428.3,253.3l3.3,47.6"/>
			<path class="st79" d="M415.6,315.4l48.8-0.1"/>
			<path class="st79" d="M438.1,294.9l32.9-0.6"/>
			<g>
				<path class="st81" d="M571.3,232.5c0,0-123.2,0-145.1,0c-21.9,0-22.2-27.2-2.7-32.6c19.9-5.6,34.2,7.3,34.2,7.3
					s5.3-66.6,55.3-58.8c39.4,6.1,37,49,37,49s8.1-17.7,29.3-11C601.5,193.4,599.1,232.5,571.3,232.5z"/>
				<path class="st81" d="M142,337.6c0,0-107.9,0-127.2,0c-19.2,0-19.4-21.8-2.4-26.2c17.5-4.6,29.9,5.8,29.9,5.8
					s4.6-53.5,48.4-47.3c34.5,5,32.5,39.4,32.5,39.4s7.1-14.2,25.8-8.8C168.3,306.2,166.3,337.6,142,337.6z"/>
				<path class="st81" d="M170.6,113.8c0,0,86.9,0,102.4,0c15.4,0,15.7-17.5,2-21.1c-14.1-3.6-24.1,4.7-24.1,4.7s-3.7-43.1-38.9-38
					c-27.8,4-26.2,31.8-26.2,31.8s-5.7-11.4-20.6-7.1C149.4,88.4,151.1,113.8,170.6,113.8z"/>
				<path class="st82" d="M325.8,2v58"/>
				<path class="st82" d="M253.7,18.7l30.5,49.3"/>
			</g>
			<path class="st83" d="M67.9,245.5l-11.1,4.2l4.2,11.1l11.1-4.2L67.9,245.5z"/>
			<path class="st83" d="M74.7,242.9c1.3,3.4-0.4,7.3-3.8,8.5c-3.4,1.3-7.3-0.4-8.5-3.8c-1.3-3.4,0.4-7.3,3.8-8.5
				C69.6,237.8,73.5,239.5,74.7,242.9z"/>
			<path class="st84" d="M488.7,142.7l0.3-2.4l-3.4-1.4l-1.6,2l-2.1-0.9l7.1-8l2.4,1l-0.6,10.7L488.7,142.7z M489.1,138.4
				c0.1-2.3,0.3-3.6,0.4-3.8c0-0.3,0-0.6,0.1-0.7c-0.4,0.4-1.3,1.7-2.8,3.6L489.1,138.4z"/>
			<path class="st85" d="M498,136.1l-3.6,8.5"/>
			<path class="st85" d="M492.4,143.8l4,1.7"/>
			<path class="st85" d="M495.8,135.3l4.1,1.7"/>
			<path class="st85" d="M495.4,131.2l-8.4-3.6"/>
			<path class="st85" d="M487.8,125.6l-1.7,4.1"/>
			<path class="st85" d="M496.2,129.2l-1.7,4.1"/>
			<path class="st84" d="M171.1,134.6c0.6-0.1,1.1-0.1,1.7-0.3c-0.1-0.6-0.1-1.1-0.3-1.7c0.6-0.1,1.1-0.1,1.7-0.3
				c0.4,2.4,0.9,4.8,1.3,7.4c1.1-1.6,2.1-3.1,3.3-4.6c-1,0.1-2.1,0.4-3.3,0.6c-0.1-0.6-0.1-1.1-0.3-1.7h0.1c1.6-0.3,3.1-0.6,4.7-0.9
				c0.1,0,0.1,0,0.1-0.1c0.4-0.6,0.9-1.3,1.3-1.9V131c0.3,0.1,0.6,0.4,0.9,0.6c0,0-0.1,0-0.1,0.1c-0.4,0.6-0.9,1.3-1.3,1.9
				c0,0,0,0.1,0,0.3c0.3,1.6,0.6,3.1,0.9,4.7v0.1c-0.6,0.1-1.1,0.1-1.7,0.3c-0.1-1.1-0.4-2.1-0.6-3.3c-1.1,1.6-2.1,3-3.3,4.6
				c2.4-0.4,4.8-0.9,7.3-1.3c0.1,0.6,0.1,1.1,0.3,1.7c-0.6,0.1-1.1,0.1-1.7,0.3c0.1,0.6,0.1,1.1,0.3,1.7c-0.6,0.1-1.1,0.1-1.7,0.3
				c-0.1-0.6-0.1-1.1-0.3-1.7c-2.1,0.4-4.3,0.7-6.4,1.1c-0.4-2.1-0.7-4.3-1.1-6.4c-0.6,0.1-1.1,0.1-1.7,0.3
				C171.3,135.7,171.3,135.1,171.1,134.6z"/>
			<path class="st84" d="M571.6,263.7c0.3-0.7,0.6-1.4,0.9-2.1c-0.7-0.3-1.4-0.6-2.1-0.9c0.3-0.7,0.6-1.4,0.9-2.1c3,1.3,6,2.6,9,3.8
				c-1-2.3-1.9-4.6-2.7-6.8c-0.6,1.3-1.1,2.6-1.7,3.8c-0.7-0.3-1.4-0.6-2.1-0.9c0,0,0-0.1,0.1-0.1c0.9-2,1.7-3.8,2.6-5.8
				c0-0.1,0-0.3,0-0.3c-0.4-1-0.7-1.9-1.1-2.8c0,0,0-0.1-0.1-0.1c0.4-0.1,0.9-0.3,1.3-0.6v0.1c0.4,1,0.7,1.9,1.1,2.8
				c0,0.1,0.1,0.1,0.1,0.1c2,0.9,3.8,1.7,5.8,2.6c0,0,0.1,0,0.1,0.1c-0.3,0.7-0.6,1.4-0.9,2.1c-1.3-0.6-2.7-1.1-4-1.7
				c0.9,2.3,1.7,4.6,2.7,6.8c1.3-3,2.6-6,3.8-9c0.7,0.3,1.4,0.6,2.1,0.9c-0.3,0.7-0.6,1.4-0.9,2c0.7,0.3,1.4,0.6,2.1,0.9
				c-0.3,0.7-0.6,1.4-0.9,2.1c-0.7-0.3-1.4-0.6-2.1-0.9c-1.1,2.6-2.3,5.1-3.4,7.7c-2.6-1.1-5.1-2.3-7.7-3.4
				c-0.3,0.7-0.6,1.4-0.9,2.1C573,264.3,572.3,264,571.6,263.7z"/>
		</g>
	</g>
	<g id="top">
		<path class="st86" d="M231.4,42.4L204,70.6l0.3-9.7L231.4,42.4z"/>
		<path class="st87" d="M190.1,56.1l28.8,11.8l12.5-25.5L190.1,56.1z"/>
		<path class="st84" d="M231.4,42.4l-30.9,17.9l3.6,10.3l2.4-7.7L231.4,42.4z"/>
		<path class="st76" d="M133.3,368.5c3.1,3.7,2.7,9.1-0.9,12.4l-18.1,15.7c-3.7,3.1-9.1,2.7-12.4-0.9l-15.7-18.1
			c-3.1-3.7-2.7-9.1,0.9-12.4l18.1-15.7c3.7-3.1,9.1-2.7,12.4,0.9L133.3,368.5z"/>
		<path class="st77" d="M99.8,367.3c0.7-0.6,1.4-1.1,2.1-1.9c0.3-0.3,0.6-0.3,1-0.1c1.1,0.7,2.3,1.4,3.3,2.1
			c1.1,0.7,2.3,1.4,3.4,2.1c0.9,0.6,1.6,1,2.4,1.6c0.9,0.4,1.6,1,2.4,1.4c0.9,0.6,1.7,1,2.4,1.6c0.7,0.4,1.6,1,2.3,1.4
			c1,0.6,2.1,1.3,3.1,2c0.1,0,0,0.4,0,0.6c-0.6,0.6-1.1,1-1.9,1.6c-0.6,0.4-1.1,1-1.7,1.4c-0.3,0.3-0.4,0.3-0.9,0
			c-1.1-0.9-2.4-1.6-3.7-2.3c-0.1-0.1-0.3-0.1-0.3-0.3c-0.4-0.3-0.7-0.4-1.1,0c-1.3,1.1-2.7,2.4-4.1,3.6c-0.3,0.3-0.3,0.4-0.1,0.7
			c0.7,1.3,1.3,2.7,1.9,4c0.4,1.1,0.4,1.1-0.4,1.9c-0.9,0.7-1.7,1.4-2.6,2.3c-0.3,0.3-0.6,0.3-0.7-0.1c-0.4-0.9-0.7-1.7-1.1-2.6
			s-0.9-1.9-1.3-2.7c-0.4-0.9-0.7-1.7-1.1-2.6c-0.6-1.3-1.1-2.6-1.7-3.8c-0.6-1.3-1.1-2.4-1.6-3.7c-0.6-1.3-1.1-2.6-1.7-3.8
			c-0.1-0.4-0.4-1-0.6-1.4c-0.1-0.4-0.1-0.9,0.3-1.1C98.5,368.4,99.1,367.8,99.8,367.3z M102.4,370.4c0,0.1,0,0.1,0,0.3
			c0.4,0.9,0.9,1.7,1.3,2.6c0.6,1.1,1.1,2.1,1.6,3.3c0.3,0.6,0.6,1.1,1,1.9c0.1,0.3,0.4,0.3,0.7,0.1c1-0.9,2-1.7,3-2.6
			c0.3-0.3,0.3-0.4-0.1-0.6c-0.6-0.3-1-0.6-1.4-0.9c-1.6-1-3.1-2.1-4.7-3.1C103.2,371,102.8,370.7,102.4,370.4z"/>
		<path class="st77" d="M122.7,366.7c1.7,1.9,3.3,3.8,5,5.7c0.3,0.4,0.4,0.6,0,1c-1,0.9-2,1.7-2.8,2.6c-0.4,0.3-0.7,0.3-1-0.1
			c-3.3-3.8-6.5-7.5-9.8-11.4c-0.6-0.7-0.6-0.7,0.1-1.3c0.9-0.7,1.9-1.6,2.7-2.3c0.4-0.4,0.7-0.4,1.1,0
			C119.3,362.8,121,364.8,122.7,366.7z"/>
		<path class="st77" d="M110.5,356.6c1.1-1.1,2.8-1,3.8,0.1c1,1.3,0.9,2.6-0.4,3.7c-1.3,1.3-2.8,0.9-3.8-0.1
			C109.2,359.3,109.2,357.7,110.5,356.6z"/>
	</g>
</g>
</svg>
