<?xml version="1.0" encoding="utf-8"?>
<!-- Generator: Adobe Illustrator 24.0.0, SVG Export Plug-In . SVG Version: 6.00 Build 0)  -->
<svg version="1.1" id="Layer_1" xmlns="http://www.w3.org/2000/svg" xmlns:xlink="http://www.w3.org/1999/xlink" x="0px" y="0px"
	 viewBox="0 0 937 570" style="enable-background:new 0 0 937 570;" xml:space="preserve">
<style type="text/css">
	.st0{opacity:0.35;fill:#EAEAEA;enable-background:new    ;}
	.st1{opacity:0.15;fill:#F6F6F6;enable-background:new    ;}
	.st2{opacity:0.35;fill:#E4E4E4;enable-background:new    ;}
	.st3{fill:#4E4E4E;}
	.st4{fill:#FFFFFF;}
	.st5{fill:#EAEAEA;}
	.st6{fill:#2F2F2F;}
	.st7{fill:#777777;}
	.st8{fill:#D02E1B;}
	.st9{fill:#CBCBCB;}
	.st10{fill:#707070;}
	.st11{fill:#B2B2B2;}
	.st12{fill:#828282;}
	.st13{fill:#A6A6A6;}
	.st14{fill:#989898;}
	.st15{fill:#212121;}
	.st16{opacity:0.2;fill:#606060;enable-background:new    ;}
	.st17{fill:#959595;}
	.st18{fill:#656565;}
	.st19{fill:#C4C4C4;}
	.st20{fill:#C2C2C2;}
	.st21{fill:#DCDCDC;}
	.st22{fill:#666666;}
	.st23{opacity:0.3;fill:#323232;enable-background:new    ;}
	.st24{fill:#838383;}
	.st25{fill:#B5B5B5;}
	.st26{opacity:0.3;fill:#4F4F4F;enable-background:new    ;}
	.st27{opacity:0.3;fill:#515151;enable-background:new    ;}
	.st28{fill:#A5A5A5;}
	.st29{opacity:0.3;fill:#454545;enable-background:new    ;}
	.st30{opacity:0.3;fill:#4B4B4B;enable-background:new    ;}
	.st31{fill:#797979;}
	.st32{opacity:0.2;fill:#626262;enable-background:new    ;}
	.st33{display:none;}
	.st34{display:inline;fill:#D02E1B;}
	.st35{display:inline;fill:#FFFFFF;}
	.st36{display:inline;fill:#666666;}
	.st37{display:inline;fill:#FFFFF5;}
	.st38{display:inline;fill:#A6A6A6;}
	.st39{fill:#101010;}
	.st40{fill:#FFBE85;}
	.st41{fill:#FFA155;}
	.st42{opacity:0.3;fill:#818181;enable-background:new    ;}
	.st43{opacity:0.3;fill:#B0B0B0;enable-background:new    ;}
	.st44{opacity:0.3;enable-background:new    ;}
</style>
<path class="st0" d="M488.9,570c228,0,412.8-19,412.8-42.5c0-23.5-184.8-42.5-412.8-42.5c-228,0-412.8,19-412.8,42.5
	C76.1,551,260.9,570,488.9,570z"/>
<path class="st1" d="M162.4,253.8c25.8-19.1,41.7-48.9,53-79c11.2-30.2,18.7-61.8,32.4-90.9c13.9-30.1,39.1-59.7,72.1-60.3
	c53.3-0.8,82.8,71.4,135.7,77.8c25,3,49.3-9.7,68.7-25.6c19.4-16,35.9-35.4,56.5-49.8C605.3,9,635.3-0.3,665.2,0
	c16.7,0.1,34.1,3.6,47.1,14.1c36.3,29,19.9,90.8,47.4,128.4c19.3,26.4,54.4,33.8,84.5,46.2c20.5,8.5,39.9,19.8,56.9,33.9
	c13.4,10.9,25.8,23.8,31.8,39.9c9.3,24.9,1.4,53.9-15.4,74.4c-16.8,20.5-41.4,33.2-66.6,41.1c-27.7,8.6-59.3,13.1-78.5,34.9
	c-12.6,14.2-17.6,33.6-28.3,49.3c-15.4,22.7-41.2,36.1-66.8,46.3c-57.5,23.1-124.7,35.1-179.8,7c-38.5-19.5-67.2-56.9-108.3-70
	c-22.5-7.2-47.7-6.2-69.5,2.7c-18.7,7.7-36.2,21.1-56.4,20.6c-25.8-0.4-45.2-22.8-61-43.3"/>
<path class="st2" d="M334,187.8c11.7,0,22.1-8.1,28.7-17.9c6.6-9.7,10.1-21.2,14.9-31.8c10.5-23.9,27-45.2,47.8-61.2
	c13.2-10.3,29.1-18.6,45.7-18c14.9,0.5,28.4,7.9,42.3,13.1c20.9,7.8,44.2,10.8,65.5,4.2c19.1-5.9,35.1-18.9,52.4-28.7
	C651,36.4,673,29,695.5,28.8c22.5-0.1,45.3,7.4,61.7,22.8c14.7,13.9,23.2,33.1,37,48c27.9,30.2,75,40.3,96.5,75.5
	c14.7,24.1,13.8,55.4,3.4,81.5c-10.4,26.2-29.2,48.1-49.2,68.1c-12.8,12.8-27.2,25.7-44.9,30.1c-18.2,4.5-37.1-0.5-55.2-5.2
	c-25.9-6.7-53.3-12.7-79.5-6.8c-19,4.2-35.9,14.2-53.8,22c-30.5,13.1-64.7,19.5-97.2,12.4c-32.5-7-62.7-28.7-75-59.6
	c-5.6-13.9-7.2-29.4-13.2-43.1c-28.7-64.8-49.4-73.5-86.4-63.7"/>
<path class="st3" d="M251.4,466.4c0,0-63.8-42-73.5-79.3c-8.9-34.2,4.1-65.3,34.8-125.1c4.4-8.6,10-17.2,9.3-27.2
	c8.1,15.2,18.4,28.4,28.9,41.4C336,381.2,251.4,466.4,251.4,466.4z"/>
<path class="st4" d="M273.7,391.8c-3.6,4.4-6.8,9-10.1,13.7c-3.3,4.6-6.3,9.6-9.2,14.6c-2.9,5.1-5.6,10.1-7.9,15.6
	c-2.3,5.3-4.4,10.9-5.9,16.8l2-0.7c-5.3-5.6-10.7-11.5-15.8-17.2c-5.2-5.9-10.4-11.6-15.4-17.6c-5.1-6-10.1-12-15-18.2
	s-9.7-12.4-14.2-19l3.1,5.2c1.1,1.8,2.2,3.4,3.3,5.1c1.1,1.6,2.2,3.3,3.3,4.9c1.1,1.6,2.2,3.3,3.4,4.9c4.6,6.4,9.6,12.7,14.5,18.9
	c5.1,6.2,10.1,12,15.3,17.9c5.2,5.9,10.5,11.6,15.8,17.2l1.5,1.5l0.5-2.2c1.4-5.6,3.3-11.2,5.5-16.5c2.2-5.3,4.6-10.5,7.4-15.6
	c2.6-5.1,5.6-10,8.5-14.9C267.4,401.3,270.5,396.5,273.7,391.8z"/>
<path class="st4" d="M267.6,363.3c-4.1,4.1-7.9,8.5-11.6,13c-3.7,4.5-7.4,9.2-10.7,14.1c-3.4,4.9-6.6,10-9.4,15.3
	c-2.9,5.3-5.5,10.9-7.4,16.8l2-0.4c-3.4-4.1-6.7-8.3-10-12.6l-9.8-12.7c-3.3-4.2-6.4-8.5-9.7-12.8c-3.3-4.2-6.4-8.6-9.6-13
	c2.7,4.6,5.7,9.3,8.6,13.8c3,4.5,6,9,9.1,13.4c3.1,4.4,6.3,8.7,9.6,13c3.3,4.4,6.6,8.5,9.8,12.7l1.4,1.6l0.7-2.2
	c1.9-5.7,4.4-11.2,7.1-16.4c2.7-5.3,5.7-10.4,9-15.3c3.1-4.9,6.6-9.7,10.1-14.5C260.4,372.6,264,368,267.6,363.3z"/>
<path class="st4" d="M266,333.1c-4.6,4.1-9,8.6-13.2,13.1c-4.2,4.6-8.3,9.4-12.3,14.4c-4,5.1-7.6,10.1-11.2,15.4
	c-3.5,5.5-6.7,11.2-8.7,17.8l2.5,0.4c-0.3-6.6-2.6-12.7-5.1-18.3c-2.6-5.6-5.3-11.1-8.2-16.4c-2.9-5.3-6-10.7-9.1-15.7
	c-3.1-5.2-6.3-10.3-9.1-15.6c2.5,5.6,5.3,10.9,8.2,16.4c2.9,5.3,5.7,10.7,8.5,16.1c2.7,5.5,5.3,10.9,7.8,16.5
	c2.5,5.5,4.5,11.3,4.6,17.2l0.3,7.7l2.2-7.2c1.9-6.2,4.9-11.8,8.3-17.1c3.4-5.3,7.1-10.5,10.8-15.6c3.7-5.1,7.6-10.1,11.6-14.9
	C257.7,342.4,261.9,337.8,266,333.1z"/>
<path class="st4" d="M248.1,324c-2.9,2.7-5.5,5.7-8.2,8.7c-2.6,3-5.2,6.2-7.6,9.3c-2.5,3.1-4.8,6.6-7.1,9.8
	c-2.3,3.4-4.5,6.8-6.7,10.3l2.3,0.7c-0.3-2.6-0.7-4.9-1.2-7.4c-0.5-2.5-1.1-4.8-1.6-7.1c-1.2-4.8-2.5-9.4-3.8-14.1
	c-1.4-4.6-2.7-9.3-4.2-13.9c-1.5-4.6-3-9.2-4.8-13.8l7.1,28.3c1.2,4.8,2.3,9.4,3.4,14.2c1.1,4.6,2.2,9.6,2.7,14.1l0.4,3.7l1.8-3
	c2-3.6,4.2-7,6.4-10.4c2.2-3.4,4.5-6.7,6.7-10.1c2.3-3.3,4.6-6.6,7.1-9.8C243.2,330.4,245.7,327.1,248.1,324z"/>
<path class="st4" d="M249.5,293.2c-2.9,2.1-5.5,4.6-8.1,7.1c-2.5,2.6-4.9,5.5-7.1,8.3c-2.3,2.9-4.4,6-6.4,9c-2,3.1-4,6.3-5.9,9.4
	l2.3,0.8c-0.1-4.1-0.4-8.3-0.5-12.6c-0.3-4.2-0.7-8.3-1.4-12.6c-0.7-4.2-1.5-8.3-2.6-12.3c-1.1-4-2.3-8.1-3.7-11.9
	c0.8,4.1,1.8,8.2,2.5,12.3c0.8,4.1,1.4,8.2,1.9,12.3c0.4,4.1,0.7,8.2,1,12.4l0.5,12.4l0.1,4.4l2-3.7c1.9-3.1,3.8-6.3,5.7-9.4
	c1.9-3.1,4-6.2,6-9.2c2-3,4.2-6,6.4-8.7C244.6,298.4,246.9,295.8,249.5,293.2z"/>
<path class="st4" d="M241.3,270.7c-1.5,0.5-3,1.5-4.2,2.5c-1.4,1.1-2.5,2.3-3.6,3.7c-1.1,1.4-2,2.9-3,4.5c-0.4,0.8-0.8,1.6-1.2,2.5
	l-1.1,2.5l2.3,1.1l0.7-2.5c0.3-0.8,0.5-1.6,1-2.5c0.7-1.6,1.4-3.1,2.3-4.6c0.8-1.5,1.9-2.9,3-4.1
	C238.6,272.4,239.8,271.3,241.3,270.7z"/>
<path class="st4" d="M251.7,466.1c-2.2-3.8-4.2-7.7-6.3-11.5c-2-3.8-3.8-7.8-5.6-11.8c-3.4-8.1-6.3-16.3-8.7-24.6
	c-2.3-8.5-4.2-17-6-25.6c-1.6-8.5-2.6-17.2-2.7-26c-0.3-17.6,2-35.3,4.9-52.6c1.4-8.7,2.9-17.6,3-26.8c0.1-4.5-0.1-9.2-0.8-13.5
	c-0.8-4.5-2-8.9-4-12.8c-0.1-0.1-0.3-0.3-0.4-0.1c-0.1,0.1-0.1,0.3-0.1,0.4c3.3,8.2,4.1,17.2,3.4,26c-0.5,8.7-2.3,17.5-4.2,26.1
	c-3.6,17.4-6.7,35.1-7,53.4c-0.1,9.2,0.3,18.3,1.6,27.5c1.5,9,3.6,17.9,6.4,26.5c5.7,17.2,14.3,33.4,25.8,46.2
	c0.1,0.1,0.3,0.1,0.4,0C251.7,466.4,251.7,466.3,251.7,466.1z"/>
<path class="st5" d="M254.3,475.7c3.1-1,8.3,3.4,11.5,9.8c3.3,6.4,3.3,12.3,0.1,13.3c-3.1,1-8.2-3.4-11.5-9.8
	C251.1,482.7,251.1,476.6,254.3,475.7z M264.8,496.6c2.5-0.8,2.5-5.6-0.1-10.7c-2.6-5.2-6.8-8.7-9.3-7.9c-2.5,0.8-2.5,5.6,0.1,10.7
	C258.1,493.7,262.2,497.3,264.8,496.6z"/>
<path class="st6" d="M255.4,477.9c2.5-0.8,6.7,2.7,9.3,7.9c2.6,5.2,2.7,10,0.1,10.7c-2.5,0.8-6.7-2.7-9.3-7.9
	C252.9,483.5,252.8,478.7,255.4,477.9z"/>
<path class="st7" d="M326.2,193.9L297,204.8l8.5,22.8l29.2-10.9L326.2,193.9z"/>
<path class="st7" d="M360,222.7l-31-4.1l-8.5-22.6l20.8-23.2L360,222.7z"/>
<path class="st7" d="M313.6,203.4l-18.5,7l5.4,14.5l18.5-7L313.6,203.4z"/>
<path class="st7" d="M322.9,221.2l-8.4,3.2l8.3,22.3l8.4-3.2L322.9,221.2z"/>
<path class="st8" d="M360,224.6c-0.8,0-1.5-0.4-1.8-1.2l-18.7-49.9c-0.4-1,0.1-2.1,1.1-2.5c1-0.4,2,0.1,2.5,1.1l18.7,49.9
	c0.4,1-0.1,2.1-1.1,2.5C360.4,224.6,360.2,224.6,360,224.6z"/>
<path class="st8" d="M329,220.5c-0.8,0-1.5-0.4-1.8-1.2l-8.5-22.6c-0.4-1,0.1-2.1,1.1-2.5c1-0.4,2,0.1,2.5,1.1l8.5,22.6
	c0.4,1-0.1,2-1.1,2.5C329.4,220.5,329.2,220.5,329,220.5z"/>
<path class="st9" d="M331.7,310.7l-46.8,2.2l7.4-17.2c0,0,7.9-2.3,41.9,6.8L331.7,310.7z"/>
<path class="st9" d="M261.9,283.8l23.1,29.4l7.1-17.4L278.7,276C272.8,277.8,267.1,280.2,261.9,283.8z"/>
<path class="st10" d="M288.8,283.1L270,254c-3.8-8.9-16.2-10.3-21.8-2.3c-2.7,3.8-2.9,10.1-0.4,14.2l16.8,36.4
	C269.1,295.4,282.5,285.7,288.8,283.1z"/>
<path class="st10" d="M175.2,469.7l68.4-141.5l-29.5-12.6c-35.6,52.9-57.2,150.1-57.2,150.1L175.2,469.7z"/>
<path class="st9" d="M270.4,238.4c-5.2-3.4-9.7-7.7-13-13.4c-2.2,4.2-5.1,10.5-7.8,18.6c1.6-0.4,3.6,0.1,5.1,0.8
	c6.6,2.2,10.5,9.8,17.2,11.3c-0.4-0.4-4.6-10.3-4.6-10.3L270.4,238.4z"/>
<path class="st11" d="M270.4,238.4l4.5-10.4l-14.2-8.7c0,0-1.2,2.1-3.1,5.7C260.7,230.7,265.2,235,270.4,238.4z"/>
<path class="st9" d="M256,191.9c6.4-4.5,17.9-5.1,23.8,0.8c1.9,1.9,2.2,6.2,2.7,9.2c0.1,0.5,0.8,4.2,0.8,4.2l6,8.2l-3.3,3.4
	l1.4,11.2c0,0-17.9,1.8-24.3-2.7c-6.4-4.4-14.1-14.8-11.6-28C252.1,195.5,253.9,193.4,256,191.9z"/>
<path class="st12" d="M163.3,462.7L240.8,326L214,311c-38.1,37.5-68.7,146.5-68.7,146.5L163.3,462.7z"/>
<path class="st13" d="M271.9,255.8c-5.1-4.2-10.4-13.8-15.2-18.6c-1.1-1.2-2.6-1-4.2-1.4c-18.4,10.8-19,18.5-28.5,59.5
	c-0.5,2.2-2.3,9.4-10.1,15.7l26.5,23.6l7-12.7C247.4,321.8,279.9,282.5,271.9,255.8z"/>
<path class="st14" d="M234.3,328.9l6.3,5.6l7-12.7c0,0,32.4-39.1,24.4-65.9C265.7,283,255.6,310,234.3,328.9z"/>
<path class="st9" d="M317.6,243l-10.4,45.8l-9.8-19.4c0,0-4.9-0.4,13.1-30.8L317.6,243z"/>
<path class="st9" d="M315.3,244l12.7-4.8c2.5-1,3.7-3.6,3-6.2l-2.3-7.5l-4.8-2.2c0,0-3,4.8-5.7,4.5c0,0-2.6,0.7-2.6-2.2
	c0-2.9-1.5-4.9-3.6-2.1c-2,2.9-2.3,9.8-1.4,14.9L315.3,244z"/>
<path class="st9" d="M272.3,275.7l35,13.1l-10.4-21.7l-14.3-6.7C278.4,264.9,274.9,270.1,272.3,275.7z"/>
<path class="st13" d="M286.8,258.9l-28.3-14.1c-7.1-5.2-17.3-0.4-17.8,8.3c-0.3,4.4,2.6,9.3,6.4,11.3l30,20.8
	C277.6,277.8,283.2,264,286.8,258.9z"/>
<path class="st15" d="M250,195.7c0,0-3.4-7.8,10-9.4c17.5-2.2,34.3-11.3,21.7,14.5c0,0,0-2.3-0.8-5.6c0,0-4.9,8.3-13.1,7.7
	c0,0,5.9-5.5,5.5-8.5c0,0-5.2,7.2-12.4,8.1l1.1,11.2l-1,4.9l-5.5,10.7c0,0-11.6-1.4-6.6-2.9c4.9-1.5,1.6-6.2,0.8-8.2
	c-1-2.3-3.7-5.7-4.2-9C242.5,194.9,250,195.7,250,195.7z"/>
<path class="st9" d="M262.7,213.1c0,0-1.5-8.1-4.6-7.1c-3.1,1-3.8,5.1-2.6,10.3c1.2,5.2,5.6,3.4,5.6,3.4l3.7-1L262.7,213.1z"/>
<path class="st16" d="M241.6,249.6c0,0-3.6,8.1,4.1,13.9c2.6,2,7.6,5.3,12.8,8.7c9,6.2,18.8,13,18.8,13s0.1-4.5,2.3-10.7
	C279.5,274.8,242.5,262.3,241.6,249.6z"/>
<path class="st17" d="M175.9,441.1c0,0,6.7-76.3-14.1-109.2c-19-30.2-48.3-42.1-107.7-60.4c-8.5-2.6-17.8-4.5-24.4-11.9
	c6.1,16.4,9.4,33.4,12.7,50C68.1,445.3,175.9,441.1,175.9,441.1z"/>
<path class="st18" d="M110.9,406.2c5.1,0.4,10.2,1.1,15.3,2.1c5.2,0.8,10.2,1.9,15.4,3.3s10.2,2.9,15.4,4.9
	c5.1,2.1,10.2,4.2,15.2,7.2l-1.5,1.1c-1-7.8-2-15.7-3.1-23.6c-1.1-7.9-2.3-15.7-3.7-23.6c-1.4-7.9-2.7-15.7-4.2-23.6
	c-1.5-7.9-3.3-15.7-5.3-23.6l1.9,5.9c0.7,1.9,1.1,4,1.6,5.9c0.5,1.9,1.1,4,1.6,5.9c0.5,1.9,1.1,4,1.5,5.9c1.9,7.9,3.6,15.9,5.1,23.8
	c1.5,7.9,2.7,15.9,4,23.8c1.2,7.9,2.2,15.9,3.1,23.8l0.3,2.2l-1.8-1.1c-4.8-2.9-9.7-5.2-14.7-7.2c-5.1-2.1-10.1-3.8-15.2-5.3
	c-5.1-1.5-10.2-2.9-15.3-4C121.1,408.2,116.1,407.2,110.9,406.2z"/>
<path class="st18" d="M94.4,382.2c5.2-0.1,10.5,0,15.7,0.3c5.3,0.3,10.7,0.8,16,1.8c5.3,0.8,10.7,1.9,16.1,3.6
	c5.3,1.6,10.8,3.4,16,6.2l-1.5,1.2c-1-5.3-2-10.7-3.1-16l-3.4-16c-1.1-5.3-2.3-10.7-3.6-16c-1.1-5.3-2.5-10.7-3.7-16
	c1.8,5.3,3.3,10.7,4.8,16c1.5,5.3,2.9,10.7,4.2,16c1.4,5.3,2.6,10.7,3.8,16c1.2,5.3,2.3,10.7,3.3,16.1l0.4,2.2l-1.9-1
	c-5.1-2.5-10.2-4.5-15.6-6c-5.2-1.6-10.5-2.9-15.8-3.8c-5.3-1.1-10.7-1.9-15.8-2.5C104.9,383.1,99.5,382.6,94.4,382.2z"/>
<path class="st18" d="M73.9,360.2c5.5-0.5,11.2-0.7,16.8-0.8c5.6,0,11.3,0.3,17.1,0.8s11.5,1.4,17.2,2.3c5.7,1.1,11.7,2.7,17.5,5.7
	l-1.1,2.2c-4.5-4.8-7.5-10.7-10-16.4c-2.5-5.7-4.8-11.6-6.8-17.5c-2.2-5.9-4.1-11.8-5.9-17.6c-1.8-5.9-3.7-11.8-5.7-17.6
	c2.6,5.7,4.6,11.6,6.8,17.4c2,5.9,4.2,11.6,6.6,17.4c2.3,5.7,4.6,11.5,7.2,17.2c2.5,5.6,5.3,11.1,9.4,15.3l5.2,5.5l-6.3-3.3
	c-5.3-2.9-11.1-4.5-16.7-5.6c-5.7-1.2-11.5-2.1-17.1-2.7c-5.7-0.7-11.3-1.2-17.1-1.6C85.2,360.5,79.6,360.3,73.9,360.2z"/>
<path class="st18" d="M77.6,340.5c3.6-0.1,7.2-0.1,10.8,0c3.7,0.1,7.2,0.4,10.9,0.8c3.7,0.4,7.4,0.8,10.9,1.5
	c3.7,0.5,7.4,1.4,11.1,2.2l-0.8,2.2c-1.6-1.9-3.1-4-4.5-6c-1.4-2.1-2.7-4.1-4.1-6.2c-2.7-4.1-5.2-8.3-7.8-12.6
	c-2.6-4.2-5.1-8.5-7.4-12.7c-2.3-4.4-4.8-8.6-7-13l16,24.7c2.6,4.1,5.3,8.2,8.1,12.3c2.7,4.1,5.5,8.2,8.5,11.8l2.3,2.9l-3.1-0.8
	c-3.7-0.8-7.2-1.6-10.9-2.3c-3.7-0.7-7.2-1.4-10.9-1.9c-3.7-0.5-7.2-1.1-10.9-1.5C84.9,341.3,81.2,340.9,77.6,340.5z"/>
<path class="st18" d="M55.2,320.3c3.1-0.7,6.3-1,9.6-1c3.3,0,6.6,0.1,9.8,0.4c3.3,0.3,6.7,0.8,10,1.5c3.3,0.5,6.7,1.4,10,2.2
	l-0.8,2.2c-2.9-3-5.6-6-8.5-9c-2.7-3.1-5.6-6.3-8.1-9.7c-2.6-3.4-4.9-6.8-7.2-10.4c-2.2-3.6-4.4-7.2-6.3-10.9
	c2.5,3.4,4.8,6.8,7.2,10.3c2.5,3.4,4.9,6.7,7.6,9.8c2.6,3.1,5.3,6.3,8.2,9.2l8.5,9l3,3.1l-3.8-1c-3.3-0.8-6.6-1.6-10-2.3
	c-3.3-0.7-6.6-1.4-9.8-1.9c-3.3-0.5-6.6-1-9.8-1.2C61.7,320.3,58.4,320.3,55.2,320.3z"/>
<path class="st18" d="M44,298.7c1.2-0.8,2.7-1.2,4.2-1.5c1.5-0.3,3.1-0.3,4.6-0.1c1.6,0.1,3.1,0.5,4.8,1c0.8,0.3,1.6,0.5,2.5,0.7
	l2.5,1l-0.5,2.5l-2.2-1.2c-0.7-0.3-1.5-0.7-2.2-1c-1.5-0.5-3-1.1-4.5-1.5c-1.5-0.4-3-0.5-4.6-0.5C46.8,298,45.3,298.1,44,298.7z"/>
<path class="st18" d="M175.6,441.2c-1.5-4.2-2.9-8.5-4.5-12.6c-1.6-4.1-3.4-8.2-5.2-12.3c-3.7-8.1-7.8-15.9-12.4-23.4
	c-4.6-7.5-9.4-14.9-14.6-22.1c-5.1-7.1-10.7-13.8-16.8-20c-12.2-12.4-25.9-22.8-39.9-32.7c-7-5.1-14.1-10.1-20.5-16.3
	c-3.3-3-6.3-6.4-9-10c-2.7-3.7-5.1-7.7-6.8-11.8c-0.1-0.1,0-0.4,0.1-0.4c0.1,0,0.3,0,0.4,0.3c3.8,8.1,9.8,14.9,16.4,20.5
	c6.6,5.6,13.7,10.3,20.8,14.9c14.2,9.3,28.4,19.3,41.5,31.6c6.6,6.2,12.8,12.8,18.3,20.2c5.5,7.2,10.5,15,15,23.1
	c8.9,16.1,15.3,33.6,17.9,51c0,0.1-0.1,0.3-0.3,0.3C175.8,441.5,175.6,441.4,175.6,441.2z"/>
<path class="st19" d="M238,492.8c0,0-72.9,32.7-114.4,31c-5.7-0.3-11.6-0.7-17.1-2.9c-7.1-2.7-13.2-10-10.8-16.1
	c2.3-6.2,11.1-7.8,15.8-12.4c-9.4,1.5-19.1,2.9-29,1.4c-9.7-1.4-19.5-5.9-25.1-13.5c-1-1.4-1.8-2.7-1.9-4.4c-0.4-4.1,4.5-6.8,9-7.4
	c4.5-0.5,9.4,0,13.5-1.5c-12-0.4-23.8-5.3-33.3-12.6c-9.6-7.1-17.1-16.3-23.5-25.7c-5.7-8.5-11.5-18-21.3-22.4
	c18.7-0.1,36.2-7.1,54.9-7.2c19.8-0.1,40.1,7.9,54.2,21.6c-2.9-5.7-5.7-13-1.5-17.6c4-4.5,12-3.7,18.3-1.4
	c17.5,6.2,30.9,19.7,42.1,33.5c-1.9-5.9-3.1-13.3,2-16.5c4.8-3,11.7-0.4,16.8,3C200.3,430.4,238,492.8,238,492.8z"/>
<path class="st13" d="M178.1,434.7c2.5,5.5,5.1,10.9,7.9,16.4c2.9,5.5,5.9,10.7,9.3,16c3.4,5.2,7,10.4,10.9,15.2
	c4,4.9,8.2,9.6,13.1,13.9l0.4-2.2c-8.2,2.3-16.5,4.5-24.9,6.6c-8.3,2.1-16.7,4.2-25,6c-8.3,1.9-16.8,3.8-25.3,5.3
	c-8.5,1.6-17.1,3-25.7,4.1l6.6-0.4c2.2-0.1,4.4-0.4,6.6-0.7c2.2-0.1,4.4-0.4,6.6-0.7c2.2-0.3,4.4-0.5,6.4-0.8
	c8.6-1.2,17.2-2.9,25.7-4.5c8.5-1.8,16.9-3.7,25.3-5.7c8.3-2.1,16.7-4.2,24.9-6.7l2.2-0.7l-1.8-1.5c-4.6-4.1-9-8.6-13-13.4
	c-4-4.8-7.6-9.7-11.2-14.8c-3.6-5.1-6.8-10.3-10-15.4C183.9,445.3,180.9,440,178.1,434.7z"/>
<path class="st13" d="M147.5,426.5c1.9,5.9,4.1,11.8,6.4,17.5c2.3,5.7,5.1,11.5,7.9,17.2c2.9,5.6,6.1,11.2,9.7,16.5
	c3.7,5.3,7.6,10.5,12.3,15.3l0.7-2.2c-5.7,1.2-11.5,2.2-17.2,3.3l-17.3,3.1c-5.7,1-11.6,2-17.3,2.9c-5.7,1-11.6,1.8-17.5,2.7
	c6-0.4,11.9-1,17.8-1.5c5.9-0.7,11.7-1.4,17.6-2.2s11.7-1.6,17.5-2.7c5.9-1,11.6-2,17.3-3.1l2.3-0.4l-1.6-1.8
	c-4.5-4.6-8.5-9.7-12-14.9c-3.7-5.2-7-10.7-10-16.1c-3.1-5.5-6-11.1-8.7-16.8C152.5,438,150.1,432.2,147.5,426.5z"/>
<path class="st13" d="M117.7,412.9c1.6,6.4,3.6,12.8,5.7,19.1c2.2,6.3,4.6,12.6,7.5,18.9c2.7,6.2,5.7,12.3,9,18.3
	c3.4,6,7.2,12,12.6,17.1l1.8-2.1c-6.6-3-13.5-3.8-20.2-4.2c-6.7-0.3-13.4-0.4-20.1-0.3c-6.7,0.1-13.4,0.4-19.9,1
	c-6.6,0.5-13.2,1-19.8,1.1c6.7,0.5,13.4,0.3,20.1,0.3c6.7-0.1,13.2-0.1,19.9-0.1c6.7,0.1,13.2,0.3,19.9,0.7c6.6,0.4,13.2,1.2,19,4
	l7.5,3.6l-5.7-5.6c-4.9-4.8-8.7-10.5-12.2-16.4c-3.4-5.9-6.4-12-9.4-18c-3-6.2-5.7-12.3-8.3-18.5C122.2,425.5,120,419.2,117.7,412.9
	z"/>
<path class="st13" d="M99.6,425.5c1.2,4.1,2.7,8.1,4.2,12.2c1.5,4,3.1,7.9,5.1,11.9c1.8,4,3.7,7.8,5.7,11.8c2,3.8,4.2,7.7,6.4,11.5
	l1.9-1.8c-2.6-1.1-5.2-1.8-7.8-2.5c-2.6-0.7-5.2-1.4-7.8-2.1c-5.2-1.2-10.4-2.3-15.6-3.4c-5.2-1-10.4-1.9-15.6-2.9
	c-5.2-0.8-10.5-1.6-15.7-2.2l30.9,7.2c5.2,1.2,10.2,2.5,15.4,3.7c5.1,1.2,10.2,2.6,15,4.4l3.8,1.4l-1.9-3.3
	c-2.3-3.7-4.4-7.5-6.6-11.2c-2.2-3.8-4.2-7.7-6.1-11.5c-2-3.8-4-7.7-5.7-11.6C103.1,433.4,101.3,429.5,99.6,425.5z"/>
<path class="st13" d="M70.6,409.1c0.5,3.8,1.5,7.5,2.7,11.2c1.2,3.7,2.6,7.4,4.2,10.9c1.6,3.6,3.4,7.1,5.3,10.5
	c1.9,3.4,4,6.8,6,10.3l1.9-1.8c-4.1-1.9-8.2-3.8-12.3-5.6c-4.2-1.8-8.5-3.6-12.8-4.9c-4.4-1.5-8.7-2.6-13.2-3.6
	c-4.5-1-8.9-1.8-13.4-2.5c4.4,1.2,8.7,2.5,13.1,3.7c4.4,1.2,8.6,2.7,12.8,4.2c4.2,1.6,8.3,3.4,12.4,5.2l12.3,5.7l4.4,2.1l-2.5-3.7
	c-2-3.4-4.1-6.7-6.1-10.1c-2-3.4-4-6.8-5.7-10.3c-1.8-3.4-3.6-7-5.1-10.5C73.1,416.4,71.7,412.8,70.6,409.1z"/>
<path class="st13" d="M44.7,405.8c-0.3,1.8-0.1,3.6,0.1,5.3c0.4,1.8,1,3.6,1.8,5.3c0.8,1.8,1.8,3.4,2.7,5.1c0.5,0.8,1.1,1.6,1.6,2.3
	l1.9,2.3l2.3-1.8l-2-1.9c-0.7-0.7-1.2-1.4-1.9-2.1c-1.2-1.4-2.3-2.9-3.3-4.5c-1-1.5-1.8-3.1-2.3-4.9
	C45.1,409.3,44.7,407.6,44.7,405.8z"/>
<path class="st13" d="M238,492.5c-4.8,0.1-9.6,0.3-14.3,0.3c-4.8,0-9.6-0.3-14.2-0.5c-9.4-0.7-18.8-1.9-28.1-3.8s-18.6-4.2-27.7-7
	c-9-2.6-17.9-6-26.5-10.3c-17.1-8.3-32.8-19.3-48.1-30.8c-7.6-5.7-15.6-11.5-24.2-16.1c-4.4-2.3-8.9-4.4-13.5-5.9s-9.6-2.5-14.5-2.6
	c-0.3,0-0.4,0.1-0.4,0.3c0,0.1,0.1,0.3,0.4,0.4c9.6,0.8,18.7,4.6,26.8,9.6C61.9,431,69.2,437,76.6,443c14.7,12,30.3,23.6,47.7,33.1
	c8.6,4.6,17.8,8.9,27.3,11.9c9.4,3,19.1,5.3,28.8,6.8c19.5,3.1,39.6,2.7,57.8-1.8c0.1,0,0.3-0.3,0.3-0.4
	C238.3,492.5,238.2,492.5,238,492.5z"/>
<path class="st20" d="M100.5,246.9l66.1-20.2l117.2,232.1L217.7,479L100.5,246.9z"/>
<path class="st15" d="M242.2,514.8c-1.4,0.4-3.1,0.1-4.9-0.7c-0.7-0.3-1.4-0.7-2.2-1.2c-0.5-0.4-1.2-0.8-1.8-1.4
	c-0.5-0.5-1.2-1-1.8-1.6c-0.5-0.5-1.2-1.2-1.8-1.9c-0.7-0.7-1.2-1.5-1.9-2.3c-0.8-1.1-1.5-2.2-2.3-3.3c-0.7-1.1-1.4-2.3-2-3.6
	L91.8,237.6c-1.2-2.3-2-4.5-2.7-6.7c-0.4-1.2-0.7-2.3-0.8-3.6c-0.1-0.8-0.3-1.6-0.3-2.5c0-0.7-0.1-1.4,0-2.1c0-0.7,0.1-1.2,0.1-1.8
	c0.1-0.5,0.3-1.1,0.4-1.6c0.3-0.5,0.5-1.1,0.8-1.5c0.4-0.5,0.8-1,1.4-1.2l-11.7,6.6c-0.5,0.3-1,0.7-1.4,1.2c-0.3,0.4-0.7,1-0.8,1.5
	c-0.1,0.5-0.3,1.1-0.4,1.6c-0.1,0.5-0.1,1.2-0.1,1.8c0,0.7,0,1.4,0,2.1c0,0.8,0.1,1.6,0.3,2.5c0.3,1.1,0.5,2.3,0.8,3.6
	c0.7,2.2,1.5,4.4,2.7,6.7l132.1,261.5c0.7,1.2,1.4,2.5,2,3.6c0.7,1.2,1.5,2.3,2.3,3.3c0.5,0.8,1.2,1.5,1.9,2.3
	c0.5,0.7,1.1,1.2,1.8,1.9c0.5,0.5,1.2,1.1,1.8,1.6c0.7,0.5,1.2,1,1.8,1.4c0.7,0.5,1.4,0.8,2.2,1.2c1.8,0.8,3.6,1.1,4.9,0.7
	l54.9-16.8l11.7-6.6L242.2,514.8z"/>
<path class="st6" d="M296.9,476.6l-132-261.5c-5.2-10.3-13.5-17.4-18.4-15.9l-54.9,16.8c-5.1,1.5-4.9,11.1,0.3,21.5l132.1,261.5
	c5.2,10.3,13.5,17.4,18.4,15.9l54.9-16.8C302.2,496.5,302.1,486.9,296.9,476.6z M117.8,225.1l16.9-5.2c0.3-0.1,0.8,0.3,1.1,1
	c0.3,0.5,0.3,1.2,0,1.2l-16.9,5.2c-0.3,0.1-0.8-0.3-1.1-1C117.6,225.8,117.6,225.3,117.8,225.1z M265.9,498.8
	c-3.1,1-8.2-3.4-11.5-9.8c-3.3-6.4-3.3-12.3-0.3-13.3c3.1-1,8.3,3.4,11.5,9.8C268.9,492,269,497.8,265.9,498.8z M217.7,478.8
	l-98.6-195.1l-18.7-37l66.1-20.2l5.7,11.2l13,25.7l98.6,195.1L217.7,478.8z"/>
<path class="st21" d="M179.6,252.5l-30.7,90.2l22.3,44l29.4-92.9L179.6,252.5z"/>
<path class="st21" d="M225.2,342.7l-27,97.5l19.5,38.7l11.3-3.4l20.3-84.9L225.2,342.7z"/>
<path class="st22" d="M484,336.4c-3,2-4.9,3.4-8.6,4.5c-12.4,4.1-23.9-4.8-36.5-8.5c-1.8,0-4.1,0-6.1,0c-22,18.9-40.4,51-40.4,51
	l72.6,41.7l5.2-3.8c-24-45.5-46.3-43.2-46.3-43.2c11.2-1.8,36.7-23,36.7-23c23.5,57.4,39.5,136,39.5,136l4.8,0.7
	C507.6,398,495.7,356.2,484,336.4z"/>
<path class="st23" d="M460.8,355.1l-48.3,21.5l56.4,45.9l1.6-1.2c0,0-19.1-41.4-46.3-43.2C424,378.1,434.8,376.7,460.8,355.1z"/>
<path class="st23" d="M484,336.4c0,0,5.5,7.4,10.7,26.1c6.8,24.3,13.4,67,10.2,129.2l-8.7-77.9c-2.3-20.6-7.2-40.9-14.7-60.3
	l-5.5-14.2L484,336.4z"/>
<path class="st24" d="M465,425.2c0,0-20.2,26.2-18.6,29.8c1.6,3.6,31.1-20.9,31.1-20.9s4.5-6-7.4-12.7L465,425.2z"/>
<path class="st24" d="M500.1,491.1c0,0-1.6,5.9-4.5,10.5c-2.9,4.6-8.1,8.9,1.9,14.9c0,0,10.8,0,12-6.4c1.2-6.4-4.8-18.5-4.8-18.5
	L500.1,491.1z"/>
<path class="st15" d="M415.4,227.7c-1.5,1.5-2.7,3.7-2.6,6c0.3,3.3,3.4,5.1,4.9,7.8c0.4,0.7,0.7,1.5,0.7,2.5
	c-0.1,1.5-1.2,2.6-2.5,3.1c-1.2,0.5-2.5,0.5-3.8,0.8c-5.1,1-9.7,5.3-11.2,10.9c-0.7,2.3-0.8,4.8,0,7c1.2,3.1,4.2,4.9,7.2,5.6
	c3,0.7,6.1,0.7,9.1,1.6c3,1,5.9,3.1,6.6,6.4c0.4,2,0,4.4,0.1,6.4c0.4,4.6,4,8.2,7.8,9.8c3.1,1.4,6.6,1.8,10,0.8c3.3-1,6.3-3.4,7.8-7
	c1.5-3.6,1.5-7.8,3.7-10.9c1.9-2.6,4.9-3.7,7.8-4.1c2.9-0.4,5.9-0.1,8.7-0.8c5.2-1.2,10.2-6.2,10.4-12.2c0.1-5.7-4-10.3-8.2-13.3
	c-3.3-2.6-7.2-5.3-7.8-9.8c-0.5-4.6,2.9-9.2,2.5-13.8c-0.4-4-3.4-6.7-6.3-9c-4.6-3.6-9.6-6.7-14.7-9.3c-2.9-1.5-7-3.1-10.1-0.8
	c-2,1.5-2.5,4.4-3.3,6.7C428.9,221,421.3,221.9,415.4,227.7z"/>
<path class="st17" d="M427,262.9l-29.9,43.3l4.1,11.1c0,0,25.7-29.4,28.4-35.3c2.7-6,4.5-9.2,2.3-15.7
	C429.9,259.6,427,262.9,427,262.9z"/>
<path class="st17" d="M360.5,305.8l40.7,11.3l-4.1-11.1c0,0-2.7-4.4-37.1-4.8L360.5,305.8z"/>
<path class="st9" d="M364.8,303.6c-0.3-0.3-1.1,0-2.2,0.5l0.5,0.7c-1.5,4.9-4.6,11.2-7.6,13c-3,1.8-3.4-0.8-2-3.4
	c1.2-2.6-1.2-3-1.2-3c-1.4-1-6.7,1.6-10,3.8c-0.8,0.5-1.9-0.3-1.5-1.2l2.5-6.2l3.1-3c0,0,0,0,0-0.1c-4.5,0.3-9,1.9-12.7-1.5
	l-3.6,5.5l7.5,10.3l16,1l11.5-9.2C365.2,310.7,367.4,306.2,364.8,303.6z"/>
<path class="st25" d="M346.3,307c0.1,0.5,1.2,5.2,2.2,4.8c0.8-0.3,9.8-5.9,14.1-7.8l-2.3-2.7l-11.1,0.5l-2.9,2.9
	C345.6,305.8,346.3,307,346.3,307z"/>
<path class="st25" d="M348.5,311.8c-1,0.3-2-4.4-2.2-4.8c0,0-0.7-1.2,0-2.2l-3.1,3l-2.5,6.2c-0.4,1,0.7,1.8,1.5,1.2
	c1-0.7,3,0.5,4-0.3c1.8-1.4,1.5-2.9,2.6-3.3C348.6,311.7,348.5,311.8,348.5,311.8z"/>
<path class="st9" d="M362.6,304.1c-4,1.6-11.6,6.4-13.7,7.5c1.5-0.5,2.7-0.8,3.3-0.4c0,0,2.5,0.5,1.2,3c-1.2,2.6-1,5.1,2,3.4
	c3-1.8,6.1-7.9,7.6-13L362.6,304.1z"/>
<path class="st26" d="M422.9,291.3c-1.4-1.6-2.3-3.6-2.9-5.6c-0.5-2.1-0.5-4.1-0.1-6.2c0.3-2.1,1-4,1.8-5.9c0.8-1.9,4-8.7,5.1-10.5
	l-3,4.4c-1.2,1.8-22.7,49.6-22.7,49.6l1.9-2.3l10.2-11.9L422.9,291.3z"/>
<path class="st9" d="M346.3,304.7c0.3-0.3,0.7-0.5,1.4-0.8c2.7-0.7,4.4-2.7,1.1-4c-3.3-1.2-10.1,0.4-14.7,2.6l-0.4,0.5
	C337.3,306.6,341.8,305,346.3,304.7z"/>
<path class="st17" d="M453,258.8c-4.2,0.8-25.5,1-26.4,4.8c0,0-5.5,11.2-6.8,19.3c-0.5,3.1,0.7,6.3,3,8.3l6.6,5.9
	c0,0,9.6,7.1-0.7,30.6c-1,2.3,1.2,3.6,4,4.8l9.8,4.6c12.6,3.8,20.5,7.9,33,4.2c2.5-0.7,6.4-3.1,9.3-5.5c2-1.6,3-4.5,2.3-7.1
	c-1.5-5.7-17.6-18.7-17.9-28C468.5,273.8,464.6,260.3,453,258.8z"/>
<path class="st27" d="M487,328.7c-1.5-5.7-17.6-18.7-17.9-28c-0.5-27.1-4.5-40.6-16.1-42c-0.8,0.1,6,7.8,6,13.3
	c0,21.5-4.6,42.8,18,54.1c3.8,2.5,1,5.1-2,6.3c-23.2,7-35.6-1.2-42.2,0c1.5,0.3,13.9,8.3,32,10.3c3.3,0.4,6.8-0.3,10.7-1.5
	c2.5-0.7,6.4-3.1,9.3-5.5C486.8,334.2,487.6,331.3,487,328.7z"/>
<path class="st28" d="M449.5,245.5l-14.3-1.2c0,0,1.2,5.5,0.7,10.4c0.7,0.3,1.2,0.7,1.8,1.1c4,0.8,8.1,0.5,11.3-1
	C448.6,252.5,448.5,249.3,449.5,245.5z"/>
<path class="st25" d="M437.7,255.6c-0.4-0.4-1.1-0.8-1.8-1.1c-0.3,2.3-0.8,4.5-2.2,6c-4.1,4.8-5.7,11.8,2.3,12
	c7.9,0.3,13.1-3.6,14.6-13.7c0,0-1.1-1.5-1.6-4.4C445.7,256.3,441.6,256.4,437.7,255.6z"/>
<path class="st25" d="M460.7,227c-1.8,13.3-13.2,25-19.9,24.2c-6.4-0.8-14.7-15.3-13.1-28.4c1.8-13.3,10-18.7,19.1-17.5
	C455.8,206.3,462.4,213.8,460.7,227z"/>
<path class="st15" d="M441.1,198.2c-3-0.5-6.1-0.7-9,0.3c-2.9,1-5.3,3.4-5.9,6.3c-0.4,2.7,0.8,5.6,0.1,8.3c-0.8,3.3-4.1,5.3-7,7.1
	c-2.9,1.9-5.9,4.5-5.6,7.9c0.1,2.3,1.9,4.2,4,5.2c2,1.1,4.4,1.4,6.6,1.8c-2-0.3-4.1-1.6-4.8-3.6c-0.8-1.9-0.3-4.4,1.4-5.7
	c2.5-2.1,6-0.8,9.3-1c5.2-0.1,10.1-4.5,10.8-9.7c0.1-0.7,0.1-1.2,0.5-1.8c1.1-1.6,3.7-0.5,5.7-0.1c2.2,0.4,4.6-0.5,5.9-2.5
	C457.6,203.9,446,199.2,441.1,198.2z"/>
<path class="st15" d="M449.7,211.9c-0.3,2.2,0.3,4.6,1.9,6.3c1,1,2.3,1.6,3.4,2.5c1.1,0.8,2.2,2.1,2.3,3.4c0.1,2.3-2.2,4-3.6,5.9
	c-2,2.6-2.5,6.3-1.1,9.3c0.8,1.9,2.5,3.6,2.7,5.6c0.5,2.7-1.6,5.7-4.5,6.2c2.9,0.3,5.6-1.6,7.8-3.6c2.2-1.9,4.5-4,5.2-6.8
	c0.8-3.3-0.8-6.8-0.3-10.3c0.4-3.1,2.6-5.9,3.1-9c0.5-2.7-0.3-5.6-1.6-8.1c-1.4-2.5-3.4-4.4-5.6-6.3
	C454.5,202.4,450.4,206,449.7,211.9z"/>
<path class="st25" d="M478,243.3l1.8-10.9l-7.4-14.1l-5.7-2.5c-0.8-0.5-3.7,0.7-3.3,1.6c1.5,3.6,4.5,11.3,5.6,15.3
	c0,0,0.5,4-1.6,2.2c-2.3-1.8-9.8,1.1-8.5,4.4c1,2.1,4.1-0.8,7.2-0.1c3,0.7,1.9,6.4,8.2,6.4L478,243.3z"/>
<path class="st17" d="M478,243.3l-4,2.1c8.7,13.9,13,20.8,14.9,23.9l-31.3-9.7c0,0-10.4-4-6.6,5.5c2.6,6.4,5.9,8.2,11.9,10.7
	c4.2,1.8,25.4,6,37.4,8.3c4.6,1,9-2.2,10-6.7c0.5-3-0.5-6-2.7-7.9L478,243.3z"/>
<path class="st29" d="M474,245.4l1.5-0.8l24.2,27.2l-10.7-2.5L474,245.4z"/>
<path class="st9" d="M778.9,311.9c-0.4,3-27.3,173.2-27.3,173.2l6.3,0.1c0,0,37.6-92.3,39.7-142.8c0.5-13.5,4.2-27.6-1.4-29.1
	C791.6,312.1,778.9,311.9,778.9,311.9z"/>
<path class="st15" d="M730,502.3c-4.9,3-9.3,5.3-9.4,6.4c-0.4,1.9,7.5,2,17.2,1.6l15.3-8.9l0.1-2.2l-0.1,2.2l0.1-0.1l-0.1,0.1
	l-0.4,8.2c2.3-0.1,3.7-0.3,3.7-0.3s6.4-11.8,1.9-23.4c-0.7,0.1-1.4,0.4-1.9,0.8C748.7,493.2,740.7,504.4,730,502.3z"/>
<path class="st9" d="M751.6,485.1c0,0-5.2,5.2-15,12.7c-2,1.6-4.4,3.1-6.7,4.5c10.7,2.1,18.7-9.2,26.5-15.3c0.7-0.4,1.2-0.7,1.9-0.8
	c-0.1-0.4-0.3-0.8-0.5-1.2L751.6,485.1z"/>
<path class="st15" d="M801.7,486.6c0,0-2.6,19.5,2.3,23.6s11.7,4,11.7,4s2.7-2.9,3-5.2s-1.2-8.6-10.2-22.6h-6.8V486.6z"/>
<path class="st9" d="M782.5,311.9c0,0.3,11.3,2.3,11.5,5.3c1.2,28.7,7.8,168.7,7.8,168.7l6.8,0.8c0,0,25-105.5,11.2-154.5
	c-3.6-12.3-14.2-20-14.2-20l-8.1-0.1L782.5,311.9z"/>
<path class="st9" d="M801.7,485.9c0,0-1.4,19.3,6,20c7.4,0.7,8.5-1.1,7.8-4.1s-7-15.2-7-15.2L801.7,485.9z"/>
<path class="st15" d="M819.7,332.3c-3.6-12.3-14.2-20-14.2-20l-8.1-0.1l-15.2-0.1c0,0,0.1,0,0.1,0.1c-2.2-0.1-3.8-0.1-3.8-0.1
	c-0.3,1.5-7,45.2-13.7,88.7h40.1c0,0,5.6-16.5,7.6-29.4c0.5,13,0.7,15.2,1.4,29.4h8.1C824.6,375.8,824.9,350.3,819.7,332.3z"/>
<path class="st30" d="M819.7,332.3c-3.5-12.3-14.2-20-14.2-20l-8.1-0.1h-1.9c20.8,25.7,24.2,56.7,22.4,88.6h4.4
	C824.6,375.8,824.9,350.3,819.7,332.3z"/>
<path class="st22" d="M805.7,193.4c0,0,5.5-1.2,9.4,8.9c2,5.5,6.8,21.6,6.8,35.8c0.1,42.1-38.9,26.1-44,17.2
	c-4.9-8.9-15.6-13.9,16-59.2"/>
<path class="st31" d="M779.9,252.3l-29.8,45.4l4.5,12.4c0,0,28.9-33.1,32.1-39.9c3.1-6.7,5.1-10.3,2.6-17.8
	C787.1,245,779.9,252.3,779.9,252.3z"/>
<path class="st31" d="M734.1,267.1l20.5,43.1l6.4-11.6c0,0,1.6-5.6-23.6-35.3L734.1,267.1z"/>
<path class="st9" d="M734.1,267.1l-5.3,2.3c-3.3,1.4-6.8,1.9-10.2,1.5l-10.4-1.2l-6.4-4c-1-0.5-0.5-2.2,0.5-2.2
	c4.4-0.1,18.3,0,19-1.8c0,0,1.2-0.7-1.6-2.2c-2.9-1.5-4.2-4.1-0.4-4.5c3.7-0.4,10.4,2.9,15.2,6.3c0.1,0.1,2.9,1.6,3,1.8L734.1,267.1
	z"/>
<path class="st17" d="M808.4,244.5c-4.4,0-8.5-1.6-16.8-1.1c-4.1,0.3-10.9,2.1-12.4,5.6l-8.9,16.3c-1.5,2.3-2.3,8.6-0.5,10.7
	c2.5,2.7,5.6,5.1,6.1,7.1l3,28.8l26.6,0.3C805.5,312.3,827.5,258.9,808.4,244.5z"/>
<path class="st32" d="M808.4,244.5c-2.2,0-4.4-0.4-7-0.8c1.5,1.4,2.7,2.7,3.7,4.4c12.3,19.7,0.5,44.2-10.5,64.1l10.9,0.1
	C805.5,312.3,827.5,258.9,808.4,244.5z"/>
<path class="st25" d="M801.9,232.9c-0.3-3.3-0.3-7.1,0.3-11.6l-10.9,8.2c0,0,0.5,3.8-0.4,7C794.9,238.1,798.4,235.5,801.9,232.9z"/>
<path class="st9" d="M790.7,236.6c-0.5,1.5-1.4,3-2.9,3.7c-2.5,1.2-2.2,4.9-4.1,6.2l-1.2,9.8v5.2l13.1-11.2l10-4.5c0,0-3-4-3.8-12.7
	C798.4,235.5,794.9,238.1,790.7,236.6z"/>
<path class="st9" d="M810.1,214.7c0,18.6-24.6,19-24.6,19s-6-6.8-6-17.1c0-10.3,0-24.9,7.1-24.9C802,191.9,810.1,191.9,810.1,214.7z
	"/>
<path class="st22" d="M805.5,193.4c0,0-19.1-12.8-25.9-2.7c-6.8,10-2.7,15.9-2.7,15.9l2.2-0.8c0,0-0.4-5.9,1.6-8.2
	c0,0-2.3,6.7-0.8,8.2c0,0,14.5-1.9,17.5,0.1c3,2.1,3.5,7.4,3.5,7.4l0.8,16.4c0,0,11.9-4.5,11.9-23.4
	C813.5,191.9,805.5,193.4,805.5,193.4z"/>
<path class="st9" d="M800.8,213.1c0,0,1-7.7,5.7-4c4.8,3.8,0.4,12-2.5,12.4c-2.9,0.5-4.4-4.5-4.4-4.5"/>
<path class="st4" d="M803.1,238c0,0,1.6,2.7,5.6,6l-13.1,7.1l1.4,3l-14.5,7.2C782.5,261.4,799.9,239.1,803.1,238z"/>
<path class="st4" d="M787.8,240.2c0,0-5.7,10-5.3,21.2c0,0-1.8-6.2-1.6-11.3l1.6-1.9l-0.8-1.6C781.6,246.3,785.5,242.1,787.8,240.2z
	"/>
<path class="st24" d="M804.3,250.6l-29.8,45.4l4.5,12.4c0,0,29-33.1,32.1-39.9c3.1-6.7,5.1-10.3,2.6-17.8
	C811.5,243.2,804.3,250.6,804.3,250.6z"/>
<path class="st24" d="M733,295.4l46.2,13l-4.5-12.4c0,0-3.3-4.6-42.2-5.5L733,295.4z"/>
<g class="st33">
	<path class="st34" d="M222.3,107.4c4.1-10-0.6-21.4-10.6-25.5c-10-4.1-21.4,0.6-25.5,10.6c-4.1,10,0.6,21.4,10.6,25.5
		C206.8,122.1,218.2,117.4,222.3,107.4z"/>
	<path class="st35" d="M194.6,97.9c0-0.4,0-0.8,0.1-1.2c0.5-2.6,2.9-4.5,5.5-4.5c1.5,0,3,1.2,4,2.2c1-1,2.5-2.2,4-2.2
		c2.7,0,4.9,1.9,5.5,4.5c0.1,0.4,0.1,0.8,0.1,1.2c0,0.1,0,0.1,0,0.3c0,0.1,0,0.3,0,0.3c0,6-9.6,10.9-9.6,10.9s-9.6-4.9-9.6-10.9
		c0-0.1,0-0.3,0-0.3S194.6,98,194.6,97.9z"/>
	<path class="st34" d="M208.1,116.5l14.1,8.9l-5.6-17.6L208.1,116.5z"/>
	<path class="st36" d="M521.9,179.8c0,0-1.8,7.7,7.1,17.1c0,0-18.3-5.3-23.6-17.1H521.9z"/>
	<path class="st36" d="M496.1,184.5H535c4.5,0,8.2-3.7,8.2-8.2v-23.2c0-4.5-3.7-8.2-8.2-8.2h-38.9c-4.5,0-8.2,3.7-8.2,8.2v23.2
		C487.9,180.8,491.6,184.5,496.1,184.5z"/>
	<path class="st37" d="M525.6,164.7c0,2.1,1.6,3.7,3.7,3.7c2,0,3.7-1.6,3.7-3.7c0-2-1.6-3.7-3.7-3.7
		C527.2,161,525.6,162.7,525.6,164.7z"/>
	<path class="st37" d="M511.8,164.7c0,2.1,1.6,3.7,3.7,3.7c2,0,3.7-1.6,3.7-3.7c0-2-1.6-3.7-3.7-3.7
		C513.4,161,511.8,162.7,511.8,164.7z"/>
	<path class="st37" d="M498,164.7c0,2.1,1.6,3.7,3.7,3.7c2,0,3.7-1.6,3.7-3.7c0-2-1.6-3.7-3.7-3.7C499.7,161,498,162.7,498,164.7z"
		/>
</g>
<g class="st33">
	<path class="st38" d="M265.6,132.6c0,0,1.9,8.7-8.1,19.5c0,0,20.9-6,27-19.5H265.6z"/>
	<path class="st38" d="M296.1,138.1h-46.6c-4.5,0-8.2-3.7-8.2-8.2V101c0-4.5,3.7-8.2,8.2-8.2h46.6c4.5,0,8.2,3.7,8.2,8.2v28.8
		C304.2,134.4,300.6,138.1,296.1,138.1z"/>
	<path class="st37" d="M261.4,115.5c0,2.3-1.9,4.2-4.2,4.2c-2.3,0-4.2-1.9-4.2-4.2c0-2.3,1.9-4.2,4.2-4.2
		C259.5,111.3,261.4,113.2,261.4,115.5z"/>
	<path class="st37" d="M277.1,115.5c0,2.3-1.9,4.2-4.2,4.2c-2.3,0-4.2-1.9-4.2-4.2c0-2.3,1.9-4.2,4.2-4.2
		C275.2,111.3,277.1,113.2,277.1,115.5z"/>
	<path class="st37" d="M292.8,115.5c0,2.3-1.9,4.2-4.2,4.2c-2.3,0-4.2-1.9-4.2-4.2c0-2.3,1.9-4.2,4.2-4.2
		C290.9,111.3,292.8,113.2,292.8,115.5z"/>
	<path class="st36" d="M201.3,192.3c14.7,0,26.6-11.9,26.6-26.7c0-14.7-11.9-26.7-26.6-26.7c-14.7,0-26.6,11.9-26.6,26.7
		C174.7,180.4,186.6,192.3,201.3,192.3z"/>
	<path class="st36" d="M206.5,188.4l19.4,12l-7.8-24.2L206.5,188.4z"/>
	<path class="st35" d="M212.7,162.1c0-1.6-1.2-2.9-2.9-2.9h-4.6c0-1.4-0.1-3.4-0.3-4.9c0-1-0.5-1.5-1-1.8c-1.1-0.8-2.7-0.4-3-0.3
		c-0.4,0.1-0.8,0.5-0.7,1.1c0.3,3-1.6,6.6-3.7,8.2c0,0-0.3,0.1-0.4,0.1v-0.5c0-0.5-0.4-1-1-1h-5.3c-0.5,0-1,0.4-1,1v13.9
		c0,0.5,0.4,1,1,1h5.3c0.5,0,1-0.4,1-1v-0.5h12.7c1.2,0,2.2-0.8,2.3-2.1c0.1-1.1-0.8-1.5-1-1.8c0.7-0.5,2.2-0.8,2.2-1.8
		s-1-1.1-1-1.4c0.7-0.5,1.5-1.4,1.5-2.3c0-0.5-0.5-1.1-1-1.6C212.2,163.2,212.7,162.7,212.7,162.1z"/>
	<path class="st34" d="M834.8,175.5c0,0,1.8,7.7-7.1,17.1c0,0,18.3-5.3,23.6-17.1H834.8z"/>
	<path class="st34" d="M860.6,180.2h-38.9c-4.5,0-8.2-3.7-8.2-8.2v-23.2c0-4.5,3.7-8.2,8.2-8.2h38.9c4.5,0,8.2,3.7,8.2,8.2V172
		C868.8,176.6,865.1,180.2,860.6,180.2z"/>
	<path class="st37" d="M831.1,160.5c0,2.1-1.6,3.7-3.7,3.7c-2,0-3.7-1.6-3.7-3.7s1.6-3.7,3.7-3.7
		C829.4,156.8,831.1,158.4,831.1,160.5z"/>
	<path class="st37" d="M844.9,160.5c0,2.1-1.6,3.7-3.7,3.7c-2,0-3.7-1.6-3.7-3.7s1.6-3.7,3.7-3.7
		C843.2,156.8,844.9,158.4,844.9,160.5z"/>
	<path class="st37" d="M858.7,160.5c0,2.1-1.6,3.7-3.7,3.7c-2,0-3.7-1.6-3.7-3.7s1.6-3.7,3.7-3.7C857,156.8,858.7,158.4,858.7,160.5
		z"/>
	<path class="st34" d="M563.4,212.4c8.4,0,15.2-6.8,15.2-15.2c0-8.4-6.8-15.2-15.2-15.2c-8.4,0-15.2,6.8-15.2,15.2
		C548.3,205.6,555.1,212.4,563.4,212.4z"/>
	<path class="st35" d="M570.8,195.7c0-0.3,0-0.7-0.1-1c-0.4-1.9-2.2-3.4-4.2-3.4c-1.2,0-2.3,1-3.1,1.8c-0.8-0.8-1.9-1.8-3.1-1.8
		c-2,0-3.8,1.5-4.2,3.4c0,0.3-0.1,0.5-0.1,1c0,0.1,0,0.1,0,0.3c0,0.1,0,0.1,0,0.3c0,4.8,7.5,8.6,7.5,8.6s7.5-3.8,7.5-8.6
		c0-0.1,0-0.1,0-0.3C570.8,195.9,570.8,195.7,570.8,195.7z"/>
	<path class="st34" d="M560.4,210.2l-11.1,6.8l4.4-13.8L560.4,210.2z"/>
</g>
<path class="st39" d="M707.1,286.8c-25.9-8.1-27.3-5.1-27.3-5.1l-11.2,11.6l39.1,6.2C707.6,296.5,707.2,289.9,707.1,286.8z"/>
<path class="st25" d="M709.9,289.2c-1-0.3-2-0.7-2.9-1c0.1,3.1,0.5,6.3,0.5,9.3l9.1,1L709.9,289.2z"/>
<path class="st40" d="M719.1,281.7c-0.1,0-0.3,0-0.5,0c-1.6,0.1-2.3,0.5-2.5,1.2C717.2,282.4,718.1,282,719.1,281.7z"/>
<path class="st41" d="M720.9,282c-0.3-0.3-1-0.4-1.8-0.3C719.6,281.7,720.3,281.9,720.9,282z"/>
<path class="st25" d="M719.5,289.9c0,0,0.8-0.8,0.7-1.8c0,0-1-0.5-1-1.5c-0.1-0.1-0.3-0.3-0.5-0.3c-1.6-1-2.7-2.2-2.6-3.1
	c-2.5,1.6-5.2,4.5-7,7.1v1.5C713.5,291.8,718.8,291.6,719.5,289.9z"/>
<path class="st25" d="M718.8,286.2c0.1,0.1,0.4,0.3,0.5,0.3c0-0.4,0.1-0.8,0.7-1.4c1.2-1.2,1.8-2.6,1-3.1c-0.7-0.1-1.2-0.1-1.8-0.3
	h-0.1c-0.8,0.1-1.8,0.7-2.9,1.2C716.1,284,717.2,285.3,718.8,286.2z"/>
<path class="st9" d="M732.9,290.5c-3.7-3.1-8.2-7.7-12-8.5c0.8,0.5,0.3,2.1-1,3.1c-0.5,0.5-0.7,1-0.7,1.4c0.7,0.5,1,1,1,1.5
	c0.1,1-0.7,1.8-0.7,1.8c-0.7,1.6-6.1,1.9-10.4,1.8c-0.4,0-0.8,0-1.2,0c-1.2,0-1.6,1.5-0.7,2.2l1.8,1.2l4.4,3l6.8,1.9l2.2,0.5
	l10.5-5.2V290.5z"/>
<path class="st39" d="M649.4,270.5l19,22.7L681,281l-18.2-22C658.3,261.6,653.1,266.7,649.4,270.5z"/>
<path class="st39" d="M666.2,263.7l-15.7-20.9c-5.9-6.4-13.5-6.6-17.1-0.1c-1.8,3.1-1.5,7.9,0.7,10.8l21.4,23.9
	C658.6,272,661.7,266.3,666.2,263.7z"/>
<path class="st9" d="M655.6,488.4l4.8,18.3l13.9-4.4l-5.9-25.8L655.6,488.4z"/>
<path class="st22" d="M674,501l28.5,9.7c1.6,0.5,2.7,1.9,2.7,3.6c0,2.1-1.9,3.8-4.4,3.8h-40c0,0-4-7.7-0.4-11.6L674,501z"/>
<path class="st19" d="M673.9,493.7l-23.1-163.1h-25c-11.3,16.1,29.9,164.7,29.9,164.7L673.9,493.7z"/>
<path class="st42" d="M635.2,355.1l-5.7,30.9c0,0,16.7,77.9,26.1,109.4l7.1-0.7L635.2,355.1z"/>
<path class="st9" d="M564.4,472.3l-11.9,14.6l11.7,8.9l17.3-20.1L564.4,472.3z"/>
<path class="st19" d="M556.7,479.8l16.4,8.1l44.7-51.8l3-3.6c-7-4.2-17.8-5.5-24-10.7C575.4,451.9,556.7,479.8,556.7,479.8z"/>
<path class="st22" d="M568.9,491.5c0,0,2.9,11.6,19.1,16.3c7.5,2.2,0.5,8.7,0.5,8.7H567l-18.7-16.8c0,0,0.8-16.8,7.9-16.8
	C556.2,482.8,562.5,488.7,568.9,491.5z"/>
<path class="st19" d="M609.2,330.7c-5.9,8.5-10.7,53.4-13.8,94.3c8.1,1.2,17.3,7.4,25.5,7.5l17.9-95.8L609.2,330.7z"/>
<path class="st43" d="M567.1,484.8l47.9-54.5l13.2-37.3l-7.4,39.5l-47.7,55.4L567.1,484.8z"/>
<path class="st15" d="M642.5,237.6c-13-3.8-15.8-6.6-24.2-4.5c-3.7,1-15,5.9-17.8,7.8c-3.7,2.5-6.3,7.1-6.3,11.6
	c0.1,27.5,19,51.7,18.2,62.6l-3.3,15.6l42.9,8.6C652,339.3,659.5,245.4,642.5,237.6z"/>
<path class="st44" d="M621.3,298.5c-8.2-17.6-25.1-36.2-20.3-58c-0.3,0.1-0.4,0.3-0.5,0.3c-3.7,2.5-6.3,7.1-6.3,11.6
	c0.1,27.5,19,51.7,18.2,62.6l-3.1,15.6l11.6,2.3C624.6,321.8,626.4,310.3,621.3,298.5z"/>
<path class="st25" d="M560.1,265.3c-1.5-1.6-3-3.3-4.6-5.2l-12-2.2l9.1,14.9C556.2,272.4,557.9,268.3,560.1,265.3z"/>
<path class="st25" d="M540.3,262.2l-12.7-7.4c-1-0.5-1.5-1.8-1.2-2.9l1-4c0.4-1.5,2-2.3,3.6-1.8l11.3,4.9c0,0,4.6-0.7,7.4,0
	c0,0,1.2-3.3,2.3-6c1-2.7,2.7-2.5,3.7,1.1c1,3.4,1.8,11.1-1,15.6l-5.7,5.1l-1.9-3.7L540.3,262.2z"/>
<path class="st40" d="M597.1,274.8l-26.5,27.3l-5.2-15l17.1-22.8C587.3,266.4,593,271.2,597.1,274.8z"/>
<path class="st39" d="M571.6,278.6l22-32.5c5.5-7.1,13.2-8.1,17.5-1.6c2,3.1,0.8,14.6-1.1,17.8L570.5,302
	C567,296.6,576.5,280.8,571.6,278.6z"/>
<path class="st39" d="M561.4,263.7c-2.2,3-7.4,8.1-11.1,8.6l20.1,29.7l6-16.1C576.4,285.8,578.3,282.5,561.4,263.7z"/>
<path class="st25" d="M629.9,230.5c-6.3,0.7-12.4-0.7-16.4-5.5c-0.3,7.4-1.2,10.1-1.2,10.1l21,1.1
	C631.4,235.1,630.3,232.9,629.9,230.5z"/>
<path class="st25" d="M631.6,234.6c0,0,5.5,3.7,1.1,4.6c-4.4,1.1-16.1,3.6-20.3-4.1l9-7.5l7.1,4.5L631.6,234.6z"/>
<path class="st28" d="M629.9,230.5c-1-5.1,0.4-11.1,0.4-11.1l-16.9-6.6c0.3,5.1,0.3,9,0.1,12.2C617.5,229.8,623.6,231.1,629.9,230.5
	z"/>
<path class="st25" d="M607.4,207.5c0,18.9,24.6,16.9,24.6,16.9s6.4-4.5,6.4-14.9s0-25.3-7.2-25.3
	C615.6,184.3,607.4,184.4,607.4,207.5z"/>
<path class="st31" d="M606.8,204.2c-0.4-1.4,2,2.3,3.4,1.8c1.4-0.5,2.2-2.1,2.5-3.4c0.3-1.5-0.1-3-0.4-4.4c0.4,0.5,1.4,0.7,1.9,0.3
	c0.7-0.4,1.1-1,1.4-1.6c1-2.1,1.2-4.5,0.8-6.7c1.8,1.8,4.4,2.7,6.8,2.2s4.6-2.3,5.5-4.6c1.8,2.2,4.6,3.1,7.5,3.3
	c1.9,0,3.8-0.3,5.3-1.4c1.5-1.1,2.5-3,2.2-4.8c-0.1-1-0.7-1.8-1.4-2.6c-2.7-3.4-7.1-6.6-11.3-5.2c0.1-2.6-1.4-3.8-3.3-5.6
	c-1.9-1.8-4.9-2.3-7.1-1c-2.3,1.5-3,2.2-4.5,4.5c-1.6-1.6-10.1-2.9-12.2-1.9c-2,1-3.7,3.1-3.3,5.5c0.4,2.5,0.8,3.3,1.5,5.7
	c-2.9-0.5-4.2,1.4-6,3.8c-1.8,2.3-1.6,6.2,0.7,8.1c1,0.8,2.2,1.2,3.3,1.8c0.3,0.1,0.7,0.3,0.8,0.7c0.1,0.4-0.1,0.7-0.4,1.1
	c-2,3-3.1,6.6-3.3,10.1c0,0.5,0,1.2,0.3,1.8c0.5,1.1,1.8,1.5,3,1.6c1.2,0,2.3-0.3,3.5-0.1c0.4,0,0.8,0.1,1.1,0.3
	c0.7,0.4,0.7,1.4,0.5,2.2c-0.1,1.6-0.3,3.3-0.4,5.1c-0.1,1-0.1,1.9,0.3,2.7c0.5,1.4,2.2,2.1,3.6,2.5c2,0.5,2.9,1.5,4.2-0.1
	c0,0,1.2-1.8,0.1-5.3C612.4,216.4,608.9,210.5,606.8,204.2z"/>
<path class="st25" d="M612,207c0,0-1-9.2-4.4-7c-3.4,2.2-3.3,13.3,5.1,12.8c8.2-0.3,6.8-2.3,6.8-2.3L612,207z"/>
<path class="st15" d="M534.6,227l-2.9,39.2l18,1.8l2.2-37.9L534.6,227z"/>
<path class="st20" d="M537.1,229.6l-2.3,34.6l13.4,1.2l2-33.5L537.1,229.6z"/>
<path class="st21" d="M536,245.6l13.7-13.7h0.5l-0.4,6.3l-14.1,14.1L536,245.6z"/>
<path class="st21" d="M535.4,254.8l14.2-14.2l-0.1,0.7l-0.3,6.2L535,261.6L535.4,254.8z"/>
</svg>
