<?xml version="1.0" encoding="utf-8"?>
<!-- Generator: Adobe Illustrator 24.0.0, SVG Export Plug-In . SVG Version: 6.00 Build 0)  -->
<svg version="1.1" id="Layer_1" xmlns="http://www.w3.org/2000/svg" xmlns:xlink="http://www.w3.org/1999/xlink" x="0px" y="0px"
	 viewBox="0 0 937 570" style="enable-background:new 0 0 937 570;" xml:space="preserve">
<style type="text/css">
	.st0{display:none;}
	.st1{display:inline;fill:#D02E1B;}
	.st2{display:inline;fill:#FFFFFF;}
	.st3{display:inline;fill:#666666;}
	.st4{display:inline;fill:#FFFFF5;}
	.st5{fill:#A6A6A6;}
	.st6{fill:#FFFFF5;}
	.st7{fill:#666666;}
	.st8{fill:#FFFFFF;}
	.st9{fill:#D02E1B;}
</style>
<g class="st0">
	<path class="st1" d="M222.3,107.4c4.1-10-0.6-21.4-10.6-25.5s-21.4,0.6-25.5,10.6s0.6,21.4,10.6,25.5S218.2,117.4,222.3,107.4z"/>
	<path class="st2" d="M194.6,97.9c0-0.4,0-0.8,0.1-1.2c0.5-2.6,2.9-4.5,5.5-4.5c1.5,0,3,1.2,4,2.2c1-1,2.5-2.2,4-2.2
		c2.7,0,4.9,1.9,5.5,4.5c0.1,0.4,0.1,0.8,0.1,1.2c0,0.1,0,0.1,0,0.3c0,0.1,0,0.3,0,0.3c0,6-9.6,10.9-9.6,10.9s-9.6-4.9-9.6-10.9
		c0-0.1,0-0.3,0-0.3S194.6,98,194.6,97.9z"/>
	<path class="st1" d="M208.1,116.5l14.1,8.9l-5.6-17.6L208.1,116.5z"/>
	<path class="st3" d="M521.9,179.8c0,0-1.8,7.7,7.1,17.1c0,0-18.3-5.3-23.6-17.1H521.9z"/>
	<path class="st3" d="M496.1,184.5H535c4.5,0,8.2-3.7,8.2-8.2v-23.2c0-4.5-3.7-8.2-8.2-8.2h-38.9c-4.5,0-8.2,3.7-8.2,8.2v23.2
		C487.9,180.8,491.6,184.5,496.1,184.5z"/>
	<path class="st4" d="M525.6,164.7c0,2.1,1.6,3.7,3.7,3.7c2,0,3.7-1.6,3.7-3.7c0-2-1.6-3.7-3.7-3.7
		C527.2,161,525.6,162.7,525.6,164.7z"/>
	<path class="st4" d="M511.8,164.7c0,2.1,1.6,3.7,3.7,3.7c2,0,3.7-1.6,3.7-3.7c0-2-1.6-3.7-3.7-3.7
		C513.4,161,511.8,162.7,511.8,164.7z"/>
	<path class="st4" d="M498,164.7c0,2.1,1.6,3.7,3.7,3.7c2,0,3.7-1.6,3.7-3.7c0-2-1.6-3.7-3.7-3.7C499.7,161,498,162.7,498,164.7z"/>
</g>
<g>
	<path class="st5" d="M349.6,132.6c0,0,1.9,8.7-8.1,19.5c0,0,20.9-6,27-19.5H349.6z"/>
	<path class="st5" d="M380.1,138.1h-46.6c-4.5,0-8.2-3.7-8.2-8.2V101c0-4.5,3.7-8.2,8.2-8.2h46.6c4.5,0,8.2,3.7,8.2,8.2v28.8
		C388.2,134.4,384.6,138.1,380.1,138.1z"/>
	<path class="st6" d="M345.4,115.5c0,2.3-1.9,4.2-4.2,4.2s-4.2-1.9-4.2-4.2c0-2.3,1.9-4.2,4.2-4.2S345.4,113.2,345.4,115.5z"/>
	<path class="st6" d="M361.1,115.5c0,2.3-1.9,4.2-4.2,4.2c-2.3,0-4.2-1.9-4.2-4.2c0-2.3,1.9-4.2,4.2-4.2S361.1,113.2,361.1,115.5z"
		/>
	<path class="st6" d="M376.8,115.5c0,2.3-1.9,4.2-4.2,4.2c-2.3,0-4.2-1.9-4.2-4.2c0-2.3,1.9-4.2,4.2-4.2S376.8,113.2,376.8,115.5z"
		/>
	<path class="st7" d="M201.3,192.3c14.7,0,26.6-11.9,26.6-26.7c0-14.7-11.9-26.7-26.6-26.7c-14.7,0-26.6,11.9-26.6,26.7
		C174.7,180.4,186.6,192.3,201.3,192.3z"/>
	<path class="st7" d="M206.5,188.4l19.4,12l-7.8-24.2L206.5,188.4z"/>
	<path class="st8" d="M212.7,162.1c0-1.6-1.2-2.9-2.9-2.9h-4.6c0-1.4-0.1-3.4-0.3-4.9c0-1-0.5-1.5-1-1.8c-1.1-0.8-2.7-0.4-3-0.3
		c-0.4,0.1-0.8,0.5-0.7,1.1c0.3,3-1.6,6.6-3.7,8.2c0,0-0.3,0.1-0.4,0.1v-0.5c0-0.5-0.4-1-1-1h-5.3c-0.5,0-1,0.4-1,1V175
		c0,0.5,0.4,1,1,1h5.3c0.5,0,1-0.4,1-1v-0.5h12.7c1.2,0,2.2-0.8,2.3-2.1c0.1-1.1-0.8-1.5-1-1.8c0.7-0.5,2.2-0.8,2.2-1.8
		s-1-1.1-1-1.4c0.7-0.5,1.5-1.4,1.5-2.3c0-0.5-0.5-1.1-1-1.6C212.2,163.2,212.7,162.7,212.7,162.1z"/>
	<path class="st9" d="M834.8,175.5c0,0,1.8,7.7-7.1,17.1c0,0,18.3-5.3,23.6-17.1H834.8z"/>
	<path class="st9" d="M860.6,180.2h-38.9c-4.5,0-8.2-3.7-8.2-8.2v-23.2c0-4.5,3.7-8.2,8.2-8.2h38.9c4.5,0,8.2,3.7,8.2,8.2V172
		C868.8,176.6,865.1,180.2,860.6,180.2z"/>
	<path class="st6" d="M831.1,160.5c0,2.1-1.6,3.7-3.7,3.7c-2,0-3.7-1.6-3.7-3.7s1.6-3.7,3.7-3.7
		C829.4,156.8,831.1,158.4,831.1,160.5z"/>
	<path class="st6" d="M844.9,160.5c0,2.1-1.6,3.7-3.7,3.7c-2,0-3.7-1.6-3.7-3.7s1.6-3.7,3.7-3.7
		C843.2,156.8,844.9,158.4,844.9,160.5z"/>
	<path class="st6" d="M858.7,160.5c0,2.1-1.6,3.7-3.7,3.7c-2,0-3.7-1.6-3.7-3.7s1.6-3.7,3.7-3.7C857,156.8,858.7,158.4,858.7,160.5z
		"/>
	<path class="st9" d="M563.4,212.4c8.4,0,15.2-6.8,15.2-15.2s-6.8-15.2-15.2-15.2s-15.2,6.8-15.2,15.2
		C548.3,205.6,555.1,212.4,563.4,212.4z"/>
	<path class="st8" d="M570.8,195.7c0-0.3,0-0.7-0.1-1c-0.4-1.9-2.2-3.4-4.2-3.4c-1.2,0-2.3,1-3.1,1.8c-0.8-0.8-1.9-1.8-3.1-1.8
		c-2,0-3.8,1.5-4.2,3.4c0,0.3-0.1,0.5-0.1,1c0,0.1,0,0.1,0,0.3c0,0.1,0,0.1,0,0.3c0,4.8,7.5,8.6,7.5,8.6s7.5-3.8,7.5-8.6
		c0-0.1,0-0.1,0-0.3C570.8,195.9,570.8,195.7,570.8,195.7z"/>
	<path class="st9" d="M560.4,210.2l-11.1,6.8l4.4-13.8L560.4,210.2z"/>
</g>
</svg>
