<?xml version="1.0" encoding="utf-8"?>
<!-- Generator: Adobe Illustrator 24.0.0, SVG Export Plug-In . SVG Version: 6.00 Build 0)  -->
<svg version="1.1" id="Layer_1" xmlns="http://www.w3.org/2000/svg" xmlns:xlink="http://www.w3.org/1999/xlink" x="0px" y="0px"
	 viewBox="0 0 632 570" style="enable-background:new 0 0 632 570;" xml:space="preserve">
<style type="text/css">
	.st0{fill:#2B2B2B;}
	.st1{fill:#FFFDFF;}
	.st2{fill:#E6E6E6;}
	.st3{fill:#202020;}
	.st4{fill:#B3B3B3;}
	.st5{fill:#8E8E8E;}
	.st6{fill:#0E0E0E;}
	.st7{fill:#D02E1B;}
	.st8{fill:#B82412;}
	.st9{fill:#E32C17;}
	.st10{fill:#303030;}
	.st11{fill:#191919;}
	.st12{fill:#2E2E2E;}
	.st13{fill:#A7A7A7;}
	.st14{fill:#C8C8C8;}
</style>
<g>
	<path class="st0" d="M442.5,562.8H189.1c-5.5,0-9.9-4.4-9.9-9.9V49.5c0-5.5,4.4-9.9,9.9-9.9h253.5c5.5,0,9.9,4.4,9.9,9.9v503.2
		C452.4,558.4,448,562.8,442.5,562.8z"/>
	<path class="st1" d="M343.1,544.9h-54.4c-3.1,0-5.7-2.5-5.7-5.7v-8.7c0-3.1,2.5-5.7,5.7-5.7h54.4c3.1,0,5.7,2.5,5.7,5.7v8.7
		C348.7,542.4,346.2,544.9,343.1,544.9z"/>
	<path class="st1" d="M346.3,59.4h-61c-1.3,0-2.4-1-2.4-2.4v-3.2c0-1.3,1-2.4,2.4-2.4h61c1.3,0,2.4,1,2.4,2.4V57
		C348.7,58.2,347.6,59.4,346.3,59.4z"/>
	<path class="st1" d="M274.7,59.2c2.2,0,4-1.8,4-4c0-2.2-1.8-4-4-4c-2.2,0-4,1.8-4,4C270.7,57.5,272.5,59.2,274.7,59.2z"/>
	<path class="st1" d="M356.9,59.2c2.2,0,4-1.8,4-4c0-2.2-1.8-4-4-4c-2.2,0-4,1.8-4,4C352.9,57.5,354.7,59.2,356.9,59.2z"/>
	<path class="st1" d="M444,73.7H185.7v432.7H444V73.7z"/>
	<path class="st2" d="M416.9,398.8H214.4c-2.7,0-4.7-2.1-4.7-4.7V174.8c0-2.7,2.1-4.7,4.7-4.7h202.5c2.7,0,4.7,2.1,4.7,4.7V394
		C421.6,396.6,419.5,398.8,416.9,398.8z"/>
	<path class="st2" d="M239.6,151.6c13.3,0,24-10.8,24-24s-10.8-24-24-24s-24,10.8-24,24S226.3,151.6,239.6,151.6z"/>
	<path class="st2" d="M416.9,122.2H289.3c-2.7,0-4.7-2.1-4.7-4.7v-2.9c0-2.7,2.1-4.7,4.7-4.7h127.6c2.7,0,4.7,2.1,4.7,4.7v2.9
		C421.6,120.1,419.5,122.2,416.9,122.2z"/>
	<path class="st2" d="M416.9,144.7H289.3c-2.7,0-4.7-2.1-4.7-4.7V137c0-2.7,2.1-4.7,4.7-4.7h127.6c2.7,0,4.7,2.1,4.7,4.7v2.9
		C421.6,142.6,419.5,144.7,416.9,144.7z"/>
	<path class="st2" d="M418.2,438.7H212.9c-1.8,0-3.2-1.5-3.2-3.2v-10c0-1.8,1.5-3.2,3.2-3.2h205.3c1.8,0,3.2,1.5,3.2,3.2v10
		C421.6,437.2,420.1,438.7,418.2,438.7z"/>
	<path class="st2" d="M418.2,476.3H212.9c-1.8,0-3.2-1.5-3.2-3.2v-10c0-1.8,1.5-3.2,3.2-3.2h205.3c1.8,0,3.2,1.5,3.2,3.2v10
		C421.6,474.8,420.1,476.3,418.2,476.3z"/>
	<path class="st3" d="M495.7,77.2c-1.5-1.3-3.8-1.3-5.2,0.3L459,112.3c-1.3,1.5-1.3,3.8,0.3,5.2c0.7,0.6,1.6,0.9,2.5,0.9
		c1,0,2.1-0.4,2.8-1.2l31.5-34.8C497.3,80.9,497.3,78.7,495.7,77.2z"/>
	<path class="st3" d="M561.7,134.7c-0.9-1.9-3.1-2.7-4.9-1.8l-66.6,30.7c-1.9,0.9-2.7,3.1-1.8,4.9c0.6,1.3,1.9,2.2,3.4,2.2
		c0.4,0,1-0.1,1.5-0.3l66.6-30.7C561.9,138.7,562.6,136.5,561.7,134.7z"/>
	<path class="st3" d="M554.7,233h-40.4c-2.1,0-3.7,1.6-3.7,3.7c0,2.1,1.6,3.7,3.7,3.7h40.4c2.1,0,3.7-1.6,3.7-3.7
		C558.4,234.6,556.7,233,554.7,233z"/>
	<path class="st4" d="M312.9,506.5c2.8-52.2,4.7-103.3,9.4-116c8.4-22.4-36.8-33.3-56.3-19.5c0,0-8.1,77.1-14.7,104.2
		c-1.8,7.2-4.7,18.3-8.3,31.2H312.9z"/>
	<path class="st5" d="M386.7,301.9l-20.3,17.7l32.3,2.7l-20.9,14.3l16.7,12.4L374,362.2l13.1,10.3c0,0-11.3,12.5-17.8,15.6
		c-6.5,3.1-34.9,16.9-52.6,18.1c-17.7,1.2-50.1-11.2-49.1-20.8c1-9.6,19.9-50.3,28.4-57.9c8.5-7.7,37.3-17.8,49.5-21.4
		C357.9,302.5,386.7,301.9,386.7,301.9z"/>
	<path class="st6" d="M296.6,302.2c0,0,21.7,70.1,29.6,85.3c8,15.2,37.6,16.8,51.4,15.9c1.2-0.1,18.7-23.3,17.7-27.6
		c-1-4.3-29.9-22.3-34.5-30.9c-4.4-8.7-14.9-64.3-14.9-64.3L296.6,302.2z"/>
	<path class="st6" d="M412.9,92.1c0,0,28.4,20.8,58.2,76.5c29.8,55.7,32,99,32,99l-100.6-20L412.9,92.1z"/>
	<path class="st7" d="M439.1,220.5c19,0,34.5-15.4,34.5-34.5s-15.4-34.5-34.5-34.5c-19,0-34.5,15.4-34.5,34.5
		S420.1,220.5,439.1,220.5z"/>
	<path class="st8" d="M463.6,241.5c-10.8-11.5-23.1-27.3-35.1-48.2c-5.5-9.4-9.6-18.3-12.8-26.7l-100.9,69.4l24.5,47.7l-6-11.8
		L463.6,241.5z"/>
	<path class="st9" d="M406.6,98.6l-99,123.6l7.2,14.1L415.7,167C399.2,125,406.6,98.6,406.6,98.6z"/>
	<path class="st7" d="M463.6,241.5L333,272l6,11.8l157.4-14.9C496.5,268.9,482.3,261.4,463.6,241.5z"/>
	<path class="st3" d="M428.5,193.5c11.9,20.9,24.3,36.5,35.1,48.2l11.2-2.7c-15-16.5-32.3-37.7-41.3-56.6
		c-3.4-6.9-6.2-14.4-8.5-22.1l-9.4,6.5C419,175.1,423.2,184.1,428.5,193.5z"/>
	<path class="st10" d="M412.9,92.1l-6.3,6.3c0,0-7.4,26.5,9.1,68.4l9.4-6.5c-5-16.1-8.1-32.6-9.9-45.2
		C413.4,101.5,412.9,92.1,412.9,92.1z"/>
	<path class="st11" d="M496.5,268.9l6.5-1.2c0,0-6.2-5.6-14.9-14.6c-4-4.1-8.5-8.8-13.3-14.1l-11.2,2.7
		C482.3,261.4,496.5,268.9,496.5,268.9z"/>
	<path class="st8" d="M285.6,250.8l-24,12.1c-0.6,3.7-0.4,7.7,0.1,11.5c1.8,9.7,7.4,17.7,15,22.7l25.1-11.1L285.6,250.8z"/>
	<path class="st9" d="M279.4,237.4l1.9-1l-3.8,2.1c-8.5,5.5-14.4,14.3-15.9,24.5l24-12.1L279.4,237.4z"/>
	<path class="st7" d="M302.1,302.2c2.2-0.4,4.3-1,6.3-1.8l-6.6-14.3l-25.1,11.1C284,301.8,293,303.9,302.1,302.2z"/>
	<path class="st3" d="M330.2,266.4l-13.4-25.9l-2.2-4.3l-2.4,1.2l-26.7,13.4l16.2,35.2l28-12.4l3.2-1.5L330.2,266.4z"/>
	<path class="st12" d="M307.4,222.1l-26.1,14.3l-1.9,1l6.2,13.4l26.7-13.4l2.4-1.2L307.4,222.1z"/>
	<path class="st11" d="M333,272.2l-3.4,1.5l-28,12.4l6.6,14.3c0.3-0.1,0.7-0.3,1-0.4l4.9-2.7l24.9-13.3L333,272.2z"/>
	<path class="st13" d="M388,332.5c0,0-15.9,4.3-19.6,5.3c-3.7,1-20.8,9.3-22.1,12.4c-1.5,3.1-1,9.6,4.1,10.6
		c5.3,1,19.5-3.4,24.6-6.5s17.7-2.9,19.2-5.5c1.6-2.5,1-10.8-0.1-12.1C392.9,335.5,389.6,332,388,332.5z"/>
	<path class="st14" d="M355,346.9c0,0-9.1,2.7-9.4,4c-0.3,1.3-1.2,6.3,2.5,7.8c3.7,1.6,12.5-3.2,12.5-4.1S359.7,345.4,355,346.9z"/>
	<path class="st13" d="M368.8,312c0,0-12.5,7.2-19.2,10.9c-6.6,3.7-3.1,11.3,1.9,13.7c5,2.4,29.8-9,32.3-9.9
		c2.7-0.9,13.7-2.8,16.1-5.5c2.4-2.7-0.1-9.4-3.4-12.1c-3.2-2.8-4.9-3.7-7.7-3.5C385.9,305.6,373.1,309.5,368.8,312z"/>
	<path class="st14" d="M355.7,322.4c0,0-9.1,2.7-9.4,4.1c-0.3,1.5-1.2,6.5,2.5,8.1c3.7,1.6,11.9-4.3,11.9-5.2S360.4,321,355.7,322.4
		z"/>
	<path class="st13" d="M375,285.4c0,0-22.1,9.4-25.8,12.1c-3.7,2.7-15.6,14.6-15.2,18.3c0.4,3.7-1,6.5,7.7,7.1
		c8.7,0.6,19.2-11.3,30.1-15c10.9-3.7,15.2-4.4,15.6-7.8C387.9,296.6,387.6,284.3,375,285.4z"/>
	<path class="st14" d="M340.7,308.7c0,0-7.5,5.7-7.4,7.2c0.1,1.5,1.2,6.8,5.3,7.1c4.1,0.3,11.1-6.2,10.8-6.9
		C349.1,315.4,344.5,305.5,340.7,308.7z"/>
	<path class="st13" d="M383.3,357.5c0,0-14.4,4-16.9,5.5c-2.5,1.6-6.6,5.2-9.6,6.6c-2.9,1.3-5,4-3.4,7.7c1.6,3.7,7.5,5.7,12.7,2.7
		c5.2-3.1,8-4.4,13.3-4.7c5.3-0.3,10-4.1,10.5-5.3C390.2,368.7,392.6,357.8,383.3,357.5z"/>
	<path class="st14" d="M360.4,368.7c0,0-5.9,2.5-6.8,3.2c-1,0.6-1.9,2.4-0.7,5.3c1.2,2.9,4.3,2.7,6.9,1c3.2-1.9,4.7-3.4,5-3.7
		C365,374.2,364.4,368.7,360.4,368.7z"/>
	<path class="st4" d="M364.3,307.7c0,0-21.2-2.9-29.6-5.5c-8.4-2.5-15,7.2-29.9,14.9c-15,7.8-27,25.1-35.1,41.4
		c-8.3,16.4-0.7,29.9,6.6,32.1c7.4,2.2,36.4-10.5,41.4-29.6c5-19.2-0.3-19.2,9.7-29.2c10-10,23.7-4.4,32.7-10
		C368.8,316.4,366.5,308,364.3,307.7z"/>
	<path class="st14" d="M349.8,305.5c0,0-0.7,4.3-1.6,6.6s3.8,4,10,3.4c6.2-0.6,8.1-4.1,8.5-6.3c0.4-2.2-1.5-2.1-3.2-2.5
		C361.6,306.5,349.8,305.5,349.8,305.5z"/>
</g>
</svg>
