<svg width="49" height="46" viewBox="0 0 49 46" fill="none" xmlns="http://www.w3.org/2000/svg">
<g clip-path="url(#clip0)">
<rect x="6.06934" y="0.149414" width="45.6506" height="5.17882" transform="rotate(90 6.06934 0.149414)" fill="black"/>
<rect x="48.3633" y="0.149414" width="45.6506" height="5.17882" transform="rotate(90 48.3633 0.149414)" fill="black"/>
<path d="M44.9394 0.149414H4.31438C2.4234 0.149414 0.890625 1.62336 0.890625 3.44177V42.5077C0.890625 44.3261 2.4234 45.8 4.31438 45.8H26.2495V28.1461H20.0836V21.2361H26.2495V16.1507C26.2495 10.2536 29.9934 7.04375 35.4639 7.04375C38.0839 7.04375 40.3356 7.23147 40.9919 7.31541V13.479H37.2198C34.2433 13.479 33.6671 14.8391 33.6671 16.8351V21.2361H40.7833L39.8561 28.1461H33.6671V45.8H44.9394C46.8304 45.8 48.3632 44.3261 48.3632 42.5077V3.44177C48.3632 1.62336 46.8304 0.149414 44.9394 0.149414Z" fill="black"/>
</g>
<defs>
<clipPath id="clip0">
<rect x="0.890625" y="0.149414" width="47.4725" height="45.6506" fill="white"/>
</clipPath>
</defs>
</svg>
