<svg width="48" height="46" viewBox="0 0 48 46" fill="none" xmlns="http://www.w3.org/2000/svg">
<g clip-path="url(#clip0)">
<path d="M34.6469 15.2446C34.4285 14.6755 34.0801 14.1604 33.6274 13.7376C33.1877 13.3022 32.6524 12.9672 32.0602 12.7571C31.5799 12.5778 30.8585 12.3643 29.5296 12.3061C28.0921 12.2431 27.6611 12.2295 24.0218 12.2295C20.3822 12.2295 19.9512 12.2427 18.5141 12.3058C17.1852 12.3643 16.4634 12.5778 15.9835 12.7571C15.3913 12.9672 14.8556 13.3022 14.4163 13.7376C13.9636 14.1604 13.6151 14.6752 13.3964 15.2446C13.2098 15.7064 12.9878 16.4006 12.9273 17.6784C12.8618 19.0604 12.8477 19.4749 12.8477 22.9748C12.8477 26.4744 12.8618 26.8889 12.9273 28.2712C12.9878 29.5491 13.2098 30.2429 13.3964 30.7047C13.6151 31.2741 13.9632 31.7889 14.4159 32.2117C14.8556 32.6471 15.3909 32.9821 15.9831 33.1922C16.4634 33.3719 17.1852 33.5854 18.5141 33.6435C19.9512 33.7066 20.3819 33.7198 24.0215 33.7198C27.6615 33.7198 28.0925 33.7066 29.5292 33.6435C30.8581 33.5854 31.5799 33.3719 32.0602 33.1922C33.2489 32.7512 34.1884 31.8478 34.6469 30.7047C34.8335 30.2429 35.0555 29.5491 35.1163 28.2712C35.1819 26.8889 35.1957 26.4744 35.1957 22.9748C35.1957 19.4749 35.1819 19.0604 35.1163 17.6784C35.0559 16.4006 34.8338 15.7064 34.6469 15.2446V15.2446ZM24.0218 29.7048C20.1562 29.7048 17.0226 26.6917 17.0226 22.9745C17.0226 19.2572 20.1562 16.2442 24.0218 16.2442C27.8871 16.2442 31.0207 19.2572 31.0207 22.9745C31.0207 26.6917 27.8871 29.7048 24.0218 29.7048ZM31.2974 17.551C30.3941 17.551 29.6618 16.8467 29.6618 15.9781C29.6618 15.1095 30.3941 14.4052 31.2974 14.4052C32.2007 14.4052 32.9331 15.1095 32.9331 15.9781C32.9327 16.8467 32.2007 17.551 31.2974 17.551Z" fill="black"/>
<path d="M28.566 22.9744C28.566 25.3873 26.532 27.3433 24.0228 27.3433C21.5135 27.3433 19.4795 25.3873 19.4795 22.9744C19.4795 20.5614 21.5135 18.6055 24.0228 18.6055C26.532 18.6055 28.566 20.5614 28.566 22.9744Z" fill="black"/>
<path d="M44.3349 0.149414H3.70988C1.81891 0.149414 0.286133 1.62336 0.286133 3.44177V42.5077C0.286133 44.3261 1.81891 45.8 3.70988 45.8H44.3349C46.2259 45.8 47.7587 44.3261 47.7587 42.5077V3.44177C47.7587 1.62336 46.2259 0.149414 44.3349 0.149414V0.149414ZM37.57 28.3784C37.5041 29.7736 37.2734 30.7262 36.9365 31.56C36.2284 33.3206 34.7812 34.7123 32.9503 35.3932C32.0836 35.7171 31.0926 35.9386 29.6421 36.0024C28.1886 36.0661 27.7243 36.0814 24.0228 36.0814C20.3208 36.0814 19.8569 36.0661 18.4031 36.0024C16.9525 35.9386 15.9616 35.7171 15.0949 35.3932C14.185 35.0641 13.3614 34.5483 12.6805 33.8813C11.9873 33.2269 11.4509 32.4345 11.1086 31.56C10.7718 30.7265 10.5411 29.7736 10.4752 28.3787C10.4082 26.9807 10.3926 26.5342 10.3926 22.9747C10.3926 19.4152 10.4082 18.9687 10.4748 17.5711C10.5407 16.1758 10.7711 15.2233 11.1079 14.3895C11.4502 13.5149 11.9869 12.7226 12.6805 12.0681C13.3611 11.4012 14.185 10.8853 15.0945 10.5562C15.9616 10.2323 16.9522 10.0108 18.4031 9.94706C19.8565 9.88333 20.3208 9.868 24.0224 9.868C27.7239 9.868 28.1883 9.88333 29.6417 9.94741C31.0926 10.0108 32.0832 10.2323 32.9503 10.5559C33.8597 10.885 34.6837 11.4012 35.3646 12.0681C36.0579 12.7229 36.5946 13.5149 36.9365 14.3895C37.2737 15.2233 37.5041 16.1758 37.5703 17.5711C37.6366 18.9687 37.6522 19.4152 37.6522 22.9747C37.6522 26.5342 37.6366 26.9807 37.57 28.3784V28.3784Z" fill="black"/>
<rect x="5.46484" y="0.149414" width="45.6506" height="5.17882" transform="rotate(90 5.46484 0.149414)" fill="black"/>
<rect x="47.7588" y="0.149414" width="45.6506" height="5.17882" transform="rotate(90 47.7588 0.149414)" fill="black"/>
</g>
<defs>
<clipPath id="clip0">
<rect x="0.286133" y="0.149414" width="47.4725" height="45.6506" fill="white"/>
</clipPath>
</defs>
</svg>
