<svg width="125" height="125" viewBox="0 0 125 125" fill="none" xmlns="http://www.w3.org/2000/svg">
<g filter="url(#filter0_d)">
<circle cx="62.5" cy="62.5" r="47.5" fill="white"/>
</g>
<path d="M46.5486 44.6128H40.7422V64.9354H46.5486V49.4515H54.2906V44.6128H46.5486Z" fill="#D02E1B"/>
<path d="M40.7422 36.8708H42.6777V38.8063H40.7422V36.8708Z" fill="black"/>
<path d="M44.6133 36.8708H46.5488V38.8063H44.6133V36.8708Z" fill="black"/>
<path d="M48.4834 36.8708H50.4189V38.8063H48.4834V36.8708Z" fill="black"/>
<path d="M40.7422 44.6128H42.6777V46.5483H40.7422V44.6128Z" fill="black"/>
<path d="M83.3226 40.9385V33H36.871V48.2651C34.3425 52.7418 33 57.8282 33 63C33 79.5414 46.4572 93 63 93C79.5428 93 93 79.5414 93 63C93 54.6348 89.4735 46.6075 83.3226 40.9385ZM81.3871 34.9355V40.7419H38.8065V34.9355H81.3871ZM80.4879 84.9263L75.9813 80.4194L80.4194 75.9813L84.9263 80.4879C83.616 82.1276 82.1276 83.616 80.4879 84.9263V84.9263ZM80.4194 73.2445L78.9677 74.6961L76.2531 71.9814L74.8846 73.3498L77.5993 76.0645L76.0645 77.5993L73.3498 74.8846L71.9814 76.2531L74.6961 78.9677L73.2445 80.4194L78.9195 86.094C74.3922 89.225 68.908 91.0645 63 91.0645C47.5256 91.0645 34.9355 78.4754 34.9355 63C34.9355 59.4872 35.6051 56.0198 36.871 52.7778V71.7097H51.1267V69.7742H38.8065V42.6774H81.3871V69.7742H76.8087V71.7097H83.3226V43.6589C88.261 48.8543 91.0645 55.7911 91.0645 63C91.0645 68.908 89.225 74.3922 86.094 78.9195L80.4194 73.2445Z" fill="black"/>
<path d="M44.6133 44.6128H79.452V46.5483H44.6133V44.6128Z" fill="black"/>
<path d="M40.7422 48.4839H54.2906V50.4194H40.7422V48.4839Z" fill="black"/>
<path d="M40.7422 52.3547H46.5486V54.2902H40.7422V52.3547Z" fill="black"/>
<path d="M40.7422 56.2258H46.5486V58.1613H40.7422V56.2258Z" fill="black"/>
<path d="M40.7422 60.0967H46.5486V62.0322H40.7422V60.0967Z" fill="black"/>
<path d="M40.7422 63.9678H46.5486V65.9033H40.7422V63.9678Z" fill="black"/>
<path d="M63.9673 53.3226C58.097 53.3226 53.3221 58.0975 53.3221 63.9678C53.3221 69.838 58.097 74.6129 63.9673 74.6129C69.8375 74.6129 74.6124 69.8371 74.6124 63.9678C74.6124 58.0985 69.8366 53.3226 63.9673 53.3226ZM63.9673 79.4516C55.4301 79.4516 48.4834 72.505 48.4834 63.9678C48.4834 55.4306 55.4301 48.4839 63.9673 48.4839C72.5045 48.4839 79.4511 55.4306 79.4511 63.9678C79.4511 72.505 72.5045 79.4516 63.9673 79.4516Z" fill="#D02E1B"/>
<path d="M63.9693 75.5843C57.5646 75.5843 52.3545 70.3742 52.3545 63.9695C52.3545 57.5649 57.5646 52.3547 63.9693 52.3547C70.374 52.3547 75.5841 57.5649 75.5841 63.9695C75.5841 70.3742 70.374 75.5843 63.9693 75.5843ZM63.9693 54.2902C58.6321 54.2902 54.29 58.6323 54.29 63.9695C54.29 69.3068 58.6321 73.6488 63.9693 73.6488C69.3065 73.6488 73.6486 69.3068 73.6486 63.9695C73.6486 58.6323 69.3065 54.2902 63.9693 54.2902Z" fill="black"/>
<defs>
<filter id="filter0_d" x="0" y="0" width="125" height="125" filterUnits="userSpaceOnUse" color-interpolation-filters="sRGB">
<feFlood flood-opacity="0" result="BackgroundImageFix"/>
<feColorMatrix in="SourceAlpha" type="matrix" values="0 0 0 0 0 0 0 0 0 0 0 0 0 0 0 0 0 0 127 0"/>
<feOffset/>
<feGaussianBlur stdDeviation="7.5"/>
<feColorMatrix type="matrix" values="0 0 0 0 0 0 0 0 0 0 0 0 0 0 0 0 0 0 0.25 0"/>
<feBlend mode="normal" in2="BackgroundImageFix" result="effect1_dropShadow"/>
<feBlend mode="normal" in="SourceGraphic" in2="effect1_dropShadow" result="shape"/>
</filter>
</defs>
</svg>
