<svg width="125" height="125" viewBox="0 0 125 125" fill="none" xmlns="http://www.w3.org/2000/svg">
<g filter="url(#filter0_d)">
<circle cx="62.5" cy="62.5" r="47.5" fill="white"/>
</g>
<path d="M44.613 36.8708V44.6128H36.8711V52.3547H67.8388V36.8708H44.613Z" fill="#D02E1B"/>
<path d="M82.14 56.281L87.75 43.1903L89.1426 51.5458L91.0519 51.2284L88.8455 37.9877L77.88 46.7594L79.0887 48.271L85.7516 42.9406L80.3623 55.5155C78.2661 54.7374 76.0094 54.2903 73.6452 54.2903C72.9919 54.2903 72.3465 54.3252 71.7097 54.3881V33H43.2445L33 43.2445V77.5161H43.4845L40.92 81.7906C40.2639 81.5332 39.5526 81.3871 38.8065 81.3871C35.6042 81.3871 33 83.9913 33 87.1935C33 90.3958 35.6042 93 38.8065 93C42.0087 93 44.6129 90.3958 44.6129 87.1935C44.6129 85.4313 43.8213 83.8539 42.5787 82.7874L45.7413 77.5161H54.6803C56.4784 86.34 64.2987 93 73.6452 93C84.3174 93 93 84.3174 93 73.6452C93 66.0223 88.559 59.4348 82.14 56.281ZM38.8065 91.0645C36.6716 91.0645 34.9355 89.3284 34.9355 87.1935C34.9355 85.0587 36.6716 83.3226 38.8065 83.3226C40.9413 83.3226 42.6774 85.0587 42.6774 87.1935C42.6774 89.3284 40.9413 91.0645 38.8065 91.0645ZM79.5997 57.2961L77.6932 61.7448C76.4206 61.3113 75.0619 61.0645 73.6452 61.0645C68.099 61.0645 63.39 64.6761 61.7197 69.6658L57.0058 68.4871C59.2094 61.3926 65.8345 56.2258 73.6452 56.2258C75.7384 56.2258 77.7377 56.6158 79.5997 57.2961ZM77.5161 73.6452C77.5161 75.78 75.78 77.5161 73.6452 77.5161C71.5103 77.5161 69.7742 75.78 69.7742 73.6452C69.7742 71.5103 71.5103 69.7742 73.6452 69.7742C75.78 69.7742 77.5161 71.5103 77.5161 73.6452ZM73.6452 67.8387C71.2713 67.8387 69.2274 69.2729 68.3284 71.3187L63.6058 70.1381C65.0603 65.9884 69.0058 63 73.6452 63C74.7919 63 75.8942 63.1877 76.9297 63.5245L75.0087 68.0071C74.5703 67.9006 74.1155 67.8387 73.6452 67.8387ZM42.6774 36.3039V42.6774H36.3039L42.6774 36.3039ZM34.9355 75.5806V44.6129H44.6129V34.9355H69.7742V54.6803C63.5361 55.9519 58.3868 60.2361 55.9006 65.939C55.111 63.6687 52.9548 62.0323 50.4194 62.0323C47.2171 62.0323 44.6129 64.6365 44.6129 67.8387C44.6129 69.601 45.4045 71.1784 46.6471 72.2448L44.6458 75.5806H34.9355ZM46.5484 67.8387C46.5484 65.7039 48.2845 63.9677 50.4194 63.9677C52.5542 63.9677 54.2903 65.7039 54.2903 67.8387C54.2903 69.9735 52.5542 71.7097 50.4194 71.7097C48.2845 71.7097 46.5484 69.9735 46.5484 67.8387ZM46.9026 75.5806L48.3058 73.2416C48.9619 73.499 49.6732 73.6452 50.4194 73.6452C51.9455 73.6452 53.3323 73.049 54.3697 72.0823C54.3281 72.599 54.2903 73.1177 54.2903 73.6452C54.2903 74.2984 54.3252 74.9439 54.3881 75.5806H46.9026ZM73.6452 91.0645C64.0403 91.0645 56.2258 83.25 56.2258 73.6452C56.2258 72.5235 56.3419 71.43 56.5452 70.3674L61.2542 71.5442C61.139 72.2294 61.0645 72.9281 61.0645 73.6452C61.0645 80.5819 66.7084 86.2258 73.6452 86.2258C76.8319 86.2258 79.8735 85.0316 82.2077 82.8619L80.8906 81.4442C78.9155 83.28 76.3423 84.2903 73.6452 84.2903C67.7758 84.2903 63 79.5145 63 73.6452C63 73.0897 63.0561 72.5477 63.1384 72.0155L67.8619 73.1961C67.8503 73.3442 67.8387 73.4932 67.8387 73.6452C67.8387 76.8474 70.4429 79.4516 73.6452 79.4516C76.8474 79.4516 79.4516 76.8474 79.4516 73.6452C79.4516 71.6013 78.3881 69.8042 76.7874 68.7697L78.7094 64.2842C82.0306 66.0881 84.2903 69.6077 84.2903 73.6452C84.2903 75.9716 83.5529 78.1819 82.1594 80.0361L83.7068 81.1984C85.3548 79.0074 86.2258 76.3945 86.2258 73.6452C86.2258 68.8113 83.4813 64.6113 79.4719 62.5055L81.3774 58.0597C87.1084 60.9145 91.0645 66.8197 91.0645 73.6452C91.0645 83.25 83.25 91.0645 73.6452 91.0645Z" fill="black"/>
<path d="M73.6454 75.5807C74.7144 75.5807 75.5809 74.7141 75.5809 73.6452C75.5809 72.5763 74.7144 71.7097 73.6454 71.7097C72.5765 71.7097 71.71 72.5763 71.71 73.6452C71.71 74.7141 72.5765 75.5807 73.6454 75.5807Z" fill="#D02E1B"/>
<path d="M50.4199 69.7743C51.4888 69.7743 52.3553 68.9077 52.3553 67.8388C52.3553 66.7699 51.4888 65.9033 50.4199 65.9033C49.3509 65.9033 48.4844 66.7699 48.4844 67.8388C48.4844 68.9077 49.3509 69.7743 50.4199 69.7743Z" fill="#D02E1B"/>
<path d="M38.8066 89.129C39.8755 89.129 40.7421 88.2625 40.7421 87.1935C40.7421 86.1246 39.8755 85.2581 38.8066 85.2581C37.7376 85.2581 36.8711 86.1246 36.8711 87.1935C36.8711 88.2625 37.7376 89.129 38.8066 89.129Z" fill="#D02E1B"/>
<defs>
<filter id="filter0_d" x="0" y="0" width="125" height="125" filterUnits="userSpaceOnUse" color-interpolation-filters="sRGB">
<feFlood flood-opacity="0" result="BackgroundImageFix"/>
<feColorMatrix in="SourceAlpha" type="matrix" values="0 0 0 0 0 0 0 0 0 0 0 0 0 0 0 0 0 0 127 0"/>
<feOffset/>
<feGaussianBlur stdDeviation="7.5"/>
<feColorMatrix type="matrix" values="0 0 0 0 0 0 0 0 0 0 0 0 0 0 0 0 0 0 0.25 0"/>
<feBlend mode="normal" in2="BackgroundImageFix" result="effect1_dropShadow"/>
<feBlend mode="normal" in="SourceGraphic" in2="effect1_dropShadow" result="shape"/>
</filter>
</defs>
</svg>
