<svg width="125" height="125" viewBox="0 0 125 125" fill="none" xmlns="http://www.w3.org/2000/svg">
<g filter="url(#filter0_d)">
<circle cx="62.5" cy="62.5" r="47.5" fill="white"/>
</g>
<path d="M88.1614 42.6777H71.7098V49.4519H78.484L75.5808 52.3552L79.4517 56.2261L76.5485 59.1294L72.6775 55.2584L71.7098 56.2261V61.0648H43.6453V42.6777H37.8388C37.3037 42.6777 36.8711 43.1103 36.8711 43.6455V64.9358H89.1292V43.6455C89.1292 43.1103 88.6966 42.6777 88.1614 42.6777Z" fill="#D02E1B"/>
<path d="M65.9017 58.1619H47.5146C46.9795 58.1619 46.5469 57.7293 46.5469 57.1942V53.3232C46.5469 52.788 46.9795 52.3555 47.5146 52.3555H65.9017C66.4369 52.3555 66.8695 52.788 66.8695 53.3232V57.1942C66.8695 57.7293 66.4369 58.1619 65.9017 58.1619Z" fill="#D02E1B"/>
<path d="M88.1613 38.8065H72.6774V33H42.6774V38.8065H37.8387C35.1706 38.8065 33 40.9771 33 43.6452V87.1935C33 90.6126 34.9897 93 37.8387 93H88.1613C91.0103 93 93 90.6126 93 87.1935V43.6452C93 40.9771 90.8294 38.8065 88.1613 38.8065ZM78.0832 56.2258L76.5484 57.7606L72.6774 53.8897L70.7419 55.8252V50.4194H76.1477L74.2123 52.3548L78.0832 56.2258ZM68.8064 48.4839V60.0968H44.6129V42.6774H70.7419V48.4839H68.8064ZM70.7419 58.5619V60.0968H69.2071L70.7419 58.5619ZM70.7419 34.9355V40.7419H44.6129V34.9355H70.7419ZM37.8387 40.7419H42.6774V42.6774H36.871V62.0323H38.8065V44.6129H42.6774V62.0323H72.6774V56.6264L76.5484 60.4974L80.82 56.2258L76.949 52.3548L80.82 48.4839H72.6774V44.6129H87.1935V62.0323H89.129V42.6774H72.6774V40.7419H88.1613C89.7619 40.7419 91.0645 42.0445 91.0645 43.6452V63.9677H34.9355V43.6452C34.9355 42.0445 36.2381 40.7419 37.8387 40.7419ZM44.6129 65.9032V69.7742H40.7419V65.9032H44.6129ZM40.7419 71.7097H44.6129V75.5806H40.7419V71.7097ZM46.5484 71.7097H50.4194V75.5806H46.5484V71.7097ZM52.3548 71.7097H56.2258V75.5806H52.3548V71.7097ZM58.1613 71.7097H62.0323V75.5806H58.1613V71.7097ZM63.9677 71.7097H67.8387V75.5806H63.9677V71.7097ZM69.7742 71.7097H73.6452V75.5806H69.7742V71.7097ZM75.5806 71.7097H79.4516V75.5806H75.5806V71.7097ZM75.5806 69.7742V65.9032H79.4516V69.7742H75.5806ZM73.6452 69.7742H69.7742V65.9032H73.6452V69.7742ZM67.8387 69.7742H63.9677V65.9032H67.8387V69.7742ZM62.0323 69.7742H58.1613V65.9032H62.0323V69.7742ZM56.2258 69.7742H52.3548V65.9032H56.2258V69.7742ZM50.4194 69.7742H46.5484V65.9032H50.4194V69.7742ZM40.7419 77.5161H44.6129V81.3871H40.7419V77.5161ZM46.5484 77.5161H50.4194V81.3871H46.5484V77.5161ZM52.3548 77.5161H73.6452V81.3871H52.3548V77.5161ZM75.5806 77.5161H79.4516V81.3871H75.5806V77.5161ZM81.3871 77.5161H85.2581V81.3871H81.3871V77.5161ZM85.2581 75.5806H81.3871V71.7097H85.2581V75.5806ZM85.2581 69.7742H81.3871V65.9032H85.2581V69.7742ZM88.1613 91.0645H37.8387C36.0755 91.0645 34.9355 89.5452 34.9355 87.1935H87.5071V85.2581H34.9355V65.9032H38.8065V83.3226H87.1935V65.9032H91.0645V85.2581H89.1155V87.1935H91.0645C91.0645 89.5452 89.9245 91.0645 88.1613 91.0645Z" fill="black"/>
<path d="M68.8049 44.6133H46.5469V46.5488H68.8049V44.6133Z" fill="black"/>
<path d="M66.8708 48.4834H59.1289V50.4189H66.8708V48.4834Z" fill="black"/>
<path d="M55.2566 48.4834H46.5469V50.4189H55.2566V48.4834Z" fill="black"/>
<path d="M48.4824 36.8711H46.5469V38.8066H48.4824V36.8711Z" fill="black"/>
<path d="M52.3535 36.8711H50.418V38.8066H52.3535V36.8711Z" fill="black"/>
<path d="M56.2245 36.8711H54.2891V38.8066H56.2245V36.8711Z" fill="black"/>
<defs>
<filter id="filter0_d" x="0" y="0" width="125" height="125" filterUnits="userSpaceOnUse" color-interpolation-filters="sRGB">
<feFlood flood-opacity="0" result="BackgroundImageFix"/>
<feColorMatrix in="SourceAlpha" type="matrix" values="0 0 0 0 0 0 0 0 0 0 0 0 0 0 0 0 0 0 127 0"/>
<feOffset/>
<feGaussianBlur stdDeviation="7.5"/>
<feColorMatrix type="matrix" values="0 0 0 0 0 0 0 0 0 0 0 0 0 0 0 0 0 0 0.25 0"/>
<feBlend mode="normal" in2="BackgroundImageFix" result="effect1_dropShadow"/>
<feBlend mode="normal" in="SourceGraphic" in2="effect1_dropShadow" result="shape"/>
</filter>
</defs>
</svg>
