<svg width="125" height="125" viewBox="0 0 125 125" fill="none" xmlns="http://www.w3.org/2000/svg">
<g filter="url(#filter0_d)">
<circle cx="62.5" cy="62.5" r="47.5" fill="white"/>
</g>
<g clip-path="url(#clip0)">
<path d="M66.4427 41.8525L33 75.2952L50.7049 93.0001L84.1476 59.5574L81.1967 44.8034L66.4427 41.8525Z" fill="#D02E1B"/>
<path d="M48.854 77.1478C48.8255 76.3707 48.5097 75.6448 47.9569 75.0921C46.7599 73.8951 44.8123 73.8951 43.6153 75.0921L40.4609 78.2464L47.7535 85.539L50.9078 82.3844C51.4882 81.805 51.8078 81.0339 51.8078 80.2135C51.8078 79.3932 51.488 78.622 50.9078 78.0426C50.3393 77.4743 49.6005 77.1752 48.854 77.1478ZM49.517 80.9937L47.7535 82.7572L43.2426 78.2464L45.0062 76.4828C45.4371 76.054 46.1355 76.054 46.5662 76.4828C46.7748 76.6915 46.8898 76.9678 46.8898 77.2628C46.8898 77.558 46.7748 77.8343 46.5662 78.0428L45.0907 79.5182L46.4815 80.909L47.9569 79.4335C48.3878 79.0047 49.0862 79.0047 49.5168 79.4335C49.7255 79.6421 49.8405 79.9185 49.8405 80.2135C49.8405 80.5087 49.7255 80.785 49.517 80.9937Z" fill="white"/>
<path d="M65.7455 52.9599L64.0664 54.639L71.3589 61.9316L73.038 60.2524C74.0117 59.2787 74.5488 57.9832 74.5488 56.6063C74.5488 55.2294 74.0117 53.9339 73.038 52.9601C71.0266 50.9495 67.757 50.9495 65.7455 52.9599ZM71.6473 58.8617L71.3591 59.1498L66.8483 54.639L67.1365 54.3509C68.3797 53.1076 70.404 53.1076 71.6473 54.3509C72.2492 54.9538 72.5817 55.7545 72.5817 56.6063C72.5815 57.4581 72.2492 58.2588 71.6473 58.8617Z" fill="white"/>
<path d="M55.0465 78.2459L49.145 72.3443L50.9086 70.5808C51.3395 70.1519 52.0378 70.1519 52.4685 70.5808C52.6771 70.7894 52.7922 71.0658 52.7922 71.3607C52.7922 71.6559 52.6771 71.9323 52.4685 72.1407L50.9931 73.6161L52.3838 75.0069L53.808 73.5827L57.4965 75.7957L58.9307 74.3616L54.713 71.8308C54.7365 71.6755 54.7592 71.52 54.7592 71.3597C54.7592 70.5394 54.4395 69.7682 53.8593 69.1888C52.6623 67.9918 50.7146 67.9918 49.5176 69.1888L46.3633 72.3441L53.6558 79.6366L55.0465 78.2459Z" fill="white"/>
<path d="M60.9491 72.344L57.9982 69.3931L60.5418 66.8496L63.4926 69.8005L64.8834 68.4097L57.5909 61.1172L52.2656 66.4424L59.5581 73.735L60.9491 72.344ZM55.0473 66.4424L57.5909 63.8989L59.1508 65.4588L56.6073 68.0024L55.0473 66.4424Z" fill="white"/>
<path d="M70.7818 62.5083L63.4893 55.2158L62.0986 56.6068L66.3979 60.9071L59.2324 59.473L58.1641 60.5411L65.4566 67.8336L66.8473 66.4428L62.547 62.1425L69.7135 63.5766L70.7818 62.5083Z" fill="white"/>
<path d="M82.6718 33C77.1429 33 72.6282 37.3701 72.3685 42.8361H74.3358C74.5925 38.455 78.2269 34.9673 82.6718 34.9673C87.282 34.9673 91.0325 38.7177 91.0325 43.3279C91.0325 47.938 87.282 51.6885 82.6718 51.6885C81.7128 51.6885 80.7893 51.5094 79.9168 51.2066C80.1056 50.7472 80.2128 50.2476 80.2128 49.7214C80.2128 47.5516 78.4481 45.7869 76.2783 45.7869C74.1084 45.7869 72.3438 47.5516 72.3438 49.7214C72.3438 51.8913 74.1086 53.6558 76.2785 53.6558C77.1735 53.6558 77.99 53.3438 78.6518 52.8384C79.9 53.3647 81.2594 53.6558 82.6718 53.6558C88.3668 53.6558 92.9997 49.0229 92.9997 43.3279C92.9997 37.6329 88.367 33 82.6718 33ZM78.2457 49.7212C78.2457 49.9406 78.2015 50.1472 78.1356 50.3438C77.157 49.7103 76.3158 48.8694 75.6648 47.8612C75.8585 47.7972 76.0622 47.754 76.2785 47.754C77.3633 47.7542 78.2457 48.6364 78.2457 49.7212ZM76.2785 51.6885C75.1936 51.6885 74.3112 50.8063 74.3112 49.7212C74.3112 49.6169 74.3259 49.5176 74.3418 49.4182C74.9761 50.2887 75.7396 51.0343 76.5912 51.6569C76.4889 51.6738 76.3857 51.6885 76.2785 51.6885Z" fill="black"/>
</g>
<defs>
<filter id="filter0_d" x="0" y="0" width="125" height="125" filterUnits="userSpaceOnUse" color-interpolation-filters="sRGB">
<feFlood flood-opacity="0" result="BackgroundImageFix"/>
<feColorMatrix in="SourceAlpha" type="matrix" values="0 0 0 0 0 0 0 0 0 0 0 0 0 0 0 0 0 0 127 0"/>
<feOffset/>
<feGaussianBlur stdDeviation="7.5"/>
<feColorMatrix type="matrix" values="0 0 0 0 0 0 0 0 0 0 0 0 0 0 0 0 0 0 0.25 0"/>
<feBlend mode="normal" in2="BackgroundImageFix" result="effect1_dropShadow"/>
<feBlend mode="normal" in="SourceGraphic" in2="effect1_dropShadow" result="shape"/>
</filter>
<clipPath id="clip0">
<rect x="33" y="33" width="60" height="60" fill="white"/>
</clipPath>
</defs>
</svg>
