<svg width="125" height="125" viewBox="0 0 125 125" fill="none" xmlns="http://www.w3.org/2000/svg">
<g filter="url(#filter0_d)">
<circle cx="62.5" cy="62.5" r="47.5" fill="white"/>
</g>
<path d="M37.6875 81.75H88.3125C89.8659 81.75 91.125 80.4909 91.125 78.9375V73.3125H34.875V78.9375C34.875 80.4909 36.1341 81.75 37.6875 81.75Z" fill="#D02E1B"/>
<path d="M39.5625 56.4375H60.1875V68.625H39.5625V56.4375Z" fill="#D02E1B"/>
<path d="M84.5625 77.0625H86.4375V78.9375H84.5625V77.0625Z" fill="black"/>
<path d="M80.8125 77.0625H82.6875V78.9375H80.8125V77.0625Z" fill="black"/>
<path d="M77.0625 77.0625H78.9375V78.9375H77.0625V77.0625Z" fill="black"/>
<path d="M88.3125 39.5625H60.1875V33.9375H39.5625V39.5625H37.6875C35.6194 39.5625 33.9375 41.2444 33.9375 43.3125V78.9375C33.9375 81.0056 35.6194 82.6875 37.6875 82.6875H52.5113C51.9919 84.1978 50.4234 85.7269 49.5506 86.4375H47.0625C46.0284 86.4375 45.1875 87.2784 45.1875 88.3125V90.1875C45.1875 91.2216 46.0284 92.0625 47.0625 92.0625H78.9375C79.9716 92.0625 80.8125 91.2216 80.8125 90.1875V88.3125C80.8125 87.2784 79.9716 86.4375 78.9375 86.4375H76.4494C75.5756 85.7269 74.0081 84.1978 73.4887 82.6875H88.3125C90.3806 82.6875 92.0625 81.0056 92.0625 78.9375V43.3125C92.0625 41.2444 90.3806 39.5625 88.3125 39.5625ZM41.4375 39.5625H58.3125V52.6875H41.4375V39.5625ZM58.3125 35.8125V37.6875H41.4375V35.8125H58.3125ZM78.9384 90.1875H47.0625V88.3125H78.9375L78.9384 90.1875ZM73.7156 86.4375H52.2844C53.1919 85.4541 54.1416 84.1284 54.4509 82.6875H71.5491C71.8584 84.1284 72.8081 85.4541 73.7156 86.4375ZM90.1875 78.9375C90.1875 79.9716 89.3466 80.8125 88.3125 80.8125H37.6875C36.6534 80.8125 35.8125 79.9716 35.8125 78.9375V43.3125C35.8125 42.2784 36.6534 41.4375 37.6875 41.4375H39.5625V54.5625H60.1875V41.4375H88.3125C89.3466 41.4375 90.1875 42.2784 90.1875 43.3125V78.9375Z" fill="black"/>
<path d="M39.5625 56.4375H45.1875V58.3125H39.5625V56.4375Z" fill="black"/>
<path d="M47.0625 56.4375H60.1875V58.3125H47.0625V56.4375Z" fill="black"/>
<path d="M39.5625 63.9375H45.1875V65.8125H39.5625V63.9375Z" fill="black"/>
<path d="M47.0625 63.9375H52.6875V65.8125H47.0625V63.9375Z" fill="black"/>
<path d="M54.5625 63.9375H60.1875V65.8125H54.5625V63.9375Z" fill="black"/>
<path d="M39.5625 60.1875H60.1875V62.0625H39.5625V60.1875Z" fill="black"/>
<path d="M39.5625 67.6875H60.1875V69.5625H39.5625V67.6875Z" fill="black"/>
<path d="M84.5625 48.0947V45.1875C84.5625 44.1534 83.7216 43.3125 82.6875 43.3125H80.0963C79.8066 43.3125 79.5169 43.3809 79.2581 43.5103C77.0644 44.6072 74.6081 45.1875 72.1537 45.1875H69.5625C65.4272 45.1875 62.0625 48.5522 62.0625 52.6875C62.0625 55.4559 63.5747 57.8737 65.8125 59.1731V65.8125C65.8125 67.8806 67.4944 69.5625 69.5625 69.5625C71.6306 69.5625 73.3125 67.8806 73.3125 65.8125V60.2353C75.375 60.3881 77.4094 60.9403 79.2581 61.8647C79.5169 61.9941 79.8066 62.0625 80.0963 62.0625H82.6875C83.7216 62.0625 84.5625 61.2216 84.5625 60.1875V57.2803C86.6991 56.8444 88.3125 54.9516 88.3125 52.6875C88.3125 50.4234 86.6991 48.5306 84.5625 48.0947V48.0947ZM72.1537 47.0625C74.4731 47.0625 76.7925 46.5938 78.9375 45.7097V59.6663C76.7925 58.7813 74.4731 58.3125 72.1537 58.3125H69.5625V47.0625H72.1537ZM63.9375 52.6875C63.9375 50.2434 65.5059 48.165 67.6875 47.3906V57.9844C65.5059 57.21 63.9375 55.1316 63.9375 52.6875ZM69.5625 67.6875C68.5284 67.6875 67.6875 66.8466 67.6875 65.8125V59.9409C68.2884 60.0966 68.9138 60.1875 69.5625 60.1875H71.4375V65.8125C71.4375 66.8466 70.5966 67.6875 69.5625 67.6875ZM82.6875 60.1875H80.8125V45.1875H82.6875V60.1875ZM84.5625 55.3275V50.0484C85.6509 50.4366 86.4375 51.4678 86.4375 52.6884C86.4375 53.9091 85.6509 54.9394 84.5625 55.3275Z" fill="black"/>
<path d="M54.5625 41.4375H52.6875V48.9375H50.8125V43.3125H48.9375V48.9375H47.0625V45.1875H45.1875V48.9375H43.3125V50.8125H56.4375V48.9375H54.5625V41.4375Z" fill="black"/>
<defs>
<filter id="filter0_d" x="0" y="0" width="125" height="125" filterUnits="userSpaceOnUse" color-interpolation-filters="sRGB">
<feFlood flood-opacity="0" result="BackgroundImageFix"/>
<feColorMatrix in="SourceAlpha" type="matrix" values="0 0 0 0 0 0 0 0 0 0 0 0 0 0 0 0 0 0 127 0"/>
<feOffset/>
<feGaussianBlur stdDeviation="7.5"/>
<feColorMatrix type="matrix" values="0 0 0 0 0 0 0 0 0 0 0 0 0 0 0 0 0 0 0.25 0"/>
<feBlend mode="normal" in2="BackgroundImageFix" result="effect1_dropShadow"/>
<feBlend mode="normal" in="SourceGraphic" in2="effect1_dropShadow" result="shape"/>
</filter>
</defs>
</svg>
