<svg width="125" height="125" viewBox="0 0 125 125" fill="none" xmlns="http://www.w3.org/2000/svg">
<g filter="url(#filter0_d)">
<circle cx="62.5" cy="62.5" r="47.5" fill="white"/>
</g>
<path d="M85.5 44.0625H75.8653C76.0256 44.3391 76.125 44.6569 76.125 45C76.125 46.0359 75.2859 46.875 74.25 46.875C75.2859 46.875 76.125 47.7141 76.125 48.75H84.5625C85.08 48.75 85.5 49.17 85.5 49.6875V75.9375C85.5 76.455 85.08 76.875 84.5625 76.875H41.4375C40.92 76.875 40.5 76.455 40.5 75.9375V49.6875C40.5 49.17 40.92 48.75 41.4375 48.75H48V44.0625H40.5C37.9153 44.0625 35.8125 46.1653 35.8125 48.75V80.625H90.1875V48.75C90.1875 46.1653 88.0847 44.0625 85.5 44.0625Z" fill="#D02E1B"/>
<path d="M84.5625 47.8125H76.89C76.7653 47.4619 76.5759 47.1459 76.3313 46.875C76.7813 46.3762 77.0625 45.7228 77.0625 45C77.0625 44.2772 76.7803 43.6238 76.3313 43.125C76.7813 42.6262 77.0625 41.9728 77.0625 41.25C77.0625 39.6994 75.8006 38.4375 74.25 38.4375H68.8884L69.435 36.2513C69.5194 35.9138 69.5625 35.5641 69.5625 35.2144C69.5625 32.8556 67.6444 30.9375 65.2856 30.9375H64.1991L62.4609 36.1528C62.2894 36.6684 61.9744 37.1194 61.5497 37.4597L58.7541 39.6966C58.2572 40.0941 57.6328 40.3125 56.9972 40.3125H56.4375V38.4375H47.0625V47.8125H41.4375C40.4034 47.8125 39.5625 48.6534 39.5625 49.6875V75.9375C39.5625 76.9716 40.4034 77.8125 41.4375 77.8125H84.5625C85.5966 77.8125 86.4375 76.9716 86.4375 75.9375V49.6875C86.4375 48.6534 85.5966 47.8125 84.5625 47.8125V47.8125ZM56.9972 42.1875C58.0575 42.1875 59.0972 41.8228 59.9259 41.16L62.7216 38.9231C63.4284 38.3578 63.9544 37.6041 64.2403 36.7453L65.5472 32.8256C66.7481 32.9569 67.6875 33.9778 67.6875 35.2144C67.6875 35.4103 67.6631 35.6063 67.6153 35.7966L66.4866 40.3125H74.25C74.7666 40.3125 75.1875 40.7334 75.1875 41.25C75.1875 41.7666 74.7666 42.1875 74.25 42.1875H69.5625V44.0625H74.25C74.7666 44.0625 75.1875 44.4834 75.1875 45C75.1875 45.5166 74.7666 45.9375 74.25 45.9375H69.5625V47.8125H74.25C74.7666 47.8125 75.1875 48.2334 75.1875 48.75C75.1875 49.2666 74.7666 49.6875 74.25 49.6875H72.375H69.5625V51.5625H72.375C72.8916 51.5625 73.3125 51.9834 73.3125 52.5C73.3125 53.0166 72.8916 53.4375 72.375 53.4375H62.4534C61.7297 53.4375 61.005 53.2659 60.3572 52.9425L57.5963 51.5625H56.4375V42.1875H56.9972ZM48.9375 40.3125H54.5625V53.4375H48.9375V40.3125ZM84.5625 75.9375H41.4375V49.6875H47.0625V55.3125H56.4375V53.4375H57.1537L59.5181 54.6197C60.4247 55.0734 61.4391 55.3125 62.4534 55.3125H72.375C73.9256 55.3125 75.1875 54.0506 75.1875 52.5C75.1875 52.1297 75.1116 51.7781 74.9812 51.4538C75.8719 51.2119 76.5825 50.5491 76.89 49.6875H84.5625V75.9375Z" fill="black"/>
<path d="M87.375 89.0625H38.625C36.0403 89.0625 33.9375 86.9597 33.9375 84.375V79.6875H92.0625V84.375C92.0625 86.9597 89.9597 89.0625 87.375 89.0625ZM35.8125 81.5625V84.375C35.8125 85.9256 37.0744 87.1875 38.625 87.1875H87.375C88.9256 87.1875 90.1875 85.9256 90.1875 84.375V81.5625H35.8125Z" fill="black"/>
<path d="M58.3125 83.4375H67.6875V85.3125H58.3125V83.4375Z" fill="black"/>
<path d="M69.5625 83.4375H71.4375V85.3125H69.5625V83.4375Z" fill="black"/>
<path d="M54.5625 83.4375H56.4375V85.3125H54.5625V83.4375Z" fill="black"/>
<path d="M75.1875 60.9375L77.0625 65.625H80.8125L77.7816 68.1113L79.3838 73.125L75.1875 70.0266L70.9912 73.125L72.5934 68.1113L68.625 65.625H73.3125L75.1875 60.9375Z" fill="#D02E1B"/>
<path d="M63 58.125L64.875 62.8125H69.5625L65.5941 65.2988L67.1963 70.3125L63 67.2141L58.8038 70.3125L60.4059 65.2988L56.4375 62.8125H61.125L63 58.125Z" fill="#D02E1B"/>
<path d="M50.8125 60.9375L52.6875 65.625H57.375L53.4066 68.1113L55.0087 73.125L50.8125 70.0266L46.6163 73.125L48.2184 68.1113L45.1875 65.625H48.9375L50.8125 60.9375Z" fill="#D02E1B"/>
<path d="M82.6875 59.0625H80.8125V53.4375H78.9375V51.5625H82.6875V59.0625Z" fill="black"/>
<path d="M80.8125 60.9375H82.6875V62.8125H80.8125V60.9375Z" fill="black"/>
<defs>
<filter id="filter0_d" x="0" y="0" width="125" height="125" filterUnits="userSpaceOnUse" color-interpolation-filters="sRGB">
<feFlood flood-opacity="0" result="BackgroundImageFix"/>
<feColorMatrix in="SourceAlpha" type="matrix" values="0 0 0 0 0 0 0 0 0 0 0 0 0 0 0 0 0 0 127 0"/>
<feOffset/>
<feGaussianBlur stdDeviation="7.5"/>
<feColorMatrix type="matrix" values="0 0 0 0 0 0 0 0 0 0 0 0 0 0 0 0 0 0 0.25 0"/>
<feBlend mode="normal" in2="BackgroundImageFix" result="effect1_dropShadow"/>
<feBlend mode="normal" in="SourceGraphic" in2="effect1_dropShadow" result="shape"/>
</filter>
</defs>
</svg>
