<svg width="125" height="125" viewBox="0 0 125 125" fill="none" xmlns="http://www.w3.org/2000/svg">
<g filter="url(#filter0_d)">
<circle cx="62.5" cy="62.5" r="47.5" fill="white"/>
</g>
<g clip-path="url(#clip0)">
<path d="M92.8878 77.6715H87.1396V50.8469H92.8878V77.6715Z" fill="#D02E1B"/>
<path d="M85.2237 54.679H79.4756V76.7135H85.2237V54.679Z" fill="#D02E1B"/>
<path d="M77.5597 58.511H71.8115V76.7134H77.5597V58.511Z" fill="#D02E1B"/>
<path d="M50.7345 61.8643C50.7345 60.5441 49.6596 59.4692 48.3394 59.4692C47.0192 59.4692 45.9443 60.5441 45.9443 61.8643C45.9443 63.1845 47.0192 64.2594 48.3394 64.2594C49.6596 64.2594 50.7345 63.1845 50.7345 61.8643ZM47.8604 61.8643C47.8604 61.5999 48.075 61.3853 48.3394 61.3853C48.6038 61.3853 48.8184 61.5999 48.8184 61.8643C48.8184 62.1287 48.6038 62.3433 48.3394 62.3433C48.075 62.3433 47.8604 62.1287 47.8604 61.8643Z" fill="black"/>
<path d="M58.8785 64.2594C60.1986 64.2594 61.2735 63.1845 61.2735 61.8643C61.2735 60.5441 60.1986 59.4692 58.8785 59.4692C57.5583 59.4692 56.4834 60.5441 56.4834 61.8643C56.4834 63.1845 57.5583 64.2594 58.8785 64.2594ZM58.8785 61.3853C59.1429 61.3853 59.3575 61.5999 59.3575 61.8643C59.3575 62.1287 59.1429 62.3433 58.8785 62.3433C58.614 62.3433 58.3994 62.1287 58.3994 61.8643C58.3994 61.5999 58.614 61.3853 58.8785 61.3853Z" fill="black"/>
<path d="M65.4715 78.7495L59.4589 77.823V77.0116C62.0341 75.4807 63.9578 72.9774 64.7271 70.0065H65.1055C67.2189 70.0065 68.9376 68.2878 68.9376 66.1744V54.6791C68.9376 51.2044 66.2819 48.3389 62.8925 48.0055L62.651 47.3982C61.6269 44.8374 59.182 43.1829 56.4239 43.1829H50.7351C43.868 43.1829 38.2809 48.77 38.2809 55.6372V66.1754C38.2809 68.2888 39.9995 70.0075 42.1129 70.0075H42.4914C43.2999 73.1307 45.3788 75.747 48.1552 77.2501V77.7627L41.747 78.7495C39.2628 79.1327 37.2194 80.8494 36.4156 83.2301L33.1133 93H74.1042L70.8029 83.2311C69.9991 80.8494 67.9556 79.1327 65.4715 78.7495ZM50.0712 78.0664C51.1864 78.4285 52.3743 78.6297 53.6092 78.6297C54.9006 78.6297 56.1384 78.4055 57.2976 78.0118L53.6092 82.8067L50.0712 78.2072V78.0664ZM48.7348 79.6117L52.6416 84.6902L49.483 85.9538L47.9281 79.7353L48.7348 79.6117ZM58.4836 79.6117L59.2903 79.7362L57.7354 85.9547L54.5768 84.6911L58.4836 79.6117ZM65.1055 68.0915H65.0566C65.0835 67.7743 65.1055 67.4572 65.1055 67.1334V64.2594C66.1622 64.2594 67.0215 65.1187 67.0215 66.1754C67.0215 67.2321 66.1622 68.0915 65.1055 68.0915ZM42.1129 68.0915C41.0562 68.0915 40.1969 67.2321 40.1969 66.1754C40.1969 65.1187 41.0562 64.2594 42.1129 64.2594V67.1334C42.1129 67.4572 42.135 67.7743 42.1618 68.0915H42.1129ZM42.1129 61.3853V62.3433C41.4117 62.3433 40.7631 62.5464 40.1969 62.876V55.6372C40.1969 49.8267 44.9247 45.0989 50.7351 45.0989H56.4239C58.3945 45.0989 60.1391 46.2811 60.871 48.11L61.5828 49.889H62.2314C64.8727 49.889 67.0215 52.0379 67.0215 54.6791V62.876C66.4553 62.5464 65.8068 62.3433 65.1055 62.3433V58.3369C65.1055 56.9247 64.4042 55.6151 63.2297 54.8315C62.0743 54.0612 60.6162 53.9098 59.3286 54.4253C57.3177 55.229 55.2015 55.6372 53.0363 55.6372H47.8611C44.691 55.6372 42.1129 58.2152 42.1129 61.3853ZM44.029 67.1334V61.3853C44.029 59.2719 45.7477 57.5532 47.8611 57.5532H53.0363C55.4457 57.5532 57.8015 57.0991 60.0395 56.2043C60.7407 55.9246 61.5359 56.006 62.1663 56.4256C62.8072 56.8529 63.1894 57.5676 63.1894 58.3369V67.1334C63.1894 72.416 58.8918 76.7137 53.6092 76.7137C48.3267 76.7137 44.029 72.416 44.029 67.1334ZM38.2301 83.8442C38.8049 82.1437 40.2649 80.9165 42.0392 80.6435L46.0265 80.0294L48.1562 88.5491L52.6512 86.7509V91.084H43.893L44.5837 86.4021L42.6878 86.1224L41.9558 91.084H35.7842L38.2301 83.8442ZM65.2626 91.084L64.5307 86.1224L62.6347 86.4021L63.3255 91.084H54.5672V86.7509L59.0623 88.5491L61.192 80.0294L65.1793 80.6435C66.9535 80.9175 68.4126 82.1437 68.9884 83.8442L71.4342 91.084H65.2626Z" fill="black"/>
<path d="M59.3566 69.0496H57.4406C57.4406 71.163 55.7219 72.8817 53.6085 72.8817C51.4951 72.8817 49.7764 71.163 49.7764 69.0496H47.8604C47.8604 72.2197 50.4384 74.7977 53.6085 74.7977C56.7786 74.7977 59.3566 72.2197 59.3566 69.0496Z" fill="black"/>
<path d="M92.8881 75.7556H69.8955V77.6717H92.8881V75.7556Z" fill="black"/>
<path d="M75.6436 54.6792H73.7275V56.5952H75.6436V54.6792Z" fill="black"/>
<path d="M73.7268 52.763H75.6428V42.2248H73.7689L78.5169 36.1212L83.2649 42.2248H81.391V52.763H83.307V44.1408H87.1813L78.5169 33L69.8525 44.1408H73.7268V52.763Z" fill="black"/>
</g>
<defs>
<filter id="filter0_d" x="0" y="0" width="125" height="125" filterUnits="userSpaceOnUse" color-interpolation-filters="sRGB">
<feFlood flood-opacity="0" result="BackgroundImageFix"/>
<feColorMatrix in="SourceAlpha" type="matrix" values="0 0 0 0 0 0 0 0 0 0 0 0 0 0 0 0 0 0 127 0"/>
<feOffset/>
<feGaussianBlur stdDeviation="7.5"/>
<feColorMatrix type="matrix" values="0 0 0 0 0 0 0 0 0 0 0 0 0 0 0 0 0 0 0.25 0"/>
<feBlend mode="normal" in2="BackgroundImageFix" result="effect1_dropShadow"/>
<feBlend mode="normal" in="SourceGraphic" in2="effect1_dropShadow" result="shape"/>
</filter>
<clipPath id="clip0">
<rect x="33" y="33" width="60" height="60" fill="white"/>
</clipPath>
</defs>
</svg>
