<svg width="125" height="125" viewBox="0 0 125 125" fill="none" xmlns="http://www.w3.org/2000/svg">
<g filter="url(#filter0_d)">
<circle cx="62.5" cy="62.5" r="47.5" fill="white"/>
</g>
<path d="M57.1901 55.2586L56.7578 50.5215L48.4805 54.6604V58.1618H58.1579L57.1901 55.2586Z" fill="#D02E1B"/>
<path d="M80.4186 66.8708C80.0869 66.8708 79.7637 66.9049 79.4461 66.9587C79.4471 66.929 79.4509 66.9006 79.4509 66.8708C79.4509 63.6638 76.8515 61.0644 73.6444 61.0644C71.4755 61.0644 69.5877 62.2556 68.5907 64.0168C67.9173 63.0339 66.9865 62.2471 65.9025 61.7302V59.1289H60.096V61.7245C59.2696 62.1191 58.5343 62.6738 57.9332 63.3519C56.8724 61.9646 55.2039 61.0644 53.3218 61.0644C50.1148 61.0644 47.5154 63.6638 47.5154 66.8708C47.5154 66.9871 47.5262 67.1 47.5329 67.2144C46.9214 66.9956 46.266 66.8708 45.5799 66.8708C42.3728 66.8708 39.7734 69.4702 39.7734 72.6773C39.7734 75.8844 42.3728 78.4837 45.5799 78.4837H80.4186C83.6257 78.4837 86.2251 75.8844 86.2251 72.6773C86.2251 69.4702 83.6257 66.8708 80.4186 66.8708Z" fill="#D02E1B"/>
<path d="M69.24 50.5215L68.8076 55.2586L67.8398 58.1618H77.5173V54.6604L69.24 50.5215Z" fill="#D02E1B"/>
<path d="M65.9002 52.3552H60.0938V42.6777H65.9002V52.3552Z" fill="#D02E1B"/>
<path d="M88.1613 46.5484H87.1935V45.8486L90.2844 40.6956L84.7888 33H81.8573L76.3608 40.6956L79.4516 45.8486V46.5484H69.7742V46.3646C69.7742 41.8897 68.1959 37.5311 65.3305 34.0906C64.7526 33.3979 63.903 33 63 33C62.097 33 61.2474 33.3979 60.6685 34.0915C57.8041 37.5311 56.2258 41.8897 56.2258 46.3646V46.5484H46.5484V39.4344L41.7097 33.3861L36.871 39.4344V46.6462C34.6657 47.096 33 49.0509 33 51.3871V82.3548C33 85.0227 35.1708 87.1935 37.8387 87.1935H50.4194V91.0645H46.5484V93H79.4516V91.0645H75.5806V87.1935H88.1613C90.8292 87.1935 93 85.0227 93 82.3548V51.3871C93 48.7192 90.8292 46.5484 88.1613 46.5484ZM85.2581 48.4839H81.3871V46.5484H85.2581V48.4839ZM81.3871 50.4194H85.2581V58.1613C85.2581 59.2287 84.39 60.0968 83.3226 60.0968C82.2551 60.0968 81.3871 59.2287 81.3871 58.1613V50.4194ZM84.2903 40.7419C84.2903 41.2749 83.8565 41.7097 83.3226 41.7097C82.7886 41.7097 82.3548 41.2749 82.3548 40.7419C82.3548 40.2089 82.7886 39.7742 83.3226 39.7742C83.8565 39.7742 84.2903 40.2089 84.2903 40.7419ZM82.3548 35.6325V38.0169C81.2312 38.4176 80.4194 39.4822 80.4194 40.7419C80.4194 42.3424 81.7221 43.6452 83.3226 43.6452C84.923 43.6452 86.2258 42.3424 86.2258 40.7419C86.2258 39.4822 85.414 38.4176 84.2903 38.0169V35.6325L87.9737 40.7873L85.6781 44.6129H80.967L78.6715 40.7882L82.3548 35.6325ZM79.4516 48.4839V58.1613C79.4516 60.2962 81.1877 62.0323 83.3226 62.0323C85.4575 62.0323 87.1935 60.2962 87.1935 58.1613V48.4839H88.1613C89.7617 48.4839 91.0645 49.7866 91.0645 51.3871V77.5161H85.1508C86.4096 76.2852 87.1935 74.5723 87.1935 72.6774C87.1935 68.9421 84.1538 65.9032 80.4194 65.9032C80.3943 65.9032 80.3693 65.9089 80.3428 65.9098C79.8736 62.6295 77.0526 60.0968 73.6452 60.0968C71.5599 60.0968 69.6476 61.0499 68.3769 62.6333C67.9275 62.1901 67.4276 61.7913 66.871 61.4596V60.0968H67.4692L69.7742 55.4863V48.4839H79.4516ZM40.7419 72.6774C40.7419 70.0095 42.9127 67.8387 45.5806 67.8387C48.2486 67.8387 50.4194 70.0095 50.4194 72.6774H52.3548C52.3548 69.9939 50.7823 67.6762 48.5127 66.5808C48.6667 64.05 50.7544 62.0323 53.3226 62.0323C54.6561 62.0323 55.9182 62.5898 56.825 63.542C55.8242 64.8873 55.2581 66.5392 55.2581 68.2956V68.8064H57.1935V68.2956C57.1935 65.9954 58.4717 63.9262 60.5291 62.8975L61.0645 62.6305V60.0968H64.9355V62.6305L65.4709 62.8975C67.5283 63.9262 68.8064 65.9944 68.8064 68.2956V68.8064H70.7419V68.2956C70.7419 66.8176 70.3346 65.4175 69.6116 64.2078C70.5038 62.8568 72.0008 62.0323 73.6452 62.0323C76.3131 62.0323 78.4839 64.2031 78.4839 66.871C78.4839 69.5389 76.3131 71.7097 73.6452 71.7097V73.6452C77.0488 73.6452 79.866 71.1195 80.3409 67.8453C80.3669 67.8444 80.3934 67.8387 80.4194 67.8387C83.0873 67.8387 85.2581 70.0095 85.2581 72.6774C85.2581 75.3453 83.0873 77.5161 80.4194 77.5161H45.5806C42.9127 77.5161 40.7419 75.3453 40.7419 72.6774ZM66.2727 58.1613H59.7273L58.7595 56.2258H67.2405L66.2727 58.1613ZM62.1551 35.3315C62.5752 34.8282 63.4257 34.8292 63.8439 35.3315C66.4202 38.4232 67.8387 42.3414 67.8387 46.3646V54.2903H58.1613V46.3646C58.1613 42.3414 59.5798 38.4232 62.1551 35.3315ZM38.8065 58.1613H44.6129V61.0645C44.6129 61.5975 44.1791 62.0323 43.6452 62.0323H39.7742C39.2402 62.0323 38.8065 61.5975 38.8065 61.0645V58.1613ZM44.6129 56.2258H42.6774V54.2903H40.7419V56.2258H38.8065V40.7419H40.7419V52.3548H42.6774V40.7419H44.6129V56.2258ZM43.5677 38.8065H39.8517L41.7097 36.4849L43.5677 38.8065ZM36.871 48.662V61.0645C36.871 62.665 38.1737 63.9677 39.7742 63.9677H43.6452C45.2456 63.9677 46.5484 62.665 46.5484 61.0645V48.4839H56.2258V55.4863L58.5308 60.0968H59.129V61.4596C58.7855 61.6646 58.467 61.8985 58.1632 62.1476C56.8982 60.8538 55.1602 60.0968 53.3226 60.0968C49.8873 60.0968 47.0469 62.6711 46.6122 65.9902C46.2753 65.9382 45.9317 65.9032 45.5806 65.9032C41.8462 65.9032 38.8065 68.9421 38.8065 72.6774C38.8065 74.5723 39.5904 76.2852 40.8492 77.5161H34.9355V51.3871C34.9355 50.1273 35.7473 49.0627 36.871 48.662ZM73.6452 91.0645H52.3548V87.1935H73.6452V91.0645ZM88.1613 85.2581H37.8387C36.2382 85.2581 34.9355 83.9553 34.9355 82.3548V79.4516H91.0645V82.3548C91.0645 83.9553 89.7617 85.2581 88.1613 85.2581Z" fill="black"/>
<path d="M56.2266 81.3877H58.162V83.3232H56.2266V81.3877Z" fill="black"/>
<path d="M60.0977 81.3877H65.9041V83.3232H60.0977V81.3877Z" fill="black"/>
<path d="M67.8398 81.3877H69.7753V83.3232H67.8398V81.3877Z" fill="black"/>
<path d="M62.0312 38.8066H63.9667V40.7421H62.0312V38.8066Z" fill="black"/>
<defs>
<filter id="filter0_d" x="0" y="0" width="125" height="125" filterUnits="userSpaceOnUse" color-interpolation-filters="sRGB">
<feFlood flood-opacity="0" result="BackgroundImageFix"/>
<feColorMatrix in="SourceAlpha" type="matrix" values="0 0 0 0 0 0 0 0 0 0 0 0 0 0 0 0 0 0 127 0"/>
<feOffset/>
<feGaussianBlur stdDeviation="7.5"/>
<feColorMatrix type="matrix" values="0 0 0 0 0 0 0 0 0 0 0 0 0 0 0 0 0 0 0.25 0"/>
<feBlend mode="normal" in2="BackgroundImageFix" result="effect1_dropShadow"/>
<feBlend mode="normal" in="SourceGraphic" in2="effect1_dropShadow" result="shape"/>
</filter>
</defs>
</svg>
