<svg width="125" height="125" viewBox="0 0 125 125" fill="none" xmlns="http://www.w3.org/2000/svg">
<g filter="url(#filter0_d)">
<circle cx="62.5" cy="62.5" r="47.5" fill="white"/>
</g>
<path d="M46.5485 74.6129V56.2258H36.8711V81.3871H56.2259V74.6129H46.5485Z" fill="#D02E1B"/>
<path d="M69.7744 42.6775V51.3872H79.4518V67.8388H89.1293V42.6775H69.7744Z" fill="#D02E1B"/>
<path d="M73.6453 83.3227V81.3872L65.9033 86.2259L73.6453 91.0646V89.1291H89.1291V83.3227H73.6453Z" fill="#D02E1B"/>
<path d="M52.355 42.6775V44.613L60.0969 39.7743L52.355 34.9355V36.871H36.8711V42.6775H52.355Z" fill="#D02E1B"/>
<path d="M88.1613 33H70.7419C68.074 33 65.9032 35.1708 65.9032 37.8387V50.4194H59.999C59.5491 48.2141 57.5952 46.5484 55.2581 46.5484H37.8387C35.1708 46.5484 33 48.7192 33 51.3871V88.1613C33 90.8292 35.1708 93 37.8387 93H55.2581C57.926 93 60.0968 90.8292 60.0968 88.1613V75.5806H66.001C66.4509 77.7859 68.4048 79.4516 70.7419 79.4516H88.1613C90.8292 79.4516 93 77.2808 93 74.6129V37.8387C93 35.1708 90.8292 33 88.1613 33ZM70.7419 34.9355H88.1613C89.7617 34.9355 91.0645 36.2382 91.0645 37.8387V38.8065H67.8387V37.8387C67.8387 36.2382 69.1415 34.9355 70.7419 34.9355ZM67.8387 40.7419H91.0645V69.7742H80.4194V50.4194H67.8387V40.7419ZM63 63.9677C61.3868 63.9677 59.8695 63.3397 58.7283 62.1986L48.8846 52.3548H77.1154L67.2717 62.1986C66.1305 63.3397 64.6132 63.9677 63 63.9677ZM57.3599 63.567C57.5243 63.7315 57.6977 63.8846 57.874 64.0325L47.5161 72.5621V53.7233L57.3599 63.567ZM59.586 65.1302C60.6407 65.6301 61.7979 65.9032 63 65.9032C64.2021 65.9032 65.3593 65.6301 66.414 65.1302L76.7544 73.6452H49.2456L59.586 65.1302ZM68.127 64.0325C68.3032 63.8846 68.4757 63.7315 68.6401 63.567L78.4839 53.7233V72.5621L68.127 64.0325ZM37.8387 48.4839H55.2581C56.5178 48.4839 57.5824 49.2957 57.9831 50.4194H45.5806V52.3548H34.9355V51.3871C34.9355 49.7866 36.2382 48.4839 37.8387 48.4839ZM55.2581 91.0645H37.8387C36.2382 91.0645 34.9355 89.7617 34.9355 88.1613V85.2581H58.1613V88.1613C58.1613 89.7617 56.8585 91.0645 55.2581 91.0645ZM58.1613 83.3226H34.9355V54.2903H45.5806V75.5806H58.1613V83.3226ZM88.1613 77.5161H70.7419C69.4822 77.5161 68.4176 76.7043 68.0169 75.5806H84.2903V73.6452H80.4194V71.7097H91.0645V74.6129C91.0645 76.2134 89.7617 77.5161 88.1613 77.5161Z" fill="black"/>
<path d="M42.6777 87.1936H48.4842V89.1291H42.6777V87.1936Z" fill="black"/>
<path d="M91.0645 87.1936H92.9999V89.1291H91.0645V87.1936Z" fill="black"/>
<path d="M91.0645 83.3225H92.9999V85.258H91.0645V83.3225Z" fill="black"/>
<path d="M33 36.8708H34.9355V38.8063H33V36.8708Z" fill="black"/>
<path d="M33 40.7419H34.9355V42.6774H33V40.7419Z" fill="black"/>
<defs>
<filter id="filter0_d" x="0" y="0" width="125" height="125" filterUnits="userSpaceOnUse" color-interpolation-filters="sRGB">
<feFlood flood-opacity="0" result="BackgroundImageFix"/>
<feColorMatrix in="SourceAlpha" type="matrix" values="0 0 0 0 0 0 0 0 0 0 0 0 0 0 0 0 0 0 127 0"/>
<feOffset/>
<feGaussianBlur stdDeviation="7.5"/>
<feColorMatrix type="matrix" values="0 0 0 0 0 0 0 0 0 0 0 0 0 0 0 0 0 0 0.25 0"/>
<feBlend mode="normal" in2="BackgroundImageFix" result="effect1_dropShadow"/>
<feBlend mode="normal" in="SourceGraphic" in2="effect1_dropShadow" result="shape"/>
</filter>
</defs>
</svg>
