<svg width="125" height="125" viewBox="0 0 125 125" fill="none" xmlns="http://www.w3.org/2000/svg">
<g filter="url(#filter0_d)">
<circle cx="62.5" cy="62.5" r="47.5" fill="white"/>
</g>
<path d="M60.375 45.4125V45.5625C60.375 47.1094 59.7094 48.5906 58.5562 49.6219L51.9375 55.5L45.3187 49.6219C44.1656 48.5906 43.5 47.1094 43.5 45.5625V45.4125C43.5 44.0719 44.0344 42.7781 44.9906 41.8219C45.8344 40.9781 46.9875 40.5 48.1875 40.5C49.3875 40.5 50.5406 40.9781 51.3844 41.8219L51.9375 42.375L52.4906 41.8219C53.3344 40.9781 54.4875 40.5 55.6875 40.5C56.8875 40.5 58.0406 40.9781 58.8844 41.8219C59.8406 42.7781 60.375 44.0719 60.375 45.4125V45.4125Z" fill="#D02E1B"/>
<path d="M75.375 61.125V62.0625C75.375 62.5781 74.9531 63 74.4375 63H70.6875C70.1719 63 69.75 62.5781 69.75 62.0625V52.6875C69.75 52.1719 70.1719 51.75 70.6875 51.75H74.4375C74.9531 51.75 75.375 52.1719 75.375 52.6875V61.125Z" fill="#D02E1B"/>
<path d="M61.3125 45.5616V45.4144C61.3125 43.8084 60.6872 42.2991 59.5509 41.1628C58.5197 40.1306 57.1472 39.5625 55.6875 39.5625C54.2812 39.5625 52.9556 40.0903 51.9375 41.0522C50.9194 40.0903 49.5938 39.5625 48.1875 39.5625C46.7278 39.5625 45.3553 40.1306 44.3241 41.1628C43.1878 42.2991 42.5625 43.8084 42.5625 45.4144V45.5616C42.5625 47.3784 43.3416 49.1128 44.6991 50.3194L51.9375 56.7544L59.175 50.3203C60.5334 49.1137 61.3125 47.3794 61.3125 45.5616V45.5616ZM51.9375 54.2456L45.945 48.9187C44.9869 48.0675 44.4375 46.8441 44.4375 45.5616V45.4144C44.4375 44.3091 44.8678 43.2703 45.6497 42.4884C46.3275 41.8106 47.2294 41.4375 48.1875 41.4375C49.1456 41.4375 50.0475 41.8106 50.7253 42.4884L51.9375 43.7006L53.1497 42.4884C54.5053 41.1338 56.8697 41.1338 58.2253 42.4884C59.0072 43.2703 59.4375 44.3091 59.4375 45.4144V45.5616C59.4375 46.8431 58.8881 48.0675 57.93 48.9187L51.9375 54.2456Z" fill="black"/>
<path d="M92.25 41.4375H66.9375V36.75C66.9375 35.1994 65.6756 33.9375 64.125 33.9375H39.75C38.1994 33.9375 36.9375 35.1994 36.9375 36.75V57.375C36.9375 58.9256 38.1994 60.1875 39.75 60.1875H47.7487L49.3116 62.0625H41.625C40.0744 62.0625 38.8125 63.3244 38.8125 64.875V83.625C38.8125 85.1756 40.0744 86.4375 41.625 86.4375H51.4987L55.5225 91.2656C55.9444 91.7719 56.5641 92.0625 57.2231 92.0625C58.4438 92.0625 59.4375 91.0688 59.4375 89.8481V86.4375H69.75C71.3006 86.4375 72.5625 85.1756 72.5625 83.625V67.6875H74.4375V71.0981C74.4375 72.3188 75.4312 73.3125 76.6519 73.3125C77.3109 73.3125 77.9306 73.0219 78.3525 72.5156L82.3762 67.6875H92.25C93.8006 67.6875 95.0625 66.4256 95.0625 64.875V44.25C95.0625 42.6994 93.8006 41.4375 92.25 41.4375ZM48.6263 58.3125H39.75C39.2334 58.3125 38.8125 57.8925 38.8125 57.375V36.75C38.8125 36.2325 39.2334 35.8125 39.75 35.8125H64.125C64.6416 35.8125 65.0625 36.2325 65.0625 36.75V57.375C65.0625 57.8925 64.6416 58.3125 64.125 58.3125H53.8125V63.5981C53.8125 63.8878 53.3981 64.0378 53.2125 63.8147L48.6263 58.3125ZM61.3125 60.1875V62.0625H55.6875V60.1875H61.3125ZM70.6875 83.625C70.6875 84.1425 70.2666 84.5625 69.75 84.5625H57.5625V89.8481C57.5625 90.1378 57.1481 90.2878 56.9625 90.0647L52.3763 84.5625H41.625C41.1084 84.5625 40.6875 84.1425 40.6875 83.625V64.875C40.6875 64.3575 41.1084 63.9375 41.625 63.9375H50.8734L51.7725 65.0156C52.1944 65.5219 52.8141 65.8125 53.4731 65.8125C54.5775 65.8125 55.4878 64.9969 55.6528 63.9375H61.3125V64.875C61.3125 66.4256 62.5744 67.6875 64.125 67.6875H70.6875V83.625ZM93.1875 64.875C93.1875 65.3925 92.7666 65.8125 92.25 65.8125H81.4988L76.9125 71.3147C76.7269 71.5359 76.3125 71.3869 76.3125 71.0981V65.8125H64.125C63.6084 65.8125 63.1875 65.3925 63.1875 64.875V60.1875H64.125C65.6756 60.1875 66.9375 58.9256 66.9375 57.375V43.3125H92.25C92.7666 43.3125 93.1875 43.7325 93.1875 44.25V64.875Z" fill="black"/>
<path d="M59.4375 73.3125C59.4375 73.8684 59.5669 74.3916 59.7844 74.8659C59.3803 74.5078 58.9303 74.2022 58.4438 73.9594C59.055 73.2919 59.4375 72.4116 59.4375 71.4375C59.4375 69.3694 57.7556 67.6875 55.6875 67.6875C53.6194 67.6875 51.9375 69.3694 51.9375 71.4375C51.9375 72.4116 52.32 73.2919 52.9312 73.9594C52.4447 74.2022 51.9947 74.5078 51.5906 74.8659C51.8081 74.3916 51.9375 73.8684 51.9375 73.3125C51.9375 71.2444 50.2556 69.5625 48.1875 69.5625C46.1194 69.5625 44.4375 71.2444 44.4375 73.3125C44.4375 74.3119 44.8359 75.2147 45.4753 75.8878C43.7409 76.8469 42.5625 78.6938 42.5625 80.8125V82.6875H44.4375V80.8125C44.4375 78.7444 46.1194 77.0625 48.1875 77.0625C48.7781 77.0625 49.3444 77.2031 49.86 77.4609C49.7119 77.8894 49.6031 78.3375 49.5506 78.8053L49.1306 82.5834L50.9934 82.7906L51.4134 79.0125C51.6562 76.8319 53.4938 75.1875 55.6875 75.1875C57.8812 75.1875 59.7188 76.8319 59.9616 79.0125L60.3816 82.7906L62.2444 82.5834L61.8244 78.8053C61.7728 78.3375 61.6631 77.8894 61.515 77.4609C62.0306 77.2031 62.5969 77.0625 63.1875 77.0625C65.2556 77.0625 66.9375 78.7444 66.9375 80.8125V82.6875H68.8125V80.8125C68.8125 78.6938 67.6341 76.8469 65.8997 75.8878C66.5391 75.2147 66.9375 74.3119 66.9375 73.3125C66.9375 71.2444 65.2556 69.5625 63.1875 69.5625C61.1194 69.5625 59.4375 71.2444 59.4375 73.3125ZM48.1875 75.1875C47.1534 75.1875 46.3125 74.3466 46.3125 73.3125C46.3125 72.2784 47.1534 71.4375 48.1875 71.4375C49.2216 71.4375 50.0625 72.2784 50.0625 73.3125C50.0625 74.3466 49.2216 75.1875 48.1875 75.1875ZM55.6875 73.3125C54.6534 73.3125 53.8125 72.4716 53.8125 71.4375C53.8125 70.4034 54.6534 69.5625 55.6875 69.5625C56.7216 69.5625 57.5625 70.4034 57.5625 71.4375C57.5625 72.4716 56.7216 73.3125 55.6875 73.3125ZM65.0625 73.3125C65.0625 74.3466 64.2216 75.1875 63.1875 75.1875C62.1534 75.1875 61.3125 74.3466 61.3125 73.3125C61.3125 72.2784 62.1534 71.4375 63.1875 71.4375C64.2216 71.4375 65.0625 72.2784 65.0625 73.3125Z" fill="black"/>
<path d="M85.6875 50.8125H83.9813L84.2072 49.4587C84.3844 48.3928 84.0863 47.3091 83.3878 46.485C82.6894 45.66 81.6694 45.1875 80.5894 45.1875C79.2966 45.1875 78.1744 46.0641 77.8603 47.3175C77.5209 48.6769 76.8178 49.9181 75.8269 50.91L75.5503 51.1866C75.2381 50.955 74.8556 50.8125 74.4375 50.8125H70.6875C69.6534 50.8125 68.8125 51.6534 68.8125 52.6875V62.0625C68.8125 63.0966 69.6534 63.9375 70.6875 63.9375H74.4375C75.2559 63.9375 75.945 63.4078 76.2009 62.6756C77.8641 63.5006 79.6912 63.9375 81.5672 63.9375H85.6875C87.7556 63.9375 89.4375 62.2556 89.4375 60.1875V54.5625C89.4375 52.4944 87.7556 50.8125 85.6875 50.8125ZM70.6875 62.0625V52.6875H74.4375L74.4384 62.0625H70.6875ZM87.5625 60.1875C87.5625 61.2216 86.7216 62.0625 85.6875 62.0625H81.5672C79.7062 62.0625 77.9016 61.5553 76.3125 60.6019V53.0756L77.1525 52.2356C78.3834 51.0047 79.2581 49.4606 79.68 47.7722C79.7841 47.355 80.1581 47.0625 80.5894 47.0625C81.1172 47.0625 81.6159 47.2931 81.9572 47.6972C82.2984 48.1003 82.4447 48.63 82.3575 49.1513L81.7687 52.6875H85.6875C86.7216 52.6875 87.5625 53.5284 87.5625 54.5625V60.1875Z" fill="black"/>
<defs>
<filter id="filter0_d" x="0" y="0" width="125" height="125" filterUnits="userSpaceOnUse" color-interpolation-filters="sRGB">
<feFlood flood-opacity="0" result="BackgroundImageFix"/>
<feColorMatrix in="SourceAlpha" type="matrix" values="0 0 0 0 0 0 0 0 0 0 0 0 0 0 0 0 0 0 127 0"/>
<feOffset/>
<feGaussianBlur stdDeviation="7.5"/>
<feColorMatrix type="matrix" values="0 0 0 0 0 0 0 0 0 0 0 0 0 0 0 0 0 0 0.25 0"/>
<feBlend mode="normal" in2="BackgroundImageFix" result="effect1_dropShadow"/>
<feBlend mode="normal" in="SourceGraphic" in2="effect1_dropShadow" result="shape"/>
</filter>
</defs>
</svg>
