<svg width="125" height="125" viewBox="0 0 125 125" fill="none" xmlns="http://www.w3.org/2000/svg">
<g filter="url(#filter0_d)">
<circle cx="62.5" cy="62.5" r="47.5" fill="white"/>
</g>
<path d="M83.9677 66.3797C82.3654 75.184 75.4046 82.1504 66.6004 83.7528V87.2503C77.3114 85.5733 85.794 77.085 87.4652 66.3797H83.9677ZM41.4683 66.3797H37.9707C39.6419 77.0907 48.1303 85.5791 58.8413 87.2503V83.7528C50.0371 82.1504 43.0706 75.184 41.4683 66.3797V66.3797ZM37.9707 58.6207H41.4683C43.0706 49.8106 50.0371 42.85 58.8413 41.2476V37.75C48.1303 39.4213 39.6419 47.9096 37.9707 58.6207ZM66.6004 37.75V41.2476C75.4046 42.85 82.3654 49.8164 83.9677 58.6207H87.4652C85.794 47.9155 77.3114 39.4271 66.6004 37.75V37.75Z" fill="black"/>
<path d="M74.8186 64.4597C75.9025 57.7738 71.3611 51.4752 64.6752 50.3914C57.9894 49.3076 51.6908 53.8489 50.607 60.5348C49.5231 67.2207 54.0645 73.5192 60.7504 74.6031C67.4362 75.6869 73.7348 71.1456 74.8186 64.4597Z" fill="#D02E1B"/>
<path d="M33.25 61.0669H44.9761V63.9333H33.25V61.0669Z" fill="#D02E1B"/>
<path d="M80.0244 61.0669H91.7505V63.9333H80.0244V61.0669Z" fill="#D02E1B"/>
<path d="M63.9336 33.25V44.9761H61.0672V33.25H63.9336Z" fill="#D02E1B"/>
<path d="M63.9326 80.0239V91.75H61.0662V80.0239H63.9326Z" fill="#D02E1B"/>
<path d="M54.375 66.5625L57.7091 58.4375H58.9468L62.5 66.5625H61.1912L60.1786 64.1017H56.5484L55.5949 66.5625H54.375ZM56.88 63.226H59.8233L58.9172 60.9759C58.6408 60.2923 58.4355 59.7307 58.3013 59.291C58.1908 59.812 58.0348 60.3293 57.8335 60.8429L56.88 63.226Z" fill="white"/>
<path d="M63.5156 66.5625V58.4375H66.4779C67.1466 58.4375 67.6569 58.4763 68.0088 58.5539C68.5016 58.661 68.922 58.855 69.27 59.1358C69.7236 59.4979 70.0629 59.9607 70.2877 60.5242C70.5126 61.0876 70.625 61.7315 70.625 62.4557C70.625 63.0727 70.5487 63.6195 70.3962 64.0962C70.2437 64.5728 70.0482 64.9672 69.8097 65.2795C69.5711 65.5917 69.3101 65.8374 69.0266 66.0166C68.743 66.1958 68.4009 66.3316 68 66.4239C67.5992 66.5163 67.1387 66.5625 66.6186 66.5625H63.5156ZM64.6536 65.6037H66.4896C67.0566 65.6037 67.5014 65.5538 67.8241 65.454C68.1467 65.3543 68.4038 65.2139 68.5954 65.0328C68.8653 64.7779 69.0754 64.4352 69.226 64.0047C69.3766 63.5743 69.4518 63.0524 69.4518 62.439C69.4518 61.5892 69.3042 60.9362 69.009 60.4798C68.7137 60.0235 68.3549 59.7178 67.9326 59.5626C67.6276 59.4517 67.1368 59.3963 66.4603 59.3963H64.6536V65.6037Z" fill="white"/>
<defs>
<filter id="filter0_d" x="0" y="0" width="125" height="125" filterUnits="userSpaceOnUse" color-interpolation-filters="sRGB">
<feFlood flood-opacity="0" result="BackgroundImageFix"/>
<feColorMatrix in="SourceAlpha" type="matrix" values="0 0 0 0 0 0 0 0 0 0 0 0 0 0 0 0 0 0 127 0"/>
<feOffset/>
<feGaussianBlur stdDeviation="7.5"/>
<feColorMatrix type="matrix" values="0 0 0 0 0 0 0 0 0 0 0 0 0 0 0 0 0 0 0.25 0"/>
<feBlend mode="normal" in2="BackgroundImageFix" result="effect1_dropShadow"/>
<feBlend mode="normal" in="SourceGraphic" in2="effect1_dropShadow" result="shape"/>
</filter>
</defs>
</svg>
