<?xml version="1.0" encoding="utf-8"?>
<!-- Generator: Adobe Illustrator 24.0.0, SVG Export Plug-In . SVG Version: 6.00 Build 0)  -->
<svg version="1.1" id="Layer_1" xmlns="http://www.w3.org/2000/svg" xmlns:xlink="http://www.w3.org/1999/xlink" x="0px" y="0px"
	 viewBox="0 0 631 570" style="enable-background:new 0 0 631 570;" xml:space="preserve">
<style type="text/css">
	.st0{opacity:0.27;fill:#43434C;enable-background:new    ;}
	.st1{fill:#444444;}
	.st2{fill:#363636;}
	.st3{fill:#F5F5F5;}
	.st4{fill:#696969;}
	.st5{fill:#C5C5C5;}
	.st6{fill:#F5F5F5;filter:url(#Adobe_OpacityMaskFilter);}
	.st7{mask:url(#mask0_1_);}
	.st8{fill:#FFFFFF;}
</style>
<path class="st0" d="M315.7,468.6c164.6,0,298.1-9.2,298.1-20.6c0-11.4-133.5-20.6-298.1-20.6s-298.1,9.2-298.1,20.6
	C17.6,459.4,151.1,468.6,315.7,468.6z"/>
<path class="st1" d="M534.8,419.8h-437c-6.1,0-11.2-5-11.2-11.2V120.5c0-6.1,5-11.2,11.2-11.2h436.8c6.1,0,11.2,5,11.2,11.2v288.1
	C545.9,414.8,540.9,419.8,534.8,419.8z"/>
<path class="st2" d="M573.5,444.7H59.2c-13,0-23.5-10.6-23.5-23.5v-15h561.4v15C597,434.1,586.5,444.7,573.5,444.7z"/>
<path d="M319.9,118.6c0,2-1.6,3.5-3.5,3.5c-2,0-3.5-1.6-3.5-3.5c0-2,1.6-3.5,3.5-3.5C318.3,115,319.9,116.6,319.9,118.6z"/>
<path class="st3" d="M534,126.4H98.6v271H534V126.4z"/>
<path class="st4" d="M534,126.4H98.6v24.9H534V126.4z"/>
<path class="st3" d="M182.7,132.4h-11.6c-0.4,0-0.7,0.3-0.7,0.7v11.6c0,0.4,0.3,0.7,0.7,0.7h6.3v-5.1h-1.7v-2h1.7v-1.4
	c0-1.7,1-2.6,2.5-2.6c0.7,0,1.3,0,1.6,0.1v1.7h-1c-0.8,0-0.9,0.4-0.9,0.9v1.3h2l-0.3,2h-1.7v5.1h3.3c0.4,0,0.7-0.3,0.7-0.7V133
	C183.3,132.8,183.1,132.4,182.7,132.4z"/>
<path class="st3" d="M353.5,134.2H198.6v8.9h154.9V134.2z"/>
<path class="st5" d="M238.8,173h-68.4v68.4h68.4V173z"/>
<path class="st5" d="M380.6,181.6H251.8v12.1h128.7V181.6z"/>
<path class="st5" d="M380.6,201.2H251.8v12.1h128.7V201.2z"/>
<path class="st5" d="M380.6,220.7H251.8v12.1h128.7V220.7z"/>
<path class="st5" d="M238.8,264.2h-68.4v68.4h68.4V264.2z"/>
<path class="st5" d="M380.6,272.8H251.8v12.1h128.7V272.8z"/>
<path class="st5" d="M380.6,292.4H251.8v12.1h128.7V292.4z"/>
<path class="st5" d="M380.6,311.9H251.8V324h128.7V311.9z"/>
<path class="st1" d="M553.3,469.8H453c-9.6,0-17.5-7.8-17.5-17.5V250.3c0-9.6,7.8-17.5,17.5-17.5h100.3c9.6,0,17.5,7.8,17.5,17.5
	v202.2C570.8,462,563,469.8,553.3,469.8z"/>
<defs>
	<filter id="Adobe_OpacityMaskFilter" filterUnits="userSpaceOnUse" x="426.3" y="227.4" width="156" height="235.6">
		<feColorMatrix  type="matrix" values="1 0 0 0 0  0 1 0 0 0  0 0 1 0 0  0 0 0 1 0"/>
	</filter>
</defs>
<mask maskUnits="userSpaceOnUse" x="426.3" y="227.4" width="156" height="235.6" id="mask0_1_">
	<path class="st6" d="M553.8,462.9H452.5c-5.9,0-10.6-4.7-10.6-10.6V250.4c0-5.9,4.7-10.6,10.6-10.6h101.4c5.9,0,10.6,4.7,10.6,10.6
		v201.9C564.4,458.1,559.6,462.9,553.8,462.9z"/>
</mask>
<g class="st7">
	<path class="st3" d="M553.8,462.9H452.5c-5.9,0-10.6-4.7-10.6-10.6V250.4c0-5.9,4.7-10.6,10.6-10.6h101.4c5.9,0,10.6,4.7,10.6,10.6
		v201.9C564.4,458.1,559.6,462.9,553.8,462.9z"/>
	<path class="st4" d="M582.2,227.4h-156v37h156V227.4z"/>
</g>
<path class="st3" d="M458.9,250h-9.3c-0.3,0-0.5,0.3-0.5,0.5v9.2c0,0.3,0.3,0.5,0.5,0.5h5v-4h-1.3v-1.6h1.3v-1.2
	c0-1.3,0.8-2.1,2.1-2.1c0.5,0,1,0,1.2,0v1.4H457c-0.7,0-0.8,0.3-0.8,0.8v1h1.6l-0.3,1.6h-1.3v4h2.6c0.3,0,0.5-0.3,0.5-0.5v-9.2
	C459.4,250.3,459.1,250,458.9,250z"/>
<path class="st3" d="M559.3,251.5h-87.7v7.2h87.7V251.5z"/>
<path class="st5" d="M484.8,277.5H449v35.8h35.8V277.5z"/>
<path class="st5" d="M559.2,281.9h-67.5v6.4h67.5V281.9z"/>
<path class="st5" d="M559.2,292.2h-67.5v6.4h67.5V292.2z"/>
<path class="st5" d="M559.2,302.5h-67.5v6.4h67.5V302.5z"/>
<path class="st5" d="M484.8,324.2H449V360h35.8V324.2z"/>
<path class="st5" d="M559.2,328.6h-67.5v6.4h67.5V328.6z"/>
<path class="st5" d="M559.2,338.9h-67.5v6.4h67.5V338.9z"/>
<path class="st5" d="M559.2,349h-67.5v6.4h67.5V349z"/>
<path class="st5" d="M484.8,370.7H449v35.8h35.8V370.7z"/>
<path class="st5" d="M559.2,375.2h-67.5v6.4h67.5V375.2z"/>
<path class="st5" d="M559.2,385.5h-67.5v6.4h67.5V385.5z"/>
<path class="st5" d="M559.2,395.7h-67.5v6.4h67.5V395.7z"/>
<path class="st1" d="M518.3,247.8h-30.4c-4.7,0-8.7-3.1-9.9-7.7l-1.4-5.5h52.9l-1.4,5.5C527,244.7,523,247.8,518.3,247.8z"/>
<path d="M491.2,239.9c0,1.4-1.2,2.5-2.5,2.5c-1.4,0-2.5-1.2-2.5-2.5c0-1.4,1.2-2.5,2.5-2.5C490,237.4,491.2,238.6,491.2,239.9z"/>
<path d="M518,241.9h-19.5c-1.2,0-2.1-0.9-2.1-2.1s0.9-2.1,2.1-2.1H518c1.2,0,2.1,0.9,2.1,2.1S519.2,241.9,518,241.9z"/>
<path class="st8" d="M144.4,469.3h-7.3c-1.4,0-2.5,1.2-2.5,2.5v22.8c0,1.4,1.2,2.5,2.5,2.5h7.3c1.4,0,2.5-1.2,2.5-2.5v-22.8
	C147,470.3,145.8,469.3,144.4,469.3z"/>
</svg>
