<?xml version="1.0" encoding="utf-8"?>
<!-- Generator: Adobe Illustrator 24.0.0, SVG Export Plug-In . SVG Version: 6.00 Build 0)  -->
<svg version="1.1" id="Layer_1" xmlns="http://www.w3.org/2000/svg" xmlns:xlink="http://www.w3.org/1999/xlink" x="0px" y="0px"
	 viewBox="0 0 631 570" style="enable-background:new 0 0 631 570;" xml:space="preserve">
<style type="text/css">
	.st0{opacity:0.79;fill:#F5F5F5;enable-background:new    ;}
	.st1{fill:#FFFFFF;}
</style>
<path class="st0" d="M60.6,385.4c33.5,0,60.6-27.1,60.6-60.6S94,264.2,60.6,264.2C27.1,264.2,0,291.3,0,324.8S27.1,385.4,60.6,385.4
	z"/>
<path class="st0" d="M418.5,148.8c41.1,0,74.4-33.3,74.4-74.4S459.6,0,418.5,0s-74.4,33.3-74.4,74.4S377.4,148.8,418.5,148.8z"/>
<path class="st0" d="M172,104.6c6.6-40.6-21-78.8-61.5-85.4c-40.6-6.6-78.8,21-85.4,61.5c-6.6,40.6,21,78.8,61.5,85.4
	S165.5,145.1,172,104.6z"/>
<path class="st0" d="M588.1,279.7c18.3-18.3,18.3-48,0-66.3s-48-18.3-66.3,0s-18.3,48,0,66.3S569.8,298,588.1,279.7z"/>
<path class="st0" d="M124.3,481c25.9,0,46.9-21,46.9-46.9c0-25.9-21-46.9-46.9-46.9s-46.9,21-46.9,46.9C77.4,460,98.4,481,124.3,481
	z"/>
<path class="st0" d="M566.8,425.2c3.4-14.4-5.5-28.9-20-32.3c-14.4-3.4-28.9,5.5-32.3,20c-3.4,14.4,5.5,28.9,20,32.3
	C548.9,448.5,563.4,439.6,566.8,425.2z"/>
<path class="st1" d="M622.5,162.1c0,18.4-15,33.4-33.4,33.4s-33.4-15-33.4-33.4s15-33.4,33.4-33.4
	C607.6,128.7,622.5,143.7,622.5,162.1z"/>
</svg>
