<?xml version="1.0" encoding="utf-8"?>
<!-- Generator: Adobe Illustrator 24.0.0, SVG Export Plug-In . SVG Version: 6.00 Build 0)  -->
<svg version="1.1" id="Layer_1" xmlns="http://www.w3.org/2000/svg" xmlns:xlink="http://www.w3.org/1999/xlink" x="0px" y="0px"
	 viewBox="0 0 631 570" style="enable-background:new 0 0 631 570;" xml:space="preserve">
<style type="text/css">
	.st0{fill:#FFFFFF;}
	.st1{fill:#D02E1B;}
	.st2{fill:#FFD876;}
</style>
<path class="st0" d="M602.3,172l-45.5,53.9l19.5-67.7c2.3-7.9,10.6-12.5,18.5-10.3c7.9,2.3,12.5,10.6,10.3,18.5
	C604.7,168.5,603.6,170.4,602.3,172z"/>
<path class="st0" d="M622.5,162.1c0,18.4-15,33.4-33.4,33.4s-33.4-15-33.4-33.4s15-33.4,33.4-33.4
	C607.6,128.7,622.5,143.7,622.5,162.1z"/>
<path class="st1" d="M609.7,182.5c11.3-11.3,11.3-29.6,0-40.9c-11.3-11.3-29.6-11.3-40.9,0s-11.3,29.6,0,40.9
	C580.1,193.8,598.4,193.8,609.7,182.5z"/>
<path class="st0" d="M608,156.2c0-1-0.7-10.2-9.4-10.2s-9.5,6.8-9.5,6.8s-0.8-6.8-9.5-6.8s-9.4,9.1-9.4,10.2
	c0,10.2,12.4,19.3,18.9,22.9C595.8,175.6,608,166.4,608,156.2z"/>
<path class="st0" d="M124.4,72.2l-0.5,70.5L95.8,78c-3.3-7.6,0.1-16.4,7.8-19.7c7.6-3.3,16.4,0.1,19.7,7.8
	C124,68,124.4,70.2,124.4,72.2z"/>
<path class="st0" d="M141.1,72.2c0,18.4-15,33.4-33.4,33.4c-18.4,0-33.4-15-33.4-33.4s15-33.4,33.4-33.4
	C126.1,38.8,141.1,53.8,141.1,72.2z"/>
<path class="st1" d="M135.9,78.9c3.7-15.5-6-31.1-21.5-34.8c-15.5-3.7-31.1,6-34.8,21.5c-3.7,15.5,6,31.1,21.5,34.8
	C116.6,104.1,132.2,94.4,135.9,78.9z"/>
<path class="st0" d="M126.6,66.4c0-1-0.7-10.2-9.4-10.2s-9.5,6.8-9.5,6.8s-0.8-6.8-9.5-6.8c-8.7,0-9.4,9.1-9.4,10.2
	c0,10.2,12.4,19.3,18.9,22.9C114.3,85.7,126.6,76.5,126.6,66.4z"/>
<path class="st0" d="M393.9,302l71.4,81.3l-96.2-44.7c-11.6-4.7-17.1-17.8-12.5-29.3c4.7-11.6,17.8-17.1,29.3-12.5
	C389,298,391.8,299.8,393.9,302z"/>
<path class="st0" d="M425,315.7c0,27.6-22.4,50.2-50.2,50.2c-27.6,0-50.2-22.4-50.2-50.2c0-27.6,22.4-50.2,50.2-50.2
	C402.6,265.5,425,287.9,425,315.7z"/>
<path class="st1" d="M417.3,325.7c5.5-23.4-9-46.8-32.3-52.3c-23.4-5.5-46.8,9-52.4,32.3c-5.5,23.4,9,46.8,32.4,52.4
	C388.4,363.5,411.8,349.1,417.3,325.7z"/>
<path class="st0" d="M403.2,307c0-1.4-1-15.2-14.1-15.2c-13.2,0-14.2,10.2-14.2,10.2s-1.2-10.2-14.2-10.2
	c-13.2,0-14.1,13.7-14.1,15.2c0,15.2,18.5,29.1,28.3,34.5C384.7,336,403.2,322.1,403.2,307z"/>
<path class="st0" d="M274.6,113.5l-60.6,71.8L240.1,95c3-10.6,14.2-16.7,24.8-13.7c10.6,3,16.7,14.2,13.7,24.8
	C277.8,108.8,276.3,111.4,274.6,113.5z"/>
<path class="st0" d="M300.8,99.8c0,24.5-19.9,44.4-44.4,44.4c-24.5,0-44.4-19.9-44.4-44.4c0-24.5,19.9-44.4,44.4-44.4
	C281,55.4,300.8,75.3,300.8,99.8z"/>
<path class="st2" d="M295,99.8c0,21.4-17.3,38.6-38.6,38.6c-21.4,0-38.6-17.3-38.6-38.6c0-21.4,17.3-38.6,38.6-38.6
	C277.8,61.2,295,78.4,295,99.8z"/>
<path class="st1" d="M295,99.8c0,21.4-17.3,38.6-38.6,38.6c-21.4,0-38.6-17.3-38.6-38.6c0-21.4,17.3-38.6,38.6-38.6
	C277.8,61.2,295,78.4,295,99.8z"/>
<path class="st0" d="M280,100.7c0-2.3-0.8-3-1.7-3.6c0.5-0.8,0.9-2,0.9-3.4c0-3-2.2-4.8-6-4.8h-9.5c0.3-1.6,0.7-4.6,0.7-6.1
	c0-3.1-0.8-6.9-3.5-8.5c-0.8-0.4-1.6-0.7-2.6-0.7c-1.7,0-2.7,0.7-3.1,1c-0.3,0.3-0.4,0.7-0.4,0.9L255,82c0,4.7-7.3,10.9-7.3,15.6
	v15.5c0,2.5,3.5,4.2,8.5,4.2h13.5c2.5,0,4.2-0.8,5.1-2.5c0.8-1.6,0.7-3,0.4-4c1.3-0.4,2.6-1.4,3-3.4c0.3-1.2,0-2.2-0.4-3
	C278.9,104,280,103.1,280,100.7z"/>
<path class="st0" d="M242.6,94.6h-6.8c-1.3,0-2.3,1-2.3,2.3V118c0,1.3,1,2.3,2.3,2.3h6.8c1.3,0,2.3-1,2.3-2.3V96.9
	C244.9,95.6,243.9,94.6,242.6,94.6z"/>
<path class="st0" d="M74.3,270.6l86.9,33.9L68,309.2c-11.1,0.5-20.5-7.9-21-18.9c-0.5-11.1,7.9-20.5,18.9-21
	C68.9,269.2,71.8,269.7,74.3,270.6z"/>
<path class="st0" d="M114.7,285.5c0,24.5-19.9,44.4-44.4,44.4s-44.4-19.8-44.4-44.4c0-24.5,19.9-44.4,44.4-44.4
	S114.7,261,114.7,285.5z"/>
<path class="st2" d="M108.8,285.5c0,21.4-17.3,38.6-38.6,38.6c-21.4,0-38.6-17.3-38.6-38.6c0-21.2,17.3-38.6,38.6-38.6
	C91.6,246.9,108.8,264.2,108.8,285.5z"/>
<path class="st1" d="M108.8,285.5c0,21.4-17.3,38.6-38.6,38.6c-21.4,0-38.6-17.3-38.6-38.6c0-21.2,17.3-38.6,38.6-38.6
	C91.6,246.9,108.8,264.2,108.8,285.5z"/>
<path class="st0" d="M93.8,286.4c0-2.3-0.8-3-1.7-3.6c0.5-0.8,0.9-2,0.9-3.4c0-3-2.2-4.8-6-4.8h-9.5c0.3-1.6,0.7-4.6,0.7-6.1
	c0-3.1-0.8-6.9-3.5-8.5c-0.8-0.4-1.6-0.7-2.6-0.7c-1.7,0-2.7,0.7-3.1,1c-0.3,0.3-0.4,0.7-0.4,0.9l0.3,6.4c0,4.7-7.3,10.9-7.3,15.6
	v15.5c0,2.5,3.5,4.2,8.5,4.2h13.5c2.5,0,4.2-0.8,5.1-2.5c0.8-1.6,0.7-3,0.4-4c1.3-0.4,2.6-1.4,3-3.4c0.3-1.2,0-2.2-0.4-3
	C92.8,289.8,93.8,288.7,93.8,286.4z"/>
<path class="st0" d="M56.4,280.2h-6.8c-1.3,0-2.3,1-2.3,2.3v21.1c0,1.3,1,2.3,2.3,2.3h6.8c1.3,0,2.3-1,2.3-2.3v-21.1
	C58.8,281.3,57.7,280.2,56.4,280.2z"/>
<path class="st0" d="M447.8,71.7l-1.2,93.3l-37.1-85.6c-4.4-10.2,0.3-21.9,10.4-26.3c10.2-4.4,21.9,0.3,26.3,10.4
	C447.3,66.1,447.8,68.9,447.8,71.7z"/>
<path class="st0" d="M471.2,74.4c0,24.5-19.9,44.4-44.4,44.4c-24.5,0-44.4-19.9-44.4-44.4c0-24.5,19.9-44.4,44.4-44.4
	C451.3,30,471.2,49.9,471.2,74.4z"/>
<path class="st2" d="M465.4,74.4c0,21.4-17.3,38.6-38.6,38.6c-21.2,0-38.6-17.3-38.6-38.6c0-21.4,17.3-38.6,38.6-38.6
	C448.1,35.8,465.4,53,465.4,74.4z"/>
<path class="st1" d="M465.4,74.4c0,21.4-17.3,38.6-38.6,38.6c-21.2,0-38.6-17.3-38.6-38.6c0-21.4,17.3-38.6,38.6-38.6
	C448.1,35.8,465.4,53,465.4,74.4z"/>
<path class="st0" d="M450.4,75.3c0-2.3-0.8-3-1.7-3.6c0.5-0.8,0.9-2,0.9-3.4c0-3-2.2-4.8-6-4.8h-9.5c0.3-1.6,0.7-4.6,0.7-6.1
	c0-3.1-0.8-6.9-3.5-8.5c-0.8-0.4-1.6-0.7-2.6-0.7c-1.7,0-2.7,0.7-3.1,1c-0.3,0.3-0.4,0.7-0.4,0.9l0.3,6.4c0,4.7-7.3,10.9-7.3,15.6
	v15.5c0,2.5,3.6,4.2,8.5,4.2h13.5c2.5,0,4.2-0.8,5.1-2.5c0.8-1.6,0.7-3,0.4-4c1.3-0.4,2.6-1.4,3-3.4c0.3-1.2,0-2.2-0.4-3
	C449.2,78.6,450.4,77.6,450.4,75.3z"/>
<path class="st0" d="M413,69.2h-6.8c-1.3,0-2.3,1-2.3,2.3v21.1c0,1.3,1,2.3,2.3,2.3h6.8c1.3,0,2.3-1,2.3-2.3V71.5
	C415.4,70.2,414.2,69.2,413,69.2z"/>
<path class="st0" d="M140.8,468.9l55.1-84.4L180.3,484c-1.8,11.7-12.9,19.8-24.6,18c-11.7-1.8-19.8-12.9-18-24.6
	C138.1,474.2,139.3,471.2,140.8,468.9z"/>
<path class="st0" d="M207.4,474.9c0,26.6-21.5,48.1-48.1,48.1s-48.1-21.5-48.1-48.1s21.5-48.1,48.1-48.1S207.4,448.3,207.4,474.9z"
	/>
<path class="st2" d="M201.2,474.9c0,23.1-18.6,41.7-41.7,41.7c-23.1,0-41.7-18.6-41.7-41.7c0-23.1,18.6-41.7,41.7-41.7
	C182.5,433.2,201.2,451.8,201.2,474.9z"/>
<path class="st1" d="M201.2,474.9c0,23.1-18.6,41.7-41.7,41.7c-23.1,0-41.7-18.6-41.7-41.7c0-23.1,18.6-41.7,41.7-41.7
	C182.5,433.2,201.2,451.8,201.2,474.9z"/>
<path class="st0" d="M184.9,475.8c0-2.6-0.9-3.3-1.8-4c0.5-0.9,1-2.1,1-3.6c0-3.1-2.5-5.1-6.4-5.1h-10.2c0.3-1.7,0.7-5,0.7-6.5
	c0-3.4-0.8-7.6-3.9-9.1c-0.9-0.5-1.7-0.8-2.9-0.8c-1.8,0-3,0.8-3.4,1.2c-0.3,0.3-0.4,0.7-0.4,1l0.3,6.9c0,5.1-7.9,11.9-7.9,16.9
	v16.8c0,2.7,3.9,4.6,9.1,4.6h14.6c2.7,0,4.4-0.9,5.5-2.7c0.9-1.7,0.8-3.3,0.4-4.3c1.4-0.5,2.9-1.6,3.3-3.6c0.3-1.3,0-2.5-0.5-3.3
	C183.7,479.5,184.9,478.4,184.9,475.8z"/>
<path class="st0" d="M144.4,469.3h-7.3c-1.4,0-2.5,1.2-2.5,2.5v22.8c0,1.4,1.2,2.5,2.5,2.5h7.3c1.4,0,2.5-1.2,2.5-2.5v-22.8
	C147,470.3,145.8,469.3,144.4,469.3z"/>
</svg>
