<?xml version="1.0" encoding="utf-8"?>
<!-- Generator: Adobe Illustrator 24.0.0, SVG Export Plug-In . SVG Version: 6.00 Build 0)  -->
<svg version="1.1" id="Layer_1" xmlns="http://www.w3.org/2000/svg" xmlns:xlink="http://www.w3.org/1999/xlink" x="0px" y="0px"
	 viewBox="0 0 810 570" style="enable-background:new 0 0 810 570;" xml:space="preserve">
<style type="text/css">
	.st0{fill:#ECECEC;}
	.st1{fill:#D2D2D2;}
	.st2{fill:#FAFAFA;}
	.st3{fill:#DADADA;}
	.st4{fill:#B2B2B2;}
	.st5{fill:none;stroke:#8A8A8A;stroke-width:2.5409;stroke-miterlimit:10;stroke-dasharray:7.62,7.62;}
	.st6{fill:#6E6E6E;}
	.st7{fill:none;stroke:#838383;stroke-width:2.0199;stroke-miterlimit:10;}
	.st8{fill:none;stroke:#838383;stroke-width:1.6117;stroke-miterlimit:10;}
	.st9{fill:none;stroke:#7E7E7E;stroke-width:2.5409;stroke-miterlimit:10;}
	.st10{fill:#7E7E7E;}
	.st11{fill:none;stroke:#ABABAB;stroke-width:2.5409;stroke-miterlimit:10;}
	.st12{fill:none;stroke:#ABABAB;stroke-width:1.9105;stroke-miterlimit:10;}
	.st13{fill:#0F0F0F;}
	.st14{fill:#797979;}
	.st15{fill:#222222;}
	.st16{fill:#EAEAEA;}
	.st17{fill:#BEBEBE;}
	.st18{fill:#D02E1B;}
	.st19{fill:#E5E5E5;}
	.st20{fill:#C5C5C5;}
	.st21{fill:#CCCCCC;}
	.st22{fill:#BFBFBF;}
	.st23{fill:#EEEEEE;}
	.st24{fill:#D7D7D7;}
	.st25{opacity:0.44;}
	.st26{opacity:0.44;fill:#FFFFFF;enable-background:new    ;}
	.st27{display:none;opacity:0.44;}
	.st28{display:inline;opacity:0.44;fill:#FFFFFF;enable-background:new    ;}
	.st29{display:none;}
	.st30{display:inline;fill:#8B0F00;}
	.st31{display:inline;fill:#FAFAFA;}
	.st32{display:inline;fill:#DCDCDC;}
	.st33{display:inline;fill:#D02E1B;}
	.st34{display:inline;fill:#F85441;}
	.st35{display:inline;fill:#979797;}
	.st36{display:inline;fill:#FFFFFF;}
	.st37{display:inline;fill:#C9C9C9;}
	.st38{display:inline;fill:none;stroke:#FAFAFA;stroke-width:3.8114;stroke-linejoin:round;stroke-miterlimit:10;}
	.st39{display:inline;fill:#D2D2D2;}
</style>
<path class="st0" d="M592.6,13.2c14.7-4.7,30.4-5.7,45.7-4.7c22.1,1.3,45.2,6.7,61.4,21.9c10.3,9.4,17,22,25.4,33.3
	c23.9,32.8,60.9,56.1,77,93.4c13.8,31.8,8.6,71.8-15.1,97c-23.7,25.2-65.6,32.4-94.9,14c-28.2-17.7-40.6-52.8-66.5-73.8
	c-18.5-15-42.2-21.7-62.2-34.5c-20.5-13.1-37.1-33.7-40.9-57.9c-3.1-20,4-41.7,19.6-54.8C557.4,34.2,573.3,19.2,592.6,13.2z"/>
<path class="st1" d="M720.4,257.4c-25.5,4-50.3-2.6-75.7-7.2c-24.4-4.5-48.7-13-68.1-28.9c-8.9-7.3-16.7-16.3-20.2-27.4
	c-5-15.7-0.4-32.5-0.5-49c0-19.3-4.9-37.8-18.2-51.9c-8.1-8.6-17.5-16.2-24-26.2c-13.4-20.9-3-48.8,17.8-60.6
	c19-10.7,43.2-6.5,62.9,2.8c19.7,9.3,37,23.2,56.8,32.2c21.7,10,45.5,13.9,69.4,16.2c18.3,1.8,37-0.4,51.8,10.4
	c10.7,7.7,18.2,19.2,22.7,31.6c8.4,23.5,6.6,51,2.8,75.3c-2.6,16.2-7.7,32.2-17.1,45.7c-11.6,16.6-29.1,28.5-48.6,34.1
	C728.2,255.9,724.3,256.9,720.4,257.4z"/>
<path class="st0" d="M680.3,569.9H88.6C44,535.7,12.9,487.2,4.6,431.6c-3.5-23.1-1.5-50.5,17.3-64.4c29-21.3,72.5,5.5,105.1-9.3
	c21-9.6,31.4-34.4,31.7-57.6s-7.6-45.5-13.5-67.9c-5.8-22.4-9.7-46.5-1.8-68.4c8-21.7,31.2-39.4,53.7-33.6
	c19.2,5,31.4,24.4,49.8,31.8c19.2,7.7,41.4,0.7,58.4-11.1c17-11.7,30.5-27.8,46.4-40.9c27.9-23.2,64.8-37.4,100.7-32
	c35.9,5.4,69.1,33.2,74.6,68.9c4.6,29.3-7.7,63.1,10.3,86.8c20.2,26.6,62.6,19.2,91.9,35.4c23.9,13.2,36.6,43.7,29.1,69.9
	c-7.6,26.7-33.3,49.2-29.1,76.6c3,19.7,20.5,33.3,32.8,49C685.5,495.1,696.2,535.1,680.3,569.9z"/>
<path class="st1" d="M652.6,569.9h-507c-15.4-14-32.7-27-41.4-45.9c-8.8-18.9-8.8-43.6,5.7-58.6c17.4-18.2,46.4-15.8,70.8-21.7
	c28.2-7,53.8-29.5,57.5-58.4c4.7-37.2-26.4-71.1-24.6-108.6c1.5-29.5,26.6-56,56-59.2c19.8-2.2,40.5,5.1,59.6-0.4
	c17.8-5.1,30.6-20.2,46-30.5c18.1-12,41.3-17.1,62.2-11.2c20.9,5.9,38.6,24,41.4,45.6c3,22.9-9.4,49,3.8,67.9
	c9.9,14.2,29.5,16.9,46.7,16.3c17.3-0.5,35.5-2.8,50.7,5.4c14,7.7,22.4,23.5,24,39.4c1.6,15.9-2.8,32-9.4,46.5
	c-5.7,12.8-13.1,24.8-17.4,38.2c-4.3,13.4-5.3,28.6,1.9,40.7c7.4,12.7,21.7,19.3,33.5,28.3C632.9,519.1,651,543.8,652.6,569.9z"/>
<path class="st2" d="M610.1,77.1l29.3,74.5l62.5-35.2L610.1,77.1z"/>
<path class="st3" d="M610.1,77.1l57.6,58.6l15.7-8.9L610.1,77.1z"/>
<path class="st3" d="M683.4,126.8l-10.9,27.1l-4.7-18.2L683.4,126.8z"/>
<path class="st4" d="M672.5,153.9L659,140.5l8.8-4.9L672.5,153.9z"/>
<path class="st5" d="M227.1,546.8c-66-17.4-123.6-64.5-153.7-125.7C61,395.8,53,367.6,54.9,339.6c1.9-28.1,14.4-56.3,37-73.1
	c22.5-16.9,55.5-20.5,79.3-5.5c23.1,14.4,34,42.2,54,60.7c23.9,22.1,61.8,28.6,90.5,13.4c28.7-15.1,44.9-51.9,34.5-82.7
	c-9.7-28.5-37.2-46.3-61.1-64.6c-23.9-18.4-47.6-44.1-44.3-74.1c3-25.8,25.6-45.1,49.4-55c45.9-19.2,104.8-10.7,135.9,27.9
	c33.5,41.4,27,102,12,153.1c-15.1,51.1-37.4,102.8-29.8,155.7c6.2,43.9,33.5,83.2,69.5,109c36,25.8,80.3,38.5,124.5,41.2
	c44.1,2.7,91.5-5.5,124.1-35.3c32.7-29.8,43.7-85.4,14.8-118.9c-15-17.3-37.2-26.2-58.7-34.1c-21.5-8-43.8-16.3-59.4-33.1
	c-15.5-16.7-21.6-44.8-6.9-62.5c16.9-20.4,62.1-22.7,78-43.7c11.3-15.1-1.9-44.1-14.8-58.4"/>
<path class="st6" d="M190.4,468.7c-28.5-18.8-54-42.2-75-69.1c-8.8-11.3-16.9-23.2-22.3-36.6c-5.4-13.2-7.8-27.9-5.3-42
	c1.9-10.1,7.4-20.6,17.1-23.7c7.6-2.6,16.2,0.1,22.5,5c6.3,4.9,10.8,11.9,14.7,18.8c15.2,27,24.6,56.7,35.8,85.5
	c5.4,13.9,11.3,27.5,18.5,40.5c3.5,6.5,7.4,12.8,11.6,18.8c3.9,5.5,10.9,11.3,13.2,17.3C215.9,487.6,195.5,472.1,190.4,468.7z"/>
<path class="st7" d="M110.1,312.4c13.9,59.1,46.7,113.6,92.4,153.7"/>
<path class="st6" d="M570.2,469c24.6-11.9,47.1-27.8,66.4-47c8.1-8,15.8-16.7,21.3-26.6c5.5-10,9-21.3,8.5-32.8
	c-0.4-8.2-3.8-17-11.1-20.6c-5.8-2.8-12.8-1.6-18.3,1.6c-5.5,3.2-9.7,8.2-13.6,13.4c-14.8,19.7-25.2,42.4-37.1,64
	c-5.7,10.4-11.7,20.6-18.8,30.2c-3.5,4.7-7.2,9.3-11.2,13.6c-3.6,3.9-9.7,7.8-12.3,12.3C548.1,481.2,565.7,471.1,570.2,469z"/>
<path class="st8" d="M649.8,353.6c-17.1,45.3-48.7,85.1-88.9,112.1"/>
<path class="st9" d="M202.7,430c15.4-75.7-1.1-157.2-44.3-221.1"/>
<path class="st10" d="M163,216.4c-12.4-4-23.2-12.7-30-23.7c-6.7-11.2-9.3-24.7-7.2-37.5c13.1,3.5,25.5,11.6,32.4,23.3
	C165.3,189.9,166,203.1,163,216.4z"/>
<path class="st10" d="M176.8,240.8c-2.8-9.6-2-20.2,2-29.4c4.2-9.2,11.6-16.7,20.8-20.9c3.5,9.8,3.6,21.3-0.7,30.9
	C194.6,230.8,186.5,237,176.8,240.8z"/>
<path class="st10" d="M177.6,239.8c-7.6-6.6-17.5-10.4-27.5-10.5c-10-0.1-20.1,3.5-27.8,10.1c7.6,7.3,17.8,12.3,28.3,12.3
	C161.1,251.9,170,247.1,177.6,239.8z"/>
<path class="st10" d="M192.3,279.7c-1.1-10,1.5-20.4,7.2-28.6c5.7-8.2,14.4-14.4,24.2-17c1.8,10.4,0,21.6-6.1,30.2
	C211.6,272.9,202.7,277.6,192.3,279.7z"/>
<path class="st10" d="M193.4,279c-6.3-7.8-15.5-13.2-25.4-15.1c-9.8-1.8-20.4,0-29,5.1c6.1,8.5,15.4,15.2,25.6,17
	C175,287.9,184.6,284.8,193.4,279z"/>
<path class="st10" d="M202.7,318.5c-0.3-10,3.2-20.1,9.6-27.9c6.3-7.8,15.7-13.1,25.5-14.8c0.8,10.4-1.9,21.6-8.6,29.5
	C222.5,313.5,213.1,317.4,202.7,318.5z"/>
<path class="st10" d="M203.7,317.8c-5.5-8.4-14.3-14.6-23.9-17.3c-9.7-2.7-20.4-1.8-29.4,2.6c5.4,9,14,16.5,24.2,19.2
	C184.6,325.1,194.6,323,203.7,317.8z"/>
<path class="st10" d="M208.6,361.3c1.3-10,6.3-19.4,13.8-26c7.6-6.7,17.4-10.5,27.5-10.8c-0.8,10.4-5.3,20.9-13.1,27.9
	C229,359.4,219.1,361.8,208.6,361.3z"/>
<path class="st10" d="M209.8,360.9c-4.2-9.2-11.9-16.6-20.9-20.8c-9.2-4.2-19.8-4.9-29.4-2c3.9,9.7,11.2,18.5,20.8,22.8
	C189.9,365.1,200,364.4,209.8,360.9z"/>
<path class="st9" d="M559.9,456c-16.6-75.4-1.6-157.2,40.6-221.8"/>
<path class="st6" d="M596.1,241.7c12.3-4.3,22.9-13.1,29.5-24.3c6.5-11.2,8.9-24.8,6.5-37.6c-13.1,3.8-25.2,12.1-32,23.9
	C593.4,215.4,592.8,228.7,596.1,241.7z"/>
<path class="st6" d="M582.7,266.4c2.7-9.7,1.8-20.4-2.6-29.4c-4.3-9-11.9-16.6-21-20.6c-3.4,10-3.4,21.3,1.2,30.8
	C564.8,256.7,572.9,262.8,582.7,266.4z"/>
<path class="st6" d="M581.9,265.6c7.4-6.7,17.4-10.7,27.4-10.9c10-0.3,20.1,3.2,27.9,9.6c-7.4,7.4-17.5,12.5-28.1,12.8
	C598.7,277.2,589.6,272.8,581.9,265.6z"/>
<path class="st6" d="M567.8,305.6c0.9-10-1.8-20.4-7.7-28.5c-5.8-8.2-14.6-14.2-24.4-16.6c-1.5,10.4,0.4,21.6,6.5,30.1
	C548.5,299.2,557.5,303.7,567.8,305.6z"/>
<path class="st6" d="M566.8,304.9c6.2-8,15.2-13.5,25.1-15.5c9.8-2,20.4-0.3,29.1,4.6c-5.9,8.6-15.1,15.4-25.4,17.5
	C585.3,313.5,575.6,310.5,566.8,304.9z"/>
<path class="st6" d="M558.2,344.7c0.1-10-3.6-20.1-10.1-27.8c-6.5-7.7-15.8-12.8-25.8-14.4c-0.7,10.5,2.3,21.5,9.2,29.4
	C538.3,340,547.7,343.6,558.2,344.7z"/>
<path class="st6" d="M557.1,344c5.4-8.5,14-14.8,23.6-17.7c9.6-2.8,20.2-2.2,29.4,2c-5.3,9-13.8,16.7-23.7,19.6
	C576.3,350.9,566.4,348.9,557.1,344z"/>
<path class="st6" d="M552.9,387.5c-1.5-10-6.6-19.3-14.3-25.8c-7.6-6.6-17.7-10.3-27.7-10.3c0.9,10.4,5.7,20.9,13.6,27.7
	C532.5,386,542.4,388.1,552.9,387.5z"/>
<path class="st6" d="M551.7,387.1c4-9.2,11.5-16.9,20.6-21c9-4.3,19.7-5.3,29.4-2.6c-3.8,9.8-10.9,18.6-20.5,23.1
	C571.8,391,561.7,390.4,551.7,387.1z"/>
<path class="st10" d="M190.8,506.9c4.2-7.7,9.7-14.7,13.4-22.5c-9.7-12.4-21.5-23.5-33.7-33.3c-8-6.3-16.5-12.4-25.1-17.9
	c-8,6.3-15.9,12.7-23.7,18.9c1.3-11.1,2.2-20.6,3.4-31c-17.7-9.6-36.2-17.4-55.3-23.5c-4.5,7.2-8.1,14.6-14,20.8
	c0.1-8.1-0.7-16.6-1.8-25.2c-17.7-4.6-35.8-7.6-53.8-8.6c0,7.3,0.4,14.6,1.2,21.9c4.7-1.5,8.4-5.4,13.4-6.2c-3.4,8-6.3,16.9-10.3,25
	c4.3,19.3,11.7,37.9,21.7,55c8.4-4.9,16.2-11.6,26.2-15.8c-1.8,15.4-1.8,31.4-3.1,47c5.3,5.8,10.9,11.2,17,16.2
	c10.7,8.8,22.3,16.3,34.5,22.5c2.6-9.6,5.1-19,11.3-27c7.3,13.9,15.1,26.2,21.7,39.8c27.5,7.8,56.9,9.4,85,4
	c4.7-0.9,8.5-8.4,10-12.8c1.5-4.5,1.2-9.4,0.5-14.2c-2-14.8-7.6-28.6-15.2-41.2C205.9,500.5,197.7,502.8,190.8,506.9z"/>
<path class="st11" d="M198.7,552.3c-64.8-38-124-85.7-175.3-140.6"/>
<path class="st10" d="M573.7,522.1c-3.9-5.3-8.8-9.8-12.4-15.4c5.9-10.3,13.5-19.8,21.6-28.3c5.3-5.7,10.9-10.9,16.7-16.1
	c6.6,3.9,13.2,7.7,19.7,11.6c-2.2-8.1-3.8-15.1-5.8-22.8c12.1-9,25.1-16.9,38.6-23.3c4,4.9,7.7,10,12.7,13.9
	c-0.9-6.1-1.2-12.4-1.3-19c12.7-5.3,25.8-9.4,39.1-12.3c0.8,5.4,1.3,10.9,1.5,16.5c-3.6-0.5-6.9-3.1-10.7-3.1
	c3.4,5.7,6.5,11.9,10.3,17.5c-1.2,14.8-4.7,29.5-10.4,43.3c-6.7-2.7-13.2-7-21.2-9c3,11.2,4.7,23.2,7.3,34.7
	c-3.4,4.9-7,9.4-10.9,13.9c-6.9,7.7-14.8,14.6-23.3,20.5c-2.8-6.9-5.8-13.6-11.3-18.9c-3.9,11.1-8.5,21-12,32
	c-19.7,8.8-41.3,13.1-62.9,12.1c-3.5-0.1-7.3-5.3-8.8-8.5c-1.6-3.2-1.9-6.9-1.9-10.4c0-11.2,2.6-22,7-32.2
	C561.8,519,568.2,519.8,573.7,522.1z"/>
<path class="st12" d="M572.8,556.8c44.1-35.3,83.2-77,115.5-123.5"/>
<path class="st13" d="M568,569.9H192.1c-8.1,0-14.6-6.5-14.6-14.6V314.2c0-8.1,6.5-14.6,14.6-14.6H568c8.1,0,14.6,6.5,14.6,14.6
	v241.1C582.6,563.4,576,569.9,568,569.9z"/>
<path class="st14" d="M577.4,437.6c1.6-6.6-2.5-13.2-9.1-14.8c-6.6-1.6-13.2,2.5-14.8,9.1c-1.6,6.6,2.5,13.2,9.1,14.8
	C569.3,448.3,575.9,444.2,577.4,437.6z"/>
<path class="st15" d="M186.1,480.4c-2.2,0-3.9-1.8-3.9-3.9v-83.7c0-2.2,1.8-3.9,3.9-3.9s3.9,1.8,3.9,3.9v83.7
	C190,478.7,188.2,480.4,186.1,480.4z"/>
<path class="st16" d="M548.5,309.5h-353v250.4h353V309.5z"/>
<path class="st17" d="M548.5,309.5h-353v16.9h353V309.5z"/>
<path class="st18" d="M205.8,318.6h-4.5v5.7h4.5V318.6z"/>
<path class="st18" d="M211.6,314.7h-4.5v9.6h4.5V314.7z"/>
<path class="st18" d="M217.8,311.9h-4.5v12.4h4.5V311.9z"/>
<path class="st19" d="M520.4,313v0.8c0,0.7-0.5,1.2-1.2,1.2h-1.3c-0.7,0-1.2,0.5-1.2,1.2v3.6c0,0.7,0.5,1.2,1.2,1.2h1.3
	c0.7,0,1.2,0.5,1.2,1.2v0.8c0,0.7,0.5,1.2,1.2,1.2H540c0.7,0,1.2-0.5,1.2-1.2v-10c0-0.7-0.5-1.2-1.2-1.2h-18.4
	C520.9,311.8,520.4,312.3,520.4,313z"/>
<path class="st20" d="M540.1,323.5h-3.4c-0.3,0-0.4-0.1-0.4-0.4v-10.3c0-0.3,0.1-0.4,0.4-0.4h3.2c0.3,0,0.4,0.1,0.4,0.4v10.3
	C540.5,323.2,540.2,323.5,540.1,323.5z"/>
<path class="st20" d="M535,323.5h-3.2c-0.3,0-0.4-0.1-0.4-0.4v-10.3c0-0.3,0.1-0.4,0.4-0.4h3.2c0.3,0,0.4,0.1,0.4,0.4v10.3
	C535.4,323.2,535.2,323.5,535,323.5z"/>
<path class="st20" d="M529.9,323.5h-3.2c-0.3,0-0.4-0.1-0.4-0.4v-10.3c0-0.3,0.1-0.4,0.4-0.4h3.2c0.3,0,0.4,0.1,0.4,0.4v10.3
	C530.3,323.2,530.1,323.5,529.9,323.5z"/>
<path class="st19" d="M511.2,318c0,2.6-2.2,4.7-4.7,4.7c-2.6,0-4.7-2.2-4.7-4.7c0-2.6,2.2-4.7,4.7-4.7
	C509.1,313.2,511.2,315.3,511.2,318z"/>
<path class="st21" d="M526.2,345.2H217.9v195.4h308.3V345.2z"/>
<path class="st22" d="M526.2,345.2H217.9v16.9h308.3V345.2z"/>
<path class="st23" d="M520,370.9H318.1v8H520V370.9z"/>
<path class="st16" d="M429.6,386.1H318.1v8h111.4V386.1z"/>
<path class="st16" d="M378.1,401.4h-59.9v8h59.9V401.4z"/>
<path class="st16" d="M520,427.8H318.1v8H520V427.8z"/>
<path class="st16" d="M429.6,443H318.1v8h111.4V443z"/>
<path class="st16" d="M378.1,458.3h-59.9v8h59.9V458.3z"/>
<path class="st16" d="M520,483.4H318.1v8H520V483.4z"/>
<path class="st16" d="M429.6,498.6H318.1v8h111.4V498.6z"/>
<path class="st16" d="M378.1,513.9h-59.9v8h59.9V513.9z"/>
<path class="st16" d="M308.2,370.9h-78.3V415h78.3V370.9z"/>
<path class="st24" d="M229.9,414.8l39.1-22l39.1,22H229.9z"/>
<path class="st24" d="M308.2,370.9l-39.1,22l-39.1-22H308.2z"/>
<path class="st16" d="M308.2,427.5h-78.3v44.1h78.3V427.5z"/>
<path class="st24" d="M229.9,471.6l39.1-22.1l39.1,22.1H229.9z"/>
<path class="st24" d="M308.2,427.5l-39.1,22l-39.1-22H308.2z"/>
<path class="st16" d="M308.2,484.2h-78.3v44.1h78.3V484.2z"/>
<path class="st24" d="M229.9,528.3l39.1-22.1l39.1,22.1H229.9z"/>
<path class="st24" d="M308.2,484.2l-39.1,22l-39.1-22H308.2z"/>
<g class="st25">
	<path class="st26" d="M398.2,309.5L195.5,512.1v-56.4l146.3-146.3H398.2z"/>
</g>
<g class="st27">
	<path class="st28" d="M548.5,336.7V447L435.5,559.9H325.3L548.5,336.7z"/>
	<path class="st28" d="M548.5,467.1v56.4L512,559.9h-56.4L548.5,467.1z"/>
</g>
<g class="st29">
	<path class="st30" d="M255.1,302.7l104.6-81.1c6.6-5.1,15.9-5.1,22.5,0l104.6,81.1v135.9H255.1V302.7z"/>
	<path class="st31" d="M459.9,230.7H281.8v195.9h178.1V230.7z"/>
	<path class="st32" d="M449.3,242.4H292.6v5.9h156.6V242.4z"/>
	<path class="st32" d="M425.8,254.4H292.6v5.9h133.2V254.4z"/>
	<path class="st32" d="M404.2,266.4H292.6v5.9h111.6V266.4z"/>
	<path class="st32" d="M404.2,289.5H292.6v5.9h111.6V289.5z"/>
	<path class="st32" d="M375.3,301h-82.7v5.9h82.7V301z"/>
	<path class="st32" d="M453.6,325.1h-82.7v5.9h82.7V325.1z"/>
	<path class="st32" d="M453.7,336.9h-67.3v5.9h67.3V336.9z"/>
	<path class="st33" d="M370.9,370.6l-115.8-67.9v135.9L370.9,370.6z"/>
	<path class="st33" d="M370.9,370.6l115.9-67.9v135.9L370.9,370.6z"/>
	<path class="st34" d="M359.7,357.5l-104.6,81.1h231.7l-104.6-81.1C375.6,352.4,366.3,352.4,359.7,357.5z"/>
	<path class="st35" d="M504.2,307.6c2.7-9.6-3-19.6-12.6-22.3c-9.6-2.7-19.6,3-22.3,12.6s3,19.6,12.6,22.3S501.5,317.2,504.2,307.6z
		"/>
	<path class="st36" d="M482.7,293.5v17.5h-5v-13.6h-3.2v-3.8h8.2V293.5z"/>
	<path class="st36" d="M497.3,301.4c1.2,0.9,1.8,2.3,1.8,4c0,1.1-0.3,2-0.8,3c-0.5,0.9-1.3,1.6-2.6,2.2c-1.1,0.5-2.6,0.8-4.2,0.8
		c-1.2,0-2.4-0.1-3.6-0.4c-1.2-0.3-2.3-0.7-3.1-1.2l1.8-3.8c0.7,0.4,1.5,0.8,2.3,1.1c0.8,0.3,1.6,0.4,2.6,0.4c0.8,0,1.5-0.1,2-0.5
		c0.5-0.3,0.8-0.8,0.8-1.3c0-0.5-0.3-1.1-0.8-1.3c-0.5-0.3-1.4-0.4-2.7-0.4H486l0.8-10.3H498v3.8h-7l-0.3,2.6h1.2
		C494.4,299.9,496.1,300.4,497.3,301.4z"/>
	<path class="st37" d="M235.4,496.1h-67.2c-20.4,0-37-16.5-37-37c0-20.4,16.5-37,37-37h30.2c20.4,0,37,16.5,37,37V496.1z"/>
	<path class="st31" d="M183.3,431.3c-15.4,0-27.9,12.5-27.9,27.9c0,15.4,12.5,27.9,27.9,27.9c15.4,0,27.9-12.5,27.9-27.9
		C211.3,443.7,198.7,431.3,183.3,431.3z M159,459.1c0-1.9,0.3-3.6,0.7-5.4c1.2-0.5,3.6-1.5,6.9-2.4c-0.8,4.2-1.1,8.9-0.4,13.9
		c-2.2-0.5-4.5-1.2-6.9-2.2C159.2,461.8,159,460.5,159,459.1z M170.2,450.5c6.2-1.2,14.6-1.8,24.7,0.1c0.9,4.9,1.5,10.4,0.5,16.1
		c-6.5,1.1-15.1,1.5-25.6-0.7C168.9,460.5,169.3,455.1,170.2,450.5z M198.7,451.5c2.7,0.7,5.5,1.5,8.4,2.4c0.4,1.6,0.5,3.4,0.5,5.3
		c0,1.4-0.1,2.7-0.4,4c-1.3,0.7-4,1.8-8.1,2.7C199.8,460.9,199.5,455.9,198.7,451.5z M205.7,449.7c-2.7-0.8-5.3-1.6-7.8-2.2
		c-0.9-4-2.3-7.6-3.2-10C199.7,440.2,203.6,444.5,205.7,449.7z M189.8,435.8c0.7,1.2,2.7,5.4,4.2,11.1c-9-1.5-16.7-1.2-22.8-0.3
		c1.6-5.4,3.8-9.2,4.6-10.5c2.4-0.8,4.9-1.2,7.6-1.2C185.6,434.8,187.8,435.2,189.8,435.8z M170.5,438.6c-1.1,2.3-2.2,5.3-3.1,8.8
		c-2.6,0.5-4.6,1.2-6.2,1.9C163.2,444.8,166.5,441,170.5,438.6z M160.4,467.2c2.3,0.7,4.5,1.3,6.5,1.9c0.8,3.6,2.3,7.4,4.6,11.3
		C166.3,477.5,162.4,472.9,160.4,467.2z M177.4,482.7c-3.2-4.3-5.3-8.6-6.5-12.8c5.1,0.9,9.9,1.3,14.2,1.3c3.6,0,6.9-0.3,9.7-0.7
		c-1.1,4.2-3,8.2-5.8,12.1c-1.8,0.4-3.6,0.7-5.5,0.7C181.3,483.5,179.3,483.1,177.4,482.7z M194.5,480.7c2-3.5,3.2-7.2,4-10.8
		c3.1-0.7,5.7-1.5,7.4-2.2C204,473.3,199.8,478,194.5,480.7z"/>
	<path class="st37" d="M499.6,541.7h67.2c20.4,0,37-16.5,37-37c0-20.4-16.5-37-37-37h-30.2c-20.4,0-37,16.5-37,37V541.7z"/>
	<path class="st38" d="M579.3,494.2c0-10.4-16.6-19.4-27.7-10.4c-11.1-9-27.7,0-27.7,10.4c0,0-3.5,20.5,27.7,35.4
		C583,514.6,579.3,494.2,579.3,494.2z"/>
</g>
<path class="st1" d="M422.6,193.8c-0.3-0.1-0.4-0.1-0.7-0.3c0-0.3-0.1-0.4-0.3-0.7c-0.4-0.8-0.8-1.8-1.8-2.6
	c-0.9,0.8-1.4,1.8-1.8,2.6c-0.1,0.3-0.1,0.4-0.3,0.7c-0.3,0-0.4,0.1-0.7,0.3c-0.8,0.4-1.8,0.8-2.6,1.8c0.8,0.9,1.8,1.3,2.6,1.8
	c0.3,0.1,0.4,0.1,0.7,0.3c0,0.3,0.1,0.4,0.3,0.7c0.4,0.8,0.8,1.8,1.8,2.6c0.9-0.8,1.3-1.8,1.8-2.6c0.1-0.3,0.1-0.4,0.3-0.7
	c0.3,0,0.4-0.1,0.7-0.3c0.8-0.4,1.8-0.8,2.6-1.8C424.3,194.6,423.5,194.1,422.6,193.8z"/>
<path class="st1" d="M805.5,114.9c-0.4-0.1-0.8-0.3-1.1-0.4c-0.1-0.4-0.3-0.8-0.4-1.1c-0.5-1.5-1.3-3-3-4.5c-1.6,1.5-2.4,3-3,4.5
	c-0.1,0.4-0.3,0.8-0.4,1.1c-0.4,0.1-0.8,0.3-1.1,0.4c-1.5,0.5-3,1.3-4.5,3c1.5,1.6,3,2.4,4.5,3c0.4,0.1,0.8,0.3,1.1,0.4
	c0.1,0.4,0.3,0.8,0.4,1.1c0.5,1.5,1.3,3,3,4.5c1.6-1.5,2.4-3,3-4.5c0.1-0.4,0.3-0.8,0.4-1.1c0.4-0.1,0.8-0.3,1.1-0.4
	c1.5-0.5,3-1.3,4.5-3C808.4,116.3,807,115.4,805.5,114.9z"/>
<g class="st29">
	<path class="st39" d="M188.1,141.8c3.1,0.1,5.8,0.9,8.2,2.6c2.4,1.6,4.3,3.8,5.5,6.5c0.9,2,1.5,3.9,1.5,5.7s-0.3,3.2-1.1,4.6
		c-0.8,1.2-1.9,2.3-3.2,3c-1.2,0.5-2.3,0.8-3.4,0.7c-1.1-0.1-2-0.5-3-1.4c-0.1,2.4-1.5,4.3-4,5.5c-1.3,0.7-2.7,0.8-4.2,0.7
		c-1.5-0.1-2.8-0.7-4.2-1.6c-1.3-0.9-2.3-2.3-3.1-3.9c-0.8-1.6-1.2-3.2-1.1-4.9c0-1.6,0.5-3,1.3-4.3c0.8-1.2,1.9-2.2,3.2-2.8
		c2-0.9,3.8-1.1,5.5-0.3l-0.8-1.6l5.5-2.6l4.9,10.3c0.4,0.7,0.7,1.2,1.1,1.3c0.4,0.1,0.8,0.1,1.3,0c1.3-0.7,1.3-2.7-0.4-6.2
		c-1.1-2.2-2.4-3.8-4.2-5c-1.8-1.2-3.8-1.8-6.1-1.9c-2.3,0-4.6,0.4-7,1.6c-2.3,1.1-4.2,2.6-5.5,4.5c-1.3,1.9-2.2,3.9-2.3,6.2
		c-0.1,2.3,0.3,4.5,1.3,6.7c1.1,2.3,2.6,4,4.3,5.4c1.9,1.4,3.9,2,6.2,2.2c2.3,0.1,4.6-0.4,7-1.5c2.4-1.1,4.5-2.7,5.9-4.7l3,3
		c-0.8,0.9-1.8,1.9-3.1,3c-1.3,0.9-2.7,1.8-4,2.4c-3.2,1.5-6.5,2.3-9.6,2c-3.1-0.1-5.9-1.1-8.4-2.8c-2.4-1.8-4.5-4-5.8-7
		c-1.3-3-2-5.9-1.8-8.9c0.3-3,1.3-5.8,3.2-8.4c1.9-2.6,4.5-4.6,7.7-6.2C182,142.3,185.1,141.6,188.1,141.8z M189.8,161.5
		c0.3-0.9,0.1-2-0.4-3.2c-0.5-1.2-1.3-2-2.3-2.4c-0.9-0.4-1.9-0.3-2.8,0.1c-0.9,0.4-1.6,1.2-1.9,2.2c-0.3,0.9-0.1,2,0.4,3.2
		c0.5,1.2,1.4,2,2.3,2.4c0.9,0.4,1.9,0.4,2.8-0.1C188.9,163.1,189.6,162.4,189.8,161.5z"/>
	<path class="st39" d="M495.6,148.9l-1.8,5.7l5,0.9l-0.9,5.1l-5.7-1.1l-1.9,5.8l-5.4-0.9l1.9-5.8l-4.9-0.9l-1.9,5.8l-5.4-0.9
		l1.9-5.8l-5-0.9l0.9-5.1l5.7,1.1l1.8-5.7l-5-0.9l0.9-5.1l5.7,1.1l1.9-5.8l5.4,0.9l-1.9,5.8l4.9,0.9l1.9-5.8l5.4,0.9l-1.9,5.8l5,0.9
		l-0.9,5.1L495.6,148.9z M490.2,147.8l-4.9-0.9l-1.8,5.7l4.9,0.9L490.2,147.8z"/>
	<path class="st39" d="M477.6,54.2c-0.4-0.1-0.8-0.3-1.3-0.4c-0.1-0.4-0.3-0.8-0.4-1.2c-0.7-1.8-1.6-3.4-3.4-5.1
		c-1.8,1.8-2.7,3.4-3.4,5.1c-0.1,0.4-0.3,0.8-0.4,1.2c-0.4,0.1-0.8,0.3-1.2,0.4c-1.8,0.7-3.4,1.6-5.1,3.4c1.8,1.8,3.4,2.7,5.1,3.4
		c0.4,0.1,0.8,0.3,1.2,0.4c0.1,0.4,0.3,0.8,0.4,1.3c0.7,1.8,1.6,3.4,3.4,5.1c1.9-1.8,2.7-3.4,3.4-5.1c0.1-0.4,0.3-0.8,0.4-1.2
		c0.4-0.1,0.8-0.3,1.2-0.4c1.8-0.7,3.4-1.6,5.1-3.4C481,55.8,479.4,54.9,477.6,54.2z"/>
	<path class="st39" d="M18.5,339.7c-0.4-0.1-0.8-0.3-1.3-0.4c-0.1-0.4-0.3-0.8-0.4-1.2c-0.7-1.8-1.6-3.4-3.4-5.1
		c-1.8,1.8-2.7,3.4-3.4,5.1c-0.1,0.4-0.3,0.8-0.4,1.2c-0.4,0.1-0.8,0.3-1.2,0.4c-1.8,0.7-3.4,1.6-5.1,3.4c1.8,1.8,3.4,2.7,5.1,3.4
		c0.4,0.1,0.8,0.3,1.2,0.4c0.1,0.4,0.3,0.8,0.4,1.3c0.7,1.8,1.6,3.4,3.4,5.1c1.9-1.8,2.7-3.4,3.4-5.1c0.1-0.4,0.3-0.8,0.4-1.2
		c0.4-0.1,0.8-0.3,1.2-0.4c1.8-0.7,3.4-1.6,5.1-3.4C21.8,341.3,20.1,340.4,18.5,339.7z"/>
	<path class="st39" d="M512.8,257c-0.4-0.1-0.8-0.3-1.3-0.4c-0.1-0.4-0.3-0.8-0.4-1.2c-0.7-1.8-1.6-3.4-3.4-5.1
		c-1.8,1.8-2.7,3.4-3.4,5.1c-0.1,0.4-0.3,0.8-0.4,1.2c-0.4,0.1-0.8,0.3-1.2,0.4c-1.8,0.7-3.4,1.6-5.1,3.4c1.8,1.8,3.4,2.7,5.1,3.4
		c0.4,0.1,0.8,0.3,1.2,0.4c0.1,0.4,0.3,0.8,0.4,1.3c0.7,1.8,1.6,3.4,3.4,5.1c1.9-1.8,2.7-3.4,3.4-5.1c0.1-0.4,0.3-0.8,0.4-1.2
		c0.4-0.1,0.8-0.3,1.2-0.4c1.8-0.7,3.4-1.6,5.1-3.4C516.2,258.6,514.5,257.7,512.8,257z"/>
	<path class="st36" d="M690.4,80.6c-0.3-0.1-0.4-0.1-0.7-0.3c0-0.3-0.1-0.4-0.3-0.7c-0.4-0.8-0.8-1.8-1.8-2.6
		c-0.9,0.8-1.3,1.8-1.8,2.6c-0.1,0.3-0.1,0.4-0.3,0.7c-0.3,0-0.4,0.1-0.7,0.3c-0.8,0.4-1.8,0.8-2.6,1.8c0.8,0.9,1.8,1.3,2.6,1.8
		c0.3,0.1,0.4,0.1,0.7,0.3c0,0.3,0.1,0.4,0.3,0.7c0.4,0.8,0.8,1.8,1.8,2.6c0.9-0.8,1.3-1.8,1.8-2.6c0.1-0.3,0.1-0.4,0.3-0.7
		c0.3,0,0.4-0.1,0.7-0.3c0.8-0.4,1.8-0.8,2.6-1.8C692.1,81.4,691.2,80.9,690.4,80.6z"/>
	<path class="st36" d="M743,232.6c-0.3-0.1-0.4-0.1-0.7-0.3c0-0.3-0.1-0.4-0.3-0.7c-0.4-0.8-0.8-1.8-1.8-2.6
		c-0.9,0.8-1.3,1.8-1.8,2.6c-0.1,0.3-0.1,0.4-0.3,0.7c-0.3,0-0.4,0.1-0.7,0.3c-0.8,0.4-1.8,0.8-2.6,1.8c0.8,0.9,1.8,1.3,2.6,1.8
		c0.3,0.1,0.4,0.1,0.7,0.3c0,0.3,0.1,0.4,0.3,0.7c0.4,0.8,0.8,1.8,1.8,2.6c0.9-0.8,1.3-1.8,1.8-2.6c0.1-0.3,0.1-0.4,0.3-0.7
		c0.3,0,0.4-0.1,0.7-0.3c0.8-0.4,1.8-0.8,2.6-1.8C744.6,233.2,743.8,232.8,743,232.6z"/>
	<path class="st36" d="M741,228.9c-0.3-0.1-0.4-0.1-0.7-0.3c0-0.3-0.1-0.4-0.3-0.7c-0.4-0.8-0.8-1.8-1.8-2.6
		c-0.9,0.8-1.3,1.8-1.8,2.6c-0.1,0.3-0.1,0.4-0.3,0.7c-0.3,0-0.4,0.1-0.7,0.3c-0.8,0.4-1.8,0.8-2.6,1.8c0.8,0.9,1.8,1.3,2.6,1.8
		c0.3,0.1,0.4,0.1,0.7,0.3c0,0.3,0.1,0.4,0.3,0.7c0.4,0.8,0.8,1.8,1.8,2.6c0.9-0.8,1.4-1.8,1.8-2.6c0.1-0.3,0.1-0.4,0.3-0.7
		c0.3,0,0.4-0.1,0.7-0.3c0.8-0.4,1.8-0.8,2.6-1.8C742.6,229.7,741.8,229.3,741,228.9z"/>
	<path class="st39" d="M124.8,275.3c-0.3-0.1-0.4-0.1-0.7-0.3c0-0.3-0.1-0.4-0.3-0.7c-0.4-0.8-0.8-1.8-1.8-2.6
		c-0.9,0.8-1.3,1.8-1.8,2.6c-0.1,0.3-0.1,0.4-0.3,0.7c-0.3,0-0.4,0.1-0.7,0.3c-0.8,0.4-1.8,0.8-2.6,1.8c0.8,0.9,1.8,1.3,2.6,1.8
		c0.3,0.1,0.4,0.1,0.7,0.3c0,0.3,0.1,0.4,0.3,0.7c0.4,0.8,0.8,1.8,1.8,2.6c0.9-0.8,1.3-1.8,1.8-2.6c0.1-0.3,0.1-0.4,0.3-0.7
		c0.3,0,0.4-0.1,0.7-0.3c0.8-0.4,1.8-0.8,2.6-1.8C126.5,276.1,125.7,275.7,124.8,275.3z"/>
	<path class="st39" d="M31,545c-0.3-0.1-0.4-0.1-0.7-0.3c0-0.3-0.1-0.4-0.3-0.7c-0.4-0.8-0.8-1.8-1.8-2.6c-0.9,0.8-1.3,1.8-1.8,2.6
		c-0.1,0.3-0.1,0.4-0.3,0.7c-0.3,0-0.4,0.1-0.7,0.3c-0.8,0.4-1.8,0.8-2.6,1.8c0.8,0.9,1.8,1.3,2.6,1.8c0.3,0.1,0.4,0.1,0.7,0.3
		c0,0.3,0.1,0.4,0.3,0.7c0.4,0.8,0.8,1.8,1.8,2.6c0.9-0.8,1.3-1.8,1.8-2.6c0.1-0.3,0.1-0.4,0.3-0.7c0.3,0,0.4-0.1,0.7-0.3
		c0.8-0.4,1.8-0.8,2.6-1.8C32.8,545.9,31.8,545.5,31,545z"/>
	<path class="st39" d="M394.1,140c-0.3-0.1-0.4-0.1-0.7-0.3c0-0.3-0.1-0.4-0.3-0.7c-0.4-0.8-0.8-1.8-1.8-2.6
		c-0.9,0.8-1.3,1.8-1.8,2.6c-0.1,0.3-0.1,0.4-0.3,0.7c-0.3,0-0.4,0.1-0.7,0.3c-0.8,0.4-1.8,0.8-2.6,1.8c0.8,0.9,1.8,1.3,2.6,1.8
		c0.3,0.1,0.4,0.1,0.7,0.3c0,0.3,0.1,0.4,0.3,0.7c0.4,0.8,0.8,1.8,1.8,2.6c0.9-0.8,1.3-1.8,1.8-2.6c0.1-0.3,0.1-0.4,0.3-0.7
		c0.3,0,0.4-0.1,0.7-0.3c0.8-0.4,1.8-0.8,2.6-1.8C395.7,140.8,394.9,140.3,394.1,140z"/>
	<path class="st39" d="M146.3,53.1c-0.3-0.1-0.4-0.1-0.7-0.3c0-0.3-0.1-0.4-0.3-0.7c-0.4-0.8-0.8-1.8-1.8-2.6
		c-0.9,0.8-1.3,1.8-1.8,2.6c-0.1,0.3-0.1,0.4-0.3,0.7c-0.3,0-0.4,0.1-0.7,0.3c-0.8,0.4-1.8,0.8-2.6,1.8c0.8,0.9,1.8,1.3,2.6,1.8
		c0.3,0.1,0.4,0.1,0.7,0.3c0,0.3,0.1,0.4,0.3,0.7c0.4,0.8,0.8,1.8,1.8,2.6c0.9-0.8,1.3-1.8,1.8-2.6c0.1-0.3,0.1-0.4,0.3-0.7
		c0.3,0,0.4-0.1,0.7-0.3c0.8-0.4,1.8-0.8,2.6-1.8C148,53.9,147.2,53.5,146.3,53.1z"/>
	<path class="st39" d="M675.8,283.2c-0.3-0.1-0.4-0.1-0.7-0.3c0-0.3-0.1-0.4-0.3-0.7c-0.4-0.8-0.8-1.8-1.8-2.6
		c-0.9,0.8-1.3,1.8-1.8,2.6c-0.1,0.3-0.1,0.4-0.3,0.7c-0.3,0-0.4,0.1-0.7,0.3c-0.8,0.4-1.8,0.8-2.6,1.8c0.8,0.9,1.8,1.3,2.6,1.8
		c0.3,0.1,0.4,0.1,0.7,0.3c0,0.3,0.1,0.4,0.3,0.7c0.4,0.8,0.8,1.8,1.8,2.6c0.9-0.8,1.4-1.8,1.8-2.6c0.1-0.3,0.1-0.4,0.3-0.7
		c0.3,0,0.4-0.1,0.7-0.3c0.8-0.4,1.8-0.8,2.6-1.8C677.4,284,676.6,283.6,675.8,283.2z"/>
	<path class="st39" d="M326.1,92.5c-0.4-0.1-0.8-0.3-1.1-0.4c-0.1-0.4-0.3-0.8-0.4-1.1c-0.5-1.5-1.4-3-3-4.5c-1.6,1.5-2.4,3-3,4.5
		c-0.1,0.4-0.3,0.8-0.4,1.1c-0.4,0.1-0.8,0.3-1.1,0.4c-1.5,0.5-3,1.3-4.5,3c1.5,1.6,3,2.4,4.5,3c0.4,0.1,0.8,0.3,1.1,0.4
		c0.1,0.4,0.3,0.8,0.4,1.1c0.5,1.5,1.3,3,3,4.5c1.6-1.5,2.4-3,3-4.5c0.1-0.4,0.3-0.8,0.4-1.1c0.4-0.1,0.8-0.3,1.1-0.4
		c1.5-0.5,3-1.3,4.5-3C329.1,94,327.6,93.2,326.1,92.5z"/>
	<path class="st39" d="M97.1,201.5c-0.4-0.1-0.8-0.3-1.1-0.4c-0.1-0.4-0.3-0.8-0.4-1.1c-0.5-1.5-1.3-3-3-4.5c-1.6,1.5-2.4,3-3,4.5
		c-0.1,0.4-0.3,0.8-0.4,1.1c-0.4,0.1-0.8,0.3-1.1,0.4c-1.5,0.5-3,1.4-4.5,3c1.5,1.6,3,2.4,4.5,3c0.4,0.1,0.8,0.3,1.1,0.4
		c0.1,0.4,0.3,0.8,0.4,1.1c0.5,1.5,1.3,3,3,4.5c1.6-1.5,2.4-3,3-4.5c0.1-0.4,0.3-0.8,0.4-1.1c0.4-0.1,0.8-0.3,1.1-0.4
		c1.5-0.5,3-1.3,4.5-3C100.1,202.9,98.6,202.1,97.1,201.5z"/>
	<path class="st36" d="M581.2,165.2c-0.4-0.1-0.8-0.3-1.1-0.4c-0.1-0.4-0.3-0.8-0.4-1.1c-0.5-1.5-1.3-3-3-4.5c-1.6,1.5-2.4,3-3,4.5
		c-0.1,0.4-0.3,0.8-0.4,1.1c-0.4,0.1-0.8,0.3-1.1,0.4c-1.5,0.5-3,1.3-4.5,3c1.5,1.6,3,2.4,4.5,3c0.4,0.1,0.8,0.3,1.1,0.4
		c0.1,0.4,0.3,0.8,0.4,1.1c0.5,1.5,1.3,3,3,4.5c1.6-1.5,2.4-3,3-4.5c0.1-0.4,0.3-0.8,0.4-1.1c0.4-0.1,0.8-0.3,1.1-0.4
		c1.5-0.5,3-1.3,4.5-3C584.2,166.7,582.7,165.9,581.2,165.2z"/>
	<path class="st36" d="M570.2,45.6c-0.4-0.1-0.8-0.3-1.1-0.4c-0.1-0.4-0.3-0.8-0.4-1.1c-0.5-1.5-1.3-3-3-4.5c-1.6,1.5-2.4,3-3,4.5
		c-0.1,0.4-0.3,0.8-0.4,1.1c-0.4,0.1-0.8,0.3-1.1,0.4c-1.5,0.5-3,1.3-4.5,3c1.5,1.6,3,2.4,4.5,3c0.4,0.1,0.8,0.3,1.1,0.4
		c0.1,0.4,0.3,0.8,0.4,1.1c0.5,1.5,1.3,3,3,4.5c1.6-1.5,2.4-3,3-4.5c0.1-0.4,0.3-0.8,0.4-1.1c0.4-0.1,0.8-0.3,1.1-0.4
		c1.5-0.5,3-1.3,4.5-3C573.2,47,571.7,46.2,570.2,45.6z"/>
</g>
</svg>
