<?xml version="1.0" encoding="utf-8"?>
<!-- Generator: Adobe Illustrator 24.0.0, SVG Export Plug-In . SVG Version: 6.00 Build 0)  -->
<svg version="1.1" id="Layer_1" xmlns="http://www.w3.org/2000/svg" xmlns:xlink="http://www.w3.org/1999/xlink" x="0px" y="0px"
	 viewBox="0 0 810 570" style="enable-background:new 0 0 810 570;" xml:space="preserve">
<style type="text/css">
	.st0{fill:#D2D2D2;}
	.st1{fill:#FFFFFF;}
</style>
<g>
	<path class="st0" d="M188.1,141.8c3.1,0.1,5.8,0.9,8.2,2.6c2.4,1.6,4.3,3.8,5.5,6.5c0.9,2,1.5,3.9,1.5,5.7s-0.3,3.2-1.1,4.6
		c-0.8,1.2-1.9,2.3-3.2,3c-1.2,0.5-2.3,0.8-3.4,0.7c-1.1-0.1-2-0.5-3-1.4c-0.1,2.4-1.5,4.3-4,5.5c-1.3,0.7-2.7,0.8-4.2,0.7
		s-2.8-0.7-4.2-1.6c-1.3-0.9-2.3-2.3-3.1-3.9c-0.8-1.6-1.2-3.2-1.1-4.9c0-1.6,0.5-3,1.3-4.3c0.8-1.2,1.9-2.2,3.2-2.8
		c2-0.9,3.8-1.1,5.5-0.3l-0.8-1.6l5.5-2.6l4.9,10.3c0.4,0.7,0.7,1.2,1.1,1.3c0.4,0.1,0.8,0.1,1.3,0c1.3-0.7,1.3-2.7-0.4-6.2
		c-1.1-2.2-2.4-3.8-4.2-5s-3.8-1.8-6.1-1.9c-2.3,0-4.6,0.4-7,1.6c-2.3,1.1-4.2,2.6-5.5,4.5s-2.2,3.9-2.3,6.2s0.3,4.5,1.3,6.7
		c1.1,2.3,2.6,4,4.3,5.4c1.9,1.4,3.9,2,6.2,2.2c2.3,0.1,4.6-0.4,7-1.5s4.5-2.7,5.9-4.7l3,3c-0.8,0.9-1.8,1.9-3.1,3
		c-1.3,0.9-2.7,1.8-4,2.4c-3.2,1.5-6.5,2.3-9.6,2c-3.1-0.1-5.9-1.1-8.4-2.8c-2.4-1.8-4.5-4-5.8-7s-2-5.9-1.8-8.9
		c0.3-3,1.3-5.8,3.2-8.4c1.9-2.6,4.5-4.6,7.7-6.2C182,142.3,185.1,141.6,188.1,141.8z M189.8,161.5c0.3-0.9,0.1-2-0.4-3.2
		s-1.3-2-2.3-2.4c-0.9-0.4-1.9-0.3-2.8,0.1c-0.9,0.4-1.6,1.2-1.9,2.2c-0.3,0.9-0.1,2,0.4,3.2s1.4,2,2.3,2.4c0.9,0.4,1.9,0.4,2.8-0.1
		C188.9,163.1,189.6,162.4,189.8,161.5z"/>
	<path class="st0" d="M495.6,148.9l-1.8,5.7l5,0.9l-0.9,5.1l-5.7-1.1l-1.9,5.8l-5.4-0.9l1.9-5.8l-4.9-0.9l-1.9,5.8l-5.4-0.9l1.9-5.8
		l-5-0.9l0.9-5.1l5.7,1.1l1.8-5.7l-5-0.9l0.9-5.1l5.7,1.1l1.9-5.8l5.4,0.9l-1.9,5.8l4.9,0.9l1.9-5.8l5.4,0.9l-1.9,5.8l5,0.9
		l-0.9,5.1L495.6,148.9z M490.2,147.8l-4.9-0.9l-1.8,5.7l4.9,0.9L490.2,147.8z"/>
	<path class="st0" d="M477.6,54.2c-0.4-0.1-0.8-0.3-1.3-0.4c-0.1-0.4-0.3-0.8-0.4-1.2c-0.7-1.8-1.6-3.4-3.4-5.1
		c-1.8,1.8-2.7,3.4-3.4,5.1c-0.1,0.4-0.3,0.8-0.4,1.2c-0.4,0.1-0.8,0.3-1.2,0.4c-1.8,0.7-3.4,1.6-5.1,3.4c1.8,1.8,3.4,2.7,5.1,3.4
		c0.4,0.1,0.8,0.3,1.2,0.4c0.1,0.4,0.3,0.8,0.4,1.3c0.7,1.8,1.6,3.4,3.4,5.1c1.9-1.8,2.7-3.4,3.4-5.1c0.1-0.4,0.3-0.8,0.4-1.2
		c0.4-0.1,0.8-0.3,1.2-0.4c1.8-0.7,3.4-1.6,5.1-3.4C481,55.8,479.4,54.9,477.6,54.2z"/>
	<path class="st0" d="M18.5,339.7c-0.4-0.1-0.8-0.3-1.3-0.4c-0.1-0.4-0.3-0.8-0.4-1.2c-0.7-1.8-1.6-3.4-3.4-5.1
		c-1.8,1.8-2.7,3.4-3.4,5.1c-0.1,0.4-0.3,0.8-0.4,1.2c-0.4,0.1-0.8,0.3-1.2,0.4c-1.8,0.7-3.4,1.6-5.1,3.4c1.8,1.8,3.4,2.7,5.1,3.4
		c0.4,0.1,0.8,0.3,1.2,0.4c0.1,0.4,0.3,0.8,0.4,1.3c0.7,1.8,1.6,3.4,3.4,5.1c1.9-1.8,2.7-3.4,3.4-5.1c0.1-0.4,0.3-0.8,0.4-1.2
		c0.4-0.1,0.8-0.3,1.2-0.4c1.8-0.7,3.4-1.6,5.1-3.4C21.8,341.3,20.1,340.4,18.5,339.7z"/>
	<path class="st0" d="M512.8,257c-0.4-0.1-0.8-0.3-1.3-0.4c-0.1-0.4-0.3-0.8-0.4-1.2c-0.7-1.8-1.6-3.4-3.4-5.1
		c-1.8,1.8-2.7,3.4-3.4,5.1c-0.1,0.4-0.3,0.8-0.4,1.2c-0.4,0.1-0.8,0.3-1.2,0.4c-1.8,0.7-3.4,1.6-5.1,3.4c1.8,1.8,3.4,2.7,5.1,3.4
		c0.4,0.1,0.8,0.3,1.2,0.4c0.1,0.4,0.3,0.8,0.4,1.3c0.7,1.8,1.6,3.4,3.4,5.1c1.9-1.8,2.7-3.4,3.4-5.1c0.1-0.4,0.3-0.8,0.4-1.2
		c0.4-0.1,0.8-0.3,1.2-0.4c1.8-0.7,3.4-1.6,5.1-3.4C516.2,258.6,514.5,257.7,512.8,257z"/>
	<path class="st1" d="M690.4,80.6c-0.3-0.1-0.4-0.1-0.7-0.3c0-0.3-0.1-0.4-0.3-0.7c-0.4-0.8-0.8-1.8-1.8-2.6
		c-0.9,0.8-1.3,1.8-1.8,2.6c-0.1,0.3-0.1,0.4-0.3,0.7c-0.3,0-0.4,0.1-0.7,0.3c-0.8,0.4-1.8,0.8-2.6,1.8c0.8,0.9,1.8,1.3,2.6,1.8
		c0.3,0.1,0.4,0.1,0.7,0.3c0,0.3,0.1,0.4,0.3,0.7c0.4,0.8,0.8,1.8,1.8,2.6c0.9-0.8,1.3-1.8,1.8-2.6c0.1-0.3,0.1-0.4,0.3-0.7
		c0.3,0,0.4-0.1,0.7-0.3c0.8-0.4,1.8-0.8,2.6-1.8C692.1,81.4,691.2,80.9,690.4,80.6z"/>
	<path class="st1" d="M743,232.6c-0.3-0.1-0.4-0.1-0.7-0.3c0-0.3-0.1-0.4-0.3-0.7c-0.4-0.8-0.8-1.8-1.8-2.6
		c-0.9,0.8-1.3,1.8-1.8,2.6c-0.1,0.3-0.1,0.4-0.3,0.7c-0.3,0-0.4,0.1-0.7,0.3c-0.8,0.4-1.8,0.8-2.6,1.8c0.8,0.9,1.8,1.3,2.6,1.8
		c0.3,0.1,0.4,0.1,0.7,0.3c0,0.3,0.1,0.4,0.3,0.7c0.4,0.8,0.8,1.8,1.8,2.6c0.9-0.8,1.3-1.8,1.8-2.6c0.1-0.3,0.1-0.4,0.3-0.7
		c0.3,0,0.4-0.1,0.7-0.3c0.8-0.4,1.8-0.8,2.6-1.8C744.6,233.2,743.8,232.8,743,232.6z"/>
	<path class="st1" d="M741,228.9c-0.3-0.1-0.4-0.1-0.7-0.3c0-0.3-0.1-0.4-0.3-0.7c-0.4-0.8-0.8-1.8-1.8-2.6
		c-0.9,0.8-1.3,1.8-1.8,2.6c-0.1,0.3-0.1,0.4-0.3,0.7c-0.3,0-0.4,0.1-0.7,0.3c-0.8,0.4-1.8,0.8-2.6,1.8c0.8,0.9,1.8,1.3,2.6,1.8
		c0.3,0.1,0.4,0.1,0.7,0.3c0,0.3,0.1,0.4,0.3,0.7c0.4,0.8,0.8,1.8,1.8,2.6c0.9-0.8,1.4-1.8,1.8-2.6c0.1-0.3,0.1-0.4,0.3-0.7
		c0.3,0,0.4-0.1,0.7-0.3c0.8-0.4,1.8-0.8,2.6-1.8C742.6,229.7,741.8,229.3,741,228.9z"/>
	<path class="st0" d="M124.8,275.3c-0.3-0.1-0.4-0.1-0.7-0.3c0-0.3-0.1-0.4-0.3-0.7c-0.4-0.8-0.8-1.8-1.8-2.6
		c-0.9,0.8-1.3,1.8-1.8,2.6c-0.1,0.3-0.1,0.4-0.3,0.7c-0.3,0-0.4,0.1-0.7,0.3c-0.8,0.4-1.8,0.8-2.6,1.8c0.8,0.9,1.8,1.3,2.6,1.8
		c0.3,0.1,0.4,0.1,0.7,0.3c0,0.3,0.1,0.4,0.3,0.7c0.4,0.8,0.8,1.8,1.8,2.6c0.9-0.8,1.3-1.8,1.8-2.6c0.1-0.3,0.1-0.4,0.3-0.7
		c0.3,0,0.4-0.1,0.7-0.3c0.8-0.4,1.8-0.8,2.6-1.8C126.5,276.1,125.7,275.7,124.8,275.3z"/>
	<path class="st0" d="M394.1,140c-0.3-0.1-0.4-0.1-0.7-0.3c0-0.3-0.1-0.4-0.3-0.7c-0.4-0.8-0.8-1.8-1.8-2.6
		c-0.9,0.8-1.3,1.8-1.8,2.6c-0.1,0.3-0.1,0.4-0.3,0.7c-0.3,0-0.4,0.1-0.7,0.3c-0.8,0.4-1.8,0.8-2.6,1.8c0.8,0.9,1.8,1.3,2.6,1.8
		c0.3,0.1,0.4,0.1,0.7,0.3c0,0.3,0.1,0.4,0.3,0.7c0.4,0.8,0.8,1.8,1.8,2.6c0.9-0.8,1.3-1.8,1.8-2.6c0.1-0.3,0.1-0.4,0.3-0.7
		c0.3,0,0.4-0.1,0.7-0.3c0.8-0.4,1.8-0.8,2.6-1.8C395.7,140.8,394.9,140.3,394.1,140z"/>
	<path class="st0" d="M146.3,53.1c-0.3-0.1-0.4-0.1-0.7-0.3c0-0.3-0.1-0.4-0.3-0.7c-0.4-0.8-0.8-1.8-1.8-2.6
		c-0.9,0.8-1.3,1.8-1.8,2.6c-0.1,0.3-0.1,0.4-0.3,0.7c-0.3,0-0.4,0.1-0.7,0.3c-0.8,0.4-1.8,0.8-2.6,1.8c0.8,0.9,1.8,1.3,2.6,1.8
		c0.3,0.1,0.4,0.1,0.7,0.3c0,0.3,0.1,0.4,0.3,0.7c0.4,0.8,0.8,1.8,1.8,2.6c0.9-0.8,1.3-1.8,1.8-2.6c0.1-0.3,0.1-0.4,0.3-0.7
		c0.3,0,0.4-0.1,0.7-0.3c0.8-0.4,1.8-0.8,2.6-1.8C148,53.9,147.2,53.5,146.3,53.1z"/>
	<path class="st0" d="M675.8,283.2c-0.3-0.1-0.4-0.1-0.7-0.3c0-0.3-0.1-0.4-0.3-0.7c-0.4-0.8-0.8-1.8-1.8-2.6
		c-0.9,0.8-1.3,1.8-1.8,2.6c-0.1,0.3-0.1,0.4-0.3,0.7c-0.3,0-0.4,0.1-0.7,0.3c-0.8,0.4-1.8,0.8-2.6,1.8c0.8,0.9,1.8,1.3,2.6,1.8
		c0.3,0.1,0.4,0.1,0.7,0.3c0,0.3,0.1,0.4,0.3,0.7c0.4,0.8,0.8,1.8,1.8,2.6c0.9-0.8,1.4-1.8,1.8-2.6c0.1-0.3,0.1-0.4,0.3-0.7
		c0.3,0,0.4-0.1,0.7-0.3c0.8-0.4,1.8-0.8,2.6-1.8C677.4,284,676.6,283.6,675.8,283.2z"/>
	<path class="st0" d="M326.1,92.5c-0.4-0.1-0.8-0.3-1.1-0.4c-0.1-0.4-0.3-0.8-0.4-1.1c-0.5-1.5-1.4-3-3-4.5c-1.6,1.5-2.4,3-3,4.5
		c-0.1,0.4-0.3,0.8-0.4,1.1c-0.4,0.1-0.8,0.3-1.1,0.4c-1.5,0.5-3,1.3-4.5,3c1.5,1.6,3,2.4,4.5,3c0.4,0.1,0.8,0.3,1.1,0.4
		c0.1,0.4,0.3,0.8,0.4,1.1c0.5,1.5,1.3,3,3,4.5c1.6-1.5,2.4-3,3-4.5c0.1-0.4,0.3-0.8,0.4-1.1c0.4-0.1,0.8-0.3,1.1-0.4
		c1.5-0.5,3-1.3,4.5-3C329.1,94,327.6,93.2,326.1,92.5z"/>
	<path class="st0" d="M97.1,201.5c-0.4-0.1-0.8-0.3-1.1-0.4c-0.1-0.4-0.3-0.8-0.4-1.1c-0.5-1.5-1.3-3-3-4.5c-1.6,1.5-2.4,3-3,4.5
		c-0.1,0.4-0.3,0.8-0.4,1.1c-0.4,0.1-0.8,0.3-1.1,0.4c-1.5,0.5-3,1.4-4.5,3c1.5,1.6,3,2.4,4.5,3c0.4,0.1,0.8,0.3,1.1,0.4
		c0.1,0.4,0.3,0.8,0.4,1.1c0.5,1.5,1.3,3,3,4.5c1.6-1.5,2.4-3,3-4.5c0.1-0.4,0.3-0.8,0.4-1.1c0.4-0.1,0.8-0.3,1.1-0.4
		c1.5-0.5,3-1.3,4.5-3C100.1,202.9,98.6,202.1,97.1,201.5z"/>
	<path class="st1" d="M581.2,165.2c-0.4-0.1-0.8-0.3-1.1-0.4c-0.1-0.4-0.3-0.8-0.4-1.1c-0.5-1.5-1.3-3-3-4.5c-1.6,1.5-2.4,3-3,4.5
		c-0.1,0.4-0.3,0.8-0.4,1.1c-0.4,0.1-0.8,0.3-1.1,0.4c-1.5,0.5-3,1.3-4.5,3c1.5,1.6,3,2.4,4.5,3c0.4,0.1,0.8,0.3,1.1,0.4
		c0.1,0.4,0.3,0.8,0.4,1.1c0.5,1.5,1.3,3,3,4.5c1.6-1.5,2.4-3,3-4.5c0.1-0.4,0.3-0.8,0.4-1.1c0.4-0.1,0.8-0.3,1.1-0.4
		c1.5-0.5,3-1.3,4.5-3C584.2,166.7,582.7,165.9,581.2,165.2z"/>
	<path class="st0" d="M805.5,114.9c-0.4-0.1-0.8-0.3-1.1-0.4c-0.1-0.4-0.3-0.8-0.4-1.1c-0.5-1.5-1.3-3-3-4.5c-1.6,1.5-2.4,3-3,4.5
		c-0.1,0.4-0.3,0.8-0.4,1.1c-0.4,0.1-0.8,0.3-1.1,0.4c-1.5,0.5-3,1.3-4.5,3c1.5,1.6,3,2.4,4.5,3c0.4,0.1,0.8,0.3,1.1,0.4
		c0.1,0.4,0.3,0.8,0.4,1.1c0.5,1.5,1.3,3,3,4.5c1.6-1.5,2.4-3,3-4.5c0.1-0.4,0.3-0.8,0.4-1.1c0.4-0.1,0.8-0.3,1.1-0.4
		c1.5-0.5,3-1.3,4.5-3C808.4,116.3,807,115.4,805.5,114.9z"/>
	<path class="st1" d="M570.2,45.6c-0.4-0.1-0.8-0.3-1.1-0.4c-0.1-0.4-0.3-0.8-0.4-1.1c-0.5-1.5-1.3-3-3-4.5c-1.6,1.5-2.4,3-3,4.5
		c-0.1,0.4-0.3,0.8-0.4,1.1c-0.4,0.1-0.8,0.3-1.1,0.4c-1.5,0.5-3,1.3-4.5,3c1.5,1.6,3,2.4,4.5,3c0.4,0.1,0.8,0.3,1.1,0.4
		c0.1,0.4,0.3,0.8,0.4,1.1c0.5,1.5,1.3,3,3,4.5c1.6-1.5,2.4-3,3-4.5c0.1-0.4,0.3-0.8,0.4-1.1c0.4-0.1,0.8-0.3,1.1-0.4
		c1.5-0.5,3-1.3,4.5-3C573.2,47,571.7,46.2,570.2,45.6z"/>
</g>
</svg>
