<?xml version="1.0" encoding="utf-8"?>
<!-- Generator: Adobe Illustrator 24.0.0, SVG Export Plug-In . SVG Version: 6.00 Build 0)  -->
<svg version="1.1" id="Layer_1" xmlns="http://www.w3.org/2000/svg" xmlns:xlink="http://www.w3.org/1999/xlink" x="0px" y="0px"
	 viewBox="0 0 810 570" style="enable-background:new 0 0 810 570;" xml:space="preserve">
<style type="text/css">
	.st0{display:none;opacity:0.44;}
	.st1{display:inline;opacity:0.44;fill:#FFFFFF;enable-background:new    ;}
	.st2{fill:#8B0F00;}
	.st3{fill:#FAFAFA;}
	.st4{fill:#DCDCDC;}
	.st5{fill:#D02E1B;}
	.st6{fill:#F85441;}
	.st7{fill:#979797;}
	.st8{fill:#FFFFFF;}
	.st9{fill:#C9C9C9;}
	.st10{fill:none;stroke:#FAFAFA;stroke-width:3.8114;stroke-linejoin:round;stroke-miterlimit:10;}
	.st11{display:none;}
	.st12{display:inline;fill:#D2D2D2;}
	.st13{display:inline;fill:#FFFFFF;}
</style>
<g class="st0">
	<path class="st1" d="M548.5,336.7V447L435.5,559.9H325.3L548.5,336.7z"/>
	<path class="st1" d="M548.5,467.1v56.4L512,559.9h-56.4L548.5,467.1z"/>
</g>
<g>
	<path class="st2" d="M255.1,302.7l104.6-81.1c6.6-5.1,15.9-5.1,22.5,0l104.6,81.1v135.9H255.1V302.7z"/>
	<path class="st3" d="M459.9,230.7H281.8v195.9h178.1V230.7z"/>
	<path class="st4" d="M449.3,242.4H292.6v5.9h156.6V242.4z"/>
	<path class="st4" d="M425.8,254.4H292.6v5.9h133.2V254.4z"/>
	<path class="st4" d="M404.2,266.4H292.6v5.9h111.6V266.4z"/>
	<path class="st4" d="M404.2,289.5H292.6v5.9h111.6V289.5z"/>
	<path class="st4" d="M375.3,301h-82.7v5.9h82.7V301z"/>
	<path class="st4" d="M453.6,325.1h-82.7v5.9h82.7V325.1z"/>
	<path class="st4" d="M453.7,336.9h-67.3v5.9h67.3V336.9z"/>
	<path class="st5" d="M370.9,370.6l-115.8-67.9v135.9L370.9,370.6z"/>
	<path class="st5" d="M370.9,370.6l115.9-67.9v135.9L370.9,370.6z"/>
	<path class="st6" d="M359.7,357.5l-104.6,81.1h231.7l-104.6-81.1C375.6,352.4,366.3,352.4,359.7,357.5z"/>
	<path class="st7" d="M504.2,307.6c2.7-9.6-3-19.6-12.6-22.3c-9.6-2.7-19.6,3-22.3,12.6s3,19.6,12.6,22.3S501.5,317.2,504.2,307.6z"
		/>
	<path class="st8" d="M482.7,293.5v17.5h-5v-13.6h-3.2v-3.8h8.2V293.5z"/>
	<path class="st8" d="M497.3,301.4c1.2,0.9,1.8,2.3,1.8,4c0,1.1-0.3,2-0.8,3c-0.5,0.9-1.3,1.6-2.6,2.2c-1.1,0.5-2.6,0.8-4.2,0.8
		c-1.2,0-2.4-0.1-3.6-0.4c-1.2-0.3-2.3-0.7-3.1-1.2l1.8-3.8c0.7,0.4,1.5,0.8,2.3,1.1c0.8,0.3,1.6,0.4,2.6,0.4c0.8,0,1.5-0.1,2-0.5
		c0.5-0.3,0.8-0.8,0.8-1.3c0-0.5-0.3-1.1-0.8-1.3c-0.5-0.3-1.4-0.4-2.7-0.4H486l0.8-10.3H498v3.8h-7l-0.3,2.6h1.2
		C494.4,299.9,496.1,300.4,497.3,301.4z"/>
	<path class="st9" d="M235.4,496.1h-67.2c-20.4,0-37-16.5-37-37c0-20.4,16.5-37,37-37h30.2c20.4,0,37,16.5,37,37V496.1z"/>
	<path class="st3" d="M183.3,431.3c-15.4,0-27.9,12.5-27.9,27.9c0,15.4,12.5,27.9,27.9,27.9c15.4,0,27.9-12.5,27.9-27.9
		C211.3,443.7,198.7,431.3,183.3,431.3z M159,459.1c0-1.9,0.3-3.6,0.7-5.4c1.2-0.5,3.6-1.5,6.9-2.4c-0.8,4.2-1.1,8.9-0.4,13.9
		c-2.2-0.5-4.5-1.2-6.9-2.2C159.2,461.8,159,460.5,159,459.1z M170.2,450.5c6.2-1.2,14.6-1.8,24.7,0.1c0.9,4.9,1.5,10.4,0.5,16.1
		c-6.5,1.1-15.1,1.5-25.6-0.7C168.9,460.5,169.3,455.1,170.2,450.5z M198.7,451.5c2.7,0.7,5.5,1.5,8.4,2.4c0.4,1.6,0.5,3.4,0.5,5.3
		c0,1.4-0.1,2.7-0.4,4c-1.3,0.7-4,1.8-8.1,2.7C199.8,460.9,199.5,455.9,198.7,451.5z M205.7,449.7c-2.7-0.8-5.3-1.6-7.8-2.2
		c-0.9-4-2.3-7.6-3.2-10C199.7,440.2,203.6,444.5,205.7,449.7z M189.8,435.8c0.7,1.2,2.7,5.4,4.2,11.1c-9-1.5-16.7-1.2-22.8-0.3
		c1.6-5.4,3.8-9.2,4.6-10.5c2.4-0.8,4.9-1.2,7.6-1.2C185.6,434.8,187.8,435.2,189.8,435.8z M170.5,438.6c-1.1,2.3-2.2,5.3-3.1,8.8
		c-2.6,0.5-4.6,1.2-6.2,1.9C163.2,444.8,166.5,441,170.5,438.6z M160.4,467.2c2.3,0.7,4.5,1.3,6.5,1.9c0.8,3.6,2.3,7.4,4.6,11.3
		C166.3,477.5,162.4,472.9,160.4,467.2z M177.4,482.7c-3.2-4.3-5.3-8.6-6.5-12.8c5.1,0.9,9.9,1.3,14.2,1.3c3.6,0,6.9-0.3,9.7-0.7
		c-1.1,4.2-3,8.2-5.8,12.1c-1.8,0.4-3.6,0.7-5.5,0.7C181.3,483.5,179.3,483.1,177.4,482.7z M194.5,480.7c2-3.5,3.2-7.2,4-10.8
		c3.1-0.7,5.7-1.5,7.4-2.2C204,473.3,199.8,478,194.5,480.7z"/>
	<path class="st9" d="M499.6,541.7h67.2c20.4,0,37-16.5,37-37c0-20.4-16.5-37-37-37h-30.2c-20.4,0-37,16.5-37,37V541.7z"/>
	<path class="st10" d="M579.3,494.2c0-10.4-16.6-19.4-27.7-10.4c-11.1-9-27.7,0-27.7,10.4c0,0-3.5,20.5,27.7,35.4
		C583,514.6,579.3,494.2,579.3,494.2z"/>
</g>
<g class="st11">
	<path class="st12" d="M188.1,141.8c3.1,0.1,5.8,0.9,8.2,2.6c2.4,1.6,4.3,3.8,5.5,6.5c0.9,2,1.5,3.9,1.5,5.7s-0.3,3.2-1.1,4.6
		c-0.8,1.2-1.9,2.3-3.2,3c-1.2,0.5-2.3,0.8-3.4,0.7c-1.1-0.1-2-0.5-3-1.4c-0.1,2.4-1.5,4.3-4,5.5c-1.3,0.7-2.7,0.8-4.2,0.7
		c-1.5-0.1-2.8-0.7-4.2-1.6c-1.3-0.9-2.3-2.3-3.1-3.9c-0.8-1.6-1.2-3.2-1.1-4.9c0-1.6,0.5-3,1.3-4.3c0.8-1.2,1.9-2.2,3.2-2.8
		c2-0.9,3.8-1.1,5.5-0.3l-0.8-1.6l5.5-2.6l4.9,10.3c0.4,0.7,0.7,1.2,1.1,1.3c0.4,0.1,0.8,0.1,1.3,0c1.3-0.7,1.3-2.7-0.4-6.2
		c-1.1-2.2-2.4-3.8-4.2-5c-1.8-1.2-3.8-1.8-6.1-1.9c-2.3,0-4.6,0.4-7,1.6c-2.3,1.1-4.2,2.6-5.5,4.5c-1.3,1.9-2.2,3.9-2.3,6.2
		c-0.1,2.3,0.3,4.5,1.3,6.7c1.1,2.3,2.6,4,4.3,5.4c1.9,1.4,3.9,2,6.2,2.2c2.3,0.1,4.6-0.4,7-1.5c2.4-1.1,4.5-2.7,5.9-4.7l3,3
		c-0.8,0.9-1.8,1.9-3.1,3c-1.3,0.9-2.7,1.8-4,2.4c-3.2,1.5-6.5,2.3-9.6,2c-3.1-0.1-5.9-1.1-8.4-2.8c-2.4-1.8-4.5-4-5.8-7
		c-1.3-3-2-5.9-1.8-8.9c0.3-3,1.3-5.8,3.2-8.4c1.9-2.6,4.5-4.6,7.7-6.2C182,142.3,185.1,141.6,188.1,141.8z M189.8,161.5
		c0.3-0.9,0.1-2-0.4-3.2c-0.5-1.2-1.3-2-2.3-2.4c-0.9-0.4-1.9-0.3-2.8,0.1c-0.9,0.4-1.6,1.2-1.9,2.2c-0.3,0.9-0.1,2,0.4,3.2
		c0.5,1.2,1.4,2,2.3,2.4c0.9,0.4,1.9,0.4,2.8-0.1C188.9,163.1,189.6,162.4,189.8,161.5z"/>
	<path class="st12" d="M495.6,148.9l-1.8,5.7l5,0.9l-0.9,5.1l-5.7-1.1l-1.9,5.8l-5.4-0.9l1.9-5.8l-4.9-0.9l-1.9,5.8l-5.4-0.9
		l1.9-5.8l-5-0.9l0.9-5.1l5.7,1.1l1.8-5.7l-5-0.9l0.9-5.1l5.7,1.1l1.9-5.8l5.4,0.9l-1.9,5.8l4.9,0.9l1.9-5.8l5.4,0.9l-1.9,5.8l5,0.9
		l-0.9,5.1L495.6,148.9z M490.2,147.8l-4.9-0.9l-1.8,5.7l4.9,0.9L490.2,147.8z"/>
	<path class="st12" d="M477.6,54.2c-0.4-0.1-0.8-0.3-1.3-0.4c-0.1-0.4-0.3-0.8-0.4-1.2c-0.7-1.8-1.6-3.4-3.4-5.1
		c-1.8,1.8-2.7,3.4-3.4,5.1c-0.1,0.4-0.3,0.8-0.4,1.2c-0.4,0.1-0.8,0.3-1.2,0.4c-1.8,0.7-3.4,1.6-5.1,3.4c1.8,1.8,3.4,2.7,5.1,3.4
		c0.4,0.1,0.8,0.3,1.2,0.4c0.1,0.4,0.3,0.8,0.4,1.3c0.7,1.8,1.6,3.4,3.4,5.1c1.9-1.8,2.7-3.4,3.4-5.1c0.1-0.4,0.3-0.8,0.4-1.2
		c0.4-0.1,0.8-0.3,1.2-0.4c1.8-0.7,3.4-1.6,5.1-3.4C481,55.8,479.4,54.9,477.6,54.2z"/>
	<path class="st12" d="M18.5,339.7c-0.4-0.1-0.8-0.3-1.3-0.4c-0.1-0.4-0.3-0.8-0.4-1.2c-0.7-1.8-1.6-3.4-3.4-5.1
		c-1.8,1.8-2.7,3.4-3.4,5.1c-0.1,0.4-0.3,0.8-0.4,1.2c-0.4,0.1-0.8,0.3-1.2,0.4c-1.8,0.7-3.4,1.6-5.1,3.4c1.8,1.8,3.4,2.7,5.1,3.4
		c0.4,0.1,0.8,0.3,1.2,0.4c0.1,0.4,0.3,0.8,0.4,1.3c0.7,1.8,1.6,3.4,3.4,5.1c1.9-1.8,2.7-3.4,3.4-5.1c0.1-0.4,0.3-0.8,0.4-1.2
		c0.4-0.1,0.8-0.3,1.2-0.4c1.8-0.7,3.4-1.6,5.1-3.4C21.8,341.3,20.1,340.4,18.5,339.7z"/>
	<path class="st12" d="M512.8,257c-0.4-0.1-0.8-0.3-1.3-0.4c-0.1-0.4-0.3-0.8-0.4-1.2c-0.7-1.8-1.6-3.4-3.4-5.1
		c-1.8,1.8-2.7,3.4-3.4,5.1c-0.1,0.4-0.3,0.8-0.4,1.2c-0.4,0.1-0.8,0.3-1.2,0.4c-1.8,0.7-3.4,1.6-5.1,3.4c1.8,1.8,3.4,2.7,5.1,3.4
		c0.4,0.1,0.8,0.3,1.2,0.4c0.1,0.4,0.3,0.8,0.4,1.3c0.7,1.8,1.6,3.4,3.4,5.1c1.9-1.8,2.7-3.4,3.4-5.1c0.1-0.4,0.3-0.8,0.4-1.2
		c0.4-0.1,0.8-0.3,1.2-0.4c1.8-0.7,3.4-1.6,5.1-3.4C516.2,258.6,514.5,257.7,512.8,257z"/>
	<path class="st13" d="M690.4,80.6c-0.3-0.1-0.4-0.1-0.7-0.3c0-0.3-0.1-0.4-0.3-0.7c-0.4-0.8-0.8-1.8-1.8-2.6
		c-0.9,0.8-1.3,1.8-1.8,2.6c-0.1,0.3-0.1,0.4-0.3,0.7c-0.3,0-0.4,0.1-0.7,0.3c-0.8,0.4-1.8,0.8-2.6,1.8c0.8,0.9,1.8,1.3,2.6,1.8
		c0.3,0.1,0.4,0.1,0.7,0.3c0,0.3,0.1,0.4,0.3,0.7c0.4,0.8,0.8,1.8,1.8,2.6c0.9-0.8,1.3-1.8,1.8-2.6c0.1-0.3,0.1-0.4,0.3-0.7
		c0.3,0,0.4-0.1,0.7-0.3c0.8-0.4,1.8-0.8,2.6-1.8C692.1,81.4,691.2,80.9,690.4,80.6z"/>
	<path class="st13" d="M743,232.6c-0.3-0.1-0.4-0.1-0.7-0.3c0-0.3-0.1-0.4-0.3-0.7c-0.4-0.8-0.8-1.8-1.8-2.6
		c-0.9,0.8-1.3,1.8-1.8,2.6c-0.1,0.3-0.1,0.4-0.3,0.7c-0.3,0-0.4,0.1-0.7,0.3c-0.8,0.4-1.8,0.8-2.6,1.8c0.8,0.9,1.8,1.3,2.6,1.8
		c0.3,0.1,0.4,0.1,0.7,0.3c0,0.3,0.1,0.4,0.3,0.7c0.4,0.8,0.8,1.8,1.8,2.6c0.9-0.8,1.3-1.8,1.8-2.6c0.1-0.3,0.1-0.4,0.3-0.7
		c0.3,0,0.4-0.1,0.7-0.3c0.8-0.4,1.8-0.8,2.6-1.8C744.6,233.2,743.8,232.8,743,232.6z"/>
	<path class="st13" d="M741,228.9c-0.3-0.1-0.4-0.1-0.7-0.3c0-0.3-0.1-0.4-0.3-0.7c-0.4-0.8-0.8-1.8-1.8-2.6
		c-0.9,0.8-1.3,1.8-1.8,2.6c-0.1,0.3-0.1,0.4-0.3,0.7c-0.3,0-0.4,0.1-0.7,0.3c-0.8,0.4-1.8,0.8-2.6,1.8c0.8,0.9,1.8,1.3,2.6,1.8
		c0.3,0.1,0.4,0.1,0.7,0.3c0,0.3,0.1,0.4,0.3,0.7c0.4,0.8,0.8,1.8,1.8,2.6c0.9-0.8,1.4-1.8,1.8-2.6c0.1-0.3,0.1-0.4,0.3-0.7
		c0.3,0,0.4-0.1,0.7-0.3c0.8-0.4,1.8-0.8,2.6-1.8C742.6,229.7,741.8,229.3,741,228.9z"/>
	<path class="st12" d="M124.8,275.3c-0.3-0.1-0.4-0.1-0.7-0.3c0-0.3-0.1-0.4-0.3-0.7c-0.4-0.8-0.8-1.8-1.8-2.6
		c-0.9,0.8-1.3,1.8-1.8,2.6c-0.1,0.3-0.1,0.4-0.3,0.7c-0.3,0-0.4,0.1-0.7,0.3c-0.8,0.4-1.8,0.8-2.6,1.8c0.8,0.9,1.8,1.3,2.6,1.8
		c0.3,0.1,0.4,0.1,0.7,0.3c0,0.3,0.1,0.4,0.3,0.7c0.4,0.8,0.8,1.8,1.8,2.6c0.9-0.8,1.3-1.8,1.8-2.6c0.1-0.3,0.1-0.4,0.3-0.7
		c0.3,0,0.4-0.1,0.7-0.3c0.8-0.4,1.8-0.8,2.6-1.8C126.5,276.1,125.7,275.7,124.8,275.3z"/>
	<path class="st12" d="M31,545c-0.3-0.1-0.4-0.1-0.7-0.3c0-0.3-0.1-0.4-0.3-0.7c-0.4-0.8-0.8-1.8-1.8-2.6c-0.9,0.8-1.3,1.8-1.8,2.6
		c-0.1,0.3-0.1,0.4-0.3,0.7c-0.3,0-0.4,0.1-0.7,0.3c-0.8,0.4-1.8,0.8-2.6,1.8c0.8,0.9,1.8,1.3,2.6,1.8c0.3,0.1,0.4,0.1,0.7,0.3
		c0,0.3,0.1,0.4,0.3,0.7c0.4,0.8,0.8,1.8,1.8,2.6c0.9-0.8,1.3-1.8,1.8-2.6c0.1-0.3,0.1-0.4,0.3-0.7c0.3,0,0.4-0.1,0.7-0.3
		c0.8-0.4,1.8-0.8,2.6-1.8C32.8,545.9,31.8,545.5,31,545z"/>
	<path class="st12" d="M394.1,140c-0.3-0.1-0.4-0.1-0.7-0.3c0-0.3-0.1-0.4-0.3-0.7c-0.4-0.8-0.8-1.8-1.8-2.6
		c-0.9,0.8-1.3,1.8-1.8,2.6c-0.1,0.3-0.1,0.4-0.3,0.7c-0.3,0-0.4,0.1-0.7,0.3c-0.8,0.4-1.8,0.8-2.6,1.8c0.8,0.9,1.8,1.3,2.6,1.8
		c0.3,0.1,0.4,0.1,0.7,0.3c0,0.3,0.1,0.4,0.3,0.7c0.4,0.8,0.8,1.8,1.8,2.6c0.9-0.8,1.3-1.8,1.8-2.6c0.1-0.3,0.1-0.4,0.3-0.7
		c0.3,0,0.4-0.1,0.7-0.3c0.8-0.4,1.8-0.8,2.6-1.8C395.7,140.8,394.9,140.3,394.1,140z"/>
	<path class="st12" d="M146.3,53.1c-0.3-0.1-0.4-0.1-0.7-0.3c0-0.3-0.1-0.4-0.3-0.7c-0.4-0.8-0.8-1.8-1.8-2.6
		c-0.9,0.8-1.3,1.8-1.8,2.6c-0.1,0.3-0.1,0.4-0.3,0.7c-0.3,0-0.4,0.1-0.7,0.3c-0.8,0.4-1.8,0.8-2.6,1.8c0.8,0.9,1.8,1.3,2.6,1.8
		c0.3,0.1,0.4,0.1,0.7,0.3c0,0.3,0.1,0.4,0.3,0.7c0.4,0.8,0.8,1.8,1.8,2.6c0.9-0.8,1.3-1.8,1.8-2.6c0.1-0.3,0.1-0.4,0.3-0.7
		c0.3,0,0.4-0.1,0.7-0.3c0.8-0.4,1.8-0.8,2.6-1.8C148,53.9,147.2,53.5,146.3,53.1z"/>
	<path class="st12" d="M675.8,283.2c-0.3-0.1-0.4-0.1-0.7-0.3c0-0.3-0.1-0.4-0.3-0.7c-0.4-0.8-0.8-1.8-1.8-2.6
		c-0.9,0.8-1.3,1.8-1.8,2.6c-0.1,0.3-0.1,0.4-0.3,0.7c-0.3,0-0.4,0.1-0.7,0.3c-0.8,0.4-1.8,0.8-2.6,1.8c0.8,0.9,1.8,1.3,2.6,1.8
		c0.3,0.1,0.4,0.1,0.7,0.3c0,0.3,0.1,0.4,0.3,0.7c0.4,0.8,0.8,1.8,1.8,2.6c0.9-0.8,1.4-1.8,1.8-2.6c0.1-0.3,0.1-0.4,0.3-0.7
		c0.3,0,0.4-0.1,0.7-0.3c0.8-0.4,1.8-0.8,2.6-1.8C677.4,284,676.6,283.6,675.8,283.2z"/>
	<path class="st12" d="M326.1,92.5c-0.4-0.1-0.8-0.3-1.1-0.4c-0.1-0.4-0.3-0.8-0.4-1.1c-0.5-1.5-1.4-3-3-4.5c-1.6,1.5-2.4,3-3,4.5
		c-0.1,0.4-0.3,0.8-0.4,1.1c-0.4,0.1-0.8,0.3-1.1,0.4c-1.5,0.5-3,1.3-4.5,3c1.5,1.6,3,2.4,4.5,3c0.4,0.1,0.8,0.3,1.1,0.4
		c0.1,0.4,0.3,0.8,0.4,1.1c0.5,1.5,1.3,3,3,4.5c1.6-1.5,2.4-3,3-4.5c0.1-0.4,0.3-0.8,0.4-1.1c0.4-0.1,0.8-0.3,1.1-0.4
		c1.5-0.5,3-1.3,4.5-3C329.1,94,327.6,93.2,326.1,92.5z"/>
	<path class="st12" d="M97.1,201.5c-0.4-0.1-0.8-0.3-1.1-0.4c-0.1-0.4-0.3-0.8-0.4-1.1c-0.5-1.5-1.3-3-3-4.5c-1.6,1.5-2.4,3-3,4.5
		c-0.1,0.4-0.3,0.8-0.4,1.1c-0.4,0.1-0.8,0.3-1.1,0.4c-1.5,0.5-3,1.4-4.5,3c1.5,1.6,3,2.4,4.5,3c0.4,0.1,0.8,0.3,1.1,0.4
		c0.1,0.4,0.3,0.8,0.4,1.1c0.5,1.5,1.3,3,3,4.5c1.6-1.5,2.4-3,3-4.5c0.1-0.4,0.3-0.8,0.4-1.1c0.4-0.1,0.8-0.3,1.1-0.4
		c1.5-0.5,3-1.3,4.5-3C100.1,202.9,98.6,202.1,97.1,201.5z"/>
	<path class="st13" d="M581.2,165.2c-0.4-0.1-0.8-0.3-1.1-0.4c-0.1-0.4-0.3-0.8-0.4-1.1c-0.5-1.5-1.3-3-3-4.5c-1.6,1.5-2.4,3-3,4.5
		c-0.1,0.4-0.3,0.8-0.4,1.1c-0.4,0.1-0.8,0.3-1.1,0.4c-1.5,0.5-3,1.3-4.5,3c1.5,1.6,3,2.4,4.5,3c0.4,0.1,0.8,0.3,1.1,0.4
		c0.1,0.4,0.3,0.8,0.4,1.1c0.5,1.5,1.3,3,3,4.5c1.6-1.5,2.4-3,3-4.5c0.1-0.4,0.3-0.8,0.4-1.1c0.4-0.1,0.8-0.3,1.1-0.4
		c1.5-0.5,3-1.3,4.5-3C584.2,166.7,582.7,165.9,581.2,165.2z"/>
	<path class="st13" d="M570.2,45.6c-0.4-0.1-0.8-0.3-1.1-0.4c-0.1-0.4-0.3-0.8-0.4-1.1c-0.5-1.5-1.3-3-3-4.5c-1.6,1.5-2.4,3-3,4.5
		c-0.1,0.4-0.3,0.8-0.4,1.1c-0.4,0.1-0.8,0.3-1.1,0.4c-1.5,0.5-3,1.3-4.5,3c1.5,1.6,3,2.4,4.5,3c0.4,0.1,0.8,0.3,1.1,0.4
		c0.1,0.4,0.3,0.8,0.4,1.1c0.5,1.5,1.3,3,3,4.5c1.6-1.5,2.4-3,3-4.5c0.1-0.4,0.3-0.8,0.4-1.1c0.4-0.1,0.8-0.3,1.1-0.4
		c1.5-0.5,3-1.3,4.5-3C573.2,47,571.7,46.2,570.2,45.6z"/>
</g>
</svg>
