<?xml version="1.0" encoding="utf-8"?>
<!-- Generator: Adobe Illustrator 24.0.0, SVG Export Plug-In . SVG Version: 6.00 Build 0)  -->
<svg version="1.1" id="Layer_1" xmlns="http://www.w3.org/2000/svg" xmlns:xlink="http://www.w3.org/1999/xlink" x="0px" y="0px"
	 viewBox="0 0 812 570" style="enable-background:new 0 0 812 570;" xml:space="preserve">
<style type="text/css">
	.st0{fill:#2B2B2B;}
	.st1{fill:#686868;}
	.st2{fill:#FFFFFF;}
	.st3{fill:#8CBDFF;}
	.st4{fill:#D8D8D8;}
	.st5{fill:#EAEAEA;}
	.st6{opacity:0.7;fill:#B4B4B4;enable-background:new    ;}
	.st7{fill:#D02E1B;}
	.st8{fill:#B4B4B4;}
	.st9{fill:#E9EAEE;}
	.st10{opacity:0.7;fill:#AEAEAE;enable-background:new    ;}
	.st11{opacity:0.7;fill:#9093AA;enable-background:new    ;}
	.st12{opacity:0.7;}
	.st13{fill:#4F67AF;}
	.st14{fill:#C3C3C3;}
	.st15{fill:#D6D6D6;}
	.st16{fill:#A0A0A0;}
	.st17{fill:#E3E3E3;}
	.st18{display:none;}
	.st19{display:inline;opacity:0.4;}
	.st20{opacity:0.4;fill:#686868;enable-background:new    ;}
	.st21{display:inline;fill:#D6D6D6;}
	.st22{display:inline;fill:#C3C3C3;}
	.st23{display:inline;fill:#A0A0A0;}
	.st24{opacity:0.4;fill:#FFFFFF;enable-background:new    ;}
	.st25{display:inline;fill:#686868;}
	.st26{display:inline;fill:#2B2B2B;}
	.st27{display:inline;fill:#FFFFFF;}
	.st28{display:inline;opacity:0.4;fill:#EDEDED;enable-background:new    ;}
	.st29{display:inline;}
	.st30{opacity:0.4;fill:#EDEDED;enable-background:new    ;}
	.st31{fill:#C4C4C4;}
	.st32{fill:#8F8F8F;}
	.st33{fill:#EDEDED;}
</style>
<path class="st0" d="M408.8,570c207.5,0,375.8-10.5,375.8-23.6c0-13-168.3-23.6-375.8-23.6S33,533.4,33,546.4
	C33,559.5,201.2,570,408.8,570z"/>
<path class="st1" d="M203,407c16.6,18,15.4,46.1-2.5,62.7C183.7,451.6,184.9,423.6,203,407z"/>
<path class="st1" d="M136.8,475c16.2-18.4,44.2-20.3,62.5-4.1C183.1,489.3,155,491.2,136.8,475z"/>
<path class="st1" d="M168.8,384.5c17.8,13.9,20.9,39.5,7,57.1C157.9,427.9,154.8,402.3,168.8,384.5z"/>
<path class="st1" d="M118.8,456.1c11.9-19,37.1-25,56.1-12.9C163,462.1,137.8,468,118.8,456.1z"/>
<path class="st1" d="M127.4,373.8c18.2,7.6,26.8,28.3,19.3,46.5C128.6,412.7,120,391.8,127.4,373.8z"/>
<path class="st2" d="M715.4,303.8l-3.9-19.7l0.4-0.2l3.9,19.7L715.4,303.8z"/>
<path class="st2" d="M130.7,462.3l-0.6-0.2l5.3-23.8h0.6L130.7,462.3z"/>
<path class="st1" d="M635.5,430.7c-1.2,25.2,18,46.5,43.2,47.7C680.1,453.5,660.7,432,635.5,430.7z"/>
<path class="st1" d="M647.8,390.6c-4.9,22.7,9.6,44.9,32.2,49.8C684.8,417.8,670.3,395.5,647.8,390.6z"/>
<path class="st1" d="M673.2,355c-9.4,17.8-2.5,39.9,15.4,49.4C698,386.3,691.2,364.2,673.2,355z"/>
<path class="st1" d="M697.5,327.9c-12.1,14.7-9.6,36.7,5.1,48.5C714.7,361.7,712.5,340,697.5,327.9z"/>
<path class="st0" d="M695.3,131.9H130.5c-8.4,0-15.2,6.8-15.2,15.2v357.2h595.1V146.9C710.4,138.7,703.7,131.9,695.3,131.9z"/>
<path class="st3" d="M682.6,158.2H143.2v322.6h539.4V158.2z"/>
<path class="st4" d="M77.6,501c0,22.1,18,40.1,40.1,40.1h581.6c22.1,0,40.1-18,40.1-40.1H77.6z"/>
<path class="st0" d="M458.3,511.6H347.1c-5.7,0-10.4-4.7-10.4-10.4h132.1C468.8,506.9,464.1,511.6,458.3,511.6z"/>
<path class="st1" d="M682.8,156.9H143.4v30.5h539.4V156.9z"/>
<path class="st5" d="M682.8,187.4H143.4v294.5h539.4V187.4z"/>
<path class="st2" d="M455.5,243.1H270.3v223h185.1V243.1z"/>
<path class="st2" d="M455.5,242.7H270.3v185.3h185.1V242.7z"/>
<path class="st6" d="M287.1,271.6c-6.1,0-11.3-5.1-11.3-11.3c0-6.1,5.1-11.3,11.3-11.3s11.3,5.1,11.3,11.3
	C298.4,266.5,293.3,271.6,287.1,271.6z"/>
<path class="st7" d="M455.5,316.1H270.3v87.7h185.1V316.1z"/>
<path class="st8" d="M298.4,449.6h-2c-0.8,0-1.4,0.6-1.4,1.4v4.7c0,0.8,0.6,1.4,1.4,1.4h2c0.8,0,1.4-0.6,1.4-1.4V451
	C299.6,450.2,299,449.6,298.4,449.6z"/>
<path class="st8" d="M307,450.6c0.6,0,1-0.4,1-1c0-0.6-0.4-1-1-1h-1h-1.4h-0.4c0,0,0-0.2,0-0.8c0.4-1.6-0.2-3.1-1.6-3.5
	c-1.4-0.2-1.2,1.2-1.2,1.2v2.3c0,0.2,0,0.4-0.2,0.6l-1.6,2.3v4.7l1,0.6c0,0,1.6,0,3.3,0c0.8,0,1.6,0,2.3,0h0.2c0.6,0,1-0.4,1-1
	c0-0.6-0.4-1-1-1h0.4c0.6,0,1-0.4,1-1c0-0.6-0.4-1-1-1h0.4c0.6,0,1-0.4,1-1C308,451,307.6,450.6,307,450.6z"/>
<path class="st8" d="M393,445.9h-8.2c-1.4,0-2.5,1.2-2.5,2.5v4.1c0,1.4,1.2,2.5,2.5,2.5h1.2v3.1l3.3-3.1h3.7c1.4,0,2.5-1.2,2.5-2.5
	v-4.1C395.7,447.1,394.4,445.9,393,445.9z"/>
<path class="st5" d="M447.1,437.1H281.2v0.6h165.9V437.1z"/>
<path class="st5" d="M307.4,422.1h-30.3v3.1h30.3V422.1z"/>
<path class="st5" d="M340.4,450.4h-23.8v3.1h23.8V450.4z"/>
<path class="st5" d="M325.8,263.2h-23.8v3.1h23.8V263.2z"/>
<path class="st5" d="M436.8,450.4h-23.8v3.1h23.8V450.4z"/>
<path class="st5" d="M440.9,422.1H385v3.1h55.9V422.1z"/>
<path class="st5" d="M445.6,280.6H278.3v9.4h167.3V280.6z"/>
<path class="st5" d="M368.8,296.2h-90.5v9.4h90.5V296.2z"/>
<path class="st5" d="M327.9,252.4h-25.8v7h25.8V252.4z"/>
<path class="st2" d="M455.5,197.9H270.3v33.4h185.1V197.9z"/>
<path class="st6" d="M286.3,225.3c-5.9,0-10.7-4.7-10.7-10.7c0-5.9,4.7-10.6,10.7-10.6c5.9,0,10.6,4.7,10.6,10.6
	C297,220.6,292,225.3,286.3,225.3z"/>
<path class="st9" d="M394.2,210.4h-87.9v9.4h87.9V210.4z"/>
<path class="st2" d="M393.8,164.9H214.4V179h179.4V164.9z"/>
<path class="st1" d="M385.6,175.8l-2.3-2.3c0.6-0.6,1-1.4,1-2.5c0-1.8-1.6-3.5-3.5-3.5c-1.8,0-3.5,1.6-3.5,3.5s1.6,3.5,3.5,3.5
	c0.8,0,1.4-0.2,2-0.6l2.3,2.3L385.6,175.8z M378.1,171.1c0-1.6,1.2-2.9,2.9-2.9s2.9,1.2,2.9,2.9c0,1.6-1.2,2.9-2.9,2.9
	C379.5,173.9,378.1,172.5,378.1,171.1z"/>
<path class="st10" d="M202.5,224.3c-5.3,0-9.4-4.3-9.4-9.4c0-5.3,4.3-9.4,9.4-9.4c5.3,0,9.4,4.3,9.4,9.4
	C212.2,220,207.9,224.3,202.5,224.3z"/>
<path class="st10" d="M202.6,305.6c-2.9,0-5.3-2.3-5.3-5.3c0-2.9,2.5-5.3,5.3-5.3c2.9,0,5.3,2.3,5.3,5.3
	C207.9,303.2,205.4,305.6,202.6,305.6z"/>
<path class="st10" d="M259.1,212h-38.3v5.9h38.3V212z"/>
<path class="st10" d="M248.8,298.4h-28.1v3.7h28.1V298.4z"/>
<path class="st10" d="M202.6,325.1c-2.9,0-5.3-2.3-5.3-5.3c0-2.9,2.5-5.3,5.3-5.3c2.9,0,5.3,2.3,5.3,5.3
	C207.9,322.8,205.4,325.1,202.6,325.1z"/>
<path class="st10" d="M248.8,317.9h-28.1v3.7h28.1V317.9z"/>
<path class="st10" d="M202.6,250.9c-2.9,0-5.3-2.3-5.3-5.3c0-2.9,2.5-5.3,5.3-5.3c2.9,0,5.3,2.3,5.3,5.3
	C207.9,248.5,205.4,250.9,202.6,250.9z"/>
<path class="st10" d="M248.8,243.8h-28.1v3.7h28.1V243.8z"/>
<path class="st10" d="M202.6,270.4c-2.9,0-5.3-2.3-5.3-5.3c0-3.1,2.5-5.3,5.3-5.3c2.9,0,5.3,2.3,5.3,5.3
	C207.9,268.1,205.4,270.4,202.6,270.4z"/>
<path class="st10" d="M248.8,263.2h-28.1v3.7h28.1V263.2z"/>
<path class="st10" d="M202.6,344.5c-2.9,0-5.3-2.3-5.3-5.3c0-3.1,2.5-5.3,5.3-5.3c2.9,0,5.3,2.3,5.3,5.3
	C207.9,342.3,205.4,344.5,202.6,344.5z"/>
<path class="st10" d="M248.8,337.6h-28.1v3.7h28.1V337.6z"/>
<path class="st10" d="M202.6,364.2c-2.9,0-5.3-2.3-5.3-5.3c0-3.1,2.5-5.3,5.3-5.3c2.9,0,5.3,2.3,5.3,5.3
	C207.9,361.9,205.4,364.2,202.6,364.2z"/>
<path class="st10" d="M248.8,357h-28.1v3.7h28.1V357z"/>
<path class="st10" d="M202.6,383.6c-2.9,0-5.3-2.3-5.3-5.3c0-2.9,2.5-5.3,5.3-5.3c2.9,0,5.3,2.3,5.3,5.3
	C207.9,381.2,205.4,383.6,202.6,383.6z"/>
<path class="st10" d="M248.8,376.5h-28.1v3.7h28.1V376.5z"/>
<path class="st10" d="M202.6,403.1c-2.9,0-5.3-2.3-5.3-5.3c0-2.9,2.5-5.3,5.3-5.3c2.9,0,5.3,2.3,5.3,5.3S205.4,403.1,202.6,403.1z"
	/>
<path class="st10" d="M248.8,395.9h-28.1v3.7h28.1V395.9z"/>
<path class="st10" d="M202.6,422.8c-2.9,0-5.3-2.3-5.3-5.3c0-2.9,2.5-5.3,5.3-5.3c2.9,0,5.3,2.3,5.3,5.3
	C207.9,420.3,205.4,422.8,202.6,422.8z"/>
<path class="st10" d="M248.8,415.6h-28.1v3.7h28.1V415.6z"/>
<path class="st10" d="M202.6,442.2c-2.9,0-5.3-2.3-5.3-5.3s2.5-5.3,5.3-5.3c2.9,0,5.3,2.3,5.3,5.3S205.4,442.2,202.6,442.2z"/>
<path class="st10" d="M248.8,435h-28.1v3.7h28.1V435z"/>
<path class="st11" d="M598,223.9c-5.3,0-9.4-4.3-9.4-9.4s4.3-9.4,9.4-9.4c5.3,0,9.4,4.3,9.4,9.4S603.3,223.9,598,223.9z"/>
<path class="st11" d="M666.2,218.2c-2.3,0.4-4.3-1.6-3.9-3.9c0.2-1.2,1.2-2.3,2.7-2.7c2.3-0.4,4.3,1.6,3.9,3.9
	C668.7,216.7,667.6,217.8,666.2,218.2z"/>
<path class="st11" d="M654.5,211.6h-38.3v5.9h38.3V211.6z"/>
<path class="st10" d="M598,255.6c-5.3,0-9.4-4.3-9.4-9.4c0-5.1,4.3-9.4,9.4-9.4c5.3,0,9.4,4.3,9.4,9.4
	C607.4,251.3,603.3,255.6,598,255.6z"/>
<path class="st10" d="M666.2,249.9c-2.3,0.4-4.3-1.6-3.9-3.9c0.2-1.2,1.2-2.3,2.7-2.7c2.3-0.4,4.3,1.6,3.9,3.9
	C668.7,248.7,667.6,249.7,666.2,249.9z"/>
<path class="st10" d="M654.5,243.6h-38.3v5.9h38.3V243.6z"/>
<path class="st10" d="M598,287.6c-5.3,0-9.4-4.3-9.4-9.4c0-5.3,4.3-9.4,9.4-9.4c5.3,0,9.4,4.3,9.4,9.4
	C607.6,283.3,603.3,287.6,598,287.6z"/>
<path class="st10" d="M666.2,281.9c-2.3,0.4-4.3-1.6-3.9-3.9c0.2-1.2,1.2-2.3,2.7-2.7c2.3-0.4,4.3,1.6,3.9,3.9
	C668.7,280.4,667.6,281.4,666.2,281.9z"/>
<path class="st10" d="M654.5,275.3h-38.3v5.9h38.3V275.3z"/>
<path class="st2" d="M523.1,197.9h-61.4v54.7h61.4V197.9z"/>
<path class="st7" d="M523.1,259.7h-61.4v54.7h61.4V259.7z"/>
<path class="st2" d="M523.1,321.8h-61.4v54.7h61.4V321.8z"/>
<g class="st12">
	<path class="st11" d="M570.6,200.5h-0.4v281.4h0.4V200.5z"/>
</g>
<path class="st2" d="M418.4,179.2c-3.7,0-6.6-2.9-6.6-6.6c0-3.7,2.9-6.6,6.6-6.6c3.7,0,6.6,2.9,6.6,6.6
	C425,176.4,421.9,179.2,418.4,179.2z"/>
<path class="st2" d="M457.3,170.9h-26.4v4.1h26.4V170.9z"/>
<path class="st2" d="M491.7,170.9h-26.4v4.1h26.4V170.9z"/>
<path class="st2" d="M210.3,179.7c0.4,0,0.8-0.4,0.8-0.8v-13.1c0-0.4-0.4-0.8-0.8-0.8h-13.1c-0.4,0-0.8,0.4-0.8,0.8v13.1
	c0,0.4,0.4,0.8,0.8,0.8H210.3z"/>
<path class="st13" d="M206.6,179.9v-5.9h2l0.2-2.3h-2.3v-1.4c0-0.6,0.2-1,1.2-1h1.2v-2c-0.2,0-1,0-1.8,0c-1.8,0-2.9,1-2.9,3.1v1.6
	h-2v2.3h2v5.9h2.3V179.9z"/>
<path class="st7" d="M671.7,305.4h-89.5v69.8h89.5V305.4z"/>
<path class="st10" d="M671.7,385.9h-89.5v69.8h89.5V385.9z"/>
<path class="st2" d="M237.6,101.8l-1.4-1.6c0,0,1-1,3.3-2.7l1.2,1.6C238.6,100.8,237.6,101.8,237.6,101.8z"/>
<path class="st14" d="M247.2,94.5l-1.2-1.6c1.8-1.4,4.1-3.1,6.6-4.7l1.2,1.6C251.3,91.4,249,93,247.2,94.5z M587,90.6
	c-2-1.4-4.3-2.9-6.8-4.5l1-1.6c2.5,1.6,4.7,3.1,6.8,4.5L587,90.6z M260.5,85.2l-1-1.6c2.3-1.4,4.5-2.9,7-4.3l1,1.8
	C264.8,82.4,262.6,83.8,260.5,85.2z M573.4,82c-2.3-1.2-4.5-2.7-7-4.1l1-1.8c2.5,1.4,4.9,2.9,7,4.1L573.4,82z M274.2,76.6l-1-1.8
	c2.3-1.2,4.7-2.7,7.2-4.1l1,1.8C278.7,74.2,276.5,75.4,274.2,76.6z M559.3,73.8c-2.3-1.2-4.7-2.5-7.2-3.7l1-1.8
	c2.5,1.2,4.9,2.5,7.2,3.7L559.3,73.8z M288.4,69.1l-1-1.8c2.5-1.2,4.7-2.5,7.4-3.7l0.8,1.8C293.1,66.6,290.8,67.8,288.4,69.1z
	 M545,66.4c-2.5-1.2-4.9-2.3-7.4-3.5l0.8-1.8c2.5,1.2,4.9,2.3,7.4,3.5L545,66.4z M302.9,61.9l-0.8-1.8c2.5-1,4.9-2.3,7.4-3.3
	l0.8,1.8C307.8,59.6,305.4,60.9,302.9,61.9z M530.2,59.9c-2.5-1-4.9-2-7.6-3.1l0.8-1.8c2.7,1,5.1,2,7.6,3.1L530.2,59.9z M317.9,55.6
	l-0.8-1.8c2.5-1,5.1-2,7.6-2.9l0.6,1.8C322.8,53.7,320.3,54.5,317.9,55.6z M515.1,53.9c-2.5-0.8-5.1-1.8-7.6-2.7l0.6-1.8
	c2.7,0.8,5.1,1.8,7.6,2.7L515.1,53.9z M333,50l-0.6-1.8c2.5-0.8,5.1-1.6,7.8-2.5l0.6,2C338.1,48.4,335.5,49.2,333,50z M499.7,48.8
	c-2.5-0.8-5.1-1.6-7.8-2.3l0.6-2c2.7,0.8,5.3,1.4,7.8,2.3L499.7,48.8z M348.4,45.3l-0.6-2c2.7-0.6,5.1-1.4,7.8-2l0.4,2
	C353.7,43.9,351,44.7,348.4,45.3z M484.1,44.5c-2.7-0.6-5.1-1.2-7.8-1.8l0.4-2c2.7,0.6,5.3,1.2,8,1.8L484.1,44.5z M364.1,41.4
	l-0.4-2c2.7-0.6,5.3-1,8-1.6l0.4,2C369.5,40.4,366.8,41,364.1,41.4z M468.4,41c-2.7-0.4-5.3-1-8-1.4l0.4-2c2.7,0.4,5.3,0.8,8,1.4
	L468.4,41z M380.1,38.6l-0.2-2c2.7-0.4,5.3-0.8,8-1l0.2,2C385.4,37.9,382.8,38.3,380.1,38.6z M452.4,38.3c-2.7-0.4-5.3-0.6-8-1
	l0.2-2c2.7,0.2,5.3,0.6,8,1L452.4,38.3z M396.1,36.7l-0.2-2c2.7-0.2,5.3-0.4,8.2-0.6l0.2,2C401.4,36.3,398.7,36.5,396.1,36.7z
	 M436.4,36.7c-2.7-0.2-5.3-0.4-8-0.4v-2c2.7,0.2,5.5,0.2,8.2,0.4L436.4,36.7z M412.3,35.9v-2c1.4,0,2.9,0,4.3,0h1.4
	c0.8,0,1.6,0,2.5,0v2c-0.8,0-1.6,0-2.3,0h-1.4C415.1,35.9,413.7,35.9,412.3,35.9z"/>
<path class="st2" d="M596.8,97.7c0,0-1-0.8-3.3-2.5l1.2-1.6c2.3,1.6,3.3,2.5,3.3,2.5L596.8,97.7z"/>
<path class="st15" d="M442.1,44.5c3-18.5-9.6-36-28.1-39c-18.5-3-36,9.6-39,28.1c-3,18.5,9.6,36,28.1,39
	C421.6,75.6,439.1,63,442.1,44.5z"/>
<path class="st14" d="M408.6,68.7c16.4,0,29.7-13.3,29.7-29.7S425,9.3,408.6,9.3c-16.4,0-29.7,13.3-29.7,29.7S392.2,68.7,408.6,68.7
	z"/>
<path class="st14" d="M408.6,9.3c-4.9,0-9.6,1.2-13.7,3.3c3.9-1.8,8.2-2.9,12.7-2.9c16.4,0,29.7,13.3,29.7,29.7
	c0,11.5-6.6,21.5-16,26.4c10-4.7,17-15,17-26.8C438.3,22.6,425,9.3,408.6,9.3z"/>
<path class="st16" d="M412.3,55.1v7h-6.1v-7.2c-4.3-0.6-8.4-2.5-11.7-4.9l3.3-6.6c3.3,2.9,8.4,4.9,11.7,4.9c2.5,0,4.1-0.8,4.1-2.7
	c0-5.5-17-2.3-17-13.5c0-5.1,3.7-8.6,9.6-9.6v-6.8h6.1v6.8c3.7,0.4,7.4,1.6,10,3.5l-3.1,6.8c-3.5-1.8-7.8-3.5-10.4-3.5
	c-2,0-3.3,0.8-3.3,2.3c0,5.3,17,2.3,17,13.9C422.3,51,418,54.5,412.3,55.1z"/>
<path class="st17" d="M413.3,55.1v7h-6.1v-7.2c-4.3-0.6-8.4-2.5-11.7-4.9l3.3-6.6c3.3,2.9,8.4,4.9,11.7,4.9c2.5,0,4.1-0.8,4.1-2.7
	c0-5.5-17-2.3-17-13.5c0-5.1,3.7-8.6,9.6-9.6v-6.8h6.1v6.8c3.7,0.4,7.4,1.6,10,3.5l-3.1,6.8c-3.5-1.8-7.8-3.5-10.4-3.5
	c-2,0-3.3,0.8-3.3,2.3c0,5.3,17,2.3,17,13.9C423.5,51,419.2,54.5,413.3,55.1z"/>
<g class="st18">
	<g class="st19">
		<path class="st20" d="M286.5,185.4l7.6-1.2c7-1,11.7-7.8,10.2-14.7c-1.4-6.6-7.8-10.6-14.3-9.6l-10.4,1.6c0,0-11.3,1.8-24.8,3.9
			c-19,3.1-27.4,4.3-28.7,4.5c-1.2,0.2,1.6-6.1,4.5-11.9c3.3-6.8,4.3-14.3,2.9-21.7c-1.4-7.6-4.1-17.2-9.2-24
			c-5.5-7.6-13.5-8.4-19.7-7.6c-4.5,0.6-7.6,5.1-6.1,9.4l6.1,21.3c1.6,5.9,0.2,12.3-4.1,16.8l-5.7,5.9c-4.5,4.7-7.4,10.6-8,17.2
			c-0.6,5.7-4.9,10.2-10.4,11.1l-15.4,2.5l-1-6.3l-22.1,3.5l-0.8-4.9l-48.9,7.8l15,94.6l48.9-7.8l-0.8-4.9l22.1-3.5l-0.8-4.5
			l24.2-3.9l4.3,3.3c5.1,3.9,11.5,5.5,17.8,4.7l47.5-7.6l3.3-0.6l1-0.2l4.9-0.8c4.7-0.8,8.4-4.5,8.8-9.2c0-0.6,0-1.2,0-2
			c-0.6-5.7-5.9-9.8-11.7-8.8l1.6-0.2l9.2-1.4c6.6-1,11.5-7,10.6-13.7c-0.8-7.2-7.4-12.1-14.3-10.9l0.8-0.2l9.2-1.4
			c6.6-1,11.5-7,10.6-13.7C299.8,189.3,293.5,184.4,286.5,185.4z"/>
		<path class="st20" d="M691.6,207.1l-4.3-0.6l2.9-20.3c0.6-4.9-2.7-9.4-7.6-10l-104-14.3c-5.7-0.8-11.1,3.3-11.7,9l-10,72.9
			c-0.8,5.7,3.3,11.1,9,11.7l104,14.3c4.9,0.6,9.4-2.7,10-7.6l2.9-20.3l4.3,0.6L691.6,207.1z"/>
	</g>
	<path class="st21" d="M667.8,156.6c10.8-10.8,10.8-28.3,0-39.1s-28.3-10.8-39.1,0c-10.8,10.8-10.8,28.3,0,39.1
		C639.5,167.4,657,167.4,667.8,156.6z"/>
	<path class="st22" d="M665.4,154.1c9.4-9.4,9.4-24.7,0-34.2c-9.4-9.4-24.7-9.4-34.2,0c-9.4,9.4-9.4,24.7,0,34.2
		C640.6,163.6,655.9,163.6,665.4,154.1z"/>
	<path class="st23" d="M648.4,112.9c-4.1,0-7.8,1-11.3,2.7c3.1-1.4,6.6-2.3,10.4-2.3c13.3,0,24.2,10.9,24.2,24.2
		c0,9.4-5.3,17.4-13.1,21.5c8.2-3.9,13.9-12.3,13.9-21.9C672.6,123.7,661.7,112.9,648.4,112.9z"/>
	<path class="st22" d="M287.7,140.9c-1.4-6.6-7.8-10.6-14.3-9.6L263,133c0,0-11.3,1.8-24.8,3.9c-19,3.1-27.4,4.3-28.7,4.5
		s1.6-6.1,4.5-11.9c3.3-6.8,4.3-14.3,2.9-21.7c-1.4-7.6-4.1-17.2-9.2-24c-5.5-7.6-13.5-8.4-19.7-7.6c-4.5,0.6-7.6,5.1-6.1,9.4
		L188,107c1.6,5.9,0.2,12.3-4.1,16.8l-5.7,5.9c-4.5,4.7-7.4,10.6-8,17.2c-0.6,5.7-4.9,10.2-10.4,11.1l-24.8,3.9l14.5,73.5l30.7-4.9
		l4.3,3.3c5.1,3.9,11.5,5.5,17.8,4.7l54.3-8.6l-2.5,0.4l4.9-0.8c5.3-0.8,9.4-5.7,8.8-11.1c-0.6-5.7-5.9-9.8-11.7-8.8l10.9-1.6
		c6.6-1,11.5-7,10.6-13.7c-0.8-7.2-7.4-12.1-14.3-10.9l10-1.6c6.6-1,11.5-7,10.6-13.7c-0.8-7.2-7.4-12.1-14.3-10.9l7.6-1.2
		C284.5,154.5,289.2,147.9,287.7,140.9z"/>
	<g class="st19">
		<path class="st24" d="M256.2,209.1l-9.2,1.4c5.7-0.8,11.1,3.1,11.7,8.8c0.6,5.3-3.5,10.2-8.8,11.1l4.3-0.6l2.5-0.4l2.7-0.4
			c5.3-0.8,9.4-5.7,8.8-11.1C267.3,212.2,261.9,208.3,256.2,209.1z"/>
		<path class="st24" d="M263.6,182.9l-9.2,1.4c7-1,13.5,3.9,14.3,10.9c0.8,6.6-4.1,12.5-10.6,13.7l9.2-1.4c6.6-1,11.5-7,10.6-13.7
			C277.1,186.8,270.5,181.9,263.6,182.9z"/>
		<path class="st24" d="M287.7,141c-1.4-6.6-7.8-10.7-14.3-9.6l-9.2,1.4c6.6-1,13.1,3.1,14.3,9.6c1.4,7-3.3,13.7-10.2,14.7l-7.6,1.2
			c7-1,13.5,3.9,14.3,10.9c0.8,6.6-4.1,12.5-10.6,13.7l9.2-1.4c6.6-1,11.5-7,10.6-13.7c-0.8-7.2-7.4-12.1-14.3-10.9l7.6-1.2
			C284.5,154.5,289.2,147.9,287.7,141z"/>
	</g>
	<path class="st25" d="M143.3,153.8l-27.1,4.3l13.4,84.8l27.1-4.3L143.3,153.8z"/>
	<path class="st26" d="M120.2,152.4l-49,7.7l15,94.7l49-7.7L120.2,152.4z"/>
	<path class="st27" d="M145.4,223.9c0.4,2.7-1.4,4.9-3.9,5.3c-2.7,0.4-4.9-1.4-5.3-3.9c-0.4-2.7,1.4-4.9,3.9-5.3
		C142.5,219.6,145,221.2,145.4,223.9z"/>
	<path class="st25" d="M690.4,246l-111-15.2c-6.1-0.8-10.2-6.3-9.4-12.5l10.6-77.8c0.8-6.1,6.3-10.2,12.5-9.4l111,15.2
		c5.1,0.6,8.8,5.5,8.2,10.6l-11.1,80.9C700.4,243.1,695.7,246.6,690.4,246z"/>
	<path class="st26" d="M668,172.9c-11.1-1.4-21.1,5.7-22.5,16.2c-1.4,10.4,6.3,20.1,17.4,21.7l45.7,6.3l5.1-37.7L668,172.9z"/>
	<path class="st25" d="M670.3,192.8c-0.6,4.3-4.9,7.4-9.4,6.8c-4.7-0.6-8-4.7-7.4-9c0.6-4.3,4.9-7.4,9.4-6.8
		C667.6,184.4,670.9,188.5,670.3,192.8z"/>
</g>
<g class="st18">
	<path class="st28" d="M80.3,191.9c0-0.2,0-0.4,0-0.4c0-8.4-7-15.4-15.4-15.4c-3.3,0-6.1,1-8.6,2.7c-4.3-7.6-12.7-12.7-22.1-12.7
		c-14.1,0-25.4,11.5-25.4,25.4c0,0.2,0,0.4,0,0.4H80.3z"/>
	<g class="st29">
		<path class="st30" d="M805.3,392.6c0-0.2,0-0.4,0-0.4c0-8.4-7-15.4-15.4-15.4c-3.3,0-6.1,1-8.6,2.7c-4.3-7.6-12.7-12.7-22.1-12.7
			c-14.1,0-25.4,11.5-25.4,25.4c0,0.2,0,0.4,0,0.4H805.3z"/>
		<path class="st1" d="M102.2,445.5c5.5-18.8,25.4-29.5,44.2-24C140.7,440.4,121,451,102.2,445.5z"/>
		<path class="st1" d="M92.6,368.9c18.2,3.7,30.1,21.3,26.4,39.5C100.8,404.7,88.9,386.9,92.6,368.9z"/>
		<path class="st1" d="M82.3,440c1.6-18.4,18-32.2,36.5-30.5C117.1,428.1,101,441.6,82.3,440z"/>
		<path class="st1" d="M62.3,376.1c15.8,0.2,28.3,13.3,28.1,29.1C74.8,404.9,62.1,391.8,62.3,376.1z"/>
		<path class="st1" d="M64.7,437.3c-1.4-15.8,10.2-29.5,25.8-30.9C92,421.9,80.3,435.9,64.7,437.3z"/>
		<path class="st1" d="M34,390.2c12.9-2.5,25.2,6.1,27.6,19C48.7,411.7,36.5,403.1,34,390.2z"/>
		<path class="st1" d="M45.9,439.5c-3.7-12.5,3.5-25.8,16-29.5C65.7,422.8,58.6,435.9,45.9,439.5z"/>
		<path class="st1" d="M15.6,408c9-3.7,19.3,0.6,22.9,9.4C29.5,421.1,19.3,416.8,15.6,408z"/>
		<path class="st1" d="M31.7,441.8c-4.7-8.4-1.4-19,7-23.8C43.4,426.4,40.3,437.1,31.7,441.8z"/>
		<path class="st1" d="M5.9,437.5c1.8-9.4,11.3-15.6,20.7-13.7C24.8,433.2,15.6,439.3,5.9,437.5z"/>
		<path class="st2" d="M207.7,479.7c-4.7-7.8-10-15-15.8-21.9c-5.7-6.8-12.1-13.3-18.6-19.3c-6.8-5.9-13.9-11.3-21.5-16
			c-1.8-1-3.9-2.3-5.7-3.3l-5.9-3.1l-6.1-2.7c-2-0.8-4.3-1.6-6.3-2.3c-8.4-2.9-17.2-4.7-26.2-5.7c-9-0.8-17.8-0.2-26.8,1
			c-17.6,2.9-34.4,9.6-49.8,18.4c15.6-8.6,32.4-15,50-17.6c8.8-1,17.6-1.4,26.4-0.6c8.8,1,17.4,3.1,25.8,5.9c2,0.8,4.1,1.4,6.1,2.5
			l5.9,2.7l5.9,3.1c1.8,1,3.7,2.3,5.7,3.5c7.4,4.7,14.5,10.2,20.9,16.2c6.6,5.9,12.5,12.5,18.2,19.3c5.5,7,10.6,14.1,14.9,21.7
			L207.7,479.7z"/>
		<path class="st31" d="M761.4,255.6c-38.9-7-63.5,18.6-54.9,57.3C745.7,319.9,770.2,294.3,761.4,255.6z"/>
		<path class="st2" d="M688.3,331.4l-0.4-0.4l67.6-68.8l0.4,0.2L688.3,331.4z"/>
		<path class="st2" d="M732.1,264l-0.6,0.1l4.1,18l0.6-0.1L732.1,264z"/>
		<path class="st2" d="M746.1,296.2l-21.1-2.5v-0.4l21.3,2.5L746.1,296.2z"/>
		<path class="st32" d="M786.6,471.5c-15.2-36.7-50-43.4-77.8-15.4C723.8,492.6,758.6,499.6,786.6,471.5z"/>
		<path class="st2" d="M777.8,470.5l-94.4-19.9V450l94.4,19.9V470.5z"/>
		<path class="st2" d="M750.8,464.3l-0.4-0.4l12.9-13.1l0.4,0.4L750.8,464.3z"/>
		<path class="st2" d="M744,480.5l-9.2-19.5l0.4-0.2l9.2,19.3L744,480.5z"/>
		<path class="st2" d="M721.5,458.8l-0.4-0.4l14.5-13.9l0.4,0.4L721.5,458.8z"/>
		<path class="st31" d="M60.8,469.4c40.1,26.8,80.3,10.2,89.3-37.3C110,405.3,70,422.1,60.8,469.4z"/>
		<path class="st2" d="M179.5,420.7l-109.2,44l0.2,0.6l109.2-44L179.5,420.7z"/>
		<path class="st2" d="M102,452.4l-4.2,22.1l0.6,0.1l4.2-22.1L102,452.4z"/>
		<path class="st2" d="M120,445.3l-22.5-13.1l0.2-0.6l22.5,13.3L120,445.3z"/>
		<path class="st32" d="M43.4,328.3c2,21.7,15.4,34.8,30.7,42.2c16,7.4,34.2,9,58.4,7.2c6.8-19.9,3.3-38.9-13.7-50
			C102.6,316.7,73.1,313.4,43.4,328.3z"/>
		<path class="st2" d="M149.7,401.5c-9.2-15.4-22.1-29.5-37.5-41.2c-16.6-12.7-35.4-22.3-56.3-28.9l0.2-0.4
			c20.9,6.6,39.9,16.2,56.5,28.9c15.6,11.9,28.3,25.8,37.7,41.4L149.7,401.5z"/>
		<path class="st2" d="M66,355.4l-0.2-0.4c8-3.5,16.4-6.6,24.8-9l0.2,0.4C82.1,348.8,73.9,351.9,66,355.4z"/>
		<path class="st2" d="M108.1,356.8h-0.4c0.8-7.6,1.8-15.4,2.7-22.9h0.4C109.8,341.4,109,349.2,108.1,356.8z"/>
		<path class="st2" d="M96.5,372.2l-0.2-0.4c8.2-2.3,16.6-3.9,25.2-4.7v0.4C113.1,368.3,104.7,369.9,96.5,372.2z"/>
		<path class="st1" d="M732.6,441c-24.8-3.9-48.1,13.1-52.2,37.9C705.3,482.8,728.7,465.8,732.6,441z"/>
		<path class="st1" d="M734.4,414.1c-21.9-7.2-45.7,4.7-52.8,26.6C703.3,448.1,727,436.3,734.4,414.1z"/>
		<path class="st1" d="M740.5,394.9c-16.8-11.3-39.5-6.8-50.8,10C706.6,416.2,729.3,411.7,740.5,394.9z"/>
		<path class="st1" d="M752.4,377.5c-13.5-13.5-35.4-13.5-48.9,0C717,391,738.9,391,752.4,377.5z"/>
		<path class="st1" d="M726.2,314c-12.3,10.7-13.7,29.1-3.1,41.4C735.4,344.7,736.9,326.3,726.2,314z"/>
		<path class="st1" d="M764.7,363.8c-9.2-13.3-27.4-16.6-40.8-7.4C733,369.5,751.4,373,764.7,363.8z"/>
		<path class="st1" d="M758,306.4c-11.7,6.6-16,21.5-9.2,33.4C760.4,333,764.5,318.1,758,306.4z"/>
		<path class="st1" d="M781.1,353.3c-5.3-12.5-19.7-18-32.2-12.7C754.3,352.9,768.6,358.6,781.1,353.3z"/>
		<path class="st1" d="M784.2,308.3c-9.4,2.9-14.7,13.1-11.9,22.5C781.9,327.9,787.2,317.7,784.2,308.3z"/>
		<path class="st1" d="M793.6,345.5c-1.8-9.8-11.5-16.2-21.1-14.1C774.3,341.2,784,347.6,793.6,345.5z"/>
		<path class="st1" d="M811.2,325.3c-7.8-6.1-19-4.9-25.4,2.9C793.6,334.3,804.9,333,811.2,325.3z"/>
		<path class="st2" d="M679.7,491.4c-1.4-9.2-2-18.4-2-27.6s0.6-18.4,2-27.4c1.4-9,3.5-18,6.6-26.8c0.8-2.3,1.4-4.3,2.5-6.6l2.7-6.3
			l3.1-6.1c1-2,2.3-4.1,3.5-5.9c4.7-7.8,10.4-15.2,17-21.7c6.6-6.3,13.9-12.1,21.7-16.8c15.8-9.2,33.6-15.2,51.6-18.2
			c-18,3.5-35.4,9.4-51,19c-7.6,4.9-15,10.4-21.3,17c-6.3,6.6-11.9,13.9-16.4,21.7c-1,2-2.3,3.9-3.3,5.9l-2.9,6.1l-2.7,6.3
			c-0.8,2-1.4,4.3-2.3,6.3c-2.9,8.6-4.7,17.6-5.9,26.6c-1.2,9-1.8,18-1.6,27.2c0.2,9,0.8,18.2,2.5,27L679.7,491.4z"/>
		<path class="st33" d="M709.2,74.4c0-0.2,0-0.4,0-0.6c0-11.5-9.2-20.7-20.7-20.7c-4.3,0-8.4,1.4-11.7,3.7
			c-5.9-10.2-17-17.2-29.7-17.2c-18.8,0-34.2,15.4-34.2,34.2c0,0.2,0,0.4,0,0.6H709.2z"/>
		<path class="st33" d="M71.5,285.7c0-0.2,0-0.4,0-0.4c0-8.4-7-15.4-15.4-15.4c-3.3,0-6.1,1-8.6,2.7c-4.3-7.6-12.7-12.7-22.1-12.7
			C11.3,259.9,0,271.4,0,285.3c0,0.2,0,0.4,0,0.4H71.5z"/>
		<path class="st33" d="M804.6,201.8c0-0.2,0-0.4,0-0.4c0-8.4-7-15.4-15.4-15.4c-3.3,0-6.1,1-8.6,2.7c-4.3-7.6-12.7-12.7-22.1-12.7
			c-14.1,0-25.4,11.5-25.4,25.4c0,0.2,0,0.4,0,0.4H804.6z"/>
		<path class="st33" d="M162.8,87.9c0-0.2,0-0.4,0-0.6c0-12.7-10.2-22.9-22.9-22.9c-4.7,0-9.2,1.4-12.9,3.9
			c-6.6-11.5-18.8-19-32.8-19c-20.9,0-37.9,17-37.9,37.9c0,0.2,0,0.4,0,0.6h106.5V87.9z"/>
	</g>
</g>
</svg>
