<?xml version="1.0" encoding="utf-8"?>
<!-- Generator: Adobe Illustrator 24.0.0, SVG Export Plug-In . SVG Version: 6.00 Build 0)  -->
<svg version="1.1" id="Layer_1" xmlns="http://www.w3.org/2000/svg" xmlns:xlink="http://www.w3.org/1999/xlink" x="0px" y="0px"
	 viewBox="0 0 812 570" style="enable-background:new 0 0 812 570;" xml:space="preserve">
<style type="text/css">
	.st0{display:none;}
	.st1{display:inline;opacity:0.4;}
	.st2{opacity:0.4;fill:#686868;enable-background:new    ;}
	.st3{display:inline;fill:#D6D6D6;}
	.st4{display:inline;fill:#C3C3C3;}
	.st5{display:inline;fill:#A0A0A0;}
	.st6{opacity:0.4;fill:#FFFFFF;enable-background:new    ;}
	.st7{display:inline;fill:#686868;}
	.st8{display:inline;fill:#2B2B2B;}
	.st9{display:inline;fill:#FFFFFF;}
	.st10{opacity:0.4;fill:#EDEDED;enable-background:new    ;}
	.st11{fill:#686868;}
	.st12{fill:#FFFFFF;}
	.st13{fill:#C4C4C4;}
	.st14{fill:#8F8F8F;}
	.st15{fill:#EDEDED;}
</style>
<g class="st0">
	<g class="st1">
		<path class="st2" d="M286.5,185.4l7.6-1.2c7-1,11.7-7.8,10.2-14.7c-1.4-6.6-7.8-10.6-14.3-9.6l-10.4,1.6c0,0-11.3,1.8-24.8,3.9
			c-19,3.1-27.4,4.3-28.7,4.5c-1.2,0.2,1.6-6.1,4.5-11.9c3.3-6.8,4.3-14.3,2.9-21.7c-1.4-7.6-4.1-17.2-9.2-24
			c-5.5-7.6-13.5-8.4-19.7-7.6c-4.5,0.6-7.6,5.1-6.1,9.4l6.1,21.3c1.6,5.9,0.2,12.3-4.1,16.8l-5.7,5.9c-4.5,4.7-7.4,10.6-8,17.2
			c-0.6,5.7-4.9,10.2-10.4,11.1l-15.4,2.5l-1-6.3l-22.1,3.5l-0.8-4.9l-48.9,7.8l15,94.6l48.9-7.8l-0.8-4.9l22.1-3.5l-0.8-4.5
			l24.2-3.9l4.3,3.3c5.1,3.9,11.5,5.5,17.8,4.7l47.5-7.6l3.3-0.6l1-0.2l4.9-0.8c4.7-0.8,8.4-4.5,8.8-9.2c0-0.6,0-1.2,0-2
			c-0.6-5.7-5.9-9.8-11.7-8.8l1.6-0.2l9.2-1.4c6.6-1,11.5-7,10.6-13.7c-0.8-7.2-7.4-12.1-14.3-10.9l0.8-0.2l9.2-1.4
			c6.6-1,11.5-7,10.6-13.7C299.8,189.3,293.5,184.4,286.5,185.4z"/>
		<path class="st2" d="M691.6,207.1l-4.3-0.6l2.9-20.3c0.6-4.9-2.7-9.4-7.6-10l-104-14.3c-5.7-0.8-11.1,3.3-11.7,9l-10,72.9
			c-0.8,5.7,3.3,11.1,9,11.7l104,14.3c4.9,0.6,9.4-2.7,10-7.6l2.9-20.3l4.3,0.6L691.6,207.1z"/>
	</g>
	<path class="st3" d="M667.8,156.6c10.8-10.8,10.8-28.3,0-39.1s-28.3-10.8-39.1,0c-10.8,10.8-10.8,28.3,0,39.1
		C639.5,167.4,657,167.4,667.8,156.6z"/>
	<path class="st4" d="M665.4,154.1c9.4-9.4,9.4-24.7,0-34.2c-9.4-9.4-24.7-9.4-34.2,0c-9.4,9.4-9.4,24.7,0,34.2
		C640.6,163.6,655.9,163.6,665.4,154.1z"/>
	<path class="st5" d="M648.4,112.9c-4.1,0-7.8,1-11.3,2.7c3.1-1.4,6.6-2.3,10.4-2.3c13.3,0,24.2,10.9,24.2,24.2
		c0,9.4-5.3,17.4-13.1,21.5c8.2-3.9,13.9-12.3,13.9-21.9C672.6,123.7,661.7,112.9,648.4,112.9z"/>
	<path class="st4" d="M287.7,140.9c-1.4-6.6-7.8-10.6-14.3-9.6L263,133c0,0-11.3,1.8-24.8,3.9c-19,3.1-27.4,4.3-28.7,4.5
		s1.6-6.1,4.5-11.9c3.3-6.8,4.3-14.3,2.9-21.7c-1.4-7.6-4.1-17.2-9.2-24c-5.5-7.6-13.5-8.4-19.7-7.6c-4.5,0.6-7.6,5.1-6.1,9.4
		L188,107c1.6,5.9,0.2,12.3-4.1,16.8l-5.7,5.9c-4.5,4.7-7.4,10.6-8,17.2c-0.6,5.7-4.9,10.2-10.4,11.1l-24.8,3.9l14.5,73.5l30.7-4.9
		l4.3,3.3c5.1,3.9,11.5,5.5,17.8,4.7l54.3-8.6l-2.5,0.4l4.9-0.8c5.3-0.8,9.4-5.7,8.8-11.1c-0.6-5.7-5.9-9.8-11.7-8.8l10.9-1.6
		c6.6-1,11.5-7,10.6-13.7c-0.8-7.2-7.4-12.1-14.3-10.9l10-1.6c6.6-1,11.5-7,10.6-13.7c-0.8-7.2-7.4-12.1-14.3-10.9l7.6-1.2
		C284.5,154.5,289.2,147.9,287.7,140.9z"/>
	<g class="st1">
		<path class="st6" d="M256.2,209.1l-9.2,1.4c5.7-0.8,11.1,3.1,11.7,8.8c0.6,5.3-3.5,10.2-8.8,11.1l4.3-0.6l2.5-0.4l2.7-0.4
			c5.3-0.8,9.4-5.7,8.8-11.1C267.3,212.2,261.9,208.3,256.2,209.1z"/>
		<path class="st6" d="M263.6,182.9l-9.2,1.4c7-1,13.5,3.9,14.3,10.9c0.8,6.6-4.1,12.5-10.6,13.7l9.2-1.4c6.6-1,11.5-7,10.6-13.7
			C277.1,186.8,270.5,181.9,263.6,182.9z"/>
		<path class="st6" d="M287.7,141c-1.4-6.6-7.8-10.7-14.3-9.6l-9.2,1.4c6.6-1,13.1,3.1,14.3,9.6c1.4,7-3.3,13.7-10.2,14.7l-7.6,1.2
			c7-1,13.5,3.9,14.3,10.9c0.8,6.6-4.1,12.5-10.6,13.7l9.2-1.4c6.6-1,11.5-7,10.6-13.7c-0.8-7.2-7.4-12.1-14.3-10.9l7.6-1.2
			C284.5,154.5,289.2,147.9,287.7,141z"/>
	</g>
	<path class="st7" d="M143.3,153.8l-27.1,4.3l13.4,84.8l27.1-4.3L143.3,153.8z"/>
	<path class="st8" d="M120.2,152.4l-49,7.7l15,94.7l49-7.7L120.2,152.4z"/>
	<path class="st9" d="M145.4,223.9c0.4,2.7-1.4,4.9-3.9,5.3c-2.7,0.4-4.9-1.4-5.3-3.9c-0.4-2.7,1.4-4.9,3.9-5.3
		C142.5,219.6,145,221.2,145.4,223.9z"/>
	<path class="st7" d="M690.4,246l-111-15.2c-6.1-0.8-10.2-6.3-9.4-12.5l10.6-77.8c0.8-6.1,6.3-10.2,12.5-9.4l111,15.2
		c5.1,0.6,8.8,5.5,8.2,10.6l-11.1,80.9C700.4,243.1,695.7,246.6,690.4,246z"/>
	<path class="st8" d="M668,172.9c-11.1-1.4-21.1,5.7-22.5,16.2c-1.4,10.4,6.3,20.1,17.4,21.7l45.7,6.3l5.1-37.7L668,172.9z"/>
	<path class="st7" d="M670.3,192.8c-0.6,4.3-4.9,7.4-9.4,6.8c-4.7-0.6-8-4.7-7.4-9c0.6-4.3,4.9-7.4,9.4-6.8
		C667.6,184.4,670.9,188.5,670.3,192.8z"/>
</g>
<g>
	<path class="st10" d="M80.3,191.9c0-0.2,0-0.4,0-0.4c0-8.4-7-15.4-15.4-15.4c-3.3,0-6.1,1-8.6,2.7c-4.3-7.6-12.7-12.7-22.1-12.7
		c-14.1,0-25.4,11.5-25.4,25.4c0,0.2,0,0.4,0,0.4H80.3z"/>
	<g>
		<path class="st10" d="M805.3,392.6c0-0.2,0-0.4,0-0.4c0-8.4-7-15.4-15.4-15.4c-3.3,0-6.1,1-8.6,2.7c-4.3-7.6-12.7-12.7-22.1-12.7
			c-14.1,0-25.4,11.5-25.4,25.4c0,0.2,0,0.4,0,0.4H805.3z"/>
		<path class="st11" d="M102.2,445.5c5.5-18.8,25.4-29.5,44.2-24C140.7,440.4,121,451,102.2,445.5z"/>
		<path class="st11" d="M92.6,368.9c18.2,3.7,30.1,21.3,26.4,39.5C100.8,404.7,88.9,386.9,92.6,368.9z"/>
		<path class="st11" d="M82.3,440c1.6-18.4,18-32.2,36.5-30.5C117.1,428.1,101,441.6,82.3,440z"/>
		<path class="st11" d="M62.3,376.1c15.8,0.2,28.3,13.3,28.1,29.1C74.8,404.9,62.1,391.8,62.3,376.1z"/>
		<path class="st11" d="M64.7,437.3c-1.4-15.8,10.2-29.5,25.8-30.9C92,421.9,80.3,435.9,64.7,437.3z"/>
		<path class="st11" d="M34,390.2c12.9-2.5,25.2,6.1,27.6,19C48.7,411.7,36.5,403.1,34,390.2z"/>
		<path class="st11" d="M45.9,439.5c-3.7-12.5,3.5-25.8,16-29.5C65.7,422.8,58.6,435.9,45.9,439.5z"/>
		<path class="st11" d="M15.6,408c9-3.7,19.3,0.6,22.9,9.4C29.5,421.1,19.3,416.8,15.6,408z"/>
		<path class="st11" d="M31.7,441.8c-4.7-8.4-1.4-19,7-23.8C43.4,426.4,40.3,437.1,31.7,441.8z"/>
		<path class="st11" d="M5.9,437.5c1.8-9.4,11.3-15.6,20.7-13.7C24.8,433.2,15.6,439.3,5.9,437.5z"/>
		<path class="st12" d="M207.7,479.7c-4.7-7.8-10-15-15.8-21.9c-5.7-6.8-12.1-13.3-18.6-19.3c-6.8-5.9-13.9-11.3-21.5-16
			c-1.8-1-3.9-2.3-5.7-3.3l-5.9-3.1l-6.1-2.7c-2-0.8-4.3-1.6-6.3-2.3c-8.4-2.9-17.2-4.7-26.2-5.7c-9-0.8-17.8-0.2-26.8,1
			c-17.6,2.9-34.4,9.6-49.8,18.4c15.6-8.6,32.4-15,50-17.6c8.8-1,17.6-1.4,26.4-0.6c8.8,1,17.4,3.1,25.8,5.9c2,0.8,4.1,1.4,6.1,2.5
			l5.9,2.7l5.9,3.1c1.8,1,3.7,2.3,5.7,3.5c7.4,4.7,14.5,10.2,20.9,16.2c6.6,5.9,12.5,12.5,18.2,19.3c5.5,7,10.6,14.1,14.9,21.7
			L207.7,479.7z"/>
		<path class="st13" d="M761.4,255.6c-38.9-7-63.5,18.6-54.9,57.3C745.7,319.9,770.2,294.3,761.4,255.6z"/>
		<path class="st12" d="M688.3,331.4l-0.4-0.4l67.6-68.8l0.4,0.2L688.3,331.4z"/>
		<path class="st12" d="M732.1,264l-0.6,0.1l4.1,18l0.6-0.1L732.1,264z"/>
		<path class="st12" d="M746.1,296.2l-21.1-2.5v-0.4l21.3,2.5L746.1,296.2z"/>
		<path class="st14" d="M786.6,471.5c-15.2-36.7-50-43.4-77.8-15.4C723.8,492.6,758.6,499.6,786.6,471.5z"/>
		<path class="st12" d="M777.8,470.5l-94.4-19.9V450l94.4,19.9V470.5z"/>
		<path class="st12" d="M750.8,464.3l-0.4-0.4l12.9-13.1l0.4,0.4L750.8,464.3z"/>
		<path class="st12" d="M744,480.5l-9.2-19.5l0.4-0.2l9.2,19.3L744,480.5z"/>
		<path class="st12" d="M721.5,458.8l-0.4-0.4l14.5-13.9l0.4,0.4L721.5,458.8z"/>
		<path class="st13" d="M60.8,469.4c40.1,26.8,80.3,10.2,89.3-37.3C110,405.3,70,422.1,60.8,469.4z"/>
		<path class="st12" d="M179.5,420.7l-109.2,44l0.2,0.6l109.2-44L179.5,420.7z"/>
		<path class="st12" d="M102,452.4l-4.2,22.1l0.6,0.1l4.2-22.1L102,452.4z"/>
		<path class="st12" d="M120,445.3l-22.5-13.1l0.2-0.6l22.5,13.3L120,445.3z"/>
		<path class="st14" d="M43.4,328.3c2,21.7,15.4,34.8,30.7,42.2c16,7.4,34.2,9,58.4,7.2c6.8-19.9,3.3-38.9-13.7-50
			C102.6,316.7,73.1,313.4,43.4,328.3z"/>
		<path class="st12" d="M149.7,401.5c-9.2-15.4-22.1-29.5-37.5-41.2c-16.6-12.7-35.4-22.3-56.3-28.9l0.2-0.4
			c20.9,6.6,39.9,16.2,56.5,28.9c15.6,11.9,28.3,25.8,37.7,41.4L149.7,401.5z"/>
		<path class="st12" d="M66,355.4l-0.2-0.4c8-3.5,16.4-6.6,24.8-9l0.2,0.4C82.1,348.8,73.9,351.9,66,355.4z"/>
		<path class="st12" d="M108.1,356.8h-0.4c0.8-7.6,1.8-15.4,2.7-22.9h0.4C109.8,341.4,109,349.2,108.1,356.8z"/>
		<path class="st12" d="M96.5,372.2l-0.2-0.4c8.2-2.3,16.6-3.9,25.2-4.7v0.4C113.1,368.3,104.7,369.9,96.5,372.2z"/>
		<path class="st11" d="M732.6,441c-24.8-3.9-48.1,13.1-52.2,37.9C705.3,482.8,728.7,465.8,732.6,441z"/>
		<path class="st11" d="M734.4,414.1c-21.9-7.2-45.7,4.7-52.8,26.6C703.3,448.1,727,436.3,734.4,414.1z"/>
		<path class="st11" d="M740.5,394.9c-16.8-11.3-39.5-6.8-50.8,10C706.6,416.2,729.3,411.7,740.5,394.9z"/>
		<path class="st11" d="M752.4,377.5c-13.5-13.5-35.4-13.5-48.9,0C717,391,738.9,391,752.4,377.5z"/>
		<path class="st11" d="M726.2,314c-12.3,10.7-13.7,29.1-3.1,41.4C735.4,344.7,736.9,326.3,726.2,314z"/>
		<path class="st11" d="M764.7,363.8c-9.2-13.3-27.4-16.6-40.8-7.4C733,369.5,751.4,373,764.7,363.8z"/>
		<path class="st11" d="M758,306.4c-11.7,6.6-16,21.5-9.2,33.4C760.4,333,764.5,318.1,758,306.4z"/>
		<path class="st11" d="M781.1,353.3c-5.3-12.5-19.7-18-32.2-12.7C754.3,352.9,768.6,358.6,781.1,353.3z"/>
		<path class="st11" d="M784.2,308.3c-9.4,2.9-14.7,13.1-11.9,22.5C781.9,327.9,787.2,317.7,784.2,308.3z"/>
		<path class="st11" d="M793.6,345.5c-1.8-9.8-11.5-16.2-21.1-14.1C774.3,341.2,784,347.6,793.6,345.5z"/>
		<path class="st11" d="M811.2,325.3c-7.8-6.1-19-4.9-25.4,2.9C793.6,334.3,804.9,333,811.2,325.3z"/>
		<path class="st12" d="M679.7,491.4c-1.4-9.2-2-18.4-2-27.6s0.6-18.4,2-27.4c1.4-9,3.5-18,6.6-26.8c0.8-2.3,1.4-4.3,2.5-6.6
			l2.7-6.3l3.1-6.1c1-2,2.3-4.1,3.5-5.9c4.7-7.8,10.4-15.2,17-21.7c6.6-6.3,13.9-12.1,21.7-16.8c15.8-9.2,33.6-15.2,51.6-18.2
			c-18,3.5-35.4,9.4-51,19c-7.6,4.9-15,10.4-21.3,17c-6.3,6.6-11.9,13.9-16.4,21.7c-1,2-2.3,3.9-3.3,5.9l-2.9,6.1l-2.7,6.3
			c-0.8,2-1.4,4.3-2.3,6.3c-2.9,8.6-4.7,17.6-5.9,26.6c-1.2,9-1.8,18-1.6,27.2c0.2,9,0.8,18.2,2.5,27L679.7,491.4z"/>
		<path class="st15" d="M709.2,74.4c0-0.2,0-0.4,0-0.6c0-11.5-9.2-20.7-20.7-20.7c-4.3,0-8.4,1.4-11.7,3.7
			c-5.9-10.2-17-17.2-29.7-17.2c-18.8,0-34.2,15.4-34.2,34.2c0,0.2,0,0.4,0,0.6H709.2z"/>
		<path class="st15" d="M71.5,285.7c0-0.2,0-0.4,0-0.4c0-8.4-7-15.4-15.4-15.4c-3.3,0-6.1,1-8.6,2.7c-4.3-7.6-12.7-12.7-22.1-12.7
			C11.3,259.9,0,271.4,0,285.3c0,0.2,0,0.4,0,0.4H71.5z"/>
		<path class="st15" d="M804.6,201.8c0-0.2,0-0.4,0-0.4c0-8.4-7-15.4-15.4-15.4c-3.3,0-6.1,1-8.6,2.7c-4.3-7.6-12.7-12.7-22.1-12.7
			c-14.1,0-25.4,11.5-25.4,25.4c0,0.2,0,0.4,0,0.4H804.6z"/>
		<path class="st15" d="M162.8,87.9c0-0.2,0-0.4,0-0.6c0-12.7-10.2-22.9-22.9-22.9c-4.7,0-9.2,1.4-12.9,3.9
			c-6.6-11.5-18.8-19-32.8-19c-20.9,0-37.9,17-37.9,37.9c0,0.2,0,0.4,0,0.6h106.5V87.9z"/>
	</g>
</g>
</svg>
