<?xml version="1.0" encoding="utf-8"?>
<!-- Generator: Adobe Illustrator 24.0.0, SVG Export Plug-In . SVG Version: 6.00 Build 0)  -->
<svg version="1.1" id="Layer_1" xmlns="http://www.w3.org/2000/svg" xmlns:xlink="http://www.w3.org/1999/xlink" x="0px" y="0px"
	 viewBox="0 0 759 571" style="enable-background:new 0 0 759 571;" xml:space="preserve">
<style type="text/css">
	.st0{fill:#EFEFEF;}
	.st1{opacity:0.3;fill:#EFEFEF;enable-background:new    ;}
	.st2{display:none;}
	.st3{display:inline;fill:#FFFFFF;stroke:#606060;}
	.st4{display:inline;opacity:0.3;fill:#A9A9A9;enable-background:new    ;}
	.st5{fill:#DBDBDB;}
	.st6{fill:#575757;}
	.st7{fill:#959595;}
	.st8{fill:#D02E1B;}
	.st9{fill:#A9A9A9;}
	.st10{fill:#FFFFFF;}
	.st11{fill:#606060;}
	.st12{fill:#414141;}
	.st13{fill:#7A7A7A;}
	.st14{fill:#999999;}
	.st15{fill:#888888;}
	.st16{fill:#9A9A9A;}
	.st17{fill:#FFFFFF;stroke:#606060;}
	.st18{fill-rule:evenodd;clip-rule:evenodd;fill:#FFFFFF;}
	.st19{fill-rule:evenodd;clip-rule:evenodd;fill:#FFFFFF;filter:url(#Adobe_OpacityMaskFilter);}
	.st20{mask:url(#path-51-inside-1_1_);fill:#606060;}
	.st21{fill:#A6A6A6;}
	.st22{fill:#AFAFAF;}
	.st23{display:inline;fill:#EFEFEF;}
	.st24{display:inline;fill:#D02E1B;}
	.st25{display:inline;fill:#E7E7E7;}
	.st26{display:inline;fill:#606060;}
	.st27{display:inline;fill:#C2C2C2;}
	.st28{display:inline;fill:#DBDBDB;}
	.st29{display:inline;opacity:0.7;fill:#DBDBDB;enable-background:new    ;}
</style>
<path d="M757.1,446.7L0,512.6v-1.7l757.1-65.9V446.7z"/>
<path class="st0" d="M396.9,570c72.4,0,131.1-9,131.1-20.1c0-11.1-58.7-20.1-131.1-20.1s-131.1,9-131.1,20.1
	C265.8,561,324.5,570,396.9,570z"/>
<path class="st1" d="M123.3,549c29.5,0,53.3-3.2,53.3-7.2c0-4-23.9-7.2-53.3-7.2c-29.5,0-53.3,3.2-53.3,7.2
	C69.9,545.8,93.8,549,123.3,549z"/>
<path class="st0" d="M627.7,561.3c72.4,0,131.1-9,131.1-20.1S700.1,521,627.7,521s-131.1,9-131.1,20.1S555.3,561.3,627.7,561.3z"/>
<g class="st2">
	<path class="st3" d="M418.1,56.1v347.7l-317.7,25.8V30.3L418.1,56.1z"/>
	<path class="st4" d="M199.3,130.1c1.4,12.2,11.5,22.2,12.1,34.6c0.7,14.7-12.1,25.9-23.4,35.3c-11.2,9.3-22.2,19.2-28.2,32.5
		c-5.9,13.1-5.4,30.2,4.7,40.6c12.2,12.2,32.9,10.7,46.5,21c10.5,7.9,15,21.2,22,32.3c15,23.8,43.7,38.3,71.9,36.2
		c7.7-0.5,16.3-2.8,20.5-9.3c5.2-7.9,2.4-18.5-2.3-26.6c-4.7-8-11.2-15.6-13.1-24.7c-4.4-19.4,12.4-36.9,28.7-48.4
		c16.3-11.4,35.5-23.4,39.2-43c4-20.8-11.5-40.4-28.5-53.2c-10.1-7.5-21.5-14.5-27.1-25.9c-4.5-9.3-4.2-20.3-7.9-30.1
		c-4.9-13.5-17.7-23.8-31.8-25.9c-26.1-3.8-30.8,17.3-49.5,26.4C219.4,108.6,196.4,104.9,199.3,130.1z"/>
</g>
<path class="st5" d="M467.5,530.8c-0.2,3.7-0.5,7.7-3,10.5c-2.8,3.3-7.5,4.2-11.9,4.9c-6.3,0.9-12.6,1.9-18.9,2.8
	c-0.4,0.9,0.7,1.7,1.7,2.1c4.7,1.6,9.8,0.9,14.7,0.3c5.6-0.5,11.4-0.9,17.1-1c2.6,0,5.6-0.2,6.8-2.4c0.9-1.6,0.5-3.7,0.3-5.6
	c-0.7-5.8,0.9-11.5,0.2-17.3c-0.2-0.7-0.4-1.4-0.9-1.6c-0.3-0.2-0.7,0-1,0C467.7,524.5,467.9,526.5,467.5,530.8z"/>
<path class="st6" d="M469.3,545.7c-4.7,2.8-9.4,3.7-14.9,3c-0.4,0-2.1-0.5-2.4-0.5c-0.2-1-0.2-2.1-0.9-2.1c-4,0.2-7.9,0.5-11.9,1
	c-1.2,0.2-5.9,0.3-6.5,1.2c-0.5,0.9-0.2,1.9,0.5,2.6c0.7,0.7,1.6,1.2,2.4,1.6c4.5,1.7,9.4,1.6,14.2,1.2c5.9-0.3,11.7-0.5,17.7-0.9
	c1.9-0.2,4.2-0.2,5.8-1.4c2.4-1.6,3.3-4.9,3.3-7.9C476.6,538.5,471,544.7,469.3,545.7z"/>
<path class="st5" d="M441.1,273.8c0,0,21.3-1.2,21.3-1.7c-0.5-6.3-6.1-15.4-3.1-21c3-5.6,5.1-8.6,8-14.2c0.4-0.9,0.9-1.9,0.2-2.6
	c-0.5-0.5-1.4-0.4-2.1-0.2c-3.8,1.2-7.7,2.4-11.5,4c-6.5,2.6-12.4,2.4-12.8,9.3C441,254.9,441.1,273.8,441.1,273.8z"/>
<path class="st5" d="M375.4,540.8c-0.7,3.7-1.6,7.5-4.2,10.1c-3.1,3-8,3.1-12.4,3.3c-6.3,0.2-12.8,0.2-19.1,0.3
	c-0.5,0.9,0.5,1.7,1.4,2.3c4.4,2.1,9.6,2.1,14.5,2.3c5.8,0.2,11.4,0.5,17,1.2c2.4,0.3,5.6,0.5,7.2-1.6c1.2-1.6,1-3.5,1-5.4
	c0-5.8,2.4-11.4,2.4-17.1c0-0.7-0.2-1.4-0.7-1.7c-0.3-0.2-0.7-0.2-1-0.2C376.4,534.5,376.3,536.4,375.4,540.8z"/>
<path class="st7" d="M480.3,365.6c0,0-4.2,31.5-5.9,55.4c-1.6,24,6.5,75.7,5.9,89.5c-0.5,13.8-3.7,21.9-3.7,21.9h-12.2
	c0,0-14.9-64.5-15.4-78.3c-0.5-13.8-9.6-84.8-9.6-84.8L480.3,365.6z"/>
<path class="st8" d="M316.8,250.4c0.2,1.4-1.9,1.7-2.3,0.5c-5.1-18.5-17-65.4-16.8-71.9c0.2-4,3-7,3-7h3.7c0,0,3,3,3.3,7
	C308.1,181.7,314.9,231.8,316.8,250.4z"/>
<path class="st5" d="M443.4,203.3c-2.4,4.5-5.4,9.6-10.3,10.3c-0.9,0.2-1.7,0.2-2.4,0.5c-1.2,0.7-1.4,2.6-1.4,4
	c0.2,5.8,0.4,11.5,0.7,17.3c0.2,5.2,0.9,11.4,5.4,14.2c3.1,1.9,7.3,1.4,11,0.7c3-0.5,5.9-1.2,8.7-2.4c8.7-3.7,14.5-12.2,17.1-21.3
	c2.1-7.2,2.4-15-0.5-21.7C465.4,192,450.2,190.8,443.4,203.3z"/>
<path class="st9" d="M474.4,364.2c-2.4,0.3-4.7,0.7-7.2,1.2c-0.3-0.3-1-0.5-1.6-0.5c-16.4-3.1-33.6-2.3-49.1,3.7
	c-8,24.7-29.7,113.8-34.3,125.7c-5.4,14.2-8.7,29-12.2,43.9c5.2,1.2,10,2.1,15.4,2.3c18.9-44.8,27.1-42.5,29.9-72.4
	c0.5-6.1,8.6-16.3,12.1-21.2c16.6-23.6,44.9-56.5,49.3-63.5C480.7,377.1,488.5,362.1,474.4,364.2z"/>
<path class="st7" d="M474.4,364.2c-2.4,0.3-4.7,0.7-7.2,1.2c-0.4-0.3-1-0.5-1.6-0.5c-16.4-3.1-33.6-2.3-49.1,3.7
	c-1,3.1-2.3,7.2-3.7,11.9c5.4,3.3,14.2,6.3,28.5,7.2c15,0.9,28.5-4.7,38.8-11C483.3,370.2,484.5,362.8,474.4,364.2z"/>
<path class="st5" d="M317.9,209.8c-0.4-1-0.7-2.3-1.6-3c-1.2-0.9-2.8-0.7-4-0.2c-1.4,0.5-2.4,1.4-3.8,1.7c-2.4,0.7-5.4-0.2-7.5,1.2
	c-1.2,0.9-1.7,2.6-1.4,4c0.2,0.7,0.7,1.4,0.9,2.1c1,2.4,0.9,5.4,2.4,7.5c1.2,1.6,3.1,2.4,5.1,3.1c4.5,1.7,9.1,3.7,13.5,5.4
	c0.3,0.2,0.7,0.2,0.9,0.2c0.2-0.2,0.4-0.3,0.5-0.7c1.9-4.7,1-7-1.2-10.8C319.4,217.5,318.9,213.5,317.9,209.8z"/>
<path class="st10" d="M439.9,211.6c-1.9,6.1-4.9,10.7-6.6,10.1c-1.7-0.5-1.7-5.9,0.2-12.1c1.9-6.1,4.9-10.7,6.6-10.1
	C442,200,441.8,205.4,439.9,211.6z"/>
<path class="st8" d="M433.6,222.2c-0.2,0-0.4,0-0.5,0c-1-0.3-1.6-1.9-1.6-4.4c0-2.3,0.5-5.2,1.4-8.2c0.9-3,2.1-5.8,3.5-7.7
	c1.4-2.1,2.8-3,3.8-2.8c1,0.3,1.6,1.9,1.6,4.4c0,2.3-0.5,5.2-1.4,8.2c-0.9,3-2.1,5.8-3.5,7.7C435.7,221.2,434.7,222.2,433.6,222.2z
	 M439.7,199.9c-0.5,0-1.4,0.7-2.6,2.4c-1.2,1.9-2.4,4.5-3.3,7.5c-0.9,3-1.4,5.8-1.4,8c0,2.4,0.5,3.3,1,3.5c0.5,0.2,1.6-0.3,2.8-2.3
	c1.2-1.9,2.4-4.5,3.3-7.5c0.9-3,1.4-5.8,1.4-8c0-2.4-0.5-3.3-1-3.5C439.9,199.9,439.9,199.9,439.7,199.9z"/>
<path class="st6" d="M375.2,555.7c-5.1,2.3-9.8,2.4-15.2,1c-0.4,0-2.1-0.7-2.4-0.9c0-1,0.2-2.1-0.7-2.1c-3.8-0.4-7.9-0.5-11.9-0.5
	c-1.2,0-5.9-0.5-6.6,0.3c-0.5,0.9-0.4,1.9,0.2,2.8c0.5,0.9,1.4,1.4,2.3,1.9c4.2,2.3,9.1,2.8,14,3.1c5.9,0.5,11.7,1,17.7,1.6
	c1.9,0.2,4.2,0.3,5.9-0.5c2.6-1.2,4-4.4,4.4-7.3C383.4,549.5,377,555,375.2,555.7z"/>
<path class="st11" d="M487.1,275.4c-6.3-5.6-13.3-11.4-21.7-11.4c-2.8,0-45.3-9.4-50.2-10c-33-2.6-60-28.8-92.7-33.2
	c-3.3,1-4.4,5.4-3,8.6c1.4,3.1,4.2,5.2,7.2,7.2c29.5,20.1,58.2,39.5,90.2,55.3c-7.3,19.1,10.5,29.2,9.3,33.9
	c-1.4,5.1-13.5,38.5-12.1,43.5c11.9,3.7,21.5,4.2,33.9,5.2c12.4,1,25.9-1.2,36.4-7.9c-1.2-6.1-6.6-11.9-2.4-14.2
	c12.1-7.7,24-13.6,32-25.5c1.6-2.3,3-4.7,3.3-7.5C518.2,312.1,495.9,283.4,487.1,275.4z M479.9,339.2c1.6-7,9.4-27.8,9.4-27.8
	c3.7,1.9,7.7,8.9,7.7,8.9S483.4,336.8,479.9,339.2z"/>
<path class="st10" d="M304.9,171.7c-2.3,1.2-5.4,0.7-7.2-1.2c-1-1-1.7-2.6-1-4.5c1.6-4.2,4.5-9.1,3.3-11.7c-1.4-2.8-1.4-2.6-1.4-2.8
	s7.7,4.4,8.7,8C309.6,167.2,307.4,170.5,304.9,171.7z"/>
<path class="st5" d="M314.9,197.8c-0.4-0.9-0.9-1.7-1.6-2.1c-1-0.4-2.1,0.5-2.6,1.4c-0.4,1-0.4,2.1-0.2,3.1c0.4,3,0.5,5.9,0.9,8.9
	c0.2,1.7,0.5,3.7,2.1,4.4c1.2,0.5,2.6,0,3.5-1.1c1.6-1.9,0.5-4.2,0.2-6.3C316.7,203.5,316,200.6,314.9,197.8z"/>
<path class="st8" d="M308.1,163.1c-0.2-1-0.4-2.3-0.7-3.5c-1-3.8-8.7-8.4-8.7-8v0.2c0,0,0,0,0,0.2c0.2,0.3,0.5,0.9,1.2,2.4
	c1.4,2.6-1.4,7.2-3,11.2c0.5,0.2,1,0.3,1.6,0.2c1-0.5,1.7-2.1,3-1.9c1.7,0.2,1,3.5,2.6,4.2c1,0.4,1.9-0.5,2.4-1.6
	c0.4-1,0.5-2.1,1.4-2.8C307.9,163.1,308.1,163.1,308.1,163.1z"/>
<path class="st8" d="M438.8,212.5l-0.4,0.8l8.3,4.8l0.4-0.8L438.8,212.5z"/>
<path class="st7" d="M487.5,203.9c-4.4-4.4-10.1-7.3-15.9-9.6c-4.5-1.7-9.3-3.5-14-3.3c-4.9,0.2-10,2.1-12.4,6.3
	c-1.9,3.1-2.3,7.2-1.6,10.7c0.5,2.4,1.4,7.5,3.3,9.3c1.6,1.4,4,0.5,5.2,2.6c0.9,1.6,0.9,3.3,0.4,5.1c-0.5,1.7-1.4,3.5-2.8,4.5
	c-0.3,0.4-0.9,0.5-1.4,0.7c-2.4,0.7-3.8,3-3.7,5.4c0.5,3.8,1.9,7.5,4.2,10.7c0.5,0.7,1,1.4,1.7,2.1c-0.2,1-0.5,2.3-0.5,3.3
	c-0.5,3.3,0.9,7.2,4.2,8c-1.1-1.2-2.3-2.8-2.3-4.4c0-1.7,1.4-3.5,3.1-3.1c1.2,0.3,1.9,1.7,2.1,3.1c0.5,3.1-0.5,6.3-2.4,8.7
	c2.1-1.2,4.4-2.4,5.8-4.4c1.6-2.1,2.1-4.9,3.7-7c0.3-0.5,0.7-0.9,1.2-1.2c0.2,0.2,0.3,0.5,0.5,0.7c1.2,1.9,1.4,3.1,0.4,6.1
	c-0.2,0.5-1.2,2.3-1.2,2.3c0.2-0.2,5.6-4.2,1.9-10.3c0.9-0.2,1.7-0.4,2.6-0.7c6.6-2.1,11.4-7.7,15.9-12.9c3.8-4.7,8-9.8,8.7-15.9
	C494.8,214.5,491.9,208.2,487.5,203.9z"/>
<path class="st12" d="M487.1,275.4c-3.7-3.3-7.7-6.6-12.1-8.9c1.7,3.3,4.5,6.5,5.4,10.1c0.7,3.1,0.9,6.5,0.9,9.8
	c0.2,7,0.4,14.2,0.5,21.2c0.2,4.7,0.2,9.8-1.9,14c-2.4,4.7-7.2,7.9-11.7,10.3c-1,0.5-2.1,1.2-2.6,2.1c-1.2,2.1,0.2,4.7,2.1,6.3
	c1.9,1.4,4.2,2.4,5.8,4.4c0,8.9,0.2,18,0.2,26.9c3.8-1.2,7.5-3,10.8-5.1c-1.2-6.1-6.6-11.9-2.4-14.2c12.1-7.7,24-13.6,32-25.5
	c1.6-2.3,3-4.7,3.3-7.5C518.2,312.1,495.9,283.4,487.1,275.4z M479.9,339.2c1.6-7,9.4-27.8,9.4-27.8c3.7,1.9,7.7,8.9,7.7,8.9
	S483.4,336.8,479.9,339.2z"/>
<path class="st11" d="M491.7,296.2c0.7,0.7-2.6,13.1-2.8,14.9c0,0.5,0,1.2-0.2,1.7c0.4-0.9,0.5-1.4,0.5-1.4c3.7,1.9,7.7,8.9,7.7,8.9
	s-13.5,16.4-17,18.9V339c-0.4,0.7-0.9,1.4-1.2,2.3c-0.7,1.4-1,3.7,0.5,3.8c0.5,0,1-0.3,1.4-0.7c3.3-2.6,6.6-5.2,10-7.9
	c1.7-1.4,3.5-2.8,5.1-4.5c2.1-2.3,3.7-4.9,5.2-7.7c1.2-2.1,2.6-4.4,3.8-6.5c0.5-1,1.2-2.1,1-3.3c0-0.9-0.5-1.6-1-2.4
	C500.9,306.3,496.6,300.9,491.7,296.2z"/>
<path class="st12" d="M433.5,281.7c-2.3-1-4.9-0.9-7.3-0.9c-12.1,0-24-3.1-34.3-9.3c-6.5-3.8-12.4-8.7-19.4-11.5
	c-5.6-2.3-11.9-3.3-17.3-6.1c-4.5-2.4-8.4-5.9-12.4-9.3c-2.6-2.1-14.9-11.9-21.2-12.1c1.4,1.6,3.3,3,5.1,4.2
	c29.5,20.1,58.2,39.5,90.2,55.3c-0.5,1.2-0.9,2.3-1,3.5c0.5,0,0.9,0,1.4-0.2c3.5-0.7,6.5-2.6,10-3.3c3.8-0.7,8.9-0.9,10-4.5
	C437.6,285.2,435.7,282.7,433.5,281.7z"/>
<path class="st13" d="M483.8,200.7c-7,0.2-12.9,4-12.4,13.6c0.2,2.4,0.9,4.9,1.2,7.5c1,10.1-6.8,18.5-11.5,27.6
	c-1.6,3-2.6,6.8-0.5,9.3c0,0,0,0,0.2,0.2c1.2-2.1,1.7-4.4,3.3-6.3c0.4-0.5,0.7-0.9,1.2-1.2c0.2,0.2,0.4,0.5,0.5,0.7
	c1.2,1.9,1.4,3.1,0.3,6.1c-0.2,0.5-1.2,2.3-1.2,2.3c0.2-0.2,5.6-4.2,1.9-10.3c0.9-0.2,1.7-0.3,2.6-0.7c6.6-2.1,11.4-7.7,15.9-12.9
	c3.8-4.7,8-9.8,8.7-15.9c0.9-6.3-2.1-12.4-6.6-17C486.2,202.6,485,201.8,483.8,200.7z"/>
<path class="st7" d="M507.5,215.9c2-9.3-3.9-18.6-13.3-20.6c-9.3-2-18.5,3.9-20.6,13.3c-2,9.3,3.9,18.6,13.3,20.6
	C496.3,231.2,505.5,225.2,507.5,215.9z"/>
<path class="st14" d="M602.9,248.1c0,0-10.7,1.9-38.6,36.9c-12.1,25.7-12.6,37.2-12.6,37.2s0.5,5.6,8.4,1.9
	c7.9-3.7,34.4-40.6,34.4-40.6L602.9,248.1z"/>
<path class="st9" d="M590.8,254.4c-5.9,7-10.3,62.9-5.4,65.4c10.7,5.4,23.3,5.1,35.3,4.9c3.3,0,6.6-0.2,9.6-1.4
	c3.7-1.4,6.5-4.5,8.4-7.9c3.7-6.3,4.4-13.8,3-21c-1.4-7.2-4.7-13.6-9.1-19.4c-4.2-5.6-9.3-10.5-12.1-16.8c-2.8-6.3-2.6-14.7-11-14
	C602,244.6,595.4,248.8,590.8,254.4z"/>
<path class="st6" d="M560.2,530.3l-5.8,11.7l-32.9-17.7c0,0,0-4.4,6.6-2.4c6.6,1.9,22.9,11,22.9,11l3.8-7.2L560.2,530.3z"/>
<path class="st6" d="M650.4,533.6l0.3,13.3L638,558.5c-3.8,3.5-9.3,5.2-14.5,4.2c-1.9-0.3-3.1-1-2.6-2.3
	c1.7-3.5,20.5-14.2,20.5-14.2l0.9-17L650.4,533.6z"/>
<path class="st15" d="M588.4,335c-10.3,36.2-18.5,72.9-24.7,110c-4.5,27.8-6.5,56.3-16.6,82.7c4.5,1.7,8,2.6,13.1,3.5
	c5.8-9.6,10.7-17.3,15.4-27.5c3-6.3,5.6-12.9,6.8-19.8c1.9-10.8,0.2-22.4,4-32.9c12.4-34.4,27.8-66.1,37.9-101.2
	c0.3-1.4,0.7-2.8,0.2-4c-0.7-1.7-3-2.4-4.7-2.8C609,340.4,599.4,336.1,588.4,335z"/>
<path class="st16" d="M644.5,322.6c2.6,71.3,5.2,142.7,7.9,213.8c-5.1,0-11.7,0-16.6,0c-4.5-15.6-7.3-31.1-8.4-47.2
	c-2.8-49.1-11.4-97.9-25.4-145.1c5.9-6.3,11-11,18.2-16.1C627.5,323.1,635.9,321,644.5,322.6z"/>
<path class="st9" d="M546.6,297.1c-2.1,5.8-5.2,11.2-4.2,17.3c1,6.1,6.5,11.9,12.6,10.8c5.1-0.9,7.3-12.9,7.3-12.9l12.1-52.3
	l-10.1-1.6C564.4,258.6,550.1,288,546.6,297.1z"/>
<path class="st9" d="M585.6,334.1c0,0-0.7,6.3,0.5,9.1c2.3,5.8,15.2,8.9,15.2,8.9s45.5-1.4,46.2-5.6c1.4-8.2-0.9-16.1-0.9-24.5
	c0-0.9,0-1.9-0.5-2.6c-0.5-0.5-1.2-0.9-1.9-1c-11.7-4-24.3-5.1-36.5-3.5c-4.7,0.7-13.5,1.4-17.5,4.4
	C585.4,322.9,585.6,334.1,585.6,334.1z"/>
<path class="st5" d="M551.1,308.1c-0.3-0.2-0.9-0.3-1.4-0.2c-0.3,0.2-0.3,0.5-0.5,0.7c-1.9,3.1-7.5,1.9-9.3,5.1
	c-0.7,1.2-0.4,3,0.3,4.2c0.7,1.2,1.9,2.1,3.1,3c3.1,2.3,10.7,2.3,10.7,2.3l9.6,1.6v-4l-4.9-3c0,0,0.9-2.6,0.5-3
	C556.5,311.8,553,309.1,551.1,308.1z"/>
<path class="st14" d="M585.9,328.4c-0.2,1.4-0.4,2.6-0.4,3.7c3.8,3.5,11.5,9.3,22.7,9.8c9.4,0.5,24.3,4,35.3,6.6
	c2.1-0.5,3.5-1,3.5-1.7c1.4-8.2-0.9-16.1-0.9-24.5c0-0.5,0-1-0.2-1.6c-7.9-0.5-15.4-1-15.4-1L585.9,328.4z"/>
<path class="st5" d="M551.5,307.9c-0.4-0.4-0.9-0.7-1.4-0.9c-0.7-0.2-1.4-0.2-1.9-0.2c-0.9,0-1.9,0-2.8,0.2c-0.5,0-1,0.2-1.2,0.5
	c-0.2,0.4,0.2,0.9,0.5,1.2c1.2,0.9,2.6,1.2,3.8,2.1s1.9,2.3,3.1,3c0.3,0.2,0.7,0.4,1.2,0.4c0.3,0,0.9-0.2,1.2-0.4
	c1.6-0.9,1.6-1.4,0.3-2.8C553.7,310,552.7,309,551.5,307.9z"/>
<path class="st9" d="M601,247.9l25.5-4.4l14.2,2.6c11,2.1,19.2,11.7,19.4,22.9c0.3,18.5-0.4,45.5-6.5,58.9
	c-2.8,6.1-12.4,5.1-19.1,5.1c-19.6,0-58.2-0.5-76.4-8c0.4-2.8,0-5.2,1.2-7.9c17.3-2.8,53.9-8.4,71-5.4
	c-13.8-15.6-23.8-35.1-27.6-55.6C602.4,253.4,601,247.9,601,247.9z"/>
<path class="st10" d="M607.6,248.5c-0.3,0.7-0.5,1.6-0.5,2.3c-0.4,4.2,0.2,8.6,1.4,12.8c0.2,0.5,0.3,1,0.7,1.6
	c1,1.4,3.3,1.2,5.1,0.7c2.6-0.9,4.9-2.4,7.3-3.8c4.4-2.8,8.9-5.9,11.2-10.7c0.4-0.7,0.7-1.6,0.5-2.3c-0.2-1.7-2.3-2.8-4-3.3
	C624.7,244.4,610.4,243.2,607.6,248.5z"/>
<path class="st5" d="M627,249.7c-5.9,4.5-14.2,8.7-14.2,8.7l-4.7-22c0,0-8.6,1.2-10.8,0.9c-8.9-1.2-17.5-7.2-19.4-15.9
	c-1-5.4,0.5-11,2.1-16.3c3.3-10.8,6.6-22,13.5-31.1c2.3-3,5.8-4.2,9.6-4.4c5.1-0.2,10.3,0.4,15.2,1.9c4.9,1.7,9.3,4.7,11.9,9.1
	c3,5.1,3.3,11.5,2.4,17.3c-0.9,5.9-2.8,11.7-3.7,17.5c-0.3,1.9-3.1,6.3-3.5,10.5C624.7,235.2,626.3,245.8,627,249.7z"/>
<path class="st11" d="M619.7,214.9c1,4.5,4.9,10.5,6.1,11.2c0-1.7,3-8.6,3.1-10.3c0.9-5.9,2.8-11.5,3.7-17.5
	c0.9-5.9,0.7-12.2-2.4-17.3c-2.6-4.4-7.2-7.5-11.9-9.1c-4.9-1.7-10-2.1-15.2-1.9c-1.6,0-3.1,0.3-4.5,0.7c4.5,5.6,19.6,9.8,21.3,7
	C612.2,190.1,616.5,200.4,619.7,214.9z"/>
<path class="st5" d="M623.2,197.9c3.1-0.5,6.8,0.2,8.7,2.8c2.3,3,1.4,7.2-0.5,10.3c-1.4,2.4-3.5,4.7-6.1,6.1
	c-3.5,1.7-8,1.4-11.2-0.9C603.4,208.9,614.2,199.2,623.2,197.9z"/>
<path class="st11" d="M569.7,232c0.9,7.3,4.9,13.3,12.2,14.7c5.6,1,12.4,1.7,17.7-0.2c18.9-7,10.8-24.5,12.6-29.2
	c2.3-5.9,4.4-11.9,5.4-18c-3.5-0.9-6.5,2.4-8.7,5.4c-2.1,3-7.3,10.1-10.8,9.3c-2.6-5.4-7.3-10.7-13.3-11.5c-2.3-0.4-5.6-1-6.6,0.9
	C571.9,215.6,568.8,225.7,569.7,232z"/>
<path class="st5" d="M573.5,260.2c0.2,0.2,0.3,0.4,0.5,0.5c2.4-4.4,4.7-8.9,6.6-13.6c0.5-1.2,1-2.4,0.9-3.8c-0.2-1.6-1.4-3-2.4-4.2
	c-1.2-1.4-2.6-3.3-3.8-4.7c1.2-2.1,2.3-4.2,3.5-6.3c0.5-0.9,0.9-1.7,1-2.6c0.2-0.9-0.2-2.1-0.9-2.6c-0.9-0.5-1.7-0.5-2.3,0.2
	c-2.8,3.7-12.2,30.9-11.9,34.6c0.2,2.1,0.5,4.5,2.3,5.8C569.3,264.7,572.1,262.3,573.5,260.2z"/>
<path class="st17" d="M602.3,183c4.9,1.6,7.4,7.8,5.4,14.1c-2,6.3-7.8,9.8-12.6,8.2c-4.9-1.6-7.4-7.8-5.4-14.1
	C591.7,184.9,597.4,181.4,602.3,183z"/>
<path class="st14" d="M639.3,272.8l-8.7,27.5c0,0-14.2,12.6-22,13.1c0.5,0.5,26.6-0.7,26.6-0.7L639.3,272.8z"/>
<path class="st18" d="M581.7,201.3c2.2-1.1,4.7-4.4,6.1-8.6c1.9-5.9,1.2-11.4-1.6-12.2c-2.6-0.9-6.5,3.1-8.4,8.9
	c-1.9,5.9-1.2,11.4,1.6,12.2l0,0C580.1,201.8,580.9,201.7,581.7,201.3z"/>
<defs>
	<filter id="Adobe_OpacityMaskFilter" filterUnits="userSpaceOnUse" x="575.8" y="179.3" width="14.1" height="23.4">
		<feColorMatrix  type="matrix" values="1 0 0 0 0  0 1 0 0 0  0 0 1 0 0  0 0 0 1 0"/>
	</filter>
</defs>
<mask maskUnits="userSpaceOnUse" x="575.8" y="179.3" width="14.1" height="23.4" id="path-51-inside-1_1_">
	<path class="st19" d="M581.7,201.3c2.2-1.1,4.7-4.4,6.1-8.6c1.9-5.9,1.2-11.4-1.6-12.2c-2.6-0.9-6.5,3.1-8.4,8.9
		c-1.9,5.9-1.2,11.4,1.6,12.2l0,0C580.1,201.8,580.9,201.7,581.7,201.3z"/>
</mask>
<path class="st20" d="M587.8,192.7l0.9,0.3l0,0L587.8,192.7z M581.7,201.3l-0.4-0.9v0L581.7,201.3z M586.3,180.4l-0.3,0.9l0,0l0,0
	L586.3,180.4z M577.9,189.4l-0.9-0.3l0,0L577.9,189.4z M579.5,201.6l0.9,0.4l0.4-1l-1.1-0.3L579.5,201.6z M579.4,201.6l-0.9-0.4
	l-0.4,1l1,0.3L579.4,201.6z M586.9,192.4c-0.7,2-1.6,3.8-2.6,5.2c-1,1.4-2.1,2.4-3,2.8l0.9,1.8c1.3-0.7,2.6-1.9,3.7-3.5
	c1.1-1.6,2.1-3.6,2.9-5.8L586.9,192.4z M586,181.4c0.8,0.3,1.6,1.3,1.9,3.4c0.3,2,0,4.7-0.9,7.6l1.9,0.6c1-3.1,1.3-6.1,1-8.5
	c-0.3-2.3-1.3-4.4-3.3-5L586,181.4z M578.8,189.7c0.9-2.8,2.3-5.1,3.7-6.6c0.7-0.7,1.4-1.3,2-1.5c0.6-0.3,1.1-0.3,1.4-0.2l0.6-1.9
	c-1-0.3-2-0.2-2.9,0.3c-0.9,0.4-1.8,1.1-2.6,2c-1.6,1.7-3.2,4.3-4.2,7.3L578.8,189.7z M579.7,200.6c-0.8-0.3-1.6-1.3-1.9-3.4
	c-0.3-2,0-4.7,0.9-7.6l-1.9-0.6c-1,3.1-1.3,6.1-1,8.5c0.3,2.3,1.3,4.4,3.2,5L579.7,200.6z M578.5,201.2L578.5,201.2l1.8,0.8l0,0
	L578.5,201.2z M579.1,202.5c1,0.3,2.1,0.1,3-0.3l-0.9-1.8c-0.7,0.3-1.2,0.4-1.5,0.2L579.1,202.5z"/>
<path class="st21" d="M117.5,418.1c-1.2-5.8-2.3-11.5-1.7-17.5c0.9-7.5,4.9-14.3,9.3-20.5c2.6-3.7,7-7.7,11.2-5.8
	c1.6,0.7,2.8,2.3,3.7,3.8c6.3,11.2,4.5,24.8,3.8,37.6c-0.5,8.7-0.5,17.7-3.5,26.1c-1,2.8-2.3,5.4-4.5,7.5c-2.1,1.9-5.2,3.1-8,2.4
	c-6.5-1.6-8-10.3-8.2-15.9C119.2,429.6,118.7,424.2,117.5,418.1z"/>
<path class="st12" d="M136.4,481.4c3.5,1,7.2,2.4,8.7,5.4c-2.1,3.1-4.7,6.1-7.5,8.9c-4.2,4-9.6,7.7-15.6,7
	c-5.9-0.5-10.5-5.2-14.9-8.9c-3.8-3.3-9.6-5.4-13.1-8.7c-4.9-4.7,1.6-5.6,6.1-6.1C112.2,477.2,124.8,478,136.4,481.4z"/>
<path class="st22" d="M119.2,493.4c-5.4-6.8-33.7-17.7-40-23.8c-11-10.7-17.3-25.9-17.3-41.3c0-18.5,8.9-36,9.1-54.6
	c0.2-8.6-1.6-17-1.2-25.4c0.3-8.4,3.5-17.5,10.7-22c10.3-6.5,25,0,31.1,10.5c6.3,10.5,6.3,23.4,5.1,35.7
	c-1.2,12.2-3.1,24.7-0.2,36.5c4.7,19.2,21.5,33.6,26.8,52.6c2.1,7.3-17.1,22.7-17.3,30.2c-0.2,8.6-0.7,19.9-4.4,27.6
	c-5.2,10.8,8.4,15.4-1.9,3.1C112.6,514.9,127.1,503.2,119.2,493.4z"/>
<path class="st11" d="M121.2,503.4l-0.9-0.2c3.5-20.1-0.5-41.8-11.2-59.3c-1.2-1.9-2.4-3.8-3.7-5.8c-3.5-5.2-7.2-10.8-8.9-17
	c-2.6-9.3-0.9-19.1,1-28.5c0.5-2.4,0.9-5.1,1.4-7.5c3-19.1-0.2-36.2-8.7-48.3l0.7-0.5c8.7,12.1,11.9,29.5,8.7,48.8
	c-0.3,2.4-0.9,5.1-1.4,7.5c-1.7,9.3-3.5,18.9-1,28c1.7,6.1,5.2,11.5,8.7,16.8c1.2,1.9,2.6,3.8,3.7,5.8
	C120.8,461.2,124.8,482.9,121.2,503.4z"/>
<path class="st11" d="M99.5,380.8C94,374.3,89,369.5,83,364.7l0.5-0.7c5.9,4.7,11,9.6,16.4,16.1L99.5,380.8z"/>
<path class="st11" d="M101.2,429.8l-0.7-0.5c1.4-2.3,3-5.1,4.7-7.7c1.6-2.8,3.3-5.6,4.7-7.7l0.7,0.5c-1.4,2.3-3,5.1-4.7,7.7
	C104.2,424.9,102.6,427.7,101.2,429.8z"/>
<path class="st11" d="M119.2,469.1c-2.4-4-7.5-5.1-12.2-6.3l-1.2-0.4c-7.2-1.7-14-4.7-20.1-8.6l0.5-0.7c6.1,3.8,12.9,6.6,19.9,8.4
	l1.2,0.4c4.7,1.2,10.1,2.4,12.8,6.6L119.2,469.1z"/>
<path class="st11" d="M95.8,403.4c-4.9-4.5-9.4-9.6-13.5-14.9L83,388c4.2,5.2,8.7,10.1,13.5,14.7L95.8,403.4z"/>
<path class="st11" d="M106.1,347.6l-6.9,14.2l0.8,0.4l6.9-14.2L106.1,347.6z"/>
<path class="st11" d="M113.8,450.4l-0.9-0.4c1.9-4.9,4.2-9.6,6.6-14.2l0.7,0.3C118,440.8,115.7,445.5,113.8,450.4z"/>
<path class="st11" d="M145.5,486.9c-17.5,5.1-36.7,3.3-53-4.5l9.4,58.6h29L145.5,486.9z"/>
<path class="st10" d="M136.7,518.9l1.2-4.5c-0.7,0.2-1.4,0.5-2.3,0.7c-4.4,1-9.1,1.2-13.6,1c-7.3-0.2-14.7-1.4-21.7-3.8
	c-1.2-0.5-2.4-1-3.7-1.6l0.7,4.9c0.5,0.2,0.9,0.3,1.4,0.5C111,520.9,124.7,523.5,136.7,518.9z"/>
<g class="st2">
	<path class="st23" d="M648.7,68.7c0-17.3-14.5-31.3-32-30.4c-15.6,0.9-28.1,13.6-28.7,29.2c-0.3,8.4,2.8,16.3,8.2,21.9
		c4.4,4.7,8,10,10.5,15.9l1.6,3.8v5.8h7.9h4h7.9v-5.8l1-2.6c2.8-6.5,6.8-12.4,11.5-17.7C645.7,83.6,648.7,76.4,648.7,68.7z"/>
	<path class="st24" d="M629.1,109.3h-21.5v15h21.5V109.3z"/>
	<path class="st24" d="M622,116.1h-6.1l-11-51.4l2.4-0.5l10.7,49.5h2.1l9.3-50.4l2.4,0.3L622,116.1z"/>
	<path class="st24" d="M618.3,129.4c2.6,0,4.7-2.1,4.7-4.7c0-2.6-2.1-4.7-4.7-4.7s-4.7,2.1-4.7,4.7
		C613.5,127.3,615.7,129.4,618.3,129.4z"/>
	<path class="st25" d="M619.3,2.1h-1.7v24.8h1.7V2.1z"/>
	<path class="st25" d="M679.5,78.7h-24.8v1.7h24.8V78.7z"/>
	<path class="st25" d="M582.2,62.2h-24.8V64h24.8V62.2z"/>
	<path class="st25" d="M573.1,22.3l-1.2,1.3L590.7,40l1.2-1.3L573.1,22.3z"/>
	<path class="st25" d="M658,16.6l-16.4,18.7l1.3,1.2l16.4-18.7L658,16.6z"/>
	<path class="st24" d="M454.6,88.3l-54.2-2.6V0l54.2,4.4V88.3z"/>
	<path class="st24" d="M118.5,229.9L80.4,228v-60.1l38.1,3.1V229.9z"/>
	<path class="st26" d="M128.5,263.1l-30.6-1.4v-48.4l30.6,2.4V263.1z"/>
	<path class="st27" d="M382.2,84.4l-47.7,1.7v-60l47.7,1.7V84.4z"/>
	<path class="st27" d="M237.3,446.2l-47.9,1.7v-60.1l47.9,1.7V446.2z"/>
	<path class="st28" d="M585.4,120.1l-3.5-0.5c-0.3-1.2-0.9-2.3-1.4-3.3l2.1-2.8c0.9-1.2,0.7-3-0.4-4l-3.1-3.1
		c-0.5-0.5-1.4-0.9-2.1-0.9c-0.7,0-1.2,0.2-1.7,0.5l-3,2.1c-1-0.5-2.3-1-3.5-1.4l-0.5-3.5c-0.2-1.4-1.6-2.6-3-2.6h-4.4
		c-1.6,0-2.8,1-3,2.6l-0.5,3.5c-1.2,0.3-2.3,0.9-3.3,1.4l-2.8-2.1c-0.5-0.3-1.2-0.5-1.7-0.5c-0.9,0-1.6,0.4-2.1,0.9l-3.1,3.1
		c-1,1-1.2,2.8-0.3,4l2.1,3c-0.5,1-1,2.3-1.4,3.3l-3.5,0.5c-1.4,0.2-2.6,1.6-2.6,3v4.4c0,1.6,1,2.8,2.6,3l3.5,0.5
		c0.3,1.2,0.9,2.3,1.4,3.3l-2.1,2.8c-0.9,1.2-0.7,3,0.3,4l3.1,3.1c0.5,0.5,1.4,0.9,2.1,0.9c0.7,0,1.2-0.2,1.7-0.5l3-2.1
		c1,0.5,2.1,1,3.3,1.4l0.5,3.5c0.2,1.4,1.6,2.6,3,2.6h4.4c1.6,0,2.8-1,3-2.6l0.5-3.5c1.2-0.3,2.3-0.9,3.3-1.4l2.8,2.1
		c0.5,0.4,1.2,0.5,1.7,0.5c0.9,0,1.6-0.3,2.1-0.9l3.1-3.1c1-1,1.2-2.8,0.4-4l-2.1-3c0.5-1,1-2.3,1.4-3.3l3.5-0.5
		c1.4-0.2,2.6-1.6,2.6-3v-4.4C587.8,121.5,586.8,120.3,585.4,120.1z M563,135.7c-5.8,0-10.3-4.7-10.3-10.3c0-5.8,4.7-10.3,10.3-10.3
		c5.8,0,10.3,4.7,10.3,10.3S568.8,135.7,563,135.7z"/>
	<path class="st29" d="M549.5,58.9l-2.8-0.5c-0.3-0.9-0.7-1.9-1.2-2.8l1.7-2.3c0.7-1,0.5-2.4-0.3-3.3l-2.4-2.4
		c-0.5-0.5-1-0.7-1.7-0.7c-0.5,0-1,0.2-1.4,0.5l-2.4,1.7c-0.9-0.5-1.9-0.9-2.8-1.2l-0.5-2.8c-0.2-1.2-1.2-2.1-2.4-2.1h-3.5
		c-1.2,0-2.3,0.9-2.4,2.1l-0.5,3c-0.9,0.3-1.9,0.7-2.8,1.2l-2.3-1.7c-0.4-0.3-0.9-0.5-1.4-0.5c-0.7,0-1.2,0.3-1.7,0.7l-2.6,2.4
		c-0.9,0.9-1,2.3-0.3,3.3l1.7,2.4c-0.5,0.9-0.9,1.7-1,2.8l-2.8,0.5c-1.2,0.2-2.1,1.2-2.1,2.4v3.5c0,1.2,0.9,2.3,2.1,2.4l3,0.5
		c0.4,0.9,0.7,1.9,1.2,2.8l-1.7,2.3c-0.7,1-0.5,2.4,0.4,3.3l2.4,2.4c0.5,0.5,1,0.7,1.7,0.7c0.5,0,1-0.2,1.4-0.5l2.4-1.7
		c0.9,0.5,1.7,0.9,2.6,1l0.5,2.8c0.2,1.2,1.2,2.1,2.4,2.1h3.7c1.2,0,2.3-0.9,2.4-2.1l0.5-2.8c0.9-0.3,1.9-0.7,2.8-1.2l2.3,1.7
		c0.3,0.3,0.9,0.5,1.4,0.5c0.7,0,1.2-0.3,1.7-0.7l2.4-2.4c0.9-0.9,1-2.3,0.3-3.3l-1.7-2.4c0.5-0.9,0.9-1.7,1.2-2.8l2.8-0.5
		c1.2-0.2,2.1-1.2,2.1-2.4v-3.5C551.6,60.3,550.8,59.3,549.5,58.9z M531.4,71.9c-4.7,0-8.6-3.8-8.6-8.6c0-4.7,3.8-8.6,8.6-8.6
		c4.7,0,8.6,3.8,8.6,8.6C539.8,68,536.1,71.9,531.4,71.9z"/>
	<path class="st23" d="M528,99h-76.6v53.5h40.7l-4.4,13.6l17.8-13.6H528V99z"/>
	<path class="st24" d="M477.2,143c0,1.6-1.4,3-3,3s-3-1.4-3-3c0-1.6,1.4-3,3-3S477.2,141.4,477.2,143z"/>
	<path class="st24" d="M492,126.6c0,1.6-1.4,3-3,3c-1.6,0-3-1.4-3-3c0-1.6,1.4-3,3-3C490.6,123.6,492,125,492,126.6z"/>
	<path class="st24" d="M506.9,126.6c0,1.6-1.4,3-3,3c-1.6,0-3-1.4-3-3c0-1.6,1.4-3,3-3C505.7,123.6,506.9,125,506.9,126.6z"/>
</g>
</svg>
