<?xml version="1.0" encoding="utf-8"?>
<!-- Generator: Adobe Illustrator 24.0.0, SVG Export Plug-In . SVG Version: 6.00 Build 0)  -->
<svg version="1.1" id="Layer_1" xmlns="http://www.w3.org/2000/svg" xmlns:xlink="http://www.w3.org/1999/xlink" x="0px" y="0px"
	 viewBox="0 0 759 571" style="enable-background:new 0 0 759 571;" xml:space="preserve">
<style type="text/css">
	.st0{fill:#FFFFFF;stroke:#606060;}
	.st1{opacity:0.3;fill:#A9A9A9;enable-background:new    ;}
	.st2{display:none;}
	.st3{display:inline;fill:#EFEFEF;}
	.st4{display:inline;fill:#D02E1B;}
	.st5{display:inline;fill:#E7E7E7;}
	.st6{display:inline;fill:#606060;}
	.st7{display:inline;fill:#C2C2C2;}
	.st8{display:inline;fill:#DBDBDB;}
	.st9{display:inline;opacity:0.7;fill:#DBDBDB;enable-background:new    ;}
</style>
<g>
	<path class="st0" d="M418.1,56.1v347.7l-317.7,25.8V30.3L418.1,56.1z"/>
	<path class="st1" d="M199.3,130.1c1.4,12.2,11.5,22.2,12.1,34.6c0.7,14.7-12.1,25.9-23.4,35.3c-11.2,9.3-22.2,19.2-28.2,32.5
		c-5.9,13.1-5.4,30.2,4.7,40.6c12.2,12.2,32.9,10.7,46.5,21c10.5,7.9,15,21.2,22,32.3c15,23.8,43.7,38.3,71.9,36.2
		c7.7-0.5,16.3-2.8,20.5-9.3c5.2-7.9,2.4-18.5-2.3-26.6c-4.7-8-11.2-15.6-13.1-24.7c-4.4-19.4,12.4-36.9,28.7-48.4
		c16.3-11.4,35.5-23.4,39.2-43c4-20.8-11.5-40.4-28.5-53.2c-10.1-7.5-21.5-14.5-27.1-25.9c-4.5-9.3-4.2-20.3-7.9-30.1
		c-4.9-13.5-17.7-23.8-31.8-25.9c-26.1-3.8-30.8,17.3-49.5,26.4C219.4,108.6,196.4,104.9,199.3,130.1z"/>
</g>
<g class="st2">
	<path class="st3" d="M648.7,68.7c0-17.3-14.5-31.3-32-30.4c-15.6,0.9-28.1,13.6-28.7,29.2c-0.3,8.4,2.8,16.3,8.2,21.9
		c4.4,4.7,8,10,10.5,15.9l1.6,3.8v5.8h7.9h4h7.9v-5.8l1-2.6c2.8-6.5,6.8-12.4,11.5-17.7C645.7,83.6,648.7,76.4,648.7,68.7z"/>
	<path class="st4" d="M629.1,109.3h-21.5v15h21.5V109.3z"/>
	<path class="st4" d="M622,116.1h-6.1l-11-51.4l2.4-0.5l10.7,49.5h2.1l9.3-50.4l2.4,0.3L622,116.1z"/>
	<path class="st4" d="M618.3,129.4c2.6,0,4.7-2.1,4.7-4.7c0-2.6-2.1-4.7-4.7-4.7s-4.7,2.1-4.7,4.7
		C613.5,127.3,615.7,129.4,618.3,129.4z"/>
	<path class="st5" d="M619.3,2.1h-1.7v24.8h1.7V2.1z"/>
	<path class="st5" d="M679.5,78.7h-24.8v1.7h24.8V78.7z"/>
	<path class="st5" d="M582.2,62.2h-24.8V64h24.8V62.2z"/>
	<path class="st5" d="M573.1,22.3l-1.2,1.3L590.7,40l1.2-1.3L573.1,22.3z"/>
	<path class="st5" d="M658,16.6l-16.4,18.7l1.3,1.2l16.4-18.7L658,16.6z"/>
	<path class="st4" d="M454.6,88.3l-54.2-2.6V0l54.2,4.4V88.3z"/>
	<path class="st4" d="M118.5,229.9L80.4,228v-60.1l38.1,3.1V229.9z"/>
	<path class="st6" d="M128.5,263.1l-30.6-1.4v-48.4l30.6,2.4V263.1z"/>
	<path class="st7" d="M382.2,84.4l-47.7,1.7v-60l47.7,1.7V84.4z"/>
	<path class="st7" d="M237.3,446.2l-47.9,1.7v-60.1l47.9,1.7V446.2z"/>
	<path class="st8" d="M585.4,120.1l-3.5-0.5c-0.3-1.2-0.9-2.3-1.4-3.3l2.1-2.8c0.9-1.2,0.7-3-0.4-4l-3.1-3.1
		c-0.5-0.5-1.4-0.9-2.1-0.9c-0.7,0-1.2,0.2-1.7,0.5l-3,2.1c-1-0.5-2.3-1-3.5-1.4l-0.5-3.5c-0.2-1.4-1.6-2.6-3-2.6h-4.4
		c-1.6,0-2.8,1-3,2.6l-0.5,3.5c-1.2,0.3-2.3,0.9-3.3,1.4l-2.8-2.1c-0.5-0.3-1.2-0.5-1.7-0.5c-0.9,0-1.6,0.4-2.1,0.9l-3.1,3.1
		c-1,1-1.2,2.8-0.3,4l2.1,3c-0.5,1-1,2.3-1.4,3.3l-3.5,0.5c-1.4,0.2-2.6,1.6-2.6,3v4.4c0,1.6,1,2.8,2.6,3l3.5,0.5
		c0.3,1.2,0.9,2.3,1.4,3.3l-2.1,2.8c-0.9,1.2-0.7,3,0.3,4l3.1,3.1c0.5,0.5,1.4,0.9,2.1,0.9c0.7,0,1.2-0.2,1.7-0.5l3-2.1
		c1,0.5,2.1,1,3.3,1.4l0.5,3.5c0.2,1.4,1.6,2.6,3,2.6h4.4c1.6,0,2.8-1,3-2.6l0.5-3.5c1.2-0.3,2.3-0.9,3.3-1.4l2.8,2.1
		c0.5,0.4,1.2,0.5,1.7,0.5c0.9,0,1.6-0.3,2.1-0.9l3.1-3.1c1-1,1.2-2.8,0.4-4l-2.1-3c0.5-1,1-2.3,1.4-3.3l3.5-0.5
		c1.4-0.2,2.6-1.6,2.6-3v-4.4C587.8,121.5,586.8,120.3,585.4,120.1z M563,135.7c-5.8,0-10.3-4.7-10.3-10.3c0-5.8,4.7-10.3,10.3-10.3
		c5.8,0,10.3,4.7,10.3,10.3S568.8,135.7,563,135.7z"/>
	<path class="st9" d="M549.5,58.9l-2.8-0.5c-0.3-0.9-0.7-1.9-1.2-2.8l1.7-2.3c0.7-1,0.5-2.4-0.3-3.3l-2.4-2.4
		c-0.5-0.5-1-0.7-1.7-0.7c-0.5,0-1,0.2-1.4,0.5l-2.4,1.7c-0.9-0.5-1.9-0.9-2.8-1.2l-0.5-2.8c-0.2-1.2-1.2-2.1-2.4-2.1h-3.5
		c-1.2,0-2.3,0.9-2.4,2.1l-0.5,3c-0.9,0.3-1.9,0.7-2.8,1.2l-2.3-1.7c-0.4-0.3-0.9-0.5-1.4-0.5c-0.7,0-1.2,0.3-1.7,0.7l-2.6,2.4
		c-0.9,0.9-1,2.3-0.3,3.3l1.7,2.4c-0.5,0.9-0.9,1.7-1,2.8l-2.8,0.5c-1.2,0.2-2.1,1.2-2.1,2.4v3.5c0,1.2,0.9,2.3,2.1,2.4l3,0.5
		c0.4,0.9,0.7,1.9,1.2,2.8l-1.7,2.3c-0.7,1-0.5,2.4,0.4,3.3l2.4,2.4c0.5,0.5,1,0.7,1.7,0.7c0.5,0,1-0.2,1.4-0.5l2.4-1.7
		c0.9,0.5,1.7,0.9,2.6,1l0.5,2.8c0.2,1.2,1.2,2.1,2.4,2.1h3.7c1.2,0,2.3-0.9,2.4-2.1l0.5-2.8c0.9-0.3,1.9-0.7,2.8-1.2l2.3,1.7
		c0.3,0.3,0.9,0.5,1.4,0.5c0.7,0,1.2-0.3,1.7-0.7l2.4-2.4c0.9-0.9,1-2.3,0.3-3.3l-1.7-2.4c0.5-0.9,0.9-1.7,1.2-2.8l2.8-0.5
		c1.2-0.2,2.1-1.2,2.1-2.4v-3.5C551.6,60.3,550.8,59.3,549.5,58.9z M531.4,71.9c-4.7,0-8.6-3.8-8.6-8.6c0-4.7,3.8-8.6,8.6-8.6
		c4.7,0,8.6,3.8,8.6,8.6C539.8,68,536.1,71.9,531.4,71.9z"/>
	<path class="st3" d="M528,99h-76.6v53.5h40.7l-4.4,13.6l17.8-13.6H528V99z"/>
	<path class="st4" d="M477.2,143c0,1.6-1.4,3-3,3s-3-1.4-3-3c0-1.6,1.4-3,3-3S477.2,141.4,477.2,143z"/>
	<path class="st4" d="M492,126.6c0,1.6-1.4,3-3,3c-1.6,0-3-1.4-3-3c0-1.6,1.4-3,3-3C490.6,123.6,492,125,492,126.6z"/>
	<path class="st4" d="M506.9,126.6c0,1.6-1.4,3-3,3c-1.6,0-3-1.4-3-3c0-1.6,1.4-3,3-3C505.7,123.6,506.9,125,506.9,126.6z"/>
</g>
</svg>
