<?xml version="1.0" encoding="utf-8"?>
<!-- Generator: Adobe Illustrator 24.0.0, SVG Export Plug-In . SVG Version: 6.00 Build 0)  -->
<svg version="1.1" id="Layer_1" xmlns="http://www.w3.org/2000/svg" xmlns:xlink="http://www.w3.org/1999/xlink" x="0px" y="0px"
	 viewBox="0 0 725 570" style="enable-background:new 0 0 725 570;" xml:space="preserve">
<style type="text/css">
	.st0{opacity:0.6;fill:#E0E0E0;enable-background:new    ;}
	.st1{opacity:0.5;fill:#FFFFFF;enable-background:new    ;}
	.st2{display:none;}
	.st3{display:inline;opacity:0.6;fill:#E0E0E0;enable-background:new    ;}
	.st4{fill:#F43E29;}
	.st5{fill:#D02E1B;}
	.st6{fill:#5A5A5A;}
	.st7{fill:#474747;}
	.st8{fill:#303030;}
	.st9{fill:#FFFFFF;}
	.st10{fill:#EDEDED;}
	.st11{fill:#727272;}
	.st12{opacity:0.4;fill:#616161;enable-background:new    ;}
	.st13{fill:#B2B2B2;}
	.st14{fill:#BFBFBF;}
	.st15{fill:#0F0F0F;}
	.st16{fill:#4A4A4A;}
	.st17{fill:#1C47BF;}
	.st18{fill:#A8A8A8;}
	.st19{fill:#7E7E7E;}
	.st20{fill:#9C9C9C;}
	.st21{fill:#CFCFCF;}
	.st22{opacity:0.3;fill:#FFFFFF;enable-background:new    ;}
	.st23{opacity:0.2;fill:#FFFFFF;enable-background:new    ;}
	.st24{fill:#FF4059;}
	.st25{fill:#202020;}
	.st26{display:inline;fill:#5A5A5A;}
	.st27{display:inline;fill:#B2B2B2;}
</style>
<path class="st0" d="M677,359.8c-4.8,25.3-14.3,48.9-27.4,69.5c-36.2,57.5-100.3,94.6-171.7,94.6H341c-55.6,0-108.5-22.8-146.8-62.8
	c-1.7-1.7-3.4-3.6-4.8-5.3c-21.3-24-36.7-52.4-44.9-83.2c-2.7-10.3-4.6-20.6-5.7-31.4c0-0.2,0-0.4,0-0.8
	c-1.9-19.4-2.5-37.9-1.5-55.4c2.1-39,12-72.9,31-98.2c22.1-29.5,56.7-47.2,106.2-47.6c2.1,0,4.2,0,6.3,0
	c136.3,2.1,131.9,64.2,243.5,91.6c25.5,6.3,57.1,10.7,97.9,12c0.8,0,1.9,0,2.7,0.2C682.3,246.9,688.4,300.4,677,359.8z"/>
<path class="st1" d="M625,243.1c-38.5,20.2-99,41.7-171.7,33.9c-110.4-12-249.4-35-316,8.2c2.1-39,12-72.9,31-98.2
	c23.4-5.5,52.9-5.7,90.4,4c81.1,20.9,186.4,43.8,265.6,39.8c25.5,6.3,57.1,10.7,97.9,12C623.1,243.1,624.1,243.1,625,243.1z"/>
<path class="st1" d="M677,359.8c-4.8,25.3-14.3,48.9-27.4,69.5c-28,8.4-65.1,11.6-113.3,1.1c-117.5-25.7-246.7-25.3-342.1,30.5
	c-1.7-1.7-3.4-3.6-4.8-5.3c-21.3-24-36.7-52.5-44.9-83.2c33.3-15.8,116.7-46.3,224.3-21.9C482.4,376.6,612.3,397.3,677,359.8z"/>
<g class="st2">
	<path class="st3" d="M0,62.8c0,2.7,1.1,5.1,2.7,6.7c1.7,1.7,4.2,2.7,6.7,2.7h206.6c5.3,0,9.7-4.4,9.7-9.7c0-2.7-1.1-5.1-2.7-6.7
		s-4.2-2.9-6.7-2.9h-9.7c-3.8-9.1-12.8-15.2-23.2-15.2c-7,0-13.3,2.7-17.9,7.4c-6.1-10.3-17.3-17.3-30.1-17.3c-3.6,0-7,0.6-10.1,1.5
		C118.6,16.6,105.3,8,89.9,8C71.6,8,56,20.4,51.4,37.3c-3.4-1.7-7.2-2.7-11.4-2.7c-11.4,0-21.1,7.6-24.2,18.1H9.5
		C4.2,53.1,0,57.5,0,62.8z"/>
	<path class="st3" d="M463.4,87c0,1.7-0.6,3.4-1.9,4.4c-1.1,1.1-2.7,1.9-4.4,1.9h-134c-3.4,0-6.3-2.7-6.3-6.3c0-1.7,0.6-3.4,1.9-4.4
		c1.1-1.1,2.7-1.9,4.4-1.9h6.3c2.5-5.9,8.2-9.9,15-9.9c4.4,0,8.6,1.9,11.6,4.8c4-6.7,11.2-11.2,19.6-11.2c2.3,0,4.4,0.4,6.5,1.1
		c4.4-8.2,13.1-13.7,23-13.7c12,0,21.9,8,25.1,19c2.1-1.1,4.6-1.7,7.4-1.7c7.4,0,13.7,5.1,15.6,11.8h4
		C460.7,80.7,463.4,83.6,463.4,87z"/>
	<path class="st3" d="M498.8,51.8c0,2.5,1.1,4.8,2.7,6.5c1.7,1.7,4,2.7,6.5,2.7h197.4c5.1,0,9.3-4.2,9.3-9.3c0-2.5-1.1-4.8-2.7-6.5
		c-1.7-1.7-4-2.7-6.5-2.7h-9.3C692.6,33.9,684,28,674.1,28c-6.7,0-12.6,2.7-17.1,7.2c-5.9-9.9-16.6-16.4-28.9-16.4
		c-3.4,0-6.5,0.4-9.7,1.5C612.1,8.2,599.3,0,584.7,0c-17.5,0-32.4,11.8-36.9,28c-3.2-1.7-7-2.5-10.7-2.5c-11,0-20.2,7.4-23.2,17.3
		h-5.9C503,42.5,498.8,46.8,498.8,51.8z"/>
</g>
<path class="st0" d="M710.7,551.5c0,10.1-153.1,18.5-342.1,18.5c-188.9,0-342.1-8.2-342.1-18.5c0-10.1,153.1-18.5,342.1-18.5
	C557.4,532.9,710.7,541.4,710.7,551.5z"/>
<path class="st4" d="M689,138.2v0.2L651.1,210l-14.3-26.1l-178.6,97.9l-28.9-52.5l-160.5,88.3h-61.9l234.2-128.7l28.9,52.4
	l152.5-83.6l-14.5-26.1L689,138.2z"/>
<path class="st5" d="M689,138.4L651.1,210l-14.3-26.1l-178.6,97.9l-28.9-52.4l-160.5,88.3h-35.4l200.3-110l28.9,52.5L689,138.4z"/>
<path class="st6" d="M166.6,396.6v117.7H67.2c0-0.8,0.2-1.5,0.2-2.3c7-48.9,41.9-55.4,63.4-76.7c2.1-2.1,4-4.4,5.9-6.7
	c4-5.3,7.6-16.4,11-30.3c0.6-2.9,1.5-6.1,2.1-9.5C156.5,389.7,162.2,392.8,166.6,396.6z"/>
<path class="st7" d="M166.6,396.6v117.7h-16.2c-13.9-24-18.5-54.6-19.4-79c2.1-2.1,4-4.4,5.9-6.7c4-5.3,7.6-16.4,11-30.3
	c0.6-2.9,1.5-6.1,2.1-9.5C156.5,389.7,162.2,392.8,166.6,396.6z"/>
<path class="st6" d="M261.6,396.6v117.7H361c0-0.8-0.2-1.5-0.2-2.3c-7-48.9-41.9-55.4-63.4-76.7c-2.1-2.1-4-4.4-5.9-6.7
	c-4-5.3-7.6-16.4-11-30.3c-0.6-2.9-1.5-6.1-2.1-9.5C271.7,389.7,266,392.8,261.6,396.6z"/>
<path class="st7" d="M261.6,396.6v117.7h16.2c13.9-24,18.5-54.6,19.4-79c-2.1-2.1-4-4.4-5.9-6.7c-4-5.3-7.6-16.4-11-30.3
	c-0.6-2.9-1.5-6.1-2.1-9.5C271.7,389.7,266,392.8,261.6,396.6z"/>
<path class="st8" d="M276.8,543.5c-13.9,7.4-28.2,12-42.8,13.9c-26.3,3.6-53.9-1.3-82.2-13.9l5.9-11l4-7.8l5.5-10.3h94.4l5.7,10.7
	l4,7.6L276.8,543.5z"/>
<path class="st9" d="M271.1,532.7c-18.1,8.6-37.1,12.6-56.2,12.2c-18.5-0.2-37.7-4.6-57.3-12.6l4-7.8l5.5-10.3h94.4l5.7,10.7
	L271.1,532.7z"/>
<path class="st8" d="M267.1,525.1c-18.5,8-37.9,11.4-57.7,10.3c-15.6-0.8-31.6-4.6-47.8-10.7l5.5-10.3h94.4L267.1,525.1z"/>
<path class="st10" d="M261.6,514.4c-13.5,4-26.8,6.3-40,7c-2.3,0.2-4.6,0.2-7,0.2s-4.6,0-7-0.2c-13.3-0.6-26.8-3.2-40-7
	c-26.3-59-26.5-155-3.2-258.5c1.1-4.4,2.1-8.8,3.2-13.3h93.9c1.1,4.4,2.1,8.6,2.9,13.1C288.2,359.1,288,455.4,261.6,514.4z"/>
<path class="st8" d="M264.6,255.7c-32.2,12.6-68.2,12.8-100.5,0.2c1.1-4.4,2.1-8.8,3.2-13.3h94.4
	C262.7,247.1,263.7,251.3,264.6,255.7z"/>
<path class="st6" d="M261.6,242.7c-30.1,13.3-64,13.3-94.4,0c0,0,13.5-57.1,40.7-90.2c1.9-2.3,4.6-3.2,7.2-2.7
	c1.9,0.2,3.6,1.3,4.8,2.7C247.3,185.6,261.6,242.7,261.6,242.7z"/>
<path class="st8" d="M251.9,333.4c4.3-20.4-8.7-40.4-29.1-44.7c-20.4-4.3-40.4,8.7-44.7,29.1c-4.3,20.4,8.7,40.4,29.1,44.7
	C227.6,366.8,247.6,353.8,251.9,333.4z"/>
<path class="st11" d="M245,325.7c0,0.2,0,0.2,0,0.4c-0.2,16.2-13.3,29.3-29.5,29.5c-0.2,0-0.2,0-0.4,0c-2.7,0-5.5-0.4-8.2-1.1
	c-4.6-1.3-8.8-3.8-12.4-7c-2.9-2.7-5.3-6.1-7-9.9c-1.5-3.6-2.5-7.6-2.5-11.8c0-16.4,13.5-29.9,29.9-29.9c4.2,0,8.2,0.8,11.8,2.5
	c3.8,1.7,7.2,4,9.9,7c3.2,3.4,5.7,7.6,7,12.4C244.6,320.2,245,322.9,245,325.7z"/>
<path class="st1" d="M236.8,305.2l-42.3,42.3c-2.9-2.7-5.3-6.1-7-9.9l39.2-39.2C230.7,300,234,302.3,236.8,305.2z"/>
<path class="st1" d="M245,325.7c0,0.2,0,0.2,0,0.4l-29.5,29.5c-0.2,0-0.2,0-0.4,0c-2.7,0-5.5-0.4-8.2-1.1l36.9-36.9
	C244.6,320.2,245,322.9,245,325.7z"/>
<path class="st12" d="M243.7,317.6c-1.3-4.6-3.8-8.8-7-12.4c-2.7-2.9-6.1-5.3-9.9-7c-3.6-1.5-7.6-2.5-11.8-2.5
	c-16.4,0-29.9,13.5-29.9,29.9c0,0.8,0,1.7,0,2.5c1.3-15.4,14.1-27.4,29.7-27.4c4.2,0,8.2,0.8,11.8,2.5c3.8,1.7,7.2,4,9.9,7
	c3.2,3.4,5.7,7.6,7,12.4c0.4,1.9,0.8,3.8,1.1,5.7c0-0.6,0-1.5,0-2.1c0-0.2,0-0.2,0-0.4C245,322.9,244.6,320.2,243.7,317.6z"/>
<path class="st6" d="M212.8,385.9c-5.7,25.9-23.2,118.2-1.3,176.1c0.4,1.1,1.3,1.9,2.3,2.1c1.5,0.2,2.9-0.6,3.6-1.9
	c21.9-57.7,4.4-150.2-1.3-176.1c-0.2-0.8-0.8-1.3-1.7-1.3C213.4,384.6,212.8,385.3,212.8,385.9z"/>
<path class="st13" d="M672.4,555.9h-23.6c-3.2,0-6.1-3.6-7-9.1l-9.9-53.9c-0.4-2.1,0.4-4.4,1.7-4.6c18.1-2.5,36-2.5,53.9,0
	c1.3,0.2,2.1,2.5,1.7,4.6l-9.9,53.9C678.5,552.3,675.5,555.9,672.4,555.9z"/>
<path class="st8" d="M660.8,494.8c14.7,0,26.5-1.1,26.5-2.5s-11.9-2.5-26.5-2.5c-14.7,0-26.5,1.1-26.5,2.5S646.1,494.8,660.8,494.8z
	"/>
<path class="st6" d="M705.2,419.2c-14.1-3.8-35.6,25.5-42.1,54.1v-41.7c3.4-5.9,9.5-14.5,21.1-23.8c17.7-14.5,34.1-32.9,19.8-36.7
	c-13.3-3.6-33.1,22.1-40.9,48.9v-53.5c2.3-3.6,6.1-8.2,12-13.1c11.2-9.1,21.5-20.9,12.6-23.2c-7.8-2.1-19,11.6-24.4,27.2v-17.3
	c0.8-5.3,2.1-13.1,5.7-20.9c8.2-18.1,12.6-36.9,1.9-35.4c-10.7,1.5-17.9,33.7-12,58.3v8.8c-4-18.1-17.7-36.9-26.8-34.5
	c-8.8,2.3,1.5,14.1,12.6,23.2c8.4,7,12.4,13.5,14.1,16.9v42.1c-6.3-28.6-28.2-58.3-42.3-54.6c-14.1,3.8,2.1,22.3,19.8,36.7
	c13.5,11,19.8,21.1,22.3,26.8v50.6c-7-28.2-28-56.7-41.9-52.9c-14.1,3.8-2.1,17.3,17.9,33.7c13.5,11.2,20.9,23,24,29.3v23.8
	c1.7,0.4,3.2,0.4,4.4,0v-9.5c2.7-5.7,9.1-15.8,22.3-26.5C703.1,441.5,719.3,423,705.2,419.2z"/>
<path class="st14" d="M308,514.4l-7.2,9.7c0,0,1.3,4.4,6.7,7.6l8.6-11.2L308,514.4z"/>
<path class="st13" d="M306.3,528.7c0,0,3.4-0.6,4.6,0.4c1.1,1.3,4,17.1,6.7,20.6c2.7,3.6,0,5.3-1.7,6.1
	c-1.7,0.6-25.7-23.2-25.7-23.2s5.9-8.2,8.8-9.7C301.8,521.1,303.3,527,306.3,528.7z"/>
<path class="st14" d="M352.4,531l1.1,12c0,0,3.8,2.3,10.1,1.3l-1.1-14.1L352.4,531z"/>
<path class="st13" d="M361.5,542.6c0,0,2.1-2.9,3.8-2.7c1.7,0,15.2,10.3,19.6,11.2c4.6,0.8,3.8,4.2,2.9,5.9c-0.8,1.7-36,0.6-36,0.6
	s-1.3-11.4-0.2-14.5C352.6,539.9,357.9,543.5,361.5,542.6z"/>
<path class="st15" d="M345.6,400.4l-7.4,60.5c0,0-6.5,8.8-12.8,20.2c-5.3,9.5-19.2,34.3-19.2,34.3l8.4,6.5l46.3-48l12.4-74.1
	L345.6,400.4z"/>
<path class="st16" d="M316.8,521.8c-0.8,1.9-2.1,3.2-3.8,4.2l-9.9-8.2c0.8-1.7,1.9-3.2,3.4-4.6L316.8,521.8z"/>
<path class="st8" d="M308.2,403c0,0,13.1,32,29.9,57.1c0,0,2.5,24.2,7,37.3c1.9,5.7,5.5,32.4,5.5,32.4l12.8-0.6l-3.4-74.8
	l-13.7-54.1L308.2,403z"/>
<path class="st16" d="M364.6,528.7c0.8,2.3,0.6,4.4,0,6.7l-15,0.4c-0.6-2.1-0.8-4.2-0.6-6.5L364.6,528.7z"/>
<path class="st7" d="M371.1,289l16.9,27.4h-15.4C372.6,316.4,369.7,299.1,371.1,289z"/>
<path class="st6" d="M375.4,398.7c0,2.5,0,4.6,0,6.1c-6.3,1.7-12.4,2.9-18.7,3.6c-0.2,0-0.4,0-0.4,0c-0.2,0-0.6,0-0.8,0h-0.2
	c-1.1,0.2-2.1,0.2-3.2,0.2c-5.3,0.4-10.7,0.6-16,0.2c-0.4,0-0.8,0-1.5,0c-0.4,0-0.8,0-1.3,0c-0.2,0-0.4,0-0.6,0c-0.4,0-0.6,0-1.1,0
	c-7.8-0.6-15.8-2.1-23.6-4.2c0-3.2,0-9.5,0-17.5c0-0.4,0-0.8,0-1.3c0-9.1,0-20,0.2-31.4c0-0.8,0-1.9,0-2.7c0-1.1,0-2.1,0-3.2
	c0-0.2,0-0.4,0-0.6c0-0.2,0-0.4,0-0.8c0-0.4,0-1.1,0-1.5c0-0.6,0-1.5,0-2.1c0-0.6,0-1.1,0-1.7c0-1.1,0-2.1,0-3.2
	c0.4-22.5,1.1-43.2,2.5-48.4c0.2-0.4,0.2-0.8,0.4-1.1c0.2-0.2,0.4-0.4,0.6-0.6c0.2-0.2,0.6-0.6,0.8-0.8c2.3-2.3,6.5-4.8,10.7-7.2
	c0.4-0.2,1.1-0.6,1.5-0.8l11.6-4l12,0.8c1.5,0.8,12.8,4.6,14.1,5.5c0.4,0.2,0.8,0.4,1.3,0.8c3.2,2.1,6.1,4.2,7.2,5.9
	c1.7,2.5,2.7,25.5,3.4,50.6c0,0.6,0,1.1,0,1.7c0,2.7,0.2,5.3,0.2,8c0,2.5,0,5.3,0.2,7.8c0,4.2,0.2,8.4,0.2,12.4c0,0.4,0,0.8,0,1.5
	c0,4,0,7.8,0.2,11.2c0,0.4,0,0.8,0,1.3c0,5.3,0,9.9,0,13.7C375.4,397.9,375.4,398.3,375.4,398.7z"/>
<path class="st17" d="M353.2,311.8l13.7-0.8c0,0,0.4,16.6-6.7,16.2C353,326.5,353.2,311.8,353.2,311.8z"/>
<path class="st7" d="M322.3,385.3c12.9,0,24-5.9,31-11c7.6-5.3,12.2-10.7,12.2-10.7c0.2-0.2,0.2-0.6,0-0.8c-0.2-0.2-0.6-0.2-0.8,0
	c0,0-4.6,5.3-12,10.5c-6.7,4.8-17.7,10.5-30.1,10.5c-0.4,0-0.6,0.2-0.6,0.6C321.6,385.1,321.9,385.3,322.3,385.3z"/>
<path class="st17" d="M335.8,389.7c11.2,0,22.3-6.3,23-6.7c0.2-0.2,0.4-0.6,0.2-0.8c-0.2-0.2-0.6-0.4-0.8-0.2
	c-0.2,0-13.3,7.6-25.1,6.3c-0.4,0-0.6,0.2-0.6,0.6c0,0.4,0.2,0.6,0.6,0.6C333.9,389.7,334.7,389.7,335.8,389.7z"/>
<path class="st9" d="M353.9,369.3l-5.9,18.3l-8.2-16.4l2.1-71v-2.7l3.2-0.4l0.4,3.6L353.9,369.3z"/>
<path class="st10" d="M345.4,300.6l-1.5,1.9l-2.1-2.3v-2.7l3.2-0.4L345.4,300.6z"/>
<path class="st9" d="M337.9,293.6l6.1,6.1l4.2-7.6l-4.2-6.7L337.9,293.6z"/>
<path class="st7" d="M334.7,275.3l-1.9,1.3c-0.4,0.4-1.1,0.6-1.5,1.1c-1.5,1.3-1.9,2.1-1.5,4.2c0,0.4,0.2,0.6,0.2,0.8l3.4,16.4
	l10.3-13.9C344,285.4,336.6,282.7,334.7,275.3z"/>
<path class="st7" d="M348.4,275.9c0,0,4.8,4.4,3.4,9.9l-2.1,9.1l-5.7-9.5C344,285.4,348,282.9,348.4,275.9z"/>
<path class="st8" d="M324.2,245.2c0,10.3,6.3,17.5,16.9,17.5c10.3,0,17.7-7.8,17.7-18.1c0-10.3-6.1-18.3-16.6-18.3
	C329.4,226.4,324.2,234.9,324.2,245.2z"/>
<path class="st8" d="M325.2,251.5c0,0-2.3-2.7-1.9-9.7c0.2-7,2.7-9.1,2.7-9.1s-2.9-5.1-0.2-6.5c2.7-1.5,5.1,0,5.1,0s-1.9-3.2,0-3.6
	c1.9-0.4,4.8,1.5,4.8,1.5s14.1-5.3,18.5-2.3c4.4,3.2,1.5,12.4,0.2,13.5L325.2,251.5z"/>
<path class="st18" d="M326.5,249.6c0,0-2.9-3.8-5.1-0.6c-2.1,3.2,0.8,12.6,6.1,10.3L326.5,249.6z"/>
<path class="st19" d="M326.5,256.4c-0.2,0-0.4-0.2-0.4-0.4c-0.8-2.9-3.8-4-3.8-4c-0.2,0-0.4-0.4-0.2-0.6c0-0.2,0.4-0.4,0.6-0.2
	c0.2,0,3.4,1.3,4.4,4.6C326.9,256.1,326.7,256.4,326.5,256.4z"/>
<path class="st19" d="M323.3,254.9h-0.2c-0.2-0.2-0.2-0.4-0.2-0.6c0,0,0.6-0.8,1.7-1.3c0.2,0,0.4,0,0.6,0.2c0,0.2,0,0.4-0.2,0.6
	c-0.8,0.4-1.3,1.1-1.3,1.1S323.5,254.9,323.3,254.9z"/>
<path class="st18" d="M356.2,249.6c0,0,2.9-3.8,5.1-0.6c2.1,3.2-0.8,12.6-6.1,10.3L356.2,249.6z"/>
<path class="st19" d="M356.2,256.4c0.2,0,0.4-0.2,0.4-0.4c0.8-2.9,3.8-4,3.8-4c0.2,0,0.4-0.4,0.2-0.6c0-0.2-0.4-0.4-0.6-0.2
	c-0.2,0-3.4,1.3-4.4,4.6C355.8,256.1,356,256.4,356.2,256.4z"/>
<path class="st19" d="M359.4,254.9h0.2c0.2-0.2,0.2-0.4,0.2-0.6c0,0-0.6-0.8-1.7-1.3c-0.2,0-0.4,0-0.6,0.2c0,0.2,0,0.4,0.2,0.6
	c0.8,0.4,1.3,1.1,1.3,1.1S359.1,254.9,359.4,254.9z"/>
<path class="st14" d="M348.4,267.3v9.3c0,0,1.3,8.8-5.9,8.6c-3.8,0-7.8-7.8-7.8-7.8v-9.7L348.4,267.3z"/>
<path class="st18" d="M348.4,267.3v4.2c-2.5,2.7-7,3.6-13.7,2.5v-6.1L348.4,267.3z"/>
<path class="st14" d="M358.3,243.3c-0.2,3.6-0.4,8.2-1.3,11.8c-0.2,0.8-0.4,1.7-0.6,2.5c-1.9,7-7,18.7-20.6,13.7
	c-6.1-2.1-8.8-9.1-10.1-15.8c-0.8-4.6-1.1-9.5-0.8-12.8c0-3.4,1.9-6.5,5.1-8.2c8.2-4.6,16.6-2.9,22.3-0.6
	C356,235.3,358.5,239.1,358.3,243.3z"/>
<path class="st8" d="M336.2,250.2c0,1.1-0.4,1.9-1.1,1.9c-0.6,0-1.1-0.8-1.1-1.9c0-1.1,0.4-1.9,1.1-1.9
	C335.8,248.3,336.2,249.2,336.2,250.2z"/>
<path class="st8" d="M349.7,250.2c0,1.1-0.4,1.9-1.1,1.9c-0.6,0-1.1-0.8-1.1-1.9c0-1.1,0.4-1.9,1.1-1.9
	C349,248.3,349.7,249.2,349.7,250.2z"/>
<path class="st8" d="M351.6,244.1c0,0-3.6-1.5-6.3-0.2l0.2,1.5c0,0,4-0.4,6.1,0.4C351.8,245.2,351.8,244.8,351.6,244.1z"/>
<path class="st8" d="M330.5,244.1c0,0,3.6-1.5,6.3-0.2l-0.2,1.5c0,0-4-0.4-6.1,0.4C330.3,245.2,330.3,244.8,330.5,244.1z"/>
<path class="st18" d="M341.9,258c-0.8,0-1.5-0.2-1.7-0.2c-0.2,0-0.4-0.2-0.2-0.6c0-0.2,0.2-0.4,0.6-0.2c0.4,0.2,1.5,0.2,1.7,0
	c0,0,0.2-0.2,0.2-0.4c0-1.5-1.1-6.7-1.1-6.7c0-0.2,0-0.4,0.4-0.4c0.2,0,0.4,0,0.4,0.4c0,0.2,1.1,5.3,1.1,7c0,0.6-0.2,1.1-0.4,1.1
	C342.5,258,342.1,258,341.9,258z"/>
<path class="st9" d="M335.8,260.8c0.4,1.9,1.5,5.3,5.7,5.3c4,0,5.3-3.2,5.7-5.3H335.8z"/>
<path class="st18" d="M341,268.8c1.1,0,2.1-0.6,2.1-0.6c0.2-0.2,0.2-0.4,0.2-0.6c-0.2-0.2-0.4-0.2-0.6-0.2c0,0-0.8,0.4-1.7,0.4
	c-0.8,0-1.7-0.4-1.7-0.4c-0.2-0.2-0.4,0-0.6,0.2c-0.2,0.2,0,0.4,0.2,0.6C338.9,268.1,340,268.8,341,268.8z"/>
<path class="st8" d="M357.9,249.8h-2.1c0.2-2.1-0.4-4.4-1.1-6.1c-1.5-3.8,1.5-5.3-0.8-7.2c-2.3-1.9-8.2-1.1-12.4-1.3
	c-4.2-0.2-10.7,0-12.4,0.2c-1.7,0.4-0.6,2.9-0.2,5.1c0.6,2.1-1.9,4.4-2.3,6.5c-0.2,0.6,0,1.5,0,2.5h-1.7c-0.2-2.5-0.2-5.1-0.2-7
	c0-3.4,1.9-6.5,5.1-8.2c8.2-4.6,16.6-2.9,22.3-0.6c4,1.5,6.5,5.3,6.3,9.5C358.3,245.2,358.1,247.5,357.9,249.8z"/>
<path class="st9" d="M343.3,251.5c0-2.9,2.3-5.3,5.3-5.3c2.9,0,5.3,2.3,5.3,5.3c0,2.9-2.3,5.3-5.3,5.3
	C345.7,256.6,343.3,254.2,343.3,251.5z M344.2,251.5c0,2.3,1.9,4.4,4.4,4.4c2.3,0,4.4-1.9,4.4-4.4c0-2.3-1.9-4.4-4.4-4.4
	C346.1,247.1,344.2,249,344.2,251.5z"/>
<path class="st9" d="M329.2,251.5c0-2.9,2.3-5.3,5.3-5.3c2.9,0,5.3,2.3,5.3,5.3c0,2.9-2.3,5.3-5.3,5.3
	C331.5,256.6,329.2,254.2,329.2,251.5z M330.1,251.5c0,2.3,1.9,4.4,4.4,4.4c2.3,0,4.4-1.9,4.4-4.4c0-2.3-1.9-4.4-4.4-4.4
	C332,247.1,330.1,249,330.1,251.5z"/>
<path class="st9" d="M352.8,249.8c0,0,0.2,0,0.2-0.2c0,0,2.3-2.3,5.5-1.7c0.2,0,0.4,0,0.4-0.2c0-0.2,0-0.4-0.2-0.4
	c-3.6-0.8-6.1,1.7-6.1,1.9c-0.2,0.2-0.2,0.4,0,0.6H352.8z"/>
<path class="st9" d="M330.1,249.8c0.2,0,0.2,0,0.4-0.2c0.2-0.2,0-0.4-0.2-0.6c-0.2,0-3.8-2.5-7-1.9c-0.2,0-0.4,0.2-0.4,0.4
	c0,0.2,0.2,0.4,0.4,0.4c2.7-0.4,6.3,1.9,6.3,1.9C329.9,249.8,330.1,249.8,330.1,249.8z"/>
<path class="st9" d="M339.3,250.2c0,0,1.1-1.3,2.3-1.3s2.1,1.3,2.1,1.3l0.6-0.4c0,0-1.1-1.7-2.7-1.7s-2.7,1.5-2.9,1.7L339.3,250.2z"
	/>
<path class="st18" d="M430.3,375.4C430.3,375.4,430.3,375.6,430.3,375.4c0,2.1-1.1,4-2.9,5.7c-0.4,0.4-1.1,0.8-1.5,1.3
	c-1.7,1.1-3.6,2.3-5.9,3.2c-0.4,0.2-1.1,0.4-1.5,0.6c-1.7,0.6-3.8,1.3-5.9,1.9c-0.4,0.2-1.1,0.2-1.5,0.4c-1.9,0.4-3.8,1.1-5.9,1.5
	c-0.4,0-1.1,0.2-1.5,0.2c-1.9,0.4-3.8,0.6-5.9,1.1c-0.4,0-1.1,0.2-1.5,0.2c-1.9,0.2-3.8,0.4-5.9,0.6c-0.4,0-1.1,0-1.5,0.2
	c-1.9,0.2-3.8,0.2-5.9,0.4c-0.4,0-1.1,0-1.5,0c-1.9,0-3.8,0.2-5.9,0.2c-0.4,0-0.6,0-1.1,0c-0.2,0-0.4,0-0.4,0c-1.9,0-4,0-5.9-0.2
	c-0.4,0-1.1,0-1.5,0c-1.5,0-2.9-0.2-4.4-0.2c-0.4,0-1.1,0-1.5-0.2c-0.4,0-1.1,0-1.5-0.2c-1.9-0.2-4-0.4-5.9-0.6
	c-0.4,0-1.1-0.2-1.5-0.2c-1.3-0.2-2.3-0.4-3.6-0.6c-0.8-0.2-1.5-0.2-2.3-0.4c-0.4,0-1.1-0.2-1.5-0.2c-2.1-0.4-4-0.8-5.9-1.3
	c-0.4,0-0.6-0.2-1.1-0.2c-0.2,0-0.2,0-0.4-0.2c-0.8-0.2-1.7-0.4-2.5-0.6c-1.3-0.4-2.3-0.8-3.4-1.3c-0.6-0.2-1.1-0.4-1.5-0.6
	c-1.9-0.8-3.8-1.7-5.3-2.7c-0.2-0.2-0.4-0.2-0.6-0.4c-0.2-0.2-0.6-0.4-0.8-0.6c-0.2-0.2-0.6-0.4-0.8-0.6c-2.3-1.9-3.4-3.8-3.4-5.9
	c0-0.2,0-0.2,0-0.4v-12h3.4h1.5h5.9h1.5h4.6h1.3h1.5h5.9h1.5h5.9h1.5h5.9h1.5h5.9h1.5h5.9h1.5h5.9h1.5h5.9h1.5h5.9h1.5h5.9h1.5h5.9
	h1.5h0.4h5.5h1.5h5.9h1.5h2.9L430.3,375.4z"/>
<path class="st20" d="M323.8,363.1v19.6c-0.2-0.2-0.6-0.4-0.8-0.6c-0.2-0.2-0.6-0.4-0.8-0.6v-18.3H323.8z"/>
<path class="st20" d="M331.1,363.1v23.2c-0.6-0.2-1.1-0.4-1.5-0.6v-22.5H331.1z"/>
<path class="st20" d="M338.5,363.1v25.5c-0.4,0-0.6-0.2-1.1-0.2c-0.2,0-0.2,0-0.4-0.2v-25.1H338.5z"/>
<path class="st20" d="M345.9,363.1v27.2c-0.4,0-1.1-0.2-1.5-0.2v-27H345.9z"/>
<path class="st20" d="M353.5,363.1v28.4c-0.4,0-1.1-0.2-1.5-0.2v-28.2H353.5z"/>
<path class="st20" d="M360.8,363.1v29.1c-0.4,0-1.1,0-1.5-0.2v-29.1L360.8,363.1z"/>
<path class="st20" d="M368.2,363.1v29.5c-0.4,0-1.1,0-1.5,0v-29.5H368.2z"/>
<path class="st20" d="M375.6,363.1v29.7c-0.4,0-0.6,0-1.1,0c-0.2,0-0.4,0-0.4,0v-29.7H375.6z"/>
<path class="st20" d="M382.9,363.1v29.5c-0.4,0-1.1,0-1.5,0v-29.5H382.9z"/>
<path class="st20" d="M390.3,363.1v29.1c-0.4,0-1.1,0-1.5,0.2v-29.1L390.3,363.1z"/>
<path class="st20" d="M397.7,363.1v28.2c-0.4,0-1.1,0.2-1.5,0.2v-28.4H397.7z"/>
<path class="st20" d="M405.1,363.1v27c-0.4,0-1.1,0.2-1.5,0.2v-27.2H405.1z"/>
<path class="st20" d="M412.6,363.1v25.1c-0.4,0.2-1.1,0.2-1.5,0.4v-25.5H412.6z"/>
<path class="st20" d="M420,363.1v22.5c-0.4,0.2-1.1,0.4-1.5,0.6v-23.2H420z"/>
<path class="st20" d="M427.4,363.1v18.1c-0.4,0.4-1.1,0.8-1.5,1.3v-19.4H427.4z"/>
<path class="st21" d="M430.3,363.1c0,8.8-25.1,15.8-55.8,15.8c-4.2,0-8.2-0.2-12.2-0.4c-5.1-0.2-9.7-0.8-14.1-1.5
	c-3.8-0.6-7.6-1.3-10.7-2.1c-1.1-0.2-1.9-0.4-2.9-0.8c-4-1.3-7.6-2.5-10.1-4c-0.4-0.2-1.1-0.6-1.5-0.8c-2.7-1.9-4.2-4-4.2-6.1
	c0-0.2,0-0.4,0-0.6c1.1-8.4,25.7-15.2,55.8-15.2c7.4,0,14.5,0.4,20.9,1.1c1.3,0.2,2.5,0.2,3.6,0.4c5.3,0.6,10.1,1.7,14.1,2.7
	c0.8,0.2,1.9,0.4,2.7,0.8c2.9,1.1,5.7,2.1,7.8,3.2c2.3,1.3,4,2.5,5.1,3.8c0.8,1.1,1.3,1.9,1.5,2.9
	C430.3,362.7,430.3,362.9,430.3,363.1z"/>
<path class="st22" d="M428.9,359.6l-66.6,19.2c-5.1-0.2-9.7-0.8-14.1-1.5l75.6-21.5C426.1,357,427.8,358.3,428.9,359.6z"/>
<path class="st22" d="M399.2,349l-74.8,21.3c-0.4-0.2-1.1-0.6-1.5-0.8l72.5-20.6C396.6,348.6,397.9,348.8,399.2,349z"/>
<path class="st22" d="M416,352.6l-78.6,22.3c-1.1-0.2-1.9-0.4-2.9-0.8l78.8-22.3C414.3,352,415.2,352.4,416,352.6z"/>
<path class="st20" d="M419.2,363.1c0,0.2,0,0.4,0,0.6c-1.1,6.7-20.6,12-44.4,12c-23.8,0-43.4-5.3-44.4-12c0-0.2,0-0.4,0-0.6
	c0-7,20-12.6,44.7-12.6C399.2,350.5,419.2,356.2,419.2,363.1z"/>
<path class="st18" d="M419,363.8c-1.1,6.7-20.6,12-44.4,12c-0.6,0-1.1,0-1.7,0c-5.3,0-10.3-0.4-15.2-0.8c-4.6-0.6-9.1-1.3-12.8-2.3
	c-1.1-0.2-1.9-0.4-2.7-0.8c-4-1.3-7.2-2.5-9.3-4.2c-0.4-0.4-1.1-0.8-1.3-1.1c-0.8-0.8-1.5-1.9-1.7-2.9c1.1-6.7,20.6-12,44.4-12
	c2.9,0,5.9,0,8.8,0.2c1.5,0,2.9,0.2,4.2,0.2c5.7,0.4,11,1.3,15.6,2.3c1.1,0.2,1.9,0.4,2.7,0.6c3.6,1.1,6.5,2.1,8.6,3.4
	c2.1,1.3,3.6,2.5,4.2,4C419,363.1,419,363.6,419,363.8z"/>
<path class="st23" d="M418.7,362.9L372.8,376c-5.3,0-10.3-0.4-15.2-0.8l56.9-16.2C416.6,360,418.1,361.5,418.7,362.9z"/>
<path class="st23" d="M387.6,352.2l-54.8,15.6c-0.4-0.4-1.1-0.8-1.3-1.1l51.8-14.7C384.8,352,386.3,352.2,387.6,352.2z"/>
<path class="st23" d="M405.9,355.4L345,372.6c-1.1-0.2-1.9-0.4-2.7-0.8l60.9-17.3C404.2,354.9,405.1,355.1,405.9,355.4z"/>
<path class="st20" d="M380.6,370.3v2.1h-9.5v-2.1c-6.7-0.2-13.1-0.6-17.1-1.3l5.1-3.2c4.4,0.8,10.3,1.3,15.4,1.3
	c4.4,0,6.1-0.2,6.1-0.6c0-1.7-25.9-0.4-25.9-5.3c0-2.1,5.5-4,16.4-4.4v-2.1h9.5v2.1c4.8,0.2,9.7,0.4,13.5,1.1l-4.6,3.2
	c-4.6-0.6-8.8-1.1-13.1-1.1c-4.6,0-6.1,0.4-6.1,0.8c0,1.7,25.9,0.2,25.9,5.1C396.2,368,391.2,369.9,380.6,370.3z"/>
<path class="st21" d="M380.4,369.7v2.1h-9.3v-2.1c-6.7-0.2-13.1-0.6-17.1-1.3l5.1-3.2c4.4,0.8,10.3,1.3,15.4,1.3
	c4.4,0,6.1-0.2,6.1-0.6c0-1.7-25.9-0.4-25.9-5.3c0-2.1,5.5-4,16.4-4.4v-2.1h9.5v2.1c4.8,0.2,9.7,0.4,13.5,1.1l-4.6,3.2
	c-4.6-0.6-8.8-1.1-13.1-1.1c-4.6,0-6.1,0.4-6.1,0.8c0,1.7,25.9,0.2,25.9,5.1C396,367.4,390.7,369.3,380.4,369.7z"/>
<path class="st18" d="M428.4,355.8C428.4,356,428.4,356,428.4,355.8c0,2.1-1.1,4-2.9,5.7c-0.4,0.4-1.1,0.8-1.5,1.3
	c-1.7,1.1-3.6,2.3-5.9,3.2c-0.4,0.2-1.1,0.4-1.5,0.6c-1.7,0.6-3.8,1.3-5.9,1.9c-0.4,0.2-1.1,0.2-1.5,0.4c-1.9,0.4-3.8,1.1-5.9,1.5
	c-0.4,0-1.1,0.2-1.5,0.2c-1.9,0.4-3.8,0.6-5.9,1.1c-0.4,0-1.1,0.2-1.5,0.2c-1.9,0.2-3.8,0.4-5.9,0.6c-0.4,0-1.1,0-1.5,0.2
	c-1.9,0.2-3.8,0.2-5.9,0.4c-0.4,0-1.1,0-1.5,0c-1.9,0-3.8,0.2-5.9,0.2c-0.4,0-0.6,0-1.1,0c-0.2,0-0.4,0-0.4,0c-1.9,0-4,0-5.9-0.2
	c-0.4,0-1.1,0-1.5,0c-1.5,0-2.9-0.2-4.4-0.2c-0.4,0-1.1,0-1.5-0.2c-0.4,0-1.1,0-1.5-0.2c-1.9-0.2-4-0.4-5.9-0.6
	c-0.4,0-1.1-0.2-1.5-0.2c-1.3-0.2-2.3-0.4-3.6-0.6c-0.8-0.2-1.5-0.2-2.3-0.4c-0.4,0-1.1-0.2-1.5-0.2c-2.1-0.4-4-0.8-5.9-1.3
	c-0.4,0-0.6-0.2-1.1-0.2c-0.2,0-0.2,0-0.4-0.2c-0.8-0.2-1.7-0.4-2.5-0.6c-1.3-0.4-2.3-0.8-3.4-1.3c-0.6-0.2-1.1-0.4-1.5-0.6
	c-1.9-0.8-3.8-1.7-5.3-2.7c-0.2-0.2-0.4-0.2-0.6-0.4c-0.2-0.2-0.6-0.4-0.8-0.6c-0.2-0.2-0.6-0.4-0.8-0.6c-2.3-1.9-3.4-3.8-3.4-5.9
	c0-0.2,0-0.2,0-0.4v-12h3.4h1.5h5.9h1.5h4.6h1.3h1.5h5.9h1.5h5.9h1.5h5.9h1.5h5.9h1.5h5.9h1.5h5.9h1.5h5.9h1.5h5.9h1.5h5.9h1.5h5.9
	h1.5h0.4h5.5h1.5h5.9h1.5h2.9L428.4,355.8z"/>
<path class="st20" d="M321.8,343.8v19.6c-0.2-0.2-0.6-0.4-0.8-0.6c-0.2-0.2-0.6-0.4-0.8-0.6v-18.3H321.8z"/>
<path class="st20" d="M329.2,343.6v23.2c-0.6-0.2-1.1-0.4-1.5-0.6v-22.5H329.2z"/>
<path class="st20" d="M336.6,343.6V369c-0.4,0-0.6-0.2-1.1-0.2c-0.2,0-0.2,0-0.4-0.2v-25.1H336.6z"/>
<path class="st20" d="M344,343.6v27.2c-0.4,0-1.1-0.2-1.5-0.2v-27H344z"/>
<path class="st20" d="M351.3,343.6V372c-0.4,0-1.1-0.2-1.5-0.2v-28.2H351.3z"/>
<path class="st20" d="M358.9,343.6v29.1c-0.4,0-1.1,0-1.5-0.2v-29.1L358.9,343.6z"/>
<path class="st20" d="M366.3,343.6V373c-0.4,0-1.1,0-1.5,0v-29.5H366.3z"/>
<path class="st20" d="M373.6,343.6v29.7c-0.4,0-0.6,0-1.1,0c-0.2,0-0.4,0-0.4,0v-29.7H373.6z"/>
<path class="st20" d="M381,343.6V373c-0.4,0-1.1,0-1.5,0v-29.5H381z"/>
<path class="st20" d="M388.4,343.6v29.1c-0.4,0-1.1,0-1.5,0.2v-29.1L388.4,343.6z"/>
<path class="st20" d="M395.8,343.6v28.2c-0.4,0-1.1,0.2-1.5,0.2v-28.4H395.8z"/>
<path class="st20" d="M403.1,343.6v27c-0.4,0-1.1,0.2-1.5,0.2v-27.2H403.1z"/>
<path class="st20" d="M410.7,343.6v25.1c-0.4,0.2-1.1,0.2-1.5,0.4v-25.5H410.7z"/>
<path class="st20" d="M418.1,343.6v22.5c-0.4,0.2-1.1,0.4-1.5,0.6v-23.2H418.1z"/>
<path class="st20" d="M425.5,343.6v18.1c-0.4,0.4-1.1,0.8-1.5,1.3v-19.4H425.5z"/>
<path class="st21" d="M428.4,343.8c0,8.8-25.1,15.8-55.8,15.8c-4.2,0-8.2-0.2-12.2-0.4c-5.1-0.2-9.7-0.8-14.1-1.5
	c-3.8-0.6-7.6-1.3-10.7-2.1c-1.1-0.2-1.9-0.4-2.9-0.8c-4-1.3-7.6-2.5-10.1-4c-0.4-0.2-1.1-0.6-1.5-0.8c-2.7-1.9-4.2-4-4.2-6.1
	c0-0.2,0-0.4,0-0.6c1.1-8.4,25.7-15.2,55.8-15.2c7.4,0,14.5,0.4,20.9,1.1c1.3,0.2,2.5,0.2,3.6,0.4c5.3,0.6,10.1,1.7,14.1,2.9
	c0.8,0.2,1.9,0.4,2.7,0.8c2.9,1.1,5.7,2.1,7.8,3.2c2.3,1.3,4,2.5,5.1,3.8c0.8,1.1,1.3,1.9,1.5,2.9
	C428.4,343.3,428.4,343.6,428.4,343.8z"/>
<path class="st22" d="M427,340l-66.6,19.2c-5.1-0.2-9.7-0.8-14.1-1.5l75.6-21.5C424,337.5,425.9,338.7,427,340z"/>
<path class="st22" d="M397.3,329.4l-74.8,21.3c-0.4-0.2-1.1-0.6-1.5-0.8l72.5-20.6C394.7,329,396,329.2,397.3,329.4z"/>
<path class="st22" d="M414.1,333l-78.6,22.3c-1.1-0.2-1.9-0.4-2.9-0.8l78.8-22.3C412.4,332.6,413.3,332.8,414.1,333z"/>
<path class="st20" d="M417.3,343.8c0,0.2,0,0.4,0,0.6c-1.1,6.7-20.6,12-44.4,12c-23.8,0-43.4-5.3-44.4-12c0-0.2,0-0.4,0-0.6
	c0-7,20-12.6,44.7-12.6C397.3,330.9,417.3,336.6,417.3,343.8z"/>
<path class="st18" d="M417.1,344.2c-1.1,6.7-20.6,12-44.4,12c-0.6,0-1.1,0-1.7,0c-5.3,0-10.3-0.4-15.2-0.8
	c-4.6-0.6-9.1-1.3-12.9-2.3c-1.1-0.2-1.9-0.4-2.7-0.8c-4-1.3-7.2-2.5-9.3-4.2c-0.4-0.4-1.1-0.8-1.3-1.1c-0.8-0.8-1.5-1.9-1.7-2.9
	c1.1-6.7,20.6-12,44.4-12c2.9,0,5.9,0,8.8,0.2c1.5,0,2.9,0.2,4.2,0.2c5.7,0.4,11,1.3,15.6,2.3c1.1,0.2,1.9,0.4,2.7,0.6
	c3.6,1.1,6.5,2.1,8.6,3.4c2.1,1.3,3.6,2.5,4.2,4C417.1,343.6,417.1,344,417.1,344.2z"/>
<path class="st23" d="M416.9,343.3l-45.9,13.1c-5.3,0-10.3-0.4-15.2-0.8l56.9-16.2C414.7,340.6,416.2,341.9,416.9,343.3z"/>
<path class="st23" d="M385.7,332.8l-54.8,15.6c-0.4-0.4-1.1-0.8-1.3-1.1l51.8-14.7C382.9,332.6,384.4,332.6,385.7,332.8z"/>
<path class="st23" d="M404,335.8L343.1,353c-1.1-0.2-1.9-0.4-2.7-0.8l60.9-17.3C402.1,335.3,403.2,335.6,404,335.8z"/>
<path class="st20" d="M378.7,350.9v2.1h-9.5v-2.1c-6.7-0.2-13.1-0.6-17.1-1.3l5.1-3.2c4.4,0.8,10.3,1.3,15.4,1.3
	c4.4,0,6.1-0.2,6.1-0.6c0-1.7-25.9-0.4-25.9-5.3c0-2.1,5.5-4,16.4-4.4v-2.1h9.5v2.1c4.8,0.2,9.7,0.4,13.5,1.1l-4.6,3.2
	c-4.6-0.6-8.8-1.1-13.1-1.1c-4.6,0-6.1,0.4-6.1,0.8c0,1.7,25.9,0.2,25.9,5.1C394.3,348.6,389,350.3,378.7,350.9z"/>
<path class="st21" d="M378.5,350.1v2.1H369v-2.1c-6.7-0.2-13.1-0.6-17.1-1.3l5.1-3.2c4.4,0.8,10.3,1.3,15.4,1.3
	c4.4,0,6.1-0.2,6.1-0.6c0-1.7-25.9-0.4-25.9-5.3c0-2.1,5.5-4,16.4-4.4v-2.1h9.5v2.1c4.8,0.2,9.7,0.4,13.5,1.1l-4.6,3.2
	c-4.6-0.6-8.8-1.1-13.1-1.1c-4.6,0-6.1,0.4-6.1,0.8c0,1.7,25.9,0.2,25.9,5.1C394.1,347.8,388.8,349.7,378.5,350.1z"/>
<path class="st18" d="M429.9,336.4c0,2.1-1.1,4-2.9,5.7c-0.4,0.4-1.1,0.8-1.5,1.3c-1.7,1.1-3.6,2.3-5.9,3.2
	c-0.4,0.2-1.1,0.4-1.5,0.6c-1.7,0.6-3.8,1.3-5.9,1.9c-0.4,0.2-1.1,0.2-1.5,0.4c-1.9,0.4-3.8,1.1-5.9,1.5c-0.4,0-1.1,0.2-1.5,0.2
	c-1.9,0.4-3.8,0.6-5.9,1.1c-0.4,0-1.1,0.2-1.5,0.2c-1.9,0.2-3.8,0.4-5.9,0.6c-0.4,0-1.1,0-1.5,0.2c-1.9,0.2-3.8,0.2-5.9,0.4
	c-0.4,0-1.1,0-1.5,0c-1.9,0-3.8,0.2-5.9,0.2c-0.4,0-0.6,0-1.1,0c-0.2,0-0.4,0-0.4,0c-1.9,0-4,0-5.9-0.2c-0.4,0-1.1,0-1.5,0
	c-1.5,0-2.9-0.2-4.4-0.2c-0.4,0-1.1,0-1.5-0.2c-0.4,0-1.1,0-1.5-0.2c-1.9-0.2-4-0.4-5.9-0.6c-0.4,0-1.1-0.2-1.5-0.2
	c-1.3-0.2-2.3-0.4-3.6-0.6c-0.8-0.2-1.5-0.2-2.3-0.4c-0.4,0-1.1-0.2-1.5-0.2c-2.1-0.4-4-0.8-5.9-1.3c-0.4,0-0.6-0.2-1.1-0.2
	c-0.2,0-0.2,0-0.4-0.2c-0.8-0.2-1.7-0.4-2.5-0.6c-1.3-0.4-2.3-0.8-3.4-1.3c-0.6-0.2-1.1-0.4-1.5-0.6c-1.9-0.8-3.8-1.7-5.3-2.7
	c-0.2-0.2-0.4-0.2-0.6-0.4c-0.2-0.2-0.6-0.4-0.8-0.6s-0.6-0.4-0.8-0.6c-2.3-1.9-3.4-3.8-3.4-5.9c0-0.2,0-0.2,0-0.4v-12h3.4h1.5h5.9
	h1.5h4.6h1.3h1.5h5.9h1.5h5.9h1.5h5.9h1.5h5.9h1.5h5.9h1.5h5.9h1.5h5.9h1.5h5.9h1.5h5.9h1.5h5.9h1.5h0.4h5.5h1.5h5.9h1.5h2.9
	L429.9,336.4z"/>
<path class="st20" d="M323.3,324.2v19.6c-0.2-0.2-0.6-0.4-0.8-0.6c-0.2-0.2-0.6-0.4-0.8-0.6v-18.3H323.3z"/>
<path class="st20" d="M330.7,324.2v23.2c-0.6-0.2-1.1-0.4-1.5-0.6v-22.5H330.7z"/>
<path class="st20" d="M338.1,324.2v25.5c-0.4,0-0.6-0.2-1.1-0.2c-0.2,0-0.2,0-0.4-0.2v-25.1H338.1z"/>
<path class="st20" d="M345.7,324.2v27.2c-0.4,0-1.1-0.2-1.5-0.2v-27H345.7z"/>
<path class="st20" d="M353,324.2v28.4c-0.4,0-1.1-0.2-1.5-0.2v-28.2H353z"/>
<path class="st20" d="M360.4,324.2v29.1c-0.4,0-1.1,0-1.5-0.2V324L360.4,324.2z"/>
<path class="st20" d="M367.8,324v29.5c-0.4,0-1.1,0-1.5,0V324H367.8z"/>
<path class="st20" d="M375.2,324v29.7c-0.4,0-0.6,0-1.1,0c-0.2,0-0.4,0-0.4,0V324H375.2z"/>
<path class="st20" d="M382.5,324v29.5c-0.4,0-1.1,0-1.5,0V324H382.5z"/>
<path class="st20" d="M389.9,324V353c-0.4,0-1.1,0-1.5,0.2v-29.1L389.9,324z"/>
<path class="st20" d="M397.5,324v28.2c-0.4,0-1.1,0.2-1.5,0.2V324H397.5z"/>
<path class="st20" d="M404.9,324v27c-0.4,0-1.1,0.2-1.5,0.2V324H404.9z"/>
<path class="st20" d="M412.2,324V349c-0.4,0.2-1.1,0.2-1.5,0.4V324H412.2z"/>
<path class="st20" d="M419.6,324v22.5c-0.4,0.2-1.1,0.4-1.5,0.6V324H419.6z"/>
<path class="st20" d="M427,324v18.1c-0.4,0.4-1.1,0.8-1.5,1.3V324H427z"/>
<path class="st21" d="M429.9,324.2c0,8.8-25.1,15.8-55.8,15.8c-4.2,0-8.2-0.2-12.2-0.4c-5.1-0.2-9.7-0.8-14.1-1.5
	c-3.8-0.6-7.6-1.3-10.7-2.1c-1.1-0.2-1.9-0.4-2.9-0.8c-4-1.3-7.6-2.5-10.1-4c-0.4-0.2-1.1-0.6-1.5-0.8c-2.7-1.9-4.2-4-4.2-6.1
	c0-0.2,0-0.4,0-0.6c1.1-8.4,25.7-15.2,55.8-15.2c7.4,0,14.5,0.4,20.9,1.1c1.3,0.2,2.5,0.2,3.6,0.4c5.3,0.6,10.1,1.7,14.1,2.7
	c0.8,0.2,1.9,0.4,2.7,0.8c2.9,1.1,5.7,2.1,7.8,3.2c2.3,1.3,4,2.5,5.1,3.8c0.8,1.1,1.3,1.9,1.5,2.9
	C429.9,323.8,429.9,324,429.9,324.2z"/>
<path class="st22" d="M428.4,320.6l-66.6,19.2c-5.1-0.2-9.7-0.8-14.1-1.5l75.6-21.5C425.7,317.9,427.4,319.1,428.4,320.6z"/>
<path class="st22" d="M398.7,309.9L324,331.1c-0.4-0.2-1.1-0.6-1.5-0.8l72.5-20.6C396.4,309.6,397.5,309.6,398.7,309.9z"/>
<path class="st22" d="M415.6,313.4L337,335.8c-1.1-0.2-1.9-0.4-2.9-0.8l78.8-22.3C413.9,313,414.8,313.2,415.6,313.4z"/>
<path class="st20" d="M418.8,324.2c0,0.2,0,0.4,0,0.6c-1.1,6.7-20.6,12-44.4,12c-23.8,0-43.4-5.3-44.4-12c0-0.2,0-0.4,0-0.6
	c0-7,20-12.6,44.7-12.6C398.7,311.5,418.8,317.2,418.8,324.2z"/>
<path class="st18" d="M418.8,324.8c-1.1,6.7-20.6,12-44.4,12c-0.6,0-1.1,0-1.7,0c-5.3,0-10.3-0.4-15.2-0.8
	c-4.6-0.6-9.1-1.3-12.8-2.3c-1.1-0.2-1.9-0.4-2.7-0.8c-4-1.3-7.2-2.5-9.3-4.2c-0.4-0.4-1.1-0.8-1.3-1.1c-0.8-0.8-1.5-1.9-1.7-2.9
	c1.1-6.7,20.6-12,44.4-12c2.9,0,5.9,0,8.8,0.2c1.5,0,2.9,0.2,4.2,0.2c5.7,0.4,11,1.3,15.6,2.3c1.1,0.2,1.9,0.4,2.7,0.6
	c3.6,1.1,6.5,2.1,8.6,3.4c2.1,1.3,3.6,2.5,4.2,4C418.6,324,418.6,324.4,418.8,324.8z"/>
<path class="st23" d="M418.3,323.8l-45.9,13.1c-5.3,0-10.3-0.4-15.2-0.8l56.9-16.2C416.4,321,417.7,322.3,418.3,323.8z"/>
<path class="st23" d="M387.4,313.2l-54.8,15.6c-0.4-0.4-1.1-0.8-1.3-1.1l51.8-14.7C384.4,313,385.9,313,387.4,313.2z"/>
<path class="st23" d="M405.5,316.4l-60.9,17.3c-1.1-0.2-1.9-0.4-2.7-0.8l60.9-17.3C403.8,315.8,404.6,316,405.5,316.4z"/>
<path class="st20" d="M380.4,331.3v2.1h-9.5v-2.1c-6.7-0.2-13.1-0.6-17.1-1.3l5.1-3.2c4.4,0.8,10.3,1.3,15.4,1.3
	c4.4,0,6.1-0.2,6.1-0.6c0-1.7-25.9-0.4-25.9-5.3c0-2.1,5.5-4,16.4-4.4v-2.1h9.5v2.1c4.8,0.2,9.7,0.4,13.5,1.1l-4.6,3.2
	c-4.6-0.6-8.8-1.1-13.1-1.1c-4.6,0-6.1,0.4-6.1,0.8c0,1.7,25.9,0.2,25.9,5.1C395.8,329,390.7,330.7,380.4,331.3z"/>
<path class="st21" d="M380,330.7v2.1h-9.5v-2.1c-6.7-0.2-13.1-0.6-17.1-1.3l5.1-3.2c4.4,0.8,10.3,1.3,15.4,1.3
	c4.4,0,6.1-0.2,6.1-0.6c0-1.7-25.9-0.4-25.9-5.3c0-2.1,5.5-4,16.4-4.4v-2.1h9.5v2.1c4.8,0.2,9.7,0.4,13.5,1.1l-4.6,3.2
	c-4.6-0.6-8.8-1.1-13.1-1.1c-4.6,0-6.1,0.4-6.1,0.8c0,1.7,25.9,0.2,25.9,5.1C395.6,328.4,390.3,330.1,380,330.7z"/>
<path class="st18" d="M417.5,386.5l1.9,1.9c0,0,5.1-0.8,5.3-2.9c0-0.8-0.2-1.7-0.8-1.9L417.5,386.5z"/>
<path class="st14" d="M416.6,397.9c2.5,0,4.8-1.3,5.7-3.6c0.4-1.3,0.6-2.7-0.2-4.6c-2.1-5.5-5.7-9.1-7.8-7.8
	c-0.8,0.4-0.4,3.8,1.1,6.1c0,0-1.9-2.5-2.9-5.5c-1.1-2.9-4.6-1.1-3.4,2.5c1.3,3.8,1.7,4.2,1.7,4.2s-1.9-2.7-2.3-4.6
	c-0.4-1.9-3.4-1.1-2.3,2.5c0.4,1.7,1.1,3.6,1.1,3.6s-1.1-2.3-1.7-3.6c-0.6-1.3-2.3-1.9-2.3,0.8c0,2.1,0.4,8,3.4,8.6
	C408.9,397.5,413.7,397.9,416.6,397.9z"/>
<path class="st14" d="M375.6,393.3c-0.2-1.9-4.4-1.1-6.7-1.9c-2.3-0.8-7.8-3.8-7-4.8c0.6-1.1,1.9-2.1,2.7-2.9
	c0.8-0.8,1.3-2.7,0.2-2.7c-1.1,0-4,1.9-5.3,3.2c-0.4,0.4-1.1,1.9-1.5,2.5c-0.6,1.1-1.7,1.9-2.9,2.3c-1.3-1.1-2.7-2.1-3.6-2.5
	c-1.7,0.4-6.7,5.5-4.8,8.6c1.9,1.9,4.6,3.8,4.6,3.8c9.5,5.9,14.1,4.8,16,4.4s1.9-2.5,1.9-2.5c1.7-0.8,1.5-2.5,1.5-2.5
	c2.7-1.3,1.9-2.9,1.9-2.9S375.8,395.2,375.6,393.3z"/>
<path class="st7" d="M311.1,289.6c0,0-13.1,31.8-1.7,77.1c0,0,10.7,20.2,36.2,28.9l6.7-8.4c0,0-19-10.1-29.7-28.2l0.8-45.9
	C323.8,312.8,320,297,311.1,289.6z"/>
<path class="st14" d="M508.9,409.3c0.4,6.5,0.8,13.5,1.1,20.6c2.3,42.3,5.7,94.6,6.7,115l7.8,0.4c0,0,4.6-55,4.6-73.9
	c0-7.8,0.6-20,1.7-33.5c0.6-9.3,1.5-19.2,2.3-28.6H508.9z"/>
<path class="st18" d="M508.9,409.3c0.4,6.5,0.8,14.7,1.3,21.9c4.8,2.7,12.6,5.3,20.6,6.7c0.6-9.3,1.5-19.2,2.3-28.6H508.9z"/>
<path class="st13" d="M521.6,540.5c0,0-4.6-1.1-5.9-0.8c-1.3,0-9.3,9.9-12,10.5c-5.1,1.3-4.8,9.3-1.7,9.5c9.1,0.8,24.4-3.8,24.4-3.8
	s1.1-10.3,0.2-13.7C525.8,539.2,524.1,541.4,521.6,540.5z"/>
<path class="st14" d="M537.6,409.1c0.8,9.5,1.7,19.4,2.3,28.6v0.2c0,0.4,0,0.8,0,1.3c0.8,12.8,1.7,24.4,1.7,32
	c0,19,4.6,73.9,4.6,73.9l9.1-0.6c0.8-19,3.4-65.1,5.3-105.5c0-0.4,0-1.1,0-1.5c0-0.4,0-0.8,0-1.3c0.4-9.7,0.8-19,1.3-27.6
	L537.6,409.1z"/>
<path class="st18" d="M537.6,409.1c0.8,9.5,1.7,19.4,2.3,28.6v0.2c5.9,0.4,14.5-0.2,20.6-1.5c0.4-9.7,0.8-19,1.3-27.6L537.6,409.1z"
	/>
<path class="st13" d="M553.8,543c0,0,2.1-2.9,3.8-2.7c1.7,0,15,10.3,19.6,11c4.4,0.8,3.8,4,2.9,5.9c-0.8,1.7-35.8,0.2-35.8,0.2
	s-1.3-10.3-0.2-13.7C545.1,540.3,550.4,543.9,553.8,543z"/>
<path class="st8" d="M564.3,294.9c-6.5,5.7-14.1,3.2-23.8-1.7c-9.7-4.8-3.4,4.8-13.1,6.3c-9.5,1.7-8.4-21.9-9.1-33.5
	c-0.4-7.4-3.4-16.6-3.4-20.4c0-0.6,0-1.3,0-1.9c0-8.8,5.5-25.3,24.9-22.8c0,0,16,1.9,17.9,17.5c0,0,0.8,7.2,1.3,12.4
	c1.5,15,7,7.2,5.1,25.3C563.9,282.3,571.9,288.2,564.3,294.9z"/>
<path class="st7" d="M505.6,283.3c0,0-3.4,29.1-7.4,43c0,0-5.5-2.5-12.9-6.1c-7.8-3.8-19.2-10.7-19.2-10.7l-2.9,7
	c0,0,29.3,27.6,39,29.3c9.7,1.5,15.6-33.1,15.6-33.1L505.6,283.3z"/>
<path class="st14" d="M466.8,310.3c0,0,0.8-3.8-0.8-6.5c-1.7-2.5-4.4-7.6-7.4-8.4c-2.5-0.8,1.3,3.6,1.3,6.3c0,0-3.8-0.4-6.5-1.5
	c-2.5-0.8-7.2-1.7-9.5-2.3c-0.6-0.2-1.1,0.6-0.6,1.1c0.8,0.6,2.3,1.5,5.7,2.3c0,0-8-1.5-8.8-0.2c-0.8,1.3,9.3,2.9,9.3,2.9
	s-7.8-0.4-8,0.8c-0.2,0.8,8,2.5,8,2.5s-7.4,0.2-5.7,1.3c0.4,0.4,14.7,1.9,19.8,7.8C463.2,316.4,466.6,312.8,466.8,310.3z"/>
<path class="st6" d="M506.2,388.4l-0.2,0.6c12.9,8.6,60.5,2.7,60.5,2.7c0-1.1-0.2-2.1-0.4-3.2c-0.2-1.3-0.4-2.5-0.6-3.8
	c-0.6-3.4-1.3-7.2-2.3-11.2c-0.2-1.3-0.6-2.5-0.8-3.8c-0.8-3.8-1.7-7.4-2.7-11.2c-0.2-1.3-0.6-2.5-0.8-3.8c-0.4-1.7-0.8-3.4-1.1-5.1
	c-0.4-2.1-0.8-4.2-1.3-6.1c-0.2-1.3-0.4-2.5-0.6-3.8s-0.2-2.5-0.4-3.6c0.8-2.7,1.5-5.5,2.1-8.2c0.4-1.3,0.6-2.7,1.1-4
	c1.1-4.2,1.9-8.2,2.5-12c0.2-1.3,0.6-2.7,0.8-4c0.8-4.4,1.5-8.4,2.1-11.8c0.2-1.5,0.4-2.7,0.6-4c0.2-1.3,0.4-2.5,0.4-3.8
	c0.6-4.8,0.8-7.8,0.8-7.8c-0.2,0-0.2-0.2-0.4-0.2c-1.5-1.1-3.8-1.9-6.3-2.9c-2.7-0.8-5.7-1.7-8.2-2.3c-0.4,0-0.8-0.2-1.1-0.2
	c-3.4-0.8-5.9-1.3-5.9-1.3c-11.6,2.5-15,0.8-15,0.8l-5.9,1.7l-0.2,0.8l-4.2,1.5h-0.2l-7.6,2.7l-5.1,1.9l1.9,9.3l0.8,4l2.5,12l0.8,4
	l2.5,12l0.8,4l2.1,9.9l-0.4,1.9l-0.8,3.8l-1.3,5.9l-1.3,5.3l-0.8,3.8l-2.5,11.2l-0.8,3.6l-2.5,11L506.2,388.4z"/>
<path class="st14" d="M522.8,277.2c1.3,7.2,4.2,16.9,11.6,17.7c8.8,1.1,13.9-12.4,15.8-19.4c-3.4-0.8-7-1.5-7-1.5
	c-11.6,2.5-13.9,0.8-13.9,0.8l-5.9,1.9L522.8,277.2z"/>
<path class="st9" d="M535.7,286.5c9.3,0,11.4-11.4,11.4-11.6s-0.2-0.4-0.4-0.6c-0.2,0-0.4,0.2-0.6,0.4c0,0.4-2.1,11.2-11.2,10.7
	c-7.8-0.4-8.2-9.1-8.2-9.5c0-0.2-0.2-0.4-0.4-0.4c-0.2,0-0.4,0.2-0.4,0.4c0,0,0.4,9.9,9.1,10.3C535.2,286.5,535.5,286.5,535.7,286.5
	z"/>
<path class="st24" d="M500.9,419.8c20.4,12.8,51.4,11.6,69.5,3.2l-0.6-4.4l-0.4-3.8l-1.5-11.2l-0.4-3.8l-1.1-8l-15.6-0.6l-41.9-1.9
	l-3.2-0.2l-1.7,10.3l-0.6,3.8l-1.7,11l-0.6,3.8L500.9,419.8z"/>
<path class="st25" d="M500.9,419.8c20.4,12.8,51.6,11.6,69.5,3.2l-0.6-4.4l-0.2-1.3l-0.2-2.5v-0.6l-0.2-1.7l-1.1-8.8v-0.8l-0.2-1.7
	l-0.2-1.3l-1.1-8v-0.2c0-0.6-0.2-1.3-0.2-1.7c0-0.4,0-0.6-0.2-1.1c-0.2-1.3-0.4-2.5-0.6-3.8c-0.2-1.5-0.6-2.9-0.8-4.6
	c-0.2-0.6-0.2-1.1-0.4-1.7c-0.4-1.5-0.6-3.2-1.1-4.8c-0.2-1.3-0.6-2.5-0.8-3.8c0-0.2-0.2-0.6-0.2-0.8c-0.2-0.6-0.2-1.1-0.4-1.7
	c-0.6-2.7-1.3-5.7-2.1-8.4c0-0.2-0.2-0.6-0.2-0.8c-0.2-0.6-0.2-1.3-0.4-1.7c0-0.4-0.2-0.8-0.2-1.1c-0.4-1.7-0.8-3.4-1.1-5.1
	c-8,1.9-25.9,4.8-43-0.2l-1.1,4.8l-0.2,0.6l-0.2,1.3l-0.6,2.5l-1.5,6.7l-0.4,1.7l-0.6,2.5l-0.8,3.6l-0.6,3.2l-0.4,1.7l-1.5,6.1
	l-0.6,3.2l-0.2,0.4l-0.2,0.6l-0.2,0.6l-1.5,9.5v0.2l-0.2,1.5l-0.4,2.1l-1.3,7.4l-0.2,1.7l-0.2,1.9v0.2l-0.6,3.6L500.9,419.8z"/>
<path class="st8" d="M500.9,419.8c20.4,12.8,51.4,11.6,69.5,3.2l-0.6-4.4l-0.2-1.3c-4.8,2.1-16,5.9-34.1,5.7
	c-17.1-0.2-28.2-5.5-33.9-8.6l-0.6,3.6V419.8z"/>
<path class="st18" d="M522,246.7c0,0-2.7-3.6-4.8-0.6s0.8,11.4,5.9,9.3L522,246.7z"/>
<path class="st9" d="M520.7,254.9c0,0.4-0.4,0.8-0.8,0.8c-0.4,0-0.8-0.4-0.8-0.8c0-0.4,0.4-0.8,0.8-0.8
	C520.3,254,520.7,254.5,520.7,254.9z"/>
<path class="st19" d="M522,252.8c-0.2,0-0.4-0.2-0.4-0.2c-0.8-2.7-3.6-3.8-3.8-3.8c-0.2,0-0.4-0.2-0.2-0.4c0-0.2,0.4-0.2,0.6-0.2
	s3.4,1.3,4.2,4.2C522.4,252.6,522.2,252.8,522,252.8z"/>
<path class="st19" d="M519,251.5h-0.2c-0.2-0.2-0.2-0.4-0.2-0.6c0,0,0.6-0.8,1.7-1.3c0.2,0,0.4,0,0.6,0.2c0,0.2,0,0.4-0.2,0.6
	c-0.8,0.4-1.3,0.8-1.3,0.8C519.2,251.5,519,251.5,519,251.5z"/>
<path class="st14" d="M543.2,264.6v10.5c0,0-4.8,3.8-8.6,4c-3.8,0.4-5.1-4.2-5.1-4.2v-9.7L543.2,264.6z"/>
<path class="st18" d="M543.3,265.6v4.2c-2.5,2.7-7.2,3.8-13.9,2.9v-6.3L543.3,265.6z"/>
<path class="st14" d="M520.3,250.7c0.2,1.1,0.2,2.1,0.4,3.2c1.3,6.7,5.5,14.1,11,15.4c11.8,2.7,16.6-6.5,18.5-13.5
	c0.2-0.8-0.2-1.7,0-2.5c0.4-2.1,1.3-4.6,1.5-7c0.2-1.7,0.2-3.4,0.2-4.8c0.2-4.2-2.3-8-5.9-9.5c-5.5-2.1-13.7-3.8-21.5,0.6
	c-2.9,1.7-4.6,4.8-4.8,8.2C519.9,243.7,519.9,247.1,520.3,250.7z"/>
<path class="st18" d="M534.6,255.9c0.2,0,0.4-0.2,0.4-0.4c0-0.2-0.2-0.4-0.4-0.6l-1.5-0.2l2.1-5.7c0-0.2,0-0.4-0.2-0.6
	c-0.2,0-0.4,0-0.6,0.2l-2.5,6.7L534.6,255.9z"/>
<path class="st8" d="M524.7,239.3c-4.6,2.1-3.2,7.6-4.6,10.3c0,0.2-0.2,0.2-0.2,0.2c-0.4-3.6-0.4-7.2-0.4-9.7c0-3.6,1.9-6.7,5.1-8.4
	c8.2-4.6,16.9-2.9,22.5-0.6c4,1.5,6.5,5.5,6.3,9.7c0,1.5-0.2,3.2-0.2,4.8c-0.8,0.4-2.5,0.6-2.7,1.9c-0.2,3.2-0.4,5.5-1.1,5.3
	c-1.1-0.4-1.9-4.2-0.6-6.7c0,0-1.1-1.7-5.3-3.4c-5.5-2.1-10.7-5.3-10.7-5.3s-2.1-1.3-2.9-2.5C529.6,234.2,528.3,237.6,524.7,239.3z"
	/>
<path class="st8" d="M529.3,248.3c0,1.1-0.4,1.9-1.3,1.9c-0.6,0-1.3-0.8-1.3-1.9s0.4-1.9,1.3-1.9
	C528.7,246.5,529.3,247.3,529.3,248.3z"/>
<path class="st8" d="M541.8,248.3c0,1.1-0.4,1.9-1.3,1.9c-0.6,0-1.3-0.8-1.3-1.9s0.4-1.9,1.3-1.9S541.8,247.3,541.8,248.3z"/>
<path class="st8" d="M524.9,243.5c0.8-0.2,2.7-0.4,4.8-0.4c0.6,0,1.1,0.4,0.8,0.8c0,0.4-0.4,0.6-0.8,0.6c-1.3,0-4.8,0-6.5,0.4
	c0-0.2,0.2-0.4,0.4-0.6C523.9,243.9,524.5,243.7,524.9,243.5z"/>
<path class="st8" d="M543.7,243.7c-0.8-0.2-2.7-0.4-4.8-0.4c-0.6,0-1.1,0.4-0.8,0.8c0,0.4,0.4,0.6,0.8,0.6c1.5,0,5.1,0,6.5,0.4
	c0-0.2-0.2-0.4-0.4-0.6C544.7,244.1,544.1,243.9,543.7,243.7z"/>
<path class="st9" d="M529.6,258.7c0.4,1.7,1.5,4.6,5.3,4.6c3.8,0,4.8-2.7,5.3-4.6H529.6z"/>
<path class="st18" d="M534.8,266c-1.1,0-2.1-0.6-2.1-0.6c-0.2-0.2-0.2-0.4-0.2-0.6c0.2-0.2,0.4-0.2,0.6-0.2c0,0,0.8,0.4,1.7,0.4
	c0.8,0,1.7-0.4,1.7-0.4c0.2-0.2,0.4,0,0.6,0.2c0.2,0.2,0,0.4-0.2,0.6C536.9,265.4,535.9,266,534.8,266z"/>
<path class="st18" d="M550.2,246.7c0,0,3.2-4,5.1-1.1c1.9,2.7-0.8,11.2-5.5,9.1L550.2,246.7z"/>
<path class="st9" d="M552.9,254.9c0,0.4-0.4,0.8-0.8,0.8c-0.4,0-0.8-0.4-0.8-0.8c0-0.4,0.4-0.8,0.8-0.8
	C552.5,254,552.9,254.5,552.9,254.9z"/>
<path class="st19" d="M551,252.1c0.2,0,0.4-0.2,0.4-0.2c0.6-2.5,3.4-3.6,3.4-3.6c0.2,0,0.2-0.2,0.2-0.4c0-0.2-0.2-0.2-0.4-0.2
	c-0.2,0-2.9,1.3-3.8,4.2C550.6,251.7,550.6,252.1,551,252.1C550.8,252.1,551,252.1,551,252.1z"/>
<path class="st19" d="M553.6,250.9h0.2c0.2-0.2,0.2-0.4,0.2-0.6c0,0-0.4-0.8-1.5-1.3c-0.2,0-0.4,0-0.4,0.2c0,0.2,0,0.4,0.2,0.4
	c0.8,0.4,1.1,0.8,1.1,0.8C553.4,250.7,553.6,250.9,553.6,250.9z"/>
<path class="st8" d="M552.3,391l0.8,43.8c0,1.7,1.5,3.2,3.2,3.2l71.4-1.3c1.7,0,3.2-1.5,3.2-3.2l-0.8-43.8c0-1.7-1.5-3.2-3.2-3.2
	l-71.4,1.3C553.6,387.8,552.3,389.3,552.3,391z"/>
<path class="st16" d="M552.8,414.8l-0.4-23.8c0-1.7,1.3-3.2,3.2-3.2l71.4-1.3c1.7,0,3.2,1.3,3.2,3.2l0.4,23.8L552.8,414.8z"/>
<path class="st13" d="M579.9,380.4l0.2,7h3.6l-0.2-6.7h3.4h0.2h2.1h0.2l9.1-0.2l0.2,6.7h3.6l-0.2-7c0-1.9-1.5-3.4-3.4-3.4l-8.4,0.2
	h-0.6h-1.3h-0.2h-4.8C581.4,377.1,579.9,378.5,579.9,380.4z"/>
<path class="st20" d="M587.1,380.4h2.1h0.2c0.4-1.3,0.6-2.5,0.6-3.6h-0.6h-1.3C587.9,378.3,587.5,379.6,587.1,380.4z"/>
<path class="st20" d="M602,384.4l-3.6,0.1l0,2.5l3.6-0.1L602,384.4z"/>
<path class="st20" d="M583.7,384.8l-3.6,0.1l0,2.5l3.6-0.1L583.7,384.8z"/>
<path class="st20" d="M610.9,410.1l0.2,7c0,0.4,0.4,0.6,0.6,0.6h3.6c0.4,0,0.6-0.4,0.6-0.6l-0.2-7c0-0.4-0.4-0.6-0.6-0.6h-3.6
	C611.1,409.5,610.9,409.9,610.9,410.1z"/>
<path class="st13" d="M610.9,410.1v3.4h4.8v-3.4c0-0.4-0.4-0.6-0.6-0.6h-3.6C611.1,409.5,610.9,409.9,610.9,410.1z"/>
<path class="st20" d="M567.3,411l0.2,7c0,0.4,0.4,0.6,0.6,0.6h3.6c0.4,0,0.6-0.4,0.6-0.6l-0.2-7c0-0.4-0.4-0.6-0.6-0.6h-3.6
	C567.5,410.3,567.3,410.5,567.3,411z"/>
<path class="st13" d="M567.3,411v3.4h4.8V411c0-0.4-0.4-0.6-0.6-0.6h-3.6C567.5,410.3,567.3,410.5,567.3,411z"/>
<path class="st14" d="M583.9,376.8c1.3,0,2.1,0,2.9,0c0-0.2,0.2-0.4,0.6-0.6c0.8-0.4,1.7,0.2,1.7,0.6c0.2,1.1,0.2,1.9-0.6,3.6h-1.7
	c0,0,0.4,2.5,1.5,2.7c1.3,0.4,1.9-1.1,1.9-1.1s0,1.5,1.3,1.5c1.1,0,1.7-1.1,1.7-1.1c1.3,1.7,2.5,0.2,2.5,0.2s1.3,1.5,2.1,0.2
	c1.1-1.3,1.1-6.1,1.1-6.1c0.4-4.6-0.2-9.7-1.1-13.5c0-1.5-0.4-3.2-0.4-5.1c-2.1,0.2-3.2,0.4-5.3,0.6c-1.3,0.2-1.9,0.2-3.2,0.4
	c0.4,2.5,0.2,4.8,0.4,6.1c-0.6,1.1-1.3,2.3-1.7,3.2C587.3,370.9,584.1,374.5,583.9,376.8z"/>
<path class="st7" d="M573.8,316.4l-12.8-15c0,0-1.9-15,5.1-20c0,0,12.6,17.3,19,27c0,0,9.7,14.3,11.6,21.7l1.7,31.2
	c0,0-6.7,2.5-9.5,0.8c-1.5-9.7-3.6-23.8-3.2-27.8L573.8,316.4z"/>
<path class="st13" d="M495.6,544.1C495.6,544.3,495.6,544.3,495.6,544.1c0,2.1-1.1,4-2.9,5.7c-0.4,0.4-1.1,0.8-1.5,1.3
	c-1.7,1.1-3.6,2.3-5.9,3.2c-0.4,0.2-1.1,0.4-1.5,0.6c-1.9,0.6-3.8,1.5-5.9,1.9c-0.4,0.2-1.1,0.2-1.5,0.4c-1.9,0.4-3.8,1.1-5.9,1.5
	c-0.4,0-1.1,0.2-1.5,0.2c-1.9,0.4-3.8,0.6-5.9,1.1c-0.4,0-1.1,0.2-1.5,0.2c-1.9,0.2-3.8,0.4-5.9,0.6c-0.4,0-1.1,0-1.5,0.2
	c-1.9,0.2-3.8,0.2-5.9,0.4c-0.4,0-1.1,0-1.5,0c-1.9,0-4,0.2-5.9,0.2c-0.4,0-0.6,0-1.1,0c-0.2,0-0.4,0-0.4,0c-1.9,0-4,0-5.9-0.2
	c-0.4,0-1.1,0-1.5,0c-1.5,0-2.9-0.2-4.4-0.2c-0.4,0-1.1,0-1.5-0.2c-0.4,0-1.1,0-1.5-0.2c-2.1-0.2-4-0.4-5.9-0.6
	c-0.4,0-1.1-0.2-1.5-0.2c-1.3-0.2-2.3-0.4-3.6-0.6c-0.8-0.2-1.5-0.2-2.3-0.4c-0.4,0-1.1-0.2-1.5-0.2c-2.1-0.4-4-0.8-5.9-1.3
	c-0.4,0-0.6-0.2-1.1-0.2c-0.2,0-0.2,0-0.4-0.2c-0.8-0.2-1.7-0.4-2.5-0.6c-1.3-0.4-2.3-0.8-3.4-1.3c-0.6-0.2-1.1-0.4-1.5-0.6
	c-1.9-0.8-3.8-1.7-5.3-2.7c-0.2-0.2-0.4-0.2-0.6-0.4c-0.2-0.2-0.6-0.4-0.8-0.6c-0.2-0.2-0.6-0.4-0.8-0.6c-2.3-1.9-3.6-4-3.6-6.1
	c0-0.2,0-0.2,0-0.4v-12h3.4h1.5h5.9h1.5h4.6h1.3h1.5h5.9h1.5h5.9h1.5h5.9h1.5h5.9h1.5h5.9h1.5h5.9h1.5h5.9h1.5h5.9h1.5h5.9h1.5h5.9
	h1.5h0.4h5.5h1.5h5.9h1.5h2.9L495.6,544.1z"/>
<path class="st20" d="M388.2,531.9v19.6c-0.2-0.2-0.6-0.4-0.8-0.6c-0.2-0.2-0.6-0.4-0.8-0.6v-18.5L388.2,531.9z"/>
<path class="st20" d="M395.6,531.9v23.4c-0.6-0.2-1.1-0.4-1.5-0.6v-22.7H395.6z"/>
<path class="st20" d="M403.2,531.9v25.7c-0.4,0-0.6-0.2-1.1-0.2c-0.2,0-0.2,0-0.4-0.2v-25.3H403.2z"/>
<path class="st20" d="M410.5,531.9v27.4c-0.4,0-1.1-0.2-1.5-0.2v-27.2H410.5z"/>
<path class="st20" d="M418.1,531.9v28.6c-0.4,0-1.1-0.2-1.5-0.2v-28.4H418.1z"/>
<path class="st20" d="M425.5,531.9v29.3c-0.4,0-1.1,0-1.5-0.2v-29.3L425.5,531.9z"/>
<path class="st20" d="M432.9,531.9v29.7c-0.4,0-1.1,0-1.5,0v-29.7H432.9z"/>
<path class="st20" d="M440.4,531.9v29.7c-0.4,0-0.6,0-1.1,0c-0.2,0-0.4,0-0.4,0v-29.9L440.4,531.9z"/>
<path class="st20" d="M447.8,531.9v29.7c-0.4,0-1.1,0-1.5,0v-29.7H447.8z"/>
<path class="st20" d="M455.4,531.7v29.3c-0.4,0-1.1,0-1.5,0.2v-29.3L455.4,531.7z"/>
<path class="st20" d="M462.8,531.7v28.4c-0.4,0-1.1,0.2-1.5,0.2v-28.6H462.8z"/>
<path class="st20" d="M470.1,531.7v27.2c-0.4,0-1.1,0.2-1.5,0.2v-27.4H470.1z"/>
<path class="st20" d="M477.7,531.7v25.3c-0.4,0.2-1.1,0.2-1.5,0.4v-25.7H477.7z"/>
<path class="st20" d="M485.1,531.7v22.8c-0.4,0.2-1.1,0.4-1.5,0.6v-23.4H485.1z"/>
<path class="st20" d="M492.7,531.7v18.1c-0.4,0.4-1.1,0.8-1.5,1.3v-19.4H492.7z"/>
<path class="st21" d="M495.6,531.9c0,8.8-25.1,16-56.2,16c-4.2,0-8.4-0.2-12.4-0.4c-5.1-0.4-9.7-0.8-14.1-1.5c-4-0.6-7.6-1.3-11-2.1
	c-1.1-0.2-1.9-0.4-2.9-0.8c-4.2-1.3-7.6-2.5-10.3-4.2c-0.4-0.2-1.1-0.6-1.5-0.8c-2.7-1.9-4.2-4-4.2-6.1c0-0.2,0-0.4,0-0.6
	c1.1-8.6,25.7-15.4,56-15.4c7.4,0,14.5,0.4,21.1,1.3c1.3,0.2,2.5,0.2,3.8,0.4c5.3,0.8,10.1,1.7,14.3,2.9c0.8,0.2,1.9,0.4,2.7,0.8
	c3.2,1.1,5.7,2.1,7.8,3.2c2.3,1.3,4,2.5,5.1,3.8c0.8,1.1,1.3,2.1,1.5,2.9C495.6,531.5,495.6,531.7,495.6,531.9z"/>
<path class="st22" d="M494.2,528.3l-67,19.2c-5.1-0.4-9.7-0.8-14.1-1.5l76-21.5C491.2,525.6,492.9,526.8,494.2,528.3z"/>
<path class="st22" d="M464.3,517.5l-75.2,21.3c-0.4-0.2-1.1-0.6-1.5-0.8l73.1-20.9C461.7,517.1,463,517.3,464.3,517.5z"/>
<path class="st22" d="M481.1,521.1l-79.2,22.5c-1.1-0.2-1.9-0.4-2.9-0.8l79.4-22.5C479.4,520.7,480.3,520.9,481.1,521.1z"/>
<path class="st20" d="M484.3,531.9c0,0.2,0,0.4,0,0.6c-1.1,6.7-20.9,12.2-44.9,12.2c-24,0-43.8-5.5-44.9-12.2c0-0.2,0-0.4,0-0.6
	c0-7,20.2-12.8,44.9-12.8C464,519,484.3,524.9,484.3,531.9z"/>
<path class="st13" d="M484.3,532.5c-1.1,6.7-20.9,12.2-44.9,12.2c-0.6,0-1.1,0-1.7,0c-5.3,0-10.5-0.4-15.2-0.8
	c-4.6-0.6-9.1-1.3-12.8-2.3c-1.1-0.2-1.9-0.4-2.7-0.8c-4-1.3-7.2-2.5-9.5-4.2c-0.4-0.4-1.1-0.8-1.3-1.1c-0.8-0.8-1.5-1.9-1.7-2.9
	c1.1-6.7,20.9-12.2,44.9-12.2c2.9,0,6.1,0,8.8,0.2c1.5,0,2.9,0.2,4.4,0.2c5.7,0.4,11.2,1.3,15.6,2.3c1.1,0.2,1.9,0.4,2.7,0.6
	c3.6,1.1,6.5,2.1,8.6,3.4c2.1,1.3,3.6,2.5,4.2,4C484,531.9,484.3,532.1,484.3,532.5z"/>
<path class="st23" d="M483.8,531.5l-46.1,13.1c-5.3,0-10.5-0.4-15.2-0.8l57.1-16.2C481.9,528.7,483.4,530,483.8,531.5z"/>
<path class="st23" d="M452.7,520.9l-55,15.6c-0.4-0.4-1.1-0.8-1.3-1.1l52-14.7C449.7,520.7,451.2,520.7,452.7,520.9z"/>
<path class="st23" d="M471,524.1l-61.3,17.5c-1.1-0.2-1.9-0.4-2.7-0.8l61.3-17.5C469.1,523.4,470.1,523.7,471,524.1z"/>
<path class="st20" d="M445.7,539v2.1h-9.5V539c-6.7-0.2-13.3-0.6-17.3-1.3l5.1-3.4c4.4,0.8,10.3,1.3,15.6,1.3c4.4,0,6.1-0.2,6.1-0.6
	c0-1.7-25.9-0.4-25.9-5.3c0-2.1,5.5-4,16.4-4.4v-2.1h9.5v2.1c5.1,0.2,9.9,0.4,13.7,1.1l-4.8,3.2c-4.6-0.6-9.1-1.1-13.1-1.1
	c-4.6,0-6.1,0.4-6.1,0.8c0,1.7,25.9,0.2,25.9,5.3C461.3,536.7,456,538.6,445.7,539z"/>
<path class="st21" d="M445.3,538.4v2.1h-9.5v-2.1c-6.7-0.2-13.3-0.6-17.3-1.3l5.1-3.4c4.4,0.8,10.3,1.3,15.6,1.3
	c4.4,0,6.1-0.2,6.1-0.6c0-1.7-25.9-0.4-25.9-5.3c0-2.1,5.5-4,16.4-4.4v-2.1h9.5v2.1c5.1,0.2,9.9,0.4,13.7,1.1l-4.8,3.2
	c-4.6-0.6-9.1-1.1-13.1-1.1c-4.6,0-6.1,0.4-6.1,0.8c0,1.7,25.9,0.2,25.9,5.3C461.1,536.1,455.8,537.8,445.3,538.4z"/>
<path class="st13" d="M499,524.5c0,2.1-1.1,4-2.9,5.7c-0.4,0.4-1.1,0.8-1.5,1.3c-1.7,1.1-3.6,2.3-5.9,3.2c-0.4,0.2-1.1,0.4-1.5,0.6
	c-1.9,0.6-3.8,1.5-5.9,1.9c-0.4,0.2-1.1,0.2-1.5,0.4c-1.9,0.4-3.8,1.1-5.9,1.5c-0.4,0-1.1,0.2-1.5,0.2c-1.9,0.4-3.8,0.6-5.9,1.1
	c-0.4,0-1.1,0.2-1.5,0.2c-1.9,0.2-3.8,0.4-5.9,0.6c-0.4,0-1.1,0-1.5,0.2c-1.9,0.2-3.8,0.2-5.9,0.4c-0.4,0-1.1,0-1.5,0
	c-1.9,0-4,0.2-5.9,0.2c-0.4,0-0.6,0-1.1,0c-0.2,0-0.4,0-0.4,0c-1.9,0-4,0-5.9-0.2c-0.4,0-1.1,0-1.5,0c-1.5,0-2.9-0.2-4.4-0.2
	c-0.4,0-1.1,0-1.5-0.2c-0.4,0-1.1,0-1.5-0.2c-2.1-0.2-4-0.4-5.9-0.6c-0.4,0-1.1-0.2-1.5-0.2c-1.3-0.2-2.3-0.4-3.6-0.6
	c-0.8-0.2-1.5-0.2-2.3-0.4c-0.4,0-1.1-0.2-1.5-0.2c-2.1-0.4-4-0.8-5.9-1.3c-0.4,0-0.6-0.2-1.1-0.2c-0.2,0-0.2,0-0.4-0.2
	c-0.8-0.2-1.7-0.4-2.5-0.6c-1.3-0.4-2.3-0.8-3.4-1.3c-0.6-0.2-1.1-0.4-1.5-0.6c-1.9-0.8-3.8-1.7-5.3-2.7c-0.2-0.2-0.4-0.2-0.6-0.4
	c-0.2-0.2-0.6-0.4-0.8-0.6c-0.2-0.2-0.6-0.4-0.8-0.6c-2.3-1.9-3.6-4-3.6-6.1c0-0.2,0-0.2,0-0.4v-12h3.4h1.5h5.9h1.5h4.6h1.3h1.5h5.9
	h1.5h5.9h1.5h5.9h1.5h5.9h1.5h5.9h1.5h5.9h1.5h5.9h1.5h5.9h1.5h5.9h1.5h5.9h1.5h0.4h5.5h1.5h5.9h1.5h2.9L499,524.5z"/>
<path class="st20" d="M391.8,512.3v19.6c-0.2-0.2-0.6-0.4-0.8-0.6c-0.2-0.2-0.6-0.4-0.8-0.6v-18.5L391.8,512.3z"/>
<path class="st20" d="M399.2,512.1v23.4c-0.6-0.2-1.1-0.4-1.5-0.6v-22.7H399.2z"/>
<path class="st20" d="M406.8,512.1v25.7c-0.4,0-0.6-0.2-1.1-0.2c-0.2,0-0.2,0-0.4-0.2v-25.3H406.8z"/>
<path class="st20" d="M414.1,512.1v27.4c-0.4,0-1.1-0.2-1.5-0.2v-27.2H414.1z"/>
<path class="st20" d="M421.5,512.1v28.6c-0.4,0-1.1-0.2-1.5-0.2v-28.4H421.5z"/>
<path class="st20" d="M429.1,512.1v29.3c-0.4,0-1.1,0-1.5-0.2v-29.3L429.1,512.1z"/>
<path class="st20" d="M436.4,512.1v29.7c-0.4,0-1.1,0-1.5,0v-29.7H436.4z"/>
<path class="st20" d="M444,512.1V542c-0.4,0-0.6,0-1.1,0c-0.2,0-0.4,0-0.4,0v-29.9H444z"/>
<path class="st20" d="M451.4,512.1v29.7c-0.4,0-1.1,0-1.5,0v-29.7H451.4z"/>
<path class="st20" d="M458.8,512.1v29.3c-0.4,0-1.1,0-1.5,0.2v-29.3L458.8,512.1z"/>
<path class="st20" d="M466.4,512.1v28.4c-0.4,0-1.1,0.2-1.5,0.2v-28.6H466.4z"/>
<path class="st20" d="M473.7,512.1v27.2c-0.4,0-1.1,0.2-1.5,0.2v-27.4H473.7z"/>
<path class="st20" d="M481.3,512.1v25.3c-0.4,0.2-1.1,0.2-1.5,0.4v-25.7H481.3z"/>
<path class="st20" d="M488.7,512.1v22.7c-0.4,0.2-1.1,0.4-1.5,0.6v-23.4H488.7z"/>
<path class="st20" d="M496.1,512.1v18.1c-0.4,0.4-1.1,0.8-1.5,1.3v-19.4H496.1z"/>
<path class="st21" d="M499,512.1c0,8.8-25.1,16-56.2,16c-4.2,0-8.4-0.2-12.4-0.4c-5.1-0.4-9.7-0.8-14.1-1.5c-4-0.6-7.6-1.3-11-2.1
	c-1.1-0.2-1.9-0.4-3-0.8c-4.2-1.3-7.6-2.5-10.3-4.2c-0.4-0.2-1.1-0.6-1.5-0.8c-2.7-1.9-4.2-4-4.2-6.1c0-0.2,0-0.4,0-0.6
	c1.1-8.6,25.7-15.4,56-15.4c7.4,0,14.5,0.4,21.1,1.3c1.3,0.2,2.5,0.2,3.8,0.4c5.3,0.8,10.1,1.7,14.3,2.9c0.8,0.2,1.9,0.4,2.7,0.8
	c3.2,1.1,5.7,2.1,7.8,3.2c2.3,1.3,4,2.5,5.1,3.8c0.8,1.1,1.3,2.1,1.5,2.9C499,511.9,499,512.1,499,512.1z"/>
<path class="st22" d="M497.5,508.5l-67,19.2c-5.1-0.4-9.7-0.8-14.1-1.5l76-21.5C494.8,506,496.5,507.2,497.5,508.5z"/>
<path class="st22" d="M467.6,498l-75.2,21.3c-0.4-0.2-1.1-0.6-1.5-0.8l73.1-20.9C465.3,497.5,466.6,497.7,467.6,498z"/>
<path class="st22" d="M484.7,501.5l-79.2,22.5c-1.1-0.2-1.9-0.4-2.9-0.8l79.4-22.5C483,500.9,483.8,501.3,484.7,501.5z"/>
<path class="st20" d="M487.8,512.1c0,0.2,0,0.4,0,0.6c-1.1,6.7-20.9,12.2-44.9,12.2c-24,0-43.8-5.5-44.9-12.2c0-0.2,0-0.4,0-0.6
	c0-7,20.2-12.8,44.9-12.8C467.6,499.4,487.8,505.1,487.8,512.1z"/>
<path class="st13" d="M487.8,512.7c-1.1,6.7-20.9,12.2-44.9,12.2c-0.6,0-1.1,0-1.7,0c-5.3,0-10.5-0.4-15.2-0.8
	c-4.6-0.6-9.1-1.3-12.8-2.3c-1.1-0.2-1.9-0.4-2.7-0.8c-4-1.3-7.2-2.5-9.5-4.2c-0.4-0.4-1.1-0.8-1.3-1.1c-0.8-0.8-1.5-1.9-1.7-2.9
	c1.1-6.7,20.9-12.2,44.9-12.2c2.9,0,6.1,0,8.8,0.2c1.5,0,2.9,0.2,4.4,0.2c5.7,0.4,11.2,1.3,15.6,2.3c1.1,0.2,1.9,0.4,2.7,0.6
	c3.6,1.1,6.5,2.1,8.6,3.4c2.1,1.3,3.6,2.5,4.2,4C487.6,512.1,487.6,512.5,487.8,512.7z"/>
<path class="st23" d="M487.4,511.9l-46.1,13.1c-5.3,0-10.5-0.4-15.2-0.8l57.1-16.2C485.3,508.9,486.8,510.4,487.4,511.9z"/>
<path class="st23" d="M456,501.1l-55,15.6c-0.4-0.4-1.1-0.8-1.3-1.1l52-14.7C453.3,500.9,454.8,501.1,456,501.1z"/>
<path class="st23" d="M474.6,504.3l-61.3,17.5c-1.1-0.2-1.9-0.4-2.7-0.8l61.3-17.5C472.7,503.9,473.7,504.1,474.6,504.3z"/>
<path class="st20" d="M449.1,519.4v2.1h-9.5v-2.1c-6.7-0.2-13.3-0.6-17.3-1.3l5.1-3.4c4.4,0.8,10.3,1.3,15.6,1.3
	c4.4,0,6.1-0.2,6.1-0.6c0-1.7-25.9-0.4-25.9-5.3c0-2.1,5.5-4,16.4-4.4v-2.1h9.5v2.1c5.1,0.2,9.9,0.4,13.7,1.1l-4.8,3.2
	c-4.6-0.6-9.1-1.1-13.1-1.1c-4.6,0-6.1,0.4-6.1,0.8c0,1.7,25.9,0.2,25.9,5.3C464.9,517.1,459.6,518.8,449.1,519.4z"/>
<path class="st21" d="M448.9,518.6v2.1h-9.5v-2.1c-6.7-0.2-13.3-0.6-17.3-1.3l5.1-3.4c4.4,0.8,10.3,1.3,15.6,1.3
	c4.4,0,6.1-0.2,6.1-0.6c0-1.7-25.9-0.4-25.9-5.3c0-2.1,5.5-4,16.4-4.4v-2.1h9.5v2.1c5.1,0.2,9.9,0.4,13.7,1.1l-4.8,3.2
	c-4.6-0.6-9.1-1.1-13.1-1.1c-4.6,0-6.1,0.4-6.1,0.8c0,1.7,25.9,0.2,25.9,5.3C464.5,516.5,459.2,518.2,448.9,518.6z"/>
<path class="st13" d="M498.6,504.7C498.6,504.9,498.6,504.9,498.6,504.7c0,2.1-1.1,4-2.9,5.7c-0.4,0.4-1.1,0.8-1.5,1.3
	c-1.7,1.1-3.6,2.3-5.9,3.2c-0.4,0.2-1.1,0.4-1.5,0.6c-1.9,0.6-3.8,1.5-5.9,1.9c-0.4,0.2-1.1,0.2-1.5,0.4c-1.9,0.4-3.8,1.1-5.9,1.5
	c-0.4,0-1.1,0.2-1.5,0.2c-1.9,0.4-3.8,0.6-5.9,1.1c-0.4,0-1.1,0.2-1.5,0.2c-1.9,0.2-3.8,0.4-5.9,0.6c-0.4,0-1.1,0-1.5,0.2
	c-1.9,0.2-3.8,0.2-5.9,0.4c-0.4,0-1.1,0-1.5,0c-1.9,0-4,0.2-5.9,0.2c-0.4,0-0.6,0-1.1,0c-0.2,0-0.4,0-0.4,0c-1.9,0-4,0-5.9-0.2
	c-0.4,0-1.1,0-1.5,0c-1.5,0-2.9-0.2-4.4-0.2c-0.4,0-1.1,0-1.5-0.2c-0.4,0-1.1,0-1.5-0.2c-2.1-0.2-4-0.4-5.9-0.6
	c-0.4,0-1.1-0.2-1.5-0.2c-1.3-0.2-2.3-0.4-3.6-0.6c-0.8-0.2-1.5-0.2-2.3-0.4c-0.4,0-1.1-0.2-1.5-0.2c-2.1-0.4-4-0.8-5.9-1.3
	c-0.4,0-0.6-0.2-1.1-0.2c-0.2,0-0.2,0-0.4-0.2c-0.8-0.2-1.7-0.4-2.5-0.6c-1.3-0.4-2.3-0.8-3.4-1.3c-0.6-0.2-1.1-0.4-1.5-0.6
	c-1.9-0.8-3.8-1.7-5.3-2.7c-0.2-0.2-0.4-0.2-0.6-0.4c-0.2-0.2-0.6-0.4-0.8-0.6c-0.2-0.2-0.6-0.4-0.8-0.6c-2.3-1.9-3.6-4-3.6-6.1
	c0-0.2,0-0.2,0-0.4v-12h3.4h1.5h5.9h1.5h4.6h1.3h1.5h5.9h1.5h5.9h1.5h5.9h1.5h5.9h1.5h5.9h1.5h5.9h1.5h5.9h1.5h5.9h1.5h5.9h1.5h5.9
	h1.5h0.4h5.5h1.5h5.9h1.5h2.9L498.6,504.7z"/>
<path class="st20" d="M391.1,492.5v19.6c-0.2-0.2-0.6-0.4-0.8-0.6c-0.2-0.2-0.6-0.4-0.8-0.6v-18.5L391.1,492.5z"/>
<path class="st20" d="M398.7,492.5v23.4c-0.6-0.2-1.1-0.4-1.5-0.6v-22.7H398.7z"/>
<path class="st20" d="M406.1,492.5v25.7c-0.4,0-0.6-0.2-1.1-0.2c-0.2,0-0.2,0-0.4-0.2v-25.3H406.1z"/>
<path class="st20" d="M413.7,492.5v27.4c-0.4,0-1.1-0.2-1.5-0.2v-27.2H413.7z"/>
<path class="st20" d="M421.1,492.5v28.6c-0.4,0-1.1-0.2-1.5-0.2v-28.4H421.1z"/>
<path class="st20" d="M428.4,492.5v29.3c-0.4,0-1.1,0-1.5-0.2v-29.3L428.4,492.5z"/>
<path class="st20" d="M436,492.5v29.7c-0.4,0-1.1,0-1.5,0v-29.7H436z"/>
<path class="st20" d="M443.4,492.5v29.9c-0.4,0-0.6,0-1.1,0c-0.2,0-0.4,0-0.4,0v-29.9H443.4z"/>
<path class="st20" d="M451,492.5v29.7c-0.4,0-1.1,0-1.5,0v-29.7H451z"/>
<path class="st20" d="M458.3,492.5v29.1c-0.4,0-1.1,0-1.5,0.2v-29.3H458.3z"/>
<path class="st20" d="M465.7,492.5v28.4c-0.4,0-1.1,0.2-1.5,0.2v-28.6H465.7z"/>
<path class="st20" d="M473.3,492.5v27c-0.4,0-1.1,0.2-1.5,0.2v-27.4L473.3,492.5z"/>
<path class="st20" d="M480.7,492.3v25.3c-0.4,0.2-1.1,0.2-1.5,0.4v-25.7H480.7z"/>
<path class="st20" d="M488.2,492.3V515c-0.4,0.2-1.1,0.4-1.5,0.6v-23.4H488.2z"/>
<path class="st20" d="M495.6,492.3v18.1c-0.4,0.4-1.1,0.8-1.5,1.3v-19.4H495.6z"/>
<path class="st21" d="M498.6,492.5c0,8.8-25.1,16-56.2,16c-4.2,0-8.4-0.2-12.4-0.4c-5.1-0.4-9.7-0.8-14.1-1.5c-4-0.6-7.6-1.3-11-2.1
	c-1.1-0.2-1.9-0.4-2.9-0.8c-4.2-1.3-7.6-2.5-10.3-4.2c-0.4-0.2-1.1-0.6-1.5-0.8c-2.7-1.9-4.2-4-4.2-6.1c0-0.2,0-0.4,0-0.6
	c1.1-8.6,25.7-15.4,56-15.4c7.4,0,14.5,0.4,21.1,1.3c1.3,0.2,2.5,0.2,3.8,0.4c5.3,0.8,10.1,1.7,14.3,2.9c0.8,0.2,1.9,0.4,2.7,0.8
	c3.2,1.1,5.7,2.1,7.8,3.2c2.3,1.3,4,2.5,5.1,3.8c0.8,1.1,1.3,2.1,1.5,2.9C498.6,492.1,498.6,492.3,498.6,492.5z"/>
<path class="st22" d="M497.1,488.9l-67,19.2c-5.1-0.4-9.7-0.8-14.1-1.5l76-21.5C494.2,486.2,496.1,487.4,497.1,488.9z"/>
<path class="st22" d="M467.2,478.2L392,499.4c-0.4-0.2-1.1-0.6-1.5-0.8l73.1-20.9C464.7,477.9,465.9,477.9,467.2,478.2z"/>
<path class="st22" d="M484.3,481.7l-79.2,22.5c-1.1-0.2-1.9-0.4-2.9-0.8l79.4-22.5C482.4,481.3,483.2,481.5,484.3,481.7z"/>
<path class="st20" d="M487.2,492.5c0,0.2,0,0.4,0,0.6c-1.1,6.7-20.9,12.2-44.9,12.2c-24,0-43.8-5.5-44.9-12.2c0-0.2,0-0.4,0-0.6
	c0-7,20.2-12.9,44.9-12.9C467.2,479.8,487.2,485.5,487.2,492.5z"/>
<path class="st13" d="M487.2,493.1c-1.1,6.7-20.9,12.2-44.9,12.2c-0.6,0-1.1,0-1.7,0c-5.3,0-10.5-0.4-15.2-0.8
	c-4.6-0.6-9.1-1.3-12.8-2.3c-1.1-0.2-1.9-0.4-2.7-0.8c-4-1.3-7.2-2.5-9.5-4.2c-0.4-0.4-1.1-0.8-1.3-1.1c-0.8-0.8-1.5-1.9-1.7-2.9
	c1.1-6.7,20.9-12.2,44.9-12.2c2.9,0,6.1,0,8.8,0.2c1.5,0,2.9,0.2,4.4,0.2c5.7,0.4,11.2,1.3,15.6,2.3c1.1,0.2,1.9,0.4,2.7,0.6
	c3.6,1.1,6.5,2.1,8.6,3.4c2.1,1.3,3.6,2.5,4.2,4C487,492.5,487.2,492.7,487.2,493.1z"/>
<path class="st23" d="M487,492.1l-46.1,13.1c-5.3,0-10.5-0.4-15.2-0.8l57.1-16.2C484.9,489.3,486.4,490.6,487,492.1z"/>
<path class="st23" d="M455.6,481.5l-55,15.6c-0.4-0.4-1.1-0.8-1.3-1.1l52-14.7C452.7,481.3,454.1,481.3,455.6,481.5z"/>
<path class="st23" d="M474.1,484.7l-61.3,17.5c-1.1-0.2-1.9-0.4-2.7-0.8l61.3-17.5C472.2,484.1,473.1,484.5,474.1,484.7z"/>
<path class="st20" d="M448.7,499.6v2.1h-9.5v-2.1c-6.7-0.2-13.3-0.6-17.3-1.3l5.1-3.4c4.4,0.8,10.3,1.3,15.6,1.3
	c4.4,0,6.1-0.2,6.1-0.6c0-1.7-25.9-0.4-25.9-5.3c0-2.1,5.5-4,16.4-4.4v-2.1h9.5v2.1c5.1,0.2,9.9,0.4,13.7,1.1l-4.8,3.2
	c-4.6-0.6-9.1-1.1-13.1-1.1c-4.6,0-6.1,0.4-6.1,0.8c0,1.7,25.9,0.2,25.9,5.3C464.2,497.3,459,499.2,448.7,499.6z"/>
<path class="st21" d="M448.4,499v2.1H439V499c-6.7-0.2-13.3-0.6-17.3-1.3l5.1-3.4c4.4,0.8,10.3,1.3,15.6,1.3c4.4,0,6.1-0.2,6.1-0.6
	c0-1.7-25.9-0.4-25.9-5.3c0-2.1,5.5-4,16.4-4.4v-2.1h9.5v2.1c5.1,0.2,9.9,0.4,13.7,1.1l-4.8,3.2c-4.6-0.6-9.1-1.1-13.1-1.1
	c-4.6,0-6.1,0.4-6.1,0.8c0,1.7,25.9,0.2,25.9,5.3C464,496.7,458.8,498.6,448.4,499z"/>
<path class="st13" d="M495.8,487.2c0,2.1-1.1,4-2.9,5.7c-0.4,0.4-1.1,0.8-1.5,1.3c-1.7,1.1-3.6,2.3-5.9,3.2
	c-0.4,0.2-1.1,0.4-1.5,0.6c-1.9,0.6-3.8,1.5-5.9,1.9c-0.4,0.2-1.1,0.2-1.5,0.4c-1.9,0.4-3.8,1.1-5.9,1.5c-0.4,0-1.1,0.2-1.5,0.2
	c-1.9,0.4-3.8,0.6-5.9,1.1c-0.4,0-1.1,0.2-1.5,0.2c-1.9,0.2-3.8,0.4-5.9,0.6c-0.4,0-1.1,0-1.5,0.2c-1.9,0.2-3.8,0.2-5.9,0.4
	c-0.4,0-1.1,0-1.5,0c-1.9,0-4,0.2-5.9,0.2c-0.4,0-0.6,0-1.1,0c-0.2,0-0.4,0-0.4,0c-1.9,0-4,0-5.9-0.2c-0.4,0-1.1,0-1.5,0
	c-1.5,0-2.9-0.2-4.4-0.2c-0.4,0-1.1,0-1.5-0.2c-0.4,0-1.1,0-1.5-0.2c-2.1-0.2-4-0.4-5.9-0.6c-0.4,0-1.1-0.2-1.5-0.2
	c-1.3-0.2-2.3-0.4-3.6-0.6c-0.8-0.2-1.5-0.2-2.3-0.4c-0.4,0-1.1-0.2-1.5-0.2c-2.1-0.4-4-0.8-5.9-1.3c-0.4,0-0.6-0.2-1.1-0.2
	c-0.2,0-0.2,0-0.4-0.2c-0.8-0.2-1.7-0.4-2.5-0.6c-1.3-0.4-2.3-0.8-3.4-1.3c-0.6-0.2-1.1-0.4-1.5-0.6c-1.9-0.8-3.8-1.7-5.3-2.7
	c-0.2-0.2-0.4-0.2-0.6-0.4c-0.2-0.2-0.6-0.4-0.8-0.6c-0.2-0.2-0.6-0.4-0.8-0.6c-2.3-1.9-3.6-4-3.6-6.1c0-0.2,0-0.2,0-0.4v-12h3.4
	h1.5h5.9h1.5h4.6h1.3h1.5h5.9h1.5h5.9h1.5h5.9h1.5h5.9h1.5h5.9h1.5h5.9h1.5h5.9h1.5h5.9h1.5h5.9h1.5h5.9h1.5h0.4h5.5h1.5h5.9h1.5
	h2.9L495.8,487.2z"/>
<path class="st20" d="M388.4,475v19.6c-0.2-0.2-0.6-0.4-0.8-0.6c-0.2-0.2-0.6-0.4-0.8-0.6v-18.5L388.4,475z"/>
<path class="st20" d="M395.8,475v23.4c-0.6-0.2-1.1-0.4-1.5-0.6V475H395.8z"/>
<path class="st20" d="M403.4,474.8v25.7c-0.4,0-0.6-0.2-1.1-0.2c-0.2,0-0.2,0-0.4-0.2v-25.3H403.4z"/>
<path class="st20" d="M410.7,474.8v27.4c-0.4,0-1.1-0.2-1.5-0.2v-27.2H410.7z"/>
<path class="st20" d="M418.3,474.8v28.6c-0.4,0-1.1-0.2-1.5-0.2v-28.4H418.3z"/>
<path class="st20" d="M425.7,474.8v29.3c-0.4,0-1.1,0-1.5-0.2v-29.3L425.7,474.8z"/>
<path class="st20" d="M433.1,474.8v29.9c-0.4,0-1.1,0-1.5,0V475L433.1,474.8z"/>
<path class="st20" d="M440.7,474.8v29.9c-0.4,0-0.6,0-1.1,0c-0.2,0-0.4,0-0.4,0v-29.9H440.7z"/>
<path class="st20" d="M448,474.8v29.7c-0.4,0-1.1,0-1.5,0v-29.7H448z"/>
<path class="st20" d="M455.6,474.8v29.3c-0.4,0-1.1,0-1.5,0.2V475L455.6,474.8z"/>
<path class="st20" d="M463,474.8v28.4c-0.4,0-1.1,0.2-1.5,0.2v-28.6H463z"/>
<path class="st20" d="M470.3,474.8V502c-0.4,0-1.1,0.2-1.5,0.2v-27.4H470.3z"/>
<path class="st20" d="M477.9,474.8v25.3c-0.4,0.2-1.1,0.2-1.5,0.4v-25.7H477.9z"/>
<path class="st20" d="M485.3,474.8v22.7c-0.4,0.2-1.1,0.4-1.5,0.6v-23.4H485.3z"/>
<path class="st20" d="M492.9,474.8v18.1c-0.4,0.4-1.1,0.8-1.5,1.3v-19.4H492.9z"/>
<path class="st21" d="M495.8,475c0,8.8-25.1,16-56.2,16c-4.2,0-8.4-0.2-12.4-0.4c-5.1-0.4-9.7-0.8-14.1-1.5c-4-0.6-7.6-1.3-11-2.1
	c-1.1-0.2-1.9-0.4-2.9-0.8c-4.2-1.3-7.6-2.5-10.3-4.2c-0.4-0.2-1.1-0.6-1.5-0.8c-2.7-1.9-4.2-4-4.2-6.1c0-0.2,0-0.4,0-0.6
	c1.1-8.6,25.7-15.4,56-15.4c7.4,0,14.5,0.4,21.1,1.3c1.3,0.2,2.5,0.2,3.8,0.4c5.3,0.8,10.1,1.7,14.3,2.9c0.8,0.2,1.9,0.4,2.7,0.8
	c3.2,1.1,5.7,2.1,7.8,3.2c2.3,1.3,4,2.5,5.1,3.8c0.8,1.1,1.3,2.1,1.5,2.9C495.8,474.6,495.8,474.8,495.8,475z"/>
<path class="st22" d="M494.4,471.2l-67,19.2c-5.1-0.4-9.7-0.8-14.1-1.5l76-21.5C491.4,468.7,493.1,469.9,494.4,471.2z"/>
<path class="st22" d="M464.5,460.7L389.3,482c-0.4-0.2-1.1-0.6-1.5-0.8l73.1-20.9C461.9,460.3,463.2,460.5,464.5,460.7z"/>
<path class="st22" d="M481.3,464.3l-79.2,22.5c-1.1-0.2-1.9-0.4-2.9-0.8l79.4-22.5C479.6,463.6,480.5,464,481.3,464.3z"/>
<path class="st20" d="M484.5,475c0,0.2,0,0.4,0,0.6c-1.1,6.7-20.9,12.2-44.9,12.2c-24,0-43.8-5.5-44.9-12.2c0-0.2,0-0.4,0-0.6
	c0-7,20.2-12.8,44.9-12.8C464.2,462.2,484.5,467.8,484.5,475z"/>
<path class="st13" d="M484.5,475.4c-1.1,6.7-20.9,12.2-44.9,12.2c-0.6,0-1.1,0-1.7,0c-5.3,0-10.5-0.4-15.2-0.8
	c-4.6-0.6-9.1-1.3-12.8-2.3c-1.1-0.2-1.9-0.4-2.7-0.8c-4-1.3-7.2-2.5-9.5-4.2c-0.4-0.4-1.1-0.8-1.3-1.1c-0.8-0.8-1.5-1.9-1.7-2.9
	c1.1-6.7,20.9-12.2,44.9-12.2c2.9,0,6.1,0,8.8,0.2c1.5,0,2.9,0.2,4.4,0.2c5.7,0.4,11.2,1.3,15.6,2.3c1.1,0.2,1.9,0.4,2.7,0.6
	c3.6,1.1,6.5,2.1,8.6,3.4c2.1,1.3,3.6,2.5,4.2,4C484.3,474.8,484.5,475.2,484.5,475.4z"/>
<path class="st23" d="M484.3,474.6l-46.1,13.1c-5.3,0-10.5-0.4-15.2-0.8l57.1-16.2C482.2,471.6,483.6,473.1,484.3,474.6z"/>
<path class="st23" d="M452.9,463.8l-55,15.6c-0.4-0.4-1.1-0.8-1.3-1.1l52-14.7C449.9,463.6,451.4,463.8,452.9,463.8z"/>
<path class="st23" d="M471.2,467l-61.3,17.5c-1.1-0.2-1.9-0.4-2.7-0.8l61.3-17.5C469.3,466.6,470.4,466.8,471.2,467z"/>
<path class="st20" d="M445.9,482.2v2.1h-9.5v-2.1c-6.7-0.2-13.3-0.6-17.3-1.3l5.1-3.4c4.4,0.8,10.3,1.3,15.6,1.3
	c4.4,0,6.1-0.2,6.1-0.6c0-1.7-25.9-0.4-25.9-5.3c0-2.1,5.5-4,16.4-4.4v-2.1h9.5v2.1c5.1,0.2,9.9,0.4,13.7,1.1l-4.8,3.2
	c-4.6-0.6-9.1-1.1-13.1-1.1c-4.6,0-6.1,0.4-6.1,0.8c0,1.7,25.9,0.2,25.9,5.3C461.5,479.8,456.3,481.5,445.9,482.2z"/>
<path class="st21" d="M445.5,481.5v2.1H436v-2.1c-6.7-0.2-13.3-0.6-17.3-1.3l5.1-3.4c4.4,0.8,10.3,1.3,15.6,1.3
	c4.4,0,6.1-0.2,6.1-0.6c0-1.7-25.9-0.4-25.9-5.3c0-2.1,5.5-4,16.4-4.4v-2.1h9.5v2.1c5.1,0.2,9.9,0.4,13.7,1.1l-4.8,3.2
	c-4.6-0.6-9.1-1.1-13.1-1.1c-4.6,0-6.1,0.4-6.1,0.8c0,1.7,25.9,0.2,25.9,5.3C461.3,479.2,456,480.9,445.5,481.5z"/>
<path class="st13" d="M495.4,466.4C495.4,466.6,495.4,466.6,495.4,466.4c0,2.1-1.1,4-2.9,5.7c-0.4,0.4-1.1,0.8-1.5,1.3
	c-1.7,1.1-3.6,2.3-5.9,3.2c-0.4,0.2-1.1,0.4-1.5,0.6c-1.9,0.6-3.8,1.5-5.9,1.9c-0.4,0.2-1.1,0.2-1.5,0.4c-1.9,0.4-3.8,1.1-5.9,1.5
	c-0.4,0-1.1,0.2-1.5,0.2c-1.9,0.4-3.8,0.6-5.9,1.1c-0.4,0-1.1,0.2-1.5,0.2c-1.9,0.2-3.8,0.4-5.9,0.6c-0.4,0-1.1,0-1.5,0.2
	c-1.9,0.2-3.8,0.2-5.9,0.4c-0.4,0-1.1,0-1.5,0c-1.9,0-4,0.2-5.9,0.2c-0.4,0-0.6,0-1.1,0c-0.2,0-0.4,0-0.4,0c-1.9,0-4,0-5.9-0.2
	c-0.4,0-1.1,0-1.5,0c-1.5,0-2.9-0.2-4.4-0.2c-0.4,0-1.1,0-1.5-0.2c-0.4,0-1.1,0-1.5-0.2c-2.1-0.2-4-0.4-5.9-0.6
	c-0.4,0-1.1-0.2-1.5-0.2c-1.3-0.2-2.3-0.4-3.6-0.6c-0.8-0.2-1.5-0.2-2.3-0.4c-0.4,0-1.1-0.2-1.5-0.2c-2.1-0.4-4-0.8-5.9-1.3
	c-0.4,0-0.6-0.2-1.1-0.2c-0.2,0-0.2,0-0.4-0.2c-0.8-0.2-1.7-0.4-2.5-0.6c-1.3-0.4-2.3-0.8-3.4-1.3c-0.6-0.2-1.1-0.4-1.5-0.6
	c-1.9-0.8-3.8-1.7-5.3-2.7c-0.2-0.2-0.4-0.2-0.6-0.4c-0.2-0.2-0.6-0.4-0.8-0.6c-0.2-0.2-0.6-0.4-0.8-0.6c-2.3-1.9-3.6-4-3.6-6.1
	c0-0.2,0-0.2,0-0.4v-12h3.4h1.5h5.9h1.5h4.6h1.3h1.5h5.9h1.5h5.9h1.5h5.9h1.5h5.9h1.5h5.9h1.5h5.9h1.5h5.9h1.5h5.9h1.5h5.9h1.5h5.9
	h1.5h0.4h5.5h1.5h5.9h1.5h2.9L495.4,466.4z"/>
<path class="st20" d="M388,454.1v19.6c-0.2-0.2-0.6-0.4-0.8-0.6c-0.2-0.2-0.6-0.4-0.8-0.6v-18.3H388z"/>
<path class="st20" d="M395.4,454.1v23.4c-0.6-0.2-1.1-0.4-1.5-0.6v-22.7H395.4z"/>
<path class="st20" d="M402.9,454.1v25.7c-0.4,0-0.6-0.2-1.1-0.2c-0.2,0-0.2,0-0.4-0.2v-25.3H402.9z"/>
<path class="st20" d="M410.3,454.1v27.4c-0.4,0-1.1-0.2-1.5-0.2v-27.2H410.3z"/>
<path class="st20" d="M417.9,454.1v28.6c-0.4,0-1.1-0.2-1.5-0.2v-28.4H417.9z"/>
<path class="st20" d="M425.3,454.1v29.3c-0.4,0-1.1,0-1.5-0.2v-29.1H425.3z"/>
<path class="st20" d="M432.6,454.1v29.7c-0.4,0-1.1,0-1.5,0v-29.7H432.6z"/>
<path class="st20" d="M440.2,454.1v29.9c-0.4,0-0.6,0-1.1,0c-0.2,0-0.4,0-0.4,0v-29.9H440.2z"/>
<path class="st20" d="M447.6,454.1v29.7c-0.4,0-1.1,0-1.5,0v-29.7H447.6z"/>
<path class="st20" d="M455.2,454.1v29.3c-0.4,0-1.1,0-1.5,0.2v-29.5H455.2z"/>
<path class="st20" d="M462.5,453.9v28.4c-0.4,0-1.1,0.2-1.5,0.2v-28.6H462.5z"/>
<path class="st20" d="M469.9,453.9v27.2c-0.4,0-1.1,0.2-1.5,0.2v-27.4H469.9z"/>
<path class="st20" d="M477.5,453.9v25.3c-0.4,0.2-1.1,0.2-1.5,0.4v-25.7H477.5z"/>
<path class="st20" d="M484.9,453.9v22.7c-0.4,0.2-1.1,0.4-1.5,0.6v-23.4H484.9z"/>
<path class="st20" d="M492.5,453.9V472c-0.4,0.4-1.1,0.8-1.5,1.3v-19.4H492.5z"/>
<path class="st21" d="M495.4,454.1c0,8.8-25.1,16-56.2,16c-4.2,0-8.4-0.2-12.4-0.4c-5.1-0.4-9.7-0.8-14.1-1.5c-4-0.6-7.6-1.3-11-2.1
	c-1.1-0.2-1.9-0.4-2.9-0.8c-4.2-1.3-7.6-2.5-10.3-4.2c-0.4-0.2-1.1-0.6-1.5-0.8c-2.7-1.9-4.2-4-4.2-6.1c0-0.2,0-0.4,0-0.6
	c1.1-8.6,25.7-15.4,56-15.4c7.4,0,14.5,0.4,21.1,1.3c1.3,0.2,2.5,0.2,3.8,0.4c5.3,0.8,10.1,1.7,14.3,2.9c0.8,0.2,1.9,0.4,2.7,0.8
	c3.2,1.1,5.7,2.1,7.8,3.2c2.3,1.3,4,2.5,5.1,3.8c0.8,1.1,1.3,2.1,1.5,2.9C495.4,453.7,495.4,453.9,495.4,454.1z"/>
<path class="st22" d="M493.9,450.6l-67,19.2c-5.1-0.4-9.7-0.8-14.1-1.5l76-21.5C491,447.8,492.7,449.1,493.9,450.6z"/>
<path class="st22" d="M464,439.8l-75.2,21.3c-0.4-0.2-1.1-0.6-1.5-0.8l73.1-20.9C461.5,439.4,462.8,439.6,464,439.8z"/>
<path class="st22" d="M480.9,443.4l-79.2,22.5c-1.1-0.2-1.9-0.4-2.9-0.8l79.4-22.5C479.2,443,480,443.2,480.9,443.4z"/>
<path class="st20" d="M484,454.1c0,0.2,0,0.4,0,0.6c-1.1,6.7-20.9,12.2-44.9,12.2c-24,0-43.8-5.5-44.9-12.2c0-0.2,0-0.4,0-0.6
	c0-7,20.2-12.9,44.9-12.9C463.8,441.3,484,447.2,484,454.1z"/>
<path class="st13" d="M484,454.8c-1.1,6.7-20.9,12.2-44.9,12.2c-0.6,0-1.1,0-1.7,0c-5.3,0-10.5-0.4-15.2-0.8
	c-4.6-0.6-9.1-1.3-12.8-2.3c-1.1-0.2-1.9-0.4-2.7-0.8c-4-1.3-7.2-2.5-9.5-4.2c-0.4-0.4-1.1-0.8-1.3-1.1c-0.8-0.8-1.5-1.9-1.7-2.9
	c1.1-6.7,20.9-12.2,44.9-12.2c2.9,0,6.1,0,8.8,0.2c1.5,0,2.9,0.2,4.4,0.2c5.7,0.4,11.2,1.3,15.6,2.3c1.1,0.2,1.9,0.4,2.7,0.6
	c3.6,1.1,6.5,2.1,8.6,3.4c2.1,1.3,3.6,2.5,4.2,4C483.8,454.1,484,454.4,484,454.8z"/>
<path class="st23" d="M483.8,453.7l-46.1,13.1c-5.3,0-10.5-0.4-15.2-0.8l57.1-16.2C481.7,451,483.2,452.3,483.8,453.7z"/>
<path class="st23" d="M452.4,443.2l-55,15.6c-0.4-0.4-1.1-0.8-1.3-1.1l52-14.7C449.5,443,451,443,452.4,443.2z"/>
<path class="st23" d="M470.8,446.4l-61.3,17.5c-1.1-0.2-1.9-0.4-2.7-0.8l61.3-17.5C468.9,445.7,469.9,445.9,470.8,446.4z"/>
<path class="st20" d="M445.5,461.3v2.1H436v-2.1c-6.7-0.2-13.3-0.6-17.3-1.3l5.1-3.4c4.4,0.8,10.3,1.3,15.6,1.3
	c4.4,0,6.1-0.2,6.1-0.6c0-1.7-25.9-0.4-25.9-5.3c0-2.1,5.5-4,16.4-4.4v-2.1h9.5v2.1c5.1,0.2,9.9,0.4,13.7,1.1l-4.8,3.2
	c-4.6-0.6-9.1-1.1-13.1-1.1c-4.6,0-6.1,0.4-6.1,0.8c0,1.7,25.9,0.2,25.9,5.3C461.1,459,455.8,460.9,445.5,461.3z"/>
<path class="st21" d="M445.1,460.7v2.1h-9.5v-2.1c-6.7-0.2-13.3-0.6-17.3-1.3l5.1-3.4c4.4,0.8,10.3,1.3,15.6,1.3
	c4.4,0,6.1-0.2,6.1-0.6c0-1.7-25.9-0.4-25.9-5.3c0-2.1,5.5-4,16.4-4.4v-2.1h9.5v2.1c5.1,0.2,9.9,0.4,13.7,1.1l-4.8,3.2
	c-4.6-0.6-9.1-1.1-13.1-1.1c-4.6,0-6.1,0.4-6.1,0.8c0,1.7,25.9,0.2,25.9,5.3C460.9,458.4,455.6,460.3,445.1,460.7z"/>
<g class="st2">
	<path class="st3" d="M120.7,228.3l-3.2-8.2l-7.8,2.9c-1.1-1.9-2.5-3.4-4.2-4.8l3.4-7.4l-8-3.6l-3.2,7.2c-2.7-0.6-5.3-0.6-8-0.2
		l-2.9-7.8l-8.2,3.2l3.2,8c-1.5,1.1-2.7,2.3-4,3.6l-7.4-3.4l-3.6,8l7.2,3.2c-0.6,2.7-0.6,5.3-0.2,8l-6.7,2.5l3.2,8.2l7-2.7
		c1.3,1.9,2.9,3.6,4.8,4.8l-3.2,7.2l8,3.6l3.4-7.4c2.5,0.4,5.1,0.2,7.6-0.2l2.9,7.8l8.2-3.2l-3.2-8.4c1.5-1.3,2.9-2.5,4-4.2l7.2,3.2
		l3.6-8l-7.4-3.4c0.2-1.9,0.4-3.6,0.2-5.5L120.7,228.3z M100.3,237c-1.9,4-6.7,5.9-10.7,4c-4-1.9-5.9-6.7-4-10.7s6.7-5.9,10.7-4
		C100.3,227.9,102.2,232.8,100.3,237z"/>
	<path class="st3" d="M96.7,287.5l-1.7-4.4l-4.2,1.7c-0.6-1.1-1.5-1.9-2.3-2.7l1.9-4l-4.4-1.9l-1.7,3.8c-1.5-0.4-2.9-0.4-4.4-0.2
		l-1.7-4.2l-4.4,1.7l1.7,4.4c-0.8,0.6-1.5,1.3-2.1,2.1l-4-1.9l-1.9,4.4l3.8,1.7c-0.4,1.5-0.4,2.9-0.2,4.4l-3.8,1.5l1.7,4.4l3.8-1.5
		c0.6,1.1,1.7,1.9,2.7,2.7l-1.7,3.8l4.4,1.9l1.9-4c1.5,0.2,2.7,0.2,4-0.2l1.7,4.2l4.4-1.7l-1.7-4.6c0.8-0.6,1.5-1.5,2.1-2.3l3.8,1.7
		l1.9-4.4l-4-1.9c0.2-1.1,0.2-1.9,0-2.9L96.7,287.5z M85.5,292.4c-1.1,2.3-3.6,3.2-5.9,2.3c-2.3-1.1-3.2-3.6-2.3-5.9
		c1.1-2.3,3.6-3.2,5.9-2.3C85.5,287.5,86.6,290.1,85.5,292.4z"/>
	<path class="st3" d="M699.7,203.1l-8.8,0.4l0.4,8.2c-2.1,0.4-4,1.5-5.9,2.5l-6.1-5.5l-5.9,6.5l5.7,5.3c-1.5,2.3-2.3,4.8-2.7,7.4
		l-8.2,0.4l0.4,8.8l8.6-0.4c0.6,1.7,1.3,3.4,2.3,4.8l-5.5,6.1l6.5,5.9l5.3-5.7c2.3,1.5,4.8,2.3,7.4,2.7l0.4,7.2l8.8-0.4l-0.4-7.6
		c2.1-0.6,4.2-1.7,6.1-3.2l5.7,5.3l5.9-6.5l-6.1-5.5c1.3-2.3,1.9-4.6,2.1-7.2l8.4-0.4l-0.4-8.8l-9.1,0.4c-0.6-1.9-1.7-3.6-2.7-5.1
		l5.3-5.7l-6.5-5.9l-5.5,6.1c-1.7-0.8-3.4-1.5-5.1-1.7L699.7,203.1z M701.6,225.2c3.4,2.9,3.6,8.2,0.6,11.4
		c-2.9,3.4-8.2,3.6-11.4,0.6c-3.4-2.9-3.6-8.2-0.6-11.4C693.2,222.4,698.5,222.2,701.6,225.2z"/>
	<path class="st3" d="M545.8,98.6l-4.8,0.2l0.2,4.6c-1.1,0.2-2.3,0.8-3.2,1.5l-3.4-2.9l-3.2,3.6l3.2,2.7c-0.8,1.3-1.3,2.7-1.5,4
		l-4.6,0.2l0.2,4.8l4.6-0.2c0.2,0.8,0.6,1.9,1.3,2.7l-2.9,3.4l3.6,3.2l2.7-3.2c1.3,0.8,2.7,1.3,4,1.5l0.2,4l4.8-0.2l-0.2-4
		c1.3-0.4,2.3-0.8,3.4-1.7l3.2,2.7l3.2-3.6l-3.4-2.9c0.6-1.3,1.1-2.5,1.1-4l4.6-0.2l-0.2-4.8l-4.8,0.2c-0.4-1.1-0.8-1.9-1.5-2.7
		l2.7-3.2l-3.6-3.2l-2.9,3.4c-0.8-0.4-1.9-0.8-2.7-1.1V98.6z M546.8,110.8c1.9,1.7,1.9,4.4,0.4,6.3c-1.7,1.9-4.4,1.9-6.3,0.4
		c-1.9-1.7-1.9-4.4-0.4-6.3C542.2,109.3,544.9,109.1,546.8,110.8z"/>
	<path class="st26" d="M465.7,134c-4.4,0-8.2-3.6-8.2-8.2c0-4.6,3.6-8.2,8.2-8.2c4.4,0,8.2,3.6,8.2,8.2
		C473.9,130.4,470.4,134,465.7,134z M465.7,120.1c-3.2,0-5.7,2.5-5.7,5.7c0,3.2,2.5,5.7,5.7,5.7s5.7-2.5,5.7-5.7
		C471.4,122.6,468.9,120.1,465.7,120.1z"/>
	<path class="st27" d="M502,157.8c-4.4,0-8.2-3.6-8.2-8.2s3.6-8.2,8.2-8.2s8.2,3.6,8.2,8.2S506.4,157.8,502,157.8z M502,144.1
		c-3.2,0-5.7,2.5-5.7,5.7c0,3.2,2.5,5.7,5.7,5.7s5.7-2.5,5.7-5.7C507.4,146.4,504.9,144.1,502,144.1z"/>
	<path class="st26" d="M505.5,180.5c-0.6,0-1.3-0.6-1.3-1.3v-5.7c0-0.6,0.6-1.3,1.3-1.3c0.6,0,1.3,0.6,1.3,1.3v5.7
		C506.8,179.9,506.2,180.5,505.5,180.5z"/>
	<path class="st26" d="M505.5,190.4c-0.6,0-1.3-0.6-1.3-1.3v-5.7c0-0.6,0.6-1.3,1.3-1.3c0.6,0,1.3,0.6,1.3,1.3v5.7
		C506.8,189.8,506.2,190.4,505.5,190.4z"/>
	<path class="st26" d="M513.5,182.6h-5.1c-0.6,0-1.3-0.6-1.3-1.3c0-0.6,0.6-1.3,1.3-1.3h5.1c0.6,0,1.3,0.6,1.3,1.3
		C514.8,182,514.2,182.6,513.5,182.6z"/>
	<path class="st26" d="M502.6,182.6h-5.1c-0.6,0-1.3-0.6-1.3-1.3c0-0.6,0.6-1.3,1.3-1.3h5.1c0.6,0,1.3,0.6,1.3,1.3
		C503.8,182,503.4,182.6,502.6,182.6z"/>
	<path class="st27" d="M461.1,159c-0.6,0-1.3-0.6-1.3-1.3v-5.7c0-0.6,0.6-1.3,1.3-1.3c0.6,0,1.3,0.6,1.3,1.3v5.7
		C462.4,158.6,461.9,159,461.1,159z"/>
	<path class="st27" d="M461.1,168.9c-0.6,0-1.3-0.6-1.3-1.3V162c0-0.6,0.6-1.3,1.3-1.3c0.6,0,1.3,0.6,1.3,1.3v5.7
		C462.4,168.5,461.9,168.9,461.1,168.9z"/>
	<path class="st27" d="M469.1,161.1H464c-0.6,0-1.3-0.6-1.3-1.3s0.6-1.3,1.3-1.3h5.1c0.6,0,1.3,0.6,1.3,1.3S469.7,161.1,469.1,161.1
		z"/>
	<path class="st27" d="M458.4,161.1h-5.1c-0.6,0-1.3-0.6-1.3-1.3s0.6-1.3,1.3-1.3h5.1c0.6,0,1.3,0.6,1.3,1.3S459,161.1,458.4,161.1z
		"/>
	<path class="st26" d="M167.2,112.5c-4.4,0-8.2-3.6-8.2-8.2c0-4.6,3.6-8.2,8.2-8.2c4.6,0,8.2,3.6,8.2,8.2
		C175.5,108.9,171.7,112.5,167.2,112.5z M167.2,110c3.2,0,5.7-2.5,5.7-5.7c0-3.2-2.5-5.7-5.7-5.7c-3.2,0-5.7,2.5-5.7,5.7
		C161.6,107.4,164.1,110,167.2,110z"/>
	<path class="st27" d="M190.6,139.4c-4.4,0-8.2-3.6-8.2-8.2c0-4.6,3.6-8.2,8.2-8.2c4.4,0,8.2,3.6,8.2,8.2
		C198.8,135.9,195.3,139.4,190.6,139.4z M190.6,136.9c3.2,0,5.7-2.5,5.7-5.7c0-3.2-2.5-5.7-5.7-5.7s-5.7,2.5-5.7,5.7
		C184.9,134.4,187.5,136.9,190.6,136.9z"/>
	<path class="st26" d="M211.5,98.4c0-0.6-0.6-1.3-1.3-1.3h-5.7c-0.6,0-1.3,0.6-1.3,1.3c0,0.6,0.6,1.3,1.3,1.3h5.7
		C210.9,99.6,211.5,99,211.5,98.4z"/>
	<path class="st26" d="M221.4,98.4c0-0.6-0.6-1.3-1.3-1.3h-5.7c-0.6,0-1.3,0.6-1.3,1.3c0,0.6,0.6,1.3,1.3,1.3h5.7
		C220.8,99.6,221.4,99,221.4,98.4z"/>
	<path class="st26" d="M213.6,106.4v-5.1c0-0.6-0.6-1.3-1.3-1.3c-0.6,0-1.3,0.6-1.3,1.3v5.1c0,0.6,0.6,1.3,1.3,1.3
		C213,107.6,213.6,107,213.6,106.4z"/>
	<path class="st26" d="M213.6,95.4v-5.1c0-0.6-0.6-1.3-1.3-1.3c-0.6,0-1.3,0.6-1.3,1.3v5.1c0,0.6,0.6,1.3,1.3,1.3
		C213,96.7,213.6,96.3,213.6,95.4z"/>
	<path class="st27" d="M147.2,146.2c0-0.6-0.6-1.3-1.3-1.3h-5.7c-0.6,0-1.3,0.6-1.3,1.3s0.6,1.3,1.3,1.3h5.7
		C146.6,147.4,147.2,146.8,147.2,146.2z"/>
	<path class="st27" d="M157.1,146.2c0-0.6-0.6-1.3-1.3-1.3h-5.7c-0.6,0-1.3,0.6-1.3,1.3s0.6,1.3,1.3,1.3h5.7
		C156.5,147.4,157.1,146.8,157.1,146.2z"/>
	<path class="st27" d="M149.3,154.2v-5.1c0-0.6-0.6-1.3-1.3-1.3s-1.3,0.6-1.3,1.3v5.1c0,0.6,0.6,1.3,1.3,1.3
		S149.3,154.8,149.3,154.2z"/>
	<path class="st27" d="M149.3,143.2v-5.1c0-0.6-0.6-1.3-1.3-1.3s-1.3,0.6-1.3,1.3v5.1c0,0.6,0.6,1.3,1.3,1.3
		S149.3,144.1,149.3,143.2z"/>
</g>
</svg>
