<?xml version="1.0" encoding="utf-8"?>
<!-- Generator: Adobe Illustrator 24.0.0, SVG Export Plug-In . SVG Version: 6.00 Build 0)  -->
<svg version="1.1" id="Layer_1" xmlns="http://www.w3.org/2000/svg" xmlns:xlink="http://www.w3.org/1999/xlink" x="0px" y="0px"
	 viewBox="0 0 725 570" style="enable-background:new 0 0 725 570;" xml:space="preserve">
<style type="text/css">
	.st0{opacity:0.6;fill:#E0E0E0;enable-background:new    ;}
	.st1{display:none;}
	.st2{display:inline;opacity:0.6;fill:#E0E0E0;enable-background:new    ;}
	.st3{display:inline;fill:#5A5A5A;}
	.st4{display:inline;fill:#B2B2B2;}
</style>
<g>
	<path class="st0" d="M0,62.8c0,2.7,1.1,5.1,2.7,6.7c1.7,1.7,4.2,2.7,6.7,2.7h206.6c5.3,0,9.7-4.4,9.7-9.7c0-2.7-1.1-5.1-2.7-6.7
		s-4.2-2.9-6.7-2.9h-9.7c-3.8-9.1-12.8-15.2-23.2-15.2c-7,0-13.3,2.7-17.9,7.4c-6.1-10.3-17.3-17.3-30.1-17.3c-3.6,0-7,0.6-10.1,1.5
		C118.6,16.6,105.3,8,89.9,8C71.6,8,56,20.4,51.4,37.3c-3.4-1.7-7.2-2.7-11.4-2.7c-11.4,0-21.1,7.6-24.2,18.1H9.5
		C4.2,53.1,0,57.5,0,62.8z"/>
	<path class="st0" d="M463.4,87c0,1.7-0.6,3.4-1.9,4.4c-1.1,1.1-2.7,1.9-4.4,1.9h-134c-3.4,0-6.3-2.7-6.3-6.3c0-1.7,0.6-3.4,1.9-4.4
		c1.1-1.1,2.7-1.9,4.4-1.9h6.3c2.5-5.9,8.2-9.9,15-9.9c4.4,0,8.6,1.9,11.6,4.8c4-6.7,11.2-11.2,19.6-11.2c2.3,0,4.4,0.4,6.5,1.1
		c4.4-8.2,13.1-13.7,23-13.7c12,0,21.9,8,25.1,19c2.1-1.1,4.6-1.7,7.4-1.7c7.4,0,13.7,5.1,15.6,11.8h4
		C460.7,80.7,463.4,83.6,463.4,87z"/>
	<path class="st0" d="M498.8,51.8c0,2.5,1.1,4.8,2.7,6.5c1.7,1.7,4,2.7,6.5,2.7h197.4c5.1,0,9.3-4.2,9.3-9.3c0-2.5-1.1-4.8-2.7-6.5
		c-1.7-1.7-4-2.7-6.5-2.7h-9.3C692.6,33.9,684,28,674.1,28c-6.7,0-12.6,2.7-17.1,7.2c-5.9-9.9-16.6-16.4-28.9-16.4
		c-3.4,0-6.5,0.4-9.7,1.5C612.1,8.2,599.3,0,584.7,0c-17.5,0-32.4,11.8-36.9,28c-3.2-1.7-7-2.5-10.7-2.5c-11,0-20.2,7.4-23.2,17.3
		h-5.9C503,42.5,498.8,46.8,498.8,51.8z"/>
</g>
<g class="st1">
	<path class="st2" d="M120.7,228.3l-3.2-8.2l-7.8,2.9c-1.1-1.9-2.5-3.4-4.2-4.8l3.4-7.4l-8-3.6l-3.2,7.2c-2.7-0.6-5.3-0.6-8-0.2
		l-2.9-7.8l-8.2,3.2l3.2,8c-1.5,1.1-2.7,2.3-4,3.6l-7.4-3.4l-3.6,8l7.2,3.2c-0.6,2.7-0.6,5.3-0.2,8l-6.7,2.5l3.2,8.2l7-2.7
		c1.3,1.9,2.9,3.6,4.8,4.8l-3.2,7.2l8,3.6l3.4-7.4c2.5,0.4,5.1,0.2,7.6-0.2l2.9,7.8l8.2-3.2l-3.2-8.4c1.5-1.3,2.9-2.5,4-4.2l7.2,3.2
		l3.6-8l-7.4-3.4c0.2-1.9,0.4-3.6,0.2-5.5L120.7,228.3z M100.3,237c-1.9,4-6.7,5.9-10.7,4c-4-1.9-5.9-6.7-4-10.7s6.7-5.9,10.7-4
		C100.3,227.9,102.2,232.8,100.3,237z"/>
	<path class="st2" d="M96.7,287.5l-1.7-4.4l-4.2,1.7c-0.6-1.1-1.5-1.9-2.3-2.7l1.9-4l-4.4-1.9l-1.7,3.8c-1.5-0.4-2.9-0.4-4.4-0.2
		l-1.7-4.2l-4.4,1.7l1.7,4.4c-0.8,0.6-1.5,1.3-2.1,2.1l-4-1.9l-1.9,4.4l3.8,1.7c-0.4,1.5-0.4,2.9-0.2,4.4l-3.8,1.5l1.7,4.4l3.8-1.5
		c0.6,1.1,1.7,1.9,2.7,2.7l-1.7,3.8l4.4,1.9l1.9-4c1.5,0.2,2.7,0.2,4-0.2l1.7,4.2l4.4-1.7l-1.7-4.6c0.8-0.6,1.5-1.5,2.1-2.3l3.8,1.7
		l1.9-4.4l-4-1.9c0.2-1.1,0.2-1.9,0-2.9L96.7,287.5z M85.5,292.4c-1.1,2.3-3.6,3.2-5.9,2.3c-2.3-1.1-3.2-3.6-2.3-5.9
		c1.1-2.3,3.6-3.2,5.9-2.3C85.5,287.5,86.6,290.1,85.5,292.4z"/>
	<path class="st2" d="M699.7,203.1l-8.8,0.4l0.4,8.2c-2.1,0.4-4,1.5-5.9,2.5l-6.1-5.5l-5.9,6.5l5.7,5.3c-1.5,2.3-2.3,4.8-2.7,7.4
		l-8.2,0.4l0.4,8.8l8.6-0.4c0.6,1.7,1.3,3.4,2.3,4.8l-5.5,6.1l6.5,5.9l5.3-5.7c2.3,1.5,4.8,2.3,7.4,2.7l0.4,7.2l8.8-0.4l-0.4-7.6
		c2.1-0.6,4.2-1.7,6.1-3.2l5.7,5.3l5.9-6.5l-6.1-5.5c1.3-2.3,1.9-4.6,2.1-7.2l8.4-0.4l-0.4-8.8l-9.1,0.4c-0.6-1.9-1.7-3.6-2.7-5.1
		l5.3-5.7l-6.5-5.9l-5.5,6.1c-1.7-0.8-3.4-1.5-5.1-1.7L699.7,203.1z M701.6,225.2c3.4,2.9,3.6,8.2,0.6,11.4
		c-2.9,3.4-8.2,3.6-11.4,0.6c-3.4-2.9-3.6-8.2-0.6-11.4C693.2,222.4,698.5,222.2,701.6,225.2z"/>
	<path class="st2" d="M545.8,98.6l-4.8,0.2l0.2,4.6c-1.1,0.2-2.3,0.8-3.2,1.5l-3.4-2.9l-3.2,3.6l3.2,2.7c-0.8,1.3-1.3,2.7-1.5,4
		l-4.6,0.2l0.2,4.8l4.6-0.2c0.2,0.8,0.6,1.9,1.3,2.7l-2.9,3.4l3.6,3.2l2.7-3.2c1.3,0.8,2.7,1.3,4,1.5l0.2,4l4.8-0.2l-0.2-4
		c1.3-0.4,2.3-0.8,3.4-1.7l3.2,2.7l3.2-3.6l-3.4-2.9c0.6-1.3,1.1-2.5,1.1-4l4.6-0.2l-0.2-4.8l-4.8,0.2c-0.4-1.1-0.8-1.9-1.5-2.7
		l2.7-3.2l-3.6-3.2l-2.9,3.4c-0.8-0.4-1.9-0.8-2.7-1.1V98.6z M546.8,110.8c1.9,1.7,1.9,4.4,0.4,6.3c-1.7,1.9-4.4,1.9-6.3,0.4
		c-1.9-1.7-1.9-4.4-0.4-6.3C542.2,109.3,544.9,109.1,546.8,110.8z"/>
	<path class="st3" d="M465.7,134c-4.4,0-8.2-3.6-8.2-8.2c0-4.6,3.6-8.2,8.2-8.2c4.4,0,8.2,3.6,8.2,8.2
		C473.9,130.4,470.4,134,465.7,134z M465.7,120.1c-3.2,0-5.7,2.5-5.7,5.7c0,3.2,2.5,5.7,5.7,5.7s5.7-2.5,5.7-5.7
		C471.4,122.6,468.9,120.1,465.7,120.1z"/>
	<path class="st4" d="M502,157.8c-4.4,0-8.2-3.6-8.2-8.2s3.6-8.2,8.2-8.2s8.2,3.6,8.2,8.2S506.4,157.8,502,157.8z M502,144.1
		c-3.2,0-5.7,2.5-5.7,5.7c0,3.2,2.5,5.7,5.7,5.7s5.7-2.5,5.7-5.7C507.4,146.4,504.9,144.1,502,144.1z"/>
	<path class="st3" d="M505.5,180.5c-0.6,0-1.3-0.6-1.3-1.3v-5.7c0-0.6,0.6-1.3,1.3-1.3c0.6,0,1.3,0.6,1.3,1.3v5.7
		C506.8,179.9,506.2,180.5,505.5,180.5z"/>
	<path class="st3" d="M505.5,190.4c-0.6,0-1.3-0.6-1.3-1.3v-5.7c0-0.6,0.6-1.3,1.3-1.3c0.6,0,1.3,0.6,1.3,1.3v5.7
		C506.8,189.8,506.2,190.4,505.5,190.4z"/>
	<path class="st3" d="M513.5,182.6h-5.1c-0.6,0-1.3-0.6-1.3-1.3c0-0.6,0.6-1.3,1.3-1.3h5.1c0.6,0,1.3,0.6,1.3,1.3
		C514.8,182,514.2,182.6,513.5,182.6z"/>
	<path class="st3" d="M502.6,182.6h-5.1c-0.6,0-1.3-0.6-1.3-1.3c0-0.6,0.6-1.3,1.3-1.3h5.1c0.6,0,1.3,0.6,1.3,1.3
		C503.8,182,503.4,182.6,502.6,182.6z"/>
	<path class="st4" d="M461.1,159c-0.6,0-1.3-0.6-1.3-1.3v-5.7c0-0.6,0.6-1.3,1.3-1.3c0.6,0,1.3,0.6,1.3,1.3v5.7
		C462.4,158.6,461.9,159,461.1,159z"/>
	<path class="st4" d="M461.1,168.9c-0.6,0-1.3-0.6-1.3-1.3V162c0-0.6,0.6-1.3,1.3-1.3c0.6,0,1.3,0.6,1.3,1.3v5.7
		C462.4,168.5,461.9,168.9,461.1,168.9z"/>
	<path class="st4" d="M469.1,161.1H464c-0.6,0-1.3-0.6-1.3-1.3s0.6-1.3,1.3-1.3h5.1c0.6,0,1.3,0.6,1.3,1.3S469.7,161.1,469.1,161.1z
		"/>
	<path class="st4" d="M458.4,161.1h-5.1c-0.6,0-1.3-0.6-1.3-1.3s0.6-1.3,1.3-1.3h5.1c0.6,0,1.3,0.6,1.3,1.3S459,161.1,458.4,161.1z"
		/>
	<path class="st3" d="M167.2,112.5c-4.4,0-8.2-3.6-8.2-8.2c0-4.6,3.6-8.2,8.2-8.2c4.6,0,8.2,3.6,8.2,8.2
		C175.5,108.9,171.7,112.5,167.2,112.5z M167.2,110c3.2,0,5.7-2.5,5.7-5.7c0-3.2-2.5-5.7-5.7-5.7c-3.2,0-5.7,2.5-5.7,5.7
		C161.6,107.4,164.1,110,167.2,110z"/>
	<path class="st4" d="M190.6,139.4c-4.4,0-8.2-3.6-8.2-8.2c0-4.6,3.6-8.2,8.2-8.2c4.4,0,8.2,3.6,8.2,8.2
		C198.8,135.9,195.3,139.4,190.6,139.4z M190.6,136.9c3.2,0,5.7-2.5,5.7-5.7c0-3.2-2.5-5.7-5.7-5.7s-5.7,2.5-5.7,5.7
		C184.9,134.4,187.5,136.9,190.6,136.9z"/>
	<path class="st3" d="M211.5,98.4c0-0.6-0.6-1.3-1.3-1.3h-5.7c-0.6,0-1.3,0.6-1.3,1.3c0,0.6,0.6,1.3,1.3,1.3h5.7
		C210.9,99.6,211.5,99,211.5,98.4z"/>
	<path class="st3" d="M221.4,98.4c0-0.6-0.6-1.3-1.3-1.3h-5.7c-0.6,0-1.3,0.6-1.3,1.3c0,0.6,0.6,1.3,1.3,1.3h5.7
		C220.8,99.6,221.4,99,221.4,98.4z"/>
	<path class="st3" d="M213.6,106.4v-5.1c0-0.6-0.6-1.3-1.3-1.3c-0.6,0-1.3,0.6-1.3,1.3v5.1c0,0.6,0.6,1.3,1.3,1.3
		C213,107.6,213.6,107,213.6,106.4z"/>
	<path class="st3" d="M213.6,95.4v-5.1c0-0.6-0.6-1.3-1.3-1.3c-0.6,0-1.3,0.6-1.3,1.3v5.1c0,0.6,0.6,1.3,1.3,1.3
		C213,96.7,213.6,96.3,213.6,95.4z"/>
	<path class="st4" d="M147.2,146.2c0-0.6-0.6-1.3-1.3-1.3h-5.7c-0.6,0-1.3,0.6-1.3,1.3s0.6,1.3,1.3,1.3h5.7
		C146.6,147.4,147.2,146.8,147.2,146.2z"/>
	<path class="st4" d="M157.1,146.2c0-0.6-0.6-1.3-1.3-1.3h-5.7c-0.6,0-1.3,0.6-1.3,1.3s0.6,1.3,1.3,1.3h5.7
		C156.5,147.4,157.1,146.8,157.1,146.2z"/>
	<path class="st4" d="M149.3,154.2v-5.1c0-0.6-0.6-1.3-1.3-1.3s-1.3,0.6-1.3,1.3v5.1c0,0.6,0.6,1.3,1.3,1.3S149.3,154.8,149.3,154.2
		z"/>
	<path class="st4" d="M149.3,143.2v-5.1c0-0.6-0.6-1.3-1.3-1.3s-1.3,0.6-1.3,1.3v5.1c0,0.6,0.6,1.3,1.3,1.3S149.3,144.1,149.3,143.2
		z"/>
</g>
</svg>
