<?xml version="1.0" encoding="utf-8"?>
<!-- Generator: Adobe Illustrator 24.0.0, SVG Export Plug-In . SVG Version: 6.00 Build 0)  -->
<svg version="1.1" id="Layer_1" xmlns="http://www.w3.org/2000/svg" xmlns:xlink="http://www.w3.org/1999/xlink" x="0px" y="0px"
	 viewBox="0 0 592 585" style="enable-background:new 0 0 592 585;" xml:space="preserve">
<style type="text/css">
	.st0{fill:#E0E0E0;}
	.st1{display:none;}
	.st2{display:inline;fill:#E0E0E0;}
	.st3{display:inline;}
	.st4{fill:#818181;}
	.st5{fill:#474747;}
	.st6{fill:#5C5C5C;}
	.st7{display:inline;fill:#818181;}
	.st8{display:inline;fill:#9C9C9C;}
	.st9{display:inline;fill:#616161;}
	.st10{display:inline;fill:#8D8D8D;}
	.st11{display:inline;fill:#FFF9FF;}
	.st12{display:inline;fill:#FFFFFF;}
	.st13{fill:#353535;}
	.st14{fill:#A22718;}
	.st15{fill:#D02E1B;}
	.st16{fill:#FFF9FF;}
	.st17{fill:#9C9C9C;}
	.st18{fill:#757575;}
	.st19{fill:#595959;}
	.st20{fill:#3F3F3F;}
	.st21{fill:#BBBBBB;}
	.st22{fill:#021019;}
	.st23{fill:#555555;}
	.st24{fill:#616161;}
	.st25{fill:#A5A5A5;}
	.st26{fill:#7D7D7D;}
	.st27{fill:#0D0D0D;}
	.st28{fill:#FFFFFF;}
</style>
<path class="st0" d="M294.9,585c161,0,291.5-9.4,291.5-20.9s-130.5-20.9-291.5-20.9c-161,0-291.5,9.4-291.5,20.9S134,585,294.9,585z
	"/>
<path class="st0" d="M265.8,211.4C243.1,128.8,140.6,102.2,81.7,164c-0.8,0.8-1.7,1.8-2.5,2.8C-5,258.2,32.4,487.1,209.9,539.1
	c184.1,54.2,359.5-45.3,369.7-138.7c10.3-93.4-70.8-122.7-196.7-96.6C311.7,318.6,280,262.8,265.8,211.4z"/>
<path class="st0" d="M365.7,194.1c-0.8,1.8-1.5,3.7-2.2,5.5c-0.1,0.6-0.7,0.8-1.2,0.7c0,0,0,0-0.1,0c-0.6-0.1-0.8-0.7-0.7-1.2
	c0.7-1.9,1.4-3.9,2.2-5.7c0.3-0.6,0.8-0.8,1.4-0.6C365.7,192.9,366,193.5,365.7,194.1z"/>
<path class="st0" d="M356.6,223.7c-0.6-0.1-0.8-0.6-0.8-1.1c0.3-2.1,0.6-4,1-6c0.1-0.6,0.7-1,1.2-0.8c0.6,0.1,1,0.6,0.8,1.1
	c-0.4,1.9-0.7,3.9-1,6C357.8,223.4,357.3,223.8,356.6,223.7C356.7,223.7,356.6,223.7,356.6,223.7z"/>
<path class="st0" d="M360.9,204c0.6,0.1,1,0.7,0.7,1.2c-0.3,0.8-0.6,1.8-0.7,2.6c-0.3,1-0.6,2.1-0.8,3c-0.1,0.6-0.7,0.8-1.2,0.8
	c-0.6-0.1-1-0.7-0.8-1.2c0.3-1.1,0.6-2.1,0.8-3.2c0.3-1,0.6-1.8,0.8-2.8C359.8,204.2,360.3,203.9,360.9,204z"/>
<g class="st1">
	<path class="st2" d="M381.8,168.4c-0.3,0.3-0.7,0.4-1.1,0.3c-0.1,0-0.3-0.1-0.4-0.1c-0.4-0.4-0.6-1-0.1-1.4c1.4-1.5,2.8-3,4.3-4.6
		c0.4-0.4,1.1-0.4,1.5,0c0.4,0.4,0.4,1,0,1.4C384.6,165.4,383.2,166.9,381.8,168.4z"/>
	<g class="st3">
		<g>
			<path class="st0" d="M112.4,121.2H26c0,0,3.7-24.4,14.4-23.4c2.9,0.3,5,3.2,6.2,6.5c0.8,1.9,3.6,1.8,4.3-0.3
				c2.8-9.8,8.6-24.9,17.6-24.9c9.3,0,9.6,17.3,8.9,27.7c-0.1,1.5,1.9,2.4,2.9,1c2.5-3.6,6-7.1,10.4-6.1c3.7,0.8,5.4,4.7,6,8.7
				c0.1,1.2,1.9,1.4,2.4,0.3c2.2-6,6.2-14.7,10.5-14.8C116,95.6,112.4,121.2,112.4,121.2z"/>
			<path class="st0" d="M590.4,229.8h-86.2c0,0,3.7-24.4,14.4-23.4c2.9,0.3,5,3.2,6.2,6.5c0.8,1.9,3.6,1.8,4.3-0.3
				c2.8-9.8,8.6-24.9,17.6-24.9c9.3,0,9.6,17.3,8.9,27.7c-0.1,1.5,1.9,2.4,2.9,1c2.5-3.6,6-7.1,10.4-6.1c3.7,0.8,5.4,4.7,6,8.7
				c0.1,1.2,1.9,1.4,2.4,0.3c2.2-6,6.2-14.7,10.5-14.8C594,204.2,590.4,229.8,590.4,229.8z"/>
			<path class="st0" d="M513.8,91.7h-86.2c0,0,3.7-24.4,14.4-23.4c2.9,0.3,5,3.2,6.2,6.5c0.8,1.9,3.6,1.8,4.3-0.3
				c2.8-9.8,8.6-24.9,17.6-24.9c9.3,0,9.6,17.3,8.9,27.7c-0.1,1.5,1.9,2.4,2.9,1c2.5-3.6,6-7.1,10.4-6.1c3.7,0.8,5.4,4.7,6,8.7
				c0.1,1.2,1.9,1.4,2.4,0.3c2.2-6,6.2-14.7,10.5-14.8C517.4,66.1,513.8,91.7,513.8,91.7z"/>
			<path class="st0" d="M29.6,393.4c4.2-9.8,3.9-20.9-0.6-30.8c-4.2-9.6-11.2-19.8-20.9-16.2c-17,6.2-4.2,49.9,8.9,55.6
				C23,404.6,27,399.6,29.6,393.4z"/>
			<path class="st0" d="M545.5,525.7c10.5-1.8,19.7-8,25.6-17c5.7-8.7,10.7-20.1,2.4-26.5c-14.5-10.9-44.2,23.4-42,37.4
				C532.7,526.3,538.9,527,545.5,525.7z"/>
			<path class="st0" d="M258.1,137.9c-2.6-7.2-8.2-13-15.2-16.1c-6.9-3-15.5-5-19,1.7c-6,11.6,22,28.4,31.7,25.1
				C260,147.1,259.8,142.5,258.1,137.9z"/>
		</g>
		<path class="st0" d="M433.9,136.8c0.1,0,0.4,0,0.6,0c1.9-0.4,3-0.7,3-0.7c0.6-0.1,1-0.7,0.8-1.2c-0.1-0.6-0.7-1-1.2-0.8
			c0,0-1.2,0.1-3.2,0.7c-0.6,0.1-1,0.7-0.8,1.2C433.2,136.4,433.5,136.7,433.9,136.8z"/>
		<path class="st0" d="M371.1,183.3c-1,1.7-1.9,3.5-2.9,5.3c-0.3,0.4-0.7,0.7-1.2,0.6h-0.1c-0.6-0.3-0.8-0.8-0.6-1.4
			c1-1.8,1.9-3.6,2.9-5.4c0.3-0.6,1-0.7,1.5-0.4C371.3,182.1,371.4,182.7,371.1,183.3z"/>
		<path class="st0" d="M374.3,178.1c-0.3,0.4-0.7,0.6-1.2,0.4c-0.1,0-0.3,0-0.3-0.1c-0.6-0.3-0.7-1-0.3-1.4c1.1-1.7,2.4-3.5,3.6-5
			c0.4-0.4,1-0.6,1.5-0.3c0.4,0.3,0.6,1,0.3,1.4C376.7,174.8,375.6,176.5,374.3,178.1z"/>
		<path class="st0" d="M428.4,138.5c-1.9,0.7-4,1.4-6,2.1c-0.3,0.1-0.4,0.1-0.7,0c-0.3-0.1-0.6-0.3-0.7-0.6c-0.3-0.6,0-1.1,0.6-1.4
			c2.1-0.8,4-1.5,6.1-2.2c0.6-0.1,1.2,0.1,1.4,0.7C429.2,137.8,428.9,138.4,428.4,138.5z"/>
		<path class="st0" d="M411,145.8c-0.3,0.1-0.6,0.1-0.8,0.1s-0.6-0.3-0.7-0.6c-0.3-0.6-0.1-1.1,0.4-1.4c1.9-1,3.9-1.9,5.7-2.8
			c0.6-0.3,1.2,0,1.4,0.4c0.3,0.6,0,1.1-0.6,1.4C414.8,143.9,412.8,144.9,411,145.8z"/>
		<path class="st0" d="M390.5,159.8c-0.3,0.3-0.7,0.3-1,0.3c-0.1,0-0.4-0.1-0.6-0.3c-0.4-0.4-0.4-1.1,0-1.4c1.5-1.4,3.2-2.8,4.8-4
			c0.4-0.4,1.1-0.3,1.5,0.1c0.4,0.4,0.3,1.1-0.1,1.4C393.7,157.1,392.1,158.5,390.5,159.8z"/>
		<path class="st0" d="M400.2,152.2c-0.3,0.1-0.6,0.3-1,0.1c-0.3,0-0.4-0.1-0.6-0.4c-0.4-0.4-0.3-1.1,0.3-1.4
			c1.8-1.2,3.6-2.4,5.4-3.5c0.6-0.3,1.1-0.1,1.5,0.3c0.3,0.4,0.1,1.1-0.3,1.4C403.7,149.9,402,151.1,400.2,152.2z"/>
		<path class="st4" d="M435,129.9l-2.2-16.9l57.2,8.2L435,129.9z"/>
		<path class="st5" d="M490,121.2l-52.9,13h-0.1l-2.6,3l0.7-7.3L490,121.2z"/>
		<path class="st6" d="M434.3,137.3h4.8l-2.2-3L434.3,137.3z"/>
		<path class="st4" d="M443.7,132.7l-6.8,1.5l10.9,15.5l42.1-28.5L443.7,132.7z"/>
	</g>
</g>
<g class="st1">
	<path class="st7" d="M477.8,249.1c0-4,3.3-7.3,7.3-7.3c4,0,7.3,3.3,7.3,7.3c0,4-3.3,7.3-7.3,7.3C481,256.4,477.8,253.1,477.8,249.1
		z M480,249.1c0,2.8,2.2,5,5,5c2.8,0,5-2.2,5-5c0-2.8-2.2-5-5-5C482.4,244.1,480,246.3,480,249.1z"/>
	<path class="st8" d="M484.7,206.5c0-4,3.3-7.3,7.3-7.3c4,0,7.3,3.3,7.3,7.3c0,4-3.3,7.3-7.3,7.3
		C488.1,213.9,484.7,210.7,484.7,206.5z M486.9,206.5c0,2.8,2.2,5,5,5c2.8,0,5-2.2,5-5c0-2.8-2.2-5-5-5
		C489.3,201.5,486.9,203.8,486.9,206.5z"/>
	<path class="st9" d="M458,218c0.7,0,1.1-0.6,1.1-1.1v-5.1c0-0.7-0.6-1.1-1.1-1.1c-0.7,0-1.1,0.6-1.1,1.1v5.1
		C456.9,217.5,457.4,218,458,218z"/>
	<path class="st9" d="M458,226.9c0.7,0,1.1-0.6,1.1-1.1v-5.1c0-0.7-0.6-1.1-1.1-1.1c-0.7,0-1.1,0.6-1.1,1.1v5.1
		C456.9,226.3,457.4,226.9,458,226.9z"/>
	<path class="st9" d="M450.9,219.8h4.6c0.7,0,1.1-0.6,1.1-1.1c0-0.7-0.6-1.1-1.1-1.1h-4.6c-0.7,0-1.1,0.6-1.1,1.1
		C449.8,219.4,450.2,219.8,450.9,219.8z"/>
	<path class="st9" d="M460.6,219.8h4.6c0.7,0,1.1-0.6,1.1-1.1c0-0.7-0.6-1.1-1.1-1.1h-4.6c-0.7,0-1.1,0.6-1.1,1.1
		C459.5,219.4,459.9,219.8,460.6,219.8z"/>
	<path class="st7" d="M469.8,178.3c0.7,0,1.1-0.6,1.1-1.1V172c0-0.7-0.6-1.1-1.1-1.1c-0.7,0-1.1,0.6-1.1,1.1v5.1
		C468.7,177.7,469.1,178.3,469.8,178.3z"/>
	<path class="st7" d="M469.8,187.1c0.7,0,1.1-0.6,1.1-1.1v-5.1c0-0.7-0.6-1.1-1.1-1.1c-0.7,0-1.1,0.6-1.1,1.1v5.1
		C468.7,186.6,469.1,187.1,469.8,187.1z"/>
	<path class="st7" d="M462.6,180.2h4.6c0.7,0,1.1-0.6,1.1-1.1c0-0.7-0.6-1.1-1.1-1.1h-4.6c-0.7,0-1.1,0.6-1.1,1.1
		S462,180.2,462.6,180.2z"/>
	<path class="st7" d="M472.3,180.2h4.6c0.7,0,1.1-0.6,1.1-1.1c0-0.7-0.6-1.1-1.1-1.1h-4.6c-0.7,0-1.1,0.6-1.1,1.1
		S471.7,180.2,472.3,180.2z"/>
	<path class="st10" d="M17,311.1c-4,0-7.3-3.3-7.3-7.3c0-4,3.3-7.3,7.3-7.3s7.3,3.3,7.3,7.3C24.4,307.8,21.1,311.1,17,311.1z
		 M17,298.6c-2.8,0-5,2.2-5,5c0,2.8,2.2,5,5,5s5-2.2,5-5C22.2,301,19.8,298.6,17,298.6z"/>
	<path class="st8" d="M12.1,270.8c-4,0-7.3-3.3-7.3-7.3c0-4,3.3-7.3,7.3-7.3c4,0,7.3,3.3,7.3,7.3C19.4,267.5,16.1,270.8,12.1,270.8z
		 M12.1,258.3c-2.8,0-5,2.2-5,5s2.2,5,5,5c2.8,0,5-2.2,5-5S14.8,258.3,12.1,258.3z"/>
	<path class="st9" d="M46.4,272.3c-0.7,0-1.1-0.6-1.1-1.1v-5.1c0-0.7,0.6-1.1,1.1-1.1c0.7,0,1.1,0.6,1.1,1.1v5.1
		C47.5,271.8,47.1,272.3,46.4,272.3z"/>
	<path class="st9" d="M46.4,281.2c-0.7,0-1.1-0.6-1.1-1.1V275c0-0.7,0.6-1.1,1.1-1.1c0.7,0,1.1,0.6,1.1,1.1v5.1
		C47.5,280.6,47.1,281.2,46.4,281.2z"/>
	<path class="st9" d="M53.6,274.3H49c-0.7,0-1.1-0.6-1.1-1.1c0-0.7,0.6-1.1,1.1-1.1h4.6c0.7,0,1.1,0.6,1.1,1.1
		C54.7,273.7,54.2,274.3,53.6,274.3z"/>
	<path class="st9" d="M43.9,274.3h-4.6c-0.7,0-1.1-0.6-1.1-1.1c0-0.7,0.6-1.1,1.1-1.1h4.6c0.7,0,1.1,0.6,1.1,1.1
		C45,273.7,44.5,274.3,43.9,274.3z"/>
	<path class="st10" d="M41.6,232.4c-0.7,0-1.1-0.6-1.1-1.1v-5.1c0-0.7,0.6-1.1,1.1-1.1c0.7,0,1.1,0.6,1.1,1.1v5.1
		C42.7,231.9,42.3,232.4,41.6,232.4z"/>
	<path class="st10" d="M41.6,241.3c-0.7,0-1.1-0.6-1.1-1.1v-5.1c0-0.7,0.6-1.1,1.1-1.1c0.7,0,1.1,0.6,1.1,1.1v5.1
		C42.7,240.7,42.3,241.3,41.6,241.3z"/>
	<path class="st10" d="M48.8,234.2h-4.6c-0.7,0-1.1-0.6-1.1-1.1c0-0.7,0.6-1.1,1.1-1.1h4.6c0.7,0,1.1,0.6,1.1,1.1
		C49.9,233.8,49.3,234.2,48.8,234.2z"/>
	<path class="st10" d="M39.1,234.2h-4.6c-0.7,0-1.1-0.6-1.1-1.1c0-0.7,0.6-1.1,1.1-1.1h4.6c0.7,0,1.1,0.6,1.1,1.1
		C40.2,233.8,39.6,234.2,39.1,234.2z"/>
	<path class="st7" d="M210.4,107.6h-26.3c-3.6,0-6.5-2.9-6.5-6.5V82.7c0-3.6,2.9-6.5,6.5-6.5h26.3c3.6,0,6.5,2.9,6.5,6.5v18.4
		C216.9,104.6,214,107.6,210.4,107.6z"/>
	<path class="st11" d="M197.1,81c-6,0-10.8,4.8-10.8,10.8c0,6,4.8,10.8,10.8,10.8s10.8-4.8,10.8-10.8C207.9,85.9,203.1,81,197.1,81z
		 M197.7,95.8v-3.7h4.8c0,1.4-0.3,2.6-0.6,3.7H197.7z M200.7,100.1c0.8-1,1.4-2.2,1.9-3.5h3.3c-1.4,2.5-3.7,4.2-6.5,4.8
		C199.9,101.1,200.3,100.7,200.7,100.1z M201.6,96.7c-0.4,1.1-1,2.1-1.7,2.9c-1,1.4-2.1,1.9-2.4,2.2v-5.1H201.6z M197.7,86.6V82
		c0.1,0,0.3,0,0.4,0c0.6,0.4,2.2,2.1,3.3,4.6H197.7z M202.4,86.6c-0.4-1-0.8-1.8-1.5-2.6c-0.4-0.6-0.8-1.1-1.4-1.7
		c2.5,0.6,4.7,2.2,6.1,4.3H202.4z M197.7,91.1v-3.7h4.2c0.4,1.2,0.7,2.5,0.7,3.7H197.7z M203.4,91.1c0-1.2-0.3-2.5-0.7-3.7h3.5
		c0.6,1.2,1,2.5,1,3.7H203.4z M207.1,92c0,1.2-0.3,2.6-0.8,3.7h-3.5c0.3-1.2,0.6-2.5,0.6-3.7H207.1z M191.6,95.8H188
		c-0.6-1.2-0.8-2.5-0.8-3.7h3.9C191.2,93.3,191.3,94.6,191.6,95.8z M193.1,86.6c0.3-0.7,0.7-1.5,1.2-2.1c1-1.2,1.8-2.1,2.2-2.5
		c0.1,0,0.1,0,0.3,0v4.6H193.1z M196.7,87.4v3.7H192c0-1.2,0.3-2.5,0.7-3.7H196.7z M188.8,86.6c1.4-2.2,3.6-3.7,6.2-4.4
		c-0.6,0.6-1,1.1-1.4,1.7c-0.6,0.8-1.1,1.7-1.5,2.6h-3.3V86.6z M196.7,92v3.7h-4.2c-0.4-1.1-0.6-2.5-0.6-3.7H196.7z M187.3,91.1
		c0.1-1.4,0.4-2.6,1-3.7h3.5c-0.4,1.2-0.7,2.5-0.7,3.7H187.3z M191.9,96.7c0.4,1.2,1.1,2.5,1.9,3.5c0.4,0.6,0.8,1,1.4,1.4
		c-2.8-0.6-5.3-2.4-6.6-4.8H191.9z M196.7,96.7v5c-0.7-0.4-2.8-1.9-3.9-5H196.7z"/>
	<path class="st7" d="M576.7,290.2h-26.3c-3.6,0-6.5-2.9-6.5-6.5v-18.4c0-3.6,2.9-6.5,6.5-6.5h26.3c3.6,0,6.5,2.9,6.5,6.5v18.4
		C583.2,287.3,580.3,290.2,576.7,290.2z"/>
	<path class="st11" d="M560.9,276.3c-2.9-2.8-3.2-7.3-0.4-10.4c2.8-2.9,7.3-3.2,10.4-0.4c2.9,2.8,3.2,7.3,0.4,10.4
		C568.5,278.8,564,279.1,560.9,276.3z M569.2,267.3c-1.9-1.8-5.1-1.7-6.9,0.3c-1.8,1.9-1.7,5.1,0.3,6.9c1.9,1.8,5.1,1.7,6.9-0.3
		C571.3,272.3,571.2,269.1,569.2,267.3z"/>
	<path class="st11" d="M552.9,285.1c-0.6-0.4-0.6-1.2,0-1.7l8.2-8.7c0.4-0.6,1.2-0.6,1.7,0c0.6,0.4,0.6,1.2,0,1.7l-8.2,8.7
		C554.1,285.5,553.3,285.6,552.9,285.1z"/>
	<path class="st7" d="M26.5,170.1V191c0,2.8,2.2,5,5,5h38.1l11.5,4.2c1.2,0.4,2.4-0.7,1.8-1.9L78.5,187v-16.9c0-2.8-2.2-5-5-5H31.4
		C28.7,165.1,26.5,167.3,26.5,170.1z"/>
	<path class="st12" d="M59.4,181.2c0,1.9,1.7,3.6,3.6,3.6s3.6-1.7,3.6-3.6c0-1.9-1.7-3.6-3.6-3.6S59.4,179.2,59.4,181.2z"/>
	<path class="st12" d="M47.9,181.2c0,1.9,1.7,3.6,3.6,3.6s3.6-1.7,3.6-3.6c0-1.9-1.7-3.6-3.6-3.6S47.9,179.2,47.9,181.2z"/>
	<path class="st12" d="M36.4,181.2c0,1.9,1.7,3.6,3.6,3.6c1.9,0,3.6-1.7,3.6-3.6c0-1.9-1.7-3.6-3.6-3.6
		C38.1,177.6,36.4,179.2,36.4,181.2z"/>
</g>
<path class="st13" d="M221.1,566.4c-0.6,0-1.2-0.1-1.8-0.4c-2.2-1-3.3-3.7-2.2-6l33.9-75.9c1-2.2,3.7-3.3,6-2.2c2.2,1,3.3,3.7,2.2,6
	l-33.9,75.9C224.4,565.5,222.9,566.4,221.1,566.4z"/>
<path class="st13" d="M382.6,566.4c0.6,0,1.2-0.1,1.8-0.4c2.2-1,3.3-3.7,2.2-6l-33.9-75.9c-1-2.2-3.7-3.3-6-2.2
	c-2.2,1-3.3,3.7-2.2,6l33.9,75.9C379.3,565.5,381,566.4,382.6,566.4z"/>
<path class="st14" d="M434.7,462.4c63.1-63.1,63.1-165.5,0-228.6s-165.5-63.1-228.6,0c-63.1,63.1-63.1,165.5,0,228.6
	C269.2,525.5,371.6,525.5,434.7,462.4z"/>
<path class="st15" d="M416.2,462.4c63.1-63.1,63.1-165.5,0-228.6s-165.5-63.1-228.6,0c-63.1,63.1-63.1,165.5,0,228.6
	C250.7,525.6,353.1,525.6,416.2,462.4z"/>
<path class="st16" d="M392.2,438.4c49.9-49.9,49.9-130.8,0-180.6c-49.9-49.9-130.8-49.9-180.6,0c-49.9,49.9-49.9,130.8,0,180.6
	C261.4,488.3,342.3,488.3,392.2,438.4z"/>
<path class="st15" d="M324.6,439.1c50.3-12.6,80.8-63.5,68.3-113.7s-63.5-80.8-113.7-68.3c-50.3,12.6-80.8,63.5-68.3,113.7
	C223.4,421.1,274.4,451.7,324.6,439.1z"/>
<path class="st16" d="M318.6,405.7c31.8-9.3,50.1-42.6,40.8-74.4s-42.6-50.1-74.4-40.8c-31.8,9.3-50.1,42.6-40.8,74.4
	C253.5,396.7,286.8,415,318.6,405.7z"/>
<path class="st15" d="M308.9,373.2c-13.9,3.9-28.3-4.3-32.1-18.1c-3.9-13.9,4.3-28.3,18.1-32.1c13.9-3.9,28.3,4.3,32.1,18.1
	C331,354.9,322.8,369.3,308.9,373.2z"/>
<path class="st13" d="M306,345.2L150.7,171.6c-1.5-1.8-4.3-1.9-6.1-0.3c-1.8,1.5-1.9,4.3-0.3,6.1l155.7,173.9
	C303,350.3,305.2,348.2,306,345.2z"/>
<path class="st17" d="M218.1,259.9l-49-2.9l-25.9-29.1l13.2-1.1l-23.4-10.3l-36.7-41l48.9,2.8L218.1,259.9z"/>
<path class="st17" d="M224.4,254l2.5-49L201,176l-2.6,12.9l-7.6-24.4l-36.7-40.9l-2.6,48.8L224.4,254z"/>
<path class="st4" d="M79,562.3v-65.5c0-7.9-58.2-7.9-58.2,0v65.5C20.8,568.2,79,568.2,79,562.3z"/>
<path class="st6" d="M79,503.5v3.7c-6.1,1.5-15.8,3.3-29,3.3c-13.4,0-23.4-1.9-29.4-3.5v-3.9c5.5,1.5,15.5,3.6,29.4,3.6
	C63.5,507.1,73.3,505.2,79,503.5z"/>
<path class="st13" d="M49.9,499.4c14.4,0,26-1.5,26-3.3s-11.7-3.3-26-3.3c-14.4,0-26,1.5-26,3.3S35.5,499.4,49.9,499.4z"/>
<path class="st18" d="M50,478.1c0,0,0.3,0,0.7-0.1c4.2-1.1,24-8,26.9-30.6c2.6-20.2,5.4-33,10.5-39.9c0.7-1-0.3-2.4-1.5-1.8
	c-17.7,7.6-68.2,33.7-38,71.1C49.2,477.1,49.6,477.6,50,478.1z"/>
<path class="st19" d="M49.3,496.1c-0.1-2.5,1.5-19.4,1.5-19.4c3.2-23.6,20.6-50.8,20.8-51.1c0.3-0.6,0.1-1.1-0.3-1.5
	c-0.6-0.3-1.1-0.1-1.5,0.3c-0.1,0.1-7.2,11.2-13.2,25.2c-4.2,9.8-6.8,18.6-7.9,26.2c0,0.1,0,0.3,0,0.4c0,0.1,0,0.3,0,0.4
	c-0.3,2.4-1.2,19.4-1.2,19.4C47.9,497,48.2,496.8,49.3,496.1z"/>
<path class="st17" d="M47.7,489.7c0,0-0.3-0.1-0.7-0.3c-4-1.4-23.4-9.4-24.9-32.1c-1.4-20.2-3.5-33.2-8-40.5
	c-0.7-1.1,0.4-2.4,1.7-1.8c17.2,8.7,65.9,37.8,33.4,73.3C48.6,488.7,48.1,489.1,47.7,489.7z"/>
<path class="st18" d="M46.8,496.3c0.3-2.5,0-8.2,0-8.2c-1.8-23.7-17.5-52.1-17.6-52.4c-0.3-0.6-0.1-1.1,0.4-1.4s1.1-0.1,1.4,0.4
	c0,0.1,6.5,11.6,11.5,25.9c3.6,10,5.7,19,6.4,26.6c0,0.1,0,0.3,0,0.4c0,0.1,0,0.3,0,0.6c0.1,2.4,0.3,7.9,0.3,7.9
	C48.8,497,47.9,497.2,46.8,496.3z"/>
<path class="st20" d="M320.7,62.2c0,0,13,28.1,28.8,35.2l-8.2,11.9c0,0-15.5-5.7-21.1-18.4C317,81.7,318.5,72,320.7,62.2z"/>
<path class="st21" d="M396.3,173.7l7.2,19.4c-3.7,0.6-7.6-0.6-11.8-3.2l-5.7-12.9L396.3,173.7z"/>
<path class="st17" d="M399.1,192.3c0,0,4.3-3.3,6.2-2.6c1.9,0.7,11.8,17,15.7,20.8c4.3,4.2,0,10.9-1.9,9.8
	c-14.7-9-34.1-19.1-34.1-19.1s1.8-8.3,4.2-11.6C391.5,186.2,395,192,399.1,192.3z"/>
<path class="st16" d="M406.2,201.7c-0.1,0-0.4-0.1-0.6-0.3c-0.3-0.3-0.3-0.7,0-1.1c0.1-0.1,2.5-2.4,4.8-2.8c3.2-0.6,4.8,1.7,5,1.7
	c0.3,0.3,0.1,0.8-0.1,1c-0.3,0.3-0.8,0.1-1-0.1c0,0-1.2-1.5-3.5-1.1c-1.9,0.4-4,2.4-4,2.4C406.6,201.5,406.5,201.7,406.2,201.7z"/>
<path class="st16" d="M404.7,199c-0.1,0-0.4-0.1-0.6-0.3c-0.3-0.3-0.3-0.7,0-1.1c0.1-0.1,2.5-2.4,4.8-2.8c3.2-0.6,4.8,1.7,5,1.7
	c0.3,0.3,0.1,0.8-0.1,1c-0.3,0.3-0.8,0.1-1-0.1c0,0-1.2-1.5-3.5-1.1c-1.9,0.4-4,2.4-4,2.4C405.1,198.9,404.9,199,404.7,199z"/>
<path class="st16" d="M408.7,204c-0.1,0-0.4-0.1-0.6-0.3c-0.3-0.3-0.3-0.7,0-1.1c0.1-0.1,2.5-2.4,4.8-2.8c3.2-0.6,4.8,1.7,5,1.7
	c0.3,0.3,0.1,0.8-0.1,1c-0.3,0.3-0.8,0.1-1-0.1c0,0-1.2-1.5-3.5-1.1c-1.9,0.4-4,2.4-4,2.4C409,204,408.8,204,408.7,204z"/>
<path class="st13" d="M400.2,179.2l-5,1.1l-3.5,0.7l-4.8,0.8c-6.8-5.4-27.6-26.3-31.2-35.9c0,0-23.7,55.3-56.5,55.3
	c-2.1,0,3.5-27.4,8.9-33.2c0,0,30.2-56.4,49.9-50.4C366.8,120.1,377.6,137.3,400.2,179.2z"/>
<path class="st22" d="M394.3,180.5l-1,1.2c-20.1-15.2-32.8-33.1-37.1-41.4c-0.1-0.3-0.4-0.4-0.6-0.4c-0.1,0-0.3,0.1-0.3,0.3
	c-9.7,22.7-21.2,36.3-29.2,43.8c-8.7,8-15.1,10.8-15.4,10.9l-0.4-1l-0.4-0.8c0,0,6.4-2.6,15-10.5c7.9-7.3,19.3-20.6,28.7-42.9
	c0.4-0.8,1.1-1.4,2.1-1.4c1,0,1.9,0.6,2.4,1.4C362.3,147.8,373.9,163.6,394.3,180.5z"/>
<path class="st23" d="M383.7,181c0.8,1.7,3.3,4.7,4.7,5.8c0,0,10.5-1.4,16.2-4.2l-2.5-6C402.2,176.7,393,180.1,383.7,181z"/>
<path class="st24" d="M265,145l3.5,26.2c46.1,25.6,59.6-17.2,55.8-29.2c-7.3-32-3.5-40.6-3.6-79.9l-12.5-1.7l-1-0.1l-2.8-0.4
	L287,57.5l-2.9,1l-3.7,1.2l-0.8,0.3l-16.5,5.5l0.3,51.4v8.9C263.6,132.3,264.2,138.6,265,145z"/>
<path class="st20" d="M277.8,160.5c13-3.6,22.6-12.6,28.3-19.5c6.1-7.5,9.3-14.1,9.3-14.3c0.1-0.3,0-0.7-0.3-0.8
	c-0.3-0.1-0.7,0-0.8,0.3c0,0-3,6.6-9.1,14c-5.5,6.8-14.8,15.5-27.6,19.1c-0.3,0.1-0.6,0.4-0.4,0.8
	C277.1,160.4,277.3,160.7,277.8,160.5z"/>
<path class="st20" d="M292.6,161.2c11.4-3,20.8-12.6,21.2-13c0.3-0.3,0.3-0.7,0-1c-0.3-0.3-0.7-0.3-1,0
	c-0.1,0.1-11.4,11.4-23.4,13.3c-0.4,0-0.6,0.4-0.6,0.7c0,0.4,0.4,0.6,0.7,0.6C290.6,161.6,291.6,161.5,292.6,161.2z"/>
<path class="st20" d="M284.6,77.5c11.4-3.2,20.8-12.7,21.2-13.2c0.3-0.3,0.3-0.7,0-1c-0.3-0.3-0.7-0.3-1,0
	c-0.1,0.1-11.2,11.4-23.4,13.4c-0.4,0-0.6,0.4-0.6,0.7c0,0.4,0.4,0.6,0.7,0.6C282.6,78,283.6,77.8,284.6,77.5z"/>
<path class="st21" d="M383.7,279.7l4.6,10.3l-9.3,4l-5.4-10.5L383.7,279.7z"/>
<path class="st17" d="M386.2,289.6c0,0,1-4.2,2.9-4.7c1.9-0.7,20.9,4.4,26.2,3.2c5.3-1.2,5.8,2.8,5.8,5
	c-0.1,2.2-38.9,16.1-38.9,16.1s-6-10.8-6.2-14.7C375.7,290.5,382.9,292.1,386.2,289.6z"/>
<path class="st16" d="M397.5,294.1c-0.1,0.1-0.4,0.1-0.6,0.1c-0.4,0-0.7-0.4-0.7-0.8c0-0.1,0.4-3.3,1.9-5.3c2.1-2.5,4.7-1.9,4.8-1.8
	c0.4,0.1,0.7,0.6,0.6,0.8c-0.1,0.4-0.6,0.7-0.8,0.6c-0.1,0-1.9-0.4-3.5,1.4c-1.2,1.5-1.5,4.4-1.5,4.4
	C397.7,293.8,397.6,293.9,397.5,294.1z"/>
<path class="st16" d="M394.7,293.1c-0.1,0.1-0.4,0.1-0.6,0.1c-0.4,0-0.7-0.4-0.7-0.8c0-0.1,0.4-3.3,1.9-5.3c2.1-2.5,4.7-1.9,4.8-1.8
	c0.4,0.1,0.7,0.6,0.6,0.8c-0.1,0.4-0.6,0.7-0.8,0.6c-0.1,0-1.9-0.4-3.5,1.4c-1.2,1.5-1.5,4.4-1.5,4.4
	C395,292.7,394.8,293,394.7,293.1z"/>
<path class="st16" d="M400.9,294.5c-0.1,0.1-0.4,0.1-0.6,0.1c-0.4,0-0.7-0.4-0.7-0.8c0-0.1,0.4-3.3,1.9-5.3c2.1-2.5,4.7-1.9,4.8-1.8
	c0.4,0.1,0.7,0.6,0.6,0.8c-0.1,0.4-0.6,0.7-0.8,0.6c-0.1,0-1.9-0.4-3.5,1.4c-1.2,1.5-1.5,4.4-1.5,4.4
	C401.2,294.1,401.1,294.4,400.9,294.5z"/>
<path class="st13" d="M386.1,281.7c-1,1.1-4,2.8-7.2,4.3c-0.6,0.3-1.2,0.6-1.8,0.8c-1.1,0.4-2.1,0.8-3,1.1c0,0-22.2-40.9-30.6-70.4
	c0,0-74.9-9.3-77.6-35.5c-0.1-0.8-0.1-1.8,0-2.6c0.3-2.5,1.1-5.1,2.8-7.9c1.7-2.9,27.4-0.1,41.3,3.9c0,0,37.5,14.7,51.5,29.8
	C368.2,212.5,386.1,281.7,386.1,281.7z"/>
<path class="st22" d="M378.9,285.9c-0.6,0.3-1.2,0.6-1.8,0.8c-11.2-18.6-26.7-61.9-30.2-72.3c-0.3-0.7-0.8-1.2-1.5-1.4
	c-36.4-6.8-57.5-16.3-68.6-23.3c-5-3-8.4-5.7-10.9-7.9c-0.1-0.8-0.1-1.8,0-2.6c2.4,2.4,6.2,5.5,12.2,9.1
	c11.1,6.6,31.7,16.1,67.7,22.9c1.4,0.3,2.6,1.2,3,2.6C352.2,224.3,367.8,267.8,378.9,285.9z"/>
<path class="st23" d="M370,283.5l3.6,5.7c0,0,8.9-1.5,14.8-7.5l-2.2-5C386.1,276.6,375.4,281.9,370,283.5z"/>
<path class="st13" d="M312.2,38.1c6.4-8.3,4.8-20.2-3.6-26.6c-8.3-6.4-20.2-4.8-26.6,3.6c-6.4,8.3-4.8,20.2,3.6,26.6
	C293.9,48,305.8,46.5,312.2,38.1z"/>
<path class="st13" d="M316.1,26.6c0,0,5.5-0.6,5.8-5.8c0.1-4.4-5.4-2.5-4.4-5.8c1.1-3.3,2.6-6.2-1.7-7.9c-3.7-1.4-4.3,1.2-8.7-3.6
	c-5.3-5.5-11.6,4.2-17,3.5c-8-1-9.7,3.3-11.2,6.8c-1.4,3.5,1.2,6.5,1.2,6.5L316.1,26.6z"/>
<path class="st21" d="M311.8,34.6c0,0,3.6-3.5,5.3,0.3c1.7,3.6-3.2,12.7-8.2,9.4L311.8,34.6z"/>
<path class="st25" d="M310.6,41.5c0.1,0,0.4,0,0.6-0.3c1.4-2.8,4.7-3.5,4.7-3.5c0.3,0,0.4-0.3,0.4-0.6c0-0.3-0.3-0.4-0.6-0.4
	c-0.1,0-3.7,0.7-5.4,4C310.2,41.1,310.3,41.4,310.6,41.5C310.5,41.5,310.6,41.5,310.6,41.5z"/>
<path class="st25" d="M313.9,40.6c0.1,0,0.1,0,0.3,0c0.3-0.1,0.4-0.4,0.3-0.6c0,0-0.4-1-1.5-1.7c-0.3-0.1-0.6-0.1-0.7,0.1
	c-0.1,0.3-0.1,0.6,0.1,0.7c0.8,0.6,1.1,1.2,1.1,1.2C313.6,40.4,313.8,40.6,313.9,40.6z"/>
<path class="st21" d="M287.2,48.9l-1.7,9.6c0,0,3.2,5,7.1,6c3.7,1,6.9-3.2,6.9-3.2l1.7-9.3L287.2,48.9z"/>
<path class="st25" d="M287.2,48.9l-0.7,4.3c2.1,3.3,6.5,4.8,13.6,5.1l1.1-6.2L287.2,48.9z"/>
<path class="st21" d="M281.4,22.4c-0.4,3.7-1,8.5-0.8,12.3c0,1,0,1.9,0.1,2.6c0.8,7.5,3.7,20.4,18.7,17.9
	c6.6-1.1,10.8-7.6,13.3-14.4c1.7-4.7,2.8-9.4,3.3-12.9c0.6-3.6-0.8-7.1-3.6-9.4c-7.5-6.2-16.6-6-22.9-4.8
	C285.2,14.7,281.9,18.1,281.4,22.4z"/>
<path class="st13" d="M304.5,34.6c-0.1,1,0.1,1.9,0.8,2.1c0.7,0.1,1.4-0.6,1.5-1.7c0.1-1-0.1-1.9-0.8-2.1
	C305.3,32.8,304.6,33.6,304.5,34.6z"/>
<path class="st13" d="M290.6,32.1c-0.1,1,0.1,1.9,0.8,2.1c0.7,0.1,1.4-0.6,1.5-1.7c0.1-1-0.1-1.9-0.8-2.1
	C291.5,30.4,290.8,31.1,290.6,32.1z"/>
<path class="st13" d="M310.5,29.8c0,0-4.6-2.8-8.6-1.8v1.8c0,0,4.3-0.1,8,2.1C310.2,31,310.6,30.7,310.5,29.8z"/>
<path class="st13" d="M288,25.9c0,0,5.3-1.1,8.7,1.2l-0.7,1.7c0,0-3.9-1.7-8.2-0.8C287.9,27,287.6,26.6,288,25.9z"/>
<path class="st25" d="M296.6,40.7c-0.8-0.1-1.5-0.6-1.5-0.7c-0.3-0.1-0.3-0.4-0.1-0.7c0.1-0.3,0.4-0.3,0.7-0.1
	c0.4,0.3,1.4,0.7,1.8,0.6c0.1,0,0.3-0.1,0.3-0.4c0.4-1.5,1-6.9,1-7.1c0-0.3,0.3-0.4,0.6-0.4c0.3,0,0.4,0.3,0.4,0.6s-0.6,5.5-1,7.2
	c-0.1,0.6-0.6,0.8-0.8,1C297.3,40.8,297,40.8,296.6,40.7z"/>
<path class="st16" d="M301.9,44.6c-0.7,1.8-2.5,5-6.7,4.3c-4.2-0.7-4.8-4.2-4.8-6.4L301.9,44.6z"/>
<path class="st13" d="M311.7,37.8c0.7-1.8,1.4-4.2,1.4-5.4c0-2.2-1.7-3.9-0.7-6s-0.8-4.7-2.5-5.4c-1.5-0.7-5.5-0.6-9-3
	c-3.3-2.4-9.8-2.2-11.2-0.1c-1.8,2.6-0.1,3.2-4,5.5c-1.5,1-0.6,4.4-0.7,6.5c0,1-0.1,1.4-0.4,2.5l-0.1,0.6l-3.9-0.7
	c0.1-3.3,0.4-6.8,0.8-9.7c0.6-4.3,3.9-7.8,8.2-8.6c6.2-1.2,15.2-1.4,22.9,4.8c2.8,2.4,4.2,5.8,3.6,9.4c-0.4,2.8-1.1,6.4-2.2,10.1
	L311.7,37.8z"/>
<path class="st21" d="M282.1,34.3c0.1-1.1,0.3-2.1,0.3-3.2c0-1.5-0.1-2.9-1.5-3.7c-1.1-0.7-2.4-1-3.5,0.3
	c-2.8,2.9-2.1,13.4,3.7,12.1L282.1,34.3z"/>
<path class="st25" d="M280.4,36.5c-0.1-0.1-0.3-0.3-0.3-0.4c0.3-3.2-2.2-5.4-2.2-5.4c-0.1-0.1-0.1-0.4,0-0.7c0.1-0.1,0.4-0.1,0.7,0
	c0.1,0.1,2.9,2.6,2.5,6.2C281.1,36.4,280.8,36.5,280.4,36.5C280.5,36.5,280.5,36.5,280.4,36.5z"/>
<path class="st25" d="M278,33.9c-0.1,0-0.1-0.1-0.1-0.1c-0.1-0.1-0.1-0.6,0.1-0.7c0,0,0.8-0.6,2.1-0.7c0.3,0,0.4,0.1,0.4,0.4
	c0,0.3-0.1,0.4-0.4,0.4c-1,0-1.7,0.6-1.7,0.6C278.3,34,278.2,34,278,33.9z"/>
<path class="st17" d="M383.6,48L254.7,234.3l23.2,16.1L406.8,64.1L383.6,48z"/>
<path class="st18" d="M401.3,60.2L272.4,246.4l1.6,1.1L402.9,61.3L401.3,60.2z"/>
<path class="st18" d="M394.4,55.5L265.5,241.8l1.6,1.1L396,56.6L394.4,55.5z"/>
<path class="st18" d="M387.6,50.8L258.7,237l1.6,1.1L389.2,51.9L387.6,50.8z"/>
<path class="st13" d="M261.4,224.6l-6.7,9.7l23.2,16.1l6.7-9.7L261.4,224.6z"/>
<path class="st4" d="M277.9,250.3l-1.9,2.8c-4.4,6.4-13.2,8-19.7,3.6c-6.4-4.4-8-13.2-3.6-19.7l1.9-2.8L277.9,250.3z"/>
<path class="st21" d="M383.6,48l23.3,16.1l3.9-20.4l0.8-4.3l2.2-11.9l-10.3,6.9l-4,2.8L383.6,48z"/>
<path class="st4" d="M403.6,34.5c0.8,1,1.8,2.1,3.3,3c1.8,1.2,3.3,1.8,4.7,1.9l2.4-11.9L403.6,34.5z"/>
<path class="st21" d="M320.7,152.8h2.2c1.9,0,3.5-1.1,4.4-2.9c0.4-0.8,1-2.2,1.2-2.8c1.1-1.4,3.9-3.7,5-3.7c1.1-0.1,0.8,1.9,0.1,2.8
	c-0.7,0.8-1.9,1.9-2.6,3.2c-0.7,1.2,5.3,3.7,7.6,4.3c2.4,0.6,6.5-0.7,6.9,1.2c0.4,1.9-2.8,2.2-2.8,2.2s1,1.8-1.7,3.2
	c0,0,0.4,1.8-1.2,2.6c0,0,0.1,2.2-1.8,2.8c-1.9,0.6-8,2.4-19.9-4.8L320.7,152.8z"/>
<path class="st20" d="M279.8,102.2c4.4,17,8.9,24.5,8.9,24.5s5,7.8,15.4,15c7.2,5.1,18.8,11.1,18.8,11.1c-1.9,2.6-3.5,7.8-2.6,9.3
	c-24.1,0-45.2-22.9-45.2-22.9c-16.9-29.4-18-53.2-17.7-61.9c0.1-3,1-6.1,2.6-8.6c0.8-1.4,1.9-2.5,3.2-3.2c0,0,7.2,2.6,9.7,11.2
	C275.7,85.3,279.8,102.2,279.8,102.2z"/>
<path class="st21" d="M380.3,102.9c0,0-5-1.8-7.3-0.8c-2.4,1,4,4.4,4,4.4s-7.8-4.2-9-2.5c-1.4,1.7,6.1,5.8,6.1,5.8s-5.7-1.9-6.8-0.8
	c-1.1,1.1,4.2,4.4,4.2,4.4s-4.7-1.1-5.7-0.3c-1,0.8,3.2,4.2,5.8,5c2.6,0.8,3-2.8,3-2.8s2.5-2.2,2.1-3.6c0,0,2.5-1.7,2.8-3.5
	C379.3,108.3,382.9,105.1,380.3,102.9z"/>
<path class="st21" d="M169.6,299.2c0,0,6.2,11.9,13.6,21.2c2.2,2.8,4.4,5.3,6.6,7.3c3.6,3.2,7.2,4.8,10,3.5
	c10.7-5.3,37.3-48.9,37.3-48.9l-5.7-6.6c0,0-13.6,13.6-21.3,20.6c-7.1,6.6-12.6,11.5-12.6,11.5c-1-1.5-2.1-3-3.2-4.8
	c-1.1-1.8-2.4-3.7-3.6-5.7c-8.9-14.3-19.7-29.9-19.7-29.9L169.6,299.2z"/>
<path class="st25" d="M183.1,320.4c2.2,2.8,4.4,5.3,6.6,7.3l4.6-24.7c-1.1-1.8-2.4-3.7-3.6-5.7L183.1,320.4z"/>
<path class="st24" d="M170.8,266.4l22.6,32.4l-7.2,29l-17.7-28.1C168.5,299.6,165.1,280.8,170.8,266.4z"/>
<path class="st21" d="M230,273c0,0-1.4,2.2-0.7,5.4l6.2,6.1c0,0,1.8-0.1,4-0.8L230,273z"/>
<path class="st21" d="M234.4,262.2c0,0-3.5,5.1-3.2,8c0.4,2.9,6.2-3.3,6.2-3.3s-6.9,7.5-5.5,9.6c1.5,1.9,8.4-5.1,8.4-5.1
	s-4,5.8-3,7.5c1,1.7,6.2-3.3,6.2-3.3s-2.6,4.8-2.1,6.2c0.6,1.4,5.5-2.4,7.3-5c1.8-2.6-2.2-4.3-2.2-4.3s-1.7-3.5-3.5-3.5
	c0,0-1.1-3.5-3-4.2C240.1,264.7,237.6,259.7,234.4,262.2z"/>
<path class="st21" d="M159.2,544.1v10.3l-9.6-0.1l-0.6-10.8L159.2,544.1z"/>
<path class="st13" d="M134.9,394.4c0,1.2,0.4,7.1,0.8,15.2c1.4,22.4,3.9,62.2,5.4,71.2c1.5,9.1,0.8,39.3,0.3,55
	c-0.1,2.6,1,5.1,2.8,6.9c0.7,0.7,1.4,1.2,2.2,1.7c1.4,0.8,3,1.2,4.8,1.2h7.3c5.5,0,10-4.4,9.7-9.8c-0.4-13.3-1-37.7,0-56.4
	c1-17.9-0.4-49.5-1.4-69.1c-0.4-7.9-0.8-13.9-1-16.2L134.9,394.4z"/>
<path class="st22" d="M166,394l-31,0.4c0,1.2,0.4,7.1,0.8,15.2c10.5,1.2,21.5,1.8,31,0.7C166.5,402.4,166.1,396.5,166,394z"/>
<path class="st22" d="M144.4,507.7c-0.3,10.1-0.6,20.5-0.4,29c0,2.4,0.1,4.4,0.3,6.1c0.7,0.7,1.4,1.2,2.2,1.7
	c-0.1-1.9-0.3-4.6-0.4-7.9c-0.1-8.3,0.1-18.7,0.4-28.8c0.3-12.3,0.7-23.8,0-28.8c-1.5-10.8-4.8-69.4-5.7-85.1l-2.1,0.1
	c0.8,15.7,4.2,74.4,5.7,85.2C145,484,144.8,495.5,144.4,507.7z"/>
<path class="st17" d="M156.8,554.1c0,0,1.9-2.8,3.6-2.6c1.7,0.1,14.4,9.6,18.7,10.3c4.3,0.7,3.6,3.9,2.8,5.4
	c-0.7,1.7-34.2,0.1-34.2,0.1s-1.1-9.7-0.1-12.7C148.5,551.5,153.5,554.8,156.8,554.1z"/>
<path class="st16" d="M163.9,560.8c-0.1,0-0.3,0-0.4,0c-0.3-0.1-0.4-0.6-0.3-0.8c0-0.1,1.2-2.4,3-3.3c2.4-1.2,4.2,0,4.3,0.1
	c0.3,0.1,0.3,0.6,0.1,0.8c-0.1,0.3-0.6,0.3-0.8,0.1c0,0-1.4-0.8-3,0c-1.4,0.7-2.5,2.8-2.5,2.8C164.2,560.6,164,560.6,163.9,560.8z"
	/>
<path class="st16" d="M162.1,559.1c-0.1,0-0.3,0-0.4,0c-0.3-0.1-0.4-0.6-0.3-0.8c0-0.1,1.2-2.4,3-3.3c2.4-1.2,4.2,0,4.3,0.1
	c0.3,0.1,0.3,0.6,0.1,0.8c-0.1,0.3-0.6,0.3-0.8,0.1c0,0-1.4-0.8-3,0c-1.4,0.7-2.5,2.8-2.5,2.8C162.4,559,162.2,559.1,162.1,559.1z"
	/>
<path class="st16" d="M166.4,562c-0.1,0-0.3,0-0.4,0c-0.3-0.1-0.4-0.6-0.3-0.8c0-0.1,1.2-2.4,3-3.3c2.4-1.2,4.2,0,4.3,0.1
	c0.3,0.1,0.3,0.6,0.1,0.8c-0.1,0.3-0.6,0.3-0.8,0.1c0,0-1.4-0.8-3,0c-1.4,0.7-2.5,2.8-2.5,2.8C166.5,561.9,166.5,562,166.4,562z"/>
<path class="st21" d="M112.6,544.1l-1,10.3l-8.6-0.1l-0.7-10.8L112.6,544.1z"/>
<path class="st13" d="M95,479.4c1,18.7,0.4,43.1,0,56.4c-0.1,5.4,4.3,9.8,9.7,9.8h7.3c1.7,0,3.2-0.4,4.4-1.1c0.8-0.4,1.5-1,2.2-1.5
	c1.9-1.8,3.2-4.4,3-7.2c-0.6-15.8-1.1-45.9,0.3-55c1.5-9.1,4.2-50.1,5.4-72.3c0.4-7.3,0.7-12.7,0.8-14l-31.2,0.4
	c-0.1,1.5-0.3,4-0.4,7.1C96,419.7,94.1,458.8,95,479.4z"/>
<path class="st22" d="M97,402c5.8,1.5,17.5,4.4,30.8,6.5c0.4-7.3,0.7-12.7,0.8-14l-31.2,0.4C97.3,396.5,97.1,398.9,97,402z"/>
<path class="st22" d="M117.1,536.7c-0.1,3.3-0.3,6-0.4,8c0.8-0.4,1.5-1,2.2-1.5c0.1-1.8,0.3-3.9,0.3-6.4c0.1-8.5-0.1-18.8-0.4-29
	c-0.3-12.2-0.7-23.7,0-28.5c1.5-10.9,4.8-69.7,5.7-85.2l-2.1-0.1c-0.8,15.7-4.2,74.3-5.7,85.1c-0.7,5-0.4,16.5,0,28.8
	C116.9,517.8,117.2,528.2,117.1,536.7z"/>
<path class="st17" d="M108.3,552.9c0,0-4.3-1.1-5.5-1.1c-1.2,0-9.3,8.9-12.1,9.4c-5,1-5,8.5-1.9,8.9c8.7,1.1,23.6-2.5,23.6-2.5
	s1.4-9.7,0.8-12.7C112.5,551.8,110.7,553.7,108.3,552.9z"/>
<path class="st16" d="M101.1,561.2c0.1,0,0.3,0,0.4-0.1c0.3-0.1,0.4-0.6,0.1-0.8c0-0.1-1.5-2.2-3.3-2.9c-2.5-1-4.2,0.4-4.2,0.6
	c-0.3,0.3-0.3,0.6,0,0.8c0.3,0.3,0.6,0.3,0.8,0c0,0,1.2-1,2.9-0.3c1.5,0.6,2.8,2.5,2.8,2.5C100.9,561,101,561,101.1,561.2z"/>
<path class="st16" d="M102.8,559.4c0.1,0,0.3,0,0.4-0.1c0.3-0.1,0.4-0.6,0.1-0.8c0-0.1-1.5-2.2-3.3-2.9c-2.5-1-4.2,0.4-4.2,0.6
	c-0.3,0.3-0.3,0.6,0,0.8c0.3,0.3,0.6,0.3,0.8,0c0,0,1.2-1,2.9-0.3c1.5,0.6,2.8,2.5,2.8,2.5C102.5,559.2,102.7,559.2,102.8,559.4z"/>
<path class="st16" d="M98.8,562.6c0.1,0,0.3,0,0.4-0.1c0.3-0.1,0.4-0.6,0.1-0.8c0-0.1-1.5-2.2-3.3-2.9c-2.5-1-4.2,0.4-4.2,0.6
	c-0.3,0.3-0.3,0.6,0,0.8c0.3,0.3,0.6,0.3,0.8,0c0,0,1.2-1,2.9-0.3c1.5,0.6,2.8,2.5,2.8,2.5C98.5,562.6,98.6,562.6,98.8,562.6z"/>
<path class="st24" d="M90.3,397.6c28.1,6.9,56.1,6.9,84.2,0c0.1-10.3,0.3-51.3-0.6-84.9c0-0.7,0-1.4,0-1.9c0-0.3,0-0.7,0-1
	c0-0.4,0-0.8,0-1.2c-0.6-22.2-1.7-40.3-3.5-42.8c-4.2-5.7-25.2-14.7-31-18.7c-0.6,0.8-3.3,5-7.1,5.3c-4.2,0.4-7.8-4.4-7.8-4.4V247
	c-5.8,4-24.9,12.3-29.1,18C90.9,271.1,90,380.1,90.3,397.6z"/>
<path class="st20" d="M165.4,296.8c2.4,3.2,6,10.4,7.5,13.7c0.3,0.4,0.4,0.8,0.6,1.1c0.1,0.4,0.3,0.6,0.3,0.6c0,0.1,0.1,0.1,0.3,0.3
	c0-0.7,0-1.4,0-1.9c0-0.3,0-0.7,0-1c-0.3-0.7-0.7-1.5-1.1-2.4c-1.8-3.7-4.3-8.6-6.4-11.2c-0.3-0.3-0.6-0.3-1-0.1
	C165.3,296.2,165.1,296.6,165.4,296.8z"/>
<path class="st20" d="M111.7,272.1c11.2-0.4,19.8-4.8,25.1-8.6c5.7-4,8.7-8,8.9-8.2c0.3-0.3,0.1-0.7-0.1-0.8c-0.3-0.3-0.7-0.1-1,0.1
	c-0.1,0.1-12.2,15.7-32.8,16.3c-0.4,0-0.7,0.3-0.7,0.7C111,271.8,111.2,272.1,111.7,272.1z"/>
<path class="st20" d="M149.2,376.1c0.3,0,0.7-0.3,0.7-0.6c0-0.4-0.3-0.7-0.6-0.7c-18.3-1.1-29.2-10.3-35.2-17.7
	c-6.5-8-8.6-15.9-8.6-16.1c-0.1-0.3-0.4-0.6-0.8-0.4c-0.4,0.1-0.6,0.4-0.4,0.8c0.1,0.3,2.2,8.2,8.9,16.5
	C119.1,365.6,130.4,375,149.2,376.1z"/>
<path class="st20" d="M139.4,364.7c0.3,0,0.6-0.1,0.7-0.4c0.1-0.3-0.1-0.7-0.4-0.8c-15.9-4.2-19-17.2-19-17.3
	c-0.1-0.3-0.4-0.6-0.8-0.6c-0.4,0.1-0.6,0.4-0.6,0.7c0,0.1,0.8,3.6,3.6,7.5c2.6,3.6,7.6,8.5,16.3,10.8
	C139.2,364.7,139.4,364.7,139.4,364.7z"/>
<path class="st21" d="M69.7,396.5c0.4,5.5,3.9,9.7,3.9,13.4c0,3.7,4.3,1.2,2.4-6c-1.9-7.2,1-14.3,2.5-14.3c1.5,0-0.6,8.2,1.1,10.8
	c1.7,2.6,2.9-2.9,4.4-6.5c1.5-3.6,0.7-11.2-0.7-16.5c-1.4-5.3,5.4-38.9,4.4-48.5l2.5-12.3l1.4-7.2l0.3-7.5l-13-5
	c-0.6,2.4-1,4.8-1.5,7.3c-0.3,1.1-0.4,2.2-0.7,3.3c-1.8,9-3.3,17.7-3.9,23.4c-1.8,15.7,1.1,47.7,1.1,47.7S69.3,391.2,69.7,396.5z"/>
<path class="st25" d="M76.8,307.8c2.9,3.3,7.6,7.5,13.4,9l1.4-7.2l0.3-7.5l-13-5c-0.6,2.4-1,4.8-1.5,7.3
	C77.2,305.6,76.9,306.7,76.8,307.8z"/>
<path class="st24" d="M73.1,300.7c0,0,1.5,1.8,4.3,3.7c3.3,2.4,8.3,5.1,14.3,5.1c0.7-20.8,1.8-38.4,3.3-43.5
	C92.1,269.6,79,285.9,73.1,300.7z"/>
<path class="st20" d="M100.6,294.8c-2.4,3.2-6,10.4-7.5,13.7c-0.3,0.4-0.4,0.8-0.6,1.1c-0.1,0.4-0.3,0.6-0.3,0.6
	c-0.1,0.3-0.3,0.4-0.6,0.4c0-0.3,0-0.7,0-1c-0.1,0-0.4,0-0.6,0c0.1-0.1,0.3-0.7,0.6-1.2c0.4-0.8,1-1.9,1.5-3.2
	c1.8-3.7,4.3-8.6,6.4-11.2c0.3-0.3,0.6-0.3,1-0.1C100.7,294.1,100.7,294.5,100.6,294.8z"/>
<path class="st13" d="M112.4,213.6c0,11.2,7.1,19,18.6,19c11.5,0,19.5-8.3,19.5-19.5c0-11.2-6.8-19.8-18.3-19.8
	C118.3,193.2,112.4,202.4,112.4,213.6z"/>
<path class="st13" d="M112.9,212.1c0,0-2.4-0.3-3.2-7.8c-0.8-7.5,4.8-5.5,7.3-9.4c2.4-3.9,5.1-9.4,11.2-7.6
	c6.1,1.8,11.4,3.3,16.9,0.8c5.5-2.6,11.8,4.7,10.7,9.7c-1.2,5-7.9,6.8-7.9,6.8L112.9,212.1z"/>
<path class="st25" d="M114.8,218.4c0,0-3.2-4.2-5.5-0.7c-2.4,3.5,1,13.6,6.8,11.1L114.8,218.4z"/>
<path class="st26" d="M114.8,225.6c-0.3,0-0.4-0.1-0.4-0.4c-0.8-3.2-4.2-4.4-4.3-4.4c-0.3-0.1-0.4-0.4-0.3-0.6
	c0.1-0.3,0.4-0.4,0.7-0.3c0.1,0,3.9,1.4,4.8,5.1C115.4,225.4,115.3,225.6,114.8,225.6C115,225.6,114.8,225.6,114.8,225.6z"/>
<path class="st26" d="M111.5,224.1c-0.1,0-0.1,0-0.3-0.1c-0.3-0.1-0.3-0.4-0.1-0.7c0,0,0.6-1,1.8-1.4c0.3-0.1,0.6,0,0.7,0.3
	c0.1,0.3,0,0.6-0.3,0.7c-1,0.4-1.4,1.1-1.4,1.1C111.8,224.1,111.7,224.1,111.5,224.1z"/>
<path class="st25" d="M147.7,218.4c0,0,3.2-4.2,5.5-0.7c2.4,3.5-1,13.6-6.8,11.1L147.7,218.4z"/>
<path class="st26" d="M147.8,225.6c0.3,0,0.4-0.1,0.4-0.4c0.8-3.2,4.2-4.4,4.3-4.4c0.3-0.1,0.4-0.4,0.3-0.6
	c-0.1-0.3-0.4-0.4-0.7-0.3c-0.1,0-3.9,1.4-4.8,5.1C147.3,225.4,147.4,225.6,147.8,225.6C147.7,225.6,147.7,225.6,147.8,225.6z"/>
<path class="st26" d="M151.1,224.1c0.1,0,0.1,0,0.3-0.1c0.3-0.1,0.3-0.4,0.1-0.7c0,0-0.6-1-1.8-1.4c-0.3-0.1-0.6,0-0.7,0.3
	c-0.1,0.3,0,0.6,0.3,0.7c1,0.4,1.4,1.1,1.4,1.1C150.9,224.1,151,224.1,151.1,224.1z"/>
<path class="st21" d="M139.1,237.4v10.1c0,0-3,5.1-7.2,5.5c-4.2,0.4-7.9-4.4-7.9-4.4v-10.5L139.1,237.4z"/>
<path class="st25" d="M139.1,237.4v4.4c-2.8,3-7.8,3.7-15.1,2.8v-6.5L139.1,237.4z"/>
<path class="st21" d="M113.2,218.2c0.1,2.1,0.4,4.4,0.8,6.6c1.4,7.5,4.6,14.8,11.2,17.2c15.2,5.3,20.6-7.5,22.9-15
	c0.3-0.8,0.4-1.8,0.7-2.8c0.3-1.8,0.6-3.7,0.8-5.8c0.3-2.4,0.4-4.8,0.6-7.1c0.3-4.6-2.5-8.7-6.9-10.4c-6.2-2.4-15.7-4.2-24.7,0.8
	c-3.3,1.8-5.4,5.3-5.5,9C112.9,212.9,113,215.4,113.2,218.2z"/>
<path class="st13" d="M113.2,218.2c0.1,2.1,0.4,4.4,0.8,6.6c1.4,7.5,4.6,14.8,11.2,17.2c15.2,5.3,20.6-7.5,22.9-15
	c0.3-0.8,0.4-1.8,0.7-2.8c0.3-1.8,0.6-3.7,0.8-5.8h-2.2c-0.4,1.4-2.9,9.8-3.7,11.1c-1.7-4-10.5-1.4-10.5-1.4
	c-0.6,0.1-1.1,0.3-1.7,0.3s-1.1-0.1-1.7-0.3c0,0-8.7-2.8-10.5,1.1c-0.8-1.2-3.6-9.8-4.2-10.8L113.2,218.2z M131.3,230.1
	c10-1.2,8.3,3.9,8.3,3.9c-1.1,1-2.1,1.7-2.8,2.1c-2.2,1.2-4.3,1.7-5.8,1.5c-1.5,0-1.9,0.3-5.8-1.8c-0.7-0.4-1.4-0.8-2.1-1.5
	C123,233.3,121.4,228.4,131.3,230.1z"/>
<path class="st13" d="M124.8,219.8c0,1.1-0.6,1.9-1.2,1.9s-1.2-0.8-1.2-1.9c0-1.1,0.6-1.9,1.2-1.9
	C124.3,217.7,124.8,218.7,124.8,219.8z"/>
<path class="st13" d="M139.8,219.7c0,1.1-0.6,1.9-1.2,1.9c-0.7,0-1.2-0.8-1.2-1.9s0.6-1.9,1.2-1.9
	C139.2,217.7,139.8,218.6,139.8,219.7z"/>
<path class="st13" d="M118.4,214.3c0,0,4.8-1.9,8.6-0.3l-0.4,2.1c0,0-5.5-0.4-8.3,0.7C118.2,215.8,118.2,215,118.4,214.3z"/>
<path class="st13" d="M142.7,214.3c0,0-4.8-1.9-8.6-0.3l0.4,2.1c0,0,5.5-0.4,8.3,0.7C143,215.8,143,215,142.7,214.3z"/>
<path class="st25" d="M131.5,227.3c0.8,0,1.7-0.3,1.8-0.4c0.3-0.1,0.4-0.4,0.3-0.7c-0.1-0.3-0.4-0.4-0.7-0.3
	c-0.4,0.1-1.5,0.4-1.9,0.1c-0.1,0-0.3-0.1-0.3-0.4c-0.1-1.7,0.3-7.3,0.3-7.3c0-0.3-0.1-0.6-0.4-0.6s-0.6,0.1-0.6,0.4
	c0,0.3-0.4,5.8-0.3,7.5c0.1,0.7,0.4,1,0.7,1.1C130.8,227.3,131.1,227.3,131.5,227.3z"/>
<path class="st16" d="M124.8,230.9c0.4,1.9,1.8,5.7,6.2,5.7s5.8-3.3,6.2-5.7H124.8z"/>
<path class="st13" d="M149.5,218.6h-2.2c0.3-2.2,0.6-6.1-1.2-6.6c-5.8-1.8,1.7-5.8-1-7.8c-2.6-1.9-9.1-1.1-13.7-1.2
	c-4.6-0.1-11.9-0.1-13.7,0.3c-1.8,0.4-0.8,3.3-0.1,5.5c0.7,2.2-2.2,4.7-2.6,7.1c-0.1,0.7-0.1,1.7,0,2.8H113
	c-0.3-2.8-0.3-5.4-0.3-7.6c0.1-3.7,2.2-7.2,5.4-9c9-5,18.4-3.2,24.7-0.8c4.3,1.7,7.1,5.8,6.9,10.4
	C149.9,213.6,149.8,216.1,149.5,218.6z"/>
<path class="st16" d="M129.3,218.4c0-0.3-0.1-0.6-0.1-0.8c-0.3-0.7-1.1-1.2-1.9-1.2h-7.5c-0.6,0-1.1,0.3-1.5,0.7
	c-0.3,0.3-0.4,0.4-0.6,0.7c-0.1,0.3-0.1,0.6-0.1,0.7v1c0,1.7,0.7,3.2,1.8,4.3c1.1,1.1,2.4,1.7,3.7,1.7h0.1c1.7,0,3.2-0.7,4.3-1.8
	s1.8-2.6,1.8-4.3V218.4z M128.4,219.3c0,1.4-0.6,2.8-1.5,3.7c-1,1-2.2,1.5-3.6,1.5h-0.1c-1.1,0-2.2-0.6-3.2-1.4
	c-1-1-1.5-2.2-1.5-3.6v-1c0-0.7,0.6-1.2,1.2-1.2h7.5c0.7,0,1.2,0.6,1.2,1.2V219.3z"/>
<path class="st16" d="M144.4,217.9c-0.1-0.3-0.3-0.6-0.4-0.8c-0.4-0.4-1-0.8-1.7-0.8h-7.6c-0.8,0-1.7,0.6-1.9,1.2
	c-0.1,0.3-0.1,0.6-0.1,0.8v1c0,1.7,0.7,3.2,1.8,4.3s2.4,1.7,3.7,1.7h0.1c1.7,0,3.2-0.7,4.3-1.8c1.1-1.1,1.8-2.6,1.8-4.3v-0.8
	C144.4,218.3,144.4,218,144.4,217.9z M143.5,219.3c0,1.4-0.6,2.8-1.5,3.7c-1,1-2.2,1.5-3.6,1.5h-0.1c-1.1,0-2.2-0.6-3.2-1.4
	c-1-1-1.5-2.2-1.5-3.6v-1c0-0.7,0.6-1.2,1.2-1.2h7.6c0.7,0,1.2,0.6,1.2,1.2v0.7H143.5z"/>
<path class="st16" d="M113,216.9c2.1,0.3,2.8,0.6,3.6,0.8c0.3,0.1,0.8,0.4,0.8,0.4l0.4-0.7c0,0-0.6-0.4-0.8-0.4
	c-1-0.4-3.6-1.4-6.2-0.6C111,216.4,112.2,216.4,113,216.9z"/>
<path class="st16" d="M149.8,216.8c-2.2,0.1-3.7,0.6-4.6,1c-0.3,0.1-0.8,0.4-0.8,0.4l-0.4-0.7c0,0,0.6-0.4,0.8-0.4
	c1-0.4,3.9-1.4,6.5-0.6C151.1,216.4,150.6,216.2,149.8,216.8z"/>
<path class="st16" d="M128.7,218.6l-0.3-0.8c0,0,1.2-0.4,2.6-0.4c1.5,0,2.4,0.4,2.5,0.4l-0.4,0.8c0,0-0.8-0.4-2.1-0.4
	C129.8,218.2,128.7,218.6,128.7,218.6z"/>
<path class="st4" d="M561.8,473.3H451.6c1.8-11.1,10.5-19.1,20.8-19l34.2,0.1l34.2-0.1C551.2,454.2,560,462.3,561.8,473.3z"/>
<path class="st4" d="M466.3,471.8h-6v93h6V471.8z"/>
<path class="st4" d="M553,471.8h-6v93h6V471.8z"/>
<path class="st6" d="M547.1,500.5h-80.8v5.8h80.8V500.5z"/>
<path class="st24" d="M525.2,383.3l12.7,47.4c0,0-11.2,5.3-28.5,6.2c-1.7,0.1-3.3,0.1-5.1,0.1c-1.7,0-3.3,0-4.8-0.1
	c-17.5-0.6-29.1-4.7-29.1-4.7l13.6-49l-12.7-39.9l25.5-10h14l27.7,10.1L525.2,383.3z"/>
<path class="st16" d="M503.6,346.3c-10.1,0-10.8-11.6-10.8-11.8c0-0.4,0.3-0.7,0.7-0.7c0.4,0,0.7,0.3,0.7,0.7
	c0,0.4,0.6,10.5,9.4,10.5c9,0,9.8-9.8,9.8-10.3c0-0.4,0.4-0.7,0.7-0.7c0.4,0,0.7,0.4,0.7,0.7C514.8,334.9,513.8,346.3,503.6,346.3z"
	/>
<path class="st20" d="M487.6,358.9c10.3-0.3,18.3-4.6,23.1-8c5.3-3.7,8-7.3,8.2-7.5c0.1-0.3,0.1-0.7-0.1-0.8
	c-0.3-0.1-0.7-0.1-0.8,0.1c-0.1,0.1-11.2,14.4-30.3,15.1c-0.3,0-0.6,0.3-0.6,0.6S487.4,358.9,487.6,358.9z"/>
<path class="st24" d="M471.2,343.4c0,0-12.9,17.9-11.6,39.5c1.1,19.7,16.2,32.8,16.2,32.8l5.8-9.6c0,0-6.6-11.5-6.9-23.3
	c-0.3-11.8,3.2-18.7,3.2-18.7L471.2,343.4z"/>
<path class="st24" d="M538.3,343.7c0,0,11.6,17.5,12.9,37.1c1.2,19.7-14.1,34.9-14.1,34.9l-5.8-9.6c0,0,5.8-10.5,6.1-22.3
	c0.3-11.8-6.5-19.7-6.5-19.7L538.3,343.7z"/>
<path class="st16" d="M509.5,437c-1.7,0.1-3.3,0.1-5.1,0.1c-1.7,0-3.3,0-4.8-0.1l4.7-32.3L509.5,437z"/>
<path class="st22" d="M469.1,444.4c0,0,15.4,15.8,36.4,15.8c25.5,0,36.4-12.9,36.4-12.9l-3.9-16.5l-68.3,1.4L469.1,444.4z"/>
<path class="st21" d="M517.7,546.2l0.4,9.7l9.3-1.9v-8L517.7,546.2z"/>
<path class="st27" d="M506.8,452.8c-0.3-2.4,0.1-4.6,0.6-6.9c1.4-8,6.1-24.4,19.9-22.6c18.3,2.5,12.7,37.3,12.7,37.3l-11.9,85.3
	l-11.8,0.4C516.5,546.3,511.5,496.6,506.8,452.8z"/>
<path class="st23" d="M530.3,541.5l-15,1.1l0.3,6c0,0,9.8-0.6,13.7-1L530.3,541.5z"/>
<path class="st27" d="M451.6,423.6c0,0,16.6,24.9,35.7,34.8c20.4,10.5,29.9-8.7,29.9-8.7S472,417.8,451.6,423.6z"/>
<path class="st17" d="M541.4,418.9h-73.8l-6.8-39.9c-0.6-3.5,2.1-6.6,5.5-6.6h76.2c3.5,0,6.1,3.2,5.5,6.6L541.4,418.9z"/>
<path class="st18" d="M537,427.6h-64.8c-2.5,0-4.4-2.1-4.4-4.4V419h73.8v4.2C541.4,425.5,539.5,427.6,537,427.6z"/>
<path class="st28" d="M511.6,397.4c0,3.6-2.9,6.4-6.4,6.4c-3.5,0-6.4-2.9-6.4-6.4c0-3.6,2.9-6.4,6.4-6.4
	C508.7,391.1,511.6,393.8,511.6,397.4z"/>
<path class="st21" d="M552.6,454.9l9.4,2.1l1.5-8.2l-8.7-3.3L552.6,454.9z"/>
<path class="st13" d="M556.8,446.3c-1.1,5.1-2.1,6.5-3.5,9.1c0,0-76.5-18.1-89.2-23.3c-4.8-1.9-9.6-5.3-13-9.1
	c-0.8-0.8-1.5-1.8-2.1-2.8c-3.9-5.8-4.6-12.2,1.7-16.5c11.6-8.2,25.4,0.1,25.4,0.1s15.8,2.1,44.5,20.4
	C533.1,432.3,556.8,446.3,556.8,446.3z"/>
<path class="st27" d="M551.5,452.1l-0.3,1.2c-0.6-0.1-55-14.1-75.5-20.6c-11.5-3.6-19.3-6.9-24.4-9.7c-0.8-0.8-1.5-1.8-2.1-2.8
	c5,2.8,13.3,6.8,26.9,11.1C496.5,437.9,551,452,551.5,452.1z"/>
<path class="st23" d="M552.6,442.3l-3.3,13l5.1,1c0,0,2.6-8.3,3.3-11.6L552.6,442.3z"/>
<path class="st13" d="M487,310.6c0,0-7.3-12.5-1.1-22.2c6.1-9.7,19.3-8.7,22.6-8c3.3,0.7,22.9,10,11.1,32.1L487,310.6z"/>
<path class="st25" d="M488.1,307.1c0,0-2.9-3.9-5.1-0.7c-2.2,3.3,1,12.9,6.2,10.5L488.1,307.1z"/>
<path class="st26" d="M488.1,313.9c-0.1,0-0.4-0.1-0.4-0.3c-0.8-2.9-3.9-4.2-3.9-4.2c-0.3-0.1-0.4-0.4-0.3-0.6
	c0.1-0.3,0.4-0.4,0.6-0.3c0.1,0,3.6,1.4,4.4,4.8C488.6,313.6,488.5,313.9,488.1,313.9C488.2,313.9,488.1,313.9,488.1,313.9z"/>
<path class="st26" d="M485,312.5c-0.1,0-0.1,0-0.3-0.1c-0.3-0.1-0.3-0.4-0.1-0.7c0,0,0.6-0.8,1.7-1.4c0.3-0.1,0.6,0,0.6,0.3
	c0.1,0.3,0,0.6-0.3,0.6c-0.8,0.4-1.2,1-1.2,1C485.3,312.4,485.2,312.5,485,312.5z"/>
<path class="st25" d="M518.5,307.1c0,0,2.9-3.9,5.1-0.7c2.2,3.3-1,12.9-6.2,10.5L518.5,307.1z"/>
<path class="st26" d="M518.7,313.9c0.1,0,0.4-0.1,0.4-0.3c0.8-2.9,3.9-4.2,3.9-4.2c0.3-0.1,0.4-0.4,0.3-0.6
	c-0.1-0.3-0.4-0.4-0.6-0.3c-0.1,0-3.6,1.4-4.4,4.8C518.1,313.6,518.3,313.9,518.7,313.9C518.5,313.9,518.5,313.9,518.7,313.9z"/>
<path class="st26" d="M521.7,312.5c0.1,0,0.1,0,0.3-0.1c0.3-0.1,0.3-0.4,0.1-0.7c0,0-0.6-0.8-1.7-1.4c-0.3-0.1-0.6,0-0.6,0.3
	c-0.1,0.3,0,0.6,0.3,0.6c0.8,0.4,1.2,1,1.2,1C521.4,312.4,521.6,312.5,521.7,312.5z"/>
<path class="st21" d="M510.6,325.1v9.6c0,0-2.9,4.8-6.6,5.3c-3.9,0.3-7.3-4.2-7.3-4.2v-10L510.6,325.1z"/>
<path class="st25" d="M510.6,325.1v4.3c-2.6,2.9-7.2,3.6-14,2.6v-6.1L510.6,325.1z"/>
<path class="st21" d="M520.8,300.5c-0.1,3.7-0.6,8.3-1.2,12.1c-0.1,1-0.4,1.8-0.6,2.6c-2.1,7.1-7.1,19.1-21.2,14.1
	c-6.2-2.2-9.1-9.1-10.4-16.2c-0.8-4.8-1-9.7-1-13.2c0-3.6,1.9-6.8,5.1-8.5c8.3-4.7,17.2-2.9,22.9-0.7
	C518.4,292.3,520.9,296.2,520.8,300.5z"/>
<path class="st13" d="M499.6,286.9c0,0,18.6,29.9,21.2,19C524.4,290.2,513.3,280.6,499.6,286.9z"/>
<path class="st13" d="M498.7,286.9c-12.3,0.1-18.6,14.1-12.7,15.8c8,2.4,15-9,17-12.9C501.6,288.8,500.1,287.8,498.7,286.9z"/>
<path class="st13" d="M521,282.1c1.1-6.6-3.3-12.9-10-14.1c-6.6-1.1-12.9,3.3-14.1,10c-1.1,6.6,3.3,12.9,10,14.1
	C513.6,293.2,519.9,288.7,521,282.1z"/>
<path class="st13" d="M488.5,301.3c0,0,1.4,3.7,0,6.2c-1.4,2.5-0.3,6.8,0.3,11.6c0,0-2.8-2.9-2.9-7.8c-0.1-4.7,0.7-8.7,0-10.5
	L488.5,301.3z"/>
<path class="st13" d="M517.8,301.3c0,0-1,3.7,0.4,6.2c1.4,2.5-0.1,6.9-0.7,11.8c0,0,2.8-3,2.9-7.8c0.1-4.7-0.7-8.7,0-10.5
	L517.8,301.3z"/>
<path class="st13" d="M497.1,308.2c0,1-0.6,1.8-1.1,1.8c-0.7,0-1.1-0.8-1.1-1.8c0-1,0.6-1.8,1.1-1.8
	C496.6,306.3,497.1,307.1,497.1,308.2z"/>
<path class="st13" d="M511.6,308.2c0,1-0.6,1.8-1.1,1.8c-0.7,0-1.1-0.8-1.1-1.8c0-1,0.6-1.8,1.1-1.8
	C511.2,306.3,511.6,307.1,511.6,308.2z"/>
<path class="st13" d="M493.6,302.1c1-0.3,2.9-0.7,5-0.7c0.6,0,1,0.6,0.8,1c-0.1,0.4-0.4,0.7-0.8,0.7c-1.4,0-5.1,0.1-6.9,0.8
	c0-0.3,0.1-0.7,0.4-1C492.5,302.5,493,302.3,493.6,302.1z"/>
<path class="st13" d="M512.6,302.1c-1-0.3-2.9-0.7-5-0.7c-0.6,0-1,0.6-0.8,1c0.1,0.4,0.4,0.7,0.8,0.7c1.4,0,5.1,0.1,6.9,0.8
	c0-0.3-0.1-0.7-0.4-1C513.7,302.7,513.1,302.3,512.6,302.1z"/>
<path class="st25" d="M503.4,316.1c-0.4,0-0.7,0-1-0.3c-0.3-0.1-0.6-0.4-0.7-1.1c-0.1-1.7,0.3-6.9,0.3-7.2c0-0.3,0.3-0.4,0.6-0.4
	c0.3,0,0.4,0.3,0.4,0.6c0,0-0.4,5.4-0.3,6.9c0,0.3,0.1,0.4,0.3,0.4c0.4,0.3,1.4,0,1.8-0.1c0.3-0.1,0.6,0,0.6,0.3
	c0.1,0.3,0,0.6-0.3,0.6C505,315.8,504.3,316.1,503.4,316.1z"/>
<path class="st16" d="M497.9,318.9c0.3,1.7,1.5,4.8,5.4,4.8s5-2.9,5.3-4.8H497.9z"/>
<path class="st25" d="M503.2,326.5c-1.1,0-2.1-0.6-2.1-0.7c-0.3-0.1-0.3-0.4-0.1-0.7c0.1-0.3,0.4-0.3,0.7-0.1c0,0,0.8,0.6,1.7,0.6
	c1,0,1.8-0.6,1.8-0.6c0.3-0.1,0.6,0,0.7,0.1c0.1,0.3,0,0.6-0.1,0.7C505.4,325.9,504.3,326.5,503.2,326.5z"/>
<path class="st16" d="M501.2,306.5c0-0.3-0.1-0.7-0.3-1c-0.4-0.7-1.1-1.2-2.1-1.2h-7.8c-0.6,0-1.2,0.3-1.5,0.7
	c-0.3,0.3-0.4,0.6-0.6,0.8c-0.1,0.3-0.1,0.6-0.1,0.8v1c0,1.7,0.7,3.3,1.8,4.4c1.1,1.1,2.5,1.7,4,1.8h0.3c1.7,0,3.3-0.7,4.4-1.8
	c1.2-1.2,1.9-2.8,1.9-4.6L501.2,306.5z M500.4,307.5c0,1.5-0.6,2.9-1.7,3.9c-1,1-2.4,1.5-3.9,1.5h-0.1c-1.2,0-2.4-0.6-3.3-1.5
	c-1-1-1.5-2.4-1.5-3.9v-1c0-0.7,0.6-1.2,1.2-1.2h7.9c0.7,0,1.2,0.6,1.2,1.2v1H500.4z"/>
<path class="st16" d="M517.7,306c-0.1-0.3-0.3-0.6-0.4-0.8c-0.4-0.6-1-0.8-1.7-0.8h-7.9c-1,0-1.7,0.6-2.1,1.4
	c-0.1,0.3-0.1,0.6-0.1,0.8v1c0,1.7,0.7,3.3,1.8,4.4c1.1,1.1,2.5,1.7,4,1.8h0.3c1.7,0,3.3-0.7,4.4-1.8c1.2-1.2,1.9-2.8,1.9-4.6v-0.8
	C517.8,306.4,517.8,306.3,517.7,306z M516.9,307.5c0,1.5-0.6,2.9-1.7,3.9c-1,1-2.4,1.5-3.9,1.5h-0.1c-1.2,0-2.4-0.6-3.3-1.5
	c-1-1-1.5-2.4-1.5-3.9v-1c0-0.7,0.6-1.2,1.2-1.2h7.9c0.7,0,1.2,0.6,1.2,1.2v1H516.9z"/>
<path class="st16" d="M500.8,306.7l-0.3-0.8c0,0,1.4-0.4,2.8-0.4c1.5,0,2.5,0.4,2.5,0.6l-0.4,0.8c0,0-0.8-0.4-2.2-0.4
	C502.1,306.3,500.8,306.7,500.8,306.7z"/>
<path class="st17" d="M521.6,553.4c0,0,4.8-1.5,6.1-1.5c1.4,0,10.8,9.4,13.9,9.8c5.5,0.8,6,9.1,2.6,9.7c-9.6,1.7-26.3-1.5-26.3-1.5
	s-2.1-10.7-1.5-14.1C516.9,552.3,519,554.5,521.6,553.4z"/>
<path class="st16" d="M530,562.1c-0.1,0-0.4,0-0.6-0.1c-0.3-0.1-0.4-0.6-0.3-0.8c0-0.1,1.7-2.5,3.6-3.5c2.6-1.2,4.7,0.3,4.7,0.3
	c0.3,0.3,0.3,0.7,0.1,1c-0.3,0.3-0.7,0.3-1,0.1c0,0-1.4-1.1-3.3-0.1c-1.7,0.7-3,2.9-3,2.9C530.3,562,530.2,562.1,530,562.1z"/>
<path class="st16" d="M528.1,560.3c-0.1,0-0.4,0-0.6-0.1c-0.3-0.1-0.4-0.6-0.3-1c0-0.1,1.7-2.5,3.6-3.5c2.6-1.2,4.7,0.3,4.7,0.3
	c0.3,0.3,0.3,0.7,0.1,1c-0.3,0.3-0.7,0.3-1,0.1c0,0-1.4-1.1-3.3-0.1c-1.7,0.7-3,2.9-3,2.9C528.4,560.2,528.2,560.2,528.1,560.3z"/>
<path class="st16" d="M532.7,563.8c-0.1,0-0.4,0-0.6-0.1c-0.3-0.1-0.4-0.6-0.3-1c0-0.1,1.7-2.5,3.6-3.5c2.6-1.2,4.7,0.3,4.7,0.3
	c0.3,0.3,0.3,0.7,0.1,1c-0.3,0.3-0.7,0.3-1,0.1c0,0-1.4-1.1-3.3-0.1c-1.7,0.7-3,2.9-3,2.9C532.9,563.7,532.8,563.7,532.7,563.8z"/>
<path class="st17" d="M560.9,453.1c0,0,2.4-4.4,3.3-5.4c1-1,15.1-1.1,17.7-2.9c4.7-3.3,11.4,2.2,9.4,5c-5.7,8-20.4,17.6-20.4,17.6
	s-9.7-6.1-11.9-8.9C556.6,455.7,559.8,455.9,560.9,453.1z"/>
<path class="st16" d="M573.8,453.4c-0.1,0.1-0.3,0.3-0.4,0.3c-0.4,0.1-0.7-0.1-0.8-0.4c0-0.1-0.8-2.9,0-5c1-2.8,3.6-3.2,3.7-3.2
	c0.4,0,0.7,0.1,0.8,0.6c0,0.4-0.3,0.7-0.6,0.7c-0.1,0-1.8,0.3-2.6,2.2c-0.6,1.7,0.1,4.2,0.1,4.3C574,453,574,453.3,573.8,453.4z"/>
<path class="st16" d="M570.9,453.4c-0.1,0.1-0.3,0.3-0.4,0.3c-0.4,0.1-0.7-0.1-0.8-0.4c0-0.1-0.8-2.9,0-5c1-2.8,3.6-3.2,3.7-3.2
	c0.4,0,0.7,0.1,0.8,0.6c0,0.4-0.3,0.7-0.6,0.7c-0.1,0-1.8,0.3-2.6,2.2c-0.6,1.7,0.1,4.2,0.1,4.3C571,453.1,571,453.3,570.9,453.4z"
	/>
<path class="st16" d="M577,452.6c-0.1,0.1-0.3,0.3-0.4,0.3c-0.4,0.1-0.7-0.1-0.8-0.4c0-0.1-0.8-2.9,0-5c1-2.8,3.6-3.2,3.7-3.2
	c0.4,0,0.7,0.1,0.8,0.6c0,0.4-0.3,0.7-0.6,0.7c-0.1,0-1.8,0.3-2.6,2.2c-0.6,1.7,0.1,4.2,0.1,4.3C577.1,452.3,577,452.4,577,452.6z"
	/>
<path class="st4" d="M430.4,572.9h-25.6c-3.5,0-6.6-2.2-7.6-5.5l-10.9-33.5c-0.4-1.4,0.6-2.8,1.9-2.9c19.8-1.5,39.5-1.5,58.9,0
	c1.4,0.1,2.4,1.5,1.9,2.9L438,567.4C437.1,570.7,433.9,572.9,430.4,572.9z"/>
<path class="st13" d="M417.8,535.1c16,0,29-0.7,29-1.7c0-0.9-13-1.7-29-1.7c-16,0-29,0.7-29,1.7
	C388.9,534.4,401.8,535.1,417.8,535.1z"/>
<path class="st18" d="M418.9,533.5v-41.8c0-0.7-0.6-1.4-1.4-1.4c-0.7,0-1.4,0.6-1.4,1.4v41.8C417.1,534,418.1,534,418.9,533.5z"/>
<path class="st17" d="M417.7,501.5c0,0,2.6-18.6,26.3-18.6C443.9,482.9,439.8,509.2,417.7,501.5z"/>
<path class="st17" d="M418.8,507.1c0,0-2.6-18.6-26.3-18.6C392.5,488.6,396.6,514.9,418.8,507.1z"/>
<path class="st17" d="M419.1,523.6c0,0-6.1-17.7-29.4-13.2C389.7,510.5,398.7,535.4,419.1,523.6z"/>
<path class="st17" d="M417.5,523.5c0,0,17.5,6.8,29-14C446.6,509.5,421.7,500.4,417.5,523.5z"/>
</svg>
