<svg width="371" height="260" viewBox="0 0 371 260" fill="none" xmlns="http://www.w3.org/2000/svg">
<path opacity="0.4" d="M36.6198 87.5539C36.6198 87.4605 36.6198 87.367 36.6198 87.367C36.6198 83.537 33.4437 80.3608 29.6136 80.3608C28.1189 80.3608 26.8111 80.8279 25.6901 81.5752C23.7284 78.1188 19.8983 75.7834 15.6012 75.7834C9.15546 75.7834 4.01758 81.0147 4.01758 87.367C4.01758 87.4605 4.01758 87.5539 4.01758 87.5539H36.6198Z" fill="#EDEDED"/>
<path opacity="0.4" d="M367.313 179.102C367.313 179.008 367.313 178.915 367.313 178.915C367.313 175.085 364.137 171.909 360.307 171.909C358.812 171.909 357.504 172.376 356.383 173.123C354.422 169.667 350.592 167.331 346.295 167.331C339.849 167.331 334.711 172.563 334.711 178.915C334.711 179.008 334.711 179.102 334.711 179.102H367.313Z" fill="#EDEDED"/>
<path d="M186.458 260C281.13 260 357.876 255.19 357.876 249.257C357.876 243.324 281.13 238.514 186.458 238.514C91.7858 238.514 15.0391 243.324 15.0391 249.257C15.0391 255.19 91.7858 260 186.458 260Z" fill="#2B2B2B"/>
<path d="M92.5774 185.641C100.144 193.861 99.5836 206.66 91.4564 214.226C83.7963 206.006 84.3568 193.208 92.5774 185.641Z" fill="#686868"/>
<path d="M62.4043 216.655C69.7842 208.248 82.5822 207.407 90.8962 214.787C83.5163 223.194 70.7183 224.035 62.4043 216.655Z" fill="#686868"/>
<path d="M76.9749 175.365C85.1021 181.717 86.5034 193.394 80.1511 201.428C72.0239 195.169 70.6226 183.492 76.9749 175.365Z" fill="#686868"/>
<path d="M54.1816 208.061C59.5998 199.373 71.09 196.664 79.7777 202.176C74.3595 210.77 62.8693 213.479 54.1816 208.061Z" fill="#686868"/>
<path d="M58.108 170.507C66.4221 173.964 70.3455 183.399 66.8891 191.713C58.6685 188.256 54.745 178.728 58.108 170.507Z" fill="#686868"/>
<path d="M46.6172 203.203C49.1394 194.609 58.2008 189.751 66.7951 192.273C64.1794 200.868 55.2115 205.725 46.6172 203.203Z" fill="#686868"/>
<path d="M42.226 168.265C50.54 169.947 55.9582 177.981 54.2767 186.295C45.9626 184.613 40.5445 176.486 42.226 168.265Z" fill="#686868"/>
<path d="M37.5547 200.681C38.302 192.273 45.7753 186.014 54.1828 186.762C53.4354 195.263 46.0556 201.428 37.5547 200.681Z" fill="#686868"/>
<path d="M28.3996 171.535C35.5926 171.628 41.291 177.607 41.1976 184.8C34.0979 184.707 28.3061 178.728 28.3996 171.535Z" fill="#686868"/>
<path d="M29.5211 199.466C28.8672 192.273 34.192 186.015 41.2916 185.361C41.9455 192.46 36.6208 198.813 29.5211 199.466Z" fill="#686868"/>
<path d="M15.5078 177.981C21.393 176.86 26.998 180.783 28.119 186.669C22.2338 187.79 16.6288 183.866 15.5078 177.981Z" fill="#686868"/>
<path d="M20.9279 200.494C19.2464 194.796 22.5159 188.724 28.2143 187.042C29.9892 192.834 26.7197 198.813 20.9279 200.494Z" fill="#686868"/>
<path d="M7.10156 186.108C11.2119 184.426 15.8827 186.388 17.5642 190.405C13.4539 192.086 8.78305 190.125 7.10156 186.108Z" fill="#686868"/>
<path d="M14.481 201.522C12.3324 197.692 13.8271 192.834 17.6571 190.685C19.8057 194.515 18.4045 199.373 14.481 201.522Z" fill="#686868"/>
<path d="M2.71094 199.56C3.55168 195.263 7.84882 192.46 12.146 193.301C11.3052 197.598 7.1015 200.401 2.71094 199.56Z" fill="#686868"/>
<path d="M94.7253 218.803C92.5767 215.254 90.1479 211.984 87.5323 208.808C84.9166 205.725 82.0207 202.736 79.0314 200.027C75.9487 197.318 72.6791 194.889 69.2227 192.74C68.382 192.273 67.4478 191.713 66.6071 191.246L63.898 189.844L61.0955 188.63C60.1613 188.256 59.1338 187.883 58.1996 187.602C54.3695 186.295 50.3526 185.454 46.2423 184.987C42.132 184.613 38.1151 184.893 34.0048 185.454C25.971 186.762 18.3109 189.844 11.3047 193.861C18.4043 189.938 26.0644 187.042 34.0982 185.828C38.1151 185.36 42.132 185.174 46.1489 185.547C50.1658 186.014 54.0893 186.949 57.9193 188.256C58.8535 188.63 59.7877 188.91 60.7218 189.377L63.4309 190.592L66.14 191.993C66.9807 192.46 67.8215 193.021 68.7556 193.581C72.1186 195.73 75.3882 198.252 78.2841 200.961C81.2734 203.67 83.9825 206.659 86.5981 209.742C89.1203 212.918 91.4557 216.188 93.4175 219.644L94.7253 218.803Z" fill="white"/>
<path d="M347.324 116.606C329.575 113.43 318.365 125.107 322.289 142.763C340.131 145.939 351.341 134.262 347.324 116.606Z" fill="#C4C4C4"/>
<path d="M313.974 151.17L313.787 150.984L344.614 119.596L344.801 119.689L313.974 151.17Z" fill="white"/>
<path d="M333.961 120.442L333.688 120.504L335.556 128.701L335.83 128.639L333.961 120.442Z" fill="white"/>
<path d="M340.317 135.103L330.695 133.982V133.795L340.411 134.916L340.317 135.103Z" fill="white"/>
<path d="M326.304 138.559L324.529 129.591L324.716 129.498L326.491 138.466L326.304 138.559Z" fill="white"/>
<path d="M358.815 215.067C351.902 198.345 336.021 195.263 323.316 208.061C330.136 224.689 346.017 227.865 358.815 215.067Z" fill="#8F8F8F"/>
<path d="M354.797 214.6L311.732 205.539V205.258L354.797 214.32V214.6Z" fill="white"/>
<path d="M342.466 211.797L342.279 211.61L348.165 205.632L348.351 205.819L342.466 211.797Z" fill="white"/>
<path d="M339.383 219.177L335.18 210.303L335.367 210.209L339.57 218.99L339.383 219.177Z" fill="white"/>
<path d="M329.109 209.275L328.922 209.088L335.554 202.736L335.741 202.923L329.109 209.275Z" fill="white"/>
<path d="M27.7461 214.133C46.0557 226.37 64.3652 218.804 68.4755 197.131C50.166 184.893 31.9498 192.554 27.7461 214.133Z" fill="#C4C4C4"/>
<path d="M81.8825 191.893L32.0625 211.977L32.1673 212.237L81.9873 192.153L81.8825 191.893Z" fill="white"/>
<path d="M46.5367 206.361L44.6172 216.456L44.8925 216.508L46.812 206.413L46.5367 206.361Z" fill="white"/>
<path d="M54.7426 203.109L44.4668 197.131L44.5602 196.851L54.836 202.923L54.7426 203.109Z" fill="white"/>
<path d="M59.6006 210.863L59.3203 210.77L61.7491 199.933H62.0294L59.6006 210.863Z" fill="white"/>
<path d="M19.8066 149.769C20.7408 159.671 26.8129 165.65 33.8191 169.013C41.1055 172.376 49.4196 173.123 60.4427 172.282C63.5254 163.221 61.9373 154.533 54.1838 149.489C46.8039 144.444 33.352 142.949 19.8066 149.769Z" fill="#8F8F8F"/>
<path d="M68.2905 183.118C64.0867 176.112 58.2015 169.666 51.1953 164.342C43.6286 158.55 35.0343 154.159 25.5059 151.17L25.5993 150.983C35.1277 153.972 43.8154 158.363 51.3821 164.155C58.4818 169.573 64.2736 175.925 68.5707 183.025L68.2905 183.118Z" fill="white"/>
<path d="M30.0836 162.1L29.9902 161.913C33.6335 160.325 37.4635 158.923 41.2936 157.802L41.387 157.989C37.4635 159.11 33.7269 160.512 30.0836 162.1Z" fill="white"/>
<path d="M49.3275 162.754H49.1406C49.5143 159.297 49.9814 155.747 50.355 152.291H50.5419C50.0748 155.747 49.7011 159.297 49.3275 162.754Z" fill="white"/>
<path d="M44.0036 169.76L43.9102 169.573C47.6468 168.546 51.4769 167.798 55.4003 167.425V167.611C51.5703 167.985 47.7402 168.732 44.0036 169.76Z" fill="white"/>
<path d="M289.871 196.477C289.311 207.967 298.092 217.683 309.582 218.243C310.236 206.846 301.361 197.038 289.871 196.477Z" fill="#686868"/>
<path d="M334.151 201.148C322.848 199.373 312.198 207.127 310.33 218.43C321.727 220.205 332.376 212.451 334.151 201.148Z" fill="#686868"/>
<path d="M295.477 178.167C293.235 188.537 299.868 198.626 310.143 200.868C312.385 190.592 305.753 180.409 295.477 178.167Z" fill="#686868"/>
<path d="M334.994 188.91C324.998 185.641 314.162 191.059 310.893 201.054C320.795 204.417 331.631 198.999 334.994 188.91Z" fill="#686868"/>
<path d="M307.06 161.913C302.763 170.04 305.94 180.129 314.067 184.426C318.364 176.206 315.281 166.117 307.06 161.913Z" fill="#686868"/>
<path d="M337.794 180.129C330.134 174.991 319.765 177.047 314.627 184.707C322.287 189.845 332.656 187.789 337.794 180.129Z" fill="#686868"/>
<path d="M318.175 149.582C312.663 156.308 313.784 166.304 320.51 171.722C326.022 164.996 324.994 155.094 318.175 149.582Z" fill="#686868"/>
<path d="M343.211 172.189C337.046 166.023 327.05 166.023 320.885 172.189C327.05 178.354 337.046 178.354 343.211 172.189Z" fill="#686868"/>
<path d="M331.254 143.23C325.649 148.087 324.995 156.495 329.852 162.1C335.457 157.242 336.111 148.835 331.254 143.23Z" fill="#686868"/>
<path d="M348.816 165.93C344.613 159.858 336.299 158.363 330.227 162.567C334.337 168.546 342.744 170.134 348.816 165.93Z" fill="#686868"/>
<path d="M345.735 139.773C340.41 142.763 338.449 149.582 341.531 155C346.856 151.918 348.724 145.098 345.735 139.773Z" fill="#686868"/>
<path d="M356.289 161.166C353.861 155.468 347.321 152.945 341.623 155.374C344.052 160.979 350.591 163.595 356.289 161.166Z" fill="#686868"/>
<path d="M357.69 140.614C353.393 141.922 350.964 146.593 352.272 150.89C356.663 149.582 359.091 144.911 357.69 140.614Z" fill="#686868"/>
<path d="M361.987 157.616C361.146 153.132 356.756 150.236 352.365 151.17C353.206 155.654 357.597 158.55 361.987 157.616Z" fill="#686868"/>
<path d="M370.023 148.368C366.473 145.565 361.335 146.126 358.439 149.676C361.989 152.478 367.127 151.918 370.023 148.368Z" fill="#686868"/>
<path d="M310.049 224.128C309.395 219.924 309.115 215.721 309.115 211.517C309.115 207.313 309.395 203.109 310.049 198.999C310.703 194.889 311.637 190.778 313.039 186.762C313.412 185.734 313.693 184.8 314.16 183.772L315.374 180.876L316.775 178.074C317.242 177.14 317.803 176.206 318.363 175.365C320.512 171.815 323.128 168.452 326.117 165.463C329.106 162.567 332.469 159.951 336.019 157.803C343.212 153.599 351.339 150.89 359.56 149.489C351.339 151.077 343.399 153.786 336.299 158.176C332.843 160.418 329.48 162.94 326.584 165.93C323.688 168.919 321.166 172.282 319.111 175.832C318.644 176.766 318.083 177.607 317.616 178.541L316.308 181.343L315.094 184.239C314.72 185.173 314.44 186.201 314.066 187.135C312.758 191.059 311.918 195.169 311.357 199.279C310.797 203.39 310.516 207.5 310.61 211.704C310.703 215.814 310.984 220.018 311.731 224.035L310.049 224.128Z" fill="white"/>
<path d="M317.15 60.1831H59.5085C55.6784 60.1831 52.5957 63.2658 52.5957 67.0959V230.014H324.063V67.0025C324.063 63.2658 320.98 60.1831 317.15 60.1831Z" fill="#2B2B2B"/>
<path d="M311.357 72.1404H65.2988V219.271H311.357V72.1404Z" fill="#8CBDFF"/>
<path d="M35.4062 228.519C35.4062 238.608 43.6269 246.829 53.7158 246.829H319.018C329.107 246.829 337.327 238.608 337.327 228.519H35.4062Z" fill="#D8D8D8"/>
<path d="M209.067 233.377H158.342C155.727 233.377 153.578 231.228 153.578 228.613H213.832C213.832 231.228 211.683 233.377 209.067 233.377Z" fill="#2B2B2B"/>
<path d="M311.451 71.5798H65.3926V85.4988H311.451V71.5798Z" fill="#686868"/>
<path d="M311.451 85.4988H65.3926V219.831H311.451V85.4988Z" fill="#EAEAEA"/>
<path d="M207.759 110.908H123.311V212.638H207.759V110.908Z" fill="white"/>
<path d="M207.759 110.721H123.311V195.263H207.759V110.721Z" fill="white"/>
<path opacity="0.7" d="M130.97 123.893C128.167 123.893 125.832 121.558 125.832 118.755C125.832 115.953 128.167 113.617 130.97 113.617C133.772 113.617 136.108 115.953 136.108 118.755C136.108 121.558 133.772 123.893 130.97 123.893Z" fill="#B4B4B4"/>
<path d="M207.759 144.164H123.311V184.146H207.759V144.164Z" fill="#D02E1B"/>
<path d="M136.11 205.072H135.175C134.802 205.072 134.521 205.352 134.521 205.725V207.874C134.521 208.248 134.802 208.528 135.175 208.528H136.11C136.483 208.528 136.763 208.248 136.763 207.874V205.725C136.67 205.352 136.39 205.072 136.11 205.072Z" fill="#B4B4B4"/>
<path d="M140.033 205.539C140.313 205.539 140.5 205.352 140.5 205.072C140.5 204.791 140.313 204.604 140.033 204.604H139.565H138.912H138.725C138.725 204.604 138.725 204.511 138.725 204.231C138.912 203.483 138.631 202.83 137.977 202.643C137.324 202.549 137.417 203.203 137.417 203.203V204.231C137.417 204.324 137.417 204.418 137.324 204.511L136.576 205.539V207.687L137.043 207.967C137.043 207.967 137.791 207.967 138.538 207.967C138.912 207.967 139.285 207.967 139.565 207.967H139.659C139.939 207.967 140.126 207.781 140.126 207.5C140.126 207.22 139.939 207.033 139.659 207.033H139.846C140.126 207.033 140.313 206.846 140.313 206.566C140.313 206.286 140.126 206.099 139.846 206.099H140.033C140.313 206.099 140.5 205.912 140.5 205.632C140.5 205.725 140.313 205.539 140.033 205.539Z" fill="#B4B4B4"/>
<path d="M179.266 203.39H175.529C174.875 203.39 174.408 203.95 174.408 204.511V206.379C174.408 207.033 174.969 207.5 175.529 207.5H176.09V208.901L177.584 207.5H179.266C179.92 207.5 180.387 206.94 180.387 206.379V204.511C180.48 203.95 179.92 203.39 179.266 203.39Z" fill="#B4B4B4"/>
<path d="M203.931 199.373H128.264V199.653H203.931V199.373Z" fill="#EAEAEA"/>
<path d="M140.22 192.554H126.395V193.955H140.22V192.554Z" fill="#EAEAEA"/>
<path d="M155.26 205.445H144.424V206.846H155.26V205.445Z" fill="#EAEAEA"/>
<path d="M148.627 120.063H137.791V121.464H148.627V120.063Z" fill="#EAEAEA"/>
<path d="M199.258 205.445H188.422V206.846H199.258V205.445Z" fill="#EAEAEA"/>
<path d="M201.128 192.554H175.625V193.955H201.128V192.554Z" fill="#EAEAEA"/>
<path d="M203.276 128.003H126.955V132.3H203.276V128.003Z" fill="#EAEAEA"/>
<path d="M168.245 135.103H126.955V139.4H168.245V135.103Z" fill="#EAEAEA"/>
<path d="M149.561 115.112H137.791V118.288H149.561V115.112Z" fill="#EAEAEA"/>
<path d="M207.759 90.2632H123.311V105.49H207.759V90.2632Z" fill="white"/>
<path opacity="0.7" d="M130.598 102.781C127.889 102.781 125.74 100.632 125.74 97.9233C125.74 95.2142 127.889 93.0657 130.598 93.0657C133.307 93.0657 135.456 95.2142 135.456 97.9233C135.456 100.632 133.214 102.781 130.598 102.781Z" fill="#B4B4B4"/>
<path d="M179.827 95.9617H139.752V100.259H179.827V95.9617Z" fill="#E9EAEE"/>
<path d="M179.641 75.2231H97.8086V81.6689H179.641V75.2231Z" fill="white"/>
<path d="M175.903 80.1741L174.875 79.1466C175.155 78.8663 175.342 78.4927 175.342 78.0256C175.342 77.1848 174.595 76.4375 173.754 76.4375C172.913 76.4375 172.166 77.1848 172.166 78.0256C172.166 78.8663 172.913 79.6136 173.754 79.6136C174.128 79.6136 174.408 79.5202 174.688 79.3334L175.716 80.361L175.903 80.1741ZM172.446 78.0256C172.446 77.2782 173.007 76.7178 173.754 76.7178C174.501 76.7178 175.062 77.2782 175.062 78.0256C175.062 78.7729 174.501 79.3334 173.754 79.3334C173.1 79.3334 172.446 78.6795 172.446 78.0256Z" fill="#686868"/>
<path opacity="0.7" d="M92.3909 102.314C89.9621 102.314 88.0938 100.352 88.0938 98.0166C88.0938 95.5878 90.0555 93.7195 92.3909 93.7195C94.8197 93.7195 96.688 95.6812 96.688 98.0166C96.7814 100.352 94.8197 102.314 92.3909 102.314Z" fill="#AEAEAE"/>
<path opacity="0.7" d="M92.3917 139.4C91.0839 139.4 89.9629 138.372 89.9629 136.971C89.9629 135.663 91.0839 134.542 92.3917 134.542C93.6995 134.542 94.8205 135.57 94.8205 136.971C94.8205 138.279 93.6995 139.4 92.3917 139.4Z" fill="#AEAEAE"/>
<path opacity="0.7" d="M118.174 96.7087H100.705V99.4178H118.174V96.7087Z" fill="#AEAEAE"/>
<path opacity="0.7" d="M113.503 136.13H100.705V137.812H113.503V136.13Z" fill="#AEAEAE"/>
<path opacity="0.7" d="M92.3917 148.274C91.0839 148.274 89.9629 147.247 89.9629 145.846C89.9629 144.538 91.0839 143.417 92.3917 143.417C93.6995 143.417 94.8205 144.444 94.8205 145.846C94.8205 147.247 93.6995 148.274 92.3917 148.274Z" fill="#AEAEAE"/>
<path opacity="0.7" d="M113.503 145.005H100.705V146.686H113.503V145.005Z" fill="#AEAEAE"/>
<path opacity="0.7" d="M92.3917 114.458C91.0839 114.458 89.9629 113.43 89.9629 112.029C89.9629 110.721 91.0839 109.6 92.3917 109.6C93.6995 109.6 94.8205 110.628 94.8205 112.029C94.8205 113.337 93.6995 114.458 92.3917 114.458Z" fill="#AEAEAE"/>
<path opacity="0.7" d="M113.503 111.188H100.705V112.87H113.503V111.188Z" fill="#AEAEAE"/>
<path opacity="0.7" d="M92.3917 123.332C91.0839 123.332 89.9629 122.305 89.9629 120.904C89.9629 119.502 91.0839 118.475 92.3917 118.475C93.6995 118.475 94.8205 119.502 94.8205 120.904C94.8205 122.305 93.6995 123.332 92.3917 123.332Z" fill="#AEAEAE"/>
<path opacity="0.7" d="M113.503 120.063H100.705V121.744H113.503V120.063Z" fill="#AEAEAE"/>
<path opacity="0.7" d="M92.3917 157.149C91.0839 157.149 89.9629 156.121 89.9629 154.72C89.9629 153.319 91.0839 152.291 92.3917 152.291C93.6995 152.291 94.8205 153.319 94.8205 154.72C94.8205 156.121 93.6995 157.149 92.3917 157.149Z" fill="#AEAEAE"/>
<path opacity="0.7" d="M113.503 153.973H100.705V155.654H113.503V153.973Z" fill="#AEAEAE"/>
<path opacity="0.7" d="M92.3917 166.117C91.0839 166.117 89.9629 165.09 89.9629 163.688C89.9629 162.287 91.0839 161.26 92.3917 161.26C93.6995 161.26 94.8205 162.287 94.8205 163.688C94.8205 165.09 93.6995 166.117 92.3917 166.117Z" fill="#AEAEAE"/>
<path opacity="0.7" d="M113.503 162.847H100.705V164.529H113.503V162.847Z" fill="#AEAEAE"/>
<path opacity="0.7" d="M92.3917 174.992C91.0839 174.992 89.9629 173.964 89.9629 172.563C89.9629 171.255 91.0839 170.134 92.3917 170.134C93.6995 170.134 94.8205 171.162 94.8205 172.563C94.8205 173.871 93.6995 174.992 92.3917 174.992Z" fill="#AEAEAE"/>
<path opacity="0.7" d="M113.503 171.722H100.705V173.403H113.503V171.722Z" fill="#AEAEAE"/>
<path opacity="0.7" d="M92.3917 183.866C91.0839 183.866 89.9629 182.839 89.9629 181.437C89.9629 180.13 91.0839 179.009 92.3917 179.009C93.6995 179.009 94.8205 180.036 94.8205 181.437C94.8205 182.839 93.6995 183.866 92.3917 183.866Z" fill="#AEAEAE"/>
<path opacity="0.7" d="M113.503 180.596H100.705V182.278H113.503V180.596Z" fill="#AEAEAE"/>
<path opacity="0.7" d="M92.3917 192.834C91.0839 192.834 89.9629 191.806 89.9629 190.405C89.9629 189.097 91.0839 187.976 92.3917 187.976C93.6995 187.976 94.8205 189.004 94.8205 190.405C94.8205 191.713 93.6995 192.834 92.3917 192.834Z" fill="#AEAEAE"/>
<path opacity="0.7" d="M113.503 189.564H100.705V191.246H113.503V189.564Z" fill="#AEAEAE"/>
<path opacity="0.7" d="M92.3917 201.708C91.0839 201.708 89.9629 200.681 89.9629 199.28C89.9629 197.878 91.0839 196.851 92.3917 196.851C93.6995 196.851 94.8205 197.878 94.8205 199.28C94.8205 200.681 93.6995 201.708 92.3917 201.708Z" fill="#AEAEAE"/>
<path opacity="0.7" d="M113.503 198.439H100.705V200.121H113.503V198.439Z" fill="#AEAEAE"/>
<path opacity="0.7" d="M272.778 102.127C270.349 102.127 268.48 100.165 268.48 97.8298C268.48 95.4944 270.442 93.5327 272.778 93.5327C275.206 93.5327 277.075 95.4944 277.075 97.8298C277.075 100.165 275.206 102.127 272.778 102.127Z" fill="#9093AA"/>
<path opacity="0.7" d="M303.885 99.5113C302.857 99.6982 301.923 98.764 302.11 97.7364C302.203 97.1759 302.67 96.7089 303.324 96.522C304.352 96.3352 305.286 97.2694 305.099 98.2969C305.006 98.8574 304.539 99.3245 303.885 99.5113Z" fill="#9093AA"/>
<path opacity="0.7" d="M298.561 96.522H281.092V99.231H298.561V96.522Z" fill="#9093AA"/>
<path opacity="0.7" d="M272.778 116.606C270.349 116.606 268.48 114.645 268.48 112.309C268.48 109.974 270.442 108.012 272.778 108.012C275.206 108.012 277.075 109.974 277.075 112.309C277.075 114.645 275.206 116.606 272.778 116.606Z" fill="#AEAEAE"/>
<path opacity="0.7" d="M303.885 113.991C302.857 114.178 301.923 113.244 302.11 112.216C302.203 111.655 302.67 111.188 303.324 111.002C304.352 110.815 305.286 111.749 305.099 112.776C305.006 113.43 304.539 113.897 303.885 113.991Z" fill="#AEAEAE"/>
<path opacity="0.7" d="M298.561 111.095H281.092V113.804H298.561V111.095Z" fill="#AEAEAE"/>
<path opacity="0.7" d="M272.778 131.18C270.349 131.18 268.48 129.218 268.48 126.882C268.48 124.454 270.442 122.585 272.778 122.585C275.206 122.585 277.075 124.547 277.075 126.882C277.168 129.218 275.206 131.18 272.778 131.18Z" fill="#AEAEAE"/>
<path opacity="0.7" d="M303.885 128.564C302.857 128.751 301.923 127.816 302.11 126.789C302.203 126.228 302.67 125.761 303.324 125.575C304.352 125.388 305.286 126.322 305.099 127.349C305.006 127.91 304.539 128.377 303.885 128.564Z" fill="#AEAEAE"/>
<path opacity="0.7" d="M298.561 125.574H281.092V128.284H298.561V125.574Z" fill="#AEAEAE"/>
<path d="M238.587 90.2632H210.562V115.205H238.587V90.2632Z" fill="white"/>
<path d="M238.587 118.475H210.562V143.417H238.587V118.475Z" fill="#D02E1B"/>
<path d="M238.587 146.78H210.562V171.722H238.587V146.78Z" fill="white"/>
<g opacity="0.7">
<path opacity="0.7" d="M260.259 91.4775H260.072V219.831H260.259V91.4775Z" fill="#9093AA"/>
</g>
<path d="M190.851 81.7623C189.169 81.7623 187.861 80.4545 187.861 78.773C187.861 77.0915 189.169 75.7837 190.851 75.7837C192.532 75.7837 193.84 77.0915 193.84 78.773C193.84 80.4545 192.439 81.7623 190.851 81.7623Z" fill="white"/>
<path d="M208.601 77.9324H196.551V79.8007H208.601V77.9324Z" fill="white"/>
<path d="M224.293 77.9324H212.242V79.8007H224.293V77.9324Z" fill="white"/>
<path d="M95.9402 81.9491C96.127 81.9491 96.3139 81.7623 96.3139 81.5754V75.5968C96.3139 75.41 96.127 75.2231 95.9402 75.2231H89.9616C89.7747 75.2231 89.5879 75.41 89.5879 75.5968V81.5754C89.5879 81.7623 89.7747 81.9491 89.9616 81.9491H95.9402Z" fill="white"/>
<path d="M94.2586 82.0425V79.3335H95.1928L95.2862 78.3059H94.2586V77.652C94.2586 77.3717 94.352 77.1849 94.8191 77.1849H95.3796V76.2507C95.2862 76.2507 94.9125 76.2507 94.5389 76.2507C93.6981 76.2507 93.231 76.7178 93.231 77.652V78.3993H92.2969V79.4269H93.231V82.136H94.2586V82.0425Z" fill="#4F67AF"/>
<path d="M306.407 139.307H265.584V171.162H306.407V139.307Z" fill="#D02E1B"/>
<path opacity="0.7" d="M306.407 176.019H265.584V207.874H306.407V176.019Z" fill="#AEAEAE"/>
<g opacity="0.4">
<path opacity="0.4" d="M130.69 84.5646L134.147 84.0041C137.323 83.537 139.471 80.4543 138.817 77.2781C138.163 74.2888 135.268 72.4205 132.278 72.8876L127.514 73.6349C127.514 73.6349 122.376 74.4756 116.211 75.4098C107.523 76.811 103.693 77.3716 103.132 77.465C102.572 77.5584 103.88 74.6625 105.188 72.0468C106.682 68.9641 107.149 65.5077 106.495 62.1447C105.841 58.6883 104.627 54.2978 102.292 51.215C99.7694 47.7586 96.1262 47.385 93.3237 47.7586C91.2686 48.0389 89.8673 50.094 90.5212 52.0558L93.3237 61.7711C94.071 64.4801 93.4171 67.376 91.4554 69.4312L88.8397 72.1402C86.7846 74.2888 85.4767 76.9979 85.1965 79.9872C84.9163 82.6029 82.9545 84.658 80.4323 85.0317L73.4261 86.1527L72.959 83.2568L62.87 84.8448L62.4964 82.6029L40.1699 86.1527L46.9893 129.311L69.3158 125.761L68.9421 123.519L79.031 121.931L78.6574 119.876L89.6805 118.101L91.6422 119.596C93.9776 121.371 96.8735 122.118 99.7694 121.744L121.442 118.288L122.937 118.008L123.404 117.914L125.646 117.54C127.794 117.167 129.476 115.485 129.663 113.337C129.663 113.057 129.663 112.776 129.663 112.403C129.382 109.787 126.954 107.919 124.338 108.386L125.085 108.292L129.289 107.638C132.278 107.171 134.52 104.462 134.147 101.379C133.773 98.1099 130.784 95.8679 127.607 96.4284L127.981 96.335L132.185 95.6811C135.174 95.214 137.416 92.505 137.042 89.4222C136.762 86.3395 133.866 84.0975 130.69 84.5646Z" fill="#686868"/>
<path opacity="0.4" d="M315.469 94.4665L313.507 94.1863L314.815 84.9381C315.095 82.6961 313.6 80.6409 311.358 80.3607L263.903 73.8215C261.287 73.4479 258.858 75.3162 258.578 77.9319L254.001 111.188C253.627 113.804 255.495 116.232 258.111 116.513L305.566 123.052C307.808 123.332 309.864 121.837 310.144 119.595L311.452 110.347L313.413 110.628L315.469 94.4665Z" fill="#686868"/>
</g>
<path d="M108.365 46.4507L107.711 45.7034C107.711 45.7034 108.178 45.2363 109.206 44.489L109.766 45.2363C108.832 45.9837 108.365 46.4507 108.365 46.4507Z" fill="white"/>
<path d="M112.756 43.0877L112.195 42.3404C113.036 41.6865 114.064 40.9391 115.185 40.1918L115.745 40.9391C114.624 41.6865 113.597 42.4338 112.756 43.0877ZM267.733 41.3128C266.799 40.6589 265.771 40.005 264.65 39.2576L265.118 38.5103C266.239 39.2576 267.266 39.9116 268.2 40.5655L267.733 41.3128ZM118.828 38.884L118.361 38.1367C119.388 37.4827 120.416 36.8288 121.537 36.1749L122.004 37.0157C120.79 37.5762 119.762 38.2301 118.828 38.884ZM261.568 37.3893C260.54 36.8288 259.513 36.1749 258.392 35.521L258.859 34.6803C259.98 35.3342 261.101 35.9881 262.035 36.5486L261.568 37.3893ZM125.087 34.9605L124.62 34.1198C125.647 33.5593 126.768 32.9053 127.889 32.2514L128.356 33.0922C127.142 33.8395 126.114 34.4 125.087 34.9605ZM255.122 33.6527C254.094 33.0922 252.973 32.5317 251.852 31.9712L252.32 31.1304C253.441 31.6909 254.562 32.2514 255.589 32.8119L255.122 33.6527ZM131.532 31.5041L131.065 30.6634C132.186 30.1029 133.214 29.5424 134.428 28.9819L134.802 29.8226C133.681 30.3831 132.653 30.9436 131.532 31.5041ZM248.583 30.2897C247.462 29.7292 246.341 29.2621 245.22 28.7016L245.594 27.8609C246.715 28.4214 247.836 28.8884 248.957 29.4489L248.583 30.2897ZM138.165 28.2345L137.791 27.3938C138.912 26.9267 140.033 26.3662 141.154 25.8991L141.528 26.7399C140.407 27.207 139.286 27.7675 138.165 28.2345ZM241.857 27.3004C240.736 26.8333 239.615 26.3662 238.401 25.8991L238.774 25.0584C239.989 25.5255 241.11 25.9926 242.231 26.4596L241.857 27.3004ZM144.984 25.3386L144.611 24.4979C145.732 24.0308 146.946 23.5637 148.067 23.1901L148.347 24.0308C147.226 24.4979 146.105 24.8716 144.984 25.3386ZM234.944 24.5913C233.823 24.2176 232.609 23.7506 231.488 23.3769L231.768 22.5362C232.982 22.9098 234.103 23.3769 235.224 23.7506L234.944 24.5913ZM151.897 22.8164L151.617 21.9757C152.738 21.602 153.952 21.2283 155.167 20.8547L155.447 21.7888C154.233 22.0691 153.018 22.4427 151.897 22.8164ZM227.938 22.2559C226.817 21.8822 225.603 21.5086 224.388 21.2283L224.668 20.2942C225.883 20.6678 227.097 20.9481 228.218 21.3217L227.938 22.2559ZM158.903 20.6678L158.623 19.7337C159.838 19.4534 160.959 19.0798 162.173 18.7995L162.36 19.7337C161.332 20.0139 160.118 20.3876 158.903 20.6678ZM220.838 20.2942C219.624 20.0139 218.503 19.7337 217.288 19.4534L217.475 18.5193C218.69 18.7995 219.904 19.0798 221.119 19.36L220.838 20.2942ZM166.096 18.8929L165.91 17.9588C167.124 17.6785 168.338 17.4917 169.553 17.2114L169.74 18.1456C168.525 18.4258 167.311 18.7061 166.096 18.8929ZM213.645 18.7061C212.431 18.5193 211.216 18.239 210.002 18.0522L210.189 17.118C211.403 17.3048 212.618 17.4917 213.832 17.7719L213.645 18.7061ZM173.383 17.5851L173.289 16.6509C174.504 16.4641 175.718 16.2773 176.933 16.1839L177.026 17.118C175.812 17.3048 174.597 17.4917 173.383 17.5851ZM206.359 17.4917C205.144 17.3048 203.93 17.2114 202.716 17.0246L202.809 16.0904C204.023 16.1839 205.238 16.3707 206.452 16.5575L206.359 17.4917ZM180.669 16.7444L180.576 15.8102C181.79 15.7168 183.005 15.6234 184.313 15.5299L184.406 16.4641C183.098 16.5575 181.884 16.6509 180.669 16.7444ZM199.072 16.7444C197.858 16.6509 196.644 16.5575 195.429 16.5575V15.6234C196.644 15.7168 197.951 15.7168 199.166 15.8102L199.072 16.7444ZM188.049 16.3707V15.4365C188.703 15.4365 189.357 15.4365 190.011 15.4365H190.665C191.039 15.4365 191.412 15.4365 191.786 15.4365V16.3707C191.412 16.3707 191.039 16.3707 190.758 16.3707H190.104C189.357 16.3707 188.703 16.3707 188.049 16.3707Z" fill="#C3C3C3"/>
<path d="M272.217 44.5824C272.217 44.5824 271.75 44.2088 270.723 43.4614L271.283 42.7141C272.311 43.4614 272.778 43.8351 272.778 43.8351L272.217 44.5824Z" fill="white"/>
<path d="M304.629 71.4301C309.554 66.5051 309.554 58.5203 304.629 53.5953C299.704 48.6704 291.719 48.6704 286.794 53.5953C281.869 58.5203 281.869 66.5051 286.794 71.4301C291.719 76.355 299.704 76.355 304.629 71.4301Z" fill="#D6D6D6"/>
<path d="M303.506 70.3069C307.811 66.0021 307.811 59.0228 303.506 54.718C299.202 50.4133 292.222 50.4133 287.917 54.718C283.613 59.0228 283.613 66.0021 287.917 70.3069C292.222 74.6116 299.202 74.6116 303.506 70.3069Z" fill="#C3C3C3"/>
<path d="M295.755 51.4954C293.887 51.4954 292.205 51.9624 290.617 52.7098C292.018 52.0559 293.607 51.6822 295.381 51.6822C301.453 51.6822 306.405 56.6332 306.405 62.7053C306.405 67.0024 303.976 70.6457 300.426 72.514C304.163 70.7391 306.778 66.909 306.778 62.5185C306.778 56.4464 301.827 51.4954 295.755 51.4954Z" fill="#A0A0A0"/>
<path d="M201.655 20.2754C203.027 11.8216 197.286 3.85616 188.832 2.48416C180.378 1.11215 172.413 6.85312 171.041 15.307C169.669 23.7608 175.41 31.7262 183.864 33.0982C192.318 34.4703 200.283 28.7293 201.655 20.2754Z" fill="#D6D6D6"/>
<path d="M186.366 31.3172C193.847 31.3172 199.911 25.2528 199.911 17.7719C199.911 10.291 193.847 4.22656 186.366 4.22656C178.885 4.22656 172.82 10.291 172.82 17.7719C172.82 25.2528 178.885 31.3172 186.366 31.3172Z" fill="#C3C3C3"/>
<path d="M186.366 4.22656C184.124 4.22656 181.976 4.78707 180.107 5.72123C181.882 4.88048 183.844 4.4134 185.899 4.4134C193.373 4.4134 199.445 10.4854 199.445 17.9587C199.445 23.19 196.455 27.7674 192.158 30.0094C196.736 27.8609 199.912 23.19 199.912 17.7719C199.912 10.2986 193.84 4.22656 186.366 4.22656Z" fill="#C3C3C3"/>
<path d="M188.047 25.1517V28.3279H185.245V25.0583C183.283 24.7781 181.415 23.9373 179.92 22.8163L181.415 19.827C182.909 21.1348 185.245 22.069 186.739 22.069C187.86 22.069 188.608 21.6953 188.608 20.8546C188.608 18.3323 180.854 19.827 180.854 14.6891C180.854 12.3537 182.536 10.7656 185.245 10.2985V7.21582H188.047V10.2985C189.729 10.4854 191.41 11.0459 192.625 11.8866L191.223 14.9694C189.635 14.1286 187.673 13.3813 186.459 13.3813C185.525 13.3813 184.964 13.7549 184.964 14.4089C184.964 16.8377 192.718 15.4364 192.718 20.7612C192.625 23.2834 190.663 24.8715 188.047 25.1517Z" fill="#A0A0A0"/>
<path d="M188.514 25.1517V28.3279H185.711V25.0583C183.75 24.7781 181.881 23.9373 180.387 22.8163L181.881 19.827C183.376 21.1348 185.711 22.069 187.206 22.069C188.327 22.069 189.074 21.6953 189.074 20.8546C189.074 18.3323 181.321 19.827 181.321 14.6891C181.321 12.3537 183.002 10.7656 185.711 10.2985V7.21582H188.514V10.2985C190.195 10.4854 191.877 11.0459 193.091 11.8866L191.69 14.9694C190.102 14.1286 188.14 13.3813 186.926 13.3813C185.992 13.3813 185.431 13.7549 185.431 14.4089C185.431 16.8377 193.185 15.4364 193.185 20.7612C193.185 23.2834 191.223 24.8715 188.514 25.1517Z" fill="#E3E3E3"/>
<path d="M131.251 64.293C130.597 61.3037 127.701 59.4354 124.712 59.9025L119.948 60.6498C119.948 60.6498 114.81 61.4905 108.644 62.4247C99.9565 63.826 96.1265 64.3864 95.566 64.4799C95.0055 64.5733 96.3133 61.6774 97.6211 59.0617C99.1158 55.979 99.5829 52.5226 98.929 49.1596C98.275 45.7032 97.0606 41.3127 94.7252 38.2299C92.203 34.7735 88.5598 34.3999 85.7573 34.7735C83.7021 35.0538 82.3009 37.1089 82.9548 39.0707L85.7573 48.7859C86.5046 51.495 85.8507 54.3909 83.889 56.4461L81.2733 59.1551C79.2182 61.3037 77.9103 64.0128 77.6301 67.0021C77.3498 69.6177 75.3881 71.6729 72.8659 72.0466L61.5625 73.8215L68.195 107.358L82.2075 105.116L84.1692 106.611C86.5046 108.385 89.4005 109.133 92.2964 108.759L117.052 104.836L115.931 105.022L118.173 104.649C120.602 104.275 122.47 102.033 122.19 99.6043C121.909 96.9887 119.481 95.1204 116.865 95.5874L121.816 94.8401C124.805 94.373 127.047 91.664 126.674 88.5812C126.3 85.3117 123.311 83.0697 120.134 83.6302L124.712 82.8828C127.701 82.4158 129.943 79.7067 129.569 76.624C129.196 73.3544 126.206 71.1124 123.03 71.6729L126.487 71.1124C129.756 70.4585 131.905 67.4692 131.251 64.293Z" fill="#C3C3C3"/>
<g opacity="0.4">
<path opacity="0.4" d="M116.862 95.4007L112.658 96.0546C115.274 95.681 117.703 97.4559 117.983 100.072C118.263 102.5 116.395 104.742 113.966 105.116L115.928 104.836L117.049 104.649L118.263 104.462C120.692 104.088 122.56 101.846 122.28 99.4176C121.906 96.802 119.478 95.027 116.862 95.4007Z" fill="white"/>
<path opacity="0.4" d="M120.225 83.4434L116.021 84.0973C119.198 83.6303 122.187 85.8722 122.561 89.0484C122.934 92.0377 120.692 94.7468 117.703 95.3073L121.907 94.6534C124.896 94.1863 127.138 91.4772 126.764 88.3945C126.391 85.2183 123.401 82.9763 120.225 83.4434Z" fill="white"/>
<path opacity="0.4" d="M131.247 64.2932C130.593 61.3039 127.697 59.4355 124.708 59.9026L120.504 60.5565C123.493 60.0895 126.483 61.9578 127.043 64.9471C127.697 68.1232 125.549 71.206 122.372 71.6731L118.916 72.2336C122.092 71.7665 125.081 74.0085 125.455 77.1846C125.829 80.1739 123.587 82.883 120.598 83.4435L124.801 82.7896C127.791 82.3225 130.033 79.6134 129.659 76.5307C129.285 73.2611 126.296 71.0191 123.12 71.5796L126.576 71.0191C129.752 70.4586 131.901 67.4693 131.247 64.2932Z" fill="white"/>
</g>
<path d="M65.3462 70.1722L52.9824 72.1262L59.0924 110.786L71.4562 108.832L65.3462 70.1722Z" fill="#686868"/>
<path d="M54.8384 69.5109L32.5098 73.0398L39.3343 116.221L61.6629 112.692L54.8384 69.5109Z" fill="#2B2B2B"/>
<path d="M66.3235 102.127C66.5104 103.341 65.6696 104.369 64.5486 104.555C63.3342 104.742 62.3067 103.902 62.1198 102.781C61.933 101.566 62.7737 100.539 63.8947 100.352C65.0157 100.165 66.1367 100.912 66.3235 102.127Z" fill="white"/>
<path d="M314.906 112.215L264.274 105.303C261.472 104.929 259.604 102.407 259.977 99.6043L264.835 64.1061C265.208 61.3036 267.731 59.4353 270.533 59.809L321.165 66.7218C323.5 67.002 325.182 69.244 324.901 71.5794L319.857 108.479C319.483 110.908 317.335 112.496 314.906 112.215Z" fill="#686868"/>
<path d="M304.724 78.8659C299.68 78.212 295.103 81.4816 294.449 86.2458C293.795 91.01 297.345 95.4006 302.389 96.1479L323.221 99.0438L325.556 81.8552L304.724 78.8659Z" fill="#2B2B2B"/>
<path d="M305.752 87.9273C305.472 89.889 303.51 91.2903 301.455 91.01C299.307 90.7298 297.812 88.8614 298.092 86.8997C298.373 84.938 300.334 83.5367 302.39 83.817C304.538 84.0972 306.033 85.9655 305.752 87.9273Z" fill="#686868"/>
<path d="M323.501 33.933C323.501 33.8396 323.501 33.7462 323.501 33.6527C323.501 28.4214 319.298 24.2177 314.066 24.2177C312.105 24.2177 310.236 24.8716 308.742 25.8992C306.032 21.2284 300.988 18.0522 295.196 18.0522C286.602 18.0522 279.596 25.0585 279.596 33.6527C279.596 33.7462 279.596 33.8396 279.596 33.933H323.501Z" fill="#EDEDED"/>
<path d="M32.6022 130.339C32.6022 130.245 32.6022 130.152 32.6022 130.152C32.6022 126.322 29.4261 123.146 25.596 123.146C24.1014 123.146 22.7935 123.613 21.6725 124.36C19.7108 120.904 15.8807 118.568 11.5836 118.568C5.13789 118.568 0 123.799 0 130.152C0 130.245 0 130.339 0 130.339H32.6022Z" fill="#EDEDED"/>
<path d="M367.032 92.0378C367.032 91.9443 367.032 91.8509 367.032 91.8509C367.032 88.0209 363.856 84.8447 360.026 84.8447C358.531 84.8447 357.223 85.3118 356.102 86.0591C354.141 82.6027 350.31 80.2673 346.013 80.2673C339.568 80.2673 334.43 85.4986 334.43 91.8509C334.43 91.9443 334.43 92.0378 334.43 92.0378H367.032Z" fill="#EDEDED"/>
<path d="M74.2659 40.0983C74.2659 40.0049 74.2659 39.9115 74.2659 39.818C74.2659 34.0262 69.595 29.3554 63.8032 29.3554C61.6547 29.3554 59.5995 30.0093 57.918 31.1303C54.9287 25.899 49.3237 22.4426 42.9714 22.4426C33.443 22.4426 25.6895 30.1962 25.6895 39.7246C25.6895 39.818 25.6895 39.9114 25.6895 40.0049H74.2659V40.0983Z" fill="#EDEDED"/>
</svg>
