<svg width="289" height="260" viewBox="0 0 289 260" fill="none" xmlns="http://www.w3.org/2000/svg">
<path d="M201.857 256.706H86.2419C83.7548 256.706 81.7383 254.69 81.7383 252.203V22.5854C81.7383 20.0983 83.7548 18.0818 86.2419 18.0818H201.857C204.344 18.0818 206.361 20.0983 206.361 22.5854V252.136C206.361 254.69 204.344 256.706 201.857 256.706Z" fill="#2B2B2B"/>
<path d="M156.484 248.573H131.68C130.269 248.573 129.059 247.43 129.059 245.951V241.986C129.059 240.574 130.201 239.364 131.68 239.364H156.484C157.895 239.364 159.105 240.507 159.105 241.986V245.951C159.038 247.43 157.895 248.573 156.484 248.573Z" fill="#FFFDFF"/>
<path d="M157.962 27.089H130.134C129.529 27.089 129.059 26.6185 129.059 26.0135V24.5347C129.059 23.9298 129.529 23.4592 130.134 23.4592H157.962C158.567 23.4592 159.038 23.9298 159.038 24.5347V26.0135C159.038 26.5513 158.567 27.089 157.962 27.089Z" fill="#FFFDFF"/>
<path d="M125.295 27.0216C126.298 27.0216 127.11 26.2091 127.11 25.2067C127.11 24.2044 126.298 23.3918 125.295 23.3918C124.293 23.3918 123.48 24.2044 123.48 25.2067C123.48 26.2091 124.293 27.0216 125.295 27.0216Z" fill="#FFFDFF"/>
<path d="M162.801 27.0216C163.804 27.0216 164.616 26.2091 164.616 25.2067C164.616 24.2044 163.804 23.3918 162.801 23.3918C161.799 23.3918 160.986 24.2044 160.986 25.2067C160.986 26.2091 161.799 27.0216 162.801 27.0216Z" fill="#FFFDFF"/>
<path d="M202.529 33.6091H84.6953V230.962H202.529V33.6091Z" fill="#FFFDFF"/>
<path d="M190.159 181.893H97.8014C96.5914 181.893 95.6504 180.952 95.6504 179.742V79.7211C95.6504 78.5111 96.5914 77.5701 97.8014 77.5701H190.159C191.369 77.5701 192.31 78.5111 192.31 79.7211V179.742C192.31 180.884 191.369 181.893 190.159 181.893Z" fill="#E6E6E6"/>
<path d="M109.296 69.1678C115.348 69.1678 120.253 64.2624 120.253 58.2112C120.253 52.1601 115.348 47.2546 109.296 47.2546C103.245 47.2546 98.3398 52.1601 98.3398 58.2112C98.3398 64.2624 103.245 69.1678 109.296 69.1678Z" fill="#E6E6E6"/>
<path d="M190.159 55.7242H131.948C130.738 55.7242 129.797 54.7832 129.797 53.5732V52.2289C129.797 51.0189 130.738 50.0779 131.948 50.0779H190.159C191.369 50.0779 192.31 51.0189 192.31 52.2289V53.5732C192.31 54.7832 191.369 55.7242 190.159 55.7242Z" fill="#E6E6E6"/>
<path d="M190.159 66.0084H131.948C130.738 66.0084 129.797 65.0673 129.797 63.8574V62.513C129.797 61.3031 130.738 60.3621 131.948 60.3621H190.159C191.369 60.3621 192.31 61.3031 192.31 62.513V63.8574C192.31 65.0673 191.369 66.0084 190.159 66.0084Z" fill="#E6E6E6"/>
<path d="M190.764 200.109H97.1292C96.3226 200.109 95.6504 199.437 95.6504 198.63V194.059C95.6504 193.253 96.3226 192.581 97.1292 192.581H190.764C191.571 192.581 192.243 193.253 192.243 194.059V198.63C192.31 199.437 191.638 200.109 190.764 200.109Z" fill="#E6E6E6"/>
<path d="M190.764 217.249H97.1292C96.3226 217.249 95.6504 216.577 95.6504 215.771V211.2C95.6504 210.393 96.3226 209.721 97.1292 209.721H190.764C191.571 209.721 192.243 210.393 192.243 211.2V215.771C192.31 216.577 191.638 217.249 190.764 217.249Z" fill="#E6E6E6"/>
<path d="M226.121 35.2224C225.449 34.6174 224.373 34.6174 223.768 35.3568L209.383 51.2203C208.779 51.8925 208.779 52.968 209.518 53.5729C209.854 53.8418 210.257 53.9762 210.661 53.9762C211.131 53.9762 211.602 53.7746 211.938 53.4385L226.322 37.575C226.86 36.9028 226.86 35.8945 226.121 35.2224Z" fill="#202020"/>
<path d="M256.235 61.4374C255.832 60.5635 254.823 60.2274 254.017 60.6308L223.634 74.6121C222.76 75.0155 222.424 76.0237 222.828 76.8303C223.096 77.4353 223.701 77.8386 224.374 77.8386C224.575 77.8386 224.844 77.7714 225.046 77.7042L255.428 63.7228C256.302 63.2523 256.638 62.244 256.235 61.4374Z" fill="#202020"/>
<path d="M253.008 106.272H234.591C233.65 106.272 232.91 107.011 232.91 107.952C232.91 108.893 233.65 109.633 234.591 109.633H253.008C253.949 109.633 254.689 108.893 254.689 107.952C254.689 107.011 253.949 106.272 253.008 106.272Z" fill="#202020"/>
<path d="M142.703 231.029C143.98 207.234 144.854 183.91 147.005 178.129C150.837 167.912 130.201 162.937 121.328 169.256C121.328 169.256 117.631 204.411 114.606 216.779C113.799 220.073 112.455 225.114 110.842 231.029H142.703Z" fill="#B3B3B3"/>
<path d="M176.38 137.73L167.104 145.797L181.825 147.007L172.28 153.527L179.875 159.173L170.599 165.223L176.582 169.928C176.582 169.928 171.406 175.642 168.448 177.053C165.491 178.465 152.517 184.783 144.451 185.321C136.385 185.859 121.597 180.212 122.068 175.843C122.538 171.474 131.142 152.922 135.041 149.426C138.939 145.931 152.047 141.293 157.626 139.68C163.272 137.999 176.38 137.73 176.38 137.73Z" fill="#8E8E8E"/>
<path d="M135.309 137.865C135.309 137.865 145.19 169.861 148.819 176.784C152.449 183.708 165.96 184.447 172.279 184.044C172.816 183.977 180.815 173.424 180.345 171.474C179.874 169.525 166.7 161.324 164.616 157.358C162.599 153.393 157.827 128.051 157.827 128.051L135.309 137.865Z" fill="#0E0E0E"/>
<path d="M188.345 42.012C188.345 42.012 201.318 51.4897 214.896 76.8982C228.474 102.307 229.482 122.069 229.482 122.069L183.572 112.927L188.345 42.012Z" fill="#0E0E0E"/>
<path d="M200.309 100.559C208.996 100.559 216.038 93.5171 216.038 84.8301C216.038 76.1432 208.996 69.1011 200.309 69.1011C191.622 69.1011 184.58 76.1432 184.58 84.8301C184.58 93.5171 191.622 100.559 200.309 100.559Z" fill="#D02E1B"/>
<path d="M211.469 110.172C206.562 104.928 200.915 97.7361 195.471 88.1911C192.984 83.8892 191.101 79.8561 189.623 76.0247L143.578 107.684L154.736 129.463L151.98 124.086L211.469 110.172Z" fill="#B82412"/>
<path d="M185.456 44.9697L140.285 101.366L143.579 107.819L189.623 76.159C182.095 57.0018 185.456 44.9697 185.456 44.9697Z" fill="#E32C17"/>
<path d="M211.471 110.172L151.916 124.086L154.672 129.463L226.461 122.674C226.461 122.674 220.008 119.246 211.471 110.172Z" fill="#D02E1B"/>
<path d="M195.474 88.2584C200.918 97.8034 206.565 104.928 211.472 110.239L216.58 109.029C209.724 101.5 201.86 91.8209 197.759 83.217C196.213 80.0578 194.936 76.6296 193.861 73.1343L189.559 76.0919C191.105 79.8561 193.054 83.9564 195.474 88.2584Z" fill="#202020"/>
<path d="M188.347 42.0122L185.457 44.9026C185.457 44.9026 182.096 57.0019 189.624 76.0918L193.926 73.1342C191.641 65.8075 190.229 58.279 189.423 52.4983C188.549 46.3142 188.347 42.0122 188.347 42.0122Z" fill="#303030"/>
<path d="M226.46 122.674L229.418 122.136C229.418 122.136 226.595 119.582 222.629 115.482C220.814 113.6 218.73 111.449 216.579 109.029L211.471 110.239C220.007 119.246 226.46 122.674 226.46 122.674Z" fill="#191919"/>
<path d="M130.27 114.406L119.314 119.918C119.045 121.599 119.112 123.413 119.381 125.161C120.188 129.598 122.742 133.227 126.237 135.513L137.664 130.471L130.27 114.406Z" fill="#B82412"/>
<path d="M127.446 108.289L128.32 107.819L126.572 108.76C122.673 111.247 119.985 115.28 119.312 119.918L130.269 114.406L127.446 108.289Z" fill="#E32C17"/>
<path d="M137.8 137.865C138.808 137.664 139.749 137.395 140.69 137.059L137.665 130.539L126.238 135.58C129.532 137.664 133.632 138.605 137.8 137.865Z" fill="#D02E1B"/>
<path d="M150.635 121.532L144.518 109.701L143.51 107.752L142.434 108.29L130.268 114.407L137.662 130.472L150.433 124.825L151.912 124.153L150.635 121.532Z" fill="#202020"/>
<path d="M140.217 101.299L128.319 107.819L127.445 108.29L130.268 114.406L142.435 108.29L143.51 107.752L140.217 101.299Z" fill="#2E2E2E"/>
<path d="M151.913 124.153L150.367 124.826L137.596 130.472L140.621 136.992C140.755 136.925 140.957 136.858 141.091 136.79L143.309 135.58L154.669 129.531L151.913 124.153Z" fill="#191919"/>
<path d="M176.985 151.644C176.985 151.644 169.725 153.594 168.045 154.064C166.364 154.535 158.567 158.299 157.962 159.71C157.29 161.122 157.492 164.08 159.844 164.55C162.264 165.021 168.717 163.004 171.07 161.593C173.422 160.181 179.136 160.248 179.808 159.106C180.547 157.963 180.279 154.199 179.741 153.594C179.203 153.056 177.724 151.443 176.985 151.644Z" fill="#A7A7A7"/>
<path d="M161.927 158.232C161.927 158.232 157.759 159.442 157.625 160.047C157.491 160.652 157.087 162.937 158.768 163.609C160.448 164.349 164.481 162.13 164.481 161.727C164.481 161.324 164.078 157.56 161.927 158.232Z" fill="#C8C8C8"/>
<path d="M168.246 142.301C168.246 142.301 162.532 145.595 159.508 147.275C156.483 148.956 158.096 152.451 160.381 153.526C162.667 154.602 173.96 149.426 175.102 149.023C176.312 148.62 181.354 147.746 182.429 146.536C183.504 145.326 182.362 142.234 180.883 141.024C179.404 139.747 178.665 139.343 177.388 139.411C176.043 139.411 170.195 141.158 168.246 142.301Z" fill="#A7A7A7"/>
<path d="M162.265 147.073C162.265 147.073 158.097 148.283 157.963 148.956C157.828 149.628 157.425 151.913 159.106 152.653C160.786 153.392 164.55 150.703 164.55 150.3C164.55 149.897 164.416 146.401 162.265 147.073Z" fill="#C8C8C8"/>
<path d="M171.071 130.202C171.071 130.202 160.988 134.504 159.308 135.714C157.627 136.924 152.183 142.368 152.384 144.049C152.586 145.729 151.914 147.006 155.88 147.275C159.846 147.544 164.618 142.099 169.592 140.419C174.566 138.738 176.516 138.402 176.717 136.856C176.919 135.31 176.785 129.664 171.071 130.202Z" fill="#A7A7A7"/>
<path d="M155.407 140.822C155.407 140.822 151.979 143.444 152.046 144.116C152.113 144.788 152.584 147.208 154.466 147.343C156.348 147.477 159.507 144.519 159.373 144.183C159.238 143.847 157.154 139.344 155.407 140.822Z" fill="#C8C8C8"/>
<path d="M174.833 163.072C174.833 163.072 168.245 164.886 167.103 165.559C165.96 166.298 164.078 167.911 162.733 168.583C161.389 169.188 160.448 170.398 161.187 172.079C161.927 173.759 164.616 174.7 166.968 173.289C169.321 171.877 170.598 171.272 173.018 171.138C175.438 171.003 177.589 169.256 177.79 168.718C177.992 168.18 179.067 163.206 174.833 163.072Z" fill="#A7A7A7"/>
<path d="M164.413 168.18C164.413 168.18 161.724 169.323 161.321 169.659C160.851 169.928 160.447 170.734 160.985 172.079C161.523 173.423 162.934 173.289 164.144 172.549C165.623 171.676 166.295 171.003 166.43 170.869C166.497 170.667 166.228 168.18 164.413 168.18Z" fill="#C8C8C8"/>
<path d="M166.163 140.352C166.163 140.352 156.483 139.007 152.652 137.865C148.82 136.722 145.796 141.158 139.007 144.654C132.15 148.216 126.706 156.081 123.009 163.542C119.244 171.003 122.673 177.187 126.033 178.196C129.394 179.204 142.636 173.423 144.922 164.685C147.207 155.946 144.787 155.946 149.358 151.376C153.929 146.805 160.18 149.359 164.281 146.805C168.247 144.318 167.171 140.486 166.163 140.352Z" fill="#B3B3B3"/>
<path d="M159.575 139.344C159.575 139.344 159.239 141.293 158.836 142.368C158.433 143.444 160.584 144.183 163.407 143.914C166.23 143.645 167.104 142.032 167.305 141.024C167.507 140.016 166.633 140.083 165.827 139.881C164.953 139.814 159.575 139.344 159.575 139.344Z" fill="#C8C8C8"/>
<path d="M240.507 240.507C240.036 240.507 239.633 240.91 239.633 241.381V247.027C239.633 247.498 240.036 247.901 240.507 247.901C240.977 247.901 241.38 247.498 241.38 247.027V241.381C241.38 240.843 240.977 240.507 240.507 240.507Z" fill="#262626"/>
<path d="M240.507 252.606C240.036 252.606 239.633 253.01 239.633 253.48V259.126C239.633 259.597 240.036 260 240.507 260C240.977 260 241.38 259.597 241.38 259.126V253.48C241.38 252.942 240.977 252.606 240.507 252.606Z" fill="#262626"/>
<path d="M237.28 249.38H231.634C231.163 249.38 230.76 249.783 230.76 250.253C230.76 250.724 231.163 251.127 231.634 251.127H237.28C237.75 251.127 238.154 250.724 238.154 250.253C238.154 249.716 237.75 249.38 237.28 249.38Z" fill="#262626"/>
<path d="M249.38 249.38H243.733C243.263 249.38 242.859 249.783 242.859 250.253C242.859 250.724 243.263 251.127 243.733 251.127H249.38C249.85 251.127 250.253 250.724 250.253 250.253C250.253 249.716 249.85 249.38 249.38 249.38Z" fill="#262626"/>
<path d="M59.1512 236.541C58.6806 236.541 58.2773 236.944 58.2773 237.415V243.061C58.2773 243.531 58.6806 243.935 59.1512 243.935C59.6217 243.935 60.025 243.531 60.025 243.061V237.415C60.025 236.944 59.6217 236.541 59.1512 236.541Z" fill="#262626"/>
<path d="M59.1512 248.64C58.6806 248.64 58.2773 249.043 58.2773 249.514V255.16C58.2773 255.631 58.6806 256.034 59.1512 256.034C59.6217 256.034 60.025 255.631 60.025 255.16V249.514C60.025 249.043 59.6217 248.64 59.1512 248.64Z" fill="#262626"/>
<path d="M55.9245 245.414H50.2781C49.8076 245.414 49.4043 245.817 49.4043 246.287C49.4043 246.758 49.8076 247.161 50.2781 247.161H55.9245C56.395 247.161 56.7983 246.758 56.7983 246.287C56.7983 245.817 56.395 245.414 55.9245 245.414Z" fill="#262626"/>
<path d="M68.0241 245.414H62.3777C61.9072 245.414 61.5039 245.817 61.5039 246.287C61.5039 246.758 61.9072 247.161 62.3777 247.161H68.0241C68.4946 247.161 68.8979 246.758 68.8979 246.287C68.8979 245.817 68.4946 245.414 68.0241 245.414Z" fill="#262626"/>
<path d="M258.186 135.042C257.716 135.042 257.312 135.445 257.312 135.915V141.562C257.312 142.032 257.716 142.436 258.186 142.436C258.657 142.436 259.06 142.032 259.06 141.562V135.915C258.993 135.445 258.657 135.042 258.186 135.042Z" fill="#262626"/>
<path d="M258.186 147.141C257.716 147.141 257.312 147.544 257.312 148.015V153.661C257.312 154.132 257.716 154.535 258.186 154.535C258.657 154.535 259.06 154.132 259.06 153.661V148.015C258.993 147.544 258.657 147.141 258.186 147.141Z" fill="#262626"/>
<path d="M254.96 143.914H249.313C248.843 143.914 248.439 144.318 248.439 144.788C248.439 145.259 248.843 145.662 249.313 145.662H254.96C255.43 145.662 255.833 145.259 255.833 144.788C255.766 144.318 255.43 143.914 254.96 143.914Z" fill="#262626"/>
<path d="M267.059 143.914H261.413C260.942 143.914 260.539 144.318 260.539 144.788C260.539 145.259 260.942 145.662 261.413 145.662H267.059C267.53 145.662 267.933 145.259 267.933 144.788C267.866 144.318 267.53 143.914 267.059 143.914Z" fill="#262626"/>
<path d="M30.2469 0.940918C29.7764 0.940918 29.373 1.34423 29.373 1.81475V7.46108C29.373 7.93161 29.7764 8.33492 30.2469 8.33492C30.7174 8.33492 31.1207 7.93161 31.1207 7.46108V1.81475C31.1207 1.27701 30.7174 0.940918 30.2469 0.940918Z" fill="#262626"/>
<path d="M30.2469 13.0403C29.7764 13.0403 29.373 13.4436 29.373 13.9141V19.5604C29.373 20.031 29.7764 20.4343 30.2469 20.4343C30.7174 20.4343 31.1207 20.031 31.1207 19.5604V13.9141C31.1207 13.3764 30.7174 13.0403 30.2469 13.0403Z" fill="#262626"/>
<path d="M27.0202 9.81372H21.3738C20.9033 9.81372 20.5 10.217 20.5 10.6876C20.5 11.1581 20.9033 11.5614 21.3738 11.5614H27.0202C27.4907 11.5614 27.894 11.1581 27.894 10.6876C27.894 10.1498 27.4907 9.81372 27.0202 9.81372Z" fill="#262626"/>
<path d="M39.1198 9.81372H33.4734C33.0029 9.81372 32.5996 10.217 32.5996 10.6876C32.5996 11.1581 33.0029 11.5614 33.4734 11.5614H39.1198C39.5903 11.5614 39.9936 11.1581 39.9936 10.6876C39.9936 10.1498 39.5903 9.81372 39.1198 9.81372Z" fill="#262626"/>
<path d="M18.0145 134.235C17.5439 134.235 17.1406 134.638 17.1406 135.109V140.755C17.1406 141.226 17.5439 141.629 18.0145 141.629C18.485 141.629 18.8883 141.226 18.8883 140.755V135.109C18.8883 134.638 18.485 134.235 18.0145 134.235Z" fill="#262626"/>
<path d="M18.0145 146.334C17.5439 146.334 17.1406 146.738 17.1406 147.208V152.854C17.1406 153.325 17.5439 153.728 18.0145 153.728C18.485 153.728 18.8883 153.325 18.8883 152.854V147.208C18.8883 146.738 18.485 146.334 18.0145 146.334Z" fill="#262626"/>
<path d="M14.7877 143.108H9.14141C8.67089 143.108 8.26758 143.511 8.26758 143.982C8.26758 144.452 8.67089 144.855 9.14141 144.855H14.7877C15.2583 144.855 15.6616 144.452 15.6616 143.982C15.6616 143.511 15.2583 143.108 14.7877 143.108Z" fill="#262626"/>
<path d="M26.8874 143.108H21.241C20.7705 143.108 20.3672 143.511 20.3672 143.982C20.3672 144.452 20.7705 144.855 21.241 144.855H26.8874C27.3579 144.855 27.7612 144.452 27.7612 143.982C27.7612 143.511 27.3579 143.108 26.8874 143.108Z" fill="#262626"/>
<path d="M277.813 222.089C277.477 222.089 277.275 222.358 277.275 222.627V226.324C277.275 226.66 277.544 226.862 277.813 226.862C278.082 226.862 278.351 226.593 278.351 226.324V222.627C278.351 222.358 278.082 222.089 277.813 222.089Z" fill="#262626"/>
<path d="M277.813 230.088C277.477 230.088 277.275 230.357 277.275 230.626V234.323C277.275 234.659 277.544 234.86 277.813 234.86C278.082 234.86 278.351 234.592 278.351 234.323V230.626C278.351 230.29 278.082 230.088 277.813 230.088Z" fill="#262626"/>
<path d="M275.662 227.937H271.965C271.629 227.937 271.428 228.206 271.428 228.475C271.428 228.811 271.697 229.013 271.965 229.013H275.662C275.999 229.013 276.2 228.744 276.2 228.475C276.267 228.206 275.999 227.937 275.662 227.937Z" fill="#262626"/>
<path d="M283.594 227.937H279.897C279.561 227.937 279.359 228.206 279.359 228.475C279.359 228.811 279.628 229.013 279.897 229.013H283.594C283.93 229.013 284.132 228.744 284.132 228.475C284.199 228.206 283.93 227.937 283.594 227.937Z" fill="#262626"/>
<path d="M224.846 0C224.51 0 224.309 0.268872 224.309 0.537745V4.23475C224.309 4.57084 224.577 4.77249 224.846 4.77249C225.115 4.77249 225.384 4.50362 225.384 4.23475V0.537745C225.451 0.268872 225.182 0 224.846 0Z" fill="#262626"/>
<path d="M224.846 7.93188C224.51 7.93188 224.309 8.20075 224.309 8.46963V12.1666C224.309 12.5027 224.577 12.7044 224.846 12.7044C225.115 12.7044 225.384 12.4355 225.384 12.1666V8.46963C225.451 8.20075 225.182 7.93188 224.846 7.93188Z" fill="#262626"/>
<path d="M222.762 5.8479H219.065C218.729 5.8479 218.527 6.11678 218.527 6.38565C218.527 6.72174 218.796 6.9234 219.065 6.9234H222.762C223.098 6.9234 223.3 6.65452 223.3 6.38565C223.3 6.11678 223.031 5.8479 222.762 5.8479Z" fill="#262626"/>
<path d="M230.694 5.8479H226.997C226.661 5.8479 226.459 6.11678 226.459 6.38565C226.459 6.72174 226.728 6.9234 226.997 6.9234H230.694C231.03 6.9234 231.231 6.65452 231.231 6.38565C231.231 6.11678 231.03 5.8479 230.694 5.8479Z" fill="#262626"/>
<path d="M281.778 104.121C281.442 104.121 281.24 104.39 281.24 104.659V108.356C281.24 108.692 281.509 108.894 281.778 108.894C282.047 108.894 282.316 108.625 282.316 108.356V104.659C282.316 104.39 282.047 104.121 281.778 104.121Z" fill="#262626"/>
<path d="M281.778 112.053C281.442 112.053 281.24 112.322 281.24 112.591V116.288C281.24 116.624 281.509 116.825 281.778 116.825C282.047 116.825 282.316 116.557 282.316 116.288V112.591C282.316 112.322 282.047 112.053 281.778 112.053Z" fill="#262626"/>
<path d="M279.627 109.969H275.93C275.594 109.969 275.393 110.238 275.393 110.507C275.393 110.843 275.661 111.044 275.93 111.044H279.627C279.963 111.044 280.165 110.776 280.165 110.507C280.232 110.171 279.963 109.969 279.627 109.969Z" fill="#262626"/>
<path d="M287.626 109.969H283.862C283.526 109.969 283.324 110.238 283.324 110.507C283.324 110.843 283.593 111.044 283.862 111.044H287.559C287.895 111.044 288.097 110.776 288.097 110.507C288.164 110.171 287.895 109.969 287.626 109.969Z" fill="#262626"/>
<path d="M11.6315 96.3909C11.2954 96.3909 11.0938 96.6597 11.0938 96.9286V100.626C11.0938 100.962 11.3626 101.163 11.6315 101.163C11.9004 101.163 12.1692 100.894 12.1692 100.626V96.9286C12.1692 96.6597 11.9676 96.3909 11.6315 96.3909Z" fill="#262626"/>
<path d="M11.6315 104.39C11.2954 104.39 11.0938 104.659 11.0938 104.927V108.624C11.0938 108.96 11.3626 109.162 11.6315 109.162C11.9004 109.162 12.1692 108.893 12.1692 108.624V104.927C12.1692 104.591 11.9676 104.39 11.6315 104.39Z" fill="#262626"/>
<path d="M9.48084 102.239H5.78384C5.44775 102.239 5.24609 102.508 5.24609 102.777C5.24609 103.113 5.51497 103.314 5.78384 103.314H9.48084C9.81693 103.314 10.0186 103.045 10.0186 102.777C10.0858 102.508 9.81693 102.239 9.48084 102.239Z" fill="#262626"/>
<path d="M17.4808 102.239H13.7838C13.4477 102.239 13.2461 102.508 13.2461 102.777C13.2461 103.113 13.515 103.314 13.7838 103.314H17.4808C17.8169 103.314 18.0186 103.045 18.0186 102.777C18.0186 102.508 17.7497 102.239 17.4808 102.239Z" fill="#262626"/>
<path d="M6.319 224.038C5.9829 224.038 5.78125 224.307 5.78125 224.576V228.273C5.78125 228.609 6.05012 228.811 6.319 228.811C6.58787 228.811 6.85674 228.542 6.85674 228.273V224.576C6.92396 224.307 6.65509 224.038 6.319 224.038Z" fill="#262626"/>
<path d="M6.319 231.97C5.9829 231.97 5.78125 232.239 5.78125 232.508V236.205C5.78125 236.541 6.05012 236.742 6.319 236.742C6.58787 236.742 6.85674 236.474 6.85674 236.205V232.508C6.92396 232.239 6.65509 231.97 6.319 231.97Z" fill="#262626"/>
<path d="M4.23475 229.886H0.537745C0.201654 229.886 0 230.155 0 230.424C0 230.76 0.268872 230.962 0.537745 230.962H4.23475C4.57084 230.962 4.77249 230.693 4.77249 230.424C4.77249 230.088 4.50362 229.886 4.23475 229.886Z" fill="#262626"/>
<path d="M12.1664 229.886H8.46939C8.13329 229.886 7.93164 230.155 7.93164 230.424C7.93164 230.76 8.20051 230.962 8.46939 230.962H12.1664C12.5025 230.962 12.7041 230.693 12.7041 230.424C12.7041 230.088 12.5025 229.886 12.1664 229.886Z" fill="#262626"/>
<path d="M265.512 72.0579C265.176 72.0579 264.975 72.3267 264.975 72.5956V76.2926C264.975 76.6287 265.243 76.8304 265.512 76.8304C265.781 76.8304 266.05 76.5615 266.05 76.2926V72.5956C266.117 72.3267 265.848 72.0579 265.512 72.0579Z" fill="#262626"/>
<path d="M265.512 79.9897C265.176 79.9897 264.975 80.2586 264.975 80.5275V84.2245C264.975 84.5606 265.243 84.7622 265.512 84.7622C265.781 84.7622 266.05 84.4934 266.05 84.2245V80.5275C266.117 80.2586 265.848 79.9897 265.512 79.9897Z" fill="#262626"/>
<path d="M263.428 77.9058H259.731C259.395 77.9058 259.193 78.1746 259.193 78.4435C259.193 78.7796 259.462 78.9813 259.731 78.9813H263.428C263.764 78.9813 263.966 78.7124 263.966 78.4435C263.966 78.1746 263.697 77.9058 263.428 77.9058Z" fill="#262626"/>
<path d="M271.36 77.9058H267.663C267.327 77.9058 267.125 78.1746 267.125 78.4435C267.125 78.7796 267.394 78.9813 267.663 78.9813H271.36C271.696 78.9813 271.897 78.7124 271.897 78.4435C271.965 78.1746 271.696 77.9058 271.36 77.9058Z" fill="#262626"/>
<path d="M59.288 126.034C59.288 128.118 58.4814 129.799 56.9354 131.21C55.3894 132.555 53.1711 133.428 50.4152 133.764C50.4152 133.764 50.4152 136.05 50.4152 137.596C50.4152 138.403 49.743 139.075 48.9364 139.075C48.1298 139.075 47.4576 138.403 47.4576 137.596V133.966C45.7771 133.966 44.0967 133.832 42.4835 133.563C41.3407 133.361 40.3325 133.16 39.4586 132.823C38.8537 132.622 38.5176 132.084 38.5176 131.479V131.009C38.5176 130 39.5259 129.328 40.4669 129.597C41.2063 129.866 42.0129 130.067 42.8868 130.269C44.5672 130.605 46.046 130.807 47.3904 130.807V120.724C44.2311 119.716 42.0801 118.573 40.803 117.229C39.5259 115.884 38.9209 114.204 38.9209 112.12C38.9209 110.104 39.7275 108.49 41.2735 107.213C42.8195 105.936 44.9033 105.13 47.4576 104.861V102.172C47.4576 101.365 48.1298 100.693 48.9364 100.693C49.743 100.693 50.4152 101.365 50.4152 102.172V104.793C52.7006 104.861 54.9188 105.264 57.0698 105.936C57.8764 106.205 58.2797 107.079 57.9436 107.885L57.8092 108.154C57.5403 108.894 56.6665 109.23 55.9943 109.028C54.1122 108.423 52.2301 108.02 50.348 107.885C50.348 107.885 50.348 116.893 50.348 117.767C50.348 117.834 50.348 117.834 50.4152 117.834C52.7678 118.573 54.5827 119.313 55.7254 120.052C56.9354 120.791 57.8092 121.598 58.347 122.539C59.0191 123.547 59.288 124.69 59.288 126.034ZM42.8195 112.255C42.8195 113.33 43.1556 114.271 43.8278 114.943C44.5 115.616 45.7099 116.288 47.3904 116.96V108.087C45.105 108.423 43.6934 109.364 43.0212 110.776C42.8868 111.179 42.8195 111.717 42.8195 112.255ZM55.3894 126.37C55.3894 125.295 55.0533 124.354 54.3811 123.682C53.7089 123.01 52.3645 122.337 50.4152 121.665V130.605C53.7089 130.135 55.3894 128.723 55.3894 126.37Z" fill="#D02E1B"/>
<path d="M268.47 32.8027C268.47 34.8865 267.663 36.5669 266.117 37.9785C264.571 39.3229 262.353 40.1967 259.597 40.5328C259.597 40.5328 259.597 42.8182 259.597 44.3642C259.597 45.1708 258.925 45.843 258.118 45.843C257.311 45.843 256.639 45.1708 256.639 44.3642V40.7344C254.959 40.7344 253.278 40.6 251.665 40.3311C250.522 40.1295 249.514 39.9278 248.64 39.5917C248.035 39.3901 247.699 38.8523 247.699 38.2474V37.7768C247.699 36.7686 248.707 36.0964 249.649 36.3653C250.388 36.6341 251.195 36.8358 252.068 37.0374C253.749 37.3735 255.228 37.5752 256.572 37.5752V27.4925C253.413 26.4842 251.262 25.3415 249.985 23.9971C248.707 22.6527 248.103 20.9723 248.103 18.8885C248.103 16.872 248.909 15.2587 250.455 13.9816C252.001 12.7044 254.085 11.8978 256.639 11.629V8.94023C256.639 8.13361 257.311 7.46143 258.118 7.46143C258.925 7.46143 259.597 8.13361 259.597 8.94023V11.5617C261.882 11.629 264.1 12.0323 266.251 12.7044C267.058 12.9733 267.461 13.8472 267.125 14.6538L266.991 14.9226C266.722 15.662 265.848 15.9981 265.176 15.7965C263.294 15.1915 261.412 14.7882 259.53 14.6538C259.53 14.6538 259.53 23.661 259.53 24.5349C259.53 24.6021 259.53 24.6021 259.597 24.6021C261.949 25.3415 263.764 26.0809 264.907 26.8203C266.117 27.5597 266.991 28.3663 267.529 29.3073C268.134 30.3156 268.47 31.4583 268.47 32.8027ZM252.001 19.023C252.001 20.0985 252.337 21.0395 253.009 21.7117C253.682 22.3839 254.892 23.0561 256.572 23.7282V14.8554C254.287 15.1915 252.875 16.1326 252.203 17.5442C252.068 17.9475 252.001 18.4852 252.001 19.023ZM264.571 33.1388C264.571 32.0633 264.235 31.1222 263.563 30.4501C262.891 29.7779 261.546 29.1057 259.597 28.4335V37.3735C262.891 36.903 264.571 35.4914 264.571 33.1388Z" fill="#D02E1B"/>
<path d="M65.0681 61.1014L27.4259 72.8646C24.9388 73.6712 22.2501 72.2596 21.5107 69.7725L13.579 44.364C12.7723 41.877 14.1839 39.1882 16.671 38.4488L54.3132 26.6856C56.8003 25.879 59.489 27.2906 60.2284 29.7777L68.1601 55.1862C68.8995 57.6732 67.5552 60.2947 65.0681 61.1014Z" fill="#D02E1B"/>
<path d="M46.2478 66.9493L41.7441 68.3609L48.6676 74.7467L50.6842 65.605L46.2478 66.9493Z" fill="#D02E1B"/>
<path d="M53.0362 41.0032C49.4064 32.6009 38.2482 38.7177 38.6515 42.6836C36.7694 39.1883 24.0651 40.5326 25.88 49.4727C27.6949 58.4127 44.6339 61.908 44.6339 61.908C44.6339 61.908 56.666 49.4054 53.0362 41.0032Z" fill="#EBEBEB"/>
<path d="M264.974 211.603L227.13 200.579C224.643 199.84 223.164 197.218 223.904 194.731L231.365 169.188C232.104 166.701 234.726 165.222 237.213 165.962L275.057 176.986C277.544 177.725 279.023 180.347 278.283 182.834L270.822 208.377C270.083 210.864 267.461 212.342 264.974 211.603Z" fill="#D02E1B"/>
<path d="M246.018 206.091L241.582 204.747L243.733 213.889L250.522 207.368L246.018 206.091Z" fill="#D02E1B"/>
<path d="M266.051 188.211C267.664 179.271 254.96 178.128 253.145 181.691C253.481 177.725 242.188 171.81 238.76 180.279C235.332 188.749 247.566 200.983 247.566 200.983C247.566 200.983 264.438 197.218 266.051 188.211Z" fill="#EBEBEB"/>
<path d="M62.3788 192.782C62.3788 178.666 50.9517 167.239 36.8359 167.239C22.7201 167.239 11.293 178.666 11.293 192.782C11.293 206.898 22.7201 218.325 36.8359 218.325C38.7852 218.325 40.7345 218.123 42.5494 217.652L52.1616 222.963V213.149C58.3457 208.578 62.3788 201.184 62.3788 192.782Z" fill="#D02E1B"/>
<path d="M26.0119 205.217L22.9199 205.284C21.7099 205.284 20.7017 204.343 20.7017 203.133L20.5 191.37C20.5 190.16 21.4411 189.152 22.651 189.152L25.743 189.085C26.953 189.085 27.9612 190.026 27.9612 191.236L28.1629 202.999C28.1629 204.209 27.2218 205.217 26.0119 205.217Z" fill="white"/>
<path d="M29.7091 190.631L30.6502 189.69C30.7174 189.622 30.7846 189.555 30.7846 189.488C31.3896 188.412 35.7588 180.346 35.9604 179.472C36.1621 178.733 35.826 175.372 35.6243 173.826C35.5571 173.356 35.8932 172.952 36.3637 172.818C37.1031 172.683 38.2459 172.818 39.1197 174.364C40.4641 176.851 40.4641 177.187 40.4641 178.733C40.4641 179.876 40.0607 182.766 39.8591 184.312C39.7919 184.85 40.1952 185.32 40.8001 185.32C43.4217 185.253 50.0763 185.119 50.614 185.119C51.219 185.119 52.8322 185.858 52.8322 187.203C52.8322 188.076 52.4289 188.681 51.9584 189.219C51.5551 189.622 51.6223 190.295 52.0928 190.631C52.5633 190.967 53.1011 191.437 53.1683 191.975C53.37 193.118 52.9666 194.529 51.7567 194.933C51.219 195.134 51.0173 195.807 51.2862 196.277C51.5551 196.68 51.7567 197.218 51.7567 197.823C51.6895 199.167 50.8157 199.84 50.009 200.041C50.009 200.041 50.009 200.041 49.9418 200.041C49.4041 200.176 49.1352 200.713 49.3369 201.251C49.5385 201.654 49.6729 202.192 49.5385 202.663C49.2696 203.738 48.7991 204.679 47.7908 204.747C46.7153 204.747 34.28 205.083 33.2045 205.015C32.3979 204.948 30.8518 204.074 30.0452 203.671C29.7764 203.537 29.5747 203.201 29.5747 202.932L29.373 191.303C29.373 191.034 29.5075 190.765 29.7091 190.631Z" fill="white"/>
</svg>
