<?xml version="1.0" encoding="utf-8"?>
<!-- Generator: Adobe Illustrator 24.0.0, SVG Export Plug-In . SVG Version: 6.00 Build 0)  -->
<svg version="1.1" id="Layer_1" xmlns="http://www.w3.org/2000/svg" xmlns:xlink="http://www.w3.org/1999/xlink" x="0px" y="0px"
	 viewBox="0 0 592 585" style="enable-background:new 0 0 592 585;" xml:space="preserve">
<style type="text/css">
	.st0{fill:#E0E0E0;}
	.st1{fill:#818181;}
	.st2{fill:#474747;}
	.st3{fill:#5C5C5C;}
	.st4{display:none;}
	.st5{display:inline;fill:#818181;}
	.st6{display:inline;fill:#9C9C9C;}
	.st7{display:inline;fill:#616161;}
	.st8{display:inline;fill:#8D8D8D;}
	.st9{display:inline;fill:#FFF9FF;}
	.st10{display:inline;fill:#FFFFFF;}
</style>
<g>
	<path class="st0" d="M381.8,168.4c-0.3,0.3-0.7,0.4-1.1,0.3c-0.1,0-0.3-0.1-0.4-0.1c-0.4-0.4-0.6-1-0.1-1.4c1.4-1.5,2.8-3,4.3-4.6
		c0.4-0.4,1.1-0.4,1.5,0c0.4,0.4,0.4,1,0,1.4C384.6,165.4,383.2,166.9,381.8,168.4z"/>
	<g>
		<g>
			<path class="st0" d="M112.4,121.2H26c0,0,3.7-24.4,14.4-23.4c2.9,0.3,5,3.2,6.2,6.5c0.8,1.9,3.6,1.8,4.3-0.3
				c2.8-9.8,8.6-24.9,17.6-24.9c9.3,0,9.6,17.3,8.9,27.7c-0.1,1.5,1.9,2.4,2.9,1c2.5-3.6,6-7.1,10.4-6.1c3.7,0.8,5.4,4.7,6,8.7
				c0.1,1.2,1.9,1.4,2.4,0.3c2.2-6,6.2-14.7,10.5-14.8C116,95.6,112.4,121.2,112.4,121.2z"/>
			<path class="st0" d="M590.4,229.8h-86.2c0,0,3.7-24.4,14.4-23.4c2.9,0.3,5,3.2,6.2,6.5c0.8,1.9,3.6,1.8,4.3-0.3
				c2.8-9.8,8.6-24.9,17.6-24.9c9.3,0,9.6,17.3,8.9,27.7c-0.1,1.5,1.9,2.4,2.9,1c2.5-3.6,6-7.1,10.4-6.1c3.7,0.8,5.4,4.7,6,8.7
				c0.1,1.2,1.9,1.4,2.4,0.3c2.2-6,6.2-14.7,10.5-14.8C594,204.2,590.4,229.8,590.4,229.8z"/>
			<path class="st0" d="M513.8,91.7h-86.2c0,0,3.7-24.4,14.4-23.4c2.9,0.3,5,3.2,6.2,6.5c0.8,1.9,3.6,1.8,4.3-0.3
				c2.8-9.8,8.6-24.9,17.6-24.9c9.3,0,9.6,17.3,8.9,27.7c-0.1,1.5,1.9,2.4,2.9,1c2.5-3.6,6-7.1,10.4-6.1c3.7,0.8,5.4,4.7,6,8.7
				c0.1,1.2,1.9,1.4,2.4,0.3c2.2-6,6.2-14.7,10.5-14.8C517.4,66.1,513.8,91.7,513.8,91.7z"/>
			<path class="st0" d="M29.6,393.4c4.2-9.8,3.9-20.9-0.6-30.8c-4.2-9.6-11.2-19.8-20.9-16.2c-17,6.2-4.2,49.9,8.9,55.6
				C23,404.6,27,399.6,29.6,393.4z"/>
			<path class="st0" d="M545.5,525.7c10.5-1.8,19.7-8,25.6-17c5.7-8.7,10.7-20.1,2.4-26.5c-14.5-10.9-44.2,23.4-42,37.4
				C532.7,526.3,538.9,527,545.5,525.7z"/>
			<path class="st0" d="M258.1,137.9c-2.6-7.2-8.2-13-15.2-16.1c-6.9-3-15.5-5-19,1.7c-6,11.6,22,28.4,31.7,25.1
				C260,147.1,259.8,142.5,258.1,137.9z"/>
		</g>
		<path class="st0" d="M433.9,136.8c0.1,0,0.4,0,0.6,0c1.9-0.4,3-0.7,3-0.7c0.6-0.1,1-0.7,0.8-1.2c-0.1-0.6-0.7-1-1.2-0.8
			c0,0-1.2,0.1-3.2,0.7c-0.6,0.1-1,0.7-0.8,1.2C433.2,136.4,433.5,136.7,433.9,136.8z"/>
		<path class="st0" d="M371.1,183.3c-1,1.7-1.9,3.5-2.9,5.3c-0.3,0.4-0.7,0.7-1.2,0.6h-0.1c-0.6-0.3-0.8-0.8-0.6-1.4
			c1-1.8,1.9-3.6,2.9-5.4c0.3-0.6,1-0.7,1.5-0.4C371.3,182.1,371.4,182.7,371.1,183.3z"/>
		<path class="st0" d="M374.3,178.1c-0.3,0.4-0.7,0.6-1.2,0.4c-0.1,0-0.3,0-0.3-0.1c-0.6-0.3-0.7-1-0.3-1.4c1.1-1.7,2.4-3.5,3.6-5
			c0.4-0.4,1-0.6,1.5-0.3c0.4,0.3,0.6,1,0.3,1.4C376.7,174.8,375.6,176.5,374.3,178.1z"/>
		<path class="st0" d="M428.4,138.5c-1.9,0.7-4,1.4-6,2.1c-0.3,0.1-0.4,0.1-0.7,0c-0.3-0.1-0.6-0.3-0.7-0.6c-0.3-0.6,0-1.1,0.6-1.4
			c2.1-0.8,4-1.5,6.1-2.2c0.6-0.1,1.2,0.1,1.4,0.7C429.2,137.8,428.9,138.4,428.4,138.5z"/>
		<path class="st0" d="M411,145.8c-0.3,0.1-0.6,0.1-0.8,0.1s-0.6-0.3-0.7-0.6c-0.3-0.6-0.1-1.1,0.4-1.4c1.9-1,3.9-1.9,5.7-2.8
			c0.6-0.3,1.2,0,1.4,0.4c0.3,0.6,0,1.1-0.6,1.4C414.8,143.9,412.8,144.9,411,145.8z"/>
		<path class="st0" d="M390.5,159.8c-0.3,0.3-0.7,0.3-1,0.3c-0.1,0-0.4-0.1-0.6-0.3c-0.4-0.4-0.4-1.1,0-1.4c1.5-1.4,3.2-2.8,4.8-4
			c0.4-0.4,1.1-0.3,1.5,0.1c0.4,0.4,0.3,1.1-0.1,1.4C393.7,157.1,392.1,158.5,390.5,159.8z"/>
		<path class="st0" d="M400.2,152.2c-0.3,0.1-0.6,0.3-1,0.1c-0.3,0-0.4-0.1-0.6-0.4c-0.4-0.4-0.3-1.1,0.3-1.4
			c1.8-1.2,3.6-2.4,5.4-3.5c0.6-0.3,1.1-0.1,1.5,0.3c0.3,0.4,0.1,1.1-0.3,1.4C403.7,149.9,402,151.1,400.2,152.2z"/>
		<path class="st1" d="M435,129.9l-2.2-16.9l57.2,8.2L435,129.9z"/>
		<path class="st2" d="M490,121.2l-52.9,13h-0.1l-2.6,3l0.7-7.3L490,121.2z"/>
		<path class="st3" d="M434.3,137.3h4.8l-2.2-3L434.3,137.3z"/>
		<path class="st1" d="M443.7,132.7l-6.8,1.5l10.9,15.5l42.1-28.5L443.7,132.7z"/>
	</g>
</g>
<g class="st4">
	<path class="st5" d="M477.8,249.1c0-4,3.3-7.3,7.3-7.3c4,0,7.3,3.3,7.3,7.3c0,4-3.3,7.3-7.3,7.3C481,256.4,477.8,253.1,477.8,249.1
		z M480,249.1c0,2.8,2.2,5,5,5c2.8,0,5-2.2,5-5c0-2.8-2.2-5-5-5C482.4,244.1,480,246.3,480,249.1z"/>
	<path class="st6" d="M484.7,206.5c0-4,3.3-7.3,7.3-7.3c4,0,7.3,3.3,7.3,7.3c0,4-3.3,7.3-7.3,7.3
		C488.1,213.9,484.7,210.7,484.7,206.5z M486.9,206.5c0,2.8,2.2,5,5,5c2.8,0,5-2.2,5-5c0-2.8-2.2-5-5-5
		C489.3,201.5,486.9,203.8,486.9,206.5z"/>
	<path class="st7" d="M458,218c0.7,0,1.1-0.6,1.1-1.1v-5.1c0-0.7-0.6-1.1-1.1-1.1c-0.7,0-1.1,0.6-1.1,1.1v5.1
		C456.9,217.5,457.4,218,458,218z"/>
	<path class="st7" d="M458,226.9c0.7,0,1.1-0.6,1.1-1.1v-5.1c0-0.7-0.6-1.1-1.1-1.1c-0.7,0-1.1,0.6-1.1,1.1v5.1
		C456.9,226.3,457.4,226.9,458,226.9z"/>
	<path class="st7" d="M450.9,219.8h4.6c0.7,0,1.1-0.6,1.1-1.1c0-0.7-0.6-1.1-1.1-1.1h-4.6c-0.7,0-1.1,0.6-1.1,1.1
		C449.8,219.4,450.2,219.8,450.9,219.8z"/>
	<path class="st7" d="M460.6,219.8h4.6c0.7,0,1.1-0.6,1.1-1.1c0-0.7-0.6-1.1-1.1-1.1h-4.6c-0.7,0-1.1,0.6-1.1,1.1
		C459.5,219.4,459.9,219.8,460.6,219.8z"/>
	<path class="st5" d="M469.8,178.3c0.7,0,1.1-0.6,1.1-1.1V172c0-0.7-0.6-1.1-1.1-1.1c-0.7,0-1.1,0.6-1.1,1.1v5.1
		C468.7,177.7,469.1,178.3,469.8,178.3z"/>
	<path class="st5" d="M469.8,187.1c0.7,0,1.1-0.6,1.1-1.1v-5.1c0-0.7-0.6-1.1-1.1-1.1c-0.7,0-1.1,0.6-1.1,1.1v5.1
		C468.7,186.6,469.1,187.1,469.8,187.1z"/>
	<path class="st5" d="M462.6,180.2h4.6c0.7,0,1.1-0.6,1.1-1.1c0-0.7-0.6-1.1-1.1-1.1h-4.6c-0.7,0-1.1,0.6-1.1,1.1
		S462,180.2,462.6,180.2z"/>
	<path class="st5" d="M472.3,180.2h4.6c0.7,0,1.1-0.6,1.1-1.1c0-0.7-0.6-1.1-1.1-1.1h-4.6c-0.7,0-1.1,0.6-1.1,1.1
		S471.7,180.2,472.3,180.2z"/>
	<path class="st8" d="M17,311.1c-4,0-7.3-3.3-7.3-7.3c0-4,3.3-7.3,7.3-7.3s7.3,3.3,7.3,7.3C24.4,307.8,21.1,311.1,17,311.1z
		 M17,298.6c-2.8,0-5,2.2-5,5c0,2.8,2.2,5,5,5s5-2.2,5-5C22.2,301,19.8,298.6,17,298.6z"/>
	<path class="st6" d="M12.1,270.8c-4,0-7.3-3.3-7.3-7.3c0-4,3.3-7.3,7.3-7.3c4,0,7.3,3.3,7.3,7.3C19.4,267.5,16.1,270.8,12.1,270.8z
		 M12.1,258.3c-2.8,0-5,2.2-5,5s2.2,5,5,5c2.8,0,5-2.2,5-5S14.8,258.3,12.1,258.3z"/>
	<path class="st7" d="M46.4,272.3c-0.7,0-1.1-0.6-1.1-1.1v-5.1c0-0.7,0.6-1.1,1.1-1.1c0.7,0,1.1,0.6,1.1,1.1v5.1
		C47.5,271.8,47.1,272.3,46.4,272.3z"/>
	<path class="st7" d="M46.4,281.2c-0.7,0-1.1-0.6-1.1-1.1V275c0-0.7,0.6-1.1,1.1-1.1c0.7,0,1.1,0.6,1.1,1.1v5.1
		C47.5,280.6,47.1,281.2,46.4,281.2z"/>
	<path class="st7" d="M53.6,274.3H49c-0.7,0-1.1-0.6-1.1-1.1c0-0.7,0.6-1.1,1.1-1.1h4.6c0.7,0,1.1,0.6,1.1,1.1
		C54.7,273.7,54.2,274.3,53.6,274.3z"/>
	<path class="st7" d="M43.9,274.3h-4.6c-0.7,0-1.1-0.6-1.1-1.1c0-0.7,0.6-1.1,1.1-1.1h4.6c0.7,0,1.1,0.6,1.1,1.1
		C45,273.7,44.5,274.3,43.9,274.3z"/>
	<path class="st8" d="M41.6,232.4c-0.7,0-1.1-0.6-1.1-1.1v-5.1c0-0.7,0.6-1.1,1.1-1.1c0.7,0,1.1,0.6,1.1,1.1v5.1
		C42.7,231.9,42.3,232.4,41.6,232.4z"/>
	<path class="st8" d="M41.6,241.3c-0.7,0-1.1-0.6-1.1-1.1v-5.1c0-0.7,0.6-1.1,1.1-1.1c0.7,0,1.1,0.6,1.1,1.1v5.1
		C42.7,240.7,42.3,241.3,41.6,241.3z"/>
	<path class="st8" d="M48.8,234.2h-4.6c-0.7,0-1.1-0.6-1.1-1.1c0-0.7,0.6-1.1,1.1-1.1h4.6c0.7,0,1.1,0.6,1.1,1.1
		C49.9,233.8,49.3,234.2,48.8,234.2z"/>
	<path class="st8" d="M39.1,234.2h-4.6c-0.7,0-1.1-0.6-1.1-1.1c0-0.7,0.6-1.1,1.1-1.1h4.6c0.7,0,1.1,0.6,1.1,1.1
		C40.2,233.8,39.6,234.2,39.1,234.2z"/>
	<path class="st5" d="M210.4,107.6h-26.3c-3.6,0-6.5-2.9-6.5-6.5V82.7c0-3.6,2.9-6.5,6.5-6.5h26.3c3.6,0,6.5,2.9,6.5,6.5v18.4
		C216.9,104.6,214,107.6,210.4,107.6z"/>
	<path class="st9" d="M197.1,81c-6,0-10.8,4.8-10.8,10.8c0,6,4.8,10.8,10.8,10.8s10.8-4.8,10.8-10.8C207.9,85.9,203.1,81,197.1,81z
		 M197.7,95.8v-3.7h4.8c0,1.4-0.3,2.6-0.6,3.7H197.7z M200.7,100.1c0.8-1,1.4-2.2,1.9-3.5h3.3c-1.4,2.5-3.7,4.2-6.5,4.8
		C199.9,101.1,200.3,100.7,200.7,100.1z M201.6,96.7c-0.4,1.1-1,2.1-1.7,2.9c-1,1.4-2.1,1.9-2.4,2.2v-5.1H201.6z M197.7,86.6V82
		c0.1,0,0.3,0,0.4,0c0.6,0.4,2.2,2.1,3.3,4.6H197.7z M202.4,86.6c-0.4-1-0.8-1.8-1.5-2.6c-0.4-0.6-0.8-1.1-1.4-1.7
		c2.5,0.6,4.7,2.2,6.1,4.3H202.4z M197.7,91.1v-3.7h4.2c0.4,1.2,0.7,2.5,0.7,3.7H197.7z M203.4,91.1c0-1.2-0.3-2.5-0.7-3.7h3.5
		c0.6,1.2,1,2.5,1,3.7H203.4z M207.1,92c0,1.2-0.3,2.6-0.8,3.7h-3.5c0.3-1.2,0.6-2.5,0.6-3.7H207.1z M191.6,95.8H188
		c-0.6-1.2-0.8-2.5-0.8-3.7h3.9C191.2,93.3,191.3,94.6,191.6,95.8z M193.1,86.6c0.3-0.7,0.7-1.5,1.2-2.1c1-1.2,1.8-2.1,2.2-2.5
		c0.1,0,0.1,0,0.3,0v4.6H193.1z M196.7,87.4v3.7H192c0-1.2,0.3-2.5,0.7-3.7H196.7z M188.8,86.6c1.4-2.2,3.6-3.7,6.2-4.4
		c-0.6,0.6-1,1.1-1.4,1.7c-0.6,0.8-1.1,1.7-1.5,2.6h-3.3V86.6z M196.7,92v3.7h-4.2c-0.4-1.1-0.6-2.5-0.6-3.7H196.7z M187.3,91.1
		c0.1-1.4,0.4-2.6,1-3.7h3.5c-0.4,1.2-0.7,2.5-0.7,3.7H187.3z M191.9,96.7c0.4,1.2,1.1,2.5,1.9,3.5c0.4,0.6,0.8,1,1.4,1.4
		c-2.8-0.6-5.3-2.4-6.6-4.8H191.9z M196.7,96.7v5c-0.7-0.4-2.8-1.9-3.9-5H196.7z"/>
	<path class="st5" d="M576.7,290.2h-26.3c-3.6,0-6.5-2.9-6.5-6.5v-18.4c0-3.6,2.9-6.5,6.5-6.5h26.3c3.6,0,6.5,2.9,6.5,6.5v18.4
		C583.2,287.3,580.3,290.2,576.7,290.2z"/>
	<path class="st9" d="M560.9,276.3c-2.9-2.8-3.2-7.3-0.4-10.4c2.8-2.9,7.3-3.2,10.4-0.4c2.9,2.8,3.2,7.3,0.4,10.4
		C568.5,278.8,564,279.1,560.9,276.3z M569.2,267.3c-1.9-1.8-5.1-1.7-6.9,0.3c-1.8,1.9-1.7,5.1,0.3,6.9c1.9,1.8,5.1,1.7,6.9-0.3
		C571.3,272.3,571.2,269.1,569.2,267.3z"/>
	<path class="st9" d="M552.9,285.1c-0.6-0.4-0.6-1.2,0-1.7l8.2-8.7c0.4-0.6,1.2-0.6,1.7,0c0.6,0.4,0.6,1.2,0,1.7l-8.2,8.7
		C554.1,285.5,553.3,285.6,552.9,285.1z"/>
	<path class="st5" d="M26.5,170.1V191c0,2.8,2.2,5,5,5h38.1l11.5,4.2c1.2,0.4,2.4-0.7,1.8-1.9L78.5,187v-16.9c0-2.8-2.2-5-5-5H31.4
		C28.7,165.1,26.5,167.3,26.5,170.1z"/>
	<path class="st10" d="M59.4,181.2c0,1.9,1.7,3.6,3.6,3.6s3.6-1.7,3.6-3.6c0-1.9-1.7-3.6-3.6-3.6S59.4,179.2,59.4,181.2z"/>
	<path class="st10" d="M47.9,181.2c0,1.9,1.7,3.6,3.6,3.6s3.6-1.7,3.6-3.6c0-1.9-1.7-3.6-3.6-3.6S47.9,179.2,47.9,181.2z"/>
	<path class="st10" d="M36.4,181.2c0,1.9,1.7,3.6,3.6,3.6c1.9,0,3.6-1.7,3.6-3.6c0-1.9-1.7-3.6-3.6-3.6
		C38.1,177.6,36.4,179.2,36.4,181.2z"/>
</g>
</svg>
