<?xml version="1.0" encoding="utf-8"?>
<!-- Generator: Adobe Illustrator 24.0.0, SVG Export Plug-In . SVG Version: 6.00 Build 0)  -->
<svg version="1.1" id="Layer_1" xmlns="http://www.w3.org/2000/svg" xmlns:xlink="http://www.w3.org/1999/xlink" x="0px" y="0px"
	 viewBox="0 0 1920 747" style="enable-background:new 0 0 1920 747;" xml:space="preserve">
<style type="text/css">
	.st0{fill:#D02E1B;}
	.st1{fill:url(#SVGID_1_);}
	.st2{fill:url(#SVGID_2_);}
	.st3{fill:url(#SVGID_3_);}
	.st4{fill:url(#SVGID_4_);}
	.st5{fill:url(#SVGID_5_);}
	.st6{fill:url(#SVGID_6_);}
	.st7{fill:url(#SVGID_7_);}
	.st8{fill:url(#SVGID_8_);}
	.st9{fill:url(#SVGID_9_);}
	.st10{fill:url(#SVGID_10_);}
	.st11{fill:url(#SVGID_11_);}
	.st12{fill:url(#SVGID_12_);}
	.st13{fill:url(#SVGID_13_);}
	.st14{fill:url(#SVGID_14_);}
	.st15{fill:url(#SVGID_15_);}
	.st16{fill:url(#SVGID_16_);}
	.st17{fill:url(#SVGID_17_);}
	.st18{fill:url(#SVGID_18_);}
	.st19{fill:url(#SVGID_19_);}
	.st20{fill:url(#SVGID_20_);}
	.st21{fill:url(#SVGID_21_);}
	.st22{fill:url(#SVGID_22_);}
	.st23{fill:url(#SVGID_23_);}
	.st24{fill:url(#SVGID_24_);}
	.st25{fill:url(#SVGID_25_);}
	.st26{fill:url(#SVGID_26_);}
	.st27{fill:url(#SVGID_27_);}
	.st28{fill:url(#SVGID_28_);}
	.st29{fill:url(#SVGID_29_);}
	.st30{fill:url(#SVGID_30_);}
	.st31{fill:url(#SVGID_31_);}
	.st32{fill:url(#SVGID_32_);}
	.st33{fill:url(#SVGID_33_);}
	.st34{fill:url(#SVGID_34_);}
	.st35{fill:url(#SVGID_35_);}
	.st36{fill:url(#SVGID_36_);}
	.st37{fill:none;stroke:#FFFFFF;stroke-width:0.75;stroke-miterlimit:10;}
	.st38{fill:url(#SVGID_37_);}
	.st39{fill:url(#SVGID_38_);}
	.st40{fill:url(#SVGID_39_);}
	.st41{fill:url(#SVGID_40_);}
	.st42{fill:url(#SVGID_41_);}
	.st43{fill:url(#SVGID_42_);}
	.st44{fill:url(#SVGID_43_);}
	.st45{fill:url(#SVGID_44_);}
</style>
<path class="st0" d="M456,437c-2.2,2.1-5.6,2.1-7.8,0c-2.2-2.1-2.2-5.4,0-7.5c2.2-2.1,5.6-2.1,7.8,0
	C458.2,431.6,458.2,434.9,456,437z"/>
<linearGradient id="SVGID_1_" gradientUnits="userSpaceOnUse" x1="802.7457" y1="334.1551" x2="934.1237" y2="400.6951" gradientTransform="matrix(1 0 0 -1 0 748)">
	<stop  offset="4.146620e-02" style="stop-color:#D8D9DD"/>
	<stop  offset="1" style="stop-color:#ECEEF0"/>
</linearGradient>
<path class="st1" d="M854,347.8l-36.7,82.1l134.1-51.3L854,347.8z"/>
<linearGradient id="SVGID_2_" gradientUnits="userSpaceOnUse" x1="952.9835" y1="357.6489" x2="827.7306" y2="218.4299" gradientTransform="matrix(1 0 0 -1 0 748)">
	<stop  offset="3.763440e-02" style="stop-color:#BCBEC5"/>
	<stop  offset="1" style="stop-color:#ECEEF0"/>
</linearGradient>
<path class="st2" d="M951.4,378.6l-48.7,178.9l-85.4-127.6L951.4,378.6z"/>
<linearGradient id="SVGID_3_" gradientUnits="userSpaceOnUse" x1="853.99" y1="427.515" x2="951.352" y2="427.515" gradientTransform="matrix(1 0 0 -1 0 748)">
	<stop  offset="0" style="stop-color:#ECEEF0"/>
	<stop  offset="0.9624" style="stop-color:#BCBEC5"/>
</linearGradient>
<path class="st3" d="M854,347.8v-85.5l97.4,116.3L854,347.8z"/>
<linearGradient id="SVGID_4_" gradientUnits="userSpaceOnUse" x1="853.99" y1="427.515" x2="1013.007" y2="427.515" gradientTransform="matrix(1 0 0 -1 0 748)">
	<stop  offset="0" style="stop-color:#F6F6F7"/>
	<stop  offset="0.4462" style="stop-color:#ECEEF0"/>
	<stop  offset="0.9624" style="stop-color:#BCBEC5"/>
</linearGradient>
<path class="st4" d="M951.4,378.6l61.7-39.8l-159-76.5L951.4,378.6z"/>
<linearGradient id="SVGID_5_" gradientUnits="userSpaceOnUse" x1="1021.2498" y1="425.239" x2="970.9048" y2="339.661" gradientTransform="matrix(1 0 0 -1 0 748)">
	<stop  offset="0" style="stop-color:#BCBEC5"/>
	<stop  offset="1" style="stop-color:#ECEEF0"/>
</linearGradient>
<path class="st5" d="M951.4,378.6l52.6,36.5l9.1-76.3L951.4,378.6z"/>
<linearGradient id="SVGID_6_" gradientUnits="userSpaceOnUse" x1="1003.936" y1="371.0295" x2="1085.338" y2="371.0295" gradientTransform="matrix(1 0 0 -1 0 748)">
	<stop  offset="0" style="stop-color:#F6F6F7"/>
	<stop  offset="0.4462" style="stop-color:#ECEEF0"/>
	<stop  offset="0.9624" style="stop-color:#D8D9DD"/>
</linearGradient>
<path class="st6" d="M1003.9,415.1l81.4-55.8l-72.3-20.5L1003.9,415.1z"/>
<linearGradient id="SVGID_7_" gradientUnits="userSpaceOnUse" x1="1047.2986" y1="389.2959" x2="1062.1316" y2="465.6189" gradientTransform="matrix(1 0 0 -1 0 748)">
	<stop  offset="3.763440e-02" style="stop-color:#D8D9DD"/>
	<stop  offset="0.5538" style="stop-color:#ECEEF0"/>
	<stop  offset="1" style="stop-color:#F6F6F7"/>
</linearGradient>
<path class="st7" d="M1013,338.8l72.3-112.9v133.4L1013,338.8z"/>
<linearGradient id="SVGID_8_" gradientUnits="userSpaceOnUse" x1="892.6094" y1="194.8318" x2="794.1913" y2="292.8038" gradientTransform="matrix(1 0 0 -1 0 748)">
	<stop  offset="0" style="stop-color:#BCBEC5"/>
	<stop  offset="0.2417" style="stop-color:#CBCDD2"/>
	<stop  offset="0.7107" style="stop-color:#E3E5E8"/>
	<stop  offset="1" style="stop-color:#ECEEF0"/>
</linearGradient>
<path class="st8" d="M817.3,429.9l-32.7,63.9l118.1,63.8L817.3,429.9z"/>
<linearGradient id="SVGID_9_" gradientUnits="userSpaceOnUse" x1="711.7568" y1="386.869" x2="820.7488" y2="263.692" gradientTransform="matrix(1 0 0 -1 0 748)">
	<stop  offset="3.763440e-02" style="stop-color:#D8D9DD"/>
	<stop  offset="0.5538" style="stop-color:#ECEEF0"/>
	<stop  offset="1" style="stop-color:#F6F6F7"/>
</linearGradient>
<path class="st9" d="M817.3,429.9l-79.5-75.2l46.7,139.1L817.3,429.9z"/>
<linearGradient id="SVGID_10_" gradientUnits="userSpaceOnUse" x1="737.799" y1="359.115" x2="853.99" y2="359.115" gradientTransform="matrix(1 0 0 -1 0 748)">
	<stop  offset="0" style="stop-color:#F6F6F7"/>
	<stop  offset="0.4462" style="stop-color:#ECEEF0"/>
	<stop  offset="0.9624" style="stop-color:#D8D9DD"/>
</linearGradient>
<path class="st10" d="M737.8,354.7l116.2-6.8l-36.7,82.1L737.8,354.7z"/>
<linearGradient id="SVGID_11_" gradientUnits="userSpaceOnUse" x1="654.675" y1="323.7565" x2="784.529" y2="323.7565" gradientTransform="matrix(1 0 0 -1 0 748)">
	<stop  offset="0" style="stop-color:#F6F6F7"/>
	<stop  offset="0.4462" style="stop-color:#ECEEF0"/>
	<stop  offset="0.9624" style="stop-color:#D8D9DD"/>
</linearGradient>
<path class="st11" d="M737.8,354.7l-83.1,126.5l129.9,12.6L737.8,354.7z"/>
<linearGradient id="SVGID_12_" gradientUnits="userSpaceOnUse" x1="737.799" y1="419.5165" x2="853.99" y2="419.5165" gradientTransform="matrix(1 0 0 -1 0 748)">
	<stop  offset="0" style="stop-color:#ECEEF0"/>
	<stop  offset="0.9624" style="stop-color:#BCBEC5"/>
</linearGradient>
<path class="st12" d="M737.8,302.3v52.4l116.2-6.8L737.8,302.3z"/>
<linearGradient id="SVGID_13_" gradientUnits="userSpaceOnUse" x1="885.1408" y1="402.4278" x2="724.7538" y2="516.1118" gradientTransform="matrix(1 0 0 -1 0 748)">
	<stop  offset="3.763440e-02" style="stop-color:#BCBEC5"/>
	<stop  offset="0.5538" style="stop-color:#ECEEF0"/>
	<stop  offset="1" style="stop-color:#F6F6F7"/>
</linearGradient>
<path class="st13" d="M854,262.3v85.5l-116.2-45.6L854,262.3z"/>
<linearGradient id="SVGID_14_" gradientUnits="userSpaceOnUse" x1="795.8945" y1="445.718" x2="795.8945" y2="522.061" gradientTransform="matrix(1 0 0 -1 0 748)">
	<stop  offset="0" style="stop-color:#ECEEF0"/>
	<stop  offset="1" style="stop-color:#FFFFFF"/>
</linearGradient>
<path class="st14" d="M737.8,302.3l58.1-76.3l58.1,36.4L737.8,302.3z"/>
<linearGradient id="SVGID_15_" gradientUnits="userSpaceOnUse" x1="829.7075" y1="485.655" x2="829.7075" y2="541.478" gradientTransform="matrix(1 0 0 -1 0 748)">
	<stop  offset="3.763440e-02" style="stop-color:#D8D9DD"/>
	<stop  offset="0.5538" style="stop-color:#ECEEF0"/>
	<stop  offset="1" style="stop-color:#F6F6F7"/>
</linearGradient>
<path class="st15" d="M863.5,206.5l-9.5,55.8l-58.1-36.4L863.5,206.5z"/>
<linearGradient id="SVGID_16_" gradientUnits="userSpaceOnUse" x1="840.5775" y1="517.4045" x2="787.2554" y2="587.8715" gradientTransform="matrix(1 0 0 -1 0 748)">
	<stop  offset="0" style="stop-color:#ECEEF0"/>
	<stop  offset="5.138550e-02" style="stop-color:#EEF0F1"/>
	<stop  offset="0.542" style="stop-color:#FBFBFC"/>
	<stop  offset="1" style="stop-color:#FFFFFF"/>
</linearGradient>
<path class="st16" d="M801.4,165.5l-5.5,60.5l67.6-19.4L801.4,165.5z"/>
<linearGradient id="SVGID_17_" gradientUnits="userSpaceOnUse" x1="762.4009" y1="409.7044" x2="615.3719" y2="468.3445" gradientTransform="matrix(1 0 0 -1 0 748)">
	<stop  offset="0" style="stop-color:#ECEEF0"/>
	<stop  offset="5.138550e-02" style="stop-color:#EEF0F1"/>
	<stop  offset="0.542" style="stop-color:#FBFBFC"/>
	<stop  offset="1" style="stop-color:#FFFFFF"/>
</linearGradient>
<path class="st17" d="M737.8,302.3L645.3,276l92.5,78.7V302.3z"/>
<linearGradient id="SVGID_18_" gradientUnits="userSpaceOnUse" x1="784.528" y1="210.8965" x2="902.671" y2="210.8965" gradientTransform="matrix(1 0 0 -1 0 748)">
	<stop  offset="0" style="stop-color:#F6F6F7"/>
	<stop  offset="0.4462" style="stop-color:#ECEEF0"/>
	<stop  offset="0.9624" style="stop-color:#D8D9DD"/>
</linearGradient>
<path class="st18" d="M784.5,493.8l59,86.6l59.1-22.8L784.5,493.8z"/>
<linearGradient id="SVGID_19_" gradientUnits="userSpaceOnUse" x1="968.9808" y1="506.2297" x2="1000.3978" y2="397.2427" gradientTransform="matrix(1 0 0 -1 0 748)">
	<stop  offset="3.763440e-02" style="stop-color:#BCBEC5"/>
	<stop  offset="0.5538" style="stop-color:#ECEEF0"/>
	<stop  offset="1" style="stop-color:#F6F6F7"/>
</linearGradient>
<path class="st19" d="M854,262.3l231.3-36.4L1013,338.8L854,262.3z"/>
<linearGradient id="SVGID_20_" gradientUnits="userSpaceOnUse" x1="902.671" y1="279.9035" x2="1003.936" y2="279.9035" gradientTransform="matrix(1 0 0 -1 0 748)">
	<stop  offset="0" style="stop-color:#F6F6F7"/>
	<stop  offset="0.4462" style="stop-color:#ECEEF0"/>
	<stop  offset="0.9624" style="stop-color:#D8D9DD"/>
</linearGradient>
<path class="st20" d="M951.4,378.6l52.6,36.5L902.7,557.6L951.4,378.6z"/>
<linearGradient id="SVGID_21_" gradientUnits="userSpaceOnUse" x1="1003.936" y1="348.7995" x2="1162.4929" y2="348.7995" gradientTransform="matrix(1 0 0 -1 0 748)">
	<stop  offset="0" style="stop-color:#F6F6F7"/>
	<stop  offset="0.5645" style="stop-color:#ECEEF0"/>
	<stop  offset="0.9624" style="stop-color:#D8D9DD"/>
</linearGradient>
<path class="st21" d="M1003.9,415.1l158.6,23.9l-77.2-79.8L1003.9,415.1z"/>
<linearGradient id="SVGID_22_" gradientUnits="userSpaceOnUse" x1="853.99" y1="513.5665" x2="1085.339" y2="513.5665" gradientTransform="matrix(1 0 0 -1 0 748)">
	<stop  offset="3.763440e-02" style="stop-color:#D8D9DD"/>
	<stop  offset="0.5538" style="stop-color:#ECEEF0"/>
	<stop  offset="1" style="stop-color:#F6F6F7"/>
</linearGradient>
<path class="st22" d="M863.5,206.5l221.8,19.4L854,262.3L863.5,206.5z"/>
<linearGradient id="SVGID_23_" gradientUnits="userSpaceOnUse" x1="843.542" y1="164.782" x2="986.944" y2="164.782" gradientTransform="matrix(1 0 0 -1 0 748)">
	<stop  offset="0" style="stop-color:#F6F6F7"/>
	<stop  offset="0.4462" style="stop-color:#ECEEF0"/>
	<stop  offset="0.9624" style="stop-color:#D8D9DD"/>
</linearGradient>
<path class="st23" d="M902.7,557.6l84.3,51.3l-143.4-28.5L902.7,557.6z"/>
<linearGradient id="SVGID_24_" gradientUnits="userSpaceOnUse" x1="902.671" y1="235.995" x2="1003.936" y2="235.995" gradientTransform="matrix(1 0 0 -1 0 748)">
	<stop  offset="3.763440e-02" style="stop-color:#D8D9DD"/>
	<stop  offset="0.5538" style="stop-color:#ECEEF0"/>
	<stop  offset="1" style="stop-color:#F6F6F7"/>
</linearGradient>
<path class="st24" d="M1003.9,415.1l-17,193.7l-84.3-51.3L1003.9,415.1z"/>
<linearGradient id="SVGID_25_" gradientUnits="userSpaceOnUse" x1="986.944" y1="235.995" x2="1162.494" y2="235.995" gradientTransform="matrix(1 0 0 -1 0 748)">
	<stop  offset="3.763440e-02" style="stop-color:#D8D9DD"/>
	<stop  offset="0.5538" style="stop-color:#ECEEF0"/>
	<stop  offset="1" style="stop-color:#F6F6F7"/>
</linearGradient>
<path class="st25" d="M986.9,608.9l175.6-169.8l-158.6-23.9L986.9,608.9z"/>
<linearGradient id="SVGID_26_" gradientUnits="userSpaceOnUse" x1="1085.339" y1="455.371" x2="1162.4929" y2="455.371" gradientTransform="matrix(1 0 0 -1 0 748)">
	<stop  offset="3.763440e-02" style="stop-color:#D8D9DD"/>
	<stop  offset="0.5538" style="stop-color:#ECEEF0"/>
	<stop  offset="1" style="stop-color:#F6F6F7"/>
</linearGradient>
<path class="st26" d="M1085.3,225.9l77.2,66.6l-77.2,66.7V225.9z"/>
<linearGradient id="SVGID_27_" gradientUnits="userSpaceOnUse" x1="1085.339" y1="516.71" x2="1162.4929" y2="516.71" gradientTransform="matrix(1 0 0 -1 0 748)">
	<stop  offset="0" style="stop-color:#ECEEF0"/>
	<stop  offset="0.6332" style="stop-color:#F0F1F3"/>
	<stop  offset="1" style="stop-color:#F6F6F7"/>
</linearGradient>
<path class="st27" d="M1085.3,225.9L1134,170l28.5,122.6L1085.3,225.9z"/>
<linearGradient id="SVGID_28_" gradientUnits="userSpaceOnUse" x1="836.653" y1="128.0445" x2="986.944" y2="128.0445" gradientTransform="matrix(1 0 0 -1 0 748)">
	<stop  offset="3.763440e-02" style="stop-color:#D8D9DD"/>
	<stop  offset="0.5538" style="stop-color:#ECEEF0"/>
	<stop  offset="1" style="stop-color:#F6F6F7"/>
</linearGradient>
<path class="st28" d="M843.5,580.4l-6.9,79.1l150.3-50.6L843.5,580.4z"/>
<linearGradient id="SVGID_29_" gradientUnits="userSpaceOnUse" x1="784.528" y1="171.346" x2="843.6011" y2="171.346" gradientTransform="matrix(1 0 0 -1 0 748)">
	<stop  offset="0" style="stop-color:#ECEEF0"/>
	<stop  offset="0.9624" style="stop-color:#BCBEC5"/>
</linearGradient>
<path class="st29" d="M784.5,493.8l52.1,165.7l6.9-79.1L784.5,493.8z"/>
<linearGradient id="SVGID_30_" gradientUnits="userSpaceOnUse" x1="986.944" y1="193.245" x2="1162.494" y2="193.245" gradientTransform="matrix(1 0 0 -1 0 748)">
	<stop  offset="3.763440e-02" style="stop-color:#BCBEC5"/>
	<stop  offset="0.5538" style="stop-color:#ECEEF0"/>
</linearGradient>
<path class="st30" d="M986.9,608.9l40.1,61.6l135.5-231.3L986.9,608.9z"/>
<linearGradient id="SVGID_31_" gradientUnits="userSpaceOnUse" x1="1127.4407" y1="498.9669" x2="1217.8527" y2="576.0328" gradientTransform="matrix(1 0 0 -1 0 748)">
	<stop  offset="0" style="stop-color:#ECEEF0"/>
	<stop  offset="0.2193" style="stop-color:#F1F2F4"/>
	<stop  offset="1" style="stop-color:#FFFFFF"/>
</linearGradient>
<path class="st31" d="M1134,170l125.7-14.8l-97.2,137.4L1134,170z"/>
<linearGradient id="SVGID_32_" gradientUnits="userSpaceOnUse" x1="1013.007" y1="565.9695" x2="1134.02" y2="565.9695" gradientTransform="matrix(1 0 0 -1 0 748)">
	<stop  offset="0" style="stop-color:#ECEEF0"/>
	<stop  offset="0.5271" style="stop-color:#E4E5E8"/>
	<stop  offset="1" style="stop-color:#D8D9DD"/>
</linearGradient>
<path class="st32" d="M1013,138.1l72.3,87.8L1134,170L1013,138.1z"/>
<linearGradient id="SVGID_33_" gradientUnits="userSpaceOnUse" x1="942.4978" y1="497.8673" x2="1027.0068" y2="587.5913" gradientTransform="matrix(1 0 0 -1 0 748)">
	<stop  offset="0" style="stop-color:#ECEEF0"/>
	<stop  offset="0.3842" style="stop-color:#F5F6F7"/>
	<stop  offset="1" style="stop-color:#FFFFFF"/>
</linearGradient>
<path class="st33" d="M1013,138.1l-149.5,68.4l221.8,19.4L1013,138.1z"/>
<linearGradient id="SVGID_34_" gradientUnits="userSpaceOnUse" x1="627.3138" y1="178.2092" x2="651.9551" y2="204.8608" gradientTransform="matrix(1 0 0 -1 0 748)">
	<stop  offset="0" style="stop-color:#ECEEF0"/>
	<stop  offset="0.2193" style="stop-color:#F1F2F4"/>
	<stop  offset="1" style="stop-color:#FFFFFF"/>
</linearGradient>
<path class="st34" d="M612.4,556l54.4,0.9l-27.7-18.2L612.4,556z"/>
<linearGradient id="SVGID_35_" gradientUnits="userSpaceOnUse" x1="1170.9445" y1="630.777" x2="1177.1465" y2="671.9396" gradientTransform="matrix(1 0 0 -1 0 748)">
	<stop  offset="0" style="stop-color:#ECEEF0"/>
	<stop  offset="0.2193" style="stop-color:#F1F2F4"/>
	<stop  offset="1" style="stop-color:#FFFFFF"/>
</linearGradient>
<path class="st35" d="M1158.8,115.4l29.6-32l-18.9-8.5L1158.8,115.4z"/>
<linearGradient id="SVGID_36_" gradientUnits="userSpaceOnUse" x1="924.0366" y1="576.1932" x2="919.5643" y2="616.2543" gradientTransform="matrix(1 0 0 -1 0 748)">
	<stop  offset="0" style="stop-color:#F6F6F7"/>
	<stop  offset="0.4462" style="stop-color:#ECEEF0"/>
	<stop  offset="0.9624" style="stop-color:#D8D9DD"/>
</linearGradient>
<path class="st36" d="M939.2,170.1l-32.8-19.4l10.4-18.6L939.2,170.1z"/>
<path class="st37" d="M684.3,471l74.2,79.8l9.8-165.7L684.3,471z"/>
<path class="st37" d="M768.2,385L946,526.2l-187.5,24.5L768.2,385z"/>
<path class="st37" d="M684.3,471l-96.6-43.2L768.2,385L684.3,471z"/>
<path class="st37" d="M768.2,385l-13.9-84.5L587.7,427.7L768.2,385z"/>
<path class="st37" d="M768.2,385l67.9-36.4l-81.7-48.1L768.2,385z"/>
<path class="st37" d="M836.1,348.6l-22-113.2l-59.7,65.1L836.1,348.6z"/>
<path class="st37" d="M754.3,300.5l-91-132.5L814,235.4L754.3,300.5z"/>
<path class="st37" d="M758.5,550.7l55.8,40.5l131.7-65L758.5,550.7z"/>
<path class="st37" d="M758.5,550.7l-125.1,44.9l180.8,21.5L758.5,550.7z"/>
<path class="st37" d="M633.3,595.6l51-124.7l74.2,79.8L633.3,595.6z"/>
<path class="st37" d="M633.3,595.6l101,150.6l79.8-129.1L633.3,595.6z"/>
<path class="st37" d="M574.1,569.2l59.2,26.5l51-124.7L574.1,569.2z"/>
<path class="st37" d="M587.7,427.7l96.6,43.2l-110.2,98.2L587.7,427.7z"/>
<path class="st37" d="M574.1,569.2l-56.9-99.3l70.6-42.1L574.1,569.2z"/>
<path class="st37" d="M529.3,389.5l58.4,38.2l-70.6,42.1L529.3,389.5z"/>
<path class="st37" d="M451.6,433.7l65.6,36.2l12.2-80.3L451.6,433.7z"/>
<path class="st37" d="M574.1,569.2l-76.4,83.2l135.6-56.7L574.1,569.2z"/>
<path class="st37" d="M814.2,617.1l127.8-17.8l4-73.1L814.2,617.1z"/>
<path class="st37" d="M587.7,427.7L663.3,168l91,132.5L587.7,427.7z"/>
<path class="st37" d="M768.2,385l67.9-36.4L946,526.2L768.2,385z"/>
<path class="st37" d="M836.1,348.6l107.1-153.2l-129.2,40L836.1,348.6z"/>
<path class="st37" d="M529.3,389.5l134-221.5l-75.5,259.7L529.3,389.5z"/>
<path class="st37" d="M946,526.2l113.8-67.5L941.9,599.4L946,526.2z"/>
<path class="st37" d="M836.1,348.6l223.7,110.1L946,526.2L836.1,348.6z"/>
<path class="st37" d="M1059.7,458.7L943.2,195.4L836.1,348.6L1059.7,458.7z"/>
<path class="st37" d="M663.3,168l114.4-46.7L814,235.4L663.3,168z"/>
<path class="st37" d="M663.3,168l-38.6-79l152.9,32.3L663.3,168z"/>
<path class="st37" d="M814.2,617.1l53.6,53.7l74.2-71.5L814.2,617.1z"/>
<path class="st37" d="M527.6,199.1L663.3,168l-38.6-79"/>
<path class="st37" d="M527.6,199.1l1.7,190.4l134-221.5L527.6,199.1z"/>
<path class="st37" d="M1212.7,349.4l-19.3-105.5l-99.1,135.9L1212.7,349.4z"/>
<path class="st37" d="M1094.3,379.8l-73.7-209.9l172.8,74L1094.3,379.8z"/>
<path class="st37" d="M1212.7,349.4l58.4,85.6l-176.8-55.2L1212.7,349.4z"/>
<path class="st37" d="M1094.3,379.8l-34.6,78.9l211.4-23.7L1094.3,379.8z"/>
<path class="st37" d="M1094.3,379.8l-70.7-3l36.2,81.9L1094.3,379.8z"/>
<path class="st37" d="M1193.4,243.9l-10.8-84.6l-162,10.6L1193.4,243.9z"/>
<path class="st37" d="M1193.4,243.9l131,25.3l-141.8-109.9L1193.4,243.9z"/>
<path class="st37" d="M1324.4,269.2l-111.7,80.2l-19.3-105.5L1324.4,269.2z"/>
<path class="st37" d="M1324.4,269.2L1321.1,90l-138.5,69.3L1324.4,269.2z"/>
<path class="st37" d="M1360.2,321.7l-35.8-52.5l-111.7,80.2L1360.2,321.7z"/>
<path class="st37" d="M1271.1,435l-58.4-85.6l147.5-27.7L1271.1,435z"/>
<path class="st37" d="M1360.2,321.7l-6,113.2l-83.1,0.1L1360.2,321.7z"/>
<path class="st37" d="M1299.8,497l-28.7-62l83.1-0.1L1299.8,497z"/>
<path class="st37" d="M1390.1,498.9l-35.8-64l-54.4,62.1L1390.1,498.9z"/>
<path class="st37" d="M1360.2,321.7l110.6-32.1l-146.4-20.4L1360.2,321.7z"/>
<path class="st37" d="M1182.6,159.3l-118.4-49.5l-43.6,60.1L1182.6,159.3z"/>
<path class="st37" d="M1271.1,435l-206.7,182.5l-4.7-158.8L1271.1,435z"/>
<path class="st37" d="M1094.3,379.8l-70.7-3l-3-207L1094.3,379.8z"/>
<path class="st37" d="M1299.8,497l-235.4,120.5L1271.1,435L1299.8,497z"/>
<path class="st37" d="M1020.6,169.9l-77.4,25.5l121-85.6L1020.6,169.9z"/>
<path class="st37" d="M1064.4,617.5l-10.4,86.6L941.7,599.3L1064.4,617.5z"/>
<path class="st37" d="M1064.2,109.8l-47.1-83.5l-73.9,169.1L1064.2,109.8z"/>
<path class="st37" d="M1182.6,159.3l-165.4-133l47.1,83.5L1182.6,159.3z"/>
<path class="st37" d="M1054,704.1l-114.4,14.6l2.1-119.4L1054,704.1z"/>
<path class="st37" d="M1196.9,659.7l-132.5-42.3"/>
<path class="st37" d="M1196.9,659.7L1299.8,497l-235.4,120.5L1196.9,659.7z"/>
<path class="st37" d="M814,235.4L908,2.3l35.2,193.1L814,235.4z"/>
<linearGradient id="SVGID_37_" gradientUnits="userSpaceOnUse" x1="1152.1599" y1="376.215" x2="1264.907" y2="376.215" gradientTransform="matrix(1 0 0 -1 0 748)">
	<stop  offset="0" style="stop-color:#F6F6F7"/>
	<stop  offset="0.4462" style="stop-color:#ECEEF0"/>
	<stop  offset="0.9624" style="stop-color:#D8D9DD"/>
</linearGradient>
<path class="st38" d="M1152.2,410.8l64.2-78.1l48.6,32.5L1152.2,410.8z"/>
<linearGradient id="SVGID_38_" gradientUnits="userSpaceOnUse" x1="645.8646" y1="281.3918" x2="704.5436" y2="244.6055" gradientTransform="matrix(1 0 0 -1 0 748)">
	<stop  offset="0" style="stop-color:#F6F6F7"/>
	<stop  offset="0.4462" style="stop-color:#ECEEF0"/>
	<stop  offset="0.9624" style="stop-color:#D8D9DD"/>
</linearGradient>
<path class="st39" d="M719.7,450.6l-101.8,60.8l77.7,6.4L719.7,450.6z"/>
<linearGradient id="SVGID_39_" gradientUnits="userSpaceOnUse" x1="680.163" y1="571.2645" x2="738.718" y2="571.2645" gradientTransform="matrix(1 0 0 -1 0 748)">
	<stop  offset="0" style="stop-color:#F6F6F7"/>
	<stop  offset="0.4462" style="stop-color:#ECEEF0"/>
	<stop  offset="0.9624" style="stop-color:#D8D9DD"/>
</linearGradient>
<path class="st40" d="M680.2,146.5l58.6,60.5l-8.7-50.2L680.2,146.5z"/>
<linearGradient id="SVGID_40_" gradientUnits="userSpaceOnUse" x1="1170.1097" y1="301.5421" x2="1211.7318" y2="312.8311" gradientTransform="matrix(1 0 0 -1 0 748)">
	<stop  offset="3.763440e-02" style="stop-color:#D8D9DD"/>
	<stop  offset="0.5538" style="stop-color:#ECEEF0"/>
	<stop  offset="1" style="stop-color:#F6F6F7"/>
</linearGradient>
<path class="st41" d="M1167,434.9l42.4,13.3l0.6-20L1167,434.9z"/>
<linearGradient id="SVGID_41_" gradientUnits="userSpaceOnUse" x1="814.1769" y1="639.8279" x2="868.3731" y2="423.6902" gradientTransform="matrix(1 0 0 -1 0 748)">
	<stop  offset="0" style="stop-color:#F6F6F7"/>
	<stop  offset="0.4462" style="stop-color:#ECEEF0"/>
	<stop  offset="0.9624" style="stop-color:#BCBEC5"/>
</linearGradient>
<path class="st42" d="M830.7,104l95.2,205.9l-131.9-38.7L830.7,104z"/>
<linearGradient id="SVGID_42_" gradientUnits="userSpaceOnUse" x1="649.6675" y1="25.1514" x2="738.9155" y2="117.1894" gradientTransform="matrix(1 0 0 -1 0 748)">
	<stop  offset="3.763440e-02" style="stop-color:#BCBEC5"/>
	<stop  offset="0.5538" style="stop-color:#ECEEF0"/>
	<stop  offset="1" style="stop-color:#F6F6F7"/>
</linearGradient>
<path class="st43" d="M698.2,726.7l-73.4-32.1l202.9-130L698.2,726.7z"/>
<linearGradient id="SVGID_43_" gradientUnits="userSpaceOnUse" x1="1038.3967" y1="206.2772" x2="1231.848" y2="206.8514" gradientTransform="matrix(1 0 0 -1 0 748)">
	<stop  offset="0" style="stop-color:#F6F6F7"/>
	<stop  offset="0.4462" style="stop-color:#ECEEF0"/>
	<stop  offset="0.9624" style="stop-color:#BCBEC5"/>
</linearGradient>
<path class="st44" d="M1038.3,484.8l116,113.5l77.6-72.7L1038.3,484.8z"/>
<linearGradient id="SVGID_44_" gradientUnits="userSpaceOnUse" x1="692.9938" y1="394.0008" x2="597.8663" y2="374.7353" gradientTransform="matrix(1 0 0 -1 0 748)">
	<stop  offset="0" style="stop-color:#F6F6F7"/>
	<stop  offset="0.4462" style="stop-color:#ECEEF0"/>
	<stop  offset="0.9624" style="stop-color:#BCBEC5"/>
</linearGradient>
<path class="st45" d="M698.8,382.5L630.3,337l-31.1,42.9L698.8,382.5z"/>
<path class="st0" d="M1204.2,254.1c-5.9,5.6-15.3,5.6-21.1,0c-5.9-5.6-5.9-14.7,0-20.3c5.9-5.6,15.3-5.6,21.1,0
	C1209.9,239.4,1209.9,248.4,1204.2,254.1z"/>
<path class="st0" d="M956.5,533.1c-5.9,5.6-15.3,5.6-21.1,0c-5.9-5.6-5.9-14.7,0-20.3c5.9-5.6,15.3-5.6,21.1,0
	C962.4,518.4,962.4,527.5,956.5,533.1z"/>
<path class="st0" d="M1281.7,445.1c-5.9,5.6-15.3,5.6-21.1,0c-5.9-5.6-5.9-14.7,0-20.3c5.9-5.6,15.3-5.6,21.1,0
	C1287.5,430.5,1287.5,439.5,1281.7,445.1z"/>
<path class="st0" d="M785.4,128.9c-4.2,4.1-11.3,4.1-15.5,0c-4.2-4.1-4.2-10.8,0-14.9c4.2-4.1,11.3-4.1,15.5,0
	C789.7,118,789.7,124.7,785.4,128.9z"/>
<path class="st0" d="M595.4,435.1c-4.2,4.1-11.3,4.1-15.5,0c-4.2-4.1-4.2-10.8,0-14.9c4.2-4.1,11.3-4.1,15.5,0
	C599.7,424.4,599.7,431,595.4,435.1z"/>
<path class="st0" d="M875.5,678.4c-4.2,4.1-11.3,4.1-15.5,0c-4.2-4.1-4.2-10.8,0-14.9c4.2-4.1,11.3-4.1,15.5,0
	C879.8,667.6,879.8,674.3,875.5,678.4z"/>
<path class="st0" d="M628.6,92.8c-2.2,2.1-5.6,2.1-7.8,0c-2.2-2.1-2.2-5.4,0-7.5c2.2-2.1,5.6-2.1,7.8,0
	C630.8,87.4,630.8,90.8,628.6,92.8z"/>
<path class="st0" d="M762.4,554.5c-2.2,2.1-5.6,2.1-7.8,0c-2.2-2.1-2.2-5.4,0-7.5c2.2-2.1,5.6-2.1,7.8,0
	C764.6,549.1,764.6,552.5,762.4,554.5z"/>
<path class="st0" d="M1394,502.6c-2.2,2.1-5.6,2.1-7.8,0c-2.2-2.1-2.2-5.4,0-7.5c2.2-2.1,5.6-2.1,7.8,0
	C1396.1,497.2,1396.1,500.5,1394,502.6z"/>
<path class="st0" d="M1068.3,621.2c-2.2,2.1-5.6,2.1-7.8,0c-2.2-2.1-2.2-5.4,0-7.5c2.2-2.1,5.6-2.1,7.8,0
	C1070.5,615.8,1070.5,619.1,1068.3,621.2z"/>
<path class="st0" d="M578,572.8c-2.2,2.1-5.6,2.1-7.8,0c-2.2-2.1-2.2-5.4,0-7.5c2.2-2.1,5.6-2.1,7.8,0
	C580,567.4,580,570.8,578,572.8z"/>
</svg>
