<svg width="389" height="326" viewBox="0 0 389 326" fill="none" xmlns="http://www.w3.org/2000/svg">
<path d="M347.036 69.5585C334.954 33.5666 295.528 13.5994 259.282 25.4271C259.027 25.5543 258.646 25.6815 258.392 25.6815C235.754 33.4395 210.699 30.6415 190.605 17.542C163.007 -0.517519 127.524 -5.6047 94.3298 6.85891C54.141 21.9933 28.4508 58.7482 25.3984 98.8098C23.9995 116.996 35.0641 139.762 21.7102 152.225C-2.45389 174.99 -4.99749 209.838 6.9574 231.713C32.0118 277.116 71.6918 283.347 113.534 264.779C134.391 255.495 139.987 279.151 158.683 292.25C183.356 309.546 215.786 314.888 246.182 303.442C288.152 287.672 311.171 245.957 306.72 205.005C304.176 181.349 313.079 158.076 329.994 141.161C348.18 123.228 355.811 95.7575 347.036 69.5585Z" fill="#F7F7F7"/>
<path d="M314.09 245.957C314.09 245.957 304.425 246.339 305.442 254.987C305.442 254.987 305.824 264.652 306.714 294.285" stroke="#505050" stroke-width="1.2718" stroke-miterlimit="10"/>
<path d="M238.674 133.784C238.674 133.784 228.245 139.38 224.43 152.861C224.43 152.861 239.437 132.639 258.641 140.143C258.768 140.016 247.576 127.934 238.674 133.784Z" fill="#505050"/>
<path d="M235.875 135.692C235.875 135.692 257.623 125.517 261.692 164.689C264.109 188.598 274.792 205.005 299.465 210.473C299.465 210.473 349.828 163.671 274.792 130.986C274.792 130.986 266.017 127.552 259.149 130.986C259.149 130.986 244.014 128.697 235.875 135.692Z" fill="#999999"/>
<path d="M261.18 132.131C263.978 134.293 266.648 136.582 269.319 138.999C271.99 141.415 274.661 143.704 277.204 146.248C279.748 148.791 282.164 151.335 284.581 154.006C286.87 156.677 289.159 159.474 291.067 162.654C294.882 168.886 296.917 176.008 298.062 183.003C299.206 190.125 299.842 197.247 300.351 204.369C300.86 211.491 301.241 218.613 301.496 225.735C301.75 232.857 302.004 239.979 302.259 247.101L303.022 268.467C303.276 275.589 303.531 282.712 303.276 289.834C302.386 282.712 301.877 275.717 301.496 268.595L300.351 247.228C299.588 232.984 299.079 218.74 298.189 204.623C297.68 197.501 297.299 190.506 296.154 183.511C295.137 176.517 293.229 169.776 289.668 163.671C288.015 160.619 285.853 157.821 283.563 155.023C281.401 152.225 278.985 149.682 276.568 147.011C271.608 141.797 266.521 136.837 261.18 132.131Z" fill="#8D8D8D"/>
<path d="M380.224 179.569C380.224 179.569 387.346 184.402 389 194.576C389 194.576 379.716 178.679 365.09 182.621C365.09 182.494 374.247 174.609 380.224 179.569Z" fill="#505050"/>
<path d="M382.008 181.095C382.008 181.095 367 171.938 361.023 200.172C357.335 217.341 348.305 228.406 329.991 230.568C329.991 230.568 297.052 192.668 354.155 174.736C354.155 174.736 360.896 172.955 365.474 176.008C365.474 175.881 376.666 175.372 382.008 181.095Z" fill="#999999"/>
<path d="M363.951 176.644C359.754 178.806 355.684 181.349 351.996 184.274C348.308 187.199 344.874 190.633 342.33 194.449C341.694 195.466 341.059 196.484 340.55 197.501L339.024 200.681L337.625 203.86C337.116 205.005 336.735 206.022 336.353 207.167C334.7 211.618 333.555 216.196 332.538 220.775C330.503 229.932 329.231 239.343 327.832 248.754L325.797 262.871C325.161 267.577 324.525 272.283 323.508 276.861C323.762 272.155 324.271 267.45 324.78 262.744L326.433 248.627C327.578 239.216 328.849 229.805 331.011 220.521C332.029 215.815 333.428 211.236 335.081 206.785C335.59 205.641 335.971 204.496 336.48 203.478L338.006 200.172L339.66 196.992C340.296 195.975 340.804 194.83 341.567 193.94C344.365 189.997 347.926 186.691 351.742 183.893C355.557 180.968 359.627 178.551 363.951 176.644Z" fill="#8D8D8D"/>
<path d="M274.793 222.938C274.793 222.938 311.166 223.192 316.508 238.581C323.503 236.291 326.809 221.92 313.837 213.399C300.738 204.878 274.92 217.087 274.793 222.938Z" fill="#505050"/>
<path d="M273.646 211.873C273.646 211.873 260.292 208.185 253.043 217.342C241.851 231.459 253.425 269.231 268.177 269.358C278.352 269.358 285.092 242.778 289.671 234.892C296.03 223.828 301.499 214.798 313.708 213.526C313.708 213.399 295.648 202.207 273.646 211.873Z" fill="#8D8D8D"/>
<path d="M269.574 215.18L270.464 214.162L271.482 213.272C271.863 213.018 272.245 212.763 272.499 212.509L273.008 212.127C273.135 212 273.389 211.873 273.516 211.873C273.389 211.873 272.499 211.619 271.1 211.364C270.846 211.619 270.591 211.746 270.337 212L269.32 213.018C268.938 213.399 268.684 213.781 268.429 214.162C268.048 214.544 267.921 214.925 267.539 215.434C267.285 215.816 266.903 216.197 266.776 216.706C266.394 217.596 265.759 218.486 265.504 219.377C265.123 220.267 264.741 221.157 264.487 222.175L264.105 223.574C264.105 223.828 263.978 224.082 263.978 224.337L263.851 225.1C263.724 225.99 263.469 227.007 263.342 227.898L263.088 230.823C262.961 231.84 263.088 232.73 263.088 233.748C263.088 234.765 263.088 235.656 263.088 236.673L263.342 239.471C263.469 240.361 263.469 241.379 263.596 242.269L264.105 245.067C264.232 245.957 264.36 246.975 264.614 247.865L265.886 253.461L264.868 247.865C264.614 246.975 264.614 245.957 264.487 245.067L264.105 242.269C263.978 241.379 263.978 240.361 263.851 239.471L263.724 236.673C263.724 235.783 263.724 234.765 263.724 233.875C263.724 232.985 263.724 231.967 263.851 231.077L264.232 228.279C264.36 227.389 264.614 226.499 264.741 225.481L264.868 224.845C264.868 224.591 264.995 224.337 265.123 224.209L265.504 222.938C265.759 222.047 266.14 221.157 266.522 220.394C266.903 219.504 267.412 218.741 267.793 217.978C268.048 217.596 268.302 217.215 268.556 216.833C268.938 215.943 269.192 215.561 269.574 215.18Z" fill="#8D8D8D"/>
<path d="M309.258 221.538C309.258 221.538 321.976 225.862 317.143 236.927C317.143 236.927 316.126 255.114 309.258 291.614" stroke="#505050" stroke-width="1.2718" stroke-miterlimit="10"/>
<path d="M322.486 316.414H301.247C299.085 316.414 297.177 314.888 296.796 312.726L289.801 273.555H333.805L326.81 312.726C326.556 314.888 324.648 316.414 322.486 316.414Z" fill="#E2E2E2"/>
<path d="M334.824 280.931H288.912C287.641 280.931 286.496 279.914 286.496 278.515V272.538C286.496 271.266 287.514 270.121 288.912 270.121H334.824C336.096 270.121 337.241 271.139 337.241 272.538V278.515C337.241 279.787 336.096 280.931 334.824 280.931Z" fill="#C3C3C3"/>
<path d="M337.623 254.096C337.623 254.096 312.569 246.719 305.701 256.258C301.377 253.333 302.14 242.65 312.823 239.47C323.506 236.291 338.641 250.026 337.623 254.096Z" fill="#505050"/>
<path d="M340.673 246.719C340.673 246.719 350.593 246.974 353.646 254.732C358.351 266.814 333.679 284.492 333.679 284.492C333.679 284.492 333.806 265.033 331.644 258.801C326.938 245.956 320.961 242.777 312.821 239.343C312.694 239.47 327.447 235.528 340.673 246.719Z" fill="#8D8D8D"/>
<path d="M342.835 249.899L342.454 249.009L341.945 248.119C341.691 247.864 341.564 247.61 341.309 247.356L341.055 246.974C340.928 246.847 340.801 246.72 340.801 246.72C340.928 246.72 341.564 246.72 342.581 246.847C342.708 247.101 342.835 247.228 342.963 247.483L343.471 248.373C343.599 248.755 343.726 249.009 343.853 249.391C343.98 249.772 344.107 250.026 344.234 250.408C344.362 250.789 344.489 251.044 344.489 251.425C344.616 252.061 344.743 252.824 344.87 253.46C344.87 254.096 344.997 254.859 344.997 255.495V256.513C344.997 256.64 344.997 256.894 344.997 257.021L344.87 257.53C344.743 258.166 344.743 258.929 344.616 259.565L344.107 261.6C343.98 262.236 343.726 262.872 343.599 263.635C343.344 264.271 343.217 264.906 342.963 265.542L342.2 267.45C341.945 268.086 341.691 268.722 341.436 269.358L340.546 271.265C340.292 271.901 339.91 272.537 339.656 273.046L337.621 276.607L339.529 272.919C339.91 272.283 340.165 271.647 340.419 271.011L341.182 269.103C341.436 268.467 341.691 267.832 341.945 267.196L342.581 265.288C342.835 264.652 342.963 264.016 343.09 263.38C343.217 262.744 343.471 262.108 343.599 261.345L343.98 259.311C344.107 258.675 344.107 257.912 344.107 257.276V256.767C344.107 256.64 344.107 256.385 344.107 256.258V255.241C344.107 254.605 343.98 253.969 343.98 253.206C343.98 252.57 343.726 251.934 343.599 251.298C343.599 250.917 343.344 250.662 343.344 250.408C342.963 250.535 342.963 250.154 342.835 249.899Z" fill="#8D8D8D"/>
<path d="M203.069 154.26C199.635 131.114 177.506 115.47 154.359 120.049C149.781 120.939 145.584 122.593 141.768 124.755C134.137 129.206 125.489 131.749 116.587 132.004C114.679 132.131 112.898 132.258 110.991 132.513C91.4051 135.438 76.0163 149.046 69.9117 166.597C66.6051 176.135 59.3558 183.893 49.9445 187.327C26.925 195.721 12.1722 219.631 16.7506 245.194C21.5835 271.901 46.6379 290.597 73.5999 287.417C81.6123 286.527 88.9887 281.44 95.3477 274.827C111.499 258.039 135.155 251.044 158.302 254.223C159.573 254.351 160.718 254.478 161.863 254.351C186.79 253.333 204.722 231.077 201.161 207.04C201.034 206.404 200.907 205.895 200.907 205.259C198.745 194.322 198.745 183.003 201.924 172.447C203.45 166.724 203.959 160.492 203.069 154.26Z" fill="#272727"/>
<path d="M185.393 158.839C184.629 163.672 186.919 167.996 190.607 168.632C194.295 169.267 197.983 165.834 198.746 161.128C199.51 156.422 197.22 151.971 193.532 151.335C189.844 150.699 186.156 154.006 185.393 158.839Z" fill="#D8D8D8"/>
<path d="M197.163 160.817C198.193 154.723 195.155 149.127 190.376 148.319C185.597 147.511 180.888 151.797 179.858 157.892C178.827 163.986 181.866 169.582 186.645 170.39C191.423 171.198 196.133 166.912 197.163 160.817Z" fill="white"/>
<path d="M199.762 305.223C199.762 305.223 218.458 253.715 213.498 229.424C210.445 214.544 195.565 189.998 166.568 189.998C147.237 189.998 111.881 202.843 114.297 237.69C115.696 258.039 119.639 282.458 138.207 305.223C138.207 305.35 171.02 320.993 199.762 305.223Z" fill="#6C6C6C"/>
<path d="M184.12 265.924C185.774 242.269 186.918 211.237 189.716 196.23C183.357 192.414 175.599 190.125 166.569 190.125C159.829 190.125 151.181 191.651 142.914 195.212C145.712 208.948 148.383 222.683 150.163 236.673C152.198 252.697 152.453 268.849 152.325 285.001C152.198 293.268 151.944 301.662 151.562 309.928C159.702 311.963 170.639 313.362 182.213 311.454C181.577 296.447 183.103 280.677 184.12 265.924Z" fill="white"/>
<path opacity="0.05" d="M165.043 280.55C154.615 275.463 144.949 268.086 135.792 260.964C127.652 254.605 119.767 247.356 114.426 238.326C115.825 258.548 119.895 282.712 138.208 305.223C138.208 305.223 170.894 320.866 199.763 305.223C199.763 305.223 201.798 299.5 204.469 290.851C190.861 289.707 177.507 286.654 165.043 280.55Z" fill="black"/>
<path d="M166.565 205.514C160.969 205.514 156.391 200.935 156.391 195.34L158.934 159.348H174.069L176.612 195.34C176.739 200.935 172.161 205.514 166.565 205.514Z" fill="#C8C8C8"/>
<path d="M174.837 167.614L158.558 166.088L157.922 174.482C159.321 183.766 165.807 193.813 174.71 193.813C175.346 193.813 175.981 193.813 176.617 193.686L174.837 167.614Z" fill="#A5A5A5"/>
<path d="M173.563 189.998C164.788 188.472 157.538 177.026 157.411 168.123C157.284 160.365 159.7 149.046 159.7 149.046C159.7 149.046 187.171 142.814 192.386 149.046C196.201 153.625 190.859 167.36 189.206 173.083C186.662 181.604 177.378 190.761 173.563 189.998Z" fill="#C8C8C8"/>
<path d="M152.449 157.822C151.813 161.764 154.357 165.452 158.172 166.088L160.716 151.971C156.773 151.335 153.085 153.879 152.449 157.822Z" fill="#FFA587"/>
<path d="M194.293 150.445L167.585 145.739L166.567 151.59C163.769 151.208 159.573 151.081 159.064 153.879C158.937 154.642 156.393 158.712 156.52 159.475C157.283 159.347 162.243 157.821 162.879 157.44C164.151 156.804 165.677 156.677 167.203 156.931C170.383 157.44 173.562 156.931 176.233 155.405C180.048 153.37 184.5 152.734 188.57 154.133C189.46 154.387 190.35 154.642 191.24 154.769C192.003 154.896 192.766 155.023 193.53 155.023L194.293 150.445Z" fill="#BDBDBD"/>
<path d="M196.836 111.146C190.731 110.256 184.881 112.036 180.557 115.725C175.979 119.54 170.001 121.193 164.024 121.321C163.896 121.321 163.896 121.321 163.769 121.321C157.156 121.575 151.051 125.772 148.762 132.131C148.508 133.021 148.253 133.784 147.999 134.674C147.363 137.472 146.346 140.143 144.692 142.305C143.929 143.323 143.293 144.594 143.039 145.866C142.149 150.572 145.583 155.15 150.67 156.041C152.705 156.422 154.74 156.041 156.52 155.277C158.046 154.514 159.827 154.387 161.607 154.642C165.423 155.277 169.111 154.642 172.417 152.861C176.869 150.445 182.21 149.682 187.043 151.335C188.061 151.716 189.078 151.971 190.223 152.098C201.669 154.133 212.606 146.375 214.387 134.674C216.04 123.864 207.773 112.799 196.836 111.146Z" fill="#272727"/>
<path d="M160.595 305.858H263.102C265.137 305.858 266.536 307.893 265.9 309.801L264.119 314.888C263.738 316.033 262.593 316.796 261.321 316.796H158.687C156.652 316.796 155.253 314.761 155.889 312.853L157.67 307.766C158.178 306.621 159.323 305.858 160.595 305.858Z" fill="#DFDFDF"/>
<path d="M204.594 209.965C204.594 209.965 230.285 247.864 237.025 263.253C246.691 285.382 261.825 308.911 261.825 308.911C261.825 308.911 236.771 308.148 226.342 294.921C226.342 294.921 224.307 285.891 222.908 275.971C221.637 266.687 200.906 247.864 200.906 247.864L204.594 209.965Z" fill="#6C6C6C"/>
<path d="M287.389 316.795H192.895L208.665 243.667H303.159L287.389 316.795Z" fill="#DFDFDF"/>
<path d="M292.477 316.795H196.711L212.481 243.667H308.248L292.477 316.795Z" fill="#F1F1F1"/>
<path d="M262.773 282.111C263.809 276.445 260.056 271.012 254.39 269.976C248.724 268.94 243.291 272.693 242.255 278.358C241.219 284.024 244.972 289.457 250.638 290.493C256.303 291.529 261.736 287.776 262.773 282.111Z" fill="white"/>
<path d="M344.752 316.414H51.0938V325.953H344.752V316.414Z" fill="#DFDFDF"/>
<path d="M196.073 316.287C198.108 316.287 198.617 313.489 196.709 312.726C189.968 310.182 180.303 306.875 170.256 304.459L153.849 301.152L152.832 310.691L164.151 316.287H196.073V316.287Z" fill="#C8C8C8"/>
<path d="M164.533 303.314L153.849 301.152L152.832 310.691L164.151 316.287C162.371 311.963 160.717 307.638 164.533 303.314Z" fill="#BDBDBD"/>
<path d="M128.16 204.114C128.16 204.114 87.9714 252.061 81.2308 275.844C77.0339 290.469 78.6872 300.389 92.8042 310.182C99.1632 314.506 106.667 316.541 114.425 316.414H156.903C158.81 316.414 160.337 315.015 160.718 313.234C160.718 313.234 162.753 295.302 150.289 290.596C138.716 286.272 117.223 284.619 115.442 270.629C114.552 263.38 140.369 230.059 140.369 230.059C140.369 230.059 137.571 209.837 128.16 204.114Z" fill="#6C6C6C"/>
<path d="M179.032 116.997C179.922 115.979 181.067 115.089 182.338 114.453H176.743C164.533 114.453 154.613 124.373 154.613 136.582V149.428H157.157V136.582C157.157 125.772 165.932 116.997 176.743 116.997H179.032Z" fill="#D8D8D8"/>
<path d="M155.889 168.123C160.735 168.123 164.664 163.112 164.664 156.931C164.664 150.75 160.735 145.739 155.889 145.739C151.042 145.739 147.113 150.75 147.113 156.931C147.113 163.112 151.042 168.123 155.889 168.123Z" fill="white"/>
<path d="M159.192 156.931C159.192 161.764 156.14 165.706 152.325 165.706C148.509 165.706 145.457 161.764 145.457 156.931C145.457 152.098 148.509 148.155 152.325 148.155C156.14 148.155 159.192 152.098 159.192 156.931Z" fill="#D8D8D8"/>
<path d="M204.465 48.8281C206.499 44.8856 207.771 40.3071 207.771 35.4743C207.771 19.4496 194.799 6.60449 178.774 6.60449C162.75 6.60449 149.777 19.5768 149.777 35.4743C149.777 51.3717 162.75 64.4712 178.774 64.4712C184.243 64.4712 189.33 62.9451 193.654 60.4015H204.465V48.8281Z" stroke="#D02E1B" stroke-width="1.2718" stroke-miterlimit="10"/>
<path d="M122.691 103.515C124.726 99.5723 125.998 94.9939 125.998 90.161C125.998 74.1364 113.026 61.1641 97.0009 61.1641C80.9762 61.1641 68.0039 74.1364 68.0039 90.161C68.0039 106.186 80.9762 119.158 97.0009 119.158C102.47 119.158 107.557 117.632 111.881 115.088H122.691V103.515V103.515Z" stroke="#D02E1B" stroke-width="1.2718" stroke-miterlimit="10"/>
<path d="M242.623 98.8098C240.588 94.8672 239.316 90.2888 239.316 85.4559C239.316 69.4313 252.289 56.459 268.313 56.459C284.338 56.459 297.31 69.4313 297.31 85.4559C297.31 101.481 284.338 114.453 268.313 114.453C262.845 114.453 257.757 112.927 253.433 110.383H242.623V98.8098Z" stroke="#D02E1B" stroke-width="1.2718" stroke-miterlimit="10"/>
<path d="M92.3997 93.6415C92.3997 92.117 92.6489 90.7684 93.1473 89.5956C93.675 88.4229 94.6425 87.4115 96.0497 86.5613C96.5481 86.2681 97.1345 85.9456 97.8088 85.5938C98.4831 85.2126 99.1281 84.7729 99.7438 84.2745C100.359 83.7761 100.873 83.1897 101.283 82.5154C101.723 81.8411 101.943 81.0495 101.943 80.1407C101.943 79.437 101.796 78.8067 101.503 78.2497C101.239 77.6926 100.887 77.2235 100.447 76.8424C100.008 76.4613 99.4946 76.1828 98.9082 76.0069C98.3219 75.8016 97.7209 75.699 97.1052 75.699C96.4016 75.699 95.7566 75.8163 95.1702 76.0508C94.5839 76.2561 94.0415 76.5492 93.5431 76.9304C93.0447 77.2822 92.5902 77.6926 92.1798 78.1617C91.7987 78.6308 91.4762 79.0999 91.2123 79.569L88.046 77.4141C88.8376 75.5964 90.0689 74.2038 91.74 73.2363C93.4111 72.2395 95.2435 71.7411 97.2371 71.7411C98.3219 71.7411 99.392 71.917 100.447 72.2688C101.532 72.5913 102.5 73.1044 103.35 73.808C104.2 74.4823 104.874 75.3619 105.373 76.4466C105.901 77.5314 106.164 78.8214 106.164 80.3166C106.164 81.3427 106.032 82.2369 105.769 82.9991C105.505 83.7321 105.138 84.4064 104.669 85.0221C104.229 85.6084 103.687 86.1361 103.042 86.6052C102.426 87.045 101.767 87.4554 101.063 87.8366C100.477 88.1591 99.905 88.4962 99.348 88.848C98.791 89.1705 98.2926 89.5517 97.8528 89.9914C97.4423 90.4312 97.1052 90.9443 96.8413 91.5306C96.5775 92.117 96.4455 92.8206 96.4455 93.6415H92.3997ZM92.3997 103.36V97.8193H96.4455V103.36H92.3997Z" fill="#D02E1B"/>
<path d="M170.257 38.527C171.873 38.527 173.182 37.2174 173.182 35.6019C173.182 33.9864 171.873 32.6768 170.257 32.6768C168.642 32.6768 167.332 33.9864 167.332 35.6019C167.332 37.2174 168.642 38.527 170.257 38.527Z" fill="#D02E1B"/>
<path d="M178.777 38.527C180.392 38.527 181.702 37.2174 181.702 35.6019C181.702 33.9864 180.392 32.6768 178.777 32.6768C177.161 32.6768 175.852 33.9864 175.852 35.6019C175.852 37.2174 177.161 38.527 178.777 38.527Z" fill="#D02E1B"/>
<path d="M187.425 38.527C189.041 38.527 190.35 37.2174 190.35 35.6019C190.35 33.9864 189.041 32.6768 187.425 32.6768C185.81 32.6768 184.5 33.9864 184.5 35.6019C184.5 37.2174 185.81 38.527 187.425 38.527Z" fill="#D02E1B"/>
<path d="M261.188 82.4034L263.731 79.8598C264.876 78.7152 264.876 76.9347 263.731 75.7901L259.916 71.9747C258.771 70.8301 256.991 70.8301 255.846 71.9747L255.21 72.6106C255.21 72.6106 255.592 73.5008 255.21 72.6106C252.412 75.4085 252.031 79.8598 254.193 83.0393C258.644 89.6526 264.113 95.1214 270.726 99.5727C274.033 101.735 278.357 101.353 281.155 98.5552C280.265 98.1737 281.155 98.5552 281.155 98.5552L281.791 97.9193C282.935 96.7747 282.935 94.9942 281.791 93.8496L277.975 90.0342C276.831 88.8896 275.05 88.8896 273.906 90.0342L271.362 92.5778C267.547 89.6526 264.113 86.2188 261.188 82.4034Z" fill="#D02E1B"/>
</svg>
