<svg width="176" height="114" viewBox="0 0 176 114" fill="none" xmlns="http://www.w3.org/2000/svg">
<path d="M0.746094 102.587H3.0549V113.698H0.746094V102.587ZM21.9958 110.69H17.718L16.6289 113.698H14.3027L18.7548 102.436H20.959L25.4286 113.698H23.0849L21.9958 110.69ZM21.4208 109.123L19.8613 104.774L18.2843 109.123H21.4208ZM41.747 102.587V113.698H39.4905V110.279L39.6473 106.014L36.6764 110.556H34.9774L31.9716 105.947L32.1633 110.279V113.698H29.9068V102.587H32.05L35.84 108.285L39.6299 102.587H41.747ZM66.3772 102.587V113.698H64.1207V110.279L64.2775 106.014L61.3066 110.556H59.6076L56.6018 105.947L56.7848 110.279V113.698H54.5282V102.587H56.6715L60.4614 108.285L64.2514 102.587H66.3772ZM78.5311 110.69H74.2533L73.1642 113.698H70.838L75.2901 102.436H77.4943L81.9639 113.698H79.6202L78.5311 110.69ZM77.9561 109.123L76.3966 104.774L74.8196 109.123H77.9561ZM90.6241 109.207H88.7335V113.698H86.4246V102.587H90.6763C93.595 102.587 95.0587 103.651 95.0587 105.788C95.0587 107.355 94.3443 108.36 92.9154 108.813L96.4005 113.698H93.7344L90.6241 109.207ZM88.7335 107.623H90.6676C91.3821 107.623 91.9048 107.481 92.2272 107.196C92.5669 106.911 92.7325 106.484 92.7325 105.905C92.7325 104.749 92.0442 104.171 90.6589 104.171H88.7247V107.623H88.7335ZM101.07 102.587H103.379V113.698H101.07V102.587ZM111.177 113.698H108.371L103.44 107.9V107.573L107.927 102.587H110.61L105.732 107.698L111.177 113.698ZM123.156 112.114V113.698H115.699V102.587H122.817V104.171H118.007V107.028H122.137V108.612H118.007V112.106H123.156V112.114ZM136.399 104.188H132.88V113.698H130.571V104.188H127.051V102.587H136.399V104.188ZM141.113 102.587H143.422V113.698H141.113V102.587ZM159.496 102.587V113.698L157.44 113.715L151.524 105.872L151.69 109.617V113.706H149.381V102.596H151.437L157.353 110.422L157.187 106.467V102.596H159.496V102.587ZM174.839 108.352V113.095C174.342 113.338 173.732 113.53 173.001 113.681C172.286 113.832 171.537 113.908 170.744 113.908C169.411 113.908 168.278 113.648 167.346 113.12C166.431 112.584 165.734 111.88 165.273 111.008C164.82 110.128 164.593 109.165 164.593 108.117C164.593 107.087 164.828 106.132 165.307 105.26C165.795 104.389 166.51 103.693 167.468 103.165C168.427 102.637 169.568 102.378 170.918 102.378C171.633 102.378 172.304 102.47 172.922 102.654C173.558 102.839 174.098 103.098 174.551 103.425L173.942 104.942C173.558 104.665 173.105 104.447 172.582 104.271C172.077 104.095 171.519 104.012 170.918 104.012C170.082 104.012 169.359 104.188 168.74 104.548C168.139 104.908 167.677 105.403 167.364 106.039C167.059 106.659 166.902 107.355 166.902 108.134C166.902 108.93 167.05 109.642 167.346 110.271C167.642 110.891 168.078 111.385 168.653 111.746C169.228 112.106 169.925 112.282 170.744 112.282C171.302 112.282 171.92 112.223 172.6 112.098V108.344H174.839V108.352Z" fill="black"/>
<path d="M175.561 0.578369H171.641H4.36105H0.44043V4.34903V85.7114V89.4821H4.36105H171.641H175.561V85.7114V4.34903V0.578369ZM4.36105 85.7114V4.34903H171.641V85.7114H4.36105Z" fill="black"/>
<path d="M26.8389 59.7357H33.0683V30.4083H26.8389V59.7357Z" fill="black"/>
<path d="M83.2521 59.7357H89.8736L78.4603 30.4083H70.5755L59.1621 59.7357H65.74L68.3538 52.8228H80.6819L83.2521 59.7357ZM70.4883 47.1249L74.4961 36.4833L78.5038 47.1249H70.4883Z" fill="black"/>
<path d="M132.435 30.4083L124.637 41.6784L116.796 30.4083H109.651V59.7357H115.881V38.7038L124.332 51.0631H124.898L133.393 38.7038V59.7357H139.622V30.4083H132.435Z" fill="black"/>
<path d="M45.4846 53.4513H38.9502V59.7357H45.4846V53.4513Z" fill="black"/>
<path d="M100.284 53.4513H93.75V59.7357H100.284V53.4513Z" fill="black"/>
<path d="M152.037 53.4513H145.503V59.7357H152.037V53.4513Z" fill="black"/>
</svg>
