<svg width="655" height="406" viewBox="0 0 655 406" fill="none" xmlns="http://www.w3.org/2000/svg">
<path opacity="0.5" d="M159.74 238.851L156.006 235.234L159.74 190.894H49.0073L45.2734 187.277L49.0073 152.038L141.07 7.23437L205.363 3.61719L209.097 7.23437V147.488H238.968V190.894H209.097V238.851H159.74ZM159.74 50.8739L97.1975 147.371H159.74V50.8739Z" fill="#D02E1B"/>
<path opacity="0.5" d="M259.387 123.101C259.387 63.359 288.908 3.61719 355.184 3.61719C421.11 3.61719 450.981 63.359 450.981 123.101C450.981 182.843 421.11 242.935 355.184 242.935C288.908 242.935 259.387 182.843 259.387 123.101ZM400.69 123.101C400.69 80.3948 388.205 47.3734 355.184 47.3734C321.812 47.3734 309.327 80.3948 309.327 123.101C309.327 165.807 321.812 199.178 355.184 199.178C388.205 199.178 400.69 165.924 400.69 123.101Z" fill="#D02E1B"/>
<path opacity="0.5" d="M574.779 238.851L571.045 235.234L574.779 190.894H464.046L460.312 187.277L464.046 152.038L556.109 7.23437L620.402 3.61719L624.136 7.23437V147.488L650.273 143.871L654.007 147.488V190.894H624.136V238.851H574.779ZM574.779 50.8739L512.237 147.371H574.779V50.8739Z" fill="#D02E1B"/>
<path d="M155.889 235.233V187.276H45.1562V148.421L137.103 3.5H205.129V143.753H235.117V187.16H205.246V235.116H155.889V235.233ZM155.889 47.2563L93.3465 143.753H155.889V47.2563Z" fill="#D02E1B"/>
<path d="M255.535 119.484C255.535 59.7419 285.056 0 351.332 0C417.258 0 447.129 59.7419 447.129 119.484C447.129 179.226 417.258 239.318 351.332 239.318C285.056 239.318 255.535 179.226 255.535 119.484ZM396.955 119.484C396.955 76.7776 384.47 43.7562 351.449 43.7562C318.077 43.7562 305.592 76.7776 305.592 119.484C305.592 162.19 318.077 195.561 351.449 195.561C384.47 195.561 396.955 162.307 396.955 119.484Z" fill="#D02E1B"/>
<path d="M571.045 235.233V187.276H460.312V148.421L552.259 3.5H620.285V143.753H650.156V187.16H620.285V235.116H571.045V235.233ZM571.045 47.2563L508.503 143.753H571.045V47.2563Z" fill="#D02E1B"/>
<path d="M148.301 401.274C148.301 400.107 148.185 398.707 147.951 397.54L147.718 396.606L147.485 395.673L147.251 394.856L147.135 394.273C146.668 392.406 146.201 390.655 145.618 388.905C144.568 385.755 143.517 382.488 142.351 379.104C140.134 372.453 137.683 365.335 134.766 357.751C131.966 350.166 128.699 342.115 125.081 333.714C123.214 329.513 121.348 325.196 119.247 320.879C118.197 318.662 117.147 316.445 115.98 314.228C114.813 312.011 113.646 309.677 112.48 307.344C108.279 299.642 103.495 291.708 98.5943 284.007C93.6936 276.422 88.6762 269.071 84.2422 262.654C83.6588 261.837 83.0754 261.02 82.492 260.204C81.9086 259.387 81.3251 258.57 80.7417 257.87C79.5749 256.353 78.4081 254.953 77.2412 253.786C75.0242 251.219 72.9239 249.119 71.1737 247.252C67.5565 243.634 64.8728 241.184 62.8892 241.884C61.9557 242.234 61.2556 243.284 60.9056 245.035C60.5555 246.785 60.4388 249.235 60.6722 252.036C60.9056 254.836 61.489 257.987 62.1891 261.254C62.5391 262.771 62.8892 264.404 63.2392 266.154C63.3559 266.971 63.5893 267.788 63.706 268.488L63.8226 269.071L63.9393 269.772C64.056 270.238 64.1727 270.705 64.2894 271.288C66.1563 279.34 68.9567 288.091 72.1072 296.842C75.2576 305.593 78.8748 314.228 82.2586 322.046C82.7253 323.213 83.1921 324.263 83.7755 325.429C84.2422 326.596 84.8257 327.763 85.2924 328.813C86.3425 331.03 87.3927 333.364 88.4428 335.464C90.5431 339.898 92.8768 344.099 95.0938 348.183C99.6444 356.351 104.428 363.818 109.212 370.586C113.996 377.354 118.897 383.421 123.565 388.905C125.898 391.589 128.232 394.156 130.449 396.49C131.499 397.656 132.549 398.823 133.599 399.99C134.066 400.574 134.533 401.157 134.999 401.74C135.466 402.324 135.7 403.024 135.816 403.607L148.301 401.274Z" fill="#828282"/>
<path d="M141.882 401.508C141.765 400.341 141.415 399.291 140.949 398.24C140.715 397.657 140.482 397.307 140.365 396.957L139.782 395.673C138.965 394.04 138.148 392.523 137.215 391.006L132.197 382.255C128.93 376.421 125.663 370.47 122.513 364.519C116.212 352.617 110.144 340.482 104.193 328.347C101.276 322.28 98.3592 316.095 95.3255 310.144L86.2241 292.059C83.1904 285.991 80.1566 279.923 77.2395 273.739L75.0226 269.072L72.9223 264.521C71.5221 261.604 70.0052 258.687 68.4883 255.653" stroke="#4D4D4D" stroke-width="1.5352" stroke-miterlimit="10" stroke-linecap="round" stroke-linejoin="round"/>
<path d="M84.0078 287.507C80.3906 286.224 76.7734 284.824 73.1562 283.54" stroke="#4D4D4D" stroke-width="1.5352" stroke-miterlimit="10" stroke-linecap="round" stroke-linejoin="round"/>
<path d="M88.3242 296.142L94.7418 285.641" stroke="#4D4D4D" stroke-width="1.5352" stroke-miterlimit="10" stroke-linecap="round" stroke-linejoin="round"/>
<path d="M97.6591 314.812L86.5742 313.528" stroke="#4D4D4D" stroke-width="1.5352" stroke-miterlimit="10" stroke-linecap="round" stroke-linejoin="round"/>
<path d="M104.199 328.347L110.267 315.512" stroke="#4D4D4D" stroke-width="1.5352" stroke-miterlimit="10" stroke-linecap="round" stroke-linejoin="round"/>
<path d="M111.661 343.399L97.3086 340.599" stroke="#4D4D4D" stroke-width="1.5352" stroke-miterlimit="10" stroke-linecap="round" stroke-linejoin="round"/>
<path d="M124.031 367.552L127.415 357.4" stroke="#4D4D4D" stroke-width="1.5352" stroke-miterlimit="10" stroke-linecap="round" stroke-linejoin="round"/>
<path d="M137.107 399.874C137.34 398.823 137.34 397.657 137.107 396.723C136.873 395.79 136.407 394.856 135.94 394.039C135.006 392.406 134.073 390.772 133.023 389.255C131.039 386.105 128.939 383.305 126.955 380.621C126.022 379.337 125.088 378.054 124.271 376.77C123.455 375.487 122.871 374.437 122.288 373.386C121.121 371.169 120.421 369.186 119.954 367.436C117.504 357.517 119.487 348.65 112.837 341.532C111.786 340.482 108.053 336.164 103.735 336.981C101.518 337.331 100.351 338.965 94.5172 345.149C87.3996 352.733 85.5326 354.017 83.6657 353.667C81.332 353.2 80.2819 350.4 79.3484 348.3C77.1314 343.282 78.9984 340.832 76.6647 336.048C75.9646 334.648 74.6811 331.964 72.5808 331.73C70.3638 331.38 69.3136 333.831 67.6801 333.597C66.1632 333.364 65.8131 330.914 65.3464 327.647C64.8797 324.379 64.2963 320.412 62.546 317.145C60.6791 313.528 56.1284 309.794 52.5112 311.078C50.1776 311.894 48.8941 314.578 47.7272 317.145C43.9934 325.196 46.7938 330.914 43.0599 333.714C42.8265 333.947 41.0763 335.231 39.326 334.648C36.5256 333.714 37.3424 328.813 33.7252 323.329C32.7918 321.929 30.5748 318.545 28.1244 318.895C25.5574 319.245 25.4407 323.329 22.6403 323.913C20.3066 324.379 19.1398 321.579 14.5892 319.012C13.6557 318.429 6.65468 314.461 2.92082 316.912C0.353782 318.545 -0.579682 323.213 0.353785 326.946C1.52062 331.731 5.8379 334.648 10.7386 337.798C15.756 340.948 21.4735 344.216 25.9074 349.933C27.3076 351.8 28.5912 353.784 28.4745 356.117C28.2411 360.085 23.9238 360.901 22.8737 364.168C22.5236 365.335 22.5236 366.735 22.9903 368.136C23.3404 369.536 24.2739 371.286 25.324 372.686C27.541 375.72 30.8081 378.404 34.0753 379.454C38.5092 380.854 41.6597 379.221 45.3936 377.47C49.1274 375.603 53.4447 373.62 59.8623 373.736C60.4457 373.736 62.546 373.853 64.5296 374.203C66.5132 374.67 68.6135 375.487 69.0803 376.887C70.0137 379.687 64.2963 381.554 62.546 387.622C61.1458 392.289 62.6627 398.823 66.7466 401.974C68.2635 403.141 69.8971 403.724 73.5142 403.491C77.0147 403.257 82.4989 402.207 91.2501 399.757C99.8847 397.307 104.669 395.673 108.053 394.623C111.436 393.573 113.303 393.223 115.987 393.223C118.321 393.223 121.238 393.339 124.388 394.739C125.905 395.44 127.539 396.373 128.939 397.773C129.172 398.007 129.872 398.59 130.222 398.94C130.456 399.173 130.572 399.29 130.689 399.523C130.806 399.757 131.039 399.874 131.156 400.107C131.739 400.924 132.206 402.091 132.089 403.374C132.906 402.324 133.723 401.857 134.423 401.624C135.473 401.274 136.173 401.04 137.107 399.874Z" fill="#C4C4C4"/>
<path d="M134.425 400.457C134.425 400.457 134.425 400.223 134.191 399.756C133.958 399.29 133.608 398.706 133.141 398.006C132.908 397.656 132.558 397.306 132.208 396.956C131.741 396.606 131.274 396.139 130.807 395.672C129.874 394.856 128.824 393.922 127.54 392.872C124.973 390.888 121.589 389.022 117.622 386.921C113.538 384.821 109.221 382.487 104.787 380.154C95.9191 375.486 86.7012 370.352 79.0001 366.035C71.2989 361.601 64.9981 358.1 61.6142 356.817C58.2304 355.417 53.213 353.316 47.7289 350.749C42.2448 348.066 36.1773 344.682 30.8098 341.415C25.4424 338.031 20.425 334.764 16.9245 332.43C13.424 329.98 11.207 328.463 11.207 328.463" stroke="#666666" stroke-width="1.784" stroke-miterlimit="10" stroke-linecap="round" stroke-linejoin="round"/>
<path d="M61.4969 356.817C53.0957 360.435 44.5779 363.818 35.4766 366.502L61.4969 356.817Z" fill="#F29C1F"/>
<path d="M61.4969 356.817C53.0957 360.435 44.5779 363.818 35.4766 366.502" stroke="#666666" stroke-width="1.784" stroke-miterlimit="10" stroke-linecap="round" stroke-linejoin="round"/>
<path d="M56.712 354.834C55.5451 344.683 54.845 334.531 55.4285 324.847L56.712 354.834Z" fill="#F29C1F"/>
<path d="M56.712 354.834C55.5451 344.683 54.845 334.531 55.4285 324.847" stroke="#666666" stroke-width="1.784" stroke-miterlimit="10" stroke-linecap="round" stroke-linejoin="round"/>
<path d="M105.602 380.737C96.3837 384.588 87.1657 388.322 77.5977 391.822L105.602 380.737Z" fill="#F29C1F"/>
<path d="M105.602 380.737C96.3837 384.588 87.1657 388.322 77.5977 391.822" stroke="#666666" stroke-width="1.784" stroke-miterlimit="10" stroke-linecap="round" stroke-linejoin="round"/>
<path d="M101.637 378.637C101.753 368.953 102.103 359.384 102.687 349.816" stroke="#666666" stroke-width="1.784" stroke-miterlimit="10" stroke-linecap="round" stroke-linejoin="round"/>
<path d="M70.5966 361.369C70.48 354.951 70.3633 348.65 70.3633 342.232L70.5966 361.369Z" fill="#F29C1F"/>
<path d="M70.5966 361.369C70.48 354.951 70.3633 348.65 70.3633 342.232" stroke="#666666" stroke-width="1.784" stroke-miterlimit="10" stroke-linecap="round" stroke-linejoin="round"/>
<path d="M153.562 399.407C158.113 399.641 168.965 399.641 180.516 393.223C192.768 386.456 198.719 376.538 200.819 372.57C198.719 374.087 195.452 376.304 191.135 378.638C182.383 383.422 177.483 384.355 170.715 387.622C166.398 389.606 160.33 393.223 153.562 399.407Z" fill="#868686"/>
<path d="M153.562 399.057C160.33 396.373 169.081 391.822 176.549 383.654C178.883 381.087 182.15 377.47 184.717 371.753C187.517 365.335 187.867 359.618 187.867 356.117C186 359.618 182.733 364.985 177.599 370.586C172.815 375.72 169.898 377.237 165.348 381.904C162.08 385.288 157.53 390.772 153.562 399.057Z" fill="#868686"/>
<path d="M153.562 398.59C157.063 395.79 165.231 388.439 169.665 376.07C174.332 362.885 172.115 351.45 171.065 347.133C166.631 355.767 162.197 366.269 158.463 378.287C156.363 385.522 154.729 392.289 153.562 398.59Z" fill="#868686"/>
<path d="M152.858 399.991C160.559 387.622 161.026 378.871 159.859 373.153C159.159 369.653 157.642 365.802 157.642 359.385C157.642 353.551 158.926 348.883 160.092 345.85C157.409 348.067 153.441 351.8 151.224 357.635C149.941 360.902 149.124 364.869 150.408 379.221C150.758 384.472 151.575 391.589 152.858 399.991Z" fill="#868686"/>
<path d="M152.862 399.524C153.445 387.272 151.578 377.938 149.945 371.987C147.844 364.519 145.628 361.018 143.877 358.801C139.793 353.551 134.776 350.75 131.742 349.467C133.609 352.034 136.293 356.118 138.393 361.602C141.427 369.536 140.96 373.97 143.06 381.088C144.344 385.755 147.028 392.29 152.862 399.524Z" fill="#868686"/>
<path d="M153.908 399.524C153.091 395.09 150.407 384.472 141.306 374.788C131.738 364.519 120.653 361.252 116.336 360.202C121.937 368.137 129.171 376.888 138.156 385.756C143.64 391.007 148.891 395.557 153.908 399.524Z" fill="#868686"/>
<path d="M155.66 399.524C152.86 395.673 145.742 386.689 132.79 381.204C120.072 375.837 108.87 376.887 104.086 377.587C119.838 382.605 128.823 388.089 134.19 392.523C136.641 394.506 143.175 400.224 151.693 399.99C153.326 399.99 154.727 399.757 155.66 399.524Z" fill="#868686"/>
<path d="M577.242 391.939C586.927 392.523 594.628 391.006 599.178 389.839C603.262 388.789 606.413 387.505 608.28 386.805C615.047 384.005 630.333 376.537 629.633 369.536C629.049 362.768 613.997 360.201 612.13 359.968C616.914 359.851 624.965 358.918 633.717 354.484C635.35 353.667 640.018 351.217 644.335 347.95C646.435 346.316 648.536 344.449 649.936 342.465C650.636 341.532 651.219 340.482 651.569 339.432C651.919 338.382 652.153 337.331 652.036 336.165C651.919 330.097 643.752 325.78 633.367 325.196C634.534 323.796 636.284 321.812 637.801 319.596C639.318 317.262 640.951 314.695 642.351 311.894C642.701 311.194 643.518 309.561 644.452 307.694C645.385 305.71 646.435 303.377 647.369 300.926C649.469 296.025 651.803 289.958 649.236 286.224C647.719 283.89 644.802 282.957 642.001 282.607C639.201 282.257 636.167 282.607 634.65 282.957C632.2 283.424 629.75 284.24 627.649 285.524C625.549 286.691 623.682 288.091 622.048 289.491C618.898 292.292 616.914 294.975 615.864 296.376C612.13 301.393 611.547 302.91 610.73 305.827C609.447 299.526 606.996 294.859 604.079 292.058C601.162 289.258 597.778 288.208 594.978 288.558C594.044 288.674 593.111 289.024 592.294 289.491C591.594 289.958 590.661 290.658 589.844 291.592C588.327 293.342 586.927 295.675 585.76 298.009C583.426 302.676 582.026 307.577 581.676 308.861C578.175 321.112 580.626 331.264 582.259 336.165C580.276 332.431 573.275 319.829 566.974 321.812C563.357 322.979 560.79 328.697 559.273 335.464C557.756 342.115 557.289 349.816 557.289 354.601C557.289 357.168 557.522 362.535 559.039 368.953C561.256 378.287 564.874 384.238 565.574 385.405C567.091 387.972 568.607 389.956 569.658 391.356C571.641 391.239 574.092 391.706 577.242 391.939Z" fill="#ACACAC"/>
<path d="M563.824 402.323C563.824 402.323 564.758 400.69 566.275 397.773C567.091 396.256 567.908 394.506 569.075 392.522C570.125 390.538 571.525 388.321 572.926 385.871C578.76 376.07 586.928 363.235 595.912 350.516C604.897 337.798 614.465 325.196 622.049 315.278C625.9 310.26 629.05 305.943 631.617 302.676C634.184 299.409 636.051 297.308 636.751 296.375" stroke="#666666" stroke-width="2.0192" stroke-miterlimit="10" stroke-linecap="round" stroke-linejoin="round"/>
<path d="M606.535 336.048C603.851 323.796 601.517 311.311 599.184 298.942" stroke="#666666" stroke-width="2.0192" stroke-miterlimit="10" stroke-linecap="round" stroke-linejoin="round"/>
<path d="M603.613 340.365C615.865 339.199 628.117 338.382 640.252 337.682" stroke="#666666" stroke-width="2.0192" stroke-miterlimit="10" stroke-linecap="round" stroke-linejoin="round"/>
<path d="M579.457 374.319C576.073 363.001 573.156 351.333 570.473 339.548" stroke="#666666" stroke-width="2.0192" stroke-miterlimit="10" stroke-linecap="round" stroke-linejoin="round"/>
<path d="M577.59 378.287C590.542 376.07 603.377 374.554 616.095 373.387" stroke="#666666" stroke-width="2.0192" stroke-miterlimit="10" stroke-linecap="round" stroke-linejoin="round"/>
<path d="M561.248 403.024C561.715 401.857 562.531 400.807 563.232 399.991C564.165 398.707 565.098 397.423 565.915 396.023C566.732 394.74 567.432 393.34 568.132 392.056C569.649 389.606 571.166 387.389 572.683 385.405C575.717 381.555 578.867 378.754 581.317 377.237C585.285 374.787 589.369 373.387 592.986 371.636C596.603 369.77 599.753 367.786 601.97 363.352C602.671 362.068 605.238 356.934 603.371 352.967C602.32 350.984 600.687 350.4 593.452 347.25C584.701 343.399 582.951 342.349 582.601 340.599C582.251 338.382 584.118 336.281 585.518 334.648C588.902 330.797 591.586 331.614 594.736 327.53C595.67 326.363 597.303 324.03 596.72 321.929C596.136 319.712 593.686 319.946 593.219 318.312C592.752 316.795 594.619 315.278 596.953 313.178C599.287 311.078 602.204 308.161 603.837 304.077C605.704 299.293 605.821 293.109 602.904 291.125C601.037 289.725 598.353 290.425 595.786 291.008C587.852 292.875 585.285 298.359 581.201 297.076C580.851 296.959 578.984 296.376 578.517 294.859C577.584 292.292 581.668 290.075 583.418 284.357C583.651 283.657 584.001 282.374 584.235 281.09C584.351 279.807 584.235 278.757 583.534 277.823C582.718 276.773 581.551 277.006 580.267 277.24C579.1 277.473 577.817 277.59 576.767 276.656C575.017 275.139 576.3 272.456 574.9 267.788C574.783 267.322 574.2 265.338 573.15 263.354C572.099 261.371 570.699 259.504 568.716 259.037C567.315 258.687 565.799 259.154 564.282 260.087C562.765 261.021 561.481 262.421 560.548 264.054C558.331 268.255 559.381 272.572 560.198 276.656C560.314 277.24 560.431 277.59 560.431 278.29C560.548 278.99 560.548 279.69 560.664 280.39C560.781 281.79 560.898 283.191 561.015 284.707C561.131 287.625 560.898 290.658 560.081 293.692C559.498 295.676 558.798 297.543 557.047 298.593C554.014 300.343 551.096 297.893 548.179 298.826C546.079 299.526 544.212 301.627 543.045 304.077C541.878 306.644 541.295 309.561 541.995 312.011C542.812 315.278 545.496 316.912 548.529 318.896C551.563 320.879 554.947 323.33 557.281 328.464C557.747 329.397 560.198 335.348 557.981 337.098C555.997 338.732 552.263 334.881 546.662 335.581C542.345 336.048 537.328 339.082 536.161 342.816C535.694 344.216 535.811 345.616 537.094 348.3C538.495 350.984 541.062 354.834 545.612 361.368C554.714 374.787 556.581 376.187 557.981 380.854C558.564 382.838 559.031 385.405 559.148 388.556C559.148 389.372 559.148 390.189 559.031 391.006C559.031 391.823 558.914 392.873 558.798 393.456C558.564 394.973 558.097 396.49 557.047 398.124C556.814 398.357 556.697 398.707 556.464 398.94C556.231 399.407 555.88 399.874 555.647 400.457C556.814 400.341 557.631 401.157 558.447 401.857C559.264 402.441 560.198 403.141 561.248 403.024Z" fill="#828282"/>
<path d="M558.684 400.224C558.684 400.224 558.8 400.107 558.917 399.757C559.034 399.524 559.15 399.174 559.384 398.707C559.85 397.774 560.551 396.14 561.017 394.04C561.484 391.59 562.067 388.672 562.768 385.405C564.051 378.754 565.685 370.587 567.085 362.302C568.602 354.134 570.002 345.85 570.819 338.849C571.635 331.848 571.985 326.13 571.752 323.096C571.519 319.829 571.285 314.929 570.702 309.445C570.235 303.96 569.535 297.893 568.952 292.175C568.718 289.258 568.368 286.575 568.135 284.008C567.902 281.441 567.785 279.224 567.552 277.24C567.435 275.49 567.201 273.973 566.968 272.923C566.735 271.872 566.735 271.289 566.735 271.289" stroke="#4D4D4D" stroke-width="1.5352" stroke-miterlimit="10" stroke-linecap="round" stroke-linejoin="round"/>
<path d="M571.636 323.213C565.452 317.729 559.034 312.711 552.5 307.811" stroke="#4D4D4D" stroke-width="1.5352" stroke-miterlimit="10" stroke-linecap="round" stroke-linejoin="round"/>
<path d="M571.398 318.428C579.216 313.294 586.801 307.694 594.385 302.093" stroke="#4D4D4D" stroke-width="1.5352" stroke-miterlimit="10" stroke-linecap="round" stroke-linejoin="round"/>
<path d="M565.916 368.253C560.082 361.252 554.248 354.484 548.297 347.95" stroke="#4D4D4D" stroke-width="1.5352" stroke-miterlimit="10" stroke-linecap="round" stroke-linejoin="round"/>
<path d="M566.617 364.286C575.018 361.836 583.42 359.269 591.821 356.585" stroke="#4D4D4D" stroke-width="1.5352" stroke-miterlimit="10" stroke-linecap="round" stroke-linejoin="round"/>
<path d="M571.398 332.431C576.649 329.981 581.9 327.414 587.151 324.847" stroke="#4D4D4D" stroke-width="1.5352" stroke-miterlimit="10" stroke-linecap="round" stroke-linejoin="round"/>
<path d="M553.194 401.624C553.194 400.107 552.494 374.437 547.71 364.285C546.893 362.652 545.843 360.318 543.392 358.335C540.242 355.768 538.142 356.584 533.824 354.017C530.207 351.917 526.007 348.183 526.707 346.316C527.174 345.033 529.741 344.566 531.841 345.033C535.458 345.849 535.575 349.583 539.659 350.75C541.409 351.217 543.859 351.334 544.559 350.167C545.259 349 543.976 347.016 543.509 346.433C541.642 343.749 539.192 342.582 534.641 340.599C528.107 337.798 525.89 336.982 522.74 334.881C518.072 331.731 518.072 330.214 518.072 329.63C518.189 327.88 520.406 326.13 522.389 326.13C523.556 326.13 524.14 326.83 528.107 330.797C529.624 332.314 531.141 333.714 533.241 335.231C535.691 336.981 536.858 337.332 537.792 336.865C538.375 336.631 538.842 336.048 538.959 335.465C539.775 332.197 531.374 327.18 528.574 325.547C525.54 323.796 523.556 322.863 520.406 320.296C516.555 317.145 516.439 315.745 516.555 315.045C516.789 313.878 518.189 313.061 519.356 312.828C520.172 312.711 521.573 312.828 525.073 315.745C527.29 317.612 528.924 319.479 529.857 320.529C533.241 324.496 534.174 326.48 535.808 326.363C536.625 326.363 537.558 325.78 537.908 324.963C539.425 320.996 526.473 310.728 519.589 305.944C516.789 303.96 513.638 301.977 513.872 299.526C513.988 297.543 516.089 295.676 518.189 295.559C520.873 295.442 522.739 298.243 524.023 300.11C525.89 302.91 525.307 303.843 527.64 307.694C530.091 311.895 531.724 312.478 532.424 312.595C533.358 312.828 535.225 312.828 535.925 311.895C536.275 311.428 536.742 310.144 533.124 303.727C529.857 298.009 528.34 296.959 528.34 294.159C528.34 291.592 529.507 288.558 531.257 288.325C532.891 288.091 534.525 290.308 535.341 291.942C536.625 294.625 535.575 295.909 536.625 301.276C537.208 304.194 537.792 305.127 538.492 305.36C539.659 305.71 540.942 304.544 541.292 304.194C544.793 300.926 542.226 296.376 545.259 290.542C545.959 289.141 547.476 286.341 550.627 285.291C553.194 284.474 556.928 284.941 558.678 287.624C560.428 290.191 559.495 293.809 558.211 295.792C556.228 298.943 553.777 298.009 548.293 301.976C546.193 303.493 541.526 306.877 542.109 310.261C542.109 310.494 542.459 312.011 543.509 312.478C545.726 313.411 548.176 308.861 554.244 306.527C555.878 305.944 559.961 304.31 561.595 306.06C562.879 307.344 562.412 310.378 561.012 312.011C560.078 313.178 559.028 313.178 554.361 314.345C548.643 315.745 547.476 316.329 546.426 317.262C544.909 318.546 543.276 320.996 544.093 322.396C544.793 323.68 547.126 323.68 549.227 323.68C554.944 323.563 556.461 321.346 561.362 321.579C562.879 321.579 566.496 321.813 567.429 323.913C568.013 325.197 567.429 327.063 566.379 328.114C564.512 329.981 561.012 329.397 557.861 328.814C554.944 328.23 554.827 327.764 551.794 327.297C548.877 326.947 546.893 326.713 545.493 327.997C544.443 329.047 543.859 331.147 544.559 332.314C545.259 333.481 547.01 333.248 553.661 333.131C555.061 333.131 557.161 333.131 561.362 333.248C567.196 333.364 568.596 333.481 569.296 334.531C570.113 335.698 569.996 337.798 568.946 338.732C568.596 339.082 567.896 339.432 564.629 339.082C561.595 338.732 561.245 338.265 558.911 338.032C555.294 337.565 553.194 338.148 552.027 338.615C550.86 339.082 549.577 339.549 549.343 340.482C549.11 341.766 550.394 343.166 551.794 343.983C553.894 345.149 555.411 344.333 561.362 343.632C567.546 342.932 569.063 343.282 570.113 344.216C570.23 344.333 572.097 345.849 571.863 347.6C571.63 349.233 569.88 350.05 568.946 350.517C565.912 352.034 562.529 351.217 561.362 350.984C559.145 350.4 558.211 349.583 556.228 349.817C555.644 349.933 554.244 350.05 553.194 351.1C552.027 352.267 551.677 354.017 552.144 357.051C552.844 361.952 554.944 364.869 556.228 367.786C557.745 370.936 558.095 374.67 558.911 382.138C559.495 387.039 559.845 393.69 559.145 401.624C557.394 401.507 555.294 401.624 553.194 401.624Z" fill="#C1C1C1"/>
<path d="M131.734 393.339C124.85 393.806 119.366 392.639 116.099 391.823C113.182 391.122 110.965 390.189 109.565 389.606C104.781 387.622 93.8124 382.255 94.2791 377.237C94.7458 372.453 105.364 370.586 106.764 370.353C103.38 370.236 97.6629 369.653 91.4787 366.386C90.3119 365.802 86.928 364.052 83.8943 361.718C82.3774 360.551 80.9772 359.268 79.927 357.868C79.4603 357.168 78.9936 356.467 78.7602 355.651C78.5268 354.951 78.4102 354.134 78.4102 353.317C78.5268 349 84.2443 345.966 91.7121 345.499C90.8953 344.566 89.7284 343.049 88.5616 341.532C87.3948 339.898 86.3446 338.032 85.2945 336.048C85.0611 335.581 84.4777 334.414 83.7776 333.014C83.0775 331.614 82.3774 329.98 81.6773 328.23C80.1604 324.73 78.5268 320.412 80.2771 317.845C81.4439 316.212 83.4275 315.512 85.4112 315.278C87.3948 315.045 89.4951 315.278 90.6619 315.512C92.4122 315.862 94.1624 316.445 95.6793 317.262C97.1962 318.079 98.4797 319.129 99.6465 320.062C101.864 322.046 103.264 323.913 104.08 324.963C106.648 328.58 107.114 329.63 107.814 331.731C108.748 327.18 110.498 323.913 112.482 321.929C114.582 319.946 116.916 319.129 119.016 319.479C119.716 319.596 120.299 319.829 120.883 320.179C121.466 320.529 122.05 320.996 122.633 321.696C123.8 322.979 124.733 324.613 125.55 326.247C127.184 329.63 128.234 333.014 128.467 333.948C130.918 342.699 129.284 349.933 128.001 353.434C129.401 350.75 134.301 341.765 138.852 343.166C141.419 343.982 143.286 348.066 144.336 352.85C145.386 357.634 145.736 363.002 145.736 366.386C145.736 368.253 145.62 371.986 144.453 376.537C142.819 383.188 140.369 387.389 139.786 388.322C138.735 390.072 137.685 391.589 136.869 392.523C135.702 392.873 133.951 393.223 131.734 393.339Z" fill="#B8B8B8"/>
<path d="M141.303 400.807C141.303 400.807 140.603 399.64 139.553 397.54C138.969 396.49 138.386 395.206 137.569 393.806C136.752 392.406 135.819 390.772 134.769 389.022C130.685 382.021 124.734 372.92 118.433 363.935C112.015 354.951 105.248 345.966 99.7637 338.848C97.08 335.348 94.7463 332.197 92.9961 329.864C91.1291 327.53 89.8456 326.013 89.3789 325.43" stroke="#5D5D5D" stroke-width="1.6688" stroke-miterlimit="10" stroke-linecap="round" stroke-linejoin="round"/>
<path d="M110.844 353.55C112.711 344.799 114.461 335.931 116.094 327.18" stroke="#5D5D5D" stroke-width="1.6688" stroke-miterlimit="10" stroke-linecap="round" stroke-linejoin="round"/>
<path d="M112.953 356.701C104.202 355.884 95.5677 355.301 86.8164 354.834" stroke="#5D5D5D" stroke-width="1.6688" stroke-miterlimit="10" stroke-linecap="round" stroke-linejoin="round"/>
<path d="M130.102 380.854C132.552 372.803 134.652 364.518 136.519 356.117" stroke="#5D5D5D" stroke-width="1.6688" stroke-miterlimit="10" stroke-linecap="round" stroke-linejoin="round"/>
<path d="M131.503 383.655C122.285 382.021 113.183 380.971 104.082 380.154" stroke="#5D5D5D" stroke-width="1.6688" stroke-miterlimit="10" stroke-linecap="round" stroke-linejoin="round"/>
<path d="M145.621 399.291C143.637 395.557 140.837 392.64 138.503 390.423C137.453 389.489 136.403 388.439 135.236 387.389C134.303 386.455 133.369 385.639 132.436 384.705C128.235 380.621 123.801 376.537 119.717 372.454C115.517 368.136 111.083 363.002 105.599 357.518C100.115 352.034 94.1638 346.55 87.6295 341.182C65.693 323.213 33.6051 303.26 29.2878 308.161C24.9706 313.062 48.6573 341.766 69.3102 361.719C75.2611 367.436 81.2119 372.687 86.9294 377.354C92.6469 382.138 98.5977 386.806 104.899 390.539C111.2 394.273 117.15 396.84 122.518 398.941C128.235 401.391 133.136 401.858 137.103 404.891L145.621 399.291Z" fill="#828282"/>
<path d="M140.952 401.507C138.619 398.59 135.818 396.723 133.251 395.206L129.751 393.106L128.934 392.639L128 392.056L126.25 390.889C121.583 387.855 117.032 384.938 112.715 381.555C108.398 378.287 104.314 374.554 100.23 370.82C96.1458 367.086 92.0619 363.352 87.8613 359.618C71.2923 344.799 54.4899 330.214 37.6875 315.745" stroke="#4D4D4D" stroke-width="1.5352" stroke-miterlimit="10" stroke-linecap="round" stroke-linejoin="round"/>
<path d="M59.9748 334.882L50.5234 335.349" stroke="#4D4D4D" stroke-width="1.5352" stroke-miterlimit="10" stroke-linecap="round" stroke-linejoin="round"/>
<path d="M65.9258 340.132L67.5594 330.214" stroke="#4D4D4D" stroke-width="1.5352" stroke-miterlimit="10" stroke-linecap="round" stroke-linejoin="round"/>
<path d="M78.7625 351.45L69.8945 353.901" stroke="#4D4D4D" stroke-width="1.5352" stroke-miterlimit="10" stroke-linecap="round" stroke-linejoin="round"/>
<path d="M87.9805 359.735L88.5639 348.066" stroke="#4D4D4D" stroke-width="1.5352" stroke-miterlimit="10" stroke-linecap="round" stroke-linejoin="round"/>
<path d="M98.1288 368.953C94.1615 369.653 90.311 370.353 86.3438 371.053" stroke="#4D4D4D" stroke-width="1.5352" stroke-miterlimit="10" stroke-linecap="round" stroke-linejoin="round"/>
<path d="M114.934 383.305C114.584 380.505 114.351 377.588 114.234 374.787" stroke="#4D4D4D" stroke-width="1.5352" stroke-miterlimit="10" stroke-linecap="round" stroke-linejoin="round"/>
<path d="M346.312 393.573C346.079 391.122 346.196 388.555 346.896 385.872C347.596 382.954 348.646 380.621 349.58 378.52C350.513 376.42 351.563 374.553 352.263 373.153C352.963 371.636 357.631 362.185 358.097 361.368L358.447 360.785C358.447 360.785 359.381 359.151 359.614 358.684C361.715 354.95 364.165 351.333 366.615 347.833C369.066 344.332 371.633 340.948 374.083 337.681C375.25 336.164 376.65 334.298 378.05 332.547C379.45 330.797 380.851 329.047 382.368 327.18C388.318 320.062 394.736 312.828 401.97 305.593C405.004 302.56 408.155 299.643 411.538 296.609C414.922 293.575 418.423 290.541 422.04 287.624C425.657 284.707 429.391 281.907 433.125 279.34C436.859 276.773 440.592 274.672 443.976 272.689C457.862 264.871 469.18 260.67 471.98 263.937C474.781 267.088 469.297 277.356 459.962 289.724C458.795 291.241 439.892 316.212 437.092 319.712C434.292 323.213 431.374 326.83 428.574 330.097C422.273 337.681 415.739 344.566 409.321 350.75C406.054 353.9 402.904 356.817 399.52 359.851C396.253 362.768 392.986 365.452 389.952 367.902C386.918 370.353 384.001 372.686 381.201 374.903C380.501 375.487 379.8 376.07 379.1 376.654C378.4 377.237 374.2 380.854 372.799 381.904C371.399 383.071 370.116 384.121 368.716 385.171C367.432 386.105 366.149 387.038 364.982 387.972C363.815 388.905 362.765 389.839 361.831 390.889C360.898 391.939 360.198 393.223 359.731 394.623L346.312 393.573Z" fill="#828282"/>
<path d="M353.195 393.456C353.429 391.239 354.129 389.138 355.179 387.038C356.229 385.055 357.279 383.421 358.446 381.904C359.613 380.387 360.663 379.22 361.713 377.82L371.048 366.035C373.265 363.351 375.482 360.901 377.815 358.334C377.815 358.334 427.756 304.426 432.423 299.759C437.091 294.975 441.758 290.424 446.659 286.107L461.827 273.155" stroke="#4D4D4D" stroke-width="1.7859" stroke-miterlimit="10" stroke-linecap="round" stroke-linejoin="round"/>
<path d="M435.695 296.375C439.663 296.492 443.63 296.608 447.597 296.958" stroke="#4D4D4D" stroke-width="1.7859" stroke-miterlimit="10" stroke-linecap="round" stroke-linejoin="round"/>
<path d="M429.159 303.143C427.876 299.059 426.592 294.975 425.309 290.774" stroke="#4D4D4D" stroke-width="1.7859" stroke-miterlimit="10" stroke-linecap="round" stroke-linejoin="round"/>
<path d="M415.039 318.079L426.591 320.646" stroke="#4D4D4D" stroke-width="1.7859" stroke-miterlimit="10" stroke-linecap="round" stroke-linejoin="round"/>
<path d="M404.999 329.047L402.082 314.462" stroke="#4D4D4D" stroke-width="1.7859" stroke-miterlimit="10" stroke-linecap="round" stroke-linejoin="round"/>
<path d="M393.684 341.182L408.969 343.165" stroke="#4D4D4D" stroke-width="1.7859" stroke-miterlimit="10" stroke-linecap="round" stroke-linejoin="round"/>
<path d="M375.483 361.019C375.017 357.401 374.666 353.667 374.316 349.934" stroke="#4D4D4D" stroke-width="1.7859" stroke-miterlimit="10" stroke-linecap="round" stroke-linejoin="round"/>
<path d="M341.879 400.106C341.646 399.756 341.296 399.523 340.829 398.706C340.596 398.24 340.246 397.773 340.012 397.073C339.896 396.723 339.662 396.373 339.546 396.023C339.429 395.672 339.196 395.322 339.079 394.856C337.912 392.172 336.745 389.372 335.579 386.338C334.995 384.938 334.528 383.537 333.945 382.021C333.478 380.737 332.895 379.453 332.428 378.17C331.378 375.603 330.094 372.919 328.811 370.119C326.244 364.518 323.21 358.45 319.826 351.8C319.009 350.166 311.425 334.18 309.675 330.447C303.841 317.728 296.956 302.326 292.406 289.374C291.239 285.99 290.422 282.956 289.722 280.156C289.022 277.472 288.438 275.022 287.972 272.805C287.505 270.588 287.272 268.838 287.622 267.554C287.855 266.271 288.555 265.454 289.372 264.987C290.189 264.52 291.122 264.52 292.289 264.637C293.456 264.754 294.739 265.221 296.606 266.504C298.823 267.904 301.04 270.005 303.141 272.222C305.358 274.438 307.458 276.655 309.441 278.756C318.659 288.44 329.394 302.209 337.212 315.861C339.429 319.828 341.529 323.679 343.28 327.646C345.03 331.497 346.663 335.347 348.064 339.198C350.864 346.899 352.964 354.6 354.131 362.068C354.715 365.802 355.065 369.419 355.181 372.919C355.181 374.669 355.181 376.42 355.181 378.053C355.181 379.687 355.065 381.087 354.948 382.604C354.831 385.521 354.598 388.438 354.248 391.238C354.014 393.806 354.131 396.723 353.431 399.173L341.879 400.106Z" fill="#828282"/>
<path d="M347.713 399.172C347.713 398.239 347.596 397.189 347.246 395.905L346.779 393.688C346.662 392.872 346.546 392.171 346.429 391.471C346.429 391.471 343.745 375.952 343.512 374.552C342.929 371.869 342.229 369.185 341.528 366.384C338.495 355.533 333.827 345.031 329.043 334.647C324.259 324.262 318.775 314.11 312.941 304.076C310.024 299.058 301.273 284.239 299.872 281.906C298.472 279.455 297.189 276.888 295.672 274.321" stroke="#4D4D4D" stroke-width="1.5352" stroke-miterlimit="10" stroke-linecap="round" stroke-linejoin="round"/>
<path d="M310.848 300.576L313.648 290.541" stroke="#4D4D4D" stroke-width="1.5352" stroke-miterlimit="10" stroke-linecap="round" stroke-linejoin="round"/>
<path d="M314.925 307.576C311.191 307.576 307.457 307.693 303.84 307.809" stroke="#4D4D4D" stroke-width="1.5352" stroke-miterlimit="10" stroke-linecap="round" stroke-linejoin="round"/>
<path d="M323.445 323.212C325.196 320.295 326.946 317.378 328.696 314.461" stroke="#4D4D4D" stroke-width="1.5352" stroke-miterlimit="10" stroke-linecap="round" stroke-linejoin="round"/>
<path d="M329.044 334.764C324.844 333.948 320.76 333.247 316.676 332.664" stroke="#4D4D4D" stroke-width="1.5352" stroke-miterlimit="10" stroke-linecap="round" stroke-linejoin="round"/>
<path d="M334.762 347.716C337.095 343.982 339.312 340.248 341.529 336.397" stroke="#4D4D4D" stroke-width="1.5352" stroke-miterlimit="10" stroke-linecap="round" stroke-linejoin="round"/>
<path d="M342.229 369.186C339.428 367.902 336.628 366.619 333.711 365.568" stroke="#4D4D4D" stroke-width="1.5352" stroke-miterlimit="10" stroke-linecap="round" stroke-linejoin="round"/>
<path d="M349.463 403.024C349.113 403.024 348.88 403.024 348.53 402.907C348.179 402.907 347.946 402.79 347.479 402.674C347.129 402.557 346.663 402.44 346.312 402.324L345.262 401.974C343.979 401.39 342.929 400.923 341.995 400.34C341.062 399.757 340.245 399.29 339.428 398.707C338.611 398.123 337.795 397.656 337.211 397.306C337.095 397.19 336.978 397.19 336.861 397.073H336.744C336.744 397.073 336.744 397.073 336.744 396.956L337.445 396.023C337.678 395.673 336.044 398.006 336.744 397.073C336.744 397.073 312.941 383.888 310.841 382.721C308.857 381.554 306.757 380.387 304.657 379.22C297.772 375.136 289.021 370.936 281.787 367.435C274.552 363.935 269.068 361.018 269.418 358.801C269.768 356.7 275.836 355.3 284.47 355.65C288.788 355.767 293.688 356.467 298.589 357.517C303.49 358.684 308.624 360.318 313.058 362.418C315.625 363.585 317.958 364.868 320.292 366.152C322.509 367.435 324.609 368.836 326.71 370.352C330.677 373.269 334.294 376.303 337.328 379.337C338.845 380.854 340.362 382.371 341.645 383.888C342.345 384.704 342.929 385.405 343.512 386.221C344.096 386.921 344.912 387.972 345.379 388.672C346.313 390.305 347.129 391.705 348.063 393.106C348.88 394.389 349.813 395.673 351.097 396.373L349.463 403.024Z" fill="#BCBCBC"/>
<path d="M349.699 399.406C349.466 399.29 349.116 399.29 348.882 399.173C348.532 399.056 348.299 398.939 347.949 398.823C347.365 398.589 346.899 398.239 346.432 397.889C345.498 397.306 344.798 396.606 344.098 396.022C342.698 394.739 341.531 393.455 340.481 392.405C340.248 392.172 339.898 391.939 339.664 391.588L336.747 389.138C335.464 388.088 334.063 387.038 332.663 385.988C327.179 381.904 321.462 378.053 315.511 374.553C309.56 371.052 303.259 368.018 296.725 365.568C290.191 363.118 283.306 361.251 276.422 359.851" stroke="#6C6C6C" stroke-width="0.9249" stroke-miterlimit="10" stroke-linecap="round" stroke-linejoin="round"/>
<path d="M294.269 364.635C293.336 362.768 292.402 360.901 291.469 359.034" stroke="#6C6C6C" stroke-width="0.9249" stroke-miterlimit="10" stroke-linecap="round" stroke-linejoin="round"/>
<path d="M298.939 366.385C297.189 367.785 295.555 369.302 293.922 370.819" stroke="#6C6C6C" stroke-width="0.9249" stroke-miterlimit="10" stroke-linecap="round" stroke-linejoin="round"/>
<path d="M308.74 370.819C308.623 368.835 308.39 366.735 308.156 364.635" stroke="#6C6C6C" stroke-width="0.9249" stroke-miterlimit="10" stroke-linecap="round" stroke-linejoin="round"/>
<path d="M315.505 374.553C313.172 375.603 310.838 376.653 308.621 377.82" stroke="#6C6C6C" stroke-width="0.9249" stroke-miterlimit="10" stroke-linecap="round" stroke-linejoin="round"/>
<path d="M322.744 378.987C322.627 376.303 322.511 373.736 322.277 371.053" stroke="#6C6C6C" stroke-width="0.9249" stroke-miterlimit="10" stroke-linecap="round" stroke-linejoin="round"/>
<path d="M334.062 387.038C332.195 387.388 330.445 387.855 328.578 388.322" stroke="#6C6C6C" stroke-width="0.9249" stroke-miterlimit="10" stroke-linecap="round" stroke-linejoin="round"/>
<path d="M346.895 395.907C347.245 394.623 347.711 393.34 348.411 392.056C348.995 390.773 349.928 389.373 350.628 388.322C351.329 387.272 351.912 386.339 351.795 386.105C352.495 385.055 353.195 384.005 354.012 382.955C357.163 378.871 360.897 375.254 364.047 372.453C367.431 369.536 371.515 366.386 376.765 363.585C378.049 362.885 379.449 362.185 380.849 361.602C382.133 361.018 383.533 360.435 384.933 359.968C387.85 358.918 391.001 358.101 394.385 357.518C397.185 357.051 400.335 356.701 403.486 356.701C405.119 356.701 406.636 356.701 408.27 356.935C408.62 356.935 409.087 357.051 409.437 357.051L410.487 357.285C411.187 357.401 411.887 357.518 412.471 357.635C417.838 358.801 422.622 360.435 426.939 362.302C431.14 364.169 434.874 366.153 437.674 368.253C440.475 370.353 442.225 372.453 442.575 374.67C442.808 376.887 441.525 379.104 439.074 381.088C436.624 383.188 433.007 384.939 428.923 386.455C424.839 387.972 420.522 389.256 416.321 390.306L414.804 390.656L399.635 395.09C399.052 395.207 398.585 395.323 398.119 395.44C397.068 395.673 396.135 395.907 395.085 396.14C391.001 397.074 386.567 398.24 382.016 399.174C377.466 400.107 373.615 400.224 369.764 400.807C369.298 400.924 367.664 401.158 367.664 401.158C367.431 401.158 367.197 401.158 366.847 401.391C365.681 401.741 364.864 401.858 363.93 401.974C362.18 402.208 360.313 402.558 358.913 403.491L346.895 395.907Z" fill="#B8B8B8"/>
<path d="M353.195 399.291C353.779 398.241 354.596 397.424 355.529 396.607C356.462 395.79 357.279 395.09 358.096 394.507C358.446 394.274 358.913 393.923 359.146 393.807C359.379 393.69 359.846 393.34 360.196 392.99C361.013 392.407 361.83 391.823 362.647 391.24C365.914 389.139 369.298 387.389 372.565 385.756C378.982 382.605 385.75 379.338 392.634 377.121C399.519 374.904 406.52 373.504 413.287 373.737C420.288 373.971 427.406 374.437 434.757 374.671" stroke="#6C6C6C" stroke-width="1.8589" stroke-miterlimit="10" stroke-linecap="round" stroke-linejoin="round"/>
<path d="M415.852 373.854C417.602 376.887 419.235 379.921 420.869 382.955" stroke="#6C6C6C" stroke-width="1.8589" stroke-miterlimit="10" stroke-linecap="round" stroke-linejoin="round"/>
<path d="M410.836 373.854C411.303 369.887 412.119 366.036 412.936 362.186" stroke="#6C6C6C" stroke-width="1.8589" stroke-miterlimit="10" stroke-linecap="round" stroke-linejoin="round"/>
<path d="M400.223 375.137C402.44 378.17 404.54 381.438 406.524 384.588" stroke="#6C6C6C" stroke-width="1.8589" stroke-miterlimit="10" stroke-linecap="round" stroke-linejoin="round"/>
<path d="M392.513 377.238C392.28 373.037 392.163 368.72 392.397 364.402" stroke="#6C6C6C" stroke-width="1.8589" stroke-miterlimit="10" stroke-linecap="round" stroke-linejoin="round"/>
<path d="M384.117 380.388C387.734 383.538 391.235 386.805 394.502 390.189" stroke="#6C6C6C" stroke-width="1.8589" stroke-miterlimit="10" stroke-linecap="round" stroke-linejoin="round"/>
<path d="M370.929 386.689C370.578 383.655 370.112 380.738 369.762 377.704" stroke="#6C6C6C" stroke-width="1.8589" stroke-miterlimit="10" stroke-linecap="round" stroke-linejoin="round"/>
<path d="M341.645 403.724C338.378 391.356 336.978 376.537 338.145 359.968C338.728 351.683 340.012 342.815 342.462 333.597C344.796 324.846 347.829 315.745 351.563 306.643C354.714 298.942 358.564 290.891 362.765 283.19C363.815 281.207 364.865 279.34 365.915 277.473C366.966 275.606 368.132 273.739 369.182 271.872C371.399 268.021 373.85 264.637 376.183 261.487C380.967 255.303 385.401 250.635 389.135 247.252C392.753 243.985 395.786 242.118 397.653 242.934C399.52 243.751 400.337 247.135 399.987 252.152C399.754 257.17 398.237 263.821 396.603 270.705C395.786 274.206 394.969 277.706 394.269 281.207C393.453 285.174 392.402 289.374 391.352 293.575C389.252 301.859 386.802 310.377 384.351 318.078C382.951 322.512 381.551 326.83 380.034 331.03C379.334 333.131 362.181 378.871 359.964 385.055C357.748 391.239 355.764 397.073 354.247 402.441L341.645 403.724Z" fill="#C4C4C4"/>
<path d="M348.179 402.441C348.062 395.557 348.646 389.022 349.462 382.488C350.279 375.954 351.329 369.536 352.73 363.235C354.013 356.934 355.53 350.633 357.28 344.333C359.031 338.148 361.131 331.964 363.114 325.897C367.315 313.762 371.749 301.743 376.533 289.841L381.9 276.54C382.484 275.139 383.067 273.739 383.767 272.222C386.334 266.505 389.251 260.904 392.285 255.187" stroke="#6C6C6C" stroke-width="1.7159" stroke-miterlimit="10" stroke-linecap="round" stroke-linejoin="round"/>
<path d="M378.164 285.524L388.899 281.207" stroke="#6C6C6C" stroke-width="1.7159" stroke-miterlimit="10" stroke-linecap="round" stroke-linejoin="round"/>
<path d="M374.895 293.925L366.844 284.474" stroke="#6C6C6C" stroke-width="1.7159" stroke-miterlimit="10" stroke-linecap="round" stroke-linejoin="round"/>
<path d="M367.902 312.477L379.104 310.377" stroke="#6C6C6C" stroke-width="1.7159" stroke-miterlimit="10" stroke-linecap="round" stroke-linejoin="round"/>
<path d="M363.118 325.896C360.434 322.045 357.75 318.195 355.066 314.228" stroke="#6C6C6C" stroke-width="1.7159" stroke-miterlimit="10" stroke-linecap="round" stroke-linejoin="round"/>
<path d="M358.098 341.065C362.765 339.431 367.432 338.031 372.1 336.631" stroke="#6C6C6C" stroke-width="1.7159" stroke-miterlimit="10" stroke-linecap="round" stroke-linejoin="round"/>
<path d="M351.914 366.386C349.813 363.585 347.596 360.668 345.496 357.751" stroke="#6C6C6C" stroke-width="1.7159" stroke-miterlimit="10" stroke-linecap="round" stroke-linejoin="round"/>
<path d="M358.913 402.791H349.695V76.0775C349.695 73.6272 351.679 71.6436 354.129 71.6436H354.596C357.046 71.6436 359.03 73.6272 359.03 76.0775V402.791H358.913Z" fill="#454545"/>
<path d="M386.335 261.488H304.19C301.04 261.488 298.473 258.921 298.473 255.77V229.75C298.473 226.599 301.04 224.032 304.19 224.032H386.452C387.852 224.032 389.252 224.616 390.302 225.549C394.97 229.866 399.754 234.067 404.421 238.384C406.871 240.601 406.988 244.569 404.421 246.902C399.754 251.336 394.97 255.653 390.302 260.087C389.252 261.021 387.852 261.488 386.335 261.488Z" fill="#555555"/>
<path d="M387.972 263.004H305.827C302.676 263.004 300.109 260.437 300.109 257.287V231.266C300.109 228.116 302.676 225.549 305.827 225.549H387.972C389.372 225.549 390.772 226.132 391.822 227.066C396.49 231.383 401.274 235.584 405.941 239.901C408.391 242.118 408.508 246.085 405.941 248.419C401.274 252.853 396.49 257.17 391.822 261.604C390.889 262.421 389.489 263.004 387.972 263.004Z" fill="#A8A8A8"/>
<path d="M397.889 171.641L325.079 209.796C322.278 211.313 318.778 210.146 317.261 207.346L305.126 184.242C303.609 181.442 304.776 177.942 307.576 176.425L380.387 138.269C381.67 137.569 383.187 137.452 384.471 137.802C390.655 139.436 396.839 141.07 402.907 142.586C406.174 143.403 408.041 146.904 406.874 150.054C404.774 156.122 402.557 162.189 400.456 168.257C400.106 169.774 399.173 170.941 397.889 171.641Z" fill="#6C6C6C"/>
<path d="M400.803 171.641L327.993 209.796C325.193 211.313 321.692 210.146 320.175 207.346L308.04 184.242C306.523 181.442 307.69 177.942 310.49 176.425L383.301 138.269C384.584 137.569 386.101 137.452 387.385 137.802C393.569 139.436 399.753 141.07 405.821 142.586C409.088 143.403 410.955 146.904 409.788 150.054C407.688 156.122 405.471 162.189 403.37 168.257C403.02 169.774 402.087 170.941 400.803 171.641Z" fill="#929292"/>
<path d="M318.071 102.564L384.58 83.078C387.147 82.3779 389.831 83.7781 390.648 86.3452L396.832 107.465C397.532 110.032 396.132 112.716 393.565 113.532L326.939 133.019C325.772 133.369 324.488 133.252 323.438 132.668C318.654 130.335 313.753 128.001 308.969 125.667C306.402 124.384 305.469 121.234 306.869 118.783C309.67 114.116 312.47 109.448 315.27 104.781C315.854 103.614 316.904 102.914 318.071 102.564Z" fill="#3B3B3B"/>
<path d="M320.411 103.615L386.92 84.1288C389.487 83.4287 392.171 84.8289 392.988 87.3959L399.172 108.516C399.872 111.083 398.472 113.766 395.905 114.583L329.279 134.069C328.112 134.419 326.828 134.303 325.778 133.719C320.994 131.386 316.093 129.052 311.309 126.718C308.742 125.435 307.809 122.284 309.209 119.834C312.009 115.167 314.81 110.499 317.61 105.832C318.194 104.782 319.244 103.965 320.411 103.615Z" fill="#828282"/>
<path d="M354.019 111.9C355.566 111.9 356.82 110.646 356.82 109.099C356.82 107.553 355.566 106.299 354.019 106.299C352.473 106.299 351.219 107.553 351.219 109.099C351.219 110.646 352.473 111.9 354.019 111.9Z" fill="#454545"/>
<path d="M356.93 176.776C356.93 175.259 355.763 174.092 354.246 174.092C352.729 174.092 351.562 175.259 351.562 176.776C351.562 178.292 352.729 179.459 354.246 179.459C355.763 179.576 356.93 178.292 356.93 176.776Z" fill="#454545"/>
<path d="M356.702 244.218C356.702 242.701 355.419 241.418 353.902 241.418C352.385 241.418 351.102 242.701 351.102 244.218C351.102 245.735 352.385 247.019 353.902 247.019C355.536 247.019 356.702 245.735 356.702 244.218Z" fill="#454545"/>
<path d="M493.574 395.206C499.292 395.557 503.842 394.623 506.526 393.923C508.976 393.34 510.843 392.523 511.893 392.056C515.861 390.422 524.962 385.989 524.612 381.788C524.262 377.821 515.394 376.187 514.227 376.07C517.027 375.954 521.811 375.487 526.945 372.803C527.879 372.337 530.679 370.936 533.246 368.953C534.53 368.019 535.697 366.852 536.513 365.686C536.98 365.102 537.33 364.519 537.447 363.935C537.68 363.352 537.797 362.652 537.797 361.952C537.68 358.335 532.896 355.768 526.829 355.417C527.529 354.601 528.579 353.434 529.396 352.034C530.329 350.633 531.263 349.117 532.079 347.483C532.313 347.016 532.78 346.083 533.246 344.916C533.83 343.749 534.413 342.349 534.997 340.949C536.28 338.032 537.68 334.531 536.163 332.314C535.23 330.914 533.596 330.331 531.846 330.214C530.213 329.98 528.462 330.214 527.529 330.447C526.129 330.681 524.612 331.264 523.328 331.964C522.045 332.664 520.995 333.481 520.061 334.298C518.194 335.931 517.027 337.565 516.444 338.382C514.227 341.415 513.877 342.232 513.41 343.982C512.71 340.249 511.193 337.565 509.443 335.815C507.693 334.181 505.709 333.481 504.076 333.714C503.492 333.831 503.025 333.948 502.559 334.298C502.092 334.531 501.625 334.998 501.158 335.581C500.225 336.631 499.408 338.032 498.708 339.432C497.308 342.232 496.491 345.149 496.258 345.849C494.157 353.084 495.674 359.151 496.608 362.068C495.441 359.851 491.357 352.384 487.507 353.551C485.29 354.251 483.889 357.634 482.956 361.602C482.022 365.569 481.789 370.12 481.789 372.92C481.789 374.437 481.906 377.587 482.839 381.438C484.123 386.922 486.223 390.422 486.69 391.239C487.623 392.756 488.44 393.923 489.14 394.74C490.307 394.856 491.824 395.09 493.574 395.206Z" fill="#A8A8A8"/>
<path d="M485.641 401.391C485.641 401.391 486.224 400.457 487.041 398.707C487.508 397.89 488.091 396.84 488.674 395.557C489.374 394.39 490.075 393.106 491.008 391.589C494.392 385.755 499.293 378.171 504.66 370.703C510.027 363.235 515.628 355.768 520.179 349.817C522.396 346.9 524.379 344.333 525.896 342.349C527.413 340.482 528.58 339.199 528.93 338.615" stroke="#5D5D5D" stroke-width="1.6688" stroke-miterlimit="10" stroke-linecap="round" stroke-linejoin="round"/>
<path d="M510.958 362.068C509.441 354.834 508.041 347.483 506.641 340.132" stroke="#5D5D5D" stroke-width="1.6688" stroke-miterlimit="10" stroke-linecap="round" stroke-linejoin="round"/>
<path d="M509.211 364.753C516.445 364.053 523.68 363.586 530.914 363.119" stroke="#5D5D5D" stroke-width="1.6688" stroke-miterlimit="10" stroke-linecap="round" stroke-linejoin="round"/>
<path d="M494.977 384.822C492.993 378.054 491.243 371.17 489.609 364.169" stroke="#5D5D5D" stroke-width="1.6688" stroke-miterlimit="10" stroke-linecap="round" stroke-linejoin="round"/>
<path d="M493.805 387.155C501.506 385.872 509.09 384.938 516.675 384.238" stroke="#5D5D5D" stroke-width="1.6688" stroke-miterlimit="10" stroke-linecap="round" stroke-linejoin="round"/>
<path d="M92.1797 402.791H582.833" stroke="#3B3B3B" stroke-width="6" stroke-miterlimit="10" stroke-linecap="round" stroke-linejoin="round"/>
<path d="M240.488 82.7285C240.255 84.3621 238.972 85.529 237.338 85.529H235.004C233.954 85.529 233.137 84.7122 233.137 83.662C233.137 81.3283 233.487 79.3447 234.304 77.8278C235.121 76.311 236.638 74.5607 238.972 72.6938C241.305 70.8269 242.705 69.5433 243.172 68.9599C243.872 68.0265 244.222 66.9763 244.222 65.9261C244.222 64.4093 243.639 63.0091 242.355 61.9589C241.072 60.7921 239.438 60.3253 237.338 60.3253C235.354 60.3253 233.604 60.9088 232.204 62.0756C231.387 62.7757 230.804 63.5925 230.22 64.6426C229.52 66.1595 227.77 67.093 226.136 66.8596C224.97 66.7429 223.919 66.0428 223.336 64.9927C222.753 63.9425 222.753 62.659 223.336 61.6089C224.036 60.2087 225.086 58.9251 226.37 57.7583C229.053 55.4246 232.554 54.2578 236.988 54.2578C241.539 54.2578 245.272 55.4246 247.956 57.875C250.64 60.3253 252.04 63.0091 252.04 66.2762C252.04 68.0265 251.573 69.66 250.523 71.2936C249.473 72.8105 247.373 75.0275 244.106 77.7112C242.472 79.1114 241.422 80.2782 240.955 81.095C240.722 81.3283 240.605 81.9118 240.488 82.7285ZM236.755 96.2638C234.771 96.2638 233.137 94.6302 233.137 92.6466V91.9465C233.137 89.9629 234.771 88.3293 236.755 88.3293H237.455C239.438 88.3293 241.072 89.9629 241.072 91.9465V92.6466C241.072 94.6302 239.438 96.2638 237.455 96.2638H236.755Z" fill="#3B3B3B"/>
<path d="M219.479 382.955L215.745 386.455C215.745 386.455 216.445 391.94 215.161 393.223C213.994 394.507 211.661 396.49 212.594 399.057C213.528 401.624 215.045 402.674 215.045 402.674H229.28C229.28 402.674 231.847 398.941 231.847 397.774C231.847 396.607 230.563 383.772 228.346 382.838C226.129 382.138 219.479 382.955 219.479 382.955Z" fill="#272727"/>
<path d="M238.965 401.391H205.477V404.191H238.965V401.391Z" fill="#231F20"/>
<path d="M262.533 389.023C262.533 389.023 261.949 394.273 262.533 396.957C263.116 399.641 263.583 402.791 263.583 402.791H297.421C297.421 402.791 300.922 401.274 300.922 399.291C300.922 397.424 299.638 394.507 293.454 394.624C286.803 391.24 278.285 383.889 278.285 383.889L268.717 387.389L262.533 389.023Z" fill="#272727"/>
<path d="M300.81 400.691H258.57V404.192H300.81V400.691Z" fill="#231F20"/>
<path d="M237.449 280.974L254.018 318.662C254.018 318.662 253.201 322.63 254.018 324.613C254.835 326.597 256.119 329.281 256.119 329.281C256.119 329.281 254.835 348.65 256.119 355.068C257.402 361.485 260.786 373.037 260.319 375.487C259.852 377.937 262.536 379.921 262.536 381.321C262.536 382.721 262.536 389.139 262.536 389.139H270.121L278.288 384.005L274.788 332.664C274.788 332.664 275.721 323.563 275.021 321.346C274.321 319.129 271.871 310.495 271.871 310.495C271.871 310.495 275.721 268.722 265.103 256.003C254.485 243.285 243.633 248.419 243.633 248.419L237.449 280.974Z" fill="#757575"/>
<path d="M248.882 266.505C248.882 266.505 238.498 312.011 230.447 320.296C233.947 327.88 228.23 334.065 228.23 334.065L230.213 385.055C230.213 385.055 229.163 383.888 224.496 384.122C219.828 384.355 215.628 386.572 215.628 386.572C215.628 386.572 206.993 351.217 212.711 330.798C213.411 311.895 213.878 283.657 213.177 279.223C212.477 274.789 210.494 265.922 210.61 257.054C210.61 248.186 250.749 251.219 250.749 251.219L248.882 266.505Z" fill="#939393"/>
<path d="M214.931 255.187L217.614 277.356L216.447 318.079C216.447 318.079 213.764 332.314 213.764 336.515C213.53 358.918 214.347 370.12 217.614 386.922" stroke="#757575" stroke-miterlimit="10"/>
<path d="M217.496 282.257C217.496 282.257 227.414 279.34 227.764 273.856C228.114 268.488 227.764 254.72 227.764 254.72" stroke="#757575" stroke-miterlimit="10"/>
<path d="M252.447 260.037C252.447 260.14 242.675 260.657 242.024 260.761C236.703 261.381 231.383 261.485 226.062 261.175C220.85 260.864 215.747 260.451 210.535 260.037V256.314H252.447C252.447 256.314 252.447 260.037 252.447 260.037Z" fill="#757575" stroke="#757575" stroke-miterlimit="10"/>
<path d="M222.86 157.756L213.175 170.008C213.175 170.008 215.975 230.216 213.175 235.467C210.374 240.718 208.858 243.751 209.791 245.502C210.724 247.252 212.008 252.036 211.308 253.32C210.608 254.603 210.724 256.82 210.724 256.82C210.724 256.82 228.577 260.787 239.195 257.52C252.147 253.553 266.732 257.52 266.732 257.52C266.732 257.52 263.465 243.401 262.882 238.501C262.298 233.6 261.132 214.931 261.132 214.931L265.099 189.027L256.931 169.191L251.097 162.19L247.48 160.556L230.794 159.973L222.86 157.756Z" fill="#454545"/>
<path d="M214.228 227.416L213.762 232.9C213.762 232.9 228.814 231.033 234.765 228C240.716 224.966 247.717 220.882 247.717 220.882L261.719 224.266L261.368 218.782L247.717 215.281L222.28 226.366L214.228 227.416Z" fill="#3B3B3B"/>
<path d="M224.853 142.004C224.853 142.004 226.02 147.488 225.786 151.339C225.553 155.073 220.652 160.673 220.652 160.673C220.652 160.673 231.971 176.892 237.571 176.776C243.172 176.776 249.123 162.774 248.89 161.724C248.773 160.673 244.339 159.857 244.339 159.857V147.838L230.104 135.703L224.853 142.004Z" fill="#9D9D9D"/>
<path d="M246.548 124.385C246.548 124.385 249.232 123.918 249.232 122.051C249.232 120.184 249.115 114.233 237.564 114.233C226.012 114.233 220.061 122.985 217.611 127.535C215.161 132.086 216.444 135.236 218.661 139.437C220.411 142.704 225.662 150.289 225.662 150.289L227.879 138.387L229.746 138.27L232.546 141.771L238.731 140.954L236.514 124.618L246.548 124.385Z" fill="#3B3B3B"/>
<path d="M232.782 140.837C232.782 138.27 231.265 136.17 229.282 136.17C227.298 136.17 225.781 138.27 225.781 140.837C225.781 143.404 227.298 145.505 229.282 145.505C231.265 145.505 232.782 143.404 232.782 140.837Z" fill="#9D9D9D"/>
<path d="M237.334 224.266L254.02 215.515L240.018 208.98L230.566 216.565L237.334 224.266Z" fill="#9D9D9D"/>
<path d="M237.33 215.048L247.715 220.065L252.032 215.048L234.18 206.88L237.33 215.048Z" fill="#828282"/>
<path d="M261.254 178.643C261.254 178.643 256.12 188.677 256.82 192.995C257.52 197.312 259.037 202.679 259.037 202.679H248.419C248.419 202.679 234.183 198.945 230.683 199.412C227.182 199.996 217.848 202.679 217.848 202.679L219.014 206.413L235 204.313L245.385 207.58H259.037L265.338 206.53L264.754 187.511L261.254 178.643Z" fill="#3B3B3B"/>
<path d="M250.045 205.713C250.045 205.713 238.376 202.913 233.476 202.796C228.575 202.679 218.773 203.73 218.773 203.73V211.897C218.773 211.897 234.642 210.964 237.326 212.948C240.01 214.815 249.461 218.898 249.461 218.898L256.112 215.981L250.045 205.713Z" fill="#9D9D9D"/>
<path d="M248.875 161.606C248.875 161.606 266.261 166.507 269.995 173.158C273.729 179.692 272.445 189.61 273.262 193.928C274.079 198.245 279.096 216.564 275.479 219.598C271.862 222.632 248.875 219.598 248.875 219.598V205.129C248.875 205.129 256.459 203.962 261.71 204.079C259.143 196.845 257.276 190.661 259.96 182.493C262.644 174.442 248.875 161.606 248.875 161.606Z" fill="#454545"/>
<path d="M216.336 181.91C216.336 181.91 221.937 185.411 223.337 192.995C224.621 200.579 224.621 200.579 224.621 200.579L213.652 205.13V183.427L216.336 181.91Z" fill="#3B3B3B"/>
<path d="M218.778 183.077C222.511 189.961 221.811 201.279 220.645 210.38C226.479 208.513 237.33 212.831 237.33 212.831V224.266C237.33 224.266 224.495 232.2 212.593 228.466C203.375 223.566 199.875 179.693 200.342 176.659C200.808 173.625 220.645 160.557 220.645 160.557C220.645 160.557 215.044 176.192 218.778 183.077Z" fill="#454545"/>
<path d="M222.161 207.813L220.645 210.38C220.645 210.38 222.511 210.147 226.945 211.547C231.379 212.948 239.781 215.865 239.781 215.865L238.614 210.964L224.145 207.58L222.161 207.813Z" fill="#828282"/>
<path d="M232.319 147.722C232.319 147.722 234.886 152.389 236.286 153.206C237.686 154.023 244.454 155.189 244.454 155.189V159.623C244.454 159.623 239.087 159.39 235.353 155.656C231.969 152.389 232.319 147.722 232.319 147.722Z" fill="#828282"/>
<path d="M232.78 141.537C232.78 141.537 230.797 150.755 234.647 153.205C238.498 155.656 242.465 156.006 244.565 155.772C246.666 155.539 251.566 153.439 251.566 150.288C251.566 147.138 251.566 140.137 251.566 140.137L236.631 139.437L232.78 141.537Z" fill="#3B3B3B"/>
<path d="M247.836 123.918C249.469 125.202 250.636 126.952 250.986 128.936C251.336 130.919 251.103 134.77 251.103 134.77C251.103 134.77 254.487 139.204 254.603 140.254C254.72 141.304 250.636 140.721 250.636 140.721C250.636 140.721 247.486 146.322 244.335 145.855C241.535 145.388 238.734 143.521 236.867 141.421C235.234 139.671 234.884 137.454 234.767 135.237C234.65 133.253 234.3 131.269 234.184 129.169C234.067 127.536 233.834 125.319 234.534 123.802C236.051 120.651 241.651 122.635 244.802 122.868C246.669 122.985 247.019 123.218 247.836 123.918Z" fill="#9D9D9D"/>
<path d="M217.609 162.657C217.609 162.657 230.211 182.027 238.029 180.743C248.997 178.993 251.914 162.657 251.914 162.657" stroke="#3B3B3B" stroke-width="0.81" stroke-miterlimit="10"/>
<path d="M230.448 138.387C230.448 138.387 228.465 137.92 228.114 139.437C227.764 140.954 228.581 142.354 229.398 141.654C230.215 140.954 229.398 140.837 229.398 140.137C229.398 139.437 231.382 139.554 230.448 138.387Z" fill="#828282"/>
</svg>
