<?xml version="1.0" encoding="utf-8"?>
<!-- Generator: Adobe Illustrator 24.0.0, SVG Export Plug-In . SVG Version: 6.00 Build 0)  -->
<svg version="1.1" id="Layer_1" xmlns="http://www.w3.org/2000/svg" xmlns:xlink="http://www.w3.org/1999/xlink" x="0px" y="0px"
	 viewBox="0 0 957 570" style="enable-background:new 0 0 957 570;" xml:space="preserve">
<style type="text/css">
	.st0{fill:#EDEDED;}
	.st1{fill:#818181;}
	.st2{display:none;}
	.st3{display:inline;fill:#9F9F9F;}
	.st4{display:inline;fill:none;stroke:#353535;stroke-linecap:round;stroke-linejoin:round;stroke-miterlimit:10;}
	.st5{display:inline;fill:#858585;}
	.st6{display:inline;fill:#616161;}
	.st7{display:inline;fill:none;stroke:#2D2D2D;stroke-linecap:round;stroke-linejoin:round;stroke-miterlimit:10;}
	.st8{display:inline;fill:#555555;}
	.st9{display:inline;fill:#A9A9A9;}
	.st10{display:inline;fill:#929292;}
	.st11{display:inline;fill:#818181;}
	.st12{fill:#292929;}
	.st13{fill:#FFFFFF;}
	.st14{fill:#DBDBDB;}
	.st15{fill:#EEEEEE;}
	.st16{fill:#9C9C9C;}
	.st17{fill:#D02E1B;}
	.st18{fill:#F5351F;}
	.st19{fill:#A8A8A8;}
	.st20{fill:#373737;}
	.st21{fill:#C7C7C7;}
	.st22{fill:#9A9A9A;}
	.st23{fill:#616161;}
	.st24{fill:#1C1C1C;}
	.st25{fill:#F5F5F5;}
	.st26{fill:#D2D2D2;}
	.st27{fill:#929292;}
	.st28{fill:#414141;}
	.st29{fill:#878787;}
	.st30{fill:#BA2A1A;}
	.st31{fill:#A9A9A9;}
	.st32{fill:none;stroke:#D2D2D2;stroke-miterlimit:10;}
	.st33{fill:#A4A4A4;}
	.st34{fill:#D4D4D4;}
	.st35{fill:#2D2D2D;}
	.st36{display:inline;}
	.st37{fill:#DFDFDF;}
	.st38{display:inline;fill:#DBDBDB;}
</style>
<path class="st0" d="M849.4,559.1c0,5.4-33.6,9.9-75.2,9.9c-41.4,0-75.2-4.5-75.2-9.9c0-5.4,33.6-9.9,75.2-9.9
	C815.8,549.2,849.4,553.5,849.4,559.1z"/>
<path class="st0" d="M366.8,550.8c0,5.4-33.6,9.9-75.2,9.9c-41.4,0-75.2-4.5-75.2-9.9c0-5.4,33.6-9.9,75.2-9.9
	C333.2,540.9,366.8,545.2,366.8,550.8z"/>
<path class="st0" d="M690.7,563.8c0,3.4-20.5,6.2-45.8,6.2c-25.2,0-45.8-2.8-45.8-6.2c0-3.4,20.5-6.2,45.8-6.2
	C670.2,557.5,690.7,560.2,690.7,563.8z"/>
<path class="st1" d="M761,412.2c-6.4,6.4-8.9,14.3-5.5,17.7c3.4,3.4,11.2,0.8,17.7-5.5c6.4-6.4,8.9-14.3,5.5-17.7
	C775.3,403.3,767.4,405.7,761,412.2z"/>
<path class="st1" d="M754.9,480c-8.4,10.2-9.6,22.9-2.8,28.5c6.8,5.5,19,1.7,27.3-8.4c8.4-10.2,9.6-22.9,2.8-28.5
	C775.4,466.1,763.3,469.8,754.9,480z"/>
<g class="st2">
	<path class="st3" d="M245.8,524.9c0,0-17.8,26.1-44.2,7.1c-26.3-19-22.9-13.5-55.6-13c-32.7,0.4-26.5-33.8-19.1-42.8
		c7.4-8.9,3.7-26.3-17.4-21.5c-21.1,4.8-43.6,4.2-35.3-21.1c8.4-25.2-14.2-31.6-22.7-52.1c-8.5-20.5-7.9-43.6,5.2-46.3
		c13.2-2.7,25.8,17.8,36.8,17.4c11-0.6,16.3-20,29.4-17.6c13.2,2.4,13.3,10.2,22.7,31.3c9.5,21.1,20,19.5,33.1,14.7
		c13.2-4.7,25.8,1.6,32.6,20c6.8,18.4,9.3,41.6,14.9,43.6C232.2,446.7,260.5,494,245.8,524.9z"/>
	<path class="st4" d="M91.7,373.1c0,0,116.7,59.9,154,151.8"/>
	<path class="st5" d="M144.1,419.5c6.1,6.7,8.5,14.4,5.4,17.1c-3.1,2.8-10.5-0.3-16.6-6.9c-6.1-6.7-8.5-14.4-5.4-17.1
		C130.7,409.8,138,412.9,144.1,419.5z"/>
	<path class="st5" d="M126.6,372c3.1,3.1,4,7.2,1.8,9.3c-2.1,2.1-6.2,1.3-9.3-1.8c-3.1-3.1-4-7.2-1.8-9.3
		C119.2,368,123.4,368.8,126.6,372z"/>
	<path class="st5" d="M194.2,412.2c6.4,6.4,8.9,14.3,5.5,17.7c-3.4,3.4-11.2,0.8-17.7-5.5c-6.4-6.4-8.9-14.3-5.5-17.7
		C179.9,403.2,187.7,405.7,194.2,412.2z"/>
	<path class="st5" d="M203.1,508.5c6.8-5.5,5.5-18.3-2.8-28.4c-8.3-10.2-20.6-13.9-27.3-8.4c-6.8,5.5-5.5,18.3,2.8,28.4
		C184.1,510.3,196.4,514,203.1,508.5z"/>
	<path class="st6" d="M242.7,523.3c0,0-35.3-78.3-69.5-131.2s-30-107.6,12.6-112.8C228.4,274,265.3,368.1,242.7,523.3z"/>
	<path class="st7" d="M195.9,315.5c0,0,50.4,92.6,46.7,207.8"/>
	<path class="st8" d="M189,332.5c3.3,8.9,2.1,17.6-2.4,19.1c-4.5,1.7-10.9-4.2-14.2-13.2c-3.3-8.9-2.1-17.6,2.4-19.1
		C179.4,317.7,185.7,323.5,189,332.5z"/>
	<path class="st8" d="M206.7,375.4c2,5.7,1.3,11-1.6,12c-2.8,1-6.8-2.7-8.9-8.2c-2-5.7-1.3-11,1.6-12
		C200.7,366.2,204.7,369.8,206.7,375.4z"/>
	<path class="st8" d="M232.3,366.7c3.8-1.4,4.2-9.6,1-18.4c-3.2-8.8-8.8-14.9-12.6-13.5c-3.8,1.4-4.2,9.6-1,18.4
		C223,362,228.6,368.1,232.3,366.7z"/>
	<path class="st8" d="M218.4,416.3c1.3,2.8,0.8,5.8-0.9,6.5c-1.7,0.7-4.1-1-5.2-3.8c-1.3-2.8-0.8-5.8,0.8-6.5
		C214.8,411.7,217.2,413.4,218.4,416.3z"/>
	<path class="st9" d="M176,540.4c0,0-5.9-7.9,4-18c0,0-5.8-33.8,28.7-38.4c0,0,6.5-22.8,26.1-25.3c19.5-2.5,35.1,9.8,39.6,26.6
		c0,0,15-5.2,28.6,4c13.6,9.1,12.3,28,12.3,28s15,5.4,9.1,23.2H176V540.4z"/>
	<path class="st10" d="M241.2,503.4c0,0-11,0-13.2-19.1c-1.1-9.9,3.1-19,7.5-25.5c-0.3,0-0.6,0-0.7,0c-19.5,2.5-26.1,25.3-26.1,25.3
		c-34.4,4.5-28.7,38.4-28.7,38.4c-10.1,10.1-4,18-4,18H239C221.1,521.9,241.2,503.4,241.2,503.4z"/>
	<path class="st3" d="M709.3,524.9c0,0,17.8,26.1,44.2,7.1c26.3-19,22.9-13.5,55.6-13c32.7,0.4,26.5-33.8,19.1-42.8
		c-7.4-8.9-3.7-26.3,17.4-21.5c21.1,4.7,43.6,4.2,35.3-21.1c-8.4-25.2,14.2-31.6,22.7-52.1c8.4-20.5,7.9-43.6-5.2-46.3
		c-13.2-2.7-25.8,17.8-36.8,17.4c-11-0.6-16.3-20-29.4-17.6c-13.2,2.4-13.3,10.2-22.7,31.3c-9.5,21.1-20,19.5-33.1,14.7
		c-13.2-4.7-25.8,1.6-32.6,20c-6.8,18.4-9.3,41.6-14.9,43.6C722.9,446.7,694.7,494,709.3,524.9z"/>
	<path class="st7" d="M863.5,373.1c0,0-116.7,59.9-154,151.8"/>
	<path class="st11" d="M822.4,429.7c6-6.7,8.4-14.4,5.3-17.2c-3.1-2.8-10.6,0.3-16.6,6.9c-6,6.7-8.4,14.4-5.3,17.2
		C809,439.5,816.4,436.4,822.4,429.7z"/>
	<path class="st11" d="M828.7,372c-3.1,3.1-4,7.2-1.8,9.3c2.1,2.1,6.2,1.3,9.3-1.8c3.1-3.1,4-7.2,1.8-9.3
		C835.9,368,831.8,368.8,828.7,372z"/>
	<path class="st6" d="M712.6,523.3c0,0,35.3-78.3,69.5-131.2c34.3-53,30-107.6-12.6-112.8C726.7,274,689.9,368.1,712.6,523.3z"/>
	<path class="st7" d="M759.3,315.5c0,0-50.4,92.6-46.7,207.8"/>
	<path class="st8" d="M766.2,332.5c-3.3,8.9-2.1,17.6,2.4,19.1c4.5,1.7,10.9-4.2,14.2-13.2c3.3-8.9,2.1-17.6-2.4-19.1
		C775.7,317.7,769.5,323.5,766.2,332.5z"/>
	<path class="st8" d="M748.5,375.4c-2,5.7-1.3,11,1.6,12c2.8,1,6.8-2.7,8.9-8.2c2-5.7,1.3-11-1.6-12
		C754.5,366.2,750.5,369.8,748.5,375.4z"/>
	<path class="st8" d="M721.9,348.2c-3.1,8.8-2.7,17,1,18.4c3.7,1.3,9.3-4.7,12.5-13.4c3.1-8.8,2.7-17-1-18.4
		C730.7,333.5,725.1,339.4,721.9,348.2z"/>
	<path class="st8" d="M736.8,416.3c-1.3,2.8-0.8,5.8,0.8,6.5c1.7,0.7,4.1-1,5.2-3.8c1.3-2.8,0.8-5.8-0.8-6.5
		C740.3,411.7,738,413.4,736.8,416.3z"/>
	<path class="st9" d="M779.2,540.4c0,0,5.9-7.9-4-18c0,0,5.8-33.8-28.7-38.4c0,0-6.5-22.8-26.1-25.3c-19.5-2.5-35.1,9.8-39.6,26.6
		c0,0-15-5.2-28.6,4c-13.6,9.1-12.3,28-12.3,28s-15,5.4-9.1,23.2h148.4V540.4z"/>
	<path class="st10" d="M714,503.4c0,0,11,0,13.2-19.1c1.1-9.9-3.1-19-7.5-25.5c0.3,0,0.6,0,0.7,0c19.5,2.5,26,25.3,26,25.3
		c34.4,4.5,28.7,38.4,28.7,38.4c10.1,10.1,4,18,4,18h-62.9C734.1,521.9,714,503.4,714,503.4z"/>
</g>
<path class="st12" d="M701.9,476.2H254.8c-12.9,0-23.2-10.5-23.2-23.2v-285c0-12.9,10.5-23.2,23.2-23.2h447.1
	c12.9,0,23.2,10.5,23.2,23.2v285C725.2,465.8,714.7,476.2,701.9,476.2z"/>
<path class="st13" d="M693.1,467.3h-429c-13,0-23.4-10.4-23.4-23V175.9c0-12.8,10.5-23,23.4-23h429c13,0,23.4,10.4,23.4,23v268.4
	C716.5,457.1,706,467.3,693.1,467.3z"/>
<path class="st14" d="M699.8,173.1H250.4v14.7h449.4V173.1z"/>
<path class="st14" d="M608.4,391.9H342v6.4h266.3V391.9z"/>
<path class="st14" d="M608.4,408.4H342v6.4h266.3V408.4z"/>
<path class="st14" d="M608.4,424.6H342v6.4h266.3V424.6z"/>
<path class="st15" d="M519,476.2h-87.6V513H519V476.2z"/>
<path class="st16" d="M531.8,524.9H418.6v-1.4c0-5.7,4.7-10.3,10.3-10.3h92.4c5.7,0,10.3,4.7,10.3,10.3V524.9z"/>
<path class="st17" d="M654.8,315.2v50.1c0,1.3,1,2.1,2.1,2.1c1.3,0,2.1-1,2.1-2.1V341c0-2.3,1.8-4,4-4c2.3,0,4,1.8,4,4v33.4
	c0,2.7,2.3,5,5,5s5-2.3,5-5v-31.4c0-2.5,2.1-4.7,4.7-4.7c2.5,0,4.7,2.1,4.7,4.7c0,2.4,1.8,4.2,4.2,4.2h1.7c3.3,0,5.9-2.7,5.9-5.9
	V315h-43.3V315.2z"/>
<path class="st18" d="M697.7,315.2h-41.3c-1.4,0-2.5-1.1-2.5-2.5v-5c0-1.4,1.1-2.5,2.5-2.5h41.3c1.4,0,2.5,1.1,2.5,2.5v5
	C700.2,314.1,699.1,315.2,697.7,315.2z"/>
<path class="st19" d="M778.1,342.9c0,0-3,11.6-4.4,18.4c-1.4,6.8,10.8,9.6,10.8,9.6l-1,5.9c0,0,6.7-0.3,8.8,3l3.4-13.4
	c0,0,3.5-3.7,2.8-8.2c-0.7-4.5-5.4-4-7.1,0c0,0-5.2-5.7-5.2-13.2C786.1,344.9,782.5,346.9,778.1,342.9z"/>
<path class="st20" d="M805,344.8c0,0,1.6-4.5-1.6-7.9c-3.1-3.4-9.3-3.5-14-2.8c-0.8,0.1-4.4-0.1-9.1-1.7c-4.7-1.6-9.8,0-10.9,5
	c-1,5,7.2,11.5,7.2,11.5c0.8-3.4,1.4-5.9,1.4-5.9c4.4,4,7.9,2.1,7.9,2.1c0,7.5,5.2,13.2,5.2,13.2c1.6-4,6.4-4.5,7.1,0
	c0.7,4.5-2.8,8.2-2.8,8.2s8.8-4.5,10.9-10.9C808.6,349,805,344.8,805,344.8z"/>
<path class="st21" d="M783.4,376.9c0,0-9.8-0.9-17.4-2.4c-7.6-1.6-44.2-16.7-44.2-16.7s-3.1,3.4-3.1,7.4c0,0,23.5,16,32.4,19.5
	c8.9,3.5,19,9.8,19,9.8s-0.7,27.2,0,36.8c0.7,9.6,0.7,13,0.7,13s16.8,1.6,30-2.7c0,0-1.4-33.1-2.4-42.3c-1-9.2-6.2-19.5-6.2-19.5
	S789,375.6,783.4,376.9z"/>
<path class="st22" d="M769.8,408.5c0.1-7.6,0.3-14,0.3-14s-1.3-0.7-3.3-2c0,0-12.3,10.8-13.3,10.9c-0.8,0.1-12.3-10.9-12.3-10.9
	c-2.4,0.9-5.9,3.8-5.9,3.8s12.7,19.5,16.7,20.4S769.8,408.5,769.8,408.5z"/>
<path class="st19" d="M738.2,382.7c0,0,2,7.5,3.1,9.8c0,0-3.8,1.7-5.9,3.8c0,0-4-2.3-6.5-6.8c-2.5-4.5-3.3-5.9,2-8.6
	C736.1,378.2,737.1,378.9,738.2,382.7z"/>
<path class="st22" d="M770.1,394.5l5.1,3l-5.1,3.1V394.5z"/>
<path class="st19" d="M751.8,534.4l3.5,13.2c0,0,2.8,3.7,8.5,1l-2.7-14h-9.3V534.4z"/>
<path class="st23" d="M740.6,557.3c0,0,0.8-2.1,5.2-3c4.5-1,9.5-6.8,9.5-6.8s2.8,3.8,8.5,1c0,0,2,5.2,1.6,8.9
	C765.4,557.3,741.5,560.5,740.6,557.3z"/>
<path class="st19" d="M801.1,532.9l3.5,13.2c0,0,2.8,3.7,8.5,1l-2.3-15.9L801.1,532.9z"/>
<path class="st23" d="M789.9,556c0,0,0.8-2.1,5.2-3c4.5-1,9.5-6.8,9.5-6.8s2.8,3.8,8.5,1c0,0,2,5.2,1.6,8.9
	C814.8,556,790.9,559.1,789.9,556z"/>
<path class="st24" d="M801.2,534.4c0,0,5.7-1,9.6-3.1c0,0-6.9-40.5-9.6-51.5s-5.8-27-5.8-27l-19.7,23.5
	C775.7,476.2,797.1,519.1,801.2,534.4z"/>
<path class="st12" d="M800.8,441.6c-13.2,4.2-30,2.7-30,2.7s-24.1,46.2-25.6,53.2c-1.6,7.1,6.5,36.8,6.5,36.8s5,3.1,9.2,1
	c0,0-0.8-29.7,0.3-35.5c1-5.8,22.4-27.3,32.6-38.1C804,451,800.8,441.6,800.8,441.6z"/>
<path class="st25" d="M676.9,315.2l55.5,71.9l3.4-2.8l-52.1-69.1H676.9z"/>
<path class="st19" d="M721.8,357.8c0,0-5.5-3.8-7.9-5.2c-2.4-1.4-5.7-4.8-5.7-4.8s-0.4,2.7-1.6,3.1c-1.1,0.6-4.8,1.7-5.2,2.8
	c-0.4,1,0.7,3.1,1,4.2c0.4,1-0.6,2.5,0.3,3.5c0.8,1,0.4,2.8,1.7,3c1.3,0.1,8.8-0.1,10.6,0c1.8,0.1,3.7,0.9,3.7,0.9
	S718.5,361.6,721.8,357.8z"/>
<path class="st19" d="M735.4,393.1c0,0-3.3-4,0-6.5c0,0-5.4,0.3-4.1-1.6c1.3-1.8,4.1-3.5,6.4-3.8l2.8,9.3L735.4,393.1z"/>
<path class="st26" d="M623.2,248.2l-285.9-60.5L303,349.8l285.9,60.5L623.2,248.2z"/>
<path class="st27" d="M413,215.6l-63.9-13.5l-29.7,140.2l63.9,13.5L413,215.6z"/>
<path class="st27" d="M605.5,261.3l-176.7-37.4l-3.4,15.9l176.7,37.4L605.5,261.3z"/>
<path class="st27" d="M599.6,289.7l-176.7-37.4l-3.4,15.9l176.7,37.4L599.6,289.7z"/>
<path class="st27" d="M593.5,318.8l-176.7-37.4l-3.4,15.9l176.7,37.4L593.5,318.8z"/>
<path class="st27" d="M586.8,349.7l-176.7-37.4l-3.4,15.9l176.7,37.4L586.8,349.7z"/>
<path class="st19" d="M346.3,78.2c0,0-8.6-0.7-11.3-1.4c0,0-1,4.5-3,7.4c0,0,3.3,4,8.8,5.8c5.5,1.8,7.1,2.4,9.1-4
	C351.8,79.6,350.8,78.6,346.3,78.2z"/>
<path class="st28" d="M348.7,14.1c0,0-2.4-10.9-12.6-13.4c-10.3-2.7-28.2,3.5-28.2,19.7c0,16.1,3,37.9,3,37.9s16.4,3.3,26.8,0
	C348,55,348,55,348,55s-4.7-10.9-3.5-18.3C345.5,29.3,353,22.3,348.7,14.1z"/>
<path class="st19" d="M344.9,17.9c0,0-14.7,5.2-22.4,0c0,0,1.7-4.4-2.1-6.2c-3.8-1.7-9.3,5-8.2,12l-9.1,5.9c0,0,6.2,1.3,8.2,8.1
	l6.8-3.5c0,0,1.1,6.2,7.4,5.8C331.7,40,340.8,28.5,344.9,17.9z"/>
<path class="st17" d="M259.7,56.4c0,0,30.3-27.9,43.5-26.6c0,0,7.1,1,8.2,8.1l2.7,28.5l14.9,20c0,0-1.1,5.2-5,6.2
	c0,0-19.7-16.1-20.8-20c-1.1-3.8-2.1-13-2.1-13s-7.1,2.4-10.1,7.4c-3,5-3.5,12-3.5,12S257.4,73.9,259.7,56.4z"/>
<path class="st29" d="M287.6,79c0,0,15.6,14.2,21.4,19.4c5.8,5.2,7.1,38.8,7.1,38.8s-2.4,2.7-8.2,1.4c0,0-5.2-14.7-6.1-27
	l-25.1-14.4l-1.3-21.8L287.6,79z"/>
<path class="st23" d="M275.4,75.5c-8.1-3.3-17-9.2-15.7-19.1c0,0-10.1,8.2-8.5,22.4c1.4,14.2,15.6,28.7,15.6,28.7
	c-5.8,10.1-11.2,35.3-11.2,35.3c0.3,5,6.8,3.5,6.8,3.5s21.1-32.8,20-38.8C281.2,101.6,275.4,75.5,275.4,75.5z"/>
<path class="st30" d="M301.2,59.5v-12l-5.4,14.9C295.8,62.3,298.2,60.8,301.2,59.5z"/>
<path class="st30" d="M314,66.3l12.9,17.3l4.4,1.3c3.7-4.7,3.8-9.5,3.8-9.5L314,66.3z"/>
<path class="st31" d="M255.6,142.8c0,0-3,3.8-2.1,10.6c0,0,14.7,2.1,21,1c0,0-5.2-4.7-12-8.1C262.4,146.3,256.8,148.1,255.6,142.8z"
	/>
<path class="st31" d="M307.9,138.6v7.8c0,0,11.9,2.1,21.9,0c0,0-3.5-3.7-8.2-5.2c-4.7-1.6-5.5-4.1-5.5-4.1S313.2,139.5,307.9,138.6z
	"/>
<path class="st19" d="M324.1,92.5c0,0,3,4.1,5.8,4.2c2.8,0.1,2.4,2,4.5,2.1s3.5,0.1,5.2-2.4c1.7-2.5,0.6,0.1,1.7-2.5
	c1.1-2.7-12.5-7.8-12.5-7.8S327.9,90.1,324.1,92.5z"/>
<path class="st32" d="M341.6,195.4V78.9"/>
<path class="st19" d="M335.7,83.4c0,0,5.1,2.7,7.1-1.3c0,0,0.8,6.1,2.5,4.2s3-5.2,3-7.8l-10.9-1.3L335.7,83.4z"/>
<path class="st33" d="M663.6,515.1h-33.4v46.6h33.4V515.1z"/>
<path class="st34" d="M630.2,561.5h33.4l-33.4-46.4V561.5z"/>
<path class="st17" d="M630.4,513H663c1.1,0,2.1,1,2.1,2.1v14.4c0,0-0.3,4.5-3.5,2.7c-3.4-1.8-1.8-7.9-3.8-9.3
	c-2.5-1.8-7.4,4.5-5.2,10.1c1.3,3.5-0.7,6.4-4.4,5.8c-5.5-0.8-3-12.3-5.5-15c-2.3-2.5-6.8-1.8-7.6,5.5c-0.8,7.4-5,8.8-6.5,7.4
	c-1.3-1.1-0.4-16.1-0.1-21.7C628.3,514,629.3,513,630.4,513z"/>
<path class="st35" d="M243.8,551.2c-0.1,0-0.1,0-0.3,0c-1.3-0.1-2.3-1.3-2.1-2.7l32.3-315c0.1-1.3,1.3-2.3,2.7-2.1
	c1.3,0.1,2.3,1.3,2.1,2.7l-32.3,315C246.1,550.4,245.1,551.2,243.8,551.2z"/>
<path class="st35" d="M342.1,551.2c-1.3,0-2.3-1-2.4-2.1l-32.3-315c-0.1-1.3,0.8-2.5,2.1-2.7c1.3-0.1,2.5,0.8,2.7,2.1l32.3,315
	c0.1,1.3-0.8,2.5-2.1,2.7C342.2,551.2,342.2,551.2,342.1,551.2z"/>
<path class="st35" d="M313.2,270.4h-40.5c-1.3,0-2.4-1.1-2.4-2.4c0-1.3,1.1-2.4,2.4-2.4h40.5c1.3,0,2.4,1.1,2.4,2.4
	C315.6,269.3,314.5,270.4,313.2,270.4z"/>
<path class="st35" d="M317.6,311.8h-49.1c-1.3,0-2.4-1.1-2.4-2.4c0-1.3,1.1-2.4,2.4-2.4h49.1c1.3,0,2.4,1.1,2.4,2.4
	C320,310.7,318.8,311.8,317.6,311.8z"/>
<path class="st35" d="M323.1,363.6h-59.9c-1.3,0-2.4-1.1-2.4-2.4c0-1.3,1.1-2.4,2.4-2.4h59.9c1.3,0,2.4,1.1,2.4,2.4
	C325.5,362.5,324.4,363.6,323.1,363.6z"/>
<path class="st35" d="M328.7,422.1h-71.6c-1.3,0-2.4-1.1-2.4-2.4c0-1.3,1.1-2.4,2.4-2.4h71.6c1.3,0,2.4,1.1,2.4,2.4
	C331.2,421,330,422.1,328.7,422.1z"/>
<path class="st35" d="M337.3,504.9h-88.6c-1.3,0-2.4-1.1-2.4-2.4c0-1.3,1.1-2.4,2.4-2.4h88.6c1.3,0,2.4,1.1,2.4,2.4
	C339.7,503.8,338.5,504.9,337.3,504.9z"/>
<g class="st2">
	<g class="st36">
		<path class="st37" d="M887.7,245.1H717.2c1.6,0,3.1-0.1,4.7-0.1c-23.1-2-41.1-18.7-41.1-38.8c0-20.2,18-36.8,41.1-38.8
			c-1.6-0.1-3.1-0.1-4.7-0.1c25.3,0,45.7-17.4,45.7-39.1c0-21.5-20.5-39.1-45.7-39.1H130c-25.3,0-45.7,17.4-45.7,39.1
			c0,21.5,20.5,39.1,45.7,39.1h-11.8c25.3,0,45.7,17.4,45.7,39.1c0,21.5-20.5,39.1-45.7,39.1H68.9C30.9,245.4,0,271.7,0,304.1
			c0,32.4,30.9,58.8,68.9,58.8h49.4c25.3,0,45.7,17.6,45.7,39.1s-20.5,39.1-45.7,39.1h11.8c-25.3,0-45.7,17.4-45.7,39.1
			c0,21.5,20.5,39.1,45.7,39.1h587.3c25.3,0,45.7-17.4,45.7-39.1c0-21.5-20.5-39.1-45.7-39.1c1.6,0,3.1-0.1,4.7-0.1
			c-23.1-2-41.1-18.7-41.1-38.8c0-20.2,18-36.8,41.1-38.8c-1.6-0.1-3.1-0.1-4.7-0.1h170.5c38.1,0,68.9-26.3,68.9-58.8
			C956.6,271.4,925.8,245.1,887.7,245.1z"/>
		<path class="st16" d="M14.2,131.4c0,0,15.7-37,26.9-37c11.2,0,16.3,10.2,21.9,8.4c5.8-1.7,17.3-51,34.7-49.1
			c17.4,1.8,14.9,43.2,32.3,46.3c17.4,3.3,27.6-24.9,47-20.2c19.4,4.7,23.5,40.2,28.6,48.8c5.1,8.8,13.2,14.9,2.5,14.9
			C197.5,143.6-9.8,143.2,14.2,131.4z"/>
		<path class="st16" d="M635,97.3c0,0,17-12.2,33.1-45.6c16-33.4,34.4-31.3,40.6-29.4c6.2,2,15.6,24.1,23.4,44
			c7.9,20,17.8,12,23.5-5.5c5.7-17.6,18.3-6.4,20,0.6s4.7,19.8,16.6,15.7c11.8-4.1,15.9-1.3,17.1,5.1s8.4,9.9,34.1,11.9
			c25.8,2,36.7,12.6,18.7,15.7C843.8,113,576.8,111.5,635,97.3z"/>
		<path class="st14" d="M100.6,217.2c9.8-3.8,14.6-14.8,10.8-24.6c-3.8-9.8-14.8-14.6-24.6-10.8c-9.8,3.8-14.6,14.8-10.8,24.6
			C79.9,216.2,90.9,221,100.6,217.2z"/>
		<path class="st14" d="M780.5,201c2.1-9-3.4-18-12.4-20.1c-9-2.1-18,3.4-20.1,12.4c-2.1,9,3.4,18,12.4,20.1
			C769.4,215.6,778.4,210,780.5,201z"/>
		<path class="st14" d="M32.1,437.5c9.1,0,16.4-7.4,16.4-16.4c0-9.1-7.4-16.4-16.4-16.4s-16.4,7.4-16.4,16.4
			C15.7,430.2,23.1,437.5,32.1,437.5z"/>
	</g>
	<path class="st38" d="M919.7,419.5c5.9,0,10.6-4.8,10.6-10.6c0-5.9-4.8-10.6-10.6-10.6c-5.9,0-10.6,4.8-10.6,10.6
		C909.1,414.8,913.8,419.5,919.7,419.5z"/>
</g>
</svg>
