<?xml version="1.0" encoding="utf-8"?>
<!-- Generator: Adobe Illustrator 24.0.0, SVG Export Plug-In . SVG Version: 6.00 Build 0)  -->
<svg version="1.1" id="Layer_1" xmlns="http://www.w3.org/2000/svg" xmlns:xlink="http://www.w3.org/1999/xlink" x="0px" y="0px"
	 viewBox="0 0 957 570" style="enable-background:new 0 0 957 570;" xml:space="preserve">
<style type="text/css">
	.st0{display:none;}
	.st1{display:inline;fill:#9F9F9F;}
	.st2{display:inline;fill:none;stroke:#353535;stroke-linecap:round;stroke-linejoin:round;stroke-miterlimit:10;}
	.st3{display:inline;fill:#858585;}
	.st4{display:inline;fill:#616161;}
	.st5{display:inline;fill:none;stroke:#2D2D2D;stroke-linecap:round;stroke-linejoin:round;stroke-miterlimit:10;}
	.st6{display:inline;fill:#555555;}
	.st7{display:inline;fill:#A9A9A9;}
	.st8{display:inline;fill:#929292;}
	.st9{display:inline;fill:#818181;}
	.st10{fill:#DFDFDF;}
	.st11{fill:#9C9C9C;}
	.st12{fill:#DBDBDB;}
</style>
<g class="st0">
	<path class="st1" d="M245.8,524.9c0,0-17.8,26.1-44.2,7.1c-26.3-19-22.9-13.5-55.6-13c-32.7,0.4-26.5-33.8-19.1-42.8
		c7.4-8.9,3.7-26.3-17.4-21.5s-43.6,4.2-35.3-21.1c8.4-25.2-14.2-31.6-22.7-52.1s-7.9-43.6,5.2-46.3c13.2-2.7,25.8,17.8,36.8,17.4
		c11-0.6,16.3-20,29.4-17.6c13.2,2.4,13.3,10.2,22.7,31.3c9.5,21.1,20,19.5,33.1,14.7c13.2-4.7,25.8,1.6,32.6,20s9.3,41.6,14.9,43.6
		C232.2,446.7,260.5,494,245.8,524.9z"/>
	<path class="st2" d="M91.7,373.1c0,0,116.7,59.9,154,151.8"/>
	<path class="st3" d="M144.1,419.5c6.1,6.7,8.5,14.4,5.4,17.1c-3.1,2.8-10.5-0.3-16.6-6.9c-6.1-6.7-8.5-14.4-5.4-17.1
		C130.7,409.8,138,412.9,144.1,419.5z"/>
	<path class="st3" d="M126.6,372c3.1,3.1,4,7.2,1.8,9.3c-2.1,2.1-6.2,1.3-9.3-1.8c-3.1-3.1-4-7.2-1.8-9.3
		C119.2,368,123.4,368.8,126.6,372z"/>
	<path class="st3" d="M194.2,412.2c6.4,6.4,8.9,14.3,5.5,17.7c-3.4,3.4-11.2,0.8-17.7-5.5c-6.4-6.4-8.9-14.3-5.5-17.7
		C179.9,403.2,187.7,405.7,194.2,412.2z"/>
	<path class="st3" d="M203.1,508.5c6.8-5.5,5.5-18.3-2.8-28.4c-8.3-10.2-20.6-13.9-27.3-8.4c-6.8,5.5-5.5,18.3,2.8,28.4
		C184.1,510.3,196.4,514,203.1,508.5z"/>
	<path class="st4" d="M242.7,523.3c0,0-35.3-78.3-69.5-131.2s-30-107.6,12.6-112.8C228.4,274,265.3,368.1,242.7,523.3z"/>
	<path class="st5" d="M195.9,315.5c0,0,50.4,92.6,46.7,207.8"/>
	<path class="st6" d="M189,332.5c3.3,8.9,2.1,17.6-2.4,19.1c-4.5,1.7-10.9-4.2-14.2-13.2c-3.3-8.9-2.1-17.6,2.4-19.1
		C179.4,317.7,185.7,323.5,189,332.5z"/>
	<path class="st6" d="M206.7,375.4c2,5.7,1.3,11-1.6,12c-2.8,1-6.8-2.7-8.9-8.2c-2-5.7-1.3-11,1.6-12
		C200.7,366.2,204.7,369.8,206.7,375.4z"/>
	<path class="st6" d="M232.3,366.7c3.8-1.4,4.2-9.6,1-18.4s-8.8-14.9-12.6-13.5s-4.2,9.6-1,18.4C223,362,228.6,368.1,232.3,366.7z"
		/>
	<path class="st6" d="M218.4,416.3c1.3,2.8,0.8,5.8-0.9,6.5s-4.1-1-5.2-3.8c-1.3-2.8-0.8-5.8,0.8-6.5
		C214.8,411.7,217.2,413.4,218.4,416.3z"/>
	<path class="st7" d="M176,540.4c0,0-5.9-7.9,4-18c0,0-5.8-33.8,28.7-38.4c0,0,6.5-22.8,26.1-25.3c19.5-2.5,35.1,9.8,39.6,26.6
		c0,0,15-5.2,28.6,4c13.6,9.1,12.3,28,12.3,28s15,5.4,9.1,23.2H176V540.4z"/>
	<path class="st8" d="M241.2,503.4c0,0-11,0-13.2-19.1c-1.1-9.9,3.1-19,7.5-25.5c-0.3,0-0.6,0-0.7,0c-19.5,2.5-26.1,25.3-26.1,25.3
		c-34.4,4.5-28.7,38.4-28.7,38.4c-10.1,10.1-4,18-4,18h63C221.1,521.9,241.2,503.4,241.2,503.4z"/>
	<path class="st1" d="M709.3,524.9c0,0,17.8,26.1,44.2,7.1c26.3-19,22.9-13.5,55.6-13c32.7,0.4,26.5-33.8,19.1-42.8
		c-7.4-8.9-3.7-26.3,17.4-21.5c21.1,4.7,43.6,4.2,35.3-21.1c-8.4-25.2,14.2-31.6,22.7-52.1c8.4-20.5,7.9-43.6-5.2-46.3
		c-13.2-2.7-25.8,17.8-36.8,17.4c-11-0.6-16.3-20-29.4-17.6c-13.2,2.4-13.3,10.2-22.7,31.3c-9.5,21.1-20,19.5-33.1,14.7
		c-13.2-4.7-25.8,1.6-32.6,20s-9.3,41.6-14.9,43.6C722.9,446.7,694.7,494,709.3,524.9z"/>
	<path class="st5" d="M863.5,373.1c0,0-116.7,59.9-154,151.8"/>
	<path class="st9" d="M822.4,429.7c6-6.7,8.4-14.4,5.3-17.2c-3.1-2.8-10.6,0.3-16.6,6.9c-6,6.7-8.4,14.4-5.3,17.2
		C809,439.5,816.4,436.4,822.4,429.7z"/>
	<path class="st9" d="M828.7,372c-3.1,3.1-4,7.2-1.8,9.3c2.1,2.1,6.2,1.3,9.3-1.8c3.1-3.1,4-7.2,1.8-9.3
		C835.9,368,831.8,368.8,828.7,372z"/>
	<path class="st4" d="M712.6,523.3c0,0,35.3-78.3,69.5-131.2c34.3-53,30-107.6-12.6-112.8C726.7,274,689.9,368.1,712.6,523.3z"/>
	<path class="st5" d="M759.3,315.5c0,0-50.4,92.6-46.7,207.8"/>
	<path class="st6" d="M766.2,332.5c-3.3,8.9-2.1,17.6,2.4,19.1c4.5,1.7,10.9-4.2,14.2-13.2c3.3-8.9,2.1-17.6-2.4-19.1
		C775.7,317.7,769.5,323.5,766.2,332.5z"/>
	<path class="st6" d="M748.5,375.4c-2,5.7-1.3,11,1.6,12c2.8,1,6.8-2.7,8.9-8.2c2-5.7,1.3-11-1.6-12
		C754.5,366.2,750.5,369.8,748.5,375.4z"/>
	<path class="st6" d="M721.9,348.2c-3.1,8.8-2.7,17,1,18.4c3.7,1.3,9.3-4.7,12.5-13.4c3.1-8.8,2.7-17-1-18.4
		C730.7,333.5,725.1,339.4,721.9,348.2z"/>
	<path class="st6" d="M736.8,416.3c-1.3,2.8-0.8,5.8,0.8,6.5c1.7,0.7,4.1-1,5.2-3.8c1.3-2.8,0.8-5.8-0.8-6.5
		C740.3,411.7,738,413.4,736.8,416.3z"/>
	<path class="st7" d="M779.2,540.4c0,0,5.9-7.9-4-18c0,0,5.8-33.8-28.7-38.4c0,0-6.5-22.8-26.1-25.3c-19.5-2.5-35.1,9.8-39.6,26.6
		c0,0-15-5.2-28.6,4c-13.6,9.1-12.3,28-12.3,28s-15,5.4-9.1,23.2h148.4L779.2,540.4L779.2,540.4z"/>
	<path class="st8" d="M714,503.4c0,0,11,0,13.2-19.1c1.1-9.9-3.1-19-7.5-25.5c0.3,0,0.6,0,0.7,0c19.5,2.5,26,25.3,26,25.3
		c34.4,4.5,28.7,38.4,28.7,38.4c10.1,10.1,4,18,4,18h-62.9C734.1,521.9,714,503.4,714,503.4z"/>
</g>
<g>
	<g>
		<path class="st10" d="M887.7,201.1H717.2c1.6,0,3.1-0.1,4.7-0.1c-23.1-2-41.1-18.7-41.1-38.8c0-20.2,18-36.8,41.1-38.8
			c-1.6-0.1-3.1-0.1-4.7-0.1c25.3,0,45.7-17.4,45.7-39.1c0-21.5-20.5-39.1-45.7-39.1H130c-25.3,0-45.7,17.4-45.7,39.1
			c0,21.5,20.5,39.1,45.7,39.1h-11.8c25.3,0,45.7,17.4,45.7,39.1c0,21.5-20.5,39.1-45.7,39.1H68.9C30.9,201.4,0,227.7,0,260.1
			s30.9,58.8,68.9,58.8h49.4c25.3,0,45.7,17.6,45.7,39.1s-20.5,39.1-45.7,39.1h11.8c-25.3,0-45.7,17.4-45.7,39.1
			c0,21.5,20.5,39.1,45.7,39.1h587.3c25.3,0,45.7-17.4,45.7-39.1c0-21.5-20.5-39.1-45.7-39.1c1.6,0,3.1-0.1,4.7-0.1
			c-23.1-2-41.1-18.7-41.1-38.8c0-20.2,18-36.8,41.1-38.8c-1.6-0.1-3.1-0.1-4.7-0.1h170.5c38.1,0,68.9-26.3,68.9-58.8
			C956.6,227.4,925.8,201.1,887.7,201.1z"/>
		<path class="st11" d="M14.2,106.4c0,0,15.7-37,26.9-37S57.4,79.6,63,77.8c5.8-1.7,17.3-51,34.7-49.1c17.4,1.8,14.9,43.2,32.3,46.3
			c17.4,3.3,27.6-24.9,47-20.2c19.4,4.7,23.5,40.2,28.6,48.8c5.1,8.8,13.2,14.9,2.5,14.9C197.5,118.6-9.8,118.2,14.2,106.4z"/>
		<path class="st11" d="M635,91.3c0,0,17-12.2,33.1-45.6c16-33.4,34.4-31.3,40.6-29.4c6.2,2,15.6,24.1,23.4,44
			c7.9,20,17.8,12,23.5-5.5c5.7-17.6,18.3-6.4,20,0.6s4.7,19.8,16.6,15.7c11.8-4.1,15.9-1.3,17.1,5.1s8.4,9.9,34.1,11.9
			c25.8,2,36.7,12.6,18.7,15.7C843.8,107,576.8,105.5,635,91.3z"/>
		<path class="st12" d="M100.6,188.2c9.8-3.8,14.6-14.8,10.8-24.6c-3.8-9.8-14.8-14.6-24.6-10.8S72.2,167.6,76,177.4
			C79.9,187.2,90.9,192,100.6,188.2z"/>
		<path class="st12" d="M780.5,172c2.1-9-3.4-18-12.4-20.1s-18,3.4-20.1,12.4s3.4,18,12.4,20.1C769.4,186.6,778.4,181,780.5,172z"/>
		<path class="st12" d="M32.1,418.5c9.1,0,16.4-7.4,16.4-16.4c0-9.1-7.4-16.4-16.4-16.4s-16.4,7.4-16.4,16.4
			C15.7,411.2,23.1,418.5,32.1,418.5z"/>
	</g>
	<path class="st12" d="M919.7,400.5c5.9,0,10.6-4.8,10.6-10.6c0-5.9-4.8-10.6-10.6-10.6c-5.9,0-10.6,4.8-10.6,10.6
		C909.1,395.8,913.8,400.5,919.7,400.5z"/>
</g>
</svg>
