<?xml version="1.0" encoding="utf-8"?>
<!-- Generator: Adobe Illustrator 24.0.0, SVG Export Plug-In . SVG Version: 6.00 Build 0)  -->
<svg version="1.1" id="Layer_1" xmlns="http://www.w3.org/2000/svg" xmlns:xlink="http://www.w3.org/1999/xlink" x="0px" y="0px"
	 viewBox="0 0 718 570" style="enable-background:new 0 0 718 570;" xml:space="preserve">
<style type="text/css">
	.st0{opacity:0.6;fill:#E1E1E1;enable-background:new    ;}
	.st1{opacity:0.5;fill:#FFFFFF;enable-background:new    ;}
	.st2{display:none;}
	.st3{display:inline;opacity:0.6;fill:#E1E1E1;enable-background:new    ;}
	.st4{fill:#484848;}
	.st5{fill:#5A5A5A;}
	.st6{fill:#F43E29;}
	.st7{fill:#D02E1B;}
	.st8{fill:#BFBFBF;}
	.st9{fill:#181818;}
	.st10{fill:#2F2F2F;}
	.st11{fill:#434343;}
	.st12{fill:#A8A8A8;}
	.st13{fill:#B2B2B2;}
	.st14{fill:#9C9C9C;}
	.st15{fill:#FFFFFF;}
	.st16{fill:#EDEDED;}
	.st17{fill:#303030;}
	.st18{display:inline;fill:#E1E1E1;}
	.st19{display:inline;fill:#5A5A5A;}
	.st20{display:inline;fill:#B2B2B2;}
	.st21{display:inline;fill:#D02E1B;}
	.st22{display:inline;fill:#FFFFFF;}
</style>
<path class="st0" d="M682.8,354.3c-5,25.9-14.7,50.1-28.1,71.3c-37.2,59-102.9,97.1-176.2,97.1H338.1c-57.1,0-111.3-23.3-150.7-64.4
	c-1.7-1.7-3.5-3.7-5-5.4c-21.8-24.6-37.6-53.8-46-85.4c-2.8-10.6-4.8-21.2-5.8-32.2c0-0.2,0-0.4,0-0.9c-1.9-19.9-2.6-38.9-1.5-56.8
	c2.2-40,12.3-74.8,31.8-100.7c22.7-30.3,58.1-48.4,108.9-48.9c2.2,0,4.3,0,6.5,0c139.9,2.2,135.3,65.9,249.9,94
	c26.2,6.5,58.6,11,100.5,12.3c0.9,0,1.9,0,2.8,0.2C688.2,238.4,694.5,293.3,682.8,354.3z"/>
<path class="st1" d="M629.4,234.5c-39.6,20.8-101.6,42.8-176.2,34.8C340,257,197.4,233.4,129.1,277.8c2.2-40,12.3-74.8,31.8-100.7
	c24-5.6,54.3-5.8,92.7,4.1c83.2,21.4,191.3,45,272.6,40.9c26.2,6.5,58.6,11,100.5,12.3C627.5,234.5,628.6,234.5,629.4,234.5z"/>
<path class="st1" d="M682.8,354.3c-5,25.9-14.7,50.1-28.1,71.3c-28.7,8.6-66.8,11.9-116.3,1.1c-120.6-26.4-253.1-25.9-351,31.3
	c-1.7-1.7-3.5-3.7-5-5.4c-21.8-24.6-37.6-53.8-46-85.4c34.2-16.2,119.8-47.6,230.2-22.5C483.1,371.6,616.5,392.8,682.8,354.3z"/>
<g class="st2">
	<path class="st3" d="M0,56.2c0,2.8,1.1,5.2,2.8,6.9c1.7,1.7,4.3,2.8,6.9,2.8h212c5.4,0,9.9-4.5,9.9-9.9c0-2.8-1.1-5.2-3-6.9
		c-1.7-1.7-4.3-3-6.9-3h-9.9c-3.9-9.3-13.2-15.6-23.8-15.6c-7.1,0-13.6,2.8-18.4,7.6c-6.3-10.6-17.7-17.7-30.9-17.7
		c-3.7,0-7.1,0.6-10.4,1.5C121.5,8.9,107.9,0,92.1,0C73.3,0,57.3,12.8,52.5,30c-3.5-1.7-7.3-2.8-11.7-2.8C29.2,27.2,19.2,35,16,45.8
		H9.5C4.5,46.3,0,50.8,0,56.2z"/>
	<path class="st3" d="M450.9,102.5c0,1.7-0.6,3.5-1.9,4.5c-1.1,1.1-2.8,1.9-4.5,1.9H306.9c-3.5,0-6.5-2.8-6.5-6.5
		c0-1.7,0.6-3.5,1.9-4.5c1.1-1.1,2.8-1.9,4.5-1.9h6.5c2.6-6.1,8.4-10.2,15.3-10.2c4.5,0,8.9,1.9,11.9,5c4.1-6.9,11.5-11.5,20.1-11.5
		c2.4,0,4.5,0.4,6.7,1.1C372,72,380.9,66.4,391,66.4c12.3,0,22.5,8.2,25.7,19.5c2.2-1.1,4.8-1.7,7.6-1.7c7.6,0,14,5.2,16,12.1h4.1
		C448.1,96,450.9,99,450.9,102.5z"/>
	<path class="st3" d="M495.9,72.6c0,2.6,1.1,5,2.8,6.7c1.7,1.7,4.1,2.8,6.7,2.8h202.5c5.2,0,9.5-4.3,9.5-9.5c0-2.6-1.1-5-2.8-6.7
		c-1.7-1.7-4.1-2.8-6.7-2.8h-9.5c-3.7-8.9-12.5-14.9-22.7-14.9c-6.9,0-13,2.8-17.5,7.3c-6.1-10.2-17.1-16.9-29.6-16.9
		c-3.5,0-6.7,0.4-9.9,1.5C612.1,27.9,599,19.5,584,19.5c-17.9,0-33.3,12.1-37.8,28.7c-3.2-1.7-7.1-2.6-11-2.6
		c-11.2,0-20.8,7.6-23.8,17.7h-6.1C500,63.1,495.9,67.4,495.9,72.6z"/>
</g>
<path class="st0" d="M717.4,551c0,10.4-149.1,19-333.3,19c-183.9,0-333.3-8.4-333.3-19c0-10.4,149.1-19,333.3-19
	C568.1,532,717.4,540.6,717.4,551z"/>
<path class="st4" d="M163.2,550.8h5.8l-21.4-55.6c1.1-5.2,3.2-12.1,8-20.3c8.9-15.3,15.6-33.5,4.1-32.2
	c-9.7,1.1-16.6,21.8-16.2,42.1l-7.8-19.9c-1.3-6.5-3.2-16-2.6-26.6c1.5-24.6-1.7-48-13.6-41.7c-11.9,6.5-5.6,46.7,12.1,72.6
	l3.9,10.4c-12.8-19.2-36.7-34.6-46-27.9c-9.3,6.7,7.8,15.6,24.6,21.2c13,4.1,20.3,9.9,23.8,13.2l18.6,48.4
	c-20.1-30.3-58.4-54.7-73.1-44.1C68.7,501,95.8,515.1,122.6,524c20.3,6.7,32.2,15.6,37.6,20.8L163.2,550.8z"/>
<path class="st4" d="M601.1,550.8c1.1-5,0.6-10.8-1.7-16c-6.3-13.6,1.7-18.2,11.9-25.1s8.6-20.5-1.7-30c-10.4-9.5,1.9-21.4-6.9-37
	s-24.6-0.6-25.3,15.8c-0.4,11.7-15.6,12.3-17.7,27.9c-1.9,13.4,16.2,21.6-0.6,31.3c-5.4,3-7.6,8.2-8.2,13.8
	c-0.6,7.1,1.5,14,5.8,19.2H601.1z"/>
<path class="st4" d="M577.6,550.8l15.1-86.7c0.2-0.9-0.4-1.5-1.1-1.5c-0.9-0.2-1.5,0.4-1.5,1.1L574.8,551h2.8V550.8z"/>
<path class="st5" d="M643.5,550.8c0.2-1.3,0.2-2.4,0.2-3.7c-0.2-19,11.2-20.3,26.6-23.1s20.5-19.7,13.4-35.9
	c-7.3-16.2,13.2-24,10.8-46.7c-2.4-22.7-28.5-13.2-37.4,5.6c-6.5,13.4-24.4,6.7-35,23.6c-9.1,14.7,7.8,33.5-16.6,36.1
	c-7.8,0.9-13,5.6-16.4,11.9c-5.8,10.2-5.6,22.3-0.4,32.2H643.5z"/>
<path class="st4" d="M612.8,550.8l59.2-89.7c0.4-0.9,0.2-1.9-0.4-2.4c-0.9-0.4-1.9-0.2-2.4,0.4l-60.5,91.7H612.8z"/>
<path class="st4" d="M216.4,523.3c-5.4-42.1-13.4-86-22.3-114.3c-11.5-37.2-25.7-61.6-42.6-73.1c-1.1-0.6-2.6-0.4-3.5,0.6
	c-0.6,1.1-0.4,2.6,0.6,3.5c29.4,19.9,51,84.5,62.9,186.8L216.4,523.3z"/>
<path class="st5" d="M181.4,376.5c0,0,19.9-3.9,11.7-38.7C193,337.9,164.1,352.5,181.4,376.5z"/>
<path class="st5" d="M186.5,394.3c0,0-2.8-20.1-38-13.8C148.5,380.4,161.5,410,186.5,394.3z"/>
<path class="st5" d="M161.5,348c0,0,4.1-19.9-31.3-25.7C130.3,322.3,132.7,354.7,161.5,348z"/>
<path class="st5" d="M198,429.7c0,0,20.1,3,24.2-32.4C222.2,397.1,190,401.2,198,429.7z"/>
<path class="st5" d="M200.6,448.5c0,0,0.6-20.3-35-20.1C165.6,428.4,173.1,459.8,200.6,448.5z"/>
<path class="st5" d="M206.6,474c0,0,20.1,3.5,24.6-32C231.3,442,199.1,445.5,206.6,474z"/>
<path class="st6" d="M682.8,346.5v0.2l-43.4,82.4L623,399L418.3,511.2l-33.1-60.1L201.2,552.3h-71.1l268.7-147.4l32.9,60.1l174.9-96
	l-16.6-30L682.8,346.5z"/>
<path class="st7" d="M682.8,346.7l-43.4,82.4L623,399L418.3,511.2l-33.1-60.1L201.2,552.3h-40.6l229.6-126l33.1,60.1L682.8,346.7z"
	/>
<path class="st8" d="M302,409.8l-11.9,8.2c0,0-0.2,5.4,4.5,11.2l14.1-9.3L302,409.8z"/>
<path class="st5" d="M296.3,425c1.7,2.2,2.6,3.7,0.9,6.5c-1.1,1.7-4.3,20.8-3.2,26.6c0.9,5.6-3.5,6.1-5.8,5.8
	c-2.4-0.2-14.9-43-14.9-43s11.9-5.6,16.2-5.8C293.8,415,294,421.1,296.3,425z"/>
<path class="st9" d="M393.2,292.5c0,0-1.3,69.8-8.6,83.4c-7.3,13.8-78.5,46.9-78.5,46.9s-5-5.6-6.5-13.6c0,0,20.1-17.5,27.9-25.5
	c11.9-11.9,29.4-22.3,29.4-22.3l-1.7-79.3L393.2,292.5z"/>
<path class="st10" d="M302.2,405.5c0,0-5.2,3.2-6.7,4.8c0,0,4.1,13.4,10.8,14.9l5.2-3.2C311.5,422.1,304.1,413.1,302.2,405.5z"/>
<path class="st8" d="M508.6,384.8l7.3,12.3c0,0,5.4,0.4,11.5-3.9l-8.4-14.5L508.6,384.8z"/>
<path class="st5" d="M523.7,390.8c1.7-2.2,3.2-3,6.3-1.7c1.9,0.9,21.2,1.1,26.8-0.6s8.9,3.7,6.7,4.8c-11.2,6.3-40.2,21.2-40.2,21.2
	s-7.6-11-8.2-15.1C514.4,394.9,520.3,393.6,523.7,390.8z"/>
<path class="st10" d="M389.7,252.9c0,0,78.2,30.3,88.4,42.1c10.2,11.9,44.3,86,44.3,86s-5.8,10.4-13.8,8.4c0,0-17.5-25.7-23.6-35.4
	c-6.5-10.4-21.6-22.7-29-45c0,0-41.7-1.5-73.7-6.7c-21.4-3.5-36.3-18.8-31.1-40c0,0,0,0,0-0.2c0.4-1.3,1.5-2.2,2.8-2.4L389.7,252.9z
	"/>
<path class="st11" d="M504.5,385.6c0,0,2.6,4.5,4.3,6.1c0,0,10.2-2.8,15.1-10.6l-2.6-5.2C521.4,376.1,512.5,382.6,504.5,385.6z"/>
<path class="st8" d="M549.7,110.5c-2.4-0.6-12.8,5.6-13.2,5.8c-0.4,0.2-2.6-0.4-4.5-0.6c-2.2-0.2-3.2,0.6-4.8,3.5
	c-1.5,2.8-2.8,7.8-2.8,7.8c-1.1,0.4-2.2,0.9-3.2,1.5c1.7,3,3.7,6.3,5.6,9.1c1.7-1.1,3.2-2.2,4.8-3c1.1,0.4,2.2,0.4,3,0.2
	c2.6-0.6,4.8-1.5,5.8-2.2c0.6-0.2,1.1-0.4,1.1-0.4c0.2,0,1.5,0.4,3.7-0.2c2.6-0.9,4.3-2.8,4.1-4.1c0-1.3-1.5-1.9-1.5-1.9
	s1.1-1.1,0.9-2.4c-0.2-1.3-2.6-2.6-2.6-2.6s1.1-1.5,0-2.8c-1.1-1.3-4.1,0.2-4.3,0.2C542.3,118,552.3,111.1,549.7,110.5z"/>
<path class="st12" d="M530.7,124.1h-0.2c-0.2-0.2-0.4-0.4-0.2-0.9l1.1-2.4c0-0.2,0.2-0.2,0.4-0.2c0.2,0,0.2,0,0.4,0
	c0,0,2.8,1.5,5.2,0.9c0.6-0.2,1.3-0.6,1.3-1.1c0.2-0.4,0-0.9,0-0.9c-0.2-0.2,0-0.6,0.2-0.9c0.2-0.2,0.6,0,0.9,0.2c0,0,0.4,0.9,0,1.9
	c-0.2,0.6-1.1,1.3-2.2,1.7c-2.2,0.6-4.5-0.2-5.4-0.6l-0.9,1.9C531.1,123.9,530.9,124.1,530.7,124.1z"/>
<path class="st12" d="M541.7,132.3c0,0-0.4,0.2-1.3,0.4c-1.1-1.1-1.3-2.6-1.3-3.7c-0.2-1.1-0.2-1.9-0.9-2.6
	c-0.6-0.6-0.9-1.3-1.1-2.2c0-0.6,0-1.3,0.2-1.9c0-0.2,0-0.4,0.2-0.6c0.2-0.4,0.2-0.6,0.2-0.6c0.2-0.2,0.4-0.4,0.9-0.2
	c0.2,0.2,0.4,0.4,0.2,0.9c0,0,0,0,0,0.2c-0.2,0.4-0.4,1.3-0.4,2.2c0,0.6,0.2,1.1,0.6,1.7c0.9,0.9,1.1,2.2,1.1,3.2
	C540.4,130.1,540.4,131.4,541.7,132.3z"/>
<path class="st12" d="M533.3,128.4c-0.2,0-0.4,0-0.6-0.2c-0.2-0.2,0-0.6,0.2-0.9c0,0,3.2-1.9,3.5-5.2c0-0.2,0.2-0.6,0.6-0.6
	c0.2,0,0.6,0.2,0.6,0.6c-0.2,3.9-3.9,6.1-4.1,6.1C533.5,128.4,533.5,128.4,533.3,128.4z"/>
<path class="st5" d="M528.3,137.5c0,0-32.2,20.5-41.5,22.3c-9.3,1.7-37.6-2.6-37.6-2.6c-3.2-0.2-6.1-0.6-8.6-1.1
	c-8.6-1.5-13.6-4.5-16.6-8.2c-5-6.3-1.9-15.1,0.9-22.5c0,0,4.5,3.5,27,8.2c0,0,32,6.3,33.7,6.5c0,0,24.2-7.8,37.4-13.8
	C523.1,126.7,525.9,135.7,528.3,137.5z"/>
<path class="st4" d="M523.1,125.6l-4.1,1.9l6.3,13l4.1-2.2L523.1,125.6z"/>
<path class="st4" d="M440.5,156.1c-8.6-1.5-13.6-4.5-16.6-8.2c-1.9-8-3-16.6,0-18.8C424.1,129,433.2,146.3,440.5,156.1z"/>
<path class="st9" d="M337.2,271.7l-30.9,67.2c-1.3,2.6-4.3,3.9-6.9,2.6L190,291.4c-2.6-1.3-3.9-4.3-2.6-6.9l30.9-67.2
	c1.3-2.6,4.3-3.9,6.9-2.6l109.4,50.1C337.2,266.1,338.3,269.1,337.2,271.7z"/>
<path class="st10" d="M320.3,308.2l16.6-36.5c1.3-2.6,0-5.8-2.6-6.9L225,214.6c-2.6-1.3-5.8,0-6.9,2.6l-16.6,36.5L320.3,308.2z"/>
<path class="st13" d="M301.5,236.7l-5,10.6l-5.4-2.4l4.8-10.4l-5.2-2.4l-0.2-0.2l-3.2-1.5l-0.4-0.2l-13.8-6.3l-4.8,10.4l-5.4-2.4
	l5-10.6c1.3-2.8,4.5-4.1,7.3-2.8l13,6.1l1.1,0.4l1.7,0.9l0.4,0.2l7.3,3.5C301.7,230.6,302.8,233.9,301.5,236.7z"/>
<path class="st14" d="M290.5,232.2l-3.2-1.5l-0.4-0.2c0.2-2.2,0.9-4.3,1.3-6.1l1.1,0.4l1.7,0.9C290.5,228.3,290.5,230.4,290.5,232.2
	z"/>
<path class="st14" d="M264.7,228.1l-1.8,3.9l5.5,2.5l1.8-3.9L264.7,228.1z"/>
<path class="st14" d="M293.1,240.9l-1.8,3.9l5.5,2.5l1.8-3.9L293.1,240.9z"/>
<path class="st14" d="M233.9,262l-5,10.6c-0.2,0.6-0.9,0.9-1.5,0.6l-5.4-2.6c-0.6-0.2-0.9-0.9-0.6-1.5l5-10.6
	c0.2-0.6,0.9-0.9,1.5-0.6l5.4,2.6C233.9,260.7,234.1,261.5,233.9,262z"/>
<path class="st13" d="M233.9,262l-2.4,5.4l-7.6-3.5l2.4-5.4c0.2-0.6,0.9-0.9,1.5-0.6l5.4,2.6C233.9,260.7,234.1,261.5,233.9,262z"/>
<path class="st14" d="M300.4,292.7l-5,10.6c-0.2,0.6-0.9,0.9-1.5,0.6l-5.4-2.6c-0.6-0.2-0.9-0.9-0.6-1.5l5-10.6
	c0.2-0.6,0.9-0.9,1.5-0.6l5.4,2.6C300.4,291.4,300.7,292,300.4,292.7z"/>
<path class="st13" d="M300.4,292.7l-2.4,5.4l-7.6-3.5l2.4-5.4c0.2-0.6,0.9-0.9,1.5-0.6l5.4,2.6C300.4,291.4,300.7,292,300.4,292.7z"
	/>
<path class="st8" d="M296.1,228c-1.1-0.4-2.6-1.1-3.5-1.5c0-0.2,0-0.6-0.2-1.3c-0.6-1.1-2.2-0.6-2.4,0c-0.9,1.1-1.7,3.5-1.9,5.6
	l1.5,0.9c0,0-1.5,1.7-2.6,1.5c-1.7-0.4-1.5-2.2-1.5-2.2s-0.9,1.5-2.2,1.1c-1.3-0.4-1.3-2.2-1.3-2.2c-2.2,1.1-3-1.1-3-1.1
	s-2.2,0.9-2.6-1.1c-0.4-1.9,2.4-7.6,2.4-7.6c2.2-5.2,5.4-11,8.4-14.7c0.6-1.7,1.7-3.7,2.6-5.6c2.2,1.5,4.5,3,6.7,4.5
	c1.3,0.9,2.6,1.7,3.9,2.8c-1.9,2.6-3.7,4.8-4.8,6.3c0,1.5,0.2,3.2,0,4.5C295.5,220.3,297.2,225.2,296.1,228z"/>
<path class="st5" d="M352.1,166.4l28.5-11.7c0,0,11.9-20.5,4.8-34.2c0,0-29.4,13.6-44.5,22c0,0-22.5,12.1-30,20.5L287.5,203
	c0,0,7.1,8,11.9,7.6c8.6-11.9,20.8-28.7,23.1-34.4L352.1,166.4z"/>
<path class="st4" d="M288.6,200.2c-1.5,1.1-2.8,2.8-3.2,5l13,8.4c1.3-1.3,2.6-2.8,3.5-4.8L288.6,200.2z"/>
<path class="st5" d="M423.4,247.3c-1.5,8.9,0,19.9,0,19.9c-11.7-4.5-29.2-13.4-45.8-6.1c-13.4,5.8-26.6,2.6-26.6,2.6
	s-1.3-15.1,2.6-30.7c3.9-15.3,7.8-34.8,9.1-42.4c1.1-6.5,2.2-12.5,3.2-18.2c0.6-3.5,1.3-6.9,1.9-10.2c3.7-18.4,5.4-33.9,8.2-36.5
	c8.2-6.7,27-13.4,27-13.4l12.8,3.5c0,0,13.6,10.6,13.4,18.2c-1.3,67.4-3,67.9-4.3,88.4C425,228.7,425.2,238,423.4,247.3z"/>
<path class="st4" d="M365.1,235.2c-0.2,0-0.4,0-0.4,0c-0.4,0-0.9-0.4-0.9-0.9c0-0.4,0.4-0.9,0.9-0.9c0,0,0,0,0.2,0
	c1.9,0.2,17.9,1.1,29.2-3.2c14.5-5.4,23.1-16.6,23.1-16.9c0.2-0.4,0.9-0.4,1.3-0.2c0.4,0.2,0.4,0.9,0.2,1.3
	c-0.4,0.4-9.1,11.9-24,17.5C383.3,236.3,367.7,235.4,365.1,235.2z"/>
<path class="st4" d="M404.9,236c0-0.6-0.6-1.1-1.3-0.6c-6.9,3.9-19.7,9.3-33.5,7.1c-0.4,0-0.9,0.2-1.1,0.6c0,0.4,0.2,0.9,0.6,1.1
	c1.7,0.2,3.5,0.4,5.2,0.4c12.1,0.4,23.1-4.3,29.4-7.8C404.6,236.7,404.9,236.5,404.9,236z"/>
<path class="st4" d="M390.8,152.2c0,0-9.3,10.4-24.4,17.9c0.6-3.5,1.5-7.1,2.2-10.4l1.3-0.4L390.8,152.2z"/>
<path class="st15" d="M422.1,213.3l-7.8,22.9l-9.5-21.8l6.9-74.6l0.2-3l3.5-0.2l0.4,3.9L422.1,213.3z"/>
<path class="st16" d="M415.9,140.5l-1.7,1.9l-2.4-2.6l0.2-3l3.5-0.2L415.9,140.5z"/>
<path class="st15" d="M418.3,131.2l-4.1,9.1l-6.7-9.7l6.7-7.8L418.3,131.2z"/>
<path class="st4" d="M398.4,123.6c-0.6-2.6-0.9-5.4-0.2-8c0.2-0.6,0.4-1.3,0.6-1.7c1.5-2.6,5.2-1.5,5.2-1.5
	c1.7,7.6,9.9,10.4,9.9,10.4l-7.8,12.5C406.2,135.3,401,133.6,398.4,123.6z"/>
<path class="st4" d="M418.9,115.9c0,0,5,4.5,3.5,10.2l-2.2,9.3l-6.1-12.5C414.2,122.8,417.4,119.3,418.9,115.9z"/>
<path class="st8" d="M422.6,106.6l-2.6,8l-1.7,5.2c-0.2,0.9-1.7,3-2.6,3c-5.8-0.2-9.7-3.7-12.1-6.7l1.7-12.5c0,0,3.2-0.6,7.1-0.6
	L422.6,106.6z"/>
<path class="st12" d="M422.6,106.6l-2.6,8c-6.3-3.7-8.2-9.9-8.6-11.7c0.4,0,0.6,0,1.1,0L422.6,106.6z"/>
<path class="st8" d="M435.3,77.2c0.6,4.1,1.1,9.5,1.1,13.6c0,1.1,0,1.9-0.2,3c0,0.4,0,1.1-0.2,1.7c-0.2,1.1-0.2,2.2-0.2,3.5v0.2
	c-0.2,1.7-0.2,3.7-0.6,5.4c-0.2,0.9-0.4,1.5-0.6,2.4c-0.2,0.4-0.2,0.9-0.4,1.3c-2.2,5.4-3.9,9.5-17.3,0.6c-6.3-4.1-13.2-2.8-16-10.4
	c0,0,0,0,0-0.2c-1.9-5.2-3.2-10.6-3.9-14.3c-0.6-3.9,0.9-8,3.9-10.6c8.2-6.9,18.4-6.9,25.3-5.6C431,68.5,434.7,72.2,435.3,77.2z"/>
<path class="st12" d="M410.9,95.5c0,0,2.6-0.6,3.9-2.8c0,0-0.4,6.1-5.4,6.1L410.9,95.5z"/>
<path class="st17" d="M437.7,68.5c3.9-4.3,3.9-11.2-2.2-12.3c-10.4-1.7-16.2-3.7-22.3-3.9c-6.3-0.2-9.3,6.9-15.8,8.6
	c-6.5,1.7-10.4,13-8.4,19.2c0.2,0.9,0.6,1.7,0.9,2.6c2.8,8.2,7.1,15.8,12.3,22.7c0.2,0.2,0.4,0.4,0.6,0.9c0.4,0.4,3.5,1.3,6.7-3.9
	c2.6-4.3,2.4-7.6,2.4-7.6c-6.1-0.9-10.8-8.4-8-12.3c0,0,1.3-1.5,2.8-1.5c3.7-0.4,6.5,1.7,7.3,4.1c0.6,2.4,1.3,3.9,1.3,3.9l3.5,0.2
	c0,0-1.7-5.8-1.7-8c0-2.2,3-1.3,2.6-5.4c-0.6-4.1-4.1-4.5-2.6-6.1c1.5-1.5,11.7-0.2,14.7,1.3C434.9,73.1,437.7,68.5,437.7,68.5z"/>
<path class="st12" d="M412.2,89.9c-0.2,0-0.4,0-0.6-0.2c-1.5-3-5.2-3.9-5.2-3.9c-0.2,0-0.4-0.2-0.4-0.6c0-0.2,0.2-0.4,0.6-0.4
	c0.2,0,4.3,0.9,6.1,4.3C412.6,89.5,412.6,89.7,412.2,89.9z"/>
<path class="st12" d="M408.3,88.8h-0.2c-0.2,0-0.4-0.4-0.2-0.6c0,0,0.4-1.1,1.5-1.9c0.2-0.2,0.6,0,0.6,0.2c0.2,0.2,0,0.6-0.2,0.6
	c-0.9,0.6-1.3,1.5-1.3,1.5C408.7,88.6,408.5,88.8,408.3,88.8z"/>
<path class="st17" d="M432.7,84.3c0.2,1.1-0.2,2.2-0.9,2.4c-0.6,0.2-1.5-0.6-1.7-1.7c-0.2-1.1,0.2-2.2,0.9-2.4
	C431.9,82.4,432.5,83,432.7,84.3z"/>
<path class="st17" d="M424.3,79.3c0,0,5-3.2,9.5-2.2v2.4c0,0-6.3,0.6-9.1,2.6C424.3,81.3,424.1,80.4,424.3,79.3z"/>
<path class="st8" d="M436,83.7c0,0,3.7,6.7,3.9,9.7c0.2,1.7-4.5,3-4.5,3L436,83.7z"/>
<path class="st15" d="M436,98.8C436,99,436,99,436,98.8c-0.2,1.9-0.2,3.9-0.6,5.6c-0.2,0-0.2,0-0.4,0c-4.3,0.2-5.8-3.5-6.3-5.4
	L436,98.8z"/>
<g class="st2">
	<path class="st18" d="M607.8,175.3l1.7-8.9l-8.4-1.7c0-2.2-0.4-4.3-1.1-6.5l6.9-4.5l-5-7.6l-6.5,4.3c-1.9-1.9-4.3-3.5-6.7-4.5
		l1.7-8.4l-8.9-1.7l-1.7,8.6c-1.7,0-3.7,0.4-5.4,1.1l-4.5-6.9l-7.6,5l4.3,6.5c-1.9,1.9-3.5,4.3-4.5,6.7l-7.3-1.5l-1.7,8.9l7.6,1.5
		c0.2,2.4,0.6,4.8,1.5,6.9l-6.7,4.3l5,7.6l6.9-4.5c1.9,1.7,4.3,3,6.7,3.9l-1.7,8.4l8.9,1.7l1.7-9.1c1.9-0.2,3.9-0.6,5.8-1.5l4.3,6.7
		l7.6-5l-4.5-6.9c1.3-1.5,2.2-3,3-4.5L607.8,175.3z M585.4,171.6c-3.9,2.6-9.1,1.5-11.7-2.4c-2.6-3.9-1.5-9.1,2.4-11.5
		c3.9-2.6,9.1-1.5,11.5,2.4C590.3,163.8,589.2,169,585.4,171.6z"/>
	<path class="st18" d="M134.9,186.1l1.7-8.9l-8.4-1.7c0-2.2-0.4-4.3-1.1-6.5l6.9-4.5l-5-7.6l-6.5,4.3c-1.9-1.9-4.3-3.5-6.7-4.5
		l1.7-8.4l-8.9-1.7l-1.7,8.6c-1.7,0-3.7,0.4-5.4,1.1l-4.5-6.9l-7.6,5l4.3,6.5c-1.9,1.9-3.5,4.3-4.5,6.7l-7.3-1.5l-1.7,8.9l7.6,1.5
		c0.2,2.4,0.6,4.8,1.5,6.9l-6.7,4.3l5,7.6l6.9-4.5c1.9,1.7,4.3,3,6.7,3.9l-1.7,8.4l8.9,1.7l1.7-9.1c1.9-0.2,3.9-0.6,5.8-1.5l4.3,6.7
		l7.6-5l-4.5-6.9c1.3-1.5,2.2-3,3-4.5L134.9,186.1z M112.4,182.4c-3.9,2.6-9.1,1.5-11.7-2.4c-2.6-3.9-1.5-9.1,2.4-11.7
		c3.9-2.6,9.1-1.5,11.7,2.4C117.2,174.7,116.3,179.8,112.4,182.4z"/>
	<path class="st18" d="M655.8,185.9l0.9-5l-4.5-0.9c0-1.3-0.2-2.4-0.6-3.7l3.7-2.6l-2.8-4.1l-3.7,2.4c-1.1-1.1-2.4-1.9-3.7-2.6
		l0.9-4.5l-5-0.9l-0.9,4.8c-1.1,0-1.9,0.2-3,0.6l-2.2-3.7l-4.1,2.8l2.4,3.7c-1.1,1.1-1.9,2.4-2.6,3.7l-3.9-0.9l-0.9,5l4.1,0.9
		c0,1.3,0.4,2.6,0.9,3.7l-3.7,2.4l2.8,4.1l3.7-2.6c1.1,0.9,2.4,1.7,3.7,2.2l-0.9,4.5l5,0.9l1.1-5c1.1-0.2,2.2-0.4,3.2-0.9l2.4,3.7
		l4.1-2.8l-2.6-3.7c0.6-0.9,1.3-1.7,1.7-2.6L655.8,185.9z M643.5,183.9c-2.2,1.3-5,0.9-6.3-1.3c-1.3-2.2-0.9-5,1.3-6.3
		c2.2-1.3,5-0.9,6.3,1.3C646.1,179.6,645.7,182.4,643.5,183.9z"/>
	<path class="st19" d="M531.1,210.3c-4.5,0-8.4-3.7-8.4-8.4c0-4.8,3.7-8.4,8.4-8.4c4.5,0,8.4,3.7,8.4,8.4
		C539.5,206.6,535.6,210.3,531.1,210.3z M531.1,196.3c-3.2,0-5.8,2.6-5.8,5.8c0,3.2,2.6,5.8,5.8,5.8s5.8-2.6,5.8-5.8
		C536.9,198.9,534.3,196.3,531.1,196.3z"/>
	<path class="st20" d="M561.3,239.9c-4.5,0-8.4-3.7-8.4-8.4c0-4.5,3.7-8.4,8.4-8.4c4.5,0,8.4,3.7,8.4,8.4
		C569.8,236,565.9,239.9,561.3,239.9z M561.3,225.7c-3.2,0-5.8,2.6-5.8,5.8c0,3.2,2.6,5.8,5.8,5.8s5.8-2.6,5.8-5.8
		C567.2,228.3,564.6,225.7,561.3,225.7z"/>
	<path class="st19" d="M571.7,267.2c-0.6,0-1.3-0.6-1.3-1.3V260c0-0.6,0.6-1.3,1.3-1.3c0.6,0,1.3,0.6,1.3,1.3v5.8
		C573,266.5,572.4,267.2,571.7,267.2z"/>
	<path class="st19" d="M571.7,277.3c-0.6,0-1.3-0.6-1.3-1.3v-5.8c0-0.6,0.6-1.3,1.3-1.3c0.6,0,1.3,0.6,1.3,1.3v5.8
		C573,276.7,572.4,277.3,571.7,277.3z"/>
	<path class="st19" d="M579.9,269.3h-5.2c-0.6,0-1.3-0.6-1.3-1.3c0-0.6,0.6-1.3,1.3-1.3h5.2c0.6,0,1.3,0.6,1.3,1.3
		C581.2,268.7,580.6,269.3,579.9,269.3z"/>
	<path class="st19" d="M568.7,269.3h-5.2c-0.6,0-1.3-0.6-1.3-1.3c0-0.6,0.6-1.3,1.3-1.3h5.2c0.6,0,1.3,0.6,1.3,1.3
		C570,268.7,569.6,269.3,568.7,269.3z"/>
	<path class="st20" d="M525.2,234.5c-0.6,0-1.3-0.6-1.3-1.3v-5.8c0-0.6,0.6-1.3,1.3-1.3c0.6,0,1.3,0.6,1.3,1.3v5.8
		C526.5,234.1,526.1,234.5,525.2,234.5z"/>
	<path class="st20" d="M525.2,244.7c-0.6,0-1.3-0.6-1.3-1.3v-5.8c0-0.6,0.6-1.3,1.3-1.3c0.6,0,1.3,0.6,1.3,1.3v5.8
		C526.5,244.3,526.1,244.7,525.2,244.7z"/>
	<path class="st20" d="M533.5,236.7h-5.2c-0.6,0-1.3-0.6-1.3-1.3c0-0.6,0.6-1.3,1.3-1.3h5.2c0.6,0,1.3,0.6,1.3,1.3
		C534.8,236.3,534.1,236.7,533.5,236.7z"/>
	<path class="st20" d="M522.4,236.7h-5.2c-0.6,0-1.3-0.6-1.3-1.3c0-0.6,0.6-1.3,1.3-1.3h5.2c0.6,0,1.3,0.6,1.3,1.3
		C523.7,236.3,523.1,236.7,522.4,236.7z"/>
	<path class="st19" d="M220.5,91.2c-4.5,0-8.4-3.7-8.4-8.4s3.7-8.4,8.4-8.4c4.8,0,8.4,3.7,8.4,8.4S225,91.2,220.5,91.2z M220.5,88.6
		c3.2,0,5.8-2.6,5.8-5.8s-2.6-5.8-5.8-5.8c-3.2,0-5.8,2.6-5.8,5.8S217.2,88.6,220.5,88.6z"/>
	<path class="st20" d="M251,118.9c-4.5,0-8.4-3.7-8.4-8.4c0-4.8,3.7-8.4,8.4-8.4c4.5,0,8.4,3.7,8.4,8.4
		C259.4,115.2,255.7,118.9,251,118.9z M251,116.3c3.2,0,5.8-2.6,5.8-5.8c0-3.2-2.6-5.8-5.8-5.8c-3.2,0-5.8,2.6-5.8,5.8
		C245.3,113.7,247.9,116.3,251,116.3z"/>
	<path class="st19" d="M262.2,70.9c0-0.6-0.6-1.3-1.3-1.3h-5.8c-0.6,0-1.3,0.6-1.3,1.3c0,0.6,0.6,1.3,1.3,1.3h5.8
		C261.5,72.2,262.2,71.5,262.2,70.9z"/>
	<path class="st19" d="M272.4,70.9c0-0.6-0.6-1.3-1.3-1.3h-5.8c-0.6,0-1.3,0.6-1.3,1.3c0,0.6,0.6,1.3,1.3,1.3h5.8
		C271.7,72.2,272.4,71.5,272.4,70.9z"/>
	<path class="st19" d="M264.4,79.1v-5.2c0-0.6-0.6-1.3-1.3-1.3c-0.6,0-1.3,0.6-1.3,1.3v5.2c0,0.6,0.6,1.3,1.3,1.3
		C263.7,80.4,264.4,79.8,264.4,79.1z"/>
	<path class="st19" d="M264.4,67.9v-5.2c0-0.6-0.6-1.3-1.3-1.3c-0.6,0-1.3,0.6-1.3,1.3v5.2c0,0.6,0.6,1.3,1.3,1.3
		C263.7,69.2,264.4,68.7,264.4,67.9z"/>
	<path class="st20" d="M200.6,116.3c0-0.6-0.6-1.3-1.3-1.3h-5.8c-0.6,0-1.3,0.6-1.3,1.3c0,0.6,0.6,1.3,1.3,1.3h5.8
		C199.9,117.6,200.6,116.9,200.6,116.3z"/>
	<path class="st20" d="M210.7,116.3c0-0.6-0.6-1.3-1.3-1.3h-5.8c-0.6,0-1.3,0.6-1.3,1.3c0,0.6,0.6,1.3,1.3,1.3h5.8
		C210.1,117.6,210.7,116.9,210.7,116.3z"/>
	<path class="st20" d="M202.7,124.5v-5.2c0-0.6-0.6-1.3-1.3-1.3c-0.6,0-1.3,0.6-1.3,1.3v5.2c0,0.6,0.6,1.3,1.3,1.3
		C202.1,125.8,202.7,125.2,202.7,124.5z"/>
	<path class="st20" d="M202.7,113.3v-5.2c0-0.6-0.6-1.3-1.3-1.3c-0.6,0-1.3,0.6-1.3,1.3v5.2c0,0.6,0.6,1.3,1.3,1.3
		C202.1,114.6,202.7,114.1,202.7,113.3z"/>
	<path class="st21" d="M514.7,74.6h-17.1c-8.4,0-15.6-6.9-15.6-15.6V41.9c0-8.4,6.9-15.6,15.6-15.6h17.1c8.4,0,15.6,6.9,15.6,15.6
		V59C530.2,67.7,523.3,74.6,514.7,74.6z"/>
	<path class="st22" d="M490.7,45c0-4.3,2.8-6.7,6.5-6.7c3.7,0,6.5,2.4,6.5,6.7s-2.8,6.7-6.5,6.7C493.5,51.7,490.7,49.3,490.7,45z
		 M511.4,38.5h5.8l-16.6,24.4h-5.8L511.4,38.5z M498.7,45c0-2.4-0.9-3-1.5-3c-0.6,0-1.5,0.6-1.5,3s0.9,3,1.5,3
		C497.8,48,498.7,47.1,498.7,45z M508.6,56.4c0-4.3,2.8-6.7,6.5-6.7c3.7,0,6.5,2.4,6.5,6.7s-2.8,6.7-6.5,6.7
		C511.4,63.1,508.6,60.7,508.6,56.4z M516.6,56.4c0-2.4-0.9-3-1.5-3c-0.9,0-1.5,0.6-1.5,3s0.9,3,1.5,3
		C515.7,59.4,516.6,58.8,516.6,56.4z"/>
	<path class="st21" d="M152,272.8h-17.1c-8.4,0-15.6-6.9-15.6-15.6v-17.1c0-8.4,6.9-15.6,15.6-15.6H152c8.4,0,15.6,6.9,15.6,15.6
		v17.1C167.5,265.9,160.6,272.8,152,272.8z"/>
	<path class="st22" d="M146.1,260.7v3.7h-4.8v-3.5c-3.2-0.2-6.5-1.1-8.6-2.4l2.6-5.8c2.2,1.3,5.2,2.2,7.8,2.2c2.2,0,3-0.4,3-1.3
		c0-3-13-0.6-13-9.3c0-3.7,2.8-6.9,8.2-7.8v-3.7h4.8v3.5c2.4,0.2,4.8,0.9,6.7,1.9l-2.4,5.6c-2.4-1.1-4.5-1.7-6.5-1.7
		c-2.4,0-3,0.6-3,1.5c0,2.8,13,0.4,13,9.1C153.9,256.6,151.3,259.8,146.1,260.7z"/>
</g>
</svg>
