<?xml version="1.0" encoding="utf-8"?>
<!-- Generator: Adobe Illustrator 24.0.0, SVG Export Plug-In . SVG Version: 6.00 Build 0)  -->
<svg version="1.1" id="Layer_1" xmlns="http://www.w3.org/2000/svg" xmlns:xlink="http://www.w3.org/1999/xlink" x="0px" y="0px"
	 viewBox="0 0 718 570" style="enable-background:new 0 0 718 570;" xml:space="preserve">
<style type="text/css">
	.st0{opacity:0.6;fill:#E1E1E1;enable-background:new    ;}
	.st1{display:none;}
	.st2{display:inline;fill:#E1E1E1;}
	.st3{display:inline;fill:#5A5A5A;}
	.st4{display:inline;fill:#B2B2B2;}
	.st5{display:inline;fill:#D02E1B;}
	.st6{display:inline;fill:#FFFFFF;}
</style>
<g>
	<path class="st0" d="M0,72.2c0,2.8,1.1,5.2,2.8,6.9c1.7,1.7,4.3,2.8,6.9,2.8h212c5.4,0,9.9-4.5,9.9-9.9c0-2.8-1.1-5.2-3-6.9
		c-1.7-1.7-4.3-3-6.9-3h-9.9c-3.9-9.3-13.2-15.6-23.8-15.6c-7.1,0-13.6,2.8-18.4,7.6c-6.3-10.6-17.7-17.7-30.9-17.7
		c-3.7,0-7.1,0.6-10.4,1.5c-6.8-13-20.4-21.9-36.2-21.9c-18.8,0-34.8,12.8-39.6,30c-3.5-1.7-7.3-2.8-11.7-2.8
		C29.2,43.2,19.2,51,16,61.8H9.5C4.5,62.3,0,66.8,0,72.2z"/>
	<path class="st0" d="M450.9,118.5c0,1.7-0.6,3.5-1.9,4.5c-1.1,1.1-2.8,1.9-4.5,1.9H306.9c-3.5,0-6.5-2.8-6.5-6.5
		c0-1.7,0.6-3.5,1.9-4.5c1.1-1.1,2.8-1.9,4.5-1.9h6.5c2.6-6.1,8.4-10.2,15.3-10.2c4.5,0,8.9,1.9,11.9,5c4.1-6.9,11.5-11.5,20.1-11.5
		c2.4,0,4.5,0.4,6.7,1.1c4.7-8.4,13.6-14,23.7-14c12.3,0,22.5,8.2,25.7,19.5c2.2-1.1,4.8-1.7,7.6-1.7c7.6,0,14,5.2,16,12.1h4.1
		C448.1,112,450.9,115,450.9,118.5z"/>
	<path class="st0" d="M495.9,88.6c0,2.6,1.1,5,2.8,6.7c1.7,1.7,4.1,2.8,6.7,2.8h202.5c5.2,0,9.5-4.3,9.5-9.5c0-2.6-1.1-5-2.8-6.7
		s-4.1-2.8-6.7-2.8h-9.5c-3.7-8.9-12.5-14.9-22.7-14.9c-6.9,0-13,2.8-17.5,7.3c-6.1-10.2-17.1-16.9-29.6-16.9
		c-3.5,0-6.7,0.4-9.9,1.5C612.1,43.9,599,35.5,584,35.5c-17.9,0-33.3,12.1-37.8,28.7c-3.2-1.7-7.1-2.6-11-2.6
		c-11.2,0-20.8,7.6-23.8,17.7h-6.1C500,79.1,495.9,83.4,495.9,88.6z"/>
</g>
<g class="st1">
	<path class="st2" d="M607.8,175.3l1.7-8.9l-8.4-1.7c0-2.2-0.4-4.3-1.1-6.5l6.9-4.5l-5-7.6l-6.5,4.3c-1.9-1.9-4.3-3.5-6.7-4.5
		l1.7-8.4l-8.9-1.7l-1.7,8.6c-1.7,0-3.7,0.4-5.4,1.1l-4.5-6.9l-7.6,5l4.3,6.5c-1.9,1.9-3.5,4.3-4.5,6.7l-7.3-1.5l-1.7,8.9l7.6,1.5
		c0.2,2.4,0.6,4.8,1.5,6.9l-6.7,4.3l5,7.6l6.9-4.5c1.9,1.7,4.3,3,6.7,3.9l-1.7,8.4l8.9,1.7l1.7-9.1c1.9-0.2,3.9-0.6,5.8-1.5l4.3,6.7
		l7.6-5l-4.5-6.9c1.3-1.5,2.2-3,3-4.5L607.8,175.3z M585.4,171.6c-3.9,2.6-9.1,1.5-11.7-2.4c-2.6-3.9-1.5-9.1,2.4-11.5
		c3.9-2.6,9.1-1.5,11.5,2.4C590.3,163.8,589.2,169,585.4,171.6z"/>
	<path class="st2" d="M134.9,186.1l1.7-8.9l-8.4-1.7c0-2.2-0.4-4.3-1.1-6.5l6.9-4.5l-5-7.6l-6.5,4.3c-1.9-1.9-4.3-3.5-6.7-4.5
		l1.7-8.4l-8.9-1.7l-1.7,8.6c-1.7,0-3.7,0.4-5.4,1.1l-4.5-6.9l-7.6,5l4.3,6.5c-1.9,1.9-3.5,4.3-4.5,6.7l-7.3-1.5l-1.7,8.9l7.6,1.5
		c0.2,2.4,0.6,4.8,1.5,6.9l-6.7,4.3l5,7.6l6.9-4.5c1.9,1.7,4.3,3,6.7,3.9l-1.7,8.4l8.9,1.7l1.7-9.1c1.9-0.2,3.9-0.6,5.8-1.5l4.3,6.7
		l7.6-5l-4.5-6.9c1.3-1.5,2.2-3,3-4.5L134.9,186.1z M112.4,182.4c-3.9,2.6-9.1,1.5-11.7-2.4s-1.5-9.1,2.4-11.7
		c3.9-2.6,9.1-1.5,11.7,2.4C117.2,174.7,116.3,179.8,112.4,182.4z"/>
	<path class="st2" d="M655.8,185.9l0.9-5l-4.5-0.9c0-1.3-0.2-2.4-0.6-3.7l3.7-2.6l-2.8-4.1l-3.7,2.4c-1.1-1.1-2.4-1.9-3.7-2.6
		l0.9-4.5l-5-0.9l-0.9,4.8c-1.1,0-1.9,0.2-3,0.6l-2.2-3.7l-4.1,2.8l2.4,3.7c-1.1,1.1-1.9,2.4-2.6,3.7l-3.9-0.9l-0.9,5l4.1,0.9
		c0,1.3,0.4,2.6,0.9,3.7l-3.7,2.4l2.8,4.1l3.7-2.6c1.1,0.9,2.4,1.7,3.7,2.2l-0.9,4.5l5,0.9l1.1-5c1.1-0.2,2.2-0.4,3.2-0.9l2.4,3.7
		l4.1-2.8l-2.6-3.7c0.6-0.9,1.3-1.7,1.7-2.6L655.8,185.9z M643.5,183.9c-2.2,1.3-5,0.9-6.3-1.3s-0.9-5,1.3-6.3s5-0.9,6.3,1.3
		C646.1,179.6,645.7,182.4,643.5,183.9z"/>
	<path class="st3" d="M531.1,210.3c-4.5,0-8.4-3.7-8.4-8.4c0-4.8,3.7-8.4,8.4-8.4c4.5,0,8.4,3.7,8.4,8.4S535.6,210.3,531.1,210.3z
		 M531.1,196.3c-3.2,0-5.8,2.6-5.8,5.8s2.6,5.8,5.8,5.8s5.8-2.6,5.8-5.8C536.9,198.9,534.3,196.3,531.1,196.3z"/>
	<path class="st4" d="M561.3,239.9c-4.5,0-8.4-3.7-8.4-8.4c0-4.5,3.7-8.4,8.4-8.4c4.5,0,8.4,3.7,8.4,8.4
		C569.8,236,565.9,239.9,561.3,239.9z M561.3,225.7c-3.2,0-5.8,2.6-5.8,5.8s2.6,5.8,5.8,5.8s5.8-2.6,5.8-5.8
		C567.2,228.3,564.6,225.7,561.3,225.7z"/>
	<path class="st3" d="M571.7,267.2c-0.6,0-1.3-0.6-1.3-1.3V260c0-0.6,0.6-1.3,1.3-1.3c0.6,0,1.3,0.6,1.3,1.3v5.8
		C573,266.5,572.4,267.2,571.7,267.2z"/>
	<path class="st3" d="M571.7,277.3c-0.6,0-1.3-0.6-1.3-1.3v-5.8c0-0.6,0.6-1.3,1.3-1.3c0.6,0,1.3,0.6,1.3,1.3v5.8
		C573,276.7,572.4,277.3,571.7,277.3z"/>
	<path class="st3" d="M579.9,269.3h-5.2c-0.6,0-1.3-0.6-1.3-1.3c0-0.6,0.6-1.3,1.3-1.3h5.2c0.6,0,1.3,0.6,1.3,1.3
		C581.2,268.7,580.6,269.3,579.9,269.3z"/>
	<path class="st3" d="M568.7,269.3h-5.2c-0.6,0-1.3-0.6-1.3-1.3c0-0.6,0.6-1.3,1.3-1.3h5.2c0.6,0,1.3,0.6,1.3,1.3
		C570,268.7,569.6,269.3,568.7,269.3z"/>
	<path class="st4" d="M525.2,234.5c-0.6,0-1.3-0.6-1.3-1.3v-5.8c0-0.6,0.6-1.3,1.3-1.3c0.6,0,1.3,0.6,1.3,1.3v5.8
		C526.5,234.1,526.1,234.5,525.2,234.5z"/>
	<path class="st4" d="M525.2,244.7c-0.6,0-1.3-0.6-1.3-1.3v-5.8c0-0.6,0.6-1.3,1.3-1.3c0.6,0,1.3,0.6,1.3,1.3v5.8
		C526.5,244.3,526.1,244.7,525.2,244.7z"/>
	<path class="st4" d="M533.5,236.7h-5.2c-0.6,0-1.3-0.6-1.3-1.3c0-0.6,0.6-1.3,1.3-1.3h5.2c0.6,0,1.3,0.6,1.3,1.3
		C534.8,236.3,534.1,236.7,533.5,236.7z"/>
	<path class="st4" d="M522.4,236.7h-5.2c-0.6,0-1.3-0.6-1.3-1.3c0-0.6,0.6-1.3,1.3-1.3h5.2c0.6,0,1.3,0.6,1.3,1.3
		C523.7,236.3,523.1,236.7,522.4,236.7z"/>
	<path class="st3" d="M220.5,91.2c-4.5,0-8.4-3.7-8.4-8.4s3.7-8.4,8.4-8.4c4.8,0,8.4,3.7,8.4,8.4S225,91.2,220.5,91.2z M220.5,88.6
		c3.2,0,5.8-2.6,5.8-5.8s-2.6-5.8-5.8-5.8s-5.8,2.6-5.8,5.8S217.2,88.6,220.5,88.6z"/>
	<path class="st4" d="M251,118.9c-4.5,0-8.4-3.7-8.4-8.4c0-4.8,3.7-8.4,8.4-8.4c4.5,0,8.4,3.7,8.4,8.4
		C259.4,115.2,255.7,118.9,251,118.9z M251,116.3c3.2,0,5.8-2.6,5.8-5.8c0-3.2-2.6-5.8-5.8-5.8s-5.8,2.6-5.8,5.8
		C245.3,113.7,247.9,116.3,251,116.3z"/>
	<path class="st3" d="M262.2,70.9c0-0.6-0.6-1.3-1.3-1.3h-5.8c-0.6,0-1.3,0.6-1.3,1.3c0,0.6,0.6,1.3,1.3,1.3h5.8
		C261.5,72.2,262.2,71.5,262.2,70.9z"/>
	<path class="st3" d="M272.4,70.9c0-0.6-0.6-1.3-1.3-1.3h-5.8c-0.6,0-1.3,0.6-1.3,1.3c0,0.6,0.6,1.3,1.3,1.3h5.8
		C271.7,72.2,272.4,71.5,272.4,70.9z"/>
	<path class="st3" d="M264.4,79.1v-5.2c0-0.6-0.6-1.3-1.3-1.3c-0.6,0-1.3,0.6-1.3,1.3v5.2c0,0.6,0.6,1.3,1.3,1.3
		C263.7,80.4,264.4,79.8,264.4,79.1z"/>
	<path class="st3" d="M264.4,67.9v-5.2c0-0.6-0.6-1.3-1.3-1.3c-0.6,0-1.3,0.6-1.3,1.3v5.2c0,0.6,0.6,1.3,1.3,1.3
		C263.7,69.2,264.4,68.7,264.4,67.9z"/>
	<path class="st4" d="M200.6,116.3c0-0.6-0.6-1.3-1.3-1.3h-5.8c-0.6,0-1.3,0.6-1.3,1.3c0,0.6,0.6,1.3,1.3,1.3h5.8
		C199.9,117.6,200.6,116.9,200.6,116.3z"/>
	<path class="st4" d="M210.7,116.3c0-0.6-0.6-1.3-1.3-1.3h-5.8c-0.6,0-1.3,0.6-1.3,1.3c0,0.6,0.6,1.3,1.3,1.3h5.8
		C210.1,117.6,210.7,116.9,210.7,116.3z"/>
	<path class="st4" d="M202.7,124.5v-5.2c0-0.6-0.6-1.3-1.3-1.3c-0.6,0-1.3,0.6-1.3,1.3v5.2c0,0.6,0.6,1.3,1.3,1.3
		C202.1,125.8,202.7,125.2,202.7,124.5z"/>
	<path class="st4" d="M202.7,113.3v-5.2c0-0.6-0.6-1.3-1.3-1.3c-0.6,0-1.3,0.6-1.3,1.3v5.2c0,0.6,0.6,1.3,1.3,1.3
		C202.1,114.6,202.7,114.1,202.7,113.3z"/>
	<path class="st5" d="M514.7,74.6h-17.1c-8.4,0-15.6-6.9-15.6-15.6V41.9c0-8.4,6.9-15.6,15.6-15.6h17.1c8.4,0,15.6,6.9,15.6,15.6V59
		C530.2,67.7,523.3,74.6,514.7,74.6z"/>
	<path class="st6" d="M490.7,45c0-4.3,2.8-6.7,6.5-6.7s6.5,2.4,6.5,6.7s-2.8,6.7-6.5,6.7S490.7,49.3,490.7,45z M511.4,38.5h5.8
		l-16.6,24.4h-5.8L511.4,38.5z M498.7,45c0-2.4-0.9-3-1.5-3s-1.5,0.6-1.5,3s0.9,3,1.5,3C497.8,48,498.7,47.1,498.7,45z M508.6,56.4
		c0-4.3,2.8-6.7,6.5-6.7c3.7,0,6.5,2.4,6.5,6.7s-2.8,6.7-6.5,6.7C511.4,63.1,508.6,60.7,508.6,56.4z M516.6,56.4c0-2.4-0.9-3-1.5-3
		c-0.9,0-1.5,0.6-1.5,3s0.9,3,1.5,3C515.7,59.4,516.6,58.8,516.6,56.4z"/>
	<path class="st5" d="M152,272.8h-17.1c-8.4,0-15.6-6.9-15.6-15.6v-17.1c0-8.4,6.9-15.6,15.6-15.6H152c8.4,0,15.6,6.9,15.6,15.6
		v17.1C167.5,265.9,160.6,272.8,152,272.8z"/>
	<path class="st6" d="M146.1,260.7v3.7h-4.8v-3.5c-3.2-0.2-6.5-1.1-8.6-2.4l2.6-5.8c2.2,1.3,5.2,2.2,7.8,2.2c2.2,0,3-0.4,3-1.3
		c0-3-13-0.6-13-9.3c0-3.7,2.8-6.9,8.2-7.8v-3.7h4.8v3.5c2.4,0.2,4.8,0.9,6.7,1.9l-2.4,5.6c-2.4-1.1-4.5-1.7-6.5-1.7
		c-2.4,0-3,0.6-3,1.5c0,2.8,13,0.4,13,9.1C153.9,256.6,151.3,259.8,146.1,260.7z"/>
</g>
</svg>
