<?xml version="1.0" encoding="utf-8"?>
<!-- Generator: Adobe Illustrator 24.0.0, SVG Export Plug-In . SVG Version: 6.00 Build 0)  -->
<svg version="1.1" id="Layer_1" xmlns="http://www.w3.org/2000/svg" xmlns:xlink="http://www.w3.org/1999/xlink" x="0px" y="0px"
	 viewBox="0 0 727 570" style="enable-background:new 0 0 727 570;" xml:space="preserve">
<style type="text/css">
	.st0{fill:#F6F6F6;}
	.st1{display:none;}
	.st2{display:inline;fill:#CCCCCC;}
	.st3{display:inline;fill:#646464;}
	.st4{display:inline;fill:#797979;}
	.st5{display:inline;fill:#666666;}
	.st6{display:inline;fill:#D5D5D5;}
	.st7{display:inline;fill:#828282;}
	.st8{display:inline;fill:#676767;}
	.st9{display:inline;fill:#A0A0A0;}
	.st10{display:inline;fill:#373737;}
	.st11{fill:#939393;}
	.st12{fill:#F3F3F3;}
	.st13{fill:#656565;}
	.st14{fill:#E0E0E0;}
	.st15{fill:#E4E4E4;}
	.st16{fill:#D02E1B;}
	.st17{fill:#D5D5D5;}
	.st18{fill:#828282;}
	.st19{fill:#CCCCCC;}
	.st20{fill:none;stroke:#5C5C5C;stroke-width:0.5196;stroke-linecap:round;stroke-linejoin:round;}
	.st21{fill:none;stroke:#5C5C5C;stroke-width:0.5196;stroke-linecap:round;stroke-linejoin:round;stroke-dasharray:1.54,1.54;}
	.st22{fill:none;stroke:#5C5C5C;stroke-width:0.5196;stroke-linecap:round;stroke-linejoin:round;stroke-dasharray:1.49,1.49;}
	.st23{fill:#3D3D3D;}
	.st24{opacity:0.4;}
	.st25{opacity:0.4;fill:#FFFFFF;enable-background:new    ;}
	.st26{fill:#A1A1A1;}
	.st27{fill:#717171;}
	.st28{fill:#3B3B3B;}
	.st29{fill:#4C4C4C;}
	.st30{fill:#696969;}
	.st31{fill:#B7B7B7;}
	.st32{fill:#898989;}
	.st33{fill:#383838;}
	.st34{fill:#757575;}
	.st35{fill:#8F8F8F;}
	.st36{fill:#F5F5F5;}
	.st37{fill:#EDEDED;}
	.st38{fill:#CFCFCF;}
	.st39{fill:#A0A0A0;}
	.st40{fill:#353535;}
	.st41{fill:#AEAEAE;}
	.st42{fill:#505050;}
	.st43{fill:#090909;}
	.st44{fill:#1A1A1A;}
	.st45{fill:#3A3A3A;}
	.st46{fill:#414141;}
	.st47{fill:#B8B8B8;}
	.st48{fill:#A8A8A8;}
	.st49{fill:#CBCBCB;}
	.st50{fill:#282828;}
</style>
<path class="st0" d="M363.1,570c200.5,0,363.1-51.9,363.1-115.8c0-64-162.5-115.8-363.1-115.8C162.5,338.3,0,390.2,0,454.2
	C0,518.1,162.5,570,363.1,570z"/>
<g class="st1">
	<path class="st2" d="M636.6,308.9c8.2-1.4,16.5-1.1,24.8-1.4c14.9-0.6,29.8-3.3,43.9-8.1c-3.1,10.8-6.1,21.6-9,32.4
		c-2.4,8.3-4.7,16.8-8.6,24.5c-3.8,7.4-8.8,14.2-14.7,19.7c-12.7,11.7-30.3,18.5-47.3,15.4c-14.7-2.6-28.6-13.1-33-27.8
		C584.3,335.7,611.4,313.3,636.6,308.9z"/>
	<path class="st3" d="M695.7,308.5c-11.4,5.1-22.9,10.3-33.9,16c1.8-3.9,4-7.5,6.7-10.8c1-1.3-0.8-3.1-1.9-1.7
		c-3.3,4.4-6.1,9-8.3,14.2c0,0.1,0,0.1,0,0.3c-5,2.6-9.9,5.4-14.6,8.5c-6.8,4.3-13.9,9-20,14.6c2.5-9.6,5.6-19.2,9.2-28.5
		c0.6-1.5-1.7-2.8-2.2-1.3c-4,10.8-7.5,21.8-10.4,33c-5.8,5.8-10.7,12.5-13.8,20.3c-0.6,1.5,1.7,2.8,2.2,1.3c1.4-3.5,3.1-6.7,5-9.6
		c0,0,0,0,0.1,0c14.2,0.1,29.1-0.8,43.1,1.5c1.7,0.3,2.2-2.2,0.6-2.5c-13.8-2.2-28.1-1.4-42-1.5c7.9-10.7,19.5-18.8,30.7-25.7
		c13.2,0.7,26.8,0.4,39.8,3.2c1.7,0.4,2.1-2.1,0.6-2.5c-11.8-2.6-24.3-2.6-36.4-3.2c14.9-8.9,30.9-16,46.7-23.1
		C697.9,310.3,697.2,307.9,695.7,308.5z"/>
	<path class="st4" d="M574.4,265.9c8.2-12.2,21.1-21.3,35.5-24.9c9.6-2.4,19.9-2.6,28.6-7.4c8.9-5,14.6-14,22-21.1
		c6.8-6.5,15.7-11.4,25-11.7c9.5-0.3,19.3,4.7,23.1,13.3c4.9,11.3-2.1,24.8-12.5,31.1c-5.3,3.2-11.8,5.6-14.6,11
		c-1.5,2.9-1.7,6.3-1.9,9.5c-0.7,10.1-1.3,20.4-3.9,30.3c-3.5,13.2-10.7,25.6-21.3,34.3c-10.6,8.8-24.3,13.8-38,12.7
		c-7.1-0.6-13.9-2.6-20.6-5.1C563.6,326.1,555.2,294.4,574.4,265.9z"/>
	<path class="st5" d="M700.5,220.9c-5.8,1.3-11.8,2.2-17.8,2.8c3.9-3.2,7.6-6.4,11.7-9.5c1.3-1-0.4-2.6-1.7-1.8
		c-4.4,3.3-8.6,6.8-12.9,10.4c0.1-3.5,0.6-6.8,1.3-10.3c0.3-1.5-1.9-2.2-2.2-0.7c-1,4.3-1.4,8.6-1.5,13.1
		c-8.3,7.2-16.4,14.7-24.2,22.7c0.4-4.7,0.7-9.3,0.7-14c0-1.5-2.4-1.7-2.4-0.1c0,5.7-0.4,11.3-1,16.8
		c-13.2,13.5-25.6,27.7-37.7,42.1c1.4-14.7,3.1-29.3,5-43.9c0.1-1.5-2.2-1.7-2.4-0.1c-2.1,15.7-3.9,31.4-5.4,47.3
		c-5.6,6.7-11.1,13.5-16.5,20.2c-0.6-0.7-1-1.7-1.3-3.1c-0.8-3.8-1.5-7.5-2.1-11.3c-1.4-8.6-2.2-17.2-2.6-25.9
		c-0.1-1.5-2.5-1.7-2.4-0.1c0.7,14.6,2.6,29.1,6,43.2c-1.3,1.7-2.6,3.2-3.9,4.9c-1,1.3,1.1,2.5,1.9,1.3c1.4-1.7,2.8-3.5,4.2-5.1
		c16.7-1.3,32.7-7.8,49.5-7.6c1.5,0,1.7-2.4,0.1-2.4c-14.2-0.1-27.5,4.6-41.4,6.8c-2.5,0.4-4.6,1-6.1,0.7
		c5.6-6.8,11.1-13.6,16.8-20.4l50.3-11c1.5-0.3,1-2.6-0.6-2.4c-15.7,3.5-31.6,7-47.3,10.3c12-14.2,24.2-28.2,37.3-41.4
		c7.4-0.1,14.6-0.7,21.8-1.9c1.5-0.3,1-2.6-0.6-2.4c-6.3,1.1-12.5,1.7-18.9,1.8c8.1-8.1,16.4-16,25-23.4c7.2-0.7,14.5-1.7,21.6-3.2
		C702.6,222.8,702,220.4,700.5,220.9z"/>
	<path class="st6" d="M695.9,180.8c-19,0.8-38.8,5-52.4,17.9c5.8-11.5,11.5-23.2,17.1-34.9c1.9,0.8,4,1.1,6.1,0.8
		c9.6-1.3,12.8-9.7,13.3-18.2c0.4-4.6,0.1-9,0-13.6c-0.1-3.2,2.1-18.9-5.4-13.9c-3.6,2.4-6.5,5.7-9.6,8.6
		c-4.7,4.4-8.6,9.9-10.2,15.9c-1.3,4.4-1.1,9.2,0.7,14.2c0.7,1.8,1.5,3.8,3.1,5l0.1,0.1c-6.4,13.6-13.2,27.1-20,40.6
		c0-0.1,0-0.1,0-0.3c1-5.7,1.4-11.4,0.4-17.1c-1.7-9.7-7.2-18.1-15.3-23.6c-0.6-0.4-1.5-0.3-1.7,0.6c0,0.3-6,24.1-1.9,34.8
		c1.5,4,3.9,7.9,7.1,11c1.5,1.5,4.2,3.9,6.5,3.8c-7.2,14-14.3,28.1-21.4,42.1c0.3-2.6,0-5.6-0.1-7.5c-0.8-8.2-4.6-16.1-10.8-21.6
		c-2.5-2.2-5.4-4-8.6-4.9c-3.5,6-4,13.2-3.5,20c0.3,3.8,1,7.6,2.8,10.8c1.8,3.1,4.4,5.4,7.6,7c2.4,1.1,6.8,3.1,9.6,2.1
		c-8.5,17.2-16.5,34.6-23.9,52.3c-1-4.4-3.9-8.3-7.5-11.3c-3.5-2.9-7.8-5-12-6.7c-2.8-1.1-5.8-2.4-7.6-4.9c1.3,3.3,1.3,7,1.7,10.4
		c0.7,4.7,2.4,9.3,5.1,13.2c1.8,2.6,4,4.9,7,6.3c3.3,1.5,7.2,2.1,10,1c-2.6,6.5-5.1,13.1-7.4,19.7c-6.5,18.5-11.8,37.4-15.7,56.7
		c-0.3,1.3,1.8,1.8,2.1,0.4c5.6-28.5,14.6-55.9,25.6-82.5c0.1,3.5,1.9,6.8,6.1,8.9c1.8,1,3.9,1.4,6,1.7c6.4,0.6,12.9-1.3,17.9-5.1
		c5-3.9,8.5-9.7,9.5-16c0.1-0.7,0.1-1.5-0.6-1.9c-0.4-0.3-1-0.1-1.4,0c-4.6,1.1-9.3,0.6-13.9,0.1c-4.6-0.4-9.5-0.8-13.9,0.4
		c-2.5,0.7-4.6,1.9-6.3,3.6c6.5-15.3,13.6-30.5,21-45.5c1,2.1,3.9,3.5,5.7,4.3c9,4.2,19.7,4.3,28.9,0.4s16.7-11.5,20-20.9
		c-9.5-3.8-20.2-4.6-29.9-2.1c-6.5,1.7-12.7,4.7-18.1,8.9c-0.8,0.7-2.2,1.7-3.5,2.6c7.4-14.7,14.9-29.2,22.2-43.8
		c6.4,13.1,26.6,11.1,38.2,6.3c14.2-6,24.6-19.9,21.6-35.9C696.9,181.1,696.4,180.8,695.9,180.8z"/>
	<path class="st7" d="M71.2,275.9c-8.2-1.3-16.5-0.7-24.8-0.7c-15-0.1-29.9-2.6-44.2-7.1c3.3,10.7,6.5,21.4,9.9,32.1
		c2.5,8.3,5.1,16.7,9.2,24.3c3.9,7.4,9,13.9,15.3,19.5c12.9,11.4,30.7,17.8,47.7,14.3c14.7-3.1,28.4-13.8,32.3-28.5
		C124,301.5,96.5,279.7,71.2,275.9z"/>
	<path class="st8" d="M12.1,276.9c11.5,4.9,23.1,9.7,34.3,15.2c-1.9-3.8-4.2-7.4-7-10.7c-1-1.3,0.8-3.1,1.8-1.8
		c3.5,4.3,6.4,8.9,8.6,14c0,0.1,0,0.1,0,0.3c5,2.5,10,5.1,14.7,8.1c7,4.2,14,8.8,20.4,14.2c-2.8-9.6-6-19-9.9-28.2
		c-0.6-1.5,1.7-2.8,2.2-1.3c4.3,10.7,8.1,21.6,11.1,32.8c6,5.7,11.1,12.2,14.3,19.9c0.7,1.5-1.7,2.8-2.2,1.3
		c-1.4-3.3-3.2-6.5-5.3-9.5c0,0,0,0-0.1,0c-14.2,0.6-29.1-0.1-43.1,2.5c-1.7,0.3-2.2-2.2-0.6-2.5c13.6-2.5,28.1-2.1,42-2.5
		c-8.2-10.4-19.9-18.4-31.3-25c-13.2,1-26.8,1-39.8,4.2c-1.5,0.4-2.2-2.1-0.6-2.5c11.8-2.9,24.2-3.2,36.3-4
		c-15.2-8.5-31.1-15.3-47.1-22C9.9,278.7,10.6,276.2,12.1,276.9z"/>
	<path class="st2" d="M189.3,256.2c-10-14.9-25.6-26-43-30.5c-11.7-2.9-24.2-3.2-34.6-9c-10.8-6-17.7-17.1-26.7-25.7
		c-8.2-7.9-18.9-13.9-30.5-14.2c-11.4-0.4-23.4,5.7-27.9,16.1c-5.8,13.6,2.4,30,15,37.8c6.4,3.9,14.3,6.7,17.7,13.5
		c1.8,3.5,2.1,7.5,2.2,11.4c0.7,12.4,1.4,24.8,4.6,36.7c4.2,16.1,12.9,31.1,25.7,41.9c12.8,10.7,29.5,16.8,46.2,15.6
		c8.6-0.7,17-3.2,25-6.1C202,329.3,212.3,290.8,189.3,256.2z"/>
	<path class="st7" d="M36.2,201c7.1,1.5,14.3,2.6,21.6,3.5c-4.6-3.9-9.3-7.8-14.2-11.4c-1.5-1.1,0.6-3.2,1.9-2.1
		c5.3,4,10.6,8.3,15.6,12.7c-0.1-4.2-0.7-8.3-1.5-12.5c-0.4-1.8,2.4-2.6,2.8-0.8c1.1,5.3,1.7,10.4,1.8,15.9
		c10.2,8.8,19.9,17.9,29.3,27.5c-0.6-5.7-0.8-11.4-0.8-17.1c0-1.8,2.9-1.9,2.9-0.1c0,6.8,0.4,13.6,1.3,20.4
		c16,16.4,31,33.7,45.6,51.2c-1.7-17.8-3.6-35.6-6-53.4c-0.3-1.8,2.6-1.9,2.9-0.1c2.5,19.1,4.7,38.2,6.4,57.3
		c6.8,8.2,13.3,16.4,20,24.6c0.7-0.8,1.1-2.1,1.5-3.8c1-4.6,1.8-9,2.5-13.6c1.7-10.4,2.8-20.9,3.3-31.4c0.1-1.8,2.9-1.9,2.9-0.1
		c-1,17.7-3.3,35.2-7.4,52.4c1.5,1.9,3.2,4,4.7,6c1.1,1.4-1.3,3.1-2.5,1.5c-1.7-2.1-3.3-4.2-5.1-6.3c-20.3-1.5-39.6-9.5-60.1-9.5
		c-1.8,0-1.9-2.9-0.1-2.9c17.2,0,33.4,5.6,50.2,8.3c3.1,0.6,5.6,1.1,7.4,0.8c-6.7-8.3-13.5-16.7-20.3-24.9l-61-13.5
		c-1.8-0.4-1.1-3.2,0.7-2.8c19,4.2,38.2,8.5,57.3,12.7c-14.5-17.4-29.3-34.3-45.1-50.5c-8.9-0.1-17.7-1-26.4-2.4
		c-1.8-0.3-1.1-3.1,0.7-2.8c7.6,1.3,15.2,2.1,22.9,2.2c-9.7-9.9-19.9-19.3-30.3-28.5c-8.8-0.8-17.5-2.1-26.1-3.9
		C33.7,203.5,34.4,200.6,36.2,201z"/>
	<path class="st9" d="M72.6,190.5c16.5,2.2,33.5,7.4,44.4,19.7c-4.2-10.6-8.3-21.1-12.2-31.8c-1.7,0.6-3.6,0.7-5.4,0.3
		c-8.2-1.8-10.3-9.5-10.3-17c0-4,0.6-7.9,1.1-11.8c0.3-2.8-0.4-16.7,5.8-11.8c2.9,2.4,5.3,5.6,7.8,8.3c3.9,4.3,6.7,9.3,7.6,14.6
		c0.7,4,0.3,8.2-1.7,12.4c-0.7,1.5-1.7,3.1-3.1,4.2l-0.1,0.1c4.6,12.4,9.5,24.8,14.3,37v-0.1c-0.4-5-0.3-10.1,1-15
		c2.2-8.3,7.6-15.2,15.2-19.5c0.6-0.3,1.4-0.1,1.4,0.6c0,0.3,3.3,21.4-1.1,30.6c-1.7,3.5-4,6.7-7.1,9c-1.5,1.1-3.9,3.1-6,2.8
		c5.1,12.8,10.4,25.6,15.4,38.4c0-2.4,0.4-4.9,0.8-6.5c1.4-7.1,5.3-13.6,11.1-17.9c2.4-1.7,5-3.1,7.9-3.6c2.5,5.4,2.5,11.8,1.4,17.8
		c-0.6,3.3-1.4,6.5-3.3,9.3c-1.8,2.5-4.3,4.3-7.2,5.4c-2.1,0.8-6.3,2.1-8.6,1.1c6.1,15.7,11.8,31.4,16.8,47.4c1.3-3.8,4-7,7.4-9.2
		c3.3-2.2,7.1-3.8,11-4.9c2.5-0.8,5.3-1.7,7-3.6c-1.4,2.8-1.5,6-2.2,9c-1,4-2.8,7.9-5.6,11.1c-1.8,2.1-3.9,4-6.5,5
		c-2.9,1.1-6.4,1.3-8.8,0.1c1.8,5.8,3.5,11.8,5,17.8c4.3,16.7,7.5,33.6,9.3,50.8c0.1,1.1-1.7,1.4-1.8,0.3c-2.6-25.3-8.5-49.9-16-74
		c-0.3,2.9-2.2,5.7-6,7.4c-1.7,0.7-3.5,1-5.4,1c-5.6,0-11.1-2.1-15.2-5.8c-4-3.8-6.7-9.2-7.1-14.7c0-0.6,0-1.4,0.6-1.7
		c0.4-0.1,0.8,0,1.3,0.1c3.9,1.3,8.1,1.3,12.1,1.3c4,0,8.2,0,12.1,1.4c2.1,0.8,3.9,2.1,5.1,3.6c-4.5-13.9-9.6-27.7-14.9-41.3
		c-1,1.7-3.6,2.6-5.3,3.3c-8.2,2.9-17.7,2.2-25.3-1.8c-7.6-4-13.6-11.4-15.9-19.7c8.5-2.6,17.9-2.4,26.3,0.6
		c5.6,1.9,10.7,5.1,15,9.2c0.7,0.7,1.8,1.5,2.8,2.6c-5.3-13.3-10.7-26.7-16-39.9c-6.7,11-24.1,7.6-33.9,2.5c-12-6.4-19.9-19.3-16-33
		C71.8,190.7,72.2,190.5,72.6,190.5z"/>
	<path class="st7" d="M405.9,62.9c8.2-1,16.5-0.1,24.8,0c15,0.3,29.9-1.7,44.4-5.7c-3.6,10.6-7.2,21.3-10.8,31.8
		c-2.8,8.2-5.6,16.5-9.9,24.1c-4,7.2-9.5,13.6-15.9,19c-13.2,11-31.3,16.8-48,12.9c-14.6-3.5-27.9-14.5-31.4-29.5
		C352.3,86.9,380.6,65.8,405.9,62.9z"/>
	<path class="st8" d="M465,65.5c-11.7,4.4-23.4,9-34.8,14.2c2.1-3.8,4.4-7.2,7.2-10.4c1.1-1.3-0.7-3.1-1.8-1.8
		c-3.6,4.2-6.7,8.8-9,13.8c0,0.1,0,0.1-0.1,0.3c-5.1,2.4-10.2,4.9-15,7.6c-7.1,3.9-14.3,8.3-20.7,13.5c3.1-9.5,6.5-18.9,10.6-27.9
		c0.7-1.5-1.5-2.8-2.2-1.3c-4.7,10.6-8.8,21.4-12.1,32.4c-6.1,5.6-11.4,11.8-14.9,19.5c-0.7,1.5,1.5,2.8,2.2,1.3
		c1.5-3.3,3.3-6.4,5.6-9.3c0,0,0,0,0.1,0c14.2,1,29.1,0.7,43,3.8c1.7,0.3,2.2-2.1,0.7-2.5c-13.6-2.9-27.9-2.9-41.9-3.8
		c8.5-10.3,20.4-17.7,32-24.1c13.1,1.4,26.8,1.8,39.6,5.3c1.5,0.4,2.2-2.1,0.7-2.5c-11.7-3.2-24.1-3.9-36.2-5
		c15.4-8.1,31.6-14.3,47.8-20.6C467.1,67.5,466.5,65,465,65.5z"/>
	<path class="st10" d="M440.8,22.4c0-0.3-0.3-0.6-0.6-0.6c-12.8-1.8-26.6-1.5-37.3,5.4c6.7-8.6,13.2-17.2,19.5-26.1
		c0.6-0.7-0.6-1.7-1.1-0.8c-7.1,10-14.6,19.7-22.1,29.5v-0.1c1.4-3.6,2.4-7.5,2.5-11.4c0.1-6.7-2.5-12.9-7.2-17.7
		c-0.3-0.4-1-0.4-1.3,0.1c0,0.1-7.1,15.3-5.7,23.1c0.6,2.9,1.7,5.8,3.3,8.2c0.8,1.3,2.2,3.2,3.9,3.3c-6.5,8.5-13.1,17-19.6,25.4
		c0.6-1.7,0.7-3.6,0.8-5c0.4-5.6-1.1-11.3-4.4-15.7c-1.4-1.8-3.1-3.3-5.1-4.3c-3.1,3.5-4.3,8.3-4.9,12.9c-0.3,2.5-0.4,5.1,0.6,7.6
		c0.8,2.2,2.4,4.2,4.2,5.6c1.4,1.1,4.2,2.9,6.1,2.6c-7.8,10.4-15.4,21-22.5,31.8c-0.1-3.1-1.5-6-3.6-8.5c-1.9-2.4-4.6-4.3-7.1-6
		c-1.7-1.1-3.6-2.4-4.4-4.2c0.4,2.4-0.1,4.7-0.1,7.2c-0.1,3.2,0.4,6.5,1.8,9.5c0.8,1.9,2.1,3.8,3.9,5c1.9,1.4,4.6,2.2,6.5,1.9
		c-2.5,4-5,8.1-7.5,12.2c-6.7,11.5-12.7,23.5-17.7,35.9c-0.3,0.8,1,1.4,1.3,0.6c7.4-18.4,16.8-35.5,27.5-51.9
		c-0.4,2.2,0.4,4.7,2.9,6.8c1.1,0.8,2.5,1.4,3.8,1.8c4.2,1.3,8.8,0.7,12.7-1.3c3.9-1.9,7-5.4,8.3-9.5c0.1-0.4,0.3-1.1-0.1-1.4
		c-0.3-0.3-0.6-0.1-1-0.1c-3.2,0.1-6.3-0.7-9.3-1.7c-3.1-0.8-6.1-1.8-9.3-1.5c-1.7,0.1-3.3,0.7-4.6,1.7c6.3-9.5,12.9-18.6,19.7-27.7
		c0.4,1.5,2.1,2.8,3.2,3.6c5.6,3.9,12.7,5.3,19.3,3.9c6.7-1.4,12.5-5.7,16-11.4c-5.8-3.8-12.8-5.6-19.7-5.1c-4.6,0.3-9,1.5-13.2,3.6
		c-0.7,0.3-1.7,0.8-2.6,1.4c6.7-8.9,13.6-17.7,20.3-26.4c2.6,9.6,16.3,10.8,24.8,9C432.2,41.3,440.8,33.4,440.8,22.4z"/>
</g>
<path class="st11" d="M161.6,309.8V133.3c0-20,16.1-36.2,36.2-36.2h345.5c16.8,0,30.6,13.6,30.6,30.6v182c0,20-16.1,36.2-36.2,36.2
	h-340C177.8,346,161.6,329.7,161.6,309.8z"/>
<path class="st12" d="M541.4,336.1H194c-12.7,0-22.8-10.3-22.8-22.8V129.8c0-12.7,10.3-22.8,22.8-22.8h347.3
	c12.7,0,22.8,10.3,22.8,22.8v183.4C564.3,325.8,554.1,336.1,541.4,336.1z"/>
<path class="st11" d="M454.4,389.8H281c-1.8,0-3.3-1.5-3.3-3.3c0-1.8,1.5-3.3,3.3-3.3h173.4c1.8,0,3.3,1.5,3.3,3.3
	C457.7,388.3,456.2,389.8,454.4,389.8z"/>
<path class="st13" d="M455.4,383.1H280l15-37.1h145.3L455.4,383.1z"/>
<path class="st14" d="M547,149.8H188.5v171.7H547V149.8z"/>
<path class="st15" d="M547,124.6H188.5v25.4H547V124.6z"/>
<path class="st16" d="M200.1,142.1c2.7,0,4.9-2.2,4.9-4.9c0-2.7-2.2-4.9-4.9-4.9c-2.7,0-4.9,2.2-4.9,4.9
	C195.2,140,197.4,142.1,200.1,142.1z"/>
<path class="st17" d="M223.2,137.3c0-2.8-2.2-4.9-4.9-4.9c-2.8,0-4.9,2.2-4.9,4.9c0,2.8,2.2,4.9,4.9,4.9
	C221,142.3,223.2,140.1,223.2,137.3z"/>
<path class="st18" d="M236.4,142.1c2.7,0,4.9-2.2,4.9-4.9c0-2.7-2.2-4.9-4.9-4.9c-2.7,0-4.9,2.2-4.9,4.9
	C231.5,140,233.7,142.1,236.4,142.1z"/>
<path class="st16" d="M313.4,228.7c2.1,0.8,3.7,1.9,4.8,3.4c1.1,1.5,1.7,3.2,1.7,5.3c0,3.1-1.3,5.5-3.8,7.2c-2.5,1.7-6.2,2.5-11,2.5
	h-19.7v-35h18.7c4.7,0,8.2,0.8,10.5,2.5c2.4,1.7,3.6,3.9,3.6,6.6c0,1.6-0.4,3.1-1.3,4.4C316.2,226.8,315,227.9,313.4,228.7z
	 M297,220.2v5.2h5.5c2.6,0,3.9-0.9,3.9-2.6c0-1.7-1.3-2.6-3.9-2.6H297z M304.1,238.7c2.6,0,3.9-0.9,3.9-2.8c0-1.8-1.3-2.8-3.9-2.8
	H297v5.5H304.1z M339.1,238.2h-3.2v8.8h-11.8v-35h16.8c3.2,0,6.1,0.5,8.5,1.6c2.4,1.1,4.3,2.6,5.5,4.6c1.3,2,2,4.3,2,7
	c0,2.5-0.6,4.7-1.7,6.6c-1.1,1.9-2.8,3.3-4.9,4.4l7.4,10.8H345L339.1,238.2z M345,225.2c0-1.3-0.4-2.3-1.2-3c-0.8-0.7-2-1.1-3.6-1.1
	h-4.3v8.2h4.3c1.6,0,2.8-0.4,3.6-1.1C344.6,227.5,345,226.5,345,225.2z M385.2,240.9h-13.3l-2.4,6.1h-12l15.3-35h11.6l15.3,35h-12.2
	L385.2,240.9z M381.9,232.4l-3.4-8.8l-3.4,8.8H381.9z M436.1,212v35h-9.7l-13.3-15.9V247h-11.5v-35h9.7l13.3,15.9V212H436.1z
	 M441.8,212h17.3c3.9,0,7.3,0.7,10.3,2.1c3,1.4,5.3,3.4,6.9,6.1c1.7,2.6,2.5,5.7,2.5,9.3c0,3.6-0.8,6.7-2.5,9.3
	c-1.6,2.6-3.9,4.7-6.9,6.1c-3,1.4-6.4,2.1-10.3,2.1h-17.3V212z M458.6,237.8c2.5,0,4.6-0.7,6.1-2.2c1.5-1.5,2.3-3.5,2.3-6.1
	c0-2.6-0.8-4.7-2.3-6.1c-1.5-1.5-3.5-2.2-6.1-2.2h-4.9v16.6H458.6z"/>
<path class="st18" d="M247.6,169h-42.4v125h42.4V169z"/>
<path class="st19" d="M224.7,173h-16v16h16V173z"/>
<path class="st19" d="M244.2,173h-16v16h16V173z"/>
<path class="st19" d="M224.7,193.6h-16v16h16V193.6z"/>
<path class="st19" d="M244.2,193.6h-16v16h16V193.6z"/>
<path class="st19" d="M224.7,214.2h-16v16h16V214.2z"/>
<path class="st19" d="M244.2,214.2h-16v16h16V214.2z"/>
<path class="st19" d="M224.7,234.8h-16v16h16V234.8z"/>
<path class="st19" d="M244.2,234.8h-16v16h16V234.8z"/>
<path class="st19" d="M224.7,255.3h-16v16h16V255.3z"/>
<path class="st19" d="M244.2,255.3h-16v16h16V255.3z"/>
<path class="st20" d="M501.7,273.1v2.1h-2.1"/>
<path class="st21" d="M494,275.2H266"/>
<path class="st20" d="M263.2,275.2h-2.1v-2.1"/>
<path class="st22" d="M261.1,267.7v-71.9"/>
<path class="st20" d="M261.1,193.2v-2.1h2.1"/>
<path class="st21" d="M268.6,191.1h228.2"/>
<path class="st20" d="M499.6,191.1h2.1v2.1"/>
<path class="st22" d="M501.7,198.5v71.9"/>
<path class="st23" d="M267.7,184.4h-13.2v13.2h13.2V184.4z"/>
<path class="st23" d="M508.2,184.4H495v13.2h13.2V184.4z"/>
<path class="st23" d="M267.7,268.5h-13.2v13.2h13.2V268.5z"/>
<path class="st23" d="M508.2,268.5H495v13.2h13.2V268.5z"/>
<path class="st18" d="M501.7,169H262.5v5.8h239.2V169z"/>
<path class="st18" d="M501.7,291.2H262.5v5.8h239.2V291.2z"/>
<g class="st24">
	<path class="st25" d="M563.7,120.9c-2.8-8.1-10.6-13.9-19.6-13.9h-2.9L312,336.1h36.4L563.7,120.9z"/>
	<path class="st25" d="M396.6,107L175.8,327.6c3.8,5.1,9.9,8.5,16.7,8.5h99.7L521.4,107H396.6z"/>
	<path class="st25" d="M171.7,238.9v62.9L366.5,107h-62.9L171.7,238.9z"/>
</g>
<path class="st26" d="M215,256c3.3,1.3,6.8,2.1,10.2,2.8c6.1,1.4,12.1,2.8,18.2,4.2c1.7,0.4,3.3,0.7,4.9,0.3
	c2.4-0.6,4.9-1.7,6.8-3.1c2.1-1.7,2.9-9.6,4.3-12c0.8-1.4,2.6-1.9,2.5-1.1c-0.3,1.3,0.6,13.5,0.3,14.6c-0.7,2.6-2.8,4.7-5.3,5.8
	c-2.4,1.1-5,1.5-7.6,1.8c-7.2,0.7-14.6,0.8-21.8,0.4c-6.5-0.4-13.2-0.1-19.6-1.7c-6.3-1.4-12.1-2.6-17.8-5.6c-2.2-1.1-4.3-3.9-6-5.8
	c-4.7-5.3,1.7-14.9,8.3-13.5c3.8,0.7,7.5,4.4,10.6,6.4C206.9,252.1,210.8,254.5,215,256z"/>
<path class="st27" d="M164.9,491.4c0,1.7-1.4,3.2-2.9,3.8c-1.5,0.7-3.3,0.7-5,0.7c-12.9,0.1-26,0.3-38.9,0.4
	c-4.4,0-8.9,0.1-13.1-1.4c-0.4-1.9-0.3-3.9,0.3-5.8c0.8-3.3,2.5-6.7,3.1-10.2c0.7-3.9,0-7.8,0.3-11.7c0-0.3,0-0.7,0.3-1
	c0.1-0.1,0.4-0.1,0.7-0.1c4-0.1,8.1-0.3,12.2-0.4c1.3,0,8.9,0,9.2,1c1.1,3.8,3.9,6.8,6.8,9.3c3.1,2.5,6.3,4.6,9.2,7.2
	c1.3,1.1,2.4,2.5,4,3.2c2.5,1.1,5.4,0.4,8.1,0.6c1.8,0,3.9,0.8,5,2.1C164.5,489.8,164.9,490.6,164.9,491.4z"/>
<path class="st28" d="M164.9,491.4c0,1.7-1.4,3.2-2.9,3.8c-1.5,0.7-3.3,0.7-5,0.7c-12.9,0.1-26,0.3-38.9,0.4
	c-4.4,0-8.9,0.1-13.1-1.4c-0.4-1.9-0.3-3.9,0.3-5.8c0.4-0.1,0.8-0.3,1.4-0.4c4-0.3,9,1.3,13.1,1.5c4.3,0.4,8.8,0.8,13.2,0.8
	c10.4,0.6,21.3,1.1,31.1-2.1C164.5,489.8,164.9,490.6,164.9,491.4z"/>
<path class="st29" d="M137,382.4c2.8,3.6,5.7,8.1,4.4,12.4c-0.6,1.9-1.9,3.5-3.2,5.1c-13.8,17.1-18.8,39.6-23.4,61
	c-0.1,1-0.4,2.1,0.3,2.8c0.4,0.6,1.1,0.7,1.8,0.8c3.9,1,7.8,1.9,11.8,2.9c0.7,0.1,1.4,0.4,2.2,0.1c2.1-0.4,2.5-3.2,2.9-5.3
	c0.6-3.1,1.9-5.8,3.2-8.5c5.3-11,10.6-21.8,15.9-32.8c3.6-7.4,7.2-14.9,13.3-20.4c1.4-1.4,3.1-2.6,3.8-4.5c0.8-1.9,0.4-4.2-0.1-6.3
	c-2.1-8.9-5.4-17.4-8.8-25.9c-7.1-18.2-14.3-36.6-21.4-54.8c-0.6-1.4-1.1-2.8-2.4-3.8c-2.4-1.8-5.7-0.7-8.3,0.7
	c-8.9,4.6-16.7,11.1-22.8,19c-3.1,3.9-5.3,8.3-2.1,12.7c3.3,4.5,7,8.9,10.2,13.5C121.8,362,129.3,372.3,137,382.4z"/>
<path class="st27" d="M54.6,451.8c0.7,2.4,0,4.7-0.3,7.2c-0.8,5.3-0.3,10.7,0.4,16c0.3,2.9,0.7,6,1.8,8.8c0.8,1.9,2.1,3.9,2.8,5.8
	c0.4,1.1,0.7,2.2,0.7,3.5c0,1-0.1,1.9-0.7,2.8c-1.1,2.1-3.5,3.2-5.8,3.2c-2.4,0-4.6-1-6.5-2.2c-6.4-4-10.4-10.8-13.5-17.8
	c-3.1-7-5.4-14.2-9.5-20.6c-1-1.4-1.9-2.9-2.2-4.6c-0.3-1.7,0.6-3.8,2.2-4.2c0.8-0.1,1.7-0.4,2.4-0.7c5.3-1.8,9.3-4.9,14.2-7.6
	c4.9-2.9,8.9,3.2,11.7,6.7C53.4,449.3,54.2,450.4,54.6,451.8z"/>
<path class="st28" d="M58.1,493.8c0.6-0.1,1.3-0.4,1.8-0.7c0,1-0.1,1.9-0.7,2.8c-1.1,2.1-3.5,3.2-5.8,3.2s-4.6-1-6.5-2.2
	c-6.4-4-10.4-10.8-13.5-17.8c-3.1-7-5.4-14.2-9.5-20.6c-1-1.4-1.9-2.9-2.2-4.6c-0.3-1.7,0.6-3.8,2.2-4.2c0.8-0.1,1.7-0.4,2.4-0.7
	c0.6,1.3,0.7,2.8,1.1,4c1.7,7.2,5,13.9,8.3,20.3c3.2,6.1,6.5,12.4,11.7,17C50.6,493,54.5,494.9,58.1,493.8z"/>
<path class="st30" d="M132,290.4c1,1.5,0.3,3.6-0.4,5.3c-6.1,13.3-16.7,25.6-16.7,40.2c0,3.6,0.7,7.1,1.5,10.6
	c0.1,0.7,0.3,1.4,0.4,2.1c4.3,19,8.6,38.5,6.1,57.8c-0.3,1.9-0.6,3.8-1.5,5.4c-1,1.8-2.6,3.1-4.3,4.2c-13.8,9.5-31.6,12-44.8,22.1
	c-6.1,4.7-11,10.8-17.4,15c-4.9-3.5-8.9-7.8-12.1-12.8c11-6.1,17.5-17.8,27.4-25.7c5.7-4.6,12.5-7.8,19.2-11.1
	c1.5-0.7,3.2-1.7,3.8-3.2c0.4-1,0.3-2.2,0.1-3.2c-1.8-13.9-7.2-26.8-12.4-39.9c-1.3-3.1-2.4-6.1-3.6-9.3c-3.6-10-6.7-20.3-7.1-31
	c-0.3-6.3,0.6-12.5,2.4-18.4c1.7-5.3,4.2-10.4,7.9-14.6c3.8-4.3,6.5-4.2,12-3.6c12.5,1.3,24.8,4,36.6,8.2
	C130.2,288.8,131.3,289.4,132,290.4z"/>
<path class="st31" d="M181.2,279.9c2.9,1.8,5.8,3.5,9.2,4.4c7.2,2.1,14.9,0.4,22.1-1.1c10.4-2.2,20.9-4.2,31.4-5.8
	c3.2-0.6,6.5-1,9.7-0.4c2.4,0.4,5.3,1.4,6.8-0.4c0.7-0.8,1.4-1.4,1.5-2.4c0.7-6.1,0.8-20.9,0-27c-1.4,0.6-2.8,10.1-3.1,11.7
	c-0.3,1.5-0.3,3.1-1.3,4.3c-0.4,0.6-1.1,1-1.7,1.4c-0.8,0.8-1.3,1.8-2.1,2.6c-1.1,1.1-2.9,1.7-4.6,1.9c-7.5,1.4-15.2,0.7-22.8-0.1
	c-7.8-0.8-15.6-1.8-23.4-3.2c-4.3-0.8-8.9-1.8-12.2-4.4c-3.9-3.1-5.8-7.9-8.5-12.1c-0.6-0.8-1.1-1.7-2.1-2.1c-1-0.6-2.2-0.6-3.5-0.4
	c-4,0.4-8.2,1.5-11.5,4c-2.4,1.7-5.6,4.9-5.3,7.9c0.1,2.8,4.9,3.1,6.5,5C171.4,269.2,175.1,276.1,181.2,279.9z"/>
<path class="st32" d="M136.1,226.6c-2.5,3.3-5.1,6.8-7.6,10.2c-2.9,3.9-5.8,7.8-9,11.5c-10,12-22.1,22.1-35.6,29.9
	c-1.4,0.8-2.9,1.7-3.3,3.2c-0.4,1.5,0.3,3.1,1.1,4.4c9,16.4,23.2,29.5,38.8,39.9c1.3,0.8,2.6,1.7,4.2,1.7c1.5-0.1,2.8-1.1,3.9-2.1
	c11.4-9.6,21.4-20.7,29.8-33.1c3.6-5.3,7-11.1,12.4-14.7c1.8-1.3,4-2.9,3.5-4.9c-0.1-0.6-0.6-1-1-1.5c-3.2-4-6.7-7.9-10.2-11.7
	c5-1.3,7.5-7.4,12.4-9.2c3.5-1.3,7.6,0.1,9.7,3.2c1.7-3.6,4.6-6.7,8.2-8.3c-2.1-3.6-4.2-7.2-6.7-10.7c-2.9-4.2-6-8.2-9.9-11.5
	c-6.7-5.7-15.6-8.9-24.3-10C144.1,212.1,140.4,220.7,136.1,226.6z"/>
<path class="st26" d="M170.5,208.3c-1.9,2.8-4.3,5.1-6.7,7.4c2.2,1,4.4,2.1,6,4c3.5,4.3,1.9,11.3,5.7,15.3c-0.3-1.5,0.8-2.9,1.8-4
	c1.9-2.1,3.9-4.3,5.8-6.4c1.3-1.4,2.5-2.8,4.3-3.3c1.5-0.6,3.3-0.3,5-0.1c-3.3-6.5-6.8-13.1-12-18.2c-1.4-1.4-4.4-4.4-6.4-2.5
	c-0.8,0.8-1,2.8-1.4,3.9C172.1,205.8,171.4,207.1,170.5,208.3z"/>
<path class="st31" d="M199.8,175.7c1.5,2.5,4.6,8.8,4.6,10.8c0,2.2-0.6,2.5-0.6,4.7c0,3.8,3.5,4.7,4.6,8.8c0,1-1.8,1.1-2.9,1.3
	c-0.4,0-0.8,0.1-1.1,0.3c-1,0.8,0.1,2.5-0.3,3.8c-0.6,1.5-3.2,1.1-4,2.6c-0.6,1,0,2.1,0.6,3.1c0.6,0.8,1.4,1.8,1.3,2.9
	c-0.1,1.4-1.9,2.4-1.8,3.9c0.1,0.8,0.4,1.8,0.1,2.5c-0.6,1.1-1.4,1.5-2.6,1.9c-2.2,0.7-7.8-1-9.6-2.5c-7.2-6-11.3-11.3-11-12.5
	c0.3-1,1.4-1.7,1.1-2.6c-0.3-1.1-1.8-1.1-2.8-1.7c-0.8-0.6-1.3-1.7-1.5-2.6c-0.3-1.1-0.7-2.1-1-3.2c-0.4-1.3-0.8-2.6-0.7-4
	c0.1-1.4,0.8-2.8,2.2-3.2c1-0.4,2.2,0,3.1,0.6c0.8,0.6,1.5,1.5,2.2,2.4c1.4-1.7,2.8-3.3,4.2-5c0.3-0.3,0.4-0.7,0.6-1
	c0.1-0.4,0-1-0.1-1.4c-0.6-1.8-0.8-3.6-1.1-5.4c-0.1-1.4-0.3-2.8,0.3-4c1-2.8,4.3-4.2,7.4-3.9c2.9,0.3,5.6,1.8,8.2,3.3
	C199.3,175.2,199.8,175.7,199.8,175.7z"/>
<path class="st33" d="M176.4,192.9c1.7-1.1,3.2-0.1,4.2,1.1c0.3,0.4,0.7,0.8,1.1,0.8c0.4,0,0.7-0.4,1-0.7c1.3-1.9,0.3-2.9,1.5-4.9
	c0.4-0.6,2.6-2.5,3.3-2.6c12.5-4,13.9-7.6,13.9-7.9c0-1.3-1.3-7-7.5-10.4c-3.8-2.1-9.2-4.6-18.1-4c-3.2,0.3-6.7,2.2-9.7,3.3
	c-1.7-1.8-3.5-3.6-5.8-3.8c-1.7-0.1-3.3,0.7-4.7,1.5c-3.3,1.9-6.5,4.6-7.9,8.2c-2.2,6,1.3,12.7,0.6,19c-0.3,2.1-1,4.3-0.1,6.1
	c0.7,1.7,2.4,2.6,3.1,4.3c1.1,2.1,0.6,4.4,1,6.7c0.6,2.5,2.2,4.7,4.6,5.8c2.5,1.1,5.7,1.3,7.2,3.3c1.3,1.8,1,4.2,1.4,6.3
	c0.4,2.1,1.8,4,3.6,5.1c0.7,0.4,1.4,0.7,1.9,1.3c1.3,1.1,1.5,3.1,1.9,4.7c0.4,1.7,1.3,3.5,2.9,4c1.5,0.4,3.2-0.7,3.9-2.2
	c0.6-1.5-0.1-8.9-0.1-10c-0.1-3.3-5-13.5-5.3-16.4c-0.1-1.8-1.3-3.8-0.6-5.4c0.3-0.4,0.6-0.8,0.8-1.4c0.7-1.4,0.1-3.1-0.1-4.7
	C173.8,197.1,176.4,192.9,176.4,192.9z"/>
<path class="st34" d="M545.3,316.1c-7.1,21.6-8.6,44.4-10,67c-0.3,4.7-0.6,9.5-0.8,14.2c-0.1,1.9-0.3,3.9,0.1,5.8
	c0.4,1.9,1.3,3.8,1.8,5.6c2.4,6.7,2.2,14,2.1,21.1c-0.3,13.9-0.7,27.9-2.6,41.7c-0.6,4-1.4,8.1-2.2,12.1c-0.3,1.1-0.4,2.4,0.1,3.3
	c0.6,1,1.8,1.4,2.9,1.8c3.5,1.1,7.1,2.2,10.6,3.2c3.2,1,7.4,1.7,9.3-1c3.1-4.3-3.6-10.4-1.3-15.2c0.6-1,1.4-1.8,1.9-2.8
	c0.6-1,0.7-2.1,0.8-3.2c1.1-9.3,2.1-18.6,3.2-27.9c0.8-7.1,1.7-14.2,1.1-21.3c-0.3-4.2-1.1-8.3-1.3-12.5c-0.1-12,5.6-23.1,11.1-33.8
	c2.6-5,5.1-10,6.3-15.6c1.1-6,0.4-12.2-0.3-18.2c-1-8.5-1.9-16.8-3.1-25.3c-0.3-2.8-0.7-5.7-2.1-8.2c-3.2-5.6-11.3-7.4-17.2-7
	C548.4,300.8,547.4,310,545.3,316.1z"/>
<path class="st35" d="M559.4,324.4c2.2,7.4,6.1,14.3,9,21.4c5.6,13.3,8.2,27.8,11.3,42c1.3,5.8,2.5,11.5,4.7,17.1
	c1.9,5.1,4.7,10.2,6.4,15.4c2.1,6.7,2.5,13.9,2.5,20.9c0,15.9-1.7,31.7-5.1,47.1c6.8,1.7,13.6,3.3,20.4,5
	c-2.1-7.4-0.4-15.2,0.7-22.8c2.4-15.3,2.8-30.9,3.3-46.4c0.1-3.1,0.1-6.3-0.3-9.3c-1-5.3-3.6-10-4.9-15.3c-1.4-5.6-1-11.4-0.7-17.1
	c0.6-9.5,1.1-18.8,1.7-28.2c0.1-3.2,0.4-6.4,1.3-9.5c0.8-2.9,2.2-5.7,3.2-8.6c2.5-7.1,2.2-14.9,1.5-22.4c-0.1-1.8-0.4-3.8-1.5-5.3
	c-1.4-1.8-3.6-2.5-5.8-3.1c-12.1-3.3-24.8-6.8-37.5-5.7c-5.6,0.6-9.3,0.6-11.1,6C556.3,311.6,557.7,318.9,559.4,324.4z"/>
<path class="st36" d="M557.6,503.1c-0.1,1.4-1.4,2.6-2.6,3.1c-1.4,0.6-2.8,0.6-4.3,0.6c-2.1,0-4.2,0-6.3,0c-5.4,0-10.7,0-16.1,0.3
	c-9.6,0.7-19.5,2.4-28.4-1c-0.4-0.1-0.8-0.3-1.1-0.6c-0.6-0.6-0.8-1.4-0.7-2.1c0.1-0.7,0.6-1.4,1-1.9c0.3-0.3,0.6-0.6,1-0.8
	c1-0.7,2.1-1,3.3-1.3c2.9-0.8,5.8-1.5,8.9-1.9c0.6-0.1,1.1-0.1,1.5-0.4c0.7-0.3,1.1-1,1.7-1.4c1.1-1.1,2.6-1.7,3.9-2.5
	c3.9-2.2,7.1-5.4,10.4-8.5c1.1-1,3.6-2.9,4.3-0.7c0.3,0.8,0,1.5,0.7,2.4c0.7,0.8,1.9,1.4,2.9,1.8c3.9,1.7,7.9,3.2,12.1,3.6
	c2.2,0.1,4.3,0,6.5-0.1c-0.1,2.9-0.3,5.8,0.6,8.6c0.1,0.4,0.3,1,0.4,1.4C557.4,502,557.6,502.6,557.6,503.1z"/>
<path class="st18" d="M557.6,503.1c-0.1,1.4-1.4,2.6-2.6,3.1c-1.4,0.6-2.8,0.6-4.3,0.6c-2.1,0-4.2,0-6.3,0c-5.4,0-10.7,0-16.1,0.3
	c-9.6,0.7-19.5,2.4-28.4-1c-0.4-0.1-0.8-0.3-1.1-0.6c-0.6-0.6-0.8-1.4-0.7-2.1c0.1-0.7,0.6-1.4,1-1.9c0.1,0.8-0.3,1.8,1,2.5
	c1,0.6,2.2,0.6,3.3,0.6c14.7-0.1,29.5-0.3,44.2-0.4c1.9,0,3.9,0,5.8-0.6c1.4-0.4,2.8-1,3.9-1.9c0,0,0.1,0,0.1-0.1
	C557.4,502,557.6,502.6,557.6,503.1z"/>
<path class="st36" d="M609,504.8c0,0.7-0.1,1.4-0.6,1.8c-0.3,0.3-0.7,0.6-1.1,0.8c-1.9,1.1-3.9,2.1-5.8,3.2c-1.9,1-3.9,2.1-6,2.8
	c-1.4,0.4-2.9,0.7-4.4,0.8c-3.1,0.4-6.1,1-9.2,0.8c-3.2,0-6.4-0.6-9.5-1.7c-0.6-0.1-1.1-0.4-1.4-1c-0.1-0.4-0.1-0.8,0-1.4
	c0.1-0.6,0.3-1.1,0.6-1.5c0.7-1.7,1.8-3.1,3.1-4.3c1.3-1.1,2.8-1.9,3.8-3.3c0.6-0.7,0.8-1.5,1.4-2.4c0.4-0.6,1.1-1.1,1.7-1.7
	c2.1-1.9,3.5-4.3,4.2-7.1c0.7-2.5,2.5-4.3,5.3-4.6c1.1-0.1,2.2,0.1,3.3,0.4c1.9,0.6,4,1.4,5.4,2.8c0.6,0.6,1,1.1,1.5,1.5
	c1.1,0.8,2.6,1,4,1.1c0.4,0,0.7,0.1,1,0.3c0.3,0.3,0.4,0.6,0.4,1c0.6,2.4,1.1,4.7,1.8,7.1c0.1,0.7,0.4,1.4,0.4,2.2
	C609,503.4,609,504.1,609,504.8z"/>
<path class="st18" d="M609,504.8c0,0.7-0.1,1.4-0.6,1.8c-0.3,0.3-0.7,0.6-1.1,0.8c-1.9,1.1-3.9,2.1-5.8,3.2c-1.9,1-3.9,2.1-6,2.8
	c-1.4,0.4-2.9,0.7-4.4,0.8c-3.1,0.4-6.1,1-9.2,0.8c-3.2,0-6.4-0.6-9.5-1.7c-0.6-0.1-1.1-0.4-1.4-1c-0.1-0.4-0.1-0.8,0-1.4
	c0.1-0.6,0.3-1.1,0.6-1.5c0.3,0.1,0.4,0.1,0.7,0.3c1.7,0.6,3.3,1.1,5.1,1.3c4.2,0.4,8.5,0.8,12.7,0.6c4.2-0.3,8.5-1.4,12-3.9
	c2.4-1.7,4.4-3.8,7-4.9C609,503.4,609,504.1,609,504.8z"/>
<path class="st26" d="M534.4,232.8c-3.1,1.5-6.1,3.1-9,4.7c-8.5,5-16.1,12.1-25.7,14c-2.8,0.6-5.8,0.6-8.5-0.7
	c-1.7-0.8-3.2-2.2-5.1-2.6c-4.9-0.8-2.4,3.6-3.1,5.6c-1,3.1-4.4,4-5.7,6.8c-1.5,3.3,1,7.2,3.6,9.5c2.1,1.7,5,2.5,7.5,1.9
	c5.3-1.3,9.7-5.6,15.2-7.2c5.8-1.7,11.8-2.4,17.7-3.8c9.9-2.4,19.9-4.7,29.6-7.9c3.9-1.3,7.8-2.8,11.1-5.1c2.1-1.5,3.9-3.5,5.7-5.4
	c1.8-1.9,3.6-3.9,5.4-5.7c0.3-0.3,0.7-0.7,0.7-1.3s-0.4-1-0.8-1.3c-3.9-3.5-8.1-6.7-12.4-9.7c-4.6-3.2-7.2-4.2-11.7-1
	C544.4,227,539.4,230,534.4,232.8z"/>
<path class="st31" d="M519.1,183.9c-2.8-4.9-6.7-9.6-12.1-11.1c-1.5-0.4-3.8-0.3-4.3,1.3c-0.4,1.3,0.4,2.5,1.4,3.2
	c1,0.8,2.2,1.4,2.9,2.4c0.1,0.1,0.3,0.4,0.3,0.6c0,0.4-0.3,0.7-0.7,1c-1.8,1.7-3.8,3.3-4.6,5.6c-1.5,4.3,1.4,8.8,4,12.4
	c1.3,1.7,2.5,3.3,4.4,4.2c1.5,0.7,3.3,0.6,4.9,1.3c1.5,0.7,2.6,1.9,3.6,3.3c2.9,4,5,8.5,7.6,12.7c3.8,5.7,8.8,10.6,14,14.9
	c8.9,7.4,19.2,13.6,30.7,14c10.6,0.4,20.6-4.3,30-8.8c0.8-0.4,1.7-0.8,2.4-1.5c0.4-0.6,0.7-1.1,0.8-1.8c1.5-4.9,1.9-10,0.6-14.9
	c-1.5-4.9-5.3-9-10-10.4c-6.7-1.8-13.5,1.9-20,4.2c-5,1.7-10.3,2.4-15.4,1.8c-7.1-0.8-13.6-4-19.5-8.2c-5.4-3.9-12-8.8-15.3-14.6
	C522.7,191.7,521.2,187.6,519.1,183.9z"/>
<path class="st37" d="M552.7,216.3c4.4,1.5,8.6,3.6,12.5,6.1c0.7,0.4,1.4,1,2.2,1c1,0.1,1.9-0.4,2.8-0.8c5.6-2.8,11.1-5.7,16.7-8.5
	c1-0.6,1.9-1,3.1-1c0.8,0,1.7,0.4,2.4,0.8c7.5,4.3,12.1,13.1,11.5,21.6c0,1-0.1,1.9-0.7,2.6c-0.8,1.3-2.4,1.7-3.6,2.1
	c-7.5,2.1-15,4.2-22.5,6.3c-2.4,0.7-4.9,1.3-7.2,0.8c-2.4-0.4-4.6-1.8-7.1-1.5c-1.8,5-3.5,10-4.7,15.2c-0.4,1.5-0.8,3.1-0.7,4.6
	c0,1.5,0.4,3.2,0.6,4.7c1,11.5-12.5,20.2-12.4,31.7c17.4,2.8,35.2,2.1,52.6,4.7c6.5,1,13.1,2.5,18.4,6.4c-1.8-5.1-1.1-10.8-0.3-16.3
	c2.1-15.2,4.3-30.2,9-44.8c2.6-8.1,5.8-15.7,7.9-23.9c2.1-8.2,2.6-17,0-24.9c-2.6-7.9-9.2-15-17.5-16.5c-10.1-1.8-18.6,4.3-27.8,7.1
	c-4.9,1.5-9.7,2.2-13.9,5.1c-3.6,2.5-6.5,5.8-9.6,8.9C562.5,209.7,555.6,217.2,552.7,216.3z"/>
<path class="st31" d="M591.4,195.8c-0.6,1.7-1.4,3.3-1.9,5c-0.3,0.8-0.3,1.8,0.6,2.1c0.6,0.1,1-0.3,1.4-0.6
	c8.6-7,19.2-10.7,29.6-14.3c-2.8-1.4-3.9-4.7-4.6-7.8c-0.7-2.6-1.4-5.3-1.5-7.9c0-1.3,0-2.4-0.3-3.6c-0.1-1.1-0.7-2.2-1.1-3.3
	c-0.1-0.4-0.4-1-0.8-1.3c-0.3-0.3-0.8-0.3-1.3-0.3c-2.1,0-4,1-5.8,2.1c-3.1,1.9-6.1,4-8.9,6.4c-2.9,2.5-6,5.7-5.1,9.7
	C592.8,186.8,592.9,191.4,591.4,195.8z"/>
<path class="st38" d="M572.2,164.5c-0.4,2.5-2.2,4.9-1.5,7.4c0.8,0,1.7,0,2.6,0c1,1.5,1.8,3.2,2.8,4.7c0.8,1.5,2.6,3.2,3.9,1.9
	c-1.3,2.1,0.3,5,2.5,6c2.2,1,4.7,0.8,7.2,0.7c0.8,0,1.7-0.1,2.4-0.7c0.6-0.6,0.8-1.3,1.1-1.9c3.1-7.8,9.6-14,17.5-16.5
	c0.6-0.1,1.1-0.4,1.3-0.8c0.1-0.4,0-0.7-0.1-1.1c-0.8-1.9-1.7-4-2.5-6c-1-2.4-2.5-5.1-5-5.4c0.7-2.2-1.1-4.4-3.2-5.6
	c-2.1-1.1-4.4-1.4-6.5-2.4c-2.6-1.3-4.6-3.5-6.7-5.4c-5.8-5.1-13.5-3.5-16.5,3.9c-1,2.4-0.8,5.3-0.8,7.8
	C570.2,155.8,572.7,160.4,572.2,164.5z"/>
<path class="st33" d="M562,140.2c0.1,3.1,2.5,6,5.6,6.4c4.3,0.6,7.8-3.8,12.1-4.5c0.7-0.1,1.4-0.1,1.9,0.3c0.6,0.3,0.8,0.8,1.1,1.4
	c1.4,2.9,0.7,6.7,2.5,9.5c0.8,1.3,2.1,2.1,2.8,3.5c0.7,1.3,0.7,2.9,1.4,4.2c0.7,1.3,2.6,2.1,3.5,1c-0.4-2.1-0.7-4.2-0.3-6.1
	c0.4-2.1,1.7-4,3.5-4.9c1.8-0.8,4.5-0.4,5.6,1.3c1.3,1.9,0.6,4.7,1.8,6.8c0.8,1.3,2.2,1.9,3.1,3.1s1.3,2.5,2.1,3.6
	c1.3,1.7,3.8,2.2,5.6,1.4c-0.1-2.6-0.4-5.3-0.1-7.9c0.3-3.9,1.5-7.6,2.2-11.4c0.7-3.9,1-7.9-0.6-11.5c-2.1-5-7.6-8.2-12.9-7.6
	c0-1.5-1-2.9-2.4-3.6c-1.3-0.8-2.8-1.1-4.3-1.3c-7.1-1-14.5,0.3-21,3.3C569.7,129.1,561.5,133.4,562,140.2z"/>
<path class="st39" d="M468.6,274.1v195.8h34.1V274.1H468.6z"/>
<path class="st40" d="M502.7,274.2V271c0-9.5-7.6-17.1-17.1-17.1c-9.5,0-17.1,7.6-17.1,17.1v3.1h34.2V274.2z"/>
<path class="st32" d="M468.7,274.2V470h11.4V274.2H468.7z"/>
<path class="st41" d="M480,274.1v195.8h11.1V274.1H480z"/>
<path class="st42" d="M502.7,470h-34.1l17.8,28.6L502.7,470z"/>
<path class="st17" d="M468.6,274.2v4.7h34.1v-4.7H468.6z"/>
<path class="st43" d="M433.3,473.8c2.2,0.3,4.4,0,6.7-0.3c2.5-0.3,4.9-0.6,7.4-0.8c1.3-0.1,2.4-0.3,3.6,0.1c1.1,0.4,2.2,1.3,2.2,2.5
	c0.1,1.7-1.5,2.8-2.9,3.5c-5.8,3.1-12.7,5.1-19.2,4.2c-2.9-0.4-6-1.7-7.6-4.2c-1.3-1.9-1.5-6.4,1.1-7.5c1.4-0.6,2.5,0.6,3.8,1.1
	C429.9,473.1,431.6,473.6,433.3,473.8z"/>
<path class="st44" d="M439.3,478.5c4.3,0.1,8.8,0.1,12.9-1c1.8-0.4,3.5-1.1,5.3-1.3c1.8-0.1,3.8,0.3,5,1.7c1.3,1.5,1.3,3.8,0.4,5.6
	c-0.8,1.8-2.2,3.2-3.8,4.4c-8.1,7-17.9,12.2-28.5,12.8c-2.9,0.1-5.8-0.1-8.6,0.8c-3.2,1-6.1,3.5-9.3,2.8c-1.1-0.3-2.1-0.8-3.1-1.5
	c-0.6-0.4-1.3-0.8-1.5-1.5c-0.1-0.8,0.3-1.5,0.7-2.2c2.4-3.8,3.8-8.1,5-12.2c0.8-2.5,1.5-5,2.9-7.2c1-1.7,2.5-3.2,4.3-4
	c2.1-0.8,3.2,0.6,5.1,1.3C430.4,478.2,434.9,478.4,439.3,478.5z"/>
<path class="st45" d="M390.7,453.1c2.9,1.7,5.8,3.2,8.9,4.6c8.9,4,18.8,6,26.6,11.7c-1.3,2.5-2.4,4.9-3.6,7.4
	c-0.8,1.7-1.8,3.5-3.5,3.9c-1.4,0.4-2.9-0.1-4.3-0.7c-9.6-3.9-19.2-7.6-28.8-11.5c-19.7-7.9-39.6-15.9-58.8-25
	c-2.8-1.3-5.6-2.6-7.6-4.7c-2.1-2.1-3.5-5.3-2.8-8.2c1.1-4.2,5.7-6.3,9.7-7.6c2.2-0.8,3.9-1.8,6.1-1.3c2.2,0.6,4.4,1.8,6.4,2.8
	c4.3,1.9,8.6,4.2,12.8,6.4c8.5,4.6,16.7,9.5,25,14.5C381.5,447.8,386.1,450.4,390.7,453.1z"/>
<path class="st46" d="M409.9,501c-1.4,2.2-7.8-3.9-10.2-4.7c-6.7-2.5-13.5-5.8-20.7-8.8c-14.5-6-28.8-11.8-43.2-17.8
	c-4-1.7-8.2-3.3-12.5-3.2c-4.9,0.1-9.3,2.8-13.5,5.1c-12.9,7.5-25.9,15-38.7,22.7c-6.3,3.6-12.5,7.2-19.3,9.3
	c-4.9,1.4-10,1.9-15,2.5c-4.9,0.4-10,0.8-14.7-0.7c-5.4-1.8-9.7-6-13.8-9.9c-1-1-2.1-2.1-2.1-3.5c-0.1-1,0.3-1.9,0.7-2.8
	c2.6-5.7,5.7-11.1,9.3-16.3c1.4-2.1,2.8-4,4.7-5.6c2.4-1.9,5.1-3.2,7.9-4.3c9.7-4.2,18.2-10.4,28.2-13.8c15.7-5.1,33.6-6.3,48-14.6
	c5.1-2.9,10.4-6.7,16.3-6.4c4,0.1,7.6,2.2,11.1,4.2c12.9,7.4,25.9,14.6,38.8,22c7.9,4.5,16,9,25,10.6c6,1,15.4,5.3,22.9,7.8
	C425.9,474.9,413.4,495.5,409.9,501z"/>
<path class="st47" d="M252,426.9c0.1,1.4,0.3,2.8,1.1,4c1.1,1.7,3.3,2.2,5.3,2.4c3.5,0.3,7.1-0.3,10.6-0.8c-0.8,2.4-2.8,4-4.7,5.4
	c-2.8,1.9-5.8,3.6-9.3,4.4c-2.6,0.7-5.7,0.6-7.8-1.3c-1.1-1-1.7-2.2-2.2-3.6c-3.9-8.9-6.1-18.9-4.6-28.5c0.4-2.9,1.4-5.8,3.5-7.9
	c2.1-1.9,8.3-3.6,8.5,0.7c0.1,2.5-0.4,5.1-0.6,7.8c-0.1,2.6-0.1,5.4-0.1,8.1C251.7,420.8,251.8,423.9,252,426.9z"/>
<path class="st47" d="M282.8,428.2c1.5-1.1,3.2-1.9,5-2.1c2.4-0.3,4.9,0.8,7.2,0.1c0.8-0.3,1.5-0.6,2.4-0.7c1.4-0.1,2.6,0.4,3.9,1
	c0.3,0.1,0.6,0.3,0.7,0.6c0.1,0.6-0.3,1-0.8,1.3c-5.7,3.5-11.8,6.1-18.2,7.9c-1.9,0.6-4.6-0.4-4.7-2.8
	C278.3,431.1,281.3,429.3,282.8,428.2z"/>
<path class="st48" d="M222.5,466.3c-3.2,5.1-6.4,10.3-10.2,15c-1.8,2.2-3.6,4.3-4.7,7c-0.7,1.8-1.4,3.9-3.2,4.4
	c-1,0.3-2.1-0.1-3.1-0.6c-2.4-1.1-4.6-2.8-6.3-4.7c-1.3-1.4-2.2-2.9-3.5-4.3c-1.3-1.5-2.8-2.9-3.9-4.4c-1.3-1.7-1.9-3.8-2.5-5.7
	c-2.5-7.8-3.5-15.9-2.9-24.1c0-0.4,0.1-0.8,0.4-1.1c0.3-0.1,0.6-0.3,1-0.3c1.7,0,3.2,0.1,4.9,0.4c6.8,1.1,13.6,3.2,19.9,6.3
	c3.8,1.8,7.2,3.9,10.8,6c1.3,0.8,3.2,1.5,4.3,2.5C224.6,464,223.5,464.7,222.5,466.3z"/>
<path class="st49" d="M180.8,451.1c0.7,5.3,1.8,11.3,6,14.5c3.5,2.6,8.3,2.8,12.8,2.9c4.7,0,9.5,0.1,14-0.7
	c4.4-0.7,8.8-2.1,12.9-3.8c13.2-5.3,25.3-12.8,38.2-18.6c8.3-3.8,17.2-7,24.9-12c1-0.7,0.6-2.2-0.6-2.4l-8.3-0.8
	c-1.4-0.1-2.9-0.3-4.3-0.1c-2.2,0.1-4.4,1-6.5,1.8c-2.9,1.1-5.8,2.2-8.6,3.6c-2.5,1.3-4.9,2.9-7.6,3.8c-2.1,0.7-4.2,0.8-6.3,1
	c-10.3,1-20.6,1.5-30.9,1.7c-1.5,0-3.2,0-4.6-0.6c-3.5-1.4-4.7-5.7-4.9-9.5c-0.3-4.5,0.1-8.9-0.3-13.2c-0.4-4.4-1.9-8.9-5.4-11.7
	c-2.9-2.4-6.8-3.2-10.6-2.8c-4.3,0.4-9.2,1.4-12.1,5c-2.8,3.3-1.1,4.6-1.3,9.3c0,5,1,11,1.4,16C179.4,440,180.1,445.6,180.8,451.1z"
	/>
<path class="st48" d="M240.8,369.6c2.1,1,4.2,2.1,5.8,3.8c2.2,2.2,3.2,5.3,4,8.2c1.8,6.4,2.8,12.9,2.9,19.6
	c-2.1,0.4-4.2,0.7-6.3,1.1c-0.4,0.1-0.8,0.1-1.1,0.6c-0.3,0.3-0.3,0.7-0.3,1.1c-0.6,8.3,0.1,16.7,2.2,24.8c0.8,3.1,1.7,6.1,1.8,9.2
	c0,0.6,0,1-0.3,1.4c-0.6,1.1-2.1,1.1-3.3,1.1c-6.1,0-12,2.5-18.1,3.9c-6.4,1.4-12.9,1.5-19.3,0.3c-1.1-0.3-2.2-0.4-3.1-1.3
	c-1.1-1-1.4-2.6-1.7-4.2c-1.3-9-2.1-18.1-2.6-27.3c0-0.6-0.1-1.1-0.4-1.5c-0.4-0.4-1-0.6-1.7-0.6c-4-0.4-8.1-0.7-12,0.1
	c-3.9,0.8-7.8,3.1-9.5,6.7c-0.3,0.7-1,1.7-1.7,1.3c-0.4-0.3-0.6-0.8-0.6-1.3c-0.1-3.6-0.1-7.4-0.3-11c-0.1-3.2-0.1-6.4,0.1-9.6
	c0.8-8.8,4.9-17.1,11.1-23.1c2.6-2.5,5.6-4.6,8.1-7.2c2.1-2.1,4-4.7,6.8-5.6c1.9-0.6,4.2-0.3,6.3,0.1c6.1,1.1,12.4,2.8,18.5,3.8
	C231.9,364.8,236.1,367.3,240.8,369.6z"/>
<path class="st49" d="M232.2,312.3c0.4,0.7,0.6,1.4,1,2.1c0.7,1.5,1.9,2.6,3.5,3.5c1,0.6,2.1,0.8,2.9,1.5c0.8,0.7,1.5,1.9,1.1,2.9
	c-0.4,1.3-2.2,2.1-1.7,3.3c0.1,0.4,0.4,0.7,0.8,1c1.4,1.3,2.2,3.1,2.2,5c0,0.8-0.1,1.7,0.3,2.2c0.3,0.3,0.6,0.6,0.8,0.8
	c1.7,1.5,1.7,4.6-0.1,6.1c-1.1,1-2.5,1.3-3.9,1.4c-5.6,0.8-11.3,1.1-16.5,3.2c-1.4,0.6-2.9,1.3-4.3,1c-3.1-0.7-4.3-5.1-7.5-5
	c-1.1,0-1.9,0.7-3.1,0.8c-1.7,0.3-3.3-0.4-4.6-1.5c-1.3-1.1-2.1-2.6-2.6-4.2c-1-2.1-1.7-4.3-1.4-6.7c0.3-2.2,1.5-4.6,3.6-5.4
	c1-0.4,1.9-0.4,2.9-0.7c4-1,6.7-4.7,9-8.1c2.1-3.1,4.9-7.2,8.8-7.9C226.4,307.1,230.8,309.7,232.2,312.3z"/>
<path class="st47" d="M233.9,346.7c-1.5,2.5-2.4,5.3-3.1,8.1c-1.1,4.2-2.2,8.3-2.6,12.5c-0.1,1.1-0.1,2.4-0.8,3.3
	c-1,1.1-2.6,1.3-4,0.8c-1.4-0.6-2.5-1.5-3.6-2.4c-5.4-4-12.2-5.8-18.6-8.2c-0.6-0.1-1.1-0.6-1.1-1.1c3.1-0.8,6.4-1.9,7.5-4.9
	c0.4-1.3,0.3-2.6,0.3-3.9c-0.3-3.2-0.6-6.5-0.7-9.7c0-0.4,0-1,0.1-1.4c0.3-0.8,1.3-1.1,2.1-1.3c4.4-0.7,8.9,0.6,13.3,0.8
	c5.1,0.3,10.4-0.7,15.4,0.4c0.6,0.1,2.5,0.6,2.6,1.3c0,0.8-1.7,1.1-2.2,1.4C236.2,343.5,234.8,345,233.9,346.7z"/>
<path class="st35" d="M223,296.5c3.1-0.7,6.5,1.3,7.6,4.3c0.3,1,0.4,1.8,0.6,2.8c0.1,1.5,0.3,3.1-0.1,4.6c-0.4,1.5-1.4,2.9-2.8,3.5
	c-1,0.3-2.1,0.3-2.8,1c-0.8,0.7-1,1.8-1.3,2.8c-0.7,2.2-2.8,3.9-5.1,4.2c-0.7,0.1-1.5,0.1-1.9,0.7c-0.3,0.4-0.3,0.8-0.4,1.4
	c-0.3,1.7-1.5,3.1-3.1,3.6c-0.8,0.3-1.7,0.3-2.5,0.7c-0.8,0.3-1.5,1-1.7,1.8c-0.1,1.1,1,1.9,1.8,2.6c0.8,0.8,1.4,2.2,0.6,2.9
	c-0.7,0.6-1.7,0.3-2.4-0.3c-0.7-0.4-1.4-1.1-2.2-1.1c-1,0-1.7,0.8-2.1,1.7c-0.8,1.8-0.6,4,0.6,5.6c0.4,0.6,0.8,1,1.1,1.5
	c0.6,1.4-0.1,3.2,0.8,4.4c0.4,0.4,1.1,0.7,1.4,1.3c0.3,0.7-0.1,1.5,0.1,2.2c0.1,0.6,0.7,1,1.1,1.4c1.5,1.8,1.1,5-1,6.3
	c-0.4,0.3-0.8,0.4-1.1,0.7c-0.3,0.3-0.6,0.7-0.8,1.1c-1.3,1.5-3.6,2.6-5.6,2.2c-2.4,2.8-7.2,1.4-9.6-1.5c-0.4-0.4-0.7-1-1.1-1.3
	c-0.3-0.1-0.7-0.3-1.1-0.4c-3.5-1-5.6-5.1-4.4-8.5c-3.5-1.3-5.8-4.6-6.7-8.1c-0.3-1.4-0.4-2.9,0-4.2c0.1-0.3,0.3-0.7,0.3-1
	c0-0.4-0.3-0.8-0.6-1.3c-1.8-2.5-2.9-5.7-2.9-8.8c0-1.4,0.1-2.8,0.8-3.9c0.7-1.1,1.9-2.1,3.3-1.9c0.1-2.4-0.8-4.9-0.3-7.2
	c0.7-3.3,4.6-5.4,7.8-4.2c-0.7-2.1,0-4.6,1.5-6.3c1.5-1.7,4-2.2,6.1-1.7c-0.1-1.4,1.1-2.6,2.4-3.1c1.3-0.4,2.8-0.4,4-0.3
	c0.1-1.9,1.4-3.9,3.2-4.7c1.8-0.8,4-0.7,5.7,0.6c-0.1-0.1,3.1-1.3,3.5-1.3c1.1,0,2.5,0.1,3.6,0.4C220.2,292.2,221.8,294,223,296.5z"
	/>
<path class="st50" d="M358.9,363.5l-29.3,4.4l-27.8,58l31.4-8.8L358.9,363.5z"/>
<path class="st30" d="M333.2,417.2l0.3,4.7l-76.1,33.9l-3.3-5.1l47.6-22.9l0.1-1.8L333.2,417.2z"/>
</svg>
