<?xml version="1.0" encoding="utf-8"?>
<!-- Generator: Adobe Illustrator 24.0.0, SVG Export Plug-In . SVG Version: 6.00 Build 0)  -->
<svg version="1.1" id="Layer_1" xmlns="http://www.w3.org/2000/svg" xmlns:xlink="http://www.w3.org/1999/xlink" x="0px" y="0px"
	 viewBox="0 0 727 570" style="enable-background:new 0 0 727 570;" xml:space="preserve">
<style type="text/css">
	.st0{fill:#CCCCCC;}
	.st1{fill:#646464;}
	.st2{fill:#797979;}
	.st3{fill:#666666;}
	.st4{fill:#D5D5D5;}
	.st5{fill:#828282;}
	.st6{fill:#676767;}
	.st7{fill:#A0A0A0;}
	.st8{fill:#373737;}
</style>
<g>
	<path class="st0" d="M636.6,324.9c8.2-1.4,16.5-1.1,24.8-1.4c14.9-0.6,29.8-3.3,43.9-8.1c-3.1,10.8-6.1,21.6-9,32.4
		c-2.4,8.3-4.7,16.8-8.6,24.5c-3.8,7.4-8.8,14.2-14.7,19.7c-12.7,11.7-30.3,18.5-47.3,15.4c-14.7-2.6-28.6-13.1-33-27.8
		C584.3,351.7,611.4,329.3,636.6,324.9z"/>
	<path class="st1" d="M695.7,324.5c-11.4,5.1-22.9,10.3-33.9,16c1.8-3.9,4-7.5,6.7-10.8c1-1.3-0.8-3.1-1.9-1.7
		c-3.3,4.4-6.1,9-8.3,14.2c0,0.1,0,0.1,0,0.3c-5,2.6-9.9,5.4-14.6,8.5c-6.8,4.3-13.9,9-20,14.6c2.5-9.6,5.6-19.2,9.2-28.5
		c0.6-1.5-1.7-2.8-2.2-1.3c-4,10.8-7.5,21.8-10.4,33c-5.8,5.8-10.7,12.5-13.8,20.3c-0.6,1.5,1.7,2.8,2.2,1.3c1.4-3.5,3.1-6.7,5-9.6
		c0,0,0,0,0.1,0c14.2,0.1,29.1-0.8,43.1,1.5c1.7,0.3,2.2-2.2,0.6-2.5c-13.8-2.2-28.1-1.4-42-1.5c7.9-10.7,19.5-18.8,30.7-25.7
		c13.2,0.7,26.8,0.4,39.8,3.2c1.7,0.4,2.1-2.1,0.6-2.5c-11.8-2.6-24.3-2.6-36.4-3.2c14.9-8.9,30.9-16,46.7-23.1
		C697.9,326.3,697.2,323.9,695.7,324.5z"/>
	<path class="st2" d="M574.4,281.9c8.2-12.2,21.1-21.3,35.5-24.9c9.6-2.4,19.9-2.6,28.6-7.4c8.9-5,14.6-14,22-21.1
		c6.8-6.5,15.7-11.4,25-11.7c9.5-0.3,19.3,4.7,23.1,13.3c4.9,11.3-2.1,24.8-12.5,31.1c-5.3,3.2-11.8,5.6-14.6,11
		c-1.5,2.9-1.7,6.3-1.9,9.5c-0.7,10.1-1.3,20.4-3.9,30.3c-3.5,13.2-10.7,25.6-21.3,34.3c-10.6,8.8-24.3,13.8-38,12.7
		c-7.1-0.6-13.9-2.6-20.6-5.1C563.6,342.1,555.2,310.4,574.4,281.9z"/>
	<path class="st3" d="M700.5,236.9c-5.8,1.3-11.8,2.2-17.8,2.8c3.9-3.2,7.6-6.4,11.7-9.5c1.3-1-0.4-2.6-1.7-1.8
		c-4.4,3.3-8.6,6.8-12.9,10.4c0.1-3.5,0.6-6.8,1.3-10.3c0.3-1.5-1.9-2.2-2.2-0.7c-1,4.3-1.4,8.6-1.5,13.1
		c-8.3,7.2-16.4,14.7-24.2,22.7c0.4-4.7,0.7-9.3,0.7-14c0-1.5-2.4-1.7-2.4-0.1c0,5.7-0.4,11.3-1,16.8
		c-13.2,13.5-25.6,27.7-37.7,42.1c1.4-14.7,3.1-29.3,5-43.9c0.1-1.5-2.2-1.7-2.4-0.1c-2.1,15.7-3.9,31.4-5.4,47.3
		c-5.6,6.7-11.1,13.5-16.5,20.2c-0.6-0.7-1-1.7-1.3-3.1c-0.8-3.8-1.5-7.5-2.1-11.3c-1.4-8.6-2.2-17.2-2.6-25.9
		c-0.1-1.5-2.5-1.7-2.4-0.1c0.7,14.6,2.6,29.1,6,43.2c-1.3,1.7-2.6,3.2-3.9,4.9c-1,1.3,1.1,2.5,1.9,1.3c1.4-1.7,2.8-3.5,4.2-5.1
		c16.7-1.3,32.7-7.8,49.5-7.6c1.5,0,1.7-2.4,0.1-2.4c-14.2-0.1-27.5,4.6-41.4,6.8c-2.5,0.4-4.6,1-6.1,0.7
		c5.6-6.8,11.1-13.6,16.8-20.4l50.3-11c1.5-0.3,1-2.6-0.6-2.4c-15.7,3.5-31.6,7-47.3,10.3c12-14.2,24.2-28.2,37.3-41.4
		c7.4-0.1,14.6-0.7,21.8-1.9c1.5-0.3,1-2.6-0.6-2.4c-6.3,1.1-12.5,1.7-18.9,1.8c8.1-8.1,16.4-16,25-23.4c7.2-0.7,14.5-1.7,21.6-3.2
		C702.6,238.8,702,236.4,700.5,236.9z"/>
	<path class="st4" d="M695.9,196.8c-19,0.8-38.8,5-52.4,17.9c5.8-11.5,11.5-23.2,17.1-34.9c1.9,0.8,4,1.1,6.1,0.8
		c9.6-1.3,12.8-9.7,13.3-18.2c0.4-4.6,0.1-9,0-13.6c-0.1-3.2,2.1-18.9-5.4-13.9c-3.6,2.4-6.5,5.7-9.6,8.6
		c-4.7,4.4-8.6,9.9-10.2,15.9c-1.3,4.4-1.1,9.2,0.7,14.2c0.7,1.8,1.5,3.8,3.1,5l0.1,0.1c-6.4,13.6-13.2,27.1-20,40.6
		c0-0.1,0-0.1,0-0.3c1-5.7,1.4-11.4,0.4-17.1c-1.7-9.7-7.2-18.1-15.3-23.6c-0.6-0.4-1.5-0.3-1.7,0.6c0,0.3-6,24.1-1.9,34.8
		c1.5,4,3.9,7.9,7.1,11c1.5,1.5,4.2,3.9,6.5,3.8c-7.2,14-14.3,28.1-21.4,42.1c0.3-2.6,0-5.6-0.1-7.5c-0.8-8.2-4.6-16.1-10.8-21.6
		c-2.5-2.2-5.4-4-8.6-4.9c-3.5,6-4,13.2-3.5,20c0.3,3.8,1,7.6,2.8,10.8c1.8,3.1,4.4,5.4,7.6,7c2.4,1.1,6.8,3.1,9.6,2.1
		c-8.5,17.2-16.5,34.6-23.9,52.3c-1-4.4-3.9-8.3-7.5-11.3c-3.5-2.9-7.8-5-12-6.7c-2.8-1.1-5.8-2.4-7.6-4.9c1.3,3.3,1.3,7,1.7,10.4
		c0.7,4.7,2.4,9.3,5.1,13.2c1.8,2.6,4,4.9,7,6.3c3.3,1.5,7.2,2.1,10,1c-2.6,6.5-5.1,13.1-7.4,19.7c-6.5,18.5-11.8,37.4-15.7,56.7
		c-0.3,1.3,1.8,1.8,2.1,0.4c5.6-28.5,14.6-55.9,25.6-82.5c0.1,3.5,1.9,6.8,6.1,8.9c1.8,1,3.9,1.4,6,1.7c6.4,0.6,12.9-1.3,17.9-5.1
		c5-3.9,8.5-9.7,9.5-16c0.1-0.7,0.1-1.5-0.6-1.9c-0.4-0.3-1-0.1-1.4,0c-4.6,1.1-9.3,0.6-13.9,0.1c-4.6-0.4-9.5-0.8-13.9,0.4
		c-2.5,0.7-4.6,1.9-6.3,3.6c6.5-15.3,13.6-30.5,21-45.5c1,2.1,3.9,3.5,5.7,4.3c9,4.2,19.7,4.3,28.9,0.4s16.7-11.5,20-20.9
		c-9.5-3.8-20.2-4.6-29.9-2.1c-6.5,1.7-12.7,4.7-18.1,8.9c-0.8,0.7-2.2,1.7-3.5,2.6c7.4-14.7,14.9-29.2,22.2-43.8
		c6.4,13.1,26.6,11.1,38.2,6.3c14.2-6,24.6-19.9,21.6-35.9C696.9,197.1,696.4,196.8,695.9,196.8z"/>
	<path class="st5" d="M71.2,291.9c-8.2-1.3-16.5-0.7-24.8-0.7c-15-0.1-29.9-2.6-44.2-7.1c3.3,10.7,6.5,21.4,9.9,32.1
		c2.5,8.3,5.1,16.7,9.2,24.3c3.9,7.4,9,13.9,15.3,19.5c12.9,11.4,30.7,17.8,47.7,14.3c14.7-3.1,28.4-13.8,32.3-28.5
		C124,317.5,96.5,295.7,71.2,291.9z"/>
	<path class="st6" d="M12.1,292.9c11.5,4.9,23.1,9.7,34.3,15.2c-1.9-3.8-4.2-7.4-7-10.7c-1-1.3,0.8-3.1,1.8-1.8
		c3.5,4.3,6.4,8.9,8.6,14c0,0.1,0,0.1,0,0.3c5,2.5,10,5.1,14.7,8.1c7,4.2,14,8.8,20.4,14.2c-2.8-9.6-6-19-9.9-28.2
		c-0.6-1.5,1.7-2.8,2.2-1.3c4.3,10.7,8.1,21.6,11.1,32.8c6,5.7,11.1,12.2,14.3,19.9c0.7,1.5-1.7,2.8-2.2,1.3
		c-1.4-3.3-3.2-6.5-5.3-9.5c0,0,0,0-0.1,0c-14.2,0.6-29.1-0.1-43.1,2.5c-1.7,0.3-2.2-2.2-0.6-2.5c13.6-2.5,28.1-2.1,42-2.5
		c-8.2-10.4-19.9-18.4-31.3-25c-13.2,1-26.8,1-39.8,4.2c-1.5,0.4-2.2-2.1-0.6-2.5c11.8-2.9,24.2-3.2,36.3-4
		c-15.2-8.5-31.1-15.3-47.1-22C9.9,294.7,10.6,292.2,12.1,292.9z"/>
	<path class="st0" d="M189.3,272.2c-10-14.9-25.6-26-43-30.5c-11.7-2.9-24.2-3.2-34.6-9c-10.8-6-17.7-17.1-26.7-25.7
		c-8.2-7.9-18.9-13.9-30.5-14.2c-11.4-0.4-23.4,5.7-27.9,16.1c-5.8,13.6,2.4,30,15,37.8c6.4,3.9,14.3,6.7,17.7,13.5
		c1.8,3.5,2.1,7.5,2.2,11.4c0.7,12.4,1.4,24.8,4.6,36.7c4.2,16.1,12.9,31.1,25.7,41.9c12.8,10.7,29.5,16.8,46.2,15.6
		c8.6-0.7,17-3.2,25-6.1C202,345.3,212.3,306.8,189.3,272.2z"/>
	<path class="st5" d="M36.2,217c7.1,1.5,14.3,2.6,21.6,3.5c-4.6-3.9-9.3-7.8-14.2-11.4c-1.5-1.1,0.6-3.2,1.9-2.1
		c5.3,4,10.6,8.3,15.6,12.7c-0.1-4.2-0.7-8.3-1.5-12.5c-0.4-1.8,2.4-2.6,2.8-0.8c1.1,5.3,1.7,10.4,1.8,15.9
		c10.2,8.8,19.9,17.9,29.3,27.5c-0.6-5.7-0.8-11.4-0.8-17.1c0-1.8,2.9-1.9,2.9-0.1c0,6.8,0.4,13.6,1.3,20.4
		c16,16.4,31,33.7,45.6,51.2c-1.7-17.8-3.6-35.6-6-53.4c-0.3-1.8,2.6-1.9,2.9-0.1c2.5,19.1,4.7,38.2,6.4,57.3
		c6.8,8.2,13.3,16.4,20,24.6c0.7-0.8,1.1-2.1,1.5-3.8c1-4.6,1.8-9,2.5-13.6c1.7-10.4,2.8-20.9,3.3-31.4c0.1-1.8,2.9-1.9,2.9-0.1
		c-1,17.7-3.3,35.2-7.4,52.4c1.5,1.9,3.2,4,4.7,6c1.1,1.4-1.3,3.1-2.5,1.5c-1.7-2.1-3.3-4.2-5.1-6.3c-20.3-1.5-39.6-9.5-60.1-9.5
		c-1.8,0-1.9-2.9-0.1-2.9c17.2,0,33.4,5.6,50.2,8.3c3.1,0.6,5.6,1.1,7.4,0.8c-6.7-8.3-13.5-16.7-20.3-24.9l-61-13.5
		c-1.8-0.4-1.1-3.2,0.7-2.8c19,4.2,38.2,8.5,57.3,12.7c-14.5-17.4-29.3-34.3-45.1-50.5c-8.9-0.1-17.7-1-26.4-2.4
		c-1.8-0.3-1.1-3.1,0.7-2.8c7.6,1.3,15.2,2.1,22.9,2.2c-9.7-9.9-19.9-19.3-30.3-28.5c-8.8-0.8-17.5-2.1-26.1-3.9
		C33.7,219.5,34.4,216.6,36.2,217z"/>
	<path class="st7" d="M72.6,206.5c16.5,2.2,33.5,7.4,44.4,19.7c-4.2-10.6-8.3-21.1-12.2-31.8c-1.7,0.6-3.6,0.7-5.4,0.3
		c-8.2-1.8-10.3-9.5-10.3-17c0-4,0.6-7.9,1.1-11.8c0.3-2.8-0.4-16.7,5.8-11.8c2.9,2.4,5.3,5.6,7.8,8.3c3.9,4.3,6.7,9.3,7.6,14.6
		c0.7,4,0.3,8.2-1.7,12.4c-0.7,1.5-1.7,3.1-3.1,4.2l-0.1,0.1c4.6,12.4,9.5,24.8,14.3,37v-0.1c-0.4-5-0.3-10.1,1-15
		c2.2-8.3,7.6-15.2,15.2-19.5c0.6-0.3,1.4-0.1,1.4,0.6c0,0.3,3.3,21.4-1.1,30.6c-1.7,3.5-4,6.7-7.1,9c-1.5,1.1-3.9,3.1-6,2.8
		c5.1,12.8,10.4,25.6,15.4,38.4c0-2.4,0.4-4.9,0.8-6.5c1.4-7.1,5.3-13.6,11.1-17.9c2.4-1.7,5-3.1,7.9-3.6c2.5,5.4,2.5,11.8,1.4,17.8
		c-0.6,3.3-1.4,6.5-3.3,9.3c-1.8,2.5-4.3,4.3-7.2,5.4c-2.1,0.8-6.3,2.1-8.6,1.1c6.1,15.7,11.8,31.4,16.8,47.4c1.3-3.8,4-7,7.4-9.2
		c3.3-2.2,7.1-3.8,11-4.9c2.5-0.8,5.3-1.7,7-3.6c-1.4,2.8-1.5,6-2.2,9c-1,4-2.8,7.9-5.6,11.1c-1.8,2.1-3.9,4-6.5,5
		c-2.9,1.1-6.4,1.3-8.8,0.1c1.8,5.8,3.5,11.8,5,17.8c4.3,16.7,7.5,33.6,9.3,50.8c0.1,1.1-1.7,1.4-1.8,0.3c-2.6-25.3-8.5-49.9-16-74
		c-0.3,2.9-2.2,5.7-6,7.4c-1.7,0.7-3.5,1-5.4,1c-5.6,0-11.1-2.1-15.2-5.8c-4-3.8-6.7-9.2-7.1-14.7c0-0.6,0-1.4,0.6-1.7
		c0.4-0.1,0.8,0,1.3,0.1c3.9,1.3,8.1,1.3,12.1,1.3s8.2,0,12.1,1.4c2.1,0.8,3.9,2.1,5.1,3.6c-4.5-13.9-9.6-27.7-14.9-41.3
		c-1,1.7-3.6,2.6-5.3,3.3c-8.2,2.9-17.7,2.2-25.3-1.8c-7.6-4-13.6-11.4-15.9-19.7c8.5-2.6,17.9-2.4,26.3,0.6
		c5.6,1.9,10.7,5.1,15,9.2c0.7,0.7,1.8,1.5,2.8,2.6c-5.3-13.3-10.7-26.7-16-39.9c-6.7,11-24.1,7.6-33.9,2.5c-12-6.4-19.9-19.3-16-33
		C71.8,206.7,72.2,206.5,72.6,206.5z"/>
	<path class="st5" d="M405.9,78.9c8.2-1,16.5-0.1,24.8,0c15,0.3,29.9-1.7,44.4-5.7c-3.6,10.6-7.2,21.3-10.8,31.8
		c-2.8,8.2-5.6,16.5-9.9,24.1c-4,7.2-9.5,13.6-15.9,19c-13.2,11-31.3,16.8-48,12.9c-14.6-3.5-27.9-14.5-31.4-29.5
		C352.3,102.9,380.6,81.8,405.9,78.9z"/>
	<path class="st6" d="M465,81.5c-11.7,4.4-23.4,9-34.8,14.2c2.1-3.8,4.4-7.2,7.2-10.4c1.1-1.3-0.7-3.1-1.8-1.8
		c-3.6,4.2-6.7,8.8-9,13.8c0,0.1,0,0.1-0.1,0.3c-5.1,2.4-10.2,4.9-15,7.6c-7.1,3.9-14.3,8.3-20.7,13.5c3.1-9.5,6.5-18.9,10.6-27.9
		c0.7-1.5-1.5-2.8-2.2-1.3c-4.7,10.6-8.8,21.4-12.1,32.4c-6.1,5.6-11.4,11.8-14.9,19.5c-0.7,1.5,1.5,2.8,2.2,1.3
		c1.5-3.3,3.3-6.4,5.6-9.3c0,0,0,0,0.1,0c14.2,1,29.1,0.7,43,3.8c1.7,0.3,2.2-2.1,0.7-2.5c-13.6-2.9-27.9-2.9-41.9-3.8
		c8.5-10.3,20.4-17.7,32-24.1c13.1,1.4,26.8,1.8,39.6,5.3c1.5,0.4,2.2-2.1,0.7-2.5c-11.7-3.2-24.1-3.9-36.2-5
		c15.4-8.1,31.6-14.3,47.8-20.6C467.1,83.5,466.5,81,465,81.5z"/>
	<path class="st8" d="M440.8,38.4c0-0.3-0.3-0.6-0.6-0.6c-12.8-1.8-26.6-1.5-37.3,5.4c6.7-8.6,13.2-17.2,19.5-26.1
		c0.6-0.7-0.6-1.7-1.1-0.8c-7.1,10-14.6,19.7-22.1,29.5v-0.1c1.4-3.6,2.4-7.5,2.5-11.4c0.1-6.7-2.5-12.9-7.2-17.7
		c-0.3-0.4-1-0.4-1.3,0.1c0,0.1-7.1,15.3-5.7,23.1c0.6,2.9,1.7,5.8,3.3,8.2c0.8,1.3,2.2,3.2,3.9,3.3c-6.5,8.5-13.1,17-19.6,25.4
		c0.6-1.7,0.7-3.6,0.8-5c0.4-5.6-1.1-11.3-4.4-15.7c-1.4-1.8-3.1-3.3-5.1-4.3c-3.1,3.5-4.3,8.3-4.9,12.9c-0.3,2.5-0.4,5.1,0.6,7.6
		c0.8,2.2,2.4,4.2,4.2,5.6c1.4,1.1,4.2,2.9,6.1,2.6c-7.8,10.4-15.4,21-22.5,31.8c-0.1-3.1-1.5-6-3.6-8.5c-1.9-2.4-4.6-4.3-7.1-6
		c-1.7-1.1-3.6-2.4-4.4-4.2c0.4,2.4-0.1,4.7-0.1,7.2c-0.1,3.2,0.4,6.5,1.8,9.5c0.8,1.9,2.1,3.8,3.9,5c1.9,1.4,4.6,2.2,6.5,1.9
		c-2.5,4-5,8.1-7.5,12.2c-6.7,11.5-12.7,23.5-17.7,35.9c-0.3,0.8,1,1.4,1.3,0.6c7.4-18.4,16.8-35.5,27.5-51.9
		c-0.4,2.2,0.4,4.7,2.9,6.8c1.1,0.8,2.5,1.4,3.8,1.8c4.2,1.3,8.8,0.7,12.7-1.3c3.9-1.9,7-5.4,8.3-9.5c0.1-0.4,0.3-1.1-0.1-1.4
		c-0.3-0.3-0.6-0.1-1-0.1c-3.2,0.1-6.3-0.7-9.3-1.7c-3.1-0.8-6.1-1.8-9.3-1.5c-1.7,0.1-3.3,0.7-4.6,1.7c6.3-9.5,12.9-18.6,19.7-27.7
		c0.4,1.5,2.1,2.8,3.2,3.6c5.6,3.9,12.7,5.3,19.3,3.9c6.7-1.4,12.5-5.7,16-11.4c-5.8-3.8-12.8-5.6-19.7-5.1c-4.6,0.3-9,1.5-13.2,3.6
		c-0.7,0.3-1.7,0.8-2.6,1.4c6.7-8.9,13.6-17.7,20.3-26.4c2.6,9.6,16.3,10.8,24.8,9C432.2,57.3,440.8,49.4,440.8,38.4z"/>
</g>
</svg>
