<?xml version="1.0" encoding="utf-8"?>
<!-- Generator: Adobe Illustrator 24.0.0, SVG Export Plug-In . SVG Version: 6.00 Build 0)  -->
<svg version="1.1" id="Layer_1" xmlns="http://www.w3.org/2000/svg" xmlns:xlink="http://www.w3.org/1999/xlink" x="0px" y="0px"
	 viewBox="0 0 715 500" style="enable-background:new 0 0 715 500;" xml:space="preserve">
<style type="text/css">
	.st0{fill:#F9F9F9;}
	.st1{fill:#959595;}
	.st2{fill:#E4E4E4;}
	.st3{fill:#898989;}
	.st4{opacity:0.5;}
	.st5{fill:#FFFFFF;}
	.st6{fill:url(#SVGID_1_);}
	.st7{fill:url(#SVGID_2_);}
	.st8{fill:url(#SVGID_3_);}
	.st9{fill:url(#SVGID_4_);}
	.st10{fill:url(#SVGID_5_);}
	.st11{fill:#878CF0;}
	.st12{display:none;}
	.st13{display:inline;fill:#E4E4E4;}
	.st14{display:inline;fill:#C2C2C2;}
	.st15{display:inline;fill:#898989;}
	.st16{fill:#B9B9B9;}
	.st17{opacity:0.5;fill:#FFFFFF;enable-background:new    ;}
	.st18{fill:#C4C4C4;}
	.st19{fill:#A1A1A1;}
	.st20{fill:#D6D6D6;}
	.st21{fill:#262626;}
	.st22{fill:#FFC8AF;}
	.st23{fill:#5B5B5B;}
	.st24{fill:#D02E1B;}
	.st25{fill:#E29B7F;}
	.st26{fill:#767676;}
	.st27{fill:#A8A8A8;}
	.st28{fill:#112B46;}
</style>
<path class="st0" d="M24.7,448.1c212.7,0,425.6,0,638.4,0C698,389.8,684,317.4,637,282c-36.5-27.5-89-29.8-132.9-5.9
	c2.2-16.5-5.9-32.5-20.2-40.4c-14.9-8.2-33.7-5.7-46.3,5.9c-2.6-6.1-19.6-42.9-60.6-55.7c-37.1-11.6-79,0.9-106.8,32
	c-20.5-14.6-47.4-16.8-70-5.9C177.6,222.8,162.6,245,161,270c-42.4-17.9-90.2-12.7-122.2,14.3C-4.3,320.8-13.7,392.5,24.7,448.1z"/>
<path class="st0" d="M602.3,343.1c39.1-39.1,39.1-102.5,0-141.6c-39.1-39.1-102.5-39.1-141.6,0c-39.1,39.1-39.1,102.5,0,141.6
	C499.8,382.3,563.2,382.3,602.3,343.1z"/>
<path class="st1" d="M90.6,222.4c2.1-12.7-6.6-24.7-19.3-26.7c-12.7-2.1-24.7,6.6-26.7,19.3c-2.1,12.7,6.6,24.7,19.3,26.7
	C76.6,243.8,88.5,235.1,90.6,222.4z"/>
<path class="st0" d="M338.8,303.7c14.4-63.1-25.1-126-88.2-140.4c-63.1-14.4-126,25.1-140.4,88.2c-14.4,63.1,25.1,126,88.2,140.4
	C261.6,406.3,324.4,366.8,338.8,303.7z"/>
<path class="st2" d="M225.2,478h483.4c3.6,0,6.4-3,6.4-6.4v-2.3c0-3.6-3-6.4-6.4-6.4H225.2c-3.6,0-6.4,2.9-6.4,6.4v2.3
	C218.8,475.2,221.6,478,225.2,478z"/>
<path class="st2" d="M472.8,491.9H68c-6.1,0-10.9-5-10.9-10.9c0-6.1,5-10.9,10.9-10.9h404.8c6.1,0,10.9,5,10.9,10.9
	C483.9,487,478.9,491.9,472.8,491.9z"/>
<path class="st2" d="M358.4,500H638c8.1,0,14.8-6.7,14.8-14.8c0-8.1-6.7-14.8-14.8-14.8H358.4c-8.1,0-14.8,6.7-14.8,14.8
	C343.6,493.3,350.3,500,358.4,500z"/>
<path class="st2" d="M6.4,478h483.4c3.6,0,6.4-3,6.4-6.4v-2.3c0-3.6-3-6.4-6.4-6.4H6.4c-3.6,0-6.4,3-6.4,6.4v2.3
	C0,475.2,3,478,6.4,478z"/>
<path class="st3" d="M217.5,461.8c-19.6-10.4-63.2-13.2-76.1-31.2c-2.8-4-5.4-8.5-5.7-13.5c-0.5-5,1.6-10.4,5.9-12.7
	c3.6-1.9,8.2-1.7,11-4.7c2.3-2.5,2.5-6.4,1.1-9.5c-1.4-3.1-3.9-5.6-6.4-7.8c-6.2-5.6-13-11.2-16.1-18.8c-3.3-7.8-1.1-18.5,6.7-21.4
	c4.5-1.7,10.4-0.6,13.8-4c3.3-3.3,2.5-8.9,0.2-12.7c-2.5-3.9-6.1-6.8-8.8-10.6c-4.3-5.9-5.6-13.8-3.6-20.8c2-7,7.5-13,14.1-15.7
	L217.5,461.8z"/>
<path class="st1" d="M217.5,461.8c8.9-20.2,41.5-49.5,40.2-71.6c-0.3-5-1.1-10.1-3.7-14.1c-2.6-4.2-7.6-7.1-12.6-6.2
	c-4,0.8-7.5,3.9-11.5,3.3c-3.4-0.5-5.9-3.4-6.8-6.7c-0.9-3.3-0.5-6.7,0.2-10.1c1.4-8.2,3.3-16.8,1.1-24.8
	c-2.3-8.1-10.6-15.1-18.6-12.6c-4.7,1.6-8.5,5.9-13.4,5.4c-4.5-0.5-7.5-5.4-7.9-9.9c-0.5-4.5,0.6-9.2,0.3-13.7
	c-0.3-7.3-4.2-14.3-10.1-18.6c-5.9-4.2-13.8-5.6-20.8-3.6L217.5,461.8z"/>
<g class="st4">
	<path class="st5" d="M161.8,311.3c-0.2,0-0.3,0-0.3-0.2l-18.8-9.9c-0.3-0.2-0.5-0.6-0.3-1.1c0.2-0.3,0.6-0.5,1.1-0.3l18.8,9.9
		c0.3,0.2,0.5,0.6,0.3,1.1C162.4,311.2,162.1,311.3,161.8,311.3z"/>
</g>
<g class="st4">
	<path class="st5" d="M168.5,310.1c-0.2,0-0.2,0-0.3,0c-0.5-0.2-0.6-0.6-0.5-0.9l7.6-20c0.2-0.5,0.6-0.6,0.9-0.5
		c0.5,0.2,0.6,0.6,0.5,0.9l-7.6,20C169.1,309.9,168.8,310.1,168.5,310.1z"/>
</g>
<g class="st4">
	<path class="st5" d="M192.5,371.3c-0.2,0-0.2,0-0.3,0c-0.3-0.2-0.6-0.6-0.3-1.1l18.9-39.3c0.2-0.3,0.6-0.6,1.1-0.3
		c0.3,0.2,0.6,0.6,0.3,1.1L193.3,371C193.2,371.1,192.9,371.3,192.5,371.3z"/>
</g>
<g class="st4">
	<path class="st5" d="M208.1,426.2c-0.2,0-0.3,0-0.5-0.2c-0.3-0.3-0.3-0.8,0-1.1l36.8-40.7c0.3-0.3,0.8-0.3,1.1,0
		c0.3,0.3,0.3,0.8,0,1.1l-36.8,40.7C208.5,426.1,208.4,426.2,208.1,426.2z"/>
</g>
<g class="st4">
	<path class="st5" d="M179.5,374.2c-0.2,0-0.2,0-0.3,0L137,354.8c-0.5-0.2-0.6-0.6-0.3-1.1c0.2-0.5,0.6-0.6,1.1-0.3l42.2,19.4
		c0.5,0.2,0.6,0.6,0.3,1.1C180.1,374.1,179.8,374.2,179.5,374.2z"/>
</g>
<g class="st4">
	<path class="st5" d="M199.8,429.8h-0.2l-58.1-16.3c-0.5-0.2-0.6-0.6-0.5-0.9c0.2-0.5,0.6-0.6,0.9-0.5l57.9,16.3
		c0.5,0.2,0.6,0.6,0.5,0.9C200.5,429.7,200.2,429.8,199.8,429.8z"/>
</g>
<path class="st3" d="M343.6,437c-14.6-9.3-48.3-14.3-57.1-29.2c-2-3.3-3.6-7-3.7-10.9c0-3.9,1.9-7.9,5.4-9.5c3-1.2,6.5-0.8,8.9-2.8
	c2-1.7,2.3-4.8,1.6-7.3c-0.8-2.5-2.6-4.5-4.3-6.5c-4.5-4.8-9.3-9.5-11.3-15.7c-2-6.2,0.3-14.4,6.7-16.1c3.7-1.1,8.1,0.2,11-2.3
	c2.8-2.3,2.5-6.7,0.9-9.9c-1.6-3.3-4.3-5.7-6.2-8.7c-2.9-4.8-3.6-11.2-1.6-16.5c2-5.3,6.5-9.6,12.1-11.3L343.6,437z"/>
<path class="st1" d="M343.6,437c8.2-15.2,35.4-35.9,36-53.1c0.2-3.9-0.2-7.9-2-11.3c-1.9-3.4-5.4-6.1-9.3-5.7
	c-3.1,0.3-6.1,2.5-9.2,1.9c-2.6-0.6-4.3-3.1-4.8-5.7c-0.5-2.6,0.2-5.3,0.8-7.8c1.6-6.4,3.6-12.9,2.3-19.3c-1.2-6.4-7.3-12.4-13.7-11
	c-3.7,0.8-7,4-10.7,3.3c-3.6-0.6-5.4-4.7-5.6-8.2c-0.2-3.6,1.1-7.1,1.2-10.7c0.2-5.7-2.3-11.5-6.7-15.2s-10.4-5.3-16-4.2L343.6,437z
	"/>
<g class="st4">
	<path class="st5" d="M308.9,314.1c-0.2,0-0.3,0-0.5-0.2l-13.8-9c-0.3-0.3-0.5-0.8-0.2-1.1c0.3-0.3,0.8-0.5,1.1-0.2l13.8,9
		c0.3,0.3,0.5,0.8,0.2,1.1C309.3,314,309.2,314.1,308.9,314.1z"/>
</g>
<g class="st4">
	<path class="st5" d="M315.5,313c-0.2,0-0.2,0-0.3,0c-0.5-0.2-0.6-0.6-0.5-1.1l5.6-13.2c0.2-0.5,0.6-0.6,1.1-0.5
		c0.5,0.2,0.6,0.6,0.5,1.1l-5.6,13.2C316.2,312.9,315.8,313,315.5,313z"/>
	
		<linearGradient id="SVGID_1_" gradientUnits="userSpaceOnUse" x1="318.325" y1="203.7666" x2="318.325" y2="188.957" gradientTransform="matrix(1 0 0 -1 0 502)">
		<stop  offset="0" style="stop-color:#FFFFFF"/>
		<stop  offset="1" style="stop-color:#FFFFFF;stop-opacity:0"/>
	</linearGradient>
	<path class="st6" d="M315.5,313c-0.2,0-0.2,0-0.3,0c-0.5-0.2-0.6-0.6-0.5-1.1l5.6-13.2c0.2-0.5,0.6-0.6,1.1-0.5
		c0.5,0.2,0.6,0.6,0.5,1.1l-5.6,13.2C316.2,312.9,315.8,313,315.5,313z"/>
</g>
<g class="st4">
	<path class="st5" d="M318.3,362.4c-0.2,0-0.2,0-0.3-0.2l-28.7-14.1c-0.3-0.2-0.5-0.6-0.3-1.1c0.2-0.3,0.6-0.5,1.1-0.3l28.7,14.1
		c0.3,0.2,0.5,0.6,0.3,1.1C318.9,362.3,318.6,362.4,318.3,362.4z"/>
	
		<linearGradient id="SVGID_2_" gradientUnits="userSpaceOnUse" x1="304.041" y1="155.3218" x2="304.041" y2="139.578" gradientTransform="matrix(1 0 0 -1 0 502)">
		<stop  offset="0" style="stop-color:#FFFFFF"/>
		<stop  offset="1" style="stop-color:#FFFFFF;stop-opacity:0"/>
	</linearGradient>
	<path class="st7" d="M318.3,362.4c-0.2,0-0.2,0-0.3-0.2l-28.7-14.1c-0.3-0.2-0.5-0.6-0.3-1.1c0.2-0.3,0.6-0.5,1.1-0.3l28.7,14.1
		c0.3,0.2,0.5,0.6,0.3,1.1C318.9,362.3,318.6,362.4,318.3,362.4z"/>
</g>
<g class="st4">
	<path class="st5" d="M330.4,358.9c-0.2,0-0.3,0-0.5-0.2c-0.3-0.3-0.5-0.8-0.2-1.1l19.1-24.7c0.3-0.3,0.8-0.5,1.1-0.2
		s0.5,0.8,0.2,1.1l-19.1,24.7C330.9,358.9,330.6,358.9,330.4,358.9z"/>
	
		<linearGradient id="SVGID_3_" gradientUnits="userSpaceOnUse" x1="339.9885" y1="169.4054" x2="339.9885" y2="143.149" gradientTransform="matrix(1 0 0 -1 0 502)">
		<stop  offset="0" style="stop-color:#FFFFFF"/>
		<stop  offset="1" style="stop-color:#FFFFFF;stop-opacity:0"/>
	</linearGradient>
	<path class="st8" d="M330.4,358.9c-0.2,0-0.3,0-0.5-0.2c-0.3-0.3-0.5-0.8-0.2-1.1l19.1-24.7c0.3-0.3,0.8-0.5,1.1-0.2
		s0.5,0.8,0.2,1.1l-19.1,24.7C330.9,358.9,330.6,358.9,330.4,358.9z"/>
</g>
<g class="st4">
	<path class="st5" d="M339.4,409.9c-0.2,0-0.5,0-0.5-0.2c-0.3-0.3-0.3-0.8,0-1.1l31.1-32c0.3-0.3,0.8-0.3,1.1,0
		c0.3,0.3,0.3,0.8,0,1.1l-31.1,32C339.8,409.9,339.6,409.9,339.4,409.9z"/>
	
		<linearGradient id="SVGID_4_" gradientUnits="userSpaceOnUse" x1="355.0541" y1="125.5252" x2="355.0541" y2="92.062" gradientTransform="matrix(1 0 0 -1 0 502)">
		<stop  offset="0" style="stop-color:#FFFFFF"/>
		<stop  offset="1" style="stop-color:#FFFFFF;stop-opacity:0"/>
	</linearGradient>
	<path class="st9" d="M339.4,409.9c-0.2,0-0.5,0-0.5-0.2c-0.3-0.3-0.3-0.8,0-1.1l31.1-32c0.3-0.3,0.8-0.3,1.1,0
		c0.3,0.3,0.3,0.8,0,1.1l-31.1,32C339.8,409.9,339.6,409.9,339.4,409.9z"/>
</g>
<g class="st4">
	<path class="st5" d="M332.1,411.5c-0.2,0-0.2,0-0.3,0l-44.6-15.8c-0.5-0.2-0.6-0.6-0.5-0.9c0.2-0.5,0.6-0.6,0.9-0.5l44.6,15.8
		c0.5,0.2,0.6,0.6,0.5,0.9C332.8,411.3,332.5,411.5,332.1,411.5z"/>
	
		<linearGradient id="SVGID_5_" gradientUnits="userSpaceOnUse" x1="309.7815" y1="107.8031" x2="309.7815" y2="90.509" gradientTransform="matrix(1 0 0 -1 0 502)">
		<stop  offset="0" style="stop-color:#FFFFFF"/>
		<stop  offset="1" style="stop-color:#FFFFFF;stop-opacity:0"/>
	</linearGradient>
	<path class="st10" d="M332.1,411.5c-0.2,0-0.2,0-0.3,0l-44.6-15.8c-0.5-0.2-0.6-0.6-0.5-0.9c0.2-0.5,0.6-0.6,0.9-0.5l44.6,15.8
		c0.5,0.2,0.6,0.6,0.5,0.9C332.8,411.3,332.5,411.5,332.1,411.5z"/>
</g>
<path class="st3" d="M591.2,459.2c-9.9-6.4-33.2-9.8-39.3-20c-1.4-2.3-2.5-4.8-2.5-7.5c0-2.6,1.2-5.4,3.7-6.5c2-0.9,4.5-0.5,6.1-2
	c1.4-1.2,1.6-3.3,1.1-5c-0.6-1.7-1.9-3.1-3-4.5c-3.1-3.3-6.4-6.5-7.8-10.7c-1.4-4.2,0.3-9.9,4.5-11.2c2.5-0.8,5.6,0.2,7.6-1.6
	c1.9-1.6,1.7-4.7,0.6-6.8c-1.1-2.2-3-3.9-4.2-6.1c-2-3.4-2.3-7.6-1.1-11.3c1.4-3.7,4.5-6.7,8.2-7.8L591.2,459.2z"/>
<path class="st1" d="M591.2,459.2c5.6-10.4,24.4-24.7,24.7-36.5c0.2-2.6-0.2-5.4-1.4-7.8c-1.2-2.3-3.7-4.2-6.4-3.9
	c-2.2,0.2-4.2,1.7-6.4,1.2c-1.7-0.5-2.9-2.2-3.3-3.9c-0.3-1.7,0-3.6,0.5-5.4c1.1-4.3,2.5-8.9,1.7-13.2c-0.9-4.3-5-8.5-9.3-7.6
	c-2.5,0.6-4.8,2.8-7.5,2.3c-2.3-0.5-3.7-3.3-3.9-5.6c0-2.5,0.8-4.8,0.8-7.3c0.2-3.9-1.6-7.9-4.5-10.4c-2.9-2.5-7.1-3.6-11-2.8
	L591.2,459.2z"/>
<g class="st4">
	<path class="st5" d="M567.4,375.2c-0.2,0-0.3,0-0.5-0.2l-9.5-6.2c-0.3-0.3-0.5-0.8-0.2-1.1c0.3-0.3,0.8-0.5,1.1-0.2l9.5,6.2
		c0.3,0.3,0.5,0.8,0.2,1.1C567.9,375,567.6,375.2,567.4,375.2z"/>
</g>
<g class="st4">
	<path class="st5" d="M571.9,374.4c-0.2,0-0.2,0-0.3,0c-0.5-0.2-0.6-0.6-0.5-1.1l3.9-9.2c0.2-0.5,0.6-0.6,1.1-0.5
		c0.5,0.2,0.6,0.6,0.5,1.1l-3.9,9.2C572.5,374.2,572.2,374.4,571.9,374.4z"/>
</g>
<g class="st4">
	<path class="st5" d="M573.9,408.2c-0.2,0-0.2,0-0.3-0.2l-19.7-9.6c-0.3-0.2-0.5-0.6-0.3-1.1c0.2-0.3,0.6-0.5,1.1-0.3l19.7,9.6
		c0.3,0.2,0.5,0.6,0.3,1.1C574.4,408.1,574.2,408.2,573.9,408.2z"/>
</g>
<g class="st4">
	<path class="st5" d="M582.2,405.9c-0.2,0-0.3,0-0.5-0.2c-0.3-0.3-0.5-0.8-0.2-1.1l13-16.9c0.3-0.3,0.8-0.5,1.1-0.2
		c0.3,0.3,0.5,0.8,0.2,1.1l-13,16.9C582.6,405.7,582.3,405.9,582.2,405.9z"/>
</g>
<g class="st4">
	<path class="st5" d="M588.4,441c-0.2,0-0.5,0-0.5-0.2c-0.3-0.3-0.3-0.8,0-1.1l21.3-21.9c0.3-0.3,0.8-0.3,1.1,0
		c0.3,0.3,0.3,0.8,0,1.1l-21.4,21.7C588.7,440.8,588.5,441,588.4,441z"/>
</g>
<g class="st4">
	<path class="st5" d="M583.4,441.9c-0.2,0-0.2,0-0.3,0l-30.6-10.9c-0.5-0.2-0.6-0.6-0.5-0.9c0.2-0.5,0.6-0.6,0.9-0.5l30.6,10.9
		c0.5,0.2,0.6,0.6,0.5,0.9C584,441.8,583.7,441.9,583.4,441.9z"/>
</g>
<path class="st3" d="M442.7,430.3c14.6-9.3,48.3-14.3,57.1-29.2c2-3.3,3.6-7,3.7-10.9c0-3.9-1.9-7.9-5.4-9.5c-3-1.2-6.5-0.8-8.9-2.8
	c-2-1.7-2.3-4.8-1.6-7.3c0.8-2.5,2.6-4.5,4.3-6.5c4.5-4.8,9.3-9.5,11.3-15.7c2-6.2-0.3-14.4-6.7-16.1c-3.7-1.1-8.1,0.2-11-2.3
	c-2.8-2.3-2.5-6.7-0.9-9.9c1.6-3.3,4.3-5.7,6.2-8.7c3-4.8,3.6-11.2,1.6-16.5c-2-5.3-6.5-9.6-12.1-11.3L442.7,430.3z"/>
<path class="st1" d="M442.7,430.3c-8.2-15.2-35.4-35.9-36-53.1c-0.2-3.9,0.2-7.9,2-11.3c1.9-3.4,5.4-6.1,9.3-5.7
	c3.1,0.3,6.1,2.5,9.2,1.9c2.6-0.6,4.3-3.1,4.8-5.7c0.5-2.6-0.2-5.3-0.8-7.8c-1.6-6.4-3.6-12.9-2.3-19.3c1.2-6.4,7.3-12.4,13.7-11
	c3.7,0.8,7,4,10.7,3.3c3.6-0.6,5.4-4.7,5.6-8.2c0.2-3.6-1.1-7.1-1.2-10.7c-0.2-5.7,2.3-11.5,6.7-15.2s10.4-5.3,16-4.2L442.7,430.3z"
	/>
<g class="st4">
	<path class="st5" d="M477.5,307.6c-0.3,0-0.5-0.2-0.6-0.3c-0.2-0.3-0.2-0.8,0.2-1.1l13.8-9c0.3-0.2,0.8-0.2,1.1,0.2
		c0.2,0.3,0.2,0.8-0.2,1.1l-13.8,9C477.8,307.6,477.6,307.6,477.5,307.6z"/>
</g>
<g class="st4">
	<path class="st5" d="M470.8,306.5c-0.3,0-0.6-0.2-0.8-0.5l-5.6-13.2c-0.2-0.5,0-0.8,0.5-1.1c0.5-0.2,0.8,0,1.1,0.5l5.6,13.2
		c0.2,0.5,0,0.8-0.5,1.1C471,306.5,471,306.5,470.8,306.5z"/>
</g>
<g class="st4">
	<path class="st5" d="M468,355.9c-0.3,0-0.6-0.2-0.6-0.5c-0.2-0.3,0-0.8,0.3-1.1l28.7-14.1c0.3-0.2,0.8,0,1.1,0.3
		c0.2,0.3,0,0.8-0.3,1.1l-28.7,14.1C468.3,355.9,468.2,355.9,468,355.9z"/>
</g>
<g class="st4">
	<path class="st5" d="M455.9,352.3c-0.2,0-0.5-0.2-0.6-0.3l-19.1-24.7c-0.3-0.3-0.2-0.8,0.2-1.1c0.3-0.3,0.8-0.2,1.1,0.2l19.1,24.7
		c0.3,0.3,0.2,0.8-0.2,1.1C456.4,352.3,456.2,352.3,455.9,352.3z"/>
</g>
<g class="st4">
	<path class="st5" d="M447.1,403.4c-0.2,0-0.5-0.2-0.6-0.3l-31.1-32c-0.3-0.3-0.3-0.8,0-1.1c0.3-0.3,0.8-0.3,1.1,0l31.1,32
		c0.3,0.3,0.3,0.8,0,1.1C447.4,403.4,447.2,403.4,447.1,403.4z"/>
</g>
<g class="st4">
	<path class="st5" d="M454.2,405c-0.3,0-0.6-0.2-0.8-0.5c-0.2-0.5,0-0.8,0.5-0.9l44.6-15.8c0.5-0.2,0.8,0,0.9,0.5
		c0.2,0.5,0,0.8-0.5,0.9L454.3,405C454.3,405,454.3,405,454.2,405z"/>
</g>
<path class="st11" d="M227.3,206.2c1.9-2,3.6-4.2,4.5-6.5c0.6-1.6,1.2-3.4,1.4-5c0.2-1.9-0.3-2.6-1.2-4c-1.6-2.5-5.1-3.7-7.5-2.2
	c-1.7,1.1-2.3,3.1-2.8,5.1c-0.5,2.2-3.9,18.2,1.6,16.1c0.6-0.2,1.1-0.8,1.7-1.2C225.6,207.8,226.6,207,227.3,206.2z"/>
<g class="st12">
	<path class="st13" d="M663.2,301.3c13.5-13.5,13.5-35.3,0-48.8c-13.5-13.5-35.3-13.5-48.8,0c-13.5,13.5-13.5,35.3,0,48.8
		C627.9,314.8,649.7,314.8,663.2,301.3z"/>
	<path class="st13" d="M368.6,171.6c12.9,0,23.3-10.4,23.3-23.3c0-12.9-10.4-23.3-23.3-23.3c-12.9,0-23.3,10.4-23.3,23.3
		C345.3,161.2,355.8,171.6,368.6,171.6z"/>
	<path class="st13" d="M183.9,159.2c6.4,0,11.6-5.2,11.6-11.6c0-6.4-5.2-11.6-11.6-11.6c-6.4,0-11.6,5.2-11.6,11.6
		C172.2,153.9,177.4,159.2,183.9,159.2z"/>
	<path class="st14" d="M477.9,227.4c3-18.8-9.8-36.5-28.5-39.5c-18.8-3-36.5,9.8-39.5,28.6c-3,18.8,9.8,36.5,28.5,39.5
		C457.2,258.9,474.9,246.2,477.9,227.4z"/>
	<path class="st15" d="M169.6,211.2c-1.1-1.7-2.3-3.4-3.3-4.5c-2.2-2.8-5.1-5.3-8.5-6.2c-5.1-1.4-12.9,1.2-10.7,7.9
		c0.8,2.5,3,4,5.3,5.3c2.5,1.4,20.7,11,20,3.7C172.1,215.7,170.8,213.4,169.6,211.2z"/>
</g>
<path class="st16" d="M331.7,447c-9.9-1.9-17.2,5.6-17.7,6.1c-0.5-1.6-4.8-15.7-18.9-20.7c-9-3.3-16.8-0.9-19.6,0
	c1.9-4.8,0.8-10.2-2.5-14.1c-3.6-4.2-9.3-5.7-14.6-4.2c-6.1-9.3-17.1-14.1-28.1-12.3c-10.7,2-19.4,10.1-22.1,20.8
	c-3.3-4.8-9.2-7.3-14.6-6.1c-5,1.1-8.9,4.8-10.4,9.8c-6.7-7-16.9-9.6-26.2-6.7c-8.2,2.6-14.6,9.3-16.9,17.5
	c-6.7-5.3-15.5-7.1-23.9-4.7c-12.4,3.9-20.2,17.1-17.5,30.4c13.7,0,27.2,0,40.8,0h16.9h190.4C345.5,454.8,339.3,448.4,331.7,447z"/>
<path class="st16" d="M618.3,440.1c-14.3-2.8-24.7,8.1-25.5,8.7c-0.6-2.2-6.8-22.5-27.2-29.8c-12.9-4.5-24.1-1.2-28.1,0
	c2.6-7,1.2-14.8-3.6-20.2c-5.1-5.9-13.4-8.4-21-6.1c-8.7-13.4-24.7-20.3-40.2-17.5c-15.5,2.8-28,14.4-31.5,29.8
	c-4.7-7-13-10.6-21-8.9c-7.1,1.6-12.7,7-14.9,14c-9.6-10.1-24.4-13.8-37.7-9.6c-11.8,3.7-21,13.4-24.2,25.2
	c-9.5-7.5-22.4-10.4-34.3-6.7c-17.9,5.6-29,24.5-25.2,43.6c19.6,0,39.1,0,58.5,0h24.4h273.3C638.2,451.2,629.3,442.2,618.3,440.1z"
	/>
<path class="st1" d="M242.5,437.1c5.4-2.2,11.3-2.5,16.9-0.9c0.8-12,6.2-23.1,15.5-30.1c12.4-9.3,30.4-10.1,45.3-2
	c-0.8-5.6,2-11,6.8-13.8c5.1-2.8,11.5-2,15.8,2c0.9-2,6.7-14.6,20.7-19.1c12.6-4,27,0.3,36.5,10.9c7-5,16.1-5.7,23.9-2
	c7.8,3.7,12.9,11.3,13.4,19.9c14.4-6.1,30.7-4.3,41.8,4.8c8.5,7.1,13.2,18.5,13,30.3c9.8,4.2,16,14.4,15.5,25.6
	c-7.9,0-15.8,0-23.8,0c-12.1,0-24.2,0-36.3,0c-53.6,0-107.3,0-160.9,0c-6.8,0-13.8,0-20.7,0c-13.2,0-26.2,0-39.4,0
	C226.1,451.6,232.6,441.3,242.5,437.1z"/>
<path class="st3" d="M246.6,462.9c48.8,0,97.5,0,146.3,0c1.9-7.8-1.1-15.7-7.3-19.6c-7-4.3-14.8-1.6-15.5-1.2
	c2.6-6.5,0.9-14.1-4.3-18.8c-5-4.3-12.3-5.4-18.3-2.3c-0.9-0.9-11.6-10.9-26.7-7.9c-15.2,3-21.4,16.5-21.9,17.5
	c-2.9-4.8-8.4-7.3-13.5-6.4c-6.2,1.1-10.9,6.8-10.7,13.5c-7-3.9-15.5-3.4-21.6,1.2C245.5,444.3,242.9,454.2,246.6,462.9z"/>
<path class="st17" d="M324.4,459.5v-27.9c0-0.8-0.6-1.4-1.4-1.4c-0.8,0-1.4,0.6-1.4,1.4v27.9c0,0.8,0.6,1.4,1.4,1.4
	C323.8,460.9,324.4,460.2,324.4,459.5z"/>
<path class="st17" d="M326.9,451.9l28.9-14.6c0.6-0.3,0.9-1.2,0.6-1.9c-0.3-0.6-1.2-0.9-1.9-0.6l-28.9,14.6
	c-0.6,0.3-0.9,1.2-0.6,1.9C325.5,452,326.2,452.2,326.9,451.9z"/>
<path class="st17" d="M313.8,450.5l-21.3-17.2c-0.6-0.5-1.4-0.5-2,0.2c-0.5,0.6-0.5,1.4,0.2,2l21.3,17.2c0.6,0.5,1.4,0.5,2-0.2
	C314.6,451.9,314.4,450.9,313.8,450.5z"/>
<path class="st17" d="M385.1,455.6v-55.9c0-0.8-0.6-1.4-1.4-1.4c-0.8,0-1.4,0.6-1.4,1.4v55.9c0,0.8,0.6,1.4,1.4,1.4
	C384.5,457,385.1,456.4,385.1,455.6z"/>
<path class="st17" d="M385.4,440.1l52.9-16.5c0.8-0.2,1.1-0.9,0.9-1.7c-0.2-0.8-0.9-1.1-1.7-0.9l-52.9,16.5
	c-0.8,0.2-1.1,0.9-0.9,1.7C383.9,439.8,384.6,440.2,385.4,440.1z"/>
<path class="st17" d="M414.6,429l4.7-16.3c0.2-0.8-0.2-1.6-0.9-1.7c-0.8-0.2-1.6,0.2-1.7,0.9l-4.7,16.3c-0.2,0.8,0.2,1.6,0.9,1.7
	C413.7,430.3,414.4,429.8,414.6,429z"/>
<path class="st17" d="M379.7,414.1l-12.7-13c-0.5-0.6-1.4-0.6-2,0c-0.6,0.5-0.6,1.4,0,2l12.7,13c0.5,0.6,1.4,0.6,2,0
	C380.1,415.5,380.1,414.8,379.7,414.1z"/>
<path class="st18" d="M355.3,208.9c-8.4-17.9,48.3-26.1,62.9-23.8c14.6,2.3-0.3,9.5-23.1,17.9C372,211.3,358.5,216,355.3,208.9z"/>
<path class="st18" d="M391.9,195.5c-5.7-15.2,46.4-14.6,59.3-10.9c13,3.7-1.2,7.5-22.8,11.2C407,199.5,394.3,201.6,391.9,195.5z"/>
<path class="st19" d="M368.6,191.5l19.7-4.7c0,0,4.3,3.4,6.2,8.9c1.9,5.4,2,10.6,2,10.6s-23,4.8-28,10.6"/>
<path class="st20" d="M402.2,451.9c4.3,0,7.9,9.5,6.4,14.1c-1.7,4.7-23.6,8.5-25.9,5C380.4,467.5,395.2,451.9,402.2,451.9z"/>
<path class="st20" d="M410.4,356.4c-24.8-8.1-20.5,75.2-13.7,95.7c6.8,20.5,12.1-2.5,16.6-37.3C417.8,380.1,420.2,359.6,410.4,356.4
	z"/>
<path class="st21" d="M394.6,455.3c9,3.4,12,0.2,12.1,0.2c0.2,0.3,0.3,0.5,0.5,0.8c1.6,3.1,2.3,7.3,1.4,9.9
	c-1.7,4.7-23.6,8.5-25.9,5C381,468.5,387.9,459.9,394.6,455.3z"/>
<path class="st22" d="M419.7,270c-37.3-6.4-26.6,75.3-20.3,96.1c6.2,20.7,18.9-3.7,24.4-38.4C429.3,293.2,436.6,272.8,419.7,270z"/>
<path class="st20" d="M463.5,451.9c-4.3,0-7.9,9.5-6.4,14.1c1.7,4.7,23.6,8.5,25.9,5C485.2,467.5,470.5,451.9,463.5,451.9z"/>
<path class="st20" d="M454,356.1c24.8-8.5,21.6,74.8,15.1,95.5c-6.5,20.7-12.1-2.3-17.1-37C447,379.7,444.4,359.3,454,356.1z"/>
<path class="st21" d="M471,455.3c-9,3.4-12,0.2-12.1,0.2c-0.2,0.3-0.3,0.5-0.5,0.8c-1.6,3.1-2.3,7.3-1.4,9.9
	c1.7,4.7,23.6,8.5,25.9,5C484.6,468.5,477.6,459.9,471,455.3z"/>
<path class="st22" d="M444.3,270c37.3-6.4,26.6,75.3,20.3,96.1c-6.2,20.7-18.9-3.7-24.4-38.4C434.5,293.2,427.2,272.8,444.3,270z"/>
<path class="st20" d="M466.6,271.1c-2.3-25.3,0.8-80.6-12.7-83.9c-8.7-2.2-15.8-2.6-22-2.6s-13.4,0.6-22.1,2.6
	c-13.5,3.3-10.4,58.5-12.7,83.9c-2,22.4,11.8,19.9,34.8,19.9C454.8,291,468.6,293.5,466.6,271.1z"/>
<path class="st20" d="M439.9,175.6l-8.2,1.1l-8.2-1.1v9.5c5.4,1.9,8.1,2,8.2,2c0,0,2.6-0.2,8.2-2V175.6z"/>
<path class="st18" d="M431.8,185.7c3.9,0,7.1-1.8,7.1-4s-3.2-4-7.1-4c-3.9,0-7.1,1.8-7.1,4S427.9,185.7,431.8,185.7z"/>
<path class="st22" d="M407,190.8c-9.5-17.4-49.5,23.6-56.4,36.8c-6.7,13.2,7.9,5.4,28.1-8.2C399.1,205.7,410.7,197.5,407,190.8z"/>
<path class="st22" d="M437.9,199.4c-4.3-19.3,52.8-15.1,66.6-9.6c13.8,5.4-2.3,9.3-26.6,12.4C453.9,205.4,439.6,207,437.9,199.4z"/>
<path class="st20" d="M505.7,196c16.1-2.5-10.1-47.5-19.9-57c-9.6-9.5-5.9,4.8,1.6,25.5C494.9,184.9,499.4,197.1,505.7,196z"/>
<path class="st20" d="M479.8,140.1c5.3,3,9.3-6.8,10.7-10.1c2-5.4,0.3-13.5-1.9-14.3c-2.2-0.9-6.1,12-6.8,12.1
	c-0.6,0.2,0.6-6.2-1.4-6.8c-2.2-0.6-5,7.6-4.8,11.3C475.8,136,476.6,138.2,479.8,140.1z"/>
<path class="st20" d="M431.5,138.8c-13.8,0-16.3,12.9-16.1,22.8c0,0.9,0,1.7,0.2,2.5c0,0,0,0.2,0,0.3c0.2,9.8,6.2,19.9,16.1,19.9
	c10.1,0,16.9-10.7,16.5-20.7c0-0.2,0-0.3,0-0.6c0-0.5,0-1.1,0.2-1.6C448.6,151.7,446.3,138.8,431.5,138.8z"/>
<path class="st1" d="M431.7,133.5c-24.1,0-16.3,29.5-16.3,29.5l2.3-12.3c0,0,12.4-3.3,23.9-8.2c3.1,4.2,6.2,13.8,6.2,20.3
	c0,0,5.1-15.4-1.9-23.9c-0.6-0.8-2.9-0.6-2.9-0.6s-1.1-2.8-2.2-3.3C438.5,134.2,435.6,133.5,431.7,133.5z"/>
<path class="st20" d="M448.3,161.6c0.9-0.3,3-1.2,2.5,2.8c-0.6,7.1-3.7,6.7-3.7,6.7c0.2-0.9,0.5-2.5,0.6-4c-0.8-0.6,0.3-1.6,0.3-2.3
	c0-0.2,0-0.3,0-0.5C448.1,163.4,448.1,162.6,448.3,161.6z"/>
<path class="st18" d="M448,164.1c0,0,0.9-1.2,1.7-0.8c0.8,0.5,0.2,2.8-0.3,4.2c-0.6,1.4-1.2,1.4-1.4,1.1c-0.2-0.3,1.2-1.2,0.8-1.9
	c-0.5-0.6-0.9-0.8-0.9-1.1C448,165.4,448,164.1,448,164.1z"/>
<path class="st1" d="M447.7,158.9c0.3,2.6-0.9,11-0.9,11l0.5,0.6l1.4-9.8L447.7,158.9z"/>
<path class="st20" d="M415.4,161.6c-0.9-0.3-3-1.2-2.5,2.8c0.6,7.1,3.7,6.7,3.7,6.7c-0.2-0.9-0.5-2.5-0.6-4c0.8-0.6-0.3-1.6-0.3-2.3
	c0-0.2,0-0.3,0-0.5C415.5,163.4,415.4,162.6,415.4,161.6z"/>
<path class="st18" d="M415.5,164.1c0,0-0.9-1.2-1.7-0.8c-0.8,0.5-0.2,2.8,0.3,4.2c0.6,1.4,1.2,1.4,1.4,1.1c0.2-0.3-1.2-1.2-0.8-1.9
	s0.9-0.8,0.9-1.1C415.7,165.4,415.5,164.1,415.5,164.1z"/>
<path class="st1" d="M416,158.9c-0.3,2.6,0.9,11,0.9,11l-0.5,0.6l-1.4-9.8L416,158.9z"/>
<path class="st1" d="M441.6,142.5c-5,4-20.8,9.3-20.8,9.3l1.4-4.5L441.6,142.5z"/>
<path class="st21" d="M395.8,271c0,0-5,39.3-5,64.6c0,25.3,0.2,112.4,0.2,112.4l17.4,0.6c0,0,20.3-150.9,23.8-150.9
	c3.4,0,23.8,150.9,23.8,150.9l17.4-0.6c0,0,0.2-87,0.2-112.4c0-25.3-5-64.6-5-64.6H395.8z"/>
<path class="st23" d="M395.6,187c-0.9,8.5-4.7,106.8-2.9,107.1c4.5,1.4,25.3,5.7,38.7,5.4c13.4-0.3,39.3-2.6,41.9-4.5
	c0.3-0.2,0.3-0.6,0.3-0.9c1.1-3.7,0.2-8.7,0-12.6c-0.3-7-4.2-34-4.7-41c-0.9-12.7-1.6-25.5-2.8-38.2c-0.3-4-2.2-7.5-3.7-11.2
	c-0.5-1.2-1.1-3.3-2.3-4c-1.2-0.8-3.9-0.6-5.3-0.8c-3.4-0.5-6.8-0.5-10.2-1.1c0,0-4.2,4.2-11.3,5c-7.1,0.8-14.8-4.8-14.9-5
	c-1.2-0.9-16.5-0.5-21.3,0.2C396.9,185.6,395.6,186.8,395.6,187z"/>
<path class="st22" d="M357.3,223c14.1,8.2-26.9,40.5-39.3,45.8c-12.4,5.3-3.7-6.7,10.7-23.1C343.2,229.3,351.7,219.7,357.3,223z"/>
<path class="st23" d="M396.9,185.6c0,0-18.2,8.1-34.5,24.7c-16.3,16.6-44.3,43.3-44.3,43.3l11.2,9.9c0,0,28.4-26.1,31.8-29.8
	c3.6-3.7,34.9-24.4,34.9-24.4l7.6-15.1L396.9,185.6z"/>
<path class="st20" d="M318.2,253.6c-4.5,3.7-7.3,9.9-7.3,9.9s3.3-1.9,7.3-1.4c4,0.5,11.2,1.4,11.2,1.4l2.8-7.9L318.2,253.6z"/>
<path class="st23" d="M444.4,185.4c6.4,0.6,20.2-0.8,23-0.6c2.8,0,24.5,0.5,24.5,0.5l-11-36.8c0,0,4.5-3.3,11-3.6
	c0,0,12.6,19.6,15.8,29c3.3,9.5,5.3,14.1,2.3,22.4c0,0-15.1,7.3-45.2,10.2L444.4,185.4z"/>
<path class="st24" d="M441.5,29.7l32,20.2c0.9,0.6,2,0.6,3,0.2l34.8-14.9c2.3-1.1,5,1.1,4.3,3.6l-9.3,36.6c-0.3,0.9,0,2,0.6,2.8
	l25,28.4c1.7,2,0.5,5-2.2,5.1l-37.7,2.5c-1.1,0-2,0.6-2.5,1.6l-19.3,32.5c-1.4,2.2-4.7,2-5.6-0.5l-14.1-35.1
	c-0.3-0.9-1.2-1.7-2.2-1.9l-37-8.4c-2.5-0.6-3.3-3.7-1.2-5.4l29-24.2c0.8-0.6,1.2-1.7,1.1-2.6l-3.6-37.6
	C436.5,30,439.3,28.3,441.5,29.7z"/>
<path class="st24" d="M467.4,150.9c-0.2,0-0.2,0-0.3,0c-1.7-0.2-3.1-1.1-3.7-2.6l-14.1-35.1c-0.3-0.6-0.8-1.1-1.4-1.2l-37-8.4
	c-1.6-0.3-2.8-1.6-3.3-3.1c-0.3-1.6,0.2-3.3,1.4-4.3l29-24.2c0.5-0.5,0.8-1.1,0.6-1.7l-3.6-37.6c-0.2-1.7,0.6-3.3,2-4
	c1.4-0.9,3.1-0.8,4.5,0l32,20.2c0.6,0.3,1.2,0.5,1.9,0.2L510.2,34c1.6-0.6,3.3-0.5,4.5,0.6c1.2,1.1,1.7,2.8,1.4,4.3l-9.3,36.6
	c-0.2,0.6,0,1.2,0.5,1.7l25,28.4c1.1,1.2,1.4,3,0.8,4.5c-0.6,1.6-2,2.5-3.7,2.6l-37.7,2.5c-0.6,0-1.2,0.5-1.6,0.9l-19.3,32.5
	C470.3,150.2,468.9,150.9,467.4,150.9z M439.8,30.3c-0.3,0-0.8,0.2-1.1,0.3c-0.6,0.5-0.9,1.1-0.9,1.9l3.6,37.6
	c0.2,1.4-0.5,2.8-1.6,3.7l-29,24.2c-0.6,0.5-0.8,1.2-0.6,2c0.2,0.8,0.8,1.2,1.6,1.4l37,8.4c1.4,0.3,2.5,1.2,3.1,2.6l14.1,35.1
	c0.3,0.8,0.9,1.2,1.7,1.2c0.8,0,1.4-0.3,1.9-0.9l19.3-32.5c0.8-1.2,2-2,3.4-2l37.7-2.5c0.8,0,1.4-0.5,1.7-1.2c0.3-0.8,0.2-1.4-0.3-2
	l-25-28.4c-0.9-1.1-1.2-2.5-0.9-3.9l9.3-36.6c0.2-0.8,0-1.6-0.6-2c-0.6-0.5-1.4-0.6-2-0.3l-34.8,14.9c-1.2,0.6-2.8,0.5-4-0.3
	l-32-20.2C440.5,30.4,440.2,30.3,439.8,30.3z"/>
<path class="st20" d="M368.9,271.3c-15.8-37,10.4-76.6-3.1-80c-8.7-2.2-15.8-2.6-22.1-2.6s-13.4,0.6-22,2.6
	c-13.5,3.3,12.7,43-3.1,80c-10.4,24.4,2.2,23.9,25.3,23.9C366.6,295.2,379.3,295.7,368.9,271.3z"/>
<path class="st20" d="M351.9,181.2l-8.2,1.1l-8.2-1.1v9.5c5.6,1.9,8.2,2,8.2,2s2.6-0.2,8.2-2V181.2z"/>
<path class="st18" d="M343.9,186.2c3.9,0,7.1-1.8,7.1-4c0-2.2-3.2-4-7.1-4s-7.1,1.8-7.1,4C336.8,184.4,340,186.2,343.9,186.2z"/>
<path class="st22" d="M335.7,273.1c-37.4-5.9-25.6,75.6-19.1,96.3c6.5,20.7,18.8-3.9,23.9-38.5C345.8,296.1,352.8,275.8,335.7,273.1
	z"/>
<path class="st20" d="M326.4,355.3c-25.5-6.4-15.2,76.4-7,96.4c8.2,20,11.8-3.4,14-38.4C335.4,378.4,336.3,357.9,326.4,355.3z"/>
<path class="st20" d="M323.6,451.4c4.3-0.2,8.2,9.2,6.8,14c-1.6,4.8-23.4,9.2-25.8,5.7C302.3,467.5,316.6,451.4,323.6,451.4z"/>
<path class="st23" d="M316.1,454.8c9,3.1,12-0.2,12.1-0.2c0.2,0.3,0.3,0.5,0.5,0.8c1.7,3.1,2.5,7.1,1.7,9.8
	c-1.6,4.8-23.4,9.2-25.8,5.7C302.9,468.6,309.6,459.8,316.1,454.8z"/>
<path class="st22" d="M350.8,273.1c37.4-5.9,25.6,75.6,19.1,96.3c-6.5,20.7-18.8-3.9-23.9-38.5C340.8,296.1,333.8,275.8,350.8,273.1
	z"/>
<path class="st20" d="M360.3,355.3c25.5-6.4,15.2,76.4,7,96.4c-8.2,20-11.8-3.4-14-38.4C351.2,378.4,350.3,357.9,360.3,355.3z"/>
<path class="st20" d="M363,451.4c-4.3-0.2-8.2,9.2-6.8,14c1.6,4.8,23.4,9.2,25.8,5.7C384.3,467.5,370,451.4,363,451.4z"/>
<path class="st23" d="M370.5,454.8c-9,3.1-12-0.2-12.1-0.2c-0.2,0.3-0.3,0.5-0.5,0.8c-1.7,3.1-2.5,7.1-1.7,9.8
	c1.6,4.8,23.4,9.2,25.8,5.7C383.7,468.6,377,459.8,370.5,454.8z"/>
<path class="st22" d="M357.9,163.7c0.9-0.3,3-1.2,2.5,2.8c-0.6,7.1-3.7,6.7-3.7,6.7c0.2-0.9,0.5-2.5,0.6-4c-0.2-1.9,0.3-1.6,0.3-2.3
	c0-0.2,0-0.3,0-0.5C357.9,165.4,357.9,164.6,357.9,163.7z"/>
<path class="st25" d="M357.8,166.3c0,0,0.9-1.2,1.7-0.8c0.8,0.5,0.2,2.8-0.3,4.2c-0.6,1.4-1.2,1.4-1.4,1.1c-0.2-0.3,1.2-1.2,0.8-1.9
	c-0.5-0.6-0.9-0.8-0.9-1.1C357.8,167.4,357.8,166.3,357.8,166.3z"/>
<path class="st22" d="M329.2,163.7c-0.9-0.3-3-1.2-2.5,2.8c0.6,7.1,3.7,6.7,3.7,6.7c-0.2-0.9-0.5-2.5-0.6-4c0.2-1.9-0.3-1.6-0.3-2.3
	c0-0.2,0-0.3,0-0.5C329.3,165.4,329.2,164.6,329.2,163.7z"/>
<path class="st25" d="M329.3,166.3c0,0-0.9-1.2-1.7-0.8c-0.8,0.5-0.2,2.8,0.3,4.2c0.6,1.4,1.2,1.4,1.4,1.1c0.2-0.3-1.2-1.2-0.8-1.9
	c0.5-0.6,0.9-0.8,0.9-1.1C329.5,167.4,329.3,166.3,329.3,166.3z"/>
<path class="st23" d="M365.2,175.9c-0.9-5-2.5-13.2-2.5-17.7l-15.8,2.2l-3.3,20.5l-3.3-20.5l-15.8-2.2c0,4.5-1.6,12.7-2.5,17.7
	c-0.5,2.2,1.1,4.2,3.4,4.2l18.2,0.9l18.2-0.9C364.1,180.1,365.7,178.1,365.2,175.9z"/>
<path class="st20" d="M358.4,164.8c0,11.3-6.5,20.5-14.6,20.5c-8.1,0-14.6-9.2-14.6-20.5c0-11.3,6.5-20.5,14.6-20.5
	C351.9,144.3,358.4,153.4,358.4,164.8z"/>
<path class="st23" d="M359.6,167.4c0.5-0.3-0.2-2-0.2-2.5c-0.2-1.1-0.8-2.2-1.6-3.1c-0.9-1.1-2-2-3.1-2.9c-3.3-3.1-5.6-7-7.1-11
	c0-0.2-0.6-1.2-0.5-1.4c-3.4,5.3-8.5,9.8-14,13.2c-3.1,2-6.2,3.9-7.1,7.6c0-1.4-0.8-2.6-1.1-3.9c-0.3-1.6-0.5-3.1-0.5-4.8
	c0-11.3,8.5-20.7,19.1-20.7c4.5,0,6.4,2.8,6.4,2.8s2.9-0.6,5.9,2c4.2,3.7,6.8,9.5,6.8,15.8C362.9,161.2,362.3,165.2,359.6,167.4z"/>
<path class="st23" d="M341.5,153.1c-5,4.2-11.5,14.1-11.3,19.6c0.2,5.4,0.2,5.4,0.2,5.4l-5.7-4.8l2-13.7l3.9-4L341.5,153.1z"/>
<path class="st23" d="M353.4,157l0.2,0.2c2.8,3.1,4.5,10.6,3.9,14.9c-0.6,4.3,0.3,5.4,0.3,5.4l3.9-6.7l-0.5-13.5l-6.2-2.9L353.4,157
	z"/>
<path class="st20" d="M330.3,204.3c-7.5,18.3-51.9-18-60.1-30.3c-8.2-12.4,7.3-6.2,28.9,5C320.7,190.4,333.2,197.2,330.3,204.3z"/>
<path class="st20" d="M273.4,175.8c-16,3.1-6.7-48.1-0.8-60.4c5.9-12.1,7.1,2.5,7.3,24.4C280,161.8,279.8,174.5,273.4,175.8z"/>
<path class="st20" d="M274.7,116.5c-6.1-0.2-4.7-10.6-4-14.1c1.1-5.7,6.7-11.8,8.9-11.3c2.3,0.3-0.8,13.4-0.3,14
	c0.5,0.5,2.6-5.6,4.7-5.1c2.2,0.6,0.3,9.2-1.7,12.3C280.3,115.1,278.6,116.6,274.7,116.5z"/>
<path class="st24" d="M285.9,2.6l16.8,33.9c0.5,0.9,1.4,1.6,2.3,1.7l37.4,5.4c2.6,0.3,3.6,3.6,1.7,5.3l-27,26.6
	c-0.8,0.8-1.1,1.7-0.9,2.8l6.4,37.3c0.5,2.5-2.2,4.5-4.5,3.3l-33.5-17.5c-0.9-0.5-2-0.5-3,0L248,118.8c-2.3,1.2-5-0.8-4.5-3.3
	l6.4-37.3c0.2-1.1-0.2-2-0.9-2.8l-27-26.4c-1.9-1.9-0.8-5,1.7-5.3l37.4-5.4c1.1-0.2,1.9-0.8,2.3-1.7l16.8-33.9
	C281.4,0.3,284.8,0.3,285.9,2.6z"/>
<path class="st24" d="M319.4,120.3c-0.6,0-1.4-0.2-2-0.5l-33.5-17.5c-0.6-0.3-1.2-0.3-1.9,0l-33.2,17.5c-1.4,0.8-3.3,0.6-4.5-0.3
	c-1.4-0.9-2-2.6-1.7-4.2l6.4-37.3c0.2-0.6-0.2-1.2-0.6-1.7l-27-26.4c-1.2-1.1-1.6-2.8-1.1-4.3c0.5-1.6,1.9-2.6,3.4-3l37.4-5.4
	c0.6-0.2,1.2-0.5,1.6-1.1l16.8-33.9c0.8-1.6,2.2-2.3,3.9-2.3c1.7,0,3.1,0.9,3.9,2.3l16.8,33.9c0.3,0.6,0.8,0.9,1.6,1.1l37.4,5.4
	c1.6,0.3,3,1.4,3.4,3c0.5,1.6,0.2,3.3-1.1,4.3l-27,26.4c-0.5,0.5-0.6,1.1-0.6,1.7l6.4,37.3c0.3,1.6-0.3,3.3-1.7,4.2
	C321.3,120,320.3,120.3,319.4,120.3z M283.1,99.7c0.6,0,1.4,0.2,2,0.5l33.5,17.5c0.6,0.3,1.4,0.3,2-0.2c0.6-0.5,0.9-1.2,0.8-1.9
	l-6.4-37.3c-0.3-1.4,0.2-2.8,1.2-3.7l27-26.4c0.6-0.5,0.8-1.2,0.5-2c-0.3-0.8-0.8-1.2-1.6-1.4l-37.4-5.4c-1.4-0.2-2.6-1.1-3.3-2.3
	L284.8,3.3c-0.3-0.6-0.9-1.1-1.7-1.1c-0.8,0-1.4,0.5-1.7,1.1l-16.8,33.9c-0.6,1.2-1.9,2.2-3.3,2.3l-37.4,5.4
	c-0.8,0.2-1.4,0.6-1.6,1.4c-0.3,0.8,0,1.6,0.5,2l27,26.4c1.1,0.9,1.4,2.5,1.2,3.7l-6.4,37.3c-0.2,0.8,0.2,1.4,0.8,1.9
	c0.6,0.5,1.4,0.5,2,0.2l33.5-17.5C281.7,99.8,282.5,99.7,283.1,99.7z"/>
<path class="st26" d="M315.5,267.9c0,0-7.5,26.2-7.1,42.4c0.3,16.1,1.1,46.6,0.3,53.4c-0.8,6.8,69.4,5.6,68.6-1.2
	c-0.8-6.8,0.5-36,0.6-52.2c0.3-16.1-7.1-42.4-7.1-42.4H315.5z"/>
<path class="st19" d="M368.8,216c-6.2,33.1,2,51.7,2,51.7c-17.1,7.3-55.9,3-55.9,1.4s3.1-4.2,5.4-22.7c2.3-18.6-3.1-35.4-3.1-35.4
	c-8.9-2.5-27.6-15.8-27.6-15.8c2-8.9,12.1-15.8,12.1-15.8s17.9,10.2,19.9,10.2c2,0.2,7.9-0.6,7.9-0.6s6.2,9.8,14,9.5
	c7.9-0.3,14-9.5,14-9.5s12.6,0.6,12.9,4.3c0.5,3.7,0.6,7.3,0,12.3C369.7,210.7,368.8,216,368.8,216z"/>
<path class="st20" d="M315.4,260.2c-6.1-0.6-5.9,9.9-5.7,13.5c0.3,5.9,5,12.6,7.3,12.4c2.3,0,0.9-13.4,1.4-13.8
	c0.5-0.5,1.9,5.9,4,5.6c2.2-0.3,1.6-9,0-12.3C320.6,262.4,319.1,260.7,315.4,260.2z"/>
<path class="st20" d="M564.9,451.4c4.3,0,7.9,9.5,6.4,14.1c-1.7,4.7-23.6,8.5-25.9,5C543,466.9,557.8,451.4,564.9,451.4z"/>
<path class="st20" d="M574.8,356.4c-24.8-8.4-21.4,74.8-14.9,95.5c6.5,20.5,12.1-2.3,17.1-37.1C582,380.1,584.6,359.6,574.8,356.4z"
	/>
<path class="st23" d="M557.3,454.7c9,3.4,12,0.2,12.1,0.2c0.2,0.3,0.3,0.5,0.5,0.8c1.6,3.1,2.3,7.3,1.4,9.9
	c-1.7,4.7-23.6,8.5-25.9,5C543.8,468,550.6,459.5,557.3,454.7z"/>
<path class="st22" d="M584.3,269.4c-37.3-6.4-26.6,75.3-20.3,96.1c6.2,20.7,18.9-3.7,24.4-38.4C594.1,292.5,601.4,272.2,584.3,269.4
	z"/>
<path class="st20" d="M628.4,451.4c-4.3,0-7.9,9.5-6.4,14.1c1.7,4.7,23.6,8.5,25.9,5C650.2,466.9,635.4,451.4,628.4,451.4z"/>
<path class="st20" d="M620.8,355.9c25-7.8,19.3,75.5,12.1,95.8c-7.1,20.3-12-2.8-16-37.6C613,379.3,611,359,620.8,355.9z"/>
<path class="st23" d="M636,454.7c-9,3.4-12,0.2-12.1,0.2c-0.2,0.3-0.3,0.5-0.5,0.8c-1.6,3.1-2.3,7.3-1.4,9.9
	c1.7,4.7,23.6,8.5,25.9,5C649.5,468,642.7,459.5,636,454.7z"/>
<path class="st22" d="M608.8,269.7c37.3-6.4,26.6,75.3,20.3,96.1c-6.2,20.7-18.9-3.7-24.4-38.4C599.2,293,591.9,272.7,608.8,269.7z"
	/>
<path class="st20" d="M631.5,270.7c-2.3-25.3,0.8-80.6-12.7-83.9c-8.7-2.2-15.8-2.6-22-2.6c-6.2,0-13.4,0.6-22,2.6
	c-13.5,3.3-10.4,58.5-12.7,83.9c-2,22.4,11.8,19.9,34.8,19.9C619.7,290.5,633.5,292.9,631.5,270.7z"/>
<path class="st20" d="M604.8,175l-8.2,1.1l-8.2-1.1v9.5c5.4,1.9,8.1,2,8.2,2c0,0,2.6-0.2,8.2-2V175z"/>
<path class="st20" d="M571,209c17.4-9.3-23.1-49.8-36.3-56.7c-13.2-6.8-5.4,7.8,7.9,28.1C556.1,200.9,564,212.7,571,209z"/>
<path class="st20" d="M531.2,156.4c-16-3.1,12-47.2,21.9-56.2c9.9-9.2,5.7,5-2.5,25.3C542.5,145.7,537.4,157.6,531.2,156.4z"/>
<path class="st20" d="M554.5,100.6c-5.7-2-0.9-11.5,0.8-14.8c2.8-5.1,9.9-9,12.1-7.9c2,1.1-5,12.4-4.8,13c0.3,0.6,4.2-4.5,6.1-3.3
	c1.9,1.2-2.5,8.7-5.4,11C560.2,101.1,558.1,101.9,554.5,100.6z"/>
<path class="st20" d="M622.8,209c-17.4-9.3,23.1-49.8,36.3-56.7c13.2-6.8,5.4,7.8-7.9,28.1C637.7,200.9,629.7,212.7,622.8,209z"/>
<path class="st20" d="M662.6,156.4c16-3.1-12-47.2-21.9-56.2c-9.9-9.2-5.7,5,2.5,25.3C651.2,145.7,656.2,157.6,662.6,156.4z"/>
<path class="st20" d="M639.1,100.6c5.7-2,0.9-11.5-0.8-14.8c-2.8-5.1-9.9-9-12.1-7.9c-2,1.1,5,12.4,4.8,13c-0.3,0.6-4.2-4.5-6.1-3.3
	c-1.9,1.2,2.5,8.7,5.4,11C633.5,101.1,635.6,101.9,639.1,100.6z"/>
<path class="st18" d="M603.9,181.2c0,2.3-3.3,4-7.1,4c-3.9,0-7.1-1.9-7.1-4c0-2.3,3.3-4,7.1-4C600.6,177.2,603.9,178.9,603.9,181.2z
	"/>
<path class="st20" d="M596.4,138.2c-13.8,0-16.3,12.9-16.1,22.8c0,0.9,0,1.7,0.2,2.5c0,0,0,0.2,0,0.3c0.2,9.8,6.2,19.9,16.1,19.9
	c10.1,0,16.9-10.7,16.5-20.7c0-0.2,0-0.3,0-0.6c0-0.5,0-1.1,0.2-1.6C613.5,151.2,611.2,138.2,596.4,138.2z"/>
<path class="st20" d="M613.2,161.2c0.9-0.3,3-1.2,2.5,2.8c-0.6,7.1-3.7,6.7-3.7,6.7c0.2-0.9,0.5-2.5,0.6-4c-0.8-0.6,0.3-1.6,0.3-2.3
	c0-0.2,0-0.3,0-0.5C613,162.9,613.2,162,613.2,161.2z"/>
<path class="st18" d="M613,163.7c0,0,0.9-1.2,1.7-0.8s0.2,2.8-0.3,4.2c-0.6,1.4-1.2,1.4-1.4,1.1c-0.2-0.3,1.2-1.2,0.8-1.9
	c-0.5-0.6-0.9-0.8-0.9-1.1C612.9,164.9,613,163.7,613,163.7z"/>
<path class="st23" d="M612.6,158.4c0.3,2.6-0.9,11-0.9,11l0.5,0.6l1.4-9.8L612.6,158.4z"/>
<path class="st20" d="M580.3,161.2c-0.9-0.3-3-1.2-2.5,2.8c0.6,7.1,3.7,6.7,3.7,6.7c-0.2-0.9-0.5-2.5-0.6-4c0.8-0.6-0.3-1.6-0.3-2.3
	c0-0.2,0-0.3,0-0.5C580.4,162.9,580.3,162,580.3,161.2z"/>
<path class="st18" d="M580.4,163.7c0,0-0.9-1.2-1.7-0.8c-0.8,0.5-0.2,2.8,0.3,4.2c0.6,1.4,1.2,1.4,1.4,1.1c0.2-0.3-1.2-1.2-0.8-1.9
	c0.5-0.6,0.9-0.8,0.9-1.1C580.6,164.9,580.4,163.7,580.4,163.7z"/>
<path class="st23" d="M580.9,158.4c-0.3,2.6,0.9,11,0.9,11l-0.5,0.6l-1.4-9.8L580.9,158.4z"/>
<path class="st24" d="M600.6,6.5l16.8,33.9c0.5,0.9,1.4,1.6,2.3,1.7l37.4,5.4c2.6,0.3,3.6,3.6,1.7,5.3l-27,26.4
	c-0.8,0.8-1.1,1.7-0.9,2.8l6.4,37.3c0.5,2.5-2.2,4.5-4.5,3.3L599.2,105c-0.9-0.5-2-0.5-3,0l-33.5,17.5c-2.3,1.2-5-0.8-4.5-3.3
	l6.4-37.3c0.2-1.1-0.2-2-0.9-2.8l-27-26.4c-1.9-1.9-0.8-5,1.7-5.3l37.4-5.4c1.1-0.2,1.9-0.8,2.3-1.7L595,6.5
	C596.3,4.2,599.5,4.2,600.6,6.5z"/>
<path class="st24" d="M561.5,124.2c-0.9,0-1.7-0.3-2.5-0.8c-1.4-0.9-2-2.6-1.7-4.2l6.4-37.3c0.2-0.6-0.2-1.2-0.6-1.7l-27-26.6
	c-1.2-1.1-1.6-2.8-1.1-4.3s1.9-2.6,3.4-3l37.4-5.4c0.6-0.2,1.2-0.5,1.6-1.1l16.8-33.9c0.8-1.6,2.2-2.3,3.9-2.3
	c1.7,0,3.1,0.9,3.9,2.3l16.8,33.9c0.3,0.6,0.8,0.9,1.6,1.1l37.4,5.4c1.6,0.3,3,1.4,3.4,3s0.2,3.3-1.1,4.3l-27,26.4
	c-0.5,0.5-0.6,1.1-0.6,1.7l6.4,37.3c0.3,1.6-0.3,3.3-1.7,4.2c-1.4,0.9-3.1,1.1-4.5,0.3l-33.5-17.5c-0.6-0.3-1.2-0.3-1.9,0
	l-33.5,17.5C562.9,124.1,562.1,124.2,561.5,124.2z M597.8,5.9c-0.8,0-1.4,0.5-1.7,1.1l-16.8,33.9c-0.6,1.2-1.9,2.2-3.3,2.3
	l-37.4,5.4c-0.8,0.2-1.4,0.6-1.6,1.4c-0.3,0.8,0,1.6,0.5,2l27,26.4c1.1,0.9,1.4,2.5,1.2,3.7l-6.4,37.3c-0.2,0.8,0.2,1.4,0.8,1.9
	c0.6,0.5,1.4,0.5,2,0.2l33.5-17.5c1.2-0.6,2.8-0.6,4,0l33.5,17.5c0.6,0.3,1.4,0.3,2-0.2c0.6-0.5,0.9-1.2,0.8-1.9l-6.4-37.3
	c-0.3-1.4,0.2-2.8,1.2-3.7l27-26.4c0.6-0.5,0.8-1.2,0.5-2c-0.3-0.8-0.8-1.2-1.6-1.4l-37.4-5.4c-1.4-0.2-2.6-1.1-3.3-2.3L599.7,7
	C599.2,6.4,598.6,5.9,597.8,5.9z"/>
<path class="st21" d="M560.6,273.4c0,0-5,39.3-5,64.6c0,25.3,0.2,112.4,0.2,112.4l17.4,0.6c0,0,20.3-150.9,23.8-150.9
	s23.8,150.9,23.8,150.9l17.4-0.6c0,0,0.2-87,0.2-112.4c0-25.3-5-64.6-5-64.6H560.6z"/>
<path class="st27" d="M596.4,276.2c18.9-0.3,37.1-2.8,38.2-4c2-2-3.7-58.2-3-60.1c0.8-2,19.6-25.9,19.6-25.9l-0.3-0.5
	c-3.1-6.5-9-11.3-16-13.2c0,0-12,12.6-12.9,13c-0.8,0.5-14.4-1.6-14.4-1.6s-3.7,4.3-11.2,4.8c-7.6-0.5-11.2-4.8-11.2-4.8
	s-13.7,2-14.4,1.6c-0.8-0.5-12.9-13-12.9-13c-7,1.9-12.7,6.7-16,13.2l-0.3,0.5c0,0,18.8,23.9,19.6,25.9c0.8,2-4.8,58.1-3,60.1
	C559.3,273.4,577.5,275.9,596.4,276.2z"/>
<path class="st23" d="M596.4,143.2c3.7,0,7.9-0.8,9.5,0c1.6,0.8,4.2,6.1,4.2,8.1c0,2,0,3.9,0,5.4c0,1.6,3.1,4.3,3.1,4.3l0.3-0.9
	c0,0-0.2-5.3,0-9.3c0.2-4-3-14.6-17.1-14.6"/>
<path class="st23" d="M596.4,143.2c-3.7,0-7.9-0.8-9.5,0c-1.6,0.8-4.2,6.1-4.2,8.1c0,2,0,3.9,0,5.4c0,1.6-3.1,4.3-3.1,4.3l-0.3-0.9
	c0,0,0.2-5.3,0-9.3c-0.2-4,3-14.6,17.1-14.6"/>
<path class="st20" d="M195.6,449.1c4.3,0,7.9,9.5,6.4,14.1c-1.7,4.7-23.6,8.5-25.9,5C173.9,464.8,188.7,449.1,195.6,449.1z"/>
<path class="st20" d="M204.5,354.2c-24.8-8.4-21.1,75-14.4,95.5c6.7,20.5,12.1-2.5,16.9-37.1C211.8,377.8,214.3,357.5,204.5,354.2z"
	/>
<path class="st21" d="M188,452.5c9,3.4,12,0.2,12.1,0.2c0.2,0.3,0.3,0.5,0.5,0.8c1.6,3.1,2.3,7.3,1.4,9.9c-1.7,4.7-23.6,8.5-25.9,5
	C174.5,465.7,181.4,457.1,188,452.5z"/>
<path class="st22" d="M213.2,267.4c-37.3-6.4-26.6,75.3-20.3,96.1c6.2,20.7,18.9-3.7,24.4-38.4C223,290.5,230.1,270.2,213.2,267.4z"
	/>
<path class="st20" d="M258.1,449.1c-4.3,0-7.9,9.5-6.4,14.1c1.7,4.7,23.6,8.5,25.9,5C279.8,464.6,265.1,448.9,258.1,449.1z"/>
<path class="st20" d="M248.3,353.4c24.7-8.7,22.2,74.7,15.8,95.3c-6.4,20.7-12.1-2.3-17.4-37C241.5,377.2,238.7,356.8,248.3,353.4z"
	/>
<path class="st21" d="M265.5,452.3c-9,3.4-12,0.2-12.1,0.2c-0.2,0.3-0.3,0.5-0.5,0.8c-1.6,3.1-2.3,7.3-1.4,9.9
	c1.7,4.7,23.6,8.5,25.9,5C279.2,465.7,272.2,457.1,265.5,452.3z"/>
<path class="st22" d="M238.4,267.2c37.3-6.4,26.6,75.3,20.3,96.1c-6.2,20.7-18.9-3.7-24.4-38.4C228.6,290.4,221.3,270,238.4,267.2z"
	/>
<path class="st20" d="M261.2,268.2c-2.3-25.3,0.8-80.6-12.7-83.9c-8.7-2.2-15.8-2.6-22.1-2.6s-13.4,0.6-22,2.6
	c-13.5,3.3-10.4,58.5-12.7,83.9c-2,22.4,11.8,19.9,34.8,19.9C249.4,288,263.2,290.5,261.2,268.2z"/>
<path class="st20" d="M240.2,187.3c12.7-15.1,43.8,33.1,47.8,47.4c3.9,14.3-8.9,3.7-25.9-13.7C245,203.6,235.1,193.3,240.2,187.3z"
	/>
<path class="st20" d="M234.5,172.7l-8.2,1.1l-8.2-1.1v9.5c5.4,1.9,8.1,2,8.2,2c0,0,2.6-0.2,8.2-2V172.7z"/>
<path class="st20" d="M207.5,198c9.8-17.2-46.3-29.7-61-28.4c-14.8,1.2-0.5,9.5,21.7,19.6C190.5,199.1,203.6,204.8,207.5,198z"/>
<path class="st20" d="M149.7,174.8c-11.3,11.6-33.1-35.7-35.2-49.1c-2.2-13.4,7.3-2,19.9,15.8C146.9,159.6,154,170.3,149.7,174.8z"
	/>
<path class="st20" d="M118.2,122.2c-1.9,5.7-11.5,1.4-14.8-0.2c-5.3-2.6-9.5-9.6-8.4-11.8c0.9-2.2,12.6,4.5,13.2,4.3
	c0.6-0.3-4.7-4-3.6-5.9c1.1-1.9,8.9,2.2,11.3,5C118.5,116.5,119.4,118.6,118.2,122.2z"/>
<path class="st20" d="M279.8,230.9C295,225,295,277,291.5,290.1c-3.6,13-7.6-1.1-11.5-22.7C275.9,246,273.8,233.2,279.8,230.9z"/>
<path class="st20" d="M287.1,290.4c5.7-2,8.1,8.4,8.7,11.8c1.1,5.7-2,13.4-4.3,13.8c-2.3,0.5-3.9-12.7-4.5-13.2
	c-0.6-0.3-0.5,6.2-2.6,6.4c-2.2,0.2-3.6-8.4-2.8-12C282.5,293.6,283.5,291.6,287.1,290.4z"/>
<path class="st20" d="M226.1,135.9c-13.8,0-16.3,12.9-16.1,22.8c0,0.9,0,1.7,0.2,2.5c0,0,0,0.2,0,0.3c0.2,9.8,6.2,19.9,16.1,19.9
	c10.1,0,16.9-10.7,16.5-20.7c0-0.2,0-0.3,0-0.6c0-0.5,0-1.1,0.2-1.6C243,148.8,240.8,135.9,226.1,135.9z"/>
<path class="st20" d="M242.9,158.7c0.9-0.3,3-1.2,2.5,2.8c-0.6,7.1-3.7,6.7-3.7,6.7c0.2-0.9,0.5-2.5,0.6-4c-0.8-0.6,0.3-1.6,0.3-2.3
	c0-0.2,0-0.3,0-0.5C242.7,160.4,242.7,159.6,242.9,158.7z"/>
<path class="st18" d="M242.6,161.3c0,0,0.9-1.2,1.7-0.8c0.8,0.5,0.2,2.8-0.3,4.2c-0.6,1.4-1.2,1.4-1.4,1.1c-0.2-0.3,1.2-1.2,0.8-1.9
	c-0.5-0.6-0.9-0.8-0.9-1.1C242.6,162.4,242.6,161.3,242.6,161.3z"/>
<path class="st28" d="M242.2,156.1c0.3,2.6-0.9,11-0.9,11l0.5,0.6l1.4-9.8L242.2,156.1z"/>
<path class="st20" d="M209.9,158.7c-0.9-0.3-3-1.2-2.5,2.8c0.6,7.1,3.7,6.7,3.7,6.7c-0.2-0.9-0.5-2.5-0.6-4c0.8-0.6-0.3-1.6-0.3-2.3
	c0-0.2,0-0.3,0-0.5C209.9,160.4,209.9,159.6,209.9,158.7z"/>
<path class="st18" d="M210.1,161.3c0,0-0.9-1.2-1.7-0.8c-0.8,0.5-0.2,2.8,0.3,4.2c0.6,1.4,1.2,1.4,1.4,1.1c0.2-0.3-1.2-1.2-0.8-1.9
	c0.5-0.6,0.9-0.8,0.9-1.1C210.3,162.4,210.1,161.3,210.1,161.3z"/>
<path class="st28" d="M210.6,156.1c-0.3,2.6,0.9,11,0.9,11l-0.5,0.6l-1.4-9.8L210.6,156.1z"/>
<path class="st21" d="M225.8,145.5c-0.5,0.6-1.4,0.8-2,0.5c-0.6-0.3-0.8-0.9-0.8-1.1c-0.2,0.2-0.9,0.8-2,0.8c-1.2,0-2-1.1-2-1.1
	c-0.2,0.5-0.5,2.2-2.2,3.4c-1.1,0.8-2,0.9-2.6,0.9c0.5,0.8,0.3,1.7-0.3,2.3c-0.5,0.5-1.2,0.6-1.9,0.3c0.2,0.3,0.5,1.2,0.2,2.5
	c-0.3,1.2-1.2,1.7-1.4,1.9c-0.5,0.9-0.9,1.9-1.4,2.9l-0.8,0.5c-1.2-0.2-2.2-1.1-2.6-2.2c-0.5-1.2,0-2.8,1.1-3.6
	c-0.2-0.2-1.2-1.2-1.4-2.8c0-1.6,0.8-3,2.3-3.7c-0.9-0.6-1.1-1.7-0.8-2.5c0.3-0.6,0.9-0.9,1.7-0.9c-0.9-1.7-1.1-3.7-0.2-5.3
	c1.2-2,4-2.9,6.5-2c0-0.2,0-1.1,0.5-1.7c0.6-0.6,1.9-0.8,3-0.2c0-0.3,0.2-2.2,1.7-3.1c1.6-0.9,3.7-0.6,5.3,0.9
	c1.6-1.6,3.7-1.9,5.3-0.9c1.6,1.1,1.7,2.9,1.7,3.1c1.1-0.6,2.3-0.6,3,0.2c0.6,0.6,0.6,1.6,0.5,1.7c2.5-0.9,5.3,0,6.5,2
	c0.9,1.6,0.8,3.6-0.2,5.3c0.8,0,1.4,0.3,1.7,0.9c0.5,0.8,0.2,1.9-0.8,2.5c1.4,0.8,2.3,2.2,2.3,3.7c0,1.6-1.1,2.6-1.4,2.8
	c1.1,0.9,1.6,2.3,1.1,3.6c-0.3,1.1-1.4,1.9-2.6,2.2l-0.8-0.5c-0.5-0.9-0.9-1.9-1.4-2.9c-0.3-0.2-1.1-0.8-1.4-1.9
	c-0.3-1.2,0-2.2,0.2-2.5c-0.6,0.3-1.4,0.2-1.9-0.3c-0.6-0.6-0.8-1.6-0.3-2.3c-0.5,0-1.6-0.3-2.6-0.9c-1.7-1.2-2-3-2.2-3.4
	c-0.2,0.2-0.8,1.1-2,1.1c-1.1,0-1.9-0.6-2-0.8c0,0.2-0.2,0.8-0.8,1.1c-0.6,0.3-1.4,0.2-2-0.5"/>
<path class="st18" d="M226.2,182c-3,0-5.7-1.2-7.9-3.3c2,2.9,4.8,4.8,7.9,4.8c3.1,0,5.9-1.9,7.9-4.8C232,180.7,229.3,182,226.2,182z
	"/>
<path class="st24" d="M117.2,15.8L134,49.7c0.5,0.9,1.4,1.6,2.3,1.7l37.4,5.4c2.6,0.3,3.6,3.6,1.7,5.3l-27,26.4
	c-0.8,0.8-1.1,1.7-0.9,2.8l6.4,37.3c0.5,2.5-2.2,4.5-4.5,3.3l-33.5-17.5c-0.9-0.5-2-0.5-2.9,0l-33.4,17.5c-2.3,1.2-5-0.8-4.5-3.3
	l6.4-37.3c0.2-1.1-0.2-2-0.9-2.8l-27-26.4c-1.9-1.9-0.8-5,1.7-5.3l37.4-5.4c1.1-0.2,1.9-0.8,2.3-1.7l16.8-33.9
	C112.7,13.5,116,13.5,117.2,15.8z"/>
<path class="st23" d="M190.5,269.6c0,0-5,42.1-5,67.4c0,25.3,0.2,112.4,0.2,112.4l17.4,0.6c0,0,20.3-150.9,23.8-150.9
	S250.6,450,250.6,450l17.4-0.6c0,0,0.2-87,0.2-112.4s-5.6-67.7-5.6-67.7L190.5,269.6z"/>
<path class="st26" d="M178.9,172.8c0,0-9.5,12.1-9.2,21.4c0,0,19.9,9,20.7,9.8c0.8,0.8-5.3,81.1-3.7,83.1c1.6,2,14.8,7,40.4,6.5
	c25.6-0.6,36.5-4.2,38-6.8l-4-63.8l3.9,4.5c0,0,13.2-3.7,14.4-13.7c0,0-14-23.6-23.4-27.8c-9.3-4-19.7-3.7-19.7-3.7
	s-3.9,3.7-10.2,4.3c-6.4,0.6-11.5-4.3-11.5-4.3s-10.9,0.8-12,0.5C201.7,182.1,186.6,174.5,178.9,172.8z"/>
<path class="st23" d="M108.7,165.2c0.2,3.9,4.7,10.7,5.4,13.4c0.8,2.6-2,5-1.6,7.6c0.5,2.6,4,3.6,5,5.9c0.9,2.5-2.3,4.3-2.2,8.7
	c0.2,4.2-3.1,7.9-3.1,7.9L68.6,207l-8.2-2.3c0,0,0.8-0.3,2.2-5.7c1.4-5.4-0.5-8.1-0.3-10.7s3.6-4.3,4.2-6.7c0.6-2.3-0.3-3.1-0.3-6.4
	c0-3.1,1.4-2.6,2.8-6.2c1.4-3.6,0.8-3.7,1.7-7.5c0.9-3.7,18.8-10.1,18.8-10.1l14,2.6L108.7,165.2z"/>
<path class="st20" d="M114.8,278.3c-15.8-37,10.4-76.6-3.1-80c-8.7-2.2-15.8-2.6-22-2.6c-6.2,0-13.4,0.6-22,2.6
	c-13.5,3.3,12.7,43-3.1,80c-10.4,24.4,2.2,23.9,25.3,23.9C112.4,302.2,125.2,302.6,114.8,278.3z"/>
<path class="st20" d="M97.7,188.2l-8.2,1.1l-8.2-1.1v9.5c5.6,1.9,8.2,2,8.2,2s2.6-0.2,8.2-2V188.2z"/>
<path class="st20" d="M72.7,204.8c-7.9-18-51.4,19.4-59.2,32c-7.8,12.6,7.5,6.1,28.7-5.9C63.5,219.1,75.8,212,72.7,204.8z"/>
<path class="st22" d="M73.8,280c-37.9,0.6-12.3,79-2.3,98.1c9.9,19.1,17.9-7.1,16.9-42.1C87.6,300.9,91,279.7,73.8,280z"/>
<path class="st20" d="M77.8,359.8c-25.9-4-8.2,77.5,1.7,96.6c9.9,19.1,11.5-4.3,10.4-39.4C89,381.8,88,361.3,77.8,359.8z"/>
<path class="st20" d="M83.7,455.6c4.3-0.5,9,8.4,7.9,13.4c-1.1,4.8-22.5,11.3-25.2,8.1C63.8,473.6,76.7,456.4,83.7,455.6z"/>
<path class="st1" d="M76.6,459.8c9.3,2.3,12-1.2,12-1.2c0.2,0.2,0.3,0.5,0.5,0.6c2,3,3.1,6.8,2.6,9.6c-1.1,4.8-22.5,11.3-25.2,8.1
	C64.6,474.5,70.5,465.2,76.6,459.8z"/>
<path class="st22" d="M90.8,278.4c32.8-18.9,51.1,61.5,52.5,82.9c1.4,21.6-18.9,3.1-36.2-27.3C89.8,303.6,75.9,287.1,90.8,278.4z"/>
<path class="st20" d="M134.2,351.2c25.9-3.9,7.6,77.5-2.6,96.6c-10.2,19.1-11.5-4.5-10.1-39.6C122.8,373.3,123.9,352.6,134.2,351.2z
	"/>
<path class="st20" d="M127.3,447c-4.3-0.5-9.2,8.4-8.1,13.2c1.1,5,22.4,11.5,25,8.2C146.9,465.2,134.3,447.8,127.3,447z"/>
<path class="st1" d="M134.5,451.2c-9.3,2.2-12-1.4-12-1.4c-0.2,0.2-0.3,0.5-0.5,0.6c-2,2.9-3.3,6.8-2.6,9.6c1.1,5,22.4,11.5,25,8.2
	C146.1,466.1,140.4,456.8,134.5,451.2z"/>
<path class="st22" d="M103.9,170.7c0.9-0.3,3-1.2,2.5,2.8c-0.6,7.1-3.7,6.7-3.7,6.7c0.2-0.9,0.5-2.5,0.6-4c-0.2-1.9,0.3-1.6,0.3-2.3
	c0-0.2,0-0.3,0-0.5C103.7,172.4,103.7,171.6,103.9,170.7z"/>
<path class="st25" d="M103.6,173.1c0,0,0.9-1.2,1.7-0.8c0.8,0.5,0.2,2.8-0.3,4.2c-0.6,1.4-1.2,1.4-1.4,1.1c-0.2-0.3,1.2-1.2,0.8-1.9
	c-0.5-0.6-0.9-0.8-0.9-1.1C103.6,174.4,103.6,173.1,103.6,173.1z"/>
<path class="st22" d="M75,170.7c-0.9-0.3-3-1.2-2.5,2.8c0.6,7.1,3.7,6.7,3.7,6.7c-0.2-0.9-0.5-2.5-0.6-4c0.2-1.9-0.3-1.6-0.3-2.3
	c0-0.2,0-0.3,0-0.5C75.2,172.4,75,171.6,75,170.7z"/>
<path class="st25" d="M75.2,173.1c0,0-0.9-1.2-1.7-0.8c-0.8,0.5-0.2,2.8,0.3,4.2c0.6,1.4,1.2,1.4,1.4,1.1c0.2-0.3-1.2-1.2-0.8-1.9
	c0.5-0.6,0.9-0.8,0.9-1.1C75.3,174.4,75.2,173.1,75.2,173.1z"/>
<path class="st23" d="M111.2,182.9c-0.9-5-2.5-13.2-2.5-17.7l-15.8,2.2l-3.3,20.5l-3.3-20.5l-15.8-2.2c0,4.5-1.6,12.7-2.5,17.7
	c-0.5,2.2,1.1,4.2,3.4,4.2l18.2,0.9l18.2-0.9C109.9,187,111.5,184.9,111.2,182.9z"/>
<path class="st20" d="M104.2,171.7c0,11.3-6.5,20.5-14.6,20.5c-8.1,0-14.6-9.2-14.6-20.5c0-11.3,6.5-20.5,14.6-20.5
	C97.7,151.2,104.2,160.4,104.2,171.7z"/>
<path class="st18" d="M89.6,192.2c-3.3,0-6.2-1.4-8.5-3.9c2.2,3.6,5.3,5.7,8.5,5.7c3.3,0,6.4-2.2,8.5-5.7
	C95.7,190.8,92.7,192.2,89.6,192.2z"/>
<path class="st23" d="M105.6,174.2c0.5-0.3-0.2-2-0.2-2.5c-0.2-1.1-0.8-2.2-1.6-3.1c-0.9-1.1-2-2-3.1-3c-3.3-3.1-5.6-7-7.1-11
	c0-0.2-0.6-1.2-0.5-1.4c-3.4,5.3-8.5,9.8-14,13.2c-3.1,2-6.2,3.9-7.1,7.6c0-1.4-0.8-2.6-1.1-3.9c-0.3-1.6-0.5-3.1-0.5-4.8
	c0-11.3,8.5-20.7,19.1-20.7c4.5,0,6.4,2.8,6.4,2.8s3-0.6,5.9,2c4.2,3.7,6.8,9.5,6.8,15.8C108.7,168.2,108.1,172.1,105.6,174.2z"/>
<path class="st23" d="M87.3,159.9c-5,4.2-11.5,14.1-11.3,19.6c0.2,5.4,0.2,5.4,0.2,5.4l-5.7-4.8l2-13.7l3.9-4L87.3,159.9z"/>
<path class="st23" d="M99.2,164l0.2,0.2c2.8,3.1,4.5,10.6,3.9,14.9c-0.6,4.3,0.3,5.4,0.3,5.4l3.9-6.7l-0.5-13.5l-6.2-2.9L99.2,164z"
	/>
<path class="st20" d="M109.3,201.9c15.8-11.8,35.1,42.2,35.6,57c0.6,14.8-9.5,1.6-22.1-19.3C110.3,218.9,103.1,206.5,109.3,201.9z"
	/>
<path class="st20" d="M137.9,251.9c16-3.1,6.7,48.1,0.8,60.4c-5.9,12.1-7.1-2.5-7.3-24.4C131.4,266,131.5,253.1,137.9,251.9z"/>
<path class="st20" d="M136.7,311.2c6.1,0.2,4.7,10.6,4,14.1c-1.1,5.7-6.7,11.8-8.9,11.3c-2.3-0.3,0.8-13.4,0.3-14
	c-0.5-0.5-2.6,5.6-4.7,5.1c-2.2-0.6-0.3-9.2,1.7-12.3C131.1,312.6,132.8,311.2,136.7,311.2z"/>
<path class="st19" d="M60.7,283.5c0,0-9.6,14.4-8.5,32.9c1.2,18.5,15.4,107.5,22.5,134.2l16.9-2l1.9-128c0,0,26.9,39.8,26.9,43.3
	c0,3.6-1.6,80.7-1.6,80.7l16.1,1.6c0,0,19.4-68.9,15.4-89.4c-5.9-29.7-17.4-46.7-30.7-73.3C102,249.1,60.7,283.5,60.7,283.5z"/>
<path class="st16" d="M90.1,206.2c0,0,12.3,1.7,15.4-10.2c0,0,16.1,0.2,25.9,19.6c0,0-8.4,8.9-15.7,14.1c0,0-2-4-2.3-3.6
	c-0.3,0.5-6.1,29.3,6.2,57.6c0,0-12.4,2.6-28.7,2.6h-1.1c-16.3,0-28.7-2.6-28.7-2.6c12.1-28.3,4-62,3.7-62.4
	c-0.3-0.5-6.4,3.6-6.4,3.6c-7.3-5.1-11-19.6-11-19.6c13-7,27.8-9.2,27.8-9.2C77.8,207.9,90.1,206.2,90.1,206.2z"/>
<path class="st24" d="M137.7,263.2l-33.5-17.5c-0.9-0.5-1.6-1.4-1.7-2.3l-4.7-37.6c-0.3-2.6-3.4-3.7-5.3-1.9l-27,26.6
	c-0.8,0.8-1.7,1.1-2.8,0.8l-37.1-7.3c-2.5-0.5-4.5,2.2-3.4,4.5L39,262.3c0.5,0.9,0.5,2,0,3l-18.3,33.1c-1.2,2.3,0.6,5,3.3,4.7
	l37.4-5.6c1.1-0.2,2,0.2,2.8,0.9l25.8,27.6c1.7,1.9,5,0.9,5.4-1.6l6.2-37.3c0.2-1.1,0.8-1.9,1.7-2.3l34.3-16
	C140.1,267.7,140.1,264.4,137.7,263.2z"/>
<path class="st24" d="M92.2,327.8c-1.1,0-2-0.5-2.8-1.2l-25.8-27.6c-0.5-0.6-1.2-0.8-2-0.8l-37.6,5.6c-1.6,0.2-3-0.5-3.7-1.7
	c-0.8-1.2-0.9-2.8-0.2-4.2l18.3-32.9c0.3-0.6,0.5-1.6,0-2.2l-16.8-33.9c-0.6-1.4-0.5-2.9,0.5-4c0.9-1.2,2.3-1.7,3.9-1.4l37.1,7.3
	c0.8,0.2,1.6-0.2,2.2-0.6l27-26.4c1.1-1.1,2.6-1.4,4-0.9s2.3,1.7,2.6,3.3l4.7,37.6c0.2,0.8,0.6,1.4,1.2,1.9l33.5,17.5
	c1.4,0.6,2.2,2,2.2,3.6c0,1.6-0.9,2.8-2.3,3.4L104,286c-0.8,0.3-1.2,0.9-1.4,1.7L96.4,325c-0.3,1.6-1.2,2.6-2.8,3.1
	C93,327.6,92.5,327.8,92.2,327.8z M61.8,296.6c1.1,0,2.2,0.5,2.8,1.2l25.9,27.6c0.6,0.6,1.6,0.9,2.3,0.6c0.9-0.3,1.6-0.9,1.7-1.9
	l6.2-37.3c0.2-1.2,1.1-2.3,2.2-3l34.3-16c0.8-0.3,1.4-1.2,1.4-2c0-0.9-0.5-1.7-1.2-2.2l-33.5-17.5c-1.1-0.6-1.9-1.7-2-2.9l-4.7-37.6
	c-0.2-0.9-0.6-1.7-1.6-1.9c-0.9-0.3-1.7-0.2-2.5,0.5l-27,26.4c-0.9,0.9-2.2,1.2-3.4,1.1l-37.1-7.3c-0.9-0.2-1.7,0.2-2.3,0.9
	c-0.6,0.8-0.6,1.7-0.3,2.5l16.8,33.9c0.6,1.1,0.5,2.5-0.2,3.6l-18.3,33.1c-0.5,0.8-0.5,1.7,0.2,2.5c0.5,0.8,1.4,1.1,2.3,0.9
	l37.4-5.6C61.5,296.6,61.6,296.6,61.8,296.6z"/>
<path class="st20" d="M14.1,237.9c-13.8,8.7,28.4,39.4,41,44.3c12.6,4.8,3.6-6.8-11.5-22.7C28.6,243.6,19.6,234.5,14.1,237.9z"/>
<path class="st20" d="M57.9,278.1c-4.8,3.7,2.5,11.3,5.1,13.8c4.2,4,12.3,5.6,13.8,3.9c1.7-1.7-8.5-10.2-8.5-11
	c0-0.6,5.4,3.1,6.8,1.4c1.4-1.7-5.1-7.6-8.5-8.9C63.2,276.1,61,275.9,57.9,278.1z"/>
</svg>
