<?xml version="1.0" encoding="utf-8"?>
<!-- Generator: Adobe Illustrator 24.0.0, SVG Export Plug-In . SVG Version: 6.00 Build 0)  -->
<svg version="1.1" id="Layer_1" xmlns="http://www.w3.org/2000/svg" xmlns:xlink="http://www.w3.org/1999/xlink" x="0px" y="0px"
	 viewBox="0 0 715 500" style="enable-background:new 0 0 715 500;" xml:space="preserve">
<style type="text/css">
	.st0{fill:#E4E4E4;}
	.st1{fill:#C2C2C2;}
	.st2{fill:#898989;}
</style>
<g>
	<path class="st0" d="M663.2,301.3c13.5-13.5,13.5-35.3,0-48.8c-13.5-13.5-35.3-13.5-48.8,0c-13.5,13.5-13.5,35.3,0,48.8
		C627.9,314.8,649.7,314.8,663.2,301.3z"/>
	<path class="st0" d="M368.6,171.6c12.9,0,23.3-10.4,23.3-23.3c0-12.9-10.4-23.3-23.3-23.3c-12.9,0-23.3,10.4-23.3,23.3
		C345.3,161.2,355.8,171.6,368.6,171.6z"/>
	<path class="st0" d="M183.9,159.2c6.4,0,11.6-5.2,11.6-11.6c0-6.4-5.2-11.6-11.6-11.6c-6.4,0-11.6,5.2-11.6,11.6
		C172.2,153.9,177.4,159.2,183.9,159.2z"/>
	<path class="st1" d="M477.9,227.4c3-18.8-9.8-36.5-28.5-39.5c-18.8-3-36.5,9.8-39.5,28.6c-3,18.8,9.8,36.5,28.5,39.5
		C457.2,258.9,474.9,246.2,477.9,227.4z"/>
	<path class="st2" d="M169.6,211.2c-1.1-1.7-2.3-3.4-3.3-4.5c-2.2-2.8-5.1-5.3-8.5-6.2c-5.1-1.4-12.9,1.2-10.7,7.9
		c0.8,2.5,3,4,5.3,5.3c2.5,1.4,20.7,11,20,3.7C172.1,215.7,170.8,213.4,169.6,211.2z"/>
</g>
</svg>
