<?xml version="1.0" encoding="utf-8"?>
<!-- Generator: Adobe Illustrator 24.0.0, SVG Export Plug-In . SVG Version: 6.00 Build 0)  -->
<svg version="1.1" id="Layer_1" xmlns="http://www.w3.org/2000/svg" xmlns:xlink="http://www.w3.org/1999/xlink" x="0px" y="0px"
	 viewBox="0 0 648 570" style="enable-background:new 0 0 648 570;" xml:space="preserve">
<style type="text/css">
	.st0{fill:#B8B8B8;}
	.st1{opacity:0.4;fill:#B8B8B8;enable-background:new    ;}
	.st2{opacity:0.7;}
	.st3{opacity:0.7;fill:#9C9C9C;enable-background:new    ;}
	.st4{fill:#939393;}
	.st5{opacity:0.7;fill:#AAAAAA;enable-background:new    ;}
	.st6{fill:#FD9F00;filter:url(#Adobe_OpacityMaskFilter);}
	.st7{mask:url(#mask0_1_);}
	.st8{fill:#AAAAAA;}
	.st9{fill:#C3C3C3;}
	.st10{fill:#FD9F00;filter:url(#Adobe_OpacityMaskFilter_1_);}
	.st11{mask:url(#mask1_1_);}
	.st12{fill:#FD9F00;filter:url(#Adobe_OpacityMaskFilter_2_);}
	.st13{mask:url(#mask2_1_);}
	.st14{fill:#A6A6A6;}
	.st15{opacity:0.2;}
	.st16{opacity:0.2;enable-background:new    ;}
	.st17{opacity:0.2;filter:url(#Adobe_OpacityMaskFilter_3_);enable-background:new    ;}
	.st18{mask:url(#mask3_1_);}
	.st19{fill:#B9B9B9;filter:url(#Adobe_OpacityMaskFilter_4_);}
	.st20{mask:url(#mask4_1_);}
	.st21{fill:#B9B9B9;}
	.st22{fill:#B9B9B9;filter:url(#Adobe_OpacityMaskFilter_5_);}
	.st23{mask:url(#mask5_1_);}
	.st24{fill:#B9B9B9;filter:url(#Adobe_OpacityMaskFilter_6_);}
	.st25{mask:url(#mask6_1_);}
	.st26{fill:#B9B9B9;filter:url(#Adobe_OpacityMaskFilter_7_);}
	.st27{mask:url(#mask7_1_);}
	.st28{fill:#B9B9B9;filter:url(#Adobe_OpacityMaskFilter_8_);}
	.st29{mask:url(#mask8_1_);}
	.st30{fill:#B9B9B9;filter:url(#Adobe_OpacityMaskFilter_9_);}
	.st31{mask:url(#mask9_1_);}
	.st32{fill:#B9B9B9;filter:url(#Adobe_OpacityMaskFilter_10_);}
	.st33{mask:url(#mask10_1_);}
	.st34{opacity:0.5;fill:#A7A7A7;enable-background:new    ;}
	.st35{fill:#A6A6A6;filter:url(#Adobe_OpacityMaskFilter_11_);}
	.st36{mask:url(#mask11_1_);}
	.st37{fill:#D3D3D3;}
	.st38{fill:#DFDFDF;}
	.st39{fill:#FFE1BD;}
	.st40{fill:#B1B1B1;}
	.st41{fill:#3A3A3A;}
	.st42{fill:#454545;}
	.st43{fill:#787878;}
	.st44{fill:#282828;}
	.st45{fill:#ED9C80;}
	.st46{fill:#656565;}
	.st47{opacity:0.4;fill:#E3E3E3;enable-background:new    ;}
	.st48{fill:#FD9F00;filter:url(#Adobe_OpacityMaskFilter_12_);}
	.st49{mask:url(#mask12_1_);}
	.st50{fill:#FD9F00;filter:url(#Adobe_OpacityMaskFilter_13_);}
	.st51{mask:url(#mask13_1_);}
	.st52{fill:#FD9F00;filter:url(#Adobe_OpacityMaskFilter_14_);}
	.st53{mask:url(#mask14_1_);}
	.st54{fill:#9A9A9A;}
	.st55{fill:#C9C9C9;}
	.st56{display:none;}
	.st57{display:inline;fill:#CECECE;}
	.st58{display:inline;}
	.st59{fill:#CECECE;}
	.st60{display:inline;fill:#B8B8B8;}
	.st61{opacity:0.4;fill:#D3D3D3;enable-background:new    ;}
	.st62{fill:#C2C2C2;}
	.st63{fill:#E6E6E6;}
	.st64{fill:#594A5F;}
	.st65{fill:#323232;}
	.st66{fill:#B2B2B2;}
	.st67{opacity:0.5;fill:#737373;enable-background:new    ;}
	.st68{fill:#FFB127;}
	.st69{fill:#D02E1B;}
	.st70{opacity:0.5;fill:#FFB127;enable-background:new    ;}
	.st71{opacity:0.5;fill:#6E6E6E;enable-background:new    ;}
	.st72{opacity:0.5;}
	.st73{opacity:0.5;fill:#D02E1B;enable-background:new    ;}
	.st74{fill:#F43E29;}
	.st75{fill:#F8BD36;}
	.st76{opacity:0.4;}
	.st77{opacity:0.4;fill:#FFFFFF;enable-background:new    ;}
	.st78{opacity:0.5;fill:#FFFFFF;enable-background:new    ;}
	.st79{fill:#FFFFFF;}
	.st80{opacity:0.4;fill:#DEDEDE;enable-background:new    ;}
	.st81{fill:#2B2B2B;}
	.st82{fill:#353535;}
	.st83{fill:#B6B6B6;}
</style>
<path class="st0" d="M210.7,467.4c0,0.4,0,0.8,0,1c-0.2-0.6-0.4-1.4-0.4-1.9c-1.9-5.2-4.3-10.5-6.8-15.3c-0.6-1-1.2-1.9-1.5-2.9
	c-2.5-0.8-8.5-0.8-10.1-1.2c-3.3-0.8-7.6-1.7-10.5-3.7c-1.2-0.8-4.1-3.7-2.9-5.4c1.4-1.9,7.4,1.4,8.9,2.1c3.3,1.7,6.2,4.1,9.5,5.4
	c1.5,0.6,3.3,1.2,4.6,1.9c-2.5-4.5-5.2-8.7-8.1-12.8c-2.5-0.8-8.7-0.8-10.3-1.4c-3.3-0.8-7.6-1.7-10.5-3.7c-1.2-0.8-4.1-3.7-2.9-5.4
	c1.4-1.9,7.4,1.4,8.9,2.1c3.3,1.7,6.2,4.1,9.5,5.4c1.5,0.6,3.1,1.2,4.6,1.9c-3.3-4.3-6.6-8.3-10.5-12.2c-2.5-2.5-5.2-5-8.1-7.4
	c-2.9,0.4-6.8,1.4-8.1,1.4c-3.5,0-7.7,0.4-11-0.8c-1.4-0.4-5-2.5-4.1-4.5c1-2.1,7.6-0.8,9.1-0.4c3.5,1,7,2.3,10.6,2.7
	c0.6,0,1.4,0.2,1.9,0.2c-3.9-3.1-7.9-5.8-12.2-8.3c-1.2,0.4-2.5,0.6-3.7,0.8c-3.1,0.6-6,2.1-8.9,3.1c-1.4,0.4-6.8,2.1-7.7,0.4
	c-0.8-1.5,2.1-3.5,3.3-4.1c2.7-1.2,6.4-1.2,9.3-1.4c1,0,4.1,0.4,6.6,0.6c-1.9-1.2-4.1-2.3-6.2-3.3c-3.3-1.5-6.8-3.1-10.3-4.3
	c-1.4,0.6-2.9,0.8-4.5,1c-3.1,0.6-6,2.1-8.9,3.1c-1.4,0.4-6.8,2.1-7.7,0.4c-0.8-1.5,2.1-3.5,3.3-4.1c2.7-1.2,6.4-1.2,9.3-1.4
	c1.2,0,5,0.6,7.6,0.6c-4.6-1.5-9.5-2.9-14.3-3.9c-1.2,0.4-2.7,0.6-3.9,0.8c-3.1,0.6-6,1.9-8.9,2.9c-1.4,0.4-7,1.9-7.7,0.2
	c-0.8-1.5,2.1-3.5,3.3-3.9c2.7-1.2,6.4-1.2,9.3-1.2c0.4,0,1,0,1.7,0.2c2.5,0,5,0.2,7.5,0.6c0,0,0.2,0,0.2-0.2c0,0-0.2,0-0.2,0.2
	c3.5,0.4,7,1,10.3,1.9c-1-0.8-1.9-1.7-2.9-2.5c-2.3-2.1-5.2-3.5-7.7-5.2c-1.2-0.8-5.8-4.3-4.8-6c0.8-1.5,4.1-0.4,5.2,0.2
	c2.5,1.4,4.8,4.5,6.8,6.6c1,1.2,3.1,5.4,4.6,7.2c3.1,0.8,6.4,1.7,9.3,2.9c-1.2-1-1.9-2.3-2.9-3.5c-1.9-2.3-4.6-4.3-7-6.4
	c-1-1-5-5-3.9-6.8c1-1.5,4.1,0.2,5,1c2.3,1.7,4.1,5,5.6,7.6c0.8,1.4,2.5,6.6,3.7,8.1c1.2,0.4,2.5,1,3.7,1.5c5,2.1,9.9,4.8,14.5,7.9
	c-0.2-0.8-0.6-1.7-0.8-2.5c-1-3.1-2.7-5.6-3.9-8.5c-0.6-1.4-2.7-6.6-1.2-7.7c1.5-1,3.7,1.7,4.3,2.9c1.4,2.5,1.9,6.2,2.3,9.1
	c0.2,1.2,0,5,0,7.6c4.5,3.1,8.7,6.4,12.6,10.1c-0.4-1-0.8-1.9-1.2-2.9c-1-2.3-2.1-4.5-3.5-6.6c-1.9-3.3-4.3-6.6-7.2-9.1
	c-1.4-1.4-0.2-3.7,1.7-3.5h0.2c3.1,0.8,5,3.9,6.4,6.8c1.2,2.1,7.2,13.9,5.8,17.6c4.3,4.5,8.3,9.1,11.8,14.1c-1-2.9-2.5-5.4-3.9-8.3
	c-0.6-1.4-2.7-6.6-1-7.7c1.5-1,3.7,1.7,4.3,2.9c1.4,2.5,1.9,6.2,2.3,9.1c0.2,1,0,4.3,0,6.8c2.7,4.1,5,8.3,7.2,12.8
	c0-0.6,0-1.2,0-1.7c-0.2-3.1-1.2-6.2-1.5-9.3c-0.2-1.4-1-7.2,1-7.7c1.7-0.6,3.1,2.7,3.5,3.9c0.8,2.9,0.2,6.6,0,9.5
	c-0.2,1.2-1.4,4.8-1.7,7.4c1.5,3.5,2.9,6.8,4.3,10.5c0-2.7-0.6-5.6-0.8-8.3c-0.2-1.4-0.6-7.2,1.5-7.6c1.7-0.4,2.9,2.9,3.1,4.1
	c0.6,2.9-0.2,6.6-0.8,9.3c-0.2,1-1.2,3.5-1.9,5.6c2.1,6.8,9.5,12.6,10.5,19.4C220.5,478,212.8,473.2,210.7,467.4z"/>
<path class="st1" d="M554.5,497.6c0,6.6-105.9,11-236.4,9.9c-56.7-0.4-108.6-1.9-149.3-3.9c-33.1-2.7-45.5-2.7-62-4.3
	c-3.9-0.4,3.3,0.4,0,0c-16.1-1.7-25-3.7-25-5.4c0-6.6,105.9-11,236.4-9.9C448.8,485,554.7,491.2,554.5,497.6z"/>
<path class="st0" d="M264.3,455c0,0.2-0.4-9.9-15.5-18.6c-15.3-9.5-46.9-6.2-51.5-15.9c-4.8-10.5,15.3-9.1,23.4-17.6
	c8.1-8.5,10.8-12.6-1.2-14.1c-12-1.5-19.4-2.1-19.7-12c-0.6-10.1-19.9-4.1-30.2-10.6c-10.6-6.8-5.6-16.8,13.6-17.4
	c19-0.2,19.4-3.3,13.7-5.8c-5.4-2.5-22.3-6.6-15.7-12c6.8-5.6,17.6-1.5,11.6-7.7c-5.8-6.2-19.4-10.1-13.4-17.4
	c6-7.6,22.5-7.7,32.9,10.1c10.3,17.8,13.6,22.8,22.8,24.2c8.9,1.5,16.8-8.5,27.9-5.2c11,3.5,9.7,13.9,3.5,21.1
	c-6.2,7.4-16.5,21.7-9.3,27.3c6.8,5.8,14.1-3.9,23.4-6c10.3-2.5,22.8,5.8,13.7,20.7c-9.3,14.7-24.4,26.7-22.8,59.4
	C269.5,456.5,267,455.6,264.3,455z"/>
<g class="st2">
	<path class="st3" d="M268.7,456.7c-0.2,0-0.6-0.2-0.6-0.4c-32.1-111.5-79.2-150-79.8-150.4c-0.2-0.2-0.2-0.6,0-0.8
		c0.2-0.2,0.6-0.2,0.8,0c0.4,0.4,47.8,39.3,80.2,151C269.3,456.3,269.1,456.7,268.7,456.7z"/>
</g>
<g class="st2">
	<path class="st3" d="M217.4,340.4c-0.2,0-0.2,0-0.4,0c-14.9-8.3-31.4-7.2-31.6-7.2c-0.4,0-0.6-0.2-0.6-0.6c0-0.4,0.2-0.6,0.6-0.6
		c0.2,0,17-1.4,32.3,7.4c0.2,0.2,0.4,0.6,0.2,0.8C217.8,340.2,217.6,340.2,217.4,340.4z"/>
</g>
<g class="st2">
	<path class="st3" d="M235.8,371.9c-0.2,0-0.4,0-0.4,0c-0.2-0.2-0.4-0.6-0.2-0.8c0.2-0.2,12-16.6,28.7-31.6c0.2-0.2,0.6-0.2,0.8,0
		c0.2,0.2,0.2,0.6,0,0.8c-16.5,14.7-28.3,31.2-28.5,31.4C236.2,371.7,236,371.9,235.8,371.9z"/>
</g>
<g class="st2">
	<path class="st3" d="M232.1,365h-0.2c-26.9-7.7-56.1-5.2-56.3-5.2c-0.4,0-0.6-0.2-0.6-0.6s0.2-0.6,0.6-0.6c0.4,0,29.6-2.5,56.7,5.2
		c0.4,0,0.4,0.4,0.4,0.8C232.5,364.8,232.3,364.8,232.1,365z"/>
</g>
<g class="st2">
	<path class="st3" d="M257.5,421.7h-0.2c-18.6-6.6-48.8-4.8-49-4.8c-0.4,0-0.6-0.2-0.6-0.6s0.2-0.6,0.6-0.6c0.4,0,30.6-1.7,49.4,4.8
		c0.4,0.2,0.4,0.4,0.4,0.8C257.7,421.5,257.7,421.7,257.5,421.7z"/>
</g>
<g class="st2">
	<path class="st3" d="M260.2,429.4H260c-0.4,0-0.4-0.4-0.4-0.8c6-23,25.9-42.6,26.1-42.8s0.6-0.2,0.8,0c0.2,0.2,0.2,0.6,0,0.8
		c-0.2,0.2-19.7,19.6-25.7,42.2C260.6,429.2,260.4,429.4,260.2,429.4z"/>
</g>
<path class="st4" d="M239.3,436.2c0,0,1-40.5-31-44.1c-31.9-3.7-20.3,42.4-6.8,57.5c0,0-17.8-20.9-29.6-6.8
	c-11.8,14.1,21.3,30.2,21.3,30.2s-26.5-8.9-33.9-2.9c-9.5,7.9,4.5,17.4,4.5,17.4s-24.6-9.5-18.6,10.8l136.5-0.4L239.3,436.2z"/>
<path class="st0" d="M406,429.4c0.2,0.2,0.2,0.4,0.2,0.6c0-0.6,0-1-0.2-1.5c0-4.1,0-8.1,0.4-12.2c0-0.8,0.2-1.7,0.2-2.5
	c1.5-1.2,5.6-2.9,6.6-3.5c1.9-1.4,4.6-3.1,6-5.2c0.6-0.8,1.7-3.7,0.4-4.5c-1.5-1-4.6,2.9-5.4,3.9c-1.7,2.1-3.1,4.5-5,6.2
	c-1,0.8-1.9,1.5-2.5,2.5c0.4-3.7,1.2-7.4,2.1-10.8c1.5-1.2,5.6-2.9,6.6-3.7c1.9-1.4,4.6-3.1,6-5.2c0.6-0.8,1.7-3.7,0.4-4.5
	c-1.5-1-4.6,2.9-5.4,3.9c-1.7,2.1-3.1,4.5-5,6.2c-0.8,0.8-1.9,1.5-2.5,2.5c1-3.7,2.1-7.4,3.7-11c1-2.5,2.1-4.8,3.5-7.2
	c2.1-0.6,5-1,5.8-1.4c2.3-0.8,5.4-1.7,7.2-3.5c0.8-0.8,2.7-2.9,1.5-4.1c-1.2-1.4-5.2,1.5-6.2,2.1c-2.1,1.5-4.1,3.5-6.4,4.6
	c-0.4,0.2-0.8,0.4-1.4,0.6c1.7-3.1,3.9-6.2,6-8.9c1,0,1.7-0.4,2.7-0.4c2.3-0.4,4.6-0.2,7-0.4c1,0,5.2-0.4,5.4-1.9
	c0-1.4-2.5-1.7-3.3-1.9c-2.1,0-4.6,1-6.8,1.5c-0.8,0.2-2.7,1.4-4.3,2.1c1-1.4,2.1-2.7,3.3-3.9c1.7-1.9,3.7-3.9,5.8-5.6
	c1.2,0,2.3-0.2,3.3-0.4c2.3-0.4,4.6-0.2,7-0.4c1,0,5.2-0.4,5.4-1.9c0-1.4-2.5-1.7-3.3-1.9c-2.1,0-4.6,1-6.8,1.5
	c-0.8,0.2-3.3,1.7-5,2.5c2.7-2.3,5.6-4.5,8.7-6.4c1,0,1.9-0.4,2.9-0.6c2.3-0.4,4.6-0.2,6.8-0.4c1,0,5.2-0.4,5.2-1.9
	c0-1.4-2.5-1.7-3.3-1.7c-2.1,0-4.6,1-6.6,1.7c-0.2,0-0.8,0.4-1.2,0.6c-1.7,0.8-3.3,1.5-5,2.3h-0.2h0.2c-2.3,1.2-4.5,2.5-6.4,4.1
	c0.6-0.8,0.8-1.5,1.2-2.5c1-2.1,2.5-3.7,3.9-5.6c0.6-0.8,2.9-4.5,1.7-5.4c-1-1-2.9,0.8-3.5,1.5c-1.4,1.7-2.1,4.3-2.7,6.2
	c-0.4,1-0.6,4.6-1.2,6.2c-1.9,1.4-3.9,2.9-5.6,4.5c0.6-1,0.8-2.1,1.2-3.1c0.8-2.1,1.9-4.1,2.9-6.2c0.4-1,2.1-4.8,0.8-5.6
	c-1.2-0.8-2.7,1.2-3.1,1.9c-1.2,1.9-1.4,4.5-1.7,6.6c-0.2,1.2,0.2,5-0.2,6.6c-0.8,0.6-1.4,1.4-2.1,1.9c-2.9,2.9-5.4,6-7.7,9.3
	c0-0.6-0.2-1.4-0.2-1.9c-0.2-2.3,0.2-4.6,0.2-6.8c0-1,0-5.2-1.4-5.4c-1.4-0.2-2.1,2.1-2.1,3.1c-0.2,2.1,0.4,4.8,1,6.8
	c0.2,0.8,1.4,3.3,1.9,5.2c-2.1,3.3-4.1,6.6-5.8,10.3c0-0.8,0-1.5,0-2.3c0-1.7,0.2-3.7,0.6-5.4c0.4-2.7,1.2-5.6,2.3-8.1
	c0.6-1.4-1-2.7-2.1-1.9c0,0,0,0-0.2,0c-1.9,1.4-2.3,4.1-2.5,6.4c-0.2,1.7-1.2,11.4,1,13.6c-1.7,4.1-3.1,8.3-4.1,12.8
	c-0.2-2.1,0.2-4.5,0.2-6.6c0-1,0-5.2-1.4-5.4c-1.4-0.2-2.1,2.1-2.1,3.1c-0.2,2.1,0.4,4.8,1,6.8c0.2,0.8,1.2,2.9,1.7,4.6
	c-0.8,3.5-1.2,7-1.4,10.6c-0.2-0.4-0.4-0.8-0.4-1.2c-0.8-2.1-1-4.5-1.4-6.8c-0.2-1-1.2-5-2.7-5c-1.4,0-1.4,2.7-1.4,3.5
	c0.2,2.1,1.5,4.5,2.7,6.4c0.4,0.8,2.1,2.9,3.3,4.5c-0.2,2.7-0.2,5.4,0,8.1c-0.8-1.9-1.2-3.9-1.7-5.8c-0.4-1-1.5-5-3.1-4.8
	c-1.4,0.2-1.2,2.7-1,3.7c0.4,2.1,1.9,4.3,3.1,6.2c0.4,0.6,1.7,1.9,2.9,3.3c0.4,5-3.1,11-1.7,16.1C402.3,439.1,406.2,433.9,406,429.4
	z"/>
<path class="st0" d="M362.6,455.6c0.2,0-3.3-9.3,7.4-23c10.6-14.3,41.2-23,41.8-33.9c0.6-11.4-17.6-2.9-28.3-7.7
	c-10.8-4.8-14.7-7.6-4.3-13.6c10.6-5.8,17-9.1,13.9-18.4c-3.1-9.5,17-11,24-21.1c7.4-10.1-1-17.6-19.2-11c-17.6,7-19.2,4.3-14.9-0.4
	c4.3-4.5,18.2-14.3,10.1-17c-8.5-2.7-17,5-13.7-2.9c3.1-7.9,14.1-16.5,6-21.1c-8.3-4.6-23.8,1.2-26.9,21.7
	c-2.9,20.3-4.3,26.1-12.2,31c-7.7,4.8-18.8-1.7-27.9,5.6c-8.9,7.4-3.7,16.5,4.6,20.9c8.5,4.5,23.2,13.9,18.8,21.9
	c-4.3,7.9-14.5,1.7-24,3.1c-10.5,1.5-19,13.7-5,24.4c14.1,10.3,32.7,15.9,43.4,46.7C358.4,459,360.3,457.3,362.6,455.6z"/>
<g class="st2">
	<path class="st5" d="M359.1,459c0.2,0,0.4-0.4,0.4-0.6c-11.4-115.4,17.8-168.8,18.2-169.4c0.2-0.2,0-0.6-0.2-0.8
		c-0.2-0.2-0.6,0-0.8,0.2c-0.4,0.6-29.8,54.2-18.4,170C358.6,458.9,358.8,459,359.1,459z"/>
</g>
<g class="st2">
	<path class="st5" d="M363.6,331.8c0.2,0,0.2,0,0.4-0.2c10.6-13.4,26.5-18.2,26.7-18.4c0.4,0,0.4-0.4,0.4-0.8s-0.4-0.4-0.8-0.4
		c-0.2,0-16.3,5.2-27.3,18.8c-0.2,0.2-0.2,0.6,0,0.8C363.2,331.8,363.4,331.8,363.6,331.8z"/>
</g>
<g class="st2">
	<path class="st5" d="M358.2,368c0.2,0,0.2-0.2,0.4-0.2c0.2-0.2,0-0.6-0.2-0.8c-0.2-0.2-17.4-11-38.3-18.6c-0.2-0.2-0.6,0-0.8,0.4
		c-0.2,0.4,0,0.6,0.4,0.8c20.7,7.6,37.9,18.4,37.9,18.6C357.8,368,358,368,358.2,368z"/>
</g>
<g class="st2">
	<path class="st5" d="M358.9,360.1c0,0,0.2,0,0.2-0.2c22.3-17.2,50.1-25.8,50.3-25.8c0.4,0,0.4-0.4,0.4-0.8s-0.4-0.4-0.8-0.4
		c-0.2,0-28.5,8.7-50.7,25.9c-0.2,0.2-0.4,0.6-0.2,0.8C358.6,360.1,358.8,360.1,358.9,360.1z"/>
</g>
<g class="st2">
	<path class="st5" d="M356.6,422.3c0,0,0.2,0,0.2-0.2c14.9-13,43.4-22.5,43.8-22.7c0.4-0.2,0.4-0.4,0.4-0.8
		c-0.2-0.4-0.4-0.4-0.8-0.4c-0.2,0-29,9.7-44.1,22.8c-0.2,0.2-0.2,0.6,0,0.8C356.2,422.3,356.4,422.3,356.6,422.3z"/>
</g>
<g class="st2">
	<path class="st5" d="M357,430.4c0,0,0.2,0,0.2-0.2c0.2-0.2,0.4-0.6,0.2-0.8c-14.1-19.2-39.9-29.8-40.1-30c-0.2-0.2-0.6,0-0.8,0.4
		c-0.2,0.2,0,0.6,0.4,0.8c0.2,0.2,25.6,10.6,39.7,29.6C356.6,430.4,356.8,430.4,357,430.4z"/>
</g>
<path class="st4" d="M365.7,426.3c0,0-1-40.5,31-44.1c31.9-3.7,20.3,42.4,6.8,57.5c0,0,17.8-20.9,29.6-6.8
	c11.8,14.1-21.3,30.2-21.3,30.2s26.5-8.9,33.9-2.9c9.5,7.9-8.5,19.4-8.5,19.4s28.7-11.4,22.7,8.9l-136.5-0.4L365.7,426.3z"/>
<defs>
	<filter id="Adobe_OpacityMaskFilter" filterUnits="userSpaceOnUse" x="117.9" y="481.7" width="66.4" height="20.3">
		<feColorMatrix  type="matrix" values="1 0 0 0 0  0 1 0 0 0  0 0 1 0 0  0 0 0 1 0"/>
	</filter>
</defs>
<mask maskUnits="userSpaceOnUse" x="117.9" y="481.7" width="66.4" height="20.3" id="mask0_1_">
	<path class="st6" d="M184.3,486.9v7.9c0,2.7-14.9,5-33.1,5c-18.2,0-33.1-2.3-33.1-5v-7.9H184.3z"/>
</mask>
<g class="st7">
	<path class="st8" d="M184.3,486.9v7.9c0,2.7-14.9,5-33.1,5c-18.2,0-33.1-2.3-33.1-5v-7.9H184.3z"/>
	<path class="st4" d="M183.5,483.6H182V502h1.5V483.6z"/>
	<path class="st4" d="M179.5,483.6h-1.5V502h1.5V483.6z"/>
	<path class="st4" d="M174.8,483.6h-1.5V502h1.5V483.6z"/>
	<path class="st4" d="M169,483.6h-1.5V502h1.5V483.6z"/>
	<path class="st4" d="M162.6,483.6h-1.5V502h1.5V483.6z"/>
	<path class="st4" d="M155.7,483.6h-1.5V502h1.5V483.6z"/>
	<path class="st4" d="M120.2,483.6h-1.5V502h1.5V483.6z"/>
	<path class="st4" d="M124.3,483.6h-1.5V502h1.5V483.6z"/>
	<path class="st4" d="M128.9,483.6h-1.5V502h1.5V483.6z"/>
	<path class="st4" d="M134.7,483.6h-1.5V502h1.5V483.6z"/>
	<path class="st4" d="M141.1,483.6h-1.5V502h1.5V483.6z"/>
	<path class="st4" d="M148.1,483.6h-1.5V502h1.5V483.6z"/>
	<path class="st9" d="M117.9,486.7c0,2.7,14.9,5,33.1,5s33.1-2.3,33.1-5c0-2.7-14.9-5-33.1-5S117.9,484,117.9,486.7z"/>
	<path class="st8" d="M124.7,486.1c0,1.4,11.8,2.3,26.3,2.3c14.5,0,26.3-1,26.3-2.3c0-1.4-11.8-2.3-26.3-2.3
		C136.5,483.8,124.7,485,124.7,486.1z"/>
</g>
<defs>
	<filter id="Adobe_OpacityMaskFilter_1_" filterUnits="userSpaceOnUse" x="122.8" y="472.6" width="66.4" height="20.3">
		<feColorMatrix  type="matrix" values="1 0 0 0 0  0 1 0 0 0  0 0 1 0 0  0 0 0 1 0"/>
	</filter>
</defs>
<mask maskUnits="userSpaceOnUse" x="122.8" y="472.6" width="66.4" height="20.3" id="mask1_1_">
	<path class="st10" d="M189.2,477.8v7.9c0,2.7-14.9,5-33.1,5c-18.4,0-33.1-2.3-33.1-5v-7.9H189.2z"/>
</mask>
<g class="st11">
	<path class="st8" d="M189.2,477.8v7.9c0,2.7-14.9,5-33.1,5c-18.4,0-33.1-2.3-33.1-5v-7.9H189.2z"/>
	<path class="st4" d="M188.4,474.5h-1.5v18.4h1.5V474.5z"/>
	<path class="st4" d="M184.3,474.5h-1.5v18.4h1.5V474.5z"/>
	<path class="st4" d="M179.7,474.5h-1.5v18.4h1.5V474.5z"/>
	<path class="st4" d="M173.9,474.5h-1.5v18.4h1.5V474.5z"/>
	<path class="st4" d="M167.5,474.5h-1.5v18.4h1.5V474.5z"/>
	<path class="st4" d="M160.5,474.5H159v18.4h1.5V474.5z"/>
	<path class="st4" d="M125.1,474.5h-1.5v18.4h1.5V474.5z"/>
	<path class="st4" d="M129.1,474.5h-1.5v18.4h1.5V474.5z"/>
	<path class="st4" d="M133.8,474.5h-1.5v18.4h1.5V474.5z"/>
	<path class="st4" d="M139.6,474.5H138v18.4h1.5V474.5z"/>
	<path class="st4" d="M146,474.5h-1.5v18.4h1.5V474.5z"/>
	<path class="st4" d="M153,474.5h-1.5v18.4h1.5V474.5z"/>
	<path class="st9" d="M122.8,477.6c0,2.7,14.9,5,33.1,5c18.4,0,33.1-2.3,33.1-5c0-2.7-14.9-5-33.1-5S122.8,474.9,122.8,477.6z"/>
	<path class="st8" d="M129.5,477c0,1.4,11.8,2.3,26.3,2.3c14.5,0,26.3-1,26.3-2.3s-11.8-2.3-26.3-2.3
		C141.3,474.7,129.5,475.9,129.5,477z"/>
</g>
<defs>
	<filter id="Adobe_OpacityMaskFilter_2_" filterUnits="userSpaceOnUse" x="117.5" y="465.4" width="66.2" height="18.4">
		<feColorMatrix  type="matrix" values="1 0 0 0 0  0 1 0 0 0  0 0 1 0 0  0 0 0 1 0"/>
	</filter>
</defs>
<mask maskUnits="userSpaceOnUse" x="117.5" y="465.4" width="66.2" height="18.4" id="mask2_1_">
	<path class="st12" d="M183.7,468.7v7.9c0,2.7-14.9,5-33.1,5c-18.4,0-33.1-2.3-33.1-5v-7.9H183.7z"/>
</mask>
<g class="st13">
	<path class="st8" d="M183.7,468.7v7.9c0,2.7-14.9,5-33.1,5c-18.4,0-33.1-2.3-33.1-5v-7.9H183.7z"/>
	<path class="st4" d="M183,465.4h-1.5v18.4h1.5V465.4z"/>
	<path class="st4" d="M178.9,465.4h-1.5v18.4h1.5V465.4z"/>
	<path class="st4" d="M174.2,465.4h-1.5v18.4h1.5V465.4z"/>
	<path class="st4" d="M168.4,465.4h-1.5v18.4h1.5V465.4z"/>
	<path class="st4" d="M162.1,465.4h-1.5v18.4h1.5V465.4z"/>
	<path class="st4" d="M155.1,465.4h-1.5v18.4h1.5V465.4z"/>
	<path class="st4" d="M119.6,465.4h-1.5v18.4h1.5V465.4z"/>
	<path class="st4" d="M123.7,465.4h-1.5v18.4h1.5V465.4z"/>
	<path class="st4" d="M128.4,465.4h-1.5v18.4h1.5V465.4z"/>
	<path class="st4" d="M134.2,465.4h-1.5v18.4h1.5V465.4z"/>
	<path class="st4" d="M140.6,465.4H139v18.4h1.5V465.4z"/>
	<path class="st4" d="M147.5,465.4H146v18.4h1.5V465.4z"/>
</g>
<path class="st9" d="M117.3,468.5c0,2.7,14.9,5,33.1,5c18.4,0,33.1-2.3,33.1-5c0-2.7-14.9-5-33.1-5S117.3,465.8,117.3,468.5z"/>
<path class="st8" d="M124.1,468c0,1.4,11.8,2.3,26.3,2.3c14.5,0,26.3-1,26.3-2.3c0-1.4-11.8-2.3-26.3-2.3
	C135.9,465.6,124.1,466.8,124.1,468z"/>
<path class="st4" d="M175.8,468.7c-3.3-1-13.4-1.7-25.2-1.7c-11.8,0-21.9,0.8-25.2,1.7c-0.8-0.2-1.2-0.4-1.2-0.8
	c0-1.4,11.8-2.3,26.3-2.3c14.5,0,26.3,1,26.3,2.3C177,468.3,176.6,468.5,175.8,468.7z"/>
<path class="st14" d="M442.6,475.1v7.9c0,2.7-14.9,5-33.1,5c-18.2,0-33.1-2.3-33.1-5v-7.9H442.6z"/>
<path class="st4" d="M441.8,471.8h-1.5v18.4h1.5V471.8z"/>
<path class="st4" d="M437.7,471.8h-1.5v18.4h1.5V471.8z"/>
<path class="st4" d="M433.1,471.8h-1.5v18.4h1.5V471.8z"/>
<path class="st4" d="M427.3,471.8h-1.5v18.4h1.5V471.8z"/>
<path class="st4" d="M420.9,471.8h-1.5v18.4h1.5V471.8z"/>
<path class="st4" d="M414.3,472.4h-1.9v15.5h1.9V472.4z"/>
<path class="st4" d="M378.5,471.8h-1.5v18.4h1.5V471.8z"/>
<path class="st4" d="M382.7,471.8h-1.5v18.4h1.5V471.8z"/>
<path class="st4" d="M387.4,471.8h-1.5v18.4h1.5V471.8z"/>
<path class="st4" d="M393,471.8h-1.5v18.4h1.5V471.8z"/>
<path class="st4" d="M399.4,471.8h-1.5v18.4h1.5V471.8z"/>
<path class="st4" d="M406.6,472.4h-1.9v15.5h1.9V472.4z"/>
<path class="st9" d="M376.4,475.1c0,2.7,14.9,5,33.1,5c18.2,0,33.1-2.3,33.1-5c0-2.7-14.9-5-33.1-5
	C391.3,470.1,376.4,472.2,376.4,475.1z"/>
<path class="st14" d="M409.5,476.9c14.5,0,26.3-1,26.3-2.3c0-1.3-11.8-2.3-26.3-2.3c-14.5,0-26.3,1-26.3,2.3
	C383.1,475.8,394.9,476.9,409.5,476.9z"/>
<path class="st4" d="M434.6,475.1c-3.3-1-13.4-1.7-25.2-1.7c-11.8,0-21.9,0.8-25.2,1.7c-0.8-0.2-1.2-0.4-1.2-0.8
	c0-1.4,11.8-2.3,26.3-2.3c14.5,0,26.3,1,26.3,2.3C435.8,474.7,435.4,474.9,434.6,475.1z"/>
<path class="st14" d="M447.4,466.2v7.9c0,2.7-14.9,5-33.1,5c-18.4,0-33.1-2.3-33.1-5v-7.9H447.4z"/>
<path class="st4" d="M446.6,462.7h-1.5v18.4h1.5V462.7z"/>
<path class="st4" d="M442.6,462.7H441v18.4h1.5V462.7z"/>
<path class="st4" d="M437.9,462.7h-1.5v18.4h1.5V462.7z"/>
<path class="st4" d="M432.1,462.7h-1.5v18.4h1.5V462.7z"/>
<path class="st4" d="M425.7,462.7h-1.5v18.4h1.5V462.7z"/>
<path class="st4" d="M418.8,462.7h-1.5v18.4h1.5V462.7z"/>
<path class="st4" d="M383.3,462.7h-1.5v18.4h1.5V462.7z"/>
<path class="st4" d="M387.4,462.7h-1.5v18.4h1.5V462.7z"/>
<path class="st4" d="M392.1,462.7h-1.5v18.4h1.5V462.7z"/>
<path class="st4" d="M397.9,462.7h-1.5v18.4h1.5V462.7z"/>
<path class="st4" d="M404.2,462.7h-1.5v18.4h1.5V462.7z"/>
<path class="st4" d="M411.2,462.7h-1.5v18.4h1.5V462.7z"/>
<path class="st9" d="M381.2,466c0,2.7,14.9,5,33.1,5c18.4,0,33.1-2.3,33.1-5c0-2.7-14.9-5-33.1-5C395.9,461,381.2,463.1,381.2,466z"
	/>
<path class="st14" d="M388,465.4c0,1.4,11.8,2.3,26.3,2.3c14.5,0,26.3-1,26.3-2.3c0-1.4-11.8-2.3-26.3-2.3
	C399.8,463.1,388,464.1,388,465.4z"/>
<path class="st4" d="M439.5,466.2c-3.3-1-13.4-1.7-25.2-1.7s-21.9,0.8-25.2,1.7c-0.8-0.2-1.2-0.4-1.2-0.8c0-1.4,11.8-2.3,26.3-2.3
	c14.5,0,26.3,1,26.3,2.3C440.6,465.6,440.3,465.8,439.5,466.2z"/>
<path class="st14" d="M442,456.9v7.9c0,2.7-14.9,5-33.1,5c-18.2,0-33.1-2.3-33.1-5v-7.9H442z"/>
<path class="st4" d="M441.2,453.6h-1.5V472h1.5V453.6z"/>
<path class="st4" d="M437.2,453.6h-1.5V472h1.5V453.6z"/>
<path class="st4" d="M432.5,453.6H431V472h1.5V453.6z"/>
<path class="st4" d="M426.7,453.6h-1.5V472h1.5V453.6z"/>
<path class="st4" d="M420.3,453.6h-1.5V472h1.5V453.6z"/>
<path class="st4" d="M413.5,453.6H412V472h1.5V453.6z"/>
<path class="st4" d="M377.9,453.6h-1.5V472h1.5V453.6z"/>
<path class="st4" d="M382,453.6h-1.5V472h1.5V453.6z"/>
<path class="st4" d="M386.6,453.6h-1.5V472h1.5V453.6z"/>
<path class="st4" d="M392.4,453.6h-1.5V472h1.5V453.6z"/>
<path class="st4" d="M398.8,453.6h-1.5V472h1.5V453.6z"/>
<path class="st4" d="M405.8,453.6h-1.5V472h1.5V453.6z"/>
<path class="st9" d="M375.8,456.9c0,2.7,14.9,5,33.1,5c18.2,0,33.1-2.3,33.1-5c0-2.7-14.9-5-33.1-5
	C390.7,451.9,375.8,454,375.8,456.9z"/>
<path class="st14" d="M382.6,456.3c0,1.4,11.8,2.3,26.3,2.3c14.5,0,26.3-1,26.3-2.3c0-1.4-11.8-2.3-26.3-2.3
	C394.4,454,382.6,455,382.6,456.3z"/>
<path class="st4" d="M434.1,456.9c-3.3-1-13.4-1.7-25.2-1.7s-21.9,0.8-25.2,1.7c-0.8-0.2-1.2-0.4-1.2-0.8c0-1.4,11.8-2.3,26.3-2.3
	c14.5,0,26.3,1,26.3,2.3C435.2,456.5,434.8,456.7,434.1,456.9z"/>
<path class="st14" d="M439.7,447.8v7.9c0,2.7-14.9,5-33.1,5c-18.4,0-33.1-2.3-33.1-5v-7.9H439.7z"/>
<path class="st4" d="M438.9,444.5h-1.5v18.4h1.5V444.5z"/>
<path class="st4" d="M434.8,444.5h-1.5v18.4h1.5V444.5z"/>
<path class="st4" d="M430.2,444.5h-1.5v18.4h1.5V444.5z"/>
<path class="st4" d="M424.4,444.5h-1.5v18.4h1.5V444.5z"/>
<path class="st4" d="M418,444.5h-1.5v18.4h1.5V444.5z"/>
<path class="st4" d="M411.2,444.5h-1.5v18.4h1.5V444.5z"/>
<path class="st4" d="M375.6,444.5H374v18.4h1.5V444.5z"/>
<path class="st4" d="M379.6,444.5h-1.5v18.4h1.5V444.5z"/>
<path class="st4" d="M384.3,444.5h-1.5v18.4h1.5V444.5z"/>
<path class="st4" d="M390.1,444.5h-1.5v18.4h1.5V444.5z"/>
<path class="st4" d="M396.5,444.5h-1.5v18.4h1.5V444.5z"/>
<path class="st4" d="M403.5,444.5h-1.5v18.4h1.5V444.5z"/>
<path class="st9" d="M373.5,447.6c0,2.7,14.9,5,33.1,5c18.4,0,33.1-2.3,33.1-5c0-2.7-14.9-5-33.1-5
	C388.2,442.6,373.5,444.9,373.5,447.6z"/>
<path class="st14" d="M380.2,447c0,1.4,11.8,2.3,26.3,2.3c14.5,0,26.3-1,26.3-2.3c0-1.4-11.8-2.3-26.3-2.3
	C392,444.7,380.2,445.9,380.2,447z"/>
<path class="st4" d="M431.7,447.8c-3.3-1-13.4-1.7-25.2-1.7s-21.9,0.8-25.2,1.7c-0.8-0.2-1.2-0.4-1.2-0.8c0-1.4,11.8-2.3,26.3-2.3
	c14.5,0,26.3,1,26.3,2.3C432.9,447.4,432.5,447.6,431.7,447.8z"/>
<path class="st14" d="M447.6,438.7v7.9c0,2.7-14.9,5-33.1,5c-18.4,0-33.1-2.3-33.1-5v-7.9H447.6z"/>
<path class="st4" d="M446.8,435.4h-1.5v18.4h1.5V435.4z"/>
<path class="st4" d="M442.8,435.4h-1.5v18.4h1.5V435.4z"/>
<path class="st4" d="M438.1,435.4h-1.5v18.4h1.5V435.4z"/>
<path class="st4" d="M432.3,435.4h-1.5v18.4h1.5V435.4z"/>
<path class="st4" d="M425.9,435.4h-1.5v18.4h1.5V435.4z"/>
<path class="st4" d="M418.9,435.4h-1.5v18.4h1.5V435.4z"/>
<path class="st4" d="M383.5,435.4H382v18.4h1.5V435.4z"/>
<path class="st4" d="M387.6,435.4H386v18.4h1.5V435.4z"/>
<path class="st4" d="M392.2,435.4h-1.5v18.4h1.5V435.4z"/>
<path class="st4" d="M398,435.4h-1.5v18.4h1.5V435.4z"/>
<path class="st4" d="M404.4,435.4h-1.5v18.4h1.5V435.4z"/>
<path class="st4" d="M411.4,435.4h-1.5v18.4h1.5V435.4z"/>
<path class="st9" d="M381.4,438.5c0,2.7,14.9,5,33.1,5c18.4,0,33.1-2.3,33.1-5c0-2.7-14.9-5-33.1-5
	C396.1,433.5,381.4,435.8,381.4,438.5z"/>
<path class="st14" d="M388.2,437.9c0,1.4,11.8,2.3,26.3,2.3c14.5,0,26.3-1,26.3-2.3s-11.8-2.3-26.3-2.3
	C400,435.6,388.2,436.8,388.2,437.9z"/>
<path class="st4" d="M439.7,438.7c-3.3-1-13.4-1.7-25.2-1.7s-21.9,0.8-25.2,1.7c-0.8-0.2-1.2-0.4-1.2-0.8c0-1.4,11.8-2.3,26.3-2.3
	c14.5,0,26.3,1,26.3,2.3C440.8,438.1,440.4,438.5,439.7,438.7z"/>
<path class="st14" d="M441.2,429.6v7.9c0,2.7-14.9,5-33.1,5c-18.4,0-33.1-2.3-33.1-5v-7.9H441.2z"/>
<path class="st4" d="M440.5,426.1h-1.5v18.4h1.5V426.1z"/>
<path class="st4" d="M436.4,426.1h-1.5v18.4h1.5V426.1z"/>
<path class="st4" d="M431.7,426.1h-1.5v18.4h1.5V426.1z"/>
<path class="st4" d="M425.9,426.1h-1.5v18.4h1.5V426.1z"/>
<path class="st4" d="M419.5,426.1H418v18.4h1.5V426.1z"/>
<path class="st4" d="M412.6,426.1H411v18.4h1.5V426.1z"/>
<path class="st4" d="M377.1,426.1h-1.5v18.4h1.5V426.1z"/>
<path class="st4" d="M381.2,426.1h-1.5v18.4h1.5V426.1z"/>
<path class="st4" d="M385.9,426.1h-1.5v18.4h1.5V426.1z"/>
<path class="st4" d="M391.7,426.1h-1.5v18.4h1.5V426.1z"/>
<path class="st4" d="M398.1,426.1h-1.5v18.4h1.5V426.1z"/>
<path class="st4" d="M405,426.1h-1.5v18.4h1.5V426.1z"/>
<path class="st9" d="M375,429.4c0,2.7,14.9,5,33.1,5c18.4,0,33.1-2.3,33.1-5c0-2.7-14.9-5-33.1-5C389.7,424.4,375,426.7,375,429.4z"
	/>
<path class="st14" d="M408.1,431.2c14.5,0,26.3-1,26.3-2.3c0-1.3-11.8-2.3-26.3-2.3s-26.3,1-26.3,2.3
	C381.8,430.1,393.6,431.2,408.1,431.2z"/>
<path class="st4" d="M433.3,429.6c-3.3-1-13.4-1.7-25.2-1.7s-21.9,0.8-25.2,1.7c-0.8-0.2-1.2-0.4-1.2-0.8c0-1.4,11.8-2.3,26.3-2.3
	c14.5,0,26.3,1,26.3,2.3C434.4,429,434.1,429.4,433.3,429.6z"/>
<path class="st14" d="M447,420.5v7.9c0,2.7-14.9,5-33.1,5c-18.4,0-33.1-2.3-33.1-5v-7.9H447z"/>
<path class="st4" d="M446.3,417h-1.5v18.4h1.5V417z"/>
<path class="st4" d="M442.2,417h-1.5v18.4h1.5V417z"/>
<path class="st4" d="M437.5,417H436v18.4h1.5V417z"/>
<path class="st4" d="M431.7,417h-1.5v18.4h1.5V417z"/>
<path class="st4" d="M425.3,417h-1.5v18.4h1.5V417z"/>
<path class="st4" d="M418.4,417h-1.5v18.4h1.5V417z"/>
<path class="st4" d="M383,417h-1.5v18.4h1.5V417z"/>
<path class="st4" d="M387,417h-1.5v18.4h1.5V417z"/>
<path class="st4" d="M391.7,417h-1.5v18.4h1.5V417z"/>
<path class="st4" d="M397.5,417h-1.5v18.4h1.5V417z"/>
<path class="st4" d="M403.9,417h-1.5v18.4h1.5V417z"/>
<path class="st4" d="M410.8,417h-1.5v18.4h1.5V417z"/>
<path class="st9" d="M380.6,420.3c0,2.7,14.9,5,33.1,5c18.4,0,33.1-2.3,33.1-5c0-2.7-14.9-5-33.1-5
	C395.5,415.3,380.6,417.4,380.6,420.3z"/>
<path class="st14" d="M387.4,419.7c0,1.4,11.8,2.3,26.3,2.3c14.5,0,26.3-1,26.3-2.3c0-1.4-11.8-2.3-26.3-2.3
	C399.2,417.4,387.4,418.4,387.4,419.7z"/>
<path class="st4" d="M439.1,420.5c-3.3-1-13.4-1.7-25.2-1.7s-21.9,0.8-25.2,1.7c-0.8-0.2-1.2-0.4-1.2-0.8c0-1.4,11.8-2.3,26.3-2.3
	c14.5,0,26.3,1,26.3,2.3C440.1,419.9,439.7,420.1,439.1,420.5z"/>
<g class="st15">
	<g class="st15">
		<path class="st16" d="M442.6,475.1v7.9c0,2.7-14.9,5-33.1,5c-18.2,0-33.1-2.3-33.1-5v-7.9H442.6z"/>
		<g class="st15">
			<path class="st16" d="M442.6,475.1v7.9c0,2.7-14.9,5-33.1,5c-18.2,0-33.1-2.3-33.1-5v-7.9H442.6z"/>
			<path class="st16" d="M442.6,475.1v7.9c0,2.7-14.9,5-33.1,5c-18.2,0-33.1-2.3-33.1-5v-7.9H442.6z"/>
			<path class="st16" d="M441.8,471.8h-1.5v18.4h1.5V471.8z"/>
			<path class="st16" d="M437.7,471.8h-1.5v18.4h1.5V471.8z"/>
			<path class="st16" d="M433.1,471.8h-1.5v18.4h1.5V471.8z"/>
			<path class="st16" d="M427.3,471.8h-1.5v18.4h1.5V471.8z"/>
			<path class="st16" d="M420.9,471.8h-1.5v18.4h1.5V471.8z"/>
			<path class="st16" d="M414.1,471.8h-1.5v18.4h1.5V471.8z"/>
			<path class="st16" d="M378.5,471.8h-1.5v18.4h1.5V471.8z"/>
			<path class="st16" d="M382.7,471.8h-1.5v18.4h1.5V471.8z"/>
			<path class="st16" d="M387.4,471.8h-1.5v18.4h1.5V471.8z"/>
			<path class="st16" d="M393,471.8h-1.5v18.4h1.5V471.8z"/>
			<path class="st16" d="M399.4,471.8h-1.5v18.4h1.5V471.8z"/>
			<path class="st16" d="M406.6,472.4h-1.9v15.5h1.9V472.4z"/>
		</g>
		<path class="st16" d="M376.4,475.1c0,2.7,14.9,5,33.1,5s33.1-2.3,33.1-5c0-2.7-14.9-5-33.1-5S376.4,472.2,376.4,475.1z"/>
		<path class="st16" d="M409.5,476.9c14.5,0,26.3-1,26.3-2.3c0-1.3-11.8-2.3-26.3-2.3c-14.5,0-26.3,1-26.3,2.3
			C383.1,475.8,394.9,476.9,409.5,476.9z"/>
		<path class="st16" d="M434.6,475.1c-3.3-1-13.4-1.7-25.2-1.7s-21.9,0.8-25.2,1.7c-0.8-0.2-1.2-0.4-1.2-0.8
			c0-1.4,11.8-2.3,26.3-2.3c14.5,0,26.3,1,26.3,2.3C435.8,474.7,435.4,474.9,434.6,475.1z"/>
	</g>
	<g class="st15">
		<path class="st16" d="M447.4,466.2v7.9c0,2.7-14.9,5-33.1,5c-18.4,0-33.1-2.3-33.1-5v-7.9H447.4z"/>
		<g class="st15">
			<path class="st16" d="M447.4,466.2v7.9c0,2.7-14.9,5-33.1,5c-18.4,0-33.1-2.3-33.1-5v-7.9H447.4z"/>
			<g class="st15">
				<path class="st16" d="M446.6,462.7h-1.5v18.4h1.5V462.7z"/>
				<path class="st16" d="M442.6,462.7H441v18.4h1.5V462.7z"/>
				<path class="st16" d="M437.9,462.7h-1.5v18.4h1.5V462.7z"/>
				<path class="st16" d="M432.1,462.7h-1.5v18.4h1.5V462.7z"/>
				<path class="st16" d="M425.7,462.7h-1.5v18.4h1.5V462.7z"/>
				<path class="st16" d="M418.8,462.7h-1.5v18.4h1.5V462.7z"/>
				<path class="st16" d="M383.3,462.7h-1.5v18.4h1.5V462.7z"/>
				<path class="st16" d="M387.4,462.7h-1.5v18.4h1.5V462.7z"/>
				<path class="st16" d="M392.1,462.7h-1.5v18.4h1.5V462.7z"/>
				<path class="st16" d="M397.9,462.7h-1.5v18.4h1.5V462.7z"/>
				<path class="st16" d="M404.6,462.7h-1.9v15.5h1.9V462.7z"/>
				<path class="st16" d="M411.2,462.7h-1.5v18.4h1.5V462.7z"/>
			</g>
		</g>
		<path class="st16" d="M381.2,466c0,2.7,14.9,5,33.1,5c18.4,0,33.1-2.3,33.1-5c0-2.7-14.9-5-33.1-5
			C395.9,461,381.2,463.1,381.2,466z"/>
		<path class="st16" d="M388,465.4c0,1.4,11.8,2.3,26.3,2.3s26.3-1,26.3-2.3c0-1.4-11.8-2.3-26.3-2.3S388,464.1,388,465.4z"/>
		<path class="st16" d="M439.5,466.2c-3.3-1-13.4-1.7-25.2-1.7s-21.9,0.8-25.2,1.7c-0.8-0.2-1.2-0.4-1.2-0.8
			c0-1.4,11.8-2.3,26.3-2.3s26.3,1,26.3,2.3C440.6,465.6,440.3,465.8,439.5,466.2z"/>
	</g>
	<g class="st15">
		<path class="st16" d="M442,456.9v7.9c0,2.7-14.9,5-33.1,5c-18.2,0-33.1-2.3-33.1-5v-7.9H442z"/>
		<g class="st15">
			<path class="st16" d="M442,456.9v7.9c0,2.7-14.9,5-33.1,5c-18.2,0-33.1-2.3-33.1-5v-7.9H442z"/>
			<g class="st15">
				<path class="st16" d="M441.2,453.6h-1.5V472h1.5V453.6z"/>
				<path class="st16" d="M437.2,453.6h-1.5V472h1.5V453.6z"/>
				<path class="st16" d="M432.5,453.6H431V472h1.5V453.6z"/>
				<path class="st16" d="M426.7,453.6h-1.5V472h1.5V453.6z"/>
				<path class="st16" d="M420.3,453.6h-1.5V472h1.5V453.6z"/>
				<path class="st16" d="M413.5,453.6H412V472h1.5V453.6z"/>
				<path class="st16" d="M377.9,453.6h-1.5V472h1.5V453.6z"/>
				<path class="st16" d="M382,453.6h-1.5V472h1.5V453.6z"/>
				<path class="st16" d="M386.6,453.6h-1.5V472h1.5V453.6z"/>
				<path class="st16" d="M392.4,453.6h-1.5V472h1.5V453.6z"/>
				<path class="st16" d="M398.8,453.6h-1.5V472h1.5V453.6z"/>
				<path class="st16" d="M405.8,453.6h-1.5V472h1.5V453.6z"/>
			</g>
		</g>
		<path class="st16" d="M375.8,456.9c0,2.7,14.9,5,33.1,5s33.1-2.3,33.1-5c0-2.7-14.9-5-33.1-5S375.8,454,375.8,456.9z"/>
		<path class="st16" d="M382.6,456.3c0,1.4,11.8,2.3,26.3,2.3c14.5,0,26.3-1,26.3-2.3c0-1.4-11.8-2.3-26.3-2.3
			C394.4,454,382.6,455,382.6,456.3z"/>
		<path class="st16" d="M434.1,456.9c-3.3-1-13.4-1.7-25.2-1.7s-21.9,0.8-25.2,1.7c-0.8-0.2-1.2-0.4-1.2-0.8
			c0-1.4,11.8-2.3,26.3-2.3c14.5,0,26.3,1,26.3,2.3C435.2,456.5,434.8,456.7,434.1,456.9z"/>
	</g>
	<g class="st15">
		<path class="st16" d="M439.7,447.8v7.9c0,2.7-14.9,5-33.1,5c-18.4,0-33.1-2.3-33.1-5v-7.9H439.7z"/>
		<path class="st16" d="M439.7,447.8v7.9c0,2.7-14.9,5-33.1,5c-18.4,0-33.1-2.3-33.1-5v-7.9H439.7z"/>
		<g class="st15">
			<path class="st16" d="M439.7,447.8v7.9c0,2.7-14.9,5-33.1,5c-18.4,0-33.1-2.3-33.1-5v-7.9H439.7z"/>
			<path class="st16" d="M439.7,447.8v7.9c0,2.7-14.9,5-33.1,5c-18.4,0-33.1-2.3-33.1-5v-7.9H439.7z"/>
			<g class="st15">
				<path class="st16" d="M438.9,444.5h-1.5v18.4h1.5V444.5z"/>
				<path class="st16" d="M434.8,444.5h-1.5v18.4h1.5V444.5z"/>
				<path class="st16" d="M430.2,444.5h-1.5v18.4h1.5V444.5z"/>
				<path class="st16" d="M424.4,444.5h-1.5v18.4h1.5V444.5z"/>
				<path class="st16" d="M418,444.5h-1.5v18.4h1.5V444.5z"/>
				<path class="st16" d="M411.2,444.5h-1.5v18.4h1.5V444.5z"/>
				<path class="st16" d="M375.6,444.5H374v18.4h1.5V444.5z"/>
				<path class="st16" d="M379.6,444.5h-1.5v18.4h1.5V444.5z"/>
				<path class="st16" d="M384.3,444.5h-1.5v18.4h1.5V444.5z"/>
				<path class="st16" d="M390.1,444.5h-1.5v18.4h1.5V444.5z"/>
				<path class="st16" d="M396.5,444.5h-1.5v18.4h1.5V444.5z"/>
				<path class="st16" d="M403.5,444.5h-1.5v18.4h1.5V444.5z"/>
			</g>
		</g>
		<path class="st16" d="M373.5,447.6c0,2.7,14.9,5,33.1,5c18.4,0,33.1-2.3,33.1-5c0-2.7-14.9-5-33.1-5
			C388.2,442.6,373.5,444.9,373.5,447.6z"/>
		<path class="st16" d="M380.2,447c0,1.4,11.8,2.3,26.3,2.3c14.5,0,26.3-1,26.3-2.3c0-1.4-11.8-2.3-26.3-2.3
			C392,444.7,380.2,445.9,380.2,447z"/>
		<path class="st16" d="M431.7,447.8c-3.3-1-13.4-1.7-25.2-1.7s-21.9,0.8-25.2,1.7c-0.8-0.2-1.2-0.4-1.2-0.8
			c0-1.4,11.8-2.3,26.3-2.3c14.5,0,26.3,1,26.3,2.3C432.9,447.4,432.5,447.6,431.7,447.8z"/>
	</g>
	<g class="st15">
		<path class="st16" d="M447.6,438.7v7.9c0,2.7-14.9,5-33.1,5c-18.4,0-33.1-2.3-33.1-5v-7.9H447.6z"/>
		<path class="st16" d="M447.6,438.7v7.9c0,2.7-14.9,5-33.1,5c-18.4,0-33.1-2.3-33.1-5v-7.9H447.6z"/>
		<g class="st15">
			<path class="st16" d="M447.6,438.7v7.9c0,2.7-14.9,5-33.1,5c-18.4,0-33.1-2.3-33.1-5v-7.9H447.6z"/>
			<g class="st15">
				<path class="st16" d="M446.8,435.4h-1.5v18.4h1.5V435.4z"/>
				<path class="st16" d="M442.8,435.4h-1.5v18.4h1.5V435.4z"/>
				<path class="st16" d="M438.1,435.4h-1.5v18.4h1.5V435.4z"/>
				<path class="st16" d="M432.3,435.4h-1.5v18.4h1.5V435.4z"/>
				<path class="st16" d="M425.9,435.4h-1.5v18.4h1.5V435.4z"/>
				<path class="st16" d="M419,435.4h-1.5v18.4h1.5V435.4z"/>
				<path class="st16" d="M383.5,435.4H382v18.4h1.5V435.4z"/>
				<path class="st16" d="M387.6,435.4h-1.5v18.4h1.5V435.4z"/>
				<path class="st16" d="M392.2,435.4h-1.5v18.4h1.5V435.4z"/>
				<path class="st16" d="M398.8,443.4h-1.9v9.7h1.9V443.4z"/>
				<path class="st16" d="M404.4,435.4h-1.5v18.4h1.5V435.4z"/>
				<path class="st16" d="M411.4,435.4h-1.5v18.4h1.5V435.4z"/>
			</g>
		</g>
		<path class="st16" d="M381.4,438.5c0,2.7,14.9,5,33.1,5c18.4,0,33.1-2.3,33.1-5c0-2.7-14.9-5-33.1-5
			C396.1,433.5,381.4,435.8,381.4,438.5z"/>
		<path class="st16" d="M388.2,437.9c0,1.4,11.8,2.3,26.3,2.3c14.5,0,26.3-1,26.3-2.3s-11.8-2.3-26.3-2.3
			C400,435.6,388.2,436.8,388.2,437.9z"/>
		<path class="st16" d="M439.7,438.7c-3.3-1-13.4-1.7-25.2-1.7s-21.9,0.8-25.2,1.7c-0.8-0.2-1.2-0.4-1.2-0.8
			c0-1.4,11.8-2.3,26.3-2.3c14.5,0,26.3,1,26.3,2.3C440.8,438.1,440.4,438.5,439.7,438.7z"/>
	</g>
	<g class="st15">
		<path class="st16" d="M441.2,429.6v7.9c0,2.7-14.9,5-33.1,5c-18.4,0-33.1-2.3-33.1-5v-7.9H441.2z"/>
		<path class="st16" d="M441.2,429.6v7.9c0,2.7-14.9,5-33.1,5c-18.4,0-33.1-2.3-33.1-5v-7.9H441.2z"/>
		<g class="st15">
			<g class="st15">
				<defs>
					<filter id="Adobe_OpacityMaskFilter_3_" filterUnits="userSpaceOnUse" x="375" y="426.1" width="66.2" height="18.4">
						<feColorMatrix  type="matrix" values="1 0 0 0 0  0 1 0 0 0  0 0 1 0 0  0 0 0 1 0"/>
					</filter>
				</defs>
				<mask maskUnits="userSpaceOnUse" x="375" y="426.1" width="66.2" height="18.4" id="mask3_1_">
					<path class="st17" d="M441.2,429.6v7.9c0,2.7-14.9,5-33.1,5c-18.4,0-33.1-2.3-33.1-5v-7.9H441.2z"/>
				</mask>
				<g class="st18">
					<path class="st16" d="M441.2,429.6v7.9c0,2.7-14.9,5-33.1,5c-18.4,0-33.1-2.3-33.1-5v-7.9H441.2z"/>
					<path class="st16" d="M440.4,426.1h-1.5v18.4h1.5V426.1z"/>
					<path class="st16" d="M436.4,426.1h-1.5v18.4h1.5V426.1z"/>
					<path class="st16" d="M431.7,426.1h-1.5v18.4h1.5V426.1z"/>
					<path class="st16" d="M425.9,426.1h-1.5v18.4h1.5V426.1z"/>
					<path class="st16" d="M419.6,426.1H418v18.4h1.5V426.1z"/>
					<path class="st16" d="M412.6,426.1H411v18.4h1.5V426.1z"/>
					<path class="st16" d="M377.1,426.1h-1.5v18.4h1.5V426.1z"/>
					<path class="st16" d="M381.2,426.1h-1.5v18.4h1.5V426.1z"/>
					<path class="st16" d="M385.9,426.1h-1.5v18.4h1.5V426.1z"/>
					<path class="st16" d="M391.7,426.1h-1.5v18.4h1.5V426.1z"/>
					<path class="st16" d="M398.8,435.6h-1.9v5.8h1.9V435.6z"/>
					<path class="st16" d="M405,426.1h-1.5v18.4h1.5V426.1z"/>
				</g>
			</g>
		</g>
		<path class="st16" d="M375,429.4c0,2.7,14.9,5,33.1,5c18.4,0,33.1-2.3,33.1-5c0-2.7-14.9-5-33.1-5
			C389.7,424.4,375,426.7,375,429.4z"/>
		<path class="st16" d="M408.1,431.2c14.5,0,26.3-1,26.3-2.3c0-1.3-11.8-2.3-26.3-2.3c-14.5,0-26.3,1-26.3,2.3
			C381.8,430.1,393.6,431.2,408.1,431.2z"/>
		<path class="st16" d="M433.3,429.6c-3.3-1-13.4-1.7-25.2-1.7s-21.9,0.8-25.2,1.7c-0.8-0.2-1.2-0.4-1.2-0.8
			c0-1.4,11.8-2.3,26.3-2.3c14.5,0,26.3,1,26.3,2.3C434.5,429,434.1,429.4,433.3,429.6z"/>
	</g>
	<g class="st15">
		<path class="st16" d="M447,420.5v7.9c0,2.7-14.9,5-33.1,5c-18.4,0-33.1-2.3-33.1-5v-7.9H447z"/>
		<g class="st15">
			<g class="st15">
				<path class="st16" d="M447,420.5v7.9c0,2.7-14.9,5-33.1,5c-18.4,0-33.1-2.3-33.1-5v-7.9H447z"/>
				<path class="st16" d="M447,420.5v7.9c0,2.7-14.9,5-33.1,5c-18.4,0-33.1-2.3-33.1-5v-7.9H447z"/>
				<path class="st16" d="M447,420.5v7.9c0,2.7-14.9,5-33.1,5c-18.4,0-33.1-2.3-33.1-5v-7.9H447z"/>
				<path class="st16" d="M446.3,417h-1.5v18.4h1.5V417z"/>
				<path class="st16" d="M442.2,417h-1.5v18.4h1.5V417z"/>
				<path class="st16" d="M437.6,417H436v18.4h1.5V417z"/>
				<path class="st16" d="M431.7,417h-1.5v18.4h1.5V417z"/>
				<path class="st16" d="M425.4,417h-1.5v18.4h1.5V417z"/>
				<path class="st16" d="M418.4,417h-1.5v18.4h1.5V417z"/>
				<path class="st16" d="M383,417h-1.5v18.4h1.5V417z"/>
				<path class="st16" d="M387,417h-1.5v18.4h1.5V417z"/>
				<path class="st16" d="M391.7,417h-1.5v18.4h1.5V417z"/>
				<path class="st16" d="M397.5,417h-1.5v18.4h1.5V417z"/>
				<path class="st16" d="M403.9,417h-1.5v18.4h1.5V417z"/>
				<path class="st16" d="M410.8,417h-1.5v18.4h1.5V417z"/>
			</g>
		</g>
		<path class="st16" d="M380.6,420.3c0,2.7,14.9,5,33.1,5c18.4,0,33.1-2.3,33.1-5c0-2.7-14.9-5-33.1-5S380.6,417.4,380.6,420.3z"/>
		<path class="st16" d="M387.4,419.7c0,1.4,11.8,2.3,26.3,2.3c14.5,0,26.3-1,26.3-2.3c0-1.4-11.8-2.3-26.3-2.3
			C399.2,417.4,387.4,418.4,387.4,419.7z"/>
		<path class="st16" d="M439.1,420.5c-3.3-1-13.4-1.7-25.2-1.7s-21.9,0.8-25.2,1.7c-0.8-0.2-1.2-0.4-1.2-0.8
			c0-1.4,11.8-2.3,26.3-2.3s26.3,1,26.3,2.3C440.1,419.9,439.7,420.1,439.1,420.5z"/>
	</g>
</g>
<defs>
	<filter id="Adobe_OpacityMaskFilter_4_" filterUnits="userSpaceOnUse" x="414.1" y="474.3" width="66.2" height="20.3">
		<feColorMatrix  type="matrix" values="1 0 0 0 0  0 1 0 0 0  0 0 1 0 0  0 0 0 1 0"/>
	</filter>
</defs>
<mask maskUnits="userSpaceOnUse" x="414.1" y="474.3" width="66.2" height="20.3" id="mask4_1_">
	<path class="st19" d="M414.1,479.6v7.9c0,2.7,14.9,5,33.1,5c18.4,0,33.1-2.3,33.1-5v-7.9H414.1z"/>
</mask>
<g class="st20">
	<path class="st21" d="M414.1,479.6v7.9c0,2.7,14.9,5,33.1,5c18.4,0,33.1-2.3,33.1-5v-7.9H414.1z"/>
	<path class="st4" d="M416.2,476.3h-1.5v18.4h1.5V476.3z"/>
	<path class="st4" d="M420.3,476.3h-1.5v18.4h1.5V476.3z"/>
	<path class="st4" d="M424.9,476.3h-1.5v18.4h1.5V476.3z"/>
	<path class="st4" d="M430.8,476.3h-1.5v18.4h1.5V476.3z"/>
	<path class="st4" d="M437.1,476.3h-1.5v18.4h1.5V476.3z"/>
	<path class="st4" d="M444.1,476.3h-1.5v18.4h1.5V476.3z"/>
	<path class="st4" d="M479.6,476.3H478v18.4h1.5V476.3z"/>
	<path class="st4" d="M475.5,476.3h-1.5v18.4h1.5V476.3z"/>
	<path class="st4" d="M470.8,476.3h-1.5v18.4h1.5V476.3z"/>
	<path class="st4" d="M465,476.3h-1.5v18.4h1.5V476.3z"/>
	<path class="st4" d="M458.6,476.3h-1.5v18.4h1.5V476.3z"/>
	<path class="st4" d="M451.7,476.3h-1.5v18.4h1.5V476.3z"/>
	<path class="st9" d="M480.3,479.4c0,2.7-14.9,5-33.1,5c-18.4,0-33.1-2.3-33.1-5c0-2.7,14.9-5,33.1-5
		C465.4,474.3,480.3,476.7,480.3,479.4z"/>
	<path class="st14" d="M447.2,481.3c14.5,0,26.3-1,26.3-2.3c0-1.3-11.8-2.3-26.3-2.3s-26.3,1-26.3,2.3
		C420.9,480.3,432.7,481.3,447.2,481.3z"/>
</g>
<defs>
	<filter id="Adobe_OpacityMaskFilter_5_" filterUnits="userSpaceOnUse" x="409.3" y="465.2" width="66.2" height="20.3">
		<feColorMatrix  type="matrix" values="1 0 0 0 0  0 1 0 0 0  0 0 1 0 0  0 0 0 1 0"/>
	</filter>
</defs>
<mask maskUnits="userSpaceOnUse" x="409.3" y="465.2" width="66.2" height="20.3" id="mask5_1_">
	<path class="st22" d="M409.3,470.5v7.9c0,2.7,14.9,5,33.1,5c18.4,0,33.1-2.3,33.1-5v-7.9H409.3z"/>
</mask>
<g class="st23">
	<path class="st21" d="M409.3,470.5v7.9c0,2.7,14.9,5,33.1,5c18.4,0,33.1-2.3,33.1-5v-7.9H409.3z"/>
	<path class="st4" d="M411.4,467.2h-1.5v18.4h1.5V467.2z"/>
	<path class="st4" d="M415.5,467.2h-1.5v18.4h1.5V467.2z"/>
	<path class="st4" d="M420.1,467.2h-1.5v18.4h1.5V467.2z"/>
	<path class="st4" d="M425.9,467.2h-1.5v18.4h1.5V467.2z"/>
	<path class="st4" d="M432.3,467.2h-1.5v18.4h1.5V467.2z"/>
	<path class="st4" d="M439.3,467.2h-1.5v18.4h1.5V467.2z"/>
	<path class="st4" d="M474.7,467.2h-1.5v18.4h1.5V467.2z"/>
	<path class="st4" d="M470.7,467.2h-1.5v18.4h1.5V467.2z"/>
	<path class="st4" d="M466,467.2h-1.5v18.4h1.5V467.2z"/>
	<path class="st4" d="M460.2,467.2h-1.5v18.4h1.5V467.2z"/>
	<path class="st4" d="M453.8,467.2h-1.5v18.4h1.5V467.2z"/>
	<path class="st4" d="M447,467.2h-1.5v18.4h1.5V467.2z"/>
	<path class="st9" d="M475.5,470.3c0,2.7-14.9,5-33.1,5c-18.4,0-33.1-2.3-33.1-5c0-2.7,14.9-5,33.1-5
		C460.8,465.2,475.5,467.6,475.5,470.3z"/>
	<path class="st14" d="M468.7,469.9c0,1.4-11.8,2.3-26.3,2.3c-14.5,0-26.3-1-26.3-2.3c0-1.4,11.8-2.3,26.3-2.3
		C456.9,467.6,468.7,468.5,468.7,469.9z"/>
</g>
<defs>
	<filter id="Adobe_OpacityMaskFilter_6_" filterUnits="userSpaceOnUse" x="414.7" y="456.1" width="66.2" height="20.3">
		<feColorMatrix  type="matrix" values="1 0 0 0 0  0 1 0 0 0  0 0 1 0 0  0 0 0 1 0"/>
	</filter>
</defs>
<mask maskUnits="userSpaceOnUse" x="414.7" y="456.1" width="66.2" height="20.3" id="mask6_1_">
	<path class="st24" d="M414.7,461.4v7.9c0,2.7,14.9,5,33.1,5c18.4,0,33.1-2.3,33.1-5v-7.9H414.7z"/>
</mask>
<g class="st25">
	<path class="st21" d="M414.7,461.4v7.9c0,2.7,14.9,5,33.1,5c18.4,0,33.1-2.3,33.1-5v-7.9H414.7z"/>
	<path class="st4" d="M416.8,458.1h-1.5v18.4h1.5V458.1z"/>
	<path class="st4" d="M420.9,458.1h-1.5v18.4h1.5V458.1z"/>
	<path class="st4" d="M425.5,458.1H424v18.4h1.5V458.1z"/>
	<path class="st4" d="M431.3,458.1h-1.5v18.4h1.5V458.1z"/>
	<path class="st4" d="M437.7,458.1h-1.5v18.4h1.5V458.1z"/>
	<path class="st4" d="M444.7,458.1h-1.5v18.4h1.5V458.1z"/>
	<path class="st4" d="M480.1,458.1h-1.5v18.4h1.5V458.1z"/>
	<path class="st4" d="M476.1,458.1h-1.5v18.4h1.5V458.1z"/>
	<path class="st4" d="M471.4,458.1h-1.5v18.4h1.5V458.1z"/>
	<path class="st4" d="M465.6,458.1h-1.5v18.4h1.5V458.1z"/>
	<path class="st4" d="M459.2,458.1h-1.5v18.4h1.5V458.1z"/>
	<path class="st4" d="M452.3,458.1h-1.5v18.4h1.5V458.1z"/>
	<path class="st9" d="M480.9,461.2c0,2.7-14.9,5-33.1,5c-18.4,0-33.1-2.3-33.1-5c0-2.7,14.9-5,33.1-5S480.9,458.5,480.9,461.2z"/>
	<path class="st14" d="M474.1,460.8c0,1.4-11.8,2.3-26.3,2.3c-14.5,0-26.3-1-26.3-2.3c0-1.4,11.8-2.3,26.3-2.3
		C462.3,458.5,474.1,459.4,474.1,460.8z"/>
</g>
<defs>
	<filter id="Adobe_OpacityMaskFilter_7_" filterUnits="userSpaceOnUse" x="417" y="447" width="66.2" height="20.1">
		<feColorMatrix  type="matrix" values="1 0 0 0 0  0 1 0 0 0  0 0 1 0 0  0 0 0 1 0"/>
	</filter>
</defs>
<mask maskUnits="userSpaceOnUse" x="417" y="447" width="66.2" height="20.1" id="mask7_1_">
	<path class="st26" d="M417,452.1v7.9c0,2.7,14.9,5,33.1,5c18.4,0,33.1-2.3,33.1-5v-7.9H417z"/>
</mask>
<g class="st27">
	<path class="st21" d="M417,452.1v7.9c0,2.7,14.9,5,33.1,5c18.4,0,33.1-2.3,33.1-5v-7.9H417z"/>
	<path class="st4" d="M419.1,448.8h-1.5v18.4h1.5V448.8z"/>
	<path class="st4" d="M423.2,448.8h-1.5v18.4h1.5V448.8z"/>
	<path class="st4" d="M427.8,448.8h-1.5v18.4h1.5V448.8z"/>
	<path class="st4" d="M433.7,448.8h-1.5v18.4h1.5V448.8z"/>
	<path class="st4" d="M440.1,448.8h-1.5v18.4h1.5V448.8z"/>
	<path class="st4" d="M447,448.8h-1.5v18.4h1.5V448.8z"/>
	<path class="st4" d="M482.5,448.8h-1.5v18.4h1.5V448.8z"/>
	<path class="st4" d="M478.4,448.8h-1.5v18.4h1.5V448.8z"/>
	<path class="st4" d="M473.7,448.8h-1.5v18.4h1.5V448.8z"/>
	<path class="st4" d="M467.9,448.8h-1.5v18.4h1.5V448.8z"/>
	<path class="st4" d="M461.5,448.8H460v18.4h1.5V448.8z"/>
	<path class="st4" d="M454.6,448.8H453v18.4h1.5V448.8z"/>
	<path class="st9" d="M483.2,452.1c0,2.7-14.9,5-33.1,5s-33.1-2.3-33.1-5c0-2.7,14.9-5,33.1-5S483.2,449.2,483.2,452.1z"/>
	<path class="st14" d="M476.4,451.5c0,1.4-11.8,2.3-26.3,2.3c-14.5,0-26.3-1-26.3-2.3c0-1.4,11.8-2.3,26.3-2.3
		C464.6,449.2,476.4,450.1,476.4,451.5z"/>
</g>
<defs>
	<filter id="Adobe_OpacityMaskFilter_8_" filterUnits="userSpaceOnUse" x="409.1" y="437.9" width="66.2" height="20.1">
		<feColorMatrix  type="matrix" values="1 0 0 0 0  0 1 0 0 0  0 0 1 0 0  0 0 0 1 0"/>
	</filter>
</defs>
<mask maskUnits="userSpaceOnUse" x="409.1" y="437.9" width="66.2" height="20.1" id="mask8_1_">
	<path class="st28" d="M409.1,443v7.9c0,2.7,14.9,5,33.1,5c18.4,0,33.1-2.3,33.1-5V443H409.1z"/>
</mask>
<g class="st29">
	<path class="st21" d="M409.1,443v7.9c0,2.7,14.9,5,33.1,5c18.4,0,33.1-2.3,33.1-5V443H409.1z"/>
	<path class="st4" d="M411.2,439.7h-1.5v18.4h1.5V439.7z"/>
	<path class="st4" d="M415.3,439.7h-1.5v18.4h1.5V439.7z"/>
	<path class="st4" d="M419.9,439.7h-1.5v18.4h1.5V439.7z"/>
	<path class="st4" d="M425.7,439.7h-1.5v18.4h1.5V439.7z"/>
	<path class="st4" d="M432.1,439.7h-1.5v18.4h1.5V439.7z"/>
	<path class="st4" d="M439.1,439.7h-1.5v18.4h1.5V439.7z"/>
	<path class="st4" d="M474.5,439.7H473v18.4h1.5V439.7z"/>
	<path class="st4" d="M470.4,439.7h-1.5v18.4h1.5V439.7z"/>
	<path class="st4" d="M465.8,439.7h-1.5v18.4h1.5V439.7z"/>
	<path class="st4" d="M460,439.7h-1.5v18.4h1.5V439.7z"/>
	<path class="st4" d="M453.6,439.7h-1.5v18.4h1.5V439.7z"/>
	<path class="st4" d="M446.8,439.7h-1.5v18.4h1.5V439.7z"/>
	<path class="st9" d="M475.3,443c0,2.7-14.9,5-33.1,5c-18.4,0-33.1-2.3-33.1-5c0-2.7,14.9-5,33.1-5
		C460.6,437.9,475.3,440.1,475.3,443z"/>
	<path class="st14" d="M468.5,442.4c0,1.4-11.8,2.3-26.3,2.3c-14.5,0-26.3-1-26.3-2.3c0-1.4,11.8-2.3,26.3-2.3
		C456.7,440.1,468.5,441,468.5,442.4z"/>
	<path class="st4" d="M417,443c3.3-1,13.4-1.7,25.2-1.7s21.9,0.8,25.2,1.7c0.8-0.2,1.2-0.4,1.2-0.8c0-1.4-11.8-2.3-26.3-2.3
		c-14.5,0-26.3,1-26.3,2.3C415.9,442.6,416.2,442.8,417,443z"/>
</g>
<defs>
	<filter id="Adobe_OpacityMaskFilter_9_" filterUnits="userSpaceOnUse" x="415.5" y="428.8" width="66.2" height="20.1">
		<feColorMatrix  type="matrix" values="1 0 0 0 0  0 1 0 0 0  0 0 1 0 0  0 0 0 1 0"/>
	</filter>
</defs>
<mask maskUnits="userSpaceOnUse" x="415.5" y="428.8" width="66.2" height="20.1" id="mask9_1_">
	<path class="st30" d="M415.5,433.9v7.9c0,2.7,14.9,5,33.1,5c18.4,0,33.1-2.3,33.1-5v-7.9H415.5z"/>
</mask>
<g class="st31">
	<path class="st21" d="M415.5,433.9v7.9c0,2.7,14.9,5,33.1,5c18.4,0,33.1-2.3,33.1-5v-7.9H415.5z"/>
	<path class="st4" d="M417.8,430.6h-1.5V449h1.5V430.6z"/>
	<path class="st4" d="M421.9,430.6h-1.5V449h1.5V430.6z"/>
	<path class="st4" d="M426.5,430.6h-1.5V449h1.5V430.6z"/>
	<path class="st4" d="M432.1,430.6h-1.5V449h1.5V430.6z"/>
	<path class="st4" d="M438.5,430.6H437V449h1.5V430.6z"/>
	<path class="st4" d="M445.5,430.6h-1.5V449h1.5V430.6z"/>
	<path class="st4" d="M480.9,430.6h-1.5V449h1.5V430.6z"/>
	<path class="st4" d="M476.8,430.6h-1.5V449h1.5V430.6z"/>
	<path class="st4" d="M472.2,430.6h-1.5V449h1.5V430.6z"/>
	<path class="st4" d="M466.4,430.6h-1.5V449h1.5V430.6z"/>
	<path class="st4" d="M460,430.6h-1.5V449h1.5V430.6z"/>
	<path class="st4" d="M453.2,430.6h-1.5V449h1.5V430.6z"/>
	<path class="st9" d="M481.7,433.9c0,2.7-14.9,5-33.1,5c-18.4,0-33.1-2.3-33.1-5c0-2.7,14.9-5,33.1-5
		C467,428.8,481.7,431,481.7,433.9z"/>
	<path class="st14" d="M448.6,435.6c14.5,0,26.3-1,26.3-2.3c0-1.3-11.8-2.3-26.3-2.3s-26.3,1-26.3,2.3
		C422.2,434.6,434,435.6,448.6,435.6z"/>
</g>
<defs>
	<filter id="Adobe_OpacityMaskFilter_10_" filterUnits="userSpaceOnUse" x="409.7" y="421.5" width="66.2" height="18.4">
		<feColorMatrix  type="matrix" values="1 0 0 0 0  0 1 0 0 0  0 0 1 0 0  0 0 0 1 0"/>
	</filter>
</defs>
<mask maskUnits="userSpaceOnUse" x="409.7" y="421.5" width="66.2" height="18.4" id="mask10_1_">
	<path class="st32" d="M409.7,424.8v7.9c0,2.7,14.9,5,33.1,5c18.4,0,33.1-2.3,33.1-5v-7.9H409.7z"/>
</mask>
<g class="st33">
	<path class="st21" d="M409.7,424.8v7.9c0,2.7,14.9,5,33.1,5c18.4,0,33.1-2.3,33.1-5v-7.9H409.7z"/>
	<path class="st4" d="M412,421.5h-1.5v18.4h1.5V421.5z"/>
	<path class="st4" d="M416,421.5h-1.5v18.4h1.5V421.5z"/>
	<path class="st4" d="M420.7,421.5h-1.5v18.4h1.5V421.5z"/>
	<path class="st4" d="M426.5,421.5h-1.5v18.4h1.5V421.5z"/>
	<path class="st4" d="M432.9,421.5h-1.5v18.4h1.5V421.5z"/>
	<path class="st4" d="M439.9,421.5h-1.5v18.4h1.5V421.5z"/>
	<path class="st4" d="M475.3,421.5h-1.5v18.4h1.5V421.5z"/>
	<path class="st4" d="M471.2,421.5h-1.5v18.4h1.5V421.5z"/>
	<path class="st4" d="M466.6,421.5H465v18.4h1.5V421.5z"/>
	<path class="st4" d="M460.8,421.5h-1.5v18.4h1.5V421.5z"/>
	<path class="st4" d="M454.4,421.5h-1.5v18.4h1.5V421.5z"/>
	<path class="st4" d="M447.4,421.5h-1.5v18.4h1.5V421.5z"/>
</g>
<path class="st9" d="M476.1,424.6c0,2.7-14.9,5-33.1,5c-18.4,0-33.1-2.3-33.1-5c0-2.7,14.9-5,33.1-5S476.1,421.9,476.1,424.6z"/>
<path class="st21" d="M469.1,424.2c0,1.4-11.8,2.3-26.3,2.3c-14.5,0-26.3-1-26.3-2.3c0-1.4,11.8-2.3,26.3-2.3
	C457.5,421.9,469.1,422.8,469.1,424.2z"/>
<path class="st4" d="M417.6,424.8c3.3-1,13.4-1.7,25.2-1.7s21.9,0.8,25.2,1.7c0.8-0.2,1.2-0.4,1.2-0.8c0-1.4-11.8-2.3-26.3-2.3
	c-14.5,0-26.3,1-26.3,2.3C416.4,424.4,416.8,424.6,417.6,424.8z"/>
<path class="st34" d="M433.1,492.2c-3.1-4.3-5.2-12.4-5.4-18.4c-1-21.5,9.3-35.6,26.3-39.7l6.4-1.5l13.4,57.9
	c-6,1.2-7.2,13.6-11.2,12.6C458.2,502.4,433.1,492.2,433.1,492.2z"/>
<defs>
	<filter id="Adobe_OpacityMaskFilter_11_" filterUnits="userSpaceOnUse" x="423.4" y="430.7" width="59.1" height="82">
		<feColorMatrix  type="matrix" values="1 0 0 0 0  0 1 0 0 0  0 0 1 0 0  0 0 0 1 0"/>
	</filter>
</defs>
<mask maskUnits="userSpaceOnUse" x="423.4" y="430.7" width="59.1" height="82" id="mask11_1_">
	<path class="st35" d="M459.8,432.7l6.4-1.5l16.3,70.7l-6.4,1.5c-17,3.9-34.5-8.7-39.1-28.3C432.5,455.8,442.8,436.8,459.8,432.7z"
		/>
</mask>
<g class="st36">
	<path class="st14" d="M459.8,432.7l6.4-1.5l16.3,70.7l-6.4,1.5c-17,3.9-34.5-8.7-39.1-28.3C432.5,455.8,442.8,436.8,459.8,432.7z"
		/>
	<path class="st4" d="M481.7,501.3l-42.1,9.7l0.4,1.7l42.1-9.7L481.7,501.3z"/>
	<path class="st4" d="M480.7,496.7l-42.1,9.7l0.4,1.7l42.1-9.7L480.7,496.7z"/>
	<path class="st4" d="M479.4,491.6l-42.1,9.7l0.4,1.7l42.1-9.7L479.4,491.6z"/>
	<path class="st4" d="M478,485l-42.1,9.7l0.4,1.7l42.1-9.7L478,485z"/>
	<path class="st4" d="M476.3,477.9l-42.1,9.7l0.4,1.7l42.1-9.7L476.3,477.9z"/>
	<path class="st4" d="M474.6,470.2l-42.1,9.7l0.4,1.7l42.1-9.7L474.6,470.2z"/>
	<path class="st4" d="M465.5,430.7l-42.1,9.7l0.4,1.7l42.1-9.7L465.5,430.7z"/>
	<path class="st4" d="M466.4,435.1l-42.1,9.7l0.4,1.7l42.1-9.7L466.4,435.1z"/>
	<path class="st4" d="M467.8,440.3l-42.1,9.7l0.4,1.7l42.1-9.7L467.8,440.3z"/>
	<path class="st4" d="M469.1,446.7l-42.1,9.7l0.4,1.7l42.1-9.7L469.1,446.7z"/>
	<path class="st4" d="M470.9,453.8l-42.1,9.7l0.4,1.7l42.1-9.7L470.9,453.8z"/>
	<path class="st4" d="M472.6,461.6l-42.1,9.7l0.4,1.7l42.1-9.7L472.6,461.6z"/>
</g>
<path class="st37" d="M483.8,501.8c17.1-3.9,27.3-22.9,22.8-42.4c-4.5-19.5-22-32.1-39.1-28.2c-17.1,3.9-27.3,22.9-22.8,42.4
	C449.3,493.1,466.8,505.7,483.8,501.8z"/>
<path class="st38" d="M505.7,460.6c-4.5-19.6-21.9-32.1-39.1-28.3c-7.2,1.5-13,5.8-17.2,11.8c4.3-6.6,10.5-11.4,18.2-13.2
	c17-3.9,34.5,8.7,39.1,28.3c2.7,11.4,0.2,22.7-5.6,30.8C506.3,481.9,508.2,471.4,505.7,460.6z"/>
<path class="st38" d="M481.9,494.5c12.8-2.9,20.1-17.6,16.7-32.7c-3.5-15.1-16.7-25.2-29.4-22.3c-12.8,2.9-20.1,17.6-16.6,32.7
	C456.1,487.5,469.3,497.6,481.9,494.5z"/>
<path class="st21" d="M482.1,493.7c12.8-2.9,20.1-17.6,16.6-32.7c-3.5-15.1-16.6-25.2-29.4-22.3c-12.8,2.9-20.1,17.6-16.7,32.7
	C456.1,486.7,469.3,496.8,482.1,493.7z"/>
<path class="st4" d="M479.4,492.9c12.8-2.9,20.1-17.6,16.7-32.7c-2.3-10.3-9.1-18-17.2-21.1c9.3,2.3,17.4,10.6,19.9,22.1
	c3.5,15.1-4.1,29.8-16.7,32.7c-4.1,1-8.3,0.6-12.2-1C473,493.5,476.1,493.7,479.4,492.9z"/>
<path class="st4" d="M474.9,451.9c1.2,0,2.3,0,3.3,0.2c1,0.2,1.9,0.6,2.7,1c0.8,0.4,1.5,1,2.1,1.5c0.6,0.6,1,1.2,1.2,1.7
	c0,0.2,0,0.4,0,0.6c-0.2,0.2-0.2,0.4-0.4,0.4l-4.8,1.5c-0.4,0.2-0.6,0.2-0.8,0.2c-0.2,0-0.6-0.2-0.8-0.2c0,0-0.2-0.2-0.4-0.2
	c-0.2-0.2-0.6-0.2-0.8-0.4c-0.4,0-0.8-0.2-1.2-0.2c-0.4,0-1,0.2-1.7,0.2c-0.4,0.2-1,0.4-1.4,0.6c-0.4,0.2-0.8,0.4-1,0.6
	c-0.2,0.2-0.6,0.6-0.6,0.8c-0.2,0.4-0.2,0.6,0,1c0.2,0.4,0.4,0.6,0.6,0.8c0.4,0.2,0.8,0.2,1.4,0.4c0.6,0,1.4,0,2.3,0
	c1,0,2.1-0.2,3.5-0.4c1.4-0.2,2.7-0.2,3.9,0c1.2,0.2,2.1,0.4,2.9,0.8c0.8,0.4,1.5,1,2.1,1.7c0.6,0.8,1,1.7,1.4,2.7
	c0.4,1,0.4,1.9,0.2,2.9c-0.2,1-0.4,1.9-1,2.7c-0.6,0.8-1.2,1.7-1.9,2.3c-0.8,0.8-1.9,1.4-2.9,1.9l0.8,2.5c0,0.2,0,0.6,0,0.8
	c-0.2,0.2-0.4,0.4-0.6,0.6l-4.6,1.5c-0.2,0-0.6,0-0.8,0c-0.2-0.2-0.4-0.4-0.6-0.6l-0.8-2.7c-1.2,0-2.3,0-3.5-0.2
	c-1.2-0.2-2.1-0.6-2.9-1c-0.8-0.4-1.5-1-2.1-1.5c-0.6-0.6-1-1.4-1.4-2.1c0-0.2,0-0.4,0-0.6c0.2-0.2,0.2-0.4,0.4-0.4l4.8-1.5
	c0.4-0.2,0.6-0.2,0.8-0.2c0.2,0,0.4,0,0.8,0.2c0.2,0,0.4,0.2,0.6,0.4c0.2,0.2,0.6,0.4,1,0.4c0.4,0,0.8,0.2,1.4,0.2
	c0.6,0,1.2,0,1.9-0.4c1.4-0.4,2.3-0.8,3.1-1.4c0.8-0.6,1-1.2,0.8-1.9c-0.2-0.4-0.4-0.6-0.8-0.8c-0.4-0.2-1-0.2-1.5-0.2
	c-0.8,0-1.5,0-2.5,0.2c-1,0.2-2.3,0.2-3.7,0.4c-2.7,0.2-4.6,0-6.2-1c-1.5-1-2.5-2.3-3.3-4.5c-0.2-0.8-0.4-1.7-0.2-2.5
	c0-1,0.4-1.7,0.8-2.5c0.4-0.8,1-1.5,1.7-2.3c0.8-0.8,1.5-1.4,2.5-1.9l-0.8-2.7c0-0.2,0-0.6,0-0.8c0.2-0.2,0.4-0.4,0.6-0.6l4.6-1.5
	c0.2,0,0.6,0,0.8,0c0.2,0.2,0.4,0.4,0.6,0.6L474.9,451.9z"/>
<path class="st37" d="M475.7,451.1c1.2,0,2.3,0,3.3,0.2c1,0.2,1.9,0.6,2.7,1c0.8,0.4,1.5,1,2.1,1.5c0.6,0.6,1,1.2,1.2,1.7
	c0,0.2,0,0.4,0,0.6c-0.2,0.2-0.2,0.4-0.4,0.4l-4.8,1.5c-0.4,0.2-0.6,0.2-0.8,0.2c-0.2,0-0.6-0.2-0.8-0.2c0,0-0.2-0.2-0.4-0.2
	c-0.2-0.2-0.6-0.2-0.8-0.4c-0.4,0-0.8-0.2-1.2-0.2s-1,0.2-1.7,0.4c-0.4,0.2-1,0.4-1.4,0.6c-0.4,0.2-0.8,0.4-1,0.6
	c-0.2,0.2-0.6,0.6-0.6,0.8c-0.2,0.4-0.2,0.6,0,1c0.2,0.4,0.4,0.6,0.6,0.8c0.4,0.2,0.8,0.2,1.4,0.4c0.6,0,1.4,0,2.3,0
	s2.1-0.2,3.5-0.4c1.4-0.2,2.7-0.2,3.9,0c1.2,0.2,2.1,0.4,2.9,0.8c0.8,0.4,1.5,1,2.1,1.7c0.6,0.8,1,1.7,1.4,2.7s0.4,1.9,0.2,2.9
	c-0.2,1-0.4,1.9-1,2.7c-0.6,0.8-1.2,1.7-1.9,2.3c-0.8,0.8-1.9,1.4-2.9,1.9l0.8,2.5c0,0.2,0,0.6,0,0.8c-0.2,0.2-0.4,0.4-0.6,0.6
	l-4.6,1.5c-0.2,0-0.6,0-0.8,0c-0.2-0.2-0.4-0.4-0.6-0.6l-0.8-2.7c-1.2,0-2.3,0-3.5-0.2c-1.2-0.2-2.1-0.6-2.9-1
	c-0.8-0.4-1.5-1-2.1-1.5s-1-1.4-1.4-2.1c0-0.2,0-0.4,0-0.6c0.2-0.2,0.2-0.4,0.4-0.4l4.8-1.5c0.4-0.2,0.6-0.2,0.8-0.2
	c0.2,0,0.4,0,0.8,0.2c0.2,0,0.4,0.2,0.6,0.4c0.2,0.2,0.6,0.4,1,0.4c0.4,0.2,0.8,0.2,1.4,0.2c0.6,0,1.2,0,1.9-0.4
	c1.4-0.4,2.3-0.8,3.1-1.4c0.8-0.6,1-1.2,0.8-1.9c-0.2-0.4-0.4-0.6-0.8-0.8c-0.4-0.2-1-0.2-1.5-0.2c-0.8,0-1.5,0-2.5,0.2
	c-1,0.2-2.3,0.2-3.7,0.4c-2.7,0.2-4.6,0-6.2-1c-1.5-1-2.5-2.3-3.3-4.5c-0.2-0.8-0.4-1.7-0.2-2.5c0-1,0.4-1.7,0.8-2.5
	c0.4-0.8,1-1.5,1.7-2.3c0.8-0.8,1.5-1.4,2.5-1.9l-0.8-2.7c0-0.2,0-0.6,0-0.8c0.2-0.2,0.4-0.4,0.6-0.6l4.6-1.5c0.2,0,0.6,0,0.8,0
	c0.2,0.2,0.4,0.4,0.6,0.6L475.7,451.1z"/>
<path class="st39" d="M587,366.5c0.6-0.2,0-1-0.6-1c0,0-0.2,0-0.4,0c1-0.2,1.9-0.4,2.1-0.6c0.6-0.2,0.2-1-0.4-1
	c0.4-0.2,0.8-0.2,0.8-0.2c0.8-0.4,0.2-1-0.6-1c-0.2,0-0.6,0-1.2,0.2c0.2,0,0.6-0.2,0.6-0.2c0.6-0.2,0.2-1-0.4-1
	c-0.2,0-0.6,0-1.4,0.2c-0.6,0-1.4,0.2-2.1,0.2c-0.6,0-3.5,0.2-4.3-1.2c-1-1.9,2.9-1.7,3.3-3.3c0.2-0.6-2.9-0.2-4.5,0.2
	c-1.5,0.4-2.3,0.6-3.3,1c-1,0.4-2.1,1.4-2.7,1.4s-2.3-0.2-2.3-0.2l-0.6,5.4c0,0,3.3,0.2,4.1,0.6c2.1,1.2,4.1,1.7,6.4,1.7
	c1.5,0,2.9-0.4,4.5-0.6C584.9,367.3,586.8,366.7,587,366.5z"/>
<path class="st40" d="M503.4,480.1c0,0,3.3,4.6,4.6,6c1.5,1.4,6.4-2.9,6.2-4.3c-0.2-1.4-6.2-8.3-6.2-8.3"/>
<path class="st41" d="M516.7,482.1c1.4,1.5,3.9,4.6,3.9,4.6l-4.1,5.2l-1.4-0.4c0,0-0.4,2.3-1.5,3.9c-1,1.2-3.1,3.3-4.5,4.3
	c-4.5,2.9-8.3,3.9-8.9,3.3c-2.7-2.1,3.1-6.2,4.1-7.2c2.9-2.7,3.3-6.8,2.5-9.1c-0.6-1.5-1-1.7-0.2-1.9c0,0,0.6-0.4,1.7,0
	c1.5,0.6,3.3,0.2,4.3-1.2c0.6-0.8,1-1.5,1-2.5C513.8,481.1,515.4,480.5,516.7,482.1z"/>
<path class="st40" d="M422.5,484.4c0,0-1.5,5.4-1.5,7.4c-0.2,1.9,6.2,3.1,7.2,2.1c1-1,2.5-10.1,2.5-10.1"/>
<path class="st41" d="M429.4,496c-0.2,2.1-1.2,6-1.2,6l-6.6,0.2l-0.6-1.4c0,0-2.1,1.2-4.1,1.2c-1.5,0-4.5-0.4-6-0.8
	c-5-1.5-8.3-3.9-8.3-4.8c0-3.5,6.8-1.5,8.1-1.4c4.1,0.6,7.4-1.7,8.7-3.7c1-1.4,0.6-1.7,1.4-1.4c0,0,0.8,0.2,1.2,1.2
	c0.6,1.5,1.9,2.7,3.5,2.5c1,0,1.9-0.2,2.7-0.8C428.5,493.1,429.8,493.9,429.4,496z"/>
<path class="st42" d="M451.3,369c0,0-18.6,47-20.7,57.3c-2.3,10.1-11,61.2-11,61.2s8.1,2.3,11,1.4c2.1-8.3,23-73.2,36.6-90.6
	C481.1,380.6,451.3,369,451.3,369z"/>
<path class="st42" d="M464.3,395c0,0-4.3,22.8,9.9,46.1c14.1,23.2,28.7,40.7,28.7,40.7s6-2.9,8.3-6.2c-4.3-5.8-23.4-39.1-23.4-52.1
	c0-13,5-43.8,5-43.8l-21.5-5L464.3,395z"/>
<path class="st40" d="M570.2,365.5c0,0-24.4,1.2-36.8-2.3c-12.6-3.5-33.9-18.8-33.9-18.8l-25.2-19.4c-6.4-8.1-14.7-31-15.9-35.2
	c-1.4-4.3-5.8-32.7-5.8-32.7l5.4-0.6c0,0,6.2,20.3,9.3,31.8c2.9,10.6,19.4,25.4,23.4,29c0.2,0.2,0.6,0.4,0.6,0.6
	c2.5,2.1,0.6,6.2,0.6,6.2l4.3,1.5c0,0,4.6-2.3,7.6,0.2c0.2,0.2,0.6,0.6,1,1c3.9,4.3,13.6,19.6,33.1,27.3c14.3,3.5,30,6,33.9,6.2
	C570.6,364,570.2,365.5,570.2,365.5z"/>
<path class="st40" d="M504.4,326.8c-0.8,1.4-6,4.8-10.5,3.1c-8.9-4.1-3.9-12.2-3.5-12.6c0.2,0.2,0.6,0.4,0.6,0.6
	c2.5,2.1,4.3-2.9,4.3-2.9l8.9,4.8c0,0-3.9,3.5-1,6C503.6,326,504,326.4,504.4,326.8z"/>
<path class="st43" d="M505.3,354.5c0,0-7.9,18.2-11,30.6c-21.9,5.2-36.4-4.8-42.8-11.4c-2.7-2.7-4.1-4.6-4.1-4.6s6-10.6,9.5-18.6
	c3.5-7.9,8.9-18.4,12.8-25.4c0.2-1.2-3.3-6.6-7-14.5c5-1.9,12.8-10.1,12.8-10.1l14.9,16.8c0,0-4.5,7.4,1.4,11.4
	c5.8,3.9,9.7,0.6,12.6-1.9c2.3,3.3,14.9,14.5,22.5,19.7l-9.9,16.5C516.9,363,508.4,358,505.3,354.5z"/>
<path class="st44" d="M501.2,292c-1.4-0.2-2.7,0.2-3.5,1.2c-0.8,1-1.2,2.3-0.8,3.7c-1-0.6-2.3,0.2-2.7,1.2c-0.4,1-0.4,2.1-0.2,3.3
	c0.2,1.4,0.6,2.7,1.7,3.3c0.8,0.6,1.7,0.6,2.7,0.4c0.6-0.2,1.4-0.4,1.7-0.8c0.6-0.4,1.2-1,1.5-1.7c1.5-2.1,3.3-4.3,4.8-6.4
	c0.4-0.4,0.6-1,0.6-1.5"/>
<path class="st40" d="M513.3,316.5c-1.4,1.2-2.5,2.5-4.1,3.5c-2.1,1.5-4.3,1.9-6.8,0.8c-2.7-1.4-5.6-2.7-7.9-4.8
	c-2.5-2.3-2.9-4.3-1.5-7.6c0.8-1.9,1.7-3.9,2.5-5.8c1.9-4.1,4.1-8.1,6.6-11.8c0.6-1,1.2-2.1,2.5-1.5c3.9,1.7,7.7,3.7,11.4,6.2
	c2.5,1.7,5,3.7,6.2,6.6c1,2.9,0.4,6-0.2,9.1c-0.2,0.4-0.4,1.2-0.8,1.2"/>
<path class="st44" d="M512.9,310c0.8-0.8,2.1,0,2.3,1.2c0.2,1-0.4,2.1-0.8,2.9c-0.6,1.2-1.9,1.9-3.1,2.5c-1.2,0.6-2.3,0.6-2.7-0.8
	c-1.2,1.5-0.6,3.7,0.6,4.5c1.2,0.8,2.7,0.8,3.7-0.2c3.7,4.8,9.7-1.2,12.2-4.6c1.9-2.7,3.1-6.6,3.1-9.9c0-1.7-0.6-3.7-1.9-4.8
	c1-1.9,0.6-4.3-0.4-6.2c-1-1.9-2.1-3.1-3.7-4.6c-1-1-4.5-1.9-5.6-1.2c-1.4-2.5-3.9-2.5-5.6-3.3c-1.7-0.8-4.6-0.4-4.8,1.5
	c-2.1-2.3-6.8-1.2-7.6,1.9c-0.8,3.1,2.3,6.4,5.4,6c-0.4,2.1,1,4.3,2.9,5.4c1.9,1.2,4.1,1.5,6.4,1.5c-1.2,0.6-2.1,1.7-2.3,3.3
	c-0.2,1.4-0.4,2.5,1.5,3.3c0,0-1.7,2.5-1,2.5C511.9,311.1,512.9,310,512.9,310z"/>
<path class="st45" d="M449,241.2c0.2-0.6,1-0.2,1.2,0.4c0,0,0,0.2,0,0.4c0-1.2,0.2-1.9,0.2-2.1c0.2-0.6,1-0.2,1.2,0.2
	c0-0.4,0-0.8,0.2-1c0.2-0.8,1-0.4,1.2,0.4c0,0.2,0,0.6,0,1.2c0-0.2,0-0.6,0-0.6c0.2-0.6,1-0.4,1,0.2c0,0.2,0,0.6,0,1.4
	c0,0.6,0,1.4,0,2.1c0,0.6,0.4,3.5,1.7,4.1c2.1,0.8,1.2-3.1,2.9-3.7c0.6-0.2,0.6,2.7,0.4,4.5c-0.2,1.5-0.2,2.5-0.6,3.3
	c-0.2,1-1,2.1-1,2.9c0,0.6,0.4,2.3,0.4,2.3l-5.2,1.4c0,0-0.6-3.3-1.2-4.1c-1.4-1.9-2.3-3.9-2.7-6.2c-0.2-1.5-0.2-2.9,0-4.5
	C448.6,243.6,449,241.4,449,241.2z"/>
<path class="st46" d="M494.3,385.1c-21.9,5.2-36.4-4.8-42.8-11.4c22.8,17.4,38.1,9.5,40.5,8.9c0.6-5.4,11.2-30.6,11.2-30.6
	s1.7,2.1,2.1,2.3C505.3,354.5,497.4,372.7,494.3,385.1z"/>
<path class="st47" d="M648,557.2c0,1.9-25.8,3.7-57.5,3.9c-31.8,0.2-57.7-1.2-57.7-3.1c0-1.9,25.8-3.7,57.5-3.9
	C622.2,553.9,648,555.3,648,557.2z"/>
<path class="st40" d="M565.7,533.8c0,0-0.4,5.4,0.4,9.5c1,2.9,0.6,3.7,0.6,3.7l-11,0.8c0,0,4.5-3.1,2.5-14.3
	C555.8,522.2,565.7,533.8,565.7,533.8z"/>
<path class="st44" d="M566.3,544.2c0,0-4.5,2.5-9.5,1.9c-5.2,3.5-8.9,5-13.9,6.4c-5,1.4-3.5,5.4,5,3.5c8.5-1.9,14.5-2.3,16.7-2.5
	c1.9-0.2,5-0.4,5-1.7C569.6,550.6,567.9,543.7,566.3,544.2z"/>
<path class="st40" d="M622.2,525.6c0,0,1.9,5,4.5,8.5c2.1,2.1,2.1,3.1,2.1,3.1l-9.7,5.4c0,0,2.7-4.8-3.9-14.1
	C608.5,519.4,622.2,525.6,622.2,525.6z"/>
<path class="st44" d="M627.3,534.7c0,0-3.1,4.3-7.7,5.8c-3.3,5.2-6,8.3-9.9,11.8c-3.9,3.3-0.8,6.4,6.2,1c7-5.4,12.2-8.5,13.9-9.3
	c1.7-1,4.5-2.5,3.9-3.7C632.9,539.2,628.4,533.6,627.3,534.7z"/>
<path class="st40" d="M548.5,317.5c0,0,3.3-5.8,4.6-8.1c1.5-2.3,7.9,3.5,7.9,3.5s0.6,2.5-2.5,4.3c-3.1,1.7-5,1.7-5.8,3.9
	c-0.6,2.1-4.5-0.8-4.5-0.8L548.5,317.5z"/>
<path class="st40" d="M593,318.9c0,0-2.9-6.4-4.3-8.7c-1.4-2.5-8.1,3.1-8.1,3.1s-0.8,2.5,2.3,4.5c3.1,1.7,5,1.9,5.6,4.1
	c0.6,2.1,4.5-0.6,4.5-0.6V318.9z"/>
<defs>
	<filter id="Adobe_OpacityMaskFilter_12_" filterUnits="userSpaceOnUse" x="554.7" y="306.5" width="36.4" height="11">
		<feColorMatrix  type="matrix" values="1 0 0 0 0  0 1 0 0 0  0 0 1 0 0  0 0 0 1 0"/>
	</filter>
</defs>
<mask maskUnits="userSpaceOnUse" x="554.7" y="306.5" width="36.4" height="11" id="mask12_1_">
	<path class="st48" d="M591.1,309.2l-0.2,4.5c0,1.5-8.1,2.5-18.2,2.3c-10.1-0.2-18-1.5-18-3.1l0.2-4.5L591.1,309.2z"/>
</mask>
<g class="st49">
	<path class="st8" d="M591.1,309.2l-0.2,4.5c0,1.5-8.1,2.5-18.2,2.3c-10.1-0.2-18-1.5-18-3.1l0.2-4.5L591.1,309.2z"/>
	<path class="st4" d="M589.7,307.4l-0.2,10.1l0.8,0l0.2-10.1L589.7,307.4z"/>
	<path class="st4" d="M587.6,307.3l-0.2,10.1l0.8,0l0.2-10.1L587.6,307.3z"/>
	<path class="st4" d="M585.1,307.2l-0.2,10.1l0.8,0l0.2-10.1L585.1,307.2z"/>
	<path class="st4" d="M581.8,307.2l-0.2,10.1l0.8,0l0.2-10.1L581.8,307.2z"/>
	<path class="st4" d="M578.4,307.2l-0.2,10.1l0.8,0l0.2-10.1L578.4,307.2z"/>
	<path class="st4" d="M574.7,307l-0.2,10.1l0.8,0l0.2-10.1L574.7,307z"/>
	<path class="st4" d="M555.3,306.5l-0.2,10.1l0.8,0l0.2-10.1L555.3,306.5z"/>
	<path class="st4" d="M557.6,306.6l-0.2,10.1l0.8,0l0.2-10.1L557.6,306.6z"/>
	<path class="st4" d="M560.1,306.7l-0.2,10.1l0.8,0l0.2-10.1L560.1,306.7z"/>
	<path class="st4" d="M563.2,306.8l-0.2,10.1l0.8,0l0.2-10.1L563.2,306.8z"/>
	<path class="st4" d="M566.8,306.9l-0.2,10.1l0.8,0l0.2-10.1L566.8,306.9z"/>
	<path class="st4" d="M570.5,306.9l-0.2,10.1l0.8,0l0.2-10.1L570.5,306.9z"/>
</g>
<path class="st9" d="M554.9,308.4c0,1.5,7.9,2.9,18,3.1c10.1,0.2,18-0.8,18.2-2.3c0-1.5-7.9-2.9-18-3.1
	C563,305.7,554.9,306.9,554.9,308.4z"/>
<path class="st8" d="M558.6,308c0,0.8,6.4,1.4,14.3,1.5c7.9,0.2,14.3-0.2,14.3-1c0-0.8-6.4-1.4-14.3-1.5
	C565.1,307.1,558.6,307.5,558.6,308z"/>
<path class="st4" d="M586.6,309.2c-1.7-0.6-7.2-1-13.7-1.2c-6.4-0.2-12,0.2-13.7,0.6c-0.4-0.2-0.6-0.2-0.6-0.4c0-0.8,6.4-1.2,14.3-1
	c7.9,0.2,14.3,1,14.3,1.5C587.4,308.8,587,309,586.6,309.2z"/>
<defs>
	<filter id="Adobe_OpacityMaskFilter_13_" filterUnits="userSpaceOnUse" x="551.2" y="301.4" width="36.4" height="11">
		<feColorMatrix  type="matrix" values="1 0 0 0 0  0 1 0 0 0  0 0 1 0 0  0 0 0 1 0"/>
	</filter>
</defs>
<mask maskUnits="userSpaceOnUse" x="551.2" y="301.4" width="36.4" height="11" id="mask13_1_">
	<path class="st50" d="M587.6,304.2l-0.2,4.5c0,1.5-8.1,2.5-18.2,2.3c-10.1-0.2-18-1.5-18-3.1l0.2-4.5L587.6,304.2z"/>
</mask>
<g class="st51">
	<path class="st8" d="M587.6,304.2l-0.2,4.5c0,1.5-8.1,2.5-18.2,2.3c-10.1-0.2-18-1.5-18-3.1l0.2-4.5L587.6,304.2z"/>
	<path class="st4" d="M586.4,302.3l-0.2,10.1l0.8,0l0.2-10.1L586.4,302.3z"/>
	<path class="st4" d="M584.2,302.2l-0.2,10.1l0.8,0l0.2-10.1L584.2,302.2z"/>
	<path class="st4" d="M581.8,302.2l-0.2,10.1l0.8,0l0.2-10.1L581.8,302.2z"/>
	<path class="st4" d="M578.4,302.1l-0.2,10.1l0.8,0l0.2-10.1L578.4,302.1z"/>
	<path class="st4" d="M575.1,302l-0.2,10.1l0.8,0l0.2-10.1L575.1,302z"/>
	<path class="st4" d="M571.4,302l-0.2,10.1l0.8,0l0.2-10.1L571.4,302z"/>
	<path class="st4" d="M551.9,301.4l-0.2,10.1l0.8,0l0.2-10.1L551.9,301.4z"/>
	<path class="st4" d="M554.2,301.7l-0.2,10.1l0.8,0l0.2-10.1L554.2,301.7z"/>
	<path class="st4" d="M556.8,301.6l-0.2,10.1l0.8,0l0.2-10.1L556.8,301.6z"/>
	<path class="st4" d="M559.8,301.7l-0.2,10.1l0.8,0l0.2-10.1L559.8,301.7z"/>
	<path class="st4" d="M563.4,301.9l-0.2,10.1l0.8,0l0.2-10.1L563.4,301.9z"/>
	<path class="st4" d="M567.1,301.9l-0.2,10.1l0.8,0l0.2-10.1L567.1,301.9z"/>
</g>
<path class="st9" d="M551.6,303.2c0,1.5,7.9,2.9,18,3.1c10.1,0.2,18-0.8,18.2-2.3c0-1.5-7.9-2.9-18-3.1
	C559.7,300.7,551.6,301.8,551.6,303.2z"/>
<path class="st8" d="M555.3,303c0,0.8,6.4,1.4,14.3,1.5c7.9,0.2,14.3-0.2,14.3-1c0-0.8-6.4-1.4-14.3-1.5
	C561.7,302,555.3,302.4,555.3,303z"/>
<path class="st4" d="M583.3,304.2c-1.7-0.6-7.2-1-13.7-1.2c-6.4-0.2-12,0.2-13.7,0.6c-0.4-0.2-0.6-0.2-0.6-0.4c0-0.8,6.4-1.2,14.3-1
	c7.9,0.2,14.3,1,14.3,1.5C583.9,303.8,583.7,304,583.3,304.2z"/>
<defs>
	<filter id="Adobe_OpacityMaskFilter_14_" filterUnits="userSpaceOnUse" x="554.5" y="296.6" width="36.4" height="11">
		<feColorMatrix  type="matrix" values="1 0 0 0 0  0 1 0 0 0  0 0 1 0 0  0 0 0 1 0"/>
	</filter>
</defs>
<mask maskUnits="userSpaceOnUse" x="554.5" y="296.6" width="36.4" height="11" id="mask14_1_">
	<path class="st52" d="M590.9,299.3l-0.2,4.5c0,1.5-8.1,2.5-18.2,2.3c-10.1-0.2-18-1.5-18-3.1l0.2-4.5L590.9,299.3z"/>
</mask>
<g class="st53">
	<path class="st8" d="M590.9,299.3l-0.2,4.5c0,1.5-8.1,2.5-18.2,2.3c-10.1-0.2-18-1.5-18-3.1l0.2-4.5L590.9,299.3z"/>
	<path class="st4" d="M589.6,297.5l-0.2,10.1l0.8,0l0.2-10.1L589.6,297.5z"/>
	<path class="st4" d="M587.5,297.4l-0.2,10.1l0.8,0l0.2-10.1L587.5,297.4z"/>
	<path class="st4" d="M584.8,297.3l-0.2,10.1l0.8,0l0.2-10.1L584.8,297.3z"/>
	<path class="st4" d="M581.8,297.1l-0.2,10.1l0.8,0l0.2-10.1L581.8,297.1z"/>
	<path class="st4" d="M578.3,297.1l-0.2,10.1l0.8,0l0.2-10.1L578.3,297.1z"/>
	<path class="st4" d="M574.4,297.1l-0.2,10.1l0.8,0l0.2-10.1L574.4,297.1z"/>
	<path class="st4" d="M555.2,296.6l-0.2,10.1l0.8,0l0.2-10.1L555.2,296.6z"/>
	<path class="st4" d="M557.3,296.7l-0.2,10.1l0.8,0l0.2-10.1L557.3,296.7z"/>
	<path class="st4" d="M560,296.8l-0.2,10.1l0.8,0l0.2-10.1L560,296.8z"/>
	<path class="st4" d="M563.1,296.8l-0.2,10.1l0.8,0l0.2-10.1L563.1,296.8z"/>
	<path class="st4" d="M566.5,297l-0.2,10.1l0.8,0l0.2-10.1L566.5,297z"/>
	<path class="st4" d="M570.4,297l-0.2,10.1l0.8,0l0.2-10.1L570.4,297z"/>
</g>
<path class="st9" d="M554.7,298.4c0,1.5,7.9,2.9,18,3.1c10.1,0.2,18-0.8,18.2-2.3c0-1.5-7.9-2.9-18-3.1
	C563,295.8,554.9,296.8,554.7,298.4z"/>
<path class="st8" d="M558.5,298.2c0,0.8,6.4,1.4,14.3,1.5s14.3-0.2,14.3-1s-6.4-1.4-14.3-1.5C564.9,297,558.5,297.6,558.5,298.2z"/>
<path class="st4" d="M586.6,299.1c-1.7-0.6-7.2-1-13.7-1.2c-6.6-0.2-12,0.2-13.7,0.6c-0.4-0.2-0.6-0.2-0.6-0.4c0-0.8,6.4-1.2,14.3-1
	c7.9,0.2,14.3,1,14.3,1.5C587.2,298.9,587,299.1,586.6,299.1z"/>
<path class="st40" d="M556.6,315c0,0,2.1-0.6,2.5-1.4c0.4-0.8,1-2.3,1.9-2.1c1.4,0.2,0.2,3.3-0.4,3.9"/>
<path class="st40" d="M585.1,315.6c0,0-2.1-0.6-2.5-1.5c-0.4-1-0.8-2.3-1.9-2.3c-1.4,0.2,0,3.5,0.6,4.3"/>
<path class="st42" d="M570.6,439.5c0,0,9.7,35.4,15.7,44.7c5.8,9.5,31.8,50.3,31.8,50.3s4.6-2.5,7.4-3.9
	c-12.8-32.9-16.6-42.2-24.6-55.2c-4.6-18.6-1.7-43.8-13.4-59.8c-3.5-4.8-19.7,4.5-19.7,4.5L570.6,439.5z"/>
<path class="st42" d="M554.1,419c0,0-1.4,50.7-1.4,60.2c0,9.7,4.8,61,4.8,61s3.5,1.5,9.3-1.4c0.2-11.8,2.3-29.4,0.6-57.1
	c6.2-26.3,9.9-52.3,9.9-52.3l-0.6-13.7L554.1,419z"/>
<path class="st44" d="M559.1,348.9c0,0-5.6,4.8-3.3,15.3c0.8,3.1-3.3,7.6-6.2,9.9c-2.7,2.3-5,7.7-2.5,12.4c2.5,4.6,3.3,5,1.9,9.7
	c-1.2,4.6-1.4,14.1,11.8,12.2c13-1.9,12.8-33.7,12.8-33.7l-1.7-13.7L559.1,348.9z"/>
<path class="st40" d="M578.5,366.9c0,0-0.6,0.4-1.5,0.8c0,0.4,0,1,0,1.4c0,2.7,0,4.5,0,4.5c-2.1,3.5-6,3.5-7.7,2.7
	c-0.2,0-0.4-0.2-0.4-0.2c-0.6-0.6-1-1.4-0.8-2.1c0.2-1.4,0.4-2.5,0.2-3.7c-1.7,0-3.7-0.2-5.4-1c-7-2.9-2.9-21.7-2.9-21.7
	s11.8-5,15.5-0.2C579.1,352,578.5,366.9,578.5,366.9z"/>
<path class="st54" d="M566.9,349.1c0,0-0.4,3.5,2.7,5.6c3.1,2.1,8.1,2.9,8.5,5.8c0.2,1.7-1.2,3.3-1.2,3.3s3.3-0.2,3.5-0.6
	c0.2-0.2,1.4-6.8,1.4-6.8s-7.2-6.8-7.9-7.2C573.1,348.9,566.9,349.1,566.9,349.1z"/>
<path class="st54" d="M577.1,373.3c-2.1,3.5-6,3.5-7.7,2.7c4.3,1.2,4.1-4.1,3.5-5c-0.6-1-2.7-1.4-2.7-1.4c1.7-0.2,4.1-0.8,4.1-0.8
	s2.3-0.6,3.3-0.6C577.7,371,577.1,373.3,577.1,373.3z"/>
<path class="st44" d="M571.7,338.8c-3.3,0.6-6.8,2.9-8.3,5.6c-1,1.5,4.5,3.1,4.5,5.4c0.2,4.6,5.4,6.4,9.5,8.1c1.2,0.4,2.5,2.5,0,4.8
	c0,0-3.7,3.5-3.3,7.5c0.4,3.5,7,2.9,7,2.9s-9.3,28.1-8.1,31.9c0.6,2.1,18.6,13,31,2.7c5-4.3,5.8-12.2,1.4-17.2
	c-3.3-3.9-3.3-6.4-3.1-7.4c3.3-12-2.7-20.3-9.7-23.6c-2.7-1.4-4.6-4.1-4.8-7.2c-0.2-3.3-1-7.4-3.9-10.1
	C580,339,575.6,338.2,571.7,338.8z"/>
<path class="st44" d="M555.8,341.5c-2.7,2.1-2.5,6.2,0.2,8.1c2.9,1.9,7.4,3.1,14.3-0.6c8.1-4.3,5.6-10.6,0.2-10.1
	C560.1,342.7,558.9,339,555.8,341.5z"/>
<path class="st55" d="M568,373.9c0,0,0.4,3.3,4.8,2.5c2.3-0.8,2.7-2.3,3.3-3.5c1.9,0.2,6.4,0.2,10.3-5c2.9-4.1,7.2-11,9.3-14.7
	c0.8-1.5,1-3.3,0.6-4.8c-1.9-7.7-9.5-26.9-9.5-26.9l7.6-2.7c0,0,7.6,19,11.4,28.5c1.4,3.1,1.2,6.6-0.4,9.7
	c-4.1,8.1-12,22.1-15.7,29.2c-1.2,4.3,4.8,34.7,4.8,34.7s-16.5,10.3-40.3,2.7c0-9.1,1-25.9,0.8-35.2c-0.2-9.7-5.2-8.7-18-35
	c-1.2-2.5-1.5-5.4-1-8.1c1.4-6.2,5.6-16.5,12.8-27.3c5,2.3,5.8,3.1,5.8,3.1s-6.8,16.8-9.1,23.8c-0.6,1.4-0.4,3.1,0.4,4.3
	C549.6,355.9,561.3,373.7,568,373.9z"/>
<path class="st44" d="M571,440.1l2.7,10.5l-1.2,6L571,440.1z"/>
<g class="st56">
	<path class="st57" d="M164,91.4c4.5-2.3,5.6-6.2,5.6-6.2c1.5,2.5,2.7,2.5,5.2,2.9c-1.4,2.3-3.1,4.3-5.6,5.6
		C166.9,94.5,165.2,93.3,164,91.4z"/>
	<g class="st58">
		<path class="st59" d="M224.4,0c2.9,4.3,6.8,5,6.8,5c-2.3,1.7-2.3,2.9-2.3,5.4c-2.5-1-4.6-2.7-6.2-5C221.7,3.1,222.5,1.4,224.4,0z"
			/>
		<path class="st59" d="M393.6,3.1c2.9,4.3,6.8,5,6.8,5c-2.3,1.7-2.3,2.9-2.3,5.4c-2.5-1-4.6-2.7-6.2-5
			C390.9,6.2,391.7,4.5,393.6,3.1z"/>
		<path class="st0" d="M552.6,159.7c2.5,4.3,6.6,5.4,6.6,5.4c-2.3,1.5-2.3,2.7-2.7,5.4c-2.5-1.2-4.5-2.9-6-5.4
			C549.8,162.6,550.6,161.1,552.6,159.7z"/>
		<path class="st59" d="M465.8,105.3c5,0.6,8.3-1.9,8.3-1.9c-0.2,2.9,0.8,3.7,2.5,5.4c-2.3,1.2-5,1.7-7.9,1.4
			C466.4,109.4,465.6,107.6,465.8,105.3z"/>
		<path class="st59" d="M51.9,175.2c4.6,1.9,8.5,0.4,8.5,0.4c-1,2.7-0.2,3.7,1,5.8c-2.7,0.6-5.2,0.4-7.9-0.8
			C51.3,179.3,51.1,177.5,51.9,175.2z"/>
	</g>
</g>
<g class="st56">
	<path class="st60" d="M112.9,47c4.3,2.9,8.1,2.1,8.1,2.1c-1.5,2.5-1,3.5-0.2,6c-2.7,0-5.2-0.8-7.7-2.3
		C111.7,51.1,111.7,49.2,112.9,47z"/>
	<path class="st60" d="M248,58.9c4.8,1.2,8.3-1,8.3-1c-0.4,2.9,0.4,3.7,2.1,5.6c-2.5,1-5.2,1.2-7.9,0.6
		C248.4,62.9,247.6,61,248,58.9z"/>
	<path class="st60" d="M388.4,59.4c2.5,4.3,6.6,5.4,6.6,5.4c-2.3,1.5-2.3,2.7-2.7,5.4c-2.5-1.2-4.5-2.9-6-5.4
		C385.7,62.5,386.4,60.8,388.4,59.4z"/>
	<path class="st57" d="M527.6,101.6c2.5,4.3,6.6,5.4,6.6,5.4c-2.3,1.5-2.3,2.7-2.7,5.4c-2.5-1.2-4.5-2.9-6-5.4
		C524.9,104.7,525.7,103,527.6,101.6z"/>
	<path class="st57" d="M429.2,224.2c4.8-1.5,6.8-5,6.8-5c1,2.7,2.1,2.9,4.6,3.9c-1.7,2.1-3.9,3.7-6.6,4.6
		C431.6,227.5,430.2,226.3,429.2,224.2z"/>
	<path class="st60" d="M477.2,24.8c4.6,1.9,8.5,0.4,8.5,0.4c-1,2.7-0.2,3.7,1.2,5.8c-2.7,0.6-5.2,0.4-7.9-0.8
		C476.9,28.8,476.7,26.9,477.2,24.8z"/>
	<path class="st57" d="M313.3,24.8c4.6,1.9,8.5,0.4,8.5,0.4c-1,2.7-0.2,3.7,1,5.8c-2.7,0.6-5.2,0.4-7.9-0.8
		C312.9,28.8,312.5,26.9,313.3,24.8z"/>
	<path class="st57" d="M111.7,252.3c0.4,5,3.3,7.7,3.3,7.7c-2.9,0.4-3.5,1.4-4.8,3.5c-1.7-2.1-2.7-4.6-2.9-7.6
		C107.7,253.6,109.4,252.5,111.7,252.3z"/>
	<path class="st60" d="M95.8,134.8c4.6-1.9,6.2-5.8,6.2-5.8c1.4,2.5,2.5,2.7,5,3.3c-1.5,2.3-3.5,4.1-6.2,5.2
		C98.5,137.8,97,136.9,95.8,134.8z"/>
	<path class="st60" d="M507.5,241.2c5-0.8,7.4-4.1,7.4-4.1c0.6,2.9,1.7,3.3,4.1,4.5c-1.9,1.9-4.5,3.1-7.2,3.5
		C509.2,245.1,508,243.6,507.5,241.2z"/>
</g>
<path class="st61" d="M115.2,566.1c0,1.9-25.7,3.7-57.5,3.9C25.9,570.2,0,568.8,0,566.9c0-1.9,25.7-3.7,57.5-3.9
	C89.4,562.8,115.2,564.2,115.2,566.1z"/>
<path class="st62" d="M122.5,286.2c0-0.8-1-0.4-1.2,0.2c0,0,0,0.2-0.2,0.6c0-1.2,0.2-2.1,0-2.3c0-0.6-1-0.4-1.2,0.2c0-0.4,0-0.8,0-1
	c0-0.8-1-0.6-1.2,0.2c0,0.2-0.2,0.6-0.2,1.2c0-0.4,0-0.6,0-0.6c0-0.8-1-0.6-1.2,0c0,0.2-0.2,0.6-0.2,1.4c-0.2,0.8-0.4,1.5-0.4,2.1
	c0,0.6-0.8,3.7-2.3,4.1c-2.3,0.6-0.8-3.5-2.5-4.5c-0.6-0.2-1,2.9-1.2,4.6c0,1.7,0,2.7,0.2,3.7c0.2,1,0.8,2.5,0.6,3.1
	c-0.2,1-1.4,3.1-1.4,3.1l5.8,1.4c0,0,1.4-3.1,2.1-3.9c1.7-1.7,2.9-3.7,3.5-6.2c0.4-1.5,0.6-3.1,0.6-4.6
	C122.5,288.5,122.5,286.3,122.5,286.2z"/>
<path class="st62" d="M68,334.6c0,0,18.4-0.2,28.5-11.4c7.9-11.2,15.7-23.4,16.3-24.6c1.5,0.6,5,2.1,5,2.1s-10.5,23.6-14.7,28.8
	c-4.1,5.4-12.2,14.1-29.2,18.6C65.6,338.8,68,334.6,68,334.6z"/>
<path class="st63" d="M80,554.3c0,0,1,2.3,1,4.1c0,1.5-5.2,1.9-5.8,1.2c-0.6-0.8-1.2-8.1-1.2-8.1"/>
<path class="st41" d="M74,560.9c0,1.7,0.6,4.5,0.6,4.5l6-0.2l0.2-1c0,0,1.9,1,3.5,0.8l5-0.2c3.7-0.2,5.8-0.8,5.8-1.4
	c0.2-2.7-4.1-2.3-5.2-2.3c-3.3,0.2-7-1.2-7.7-2.9c-0.6-1.2-0.4-1.5-1-1.2c0,0-0.6,0.2-1,1c-0.6,1.2-1.7,1.9-3.1,1.7
	c-0.8-0.2-1.5-0.4-2.1-1C74.9,558.8,73.8,559.1,74,560.9z"/>
<path class="st63" d="M22.1,551c0,0-1,4.5-1.5,5.8c-0.6,1.5-5.6-0.2-5.8-1.2s1.9-8.1,1.9-8.1"/>
<path class="st41" d="M13,556.6c-0.6,1.5-1.4,4.6-1.4,4.6l4.6,2.5L17,563c0,0,1,1.5,2.5,2.3c1,0.6,3.3,1.4,4.5,1.7
	c4.1,0.8,7.4,0.2,7.6-0.4c1.4-2.3-4.3-3.5-5.2-3.9c-3.1-1.2-4.6-4.1-4.8-5.8c-0.2-1.4,0.2-1.5-0.6-1.5c0,0-0.6,0-1.2,0.6
	c-1,1-2.3,1.2-3.5,0.6c-0.6-0.4-1.2-1-1.5-1.5C14.7,555.1,13.4,555.1,13,556.6z"/>
<path class="st42" d="M38.1,434.5c0,0-8.9-19,4.6-33.5c0,0,12.2,4.8,21.9,5c7.6,0.2,11.4-0.8,11.4-0.8s2.3,13.9,2.3,36L38.1,434.5z"
	/>
<path class="st42" d="M73.4,556.4c0.2,0,0.6,0,0.8,0c5-0.2,7.7-0.8,7.7-0.8v-1.4c-1.2-22.1,0-58.3,0-69.7c0-0.8,0-1.5-0.2-2.1
	c-1.2-8.3-9.9-6.8-13.2,1c-0.8,1.7-1.4,3.9-1.7,6c-0.6,2.5-0.8,5.4-1,8.3C65.1,516.5,71.5,542.3,73.4,556.4z"/>
<path class="st42" d="M53.8,442.8c0,0.2,0.2,0.4,0.2,0.8c2.3,10.1,9.7,37,13,45.7c0.6,1.2,1.9,2.1,3.9,2.7c4.5,1,10.8-1,11-9.5
	c0-1,0-1.9-0.2-3.1c-0.8-7-4.1-45.9-4.5-49.6c-0.4-3.7-1.4-9.1-3.3-9.9C63.9,416.6,50.5,428.8,53.8,442.8z"/>
<path class="st64" d="M64.7,482.5c0,0,1.9,7.6,1.4,15.1c-0.8,7.5,3.3-6.8,3.3-6.8l-2.7-5L64.7,482.5z"/>
<path class="st65" d="M74.1,556.4c0,0-2.1-22.5-4.8-38.1c-2.1-12,0.4-22.5,1.5-26.5c0.4-1.2,0.6-1.9,0.6-1.9l-2.7-6.8
	c-3.1-8.7-4.1-29.4-4.1-29.4c6-14.9,6.2-33.1,6.2-33.1l-5.6,1l-9.7,12.6l-1.7,9.5c1.9,8.1,7,27.3,10.6,38.9c0,0,1.9,7.6,1.4,15.1
	c-0.2,1.2-0.2,1.7,0,1.9c-0.4,19,5.6,43.2,7.6,56.9C73.8,556.4,74,556.4,74.1,556.4z"/>
<path class="st42" d="M35.8,483.8c6.4-6.6,15.9-4.1,12,6c-4.3,10.6-17.4,40.3-24.4,61.2l-0.4,1.4c0,0-3.1-0.4-8.3-2.3
	c3.1-13.6,4.8-36.8,12-53.2C28.8,491.6,32.3,487.3,35.8,483.8z"/>
<path class="st42" d="M70.9,420.5c0.6-15.7-18.2-4.5-27.3,1c-3.9,2.3-5,6.8-5.4,10.8c-0.4,4.1-3.7,46.3-4.3,53.8
	c-1.5,17.2,13.2,7.4,14.3,2.5C51.1,476.5,70.5,429,70.9,420.5z"/>
<path class="st42" d="M34.7,475.5c0,0-0.2,8.3-6.8,18.8c0,0,11-5.6,11.6-6.6c0.6-0.8,2.1-8.9,1.9-9.7
	C41.2,477.1,34.7,475.5,34.7,475.5z"/>
<path class="st62" d="M68.3,322.2c0,1.2,0,5.8-2.3,6.8c-2.5,1.2-4.1,1.5-3.9,1.9c0,0.2,0.2,1,0.6,1.7c0.6,1.7,1.4,2.1,1.4,2.1
	l0.4,5.8L60,345l-1.4,1.4l-2.1-1.9l-7-6.4c0,0,2.9-3.5,1-7.4c-0.2-0.6-3.5-4.1-6-7.6c-1.5-2.1-2.7-4.3-3.1-5.6
	c-1-4.1-1.7-8.3,0.6-10.8c2.3-2.5,18.4-13.2,21.7-0.8c0,0,3.7,6.8,4.8,7.9c1.2,1.2,1,2.5-0.2,3.1C67,317.5,68.3,321,68.3,322.2z"/>
<path class="st66" d="M64.3,340.8l-4.5,4.5l-1.4,0.6l-2.3-1.2l-7-6.4c0,0,2.9-3.5,1-7.4c-0.2-0.6-3.5-4.1-6-7.6l-0.4-2.5
	c0,0,5-1.4,5.2-1.4s2.5,2.5,2.5,2.7s-0.4,3.1-0.4,3.1s0.6,3.9,1.4,6.6c0.4,1.5,1.9,2.7,3.7,2.7c1,0,2.1,0,3.1,0
	c1.7-0.2,2.7-1.2,3.3-1.7c0.6,1.7,1.4,2.1,1.4,2.1L64.3,340.8z"/>
<path class="st44" d="M49.4,318.5c0,0-0.4,8.3,5.6,11.8c6,3.5,14.1-0.4,15.1-1.5c1-1.2,3.7-8.5-0.8-11c-4.5-2.5-8.7,1.7-8.7,1.7
	s-2.5,2.7-3.5,2.7c-1,0-3.7-2.5-4.3-7.7c0-0.2,0.2-0.6,0.6-0.6c1.2-0.4,3.7-1.7,2.3-6.8c-0.2-0.4,0.2-0.8,0.8-1
	c1.5-0.2,5-0.6,5.8-0.6c0,0,0.6,0,1.2,0c0.2,0,0.4,0.2,0.4,0.2c0.2,0.4,0.8,1.5,1,1.7c0.2,0.4,1.5,2.7,1.5,2.7s0.8-0.6,0.6-1.5
	c-0.2-1-1-2.9-1-3.3c0-0.4,1.5-1,1.5-2.1c0-2.5-1-11.8-8.3-6c-1,0.8-1.9,1.7-2.7,1.9c-1.2,0.4-2.3-0.4-4.8-0.2
	c-3.5,0.2-18.2,3.7-13.4,16.8c4.6,13.2,12.4,14.9,12.4,14.9S47.8,320.2,49.4,318.5z"/>
<path class="st66" d="M49.4,318.5c0,0-0.8-2.3-2.5-1.5c-2.5,1-2.3,7.2,3.3,6.4C50,323.3,49.2,320.8,49.4,318.5z"/>
<path class="st43" d="M80.7,408.9c0,0-19.9,4.8-44.9,0.2c1.2-7.7,1.7-19.9,2.1-28.8v-1c0.2-5.6,0.4-9.7,0.4-9.9
	c0.2-0.4-0.6-18.4,0.8-25.4c0.2-1.4,0.6-2.1,1.2-2.5c2.9-2.5,6.4-5,10.3-7c0,0,8.9,9.7,13.6-1c5-0.4,7.6,0.6,9.1,5.6
	C81.1,367.3,80.7,408.9,80.7,408.9z"/>
<path class="st43" d="M67.8,333.8c0,0,8.3,0.2,16.8-3.7c4.8,5.6,7.6,15.7,7.6,15.7s-11.4,7.4-19.9,7.9
	C70.5,341.7,67.8,333.8,67.8,333.8z"/>
<path class="st67" d="M69.3,335.5c0,0,5.2,6.6,6.8,17.6c5.8-1.2,14.9-6.2,15.9-7.4c-2.5,0.8-13.4,4.8-14.9,1.5
	C74.5,341.1,69.3,335.5,69.3,335.5z"/>
<path class="st68" d="M67.2,341.9l36.6,3.9l-6.6,14.7l-31.6-14.7c-1-0.4-1.4-1.4-1-2.1l0.4-0.8C65.4,342.1,66.2,341.7,67.2,341.9z"
	/>
<path class="st69" d="M67.2,341.9l36.6,3.9l-6.6,14.7l-31.6-14.7c-1-0.4-1.4-1.4-1-2.1l0.4-0.8C65.4,342.1,66.2,341.7,67.2,341.9z"
	/>
<path class="st68" d="M103.2,353.9c-1.9,4.1-4.8,7-6.4,6.4c-1.5-0.6-1.2-4.1,0.8-8.1c1.9-4.1,4.8-7,6.4-6.4
	C105.5,346.4,105.1,349.9,103.2,353.9z"/>
<path class="st70" d="M103.2,353.9c-1.9,4.1-4.8,7-6.4,6.4c-1.5-0.6-1.2-4.1,0.8-8.1c1.9-4.1,4.8-7,6.4-6.4
	C105.5,346.4,105.1,349.9,103.2,353.9z"/>
<path class="st69" d="M103.2,353.9c-1.9,4.1-4.8,7-6.4,6.4c-1.5-0.6-1.2-4.1,0.8-8.1c1.9-4.1,4.8-7,6.4-6.4
	C105.5,346.4,105.1,349.9,103.2,353.9z"/>
<path class="st62" d="M34.7,369.6c0,0,3.9,13.4,13.9,19.6c2.9,1.7,6.6,0.8,8.9-1.7c6.8-7.7,13.7-25,15.9-31.6
	c-4.1-2.1-5.2-1.7-5.2-1.7s-9.7,13.6-15.3,22.7l-4.3-7.4"/>
<path class="st62" d="M67.8,354.5c0,0,1.7-2.9,1.9-5c0-2.1-1-6,1.2-7.9c0.8-0.8,3.5-1.9,6.8-1.4c4.6,0.8,6,2.1,5.6,3.1
	c-0.2,1-3.5,1.4-4.3,2.9c-0.8,1.7-0.4,2.7-0.6,4.5c-0.4,2.7-4.1,3.9-5,5.2C72.8,357.2,67.8,354.5,67.8,354.5z"/>
<path class="st71" d="M39.7,402.9c1.2-4.1,1.7-18,1.7-21.7c3.1-0.4,9.1-2.7,12.8-8.3c-1.4-2.3-4.6-10.1-10.6-16.7l-3.5-13.2
	c0,0-0.4,0.4-1,1c-1.5,7-0.6,25-0.8,25.4c-0.2,0.2-0.2,4.3-0.4,9.9v1c-0.4,8.9-1,21.1-2.1,28.8c25,4.6,44.9-0.2,44.9-0.2
	C55.8,411,38.5,407.5,39.7,402.9z"/>
<path class="st43" d="M42.6,339.8c0,0-10.3,6.8-10.8,18.4c-0.4,8.9,5.6,21.9,5.6,21.9s10.3,1.2,15.7-7.2c-1.5-4.1-2.9-7.7-6-12.4"/>
<path class="st69" d="M319.8,358.6l0.6-117.3l-26.1-0.2l-0.6,106.5c0,0,0,0.2,0,0.6v8.7c-0.6,15.1-4.5,43.8-24.6,43.8L344,401
	C324.5,401,320.4,374,319.8,358.6z"/>
<path class="st69" d="M194,121.2c5.8,3.1,11,7.4,15.3,12.4c11,13.4,13,30,5.4,44.7c-2.9,5.8-7.7,10.3-13.7,12.4
	c-2.7,1.2-5.6,1.5-8.7,1.7c-10.1,0.2-20.1-4.8-25-12.8c-4.1-6.8-3.9-14.5,0.2-21.7c2.7-4.6,8.7-6.2,13.4-3.5
	c4.6,2.7,6.2,8.7,3.5,13.4c-0.8,1.2-0.6,1.5-0.4,1.9c1,1.5,4.3,3.5,7.6,3.3c3.5-0.2,4.8-2.1,5.6-3.5c0.2-0.2,0.2-0.4,0.4-0.8
	c4.5-9.1,1-16.7-2.3-21.1c-0.4-0.6-0.8-1.2-1.2-1.5c-7.9-9.5-21.5-14.1-32.3-10.8c-12.6,3.7-20.7,17.4-23.2,38.5
	c-4.6,40.9,24,68.5,41.6,81.3c19,13.9,37.9,21.1,50.7,23.8c7.4,1.5,12.6,1.5,14.9,0.6c4.8-2.1,10.6,0.2,12.8,5
	c1.4,2.9,1,6.2-0.4,8.9c-1,1.7-2.5,3.1-4.5,4.1c-2.3,1-4.8,1.5-7.9,1.9c-19.2,2.1-51.1-9.3-77.1-28.5c-36-26.5-53.6-61.8-49.4-99.1
	c4.5-39.7,25-51.7,37-55.2C168.6,112.9,182.4,114.8,194,121.2z"/>
<path class="st69" d="M417.2,121c-5.8,2.9-11.2,7-15.7,12c-11.4,13-13.9,29.6-6.8,44.5c2.7,6,7.6,10.5,13.4,12.8
	c2.7,1.2,5.6,1.7,8.5,1.9c10.1,0.6,20.3-4.3,25.4-12c4.3-6.6,4.5-14.5,0.4-21.7c-2.5-4.6-8.5-6.6-13.2-3.9
	c-4.6,2.5-6.6,8.5-3.9,13.2c0.6,1.2,0.4,1.5,0.2,1.9c-1,1.5-4.5,3.3-7.7,3.1c-3.5-0.2-4.8-2.3-5.6-3.7c-0.2-0.2-0.2-0.4-0.4-0.8
	c-4.1-9.3-0.4-16.7,2.9-21.1c0.4-0.6,0.8-1,1.2-1.5c8.1-9.3,21.9-13.4,32.7-9.9c12.4,4.1,20.3,18.2,22.1,39.3
	c3.3,40.9-26.1,67.8-43.9,80.2c-19.4,13.4-38.5,20.1-51.5,22.3c-7.4,1.4-12.6,1.2-14.9,0.2c-4.8-2.3-10.6-0.2-13,4.6
	c-1.4,2.9-1.2,6.2,0.2,8.9c1,1.7,2.5,3.3,4.5,4.1c2.1,1.2,4.8,1.7,7.7,2.1c19.2,2.7,51.5-7.7,78-26.1c36.8-25.4,55.4-60.2,52.5-97.6
	c-3.3-39.9-23.4-52.3-35.2-56.1C443,113.6,429,115,417.2,121z"/>
<g class="st72">
	<path class="st73" d="M347.5,282.5c-1.4,2.9-1.2,6.2,0.2,8.9c1,1.7,2.5,3.3,4.5,4.1c2.1,1.2,4.8,1.7,7.7,2.1
		c5.6-6,10.8-12.8,15.5-19.9c-7.4,1.4-12.6,1.2-14.9,0.2C355.6,275.7,349.8,277.6,347.5,282.5z"/>
</g>
<g class="st72">
	<path class="st73" d="M417.2,121c-5.8,2.9-11.2,7-15.7,12c-11.4,13-13.9,29.6-6.8,44.5c2.7,6,7.6,10.5,13.4,12.8
		c1.5-7.6,2.7-14.9,3.9-21.9c-4.1-9.3-0.4-16.6,2.9-21.1C416.1,136.9,416.8,128,417.2,121z"/>
</g>
<path class="st74" d="M405.6,107.1c0,0,0,7-0.6,18.6c-2.3,45.5-14.9,161.9-81.7,195l-3.3,2.7c-4.1,3.5-9.5,5.2-14.7,5l-3.3-0.2
	c-4.6-0.2-9.1-1.9-12.8-4.8l-3.9-3.1C219.9,286.7,208.1,172.9,206,126c-0.6-12.6-0.4-20.3-0.4-20.3c0-11.2,13.2-14.1,13.2-14.1
	l173.5,1C392.4,92.7,405.6,95.8,405.6,107.1z"/>
<path class="st75" d="M395.3,121.8l-179.5-1c-11,0-19.9-9.1-19.9-20.1c0-11,9.1-19.9,20.1-19.9l179.5,1c11,0,19.9,9.1,19.9,20.1
	C415.5,113.1,406.4,122,395.3,121.8z"/>
<g class="st76">
	<path class="st77" d="M405.6,107.1c0,0,0,7-0.6,18.6c-3.1,2.1-7,3.5-11.2,3.5l-179.5-1c-2.9,0-5.6-0.6-8.1-1.7
		c-0.6-12.6-0.4-20.3-0.4-20.3C205.8,94.9,219,92,219,92l173.5,1C392.4,92.7,405.6,95.8,405.6,107.1z"/>
</g>
<path class="st68" d="M395.3,121.8l-179.5-1c-11,0-19.9-9.1-19.9-20.1c0-11,9.1-19.9,20.1-19.9l179.5,1c11,0,19.9,9.1,19.9,20.1
	C415.5,113.1,406.4,122,395.3,121.8z"/>
<path class="st69" d="M395.3,121.8l-179.5-1c-11,0-19.9-9.1-19.9-20.1c0-11,9.1-19.9,20.1-19.9l179.5,1c11,0,19.9,9.1,19.9,20.1
	C415.5,113.1,406.4,122,395.3,121.8z"/>
<path class="st69" d="M389.7,500.7l-167.5-1l0.4-76.3c0-7.2,5.8-12.8,13-12.8l141.7,0.8c7.2,0,12.8,5.8,12.8,13L389.7,500.7z"/>
<path class="st68" d="M399,500.7l-186.1-1c-1.2,0-2.1-1-2.1-2.1v-10.3c0-1.2,1-2.1,2.1-1.9l186.1,1c1.2,0,2.1,1,2.1,2.1v10.3
	C400.9,499.9,400.2,500.7,399,500.7z"/>
<path class="st69" d="M399,500.7l-186.1-1c-1.2,0-2.1-1-2.1-2.1v-10.3c0-1.2,1-2.1,2.1-1.9l186.1,1c1.2,0,2.1,1,2.1,2.1v10.3
	C400.9,499.9,400.2,500.7,399,500.7z"/>
<path class="st74" d="M352.3,473.4l-92.5-0.6c-3.3,0-6-2.7-6-6.2L254,436c0-3.3,2.7-6,6.2-6l92.5,0.6c3.3,0,6,2.7,6,6.2l-0.2,30.6
	C358.5,470.7,355.6,473.4,352.3,473.4z"/>
<path class="st68" d="M346.9,411.2l-80.9-0.4c-0.8,0-1.5-0.6-1.5-1.5v-7.4c0-0.8,0.6-1.5,1.5-1.5l80.9,0.4c0.8,0,1.5,0.6,1.5,1.5
	v7.4C348.3,410.6,347.7,411.2,346.9,411.2z"/>
<path class="st69" d="M346.9,411.2l-80.9-0.4c-0.8,0-1.5-0.6-1.5-1.5v-7.4c0-0.8,0.6-1.5,1.5-1.5l80.9,0.4c0.8,0,1.5,0.6,1.5,1.5
	v7.4C348.3,410.6,347.7,411.2,346.9,411.2z"/>
<g class="st72">
	<path class="st78" d="M249.2,147.7c-2.9,34.8-3.9,112.3,38.7,162.2c2.1,2.5-1.2,6-3.9,4.1c-23.4-18.8-55.2-55.6-64.3-120.2
		c0,0-3.1-25.6-1.4-48.6c0.6-7.6,6.8-13.6,14.3-14.1C242.2,130.3,249.9,138.2,249.2,147.7z"/>
</g>
<g class="st76">
	<path class="st77" d="M356,146.4c1.2,34.8-2.1,112.5-47.2,159.9c-2.3,2.5,1,6.2,3.7,4.3c24.4-17.6,58.1-52.5,70.7-116.6
		c0,0,4.5-25.4,3.9-48.4c-0.2-7.6-6-13.9-13.6-14.9C364,129.3,355.6,136.9,356,146.4z"/>
</g>
<path class="st79" d="M279.4,447.8l8.1,1.5l-6,5.6l1.2,8.1l-7.4-4.1l-7.4,3.5l1.7-8.1l-5.8-5.8l8.3-1l3.9-7.4L279.4,447.8z"/>
<path class="st79" d="M310,447.8l8.1,1.5l-6.2,5.6l1.2,8.1l-7.2-4.1l-7.6,3.5l1.7-8.1l-5.6-5.8l8.1-1l3.9-7.4L310,447.8z"/>
<path class="st79" d="M340.4,447.8l8.1,1.5l-6,5.6l1,8.1l-7.2-4.1l-7.4,3.5l1.5-8.1l-5.6-5.8l8.1-1l4.1-7.4L340.4,447.8z"/>
<path class="st79" d="M304.3,240.7c-0.7,0-1.3-0.2-1.9-0.7c-0.5-0.5-0.7-1.2-0.7-1.9v-49l-14.1,10.8c-0.5,0.4-1,0.6-1.5,0.6
	c-0.8,0-1.4-0.4-2.1-1.2l-6.1-7.9c-0.3-0.5-0.5-1.1-0.5-1.5c0-1,0.4-1.7,1.2-2.2l23.7-18.3c0.8-0.5,1.6-0.7,2.5-0.7h12.9
	c0.8,0,1.4,0.2,1.9,0.7c0.5,0.5,0.7,1.1,0.7,1.9v66.9c0,0.7-0.2,1.3-0.7,1.9c-0.5,0.5-1.1,0.7-1.9,0.7H304.3z"/>
<path class="st80" d="M225.9,517.3c0,1.9-25.8,3.3-57.7,3.3c-31.8-0.2-57.5-1.7-57.5-3.7c0-1.9,25.8-3.3,57.7-3.3
	C200.2,513.8,225.9,515.4,225.9,517.3z"/>
<path class="st44" d="M161.5,308.6c0,0,1.2-9.7,5.2-13.2c5.2-4.6,16.5-3.3,20.7,1c4.8,4.8,7.2,14.7,3.3,21.7
	c7.9,4.6,7.4,14.7,0.8,15.7l2.3,12.2c1.4,7.6-3.9,14.9-12,16.5l-14.5,2.9c0,0-25-2.3-26.9-14.7c-1.9-12.4,9.5-18,9.5-18
	s-5.4-10.5,0.2-17.6C155.7,307.8,161.5,308.6,161.5,308.6z"/>
<path class="st40" d="M197.1,345c0,0,22.5,3.5,28.7,3.3c4.8,0.2,12.6-25.9,13.4-27.5c3.9-2.3,4.8-5.6,4.6-7.6c0-1.7-4.8-3.3-5.4-2.5
	c0.8-2.3,1-3.1,1.2-4.1c0.4-1.7-0.8-3.1-2.7,3.5c-1.9,6.4-1.7,5.2-2.1,7.6c-3.1,5.8-10.8,19.4-11.2,21.3
	c-10.1-0.2-27.1-4.3-27.1-4.3L197.1,345z"/>
<path class="st40" d="M162.6,345.2c0,0-17.6,14.3-22.7,17.4c-3.7,2.9-26.7-14.5-28.3-15.3c-4.6,0.2-6.6-1.5-7.7-2.9
	c-1.2-1.5,1.7-5.4,2.7-4.8c-2.1-1.5-2.9-1.9-3.5-2.5c-1.5-1.2-1.2-2.9,4.5,1.4c5.6,4.1,4.8,3.3,6.6,4.8c6.2,3.1,21.1,9.7,22.8,11
	c7.9-5.6,19.2-18.2,19.2-18.2L162.6,345.2z"/>
<path class="st40" d="M189.5,501.6c0,0,1,4.3,1,7.6c-0.4,2.3,0,3.1,0,3.1l9.5-0.8c0,0-4.3-1.9-3.9-11
	C196.5,491.4,189.5,501.6,189.5,501.6z"/>
<path class="st44" d="M190.3,510c0,0,4.1,1.4,8.3,0.4c4.8,2.1,8.1,2.9,12.6,3.3c4.5,0.6,3.7,3.9-3.9,3.3c-7.6-0.4-12.8-0.2-14.3,0
	c-1.7,0.2-4.3,0.4-4.5-0.8C188.4,515.2,189,509.6,190.3,510z"/>
<path class="st81" d="M193.2,384.7c0,0,6.2,55.2,6.6,62.3c0.4,7.2,0.4,9.7,0,14.1c-0.4,4.5,2.7,41.2,2.7,41.2s-14.3,3.3-18,0.4
	c0,0,0.6-40.3-1.2-47c-1.7-7-8.9-41.8-8.9-41.8l8.1-35.6L193.2,384.7z"/>
<path class="st82" d="M162.6,437.7c0,0-1.2,11.8-3.5,13.9c-1.5,3.5-1.5,3.5,0.8,4.8c3.5,2.1,10.5,6.2,12.2,4.5
	c6.6-6.6,6.8-8.7,8.3-17.2c0.6-1.9,9.7-57.5,9.7-57.5s-29-4.1-29.2,3.9C160.9,398.1,164,428.5,162.6,437.7z"/>
<path class="st40" d="M126.8,487.3c0,0-3.1,3.3-6,5.2c-2.3,1.2-2.5,1.7-2.5,1.7l6.4,6.6c0,0-1-4.3,7.2-9.5
	C139.8,486.1,126.8,487.3,126.8,487.3z"/>
<path class="st44" d="M120.2,492.9c0,0,1.4,3.9,4.6,6.2c1.2,4.8,2.5,7.7,4.6,11.2c2.1,3.5-1.2,5-5.2-0.8c-4.1-5.8-7.6-9.5-8.7-10.5
	c-1.2-1.2-2.9-2.9-2.1-3.7C114.4,494.7,119.7,491.8,120.2,492.9z"/>
<path class="st82" d="M160.3,449.8c-12.6,15.9-34.1,27.7-40.1,37c-1.2,2.9,13,10.5,13,10.5s29.2-26.5,35.2-32.3
	c2.3-2.3,4.6-4.1,6.4-6.4C169,456.7,163.8,445.3,160.3,449.8z"/>
<path class="st55" d="M187.4,352.6c-0.8,1.9,5.6,29.8,6.8,36c0,0-0.2,0-0.4,0c-2.9-0.4-20.1-2.7-34.3,3.1l-1.4-39.1V351
	c0,0,0-1.5,0.2-3.7c0.4-4.6,1.4-12.6,4.3-17.6c1.5-2.5,3.7-4.5,6.4-4.8c8.7-0.8,8.7,2.7,16.8,4.6l13.2,3.3c0,0-1.5,10.3,0,13.2h-9.1
	C189.7,346.2,188.2,350.4,187.4,352.6z"/>
<path class="st40" d="M185.1,300.3c0,0,5.6,12.8,1.4,18.6c-3.1,4.5-8.7,4.5-8.7,4.5v6.4c0,0-0.6,0.6-1.7,0.6c-1.9,0.2-7-2.9-7-2.9
	v-24.8L185.1,300.3z"/>
<path class="st83" d="M164.8,346c-2.9,2.9-5,5-6.4,6.6V351c0,0,0-13.7,4.5-21.3c0.8-0.2,1.4-0.2,2.1-0.2
	C171.7,330.1,171.3,339.4,164.8,346z"/>
<path class="st83" d="M198.8,346.2c0,0-6.2-0.2-6.8-1.4c-0.8-1.2-3.1-6.4-7-8.1c0,0,5.2,5,4.6,9.5H198.8z"/>
<path class="st83" d="M193.8,388.6c-2.9-0.4-20.1-2.7-34.3,3.1l-1.4-39.1V351c0,0,0-1.5,0.2-3.7l3.3,1c0,0,0.2,34.3,1.7,36.4
	c1.7,2.1,16.6,0.6,20.5,1.2C187,386.4,191.7,387.8,193.8,388.6z"/>
<path class="st55" d="M146.6,342.1c0,0,11.2-14.7,18.2-14.1c7,0.6,6.6,9.9,0,16.5c-6.6,6.6-8.7,9.1-8.7,9.1S147.9,349.8,146.6,342.1
	z"/>
<path class="st44" d="M185.7,298.7c0,0-2.5,11.4-8.5,14.5c-6,3.1-1.5,10.5-7.2,16.1c-1.7,1.5-4.3,1.4-6.2,0.8
	c-2.7-0.8-6-0.2-7.9,1.7c-0.2,0.2-0.4,0.4-0.6,0.6c-7.4-4.8,11.4-32.1,11.4-32.1L185.7,298.7z"/>
</svg>
