<?xml version="1.0" encoding="utf-8"?>
<!-- Generator: Adobe Illustrator 24.0.0, SVG Export Plug-In . SVG Version: 6.00 Build 0)  -->
<svg version="1.1" id="Layer_1" xmlns="http://www.w3.org/2000/svg" xmlns:xlink="http://www.w3.org/1999/xlink" x="0px" y="0px"
	 viewBox="0 0 648 570" style="enable-background:new 0 0 648 570;" xml:space="preserve">
<style type="text/css">
	.st0{fill:#CECECE;}
	.st1{fill:#B8B8B8;}
	.st2{display:none;}
	.st3{display:inline;fill:#B8B8B8;}
	.st4{display:inline;fill:#CECECE;}
</style>
<g>
	<path class="st0" d="M164,91.4c4.5-2.3,5.6-6.2,5.6-6.2c1.5,2.5,2.7,2.5,5.2,2.9c-1.4,2.3-3.1,4.3-5.6,5.6
		C166.9,94.5,165.2,93.3,164,91.4z"/>
	<g>
		<path class="st0" d="M224.4,26.6c2.9,4.3,6.8,5,6.8,5c-2.3,1.7-2.3,2.9-2.3,5.4c-2.5-1-4.6-2.7-6.2-5
			C221.7,29.7,222.5,28,224.4,26.6z"/>
		<path class="st0" d="M393.6,29.7c2.9,4.3,6.8,5,6.8,5c-2.3,1.7-2.3,2.9-2.3,5.4c-2.5-1-4.6-2.7-6.2-5
			C390.9,32.8,391.7,31.1,393.6,29.7z"/>
		<path class="st1" d="M552.6,159.7c2.5,4.3,6.6,5.4,6.6,5.4c-2.3,1.5-2.3,2.7-2.7,5.4c-2.5-1.2-4.5-2.9-6-5.4
			C549.8,162.6,550.6,161.1,552.6,159.7z"/>
		<path class="st0" d="M465.8,105.3c5,0.6,8.3-1.9,8.3-1.9c-0.2,2.9,0.8,3.7,2.5,5.4c-2.3,1.2-5,1.7-7.9,1.4
			C466.4,109.4,465.6,107.6,465.8,105.3z"/>
		<path class="st0" d="M51.9,175.2c4.6,1.9,8.5,0.4,8.5,0.4c-1,2.7-0.2,3.7,1,5.8c-2.7,0.6-5.2,0.4-7.9-0.8
			C51.3,179.3,51.1,177.5,51.9,175.2z"/>
	</g>
</g>
<g class="st2">
	<path class="st3" d="M112.9,47c4.3,2.9,8.1,2.1,8.1,2.1c-1.5,2.5-1,3.5-0.2,6c-2.7,0-5.2-0.8-7.7-2.3
		C111.7,51.1,111.7,49.2,112.9,47z"/>
	<path class="st3" d="M248,58.9c4.8,1.2,8.3-1,8.3-1c-0.4,2.9,0.4,3.7,2.1,5.6c-2.5,1-5.2,1.2-7.9,0.6C248.4,62.9,247.6,61,248,58.9
		z"/>
	<path class="st3" d="M388.4,59.4c2.5,4.3,6.6,5.4,6.6,5.4c-2.3,1.5-2.3,2.7-2.7,5.4c-2.5-1.2-4.5-2.9-6-5.4
		C385.7,62.5,386.4,60.8,388.4,59.4z"/>
	<path class="st4" d="M527.6,101.6c2.5,4.3,6.6,5.4,6.6,5.4c-2.3,1.5-2.3,2.7-2.7,5.4c-2.5-1.2-4.5-2.9-6-5.4
		C524.9,104.7,525.7,103,527.6,101.6z"/>
	<path class="st4" d="M429.2,224.2c4.8-1.5,6.8-5,6.8-5c1,2.7,2.1,2.9,4.6,3.9c-1.7,2.1-3.9,3.7-6.6,4.6
		C431.6,227.5,430.2,226.3,429.2,224.2z"/>
	<path class="st3" d="M477.2,24.8c4.6,1.9,8.5,0.4,8.5,0.4c-1,2.7-0.2,3.7,1.2,5.8c-2.7,0.6-5.2,0.4-7.9-0.8
		C476.9,28.8,476.7,26.9,477.2,24.8z"/>
	<path class="st4" d="M313.3,24.8c4.6,1.9,8.5,0.4,8.5,0.4c-1,2.7-0.2,3.7,1,5.8c-2.7,0.6-5.2,0.4-7.9-0.8
		C312.9,28.8,312.5,26.9,313.3,24.8z"/>
	<path class="st4" d="M111.7,252.3c0.4,5,3.3,7.7,3.3,7.7c-2.9,0.4-3.5,1.4-4.8,3.5c-1.7-2.1-2.7-4.6-2.9-7.6
		C107.7,253.6,109.4,252.5,111.7,252.3z"/>
	<path class="st3" d="M95.8,134.8c4.6-1.9,6.2-5.8,6.2-5.8c1.4,2.5,2.5,2.7,5,3.3c-1.5,2.3-3.5,4.1-6.2,5.2
		C98.5,137.8,97,136.9,95.8,134.8z"/>
	<path class="st3" d="M507.5,241.2c5-0.8,7.4-4.1,7.4-4.1c0.6,2.9,1.7,3.3,4.1,4.5c-1.9,1.9-4.5,3.1-7.2,3.5
		C509.2,245.1,508,243.6,507.5,241.2z"/>
</g>
</svg>
