<?xml version="1.0" encoding="utf-8"?>
<!-- Generator: Adobe Illustrator 24.0.0, SVG Export Plug-In . SVG Version: 6.00 Build 0)  -->
<svg version="1.1" id="Layer_1" xmlns="http://www.w3.org/2000/svg" xmlns:xlink="http://www.w3.org/1999/xlink" x="0px" y="0px"
	 viewBox="0 0 652 570" style="enable-background:new 0 0 652 570;" xml:space="preserve">
<style type="text/css">
	.st0{fill:#D2D2D2;}
	.st1{display:none;}
	.st2{display:inline;fill:#D2D2D2;}
	.st3{display:inline;fill:#BCBCBC;}
	.st4{display:inline;fill:#A2A2A2;}
	.st5{display:inline;fill:#C7C7C7;}
	.st6{fill:#888888;}
	.st7{fill:#FFFFFF;}
	.st8{fill:#E6E6E6;}
	.st9{fill:#353535;}
	.st10{fill:#D02E1B;}
	.st11{fill:#2A3554;}
	.st12{fill:#525252;}
	.st13{fill:#A4A4A4;}
	.st14{fill:#606060;}
	.st15{fill:#4B4B4B;}
	.st16{fill:#8E8E8E;}
	.st17{fill:#BFBFBF;}
	.st18{fill:#1B1B1B;}
	.st19{fill:#FA8465;}
	.st20{fill:#FA664D;}
	.st21{fill:#909090;}
	.st22{fill:#5F46F1;}
	.st23{fill:#161616;}
	.st24{opacity:0.5;}
	.st25{opacity:0.35;fill:#FFFFFF;enable-background:new    ;}
	.st26{opacity:0.4;}
	.st27{opacity:0.25;fill:#FFFFFF;enable-background:new    ;}
	.st28{display:inline;fill:#8E8E8E;}
	.st29{display:inline;fill:#606060;}
	.st30{display:inline;fill:#B1B1B1;}
	.st31{display:inline;fill:#4B4B4B;}
	.st32{display:inline;fill:#CCCCFF;}
	.st33{display:inline;fill:#1B1B1B;}
	.st34{display:inline;fill:#353535;}
	.st35{display:inline;fill:#FFFFFF;}
</style>
<path class="st0" d="M322.1,509c177.9,0,322.1-9.1,322.1-20.4c0-11.3-144.2-20.4-322.1-20.4S0,477.4,0,488.6
	C0,499.9,144.2,509,322.1,509z"/>
<g class="st1">
	<path class="st2" d="M598.5,48.2c0,1.7-0.7,3.3-1.9,4.5c-1.2,1.2-2.8,1.9-4.5,1.9H456.5c-3.5,0-6.4-2.9-6.4-6.4
		c0-1.7,0.7-3.3,1.9-4.5c1.2-1.2,2.8-1.9,4.5-1.9h6.4c2.5-5.8,8.4-10,15.1-10c4.5,0,8.7,1.9,11.8,4.9c3.9-6.8,11.4-11.4,19.8-11.4
		c2.3,0,4.5,0.3,6.7,1c4.4-8.3,13.1-14,23.1-14c12.1,0,22.3,8.2,25.3,19.2c2.2-1.2,4.8-1.7,7.4-1.7c7.6,0,13.8,5.1,15.9,11.9h4.1
		C595.6,41.9,598.5,44.7,598.5,48.2z"/>
	<path class="st2" d="M178.9,44.8c0,1.7-0.7,3.3-1.9,4.5c-1.2,1.2-2.8,1.9-4.5,1.9H36.8c-3.5,0-6.4-2.9-6.4-6.4
		c0-1.7,0.7-3.3,1.9-4.5c1.2-1.2,2.8-1.9,4.5-1.9h6.4c2.5-5.8,8.4-10,15.1-10c4.5,0,8.7,1.9,11.8,4.9C74.1,26.5,81.5,22,90,22
		c2.3,0,4.5,0.3,6.7,1c4.4-8.3,13.1-14,23.1-14c12.1,0,22.3,8.2,25.3,19.2c2.2-1.2,4.8-1.7,7.4-1.7c7.6,0,13.8,5.1,15.9,11.9h4.1
		C176.1,38.4,178.9,41.3,178.9,44.8z"/>
	<path class="st2" d="M341.2,68.3c0,1.5-0.6,2.9-1.6,3.9c-1,1-2.3,1.6-3.9,1.6H217.2c-3.1,0-5.5-2.5-5.5-5.5c0-1.5,0.6-2.9,1.6-3.9
		c1-1,2.3-1.6,3.9-1.6h5.5c2.2-5.1,7.3-8.7,13.2-8.7c4.1,0,7.6,1.6,10.2,4.2c3.5-6,9.9-9.9,17.3-9.9c2,0,3.9,0.3,5.8,0.9
		c3.8-7.3,11.5-12.2,20.2-12.2c10.6,0,19.4,7.1,22.1,16.9c1.9-1,4.1-1.6,6.4-1.6c6.5,0,12.1,4.4,13.8,10.5h3.6
		C338.7,62.7,341.2,65.2,341.2,68.3z"/>
	<path class="st3" d="M553.8,212.1l3.3,0.6l1.7,0.3l4.9,0.9c0,0,63.6-67.7,40.5-99.6c-7.1-9.9-24-6.8-28.7,30
		C571.3,178.5,553.8,212.1,553.8,212.1z"/>
	<path class="st4" d="M557.2,212.7l1.7,0.3c12.2-17,21-36.5,26.1-50.4c6.3-16.4,9-28.7,9.2-28.8c0.1-0.4-0.1-0.9-0.6-1
		c-0.4-0.1-0.9,0.1-1,0.6c0,0.1-2.9,12.4-9,28.5C578.3,176.1,569.6,195.6,557.2,212.7z"/>
	<path class="st2" d="M524,245.7l3.9,2.9l2.2,1.5l6,4.4c0,0,125.2-48.9,115-104.9c-3.2-17.3-27.2-23.9-56.2,21.3
		C567.8,212.5,524,245.7,524,245.7z"/>
	<path class="st5" d="M527.9,248.6l2.2,1.5c26.6-14.7,50.1-34.6,65.5-49.5c18.3-17.6,29.7-31.9,29.8-31.9c0.4-0.4,0.3-1.3-0.1-1.6
		c-0.4-0.4-1.3-0.3-1.6,0.1c-0.1,0.1-11.5,14.3-29.7,31.7C578.3,213.8,554.9,233.9,527.9,248.6z"/>
	<path class="st3" d="M98.8,337.3l-3.3,0.6l-1.7,0.3l-4.9,0.9c0,0-63.6-67.7-40.5-99.6c7.1-9.9,24-6.8,28.7,30
		C81.4,303.6,98.8,337.3,98.8,337.3z"/>
	<path class="st4" d="M95.5,337.8l-1.7,0.3c-12.2-17-21-36.5-26.1-50.4c-6.3-16.4-9-28.7-9.2-28.8c-0.1-0.4,0.1-0.9,0.6-1
		c0.4-0.1,0.9,0.1,1,0.6c0,0.1,2.9,12.4,9,28.5C74.4,301.3,83.1,320.8,95.5,337.8z"/>
	<path class="st2" d="M128.7,370.9l-3.9,2.9l-2.2,1.5l-6,4.4c0,0-125.2-48.9-115-104.9c3.2-17.3,27.2-23.9,56.2,21.3
		C84.9,337.7,128.7,370.9,128.7,370.9z"/>
	<path class="st3" d="M124.7,373.8l-2.2,1.5c-26.6-14.7-50.1-34.6-65.5-49.5c-18.3-17.6-29.7-31.9-29.8-31.9
		c-0.4-0.4-0.3-1.3,0.1-1.6c0.4-0.4,1.3-0.3,1.6,0.1c0.1,0.1,11.5,14.3,29.7,31.7C74.2,339,97.8,359.1,124.7,373.8z"/>
	<path class="st3" d="M229.3,177.6c-22.6-18-40.8-34.8-54.1-49.9c-17.5-19.8-26.6-36.7-27.2-50.5c0-0.9,0.7-1.7,1.6-1.7
		c0.9,0,1.7,0.7,1.7,1.6c1.2,24,30.9,59.5,86,102.6L229.3,177.6z"/>
	<path class="st2" d="M161,108.7c0,0-9.3,10.2-26.6-7C134.3,101.9,153.1,90.2,161,108.7z"/>
	<path class="st2" d="M169.4,118c0,0-10.6-8.7,5.4-26.9C175,91.1,187.5,109.2,169.4,118z"/>
	<path class="st2" d="M151.4,87.2c0,0-13-4.7-3.8-27.2C147.6,60,165.5,72.9,151.4,87.2z"/>
	<path class="st2" d="M185.9,137.3c0,0-5.4,12.8-27.4,2.5C158.5,139.7,172.2,122.6,185.9,137.3z"/>
	<path class="st2" d="M195.9,145.4c0,0-12.1-6.8,0.7-27.5C196.6,117.9,212.1,133.6,195.9,145.4z"/>
</g>
<path class="st0" d="M208.6,157.9c0,0-5.1,12.8-27.4,3.1C181.2,161,194.6,143.5,208.6,157.9z"/>
<path class="st6" d="M577.9,171.8v267.1c0,11.1-8.9,19.9-19.9,19.9H102.8c-11.1,0-19.9-8.9-19.9-19.9V171.8
	c0-11.1,8.9-19.9,19.9-19.9h455.2C569,151.8,577.9,160.7,577.9,171.8z"/>
<path class="st7" d="M555.9,185.3v240c0,7.1-5.7,12.8-12.8,12.8H117.6c-2.9,0-5.7-1-7.9-2.8c-0.6-0.4-1.2-1-1.6-1.5
	c-2-2.3-3.3-5.2-3.3-8.6v-240c0-7.1,5.7-12.8,12.8-12.8h425.6c2.3,0,4.5,0.6,6.4,1.7c1.7,1,3.3,2.5,4.4,4.2
	C555.2,180.5,555.9,182.8,555.9,185.3z"/>
<path class="st8" d="M470.6,224.4H197.2v155h273.4V224.4z"/>
<path class="st9" d="M470.6,224.4H197.2v13.2h273.4V224.4z"/>
<path class="st10" d="M218.1,231.1c0,1.5-1.2,2.8-2.8,2.8c-1.5,0-2.8-1.2-2.8-2.8c0-1.5,1.2-2.8,2.8-2.8S218.1,229.5,218.1,231.1z"
	/>
<path class="st7" d="M226.9,231.1c0,1.5-1.2,2.8-2.8,2.8c-1.5,0-2.8-1.2-2.8-2.8c0-1.5,1.2-2.8,2.8-2.8S226.9,229.5,226.9,231.1z"/>
<path class="st7" d="M235.5,231.1c0,1.5-1.2,2.8-2.8,2.8c-1.5,0-2.8-1.2-2.8-2.8c0-1.5,1.2-2.8,2.8-2.8S235.5,229.5,235.5,231.1z"/>
<path class="st11" d="M227.9,369.9c-0.3,0-0.6-0.3-0.6-0.6V246.7c0-0.3,0.3-0.6,0.6-0.6c0.3,0,0.6,0.3,0.6,0.6v122.4
	C228.7,369.6,228.4,369.9,227.9,369.9z"/>
<path class="st11" d="M230,247c0,1.2-0.9,2-2,2c-1,0-2-0.9-2-2c0-1.2,0.9-2,2-2C229.1,245.1,230,246,230,247z"/>
<path class="st11" d="M230,369.3c0,1.2-0.9,2-2,2c-1,0-2-0.9-2-2c0-1.2,0.9-2,2-2S230,368.1,230,369.3z"/>
<path class="st11" d="M439.3,369.9c-0.3,0-0.6-0.3-0.6-0.6V246.7c0-0.3,0.3-0.6,0.6-0.6c0.3,0,0.6,0.3,0.6,0.6v122.4
	C440,369.6,439.7,369.9,439.3,369.9z"/>
<path class="st11" d="M441.3,247c0,1.2-0.9,2-2,2c-1.2,0-2-0.9-2-2c0-1.2,0.9-2,2-2C440.5,245.1,441.3,246,441.3,247z"/>
<path class="st11" d="M441.3,369.3c0,1.2-0.9,2-2,2c-1.2,0-2-0.9-2-2c0-1.2,0.9-2,2-2C440.5,367.2,441.3,368.1,441.3,369.3z"/>
<path class="st10" d="M313.1,320.2h-26.6l-4.7,12.2h-24l30.6-70h23.2l30.6,70h-24.4L313.1,320.2z M306.6,303.2l-6.8-17.6l-6.8,17.6
	H306.6z M369.7,276.7c9.6,0,16.9,2.2,22,6.5c5.1,4.3,7.6,10.9,7.6,19.8v29.4h-21v-7.2c-2.6,5.5-7.8,8.2-15.5,8.2
	c-4.3,0-8-0.7-11.1-2.2c-3-1.5-5.3-3.6-6.9-6.1c-1.5-2.6-2.3-5.5-2.3-8.7c0-5.4,2.1-9.5,6.2-12.3c4.1-2.8,10.4-4.2,18.8-4.2h9.1
	c-0.7-4.3-4.2-6.4-10.3-6.4c-2.5,0-5,0.4-7.5,1.2c-2.5,0.7-4.7,1.8-6.5,3.1l-7.2-14.9c3.1-1.9,6.9-3.4,11.3-4.5
	C360.9,277.2,365.3,276.7,369.7,276.7z M369.6,319.8c1.6,0,3-0.4,4.3-1.3c1.3-0.9,2.2-2.2,2.8-3.9v-3.8h-5.6c-4.6,0-6.9,1.5-6.9,4.6
	c0,1.3,0.5,2.3,1.4,3.2C366.6,319.4,368,319.8,369.6,319.8z"/>
<path class="st8" d="M168.7,224.4h-34.1v154.3h34.1V224.4z"/>
<path class="st9" d="M168.7,224.4h-34.1v10.2h34.1V224.4z"/>
<path class="st8" d="M527.8,302.8h-34.1v75.8h34.1V302.8z"/>
<path class="st9" d="M528.1,303H494v10.9h34.1V303z"/>
<path class="st8" d="M528.5,225h-34.1v44.2h34.1V225z"/>
<path class="st9" d="M528.5,225h-34.1v10.9h34.1V225z"/>
<path class="st6" d="M624.2,448.2v1.7c0,8.4-2.8,16.3-7.4,22.7c-7,9.8-18.5,16.2-31.4,16.2H75.4c-13,0-24.5-6.4-31.4-16.2
	c-4.7-6.4-7.4-14.3-7.4-22.7v-1.7H624.2z"/>
<path class="st12" d="M264.5,448.2v0.4c0,3.1,2,5.5,4.7,5.5h119.9c2.5,0,4.7-2.5,4.7-5.5v-0.4H264.5z"/>
<path class="st8" d="M555.9,185.3v14.1H104.7v-14.1c0-2.8,0.9-5.2,2.3-7.3c2.3-3.3,6.1-5.5,10.5-5.5h425.6c4.4,0,8.2,2.2,10.5,5.5
	C555,180.1,555.9,182.5,555.9,185.3z"/>
<path class="st10" d="M142.6,187.9c0,2-1.6,3.6-3.6,3.6c-2,0-3.6-1.6-3.6-3.6c0-2,1.6-3.6,3.6-3.6
	C141,184.3,142.6,185.9,142.6,187.9z"/>
<path class="st13" d="M154.6,187.9c0,2-1.6,3.6-3.6,3.6c-2,0-3.6-1.6-3.6-3.6c0-2,1.6-3.6,3.6-3.6
	C153,184.3,154.6,185.9,154.6,187.9z"/>
<path class="st13" d="M165.9,187.9c0,2-1.6,3.6-3.6,3.6c-2,0-3.6-1.6-3.6-3.6c0-2,1.6-3.6,3.6-3.6
	C164.2,184.3,165.9,185.9,165.9,187.9z"/>
<path class="st7" d="M447,190.2H207.6c-0.6,0-1.2-0.4-1.2-1.2v-4.9c0-0.6,0.4-1.2,1.2-1.2h239.3c0.6,0,1.2,0.4,1.2,1.2v4.9
	C448,189.8,447.6,190.2,447,190.2z"/>
<path class="st9" d="M510.3,186.6v2.6c0,0.7-0.9,1.2-1.5,0.9l-2.3-1.3l-2.3-1.3c-0.7-0.4-0.7-1.3,0-1.7l2.3-1.3l2.3-1.3
	c0.7-0.4,1.5,0.1,1.5,0.9V186.6z"/>
<path class="st9" d="M522.2,186.6v2.6c0,0.7,0.9,1.2,1.5,0.9l2.3-1.3l2.3-1.3c0.7-0.4,0.7-1.3,0-1.7l-2.3-1.3l-2.3-1.3
	c-0.7-0.4-1.5,0.1-1.5,0.9V186.6z"/>
<path class="st0" d="M553.6,178H107.1c2.3-3.3,6.1-5.5,10.5-5.5h425.6C547.4,172.5,551.4,174.7,553.6,178z"/>
<path class="st8" d="M463.6,417.6H191c-5.4,0-9.6-4.4-9.6-9.6c0-5.4,4.4-9.6,9.6-9.6h272.5c5.4,0,9.6,4.4,9.6,9.6
	C473.2,413.2,468.8,417.6,463.6,417.6z"/>
<path class="st0" d="M590.5,561c0,4.9-30.7,9-68.7,9c-37.8,0-68.7-4.1-68.7-9c0-4.9,30.7-9,68.7-9C559.8,552,590.5,555.9,590.5,561z
	"/>
<path class="st14" d="M576,462.7H472.3c1.7-10.3,9.9-17.9,19.5-17.9L524,445l32.2-0.1C565.9,444.7,574.2,452.2,576,462.7z"/>
<path class="st14" d="M486.2,461.1h-5.7v96.7h5.7V461.1z"/>
<path class="st14" d="M567.8,461.1h-5.7v96.7h5.7V461.1z"/>
<path class="st15" d="M562.1,488.2h-76v5.4h76V488.2z"/>
<path class="st16" d="M498.8,332.6c0,0-17.3,23.1-19.6,43.2c-1.6,14.3,19.6,35.5,19.6,35.5l7.3-3.6l-7.3-16.4
	c-2.6-8-5.8-11.2-3.5-19.2l5.2-11.4C501.3,352,500.4,342.5,498.8,332.6z"/>
<path class="st16" d="M553.3,332.3c0,0,17,24.6,18.5,44.8c1.2,17.5-19.7,34.2-19.7,34.2l-6-3.1l8.3-16.6c2.6-8,3.8-12.8,0.3-21.5
	l-4.5-9.6L553.3,332.3z"/>
<path class="st16" d="M555.7,423.9c-15.1,4.1-64.8-2.2-64.8-2.2l11.5-36.5l-1.5-21.7l-0.1-2.9l-1.9-27.9c12.1-4.9,19.4-7,31.1-6.1
	c8,0.6,15.9,2.6,23.4,5.7l-5.4,51.8L555.7,423.9z"/>
<path class="st14" d="M514.7,343.7c10.9-1.3,21.1-8.9,21.5-9.2c0.3-0.1,0.3-0.6,0.1-0.9c-0.1-0.3-0.6-0.3-0.9-0.1
	c-0.1,0.1-12.1,8.9-23.6,9c-0.3,0-0.6,0.3-0.6,0.6c0,0.3,0.3,0.6,0.6,0.6C512.9,343.8,513.8,343.7,514.7,343.7z"/>
<path class="st14" d="M520.7,381.1c10.3-3.6,18.6-13.2,19.1-13.7c0.3-0.3,0.1-0.6,0-0.9c-0.3-0.3-0.6-0.1-0.9,0
	c-0.1,0.1-9.8,11.4-21,14.1c-0.3,0.1-0.6,0.4-0.4,0.7c0.1,0.3,0.4,0.6,0.7,0.4C518.9,381.6,519.8,381.4,520.7,381.1z"/>
<path class="st17" d="M523.6,539.1l0.9,8l8.6,0.1l0.7-6.7L523.6,539.1z"/>
<path class="st18" d="M522.3,411.3c0,0-22.1-1.2-29.7,4.9c-7.6,6.1-6,23.7,1.6,28.7c7.7,4.8,20.7,14.3,20.7,14.3l8.3,82.5l10.9,0.4
	c0,0,10-83,4.9-99C534,427.1,522.3,411.3,522.3,411.3z"/>
<path class="st9" d="M535.2,538c0.6,1.9,0.3,3.8-0.3,5.7l-12.7-0.3c-0.4-1.9-0.6-3.6-0.3-5.5L535.2,538z"/>
<path class="st7" d="M553.5,410.8h-58.2l-5.4-31.4c-0.4-2.8,1.6-5.2,4.4-5.2h60.3c2.8,0,4.8,2.5,4.4,5.2L553.5,410.8z"/>
<path class="st0" d="M548.5,417.6h-47.7c-2.9,0-5.2-2.3-5.2-5.2v-1.6h58.2v1.6C553.7,415.3,551.4,417.6,548.5,417.6z"/>
<path class="st0" d="M529.7,393.7c0,2.8-2.3,5.1-5.1,5.1c-2.8,0-5.1-2.3-5.1-5.1c0-2.8,2.3-5.1,5.1-5.1
	C527.3,388.6,529.7,391,529.7,393.7z"/>
<path class="st17" d="M487.2,516.4l-1.9,8l7.7,1.5l3.1-7.1L487.2,516.4z"/>
<path class="st9" d="M533.5,410c0,0-14.8-5.1-23.6,5.7c-8.7,10.8-23.3,101.6-23.3,101.6l10,4.1l32.2-80.6c0,0,26.2,15,29.4-6.3
	C560.5,417.6,533.5,410,533.5,410z"/>
<path class="st12" d="M498.8,517.2c0,2-0.9,3.8-2,5.4l-12.2-4.4c0.1-1.9,0.7-3.8,1.6-5.5L498.8,517.2z"/>
<path class="st16" d="M491.1,523.1c0,0-4.7-2.3-6-2.6c-1.3-0.3-12.7,7.7-15.9,7.7c-5.8-0.1-7.7,8.4-4.4,9.6
	c9.6,3.3,27.2,2.9,27.2,2.9s3.9-10.6,4.1-14.3C496.2,522.8,493.6,524.7,491.1,523.1z"/>
<path class="st7" d="M480.9,530.7c0.1,0.1,0.4,0.1,0.6,0c0.3-0.1,0.6-0.6,0.4-0.9c0-0.1-1.2-2.9-3.1-4.2c-2.5-1.7-4.8-0.6-4.9-0.4
	c-0.3,0.1-0.4,0.6-0.3,0.9c0.1,0.3,0.6,0.4,0.9,0.3c0,0,1.6-0.9,3.5,0.4c1.6,1,2.6,3.5,2.6,3.5C480.6,530.6,480.8,530.6,480.9,530.7
	z"/>
<path class="st7" d="M483.2,529.1c0.1,0.1,0.4,0.1,0.6,0c0.3-0.1,0.6-0.6,0.4-0.9c0-0.1-1.2-2.9-3.1-4.2c-2.5-1.7-4.8-0.6-4.9-0.4
	c-0.3,0.1-0.4,0.6-0.3,0.9c0.1,0.3,0.6,0.4,1,0.3c0,0,1.6-0.9,3.5,0.4c1.6,1,2.6,3.5,2.6,3.5C483,529,483.1,529,483.2,529.1z"/>
<path class="st7" d="M478,531.9c0.1,0.1,0.3,0.1,0.6,0c0.3-0.1,0.6-0.6,0.4-0.9c0-0.1-1.2-2.9-3.1-4.2c-2.5-1.7-4.8-0.6-4.9-0.4
	c-0.3,0.1-0.4,0.6-0.3,0.9c0.1,0.3,0.6,0.4,1,0.3c0,0,1.6-0.9,3.5,0.4c1.6,1,2.6,3.5,2.6,3.5C477.7,531.6,477.7,531.7,478,531.9z"/>
<path class="st16" d="M527.8,546.9c0,0,4.8-1.5,6.1-1.5s10.6,9.5,13.7,9.9c5.5,0.9,5.8,9.2,2.5,9.8c-9.6,1.6-26.1-1.7-26.1-1.7
	s-1.9-10.6-1.5-14C523,545.7,525.2,547.9,527.8,546.9z"/>
<path class="st7" d="M536.1,555.6c-0.1,0-0.3,0-0.6-0.1c-0.3-0.1-0.4-0.6-0.1-0.9c0-0.1,1.6-2.5,3.6-3.3c2.6-1.2,4.7,0.3,4.7,0.4
	c0.3,0.3,0.3,0.6,0.1,0.9c-0.3,0.3-0.6,0.3-0.9,0.1c0,0-1.5-1-3.3-0.1c-1.6,0.7-3.1,2.9-3.1,2.9
	C536.4,555.4,536.2,555.6,536.1,555.6z"/>
<path class="st7" d="M534.2,553.7c-0.1,0-0.3,0-0.6-0.1c-0.3-0.1-0.4-0.6-0.1-0.9c0-0.1,1.6-2.5,3.6-3.3c2.6-1.2,4.7,0.3,4.7,0.4
	c0.3,0.3,0.3,0.6,0.1,0.9c-0.3,0.3-0.6,0.3-0.9,0.1c0,0-1.5-1-3.3-0.1c-1.6,0.7-3.1,2.9-3.1,2.9
	C534.5,553.6,534.3,553.7,534.2,553.7z"/>
<path class="st7" d="M538.7,557.2c-0.1,0-0.3,0-0.6-0.1c-0.3-0.1-0.4-0.6-0.1-0.9c0-0.1,1.6-2.5,3.6-3.3c2.6-1.2,4.7,0.3,4.7,0.4
	c0.3,0.3,0.3,0.6,0.1,0.9c-0.3,0.3-0.6,0.3-0.9,0.1c0,0-1.5-1-3.3-0.1c-1.6,0.7-3.1,2.9-3.1,2.9C539,557,538.9,557.2,538.7,557.2z"
	/>
<path class="st9" d="M540.7,280.6c0,0,7.1,10.9,6.3,22.3c-0.7,11.4,1,24.6-9.2,24c-10.2-0.6-28.4,4.1-34.2-4.8
	C497.9,313.2,540.7,280.6,540.7,280.6z"/>
<path class="st18" d="M543.4,300.7c0,0,1.9,16.4-6,21.1c-7.9,4.5-13.5-0.6-13.5-0.6S540.3,298.2,543.4,300.7z"/>
<path class="st19" d="M510.8,300.6c0,0-2.8-3.8-4.9-0.6c-2,3.1,0.9,12.2,6,10L510.8,300.6z"/>
<path class="st20" d="M510.8,307.1c-0.1,0-0.3-0.1-0.4-0.3c-0.7-2.8-3.8-3.9-3.8-3.9c-0.3-0.1-0.3-0.3-0.3-0.6
	c0.1-0.3,0.3-0.3,0.6-0.3c0.1,0,3.3,1.3,4.2,4.5C511.2,306.8,511,307.1,510.8,307.1z"/>
<path class="st20" d="M507.8,305.7c-0.1,0-0.1,0-0.3,0c-0.1-0.1-0.3-0.4-0.1-0.6c0,0,0.6-0.9,1.6-1.3c0.1-0.1,0.4,0,0.6,0.1
	c0.1,0.1,0,0.4-0.1,0.6c-0.9,0.4-1.3,1-1.3,1C508,305.7,507.8,305.7,507.8,305.7z"/>
<path class="st13" d="M539.7,300.6c0,0,2.8-3.8,4.9-0.6c2,3.1-0.9,12.2-6,10L539.7,300.6z"/>
<path class="st21" d="M539.9,307.1c0.1,0,0.3-0.1,0.4-0.3c0.7-2.8,3.8-3.9,3.8-3.9c0.3-0.1,0.3-0.3,0.3-0.6
	c-0.1-0.3-0.3-0.3-0.6-0.3c-0.1,0-3.3,1.3-4.2,4.5C539.3,306.8,539.4,307.1,539.9,307.1C539.7,307.1,539.7,307.1,539.9,307.1z"/>
<path class="st21" d="M542.8,305.7c0.1,0,0.1,0,0.3,0c0.1-0.1,0.3-0.4,0.1-0.6c0,0-0.6-0.9-1.6-1.3c-0.1-0.1-0.4,0-0.6,0.1
	c-0.1,0.1,0,0.4,0.1,0.6c0.9,0.4,1.3,1,1.3,1C542.5,305.7,542.6,305.7,542.8,305.7z"/>
<path class="st17" d="M532.2,317.8v9.2c0,0-2.8,4.7-6.4,4.9c-3.6,0.3-7-3.9-7-3.9v-9.5L532.2,317.8z"/>
<path class="st13" d="M532.2,317.8v4.1c-2.5,2.8-6.8,3.6-13.4,2.8v-6.1L532.2,317.8z"/>
<path class="st17" d="M541.8,294.3c-0.1,3.5-0.4,8-1.2,11.5c-0.1,0.9-0.3,1.7-0.6,2.5c-1.9,6.7-6.7,18.2-20.1,13.4
	c-6-2.2-8.7-8.7-9.9-15.4c-0.9-4.5-1-9.2-0.9-12.5c0-3.3,1.9-6.4,4.8-8.2c7.9-4.5,16.3-2.8,21.8-0.7
	C539.6,286.5,542,290.2,541.8,294.3z"/>
<path class="st9" d="M516,296.2c0.9-0.3,2.8-0.7,4.8-0.7c0.6,0,0.9,0.4,0.9,1c-0.1,0.4-0.4,0.7-0.9,0.7c-1.3,0-4.9,0.1-6.5,0.9
	c0-0.3,0.1-0.6,0.4-0.9C515,296.6,515.4,296.4,516,296.2z"/>
<path class="st9" d="M534,296.2c-0.9-0.3-2.8-0.7-4.8-0.7c-0.6,0-0.9,0.4-0.9,1c0.1,0.4,0.4,0.7,0.9,0.7c1.3,0,4.9,0.1,6.6,0.9
	c0-0.3-0.1-0.6-0.4-0.9C535.2,296.6,534.6,296.4,534,296.2z"/>
<path class="st13" d="M525.5,309.2c-0.3,0-0.7,0-0.9-0.3c-0.3-0.1-0.6-0.4-0.6-1c-0.1-1.6,0.3-6.5,0.3-6.8c0-0.3,0.3-0.4,0.4-0.4
	c0.3,0,0.4,0.3,0.4,0.4c0,0-0.4,5.1-0.3,6.7c0,0.3,0.1,0.3,0.1,0.4c0.4,0.3,1.3,0,1.7-0.1c0.3-0.1,0.4,0,0.6,0.3
	c0.1,0.3,0,0.4-0.3,0.6C526.9,308.9,526.2,309.2,525.5,309.2z"/>
<path class="st7" d="M519.9,311.9c0.3,1.6,1.5,4.7,5.1,4.7c3.6,0,4.7-2.8,5.1-4.7H519.9z"/>
<path class="st13" d="M524.9,319.1c-1,0-2-0.6-2-0.6c-0.1-0.1-0.3-0.4-0.1-0.6c0.1-0.1,0.4-0.3,0.6-0.1c0,0,0.7,0.4,1.6,0.4
	c0.9,0,1.6-0.4,1.6-0.4c0.1-0.1,0.4,0,0.6,0.1c0.1,0.1,0,0.4-0.1,0.6C527.1,318.5,526,319.1,524.9,319.1z"/>
<path class="st9" d="M543.5,293.6c-0.1,0.4-0.6,0.6-1,0.7c0,1,0,2-0.1,3.2c-0.6,6.3-2.2,7.4-2.5,5.8c-0.3-1-0.3-7-0.1-8.9
	c-1.2-0.1-2.3-0.3-2.3-0.3l-1.5-6.1l-0.4,6c-2.2,0.7-7.3-0.4-7.3-0.4l-1.7-6l-1,5.8c-3.2,1.6-7.3,0.6-7.3,0.6l-0.9-6.3l-2.2,6.3
	c0,0-7,2.5-7,0c0-1.5,1-5.5,1.9-8.7c1-3.5,3.2-6.4,6.3-8c8.6-4.7,17.8-2.2,21-0.3C543.8,281.1,543.5,293.6,543.5,293.6z"/>
<path class="st9" d="M511.9,281.1c0,0-5.7,6.8-7.6,19.1c-1.9,12.2-4.5,21.3,2.9,25.2c8,4.4,7.3-4.5,7.1-7c-0.1-2.5-6.8-9-2.3-27.8
	C513.4,284.4,511.9,281.1,511.9,281.1z"/>
<path class="st18" d="M510.5,306.3c0,0.1,0,0.6,0,1.3c0,0.4,0,1,0.1,1.7c0.3,4.1,1,11.2,3.3,13.7c0.9,1,2.8,1.5,4.8,1.6v-3.2
	c-2.2-1-3.9-2.8-5.2-4.9c-0.9-1.7-2.2-4.7-2.9-9L510.5,306.3z"/>
<path class="st7" d="M541.9,310.2c0,0.6-0.4,1-1,1c-0.6,0-1-0.4-1-1s0.4-1,1-1C541.5,309.2,541.9,309.6,541.9,310.2z"/>
<path class="st14" d="M503.5,357.3c0,0-1.3,2.5-2.6,6.3l-0.1-2.9c0.9-2.2,1.6-3.6,1.7-3.8c0.1-0.3,0.6-0.4,0.9-0.3
	C503.5,356.6,503.6,357,503.5,357.3z"/>
<path class="st14" d="M547.4,357.3c0,0,1.3,2.6,2.8,6.3l0.3-2.8c-0.9-2.2-1.7-3.9-1.9-4.1c-0.1-0.3-0.6-0.4-0.9-0.3
	C547.3,356.6,547.3,357,547.4,357.3z"/>
<path class="st17" d="M242.5,372.5c2,3.8,3.9,7.1,5.8,9.9c13.8,20.8,24,16.4,29.5,9.9c1.9-2.3,3.3-4.7,4.4-6.8
	c1.6-3.6,2.2-6.8,2.5-8.2l-2.6,0.6c-3.1,1.5-8,3.3-11.8,2.8c-0.4-0.1-0.9-0.1-1.3-0.3c-3.3-1.3-7.9-7.9-10.9-12.8
	c-2-3.3-3.3-5.8-3.3-5.8L242.5,372.5z"/>
<path class="st19" d="M242.5,372.5c2,3.8,3.9,7.1,5.8,9.9c3.9-4.2,7.4-10.6,9.6-15c-2-3.3-3.3-5.8-3.3-5.8L242.5,372.5z"/>
<path class="st13" d="M267.2,381.2c0,0,2.8,8.6,15,4.1c1.6-3.6,2.2-6.8,2.5-8.2l-2.6,0.6c-3.1,1.5-8,3.3-11.8,2.8L267.2,381.2z"/>
<path class="st17" d="M171.8,389.9c0,2.3,0,4.8-0.3,7.1v0.1c0,0.4-0.1,1-0.1,1.5c-1.9,11.9-14.1,22.3-16.7,6.8
	c-0.3-2-0.4-4.4-0.4-6.7c0-0.6,0-1,0-1.6c0-1.5,0.1-2.9,0.3-4.5c0-0.6,0.1-1.3,0.1-1.9c0.1-0.7,0.1-1.5,0.3-2.2
	c0.3-1.7,0.6-3.6,0.9-5.4c1-5.8,2.5-11.4,3.6-15.6c1.3-4.5,2.3-7.4,2.3-7.4l8.6,10.5c0,0,0.7,3.8,1.2,9.3c0,0.4,0,0.9,0.1,1.3
	c0.1,2.2,0.3,4.5,0.3,7c0,0.1,0,0.3,0,0.4C171.8,389.2,171.8,389.5,171.8,389.9z"/>
<path class="st19" d="M159.4,367.8c2.5,4.7,6.7,10.8,12.1,13.5c0-0.4,0-0.9-0.1-1.3c-0.4-5.5-1.2-9.3-1.2-9.3l-8.6-10.5
	C161.6,360.4,160.5,363.3,159.4,367.8z"/>
<path class="st13" d="M171.8,389.9c0,2.3,0,4.8-0.3,7.1c-5.2,0.4-12.8,0.7-17.5,0.1c0-1.5,0.1-2.9,0.3-4.5c0-0.6,0.1-1.3,0.1-1.9
	l17.2-2.5c0,0.1,0,0.3,0,0.4C171.8,389.2,171.8,389.5,171.8,389.9z"/>
<path class="st16" d="M244.7,335.1c0,0,12.4,21.8,14.4,29.3c0,0-8.4,14.1-16.2,15.7l-2.9-9.6C240.2,370.3,239.9,340.2,244.7,335.1z"
	/>
<path class="st16" d="M217.5,323.9l27.2,11.2l-12.1,93c0,0-37.4,5.2-56.6,0v-93l26.3-11.8L217.5,323.9z"/>
<path class="st22" d="M223,374.5c-4.5,4.8-10.9,9.2-19.8,11.8c-0.3,0.1-0.7-0.1-0.7-0.4c0-0.3,0.1-0.6,0.4-0.6
	c8.7-2.5,14.8-6.8,19.4-11.5c0.3-0.3,0.9-0.1,1,0.3C223.3,374.2,223.1,374.4,223,374.5z"/>
<path class="st22" d="M222.8,365.6c0,0.1,0,0.1,0,0.3c-0.3,0.6-0.6,1-1,1.6c-2.2,3.1-6.3,7.1-13.4,9h-0.1c-0.3,0-0.4-0.1-0.6-0.4
	c-0.1-0.3,0.1-0.6,0.4-0.6c7.7-2,11.8-6.7,13.7-10.2C222.1,364.9,222.8,365.1,222.8,365.6z"/>
<path class="st14" d="M221.8,341.5c0,0.3-0.3,0.6-0.6,0.4c-6.4-1.3-11.5-4.1-15-6.5c-4.7-3.3-7.1-6.7-7.3-6.8
	c-0.1-0.3-0.1-0.6,0.1-0.7c0.3-0.1,0.6-0.1,0.7,0.1c0.1,0.1,7.9,10.3,21.5,13.1C221.7,341,221.8,341.2,221.8,341.5z"/>
<path class="st17" d="M263.6,487.3l-2.9-15h9.9l2.5,14.1C273.1,486.5,269,489.1,263.6,487.3z"/>
<path class="st16" d="M270.4,487.2c0,0,2.2-2.9,3.9-2.8c1.7,0.1,15,10.9,19.5,11.8c4.5,0.9,3.6,4.2,2.8,6c-0.9,1.7-36.4-1-36.4-1
	s-0.9-10.6,0.3-13.8C261.7,484,266.8,487.9,270.4,487.2z"/>
<path class="st7" d="M277.7,494.6c-0.1,0-0.3,0-0.4,0c-0.3-0.1-0.4-0.6-0.3-0.9c0-0.1,1.5-2.5,3.3-3.5c2.5-1.2,4.5,0.1,4.5,0.3
	c0.3,0.1,0.3,0.6,0.1,0.9c-0.1,0.3-0.6,0.3-0.9,0.1c0,0-1.5-1-3.2-0.1c-1.6,0.7-2.8,2.9-2.8,2.9C278,494.5,277.9,494.6,277.7,494.6z
	"/>
<path class="st7" d="M275.8,492.7c-0.1,0-0.3,0-0.4,0c-0.3-0.1-0.4-0.6-0.3-0.9c0-0.1,1.5-2.5,3.3-3.5c2.5-1.2,4.5,0.1,4.5,0.3
	c0.3,0.1,0.3,0.6,0.1,0.9c-0.1,0.3-0.6,0.3-0.9,0.1c0,0-1.5-1-3.2-0.1c-1.6,0.7-2.8,2.9-2.8,2.9C276.1,492.6,276,492.7,275.8,492.7z
	"/>
<path class="st7" d="M280.2,496.1c-0.1,0-0.3,0-0.4,0c-0.3-0.1-0.4-0.6-0.3-0.9c0-0.1,1.5-2.5,3.3-3.5c2.5-1.2,4.5,0.1,4.5,0.3
	c0.3,0.1,0.3,0.6,0.1,0.9c-0.1,0.3-0.6,0.3-0.9,0.1c0,0-1.5-1-3.2-0.1c-1.6,0.7-2.8,2.9-2.8,2.9
	C280.5,495.9,280.3,496.1,280.2,496.1z"/>
<path class="st18" d="M218.5,418.8c0,0,17-42.2,27.7-40.6c16.4,2.6,27.4,52.8,26.1,99.9l-11.2,0.6c0,0-12.5-44.2-14.8-55.7
	c0,0-8.7,30.1-28.2,25.9C203.3,445.5,212.7,430.8,218.5,418.8z"/>
<path class="st9" d="M262.1,476.7l1.5-0.3c0-0.1-3.1-16.6-6.7-33.2c-7.4-33.9-10.2-35.5-11.1-36.1c-0.7-0.4-1.5-0.3-1.7-0.1
	c-1.9,0.9-2.8,4.8-4.2,10.8c-2.3,9.8-5.4,23-14,28.5l0.7,1.2c9-5.8,12.2-19.5,14.6-29.4c1.2-4.8,2.2-9.3,3.3-9.8
	c0,0,0.1-0.1,0.6,0.1C248.9,410.6,257.3,450.4,262.1,476.7z"/>
<path class="st23" d="M273.2,474.5l-13.8,1.2h-0.3l0.7,4.7l13.5-1L273.2,474.5z"/>
<path class="st9" d="M222.8,448.9c0,0-19.8,3.8-46-0.9c2.2-10.9,7.1-19.4,15.1-26.9l35.4,2.6C229.4,432,227.8,440.5,222.8,448.9z"/>
<path class="st16" d="M228.4,484c0,0,4.7-1,6-1c1.3,0.1,9.5,10,12.4,10.8c5.2,1.3,4.8,9.5,1.6,9.8c-9.3,0.7-24.9-3.8-24.9-3.8
	s-1-10.6-0.1-13.8C224,482.5,225.8,484.7,228.4,484z"/>
<path class="st17" d="M225.6,484.6l-3.5-13.4h9.9l2.2,13C234.3,484.1,231.1,486.5,225.6,484.6z"/>
<path class="st7" d="M235.7,493.3c-0.1,0-0.3,0-0.4-0.1c-0.3-0.1-0.3-0.6-0.1-0.9c0-0.1,1.7-2.3,3.8-3.1c2.6-1,4.4,0.7,4.5,0.7
	c0.3,0.3,0.3,0.6,0,0.9s-0.6,0.3-0.9,0c0,0-1.3-1.2-3.2-0.4c-1.6,0.6-3.1,2.6-3.1,2.6C235.9,493.1,235.8,493.1,235.7,493.3z"/>
<path class="st7" d="M234,491.3c-0.1,0-0.3,0-0.4-0.1c-0.3-0.1-0.3-0.6-0.1-0.9c0-0.1,1.7-2.3,3.8-3.1c2.6-1,4.4,0.7,4.5,0.7
	c0.3,0.3,0.3,0.6,0,0.9c-0.3,0.3-0.6,0.3-0.9,0c0,0-1.3-1.2-3.2-0.4c-1.6,0.6-3.1,2.6-3.1,2.6C234.3,491.1,234.2,491.3,234,491.3z"
	/>
<path class="st7" d="M238.1,495c-0.1,0-0.3,0-0.4-0.1c-0.3-0.1-0.3-0.6-0.1-0.9c0-0.1,1.7-2.3,3.8-3.1c2.6-1,4.4,0.7,4.5,0.7
	c0.3,0.3,0.3,0.6,0,0.9c-0.3,0.3-0.6,0.3-0.9,0c0,0-1.3-1.2-3.2-0.4c-1.6,0.6-3.1,2.6-3.1,2.6C238.4,494.9,238.3,494.9,238.1,495z"
	/>
<path class="st18" d="M179.2,448.8c2.5,0.6,4.8,0.6,7,0c0.7-0.1,1.5-0.3,2-0.6c13.2-4.7,19.1-25.3,19.1-25.3
	c2.3,11.6,15.3,55.7,15.3,55.7l2-0.3l1.5-0.1l7.7-1c1.5-45.4-10-96.4-26.3-99c-10.6-1.6-27.7,40.6-27.7,40.6
	C174.1,430.8,164.8,445.5,179.2,448.8z"/>
<path class="st9" d="M186.2,448.8c0.7-0.1,1.5-0.3,2-0.6c4.8-7.7,7.3-18.6,9.3-27.4c1.6-7,3.1-13.5,5.1-14.7c0.3-0.1,0.6-0.1,1-0.1
	c1.7,0.6,5.7,6.1,13.4,37.6c3.6,15,6.7,30,7.7,34.6c0.1,1,0.3,1.5,0.3,1.5l1.3-0.3c0,0-0.1-0.6-0.3-1.5c-0.9-4.7-3.9-19.6-7.7-34.8
	c-9-36.8-13-38.1-14.3-38.6c-0.7-0.3-1.5-0.1-2,0.1c-2.5,1.5-3.9,7.4-5.8,15.6C194,429.7,191.4,441.2,186.2,448.8z"/>
<path class="st23" d="M234.8,473.9l-13.7,2.5h-0.3l1.3,4.5l13.4-2.3L234.8,473.9z"/>
<path class="st16" d="M176,335.1l-17.6,25.5c0,0,7.9,14.7,15.4,16.3c0,0,8-14,8.9-21.1C183.7,348.6,178.7,335.7,176,335.1z"/>
<path class="st14" d="M313.3,350.2L112.6,371l2.6,25l200.7-20.8L313.3,350.2z"/>
<path class="st15" d="M313.8,354.5l-200.7,20.8l0.2,1.7L314,356.3L313.8,354.5z"/>
<path class="st15" d="M314.5,362l-200.7,20.8l0.2,1.7l200.7-20.8L314.5,362z"/>
<path class="st15" d="M315.2,369.2L114.6,390l0.2,1.7L315.4,371L315.2,369.2z"/>
<path class="st9" d="M123,370l-10.4,1.1l2.6,25l10.4-1.1L123,370z"/>
<path class="st16" d="M112.7,371l-3.1,0.3c-6.8,0.7-11.9,6.8-11.2,13.8c0.7,6.8,6.8,11.9,13.8,11.2l3.1-0.3L112.7,371z"/>
<path class="st17" d="M315.9,375.2l-2.6-25l17.6,5.7l3.6,1.3l10.2,3.3l-9.8,4.9l-3.9,2L315.9,375.2z"/>
<path class="st10" d="M334.9,365.5c-0.4-1-0.9-2.3-1-3.9c-0.1-1.9,0.1-3.3,0.6-4.5l10.3,3.3L334.9,365.5z"/>
<path class="st17" d="M285.1,379.5c0,0-0.6-2.8-2-6.8c-0.7-2-3.2-3.5-3.9-1.3c-0.6,1.6,0.3,3.2,0.3,4.8c0,0-0.4-1-1.2-3.8
	c-0.7-2.5-2.3-2.6-2.9-1c-0.6,1.5-0.1,1.6,0,2.8c0.1,1.7,0.4,3.8,0.4,3.8s-0.1-2.3-1.5-5.4c-0.6-1.3-1.2-2.9-2.9-1.3
	c-0.9,0.7-0.6,3.5-0.4,6.4c0,0-0.6-3.9-2.3-5.2c-1.3-1-2.2-0.6-2,1.6c0.1,2.8,0.4,3.5,0.7,5.2c0.3,1.6,1.7,4.2,3.5,4.1
	c1.7-0.1,2.3-1.2,3.3-1c1.2,0.1,2.8,0.6,3.6,0.1c0.9-0.6,1.6-0.4,2.9-0.3S284.9,381.2,285.1,379.5z"/>
<path class="st17" d="M172,393.1c0,0-0.1-2.9-1-7c-0.4-2-2.3-3.9-3.3-2c-0.9,1.5-0.6,3.2-0.9,4.8c0,0-0.1-1.2-0.6-3.9
	c-0.3-2.5-1.9-2.9-2.8-1.5c-0.7,1.5-0.3,1.5-0.4,2.8c-0.1,1.7-0.1,3.8-0.1,3.8s0.3-2.3-0.6-5.5c-0.4-1.5-0.7-3.1-2.6-1.7
	c-1,0.6-1,3.3-1.5,6.3c0,0,0.4-3.3-1-4.9c-1.2-1.2-2.5-1.5-2.6,0.6c-0.3,2.8-0.1,3.5-0.1,5.2c0,1.6,1,4.5,2.8,4.5
	c1.7,0.1,2.5-0.9,3.5-0.4c1,0.3,2.6,1,3.6,0.7c1-0.4,1.7-0.3,2.9,0.1C168.6,395.3,171.5,394.7,172,393.1z"/>
<path class="st9" d="M225.8,293.7c0,0.7,0,1.5-0.1,2.2c0,0.3,0,0.6-0.1,0.9c-1.3,8.4-7.7,14.3-16.7,14.3c-9.2,0-15.1-5.8-16-14.6
	c0-0.3,0-0.6,0-0.9c0-0.4,0-1,0-1.5c0-10,5.2-18,17.2-18C219.8,276.1,225.8,283.7,225.8,293.7z"/>
<path class="st13" d="M194.9,298.5c0,0-2.8-3.6-4.8-0.6c-2,3.1,0.9,12.1,6,9.9L194.9,298.5z"/>
<path class="st21" d="M194.9,304.9c-0.1,0-0.3-0.1-0.4-0.3c-0.7-2.8-3.6-3.9-3.6-3.9c-0.3-0.1-0.3-0.3-0.3-0.6
	c0.1-0.3,0.3-0.3,0.6-0.3c0.1,0,3.3,1.3,4.2,4.5C195.3,304.7,195.2,304.9,194.9,304.9z"/>
<path class="st21" d="M192,303.5c-0.1,0-0.1,0-0.3,0c-0.1-0.1-0.3-0.4-0.1-0.6c0,0,0.6-0.9,1.6-1.3c0.1-0.1,0.4,0,0.6,0.1
	c0.1,0.1,0,0.4-0.1,0.6c-0.9,0.4-1.2,1-1.2,1C192.3,303.5,192.1,303.5,192,303.5z"/>
<path class="st13" d="M223.4,298.5c0,0,2.8-3.6,4.8-0.6c2,3.1-0.9,12.1-6,9.9L223.4,298.5z"/>
<path class="st21" d="M223.6,304.9c0.1,0,0.3-0.1,0.4-0.3c0.7-2.8,3.6-3.9,3.6-3.9c0.3-0.1,0.3-0.3,0.3-0.6
	c-0.1-0.3-0.3-0.3-0.6-0.3c-0.1,0-3.3,1.3-4.2,4.5C223,304.7,223.1,304.9,223.6,304.9C223.4,304.9,223.4,304.9,223.6,304.9z"/>
<path class="st21" d="M226.5,303.5c0.1,0,0.1,0,0.3,0c0.1-0.1,0.3-0.4,0.1-0.6c0,0-0.6-0.9-1.6-1.3c-0.1-0.1-0.4,0-0.6,0.1
	c-0.1,0.1,0,0.4,0.1,0.6c0.9,0.4,1.2,1,1.2,1C226.2,303.5,226.3,303.5,226.5,303.5z"/>
<path class="st17" d="M216,315.4v9c0,0-2.6,4.5-6.3,4.9c-3.6,0.3-6.8-3.9-6.8-3.9v-9.3L216,315.4z"/>
<path class="st13" d="M216,315.4v3.9c-2.5,2.8-6.7,3.3-13.1,2.5V316L216,315.4z"/>
<path class="st17" d="M225.5,292.3c-0.1,3.5-0.4,7.9-1.2,11.4c-0.1,0.9-0.3,1.7-0.6,2.5c-1.9,6.6-6.6,17.9-19.8,13.2
	c-5.8-2-8.6-8.6-9.8-15.1c-0.9-4.5-0.9-9-0.9-12.2c0-3.3,1.9-6.4,4.8-8c7.9-4.4,16-2.8,21.5-0.7
	C223.3,284.6,225.6,288.3,225.5,292.3z"/>
<path class="st9" d="M219.9,293c0,0-3.5-1.3-6.1-0.1l0.3,1.5c0,0,3.9-0.3,6,0.4C220.2,294.2,220.2,293.7,219.9,293z"/>
<path class="st9" d="M199.7,293c0,0,3.5-1.3,6.1-0.1l-0.3,1.5c0,0-3.9-0.3-6,0.4C199.6,294.2,199.6,293.7,199.7,293z"/>
<path class="st13" d="M209.6,306.5c-0.7,0.1-1.5-0.1-1.6-0.1c-0.3,0-0.3-0.3-0.3-0.6c0-0.3,0.3-0.3,0.6-0.3c0.4,0.1,1.3,0.3,1.7,0
	c0,0,0.1-0.1,0.1-0.4c0-1.5-1-6.4-1-6.4c0-0.3,0.1-0.4,0.3-0.4c0.3,0,0.4,0.1,0.4,0.3c0,0.1,1,5.1,1,6.6c0,0.6-0.3,0.9-0.4,1.2
	C210.3,306.4,209.9,306.5,209.6,306.5z"/>
<path class="st7" d="M203.8,309.2c0.3,1.7,1.5,4.9,5.4,4.9c3.9,0,4.9-2.9,5.4-4.9H203.8z"/>
<path class="st13" d="M208.9,316.7c1.2,0,2-0.6,2-0.6c0.1-0.1,0.3-0.4,0.1-0.6c-0.1-0.1-0.4-0.3-0.6-0.1c0,0-0.7,0.4-1.6,0.4
	c-0.7,0-1.6-0.4-1.6-0.4c-0.1-0.1-0.4,0-0.6,0.1c-0.1,0.1,0,0.4,0.1,0.6C207,316.1,207.9,316.7,208.9,316.7z"/>
<path class="st9" d="M225,298.5h-1.9c0.1-1.9-0.4-4.2-1-5.8c-1.3-3.5,1.5-5.1-0.7-6.8c-2.3-1.7-7.9-1-11.9-1.2
	c-3.9-0.1-10.3,0-11.9,0.3c-1.6,0.3-0.7,2.9-0.1,4.9c0.6,2-1.9,4.2-2.3,6.3c-0.1,0.6-0.1,1.5,0,2.5h-1.6c-0.1-2.5-0.3-4.8-0.1-6.7
	c0-3.3,1.9-6.4,4.8-8c7.9-4.4,16-2.8,21.5-0.7c3.8,1.5,6.1,5.1,6,9.2C225.3,294.3,225.3,296.5,225,298.5z"/>
<path class="st7" d="M212.2,300.3c0-2.9,2.3-5.2,5.2-5.2c2.9,0,5.2,2.3,5.2,5.2c0,2.9-2.3,5.2-5.2,5.2
	C214.7,305.5,212.2,303.2,212.2,300.3z M213.1,300.3c0,2.5,2,4.5,4.5,4.5c2.5,0,4.5-2,4.5-4.5s-2-4.5-4.5-4.5
	C215.1,295.8,213.1,297.8,213.1,300.3z"/>
<path class="st7" d="M197.8,300.3c0-2.9,2.3-5.2,5.2-5.2s5.2,2.3,5.2,5.2c0,2.9-2.3,5.2-5.2,5.2S197.8,303.2,197.8,300.3z
	 M198.5,300.3c0,2.5,2,4.5,4.5,4.5c2.5,0,4.5-2,4.5-4.5s-2-4.5-4.5-4.5C200.6,295.8,198.5,297.8,198.5,300.3z"/>
<path class="st7" d="M225.6,295.9c0.3,0.1,0.1,0.7-0.1,0.9c-1.9,0.4-3.2,1.6-3.2,1.6c-0.1,0.1-0.1,0.1-0.3,0.1c-0.1,0-0.1,0-0.3-0.1
	c-0.1-0.1-0.1-0.4,0-0.6C221.7,297.8,223.3,296.2,225.6,295.9z"/>
<path class="st7" d="M199,298.4c-0.1,0.1-0.1,0.1-0.3,0.1c-0.1,0-0.1,0-0.3,0c0,0-2.9-1.9-5.5-1.9c-0.3-0.3-0.3-0.6,0-0.9
	c2.9,0,6,2,6.1,2C199,298,199,298.2,199,298.4z"/>
<path class="st7" d="M208.1,299.1c0,0,1-1.3,2.3-1.3s2.2,1.3,2.2,1.3l0.7-0.4c0,0-1.2-1.7-2.9-1.7c-1.7,0-2.9,1.6-2.9,1.7
	L208.1,299.1z"/>
<path class="st17" d="M402.5,67c0,12.1-3.2,23.6-8.9,33.3c-10,17.5-19.6,35.2-28.5,53.3l-4.9,10.2h-49.1l-7.3-14.8
	c-8-16.4-16.7-32.6-26.1-48.3c-5.8-9.9-9-21.4-9-33.6c0-36.2,29.1-65.9,65.2-66.8c0.6,0,1.3,0,1.9,0C372.6,0.3,402.5,30.1,402.5,67z
	"/>
<g class="st24">
	<path class="st25" d="M282.1,72.3c-2.6,0-4.8-2-5.1-4.7c0-0.7-1.3-19.4,12.2-38.6C303,9.5,326.5,7.6,327.4,7.6
		c2.8-0.1,5.2,1.9,5.4,4.7c0.1,2.8-1.9,5.2-4.7,5.4c-0.1,0-19.6,1.7-30.6,17.3c-11.4,16-10.3,31.7-10.3,32c0.1,2.8-1.9,5.2-4.7,5.4
		C282.4,72.3,282.2,72.3,282.1,72.3z"/>
</g>
<g class="st26">
	<path class="st7" d="M358.2,97.5c-0.4,0-0.7-0.1-0.9-0.6l-2.2-4.2l-2.2,4.2c-0.1,0.3-0.6,0.6-0.9,0.6c-0.4,0-0.7-0.1-0.9-0.6
		l-2.2-4.2l-2.2,4.2c-0.1,0.3-0.6,0.6-0.9,0.6c-0.4,0-0.7-0.1-0.9-0.6l-2.2-4.2l-2.2,4.2c-0.1,0.3-0.6,0.6-0.9,0.6
		c-0.4,0-0.7-0.1-0.9-0.6l-2.2-4.2l-2.2,4.2c-0.1,0.3-0.6,0.6-0.9,0.6c-0.4,0-0.7-0.1-0.9-0.6l-2.2-4.2l-2.2,4.2
		c-0.1,0.3-0.6,0.6-0.9,0.6c-0.4,0-0.7-0.1-0.9-0.6l-2.2-4.2l-2.2,4.2c-0.1,0.3-0.6,0.6-0.9,0.6c-0.4,0-0.7-0.1-0.9-0.6l-2.2-4.2
		l-2.2,4.2c-0.1,0.3-0.6,0.6-0.9,0.6c-0.4,0-0.7-0.1-0.9-0.6l-3.1-6c-0.3-0.4,0-1.2,0.4-1.5c0.4-0.3,1.2,0,1.5,0.4l2.2,4.2l2.2-4.2
		c0.1-0.3,0.6-0.6,0.9-0.6c0.4,0,0.7,0.1,0.9,0.6l2.2,4.2l2.2-4.2c0.1-0.3,0.6-0.6,0.9-0.6c0.4,0,0.7,0.1,0.9,0.6l2.2,4.2L330,90
		c0.1-0.3,0.6-0.6,0.9-0.6c0.4,0,0.7,0.1,0.9,0.6l2.2,4.2l2.2-4.2c0.1-0.3,0.6-0.6,0.9-0.6c0.4,0,0.7,0.1,0.9,0.6l2.2,4.2l2.2-4.2
		c0.1-0.3,0.6-0.6,0.9-0.6c0.4,0,0.7,0.1,0.9,0.6l2.2,4.2l2.2-4.2c0.1-0.3,0.6-0.6,0.9-0.6c0.4,0,0.7,0.1,0.9,0.6l2.2,4.2l2.2-4.2
		c0.1-0.3,0.6-0.6,0.9-0.6c0.4,0,0.7,0.1,0.9,0.6l2.2,4.2l2.2-4.2c0.3-0.4,0.9-0.7,1.5-0.4c0.4,0.3,0.7,0.9,0.4,1.5l-3.1,6
		C358.9,97.2,358.6,97.5,358.2,97.5z"/>
</g>
<path class="st7" d="M322.4,163.9l-14-70.9l2-0.4l14,71.3H322.4z"/>
<path class="st7" d="M314,92.7c0,2.5-2,4.5-4.5,4.5c-2.5,0-4.5-2-4.5-4.5c0-2.5,2-4.5,4.5-4.5C311.9,88.2,314,90.2,314,92.7z"/>
<path class="st7" d="M351.1,163.9L364.9,93l-2-0.4l-14,71.3H351.1z"/>
<path class="st7" d="M359.4,92.7c0,2.5,2,4.5,4.5,4.5c2.5,0,4.5-2,4.5-4.5c0-2.5-2-4.5-4.5-4.5C361.4,88.2,359.4,90.2,359.4,92.7z"
	/>
<path class="st27" d="M402.5,67c0,12.1-3.2,23.6-8.9,33.3c-10,17.5-19.6,35.2-28.5,53.3l-4.9,10.2h-44.3
	c28.5-2.9,60.4-54.6,55.9-103.9C367.1,9.2,336.1,0.4,333.9,0c0.6,0,1.3,0,1.9,0C372.6,0.3,402.5,30.1,402.5,67z"/>
<path class="st9" d="M362.4,167.2v7.3c0,1.9-1.5,3.3-3.3,3.3h-47.9c-1.9,0-3.3-1.5-3.3-3.3v-7.3c0-1.9,1.5-3.3,3.3-3.3h47.9
	C361,163.9,362.4,165.4,362.4,167.2z"/>
<path class="st18" d="M362.4,170.2v4.2c0,1.9-1.5,3.3-3.3,3.3h-47.9c-1.9,0-3.3-1.5-3.3-3.3v-4.2H362.4z"/>
<path class="st9" d="M362.4,181.2v7.3c0,1.6-1.2,3.1-2.8,3.3c-0.1,0-0.4,0-0.6,0h-47.9c-0.1,0-0.4,0-0.6,0c-1.6-0.3-2.8-1.6-2.8-3.3
	v-7.3c0-1.9,1.5-3.3,3.3-3.3h47.9C361,177.9,362.4,179.3,362.4,181.2z"/>
<path class="st18" d="M362.4,184.1v4.4c0,1.6-1.2,3.1-2.8,3.3h-49.1c-1.6-0.3-2.8-1.6-2.8-3.3v-4.4H362.4z"/>
<path class="st9" d="M362.4,195.2v7.3c0,1.6-1.2,3.1-2.8,3.3c-0.1,0-0.3,0-0.6,0h-47.9c-0.1,0-0.4,0-0.6,0c-1.6-0.3-2.8-1.6-2.8-3.3
	v-7.3c0-1.9,1.5-3.3,3.3-3.3h47.9C361,191.7,362.4,193.3,362.4,195.2z"/>
<path class="st18" d="M362.4,198.1v4.4c0,1.6-1.2,3.1-2.8,3.3h-49.1c-1.6-0.3-2.8-1.6-2.8-3.3v-4.4H362.4z"/>
<path class="st18" d="M322.1,205.7c0,7.4,6,13.2,13.4,13.2c7.4,0,13.4-6,13.4-13.2H322.1z"/>
<g class="st1">
	<path class="st28" d="M609.2,396.2c0,4.2-3.3,7.6-7.6,7.6c-4.2,0-7.6-3.3-7.6-7.6s3.3-7.6,7.6-7.6
		C605.8,388.6,609.2,392.1,609.2,396.2z M596.3,396.2c0,2.9,2.3,5.2,5.2,5.2c2.9,0,5.2-2.3,5.2-5.2c0-2.9-2.3-5.2-5.2-5.2
		C598.7,391,596.3,393.4,596.3,396.2z"/>
	<path class="st29" d="M616.9,357.6c0,4.2-3.3,7.6-7.6,7.6s-7.6-3.3-7.6-7.6c0-4.2,3.3-7.6,7.6-7.6S616.9,353.6,616.9,357.6z
		 M604.2,357.6c0,2.9,2.3,5.2,5.2,5.2c2.9,0,5.2-2.3,5.2-5.2c0-2.9-2.3-5.2-5.2-5.2C606.5,352.5,604.2,354.9,604.2,357.6z"/>
	<path class="st29" d="M632.4,339.4c0,0.7-0.6,1.2-1.2,1.2H626c-0.7,0-1.2-0.6-1.2-1.2c0-0.7,0.6-1.2,1.2-1.2h5.2
		C631.9,338.3,632.4,338.7,632.4,339.4z"/>
	<path class="st29" d="M641.6,339.4c0,0.7-0.6,1.2-1.2,1.2h-5.2c-0.7,0-1.2-0.6-1.2-1.2c0-0.7,0.6-1.2,1.2-1.2h5.2
		C641,338.3,641.6,338.7,641.6,339.4z"/>
	<path class="st29" d="M634.3,332v4.7c0,0.7-0.6,1.2-1.2,1.2c-0.7,0-1.2-0.6-1.2-1.2V332c0-0.7,0.6-1.2,1.2-1.2
		C633.9,330.9,634.3,331.4,634.3,332z"/>
	<path class="st29" d="M634.3,342.1v4.7c0,0.7-0.6,1.2-1.2,1.2c-0.7,0-1.2-0.6-1.2-1.2v-4.7c0-0.7,0.6-1.2,1.2-1.2
		C633.9,340.9,634.3,341.5,634.3,342.1z"/>
	<path class="st28" d="M623.9,379.9c0,0.7-0.6,1.2-1.2,1.2h-5.2c-0.7,0-1.2-0.6-1.2-1.2c0-0.7,0.6-1.2,1.2-1.2h5.2
		C623.3,378.7,623.9,379.3,623.9,379.9z"/>
	<path class="st28" d="M633,379.9c0,0.7-0.6,1.2-1.2,1.2h-5.2c-0.7,0-1.2-0.6-1.2-1.2c0-0.7,0.6-1.2,1.2-1.2h5.2
		C632.5,378.7,633,379.3,633,379.9z"/>
	<path class="st28" d="M625.9,372.6v4.7c0,0.7-0.6,1.2-1.2,1.2c-0.6,0-1.2-0.6-1.2-1.2v-4.7c0-0.7,0.6-1.2,1.2-1.2
		C625.3,371.5,625.9,371.9,625.9,372.6z"/>
	<path class="st28" d="M625.9,382.5v4.7c0,0.7-0.6,1.2-1.2,1.2c-0.6,0-1.2-0.6-1.2-1.2v-4.7c0-0.7,0.6-1.2,1.2-1.2
		C625.3,381.4,625.9,381.9,625.9,382.5z"/>
	<path class="st29" d="M46.6,143.2c0,4.2-3.3,7.6-7.6,7.6c-4.2,0-7.6-3.3-7.6-7.6c0-4.2,3.3-7.6,7.6-7.6
		C43.2,135.7,46.6,139,46.6,143.2z M44.1,143.2c0-2.9-2.3-5.2-5.2-5.2c-2.9,0-5.2,2.3-5.2,5.2c0,2.9,2.3,5.2,5.2,5.2
		C41.8,148.5,44.1,146.1,44.1,143.2z"/>
	<path class="st30" d="M77.4,132.9c0,4.2-3.3,7.6-7.6,7.6c-4.2,0-7.6-3.3-7.6-7.6c0-4.2,3.3-7.6,7.6-7.6
		C74.1,125.3,77.4,128.8,77.4,132.9z M75.1,132.9c0-2.9-2.3-5.2-5.2-5.2c-2.9,0-5.2,2.3-5.2,5.2c0,2.9,2.3,5.2,5.2,5.2
		C72.8,138.1,75.1,135.8,75.1,132.9z"/>
	<path class="st31" d="M78.5,100.4c-0.7,0-1.2,0.6-1.2,1.2v5.2c0,0.7,0.6,1.2,1.2,1.2s1.2-0.6,1.2-1.2v-5.2
		C79.6,100.9,79.2,100.4,78.5,100.4z"/>
	<path class="st31" d="M78.5,91.3c-0.7,0-1.2,0.6-1.2,1.2v5.2c0,0.7,0.6,1.2,1.2,1.2s1.2-0.6,1.2-1.2v-5.2
		C79.6,91.7,79.2,91.3,78.5,91.3z"/>
	<path class="st31" d="M85.9,98.4h-4.7c-0.7,0-1.2,0.6-1.2,1.2c0,0.7,0.6,1.2,1.2,1.2h4.7c0.7,0,1.2-0.6,1.2-1.2
		C87,99,86.5,98.4,85.9,98.4z"/>
	<path class="st31" d="M75.8,98.4h-4.7c-0.7,0-1.2,0.6-1.2,1.2c0,0.7,0.6,1.2,1.2,1.2h4.7c0.7,0,1.2-0.6,1.2-1.2
		C77,99,76.4,98.4,75.8,98.4z"/>
	<path class="st31" d="M46.3,108.9c-0.7,0-1.2,0.6-1.2,1.2v5.2c0,0.7,0.6,1.2,1.2,1.2c0.7,0,1.2-0.6,1.2-1.2V110
		C47.5,109.3,47,108.9,46.3,108.9z"/>
	<path class="st31" d="M46.3,99.6c-0.7,0-1.2,0.6-1.2,1.2v5.2c0,0.7,0.6,1.2,1.2,1.2c0.7,0,1.2-0.6,1.2-1.2v-5.2
		C47.5,100.1,47,99.6,46.3,99.6z"/>
	<path class="st31" d="M53.7,106.8h-4.7c-0.7,0-1.2,0.6-1.2,1.2c0,0.7,0.6,1.2,1.2,1.2h4.7c0.7,0,1.2-0.6,1.2-1.2
		C54.9,107.4,54.3,106.8,53.7,106.8z"/>
	<path class="st31" d="M43.7,106.8H39c-0.7,0-1.2,0.6-1.2,1.2c0,0.7,0.6,1.2,1.2,1.2h4.7c0.7,0,1.2-0.6,1.2-1.2
		C44.8,107.4,44.3,106.8,43.7,106.8z"/>
	<path class="st32" d="M446.6,90.1c0.1,0,0.3,0,0.4,0c1.5-0.6,2.3-0.9,2.3-0.9c0.4-0.1,0.7-0.6,0.6-1.2c-0.1-0.4-0.6-0.7-1.2-0.6
		c0,0-0.9,0.3-2.5,1c-0.4,0.1-0.7,0.7-0.4,1.2C446,90,446.3,90.1,446.6,90.1z"/>
	<path class="st2" d="M401.7,137.3c-0.6,1.6-1.2,3.2-1.6,4.9c-0.1,0.4-0.6,0.7-0.9,0.6h-0.1c-0.4-0.1-0.7-0.6-0.6-1.2
		c0.6-1.7,1-3.3,1.7-4.9c0.1-0.4,0.7-0.7,1.2-0.6C401.7,136.4,401.9,136.8,401.7,137.3z"/>
	<path class="st2" d="M398.7,147.2c-0.4,1.6-0.7,3.3-1,5.1c-0.1,0.4-0.4,0.7-1,0.7c-0.4-0.1-0.7-0.6-0.7-1c0.3-1.7,0.7-3.5,1.2-5.1
		c0.1-0.4,0.6-0.7,1-0.6C398.5,146.3,398.8,146.7,398.7,147.2z"/>
	<path class="st2" d="M395,173.8c-0.4,0-0.7-0.4-0.7-0.9c0-1.7,0-3.5,0-5.2c0-0.4,0.4-0.9,0.9-0.9c0.4,0,0.9,0.4,0.9,0.9
		c0,1.7,0,3.5,0,5.2C396.1,173.4,395.6,173.8,395,173.8z"/>
	<path class="st2" d="M396.1,156.3c0.4,0,0.9,0.4,0.7,1c-0.1,0.7-0.1,1.6-0.3,2.3c-0.1,0.9-0.1,1.9-0.3,2.8c0,0.4-0.4,0.9-0.9,0.9
		c-0.4,0-0.9-0.4-0.7-0.9c0.1-0.9,0.1-1.9,0.3-2.8c0.1-0.9,0.1-1.6,0.3-2.5C395.2,156.6,395.6,156.3,396.1,156.3z"/>
	<path class="st2" d="M403.8,132.6c-0.1,0.3-0.6,0.6-0.9,0.6c-0.1,0-0.1,0-0.3,0c-0.4-0.1-0.6-0.7-0.4-1.2c0.7-1.6,1.5-3.2,2.3-4.8
		c0.3-0.4,0.7-0.6,1.2-0.4c0.4,0.3,0.6,0.7,0.4,1.2C405.2,129.4,404.4,131,403.8,132.6z"/>
	<path class="st2" d="M442.3,92.3c-1.5,0.7-3.1,1.6-4.5,2.5c-0.1,0.1-0.3,0.1-0.6,0.1c-0.3,0-0.6-0.1-0.7-0.4
		c-0.3-0.4-0.1-1,0.3-1.2c1.5-0.9,3.1-1.7,4.7-2.6c0.4-0.3,1,0,1.2,0.4C442.9,91.6,442.8,92,442.3,92.3z"/>
	<path class="st2" d="M429.3,100.6c-0.1,0.1-0.4,0.1-0.6,0.1c-0.3,0-0.4-0.1-0.6-0.3c-0.3-0.4-0.3-0.9,0.1-1.2c1.5-1,2.8-2,4.2-3.1
		c0.4-0.3,1-0.1,1.2,0.3c0.3,0.4,0.1,1-0.3,1.2C432,98.5,430.6,99.6,429.3,100.6z"/>
	<path class="st2" d="M414.4,115c-0.1,0.3-0.4,0.3-0.7,0.3c-0.1,0-0.3-0.1-0.4-0.1c-0.4-0.3-0.4-0.9-0.1-1.2
		c1.2-1.3,2.2-2.8,3.5-4.1c0.3-0.3,0.9-0.4,1.3,0c0.3,0.3,0.4,0.9,0,1.3C416.7,112.2,415.6,113.7,414.4,115z"/>
	<path class="st2" d="M421.4,107.3c-0.1,0.1-0.4,0.3-0.7,0.3c-0.1,0-0.4-0.1-0.6-0.3c-0.3-0.3-0.3-0.9,0-1.3
		c1.3-1.2,2.6-2.5,3.9-3.5c0.4-0.3,0.9-0.3,1.3,0.1c0.3,0.4,0.3,0.9-0.1,1.3C423.9,104.9,422.7,106.1,421.4,107.3z"/>
	<path class="st2" d="M408.6,123.4c-0.1,0.3-0.6,0.4-0.9,0.4c-0.1,0-0.3,0-0.4-0.1c-0.4-0.3-0.6-0.7-0.3-1.2
		c0.9-1.5,1.9-2.9,2.9-4.4c0.3-0.4,0.9-0.4,1.2-0.1c0.4,0.3,0.4,0.9,0.1,1.2C410.3,120.5,409.5,122,408.6,123.4z"/>
	<path class="st28" d="M446.6,84.1l-3.8-14.3l47.2,0.4L446.6,84.1z"/>
	<path class="st29" d="M489.9,70.3l-41,17.3h-0.1l-1.7,2.9l-0.4-6.4L489.9,70.3z"/>
	<path class="st31" d="M447,90.5l3.8-0.6l-2-2.3L447,90.5z"/>
	<path class="st28" d="M454,85.4l-5.2,2.2l10.6,11.9l30.6-29.3L454,85.4z"/>
	<path class="st28" d="M647.1,259.1h-61.3v43.8h61.3V259.1z"/>
	<path class="st33" d="M647.1,291.4l-2.9-5.1l-9.9-16.6L614.5,303h32.6V291.4z"/>
	<path class="st34" d="M610.5,303h-24.6l12.4-19.9l12.2-19.8l12.4,19.8l12.2,19.9H610.5z"/>
	<path class="st35" d="M602.6,276.3l7.9,6l8-6l-8-13L602.6,276.3z"/>
	<path class="st35" d="M627.6,281.1l6.7,5.2l6.7-5.2l-6.7-11.4L627.6,281.1z"/>
	<path class="st28" d="M64.3,183.1v29.5c0,1.9-1.6,3.3-3.3,3.3H31.4c-1.3,0-2.5-0.7-3.1-1.7c0-0.1-0.1-0.3-0.1-0.3
		c0-0.1-0.1-0.3-0.1-0.6c0,0,0,0,0-0.1c0-0.1,0-0.4,0-0.6v-29.5c0-1.7,1.3-3.2,3.1-3.3c0.1,0,0.3,0,0.3,0H61c0.3,0,0.7,0,1,0.1
		C63.3,180.2,64.3,181.5,64.3,183.1z"/>
	<path class="st35" d="M54.6,199.3c-2.6-4.9-5.5-9.6-7.9-15.1v8.2c0.7,0.3,1.3,0.9,1.3,1.7c0,1-0.9,1.9-1.9,1.9
		c-1,0-1.9-0.9-1.9-1.9c0-0.9,0.6-1.6,1.3-1.7v-8.2c-2.3,5.7-4.4,7.9-7.9,15.1l5.7,5.7h2.8h2.8L54.6,199.3z"/>
	<path class="st35" d="M48.9,206.7h-5.5v3.1h5.5V206.7z"/>
	<path class="st29" d="M543.5,96.4v27.8c0,1.7-1.5,3.2-3.2,3.2h-27.8c-1.2,0-2.3-0.7-2.8-1.6c0-0.1-0.1-0.3-0.1-0.3
		c0-0.1-0.1-0.3-0.1-0.4c0,0,0,0,0-0.1c0-0.1,0-0.4,0-0.6V96.5c0-1.6,1.3-3.1,2.9-3.2c0.1,0,0.3,0,0.3,0h27.8c0.3,0,0.6,0,1,0.1
		C542.6,93.7,543.5,94.9,543.5,96.4z"/>
	<path class="st35" d="M526.5,97.8h-0.1c-3.8,0.1-6.8,3.2-6.8,7.1c0,1.3,0.3,2.5,1,3.6c1,1.7,1.9,3.3,2.8,5.1l0.7,1.6h0.6h4.7l0.6-1
		c0.9-1.9,1.9-3.8,3.1-5.7c0.6-1,0.9-2.2,0.9-3.5C533.5,101,530.4,98,526.5,97.8z"/>
	<path class="st35" d="M529.1,117.2h-5.2v1.7c0,1.5,1.2,2.6,2.6,2.6c1.5,0,2.6-1.2,2.6-2.6V117.2z"/>
</g>
<path class="st16" d="M414.4,499.8h-31.3c-4.2,0-8-2.8-9.3-6.8l-13.2-40.9c-0.6-1.6,0.6-3.3,2.3-3.5c24.2-1.9,48.2-1.9,71.9,0
	c1.7,0.1,2.9,1.9,2.3,3.5L423.9,493C422.6,497.1,418.8,499.8,414.4,499.8z"/>
<path class="st18" d="M434.3,451.5c0,1-15.9,2-35.4,2c-19.5,0-35.4-0.9-35.4-2c0-1,15.9-2,35.4-2
	C418.5,449.6,434.3,450.5,434.3,451.5z"/>
<path class="st15" d="M400.3,422.6c0,0-0.3-22.9-29.1-26.3C371.2,396.2,372.2,428.5,400.3,422.6z"/>
<path class="st15" d="M397.1,395.5c0,0,2.9-22.7,31.9-23C429,372.5,424.4,404.5,397.1,395.5z"/>
<path class="st14" d="M397.1,377v74.2c1.2,0.3,2.3,0.3,3.3,0V377c0-0.9-0.7-1.6-1.6-1.6C398,375.4,397.1,376.1,397.1,377z"/>
<path class="st14" d="M398.4,396.9c0,0,16.9,16,36.2-15.1C434.6,381.6,401.2,375,398.4,396.9z"/>
<path class="st14" d="M399.6,422.1c0,0,18.9,13.7,33.9-19.8C433.5,402.3,399.4,400.1,399.6,422.1z"/>
<path class="st14" d="M398.8,425c0,0-0.7-23.3-36.4-14.8C362.4,410.2,381.4,438.6,398.8,425z"/>
<path class="st14" d="M400.6,395.6c0,0-0.1-23.3-36-15.7C364.5,379.9,382.8,408.9,400.6,395.6z"/>
<path class="st14" d="M19.5,486.7l-4.9-1.2c-4.1-1-6.6-5.1-5.7-9.2l34.1-141.9l19.8,4.8L28.7,481.2
	C27.8,485.3,23.7,487.8,19.5,486.7z"/>
<path class="st16" d="M69.9,309.6l-19.8-4.8L43,334.5l19.8,4.8L69.9,309.6z"/>
<path class="st7" d="M83,285.6c-1.3,8.3-5.1,16.6-13.1,24l-19.8-4.7c0,0-4.9-13.1,0-23.4c1.2-2.3,2.2-4.1,3.3-5.5
	c9.3-11.9,18.9-1.2,21-29.1C74.5,246.7,86,265.6,83,285.6z"/>
<path class="st10" d="M83,285.6c-5.8,5.2-15.6-3.5-18.8-7.9c-3.8-5.2-10.5-2-10.8-1.9c9.3-11.9,18.9-1.2,21-29.1
	C74.5,246.7,86,265.6,83,285.6z"/>
</svg>
