<?xml version="1.0" encoding="utf-8"?>
<!-- Generator: Adobe Illustrator 24.0.0, SVG Export Plug-In . SVG Version: 6.00 Build 0)  -->
<svg version="1.1" id="Layer_1" xmlns="http://www.w3.org/2000/svg" xmlns:xlink="http://www.w3.org/1999/xlink" x="0px" y="0px"
	 viewBox="0 0 652 570" style="enable-background:new 0 0 652 570;" xml:space="preserve">
<style type="text/css">
	.st0{fill:#D2D2D2;}
	.st1{fill:#BCBCBC;}
	.st2{fill:#A2A2A2;}
	.st3{fill:#C7C7C7;}
	.st4{display:none;}
	.st5{display:inline;fill:#8E8E8E;}
	.st6{display:inline;fill:#606060;}
	.st7{display:inline;fill:#B1B1B1;}
	.st8{display:inline;fill:#4B4B4B;}
	.st9{display:inline;fill:#CCCCFF;}
	.st10{display:inline;fill:#D2D2D2;}
	.st11{display:inline;fill:#1B1B1B;}
	.st12{display:inline;fill:#353535;}
	.st13{display:inline;fill:#FFFFFF;}
</style>
<g>
	<path class="st0" d="M598.5,48.2c0,1.7-0.7,3.3-1.9,4.5c-1.2,1.2-2.8,1.9-4.5,1.9H456.5c-3.5,0-6.4-2.9-6.4-6.4
		c0-1.7,0.7-3.3,1.9-4.5c1.2-1.2,2.8-1.9,4.5-1.9h6.4c2.5-5.8,8.4-10,15.1-10c4.5,0,8.7,1.9,11.8,4.9c3.9-6.8,11.4-11.4,19.8-11.4
		c2.3,0,4.5,0.3,6.7,1c4.4-8.3,13.1-14,23.1-14c12.1,0,22.3,8.2,25.3,19.2c2.2-1.2,4.8-1.7,7.4-1.7c7.6,0,13.8,5.1,15.9,11.9h4.1
		C595.6,41.9,598.5,44.7,598.5,48.2z"/>
	<path class="st0" d="M178.9,44.8c0,1.7-0.7,3.3-1.9,4.5c-1.2,1.2-2.8,1.9-4.5,1.9H36.8c-3.5,0-6.4-2.9-6.4-6.4
		c0-1.7,0.7-3.3,1.9-4.5c1.2-1.2,2.8-1.9,4.5-1.9h6.4c2.5-5.8,8.4-10,15.1-10c4.5,0,8.7,1.9,11.8,4.9C74.1,26.5,81.5,22,90,22
		c2.3,0,4.5,0.3,6.7,1c4.4-8.3,13.1-14,23.1-14c12.1,0,22.3,8.2,25.3,19.2c2.2-1.2,4.8-1.7,7.4-1.7c7.6,0,13.8,5.1,15.9,11.9h4.1
		C176.1,38.4,178.9,41.3,178.9,44.8z"/>
	<path class="st0" d="M341.2,68.3c0,1.5-0.6,2.9-1.6,3.9c-1,1-2.3,1.6-3.9,1.6H217.2c-3.1,0-5.5-2.5-5.5-5.5c0-1.5,0.6-2.9,1.6-3.9
		c1-1,2.3-1.6,3.9-1.6h5.5c2.2-5.1,7.3-8.7,13.2-8.7c4.1,0,7.6,1.6,10.2,4.2c3.5-6,9.9-9.9,17.3-9.9c2,0,3.9,0.3,5.8,0.9
		c3.8-7.3,11.5-12.2,20.2-12.2c10.6,0,19.4,7.1,22.1,16.9c1.9-1,4.1-1.6,6.4-1.6c6.5,0,12.1,4.4,13.8,10.5h3.6
		C338.7,62.7,341.2,65.2,341.2,68.3z"/>
	<path class="st1" d="M553.8,212.1l3.3,0.6l1.7,0.3l4.9,0.9c0,0,63.6-67.7,40.5-99.6c-7.1-9.9-24-6.8-28.7,30
		C571.3,178.5,553.8,212.1,553.8,212.1z"/>
	<path class="st2" d="M557.2,212.7l1.7,0.3c12.2-17,21-36.5,26.1-50.4c6.3-16.4,9-28.7,9.2-28.8c0.1-0.4-0.1-0.9-0.6-1
		c-0.4-0.1-0.9,0.1-1,0.6c0,0.1-2.9,12.4-9,28.5C578.3,176.1,569.6,195.6,557.2,212.7z"/>
	<path class="st0" d="M524,245.7l3.9,2.9l2.2,1.5l6,4.4c0,0,125.2-48.9,115-104.9c-3.2-17.3-27.2-23.9-56.2,21.3
		C567.8,212.5,524,245.7,524,245.7z"/>
	<path class="st3" d="M527.9,248.6l2.2,1.5c26.6-14.7,50.1-34.6,65.5-49.5c18.3-17.6,29.7-31.9,29.8-31.9c0.4-0.4,0.3-1.3-0.1-1.6
		c-0.4-0.4-1.3-0.3-1.6,0.1c-0.1,0.1-11.5,14.3-29.7,31.7C578.3,213.8,554.9,233.9,527.9,248.6z"/>
	<path class="st1" d="M98.8,337.3l-3.3,0.6l-1.7,0.3l-4.9,0.9c0,0-63.6-67.7-40.5-99.6c7.1-9.9,24-6.8,28.7,30
		C81.4,303.6,98.8,337.3,98.8,337.3z"/>
	<path class="st2" d="M95.5,337.8l-1.7,0.3c-12.2-17-21-36.5-26.1-50.4c-6.3-16.4-9-28.7-9.2-28.8c-0.1-0.4,0.1-0.9,0.6-1
		c0.4-0.1,0.9,0.1,1,0.6c0,0.1,2.9,12.4,9,28.5C74.4,301.3,83.1,320.8,95.5,337.8z"/>
	<path class="st0" d="M128.7,370.9l-3.9,2.9l-2.2,1.5l-6,4.4c0,0-125.2-48.9-115-104.9c3.2-17.3,27.2-23.9,56.2,21.3
		C84.9,337.7,128.7,370.9,128.7,370.9z"/>
	<path class="st1" d="M124.7,373.8l-2.2,1.5c-26.6-14.7-50.1-34.6-65.5-49.5c-18.3-17.6-29.7-31.9-29.8-31.9
		c-0.4-0.4-0.3-1.3,0.1-1.6c0.4-0.4,1.3-0.3,1.6,0.1c0.1,0.1,11.5,14.3,29.7,31.7C74.2,339,97.8,359.1,124.7,373.8z"/>
	<path class="st1" d="M229.3,177.6c-22.6-18-40.8-34.8-54.1-49.9c-17.5-19.8-26.6-36.7-27.2-50.5c0-0.9,0.7-1.7,1.6-1.7
		c0.9,0,1.7,0.7,1.7,1.6c1.2,24,30.9,59.5,86,102.6L229.3,177.6z"/>
	<path class="st0" d="M161,108.7c0,0-9.3,10.2-26.6-7C134.3,101.9,153.1,90.2,161,108.7z"/>
	<path class="st0" d="M169.4,118c0,0-10.6-8.7,5.4-26.9C175,91.1,187.5,109.2,169.4,118z"/>
	<path class="st0" d="M151.4,87.2c0,0-13-4.7-3.8-27.2C147.6,60,165.5,72.9,151.4,87.2z"/>
	<path class="st0" d="M185.9,137.3c0,0-5.4,12.8-27.4,2.5C158.5,139.7,172.2,122.6,185.9,137.3z"/>
	<path class="st0" d="M195.9,145.4c0,0-12.1-6.8,0.7-27.5C196.6,117.9,212.1,133.6,195.9,145.4z"/>
</g>
<g class="st4">
	<path class="st5" d="M609.2,396.2c0,4.2-3.3,7.6-7.6,7.6c-4.2,0-7.6-3.3-7.6-7.6s3.3-7.6,7.6-7.6
		C605.8,388.6,609.2,392.1,609.2,396.2z M596.3,396.2c0,2.9,2.3,5.2,5.2,5.2c2.9,0,5.2-2.3,5.2-5.2c0-2.9-2.3-5.2-5.2-5.2
		C598.7,391,596.3,393.4,596.3,396.2z"/>
	<path class="st6" d="M616.9,357.6c0,4.2-3.3,7.6-7.6,7.6s-7.6-3.3-7.6-7.6c0-4.2,3.3-7.6,7.6-7.6S616.9,353.6,616.9,357.6z
		 M604.2,357.6c0,2.9,2.3,5.2,5.2,5.2c2.9,0,5.2-2.3,5.2-5.2c0-2.9-2.3-5.2-5.2-5.2C606.5,352.5,604.2,354.9,604.2,357.6z"/>
	<path class="st6" d="M632.4,339.4c0,0.7-0.6,1.2-1.2,1.2H626c-0.7,0-1.2-0.6-1.2-1.2c0-0.7,0.6-1.2,1.2-1.2h5.2
		C631.9,338.3,632.4,338.7,632.4,339.4z"/>
	<path class="st6" d="M641.6,339.4c0,0.7-0.6,1.2-1.2,1.2h-5.2c-0.7,0-1.2-0.6-1.2-1.2c0-0.7,0.6-1.2,1.2-1.2h5.2
		C641,338.3,641.6,338.7,641.6,339.4z"/>
	<path class="st6" d="M634.3,332v4.7c0,0.7-0.6,1.2-1.2,1.2c-0.7,0-1.2-0.6-1.2-1.2V332c0-0.7,0.6-1.2,1.2-1.2
		C633.9,330.9,634.3,331.4,634.3,332z"/>
	<path class="st6" d="M634.3,342.1v4.7c0,0.7-0.6,1.2-1.2,1.2c-0.7,0-1.2-0.6-1.2-1.2v-4.7c0-0.7,0.6-1.2,1.2-1.2
		C633.9,340.9,634.3,341.5,634.3,342.1z"/>
	<path class="st5" d="M623.9,379.9c0,0.7-0.6,1.2-1.2,1.2h-5.2c-0.7,0-1.2-0.6-1.2-1.2c0-0.7,0.6-1.2,1.2-1.2h5.2
		C623.3,378.7,623.9,379.3,623.9,379.9z"/>
	<path class="st5" d="M633,379.9c0,0.7-0.6,1.2-1.2,1.2h-5.2c-0.7,0-1.2-0.6-1.2-1.2c0-0.7,0.6-1.2,1.2-1.2h5.2
		C632.5,378.7,633,379.3,633,379.9z"/>
	<path class="st5" d="M625.9,372.6v4.7c0,0.7-0.6,1.2-1.2,1.2c-0.6,0-1.2-0.6-1.2-1.2v-4.7c0-0.7,0.6-1.2,1.2-1.2
		C625.3,371.5,625.9,371.9,625.9,372.6z"/>
	<path class="st5" d="M625.9,382.5v4.7c0,0.7-0.6,1.2-1.2,1.2c-0.6,0-1.2-0.6-1.2-1.2v-4.7c0-0.7,0.6-1.2,1.2-1.2
		C625.3,381.4,625.9,381.9,625.9,382.5z"/>
	<path class="st6" d="M46.6,143.2c0,4.2-3.3,7.6-7.6,7.6c-4.2,0-7.6-3.3-7.6-7.6c0-4.2,3.3-7.6,7.6-7.6
		C43.2,135.7,46.6,139,46.6,143.2z M44.1,143.2c0-2.9-2.3-5.2-5.2-5.2c-2.9,0-5.2,2.3-5.2,5.2c0,2.9,2.3,5.2,5.2,5.2
		C41.8,148.5,44.1,146.1,44.1,143.2z"/>
	<path class="st7" d="M77.4,132.9c0,4.2-3.3,7.6-7.6,7.6c-4.2,0-7.6-3.3-7.6-7.6c0-4.2,3.3-7.6,7.6-7.6
		C74.1,125.3,77.4,128.8,77.4,132.9z M75.1,132.9c0-2.9-2.3-5.2-5.2-5.2c-2.9,0-5.2,2.3-5.2,5.2c0,2.9,2.3,5.2,5.2,5.2
		C72.8,138.1,75.1,135.8,75.1,132.9z"/>
	<path class="st8" d="M78.5,100.4c-0.7,0-1.2,0.6-1.2,1.2v5.2c0,0.7,0.6,1.2,1.2,1.2s1.2-0.6,1.2-1.2v-5.2
		C79.6,100.9,79.2,100.4,78.5,100.4z"/>
	<path class="st8" d="M78.5,91.3c-0.7,0-1.2,0.6-1.2,1.2v5.2c0,0.7,0.6,1.2,1.2,1.2s1.2-0.6,1.2-1.2v-5.2
		C79.6,91.7,79.2,91.3,78.5,91.3z"/>
	<path class="st8" d="M85.9,98.4h-4.7c-0.7,0-1.2,0.6-1.2,1.2c0,0.7,0.6,1.2,1.2,1.2h4.7c0.7,0,1.2-0.6,1.2-1.2
		C87,99,86.5,98.4,85.9,98.4z"/>
	<path class="st8" d="M75.8,98.4h-4.7c-0.7,0-1.2,0.6-1.2,1.2c0,0.7,0.6,1.2,1.2,1.2h4.7c0.7,0,1.2-0.6,1.2-1.2
		C77,99,76.4,98.4,75.8,98.4z"/>
	<path class="st8" d="M46.3,108.9c-0.7,0-1.2,0.6-1.2,1.2v5.2c0,0.7,0.6,1.2,1.2,1.2c0.7,0,1.2-0.6,1.2-1.2V110
		C47.5,109.3,47,108.9,46.3,108.9z"/>
	<path class="st8" d="M46.3,99.6c-0.7,0-1.2,0.6-1.2,1.2v5.2c0,0.7,0.6,1.2,1.2,1.2c0.7,0,1.2-0.6,1.2-1.2v-5.2
		C47.5,100.1,47,99.6,46.3,99.6z"/>
	<path class="st8" d="M53.7,106.8h-4.7c-0.7,0-1.2,0.6-1.2,1.2c0,0.7,0.6,1.2,1.2,1.2h4.7c0.7,0,1.2-0.6,1.2-1.2
		C54.9,107.4,54.3,106.8,53.7,106.8z"/>
	<path class="st8" d="M43.7,106.8H39c-0.7,0-1.2,0.6-1.2,1.2c0,0.7,0.6,1.2,1.2,1.2h4.7c0.7,0,1.2-0.6,1.2-1.2
		C44.8,107.4,44.3,106.8,43.7,106.8z"/>
	<path class="st9" d="M446.6,90.1c0.1,0,0.3,0,0.4,0c1.5-0.6,2.3-0.9,2.3-0.9c0.4-0.1,0.7-0.6,0.6-1.2c-0.1-0.4-0.6-0.7-1.2-0.6
		c0,0-0.9,0.3-2.5,1c-0.4,0.1-0.7,0.7-0.4,1.2C446,90,446.3,90.1,446.6,90.1z"/>
	<path class="st10" d="M401.7,137.3c-0.6,1.6-1.2,3.2-1.6,4.9c-0.1,0.4-0.6,0.7-0.9,0.6h-0.1c-0.4-0.1-0.7-0.6-0.6-1.2
		c0.6-1.7,1-3.3,1.7-4.9c0.1-0.4,0.7-0.7,1.2-0.6C401.7,136.4,401.9,136.8,401.7,137.3z"/>
	<path class="st10" d="M398.7,147.2c-0.4,1.6-0.7,3.3-1,5.1c-0.1,0.4-0.4,0.7-1,0.7c-0.4-0.1-0.7-0.6-0.7-1c0.3-1.7,0.7-3.5,1.2-5.1
		c0.1-0.4,0.6-0.7,1-0.6C398.5,146.3,398.8,146.7,398.7,147.2z"/>
	<path class="st10" d="M395,173.8c-0.4,0-0.7-0.4-0.7-0.9c0-1.7,0-3.5,0-5.2c0-0.4,0.4-0.9,0.9-0.9c0.4,0,0.9,0.4,0.9,0.9
		c0,1.7,0,3.5,0,5.2C396.1,173.4,395.6,173.8,395,173.8z"/>
	<path class="st10" d="M396.1,156.3c0.4,0,0.9,0.4,0.7,1c-0.1,0.7-0.1,1.6-0.3,2.3c-0.1,0.9-0.1,1.9-0.3,2.8c0,0.4-0.4,0.9-0.9,0.9
		c-0.4,0-0.9-0.4-0.7-0.9c0.1-0.9,0.1-1.9,0.3-2.8c0.1-0.9,0.1-1.6,0.3-2.5C395.2,156.6,395.6,156.3,396.1,156.3z"/>
	<path class="st10" d="M403.8,132.6c-0.1,0.3-0.6,0.6-0.9,0.6c-0.1,0-0.1,0-0.3,0c-0.4-0.1-0.6-0.7-0.4-1.2c0.7-1.6,1.5-3.2,2.3-4.8
		c0.3-0.4,0.7-0.6,1.2-0.4c0.4,0.3,0.6,0.7,0.4,1.2C405.2,129.4,404.4,131,403.8,132.6z"/>
	<path class="st10" d="M442.3,92.3c-1.5,0.7-3.1,1.6-4.5,2.5c-0.1,0.1-0.3,0.1-0.6,0.1c-0.3,0-0.6-0.1-0.7-0.4
		c-0.3-0.4-0.1-1,0.3-1.2c1.5-0.9,3.1-1.7,4.7-2.6c0.4-0.3,1,0,1.2,0.4C442.9,91.6,442.8,92,442.3,92.3z"/>
	<path class="st10" d="M429.3,100.6c-0.1,0.1-0.4,0.1-0.6,0.1c-0.3,0-0.4-0.1-0.6-0.3c-0.3-0.4-0.3-0.9,0.1-1.2c1.5-1,2.8-2,4.2-3.1
		c0.4-0.3,1-0.1,1.2,0.3c0.3,0.4,0.1,1-0.3,1.2C432,98.5,430.6,99.6,429.3,100.6z"/>
	<path class="st10" d="M414.4,115c-0.1,0.3-0.4,0.3-0.7,0.3c-0.1,0-0.3-0.1-0.4-0.1c-0.4-0.3-0.4-0.9-0.1-1.2
		c1.2-1.3,2.2-2.8,3.5-4.1c0.3-0.3,0.9-0.4,1.3,0c0.3,0.3,0.4,0.9,0,1.3C416.7,112.2,415.6,113.7,414.4,115z"/>
	<path class="st10" d="M421.4,107.3c-0.1,0.1-0.4,0.3-0.7,0.3c-0.1,0-0.4-0.1-0.6-0.3c-0.3-0.3-0.3-0.9,0-1.3
		c1.3-1.2,2.6-2.5,3.9-3.5c0.4-0.3,0.9-0.3,1.3,0.1c0.3,0.4,0.3,0.9-0.1,1.3C423.9,104.9,422.7,106.1,421.4,107.3z"/>
	<path class="st10" d="M408.6,123.4c-0.1,0.3-0.6,0.4-0.9,0.4c-0.1,0-0.3,0-0.4-0.1c-0.4-0.3-0.6-0.7-0.3-1.2
		c0.9-1.5,1.9-2.9,2.9-4.4c0.3-0.4,0.9-0.4,1.2-0.1c0.4,0.3,0.4,0.9,0.1,1.2C410.3,120.5,409.5,122,408.6,123.4z"/>
	<path class="st5" d="M446.6,84.1l-3.8-14.3l47.2,0.4L446.6,84.1z"/>
	<path class="st6" d="M489.9,70.3l-41,17.3h-0.1l-1.7,2.9l-0.4-6.4L489.9,70.3z"/>
	<path class="st8" d="M447,90.5l3.8-0.6l-2-2.3L447,90.5z"/>
	<path class="st5" d="M454,85.4l-5.2,2.2l10.6,11.9l30.6-29.3L454,85.4z"/>
	<path class="st5" d="M647.1,259.1h-61.3v43.8h61.3V259.1z"/>
	<path class="st11" d="M647.1,291.4l-2.9-5.1l-9.9-16.6L614.5,303h32.6V291.4z"/>
	<path class="st12" d="M610.5,303h-24.6l12.4-19.9l12.2-19.8l12.4,19.8l12.2,19.9H610.5z"/>
	<path class="st13" d="M602.6,276.3l7.9,6l8-6l-8-13L602.6,276.3z"/>
	<path class="st13" d="M627.6,281.1l6.7,5.2l6.7-5.2l-6.7-11.4L627.6,281.1z"/>
	<path class="st5" d="M64.3,183.1v29.5c0,1.9-1.6,3.3-3.3,3.3H31.4c-1.3,0-2.5-0.7-3.1-1.7c0-0.1-0.1-0.3-0.1-0.3
		c0-0.1-0.1-0.3-0.1-0.6c0,0,0,0,0-0.1c0-0.1,0-0.4,0-0.6v-29.5c0-1.7,1.3-3.2,3.1-3.3c0.1,0,0.3,0,0.3,0H61c0.3,0,0.7,0,1,0.1
		C63.3,180.2,64.3,181.5,64.3,183.1z"/>
	<path class="st13" d="M54.6,199.3c-2.6-4.9-5.5-9.6-7.9-15.1v8.2c0.7,0.3,1.3,0.9,1.3,1.7c0,1-0.9,1.9-1.9,1.9
		c-1,0-1.9-0.9-1.9-1.9c0-0.9,0.6-1.6,1.3-1.7v-8.2c-2.3,5.7-4.4,7.9-7.9,15.1l5.7,5.7h2.8h2.8L54.6,199.3z"/>
	<path class="st13" d="M48.9,206.7h-5.5v3.1h5.5V206.7z"/>
	<path class="st6" d="M543.5,96.4v27.8c0,1.7-1.5,3.2-3.2,3.2h-27.8c-1.2,0-2.3-0.7-2.8-1.6c0-0.1-0.1-0.3-0.1-0.3
		c0-0.1-0.1-0.3-0.1-0.4c0,0,0,0,0-0.1c0-0.1,0-0.4,0-0.6V96.5c0-1.6,1.3-3.1,2.9-3.2c0.1,0,0.3,0,0.3,0h27.8c0.3,0,0.6,0,1,0.1
		C542.6,93.7,543.5,94.9,543.5,96.4z"/>
	<path class="st13" d="M526.5,97.8h-0.1c-3.8,0.1-6.8,3.2-6.8,7.1c0,1.3,0.3,2.5,1,3.6c1,1.7,1.9,3.3,2.8,5.1l0.7,1.6h0.6h4.7l0.6-1
		c0.9-1.9,1.9-3.8,3.1-5.7c0.6-1,0.9-2.2,0.9-3.5C533.5,101,530.4,98,526.5,97.8z"/>
	<path class="st13" d="M529.1,117.2h-5.2v1.7c0,1.5,1.2,2.6,2.6,2.6c1.5,0,2.6-1.2,2.6-2.6V117.2z"/>
</g>
</svg>
