<?xml version="1.0" encoding="utf-8"?>
<!-- Generator: Adobe Illustrator 24.0.0, SVG Export Plug-In . SVG Version: 6.00 Build 0)  -->
<svg version="1.1" id="Layer_1" xmlns="http://www.w3.org/2000/svg" xmlns:xlink="http://www.w3.org/1999/xlink" x="0px" y="0px"
	 viewBox="0 0 925 570" style="enable-background:new 0 0 925 570;" xml:space="preserve">
<style type="text/css">
	.st0{fill:#EEEEEE;}
	.st1{fill:#A7A7A7;}
	.st2{fill:#6B6B6B;}
	.st3{fill:#AAAAAA;}
	.st4{fill:#FFFFFF;}
	.st5{fill:none;stroke:#FFFFFF;stroke-width:0.9959;stroke-miterlimit:10;}
	.st6{fill:#FFC09C;}
	.st7{fill:none;stroke:#CFCFCF;stroke-width:3.6867;stroke-linejoin:round;stroke-miterlimit:10;}
	.st8{fill:#F1321C;}
	.st9{fill:#535353;}
	.st10{fill:none;stroke:#001C34;stroke-width:0.5281;stroke-linecap:round;stroke-linejoin:round;stroke-miterlimit:10;}
	.st11{fill:#EFEFEF;}
	.st12{fill:#D0D0D0;}
	.st13{fill:#A9A9A9;}
	.st14{fill:none;stroke:#FFFFFF;stroke-width:1.324;stroke-linecap:round;stroke-linejoin:round;stroke-miterlimit:10;}
	.st15{fill:#3D3D3D;}
	.st16{opacity:0.44;fill:#3D3D3D;enable-background:new    ;}
	.st17{fill:#242424;}
	.st18{fill:#585858;}
	.st19{fill:#D02E1B;}
	.st20{fill:#CFCFCF;}
	.st21{fill:#222222;}
	.st22{fill:none;stroke:#CFCFCF;stroke-width:3.9451;stroke-linejoin:round;stroke-miterlimit:10;}
	.st23{fill:#5C5C5C;}
	.st24{fill:none;stroke:#FFFFFF;stroke-width:1.908;stroke-linecap:round;stroke-linejoin:round;stroke-miterlimit:10;}
</style>
<path class="st0" d="M352.3,167.1c0,0-62.2,63.7-198.1,83c-207.2,29.3-202.8,256.8,21.4,303.1c224.3,46.3,164.7-29,482-9.7
	c317.3,19.3,240.3-190.5,125-255.2C663.5,221.5,775.4,102.1,598,76.4C458.8,56.4,352.3,167.1,352.3,167.1z"/>
<path class="st1" d="M84.6,477.2c-1.4,0-33.5-2.8-36-32.8s18-38.1,11.3-71.2c-6.7-33.2-21.2-42.3,9.9-67.7c0,0,13.8-10.2,14.1-24
	c0.4-16.6,28.2-36.7,47.6-26.1c19.4,10.2,15.5,27.5,0,55.4s0.4,32.4,3.9,41.3c3.5,8.8,10.9,18-4.9,39.5
	c-15.9,21.9,4.9,46.9-8.8,67.7C121.6,459.2,109.6,474.7,84.6,477.2z"/>
<path class="st2" d="M91,523c0.7-0.4,1.1-1.1,1.1-1.8c-20.5-91,10.9-217.3,10.9-218.3c0.4-0.7-0.4-1.4-1.1-1.8s-1.4,0.4-1.8,1.1
	c-0.4,1.4-31.7,128-11.3,219.7C89.5,522.7,90.3,523,91,523z"/>
<path class="st2" d="M91.3,359c1.1-0.4,1.1-1.1,0.7-1.8c0,0-7.8-16.2-11.3-30c-0.4-0.7-1.1-1.1-1.8-1.1c-0.7,0.4-1.1,1.1-1.1,1.8
	c3.5,14.1,11.3,30.3,11.3,30.3C89.9,359,90.6,359,91.3,359z"/>
<path class="st2" d="M86.7,396.4c0.4,0,0.4,0,0.4-0.4c6.7-6,23.6-17.3,23.6-17.3c0.7-0.4,0.7-1.4,0.4-1.8c-0.4-0.7-1.4-0.7-1.8-0.4
	c-0.7,0.4-17.3,11.3-24,17.6c-0.7,0.4-0.7,1.4,0,1.8S86.4,396.4,86.7,396.4z"/>
<path class="st3" d="M525.5,521.6H234.9c-9.5,0-17.6-7.8-17.6-17.6V130.1c0-9.5,7.8-17.6,17.6-17.6h291c9.5,0,17.6,7.8,17.6,17.6
	V504C543.1,513.9,535.4,521.6,525.5,521.6z"/>
<path class="st4" d="M516.3,478.3H242.6c-8.1,0-14.8-6.9-14.8-15.1V140.7c0-8.3,6.7-15.1,14.8-15.1h273.7c8.1,0,14.8,6.9,14.8,15.1
	v322.4C531.1,471.4,524.4,478.3,516.3,478.3z"/>
<path class="st5" d="M380.2,513.2c7.2,0,13-5.8,13-13s-5.8-13-13-13s-13,5.8-13,13S373,513.2,380.2,513.2z"/>
<path class="st6" d="M627.4,319.9c3.5,3.9,9.5,4.6,13.4,1.1s4.6-9.5,1.1-13.4s-9.5-4.6-13.4-1.1S623.9,316,627.4,319.9z"/>
<path class="st7" d="M550.5,320.2l38.4,22.6l42.7-25"/>
<path class="st8" d="M576.3,322L564,341.8l-16.9-12c-4.6-3.2-5.3-9.5-2.1-14.1c2.8-3.5,8.1-4.9,12-2.8L576.3,322z"/>
<path class="st3" d="M750.8,522.3H619.6c-9.5,0-17.3-7.8-17.3-17.3V211.6c0-9.5,7.8-17.3,17.3-17.3h131.2c9.5,0,17.3,7.8,17.3,17.3
	V505C768.1,514.6,760.4,522.3,750.8,522.3z"/>
<path class="st4" d="M745,478.3H624c-8.5,0-15.3-6.7-15.3-15.2V218.4c0-8.5,6.8-15.2,15.3-15.2h121c8.5,0,15.3,6.7,15.3,15.2V463
	C760.3,471.5,753.6,478.3,745,478.3z"/>
<path class="st3" d="M712.1,215.1h-54.7c-6.7,0-12.3-5.6-12.3-12.3v-3.5h79.4v3.5C724.4,209.9,718.8,215.1,712.1,215.1z"/>
<path class="st5" d="M698.3,500.8c0,7.1-5.6,13-13,13c-7.1,0-13-5.6-13-13c0-7.1,5.6-13.1,13-13.1
	C692.3,487.8,698.3,493.8,698.3,500.8z"/>
<path class="st9" d="M168.9,483.5c-1.4,1.1-12.7-19.8-15.2-45.9c0,0-1.4-13.1,10.9-6.3c0,0-12.7-56.4,21.2-52.2
	c5.6,0.7,9.2,2.1,12.3,5.6c4.6,4.9,7.1,13,1.8,24.3c-10.6,22.9-20.1,32.1-15.5,44.1C188.6,465.9,187.2,469.4,168.9,483.5z"/>
<path class="st1" d="M172.1,520.2c0.7,0,1.1-0.7,1.1-1.4c-7.8-37.7,3.5-101.6,4.9-104.4c0.4-0.7,0.4-1.4-0.4-1.8
	c-0.7-0.4-1.4-0.4-1.8,0.4c-2.5,3.2-12.7,69.5-5.3,106.2C170.6,519.9,171.3,520.2,172.1,520.2z"/>
<path class="st10" d="M1,522.3h923.7"/>
<path class="st11" d="M496.9,333.3H263.1c-4.2,0-7.4-3.5-7.4-7.4v-139c0-4.2,3.5-7.4,7.4-7.4h234.2c4.2,0,7.4,3.5,7.4,7.4v139
	C504.3,329.8,501.1,333.3,496.9,333.3z"/>
<path class="st12" d="M320.2,433.5h-57.1c-4.2,0-7.4-3.5-7.4-7.4V369c0-4.2,3.5-7.4,7.4-7.4h57.1c4.2,0,7.4,3.5,7.4,7.4v57.1
	C327.6,429.9,324.1,433.5,320.2,433.5z"/>
<path class="st12" d="M408.4,433.5h-57.1c-4.2,0-7.4-3.5-7.4-7.4V369c0-4.2,3.5-7.4,7.4-7.4h57.1c4.2,0,7.4,3.5,7.4,7.4v57.1
	C416.1,429.9,412.6,433.5,408.4,433.5z"/>
<path class="st13" d="M496.9,433.5h-57.1c-4.2,0-7.4-3.5-7.4-7.4V369c0-4.2,3.5-7.4,7.4-7.4h57.1c4.2,0,7.4,3.5,7.4,7.4v57.1
	C504.3,429.9,501.1,433.5,496.9,433.5z"/>
<path class="st14" d="M270.5,390.4h42.3"/>
<path class="st14" d="M270.5,406.3h21.2"/>
<path class="st14" d="M358.6,390.4h44.1"/>
<path class="st14" d="M358.6,406.3h21.2"/>
<path class="st14" d="M447.2,390.4h42.3"/>
<path class="st14" d="M447.2,406.3h21.2"/>
<path class="st11" d="M738.5,434.9H632c-3.9,0-6.7-3.2-6.7-6.7v-84.3c0-3.9,3.2-6.7,6.7-6.7h106.5c3.9,0,6.7,3.2,6.7,6.7v84.3
	C745.2,432.1,742.4,434.9,738.5,434.9z"/>
<path class="st13" d="M738.5,321.3H632c-3.9,0-6.7-3.2-6.7-6.7v-12.7c0-3.9,3.2-6.7,6.7-6.7h106.5c3.9,0,6.7,3.2,6.7,6.7v12.3
	C745.2,318.1,742.4,321.3,738.5,321.3z"/>
<path class="st12" d="M738.5,279H632c-3.9,0-6.7-3.2-6.7-6.7v-12.7c0-3.9,3.2-6.7,6.7-6.7h106.5c3.9,0,6.7,3.2,6.7,6.7v12.3
	C745.2,275.8,742.4,279,738.5,279z"/>
<path class="st15" d="M562.2,406l4.2,17.3l-51.5,2.1l1.4-21.2L562.2,406z"/>
<path class="st15" d="M538.9,417.2l33.5,47.3l-3.5,76.2l16.6-5.3l8.1-71.9l-30.3-52.9L538.9,417.2z"/>
<path class="st16" d="M543.8,424.3l11.3-1.1l-5.3,9.9L543.8,424.3z"/>
<path class="st15" d="M515.2,422.5l-2.1,46.2l-15.9,79l18,3.5l19-80.4l4.6-53.6L515.2,422.5z"/>
<path class="st17" d="M583.3,538.6l-10.9-0.7l-1.4,15.9l31.4,2.1c0-2.5-1.8-4.6-3.9-5.3l-15.5-4.9L583.3,538.6z"/>
<path class="st12" d="M570.5,555.9l31.7,2.2l0.2-2.5l-31.7-2.2L570.5,555.9z"/>
<path class="st17" d="M512.1,547.4l-10.9-2.1l-3.5,15.5l31,6.3c0.4-2.5-1.1-4.9-3.2-6l-14.5-6.7L512.1,547.4z"/>
<path class="st12" d="M497.1,563.2l31.1,6.4l0.5-2.4l-31.1-6.4L497.1,563.2z"/>
<path class="st18" d="M566.2,532.3l-0.5,8.1l22.9,1.3l0.5-8.1L566.2,532.3z"/>
<path class="st18" d="M496.3,539.9l-1.6,8l22.5,4.4l1.6-8L496.3,539.9z"/>
<path class="st19" d="M527.9,313.2c-7.8,5.6-11.6,20.1-13,35.3l-4.2,58.2c27.9,9.9,54-2.1,54-2.1v-72.3c0-6.7-4.9-21.9-14.5-21.5
	C549.8,310.4,538.8,305.1,527.9,313.2z"/>
<path class="st20" d="M533.9,315.7h14.5v-31h-14.1L533.9,315.7z"/>
<path class="st20" d="M551.9,306.8c9.9,0,17.6-7.8,18-17.6l0.4-21.9L535,267l-0.4,21.9C534.2,298.7,542,306.8,551.9,306.8z"/>
<path class="st21" d="M534.6,283.2h4.9c1.4,0,2.5-1.1,2.1-2.5c-0.7-3.5-1.4-9.9,1.1-10.6c3.5-1.1,21.2,3.9,27.5-0.4
	c8.8-6.3,2.8-16.9-4.9-17.6c-7.8-0.7-6.7,8.5-15.9,8.1s-22.9-4.2-17.3,20.1L534.6,283.2z"/>
<path class="st21" d="M570.2,289.6c0,0-1.4,0-4.6-2.8c-3.2-2.8-10.9-3.2-15.9,1.4c-4.9,4.2-8.5-9.5-8.5-9.5l-2.5,4.2
	c0,0,1.1,6.7-4.9,6.7c0,0,1.4,20.1,21.2,17.6C554.7,307.5,569.2,305.1,570.2,289.6z"/>
<path class="st20" d="M528.3,283.9c0,3.2,2.5,5.6,5.6,5.6c3.2,0,5.6-2.5,5.6-5.6c0-3.2-2.5-5.6-5.6-5.6
	C530.7,278.3,528.3,280.7,528.3,283.9z"/>
<path class="st20" d="M533.9,309.7l12,8.8l2.5-8.8H533.9z"/>
<path class="st8" d="M545.9,318.5l-12,4.2v-13.1L545.9,318.5z"/>
<path class="st8" d="M545.9,318.5l5.6,2.8l-3.2-11.6L545.9,318.5z"/>
<path class="st20" d="M614,332.9c3.5,4.2,9.9,4.9,14.5,1.1c4.2-3.5,4.9-9.9,1.1-14.5c-3.5-4.2-9.9-4.9-14.5-1.1
	C611.1,322.4,610.4,328.7,614,332.9z"/>
<path class="st22" d="M531.8,333.3l41.3,24l45.5-26.8"/>
<path class="st8" d="M559.7,335.1l-13,20.8l-18-13c-4.9-3.5-5.6-10.2-2.1-14.8c3.2-3.9,8.5-5.3,13.1-3.2L559.7,335.1z"/>
<path class="st13" d="M277.9,222.2v74.1c0,5.6,4.6,10.2,10.2,10.2h103.7c5.6,0,10.2-4.6,10.2-10.2v-74.1c0-5.6-4.6-10.2-10.2-10.2
	H288.1C282.5,212,277.9,216.6,277.9,222.2z"/>
<path class="st23" d="M315.3,271.9c12.9,0,23.3-10.4,23.3-23.3s-10.4-23.3-23.3-23.3S292,235.7,292,248.6S302.4,271.9,315.3,271.9z"
	/>
<path class="st4" d="M277.9,288.9v7.4c0,5.6,4.6,10.2,10.2,10.2h103.7c5.6,0,10.2-4.6,10.2-10.2v-7.4l-37-37l-25,25l-25-25
	L277.9,288.9z"/>
<path class="st13" d="M644,361.9v48.7c0,3.9,3.2,6.7,6.7,6.7h68.1c3.9,0,6.7-3.2,6.7-6.7v-48.7c0-3.9-3.2-6.7-6.7-6.7h-68.1
	C646.8,355.2,644,358,644,361.9z"/>
<path class="st23" d="M652.8,379.1c0,8.5,7.1,15.5,15.5,15.5c8.5,0,15.5-7.1,15.5-15.5c0-8.5-7.1-15.5-15.5-15.5
	C659.9,363.6,652.8,370.7,652.8,379.1z"/>
<path class="st4" d="M644,405.6v4.9c0,3.9,3.2,6.7,6.7,6.7h68.1c3.9,0,6.7-3.2,6.7-6.7v-4.9l-24.3-24.3l-16.6,16.6L668,381.3
	L644,405.6z"/>
<path class="st24" d="M420,233.8h38.8"/>
<path class="st24" d="M420,261h64.5"/>
<path class="st24" d="M420,287.1h64.5"/>
</svg>
