<?xml version="1.0" encoding="utf-8"?>
<!-- Generator: Adobe Illustrator 24.0.0, SVG Export Plug-In . SVG Version: 6.00 Build 0)  -->
<svg version="1.1" id="Layer_1" xmlns="http://www.w3.org/2000/svg" xmlns:xlink="http://www.w3.org/1999/xlink" x="0px" y="0px"
	 viewBox="0 0 925 570" style="enable-background:new 0 0 925 570;" xml:space="preserve">
<style type="text/css">
	.st0{fill:#FFFFFF;}
</style>
<g>
	<path class="st0" d="M815.4,401l-1.4-3.9l-1.4,3.9c-1.1,3.2-3.9,6-7.4,7.8c3.5,1.8,6.3,4.2,7.4,7.8l1.4,3.9l1.4-3.9
		c1.1-3.2,3.9-6,7.4-7.8C819.3,407,816.8,404.2,815.4,401z"/>
	<path class="st0" d="M169.9,315l-1.4-3.9l-1.4,3.9c-1.1,3.2-3.9,6-7.4,7.8c3.5,1.8,6.3,4.2,7.4,7.8l1.4,3.9l1.4-3.9
		c1.1-3.2,3.9-6,7.4-7.8C173.5,321,171,318.1,169.9,315z"/>
	<path class="st0" d="M616.4,118.5l-2.1-6.3l-2.1,6.3c-1.8,5.3-6.3,9.9-12.7,12.7c6,2.8,10.6,7.4,12.7,12.7l2.1,6.3l2.1-6.3
		c1.8-5.3,6.3-9.9,12.7-12.7C622.8,128.4,618.6,123.8,616.4,118.5z"/>
</g>
</svg>
