<?xml version="1.0" encoding="utf-8"?>
<!-- Generator: Adobe Illustrator 24.0.0, SVG Export Plug-In . SVG Version: 6.00 Build 0)  -->
<svg version="1.1" id="Layer_1" xmlns="http://www.w3.org/2000/svg" xmlns:xlink="http://www.w3.org/1999/xlink" x="0px" y="0px"
	 viewBox="0 0 925 570" style="enable-background:new 0 0 925 570;" xml:space="preserve">
<style type="text/css">
	.st0{fill:#EAEAEA;}
</style>
<g>
	<path class="st0" d="M139.6,78c0,0,9.2-10.6,14.8-15.5c10.2-8.8,21.9-24,58.9-12.7c2.8,1.1,5.6,2.1,8.5,3.2
		c3.2,1.4,13.4,1.4,24-6.7c16.6-13,22.9-22.9,45.8-23.3c26.5-0.4,30.7,32.4,51.1,40.9c13,5.3,47.6,10.6,54.7,13L139.6,78z"/>
	<path class="st0" d="M924.7,224.4c0,0-4.6-5.3-7.4-7.8c-5.3-4.6-11.3-12.3-30.3-6.7c-1.4,0.4-2.8,1.1-4.2,1.8
		c-1.8,0.7-6.7,0.7-12.3-3.5c-8.5-6.7-11.6-11.6-23.3-12c-13.4-0.4-15.5,16.6-26.1,20.8c-6.7,2.8-24.3,5.3-27.9,6.7L924.7,224.4z"/>
</g>
</svg>
