<?xml version="1.0" encoding="utf-8"?>
<!-- Generator: Adobe Illustrator 24.0.0, SVG Export Plug-In . SVG Version: 6.00 Build 0)  -->
<svg version="1.1" id="Layer_1" xmlns="http://www.w3.org/2000/svg" xmlns:xlink="http://www.w3.org/1999/xlink" x="0px" y="0px"
	 viewBox="0 0 454 570" style="enable-background:new 0 0 454 570;" xml:space="preserve">
<style type="text/css">
	.st0{opacity:0.7;fill:#DCDCDC;enable-background:new    ;}
	.st1{fill:#002751;}
	.st2{fill:#B8B8B8;}
	.st3{fill:#FFFFFF;}
	.st4{fill:#CACACA;}
	.st5{fill:#202020;}
	.st6{fill:#AAAAAA;}
	.st7{fill:#D02E1B;}
	.st8{fill:#B91E0C;}
	.st9{fill:#CC2C1A;}
	.st10{fill:#3E3E3E;}
	.st11{fill:#2C2C2C;}
	.st12{fill:#454545;}
	.st13{fill:#292929;}
	.st14{fill:#261818;}
	.st15{opacity:0.3;fill:#AAAAAA;enable-background:new    ;}
	.st16{display:none;}
	.st17{display:inline;fill:#D02E1B;}
	.st18{display:inline;fill:#FFFFFF;}
	.st19{display:inline;fill:none;stroke:#D02E1B;stroke-width:1.9123;stroke-miterlimit:10;}
	.st20{display:inline;fill:#F0F0F0;}
	.st21{display:inline;fill:#9B9B9B;}
	.st22{display:inline;fill:#C7C7C7;}
	.st23{display:inline;fill:#343434;}
</style>
<g>
	<path class="st0" d="M244,570c48.9,0,88.6-6.5,88.6-14.5S292.9,541,244,541s-88.6,6.5-88.6,14.5S195,570,244,570z"/>
	<path class="st1" d="M199.2,147.5c0,0-0.3,0-1,0.4c-0.7,0.3-1.6,0.9-2.7,1.7c-2.3,1.7-5.2,4.7-7.5,9.2c-2.3,4.4-4.2,10.2-5.2,16.5
		c-0.4,3.2-0.9,6.5-1.3,9.9c-0.4,3.3-0.7,6.7-1.1,10.2c-0.4,3.4-0.9,6.9-2.6,10.2c-0.9,1.6-2,3-3.4,3.9c-1.4,1-3,1.6-4.6,2.2
		c-3.2,1-6.2,1.7-8.9,2.7c-2.7,1-5.3,2-7.7,3.2c-2.3,1.1-4.3,2.4-5.9,3.7c-1.6,1.3-2.9,2.7-3.7,3.9c-0.9,1.3-1.3,2.3-1.6,3.2
		c-0.3,0.7-0.4,1.1-0.4,1.1s0.1-0.4,0.3-1.1c0.3-0.7,0.7-1.9,1.6-3.2c0.9-1.3,2-2.7,3.6-4c1.6-1.4,3.6-2.7,5.9-3.9
		c2.3-1.3,4.9-2.3,7.6-3.4c2.7-1.1,5.9-1.9,8.7-3c1.4-0.6,3-1.1,4.3-2.2c1.3-0.9,2.4-2.2,3-3.6c1.4-2.9,1.7-6.5,2.2-9.8
		c0.4-3.4,0.6-6.9,1-10.2c0.3-3.4,0.6-6.7,1-9.9c0.9-6.5,2.6-12.5,4.9-17.2c1.1-2.4,2.4-4.4,3.9-6.2c1.4-1.7,2.7-3,4-4
		c1.3-1,2.3-1.7,3.2-2.2c0.7-0.4,1.3-0.6,1.3-0.6L199.2,147.5z"/>
	<path class="st2" d="M223.3,497.4l8.9,20.7c0,0,7.5-1.6,11.9-5l-6.3-23.7"/>
	<path class="st3" d="M241.4,502.9c0,0,0.6,0.9,5.2,3.6c4.6,2.7,5.6,4.3,5,8c-0.6,3.6-6.6,7.7-9.3,11.6c-2.6,3.9-5,10.9-7.9,14.2
		c-2.9,3.3-7.5,7.6-11.8,6.5c-4.3-1.1-3-4.3-2.2-5.9c1-1.4,3.6-8.9,4.9-13.6c1.4-4.9,1.7-11.3,2.6-14.5c0.7-2.7,1.6-2.9,5-0.1
		c2,1.6,4,0.9,5.7-0.6c1.3-1.1,0.6-5.3,1.4-7.2C240.9,503,241.4,502.9,241.4,502.9z"/>
	<path class="st4" d="M221.4,543.2c0,0,0.6,0.4,1.7,0.6c1.1,0.1,2.7-0.3,4.3-1.3c0.9-0.6,1.7-1.1,2.4-1.9c0.7-0.7,1.4-1.7,2.2-2.7
		c1.3-2,2.3-4.4,3.4-6.9c1.3-2.3,2.6-4.6,4-6.6c0.7-1,1.4-2,2.2-2.9c0.7-0.9,1.6-1.7,2.3-2.3c1.6-1.3,2.9-2.2,3.9-2.9
		c1-0.6,1.6-1,1.6-1s-0.6,0.4-1.4,1.1c-0.9,0.7-2.2,1.7-3.6,3.2c-0.7,0.7-1.4,1.4-2,2.3c-0.7,0.9-1.3,1.9-2,2.9
		c-1.3,2-2.6,4.3-3.9,6.6c-1.3,2.3-2.3,4.7-3.7,6.9c-0.7,1-1.4,2-2.3,2.7c-0.9,0.7-1.9,1.4-2.7,1.9c-1.9,1-3.6,1.1-4.7,1
		c-0.6-0.1-1-0.3-1.3-0.4C221.6,543.3,221.4,543.2,221.4,543.2z"/>
	<path class="st4" d="M225.6,524.7c0,0,0.4-0.1,1.1-0.1s1.6,0,2.3,0.1c0.9,0.1,1.6,0.6,2.2,0.9c0.3,0.1,0.4,0.3,0.6,0.4
		c0.1,0.1,0.3,0.1,0.3,0.1s-0.1,0-0.3-0.1c-0.1-0.1-0.4-0.1-0.7-0.3c-0.6-0.1-1.3-0.4-2.2-0.4c-0.7,0-1.6,0.1-2,0.3
		c-0.6,0.1-0.9,0.3-0.9,0.3c-0.3,0.1-0.9,0.1-1-0.3c-0.1-0.3-0.1-0.9,0.3-1C225.4,524.7,225.6,524.7,225.6,524.7z"/>
	<path class="st4" d="M225.9,521.2c0,0,0.4-0.1,1.1-0.1c0.7,0,1.6,0,2.3,0.1c0.9,0.1,1.6,0.6,2.2,0.9c0.3,0.1,0.4,0.3,0.6,0.4
		c0.1,0.1,0.3,0.1,0.3,0.1s-0.1,0-0.3-0.1c-0.1-0.1-0.4-0.1-0.7-0.3c-0.6-0.1-1.3-0.4-2.2-0.4c-0.7,0-1.6,0.1-2,0.3
		c-0.6,0.1-0.9,0.3-0.9,0.3c-0.3,0.1-0.9,0.1-1-0.3c-0.1-0.3-0.1-0.9,0.3-1C225.7,521.4,225.9,521.4,225.9,521.2z"/>
	<path class="st4" d="M226.4,517.8c0,0,0.4-0.1,1.1-0.1c0.7,0,1.6,0,2.3,0.1c0.9,0.1,1.6,0.6,2.2,0.9c0.3,0.1,0.4,0.3,0.6,0.4
		c0.1,0.1,0.3,0.1,0.3,0.1s-0.1,0-0.3-0.1c-0.1-0.1-0.4-0.1-0.7-0.3c-0.6-0.1-1.3-0.4-2.2-0.4c-0.7,0-1.6,0.1-2,0.3
		c-0.6,0.1-0.9,0.3-0.9,0.3c-0.3,0.1-0.9,0.1-1-0.3c-0.1-0.3-0.1-0.9,0.3-1C226.3,517.8,226.4,517.8,226.4,517.8z"/>
	<path class="st2" d="M247.3,511.2l-1.3,22.4c0,0,7.3,2,12.9,0.9l5-24"/>
	<path class="st3" d="M253,524.8c0,0,4,0.6,6.5,4.3c2.4,3.7,2.4,5.4,2.2,11.6c-0.3,6.2,2.3,10.6,1.1,16.3c-1.3,5.7-6,8.2-12.5,9.6
		c-6.5,1.3-16.1-2.7-15.3-8.5c0.6-5.7,3.4-7.9,6.6-14.9c3.2-6.9,1.6-12.2,4.3-14.9C248.5,525.5,249.8,525,253,524.8z"/>
	<path class="st4" d="M246.1,535.9c0,0,0.6-0.6,1.6-1c0.6-0.3,1.1-0.4,2-0.6c0.7-0.1,1.6-0.1,2.3,0c0.7,0.1,1.6,0.3,2.2,0.6
		c0.7,0.3,1.3,0.6,1.7,1c0.4,0.3,0.9,0.7,1.1,0.9c0.3,0.3,0.4,0.4,0.4,0.4s-0.1,0-0.6-0.1c-0.3-0.1-0.7-0.3-1.3-0.4
		c-0.6-0.1-1.1-0.3-1.7-0.4c-0.7-0.1-1.3-0.3-2-0.4c-1.4-0.1-2.7-0.1-3.9-0.1C246.8,535.7,246.1,535.9,246.1,535.9z"/>
	<path class="st4" d="M245.4,539.2c0,0,0.6-0.6,1.6-1c0.6-0.3,1.1-0.4,2-0.6c0.7-0.1,1.6-0.1,2.3,0c0.7,0.1,1.6,0.3,2.1,0.6
		c0.7,0.3,1.3,0.6,1.7,1c0.4,0.3,0.9,0.7,1.1,0.9c0.3,0.3,0.4,0.4,0.4,0.4s-0.1,0-0.6-0.1c-0.3-0.1-0.7-0.3-1.3-0.4
		c-0.6-0.1-1.1-0.3-1.7-0.4c-0.7-0.1-1.3-0.3-2-0.4c-1.4-0.1-2.7-0.1-3.9-0.1C246.1,539,245.4,539.2,245.4,539.2z"/>
	<path class="st4" d="M245,543c0,0,0.6-0.6,1.6-1c0.6-0.3,1.1-0.4,2-0.6c0.7-0.1,1.6-0.1,2.3,0c0.7,0.1,1.6,0.3,2.2,0.6
		c0.7,0.3,1.3,0.6,1.7,1c0.4,0.3,0.9,0.7,1.1,0.9c0.3,0.3,0.4,0.4,0.4,0.4s-0.1,0-0.6-0.1c-0.3-0.1-0.7-0.3-1.3-0.4
		c-0.6-0.1-1.1-0.3-1.7-0.4c-0.7-0.1-1.3-0.3-2-0.4c-1.4-0.1-2.7-0.1-3.9-0.1C245.7,542.9,245,543,245,543z"/>
	<path class="st4" d="M236.9,558.1c0,0,0.3,0.7,1.1,1.6c0.7,1,2.2,2.2,4,3c1,0.4,2,0.7,3.3,0.9c1.1,0.1,2.4,0.1,3.7,0
		c2.6-0.3,5.3-1.1,7.5-2.7c1.1-0.9,2.2-1.7,2.7-2.9c0.6-1.1,0.7-2.6,0.9-3.9c0.1-2.6,0-5.2,0-7.3c0-2.2,0.1-3.9,0.3-5.2
		c0.1-1.3,0.1-2,0.1-2s0.1,2.9,0.3,7.2c0,2.2,0.4,4.6,0.3,7.3c-0.1,1.3-0.3,2.7-0.9,4.2c-0.7,1.4-1.9,2.4-3,3.3
		c-2.4,1.7-5.3,2.6-8,2.7c-1.4,0.1-2.7,0-3.9-0.1c-1.1-0.1-2.4-0.6-3.3-1c-2-1-3.2-2.4-3.9-3.4C237.2,558.8,236.9,558.1,236.9,558.1
		z"/>
	<path class="st5" d="M220.4,144.9c0,0-20.1-6.3-29,4.4c-9,10.8-2.7,47-12.6,58.5c-9.9,11.5-30.5,7.2-41.3,27.5
		c-10.8,20.4,31.6,62.4,74.4,55.1c42.9-7.2,58.7-78.2,53.6-109.7c-4.3-27.2-18.4-40.6-28.4-42.2
		C224.9,136.9,220.4,144.9,220.4,144.9z"/>
	<path class="st2" d="M269.2,200.1l-7,13.5l-8.5,16.2l9.8-0.1l8.3-0.1c0,0-0.1-2.4,0.6-4.2c0.3-0.7,0.7-1.1,1.4-1.4
		c10-3.2,39.9-8.6,41.7-11.3l-12.9-19.5L269.2,200.1z"/>
	<path class="st2" d="M255.1,204.1c0,0-2,17.4-5.2,19.1c-3.2,1.7-8.7,1-12.9-2.9c-4.2-3.7-3.7-10.6-3.7-10.6c0.6-2.4,0-5.9-0.9-9.3
		c-0.1-0.9-0.4-1.7-0.7-2.6c-1.4-5.3-3.4-9.9-3.4-9.9l16.8-3.7c0.9,3,1.9,5.9,2.9,8.5c0.4,1,0.9,2,1.3,2.9c0,0.1,0.1,0.3,0.1,0.3
		c0.9,1.9,1.7,3.6,2.4,4.7c1,1.7,1.6,2.7,1.6,2.7L255.1,204.1z"/>
	<path class="st6" d="M252,200.6c-7.6,2-14.3-1.4-14.3-1.4l11.8-3.7c0,0.1,0.1,0.3,0.1,0.3C250.4,197.7,251.3,199.3,252,200.6z"/>
	<path class="st2" d="M208.4,173.9c0,0,18.9,32.4,38.7,25.8c19.8-6.6-0.7-46.2-0.7-46.2S212.2,139.2,208.4,173.9z"/>
	<path class="st2" d="M217.4,183.1c0,0-4.3,1.4-3.9,4.6c0.4,3,5.4,7,7.6,7.5c2.2,0.4,4.3-2.3,4.3-2.3"/>
	<path class="st5" d="M229.5,146.2c0,0,2,20.4-20.2,34l-11.9-19.4L229.5,146.2z"/>
	<path class="st5" d="M220.4,150.7c0,0,14.9,9.2,29.3,4.4l-4-11.5l-14.2-3.2l-8.9,4.4l-4.9,1.7"/>
	<path class="st6" d="M271.6,229.5l-8.3,0.1c-0.9-2.9-2.3-7.6-2.4-9c0-1.1,0.6-4.4,1-7c0.3-1.4,0.6-2.7,0.6-3.3c0.1-1.4,0.9-7,0.9-7
		l5.6-3.2c0,0-3.2,19.9,3,25.4C271.5,227.1,271.6,229.5,271.6,229.5z"/>
	<path class="st7" d="M208.8,160.5c0.3-2.9-0.1-4.3-0.1-4.3c-1.3-6-6.3-10.8-12.3-9.9c-4.4,0.6-8,3.9-9.2,8
		c-2.2-3.7-6.2-6.2-10.6-5.6c-6,0.7-9.8,6.5-9.5,12.6c0,0-0.1,1.6,0.9,4.2c1.3,3.6,3.9,6.7,7,8.9l16.2,11.5l13.2-15.1
		C206.8,168,208.5,164.4,208.8,160.5z"/>
	<path class="st8" d="M191.2,185.9L175,174.5c-3.2-2.2-5.6-5.3-7-8.9c-1-2.7-0.9-4.2-0.9-4.2c-0.3-6.2,3.4-11.9,9.5-12.6
		c4.4-0.6,8.5,1.7,10.6,5.6c0,0-9.2-4.2-12.9,3.2C169.4,166.7,181,176.5,191.2,185.9z"/>
	<path class="st8" d="M194.5,150.9c0,0,0.3-0.3,1-0.6c0.7-0.3,1.7-0.7,3.2-0.7c1.3,0,3,0.6,4.3,1.7c0.6,0.6,1.1,1.3,1.6,2
		c0.4,0.7,0.9,1.7,1,2.6c0.4,1.9,0.1,3.7-0.3,5.3c-0.6,1.6-1.3,2.9-2,4c-0.7,1-1.4,1.9-2,2.3c-0.6,0.6-0.9,0.7-0.9,0.7
		s0.3-0.3,0.6-1c0.4-0.6,0.9-1.6,1.4-2.6c0.6-1.1,1.1-2.4,1.4-3.9c0.3-1.4,0.4-3,0.1-4.6c-0.1-0.7-0.4-1.4-0.9-2.2
		c-0.4-0.7-0.9-1.3-1.3-1.9c-1-1-2.2-1.7-3.3-1.9c-1.1-0.1-2.2,0-2.9,0.1C194.9,150.8,194.5,150.9,194.5,150.9z"/>
	<path class="st2" d="M230.2,229.8l-2.2,16.9l-0.6,0.3l-10.9,5.9c-0.3-0.7-0.9-1.1-2.3-0.7c-0.9,0.1-2.3,0.7-4.4,1.6
		c-8,3-24.2,9.6-36,12h-0.1c-7.3,1.3-12.6,1.3-12.6-1.3c-0.1-3.7,1.1-15.6,5.4-29.5c5.6-18.1,14.6-38.1,14.6-38.1l10,1
		c0,0-1.7,8.3-3,17.1c-1.1,8-1.7,16.4-2.7,20.8c-0.6,2.3-3,9.2-3,9.2l36.3-25.2l5.4,4.7L230.2,229.8z"/>
	<path class="st2" d="M190.6,198.3c0,0,4.9-6.5,3-9.8c-1.9-3.3-8.3-7.9-9-8.5c-0.6-0.7,1.7-3,2.9-3.9c1-0.7,1.3,0.4,4.3,0.6
		c2.9,0.1,2.9-1.9,2.9-2.2s-6.9-3.7-7.6-3.7c-0.7,0-7.3,5.6-7.7,6c-0.4,0.4-5.5,4.9-5.7,6.2c-0.1,1.3,7.2,8.7,7.6,10.2
		c0.4,1.3-0.3,4-0.3,4"/>
	<path class="st2" d="M173.7,182.9c0,0,0.3-6.5,0.4-8.9c0.7-2,5.6-7.3,5.6-7.3l9.3-1.9c0,0,0.7,3-2,4.2c-2.7,1.1-5.4,1.6-5.4,1.6
		l-2.7,4.6v4"/>
	<path class="st2" d="M173.7,183.2c0,0-2.4-6.9-3-9.2c0.1-2.2,3.4-8.6,3.4-8.6l8.6-4.3c0,0,1.4,2.7-0.9,4.6c-2.4,1.9-4.9,3-4.9,3
		l-1.4,5.2l1,3.9"/>
	<path class="st6" d="M227.5,247.2l-10.9,5.9c-0.3-0.7-0.9-1.1-2.3-0.7c-0.9,0.1-2.3,0.7-4.4,1.6c8.2-10,8.7-34,8.7-34l4.6,1.9
		l0.7,2.9l1.4,5.4C225.3,229.8,227.2,239.6,227.5,247.2z"/>
	<path class="st8" d="M202.8,286.9c0,0-5.7,9.8,20.1,12l2-12l-10.2-5.5L202.8,286.9z"/>
	<path class="st2" d="M278.4,313.7c0,0-12.2,5.9-35.9,4.7c-7.7-0.4-19.1-2-26.4-4.7c0,0,2-6.6,4.2-17.5c0.6-2.9,1.1-6.2,1.7-9.6
		l12.8-3.3l39-9.9c0,0,0.6,13.8,1.1,18.2C275.5,297.2,278.4,313.7,278.4,313.7z"/>
	<path class="st9" d="M275.5,289.2c-10,6.5-30.4,13.5-42.2,9.8c-6-1.9-10.3-2.6-13.2-2.9c0.6-2.9,1.1-6.2,1.7-9.6l12.8-3.3
		L275.5,289.2z"/>
	<path class="st7" d="M280,286.5c0,0-4.7,7.2-28.8,10.2c-13.6,1.7-25.4-6.3-35.1-10.2c-5.9-2.3-13.2,0.4-13.2,0.4
		c6.7-8.3,9.9-21.1,11.3-32.7c11-14.2,4.4-34.6,4.4-34.6c8.5-6.7,14.8-10,14.8-10s5.5,11.2,12.5,10.8c6.9-0.4,7.7-17.2,7.7-17.2
		c8.7-1.3,15.5-3.2,15.5-3.2c-0.3,0.7-6,18.5,0.3,26c0.9,1,1.9,1.7,3,2.3L280,286.5z"/>
	<path class="st10" d="M278.4,313.7c1.7,13.1,2.7,29.7,2.7,29.7h-73.6c1.6-10.6,8.5-29.7,8.5-29.7S236.2,319.6,278.4,313.7z"/>
	<path class="st2" d="M281.7,112.6c0,0,0.7,1.7,0.9,5.4c0.3,3.9-0.9,6.3,1,8.5c1,1.1,3.7,4.6,6.9,8.9c3,4,4.2,9.5,4.2,9.5l9.8-4.4
		c0,0-2.3-7.2-2-9.8c0.4-2.6,0.4-6.7,0.4-9.8c0-3-0.9-5.6-1.1-6.5c-4-10.2-6.3-13.2-7.6-15.6c-1.3-2.4-3.9,1.6-3.6,2.9
		c0.1,0.7,0.3,4.3,0.9,6.6c0.6,2.2,0.1,8.9-2.2,11.2c-2.3,2.3-3.3-3-4-5.3C284.1,110.8,281.1,110.6,281.7,112.6z"/>
	<path class="st2" d="M293.6,141.8c0,0,2.3,8.5,3.2,15.9c0.6,4.7,1,13.3,1,22.9c0,7.5,1.3,14.3,1.3,14.3l16.2,17.8
		c8.5-8-0.3-39.3-6.6-59.1c-3.2-9.9-5-15.2-5-15.2L293.6,141.8z"/>
	<path class="st11" d="M280,100.7l8.9,25.4c0.3,0.7,1,1.1,1.7,1.1l7.6-0.7c0.9-0.1,1.4-0.9,1.1-1.7l-9.6-34.1
		c-0.1-0.7-1-0.9-1.4-0.4l-7.9,7.9C279.8,98.7,279.7,99.7,280,100.7z"/>
	<path class="st12" d="M280.5,101l8.6,24.7c0.3,0.7,0.9,1,1.6,1l7-0.7c0.7-0.1,1.3-0.9,1-1.6l-9.3-32.7c-0.1-0.6-0.9-0.9-1.3-0.4
		l-7.2,7.2C280.4,99.2,280.2,100.2,280.5,101z"/>
	<path class="st11" d="M289.1,90l1.9,0.3c0.1,0,0.4,0.1,0.4,0.4l9,33.4c0,0.1,0,0.3-0.1,0.4l-1.1,1.3L289.1,90z"/>
	<path class="st2" d="M297.3,109.5c0,0-1.9-5.3-0.7-6.3c1.1-1,2,1.7,2.4,3c0.4,1.3,2.6,5.3,2.7,6c0.1,0.7,0.9,7.6,0.9,7.6l-4.7-9.2"
		/>
	<path class="st2" d="M282.7,111.5c0,0,2,0.6,2.7,2.7c0.7,2.2,0.4,4.4,0.9,6.5c0.6,2-2.6-1.4-2.6-1.4"/>
	<path class="st10" d="M207.5,343.4c0,0-22.4,69.8-19.5,79.9c2.9,10,34.8,79.3,34.8,79.3s3.3,0.3,7.7-2.2c3.9-2.2,9-6.3,9-6.3
		s-4.6-17.6-8-34c-1.9-8.3-4.6-19.1-5.3-24c-1-6.6-3.4-13.6-4.6-17.1c-0.6-1.4-0.4-3,0.1-4.4l29-64.5l3.3-16.1l-23.7-2.9
		L207.5,343.4z"/>
	<path class="st10" d="M285.1,341.1c-1.6-12.8-3.6-16.3-5.2-21.4c-1.3-4.2-1.7-5.9-1.7-5.9l-33.4,23.8c0,0-0.1,55.5,2.3,82
		c0.3,3.6,0.4,7.2,0.3,10.9c-1,23.1-2.7,85.6-2.7,85.6s3.6,1.6,9.5,2c2.6,0.1,10-0.3,10-0.3c1.3-5.2,3.4-16.1,3.7-20.4
		c0.4-4.4,0.9-11.9,0.9-11.9C275.6,438.3,286.8,354.6,285.1,341.1z"/>
	<path class="st8" d="M211,279c0,0,1-0.4,3-0.6c2-0.1,4.9-0.1,8,0.9c1.6,0.4,3.3,1.1,5,2.2c1.7,1,3.3,2.2,5,3.3
		c1.7,1.1,3.6,2.3,5.4,3.3c1.9,1,4,1.9,6,2.6c2,0.7,4.3,1.3,6.3,1.7c2.2,0.4,4.3,0.4,6.3,0.3c4.2-0.3,8-1.3,11.2-2.3s5.7-2.2,7.5-3
		c0.9-0.4,1.6-0.7,2-1c0.4-0.3,0.7-0.4,0.7-0.4s-0.3,0.1-0.7,0.4c-0.4,0.3-1.1,0.7-2,1.1c-1.7,0.9-4.3,2.2-7.5,3.3s-7,2.2-11.2,2.6
		c-2.2,0.1-4.3,0.1-6.6-0.1c-2.2-0.4-4.4-1-6.6-1.7c-4.3-1.4-8.2-3.7-11.8-6.2c-1.7-1.1-3.4-2.4-5-3.4c-1.6-1-3.3-1.9-4.9-2.3
		c-3.2-1-6-1.3-7.9-1.1C212,278.7,211,279,211,279z"/>
	<path class="st8" d="M234.5,214.9c0,0,0.3,0.3,0.7,0.9c0.4,0.6,1.1,1.3,2,2.2c0.4,0.4,1,0.9,1.6,1.3c0.6,0.4,1.1,0.9,1.9,1.3
		c0.3,0.1,0.7,0.3,1,0.6c0.4,0.1,0.7,0.3,1.1,0.4c0.7,0.1,1.6,0.3,2.3,0.3h0.6h0.1h0.1h0.3c0.4-0.1,0.9-0.1,1.1-0.3
		c0.7-0.3,1.4-0.7,2-1.1c0.6-0.4,1-1,1.4-1.6c0.4-0.6,0.7-1.1,1-1.7c0.6-1.1,1-2,1.1-2.7c0.3-0.7,0.3-1.1,0.3-1.1s0,0.4-0.1,1.1
		c-0.1,0.7-0.4,1.7-0.9,2.9c-0.3,0.6-0.6,1.1-1,1.9c-0.4,0.6-0.9,1.3-1.6,1.7c-0.6,0.6-1.3,1-2.2,1.3c-0.4,0.1-0.9,0.3-1.3,0.4
		l-0.3,0.1c0,0,0,0-0.1,0h-0.1H245c-0.9,0-1.7-0.1-2.6-0.3c-0.4-0.1-0.9-0.3-1.1-0.4c-0.4-0.1-0.7-0.4-1.1-0.6
		c-0.7-0.4-1.3-0.9-1.9-1.4c-0.6-0.4-1-1-1.4-1.4C235.3,216.3,234.5,214.9,234.5,214.9z"/>
	<path class="st13" d="M281.1,343.4c0,0,0.1,2.4,0.3,6.9c0,2.2,0.1,4.9,0,7.9c0,3-0.1,6.5-0.7,10.2c-0.3,1.9-0.6,3.7-1,5.7
		c-0.3,2-0.6,4-0.9,6.2c-0.6,4.2-0.9,8.7-1.3,13.3c-0.4,4.6-0.7,9.5-1.4,14.3c-0.7,4.9-1.4,9.8-2.2,14.6c-1.3,9.9-2.4,19.6-3.4,29
		c-0.6,4.6-1,9-1.6,13.3c-0.4,4.2-0.7,8.2-1,11.9c-0.6,7.5-1,13.6-1.4,17.9c-0.4,4.3-0.9,6.7-0.9,6.7s0.4-2.4,0.6-6.7
		c0.3-4.3,0.6-10.5,1-17.9c0.3-3.7,0.4-7.7,0.9-12c0.4-4.3,1-8.7,1.4-13.3c1-9.2,2.2-19.1,3.3-29c0.6-4.9,1.3-9.9,2.2-14.6
		c0.7-4.9,1.1-9.6,1.4-14.2c0.4-4.6,0.9-9.2,1.4-13.3c0.3-2.2,0.6-4.2,1-6.2c0.4-2,0.7-3.9,1-5.7c0.6-3.7,0.7-7,0.9-10
		c0.1-3,0.1-5.6,0.1-7.9C281.2,345.8,281.1,343.4,281.1,343.4z"/>
	<path class="st13" d="M244.1,319.9c0,0,0,2.4-0.3,6.2c-0.1,1.9-0.3,4-0.4,6.3c-0.1,2.3-0.3,4.7-0.6,7.2c-0.1,2.4-0.4,4.9-0.6,7.2
		c0,1.1-0.1,2.3-0.1,3.3s0.1,2,0.3,2.9c0.4,1.7,0.9,3.3,1.1,4.3c0.3,1,0.6,1.6,0.6,1.6s-0.3-0.6-0.7-1.4c-0.4-1-1.1-2.4-1.6-4.2
		c-0.3-0.9-0.4-1.9-0.4-3c0-1,0-2.2,0-3.3c0.1-2.3,0.3-4.7,0.4-7.2c0.3-2.4,0.4-4.9,0.7-7.2c0.3-2.3,0.6-4.4,0.7-6.3
		C243.7,322.3,244.1,319.9,244.1,319.9z"/>
	<path class="st13" d="M242.4,353.7c0,0-0.7,2.2-2.2,6c-1.4,3.9-3.3,9.3-5.9,15.8c-1.3,3.3-2.6,6.7-4.2,10.5
		c-0.7,1.9-1.7,3.7-2.7,5.6c-1,1.9-2,3.7-3,5.6c-2,3.9-4.2,7.9-6.2,11.9c-0.4,1-1,2-1.4,3.2c-0.1,0.4-0.4,1-0.7,1.6
		c-0.3,0.6-0.6,1-0.7,1.6c-1,2-2.2,4.2-1.6,6.2c0.4,2.2,1.3,4.4,2,6.6s1.4,4.4,2.2,6.6c1.4,4.3,2.7,8.7,3.4,13.1
		c1,4.2,2.3,8.2,3.4,12c1.3,3.9,2.4,7.5,3.4,10.8c4.3,13.2,7.3,22.1,7.3,22.1s-0.9-2.2-2.3-6c-1.4-3.9-3.4-9.3-5.7-15.9
		c-1.1-3.3-2.4-6.9-3.7-10.6c-1.3-3.7-2.7-7.7-3.7-12c-0.9-4.3-2.2-8.6-3.6-12.9c-0.7-2.2-1.4-4.3-2.2-6.6c-0.7-2.3-1.6-4.3-2-6.7
		c-0.1-0.3-0.1-0.6-0.1-0.9c0-0.4,0-0.7,0-1c0.1-0.6,0.3-1.3,0.4-1.9c0.4-1.1,1-2.3,1.4-3.3c0.3-0.6,0.6-1,0.7-1.6
		c0.3-0.4,0.4-1,0.7-1.6c0.4-1.1,1-2.2,1.4-3.2c2-4.2,4.2-8,6.2-11.9c1-1.9,2-3.9,3.2-5.6c1.1-1.9,2-3.6,2.7-5.5
		c1.6-3.6,3.2-7.2,4.4-10.3C238.9,362.3,242.4,353.7,242.4,353.7z"/>
	<path class="st13" d="M202.5,417.3c0,0,1.4-0.4,3.6-0.3c0.6,0,1.1,0.1,1.7,0.1c0.6,0.1,1.3,0.3,1.9,0.4c0.6,0.1,1.3,0.4,2,0.9
		c0.3,0.1,0.6,0.3,1,0.6l0.4,0.3c0,0,0,0,0.1,0.1c0.1,0.1,0.3,0.3,0.3,0.6c0,0.1,0,0.3-0.1,0.6c-0.1,0.1-0.3,0.3-0.6,0.4h-0.1h-0.1
		c-2.7-0.1-5.4,0.1-7.5,0.6c-0.4,0.1-1,0.3-1.3,0.4c-0.4,0.1-0.7,0.3-1,0.4c-0.6,0.3-0.9,0.4-0.9,0.4s0,0,0.1-0.1
		c0.1-0.1,0.3-0.3,0.6-0.6c0.4-0.4,1.1-1,2.2-1.4c2-0.9,4.9-1.4,7.7-1.3h0.1h-0.1c-0.1,0-0.4,0.1-0.4,0.3c-0.1,0.1-0.1,0.3-0.1,0.4
		c0,0.1,0.1,0.3,0.3,0.4c0.1,0,0,0,0,0l-0.4-0.3c-0.3-0.1-0.6-0.3-0.9-0.6c-0.6-0.3-1.1-0.6-1.7-0.9c-1.1-0.4-2.3-0.9-3.3-1
		c-1-0.3-1.9-0.4-2.4-0.4C202.9,417.3,202.5,417.3,202.5,417.3z"/>
	<path class="st13" d="M216.7,316.4c0,0,0.9,0.3,2.6,0.6c1.6,0.3,3.9,0.7,6.6,1.1c2.7,0.4,6,0.7,9.5,1c1.7,0.1,3.6,0.1,5.3,0.3
		c1.9,0.1,3.7,0,5.6,0.1c1.9,0,3.7,0,5.6-0.1c1.9-0.1,3.6-0.1,5.3-0.3c1.7-0.1,3.4-0.3,5-0.4c1.6-0.1,3.2-0.3,4.4-0.4
		c1.4-0.1,2.7-0.3,3.7-0.4c1.1-0.1,2.2-0.3,2.9-0.4c1.6-0.3,2.6-0.3,2.6-0.3s-0.9,0.3-2.4,0.6c-0.9,0.1-1.7,0.4-2.9,0.7
		s-2.4,0.4-3.7,0.7c-1.4,0.3-2.9,0.6-4.4,0.7c-1.6,0.1-3.3,0.4-5,0.6c-1.7,0.1-3.6,0.3-5.4,0.4c-1.9,0-3.7,0.1-5.6,0.1
		c-1.9,0-3.7,0-5.6-0.1c-1.9-0.1-3.7-0.3-5.4-0.4c-1.7-0.1-3.4-0.4-5-0.6c-1.6-0.3-3.2-0.6-4.4-0.7c-2.7-0.6-5-1.1-6.6-1.6
		C217.6,316.7,216.7,316.4,216.7,316.4z"/>
	<path class="st2" d="M227,195.1c0,0,4.7,3.7,6.3,9.3l-0.4-7.9L227,195.1z"/>
	<path class="st14" d="M229.6,176.6c0,0,1.6,2.6,2.6,2.2c1-0.4,0.6-1.3-0.3-2.7C230.6,173.9,228.9,175.5,229.6,176.6z"/>
	<path class="st14" d="M243.5,166.7c0,0,1,2.9,2.2,2.7c1.1-0.3,0.7-1.1,0.3-2.7C245.1,164.3,243.1,165.4,243.5,166.7z"/>
	<path class="st5" d="M224.4,175.7c0.4-0.7,0.6-1.6,2.2-2.4c1.6-0.9,4.2-1.6,4.3-1.7c0.3-0.3,0-0.6-1.4-0.4
		c-1.4,0.3-3.4,0.4-4.9,1.6c-1.4,1.3-1.6,2.9-1.4,3.4C223.4,177,224.3,176,224.4,175.7z"/>
	<path class="st5" d="M243.5,162.4c-0.6,0.1-1.3,0-2.4,0.9c-1.1,0.9-2.3,2.7-2.4,2.7c-0.3,0.1-0.4-0.1,0.1-1.1
		c0.6-1,1.3-2.2,2.7-2.9c1.4-0.7,2.6-0.7,2.9-0.3C244.7,162,243.8,162.4,243.5,162.4z"/>
	<path class="st15" d="M241.4,175.2c0,0,3.7,2.6,4.4,4.4c0.3,0.6-1,3.3-1.4,3.2c-0.6,0,1.1-2.7,0.9-3.2c-1-1.7-5.2-5-5.7-5.4
		C238.6,173.5,239.6,173.9,241.4,175.2z"/>
	<path class="st3" d="M250.1,183.6c0,0-1.1,2.9-3.6,4.2c-2.4,1.3-6.3,1.3-6.3,1.3s2.3,2.9,6.6,1.7
		C251.7,189.4,250.1,183.6,250.1,183.6z"/>
	<path class="st5" d="M223,167.3c0,0-7,9.5-4.4,17.4c2.6,7.9,7.6,13.8,7.6,13.8l-12.8-3.2l-7-13.9l2-9l7.5-3.9L223,167.3z"/>
</g>
<g class="st16">
	<path class="st17" d="M107.4,166.3l-72.7,17.6c-3.3,0.9-5.3,4-4.4,7.3l12,49.6c0.9,3.3,4,5.3,7.3,4.4l42.9-10.5
		c3.2-0.7,6.6-0.3,9.5,1.6c9.5,6,19.6,11.9,21.1,10.9c1.3-1-2.2-7.9-6.2-14.8c-0.9-1.6-0.1-3.6,1.7-4l4-1c3.3-0.9,5.3-4,4.4-7.3
		l-12-49.6C114,167.6,110.7,165.6,107.4,166.3z"/>
	<path class="st18" d="M101.2,190.2c-2.4-7.2-9.2-12.2-16.3-10.5c-5.4,1.3-9.2,5.7-10,11c-3.2-4.3-8.3-6.6-13.8-5.3
		c-7.3,1.7-11,9.2-9.9,16.8c0,0,0.1,1.9,1.7,5c2.2,4.3,5.6,7.6,9.8,9.9l20.2,11c0.6,0.3,1.4,0.1,1.9-0.4l13.2-19.2
		c2.6-3.9,4.2-8.5,4.2-13.2C102.1,192.1,101.2,190.2,101.2,190.2z"/>
	<path class="st17" d="M357.4,107.1l56.5,13.6c2.6,0.6,4.2,3.2,3.4,5.7l-9.3,38.4c-0.6,2.6-3.2,4.2-5.7,3.4l-33.3-8
		c-2.4-0.6-5.2-0.1-7.3,1.1c-7.3,4.6-15.2,9.3-16.3,8.5c-1-0.7,1.7-6.2,4.9-11.5c0.7-1.1,0-2.7-1.3-3l-3.2-0.7
		c-2.6-0.6-4.2-3.2-3.4-5.7l9.3-38.4C352.2,107.9,354.8,106.3,357.4,107.1z"/>
	<path class="st18" d="M361.5,129.7c0,3.7,1.1,7.3,3.2,10.3L375,155c0.3,0.4,0.9,0.6,1.4,0.3l15.8-8.6c3.2-1.7,5.9-4.4,7.6-7.6
		c1.3-2.4,1.3-3.9,1.3-3.9c0.9-5.9-2-11.6-7.6-13.1c-4.2-1-8.2,0.7-10.6,4.2c-0.7-4.2-3.6-7.6-7.7-8.6c-5.6-1.3-10.9,2.4-12.8,8
		C362.1,125.6,361.5,127,361.5,129.7z"/>
	<path class="st19" d="M182.4,22.2L107.7,18c-3.3-0.1-6.2,2.4-6.5,5.7l-2.9,50.9c-0.1,3.3,2.4,6.2,5.7,6.5l44,2.4
		c3.3,0.1,6.5,1.7,8.6,4.2c7.3,8.5,15.3,17.1,17.1,16.5c1.6-0.6,0.1-8.2-1.7-15.9c-0.4-1.7,1-3.4,2.7-3.3l4,0.3
		c3.3,0.1,6.2-2.4,6.5-5.7l2.9-50.9C188.3,25.3,185.7,22.4,182.4,22.2z"/>
	<path class="st19" d="M373.3,195.1l73.6,13.8c3.3,0.6,5.5,3.7,4.9,7l-9.3,50.2c-0.6,3.3-3.7,5.5-7,4.9l-43.5-8.2
		c-3.3-0.6-6.6,0.1-9.3,2c-9,6.5-18.9,12.9-20.5,12c-1.4-0.9,1.7-8,5.4-15.1c0.9-1.6-0.1-3.6-1.9-3.9l-4-0.7c-3.3-0.6-5.4-3.7-4.9-7
		l9.3-50.2C366.7,196.7,370,194.4,373.3,195.1z"/>
	<path class="st20" d="M279.5,9.5l57.4-9.5c2.6-0.4,5,1.3,5.4,3.9l6.5,39c0.4,2.6-1.3,5-3.9,5.4L311.1,54c-2.6,0.4-4.7,1.9-6.3,4
		c-4.9,7.2-10.3,14.5-11.8,14.2c-1.3-0.3-0.9-6.3,0-12.5c0.1-1.4-1-2.6-2.4-2.3l-3.2,0.6c-2.6,0.4-5-1.3-5.4-3.9l-6.5-39
		C275.2,12.3,276.9,10,279.5,9.5z"/>
	<path class="st21" d="M332,25.2c0.6-1.1,0.7-2.7-0.1-3.7c-1-1.3-2.2-1.7-3.7-1.6c-2,0.3-3.9,0.6-5.9,1c-0.1,0-0.3,0.1-0.4,0
		c0.1-0.3,0.3-0.7,0.3-1c0.3-1.3,0.4-2.6,0.3-3.9c0-0.7-0.1-1.6-0.4-2.3c-0.7-2.2-2.4-3.3-4.7-3.3c-1.4,0-2.6,1-2.6,2.6
		c0,0.7,0,1.6-0.1,2.3c-0.3,1.9-1.1,3.4-2.3,4.9c-0.7,1-1.7,1.9-2.6,2.7c-0.9,0.7-1.7,1.4-2.6,2c-0.1,0.1-0.3,0.4-0.3,0.6l2.9,17.5
		c0,0.3,0.3,0.4,0.4,0.6c1,0.1,1.9,0.3,2.9,0.4c2.2,0.1,4.4,0,6.6-0.3c3.2-0.4,6.3-1,9.5-1.6c0.3,0,0.7-0.1,1-0.3
		c2.3-0.9,3-3.6,1.7-5.4c-0.1-0.1-0.1-0.3,0-0.4c1.3-1.3,1.4-3,0.4-4.6c-0.1-0.1-0.1-0.3,0-0.4c1.4-1.4,1.4-3.7-0.1-5.2
		C332,25.5,332,25.3,332,25.2z"/>
	<path class="st21" d="M305.6,25.3c0-0.1,0-0.1,0-0.3c0-0.3-0.1-0.7-0.4-1c0,0,0,0-0.1-0.1c0,0,0,0-0.1-0.1h-0.1c0,0,0,0-0.1,0h-0.1
		c-0.1,0-0.3,0-0.4,0c-1.6,0.3-3.2,0.6-4.7,0.7c-1.6,0.3-3.2,0.6-4.7,0.7c-0.1,0-0.3,0.1-0.4,0.1c0,0-0.1,0-0.1,0.1c0,0,0,0-0.1,0.1
		c0,0,0,0-0.1,0.1c0,0,0,0,0,0.1c0,0,0,0,0,0.1c-0.1,0.3-0.1,0.7,0,1c0,0.1,0,0.1,0,0.3c0.7,4.7,1.6,9.6,2.3,14.3
		c0.3,1.4,0.4,2.9,0.7,4.3c0.1,0.9,0.7,1.3,1.6,1.1c0.9-0.1,1.6-0.3,2.4-0.4c0.4,0,0.7-0.1,1.1-0.1c0.4,0,0.7-0.1,1.1-0.1
		c0.4,0,0.7-0.1,1.1-0.1c0.4,0,0.7-0.1,1.1-0.1c0.9-0.1,1.6-0.3,2.4-0.4c0.9-0.1,1.3-0.7,1.1-1.6c-0.3-1.4-0.4-2.9-0.7-4.3
		C307.2,34.9,306.5,30.2,305.6,25.3z"/>
	<path class="st22" d="M166.2,48.3c2.4,12.6-5.7,24.8-18.4,27.2c-12.6,2.4-24.8-5.7-27.2-18.4c-2.4-12.6,5.7-24.8,18.4-27.2
		C151.7,27.5,163.9,35.6,166.2,48.3z"/>
	<path class="st17" d="M154.9,36.9c-5-6.3-11,0-8.7,5c1.7,4,7.5,9,7.5,9c0.6-0.4,6.6-3.9,9-7.5C165.8,38.9,161.1,31.6,154.9,36.9z"
		/>
	<path class="st17" d="M127,42.4c2.3-7.7,10.2-4.2,10,1.4c-0.1,4.3-3.6,11.2-3.6,11.2c-0.7-0.1-7.5-1.1-11.2-3.6
		C117.8,48.3,119.4,39.6,127,42.4z"/>
	<path class="st23" d="M136.1,58.9c-0.6-0.1-1,0.6-0.7,1.3c1.7,3.7,6,5.9,10.6,5c4.4-0.9,7.7-4.4,7.9-8.6c0-0.7-0.6-1.1-1.1-0.9
		c-2.3,1.3-5,2.3-8,2.9C141.6,59.2,138.7,59.3,136.1,58.9z"/>
	<path class="st17" d="M145.2,61.2c-2,0.4-3.4,1.9-3.9,3.7c1.4,0.4,3,0.4,4.6,0.1c1.6-0.3,3-1,4.3-1.9
		C149,61.7,147.2,60.9,145.2,61.2z"/>
	<path class="st22" d="M424.7,230.5c0.6,12.8-9.3,23.7-22.1,24.4c-12.8,0.6-23.7-9.3-24.4-22.1c-0.6-12.8,9.3-23.7,22.1-24.4
		C413,207.9,423.9,217.8,424.7,230.5z"/>
	<path class="st17" d="M414.9,217.8c-4.2-7-10.9-1.6-9.5,3.7c1.1,4.2,6.2,10,6.2,10c0.7-0.3,7-2.9,9.9-6.2
		C425.4,221.2,421.8,213.3,414.9,217.8z"/>
	<path class="st17" d="M386.5,219.1c3.4-7.5,10.8-2.6,9.8,2.9c-0.7,4.3-5.2,10.5-5.2,10.5c-0.7-0.1-7.3-2.3-10.5-5.2
		C376.4,223.7,379.3,215.5,386.5,219.1z"/>
	<path class="st23" d="M393.1,236.8c-0.6-0.1-1.1,0.4-0.9,1.1c1.1,3.9,5.2,6.7,9.8,6.5c4.6-0.3,8.3-3.3,9-7.3c0.1-0.7-0.4-1.3-1-1
		c-2.4,1-5.3,1.6-8.5,1.7C398.7,237.9,395.7,237.6,393.1,236.8z"/>
	<path class="st17" d="M401.8,240.4c-2,0.1-3.7,1.4-4.4,3.2c1.4,0.6,2.9,0.9,4.6,0.9c1.6-0.1,3.2-0.6,4.4-1.3
		C405.6,241.4,403.9,240.3,401.8,240.4z"/>
	<path class="st17" d="M152.2,168.9c-1.4-2.6-4.4-4-7.2-2.9c-2,0.9-3.2,2.9-3.2,5c-1.6-1.4-3.7-2-5.7-1.1c-2.7,1.1-3.6,4.3-2.6,7.2
		c0,0,0.1,0.7,1,1.9c1.1,1.4,2.7,2.6,4.4,3.2l8.5,2.9c0.4,0.1,0.7,0,1-0.4l3.7-8.2c0.7-1.7,1-3.6,0.7-5.4
		C152.6,169.4,152.2,168.9,152.2,168.9z"/>
	<path class="st17" d="M332,152.8c0.3-2.2-0.9-4.4-3-4.9c-1.6-0.3-3.2,0.3-4,1.6c-0.3-1.6-1.3-2.9-2.9-3.2c-2.2-0.4-4,1-4.7,3.2
		c0,0-0.3,0.6-0.1,1.6c0,1.4,0.4,2.7,1.3,3.9l3.9,5.4c0.1,0.3,0.4,0.3,0.7,0.1l5.9-3.3c1.1-0.7,2.2-1.7,2.7-3
		C331.9,153.4,332,152.8,332,152.8z"/>
</g>
</svg>
