<?xml version="1.0" encoding="utf-8"?>
<!-- Generator: Adobe Illustrator 24.0.0, SVG Export Plug-In . SVG Version: 6.00 Build 0)  -->
<svg version="1.1" id="Layer_1" xmlns="http://www.w3.org/2000/svg" xmlns:xlink="http://www.w3.org/1999/xlink" x="0px" y="0px"
	 viewBox="0 0 825 570" style="enable-background:new 0 0 825 570;" xml:space="preserve">
<style type="text/css">
	.st0{fill:#585858;}
	.st1{fill:#5A5A5A;}
	.st2{fill:#484848;}
	.st3{fill:#393939;}
	.st4{fill:#EBEBEB;}
	.st5{fill:#C1C1C1;}
	.st6{fill-rule:evenodd;clip-rule:evenodd;fill:#D02E1B;}
	.st7{fill-rule:evenodd;clip-rule:evenodd;fill:#FFFFFF;}
	.st8{fill:#969696;}
	.st9{fill-rule:evenodd;clip-rule:evenodd;fill:#C0C0C0;}
	.st10{fill:#D02E1B;}
	.st11{fill:#E1E1E1;}
	.st12{fill:#FFFFFF;}
	.st13{fill:#F5442F;}
	.st14{fill-rule:evenodd;clip-rule:evenodd;fill:#231B22;}
	.st15{fill:#BBBBBB;}
	.st16{fill:#1E1E1E;}
	.st17{fill:#020202;}
	.st18{fill:#BCBCBC;}
	.st19{fill:#8A8A8A;}
	.st20{fill:#A6A6A6;}
	.st21{fill:#E9B023;}
	.st22{display:none;}
	.st23{display:inline;fill-rule:evenodd;clip-rule:evenodd;fill:#D02E1B;}
	.st24{display:inline;fill:#8C8C8C;}
	.st25{display:inline;fill:#FFFFFF;}
	.st26{display:inline;fill:#C1C1C1;}
	.st27{display:inline;fill:#FCFCFC;}
	.st28{display:inline;fill-rule:evenodd;clip-rule:evenodd;fill:#FFFFFF;}
</style>
<path class="st0" d="M725.6,533.4l-467.5-1c-17.6,0-32-14.4-32-32.3l531.7,1C757.9,519.3,743.5,533.4,725.6,533.4z"/>
<path class="st1" d="M725.6,522.5l-467.5-1c-13.7,0-25.6-8.9-30-21.1h-1.9c0,17.6,14.4,32,32,32.3l467.5,0.6c17.6,0,32-14.4,32.3-32
	H756C751.5,513.5,739.7,522.5,725.6,522.5z"/>
<path class="st2" d="M522.1,511.6h-60.4c-6.1,0-10.9-4.8-10.9-10.9h81.8C533,506.8,528.2,511.6,522.1,511.6z"/>
<path class="st3" d="M730.4,501.4l-477-1l0.6-287.9c0-16.6,13.4-30,30-29.7l417,0.6c16.6,0,30,13.4,29.7,30L730.4,501.4z"/>
<path class="st4" d="M705.8,208.1H278.6v268.1h427.2V208.1z"/>
<path class="st5" d="M423.4,365c-32,0-60.1,17.9-74.1,44.4c-6.7-3.8-14.4-5.8-22.4-5.8c-19.2,0-35.8,11.8-42.8,28.4
	c-2.6-0.6-5.1-0.6-7.7-0.6c-20.4,0-37.1,16.6-37.1,37.1c0,20.4,16.6,37.1,37.1,37.1c11.8,0,22.7-5.8,29.4-14.4
	c6.4,3.2,13.4,5.1,21.1,5.1c8.3,0,16.3-2.2,23-6.1c14.4,25.9,41.9,43.5,73.8,43.5c46.3,0,84-37.7,84-84
	C507.7,402.7,470,365,423.4,365z"/>
<path class="st5" d="M560.1,365c32,0,60.1,17.9,74.1,44.4c6.7-3.8,14.4-5.8,22.4-5.8c19.2,0,35.8,11.8,42.8,28.4
	c2.6-0.6,5.1-0.6,7.7-0.6c20.4,0,37.1,16.6,37.1,37.1c0,20.4-16.6,37.1-37.1,37.1c-11.8,0-22.7-5.8-29.4-14.4
	c-6.4,3.2-13.4,5.1-21.1,5.1c-8.3,0-16.3-2.2-23-6.1c-14.4,25.9-41.9,43.5-73.8,43.5c-46.3,0-84-37.7-84-84
	C476.1,402.7,513.8,365,560.1,365z"/>
<path class="st6" d="M309,271.4c-2.7,0-5.1,2.1-5.1,5.1v64.2c0,2.7,2.1,5.1,5.1,5.1h221.1c2.6,0,5.1-2.4,5.1-5.1v-64.2
	c0-2.7-2.1-5.1-5.1-5.1H309z M301.9,276.5c0-4.1,3.4-7.1,7.1-7.1h221.1c4.1,0,7.1,3.4,7.1,7.1v64.2c0,3.8-3.3,7.1-7.1,7.1H309
	c-4.1,0-7.1-3.4-7.1-7.1V276.5z"/>
<path class="st7" d="M456,297.2H324.3v-1.9H456V297.2z"/>
<path class="st7" d="M396.9,321.5h-72.5v-1.9h72.5V321.5z"/>
<path class="st7" d="M572.3,240.4c-2.7,0-5.1,2.2-5.1,5.1v69c0,2.7,2.2,5.1,5.1,5.1H663c2.7,0,5-2.4,4.8-5l0,0v-69.1
	c0-2.7-2.2-5.1-5.1-5.1H572.3z M565.2,245.5c0-4.1,3.3-7,7-7h90.4c4.1,0,7,3.3,7,7v69c0.3,3.8-3,7.1-6.7,7.1h-90.7c-4.1,0-7-3.3-7-7
	V245.5z"/>
<path class="st0" d="M317.3,235.2c0,3.5-2.9,6.4-6.4,6.4c-3.5,0-6.4-2.9-6.4-6.4s2.9-6.4,6.4-6.4
	C314.4,228.9,317.3,231.7,317.3,235.2z"/>
<path class="st8" d="M338.1,235.2c0,3.5-2.9,6.4-6.4,6.4c-3.5,0-6.4-2.9-6.4-6.4s2.9-6.4,6.4-6.4
	C335.2,228.9,338.1,231.7,338.1,235.2z"/>
<path class="st9" d="M352.8,229.9c-3,0-5.4,2.4-5.4,5.4c0,3,2.4,5.4,5.4,5.4c3,0,5.4-2.4,5.4-5.4
	C358.1,232.3,355.7,229.9,352.8,229.9z M345.4,235.2c0-4.1,3.3-7.4,7.4-7.4s7.4,3.3,7.4,7.4s-3.3,7.4-7.4,7.4
	S345.4,239.3,345.4,235.2z"/>
<path class="st5" d="M510,250.3l-18.9-26.8l-18.9,26.8c0,0,9.9,81.8-8.9,179.9h27.8h27.8C500.1,332.4,510,250.3,510,250.3z"/>
<path class="st10" d="M441.9,168.8l-39.3,44.1c-3.8,4.2-5.1,9.9-3.8,15.3l16.6,69c0.6,2.9,3.5,4.5,6.1,3.8c2.2-0.3,3.8-2.2,4.2-4.5
	c1.6-13.4,8.9-60.4,34.2-73.8L441.9,168.8z"/>
<path class="st10" d="M541.3,168.8l39.3,44.1c3.8,4.2,5.1,9.9,3.8,15.3l-16.6,69c-0.6,2.9-3.5,4.5-6.1,3.8c-2.2-0.3-3.8-2.2-4.2-4.5
	c-1.6-13.4-8.9-60.4-34.2-73.8L541.3,168.8z"/>
<path class="st11" d="M436.2,144.2c0,7,1.3,53.7,18.5,89.8c1.3,2.9,4.2,4.8,7.3,4.8h27.8h1.3h27.8c3.2,0,6.1-1.9,7.3-4.8
	c16.9-35.8,18.2-81.8,18.5-89.5c0-0.6,0-1.3,0-2.2c-1.9-32.9-7.7-59.7-15-81.2h-78.6c-7,21.4-13.1,48.2-15,81.2
	C436.2,142.9,436.2,143.5,436.2,144.2z"/>
<path class="st10" d="M479.6,5.5c-8,10.5-19.5,28.8-28.4,55.6h78.6c-8.9-26.8-20.4-45.1-28.4-55.6C495.9-1.8,485.1-1.8,479.6,5.5z"
	/>
<path class="st10" d="M490.5,150.9c16.1,0,29.1-13,29.1-29.1c0-16.1-13-29.1-29.1-29.1c-16.1,0-29.1,13-29.1,29.1
	C461.4,137.9,474.4,150.9,490.5,150.9z"/>
<path class="st5" d="M489.9,143.5c12,0,21.7-9.7,21.7-21.7c0-12-9.7-21.7-21.7-21.7c-12,0-21.7,9.7-21.7,21.7
	C468.1,133.8,477.9,143.5,489.9,143.5z"/>
<path class="st12" d="M469.1,128.2c0,0,12.5,1.9,19.8-10.5c5.1-8.3,1-17.9,1-17.9s-13.1-0.6-19.8,12.5
	C470.4,112.6,466.2,119.3,469.1,128.2z"/>
<path class="st13" d="M511.2,251.5h-41.5c-5.8,0-10.2-4.5-10.2-10.2v-2.9h62v2.9C521.5,247.1,517,251.5,511.2,251.5z"/>
<path class="st10" d="M495.9,307.5h-10.5l-3.8-129.1h17.9L495.9,307.5z"/>
<path class="st14" d="M822.4,533.6H0v-1.1h822.4V533.6z"/>
<path class="st15" d="M73.8,507.8l-15.3-7.7l18.9-29.7l15.3,7.3L73.8,507.8z"/>
<path class="st16" d="M59.7,497.9l19.5,9.6l13.1,14.7c2.6,3.2,2.9,7.7,1,11.2l-43.5-21.1L59.7,497.9z"/>
<path class="st16" d="M80.5,508.7l-1.6-8c0,0-6.4-4.5-9.3,3.2L80.5,508.7z"/>
<path class="st17" d="M155.9,303.3l-8,88.2L91.1,493.7l-29.4-15.3l52.7-108l21.1-67.4L155.9,303.3z"/>
<path class="st15" d="M129.1,518.3h-17.3l2.6-23.6h16.9L129.1,518.3z"/>
<path class="st16" d="M111.8,515.8h21.7l18.2,7.7c3.5,1.9,5.8,5.4,5.8,9.6h-48.6L111.8,515.8z"/>
<path class="st16" d="M135.5,516.4l-4.8-6.7c0,0-7.7-1.3-7,7L135.5,516.4z"/>
<path class="st16" d="M148.9,308.1l-0.6,83.4c0,3.2-0.3,6.1-1,9.3l-11.8,99.7h-30.4V394.7l-0.6-101.6L148.9,308.1z"/>
<path class="st16" d="M151.1,139.4c0,0,11.5-6.1,22,3.2c7.7,6.7,6.1,15.7,5.4,19.8c-0.3,1.6-1,2.9-1.9,4.2l-9.9,12.1l-1.3-27.8
	l-12.8-5.8L151.1,139.4z"/>
<path class="st18" d="M126.5,211.3c-5.8-3.2-8-10.5-4.8-16.3l15.3-28.4l21.1,11.5l-15.3,28.4C139.3,212.2,132.3,214.5,126.5,211.3z"
	/>
<path class="st18" d="M148.9,194.3c-8-4.2-10.9-14.4-6.4-22.4l14.4-26.5l14.1,5.8c4.8,2.6,6.7,15,4.2,20.1l-9.9,18.2
	C161.7,195.3,154.6,197.5,148.9,194.3z"/>
<path class="st18" d="M171.9,176.5l-0.3,8.6c0,1-1,1.9-1.9,1.3l-6.4-3.5L171.9,176.5z"/>
<path class="st16" d="M174.8,153.8c-8.3-9.6-13.1-12.8-13.1-12.8c-2.6-2.9-4.5-1.3-8-1.6c0,0-8.3-4.5-15,0.3
	c-10.9,7.7-6.7,24-6.7,24l-5.1,12.5c13.4,4.2,17.6-4.2,17.6-4.2l7.7-8.6l3.8-8l5.8-4.5l6.1,1.9C167.4,153.1,183.1,163.7,174.8,153.8
	z"/>
<path class="st18" d="M149.5,169.7c-1.6,2.9-5.1,4.2-8.3,2.6c-2.9-1.6-4.2-5.1-2.6-8.3c1.6-2.9,5.1-4.2,8.3-2.6
	C149.8,163,151.1,166.9,149.5,169.7z"/>
<path class="st16" d="M166.4,187c-5.4-3.5-11.8-1.3-11.8-1.3c-2.2-4.2-2.6-10.2-1.9-13.1c0-0.3,0.3-7.3,4.5-16.6l-6.1-3.2l-3.2,19.5
	l-6.1,5.4c-2.2,2.6-2.6,6.4-1.6,9.6c0.6,2.9,1.9,5.4,3.5,7.7c2.6,3.8,5.8,4.8,10.2,5.4C163.6,201.7,166.4,187,166.4,187z"/>
<path class="st16" d="M166.4,176.8c-0.3,0.6-1.3,1-1.9,0.6c-0.6-0.3-1-1.3-0.6-1.9c0.3-0.6,1.3-1,1.9-0.6
	C166.4,175.2,166.8,175.8,166.4,176.8z"/>
<path class="st16" d="M163.3,170.1l6.4,3.2c0.6,0.3,1.6,0,1.9-0.6c0.3-0.6,0-1.6-0.6-1.9l-6.4-3.2c-0.6-0.3-1.6,0-1.9,0.6
	C162.6,168.8,162.6,169.4,163.3,170.1z"/>
<path class="st16" d="M152.1,155c0,0,5.8,9.6,9.9,8.9c0,0,1.6,0,2.2-2.2c0,0,7.3,13.4,15.3,8.3c0,0,1.9-1.3-1.9-3.2
	c0,0,8.6,1.9,13.1-4.8c4.5-6.7-2.6-12.1-6.1-12.8c-3.5-0.6-3.5,0.3-8.9-2.9c-5.4-3.2-13.7-15.3-23.6-4.2V155z"/>
<path class="st18" d="M170.3,242.9c-4.5,4.5-4.5,11.8,0,16.3c4.5,4.5,11.8,4.5,16.3,0c4.5-4.5,4.5-11.8,0-16.3
	C181.8,238.4,174.5,238.4,170.3,242.9z"/>
<path class="st18" d="M186.6,243.5l10.5,6.4c1,0.3,1.3,1.6,1,2.6c-0.3,1-1.3,1.3-2.2,1l-12.5-4.8L186.6,243.5z"/>
<path class="st18" d="M173.8,240.7l-19.2,6.7l1.3,15l19.5-10.2L173.8,240.7z"/>
<path class="st19" d="M158.8,241.3l5.4,22.7l-35.1,15.7l-5.8-23L158.8,241.3z"/>
<path class="st20" d="M146,215.8c0,0-3.2-11.2-6.4-14.1c-2.2-1.9-10.5-6.7-14.7-8c-1.3-0.3-2.6,0-3.5,0.6
	c-4.5,3.5-16.9,14.7-21.4,35.1c-4.5,19.8-2.9,90.7-2.9,90.7c19.2,9.9,62.3-4.5,62.3-4.5C154.6,281.9,153.4,246.7,146,215.8z"/>
<path class="st18" d="M121.1,194.7c0,0,8.6,18.9,22.4,19.2c1,0,1.6-1,1.3-1.6c-0.6-2.9-2.6-8.3-7-13.1
	C132,192.4,126.5,189.9,121.1,194.7z"/>
<path class="st18" d="M171.9,275.8l18.2,0.6l4.5,10.9l-24.6,1L171.9,275.8z"/>
<path class="st18" d="M211.8,275.8c-1.3,5.8-11.2,11.5-17.3,11.5c-6.1-0.3-9.6-4.8-9.6-10.9c0.3-6.1,5.4-10.9,11.2-10.5
	C202.6,265.9,214.1,266.6,211.8,275.8z"/>
<path class="st19" d="M157.2,291.8l-47.6-25.9l-0.6,23c0.3,6.4,5.4,11.2,11.8,11.2l37.1-2.2L157.2,291.8z"/>
<path class="st20" d="M135.5,217.7v4.8l0.3,46.6l45.4,2.2l-0.3,19.5l-58.2,1.9c-2.6-0.3-4.8-1-7-2.6c-2.9-1.9-4.5-5.1-4.8-8.3
	l-5.4-53L135.5,217.7z"/>
<path class="st21" d="M132.3,220.5l3.8,46.7h-3.5L132.3,220.5z"/>
<path class="st19" d="M132.3,220.5l3.8,46.7h-3.5L132.3,220.5z"/>
<path d="M211.8,271.3l-63.3,2.6c-1.9,0-3.5-1.6-3.5-3.5s1.6-3.5,3.5-3.5l63.3-2.6c1.9,0,3.5,1.6,3.5,3.5S214.1,271.3,211.8,271.3z"
	/>
<path d="M210.9,268.1c0.3,0,0.6-0.3,1-0.6l27.8-49.5c0.3-0.6,0-1.6-0.6-1.9c-0.6-0.3-1.6,0-1.9,0.6l-27.8,49.5
	c-0.3,0.6,0,1.6,0.6,1.9C210.2,268.1,210.6,268.1,210.9,268.1z"/>
<g class="st22">
	<path class="st23" d="M296.3,98.2c0-2,1.6-4.1,4.1-4.1h34.5c2.3,0,4.1,1.6,4.1,3.7v19.8c0,1.1-0.5,2.1-1.3,2.8
		c-0.7,0.7-1.7,1.2-2.8,1.3l-7.8,0.3v14.2L314,121.7h-13.7c-1.2,0-2.2-0.4-2.9-1.1c-0.7-0.7-1.1-1.8-1.1-2.9V98.2z M300.3,95.8
		c-1.4,0-2.3,1.2-2.3,2.3v19.5c0,0.8,0.3,1.3,0.6,1.7s0.9,0.6,1.7,0.6h14.4l10.6,11.7v-11.4l9.5-0.4c0.5,0,1.1-0.3,1.6-0.7
		c0.5-0.5,0.7-1.1,0.7-1.6V97.9c0-1.1-0.8-2-2.3-2H300.3z"/>
	<path class="st23" d="M813.8,247.1c-4.6,0-8.6,4-8.6,9c0,4.9,3.8,9,8.6,9c4.6,0,8.6-4,8.6-9C822.4,251.1,818.4,247.4,813.8,247.1z
		 M803.3,256c0-5.9,4.9-10.9,10.5-10.9h0l0,0c5.6,0.3,10.5,4.9,10.5,10.9c0,5.9-4.9,10.9-10.5,10.9
		C807.8,266.9,803.3,261.9,803.3,256z"/>
	<path class="st23" d="M37.4,366.2c-3.3,0-6.1,2.8-6.1,6.1s2.8,6.1,6.1,6.1s6.1-2.8,6.1-6.1S40.7,366.2,37.4,366.2z M29.4,372.3
		c0-4.4,3.6-8,8-8s8,3.6,8,8c0,4.4-3.6,8-8,8S29.4,376.7,29.4,372.3z"/>
	<path class="st23" d="M602.9,30.4h16.6V47h-16.6V30.4z M604.8,32.3v12.8h12.8V32.3H604.8z"/>
	<path class="st24" d="M46.6,136.5h53V83.2c0-2.9-2.6-5.4-5.4-5.4H46.6c-2.9,0-5.4,2.6-5.4,5.4v47.9
		C41.2,134.3,43.8,136.5,46.6,136.5z"/>
	<path class="st24" d="M99.7,127.3v20.4l-17.6-20.4H99.7z"/>
	<path class="st25" d="M83.1,99.1c-2.9-2.9-7.7-2.9-10.5,0l-1.9,1.9l-1.9-1.9c-2.9-2.9-7.7-2.9-10.5,0c-2.9,2.9-2.9,7.7,0,10.5
		l7.3,7.3c1.3,1.3,2.6,1.9,4.2,1.9c2.2,0.3,4.8-0.3,6.4-2.2l7.3-7.3C85.9,106.8,85.9,102,83.1,99.1z"/>
	<path class="st26" d="M732.3,149.9c22.8,0,41.2-18.5,41.2-41.2c0-22.8-18.5-41.2-41.2-41.2s-41.2,18.5-41.2,41.2
		C691.1,131.5,709.6,149.9,732.3,149.9z"/>
	<path class="st27" d="M725.6,123.1c7,0,14.4,0.3,20.8-0.3c1.9,0,3.8-3.5,1.3-4.5c1-0.6,2.2-1,2.6-2.2c0.3-1.3,0-2.6-1.3-2.9
		c2.6,0.6,3.5-3.2,1.6-4.5c1-1,1.9-1.9,2.2-3.2c0.3-1.3-0.3-2.9-1.6-3.5c-0.6-0.3-1.6-0.3-2.6-0.3c-2.9,0-6.1,0-8.9,0
		c1-4.5,1-9.6-1.3-13.7c-0.6-1.3-2.6-2.6-4.2-1.6c-1.3,1-1,3.2-1,4.5c0.3,5.8-2.9,11.5-8,14.4C725.3,104.6,725.6,117,725.6,123.1z"
		/>
	<path class="st27" d="M723.1,104.6h-10.9v18.5h10.9V104.6z"/>
</g>
<g class="st22">
	<path class="st24" d="M785.4,401.7H596.5c-3.2,0-6.1-2.9-6.1-6.1v-49.2c0-3.2,2.9-6.1,6.1-6.1h188.8c3.2,0,6.1,2.9,6.1,6.1v49.2
		C791.4,398.8,788.6,401.7,785.4,401.7z"/>
	<path class="st28" d="M739.7,364.9H613.8v-2.5h125.9V364.9z"/>
	<path class="st28" d="M644.1,379.6h-30.4v-2.5h30.4V379.6z"/>
	<path class="st24" d="M613.8,394.7v28.4l30-28.4H613.8z"/>
</g>
</svg>
