<?xml version="1.0" encoding="utf-8"?>
<!-- Generator: Adobe Illustrator 24.0.0, SVG Export Plug-In . SVG Version: 6.00 Build 0)  -->
<svg version="1.1" id="Layer_1" xmlns="http://www.w3.org/2000/svg" xmlns:xlink="http://www.w3.org/1999/xlink" x="0px" y="0px"
	 viewBox="0 0 825 570" style="enable-background:new 0 0 825 570;" xml:space="preserve">
<style type="text/css">
	.st0{fill-rule:evenodd;clip-rule:evenodd;fill:#D02E1B;}
	.st1{fill:#8C8C8C;}
	.st2{fill:#FFFFFF;}
	.st3{fill:#C1C1C1;}
	.st4{fill:#FCFCFC;}
	.st5{display:none;}
	.st6{display:inline;fill:#8C8C8C;}
	.st7{display:inline;fill-rule:evenodd;clip-rule:evenodd;fill:#FFFFFF;}
</style>
<g>
	<path class="st0" d="M296.3,98.2c0-2,1.6-4.1,4.1-4.1h34.5c2.3,0,4.1,1.6,4.1,3.7v19.8c0,1.1-0.5,2.1-1.3,2.8
		c-0.7,0.7-1.7,1.2-2.8,1.3l-7.8,0.3v14.2L314,121.7h-13.7c-1.2,0-2.2-0.4-2.9-1.1c-0.7-0.7-1.1-1.8-1.1-2.9V98.2z M300.3,95.8
		c-1.4,0-2.3,1.2-2.3,2.3v19.5c0,0.8,0.3,1.3,0.6,1.7s0.9,0.6,1.7,0.6h14.4l10.6,11.7v-11.4l9.5-0.4c0.5,0,1.1-0.3,1.6-0.7
		c0.5-0.5,0.7-1.1,0.7-1.6V97.9c0-1.1-0.8-2-2.3-2H300.3z"/>
	<path class="st0" d="M813.8,247.1c-4.6,0-8.6,4-8.6,9c0,4.9,3.8,9,8.6,9c4.6,0,8.6-4,8.6-9C822.4,251.1,818.4,247.4,813.8,247.1z
		 M803.3,256c0-5.9,4.9-10.9,10.5-10.9h0l0,0c5.6,0.3,10.5,4.9,10.5,10.9c0,5.9-4.9,10.9-10.5,10.9
		C807.8,266.9,803.3,261.9,803.3,256z"/>
	<path class="st0" d="M37.4,366.2c-3.3,0-6.1,2.8-6.1,6.1s2.8,6.1,6.1,6.1s6.1-2.8,6.1-6.1S40.7,366.2,37.4,366.2z M29.4,372.3
		c0-4.4,3.6-8,8-8s8,3.6,8,8c0,4.4-3.6,8-8,8S29.4,376.7,29.4,372.3z"/>
	<path class="st0" d="M602.9,30.4h16.6V47h-16.6V30.4z M604.8,32.3v12.8h12.8V32.3H604.8z"/>
	<path class="st1" d="M46.6,136.5h53V83.2c0-2.9-2.6-5.4-5.4-5.4H46.6c-2.9,0-5.4,2.6-5.4,5.4v47.9
		C41.2,134.3,43.8,136.5,46.6,136.5z"/>
	<path class="st1" d="M99.7,127.3v20.4l-17.6-20.4H99.7z"/>
	<path class="st2" d="M83.1,99.1c-2.9-2.9-7.7-2.9-10.5,0l-1.9,1.9l-1.9-1.9c-2.9-2.9-7.7-2.9-10.5,0c-2.9,2.9-2.9,7.7,0,10.5
		l7.3,7.3c1.3,1.3,2.6,1.9,4.2,1.9c2.2,0.3,4.8-0.3,6.4-2.2l7.3-7.3C85.9,106.8,85.9,102,83.1,99.1z"/>
	<path class="st3" d="M732.3,149.9c22.8,0,41.2-18.5,41.2-41.2c0-22.8-18.5-41.2-41.2-41.2s-41.2,18.5-41.2,41.2
		C691.1,131.5,709.6,149.9,732.3,149.9z"/>
	<path class="st4" d="M725.6,123.1c7,0,14.4,0.3,20.8-0.3c1.9,0,3.8-3.5,1.3-4.5c1-0.6,2.2-1,2.6-2.2c0.3-1.3,0-2.6-1.3-2.9
		c2.6,0.6,3.5-3.2,1.6-4.5c1-1,1.9-1.9,2.2-3.2c0.3-1.3-0.3-2.9-1.6-3.5c-0.6-0.3-1.6-0.3-2.6-0.3c-2.9,0-6.1,0-8.9,0
		c1-4.5,1-9.6-1.3-13.7c-0.6-1.3-2.6-2.6-4.2-1.6c-1.3,1-1,3.2-1,4.5c0.3,5.8-2.9,11.5-8,14.4C725.3,104.6,725.6,117,725.6,123.1z"
		/>
	<path class="st4" d="M723.1,104.6h-10.9v18.5h10.9V104.6z"/>
</g>
<g class="st5">
	<path class="st6" d="M785.4,401.7H596.5c-3.2,0-6.1-2.9-6.1-6.1v-49.2c0-3.2,2.9-6.1,6.1-6.1h188.8c3.2,0,6.1,2.9,6.1,6.1v49.2
		C791.4,398.8,788.6,401.7,785.4,401.7z"/>
	<path class="st7" d="M739.7,364.9H613.8v-2.5h125.9V364.9z"/>
	<path class="st7" d="M644.1,379.6h-30.4v-2.5h30.4V379.6z"/>
	<path class="st6" d="M613.8,394.7v28.4l30-28.4H613.8z"/>
</g>
</svg>
