<?xml version="1.0" encoding="utf-8"?>
<!-- Generator: Adobe Illustrator 24.0.0, SVG Export Plug-In . SVG Version: 6.00 Build 0)  -->
<svg version="1.1" id="Layer_1" xmlns="http://www.w3.org/2000/svg" xmlns:xlink="http://www.w3.org/1999/xlink" x="0px" y="0px"
	 viewBox="0 0 750 549" style="enable-background:new 0 0 750 549;" xml:space="preserve">
<style type="text/css">
	.st0{fill:#7E7E7E;}
	.st1{fill:#FFFFFF;}
	.st2{display:none;}
	.st3{display:inline;fill:#F8F8F8;}
	.st4{display:inline;fill:#707070;}
	.st5{display:inline;fill:#B6B6B6;}
	.st6{display:inline;fill:#2D3038;}
	.st7{display:inline;fill:#B9B9B9;}
	.st8{display:inline;fill:#353535;}
	.st9{display:inline;fill:#212121;}
	.st10{display:inline;fill:#2A2A2A;}
	.st11{display:inline;fill:#929292;}
	.st12{display:inline;fill:#7F7F7F;}
	.st13{display:inline;fill:#444444;}
	.st14{display:inline;fill:#565656;}
	.st15{display:inline;fill:#1E1E1E;}
	.st16{display:inline;fill:#D6D6D6;}
	.st17{display:inline;fill:#404040;}
	.st18{display:inline;fill:#C4C4C4;}
	.st19{display:inline;fill:#959595;}
	.st20{display:inline;fill:#ADADAD;}
</style>
<path class="st0" d="M578.8,154.7c-1.3-0.5-2.1-0.8-2.1-0.8c0.6-0.2,1.3-0.5,2.1-1c10.1-4.8,28.2-21.6,47.2-72.7
	c20.4-54.9,51.7-37.5,51.7-37.5c-16.4,7.8-13.3,44.1-37.9,86.2C618.6,165.3,587,157.5,578.8,154.7z"/>
<path class="st1" d="M578.8,154.7c-1.3-0.5-2.1-0.8-2.1-0.8c0.6-0.2,1.3-0.5,2.1-1c15.7-4,35.1-13.8,44.9-33.3
	c7.5-14.9,18.9-45.9,19.1-46.2l1.4,0.5c-0.2,0.3-11.6,31.4-19.3,46.4C615.1,140.5,594.9,150.7,578.8,154.7z"/>
<path class="st0" d="M653,164.7c-50.4,27.2-71.9-12.7-73.5-15.9c0-0.2-0.2-0.2-0.2-0.2c1.4,0.3,3,0.5,4.5,0.5
	c38.8,2.9,61.9-41.4,89.2-57.6c28.2-16.7,49.9,4.3,49.9,4.3C695.9,87,705.4,136.4,653,164.7z"/>
<path class="st1" d="M614.3,157.2c-12.7,0.5-24.9-3.3-35-8.4c0-0.2-0.2-0.2-0.2-0.2c1.4,0.3,3,0.5,4.5,0.5c9.1,4.1,19.7,7,30.5,6.5
	c14-0.6,26-6.7,35.9-17.9c31.3-35.9,41.7-32.7,42.2-32.6l-0.3,0.8l-0.3,0.8c-0.6-0.2-11.1-1.6-40.4,32.1
	C641.2,150.4,628.7,156.6,614.3,157.2z"/>
<g class="st2">
	<path class="st3" d="M40.1,523.3c0,14.3,158.8,25.7,354.6,25.7s354.6-11.4,354.6-25.7c0-14.3-158.8-25.7-354.6-25.7
		S40.1,509.1,40.1,523.3z"/>
	<path class="st4" d="M71.1,298c0,0,11.2-25.2-1.8-23.2c0,0-4.5,3.7-9,11.1c-3.5,5.6-10.6,20.5-10.4,25.6c0.3,5.1,3.9,8.7,7.9,16.8
		c0,0,8.2,14.9,8.5,16.8l8.7-4.4c0,0-7.2-14.3-12.4-27L71.1,298z"/>
	<path class="st5" d="M5,373.8l172.8-29.1l-5-29.1L0,344.7L5,373.8z"/>
	<path class="st6" d="M177.3,341.1l9.2-1.5l-3.8-22.1l-9.2,1.5L177.3,341.1z"/>
	<path class="st7" d="M136.4,512.3h2.1c0,0-0.6-7.9,1.3-8.1c1.9,0,6.9,6.5,9.8,7.5c2.9,1,17.8,1.9,18-0.8c0-2.7-5.8-3.8-7.5-4.6
		c-1.8-0.8-10.6-9.2-12.2-10.3c-1.6-1-4.3-8.1-4.3-8.1l-8.3-0.3c0,0-0.5,6.5-1,10c-0.2,1.3-0.3,2.5-0.3,3.3
		C133.6,503.8,136.4,512.3,136.4,512.3z"/>
	<path class="st7" d="M82.5,510.7h1.8v-7.5c1.4,0.2,6.4,4.8,8,6.2c1.6,1.3,3.7,1.3,10.1,1.7c6.4,0.5,7.1-3.5,6.1-4.8
		c-1-1.3-4.3-1.9-6.1-2.7c-1.8-0.8-8.5-8.4-10.3-10.2s-2.9-7-2.9-7l-7.5,0.6c0,0,0,4.8-0.8,8.6c0,0.3-0.2,0.6-0.3,1
		C79.4,501,82.5,510.7,82.5,510.7z"/>
	<path class="st8" d="M110.5,342.8c0,0,2.9,6.7,3,8.4c0.3,1.7,6.9,17.6,8.8,28.4c1.1,6.5,4.3,26.7,4.7,29.2
		c0.5,4.4,2.6,14.1,2.9,18.6c0.2,2.5,12.7,41.1,15.7,61.3c0,0-7.2,1.1-12.7-0.3c0,0-10.9-20.8-17-50.3c-3.7-17.8-6.9-27.3-9.8-34.6
		c-2.9-7.3-18.9-28.1-20.7-30.3c-1.6-2.4-12.2-15.2-2.2-29.2C93.4,330,110.5,342.8,110.5,342.8z"/>
	<path class="st8" d="M74.4,402.1c1,6,0,14-1.9,35.9s3.4,48.6,3.4,48.6c6.6,2.2,14.1,0,14.1,0c-0.2-1.6,0-53.5,0-58.1
		c0-4.6,1.3-9.8,1.8-15.2c0.2-3.7,1.9-10.3,3.9-17.2c0.6-2.1,1.1-4.1,1.8-6c0.3-1.1,0.6-2.2,1-3.3c2.7-9.2,6.3-45.1,6.3-45.1
		s-20.1-16-29.8-1s-4.8,26-4.5,27.9C70.6,370.6,73.5,396,74.4,402.1z"/>
	<path class="st9" d="M82.8,369.8c0.2,0.3,10.1,22.4,12.8,26.2c0.6-2.1,1.1-4.1,1.8-6C97.4,390,83.1,370.3,82.8,369.8z"/>
	<path class="st10" d="M82.5,510.7h1.8v-7.5c1.4,0.2,6.4,4.8,8,6.2c1.6,1.3,3.7,1.3,10.1,1.7c6.4,0.5,7.1-3.5,6.1-4.8
		c-1-1.3-4.3-1.9-6.1-2.7c-6.9,0.3-15.4-9.2-19.4-9.2c-2.1,0-2.1,1.3-2.2,1.4c0,0.3-0.2,0.6-0.3,1C79.4,501,82.5,510.7,82.5,510.7z"
		/>
	<path class="st10" d="M136.4,512.3h2.1c0,0-0.6-7.9,1.3-8.1c1.9,0,6.9,6.5,9.8,7.5c2.9,1,17.8,1.9,18-0.8c0-2.7-5.8-3.8-7.5-4.6
		c-6.1,0-16.2-6.7-19.3-8.1c-3-1.4-6.4-0.5-6.4-0.5c-0.2,1.3-0.3,2.5-0.3,3.3C133.6,503.8,136.4,512.3,136.4,512.3z"/>
	<path class="st7" d="M92.7,258.8c0,0-3.2,8.4-0.6,14.9c0,0-11.7-0.8-12.2-2.1c-0.5-1.4,0.5-14-1.1-17.6
		C77,250.3,92.7,258.8,92.7,258.8z"/>
	<path class="st4" d="M93.9,270.9c0,0,6.9,2.4,10.1,3.2c3.2,0.6,9.8,3.8,9.1,15.4c-0.5,11.6-2.6,21.6-3.2,26.7
		c-0.6,4.9-0.3,17.6,1,23.8c0,0-16.7,4.1-36.3,0c0,0,3.5-10.5,3.4-13.2c-0.2-2.7-11.6-25.1-12.2-28.6c-0.5-3.5-2.9-19.1,2.4-22.5
		c5.3-3.5,9.5-3,11.7-4.6C82.1,269.5,90.6,269.8,93.9,270.9z"/>
	<path class="st4" d="M67.1,358.2c28.6,7.5,51.2,0,51.2,0c-2.1-4.1-3.5-8.4-4.7-12.4c-0.8-2.9-1.3-5.7-1.8-8.4
		c-2.2-15.4,0.6-27.2,0.6-27.2c-3.2-26.8-44.3-34.8-47.5-26.4c-3.2,8.4,6.4,44.9,6.9,48.1C72.2,335.2,67.1,358.2,67.1,358.2z"/>
	<path class="st7" d="M82.5,225.2c4.7-1.6,17.5-3.3,20.9,16c3.2,19.4-3.9,19.7-11.2,19.2c-7.4-0.5-18.8-13.7-19.7-17.6
		C71.6,238.8,69,229.8,82.5,225.2z"/>
	<path class="st11" d="M100.6,232.6c0,0-3.8,8.3-9,11.1c0,0-3.2,8.7-10.1,12.4c0,0-18.4-12.1-7.7-26.5
		C84.4,215.3,99.5,226.8,100.6,232.6z"/>
	<path class="st7" d="M92.1,240.9c-0.5-1-3.2-2.7-4.5,0.2c-1.3,2.7,3.2,7.6,4.5,7.5C93.2,248.2,93.7,244.7,92.1,240.9z"/>
	<path class="st11" d="M74.3,231.8c-0.5-0.6-12.7-6.2-15.1,5.4c-2.6,11.8,9.8,25.2,12,31.1c2.2,5.9-1,19.5-1,19.5s7.4-7,9.6-14.3
		C82.3,265.8,83.1,245.5,74.3,231.8z"/>
	<path class="st12" d="M73.6,231.5c0,0,3.7,2.9,4.2,7.6c0,0,0.6-3.7-0.8-5.9C75.6,231,73.6,231.5,73.6,231.5z"/>
	<path class="st8" d="M113.4,345.7c-0.8-2.9-1.3-5.7-1.8-8.4c0,0-1.9-4-2.6-5.9c-0.6-1.9-5.3-25.1-5.3-25.1S98.8,328.2,113.4,345.7z
		"/>
	<path class="st7" d="M134.4,347.1c0,0,3.7,3.7,4.8,4s3.5-1.6,11.9-2.2c0.8,0,2.1,0.6,1.8,1.6c-0.3,1-4,3.7-5.6,4
		c-1.6,0.5-9,3.3-12.7,1.9c-3.7-1.4-6.1-6-6.1-6L134.4,347.1z"/>
	<path class="st4" d="M105.9,274.7c0,0,9.8,3.8,10.3,17.3c0.6,13.5,1.1,20.5,1.6,22.5c0.5,2.1,1.6,10.3,4,15.4
		c2.4,4.9,18,20.2,18,20.2l-7.5,7c0,0-21.8-21.6-23.1-25.6c-1.3-4-6.7-31.4-7.2-36.2C101.7,291.7,96.7,275,105.9,274.7z"/>
	<path class="st13" d="M288.3,198.2c-59.8,0-108.5,48.1-108.5,107.3c0,59.2,48.6,107.3,108.5,107.3s108.5-48.1,108.5-107.3
		C396.8,246.3,348.3,198.2,288.3,198.2z M288.3,395.4c-50.2,0-90.8-40.2-90.8-89.9s40.6-89.9,90.8-89.9s90.8,40.2,90.8,89.9
		S338.5,395.4,288.3,395.4z"/>
	<path class="st14" d="M696.1,492.1c0,0,0.8,5.9,1,6.8c0.2,1,9.8-0.5,9.8-0.5l0.8-7C707.7,491.5,697.2,491.3,696.1,492.1z"/>
	<path class="st15" d="M696.9,498.1c0,0-3,3.5-6.1,5.1c-2.9,1.6-7.7,2.2-9.5,3.8c-1.3,1.1-4.7,6.2,7.7,6c12.4-0.2,18.3,0.6,19.6-1.3
		c1.3-1.9-1.9-14.1-1.9-14.1S704,498.8,696.9,498.1z"/>
	<path class="st14" d="M626.6,492.1c0,0,0.8,5.9,1,6.8c0.2,1,9.8-0.5,9.8-0.5l0.8-7C638.2,491.5,627.9,491.3,626.6,492.1z"/>
	<path class="st15" d="M627.6,498.1c0,0-3,3.5-6.1,5.1c-3,1.6-14,2.9-15.7,4.4c-1.3,1.1-3.4,5.9,14,5.4c12.4-0.3,18.3,0.6,19.6-1.3
		c1.3-1.9-1.9-14.1-1.9-14.1S634.8,498.9,627.6,498.1z"/>
	<path class="st10" d="M692.6,340.3c0,0,5.1,14.6,4.5,27.2c-0.6,12.5,2.7,26.4,4,39.5c1.6,14.6,7.7,49.4,8,57.2
		c0.2,7.8-1,32.9-1,32.9l-12.5,0.3c0,0-10.4-60.7-13.2-66.9c-2.7-6.2-16.2-50.3-16.7-55.3C665.3,370.3,692.6,340.3,692.6,340.3z"/>
	<path class="st10" d="M640.1,342.8c0,0-6.9,34.5-7.7,42.2c-1,7.6-1.4,37.3-1.9,42.1c-0.5,4.8-3,63-5.5,70.2h16
		c0,0,12.2-42.2,12.2-62.2c0-20,9.5-43.5,15.6-56.7c6.1-13.2,20.1-13.5,23.9-38C692.6,340.3,645.3,335.2,640.1,342.8z"/>
	<path class="st7" d="M672.5,225c0,0-12.5-4.4-18.5,4.6c-5.8,9.2-5.3,27.5,1.1,29.7c6.4,2.2,15.9,1.1,19.1-4.6
		c3.2-5.7,6.3-14,6.1-19.5C680.2,229.8,675.9,226.6,672.5,225z"/>
	<path class="st7" d="M657.4,258.8c0,0,0.5,3.2-0.3,4.8c-0.8,1.6,15.9,1.6,15.9,1.6s1.3-8.4,3.9-15.6
		C679.4,242.5,657.4,258.8,657.4,258.8z"/>
	<path class="st16" d="M676.9,249.6c0,0-1.1,1.7-5.8,1.1c-4.7-0.6-10.4-6.7-12.4-7.3c-1.9-0.6-1.9-1.7-1.9-1.7l-1.3,1.7l-2.1,0.2
		c0,0,1.9-5.4-1-7.5c-2.9-2.2,3-17.3,18-12.2c0,0,11.6,3,11.1,9.4C681,239.3,679.4,246.4,676.9,249.6z"/>
	<path class="st16" d="M656,263.3c0,0,0-3,1.4-3.2c1.4-0.3,15.6-1.6,17.3-1v3.5C674.8,262.6,671.4,264.5,656,263.3z"/>
	<path class="st7" d="M657,239.3c0.3-1.1,3-4.1,4.2-0.8c1.1,3.2-1.6,7.6-3,7.1C656.5,245.3,656.2,242,657,239.3z"/>
	<path class="st17" d="M656,263.3c0,0-7.7,2.7-16.7,6.4c0,0-10.3,3.7-11.4,14.6c-0.6,5.7-7.1,36.4-8.2,38.9
		c-1.3,2.5-15.6,44.1-16,45.1c-0.5,0.8,11.7,5.7,12.5,5.2c0.8-0.3,13.8-38,15.1-40.6c0,0,7.5-22.5,7.7-25.9c0,0,0.2,9.5,0.6,12.2
		c0.5,2.7-6.7,54.8-6.4,56.2c0.2,1.4,32.1,3.3,44.9,1.9c12.8-1.3,23.1-4.1,23.1-4.1s-10.1-41.1-9.8-45.7c0.6-10,4.2-28.6,4.2-28.6
		l10.4,18.7l-13.3,32.7l3,10c0,0,24.7-35.7,25.5-38.9c0.8-3.3-1.3-7.5-2.6-10.2c-1.3-2.7-9.9-23.2-11.9-26s-5.5-14.5-13.6-17.6
		c-6.9-2.7-18.4-4.9-18.4-4.9L656,263.3z"/>
	<path class="st18" d="M639,387l-58.4-14.3l10.4-38.7l58.4,14.3L639,387z"/>
	<path class="st19" d="M598.6,376.6c0,0-1.6,2.5-2.2,3.3c-0.6,0.8,1.4,1.3,2.4,0.5S598.6,376.6,598.6,376.6z"/>
	<path class="st20" d="M610.8,385.4c0,0,1-1,1.1-1.6c0,0,0.3-1.1,0.5-2.1c0.2-0.3,0.2-0.5,0.2-0.6c0.3-0.6,1.1-1.7,1.3-3.3
		c0.3-1.6,1-8.7,1-8.7l-4.5-1.1l-3.7-0.8c0,0-7.9,7.5-8.3,8.9c0,0.2,0,0.3-0.2,0.5c-0.2,1.3,0.2,2.2,0.2,3c0,0.3,0,2.7,0.6,3.2
		c0.8,0.6,1.8,0.8,2.4,0.5c0,0,1.8,1.3,3,1.1c0,0,1.6,1.1,3.2,0.6C608,385.1,609.8,386,610.8,385.4z"/>
	<path class="st17" d="M628.4,340.4c0,0-10.4,29.9-12.2,33c0,0-7.5-1.6-12.5-5.2l11.4-32.2L628.4,340.4z"/>
</g>
</svg>
