<?xml version="1.0" encoding="utf-8"?>
<!-- Generator: Adobe Illustrator 24.0.0, SVG Export Plug-In . SVG Version: 6.00 Build 0)  -->
<svg version="1.1" id="Layer_1" xmlns="http://www.w3.org/2000/svg" xmlns:xlink="http://www.w3.org/1999/xlink" x="0px" y="0px"
	 viewBox="0 0 750 549" style="enable-background:new 0 0 750 549;" xml:space="preserve">
<style type="text/css">
	.st0{fill:#C9C9C9;}
	.st1{fill:#F0F0F0;stroke:#4D4D4D;stroke-width:10;}
	.st2{fill:#FFFFFF;}
	.st3{fill:#D02E1B;}
	.st4{fill:#626262;}
	.st5{fill:#838383;}
	.st6{fill:#777777;}
	.st7{fill:#A4A4A4;}
	.st8{fill:#C4C4C4;}
	.st9{fill:#D6D6D6;}
	.st10{fill:#D9D9D9;}
	.st11{fill:#999999;}
	.st12{fill:#707070;}
	.st13{opacity:0.2;fill:#FFFFFF;enable-background:new    ;}
	.st14{display:none;}
	.st15{display:inline;fill:#F8F8F8;}
	.st16{display:inline;fill:#707070;}
	.st17{display:inline;fill:#B6B6B6;}
	.st18{display:inline;fill:#2D3038;}
	.st19{display:inline;fill:#B9B9B9;}
	.st20{display:inline;fill:#353535;}
	.st21{display:inline;fill:#212121;}
	.st22{display:inline;fill:#2A2A2A;}
	.st23{display:inline;fill:#929292;}
	.st24{display:inline;fill:#7F7F7F;}
	.st25{display:inline;fill:#444444;}
	.st26{display:inline;fill:#565656;}
	.st27{display:inline;fill:#1E1E1E;}
	.st28{display:inline;fill:#D6D6D6;}
	.st29{display:inline;fill:#404040;}
	.st30{display:inline;fill:#C4C4C4;}
	.st31{display:inline;fill:#959595;}
	.st32{display:inline;fill:#ADADAD;}
</style>
<path class="st0" d="M512.9,473.2H259.6c-5.3,0-9.5-4.1-9.5-9.4v-29.1c0-5.2,4.2-9.4,9.5-9.4h253.3c5.3,0,9.5,4.1,9.5,9.4v29.1
	C522.4,468.9,518.2,473.2,512.9,473.2z"/>
<path class="st1" d="M607.2,446.9H165.4c-8,0-14.4-6.4-14.4-14.2V42.2c0-7.8,6.4-14.2,14.4-14.2h441.8c8,0,14.4,6.4,14.4,14.2v390.4
	C621.5,440.5,615.1,446.9,607.2,446.9z"/>
<path class="st2" d="M249.5,304.7c6.1-16.7,0.3-34.8-13.2-45.1c-3.2-2.5-6.9-4.6-11.1-6c-12.4-4.4-25.5-2.5-35.8,4.1
	c-7.1,4.6-12.8,11.4-15.9,19.8c-0.3,0.8-0.6,1.7-0.8,2.5c-1.1,3.8-1.6,7.8-1.6,11.6c0.2,16.2,10.4,31.1,26.6,37
	C218.8,336.3,241.9,325.5,249.5,304.7z M201.2,319.3c-12.2-4.3-19.7-15.7-19.9-27.8c0-2.9,0.3-5.9,1.1-8.7c0.2-0.6,0.3-1.3,0.6-1.9
	c2.4-6.4,6.6-11.4,11.9-14.9c7.7-4.9,17.5-6.4,26.8-3c3,1.1,5.8,2.7,8.3,4.4c10.1,7.8,14.4,21.3,9.9,33.8
	C234.4,316.9,216.9,324.9,201.2,319.3z"/>
<path class="st3" d="M195.1,266.1l-5.5-8.4c10.3-6.7,23.4-8.6,35.8-4.1c4,1.4,7.9,3.5,11.1,6l-6.3,7.9c-2.4-1.9-5.3-3.5-8.3-4.4
	C212.6,259.6,202.8,261,195.1,266.1z"/>
<path class="st4" d="M182.4,282.8l-9.8-2.7c0.3-0.8,0.5-1.7,0.8-2.5c3-8.4,8.8-15.2,15.9-19.8l5.5,8.4c-5.3,3.5-9.6,8.6-11.9,14.9
	C182.9,281.5,182.7,282.1,182.4,282.8z"/>
<path class="st5" d="M171.2,291.7c0-3.8,0.5-7.8,1.6-11.6l9.8,2.7c-0.8,2.9-1.3,5.9-1.1,8.7L171.2,291.7z"/>
<path class="st2" d="M362.7,298.5c3.4-17.5-5.3-34.5-20.4-42.4c-3.7-1.9-7.5-3.3-11.9-4.1c-13-2.4-25.7,1.6-34.7,9.7
	c-6.3,5.7-10.7,13.3-12.5,22.1c-0.2,1-0.3,1.7-0.5,2.7c-0.5,4-0.3,7.9,0.3,11.8c2.9,15.9,15.2,29.1,32.2,32.2
	C337.5,334.5,358.6,320.3,362.7,298.5z M317.5,320.6c-12.7-2.4-22.1-12.2-24.2-24.3c-0.5-2.9-0.6-5.7-0.3-8.7c0-0.6,0.2-1.3,0.3-2.1
	c1.3-6.7,4.7-12.4,9.3-16.7c6.7-6,16.2-9.1,26-7.3c3.2,0.6,6.3,1.7,9,3.2c11.2,6,17.6,18.7,15.2,31.9
	C349.7,312.9,333.9,323.6,317.5,320.6z"/>
<path class="st3" d="M302.7,269l-6.7-7.5c9-8.1,21.7-12.1,34.7-9.7c4.3,0.8,8.2,2.2,11.9,4.1l-4.8,8.7c-2.7-1.4-5.8-2.5-9-3.2
	C318.9,259.9,309.5,262.9,302.7,269z"/>
<path class="st6" d="M292.9,287.5l-10.1-1.1c0.2-1,0.3-1.7,0.5-2.7c1.8-8.9,6.3-16.5,12.5-22.1l6.7,7.5c-4.7,4.3-8,10-9.3,16.7
	C293.3,286.3,293.1,286.9,292.9,287.5z"/>
<path class="st7" d="M283.3,298c-0.6-3.8-0.8-7.8-0.3-11.8l10.1,1.1c-0.3,3-0.3,5.9,0.3,8.7L283.3,298z"/>
<path class="st2" d="M453.5,255.8c-15.9-8.4-34.8-5.2-47,6.5c-2.9,2.9-5.6,6.2-7.5,10c-6.3,11.4-6.1,24.6-1,35.6
	c3.5,7.6,9.6,14.1,17.6,18.4c0.8,0.5,1.6,0.8,2.4,1.1c3.7,1.6,7.5,2.7,11.4,3.2c16.2,2.1,32.7-5.7,40.8-20.8
	C480.6,290.4,473.3,266.3,453.5,255.8z M461.2,305.2c-6.1,11.3-18.4,17.1-30.6,15.7c-2.9-0.3-5.8-1.1-8.5-2.4
	c-0.6-0.3-1.3-0.6-1.8-1c-6.1-3.2-10.6-8.1-13.2-13.8c-3.9-8.3-3.9-18.1,0.6-26.7c1.6-2.9,3.5-5.4,5.6-7.5
	c9.1-8.7,23.4-11.1,35.3-4.9C463.5,272.5,469.1,290.6,461.2,305.2z"/>
<path class="st3" d="M407.2,303.7L398,308c-5.1-11-5.3-24.1,1-35.6c2.1-3.8,4.7-7.1,7.5-10l7.1,7.1c-2.2,2.1-4.2,4.6-5.6,7.5
	C403.1,285.6,403.3,295.5,407.2,303.7z"/>
<path class="st4" d="M422.2,318.5l-4.2,9.1c-0.8-0.3-1.6-0.8-2.4-1.1c-8-4.3-14.1-10.8-17.6-18.4l9.1-4.3
	c2.7,5.7,7.2,10.6,13.2,13.8C421,317.9,421.6,318.2,422.2,318.5z"/>
<path class="st6" d="M429.5,330.7c-3.9-0.5-7.7-1.6-11.4-3.2l4.2-9.1c2.7,1.3,5.6,2.1,8.5,2.4L429.5,330.7z"/>
<path class="st8" d="M251.9,350.1h-80.7v6.2h80.7V350.1z"/>
<path class="st8" d="M231.7,363.1h-60.5v6.2h60.5V363.1z"/>
<path class="st8" d="M327.3,350.1h-44.6v6.2h44.6V350.1z"/>
<path class="st8" d="M348.8,363.1h-66.1v6.2h66.1V363.1z"/>
<path class="st8" d="M451,350.1h-49.4v6.2H451V350.1z"/>
<path class="st8" d="M458.8,363.1h-57.3v6.2h57.3V363.1z"/>
<path class="st3" d="M584.9,88.1h-58.7V94h58.7V88.1z"/>
<path class="st3" d="M594.4,106.2h-67.5v5.9h67.5V106.2z"/>
<path class="st3" d="M561.7,124.1h-35v5.9h35V124.1z"/>
<path class="st3" d="M580.4,142.1h-53.7v5.9h53.7V142.1z"/>
<path class="st2" d="M428.2,392.7h-257v6h257V392.7z"/>
<path class="st2" d="M448.9,406.5H171.2v6h277.7L448.9,406.5L448.9,406.5z"/>
<path class="st2" d="M351.3,420.4H171.2v6h180.2v-6H351.3z"/>
<path class="st3" d="M305,392.7H171.2v6H305V392.7z"/>
<path class="st3" d="M315.7,406.5H171.2v6h144.5V406.5z"/>
<path class="st3" d="M265,420.4h-93.9v6H265V420.4z"/>
<path class="st9" d="M261,197.8h-52.3v6.4H261V197.8z"/>
<path class="st9" d="M273.9,186.4H196v6.4h77.8v-6.4H273.9z"/>
<path class="st3" d="M235,112.2c7.4,0,13.5-6,13.5-13.3c0-7.4-6-13.3-13.5-13.3c-7.4,0-13.5,6-13.5,13.3
	C221.6,106.3,227.6,112.2,235,112.2z"/>
<path class="st3" d="M259.4,142.4v25.4c-7.5,3.3-15.7,5.2-24.5,5.2c-8.7,0-17-1.9-24.5-5.2v-25.4c0-13.3,10.9-24.3,24.5-24.3
	C248.4,118.3,259.4,129.1,259.4,142.4z"/>
<path class="st2" d="M445.4,79.1h-126v8.1h125.9v-8.1H445.4z"/>
<path class="st2" d="M507.8,79.1h-48.9v8.1h48.9V79.1z"/>
<path class="st2" d="M378.5,60.8h-59v8.1h59V60.8z"/>
<path class="st10" d="M321.3,110.3h-1.1v95.1h1.1V110.3z"/>
<path class="st10" d="M348.1,110.3H347v95.1h1.1V110.3z"/>
<path class="st10" d="M374.9,110.3h-1.1v95.1h1.1V110.3z"/>
<path class="st10" d="M401.7,110.3h-1.1v95.1h1.1V110.3z"/>
<path class="st10" d="M428.5,110.3h-1.1v95.1h1.1V110.3z"/>
<path class="st10" d="M455.3,110.3h-1.1v95.1h1.1V110.3z"/>
<path class="st10" d="M482.1,110.3H481v95.1h1.1V110.3z"/>
<path class="st10" d="M508.9,110.3h-1.1v95.1h1.1V110.3z"/>
<path class="st11" d="M320.7,174l18.3-18.1l8.8,8.9l19.6-19.2l15.2,15.2l19.7-19.5l13.5,13.3l34.3-34l25.8,25.4l15.6-15.4l16.7,16.7
	v58.3H320.7V174z"/>
<path class="st12" d="M320.7,186.1l14.6-14.4l9.3,9.1l10.6-10.5l20.2,19.8l25-24.9l9.1,8.9l25.8-25.6l23.7,23.3l49.1-48.6v82.4
	H320.7V186.1z"/>
<path class="st10" d="M331.5,102.4h-11.2v2.4h11.2V102.4z"/>
<path class="st10" d="M354.7,102.4H347v2.4h7.7V102.4z"/>
<path class="st10" d="M383.3,102.4h-9.5v2.4h9.5V102.4z"/>
<path class="st10" d="M407.7,102.4h-7.1v2.4h7.1V102.4z"/>
<path class="st10" d="M433.3,102.4h-5.9v2.4h5.9V102.4z"/>
<path class="st10" d="M465.7,102.4h-11.6v2.4h11.6V102.4z"/>
<path class="st10" d="M489,102.4h-8v2.4h8V102.4z"/>
<path class="st10" d="M512.7,102.4h-5v2.4h5V102.4z"/>
<path class="st13" d="M658.7,437.8H537.1c-7.9,0-14.3-6.4-14.3-14.1V250.9c0-7.8,6.4-14.1,14.3-14.1h121.6c7.9,0,14.3,6.4,14.3,14.1
	v172.8C672.9,431.6,666.6,437.8,658.7,437.8z"/>
<path class="st9" d="M562.8,269.8h-4.5v135.1h4.5V269.8z"/>
<path class="st9" d="M587.7,269.8h-4.5v135.1h4.5V269.8z"/>
<path class="st9" d="M612.7,269.8h-4.5v135.1h4.5V269.8z"/>
<path class="st9" d="M637.6,269.8h-4.5v135.1h4.5V269.8z"/>
<path class="st3" d="M564.7,337.2h-8.3v54.9h8.3V337.2z"/>
<path class="st3" d="M589.6,291.2h-8.3v54.9h8.3V291.2z"/>
<path class="st3" d="M614.5,322h-8.3v54.9h8.3V322z"/>
<path class="st3" d="M639.5,315.6h-8.3v54.9h8.3V315.6z"/>
<path class="st10" d="M234.9,174.6c-8.8,0-17.3-1.7-25.2-5.4c-21.7-9.7-35.8-31.3-35.8-54.9c0-33.2,27.3-60.2,60.8-60.2
	s60.8,27,60.8,60.2c0,23.7-14,45.1-35.8,54.9C252.2,172.9,243.7,174.6,234.9,174.6z M234.9,57.5c-31.8,0-57.6,25.6-57.6,57
	c0,22.4,13.3,42.7,33.9,51.9c7.5,3.3,15.6,5.1,23.9,5.1c8.3,0,16.4-1.7,23.9-5.1c20.5-9.2,33.9-29.7,33.9-51.9
	C292.6,83,266.6,57.5,234.9,57.5z"/>
<g class="st14">
	<path class="st15" d="M40.1,523.3c0,14.3,158.8,25.7,354.6,25.7s354.6-11.4,354.6-25.7s-158.8-25.7-354.6-25.7
		S40.1,509.1,40.1,523.3z"/>
	<path class="st16" d="M71.1,298c0,0,11.2-25.2-1.8-23.2c0,0-4.5,3.7-9,11.1c-3.5,5.6-10.6,20.5-10.4,25.6c0.3,5.1,3.9,8.7,7.9,16.8
		c0,0,8.2,14.9,8.5,16.8l8.7-4.4c0,0-7.2-14.3-12.4-27L71.1,298z"/>
	<path class="st17" d="M5,373.8l172.8-29.1l-5-29.1L0,344.7L5,373.8z"/>
	<path class="st18" d="M177.3,341.1l9.2-1.5l-3.8-22.1l-9.2,1.5L177.3,341.1z"/>
	<path class="st19" d="M136.4,512.3h2.1c0,0-0.6-7.9,1.3-8.1c1.9,0,6.9,6.5,9.8,7.5c2.9,1,17.8,1.9,18-0.8c0-2.7-5.8-3.8-7.5-4.6
		c-1.8-0.8-10.6-9.2-12.2-10.3c-1.6-1-4.3-8.1-4.3-8.1l-8.3-0.3c0,0-0.5,6.5-1,10c-0.2,1.3-0.3,2.5-0.3,3.3
		C133.6,503.8,136.4,512.3,136.4,512.3z"/>
	<path class="st19" d="M82.5,510.7h1.8v-7.5c1.4,0.2,6.4,4.8,8,6.2c1.6,1.3,3.7,1.3,10.1,1.7c6.4,0.5,7.1-3.5,6.1-4.8
		s-4.3-1.9-6.1-2.7c-1.8-0.8-8.5-8.4-10.3-10.2s-2.9-7-2.9-7l-7.5,0.6c0,0,0,4.8-0.8,8.6c0,0.3-0.2,0.6-0.3,1
		C79.4,501,82.5,510.7,82.5,510.7z"/>
	<path class="st20" d="M110.5,342.8c0,0,2.9,6.7,3,8.4c0.3,1.7,6.9,17.6,8.8,28.4c1.1,6.5,4.3,26.7,4.7,29.2
		c0.5,4.4,2.6,14.1,2.9,18.6c0.2,2.5,12.7,41.1,15.7,61.3c0,0-7.2,1.1-12.7-0.3c0,0-10.9-20.8-17-50.3c-3.7-17.8-6.9-27.3-9.8-34.6
		c-2.9-7.3-18.9-28.1-20.7-30.3c-1.6-2.4-12.2-15.2-2.2-29.2C93.4,330,110.5,342.8,110.5,342.8z"/>
	<path class="st20" d="M74.4,402.1c1,6,0,14-1.9,35.9s3.4,48.6,3.4,48.6c6.6,2.2,14.1,0,14.1,0c-0.2-1.6,0-53.5,0-58.1
		s1.3-9.8,1.8-15.2c0.2-3.7,1.9-10.3,3.9-17.2c0.6-2.1,1.1-4.1,1.8-6c0.3-1.1,0.6-2.2,1-3.3c2.7-9.2,6.3-45.1,6.3-45.1
		s-20.1-16-29.8-1s-4.8,26-4.5,27.9C70.6,370.6,73.5,396,74.4,402.1z"/>
	<path class="st21" d="M82.8,369.8c0.2,0.3,10.1,22.4,12.8,26.2c0.6-2.1,1.1-4.1,1.8-6C97.4,390,83.1,370.3,82.8,369.8z"/>
	<path class="st22" d="M82.5,510.7h1.8v-7.5c1.4,0.2,6.4,4.8,8,6.2c1.6,1.3,3.7,1.3,10.1,1.7c6.4,0.5,7.1-3.5,6.1-4.8
		s-4.3-1.9-6.1-2.7c-6.9,0.3-15.4-9.2-19.4-9.2c-2.1,0-2.1,1.3-2.2,1.4c0,0.3-0.2,0.6-0.3,1C79.4,501,82.5,510.7,82.5,510.7z"/>
	<path class="st22" d="M136.4,512.3h2.1c0,0-0.6-7.9,1.3-8.1c1.9,0,6.9,6.5,9.8,7.5c2.9,1,17.8,1.9,18-0.8c0-2.7-5.8-3.8-7.5-4.6
		c-6.1,0-16.2-6.7-19.3-8.1c-3-1.4-6.4-0.5-6.4-0.5c-0.2,1.3-0.3,2.5-0.3,3.3C133.6,503.8,136.4,512.3,136.4,512.3z"/>
	<path class="st19" d="M92.7,258.8c0,0-3.2,8.4-0.6,14.9c0,0-11.7-0.8-12.2-2.1c-0.5-1.4,0.5-14-1.1-17.6
		C77,250.3,92.7,258.8,92.7,258.8z"/>
	<path class="st16" d="M93.9,270.9c0,0,6.9,2.4,10.1,3.2c3.2,0.6,9.8,3.8,9.1,15.4c-0.5,11.6-2.6,21.6-3.2,26.7
		c-0.6,4.9-0.3,17.6,1,23.8c0,0-16.7,4.1-36.3,0c0,0,3.5-10.5,3.4-13.2c-0.2-2.7-11.6-25.1-12.2-28.6c-0.5-3.5-2.9-19.1,2.4-22.5
		c5.3-3.5,9.5-3,11.7-4.6C82.1,269.5,90.6,269.8,93.9,270.9z"/>
	<path class="st16" d="M67.1,358.2c28.6,7.5,51.2,0,51.2,0c-2.1-4.1-3.5-8.4-4.7-12.4c-0.8-2.9-1.3-5.7-1.8-8.4
		c-2.2-15.4,0.6-27.2,0.6-27.2c-3.2-26.8-44.3-34.8-47.5-26.4c-3.2,8.4,6.4,44.9,6.9,48.1C72.2,335.2,67.1,358.2,67.1,358.2z"/>
	<path class="st19" d="M82.5,225.2c4.7-1.6,17.5-3.3,20.9,16c3.2,19.4-3.9,19.7-11.2,19.2c-7.4-0.5-18.8-13.7-19.7-17.6
		C71.6,238.8,69,229.8,82.5,225.2z"/>
	<path class="st23" d="M100.6,232.6c0,0-3.8,8.3-9,11.1c0,0-3.2,8.7-10.1,12.4c0,0-18.4-12.1-7.7-26.5
		C84.4,215.3,99.5,226.8,100.6,232.6z"/>
	<path class="st19" d="M92.1,240.9c-0.5-1-3.2-2.7-4.5,0.2c-1.3,2.7,3.2,7.6,4.5,7.5C93.2,248.2,93.7,244.7,92.1,240.9z"/>
	<path class="st23" d="M74.3,231.8c-0.5-0.6-12.7-6.2-15.1,5.4c-2.6,11.8,9.8,25.2,12,31.1s-1,19.5-1,19.5s7.4-7,9.6-14.3
		C82.3,265.8,83.1,245.5,74.3,231.8z"/>
	<path class="st24" d="M73.6,231.5c0,0,3.7,2.9,4.2,7.6c0,0,0.6-3.7-0.8-5.9C75.6,231,73.6,231.5,73.6,231.5z"/>
	<path class="st20" d="M113.4,345.7c-0.8-2.9-1.3-5.7-1.8-8.4c0,0-1.9-4-2.6-5.9c-0.6-1.9-5.3-25.1-5.3-25.1S98.8,328.2,113.4,345.7
		z"/>
	<path class="st19" d="M134.4,347.1c0,0,3.7,3.7,4.8,4s3.5-1.6,11.9-2.2c0.8,0,2.1,0.6,1.8,1.6s-4,3.7-5.6,4
		c-1.6,0.5-9,3.3-12.7,1.9s-6.1-6-6.1-6L134.4,347.1z"/>
	<path class="st16" d="M105.9,274.7c0,0,9.8,3.8,10.3,17.3c0.6,13.5,1.1,20.5,1.6,22.5c0.5,2.1,1.6,10.3,4,15.4
		c2.4,4.9,18,20.2,18,20.2l-7.5,7c0,0-21.8-21.6-23.1-25.6c-1.3-4-6.7-31.4-7.2-36.2C101.7,291.7,96.7,275,105.9,274.7z"/>
	<path class="st25" d="M288.3,198.2c-59.8,0-108.5,48.1-108.5,107.3s48.6,107.3,108.5,107.3s108.5-48.1,108.5-107.3
		S348.3,198.2,288.3,198.2z M288.3,395.4c-50.2,0-90.8-40.2-90.8-89.9s40.6-89.9,90.8-89.9s90.8,40.2,90.8,89.9
		S338.5,395.4,288.3,395.4z"/>
	<path class="st26" d="M696.1,492.1c0,0,0.8,5.9,1,6.8c0.2,1,9.8-0.5,9.8-0.5l0.8-7C707.7,491.5,697.2,491.3,696.1,492.1z"/>
	<path class="st27" d="M696.9,498.1c0,0-3,3.5-6.1,5.1c-2.9,1.6-7.7,2.2-9.5,3.8c-1.3,1.1-4.7,6.2,7.7,6s18.3,0.6,19.6-1.3
		c1.3-1.9-1.9-14.1-1.9-14.1S704,498.8,696.9,498.1z"/>
	<path class="st26" d="M626.6,492.1c0,0,0.8,5.9,1,6.8c0.2,1,9.8-0.5,9.8-0.5l0.8-7C638.2,491.5,627.9,491.3,626.6,492.1z"/>
	<path class="st27" d="M627.6,498.1c0,0-3,3.5-6.1,5.1c-3,1.6-14,2.9-15.7,4.4c-1.3,1.1-3.4,5.9,14,5.4c12.4-0.3,18.3,0.6,19.6-1.3
		c1.3-1.9-1.9-14.1-1.9-14.1S634.8,498.9,627.6,498.1z"/>
	<path class="st22" d="M692.6,340.3c0,0,5.1,14.6,4.5,27.2c-0.6,12.5,2.7,26.4,4,39.5c1.6,14.6,7.7,49.4,8,57.2
		c0.2,7.8-1,32.9-1,32.9l-12.5,0.3c0,0-10.4-60.7-13.2-66.9c-2.7-6.2-16.2-50.3-16.7-55.3C665.3,370.3,692.6,340.3,692.6,340.3z"/>
	<path class="st22" d="M640.1,342.8c0,0-6.9,34.5-7.7,42.2c-1,7.6-1.4,37.3-1.9,42.1c-0.5,4.8-3,63-5.5,70.2h16
		c0,0,12.2-42.2,12.2-62.2s9.5-43.5,15.6-56.7s20.1-13.5,23.9-38C692.6,340.3,645.3,335.2,640.1,342.8z"/>
	<path class="st19" d="M672.5,225c0,0-12.5-4.4-18.5,4.6c-5.8,9.2-5.3,27.5,1.1,29.7c6.4,2.2,15.9,1.1,19.1-4.6
		c3.2-5.7,6.3-14,6.1-19.5C680.2,229.8,675.9,226.6,672.5,225z"/>
	<path class="st19" d="M657.4,258.8c0,0,0.5,3.2-0.3,4.8c-0.8,1.6,15.9,1.6,15.9,1.6s1.3-8.4,3.9-15.6
		C679.4,242.5,657.4,258.8,657.4,258.8z"/>
	<path class="st28" d="M676.9,249.6c0,0-1.1,1.7-5.8,1.1c-4.7-0.6-10.4-6.7-12.4-7.3c-1.9-0.6-1.9-1.7-1.9-1.7l-1.3,1.7l-2.1,0.2
		c0,0,1.9-5.4-1-7.5c-2.9-2.2,3-17.3,18-12.2c0,0,11.6,3,11.1,9.4C681,239.3,679.4,246.4,676.9,249.6z"/>
	<path class="st28" d="M656,263.3c0,0,0-3,1.4-3.2c1.4-0.3,15.6-1.6,17.3-1v3.5C674.8,262.6,671.4,264.5,656,263.3z"/>
	<path class="st19" d="M657,239.3c0.3-1.1,3-4.1,4.2-0.8c1.1,3.2-1.6,7.6-3,7.1C656.5,245.3,656.2,242,657,239.3z"/>
	<path class="st29" d="M656,263.3c0,0-7.7,2.7-16.7,6.4c0,0-10.3,3.7-11.4,14.6c-0.6,5.7-7.1,36.4-8.2,38.9
		c-1.3,2.5-15.6,44.1-16,45.1c-0.5,0.8,11.7,5.7,12.5,5.2c0.8-0.3,13.8-38,15.1-40.6c0,0,7.5-22.5,7.7-25.9c0,0,0.2,9.5,0.6,12.2
		c0.5,2.7-6.7,54.8-6.4,56.2c0.2,1.4,32.1,3.3,44.9,1.9c12.8-1.3,23.1-4.1,23.1-4.1s-10.1-41.1-9.8-45.7c0.6-10,4.2-28.6,4.2-28.6
		l10.4,18.7l-13.3,32.7l3,10c0,0,24.7-35.7,25.5-38.9c0.8-3.3-1.3-7.5-2.6-10.2s-9.9-23.2-11.9-26s-5.5-14.5-13.6-17.6
		c-6.9-2.7-18.4-4.9-18.4-4.9L656,263.3z"/>
	<path class="st30" d="M639,387l-58.4-14.3L591,334l58.4,14.3L639,387z"/>
	<path class="st31" d="M598.6,376.6c0,0-1.6,2.5-2.2,3.3c-0.6,0.8,1.4,1.3,2.4,0.5S598.6,376.6,598.6,376.6z"/>
	<path class="st32" d="M610.8,385.4c0,0,1-1,1.1-1.6c0,0,0.3-1.1,0.5-2.1c0.2-0.3,0.2-0.5,0.2-0.6c0.3-0.6,1.1-1.7,1.3-3.3
		c0.3-1.6,1-8.7,1-8.7l-4.5-1.1l-3.7-0.8c0,0-7.9,7.5-8.3,8.9c0,0.2,0,0.3-0.2,0.5c-0.2,1.3,0.2,2.2,0.2,3c0,0.3,0,2.7,0.6,3.2
		c0.8,0.6,1.8,0.8,2.4,0.5c0,0,1.8,1.3,3,1.1c0,0,1.6,1.1,3.2,0.6C608,385.1,609.8,386,610.8,385.4z"/>
	<path class="st29" d="M628.4,340.4c0,0-10.4,29.9-12.2,33c0,0-7.5-1.6-12.5-5.2l11.4-32.2L628.4,340.4z"/>
</g>
</svg>
